<?xml version="1.0" encoding="UTF-8"?>
<svg width="24px" height="24px" viewBox="0 0 24 24" version="1.1" xmlns="http://www.w3.org/2000/svg" xmlns:xlink="http://www.w3.org/1999/xlink">
    <!-- Generator: Sketch 52.5 (67469) - http://www.bohemiancoding.com/sketch -->
    <title>500px</title>
    <desc>Created with Sketch.</desc>
    <defs>
        <path d="M7.28515623,15.4492188 C7.03124998,14.8945313 7.01562498,14.734375 7.57421873,14.546875 C8.57421873,14.234375 7.88671873,14.90625 9.26171874,16.46875 L9.27343749,16.46875 L9.27343749,12.8007813 C9.32031249,10.8398437 10.9921875,9.19921874 13.0898438,9.19921874 C15.1953125,9.19921874 16.90625,10.8984375 16.90625,12.9804688 C16.90625,15.4570313 14.53125,17.4023438 11.8867187,16.625 C11.4765625,16.4609375 11.8046875,15.3867188 12.21875,15.5078125 C14.2890625,15.5078125 15.7109375,15.1132813 15.7109375,12.9921875 C15.7109375,10.609375 12.6992188,9.49218749 11.1445312,11.25 C10.2265625,12.28125 10.4570312,12.8945313 10.4570312,17.40625 C12.4375,18.6171875 15.078125,18.265625 16.7226563,16.6210938 C17.6914063,15.6523438 18.2265625,14.3554688 18.2265625,12.9882813 C18.2265625,11.6132812 17.6875,10.3242187 16.7109375,9.34374999 C15.7421875,8.37499998 14.453125,7.83984373 13.0664063,7.83984373 C11.6796875,7.83984373 10.3789062,8.37890623 9.41406249,9.34374999 C9.40234374,9.35546874 8.78906248,9.98828124 8.58593748,10.2773437 L8.56640623,10.3007812 C8.43749998,10.484375 8.32031248,10.65625 7.78124998,10.5390625 C7.51171873,10.4726562 7.22265623,10.3125 7.22265623,10.078125 L7.22265623,2.78124995 C7.22265623,2.58593745 7.37499998,2.3710937 7.63281248,2.3710937 L17.0585938,2.3710937 C17.3828125,2.3710937 17.3828125,2.8242187 17.3828125,2.96093745 C17.3828125,3.11328121 17.3828125,3.55078121 17.0585938,3.55078121 L8.33984373,3.55078121 L8.33984373,8.74218748 L8.35156248,8.74218748 C12.421875,4.45312496 19.3984375,7.33593748 19.3984375,12.9960938 C19.3984375,19.953125 9.83593749,21.6015625 7.28515623,15.4492188 Z M9.75781249,5.26171872 C9.73828124,5.42578122 9.93749999,6.21874997 10.328125,6.06640622 C15.203125,4.21093746 18.25,7.64453123 18.5078125,7.64453123 C18.6953125,7.64453123 19.3984375,7.04687498 19.0664063,6.75390622 C15.4257813,3.27734371 9.90624999,4.52734371 9.75781249,5.26171872 Z M18.6015625,18.1992188 C14.3046875,22.4921876 6.92187497,20.5742188 5.63281247,14.1289063 C5.63281247,13.6523438 4.44531246,13.8398438 4.50390621,14.2578125 C5.44140622,21.03125 14.1132813,24.2929688 19.4101563,18.9960938 C19.6796875,18.6914063 18.9179688,17.8867188 18.6015625,18.1992188 Z M11.59375,13.9765625 C11.59375,14.1328125 11.7617187,14.2617188 11.8085937,14.3085938 C11.9257812,14.4257813 12.046875,14.4804688 12.140625,14.4804688 C12.2890625,14.4804688 12.2421875,14.4882813 13.0117188,13.71875 C13.7773438,14.4726563 13.7578125,14.4804688 13.8828125,14.4804688 C14.09375,14.4804688 14.6054688,14.0742188 14.3007813,13.7695313 L13.625,13.09375 L14.3359375,12.3828125 C14.5820313,12.1171875 13.9414063,11.53125 13.703125,11.7695312 L13.0039063,12.46875 C12.2773438,11.734375 12.2851563,11.7070312 12.1640625,11.7070312 C11.96875,11.7070312 11.4609375,12.1640625 11.6796875,12.3828125 L12.390625,13.09375 C11.6835937,13.7929688 11.59375,13.84375 11.59375,13.9765625 Z" id="path-1"></path>
    </defs>
    <g id="500px" stroke="none" stroke-width="1" fill="none" fill-rule="evenodd">
        <mask id="mask-2" fill="white">
            <use xlink:href="#path-1"></use>
        </mask>
        <g fill-rule="nonzero"></g>
        <g id="🎨-color" mask="url(#mask-2)" fill="#000000">
            <rect id="🎨-Color" x="0" y="0" width="24" height="24"></rect>
        </g>
    </g>
</svg>