<?xml version="1.0" encoding="UTF-8"?>
<svg width="24px" height="24px" viewBox="0 0 24 24" version="1.1" xmlns="http://www.w3.org/2000/svg" xmlns:xlink="http://www.w3.org/1999/xlink">
    <!-- Generator: Sketch 52.5 (67469) - http://www.bohemiancoding.com/sketch -->
    <title>accessible-icon</title>
    <desc>Created with Sketch.</desc>
    <defs>
        <path d="M19.8085938,11.9921875 L19.3046875,18.1367188 C19.1757813,19.7265625 16.8085938,19.5078125 16.9375,17.9453125 L17.328125,13.1601563 L15.7226563,13.25 C16.1171875,14.0585938 16.3398438,14.9648438 16.3398438,15.9257813 C16.3398438,17.5351563 15.7109375,19 14.6875,20.0859375 L13.1523438,18.5507813 C15.4140625,16.0625 13.6640625,12.0195313 10.2617187,12.0195313 C9.24999999,12.0195313 8.32812498,12.40625 7.63671873,13.0351563 L6.10156247,11.5 C6.96093747,10.6914062 8.05859373,10.1289062 9.28124999,9.92968749 L12.2226563,6.58203122 L10.5585937,5.61328122 L8.54296873,7.41015623 C7.37109373,8.45703123 5.78515622,6.68749997 6.96093747,5.63671872 L9.61718749,3.26562496 C9.99999999,2.92187495 10.5585937,2.86718745 11.0039062,3.12499996 C11.0039062,3.12499996 16.4453125,6.28515622 16.453125,6.29296872 C17.0859375,6.68749997 17.2617188,7.69921873 16.6914063,8.34765623 L14.4101563,10.9453125 L18.5546875,10.7148437 C19.2773438,10.671875 19.8671875,11.2773437 19.8085938,11.9921875 Z M17.2734375,5.97656247 C18.3710938,5.97656247 19.2617188,5.08593747 19.2617188,3.98828121 C19.2617188,2.89062495 18.3710938,1.99999995 17.2734375,1.99999995 C16.1757813,1.99999995 15.2851563,2.89062495 15.2851563,3.98828121 C15.2851563,5.08593747 16.1757813,5.97656247 17.2734375,5.97656247 Z M10.265625,19.8320313 C7.11718748,19.8320313 5.28906247,16.2929688 7.03515623,13.734375 L5.48437497,12.1835938 C4.67187496,13.2109375 4.18749996,14.5117188 4.18749996,15.921875 C4.18749996,21.0273438 10.0742187,23.7890626 14.0078125,20.7070313 L12.4570313,19.15625 C11.8320312,19.5820313 11.078125,19.8320313 10.265625,19.8320313 Z" id="path-1"></path>
    </defs>
    <g id="accessible-icon" stroke="none" stroke-width="1" fill="none" fill-rule="evenodd">
        <mask id="mask-2" fill="white">
            <use xlink:href="#path-1"></use>
        </mask>
        <g fill-rule="nonzero"></g>
        <g id="🎨-color" mask="url(#mask-2)" fill="#000000">
            <rect id="🎨-Color" x="0" y="0" width="24" height="24"></rect>
        </g>
    </g>
</svg>