<?xml version="1.0" encoding="UTF-8"?>
<svg width="24px" height="24px" viewBox="0 0 24 24" version="1.1" xmlns="http://www.w3.org/2000/svg" xmlns:xlink="http://www.w3.org/1999/xlink">
    <!-- Generator: Sketch 52.5 (67469) - http://www.bohemiancoding.com/sketch -->
    <title>accusoft</title>
    <desc>Created with Sketch.</desc>
    <defs>
        <path d="M17.0452418,15.6224649 C16.8673947,15.4071763 9.800312,6.35257407 9.56006239,6.05616222 C9.13260529,5.51950075 9.56006239,5.53198125 10.1591264,5.52886112 C10.4617785,5.525741 13.475819,5.51014037 13.7940718,5.51014037 C14.5460219,5.50702025 14.6895476,5.52886112 14.9921997,5.90951635 C15.0577223,5.99375972 21.3915757,13.5787832 21.4570983,13.6567863 C21.6287052,13.8658346 21.9313573,14.2527301 21.6817473,14.3868955 C21.6068643,14.4274571 18.1060843,15.875195 18.0062403,15.9126365 C17.6911077,16.0374415 17.4602184,16.124805 17.0452418,15.6224649 M20.624025,15.4477379 C20.624025,15.4477379 17.0358815,17.0202808 16.9578783,17.0577223 C16.4586584,17.2854914 16.1185648,16.9578783 15.8127925,16.6021841 L14.0312013,14.2932917 C13.8627145,14.2652106 12.1466459,13.9937598 11.9937598,14.0031201 C11.8970359,14.0093604 11.6942278,14.0280811 11.5444618,14.0936038 C11.3915757,14.1591264 7.01404054,15.7410297 6.8580343,15.800312 C6.69890793,15.8627145 6.50234007,15.9126365 6.51170044,16.0374415 C6.51794069,16.1154446 6.57410294,16.1185648 6.65522618,16.1466459 C6.73946955,16.1716069 16.0436818,18.2558503 16.2652106,18.3026521 C16.7519501,18.4056163 17.4664587,18.6302652 17.9375975,18.3556943 C18.0031202,18.3182528 21.8003121,15.9719189 21.8627146,15.9282371 C22.0312013,15.8034322 21.9968799,15.7160687 21.8096724,15.6723869 C21.7379096,15.6630265 21.0421217,15.525741 20.624025,15.4477379 M10.4524181,9.79095163 C10.4524181,9.79095163 10.0780031,9.84087362 9.67238688,10.2620905 C9.39157565,10.5522621 2.11856469,17.7223089 2.07800307,17.7784712 C1.85959433,18.0904836 2.12792507,17.9906397 2.56786267,17.8315133 C2.59282367,17.8315133 6.14040559,16.6895476 6.14040559,16.6895476 C6.15600621,16.6708269 6.13728546,16.6864275 6.15912634,16.6708269 C6.14664584,16.5117005 6.13416534,15.8533542 6.12792509,15.8065523 C6.10920434,15.6443058 6.19656783,15.5912637 6.34633383,15.5288612 L9.23556941,14.474259 C9.25429016,14.449298 11.9968799,11.925117 12.049922,11.875195 L12.049922,11.8439938 L10.4524181,9.79095163" id="path-1"></path>
    </defs>
    <g id="accusoft" stroke="none" stroke-width="1" fill="none" fill-rule="evenodd">
        <mask id="mask-2" fill="white">
            <use xlink:href="#path-1"></use>
        </mask>
        <g fill-rule="nonzero"></g>
        <g id="🎨-color" mask="url(#mask-2)" fill="#000000">
            <rect id="🎨-Color" x="0" y="0" width="24" height="24"></rect>
        </g>
    </g>
</svg>