<?xml version="1.0" encoding="UTF-8"?>
<svg width="24px" height="24px" viewBox="0 0 24 24" version="1.1" xmlns="http://www.w3.org/2000/svg" xmlns:xlink="http://www.w3.org/1999/xlink">
    <!-- Generator: Sketch 52.5 (67469) - http://www.bohemiancoding.com/sketch -->
    <title>acquisitions-incorporated</title>
    <desc>Created with Sketch.</desc>
    <defs>
        <path d="M18.6992188,1.99999995 C18.6675782,2.21367183 18.6355469,2.42148433 18.6058594,2.62968745 C18.5515625,3.01015621 18.4925782,3.39062496 18.4476563,3.77226558 C18.4339844,3.88789058 18.4003907,3.94101558 18.2796875,3.94140621 C17.4746094,3.94570308 16.6699219,3.94687496 15.8648438,3.96210933 C15.1320313,3.97578121 14.396875,3.97304683 13.6683594,4.04023434 C13.1441406,4.08867184 12.7589844,4.53515621 12.9308594,5.08085934 C13.2648438,6.13984372 14.0109375,7.7800781 14.3515625,8.57499998 C16.91875,14.5960938 16.7511719,14.7074219 17.6328125,14.76875 C17.8933594,14.7867188 18.15625,14.7714844 18.4308594,14.7714844 C18.4851563,15.1386719 18.5347657,15.4761719 18.5890625,15.8460938 L14.0574219,15.8460938 L14.0574219,14.7914063 C14.4609375,14.7914063 14.8527344,14.7867188 15.2441406,14.79375 C15.3816406,14.7960938 15.4414063,14.7691406 15.3785156,14.6230469 C15.2050781,14.2210938 15.0359375,13.8171875 14.8609375,13.4160156 C14.7976563,13.2707031 14.7023438,13.2292969 14.5328125,13.2785156 C14.0515625,13.41875 13.5644531,13.5398438 13.0773438,13.6570313 C12.9113281,13.696875 12.8457031,13.7652344 12.8484375,13.9484375 C12.8816406,16.1933594 12.8855469,18.9300782 12.8875,18.9921875 C12.903125,19.4820313 13.2292969,19.8285157 13.7089844,19.8933594 C13.74375,19.8980469 14.2125,19.9996094 18.1105469,19.9933594 C18.4328125,19.9929688 18.4390625,19.9867188 18.484375,20.2886719 C18.5683594,20.8488282 18.6460938,21.4097657 18.7289063,21.9890625 C4.36367184,21.9890625 12.7160156,22.0128907 5.56132809,21.9890625 C5.40703122,21.9886719 5.32382809,21.9621094 5.35507809,21.7648438 C5.43476559,21.2625 5.49179684,20.75625 5.54921872,20.2507813 C5.57070309,20.0628907 5.63867184,19.9847657 5.84726559,19.9863282 C10.4601562,20.025 10.3367187,20 10.590625,19.8929688 C10.9585937,19.7375 11.1757812,19.3910157 11.1746094,18.9917969 C11.1699219,17.3148438 11.1617187,15.6378906 11.1648437,13.9609375 C11.1652344,13.8097656 11.1195312,13.7269531 10.9867187,13.69375 C10.3757812,13.540625 9.76367186,13.3925781 9.12812499,13.2367188 C8.92382811,13.7160156 8.72226561,14.1886719 8.51640623,14.6703125 C8.58789061,14.8011719 9.62499999,14.7847656 9.89453124,14.7847656 L9.89453124,15.8644531 L5.43124997,15.8644531 C5.47148434,15.528125 5.50039059,15.2078125 5.55742184,14.8925781 C5.56718747,14.8375 5.69531247,14.7699219 5.77109372,14.7667969 C6.10156247,14.753125 6.4332031,14.7554688 6.7644531,14.7632813 C6.92031247,14.7667969 6.9957031,14.7226563 7.06171873,14.5617188 C7.7113281,12.971875 7.5894531,13.3441406 9.69101561,8.27382811 C10.9226562,5.30156247 10.9824219,5.30429684 10.9660156,4.85859371 C10.9390625,4.13359371 9.97499999,3.98906246 9.49531249,3.99492183 C8.32187498,4.00976559 7.99335935,3.97656246 5.51718747,3.97656246 C5.23749997,2.23867183 5.35429684,2.7242187 5.26796872,2.20781245 C5.24023434,2.04218745 5.30820309,2.00117183 5.44921872,2.0007812 L18.6992188,1.99999995 Z M9.86640624,11.6566406 C9.95624999,11.7015625 10.0214844,11.7460937 10.09375,11.76875 C10.6128906,11.9332031 11.134375,12.090625 11.6535156,12.2554688 C11.8933594,12.3316406 12.1214844,12.3382813 12.3683594,12.2574219 C12.8769531,12.0902344 13.3953125,11.9523437 13.9085938,11.7992187 C13.965625,11.7820312 14.015625,11.7429687 14.0621094,11.7175781 C13.8,11.0390625 13.5496094,10.3835937 13.29375,9.73007811 C12.946875,8.84453123 12.6050781,7.3738281 12.2398438,6.49531247 C12.1800781,6.46484372 12.1652344,6.58749997 11.8714844,6.49531247 C11.203125,8.21601561 10.5378906,9.92812499 9.86640624,11.6566406 Z" id="path-1"></path>
    </defs>
    <g id="acquisitions-incorporated" stroke="none" stroke-width="1" fill="none" fill-rule="evenodd">
        <mask id="mask-2" fill="white">
            <use xlink:href="#path-1"></use>
        </mask>
        <g fill-rule="nonzero"></g>
        <g id="🎨-color" mask="url(#mask-2)" fill="#000000">
            <rect id="🎨-Color" x="0" y="0" width="24" height="24"></rect>
        </g>
    </g>
</svg>