<?xml version="1.0" encoding="UTF-8"?>
<svg width="24px" height="24px" viewBox="0 0 24 24" version="1.1" xmlns="http://www.w3.org/2000/svg" xmlns:xlink="http://www.w3.org/1999/xlink">
    <!-- Generator: Sketch 52.5 (67469) - http://www.bohemiancoding.com/sketch -->
    <title>ad</title>
    <desc>Created with Sketch.</desc>
    <defs>
        <path d="M8.15312498,12.625 L9.59687499,12.625 L8.87499998,10.5460937 L8.15312498,12.625 Z M15.75,12 C15.2332031,12 14.8125,12.4207031 14.8125,12.9375 C14.8125,13.4542969 15.2332031,13.875 15.75,13.875 C16.2667969,13.875 16.6875,13.4542969 16.6875,12.9375 C16.6875,12.4207031 16.2667969,12 15.75,12 Z M20.125,4.49999996 L3.87499996,4.49999996 C2.8398437,4.49999996 1.99999995,5.33984372 1.99999995,6.37499997 L1.99999995,17.625 C1.99999995,18.6601563 2.8398437,19.5 3.87499996,19.5 L20.125,19.5 C21.1601563,19.5 22.0000001,18.6601563 22.0000001,17.625 L22.0000001,6.37499997 C22.0000001,5.33984372 21.1601563,4.49999996 20.125,4.49999996 Z M11.7882812,15.75 L11.1265625,15.75 C10.8605469,15.75 10.6234375,15.58125 10.5359375,15.3300781 L10.2480469,14.5 L7.50234373,14.5 L7.21406248,15.3300781 C7.12671076,15.5815538 6.88965228,15.7500974 6.62343747,15.75 L5.96171872,15.75 C5.53164059,15.75 5.23007809,15.3261719 5.37109372,14.9199219 L7.46874998,8.87968748 C7.59974724,8.5026494 7.95515027,8.24993229 8.35429686,8.24999998 L9.39570311,8.24999998 C9.79497069,8.24993082 10.1504354,8.50284856 10.28125,8.88007811 L12.3785156,14.9199219 C12.5195313,15.3261719 12.2179688,15.75 11.7882812,15.75 Z M18.5625,15.125 C18.5625,15.4703125 18.2828125,15.75 17.9375,15.75 L17.3125,15.75 C17.1230469,15.75 16.959375,15.6613281 16.8445313,15.528125 C16.5078125,15.6710938 16.1378906,15.75 15.75,15.75 C14.1992188,15.75 12.9375,14.4882813 12.9375,12.9375 C12.9375,11.3867187 14.1992188,10.125 15.75,10.125 C16.0804688,10.125 16.3929688,10.1925781 16.6875,10.2976562 L16.6875,8.87499998 C16.6875,8.52968748 16.9671875,8.24999998 17.3125,8.24999998 L17.9375,8.24999998 C18.2828125,8.24999998 18.5625,8.52968748 18.5625,8.87499998 L18.5625,15.125 Z" id="path-1"></path>
    </defs>
    <g id="ad" stroke="none" stroke-width="1" fill="none" fill-rule="evenodd">
        <mask id="mask-2" fill="white">
            <use xlink:href="#path-1"></use>
        </mask>
        <g fill-rule="nonzero"></g>
        <g id="🎨-color" mask="url(#mask-2)" fill="#000000">
            <rect id="🎨-Color" x="0" y="0" width="24" height="24"></rect>
        </g>
    </g>
</svg>