<?xml version="1.0" encoding="UTF-8"?>
<svg width="24px" height="24px" viewBox="0 0 24 24" version="1.1" xmlns="http://www.w3.org/2000/svg" xmlns:xlink="http://www.w3.org/1999/xlink">
    <!-- Generator: Sketch 52.5 (67469) - http://www.bohemiancoding.com/sketch -->
    <title>address-book</title>
    <desc>Created with Sketch.</desc>
    <defs>
        <path d="M20.28125,8.24999998 C20.5390625,8.24999998 20.75,8.03906248 20.75,7.78124998 L20.75,6.21874997 C20.75,5.96093747 20.5390625,5.74999997 20.28125,5.74999997 L19.5,5.74999997 L19.5,3.87499996 C19.5,2.8398437 18.6601563,1.99999995 17.625,1.99999995 L5.12499997,1.99999995 C4.08984371,1.99999995 3.24999996,2.8398437 3.24999996,3.87499996 L3.24999996,20.125 C3.24999996,21.1601563 4.08984371,22.0000001 5.12499997,22.0000001 L17.625,22.0000001 C18.6601563,22.0000001 19.5,21.1601563 19.5,20.125 L19.5,18.25 L20.28125,18.25 C20.5390625,18.25 20.75,18.0390625 20.75,17.78125 L20.75,16.21875 C20.75,15.9609375 20.5390625,15.75 20.28125,15.75 L19.5,15.75 L19.5,13.25 L20.28125,13.25 C20.5390625,13.25 20.75,13.0390625 20.75,12.78125 L20.75,11.21875 C20.75,10.9609375 20.5390625,10.75 20.28125,10.75 L19.5,10.75 L19.5,8.24999998 L20.28125,8.24999998 Z M17.625,20.125 L5.12499997,20.125 L5.12499997,3.87499996 L17.625,3.87499996 L17.625,20.125 Z M11.375,12 C12.7539063,12 13.875,10.8789062 13.875,9.49999999 C13.875,8.12109373 12.7539063,6.99999997 11.375,6.99999997 C9.99609374,6.99999997 8.87499998,8.12109373 8.87499998,9.49999999 C8.87499998,10.8789062 9.99609374,12 11.375,12 Z M7.87499998,17 L14.875,17 C15.359375,17 15.75,16.6640625 15.75,16.25 L15.75,15.5 C15.75,14.2578125 14.5742188,13.25 13.125,13.25 C12.703125,13.25 12.3945313,13.5625 11.375,13.5625 C10.3242187,13.5625 10.0703125,13.25 9.62499999,13.25 C8.17578123,13.25 6.99999997,14.2578125 6.99999997,15.5 L6.99999997,16.25 C6.99999997,16.6640625 7.39062498,17 7.87499998,17 Z" id="path-1"></path>
    </defs>
    <g id="address-book" stroke="none" stroke-width="1" fill="none" fill-rule="evenodd">
        <mask id="mask-2" fill="white">
            <use xlink:href="#path-1"></use>
        </mask>
        <g fill-rule="nonzero"></g>
        <g id="🎨-color" mask="url(#mask-2)" fill="#000000">
            <rect id="🎨-Color" x="0" y="0" width="24" height="24"></rect>
        </g>
    </g>
</svg>