<?xml version="1.0" encoding="UTF-8"?>
<svg width="24px" height="24px" viewBox="0 0 24 24" version="1.1" xmlns="http://www.w3.org/2000/svg" xmlns:xlink="http://www.w3.org/1999/xlink">
    <!-- Generator: Sketch 52.5 (67469) - http://www.bohemiancoding.com/sketch -->
    <title>adversal</title>
    <desc>Created with Sketch.</desc>
    <defs>
        <path d="M20.8320313,3.24999996 L3.12109371,3.24999996 C2.22656245,3.24999996 1.99999995,3.48046871 1.99999995,4.37890621 L1.99999995,19.6210938 C1.99999995,20.53125 2.22656245,20.75 3.12109371,20.75 L20.8320313,20.75 C21.7851563,20.75 22.0000001,20.546875 22.0000001,19.5898438 L22.0000001,4.42968746 C22.0000001,3.46874996 21.7890625,3.24999996 20.8320313,3.24999996 Z M8.96874998,10.6054687 C7.89453123,9.81640624 6.15234372,10.265625 5.67968747,11.5195312 C5.51171872,11.953125 5.31640622,11.890625 4.99609371,11.84375 C4.61718746,11.7851562 4.32421871,11.71875 4.11718746,11.6289062 C2.99218745,11.1835937 4.45312496,9.46874999 5.08984372,9.11718749 C6.69531247,8.28124998 8.34765623,8.24999998 9.98437499,8.92968748 C11.5820312,9.58593749 11.3320312,11.2421875 11.3320312,13.9492188 C11.4375,14.9570313 11.1640625,16.2265625 11.6953125,17.4179688 C11.7695312,17.5898438 11.7109375,17.7265625 11.5898437,17.8359375 C11.2617187,18.0976563 10.0546875,17.921875 9.76953124,17.546875 C9.69531249,17.4609375 9.69921874,17.40625 9.61718749,17.3046875 C9.47656249,17.1523438 9.33203124,17.21875 9.15234374,17.34375 C6.91015622,18.765625 3.67187496,18.1796875 3.41015621,15.6523438 C3.28906246,14.5078125 3.89453121,13.421875 4.95703121,12.8789063 C6.44921872,12.1171875 9.33984374,12.4179688 9.41015624,11.671875 C9.45312499,11.2734375 9.33593749,10.8867187 8.96874998,10.6054687 Z M20.1679688,19.2773438 C20.1679688,19.8671875 19.734375,19.6640625 19.4726563,19.6640625 L4.04687496,19.6640625 C3.75781246,19.6640625 3.33593746,19.8515625 3.35156246,19.2460938 C3.36718746,18.703125 3.76171871,18.890625 4.01953121,18.890625 C9.18749999,18.875 14.3515625,18.875 19.5195313,18.890625 C19.7851563,18.890625 20.1679688,18.71875 20.1679688,19.2773438 Z M20.3164063,5.97656247 L20.3164063,17.34375 C20.3164063,17.5664063 20.2890625,17.8867188 20,17.8867188 C19.515625,17.8710938 18.9257813,18.1640625 18.5898438,17.6679688 C18.3632813,17.328125 18.2851563,17.5117188 18.1054688,17.6210938 C16.0195313,18.78125 13.1015625,17.8984375 12.4648438,14.2929688 C12.2265625,12.9882813 12.4375,11.671875 13.078125,10.3867187 C13.5390625,9.45312499 15.3007813,7.41406248 18.3945313,9.19531249 L18.3945313,6.42187497 C18.3945313,5.39843747 18.390625,5.39843747 19.4101563,5.39843747 C19.53125,5.39843747 19.6679688,5.41406247 19.7890625,5.39843747 C20.1835938,5.36718747 20.3203125,5.57031247 20.3203125,5.95703122 C20.3164063,5.96484372 20.3164063,5.96874997 20.3164063,5.97656247 Z M18.3046875,15.0507813 C17.5429688,16.9101563 15.4570313,16.7421875 14.7890625,15.2539063 C14.1992188,13.953125 14.1835938,12.5898438 14.8046875,11.2890625 C15.4414063,9.95703124 17.1367188,9.89453124 17.9882813,11.1015625 C18.7929688,12.2265625 18.5703125,14.40625 18.3046875,15.0507813 Z M6.78906247,16.4296875 C6.49609372,16.3789063 5.49999997,16.3007813 5.47265622,15.34375 C5.45703122,14.8007813 5.77734372,14.4453125 6.24609372,14.3359375 C7.19921873,14.1054688 8.17187498,13.9492188 9.12499999,13.7617188 C9.47265624,13.6835938 9.41406249,13.9335938 9.42968749,14.1328125 C9.48437499,15.421875 8.41015623,16.4453125 6.78906247,16.4296875 Z" id="path-1"></path>
    </defs>
    <g id="adversal" stroke="none" stroke-width="1" fill="none" fill-rule="evenodd">
        <mask id="mask-2" fill="white">
            <use xlink:href="#path-1"></use>
        </mask>
        <g fill-rule="nonzero"></g>
        <g id="🎨-color" mask="url(#mask-2)" fill="#000000">
            <rect id="🎨-Color" x="0" y="0" width="24" height="24"></rect>
        </g>
    </g>
</svg>