<?xml version="1.0" encoding="UTF-8"?>
<svg width="24px" height="24px" viewBox="0 0 24 24" version="1.1" xmlns="http://www.w3.org/2000/svg" xmlns:xlink="http://www.w3.org/1999/xlink">
    <!-- Generator: Sketch 52.5 (67469) - http://www.bohemiancoding.com/sketch -->
    <title>algolia</title>
    <desc>Created with Sketch.</desc>
    <defs>
        <path d="M12.2070313,9.13281249 C10.28125,9.13281249 8.72265623,10.6914062 8.72265623,12.6171875 C8.72265623,14.5429688 10.28125,16.1015625 12.2070313,16.1015625 C14.1328125,16.1015625 15.6914063,14.5429688 15.6914063,12.6171875 C15.6914063,10.6914062 14.1289063,9.13281249 12.2070313,9.13281249 Z M14.65625,11.34375 L12.3554688,12.5390625 C12.2851563,12.5742188 12.2070313,12.5234375 12.2070313,12.4492188 L12.2070313,9.85156249 C12.2070313,9.79296874 12.2578125,9.74609374 12.3125,9.74999999 C13.3359375,9.78906249 14.2226563,10.3632812 14.6992188,11.1992187 C14.7265625,11.25 14.7070313,11.3164062 14.65625,11.34375 Z M18.4492188,3.24999996 L5.55078122,3.24999996 C4.28124996,3.24999996 3.24999996,4.28124996 3.24999996,5.55078122 L3.24999996,18.4453125 C3.24999996,19.71875 4.28124996,20.75 5.55078122,20.75 L18.4453125,20.75 C19.71875,20.75 20.7460938,19.71875 20.7460938,18.4492188 L20.7460938,5.55078122 C20.75,4.28124996 19.71875,3.24999996 18.4492188,3.24999996 Z M10.5351562,6.55859372 C10.5351562,6.13671872 10.875,5.79687497 11.296875,5.79687497 L13.0664063,5.79687497 C13.4882813,5.79687497 13.828125,6.13671872 13.828125,6.55859372 L13.828125,7.16015623 C13.828125,7.23046873 13.7617188,7.27734373 13.6992188,7.25781248 C13.21875,7.12499998 12.71875,7.05859373 12.2109375,7.05859373 C11.6835937,7.05859373 11.1679687,7.12890623 10.671875,7.27343748 C10.6054687,7.29296873 10.5390625,7.24218748 10.5390625,7.17578123 L10.5390625,6.55859372 L10.5351562,6.55859372 Z M7.23828123,8.00390623 L7.59765623,7.64453123 C7.89453123,7.34765623 8.37499998,7.34765623 8.67187498,7.64453123 L8.97265623,7.94531248 C9.01562499,7.98828123 9.01171874,8.06249998 8.96093748,8.10156248 C8.71874998,8.27734373 8.48828123,8.46874998 8.27343748,8.68359373 C8.06249998,8.89453123 7.86718748,9.12499999 7.69531248,9.36328124 C7.65624998,9.41406249 7.58203123,9.42187499 7.53906248,9.37499999 L7.23828123,9.07421874 C6.94140622,8.78124998 6.94140622,8.30078123 7.23828123,8.00390623 Z M12.2070313,17.5664063 C9.47265624,17.5664063 7.26171873,15.3515625 7.26171873,12.6210938 C7.26171873,9.89062499 9.47656249,7.67578123 12.2070313,7.67578123 C14.9414063,7.67578123 17.1523438,9.88671874 17.1523438,12.6210938 C17.1523438,15.3476563 14.9375,17.5664063 12.2070313,17.5664063 Z" id="path-1"></path>
    </defs>
    <g id="algolia" stroke="none" stroke-width="1" fill="none" fill-rule="evenodd">
        <mask id="mask-2" fill="white">
            <use xlink:href="#path-1"></use>
        </mask>
        <g fill-rule="nonzero"></g>
        <g id="🎨-color" mask="url(#mask-2)" fill="#000000">
            <rect id="🎨-Color" x="0" y="0" width="24" height="24"></rect>
        </g>
    </g>
</svg>