<?xml version="1.0" encoding="UTF-8"?>
<svg width="24px" height="24px" viewBox="0 0 24 24" version="1.1" xmlns="http://www.w3.org/2000/svg" xmlns:xlink="http://www.w3.org/1999/xlink">
    <!-- Generator: Sketch 52.5 (67469) - http://www.bohemiancoding.com/sketch -->
    <title>align-center</title>
    <desc>Created with Sketch.</desc>
    <defs>
        <path d="M17,3.71874996 L17,5.28124997 C17,5.62644528 16.7201953,5.90624997 16.375,5.90624997 L7.62499998,5.90624997 C7.27980466,5.90624997 6.99999997,5.62644528 6.99999997,5.28124997 L6.99999997,3.71874996 C6.99999997,3.37355464 7.27980466,3.09374996 7.62499998,3.09374996 L16.375,3.09374996 C16.7201953,3.09374996 17,3.37355464 17,3.71874996 Z M3.87499996,10.90625 L20.125,10.90625 C20.4701954,10.90625 20.75,10.6264453 20.75,10.28125 L20.75,8.71874998 C20.75,8.37355467 20.4701954,8.09374998 20.125,8.09374998 L3.87499996,8.09374998 C3.52980465,8.09374998 3.24999996,8.37355467 3.24999996,8.71874998 L3.24999996,10.28125 C3.24999996,10.6264453 3.52980465,10.90625 3.87499996,10.90625 Z M3.87499996,20.90625 L20.125,20.90625 C20.4701954,20.90625 20.75,20.6264454 20.75,20.28125 L20.75,18.71875 C20.75,18.3735547 20.4701954,18.09375 20.125,18.09375 L3.87499996,18.09375 C3.52980465,18.09375 3.24999996,18.3735547 3.24999996,18.71875 L3.24999996,20.28125 C3.24999996,20.6264454 3.52980465,20.90625 3.87499996,20.90625 Z M16.375,13.09375 L7.62499998,13.09375 C7.27980466,13.09375 6.99999997,13.3735547 6.99999997,13.71875 L6.99999997,15.28125 C6.99999997,15.6264453 7.27980466,15.90625 7.62499998,15.90625 L16.375,15.90625 C16.7201953,15.90625 17,15.6264453 17,15.28125 L17,13.71875 C17,13.3735547 16.7201953,13.09375 16.375,13.09375 Z" id="path-1"></path>
    </defs>
    <g id="align-center" stroke="none" stroke-width="1" fill="none" fill-rule="evenodd">
        <mask id="mask-2" fill="white">
            <use xlink:href="#path-1"></use>
        </mask>
        <g fill-rule="nonzero"></g>
        <g id="🎨-color" mask="url(#mask-2)" fill="#000000">
            <rect id="🎨-Color" x="0" y="0" width="24" height="24"></rect>
        </g>
    </g>
</svg>