<?xml version="1.0" encoding="UTF-8"?>
<svg width="24px" height="24px" viewBox="0 0 24 24" version="1.1" xmlns="http://www.w3.org/2000/svg" xmlns:xlink="http://www.w3.org/1999/xlink">
    <!-- Generator: Sketch 52.5 (67469) - http://www.bohemiancoding.com/sketch -->
    <title>align-left</title>
    <desc>Created with Sketch.</desc>
    <defs>
        <path d="M14.5,3.71874996 L14.5,5.28124997 C14.5,5.62644528 14.2201953,5.90624997 13.875,5.90624997 L3.87499996,5.90624997 C3.52980465,5.90624997 3.24999996,5.62644528 3.24999996,5.28124997 L3.24999996,3.71874996 C3.24999996,3.37355464 3.52980465,3.09374996 3.87499996,3.09374996 L13.875,3.09374996 C14.2201953,3.09374996 14.5,3.37355464 14.5,3.71874996 Z M3.24999996,8.71874998 L3.24999996,10.28125 C3.24999996,10.6264453 3.52980465,10.90625 3.87499996,10.90625 L20.125,10.90625 C20.4701954,10.90625 20.75,10.6264453 20.75,10.28125 L20.75,8.71874998 C20.75,8.37355467 20.4701954,8.09374998 20.125,8.09374998 L3.87499996,8.09374998 C3.52980465,8.09374998 3.24999996,8.37355467 3.24999996,8.71874998 Z M3.87499996,20.90625 L20.125,20.90625 C20.4701954,20.90625 20.75,20.6264454 20.75,20.28125 L20.75,18.71875 C20.75,18.3735547 20.4701954,18.09375 20.125,18.09375 L3.87499996,18.09375 C3.52980465,18.09375 3.24999996,18.3735547 3.24999996,18.71875 L3.24999996,20.28125 C3.24999996,20.6264454 3.52980465,20.90625 3.87499996,20.90625 Z M13.875,13.09375 L3.87499996,13.09375 C3.52980465,13.09375 3.24999996,13.3735547 3.24999996,13.71875 L3.24999996,15.28125 C3.24999996,15.6264453 3.52980465,15.90625 3.87499996,15.90625 L13.875,15.90625 C14.2201953,15.90625 14.5,15.6264453 14.5,15.28125 L14.5,13.71875 C14.5,13.3735547 14.2201953,13.09375 13.875,13.09375 Z" id="path-1"></path>
    </defs>
    <g id="align-left" stroke="none" stroke-width="1" fill="none" fill-rule="evenodd">
        <mask id="mask-2" fill="white">
            <use xlink:href="#path-1"></use>
        </mask>
        <g fill-rule="nonzero"></g>
        <g id="🎨-color" mask="url(#mask-2)" fill="#000000">
            <rect id="🎨-Color" x="0" y="0" width="24" height="24"></rect>
        </g>
    </g>
</svg>