<?xml version="1.0" encoding="UTF-8"?>
<svg width="24px" height="24px" viewBox="0 0 24 24" version="1.1" xmlns="http://www.w3.org/2000/svg" xmlns:xlink="http://www.w3.org/1999/xlink">
    <!-- Generator: Sketch 52.5 (67469) - http://www.bohemiancoding.com/sketch -->
    <title>align-right</title>
    <desc>Created with Sketch.</desc>
    <defs>
        <path d="M9.49999999,5.28124997 L9.49999999,3.71874996 C9.49999999,3.37355464 9.77980468,3.09374996 10.125,3.09374996 L20.125,3.09374996 C20.4701954,3.09374996 20.75,3.37355464 20.75,3.71874996 L20.75,5.28124997 C20.75,5.62644528 20.4701954,5.90624997 20.125,5.90624997 L10.125,5.90624997 C9.77980468,5.90624997 9.49999999,5.62644528 9.49999999,5.28124997 Z M3.87499996,10.90625 L20.125,10.90625 C20.4701954,10.90625 20.75,10.6264453 20.75,10.28125 L20.75,8.71874998 C20.75,8.37355467 20.4701954,8.09374998 20.125,8.09374998 L3.87499996,8.09374998 C3.52980465,8.09374998 3.24999996,8.37355467 3.24999996,8.71874998 L3.24999996,10.28125 C3.24999996,10.6264453 3.52980465,10.90625 3.87499996,10.90625 Z M3.87499996,20.90625 L20.125,20.90625 C20.4701954,20.90625 20.75,20.6264454 20.75,20.28125 L20.75,18.71875 C20.75,18.3735547 20.4701954,18.09375 20.125,18.09375 L3.87499996,18.09375 C3.52980465,18.09375 3.24999996,18.3735547 3.24999996,18.71875 L3.24999996,20.28125 C3.24999996,20.6264454 3.52980465,20.90625 3.87499996,20.90625 Z M10.125,15.90625 L20.125,15.90625 C20.4701954,15.90625 20.75,15.6264453 20.75,15.28125 L20.75,13.71875 C20.75,13.3735547 20.4701954,13.09375 20.125,13.09375 L10.125,13.09375 C9.77980468,13.09375 9.49999999,13.3735547 9.49999999,13.71875 L9.49999999,15.28125 C9.49999999,15.6264453 9.77980468,15.90625 10.125,15.90625 Z" id="path-1"></path>
    </defs>
    <g id="align-right" stroke="none" stroke-width="1" fill="none" fill-rule="evenodd">
        <mask id="mask-2" fill="white">
            <use xlink:href="#path-1"></use>
        </mask>
        <g fill-rule="nonzero"></g>
        <g id="🎨-color" mask="url(#mask-2)" fill="#000000">
            <rect id="🎨-Color" x="0" y="0" width="24" height="24"></rect>
        </g>
    </g>
</svg>