<?xml version="1.0" encoding="UTF-8"?>
<svg width="24px" height="24px" viewBox="0 0 24 24" version="1.1" xmlns="http://www.w3.org/2000/svg" xmlns:xlink="http://www.w3.org/1999/xlink">
    <!-- Generator: Sketch 52.5 (67469) - http://www.bohemiancoding.com/sketch -->
    <title>alipay</title>
    <desc>Created with Sketch.</desc>
    <defs>
        <path d="M18.0054688,3.24999996 L5.99453122,3.24999996 C4.47695309,3.24999996 3.24999996,4.47695309 3.24999996,5.99453122 L3.24999996,18.0054688 C3.24999996,19.5230469 4.47695309,20.75 5.99453122,20.75 L18.0054688,20.75 C19.5101563,20.75 20.7304688,19.5359375 20.75,18.03125 C18.9546875,17.0304688 16.4300781,15.6742188 14.046875,14.5765625 C12.7941406,16.2941406 10.7601562,17.740625 8.24140623,17.740625 C5.48398434,17.740625 4.58007809,15.9710938 4.45078121,14.7574219 C4.29570309,13.2335938 5.03203122,11.5738281 8.33828123,11.5738281 C9.72031249,11.5738281 11.4378906,11.9742187 13.3042969,12.5488281 C13.95,11.3734375 14.3375,10.1917969 14.3375,10.1917969 L7.37656248,10.1917969 L7.37656248,9.53945311 L10.9734375,9.53945311 L10.9734375,8.31914061 L6.69843747,8.31914061 L6.69843747,7.57656248 L10.9734375,7.57656248 L10.9734375,5.60703122 L12.9625,5.60703122 L12.9625,7.57656248 L17.2375,7.57656248 L17.2375,8.31914061 L12.9621094,8.31914061 L12.9621094,9.53945311 L16.4296875,9.53945311 C16.4296875,9.53945311 15.8355469,11.3605469 14.9316406,13.0910156 C16.8429688,13.7433594 18.8382813,14.4988281 20.7371094,15.1511719 L20.7371094,5.99453122 C20.7433594,4.48320309 19.5167969,3.24999996 18.0054688,3.24999996 Z M5.09687497,14.6152344 C5.13554684,15.403125 5.49726559,16.7140625 7.8285156,16.7140625 C9.86249999,16.7140625 11.4449219,15.1640625 12.4328125,13.8664063 C10.6894531,13.1367188 9.13281249,12.6394531 8.15781248,12.6394531 C5.52304684,12.6394531 5.05820309,13.9308594 5.09687497,14.6152344 Z" id="path-1"></path>
    </defs>
    <g id="alipay" stroke="none" stroke-width="1" fill="none" fill-rule="evenodd">
        <mask id="mask-2" fill="white">
            <use xlink:href="#path-1"></use>
        </mask>
        <g fill-rule="nonzero"></g>
        <g id="🎨-color" mask="url(#mask-2)" fill="#000000">
            <rect id="🎨-Color" x="0" y="0" width="24" height="24"></rect>
        </g>
    </g>
</svg>