<?xml version="1.0" encoding="UTF-8"?>
<svg width="24px" height="24px" viewBox="0 0 24 24" version="1.1" xmlns="http://www.w3.org/2000/svg" xmlns:xlink="http://www.w3.org/1999/xlink">
    <!-- Generator: Sketch 52.5 (67469) - http://www.bohemiancoding.com/sketch -->
    <title>allergies</title>
    <desc>Created with Sketch.</desc>
    <defs>
        <path d="M19.4853802,6.36647171 C18.7992203,6.36647171 18.2378168,6.92787522 18.2378168,7.61403507 L18.2378168,10.4210526 C18.2378168,10.5925926 18.0974659,10.7329435 17.925926,10.7329435 L17.3021443,10.7329435 C17.1306043,10.7329435 16.9902534,10.5925926 16.9902534,10.4210526 L16.9902534,4.49512667 C16.9902534,3.80896682 16.4288499,3.24756331 15.7426901,3.24756331 C15.0565302,3.24756331 14.4951267,3.80896682 14.4951267,4.49512667 L14.4951267,10.4210526 C14.4951267,10.5925926 14.3547758,10.7329435 14.1832359,10.7329435 L13.5594542,10.7329435 C13.3879142,10.7329435 13.2475634,10.5925926 13.2475634,10.4210526 L13.2475634,3.24756331 C13.2475634,2.56140346 12.6861598,1.99999995 12,1.99999995 C11.3138402,1.99999995 10.7524366,2.56140346 10.7524366,3.24756331 L10.7524366,10.4210526 C10.7524366,10.5925926 10.6120858,10.7329435 10.4405458,10.7329435 L9.81676412,10.7329435 C9.64522416,10.7329435 9.50487328,10.5925926 9.50487328,10.4210526 L9.50487328,4.49512667 C9.50487328,3.80896682 8.94346977,3.24756331 8.25730992,3.24756331 C7.57115008,3.24756331 7.00974656,3.80896682 7.00974656,4.49512667 L7.00974656,13.8908382 L6.08966859,12.6237817 C5.58284597,11.9259259 4.6081871,11.7738791 3.91033134,12.2807018 C3.21247559,12.7875244 3.06042881,13.7621832 3.56725142,14.460039 L8.4639376,21.1929825 C8.8148148,21.6764133 9.38011695,21.9649123 9.97660818,21.9649123 L17.6803119,21.9649123 C18.5497076,21.9649123 19.3021443,21.3684211 19.5009747,20.5224172 L20.5341131,16.128655 C20.6588694,15.5945419 20.7251462,15.0253411 20.7329435,14.4795322 L20.7329435,7.61403507 C20.7329435,6.92787522 20.17154,6.36647171 19.4853802,6.36647171 Z M10.128655,18.2183236 C9.78557504,18.2183236 9.50487328,17.9376219 9.50487328,17.5945419 C9.50487328,17.251462 9.78557504,16.9707603 10.128655,16.9707603 C10.4717349,16.9707603 10.7524366,17.251462 10.7524366,17.5945419 C10.7524366,17.9376219 10.4717349,18.2183236 10.128655,18.2183236 Z M10.128655,14.4756335 C9.78557504,14.4756335 9.50487328,14.1949318 9.50487328,13.8518519 C9.50487328,13.5087719 9.78557504,13.2280702 10.128655,13.2280702 C10.4717349,13.2280702 10.7524366,13.5087719 10.7524366,13.8518519 C10.7524366,14.1949318 10.4717349,14.4756335 10.128655,14.4756335 Z M12.6237817,19.465887 C12.2807018,19.465887 12,19.1851852 12,18.8421053 C12,18.4990254 12.2807018,18.2183236 12.6237817,18.2183236 C12.9668616,18.2183236 13.2475634,18.4990254 13.2475634,18.8421053 C13.2475634,19.1851852 12.9668616,19.465887 12.6237817,19.465887 Z M12.6237817,15.7231969 C12.2807018,15.7231969 12,15.4424951 12,15.0994152 C12,14.7563353 12.2807018,14.4756335 12.6237817,14.4756335 C12.9668616,14.4756335 13.2475634,14.7563353 13.2475634,15.0994152 C13.2475634,15.4424951 12.9668616,15.7231969 12.6237817,15.7231969 Z M15.1189084,16.9707603 C14.7758285,16.9707603 14.4951267,16.6900585 14.4951267,16.3469786 C14.4951267,16.0038987 14.7758285,15.7231969 15.1189084,15.7231969 C15.4619883,15.7231969 15.7426901,16.0038987 15.7426901,16.3469786 C15.7426901,16.6900585 15.4619883,16.9707603 15.1189084,16.9707603 Z M16.3664718,19.465887 C16.0233918,19.465887 15.7426901,19.1851852 15.7426901,18.8421053 C15.7426901,18.4990254 16.0233918,18.2183236 16.3664718,18.2183236 C16.7095517,18.2183236 16.9902534,18.4990254 16.9902534,18.8421053 C16.9902534,19.1851852 16.7095517,19.465887 16.3664718,19.465887 Z M17.6140351,14.4756335 C17.2709552,14.4756335 16.9902534,14.1949318 16.9902534,13.8518519 C16.9902534,13.5087719 17.2709552,13.2280702 17.6140351,13.2280702 C17.957115,13.2280702 18.2378168,13.5087719 18.2378168,13.8518519 C18.2378168,14.1949318 17.957115,14.4756335 17.6140351,14.4756335 Z" id="path-1"></path>
    </defs>
    <g id="allergies" stroke="none" stroke-width="1" fill="none" fill-rule="evenodd">
        <mask id="mask-2" fill="white">
            <use xlink:href="#path-1"></use>
        </mask>
        <g fill-rule="nonzero"></g>
        <g id="🎨-color" mask="url(#mask-2)" fill="#000000">
            <rect id="🎨-Color" x="0" y="0" width="24" height="24"></rect>
        </g>
    </g>
</svg>