<?xml version="1.0" encoding="UTF-8"?>
<svg width="24px" height="24px" viewBox="0 0 24 24" version="1.1" xmlns="http://www.w3.org/2000/svg" xmlns:xlink="http://www.w3.org/1999/xlink">
    <!-- Generator: Sketch 52.5 (67469) - http://www.bohemiancoding.com/sketch -->
    <title>amazon</title>
    <desc>Created with Sketch.</desc>
    <defs>
        <path d="M13.296875,8.35546873 C11.3945312,8.42578123 6.67578122,8.96093748 6.67578122,12.9453125 C6.67578122,17.2226563 12.078125,17.3984375 13.84375,14.6328125 C14.0976563,15.03125 15.2265625,16.0976563 15.6132813,16.4609375 L17.8320313,14.2734375 C17.8320313,14.2734375 16.5703125,13.2851563 16.5703125,12.2109375 L16.5703125,6.46484372 C16.5703125,5.47656247 15.6132813,3.24999996 12.1835938,3.24999996 C8.74609373,3.24999996 6.92187497,5.39843747 6.92187497,7.32421873 L9.79296874,7.58984373 C10.4296875,5.65624997 11.9101562,5.65624997 11.9101562,5.65624997 C13.5,5.65234372 13.296875,6.82031247 13.296875,8.35546873 Z M13.296875,11.7460937 C13.296875,14.8710938 10.0078125,14.4023438 10.0078125,12.4179688 C10.0078125,10.5742187 11.9804687,10.203125 13.296875,10.1601562 L13.296875,11.7460937 Z M18.609375,18.1328125 C18.3085938,18.5234375 15.875,20.75 11.7929687,20.75 C7.71093748,20.75 4.58593746,17.9570313 3.62890621,16.8046875 C3.36328121,16.5039063 3.66796871,16.3632813 3.84374996,16.4804688 C6.70703122,18.21875 11.1796875,21.0820313 18.3945313,17.6640625 C18.6875,17.5195313 18.9140625,17.7421875 18.609375,18.1328125 Z M20.1640625,18.21875 C19.9101563,18.8359375 19.5390625,19.265625 19.3359375,19.4296875 C19.1210938,19.6054688 18.9648438,19.5351563 19.0820313,19.28125 C19.1992188,19.0273438 19.8359375,17.4648438 19.578125,17.1328125 C19.3242188,16.8085938 18.1328125,16.9648438 17.703125,17.0078125 C17.28125,17.046875 17.1953125,17.0859375 17.15625,16.9960938 C17.0664063,16.7734375 18.0039063,16.390625 18.6210938,16.3125 C19.234375,16.2421875 20.2226563,16.28125 20.4179688,16.5351563 C20.5625,16.734375 20.4179688,17.59375 20.1640625,18.21875 Z" id="path-1"></path>
    </defs>
    <g id="amazon" stroke="none" stroke-width="1" fill="none" fill-rule="evenodd">
        <mask id="mask-2" fill="white">
            <use xlink:href="#path-1"></use>
        </mask>
        <g fill-rule="nonzero"></g>
        <g id="🎨-color" mask="url(#mask-2)" fill="#000000">
            <rect id="🎨-Color" x="0" y="0" width="24" height="24"></rect>
        </g>
    </g>
</svg>