<?xml version="1.0" encoding="UTF-8"?>
<svg width="24px" height="24px" viewBox="0 0 24 24" version="1.1" xmlns="http://www.w3.org/2000/svg" xmlns:xlink="http://www.w3.org/1999/xlink">
    <!-- Generator: Sketch 52.5 (67469) - http://www.bohemiancoding.com/sketch -->
    <title>amazon-pay</title>
    <desc>Created with Sketch.</desc>
    <defs>
        <path d="M1.99999995,14.2614379 C2.07516335,14.124183 2.16993459,14.1013072 2.31699342,14.1797386 C2.6568627,14.3627451 2.99019603,14.5522876 3.33660126,14.7254902 C4.66666663,15.3921569 6.05555553,15.8888889 7.49999998,16.2385621 C8.18300652,16.4019608 8.86928103,16.5326798 9.56535946,16.624183 C10.5947712,16.7614379 11.630719,16.8202615 12.6699346,16.7941177 C13.2385621,16.7810458 13.8071896,16.7352941 14.372549,16.6699347 C16.2156863,16.4509804 17.9967321,15.9901961 19.7091504,15.2712418 C19.8039216,15.2320262 19.9019608,15.2058824 20.006536,15.2320262 C20.2254902,15.2908497 20.3006536,15.5261438 20.1405229,15.6862745 C20.0490196,15.7777778 19.9346406,15.8529412 19.8267974,15.9281046 C18.8235294,16.6176471 17.7287582,17.1176471 16.5718954,17.4934641 C15.7679739,17.751634 14.9509804,17.9444445 14.1176471,18.0686275 C13.5424837,18.1535948 12.9607843,18.2124183 12.379085,18.2254902 C12.3529412,18.2254902 12.3235294,18.2320262 12.2973856,18.2352941 L11.6078431,18.2352941 C11.5816993,18.2320262 11.5522876,18.2254902 11.5261438,18.2254902 C11.4084967,18.2189543 11.2908497,18.2156863 11.1764706,18.2124183 C10.624183,18.1895425 10.0751634,18.127451 9.52941175,18.0392157 C8.63398691,17.8921569 7.75816991,17.6666667 6.90196076,17.3562092 C5.13398689,16.7156863 3.54901957,15.7679739 2.1437908,14.5130719 C2.08496727,14.4607843 2.04575158,14.3888889 1.99999995,14.3267974 L1.99999995,14.2614379 Z M7.16339867,5.7581699 C7.11764703,5.76470585 7.06862743,5.7712418 7.02287579,5.77777775 C6.56535945,5.8333333 6.15359474,6.00326794 5.78104572,6.2712418 C5.70261435,6.32679736 5.63071892,6.38562089 5.54901958,6.44771239 C5.54248363,6.43137252 5.53594768,6.41503265 5.53594768,6.40196076 C5.52287578,6.31372546 5.50980389,6.22222219 5.49346402,6.1339869 C5.4705882,5.9836601 5.3954248,5.91830062 5.24509801,5.91830062 L4.86928101,5.91830062 C4.64379081,5.91830062 4.60130715,5.96078428 4.60130715,6.18627448 L4.60130715,13.0261438 C4.60130715,13.0588235 4.60130715,13.0915033 4.60457513,13.124183 C4.61111107,13.2222222 4.6699346,13.2843137 4.76470585,13.2875817 C4.99346402,13.2908497 5.22549016,13.2908497 5.45424833,13.2875817 C5.54901958,13.2875817 5.60784311,13.2222222 5.61764703,13.124183 C5.620915,13.0915033 5.620915,13.0588235 5.620915,13.0261438 L5.620915,10.6601307 C5.65686271,10.6895425 5.67647056,10.7058823 5.69281043,10.7222222 C6.27777775,11.2091503 6.95098037,11.369281 7.68627449,11.2254902 C8.35294116,11.0947712 8.81699345,10.6862745 9.11764704,10.0849673 C9.34640522,9.63071894 9.44117646,9.14705881 9.45424835,8.64379083 C9.47058822,8.0849673 9.41503267,7.53594769 9.18954247,7.01633984 C8.91176469,6.37581697 8.45098037,5.95424834 7.75490194,5.81045749 C7.65032678,5.78758167 7.54248364,5.77777775 7.4346405,5.76143788 C7.34313723,5.7581699 7.25490194,5.7581699 7.16339867,5.7581699 Z M5.61437905,7.12745096 C5.61437905,7.07843135 5.62745095,7.04901958 5.66993461,7.01960782 C6.11764703,6.7091503 6.61111108,6.54575161 7.16013069,6.58823527 C7.6470588,6.62418298 8.04575161,6.86274507 8.25490194,7.4346405 C8.38235292,7.7843137 8.41503266,8.1470588 8.41503266,8.51307188 C8.41503266,8.85294116 8.38888887,9.1862745 8.28431371,9.51307188 C8.06209148,10.2091503 7.55228756,10.4738562 6.89215684,10.4444444 C6.4346405,10.4248366 6.03594768,10.248366 5.66993461,9.99019607 C5.63071892,9.9607843 5.61437905,9.93464051 5.61437905,9.88235293 C5.61764703,9.42156861 5.61437905,8.96405227 5.61437905,8.50326796 C5.61437905,8.04575161 5.61764703,7.58823527 5.61437905,7.12745096 Z M12.3366013,5.7581699 C12.3039216,5.76143788 12.2712418,5.76797383 12.2418301,5.7712418 C11.9215686,5.78758167 11.6078431,5.82679735 11.2973856,5.90522873 C11.0980392,5.95751631 10.9052288,6.02941173 10.7124183,6.09477121 C10.5947712,6.1339869 10.5359477,6.21895422 10.5392157,6.3464052 C10.5424837,6.45424834 10.5359477,6.56209148 10.5392157,6.66993461 C10.5424837,6.82679736 10.6078431,6.86928102 10.7614379,6.83006533 C11.0163399,6.76470586 11.2712418,6.69281043 11.5294118,6.64379082 C11.9313725,6.56862742 12.3366013,6.53594769 12.745098,6.59803919 C12.9575163,6.63071893 13.1568628,6.69281043 13.2941177,6.87254899 C13.4150327,7.02941174 13.4607843,7.21568625 13.4673203,7.40849671 C13.4771242,7.67973854 13.4738562,7.95098037 13.4771242,8.2222222 C13.4771242,8.2352941 13.4738562,8.25163397 13.4705882,8.26797384 C13.4542484,8.26470586 13.4411765,8.26797384 13.4281046,8.26470586 C13.0849673,8.18300652 12.7385621,8.12418299 12.3823529,8.10457514 C12.0130719,8.0849673 11.6470588,8.10784312 11.2941176,8.23202612 C10.872549,8.37908495 10.5326797,8.63398691 10.3333333,9.04575162 C10.1797386,9.36601306 10.1568627,9.70588234 10.2058823,10.0490196 C10.2712418,10.5065359 10.5,10.8594771 10.9052288,11.0849673 C11.2941176,11.3006536 11.7156863,11.3267974 12.1437909,11.2614379 C12.6372549,11.1862745 13.0751634,10.9771242 13.4607843,10.6601307 C13.4738562,10.6470588 13.4901961,10.6372549 13.5130719,10.624183 C13.5326797,10.748366 13.5490196,10.8660131 13.5718954,10.9836601 C13.5915033,11.0849673 13.6535948,11.1503268 13.748366,11.1535948 C13.9248366,11.1568627 14.1045752,11.1568627 14.2810458,11.1535948 C14.3692811,11.1503268 14.4281046,11.0915033 14.4379085,11 C14.4411765,10.9705882 14.4411765,10.9379085 14.4411765,10.9084967 L14.4411765,7.44444442 C14.4411765,7.30392155 14.4346405,7.16339867 14.4117647,7.02287579 C14.3496732,6.60130716 14.1699347,6.25490193 13.7908497,6.02941173 C13.5718954,5.89869278 13.3300654,5.8333333 13.0784314,5.79738559 C12.9607843,5.78104572 12.8431373,5.7712418 12.7254902,5.75490193 C12.5980392,5.7581699 12.4673203,5.7581699 12.3366013,5.7581699 Z M13.4803922,9.93137254 C13.4803922,9.9738562 13.4673203,10.003268 13.4313726,10.0294118 C13.0653595,10.2941176 12.6633987,10.4705882 12.2091503,10.5163399 C12.0228758,10.5359477 11.8366013,10.5294118 11.6601307,10.4575163 C11.4542484,10.375817 11.3202614,10.2320261 11.254902,10.0228758 C11.1895425,9.81372548 11.1895425,9.5980392 11.251634,9.38888888 C11.3333333,9.11764704 11.5261438,8.96405227 11.7875817,8.87908495 C12.0522876,8.79411763 12.3267974,8.78104574 12.5980392,8.80718953 C12.872549,8.83006534 13.1405229,8.88235293 13.4150327,8.91830064 C13.4673203,8.92483659 13.4836601,8.95098038 13.4836601,9.00326796 C13.4803922,9.1601307 13.4836601,9.31372548 13.4836601,9.47058822 C13.4803922,9.62418299 13.4771242,9.77777777 13.4803922,9.93137254 Z M21.9738563,14.1601307 C21.9411765,13.996732 21.8169935,13.9346405 21.6764706,13.8888889 C21.4542484,13.8137255 21.2222223,13.7810458 20.9901961,13.7614379 C20.5620915,13.7254902 20.133987,13.745098 19.7091504,13.8235294 C19.2418301,13.9117647 18.7973857,14.0620915 18.4019608,14.3333333 C18.3562092,14.3660131 18.3104575,14.4019608 18.2810458,14.4477124 C18.25817,14.4836601 18.251634,14.5392157 18.2647059,14.5784314 C18.2777778,14.627451 18.3333334,14.6405229 18.382353,14.6372549 C18.4052288,14.6372549 18.4313726,14.6372549 18.4542484,14.6339869 C18.7091504,14.6078432 18.9607843,14.5784314 19.2156863,14.5522876 C19.5882353,14.5163399 19.9640523,14.4934641 20.3366013,14.5228758 C20.4934641,14.5326798 20.6535948,14.5686275 20.8071896,14.6111111 C20.9738563,14.6568628 21.0490197,14.7810458 21.0555556,14.9509804 C21.0686275,15.2124183 21.009804,15.4640523 20.9411765,15.7124183 C20.8071896,16.2156863 20.6143791,16.7026144 20.4248366,17.1862745 C20.4117647,17.2189543 20.3986929,17.251634 20.3921569,17.2843138 C20.375817,17.379085 20.4313726,17.4411765 20.5261438,17.4183007 C20.5816994,17.4052288 20.6437909,17.375817 20.6830066,17.3366013 C20.8267974,17.1960785 20.9738563,17.0555556 21.0980393,16.8986928 C21.5163399,16.3627451 21.761438,15.7450981 21.9052288,15.0816994 C21.9313726,14.9640523 21.9509804,14.8431373 21.9738563,14.7254902 L21.9738563,14.1601307 Z M17.6568628,10.1339869 C17.2352941,8.96732025 16.8137255,7.7973856 16.3921569,6.63071893 C16.3267974,6.44444442 16.254902,6.26143788 16.1862745,6.07843134 C16.1503268,5.9836601 16.0816994,5.9215686 15.9771242,5.9215686 C15.7287582,5.91830062 15.4803922,5.91503265 15.2287582,5.91830062 C15.1470588,5.91830062 15.1078432,5.9836601 15.124183,6.06535945 C15.1405229,6.1339869 15.1601307,6.19934638 15.1862745,6.26470585 C15.8267974,7.84967318 16.4705883,9.43790848 17.1176471,11.0196078 C17.1732026,11.1535948 17.1862745,11.2679739 17.124183,11.4052288 C17.0163399,11.6437908 16.9313726,11.8954248 16.8202615,12.1339869 C16.7222222,12.3464052 16.5588236,12.506536 16.3235294,12.5686275 C16.1568628,12.6143791 15.9901961,12.620915 15.8202615,12.6045752 C15.7385621,12.5980392 15.6568628,12.5784314 15.5751634,12.5718954 C15.4640523,12.5653595 15.4084967,12.6143791 15.4052288,12.7287582 C15.4019608,12.8366013 15.4019608,12.9444444 15.4052288,13.0522876 C15.4084967,13.2320261 15.4705883,13.3137255 15.6470588,13.3431373 C15.8300654,13.375817 16.0163399,13.4052288 16.1993464,13.4084967 C16.75817,13.4215686 17.2026144,13.1960784 17.4901961,12.7091503 C17.6045752,12.5163399 17.7091504,12.3137255 17.7908497,12.1078431 C18.5653595,10.1535948 19.3300654,8.19607841 20.0980393,6.23856206 C20.1209151,6.17973853 20.1405229,6.120915 20.1503268,6.0588235 C20.1633987,5.96732023 20.1209151,5.91503265 20.0294118,5.91503265 C19.8137255,5.91176468 19.5947713,5.91503265 19.379085,5.91503265 C19.25817,5.91503265 19.1732027,5.96732023 19.127451,6.08496729 C19.1111111,6.13071892 19.0915033,6.17320259 19.0751634,6.21895422 C18.6960785,7.30718952 18.3169935,8.39542482 17.9379085,9.48692809 C17.8562092,9.72222221 17.7712419,9.9607843 17.6862745,10.2124183 C17.6732026,10.1764706 17.6666667,10.1568627 17.6568628,10.1339869 Z" id="path-1"></path>
    </defs>
    <g id="amazon-pay" stroke="none" stroke-width="1" fill="none" fill-rule="evenodd">
        <mask id="mask-2" fill="white">
            <use xlink:href="#path-1"></use>
        </mask>
        <g fill-rule="nonzero"></g>
        <g id="🎨-color" mask="url(#mask-2)" fill="#000000">
            <rect id="🎨-Color" x="0" y="0" width="24" height="24"></rect>
        </g>
    </g>
</svg>