<?xml version="1.0" encoding="UTF-8"?>
<svg width="24px" height="24px" viewBox="0 0 24 24" version="1.1" xmlns="http://www.w3.org/2000/svg" xmlns:xlink="http://www.w3.org/1999/xlink">
    <!-- Generator: Sketch 52.5 (67469) - http://www.bohemiancoding.com/sketch -->
    <title>american-sign-language-interpreting</title>
    <desc>Created with Sketch.</desc>
    <defs>
        <path d="M11.0795937,9.90746874 C10.445375,9.59031249 9.69999999,9.55749999 9.05649999,9.78590624 C10.3879375,9.78590624 11.28175,10.42575 11.7308125,11.3664062 C11.9988125,11.92575 11.5699375,12.556125 10.9927812,12.556125 C11.5686875,12.556125 11.999375,13.185375 11.7308125,13.7458438 C11.2706562,14.7097813 10.2894687,15.3350313 9.22149999,15.3350313 C9.20409374,15.3350313 6.26928122,15.0658125 6.26928122,15.0658125 L4.19409371,16.1079063 C3.90084371,16.2545625 3.57487496,16.11975 3.44737496,15.86475 L2.05812495,13.0858438 C1.9279062,12.816625 2.0234062,12.4953125 2.27518745,12.3476875 L4.08993746,11.3142812 L5.37499997,8.99565623 C5.57468747,7.20674998 6.46034372,5.56543747 7.86696873,4.41046871 C8.22293748,4.11521871 8.75262498,4.16731246 9.03915624,4.52337496 C9.33434374,4.87943746 9.28228124,5.40046872 8.92628123,5.69574997 C8.53556248,6.02571872 8.18821873,6.39915622 7.91037498,6.80731247 C8.58762498,6.34703122 9.36909374,6.03443747 10.2286875,5.93021872 C10.6888437,5.86943747 11.1056562,6.19071872 11.15775,6.65099997 C11.2185312,7.11124998 10.89725,7.52809373 10.4370625,7.58018748 C9.93343749,7.64096873 9.46456249,7.81465623 9.05649999,8.05781248 C9.87256249,7.87928123 10.89125,7.95974998 11.8089687,8.40515623 C12.2257188,8.61356248 12.399375,9.10856249 12.1909688,9.52540624 C11.9913125,9.93353124 11.4877187,10.1071875 11.0795937,9.90746874 Z M10.2286875,12.0784688 C10.0376875,11.6876875 9.65562499,11.4445312 9.22146874,11.4445312 C8.92641096,11.4436561 8.64318796,11.5604908 8.43456436,11.7691438 C8.22594076,11.9777967 8.10914588,12.2610361 8.11006248,12.5560938 C8.11006248,13.2257188 8.66656248,13.6676563 9.22146874,13.6676563 C9.65562499,13.6676563 10.0376875,13.4245 10.2286875,13.0337188 C10.367625,12.7384375 10.654125,12.5647813 10.9580312,12.5560938 C10.654125,12.5474375 10.367625,12.37375 10.2286875,12.0784688 Z M21.9418438,10.9148125 C22.0720938,11.1840312 21.9765625,11.5053437 21.7247813,11.6529687 L19.9100625,12.686375 L18.625,15.005 C18.4253125,16.7939063 17.5396563,18.4352188 16.1330313,19.5901875 C15.7914063,19.8749375 15.2643125,19.8446875 14.9608438,19.4772813 C14.6656563,19.1212188 14.7177188,18.6001875 15.07375,18.3049063 C15.4644688,17.9749375 15.8117813,17.6015 16.089625,17.1933438 C15.412375,17.653625 14.6309063,17.9662188 13.7713125,18.0704375 C13.4581563,18.14875 12.9103125,17.8940938 12.84225,17.3496563 C12.7814688,16.8894063 13.10275,16.4725625 13.5629375,16.4204688 C14.0665625,16.3596563 14.5354375,16.186 14.9435,15.9428438 C14.1274375,16.121375 13.10875,16.0409063 12.1910313,15.5955 C11.7742812,15.3870938 11.600625,14.8920938 11.8090312,14.47525 C12.0086875,14.0670938 12.5123125,13.8934063 12.9204375,14.0931563 C13.5546563,14.4103125 14.3000313,14.443125 14.9435313,14.2147188 C13.6120938,14.2147188 12.7182813,13.574875 12.2692188,12.6342188 C12.0012188,12.074875 12.4300938,11.4445 13.00725,11.4445 C12.4313438,11.4445 12.0006563,10.81525 12.2692188,10.2547812 C12.70775,9.33615624 13.6454375,8.66456248 14.8306563,8.66559373 L17.73075,8.93481248 L19.8059375,7.89271873 C20.0999375,7.74571873 20.4255625,7.88165623 20.552625,8.13587498 L21.9418438,10.9148125 Z M14.7785,10.333 C14.3443438,10.333 13.9622813,10.5761562 13.7712813,10.9669375 C13.6323438,11.2622187 13.3458438,11.435875 13.0419375,11.4445625 C13.3458438,11.45325 13.6323438,11.6269375 13.7712813,11.9221875 C13.9622813,12.3129688 14.3443438,12.556125 14.7785,12.556125 C15.0735578,12.5570001 15.3567808,12.4401654 15.5654044,12.2315125 C15.774028,12.0228596 15.8908229,11.7396201 15.8899063,11.4445625 C15.8899063,10.7749062 15.3334063,10.333 14.7785,10.333 Z" id="path-1"></path>
    </defs>
    <g id="american-sign-language-interpreting" stroke="none" stroke-width="1" fill="none" fill-rule="evenodd">
        <mask id="mask-2" fill="white">
            <use xlink:href="#path-1"></use>
        </mask>
        <g fill-rule="nonzero"></g>
        <g id="🎨-color" mask="url(#mask-2)" fill="#000000">
            <rect id="🎨-Color" x="0" y="0" width="24" height="24"></rect>
        </g>
    </g>
</svg>