<?xml version="1.0" encoding="UTF-8"?>
<svg width="24px" height="24px" viewBox="0 0 24 24" version="1.1" xmlns="http://www.w3.org/2000/svg" xmlns:xlink="http://www.w3.org/1999/xlink">
    <!-- Generator: Sketch 52.5 (67469) - http://www.bohemiancoding.com/sketch -->
    <title>amilia</title>
    <desc>Created with Sketch.</desc>
    <defs>
        <path d="M12.6289063,3.24999996 C10.2109375,3.24999996 7.49218748,3.91015621 5.43359372,5.41406247 C5.23437497,5.53515622 5.07812497,5.77343747 5.15234372,6.17187497 C5.19531247,6.37109372 5.35156247,7.24218748 5.55078122,7.71874998 C5.71093747,8.11718748 6.10546872,8.11718748 6.34374997,7.95703123 C7.61328123,7.08593748 10.1132812,6.09374997 12.2929688,6.09374997 C14.5546875,6.09374997 14.59375,7.20312498 14.59375,8.94921873 L14.59375,10.453125 C11.1796875,10.8945312 6.30468747,11.8046875 5.07421872,12.3203125 C3.68749996,12.9570313 3.88671871,15.9726563 3.88671871,16.6875 C3.88671871,17.4023438 4.48046871,20.75 8.76562498,20.75 C10.6328125,20.75 13.2070313,19.9414063 14.7539063,19.1054688 L14.7539063,20.0976563 C14.7539063,20.2148438 14.8359375,20.4179688 14.9921875,20.453125 C15.1132813,20.4921875 16.9726563,20.53125 17.3320313,20.53125 C17.6914063,20.53125 19.7734375,20.5429688 19.9296875,20.5039063 C20.0898438,20.4648438 20.1289063,20.265625 20.1289063,20.1484375 L20.1289063,8.56249998 C20.125,5.42578122 17.8671875,3.24999996 12.6289063,3.24999996 Z M9.19531249,16.0507813 C9.19531249,15.5742188 9.07812499,14.3828125 9.91015624,13.984375 C10.859375,13.46875 12.84375,12.8359375 14.5898438,12.6757813 L14.5898438,16.84375 C13.7539063,17.359375 12.6875,17.796875 11.5,17.796875 C9.43749999,17.796875 9.19921874,16.4882813 9.19531249,16.0507813 Z" id="path-1"></path>
    </defs>
    <g id="amilia" stroke="none" stroke-width="1" fill="none" fill-rule="evenodd">
        <mask id="mask-2" fill="white">
            <use xlink:href="#path-1"></use>
        </mask>
        <g fill-rule="nonzero"></g>
        <g id="🎨-color" mask="url(#mask-2)" fill="#000000">
            <rect id="🎨-Color" x="0" y="0" width="24" height="24"></rect>
        </g>
    </g>
</svg>