<?xml version="1.0" encoding="UTF-8"?>
<svg width="24px" height="24px" viewBox="0 0 24 24" version="1.1" xmlns="http://www.w3.org/2000/svg" xmlns:xlink="http://www.w3.org/1999/xlink">
    <!-- Generator: Sketch 52.5 (67469) - http://www.bohemiancoding.com/sketch -->
    <title>anchor</title>
    <desc>Created with Sketch.</desc>
    <defs>
        <path d="M2.4503819,15.3333334 L3.57517357,15.3333334 C4.33236107,18.9005209 8.31749998,20.8888889 12,20.8888889 C15.688507,20.8888889 19.668507,18.8965278 20.4248264,15.3333334 L21.5496181,15.3333334 C21.9208334,15.3333334 22.1067362,14.8845139 21.8442362,14.6220486 L19.5168403,12.2946528 C19.354132,12.1319444 19.0903125,12.1319444 18.9275695,12.2946528 L16.6001736,14.6220486 C16.3376736,14.8845486 16.5235764,15.3333334 16.8947917,15.3333334 L18.1151389,15.3333334 C17.410625,17.2193403 15.1650347,18.3398611 13.1110764,18.5977431 L13.1110764,12 L14.916632,12 C15.1467361,12 15.3332986,11.8134375 15.3332986,11.5833333 L15.3332986,10.1944444 C15.3332986,9.96434027 15.1467361,9.77777777 14.916632,9.77777777 L13.1110764,9.77777777 L13.1110764,9.58784721 C14.4055556,9.13027776 15.333125,7.89600692 15.3332986,6.44486108 C15.333507,4.63097219 13.8612847,3.13673607 12.0475694,3.11145829 C10.1848264,3.08545134 8.66666665,4.58767357 8.66666665,6.44444442 C8.66666665,7.89576387 9.59430554,9.13020832 10.8888889,9.58784721 L10.8888889,9.77777777 L9.08333332,9.77777777 C8.85322915,9.77777777 8.66666665,9.96434027 8.66666665,10.1944444 L8.66666665,11.5833333 C8.66666665,11.8134375 8.85322915,12 9.08333332,12 L10.8888889,12 L10.8888889,18.5977431 C8.84249998,18.3408334 6.58958331,17.22 5.88482636,15.3333334 L7.10517359,15.3333334 C7.47638887,15.3333334 7.66229164,14.8845139 7.39979164,14.6220486 L5.0723958,12.2946528 C4.90968746,12.1319444 4.64586802,12.1319444 4.48312496,12.2946528 L2.15572912,14.6220486 C1.89326384,14.8845139 2.07916662,15.3333334 2.4503819,15.3333334 Z M12,5.3333333 C12.6126736,5.3333333 13.1111111,5.8317708 13.1111111,6.44444442 C13.1111111,7.05711803 12.6126736,7.55555553 12,7.55555553 C11.3873264,7.55555553 10.8888889,7.05711803 10.8888889,6.44444442 C10.8888889,5.8317708 11.3873264,5.3333333 12,5.3333333 Z" id="path-1"></path>
    </defs>
    <g id="anchor" stroke="none" stroke-width="1" fill="none" fill-rule="evenodd">
        <mask id="mask-2" fill="white">
            <use xlink:href="#path-1"></use>
        </mask>
        <g fill-rule="nonzero"></g>
        <g id="🎨-color" mask="url(#mask-2)" fill="#000000">
            <rect id="🎨-Color" x="0" y="0" width="24" height="24"></rect>
        </g>
    </g>
</svg>