<?xml version="1.0" encoding="UTF-8"?>
<svg width="24px" height="24px" viewBox="0 0 24 24" version="1.1" xmlns="http://www.w3.org/2000/svg" xmlns:xlink="http://www.w3.org/1999/xlink">
    <!-- Generator: Sketch 52.5 (67469) - http://www.bohemiancoding.com/sketch -->
    <title>android</title>
    <desc>Created with Sketch.</desc>
    <defs>
        <path d="M6.74999997,9.98828124 L6.74999997,14.5117188 C6.74999997,15.1132813 6.27734372,15.59375 5.67578122,15.59375 C5.07812497,15.59375 4.49999996,15.109375 4.49999996,14.5117188 L4.49999996,9.98828124 C4.49999996,9.39843749 5.07812497,8.91406248 5.67578122,8.91406248 C6.26562497,8.91406248 6.74999997,9.39843749 6.74999997,9.98828124 Z M7.17187498,16.1210938 C7.17187498,16.7617188 7.68749998,17.2773438 8.32812498,17.2773438 L9.10546874,17.2773438 L9.11718749,19.6640625 C9.11718749,21.1054688 11.2734375,21.09375 11.2734375,19.6640625 L11.2734375,17.2773438 L12.7265625,17.2773438 L12.7265625,19.6640625 C12.7265625,21.0976563 14.8945313,21.1015625 14.8945313,19.6640625 L14.8945313,17.2773438 L15.6835938,17.2773438 C16.3164063,17.2773438 16.8320313,16.7617188 16.8320313,16.1210938 L16.8320313,9.11328124 L7.17187498,9.11328124 L7.17187498,16.1210938 Z M16.859375,8.73437498 L7.12890623,8.73437498 C7.12890623,7.06249998 8.12890623,5.60937497 9.61328124,4.85156246 L8.86718748,3.47265621 C8.75781248,3.28124996 9.03515624,3.16015621 9.12890624,3.32421871 L9.88671874,4.71484371 C11.25,4.10937496 12.8164063,4.14062496 14.1171875,4.71484371 L14.8710938,3.32812496 C14.96875,3.16015621 15.2421875,3.28515621 15.1328125,3.47656246 L14.3867188,4.85156246 C15.859375,5.60937497 16.859375,7.06249998 16.859375,8.73437498 Z M10.1914062,6.56640622 C10.1914062,6.34374997 10.0117187,6.15624997 9.78124999,6.15624997 C9.55859374,6.15624997 9.38281249,6.34374997 9.38281249,6.56640622 C9.38281249,6.78906247 9.56249999,6.97656247 9.78124999,6.97656247 C10.0117187,6.97656247 10.1914062,6.78906247 10.1914062,6.56640622 Z M14.6210938,6.56640622 C14.6210938,6.34374997 14.4414063,6.15624997 14.2226563,6.15624997 C13.9921875,6.15624997 13.8125,6.34374997 13.8125,6.56640622 C13.8125,6.78906247 13.9921875,6.97656247 14.2226563,6.97656247 C14.4414063,6.97656247 14.6210938,6.78906247 14.6210938,6.56640622 Z M18.3242188,8.91406248 C17.734375,8.91406248 17.25,9.38671874 17.25,9.98828124 L17.25,14.5117188 C17.25,15.1132813 17.734375,15.59375 18.3242188,15.59375 C18.9257813,15.59375 19.5,15.109375 19.5,14.5117188 L19.5,9.98828124 C19.5,9.38671874 18.921875,8.91406248 18.3242188,8.91406248 Z" id="path-1"></path>
    </defs>
    <g id="android" stroke="none" stroke-width="1" fill="none" fill-rule="evenodd">
        <mask id="mask-2" fill="white">
            <use xlink:href="#path-1"></use>
        </mask>
        <g fill-rule="nonzero"></g>
        <g id="🎨-color" mask="url(#mask-2)" fill="#000000">
            <rect id="🎨-Color" x="0" y="0" width="24" height="24"></rect>
        </g>
    </g>
</svg>