<?xml version="1.0" encoding="UTF-8"?>
<svg width="24px" height="24px" viewBox="0 0 24 24" version="1.1" xmlns="http://www.w3.org/2000/svg" xmlns:xlink="http://www.w3.org/1999/xlink">
    <!-- Generator: Sketch 52.5 (67469) - http://www.bohemiancoding.com/sketch -->
    <title>angellist</title>
    <desc>Created with Sketch.</desc>
    <defs>
        <path d="M16.8085938,10.4140625 C17.265625,9.14062499 18.5820313,5.45703122 18.5820313,4.27734371 C18.5820313,3.23828121 17.96875,2.36718745 16.875,2.36718745 C15.1328125,2.36718745 13.5703125,7.51171873 13.0820313,8.73828123 C12.703125,7.62499998 10.9296875,1.99999995 9.36718749,1.99999995 C8.15234373,1.99999995 7.58203123,2.8945312 7.58203123,4.01953121 C7.58203123,5.39843747 8.91796873,8.97265623 9.40234374,10.3476562 C9.15624999,10.2578125 8.89062498,10.1796875 8.62109373,10.1796875 C7.70703123,10.1796875 6.73437497,11.3164062 6.73437497,12.234375 C6.73437497,12.5820313 6.92578122,13.0703125 7.04687498,13.3945313 C5.60546872,13.7851563 5.05078122,14.7460938 5.05078122,16.1953125 C5.04687497,19.015625 7.71874998,22.0000001 11.4765625,22.0000001 C16.0859375,22.0000001 18.953125,18.5390625 18.953125,14.0742188 C18.953125,12.390625 18.6835938,10.8710937 16.8085938,10.4140625 Z M15.4257813,6.21874997 C15.5820313,5.73828122 16.25,3.70703121 16.875,3.70703121 C17.2109375,3.70703121 17.3007813,4.05468746 17.3007813,4.33203121 C17.3007813,5.07812497 15.7929688,9.19921874 15.4609375,10.1132812 L14.1328125,9.87890624 L15.4257813,6.21874997 Z M8.80859373,3.88671871 C8.80859373,3.42187496 9.37499999,2.10156245 10.6171875,5.72656247 L11.96875,9.64453124 C11.359375,9.59374999 10.8867187,9.52734374 10.5859375,9.69921874 C10.1601562,8.57421873 8.80859373,5.02343747 8.80859373,3.88671871 Z M8.71874998,11.53125 C9.86328124,11.53125 11.3398437,15.2265625 11.3398437,15.7265625 C11.3398437,15.9257813 11.1484375,16.171875 10.9257812,16.171875 C10.109375,16.171875 7.92187498,13.1679688 7.92187498,12.3554688 C7.92578123,12.0546875 8.41796873,11.53125 8.71874998,11.53125 Z M15.9179688,18.8085938 C14.78125,20.0585938 13.328125,20.7070313 11.6328125,20.7070313 C9.31249999,20.7070313 7.48046873,19.4335938 6.59765622,17.2578125 C5.92968747,15.5625 6.74609372,14.5898438 7.40234373,14.5898438 C7.84765623,14.5898438 9.52343749,16.9453125 9.52343749,17.4453125 C9.52343749,17.6367188 9.22265624,17.7695313 9.06640624,17.7695313 C8.43749998,17.7695313 8.19140623,17.1640625 7.07031248,15.7617188 C5.91015622,16.921875 7.87109373,19.15625 9.34765624,19.15625 C10.3671875,19.15625 11.03125,18.2109375 10.8320312,17.515625 C10.9765625,17.515625 11.15625,17.5273438 11.2890625,17.4921875 C11.3320312,18.5507813 11.6445312,19.8125 12.9179688,19.9023438 C12.9179688,19.8671875 12.9960938,19.625 12.9960938,19.6132813 C12.9960938,18.9335938 12.5820313,18.3398438 12.5820313,17.6484375 C12.5820313,16.5429688 13.4296875,15.4726563 14.2890625,14.8476563 C14.6015625,14.6132813 14.9804688,14.46875 15.3476563,14.3359375 C15.7265625,14.1914063 16.1289063,14.0234375 16.4179688,13.734375 C16.375,13.296875 16.1953125,12.9101563 15.7578125,12.9101563 C14.6757813,12.9101563 11.046875,13.0664063 11.046875,11.359375 C11.046875,11.0976562 11.0507812,10.8476562 11.7265625,10.8476562 C12.9882813,10.8476562 16.1914063,11.1601562 17.1289063,11.984375 C17.8359375,12.6132813 18.078125,16.40625 15.9179688,18.8085938 Z M12.0664063,13.8867188 C12.4453125,14.0078125 12.8359375,14.0429688 13.2265625,14.1210938 C12.9375,14.3320313 12.6796875,14.5898438 12.4335938,14.8671875 C12.3242188,14.5351563 12.1914063,14.2109375 12.0664063,13.8867188 Z" id="path-1"></path>
    </defs>
    <g id="angellist" stroke="none" stroke-width="1" fill="none" fill-rule="evenodd">
        <mask id="mask-2" fill="white">
            <use xlink:href="#path-1"></use>
        </mask>
        <g fill-rule="nonzero"></g>
        <g id="🎨-color" mask="url(#mask-2)" fill="#000000">
            <rect id="🎨-Color" x="0" y="0" width="24" height="24"></rect>
        </g>
    </g>
</svg>