<?xml version="1.0" encoding="UTF-8"?>
<svg width="24px" height="24px" viewBox="0 0 24 24" version="1.1" xmlns="http://www.w3.org/2000/svg" xmlns:xlink="http://www.w3.org/1999/xlink">
    <!-- Generator: Sketch 52.5 (67469) - http://www.bohemiancoding.com/sketch -->
    <title>angle-double-up</title>
    <desc>Created with Sketch.</desc>
    <defs>
        <path d="M12.6640625,11.9882812 L17.9765625,17.3007813 C18.34375,17.6679688 18.34375,18.2617188 17.9765625,18.625 L17.09375,19.5078125 C16.7265625,19.875 16.1328125,19.875 15.7695313,19.5078125 L12,15.7460938 L8.23437498,19.5117188 C7.86718748,19.8789063 7.27343748,19.8789063 6.91015622,19.5117188 L6.02343747,18.6289063 C5.65624997,18.2617188 5.65624997,17.6679688 6.02343747,17.3046875 L11.3359375,11.9921875 C11.703125,11.6210937 12.296875,11.6210937 12.6640625,11.9882812 Z M11.3359375,4.48828121 L6.02343747,9.80078124 C5.65624997,10.1679687 5.65624997,10.7617187 6.02343747,11.125 L6.90624997,12.0078125 C7.27343748,12.375 7.86718748,12.375 8.23046873,12.0078125 L11.9960937,8.24218748 L15.7617188,12.0078125 C16.1289063,12.375 16.7226563,12.375 17.0859375,12.0078125 L17.96875,11.125 C18.3359375,10.7578125 18.3359375,10.1640625 17.96875,9.80078124 L12.65625,4.48828121 C12.296875,4.12109371 11.703125,4.12109371 11.3359375,4.48828121 Z" id="path-1"></path>
    </defs>
    <g id="angle-double-up" stroke="none" stroke-width="1" fill="none" fill-rule="evenodd">
        <mask id="mask-2" fill="white">
            <use xlink:href="#path-1"></use>
        </mask>
        <g fill-rule="nonzero"></g>
        <g id="🎨-color" mask="url(#mask-2)" fill="#000000">
            <rect id="🎨-Color" x="0" y="0" width="24" height="24"></rect>
        </g>
    </g>
</svg>