<?xml version="1.0" encoding="UTF-8"?>
<svg width="24px" height="24px" viewBox="0 0 24 24" version="1.1" xmlns="http://www.w3.org/2000/svg" xmlns:xlink="http://www.w3.org/1999/xlink">
    <!-- Generator: Sketch 52.5 (67469) - http://www.bohemiancoding.com/sketch -->
    <title>angle-double-right</title>
    <desc>Created with Sketch.</desc>
    <defs>
        <path d="M12.0117188,12.6640625 L6.69921872,17.9765625 C6.33203122,18.34375 5.73828122,18.34375 5.37499997,17.9765625 L4.49218746,17.09375 C4.12499996,16.7265625 4.12499996,16.1328125 4.49218746,15.7695313 L8.25781248,12.0039063 L4.49218746,8.23828123 C4.12499996,7.87109373 4.12499996,7.27734373 4.49218746,6.91406247 L5.37109372,6.02343747 C5.73828122,5.65624997 6.33203122,5.65624997 6.69531247,6.02343747 L12.0078125,11.3359375 C12.3789063,11.703125 12.3789063,12.296875 12.0117188,12.6640625 Z M19.5117188,11.3359375 L14.1992188,6.02343747 C13.8320313,5.65624997 13.2382813,5.65624997 12.875,6.02343747 L11.9921875,6.90624997 C11.625,7.27343748 11.625,7.86718748 11.9921875,8.23046873 L15.7578125,11.9960937 L11.9921875,15.7617188 C11.625,16.1289063 11.625,16.7226563 11.9921875,17.0859375 L12.875,17.96875 C13.2421875,18.3359375 13.8359375,18.3359375 14.1992188,17.96875 L19.5117188,12.65625 C19.8789063,12.296875 19.8789063,11.703125 19.5117188,11.3359375 Z" id="path-1"></path>
    </defs>
    <g id="angle-double-right" stroke="none" stroke-width="1" fill="none" fill-rule="evenodd">
        <mask id="mask-2" fill="white">
            <use xlink:href="#path-1"></use>
        </mask>
        <g fill-rule="nonzero"></g>
        <g id="🎨-color" mask="url(#mask-2)" fill="#000000">
            <rect id="🎨-Color" x="0" y="0" width="24" height="24"></rect>
        </g>
    </g>
</svg>