<?xml version="1.0" encoding="UTF-8"?>
<svg width="24px" height="24px" viewBox="0 0 24 24" version="1.1" xmlns="http://www.w3.org/2000/svg" xmlns:xlink="http://www.w3.org/1999/xlink">
    <!-- Generator: Sketch 52.5 (67469) - http://www.bohemiancoding.com/sketch -->
    <title>angle-double-down</title>
    <desc>Created with Sketch.</desc>
    <defs>
        <path d="M11.3359375,12.0117188 L6.02343747,6.69921872 C5.65624997,6.33203122 5.65624997,5.73828122 6.02343747,5.37499997 L6.90624997,4.49218746 C7.27343748,4.12499996 7.86718748,4.12499996 8.23046873,4.49218746 L11.9960937,8.25781248 L15.7617188,4.49218746 C16.1289063,4.12499996 16.7226563,4.12499996 17.0859375,4.49218746 L17.9765625,5.37109372 C18.34375,5.73828122 18.34375,6.33203122 17.9765625,6.69531247 L12.6640625,12.0078125 C12.296875,12.3789063 11.703125,12.3789063 11.3359375,12.0117188 Z M12.6640625,19.5117188 L17.9765625,14.1992188 C18.34375,13.8320313 18.34375,13.2382813 17.9765625,12.875 L17.09375,11.9921875 C16.7265625,11.625 16.1328125,11.625 15.7695313,11.9921875 L12,15.7539063 L8.23437498,11.9882812 C7.86718748,11.6210937 7.27343748,11.6210937 6.91015622,11.9882812 L6.02343747,12.8710938 C5.65624997,13.2382813 5.65624997,13.8320313 6.02343747,14.1953125 L11.3359375,19.5078125 C11.703125,19.8789063 12.296875,19.8789063 12.6640625,19.5117188 Z" id="path-1"></path>
    </defs>
    <g id="angle-double-down" stroke="none" stroke-width="1" fill="none" fill-rule="evenodd">
        <mask id="mask-2" fill="white">
            <use xlink:href="#path-1"></use>
        </mask>
        <g fill-rule="nonzero"></g>
        <g id="🎨-color" mask="url(#mask-2)" fill="#000000">
            <rect id="🎨-Color" x="0" y="0" width="24" height="24"></rect>
        </g>
    </g>
</svg>