<?xml version="1.0" encoding="UTF-8"?>
<svg width="24px" height="24px" viewBox="0 0 24 24" version="1.1" xmlns="http://www.w3.org/2000/svg" xmlns:xlink="http://www.w3.org/1999/xlink">
    <!-- Generator: Sketch 52.5 (67469) - http://www.bohemiancoding.com/sketch -->
    <title>angle-double-left</title>
    <desc>Created with Sketch.</desc>
    <defs>
        <path d="M11.9882812,11.3359375 L17.3007813,6.02343747 C17.6679688,5.65624997 18.2617188,5.65624997 18.625,6.02343747 L19.5078125,6.90624997 C19.875,7.27343748 19.875,7.86718748 19.5078125,8.23046873 L15.7460938,12 L19.5117188,15.765625 C19.8789063,16.1328125 19.8789063,16.7265625 19.5117188,17.0898438 L18.6289063,17.9765625 C18.2617188,18.34375 17.6679688,18.34375 17.3046875,17.9765625 L11.9921875,12.6640625 C11.6210937,12.296875 11.6210937,11.703125 11.9882812,11.3359375 Z M4.48828121,12.6640625 L9.80078124,17.9765625 C10.1679687,18.34375 10.7617187,18.34375 11.125,17.9765625 L12.0078125,17.09375 C12.375,16.7265625 12.375,16.1328125 12.0078125,15.7695313 L8.24609373,12 L12.0117188,8.23437498 C12.3789063,7.86718748 12.3789063,7.27343748 12.0117188,6.91015622 L11.1289062,6.02343747 C10.7617187,5.65624997 10.1679687,5.65624997 9.80468749,6.02343747 L4.49218746,11.3359375 C4.12109371,11.703125 4.12109371,12.296875 4.48828121,12.6640625 Z" id="path-1"></path>
    </defs>
    <g id="angle-double-left" stroke="none" stroke-width="1" fill="none" fill-rule="evenodd">
        <mask id="mask-2" fill="white">
            <use xlink:href="#path-1"></use>
        </mask>
        <g fill-rule="nonzero"></g>
        <g id="🎨-color" mask="url(#mask-2)" fill="#000000">
            <rect id="🎨-Color" x="0" y="0" width="24" height="24"></rect>
        </g>
    </g>
</svg>