<?xml version="1.0" encoding="UTF-8"?>
<svg width="24px" height="24px" viewBox="0 0 24 24" version="1.1" xmlns="http://www.w3.org/2000/svg" xmlns:xlink="http://www.w3.org/1999/xlink">
    <!-- Generator: Sketch 52.5 (67469) - http://www.bohemiancoding.com/sketch -->
    <title>angry</title>
    <desc>Created with Sketch.</desc>
    <defs>
        <path d="M12,2.31249995 C6.64843747,2.31249995 2.31249995,6.64843747 2.31249995,12 C2.31249995,17.3515625 6.64843747,21.6875 12,21.6875 C17.3515625,21.6875 21.6875,17.3515625 21.6875,12 C21.6875,6.64843747 17.3515625,2.31249995 12,2.31249995 Z M12,19.8125 C7.69140623,19.8125 4.18749996,16.3085938 4.18749996,12 C4.18749996,7.69140623 7.69140623,4.18749996 12,4.18749996 C16.3085938,4.18749996 19.8125,7.69140623 19.8125,12 C19.8125,16.3085938 16.3085938,19.8125 12,19.8125 Z M12,14.1875 C10.6875,14.1875 9.45312499,14.765625 8.60937498,15.7734375 C8.27734373,16.171875 8.33203123,16.7617188 8.73046873,17.09375 C9.12890624,17.4257813 9.71874999,17.375 10.0507812,16.9765625 C11.0195312,15.8164063 12.9804688,15.8164063 13.9492188,16.9765625 C14.265625,17.3554688 14.8554688,17.4414063 15.2695313,17.09375 C15.6679688,16.7617188 15.71875,16.171875 15.390625,15.7734375 C14.546875,14.765625 13.3125,14.1875 12,14.1875 Z M10.125,11.375 C10.5273437,11.375 10.9023437,11.1132812 11.0234375,10.7070312 C11.171875,10.2109375 10.890625,9.68749999 10.3945312,9.53906249 L7.26953123,8.60156248 C6.76953122,8.44921873 6.24999997,8.73437498 6.10156247,9.23046874 C5.95312497,9.72656249 6.23437497,10.25 6.73046872,10.3984375 L7.83203123,10.7304687 C7.71093748,10.921875 7.62499998,11.1367187 7.62499998,11.3789062 C7.62499998,12.0703125 8.18359373,12.6289063 8.87499998,12.6289063 C9.56640624,12.6289063 10.125,12.0664063 10.125,11.375 Z M17.8984375,9.23046874 C17.75,8.73437498 17.2304688,8.45312498 16.7304688,8.60156248 L13.6054688,9.53906249 C13.109375,9.68749999 12.828125,10.2109375 12.9765625,10.7070312 C13.0976563,11.1132812 13.4726563,11.375 13.875,11.375 C13.875,12.0664063 14.4335938,12.625 15.125,12.625 C15.8164063,12.625 16.375,12.0664063 16.375,11.375 C16.375,11.1328125 16.2890625,10.9179687 16.1679688,10.7265625 L17.2695313,10.3945312 C17.765625,10.25 18.046875,9.72656249 17.8984375,9.23046874 Z" id="path-1"></path>
    </defs>
    <g id="angry" stroke="none" stroke-width="1" fill="none" fill-rule="evenodd">
        <mask id="mask-2" fill="white">
            <use xlink:href="#path-1"></use>
        </mask>
        <g fill-rule="nonzero"></g>
        <g id="🎨-color" mask="url(#mask-2)" fill="#000000">
            <rect id="🎨-Color" x="0" y="0" width="24" height="24"></rect>
        </g>
    </g>
</svg>