<?xml version="1.0" encoding="UTF-8"?>
<svg width="24px" height="24px" viewBox="0 0 24 24" version="1.1" xmlns="http://www.w3.org/2000/svg" xmlns:xlink="http://www.w3.org/1999/xlink">
    <!-- Generator: Sketch 52.5 (67469) - http://www.bohemiancoding.com/sketch -->
    <title>angrycreative</title>
    <desc>Created with Sketch.</desc>
    <defs>
        <path d="M22.0000001,11.44375 L21.9,12.325 L20.821875,12.396875 L20.759375,12.9625 L21.8375,12.890625 L21.7375,13.771875 L20.6625,13.840625 L20.590625,14.46875 L21.665625,14.4 L21.571875,15.215625 L19.55,15.34375 L19.946875,11.80625 L18.46875,15.4125 L17.471875,15.475 L16.728125,11.79375 L17.675,11.73125 L18.1,14.2125 L19.090625,11.6375 L22.0000001,11.44375 Z M15.3375,15.609375 L16.221875,15.553125 L16.625,11.8 L15.7375,11.859375 L15.3375,15.609375 Z M7.06249998,16.128125 L6.45624997,15.003125 L6.34687497,16.171875 L5.46562497,16.225 L5.54999997,15.315625 C5.20624997,15.878125 4.54999996,16.3875 3.77187496,16.434375 C2.74687495,16.496875 1.90624995,15.78125 2.00937495,14.615625 C2.09062495,13.7 2.84374995,12.653125 4.11874996,12.571875 C5.29687497,12.496875 5.60624997,13.296875 5.72187497,13.471875 L5.80937497,12.509375 L7.02499998,12.43125 C7.65312498,12.390625 8.23437498,12.546875 8.35312498,13.171875 L8.43437498,12.340625 L10.459375,12.209375 L10.375,13.08125 L9.23749999,13.15625 L9.18437499,13.715625 L10.321875,13.64375 L10.2375,14.515625 L9.09999999,14.5875 L9.04062499,15.209375 L10.175,15.1375 L10.109375,15.7875 L11.828125,12.125 L12.571875,12.075 L13.575,15.53125 L13.853125,12.85625 L13.15625,12.9 L13.246875,12.028125 L15.590625,11.875 L15.496875,12.75 L14.7375,12.8 L14.434375,15.671875 L12.621875,15.7875 L12.4875,15.3 L11.25625,15.378125 L11.00625,15.8875 L7.06249998,16.128125 Z M5.67812497,13.934375 L4.85312496,13.9875 C4.64374996,13.6 4.40312496,13.46875 4.03124996,13.49375 C3.43749996,13.53125 2.99062495,14.040625 2.94999995,14.534375 C2.90624995,15.034375 3.17812496,15.55 3.84687496,15.509375 C4.24687496,15.484375 4.51249996,15.240625 4.74999996,14.91875 L5.59374997,14.865625 L5.67812497,13.934375 Z M7.43124998,13.69375 C7.46874998,13.290625 7.19374998,13.26875 6.61562497,13.30625 L6.53124997,14.196875 C6.97499997,14.16875 7.39062498,14.13125 7.43124998,13.69375 Z M8.09062498,15.90625 L8.27187498,14.03125 C8.11562498,14.453125 7.81249998,14.690625 7.39999998,14.8625 L8.09062498,15.90625 Z M12.321875,14.5 L12.075,13.31875 L11.58125,14.546875 L12.321875,14.5 Z M7.00624998,12.16875 L6.87187497,11.621875 L5.63437497,11.703125 L5.38124997,12.271875 L4.38437496,12.3375 L6.16562497,8.52812498 L6.91249997,8.47812498 L7.87187498,11.665625 L8.18124998,8.39374998 L9.02499999,8.33749998 L10.20625,10.325 L10.409375,8.24374998 L11.3,8.18437498 L11.175,9.47187499 C11.40625,9.04999999 11.890625,8.07499998 13.1625,7.98749998 C14.428125,7.89999998 14.8,8.90312498 14.83125,8.93437498 L14.934375,7.93437498 L16.1625,7.84999998 C16.559375,7.82187498 17.03125,7.85937498 17.296875,8.15312498 L17.159375,7.78124998 L18.165625,7.71249998 L18.56875,9.06249999 L19.2875,7.63437498 L20.25625,7.56562498 L18.89375,10.015625 L18.74375,11.4 L17.85625,11.459375 L18.00625,10.075 L17.5125,8.73124998 C17.54375,9.42812499 17.225,9.98437499 16.5125,10.28125 L17.3,11.49375 L16.1625,11.56875 L15.5625,10.41875 L15.4375,11.615625 L14.55,11.675 L14.653125,10.690625 C14.44375,10.98125 14.0375,11.796875 12.790625,11.878125 C11.971875,11.93125 11.365625,11.55625 11.059375,10.653125 L10.934375,11.9125 L10.153125,11.9625 L8.97812498,9.98437499 L8.78124998,12.053125 L7.00624998,12.16875 Z M15.65,9.60312499 C15.96875,9.58124999 16.196875,9.53749999 16.325,9.46874999 C16.465625,9.39374999 16.54375,9.26874999 16.5625,9.09062499 C16.58125,8.92499998 16.54375,8.81562498 16.45625,8.76562498 C16.34375,8.69999998 16.125,8.67812498 15.740625,8.70312498 L15.65,9.60312499 Z M12.240625,10.6875 C12.415625,10.871875 12.6375,10.953125 12.90625,10.934375 C13.053125,10.925 13.190625,10.878125 13.321875,10.80625 C13.49375,10.7125 13.653125,10.55625 13.79375,10.359375 L12.725,10.43125 L12.8,9.68437499 L14.771875,9.54999999 L14.809375,9.17499999 L13.834375,9.24062499 C13.70625,9.12499999 13.590625,9.03437499 13.4875,8.98749998 C13.3625,8.93437498 13.234375,8.89999998 13.10625,8.90937498 C12.85625,8.92499998 12.628125,9.02187499 12.41875,9.19687499 C12.178125,9.39687499 12.04375,9.64999999 12.015625,9.95937499 C11.98125,10.259375 12.059375,10.5 12.240625,10.6875 Z M5.94999997,10.94375 L6.69374997,10.89375 L6.43437497,9.71874999 L5.94999997,10.94375 Z" id="path-1"></path>
    </defs>
    <g id="angrycreative" stroke="none" stroke-width="1" fill="none" fill-rule="evenodd">
        <mask id="mask-2" fill="white">
            <use xlink:href="#path-1"></use>
        </mask>
        <g fill-rule="nonzero"></g>
        <g id="🎨-color" mask="url(#mask-2)" fill="#000000">
            <rect id="🎨-Color" x="0" y="0" width="24" height="24"></rect>
        </g>
    </g>
</svg>