<?xml version="1.0" encoding="UTF-8"?>
<svg width="24px" height="24px" viewBox="0 0 24 24" version="1.1" xmlns="http://www.w3.org/2000/svg" xmlns:xlink="http://www.w3.org/1999/xlink">
    <!-- Generator: Sketch 52.5 (67469) - http://www.bohemiancoding.com/sketch -->
    <title>ankh</title>
    <desc>Created with Sketch.</desc>
    <defs>
        <path d="M17.3125,12 L15.5695313,12 C16.3929688,10.6722656 17,9.09570311 17,7.62499998 C17,4.17304684 14.7613281,1.99999995 12,1.99999995 C9.23867186,1.99999995 6.99999997,4.17304684 6.99999997,7.62499998 C6.99999997,9.09570311 7.60703123,10.6722656 8.43046873,12 L6.68749997,12 C6.16992185,12 5.74999997,12.4195313 5.74999997,12.9375 L5.74999997,14.1875 C5.74999997,14.7050781 6.16992185,15.125 6.68749997,15.125 L10.4375,15.125 L10.4375,21.0625 C10.4375,21.5800782 10.8574219,22.0000001 11.375,22.0000001 L12.625,22.0000001 C13.1425781,22.0000001 13.5625,21.5800782 13.5625,21.0625 L13.5625,15.125 L17.3125,15.125 C17.8300782,15.125 18.25,14.7050781 18.25,14.1875 L18.25,12.9375 C18.25,12.4195313 17.8300782,12 17.3125,12 Z M12,5.12499997 C13.1566406,5.12499997 13.875,6.08281247 13.875,7.62499998 C13.875,8.97890623 12.8148438,10.6773437 12,11.5652344 C11.1851562,10.6777344 10.125,8.97890623 10.125,7.62499998 C10.125,6.08281247 10.8433594,5.12499997 12,5.12499997 Z" id="path-1"></path>
    </defs>
    <g id="ankh" stroke="none" stroke-width="1" fill="none" fill-rule="evenodd">
        <mask id="mask-2" fill="white">
            <use xlink:href="#path-1"></use>
        </mask>
        <g fill-rule="nonzero"></g>
        <g id="🎨-color" mask="url(#mask-2)" fill="#000000">
            <rect id="🎨-Color" x="0" y="0" width="24" height="24"></rect>
        </g>
    </g>
</svg>