<?xml version="1.0" encoding="UTF-8"?>
<svg width="24px" height="24px" viewBox="0 0 24 24" version="1.1" xmlns="http://www.w3.org/2000/svg" xmlns:xlink="http://www.w3.org/1999/xlink">
    <!-- Generator: Sketch 52.5 (67469) - http://www.bohemiancoding.com/sketch -->
    <title>app-store</title>
    <desc>Created with Sketch.</desc>
    <defs>
        <path d="M11.9960937,6.72265622 L12.3515625,6.10937497 C12.5703125,5.72656247 13.0585938,5.59765622 13.4414063,5.81640622 C13.8242188,6.03515622 13.953125,6.52343747 13.734375,6.90624997 L10.3164062,12.8242188 L12.7890625,12.8242188 C13.5898438,12.8242188 14.0390625,13.765625 13.6914063,14.4179688 L6.44531247,14.4179688 C6.00390622,14.4179688 5.64843747,14.0625 5.64843747,13.6210938 C5.64843747,13.1796875 6.00390622,12.8242188 6.44531247,12.8242188 L8.47656248,12.8242188 L11.078125,8.31640623 L10.265625,6.90624997 C10.046875,6.52343747 10.1757812,6.03906247 10.5585937,5.81640622 C10.9414062,5.59765622 11.4257812,5.72656247 11.6484375,6.10937497 L11.9960937,6.72265622 Z M8.92187498,15.2382813 L8.15624998,16.5664063 C7.93749998,16.9492188 7.44921873,17.078125 7.06640623,16.859375 C6.68359372,16.640625 6.55468747,16.1523438 6.77343747,15.7695313 L7.34374998,14.7851563 C7.98437498,14.5859375 8.50781248,14.7382813 8.92187498,15.2382813 Z M15.5195313,12.828125 L17.59375,12.828125 C18.0351563,12.828125 18.390625,13.1835938 18.390625,13.625 C18.390625,14.0664063 18.0351563,14.421875 17.59375,14.421875 L16.4414063,14.421875 L17.21875,15.7695313 C17.4375,16.1523438 17.3085938,16.6367188 16.9257813,16.859375 C16.5429688,17.078125 16.0585938,16.9492188 15.8359375,16.5664063 C14.5273438,14.296875 13.5429688,12.5976563 12.890625,11.4648437 C12.2226563,10.3125 12.6992188,9.15624999 13.171875,8.76562498 C13.6953125,9.66406249 14.4765625,11.0195312 15.5195313,12.828125 Z M12,2.31249995 C6.64843747,2.31249995 2.31249995,6.64843747 2.31249995,12 C2.31249995,17.3515625 6.64843747,21.6875 12,21.6875 C17.3515625,21.6875 21.6875,17.3515625 21.6875,12 C21.6875,6.64843747 17.3515625,2.31249995 12,2.31249995 Z M20.4375,12 C20.4375,16.6367188 16.6835938,20.4375 12,20.4375 C7.36328123,20.4375 3.56249996,16.6835938 3.56249996,12 C3.56249996,7.36328123 7.31640623,3.56249996 12,3.56249996 C16.6367188,3.56249996 20.4375,7.31640623 20.4375,12 Z" id="path-1"></path>
    </defs>
    <g id="app-store" stroke="none" stroke-width="1" fill="none" fill-rule="evenodd">
        <mask id="mask-2" fill="white">
            <use xlink:href="#path-1"></use>
        </mask>
        <g fill-rule="nonzero"></g>
        <g id="🎨-color" mask="url(#mask-2)" fill="#000000">
            <rect id="🎨-Color" x="0" y="0" width="24" height="24"></rect>
        </g>
    </g>
</svg>