<?xml version="1.0" encoding="UTF-8"?>
<svg width="24px" height="24px" viewBox="0 0 24 24" version="1.1" xmlns="http://www.w3.org/2000/svg" xmlns:xlink="http://www.w3.org/1999/xlink">
    <!-- Generator: Sketch 52.5 (67469) - http://www.bohemiancoding.com/sketch -->
    <title>app-store-ios</title>
    <desc>Created with Sketch.</desc>
    <defs>
        <path d="M18.875,3.24999996 L5.12499997,3.24999996 C4.08984371,3.24999996 3.24999996,4.08984371 3.24999996,5.12499997 L3.24999996,18.875 C3.24999996,19.9101563 4.08984371,20.75 5.12499997,20.75 L18.875,20.75 C19.9101563,20.75 20.75,19.9101563 20.75,18.875 L20.75,5.12499997 C20.75,4.08984371 19.9101563,3.24999996 18.875,3.24999996 Z M8.21093748,17.0195313 C7.99609373,17.3945313 7.51562498,17.5195313 7.14453123,17.3046875 C6.76953122,17.0898438 6.64453122,16.609375 6.85937497,16.2382813 L7.41796873,15.2734375 C8.04687498,15.0820313 8.56249998,15.2304688 8.96484373,15.71875 L8.21093748,17.0195313 Z M13.6367188,14.9140625 L6.53124997,14.9140625 C6.10156247,14.9140625 5.74999997,14.5625 5.74999997,14.1328125 C5.74999997,13.703125 6.10156247,13.3515625 6.53124997,13.3515625 L8.52343748,13.3515625 L11.078125,8.92968748 L10.2773437,7.54687498 C10.0625,7.17187498 10.1914062,6.69531247 10.5625,6.48046872 C10.9375,6.26562497 11.4140625,6.39453122 11.6289062,6.76562497 L11.9765625,7.36718748 L12.3242188,6.76562497 C12.5390625,6.39062497 13.0195313,6.26562497 13.390625,6.48046872 C13.765625,6.69531247 13.890625,7.17578123 13.6757813,7.54687498 L10.3242187,13.3515625 L12.75,13.3515625 C13.5390625,13.3515625 13.9804688,14.2773438 13.6367188,14.9140625 Z M17.46875,14.9140625 L16.3359375,14.9140625 L17.1015625,16.2382813 C17.3164063,16.6132813 17.1875,17.0898438 16.8164063,17.3046875 C16.4414063,17.5195313 15.9648438,17.390625 15.75,17.0195313 C14.4648438,14.796875 13.5039063,13.125 12.859375,12.015625 C12.2070313,10.8828125 12.671875,9.74999999 13.1367188,9.36718749 C13.6484375,10.2539062 14.4140625,11.5820312 15.4375,13.3515625 L17.46875,13.3515625 C17.8984375,13.3515625 18.25,13.703125 18.25,14.1328125 C18.25,14.5664063 17.8984375,14.9140625 17.46875,14.9140625 Z" id="path-1"></path>
    </defs>
    <g id="app-store-ios" stroke="none" stroke-width="1" fill="none" fill-rule="evenodd">
        <mask id="mask-2" fill="white">
            <use xlink:href="#path-1"></use>
        </mask>
        <g fill-rule="nonzero"></g>
        <g id="🎨-color" mask="url(#mask-2)" fill="#000000">
            <rect id="🎨-Color" x="0" y="0" width="24" height="24"></rect>
        </g>
    </g>
</svg>