<?xml version="1.0" encoding="UTF-8"?>
<svg width="24px" height="24px" viewBox="0 0 24 24" version="1.1" xmlns="http://www.w3.org/2000/svg" xmlns:xlink="http://www.w3.org/1999/xlink">
    <!-- Generator: Sketch 52.5 (67469) - http://www.bohemiancoding.com/sketch -->
    <title>apper</title>
    <desc>Created with Sketch.</desc>
    <defs>
        <path d="M3.31562496,11.471875 C4.00937496,11.471875 4.22187496,11.559375 4.36249996,11.928125 L4.38749996,11.928125 L4.38749996,11.2125 C4.38749996,10.859375 4.23749996,10.73125 3.82812496,10.73125 C3.47499996,10.73125 3.37812496,10.809375 3.35624996,11.13125 L2.14999995,11.13125 C2.15937495,10.696875 2.19687495,10.534375 2.33124995,10.36875 C2.55937495,10.09375 2.92187495,9.99999999 3.77187496,9.99999999 C4.80312496,9.99999999 5.24374997,10.15625 5.45624997,10.590625 C5.51874997,10.725 5.58124997,11.078125 5.58124997,11.33125 L5.58124997,13.715625 L4.38437496,13.715625 L4.42499996,13.11875 L4.39374996,13.11875 C4.22812496,13.60625 3.96874996,13.75625 3.28437496,13.75625 C2.33749995,13.75625 1.99999995,13.440625 1.99999995,12.590625 C1.99999995,11.803125 2.38437495,11.471875 3.31562496,11.471875 Z M3.84999996,12.975 C4.25937496,12.975 4.37812496,12.88125 4.37812496,12.55625 C4.37812496,12.271875 4.24374996,12.19375 3.76562496,12.19375 C3.35624996,12.19375 3.20624996,12.2875 3.20624996,12.571875 C3.20312496,12.896875 3.32187496,12.975 3.84999996,12.975 Z M6.28124997,10.009375 L7.47812498,10.009375 L7.43124998,10.653125 L7.45624998,10.653125 C7.74062498,10.11875 7.95312498,9.99999999 8.62812498,9.99999999 C9.07812499,9.99999999 9.39999999,10.09375 9.61249999,10.284375 C9.91874999,10.553125 10.0125,10.921875 10.0125,11.7875 C10.0125,12.725 9.91874999,13.134375 9.63437499,13.440625 C9.42187499,13.66875 9.12187499,13.75625 8.59687498,13.75625 C7.95937498,13.75625 7.68437498,13.584375 7.54062498,13.09375 L7.51562498,13.09375 L7.51562498,15.290625 L6.28124997,15.290625 L6.28124997,10.009375 Z M8.80937498,11.90625 C8.80937498,11.046875 8.70624998,10.890625 8.16249998,10.890625 C7.63437498,10.890625 7.51562498,11.046875 7.51562498,11.7875 C7.51562498,12.6625 7.62499998,12.834375 8.17812498,12.834375 C8.69062498,12.834375 8.80937498,12.659375 8.80937498,11.90625 Z M10.61875,10.009375 L11.815625,10.009375 L11.76875,10.653125 L11.79375,10.653125 C12.078125,10.11875 12.290625,9.99999999 12.965625,9.99999999 C13.415625,9.99999999 13.7375,10.09375 13.95,10.284375 C14.25625,10.553125 14.35,10.921875 14.35,11.7875 C14.35,12.725 14.25625,13.134375 13.971875,13.440625 C13.759375,13.66875 13.459375,13.75625 12.93125,13.75625 C12.29375,13.75625 12.01875,13.584375 11.875,13.09375 L11.85,13.09375 L11.85,15.290625 L10.615625,15.290625 L10.615625,10.009375 L10.61875,10.009375 Z M13.146875,11.90625 C13.146875,11.046875 13.04375,10.890625 12.5,10.890625 C11.971875,10.890625 11.853125,11.046875 11.853125,11.7875 C11.853125,12.6625 11.9625,12.834375 12.515625,12.834375 C13.028125,12.834375 13.146875,12.659375 13.146875,11.90625 Z M14.828125,11.7875 C14.828125,10.99375 14.93125,10.60625 15.2125,10.35625 C15.4875,10.103125 15.90625,10.003125 16.621875,10.003125 C17.959375,10.003125 18.3625,10.403125 18.3625,11.74375 L18.3625,12.090625 L16.009375,12.090625 C16,12.153125 16,12.215625 16,12.240625 C16,12.76875 16.140625,12.925 16.628125,12.925 C17.0625,12.925 17.1875,12.83125 17.1875,12.490625 L18.359375,12.490625 L18.359375,12.5625 C18.359375,12.86875 18.28125,13.153125 18.146875,13.334375 C17.91875,13.640625 17.534375,13.759375 16.7625,13.759375 C15.903125,13.759375 15.4625,13.65625 15.18125,13.375 C14.915625,13.109375 14.828125,12.709375 14.828125,11.7875 Z M17.215625,11.425 C17.20625,11.36875 17.20625,11.321875 17.20625,11.30625 C17.20625,10.921875 17.103125,10.85 16.59375,10.85 C16.14375,10.85 16.059375,10.94375 16.028125,11.321875 L16.01875,11.425 L17.215625,11.425 Z M18.953125,10.009375 L20.15,10.009375 L20.09375,10.63125 L20.115625,10.63125 C20.328125,10.165625 20.565625,9.99999999 21.04375,9.99999999 C21.38125,9.99999999 21.640625,10.103125 21.775,10.290625 C21.940625,10.51875 21.9875,10.740625 21.9875,11.353125 C21.9875,11.4 21.9875,11.509375 21.99375,11.64375 L20.9,11.64375 C20.909375,11.5875 20.909375,11.540625 20.909375,11.51875 C20.909375,11.0375 20.846875,10.9125 20.5875,10.9125 C20.390625,10.9125 20.25,11.015625 20.178125,11.203125 C20.146875,11.296875 20.146875,11.3375 20.146875,11.5875 L20.146875,13.7125 L18.95,13.7125 L18.95,10.009375 L18.953125,10.009375 Z" id="path-1"></path>
    </defs>
    <g id="apper" stroke="none" stroke-width="1" fill="none" fill-rule="evenodd">
        <mask id="mask-2" fill="white">
            <use xlink:href="#path-1"></use>
        </mask>
        <g fill-rule="nonzero"></g>
        <g id="🎨-color" mask="url(#mask-2)" fill="#000000">
            <rect id="🎨-Color" x="0" y="0" width="24" height="24"></rect>
        </g>
    </g>
</svg>