<?xml version="1.0" encoding="UTF-8"?>
<svg width="24px" height="24px" viewBox="0 0 24 24" version="1.1" xmlns="http://www.w3.org/2000/svg" xmlns:xlink="http://www.w3.org/1999/xlink">
    <!-- Generator: Sketch 52.5 (67469) - http://www.bohemiancoding.com/sketch -->
    <title>apple-alt</title>
    <desc>Created with Sketch.</desc>
    <defs>
        <path d="M16.9550781,7.03906248 C17.9695313,7.22148435 18.8015625,7.76835935 19.4519532,8.67968748 C20.0242188,9.48710936 20.4144532,10.5027344 20.6222657,11.7265625 C20.8046875,12.8464844 20.7910157,13.9660156 20.5832032,15.0859375 C20.2710938,16.9347656 19.646875,18.484375 18.7105469,19.734375 C17.5917969,21.2449219 16.1875,22.0000001 14.496875,22.0000001 C14.0804688,22.0000001 13.6257813,21.8699219 13.13125,21.609375 C12.7929688,21.4011719 12.4160156,21.296875 11.9996094,21.296875 C11.5832031,21.296875 11.2066406,21.4011719 10.8679687,21.609375 C10.3734375,21.8699219 9.91874999,22.0000001 9.50234374,22.0000001 C7.81171873,22.0000001 6.40742185,21.2449219 5.28867184,19.734375 C4.35234371,18.484375 3.72812496,16.9347656 3.41601558,15.0859375 C3.20820308,13.9660156 3.19453121,12.8464844 3.37695308,11.7265625 C3.58476558,10.5027344 3.97499996,9.48710936 4.54726559,8.67968748 C5.19765622,7.76835935 6.02968747,7.22148435 7.0441406,7.03906248 C7.66835935,6.9347656 8.52656248,7.02617185 9.61914061,7.31249998 C10.5554687,7.57304685 11.3488281,7.88554685 11.9992187,8.24999998 C12.6496094,7.88554685 13.4429688,7.57304685 14.3792969,7.31249998 C15.4722656,7.02617185 16.3308594,6.9347656 16.9550781,7.03906248 Z M14.8089844,5.43749997 C14.4449219,5.77617184 13.9632813,6.02343747 13.3652344,6.17968747 C12.9488281,6.3097656 12.4941406,6.37499997 11.9996094,6.37499997 L11.4144531,6.33593747 C11.3625,5.97148434 11.3625,5.55468747 11.4144531,5.08593747 C11.51875,4.14843746 11.8175781,3.43242183 12.3117188,2.93749995 C12.6757813,2.59882808 13.1574219,2.35156245 13.7554688,2.19531245 C14.171875,2.06523433 14.6265625,1.99999995 15.1210938,1.99999995 L15.70625,2.03906245 L15.7453125,2.62499995 C15.7453125,3.11992183 15.6800781,3.57539058 15.5503906,3.99218746 C15.3945313,4.59101559 15.1476563,5.07304684 14.8089844,5.43749997 Z" id="path-1"></path>
    </defs>
    <g id="apple-alt" stroke="none" stroke-width="1" fill="none" fill-rule="evenodd">
        <mask id="mask-2" fill="white">
            <use xlink:href="#path-1"></use>
        </mask>
        <g fill-rule="nonzero"></g>
        <g id="🎨-color" mask="url(#mask-2)" fill="#000000">
            <rect id="🎨-Color" x="0" y="0" width="24" height="24"></rect>
        </g>
    </g>
</svg>