<?xml version="1.0" encoding="UTF-8"?>
<svg width="24px" height="24px" viewBox="0 0 24 24" version="1.1" xmlns="http://www.w3.org/2000/svg" xmlns:xlink="http://www.w3.org/1999/xlink">
    <!-- Generator: Sketch 52.5 (67469) - http://www.bohemiancoding.com/sketch -->
    <title>apple-pay</title>
    <desc>Created with Sketch.</desc>
    <defs>
        <path d="M5.67862711,8.9578783 C5.44461775,9.23556941 5.07020277,9.45397815 4.69578779,9.4227769 C4.64898592,9.04836192 4.83307329,8.64898594 5.0483619,8.40561621 C5.28237126,8.12168485 5.69110761,7.91887673 6.02496097,7.90327611 C6.06240247,8.29017159 5.90951635,8.67394694 5.67862711,8.9578783 Z M6.01872072,9.49453977 C5.475819,9.46333852 5.0109204,9.80343213 4.75507017,9.80343213 C4.49297968,9.80343213 4.09984395,9.51014039 3.66926673,9.51950077 C3.11076439,9.52886114 2.59282367,9.84399375 2.30889231,10.3463338 C1.72230884,11.3541342 2.15600619,12.8424337 2.72386891,13.6630265 C3.00156002,14.0686428 3.33229325,14.5148206 3.76911072,14.49922 C4.18408732,14.4836194 4.34633382,14.2308892 4.84555379,14.2308892 C5.34789388,14.2308892 5.49453975,14.49922 5.93135722,14.4929797 C6.38377532,14.4836194 6.66770668,14.0873635 6.94539779,13.6817473 C7.2605304,13.2199688 7.39157564,12.773791 7.39781589,12.74883 C7.38845552,12.7394696 6.52418094,12.4087364 6.51482057,11.4102964 C6.50546019,10.574103 7.1981279,10.1778471 7.22932915,10.1528861 C6.83931355,9.57254289 6.23088921,9.51014039 6.01872072,9.49453977 Z M9.15132604,8.36505458 L9.15132604,14.4461779 L10.0967239,14.4461779 L10.0967239,12.3681747 L11.4040562,12.3681747 C12.599064,12.3681747 13.4352574,11.5475819 13.4352574,10.3619345 C13.4352574,9.17628704 12.6115445,8.36505458 11.4352574,8.36505458 L9.15132604,8.36505458 Z M10.0967239,9.16068641 L11.1856474,9.16068641 C12.0062402,9.16068641 12.474259,9.59750389 12.474259,10.3650546 C12.474259,11.1326053 12.0062402,11.575663 11.1825273,11.575663 L10.0967239,11.575663 L10.0967239,9.16068641 Z M15.1575663,14.4929797 C15.75039,14.4929797 16.299532,14.1934477 16.549142,13.7160687 L16.5678627,13.7160687 L16.5678627,14.4461779 L17.4414977,14.4461779 L17.4414977,11.4196568 C17.4414977,10.5429017 16.7394696,9.97503899 15.6599064,9.97503899 C14.6583463,9.97503899 13.9157566,10.549142 13.8876755,11.3354134 L14.7394696,11.3354134 C14.8112325,10.9609984 15.1575663,10.7145086 15.6318253,10.7145086 C16.2090484,10.7145086 16.5335414,10.9828393 16.5335414,11.4789392 L16.5335414,11.8159126 L15.3541342,11.8876755 C14.2589704,11.9531981 13.6661467,12.4024961 13.6661467,13.1825273 C13.6692668,13.9687988 14.2808112,14.4929797 15.1575663,14.4929797 Z M15.4134166,13.7722309 C14.9110765,13.7722309 14.5897036,13.5288612 14.5897036,13.1606864 C14.5897036,12.7769111 14.898596,12.5553822 15.4882995,12.5210608 L16.5366615,12.4555382 L16.5366615,12.798752 C16.5366615,13.3666147 16.0530421,13.7722309 15.4134166,13.7722309 Z M18.6115445,16.099844 C19.5319813,16.099844 19.9656787,15.7472699 20.3432138,14.6833073 L22,10.0343214 L21.0390016,10.0343214 L19.9282372,13.625585 L19.9095164,13.625585 L18.798752,10.0343214 L17.8127925,10.0343214 L19.4102964,14.4617785 L19.322933,14.7301092 C19.1794072,15.1856474 18.9453979,15.3634946 18.5273011,15.3634946 C18.4524181,15.3634946 18.3088924,15.3541342 18.24961,15.3478939 L18.24961,16.0780031 C18.3057723,16.0904836 18.5397816,16.099844 18.6115445,16.099844 Z" id="path-1"></path>
    </defs>
    <g id="apple-pay" stroke="none" stroke-width="1" fill="none" fill-rule="evenodd">
        <mask id="mask-2" fill="white">
            <use xlink:href="#path-1"></use>
        </mask>
        <g fill-rule="nonzero"></g>
        <g id="🎨-color" mask="url(#mask-2)" fill="#000000">
            <rect id="🎨-Color" x="0" y="0" width="24" height="24"></rect>
        </g>
    </g>
</svg>