<?xml version="1.0" encoding="UTF-8"?>
<svg width="24px" height="24px" viewBox="0 0 24 24" version="1.1" xmlns="http://www.w3.org/2000/svg" xmlns:xlink="http://www.w3.org/1999/xlink">
    <!-- Generator: Sketch 52.5 (67469) - http://www.bohemiancoding.com/sketch -->
    <title>apple</title>
    <desc>Created with Sketch.</desc>
    <defs>
        <path d="M16.9296875,12.4960938 C16.921875,11.0625 17.5703125,9.98046874 18.8828125,9.18359374 C18.1484375,8.13281248 17.0390625,7.55468748 15.5742188,7.44140623 C14.1875,7.33203123 12.671875,8.24999998 12.1171875,8.24999998 C11.53125,8.24999998 10.1875,7.48046873 9.13281249,7.48046873 C6.95312497,7.51562498 4.63671871,9.21874999 4.63671871,12.6835938 C4.63671871,13.7070313 4.82421871,14.765625 5.19921872,15.8554688 C5.69921872,17.2890625 7.50390623,20.8046875 9.38671874,20.7460938 C10.3710937,20.7226563 11.0664062,20.046875 12.3476563,20.046875 C13.5898438,20.046875 14.234375,20.7460938 15.3320313,20.7460938 C17.2304688,20.71875 18.8632813,17.5234375 19.3398438,16.0859375 C16.7929688,14.8867188 16.9296875,12.5703125 16.9296875,12.4960938 Z M14.71875,6.08203122 C15.7851563,4.81640621 15.6875,3.66406246 15.65625,3.24999996 C14.7148438,3.30468746 13.625,3.89062496 13.0039063,4.61328121 C12.3203125,5.38671872 11.9179687,6.34374997 12.0039063,7.42187498 C13.0234375,7.49999998 13.953125,6.97656247 14.71875,6.08203122 Z" id="path-1"></path>
    </defs>
    <g id="apple" stroke="none" stroke-width="1" fill="none" fill-rule="evenodd">
        <mask id="mask-2" fill="white">
            <use xlink:href="#path-1"></use>
        </mask>
        <g fill-rule="nonzero"></g>
        <g id="🎨-color" mask="url(#mask-2)" fill="#000000">
            <rect id="🎨-Color" x="0" y="0" width="24" height="24"></rect>
        </g>
    </g>
</svg>