<?xml version="1.0" encoding="UTF-8"?>
<svg width="24px" height="24px" viewBox="0 0 24 24" version="1.1" xmlns="http://www.w3.org/2000/svg" xmlns:xlink="http://www.w3.org/1999/xlink">
    <!-- Generator: Sketch 52.5 (67469) - http://www.bohemiancoding.com/sketch -->
    <title>archive</title>
    <desc>Created with Sketch.</desc>
    <defs>
        <path d="M3.24999996,19.5 C3.24999996,20.1914063 3.80859371,20.75 4.49999996,20.75 L19.5,20.75 C20.1914063,20.75 20.75,20.1914063 20.75,19.5 L20.75,8.24999998 L3.24999996,8.24999998 L3.24999996,19.5 Z M9.49999999,11.21875 C9.49999999,10.9609375 9.71093749,10.75 9.96874999,10.75 L14.03125,10.75 C14.2890625,10.75 14.5,10.9609375 14.5,11.21875 L14.5,11.53125 C14.5,11.7890625 14.2890625,12 14.03125,12 L9.96874999,12 C9.71093749,12 9.49999999,11.7890625 9.49999999,11.53125 L9.49999999,11.21875 Z M20.75,3.24999996 L3.24999996,3.24999996 C2.5585937,3.24999996 1.99999995,3.80859371 1.99999995,4.49999996 L1.99999995,6.37499997 C1.99999995,6.71874997 2.28124995,6.99999997 2.62499995,6.99999997 L21.375,6.99999997 C21.71875,6.99999997 22.0000001,6.71874997 22.0000001,6.37499997 L22.0000001,4.49999996 C22.0000001,3.80859371 21.4414063,3.24999996 20.75,3.24999996 Z" id="path-1"></path>
    </defs>
    <g id="archive" stroke="none" stroke-width="1" fill="none" fill-rule="evenodd">
        <mask id="mask-2" fill="white">
            <use xlink:href="#path-1"></use>
        </mask>
        <g fill-rule="nonzero"></g>
        <g id="🎨-color" mask="url(#mask-2)" fill="#000000">
            <rect id="🎨-Color" x="0" y="0" width="24" height="24"></rect>
        </g>
    </g>
</svg>