<?xml version="1.0" encoding="UTF-8"?>
<svg width="24px" height="24px" viewBox="0 0 24 24" version="1.1" xmlns="http://www.w3.org/2000/svg" xmlns:xlink="http://www.w3.org/1999/xlink">
    <!-- Generator: Sketch 52.5 (67469) - http://www.bohemiancoding.com/sketch -->
    <title>archway</title>
    <desc>Created with Sketch.</desc>
    <defs>
        <path d="M21.4444445,18.6666667 L20.8888889,18.6666667 L20.8888889,6.44444442 L3.11111107,6.44444442 L3.11111107,18.6666667 L2.55624995,18.6666667 C2.24930551,18.6666667 2.00069439,18.9152778 2.00069439,19.2222223 L2.00069439,20.3333334 C2.00069439,20.6402778 2.24930551,20.8888889 2.55624995,20.8888889 L8.11111109,20.8888889 C8.41805554,20.8888889 8.66666665,20.6402778 8.66666665,20.3333334 L8.66666665,14.2222222 C8.66666665,12.38125 10.1590278,10.8888889 12,10.8888889 C13.8409722,10.8888889 15.3333334,12.38125 15.3333334,14.2222222 L15.3340278,19.7777778 L15.3340278,20.3333334 C15.3340278,20.6402778 15.5826389,20.8888889 15.8895834,20.8888889 L21.4444445,20.8888889 C21.7513889,20.8888889 22.0000001,20.6402778 22.0000001,20.3333334 L22.0000001,19.2222223 C22.0000001,18.9152778 21.7513889,18.6666667 21.4444445,18.6666667 Z M21.4444445,3.11111107 L2.55555551,3.11111107 C2.24861106,3.11111107 1.99999995,3.35972218 1.99999995,3.66666662 L1.99999995,4.77777774 C1.99999995,5.08472219 2.24861106,5.3333333 2.55555551,5.3333333 L21.4444445,5.3333333 C21.7513889,5.3333333 22.0000001,5.08472219 22.0000001,4.77777774 L22.0000001,3.66666662 C22.0000001,3.35972218 21.7513889,3.11111107 21.4444445,3.11111107 Z" id="path-1"></path>
    </defs>
    <g id="archway" stroke="none" stroke-width="1" fill="none" fill-rule="evenodd">
        <mask id="mask-2" fill="white">
            <use xlink:href="#path-1"></use>
        </mask>
        <g fill-rule="nonzero"></g>
        <g id="🎨-color" mask="url(#mask-2)" fill="#000000">
            <rect id="🎨-Color" x="0" y="0" width="24" height="24"></rect>
        </g>
    </g>
</svg>