<?xml version="1.0" encoding="UTF-8"?>
<svg width="24px" height="24px" viewBox="0 0 24 24" version="1.1" xmlns="http://www.w3.org/2000/svg" xmlns:xlink="http://www.w3.org/1999/xlink">
    <!-- Generator: Sketch 52.5 (67469) - http://www.bohemiancoding.com/sketch -->
    <title>arrow-circle-down</title>
    <desc>Created with Sketch.</desc>
    <defs>
        <path d="M21.6875,12 C21.6875,17.3515625 17.3515625,21.6875 12,21.6875 C6.64843747,21.6875 2.31249995,17.3515625 2.31249995,12 C2.31249995,6.64843747 6.64843747,2.31249995 12,2.31249995 C17.3515625,2.31249995 21.6875,6.64843747 21.6875,12 Z M16.078125,10.8710937 L13.25,13.8203125 L13.25,6.68749997 C13.25,6.16796872 12.8320313,5.74999997 12.3125,5.74999997 L11.6875,5.74999997 C11.1679687,5.74999997 10.75,6.16796872 10.75,6.68749997 L10.75,13.8203125 L7.92187498,10.8710937 C7.55859373,10.4921875 6.95312497,10.484375 6.58203122,10.8554687 L6.15624997,11.2851562 C5.78906247,11.6523437 5.78906247,12.2460938 6.15624997,12.609375 L11.3359375,17.7929688 C11.703125,18.1601563 12.296875,18.1601563 12.6601563,17.7929688 L17.84375,12.609375 C18.2109375,12.2421875 18.2109375,11.6484375 17.84375,11.2851562 L17.4179688,10.8554687 C17.046875,10.484375 16.4414063,10.4921875 16.078125,10.8710937 Z" id="path-1"></path>
    </defs>
    <g id="arrow-circle-down" stroke="none" stroke-width="1" fill="none" fill-rule="evenodd">
        <mask id="mask-2" fill="white">
            <use xlink:href="#path-1"></use>
        </mask>
        <g fill-rule="nonzero"></g>
        <g id="🎨-color" mask="url(#mask-2)" fill="#000000">
            <rect id="🎨-Color" x="0" y="0" width="24" height="24"></rect>
        </g>
    </g>
</svg>