<?xml version="1.0" encoding="UTF-8"?>
<svg width="24px" height="24px" viewBox="0 0 24 24" version="1.1" xmlns="http://www.w3.org/2000/svg" xmlns:xlink="http://www.w3.org/1999/xlink">
    <!-- Generator: Sketch 52.5 (67469) - http://www.bohemiancoding.com/sketch -->
    <title>arrow-circle-left</title>
    <desc>Created with Sketch.</desc>
    <defs>
        <path d="M12,21.6875 C6.64843747,21.6875 2.31249995,17.3515625 2.31249995,12 C2.31249995,6.64843747 6.64843747,2.31249995 12,2.31249995 C17.3515625,2.31249995 21.6875,6.64843747 21.6875,12 C21.6875,17.3515625 17.3515625,21.6875 12,21.6875 Z M13.1289063,16.078125 L10.1796875,13.25 L17.3125,13.25 C17.8320313,13.25 18.25,12.8320313 18.25,12.3125 L18.25,11.6875 C18.25,11.1679687 17.8320313,10.75 17.3125,10.75 L10.1796875,10.75 L13.1289063,7.92187498 C13.5078125,7.55859373 13.515625,6.95312497 13.1445313,6.58203122 L12.7148438,6.15624997 C12.3476563,5.78906247 11.7539062,5.78906247 11.390625,6.15624997 L6.20703122,11.3359375 C5.83984372,11.703125 5.83984372,12.296875 6.20703122,12.6601563 L11.390625,17.84375 C11.7578125,18.2109375 12.3515625,18.2109375 12.7148438,17.84375 L13.1445313,17.4179688 C13.515625,17.046875 13.5078125,16.4414063 13.1289063,16.078125 Z" id="path-1"></path>
    </defs>
    <g id="arrow-circle-left" stroke="none" stroke-width="1" fill="none" fill-rule="evenodd">
        <mask id="mask-2" fill="white">
            <use xlink:href="#path-1"></use>
        </mask>
        <g fill-rule="nonzero"></g>
        <g id="🎨-color" mask="url(#mask-2)" fill="#000000">
            <rect id="🎨-Color" x="0" y="0" width="24" height="24"></rect>
        </g>
    </g>
</svg>