<?xml version="1.0" encoding="UTF-8"?>
<svg width="24px" height="24px" viewBox="0 0 24 24" version="1.1" xmlns="http://www.w3.org/2000/svg" xmlns:xlink="http://www.w3.org/1999/xlink">
    <!-- Generator: Sketch 52.5 (67469) - http://www.bohemiancoding.com/sketch -->
    <title>arrow-circle-right</title>
    <desc>Created with Sketch.</desc>
    <defs>
        <path d="M12,2.31249995 C17.3515625,2.31249995 21.6875,6.64843747 21.6875,12 C21.6875,17.3515625 17.3515625,21.6875 12,21.6875 C6.64843747,21.6875 2.31249995,17.3515625 2.31249995,12 C2.31249995,6.64843747 6.64843747,2.31249995 12,2.31249995 Z M10.8710937,7.92187498 L13.8203125,10.75 L6.68749997,10.75 C6.16796872,10.75 5.74999997,11.1679687 5.74999997,11.6875 L5.74999997,12.3125 C5.74999997,12.8320313 6.16796872,13.25 6.68749997,13.25 L13.8203125,13.25 L10.8710937,16.078125 C10.4921875,16.4414063 10.484375,17.046875 10.8554687,17.4179688 L11.2851562,17.84375 C11.6523437,18.2109375 12.2460938,18.2109375 12.609375,17.84375 L17.7929688,12.6640625 C18.1601563,12.296875 18.1601563,11.703125 17.7929688,11.3398437 L12.609375,6.15234372 C12.2421875,5.78515622 11.6484375,5.78515622 11.2851562,6.15234372 L10.8554687,6.57812497 C10.484375,6.95312497 10.4921875,7.55859373 10.8710937,7.92187498 Z" id="path-1"></path>
    </defs>
    <g id="arrow-circle-right" stroke="none" stroke-width="1" fill="none" fill-rule="evenodd">
        <mask id="mask-2" fill="white">
            <use xlink:href="#path-1"></use>
        </mask>
        <g fill-rule="nonzero"></g>
        <g id="🎨-color" mask="url(#mask-2)" fill="#000000">
            <rect id="🎨-Color" x="0" y="0" width="24" height="24"></rect>
        </g>
    </g>
</svg>