<?xml version="1.0" encoding="UTF-8"?>
<svg width="24px" height="24px" viewBox="0 0 24 24" version="1.1" xmlns="http://www.w3.org/2000/svg" xmlns:xlink="http://www.w3.org/1999/xlink">
    <!-- Generator: Sketch 52.5 (67469) - http://www.bohemiancoding.com/sketch -->
    <title>arrow-alt-circle-right</title>
    <desc>Created with Sketch.</desc>
    <defs>
        <path d="M21.6875,12 C21.6875,6.64843747 17.3515625,2.31249995 12,2.31249995 C6.64843747,2.31249995 2.31249995,6.64843747 2.31249995,12 C2.31249995,17.3515625 6.64843747,21.6875 12,21.6875 C17.3515625,21.6875 21.6875,17.3515625 21.6875,12 Z M4.18749996,12 C4.18749996,7.68359373 7.68359373,4.18749996 12,4.18749996 C16.3164063,4.18749996 19.8125,7.68359373 19.8125,12 C19.8125,16.3164063 16.3164063,19.8125 12,19.8125 C7.68359373,19.8125 4.18749996,16.3164063 4.18749996,12 Z M6.99999997,12.78125 L6.99999997,11.21875 C6.99999997,10.9609375 7.21093748,10.75 7.46874998,10.75 L12,10.75 L12,8.13281248 C12,7.71484373 12.5039063,7.50781248 12.8007813,7.80078123 L16.6679688,11.6679687 C16.8515625,11.8515625 16.8515625,12.1484375 16.6679688,12.3320313 L12.8007813,16.1992188 C12.5039063,16.4960938 12,16.2851563 12,15.8671875 L12,13.25 L7.46874998,13.25 C7.21093748,13.25 6.99999997,13.0390625 6.99999997,12.78125 Z" id="path-1"></path>
    </defs>
    <g id="arrow-alt-circle-right" stroke="none" stroke-width="1" fill="none" fill-rule="evenodd">
        <mask id="mask-2" fill="white">
            <use xlink:href="#path-1"></use>
        </mask>
        <g fill-rule="nonzero"></g>
        <g id="🎨-color" mask="url(#mask-2)" fill="#000000">
            <rect id="🎨-Color" x="0" y="0" width="24" height="24"></rect>
        </g>
    </g>
</svg>