<?xml version="1.0" encoding="UTF-8"?>
<svg width="24px" height="24px" viewBox="0 0 24 24" version="1.1" xmlns="http://www.w3.org/2000/svg" xmlns:xlink="http://www.w3.org/1999/xlink">
    <!-- Generator: Sketch 52.5 (67469) - http://www.bohemiancoding.com/sketch -->
    <title>arrows-alt</title>
    <desc>Created with Sketch.</desc>
    <defs>
        <path d="M15.7626848,18.6060312 L12.6811284,21.6875876 C12.3164202,22.0522958 11.7251751,22.0522958 11.3604669,21.6875876 L8.27891049,18.6060312 C7.69062255,18.0177432 8.10727625,17.0118288 8.93926069,17.0118677 L10.93,17.0118677 L10.9299611,13.0894942 L7.00762643,13.0894942 L7.00762643,15.0802335 C7.00762643,15.9122179 6.00175094,16.3288716 5.41342409,15.7405837 L2.33186766,12.6590272 C1.96715948,12.2943191 1.96715948,11.703035 2.33186766,11.3383658 L5.41342409,8.25680932 C6.00171203,7.66852138 7.00762643,8.08517508 7.00762643,8.91715952 L7.00762643,10.9105058 L10.9299611,10.9105058 L10.9299611,6.98817118 L8.93657586,6.98817118 C8.10459142,6.98817118 7.68793772,5.98229569 8.27622566,5.39396884 L11.3577821,2.3124124 C11.7224903,1.94770423 12.3137354,1.94770423 12.6784436,2.3124124 L15.76,5.39396884 C16.348288,5.98225678 15.9316343,6.98817118 15.0996498,6.98817118 L13.1089105,6.98817118 L13.1089105,10.9105058 L17.0312452,10.9105058 L17.0312452,8.91976652 C17.0312452,8.08778208 18.0371207,7.67112838 18.6254086,8.25941632 L21.706965,11.3409728 C22.0716732,11.7056809 22.0716732,12.296965 21.706965,12.6616342 L18.6254086,15.7431907 C18.0371207,16.3314786 17.0312063,15.9148249 17.0312452,15.0828405 L17.0312452,13.0894942 L13.1089494,13.0894942 L13.1089494,17.0118288 L15.1023346,17.0118288 C15.9343191,17.0118288 16.3509728,18.0177043 15.7626848,18.6060312 Z" id="path-1"></path>
    </defs>
    <g id="arrows-alt" stroke="none" stroke-width="1" fill="none" fill-rule="evenodd">
        <mask id="mask-2" fill="white">
            <use xlink:href="#path-1"></use>
        </mask>
        <g></g>
        <g id="🎨-color" mask="url(#mask-2)" fill="#000000">
            <rect id="🎨-Color" x="0" y="0" width="24" height="24"></rect>
        </g>
    </g>
</svg>