<?xml version="1.0" encoding="UTF-8"?>
<svg width="24px" height="24px" viewBox="0 0 24 24" version="1.1" xmlns="http://www.w3.org/2000/svg" xmlns:xlink="http://www.w3.org/1999/xlink">
    <!-- Generator: Sketch 52.5 (67469) - http://www.bohemiancoding.com/sketch -->
    <title>arrow-circle-up</title>
    <desc>Created with Sketch.</desc>
    <defs>
        <path d="M2.31249995,12 C2.31249995,6.64843747 6.64843747,2.31249995 12,2.31249995 C17.3515625,2.31249995 21.6875,6.64843747 21.6875,12 C21.6875,17.3515625 17.3515625,21.6875 12,21.6875 C6.64843747,21.6875 2.31249995,17.3515625 2.31249995,12 Z M7.92187498,13.1289063 L10.75,10.1796875 L10.75,17.3125 C10.75,17.8320313 11.1679687,18.25 11.6875,18.25 L12.3125,18.25 C12.8320313,18.25 13.25,17.8320313 13.25,17.3125 L13.25,10.1796875 L16.078125,13.1289063 C16.4414063,13.5078125 17.046875,13.515625 17.4179688,13.1445313 L17.84375,12.7148438 C18.2109375,12.3476563 18.2109375,11.7539062 17.84375,11.390625 L12.6640625,6.20703122 C12.296875,5.83984372 11.703125,5.83984372 11.3398437,6.20703122 L6.15234372,11.390625 C5.78515622,11.7578125 5.78515622,12.3515625 6.15234372,12.7148438 L6.57812497,13.1445313 C6.95312497,13.515625 7.55859373,13.5078125 7.92187498,13.1289063 Z" id="path-1"></path>
    </defs>
    <g id="arrow-circle-up" stroke="none" stroke-width="1" fill="none" fill-rule="evenodd">
        <mask id="mask-2" fill="white">
            <use xlink:href="#path-1"></use>
        </mask>
        <g fill-rule="nonzero"></g>
        <g id="🎨-color" mask="url(#mask-2)" fill="#000000">
            <rect id="🎨-Color" x="0" y="0" width="24" height="24"></rect>
        </g>
    </g>
</svg>