<?xml version="1.0" encoding="UTF-8"?>
<svg width="24px" height="24px" viewBox="0 0 24 24" version="1.1" xmlns="http://www.w3.org/2000/svg" xmlns:xlink="http://www.w3.org/1999/xlink">
    <!-- Generator: Sketch 52.5 (67469) - http://www.bohemiancoding.com/sketch -->
    <title>arrow-alt-circle-left</title>
    <desc>Created with Sketch.</desc>
    <defs>
        <path d="M2.31249995,12 C2.31249995,17.3515625 6.64843747,21.6875 12,21.6875 C17.3515625,21.6875 21.6875,17.3515625 21.6875,12 C21.6875,6.64843747 17.3515625,2.31249995 12,2.31249995 C6.64843747,2.31249995 2.31249995,6.64843747 2.31249995,12 Z M19.8125,12 C19.8125,16.3164063 16.3164063,19.8125 12,19.8125 C7.68359373,19.8125 4.18749996,16.3164063 4.18749996,12 C4.18749996,7.68359373 7.68359373,4.18749996 12,4.18749996 C16.3164063,4.18749996 19.8125,7.68359373 19.8125,12 Z M17,11.21875 L17,12.78125 C17,13.0390625 16.7890625,13.25 16.53125,13.25 L12,13.25 L12,15.8671875 C12,16.2851563 11.4960937,16.4921875 11.1992187,16.1992188 L7.33203123,12.3320313 C7.14843748,12.1484375 7.14843748,11.8515625 7.33203123,11.6679687 L11.1992187,7.80078123 C11.4960937,7.50390623 12,7.71484373 12,8.13281248 L12,10.75 L16.53125,10.75 C16.7890625,10.75 17,10.9609375 17,11.21875 Z" id="path-1"></path>
    </defs>
    <g id="arrow-alt-circle-left" stroke="none" stroke-width="1" fill="none" fill-rule="evenodd">
        <mask id="mask-2" fill="white">
            <use xlink:href="#path-1"></use>
        </mask>
        <g fill-rule="nonzero"></g>
        <g id="🎨-color" mask="url(#mask-2)" fill="#000000">
            <rect id="🎨-Color" x="0" y="0" width="24" height="24"></rect>
        </g>
    </g>
</svg>