<?xml version="1.0" encoding="UTF-8"?>
<svg width="24px" height="24px" viewBox="0 0 24 24" version="1.1" xmlns="http://www.w3.org/2000/svg" xmlns:xlink="http://www.w3.org/1999/xlink">
    <!-- Generator: Sketch 52.5 (67469) - http://www.bohemiancoding.com/sketch -->
    <title>arrow-alt-circle-down</title>
    <desc>Created with Sketch.</desc>
    <defs>
        <path d="M12,2.31249995 C6.64843747,2.31249995 2.31249995,6.64843747 2.31249995,12 C2.31249995,17.3515625 6.64843747,21.6875 12,21.6875 C17.3515625,21.6875 21.6875,17.3515625 21.6875,12 C21.6875,6.64843747 17.3515625,2.31249995 12,2.31249995 Z M12,19.8125 C7.68359373,19.8125 4.18749996,16.3164063 4.18749996,12 C4.18749996,7.68359373 7.68359373,4.18749996 12,4.18749996 C16.3164063,4.18749996 19.8125,7.68359373 19.8125,12 C19.8125,16.3164063 16.3164063,19.8125 12,19.8125 Z M10.75,7.46874998 L10.75,12 L8.13281248,12 C7.71484373,12 7.50781248,12.5039063 7.80078123,12.8007813 L11.6679687,16.6679688 C11.8515625,16.8515625 12.1484375,16.8515625 12.3320313,16.6679688 L16.1992188,12.8007813 C16.4960938,12.5039063 16.2851563,12 15.8671875,12 L13.25,12 L13.25,7.46874998 C13.25,7.21093748 13.0390625,6.99999997 12.78125,6.99999997 L11.21875,6.99999997 C10.9609375,6.99999997 10.75,7.21093748 10.75,7.46874998 Z" id="path-1"></path>
    </defs>
    <g id="arrow-alt-circle-down" stroke="none" stroke-width="1" fill="none" fill-rule="evenodd">
        <mask id="mask-2" fill="white">
            <use xlink:href="#path-1"></use>
        </mask>
        <g fill-rule="nonzero"></g>
        <g id="🎨-color" mask="url(#mask-2)" fill="#000000">
            <rect id="🎨-Color" x="0" y="0" width="24" height="24"></rect>
        </g>
    </g>
</svg>