<?xml version="1.0" encoding="UTF-8"?>
<svg width="24px" height="24px" viewBox="0 0 24 24" version="1.1" xmlns="http://www.w3.org/2000/svg" xmlns:xlink="http://www.w3.org/1999/xlink">
    <!-- Generator: Sketch 52.5 (67469) - http://www.bohemiancoding.com/sketch -->
    <title>assistive-listening-systems</title>
    <desc>Created with Sketch.</desc>
    <defs>
        <path d="M10.4375,12.15625 C10.4375,12.7603125 9.94781249,13.25 9.34374999,13.25 C8.73968748,13.25 8.24999998,12.7603125 8.24999998,12.15625 C8.24999998,10.433125 9.65187499,9.03124999 11.375,9.03124999 C13.098125,9.03124999 14.5,10.433125 14.5,12.15625 C14.5,12.7603125 14.0103125,13.25 13.40625,13.25 C12.8021875,13.25 12.3125,12.7603125 12.3125,12.15625 C12.3125,11.6392969 11.8919141,11.21875 11.375,11.21875 C10.8580859,11.21875 10.4375,11.6392969 10.4375,12.15625 Z M11.375,5.28124997 C7.58410154,5.28124997 4.49999996,8.36535154 4.49999996,12.15625 C4.49999996,12.7603125 4.98968746,13.25 5.59374997,13.25 C6.19781247,13.25 6.68749997,12.7603125 6.68749997,12.15625 C6.68749997,9.57156249 8.79031248,7.46874998 11.375,7.46874998 C13.9596875,7.46874998 16.0625,9.57156249 16.0625,12.15625 C16.0625,15.0923438 13.2887109,14.9027735 13.2501172,17.7664844 L13.25,17.78125 C13.25,18.9012891 12.3387891,19.8125 11.21875,19.8125 C10.6146875,19.8125 10.125,20.3021875 10.125,20.90625 C10.125,21.5103125 10.6146875,22 11.21875,22 C13.5419922,22 15.4326563,20.1121875 15.4375,17.7900782 C15.4607422,16.4452344 18.25,15.9057031 18.25,12.15625 C18.25,8.36535154 15.1658985,5.28124997 11.375,5.28124997 Z M8.24999998,14.5 C7.55964842,14.5 6.99999997,15.0596485 6.99999997,15.75 C6.99999997,16.4403516 7.55964842,17 8.24999998,17 C8.94035155,17 9.49999999,16.4403516 9.49999999,15.75 C9.49999999,15.0596485 8.94035155,14.5 8.24999998,14.5 Z M3.24999996,19.5 C2.55964839,19.5 1.99999995,20.0596485 1.99999995,20.75 C1.99999995,21.4403516 2.55964839,22.0000001 3.24999996,22.0000001 C3.94035152,22.0000001 4.49999996,21.4403516 4.49999996,20.75 C4.49999996,20.0596485 3.94035152,19.5 3.24999996,19.5 Z M22,12.1565234 C22,12.0972266 21.9995313,12.0383594 21.9982422,11.9795312 C21.9248438,7.48925779 19.0373828,3.50273433 14.8122656,2.05902339 C14.2406641,1.86378901 13.6189453,2.16874995 13.4235938,2.74035152 C13.2282813,3.31195308 13.5333594,3.93367183 14.1049219,4.1290234 C17.460625,5.27566403 19.75375,8.44593748 19.8110547,12.0178125 L19.8111719,12.0251563 C19.8121875,12.0688281 19.812461,12.1125 19.812461,12.1565234 C19.812461,12.7605859 20.3021485,13.2502734 20.906211,13.2502734 C21.5102735,13.2502734 22,12.7605859 22,12.1565234 Z M7.97542967,19.1495703 L4.85042965,16.0245703 L3.52460933,17.3503907 L6.64960935,20.4753907 L7.97542967,19.1495703 Z" id="path-1"></path>
    </defs>
    <g id="assistive-listening-systems" stroke="none" stroke-width="1" fill="none" fill-rule="evenodd">
        <mask id="mask-2" fill="white">
            <use xlink:href="#path-1"></use>
        </mask>
        <g fill-rule="nonzero"></g>
        <g id="🎨-color" mask="url(#mask-2)" fill="#000000">
            <rect id="🎨-Color" x="0" y="0" width="24" height="24"></rect>
        </g>
    </g>
</svg>