<?xml version="1.0" encoding="UTF-8"?>
<svg width="24px" height="24px" viewBox="0 0 24 24" version="1.1" xmlns="http://www.w3.org/2000/svg" xmlns:xlink="http://www.w3.org/1999/xlink">
    <!-- Generator: Sketch 52.5 (67469) - http://www.bohemiancoding.com/sketch -->
    <title>asymmetrik</title>
    <desc>Created with Sketch.</desc>
    <defs>
        <path d="M19.9376084,13.8440208 C21.2824957,12.457539 21.9514732,11.0710572 21.965338,9.81975735 C21.9930676,7.54939339 19.9064125,5.72270361 16.0935875,5.14038125 C11.6325823,4.45753896 6.09358749,5.67764295 1.99999995,7.99653378 C3.8024263,7.07798958 5.83362215,6.3258232 7.91681107,5.97920274 C10.4991334,5.26863082 13.220104,5.09878679 15.5875217,5.46620447 C20.8734836,6.29116115 22.4090122,9.88561524 19.0121318,13.4974004 C18.6585789,13.8717504 18.2495668,14.2287695 17.7989602,14.5580589 L12.5684575,6.7105719 L5.97573654,16.6065858 C3.70190637,15.5875217 3.32409008,13.4800693 5.31369147,11.3656846 C6.03466202,10.5961872 6.98786826,9.91334488 8.06932407,9.35181974 C8.76256498,8.92894279 9.44540727,8.56845752 10.2183709,8.28769496 C7.96187173,8.99133447 5.96533792,10.1213171 4.61698437,11.507799 C3.65684571,12.4991335 3.18197569,13.4870017 3.17157708,14.3812825 C3.15424606,15.5979203 3.98266894,16.6377817 5.54246097,17.2582323 L4.34662041,19.05026 L7.86828421,19.05026 L8.6308492,17.8578856 C9.40034661,17.8925477 10.2010399,17.8578856 11.0086655,17.7642981 L10.2183709,19.05026 L14.915078,19.05026 L13.7850953,17.2097054 C14.4298094,17.0259966 15.0641248,16.8110919 15.6741768,16.5615252 L17.2651647,19.05026 L20.7868285,19.05026 L18.2426343,15.2235702 C18.8838822,14.8041595 19.4558059,14.3396881 19.9376084,13.8440208 Z M13.4350087,16.6343154 L12.5684575,15.2270364 L11.4350087,17.0745234 C10.6239168,17.1958406 9.81629115,17.2512999 9.03639513,17.2270364 L12.5684575,11.7053726 L15.2963605,15.9688042 C14.7001733,16.2253033 14.0727903,16.4506066 13.4350087,16.6343154 Z" id="path-1"></path>
    </defs>
    <g id="asymmetrik" stroke="none" stroke-width="1" fill="none" fill-rule="evenodd">
        <mask id="mask-2" fill="white">
            <use xlink:href="#path-1"></use>
        </mask>
        <g fill-rule="nonzero"></g>
        <g id="🎨-color" mask="url(#mask-2)" fill="#000000">
            <rect id="🎨-Color" x="0" y="0" width="24" height="24"></rect>
        </g>
    </g>
</svg>