<?xml version="1.0" encoding="UTF-8"?>
<svg width="24px" height="24px" viewBox="0 0 24 24" version="1.1" xmlns="http://www.w3.org/2000/svg" xmlns:xlink="http://www.w3.org/1999/xlink">
    <!-- Generator: Sketch 52.5 (67469) - http://www.bohemiancoding.com/sketch -->
    <title>at</title>
    <desc>Created with Sketch.</desc>
    <defs>
        <path d="M12,2.31249995 C6.64613279,2.31249995 2.31249995,6.64527341 2.31249995,12 C2.31249995,17.3538672 6.64527341,21.6875 12,21.6875 C13.8810156,21.6875 15.7242969,21.1351563 17.289375,20.1162891 C17.7583203,19.8110157 17.8606641,19.1675391 17.50625,18.7345703 L17.108711,18.2489063 C16.8090625,17.8828516 16.2814063,17.7931641 15.8832031,18.0485547 C14.73125,18.7873828 13.3794531,19.1875 12,19.1875 C8.03679686,19.1875 4.81249996,15.9632031 4.81249996,12 C4.81249996,8.03679686 8.03679686,4.81249996 12,4.81249996 C15.9116797,4.81249996 19.1875,7.06324216 19.1875,11.0625 C19.1875,12.5775781 18.3635547,14.1774219 16.9152344,14.3317578 C16.2375391,14.3140234 16.2546875,13.8295313 16.3888281,13.1589453 L17.3041797,8.42808592 C17.4161328,7.84960935 16.9729688,7.31249998 16.3837891,7.31249998 L14.6267188,7.31249998 C14.3581317,7.31249412 14.1323313,7.51410406 14.1020313,7.78097654 L14.1016406,7.78457029 C13.5275391,7.08531248 12.5216406,6.93398435 11.7590234,6.93398435 C8.84574217,6.93398435 6.37499997,9.36499999 6.37499997,12.8503906 C6.37499997,15.4012891 7.81191404,16.9859375 10.125,16.9859375 C11.1790625,16.9859375 12.3659766,16.3751172 13.0543359,15.4885547 C13.4262891,16.8207422 14.6407813,16.8207031 15.8164453,16.8207031 C20.0706641,16.8207031 21.6875,14.0233594 21.6875,11.0625 C21.6875,5.73644528 17.3915235,2.31249995 12,2.31249995 Z M11.153125,14.2042969 C10.2840234,14.2042969 9.74414061,13.5940234 9.74414061,12.6116797 C9.74414061,10.8541406 10.9464453,9.77070311 12.034375,9.77070311 C12.9051563,9.77070311 13.4250391,10.3660547 13.4250391,11.3632812 C13.4250391,13.1234766 12.1017969,14.2042969 11.153125,14.2042969 Z" id="path-1"></path>
    </defs>
    <g id="at" stroke="none" stroke-width="1" fill="none" fill-rule="evenodd">
        <mask id="mask-2" fill="white">
            <use xlink:href="#path-1"></use>
        </mask>
        <g fill-rule="nonzero"></g>
        <g id="🎨-color" mask="url(#mask-2)" fill="#000000">
            <rect id="🎨-Color" x="0" y="0" width="24" height="24"></rect>
        </g>
    </g>
</svg>