<?xml version="1.0" encoding="UTF-8"?>
<svg width="24px" height="24px" viewBox="0 0 24 24" version="1.1" xmlns="http://www.w3.org/2000/svg" xmlns:xlink="http://www.w3.org/1999/xlink">
    <!-- Generator: Sketch 52.5 (67469) - http://www.bohemiancoding.com/sketch -->
    <title>atlas</title>
    <desc>Created with Sketch.</desc>
    <defs>
        <path d="M15.6867188,10.125 L14.1597656,10.125 C14.1015625,11.1808594 13.9042969,12.1308594 13.6046875,12.8753906 C14.6871094,12.3582031 15.4804688,11.3445312 15.6867188,10.125 Z M15.6867188,8.87499998 C15.4800781,7.65546873 14.6871094,6.64179685 13.6046875,6.12460935 C13.9046875,6.8691406 14.1015625,7.8191406 14.1597656,8.87499998 L15.6867188,8.87499998 Z M12,5.80117184 C11.6996094,6.09218747 11.1886719,7.1457031 11.0847656,8.87499998 L12.915625,8.87499998 C12.8113281,7.14609373 12.3003906,6.09218747 12,5.80117184 Z M10.3953125,6.12460935 C9.31289061,6.64179685 8.51953123,7.65546873 8.31328123,8.87499998 L9.84023436,8.87499998 C9.89843749,7.8191406 10.0953125,6.8691406 10.3953125,6.12460935 Z M10.3953125,12.8753906 C10.0953125,12.1308594 9.89843749,11.1808594 9.84023436,10.125 L8.31328123,10.125 C8.51953123,11.3445312 9.31289061,12.3582031 10.3953125,12.8753906 Z M12.9152344,10.125 L11.084375,10.125 C11.1882812,11.8539062 11.6992187,12.9078125 11.9996094,13.1988281 C12.3003906,12.9078125 12.8113281,11.8539062 12.9152344,10.125 Z M20.75,16 L20.75,2.99999995 C20.75,2.37499995 20.375,1.99999995 19.75,1.99999995 L6.99999997,1.99999995 C4.87499996,1.99999995 3.24999996,3.62499996 3.24999996,5.74999997 L3.24999996,18.25 C3.24999996,20.375 4.87499996,22.0000001 6.99999997,22.0000001 L19.75,22.0000001 C20.25,22.0000001 20.75,21.625 20.75,21 L20.75,20.375 C20.75,20.125 20.625,19.875 20.375,19.625 C20.25,19 20.25,17.25 20.375,16.75 C20.625,16.625 20.75,16.375 20.75,16 Z M12,4.49999996 C14.7613281,4.49999996 17,6.73867185 17,9.49999999 C17,12.2613281 14.7613281,14.5 12,14.5 C9.23867186,14.5 6.99999997,12.2613281 6.99999997,9.49999999 C6.99999997,6.73867185 9.23867186,4.49999996 12,4.49999996 Z M18.25,19.5 L6.99999997,19.5 C6.24999997,19.5 5.74999997,19 5.74999997,18.25 C5.74999997,17.5 6.37499997,17 6.99999997,17 L18.25,17 L18.25,19.5 Z" id="path-1"></path>
    </defs>
    <g id="atlas" stroke="none" stroke-width="1" fill="none" fill-rule="evenodd">
        <mask id="mask-2" fill="white">
            <use xlink:href="#path-1"></use>
        </mask>
        <g fill-rule="nonzero"></g>
        <g id="🎨-color" mask="url(#mask-2)" fill="#000000">
            <rect id="🎨-Color" x="0" y="0" width="24" height="24"></rect>
        </g>
    </g>
</svg>