<?xml version="1.0" encoding="UTF-8"?>
<svg width="24px" height="24px" viewBox="0 0 24 24" version="1.1" xmlns="http://www.w3.org/2000/svg" xmlns:xlink="http://www.w3.org/1999/xlink">
    <!-- Generator: Sketch 52.5 (67469) - http://www.bohemiancoding.com/sketch -->
    <title>atom</title>
    <desc>Created with Sketch.</desc>
    <defs>
        <path d="M19.3839844,12 C20.9515625,9.85585936 21.0054688,8.14765623 20.3660157,6.99999997 C19.9398438,6.23749997 18.7824219,5.01835934 15.821875,5.36406247 C14.9828125,3.36289058 13.7046875,1.99999995 12,1.99999995 C10.2953125,1.99999995 9.01718749,3.36289058 8.17812498,5.36406247 C5.21992184,5.02109372 4.05976559,6.23749997 3.63398433,6.99999997 C2.99414058,8.14843748 3.04804683,9.85507811 4.61601559,12 C3.04843746,14.1441406 2.9945312,15.8523438 3.63398433,17 C4.77499996,19.0445313 7.60585935,18.7023438 8.17812498,18.6359375 C9.01679686,20.6367188 10.2953125,22.0000001 12,22.0000001 C13.7046875,22.0000001 14.9832031,20.6367188 15.821875,18.6359375 C16.39375,18.7023438 19.2246094,19.0445313 20.3660157,17 C21.0058594,15.8515625 20.9519532,14.1449219 19.3839844,12 Z M5.72578122,15.75 C5.56835934,15.4683594 5.71835934,14.78125 6.3097656,13.8636719 C6.5816406,14.11875 6.8644531,14.3671875 7.16406248,14.6128906 C7.23085935,15.1484375 7.32031248,15.6707031 7.42812498,16.1785156 C6.46874997,16.2132813 5.86992184,16.0078125 5.72578122,15.75 Z M7.16406248,9.38749999 C6.86484372,9.63320311 6.58203122,9.88164061 6.3097656,10.1367187 C5.71874997,9.21874999 5.56874997,8.53164061 5.72578122,8.24999998 C5.85898434,8.01015623 6.3660156,7.8019531 7.20703123,7.8019531 C7.2738281,7.8019531 7.3582031,7.81367185 7.42929685,7.81640623 C7.31829689,8.33603929 7.22980289,8.86022614 7.16406248,9.38749999 Z M12,4.49999996 C12.3699219,4.49999996 12.8671875,5.02812497 13.3226563,5.95546872 C12.8855469,6.09999997 12.4460938,6.26796872 12,6.45781247 C11.5539062,6.26796872 11.1144531,6.09999997 10.6773437,5.95546872 C11.1328125,5.02812497 11.6300781,4.49999996 12,4.49999996 Z M12,19.5 C11.6300781,19.5 11.1328125,18.971875 10.6773437,18.0445313 C11.1144531,17.9 11.5539062,17.7320313 12,17.5421875 C12.4460938,17.7320313 12.8855469,17.9 13.3226563,18.0445313 C12.8671875,18.971875 12.3699219,19.5 12,19.5 Z M14.4414063,13.3542969 C13.3984375,14.0996094 12.6390625,14.5 12,14.8183594 C11.3613281,14.5003906 10.6015625,14.0992188 9.55859374,13.3542969 C9.48085936,12.26875 9.48085936,11.7316406 9.55859374,10.6460937 C10.6003906,9.90195311 11.3605469,9.50078124 12,9.18203124 C12.6402344,9.50117186 13.4007813,9.90234374 14.4414063,10.6460937 C14.51875,11.73125 14.5191406,12.2683594 14.4414063,13.3542969 Z M18.2742188,15.75 C18.1308594,16.0085938 17.5320313,16.2117188 16.571875,16.1777344 C16.6796875,15.6699219 16.7691406,15.1476563 16.8359375,14.6128906 C17.1351563,14.3671875 17.4179688,14.11875 17.6902344,13.8636719 C18.28125,14.78125 18.43125,15.4683594 18.2742188,15.75 Z M17.6902344,10.1363281 C17.4183594,9.88124999 17.1355469,9.63281249 16.8359375,9.38710936 C16.7701326,8.85984498 16.6816391,8.33566091 16.5707031,7.8160156 C16.6417969,7.81328123 16.7257813,7.80156248 16.7929688,7.80156248 C17.6335938,7.80156248 18.1410157,8.01015623 18.2742188,8.24960936 C18.43125,8.53164061 18.28125,9.21874999 17.6902344,10.1363281 Z M12,10.75 C11.3097656,10.75 10.75,11.3097656 10.75,12 C10.75,12.6902344 11.3097656,13.25 12,13.25 C12.6902344,13.25 13.25,12.6902344 13.25,12 C13.25,11.3097656 12.6902344,10.75 12,10.75 Z" id="path-1"></path>
    </defs>
    <g id="atom" stroke="none" stroke-width="1" fill="none" fill-rule="evenodd">
        <mask id="mask-2" fill="white">
            <use xlink:href="#path-1"></use>
        </mask>
        <g fill-rule="nonzero"></g>
        <g id="🎨-color" mask="url(#mask-2)" fill="#000000">
            <rect id="🎨-Color" x="0" y="0" width="24" height="24"></rect>
        </g>
    </g>
</svg>