<?xml version="1.0" encoding="UTF-8"?>
<svg width="24px" height="24px" viewBox="0 0 24 24" version="1.1" xmlns="http://www.w3.org/2000/svg" xmlns:xlink="http://www.w3.org/1999/xlink">
    <!-- Generator: Sketch 52.5 (67469) - http://www.bohemiancoding.com/sketch -->
    <title>audio-description</title>
    <desc>Created with Sketch.</desc>
    <defs>
        <path d="M8.36425779,11.3245703 L8.70886717,12.5220313 L7.70863279,12.5220313 L8.06179686,11.3246875 C8.11167967,11.1519922 8.16535154,10.9342969 8.21304686,10.7291797 C8.26070311,10.9342969 8.31437498,11.1519531 8.36425779,11.3245703 Z M14.8671485,10.0707031 L14.2998438,10.0707031 L14.2998438,13.9293359 L14.8671485,13.9293359 C16.0302735,13.9293359 16.6708594,13.2387891 16.6708594,11.9849609 C16.6708594,10.725625 15.9876563,10.0707031 14.8671485,10.0707031 Z M22.0000001,6.37499997 L22.0000001,17.625 C22.0000001,18.6605469 21.1605469,19.5 20.125,19.5 L3.87499996,19.5 C2.83945308,19.5 1.99999995,18.6605469 1.99999995,17.625 L1.99999995,6.37499997 C1.99999995,5.33945309 2.83945308,4.49999996 3.87499996,4.49999996 L20.125,4.49999996 C21.1605469,4.49999996 22.0000001,5.33945309 22.0000001,6.37499997 Z M11.5882422,15.1304297 L9.35789061,8.56792967 C9.29328567,8.37785177 9.11481957,8.25001022 8.91406248,8.24999998 L7.5119531,8.24999998 C7.31119602,8.25001022 7.13272991,8.37785177 7.06812498,8.56792967 L4.8377734,15.1304297 C4.73449215,15.4344531 4.96050778,15.75 5.28160153,15.75 L6.41960935,15.75 C6.62873646,15.7499943 6.81256334,15.6114588 6.87019529,15.4104297 L7.20511716,14.2422266 L9.21164061,14.2422266 L9.55511718,15.4132031 C9.61368772,15.6128551 9.79685599,15.7500046 10.0049219,15.75 L11.1444531,15.75 C11.4655469,15.75 11.6915625,15.4344531 11.5882422,15.1304297 Z M18.803125,11.9849219 C18.803125,9.6811328 17.3219141,8.24999998 14.9375,8.24999998 L12.6966406,8.24999998 C12.4377734,8.24999998 12.2278906,8.45988279 12.2278906,8.71874998 L12.2278906,15.28125 C12.2278906,15.5401172 12.4377734,15.75 12.6966406,15.75 L14.9375,15.75 C17.3219141,15.75 18.803125,14.3073047 18.803125,11.9849219 Z" id="path-1"></path>
    </defs>
    <g id="audio-description" stroke="none" stroke-width="1" fill="none" fill-rule="evenodd">
        <mask id="mask-2" fill="white">
            <use xlink:href="#path-1"></use>
        </mask>
        <g fill-rule="nonzero"></g>
        <g id="🎨-color" mask="url(#mask-2)" fill="#000000">
            <rect id="🎨-Color" x="0" y="0" width="24" height="24"></rect>
        </g>
    </g>
</svg>