<?xml version="1.0" encoding="UTF-8"?>
<svg width="24px" height="24px" viewBox="0 0 24 24" version="1.1" xmlns="http://www.w3.org/2000/svg" xmlns:xlink="http://www.w3.org/1999/xlink">
    <!-- Generator: Sketch 52.5 (67469) - http://www.bohemiancoding.com/sketch -->
    <title>audible</title>
    <desc>Created with Sketch.</desc>
    <defs>
        <path d="M22.0000001,10.246875 L22.0000001,11.934375 L12,18.184375 L1.99999995,11.9375 L1.99999995,10.25 L12,16.5 L22.0000001,10.246875 Z M15.921875,12.496875 L17.39375,11.578125 C16.23125,9.83437499 14.246875,8.68437498 11.996875,8.68437498 C9.74687499,8.68437498 7.76249998,9.83124999 6.60312497,11.571875 L6.61249997,11.571875 C6.69062497,11.5 6.77187497,11.43125 6.85312497,11.3625 C9.65624999,9.03749999 13.709375,9.54687499 15.921875,12.496875 Z M9.04374999,13.084375 C9.57187499,12.7125 10.184375,12.5 10.8375,12.5 C11.9125,12.5 12.875,13.075 13.5375,13.9875 L14.95625,13.1 C14.303125,12.165625 13.21875,11.553125 11.99375,11.553125 C10.778125,11.553125 9.69999999,12.159375 9.04374999,13.084375 Z M5.23749997,9.03437499 C9.35624999,5.77499997 15.18125,6.64687497 18.284375,10.975 L18.30625,11.00625 L19.83125,10.05625 C18.159375,7.50312498 15.275,5.81562497 11.996875,5.81562497 C8.76249998,5.81562497 5.85312497,7.48749998 4.16874996,10.053125 C4.47812496,9.72499999 4.87812496,9.31874999 5.23749997,9.03437499 Z" id="path-1"></path>
    </defs>
    <g id="audible" stroke="none" stroke-width="1" fill="none" fill-rule="evenodd">
        <mask id="mask-2" fill="white">
            <use xlink:href="#path-1"></use>
        </mask>
        <g fill-rule="nonzero"></g>
        <g id="🎨-color" mask="url(#mask-2)" fill="#000000">
            <rect id="🎨-Color" x="0" y="0" width="24" height="24"></rect>
        </g>
    </g>
</svg>