<?xml version="1.0" encoding="UTF-8"?>
<svg width="24px" height="24px" viewBox="0 0 24 24" version="1.1" xmlns="http://www.w3.org/2000/svg" xmlns:xlink="http://www.w3.org/1999/xlink">
    <!-- Generator: Sketch 52.5 (67469) - http://www.bohemiancoding.com/sketch -->
    <title>avianex</title>
    <desc>Created with Sketch.</desc>
    <defs>
        <path d="M19.6647174,3.26705649 L7.50097464,3.26705649 C5.98440543,3.26705649 4.53021439,4.48343076 4.25341127,5.98440543 L2.04678358,18.0155946 C1.76998046,19.5165692 2.77582841,20.7329435 4.29629626,20.7329435 L16.460039,20.7329435 C17.9766082,20.7329435 19.4307993,19.5165692 19.7076024,18.0155946 L21.9181287,5.98830406 C22.1910332,4.48343076 21.1851852,3.26705649 19.6647174,3.26705649 Z M17.3957115,16.8070176 L16.1481482,17.3333334 L11.6491228,13.0448343 C11.0760234,13.4346979 10.5107212,13.8050682 10.0233918,14.1013645 L10.8849902,16.6042885 L10.1871345,17.0994152 L8.60428848,14.7212476 L6.56140348,12.8460039 L7.17348925,12.245614 L9.43469784,13.4580897 C9.79727094,13.0487329 10.245614,12.5769981 10.7134503,12.0974659 L9.91423001,10.9434698 L7.23196879,7.05263155 L7.96491226,5.9259259 L8.31189082,5.73879139 L12.331384,10.1208577 L12.5224172,10.2962963 C13.2787524,9.56335281 13.840156,9.03313839 13.840156,9.03313839 C14.1403509,8.77972708 14.6783626,8.92007796 15.0370371,9.34113059 C15.3879142,9.75048732 15.4502924,10.3040936 15.1423002,10.5614035 C15.0721248,10.6120858 14.5380117,11.0058479 13.7660819,11.5594542 L13.9415205,11.8440546 L17.6413256,16.4990254 L17.3957115,16.8070176 Z" id="path-1"></path>
    </defs>
    <g id="avianex" stroke="none" stroke-width="1" fill="none" fill-rule="evenodd">
        <mask id="mask-2" fill="white">
            <use xlink:href="#path-1"></use>
        </mask>
        <g fill-rule="nonzero"></g>
        <g id="🎨-color" mask="url(#mask-2)" fill="#000000">
            <rect id="🎨-Color" x="0" y="0" width="24" height="24"></rect>
        </g>
    </g>
</svg>