<?xml version="1.0" encoding="UTF-8"?>
<svg width="24px" height="24px" viewBox="0 0 24 24" version="1.1" xmlns="http://www.w3.org/2000/svg" xmlns:xlink="http://www.w3.org/1999/xlink">
    <!-- Generator: Sketch 52.5 (67469) - http://www.bohemiancoding.com/sketch -->
    <title>aviato</title>
    <desc>Created with Sketch.</desc>
    <defs>
        <path d="M5.34999997,12.859375 L4.75624996,11.553125 L3.12812496,11.553125 L2.53437495,12.859375 L1.99999995,12.859375 L3.94374996,8.75312498 L5.88749997,12.859375 L5.34999997,12.859375 Z M3.94374996,9.79374999 L3.33124996,11.121875 L4.55624996,11.121875 L3.94374996,9.79374999 Z M7.46562498,12.99375 L5.52187497,8.88749998 L6.05624997,8.88749998 L7.46562498,11.8875 L8.87499998,8.88749998 L9.40624999,8.88749998 L7.46562498,12.99375 Z M9.98437499,12.859375 L9.98437499,8.88749998 L10.46875,8.88749998 L10.46875,12.859375 L9.98437499,12.859375 Z M16.51875,9.24687499 L16.51875,12.859375 L15.978125,12.859375 L15.978125,9.24687499 L14.690625,9.24687499 L14.690625,8.88749998 L17.803125,8.88749998 L17.803125,9.24687499 L16.51875,9.24687499 Z M22.0000001,10.8375 C22.0000001,11.125 21.946875,11.39375 21.840625,11.64375 C21.734375,11.89375 21.584375,12.115625 21.396875,12.303125 C21.209375,12.490625 20.9875,12.640625 20.7375,12.746875 C20.4875,12.853125 20.21875,12.90625 19.93125,12.90625 C19.64375,12.90625 19.375,12.853125 19.125,12.746875 C18.875,12.640625 18.653125,12.490625 18.465625,12.303125 C18.278125,12.115625 18.128125,11.896875 18.021875,11.64375 C17.915625,11.39375 17.8625,11.125 17.8625,10.8375 C17.8625,10.55 17.915625,10.28125 18.021875,10.03125 C18.128125,9.78124999 18.278125,9.55937499 18.465625,9.37187499 C18.653125,9.18437499 18.871875,9.10937499 19.125,8.99999999 C19.375,8.89374998 19.64375,8.84062498 19.93125,8.84062498 C20.21875,8.84062498 20.4875,8.89374998 20.7375,8.99999999 C20.9875,9.10624999 21.209375,9.18124999 21.396875,9.37187499 C21.584375,9.55937499 21.73125,9.78124999 21.840625,10.03125 C21.946875,10.28125 22.0000001,10.55 22.0000001,10.8375 Z M21.515625,10.8375 C21.515625,10.609375 21.475,10.4 21.39375,10.203125 C21.3125,10.00625 21.2,9.83749999 21.05625,9.69374999 C20.9125,9.54999999 20.74375,9.43749999 20.55,9.35312499 C20.35625,9.26874999 20.15,9.22812499 19.93125,9.22812499 C19.7125,9.22812499 19.50625,9.26874999 19.3125,9.35312499 C19.11875,9.43749999 18.95,9.54999999 18.80625,9.69374999 C18.6625,9.83749999 18.55,10.00625 18.46875,10.203125 C18.3875,10.4 18.346875,10.6125 18.346875,10.8375 C18.346875,11.065625 18.3875,11.275 18.46875,11.471875 C18.55,11.66875 18.6625,11.8375 18.80625,11.98125 C18.95,12.125 19.11875,12.2375 19.3125,12.321875 C19.50625,12.40625 19.7125,12.446875 19.93125,12.446875 C20.15,12.446875 20.35625,12.40625 20.55,12.321875 C20.74375,12.2375 20.9125,12.125 21.05625,11.98125 C21.2,11.8375 21.3125,11.66875 21.39375,11.471875 C21.475,11.275 21.515625,11.0625 21.515625,10.8375 Z M18.553125,13.859375 L18.553125,13.6625 L21.33125,13.35 L13.740625,13.76875 C13.759375,13.7 13.775,13.625 13.784375,13.54375 C13.79375,13.48125 13.8,13.4125 13.803125,13.340625 L15.828125,13.0875 L13.8,13.146875 C13.8,13.134375 13.796875,13.125 13.796875,13.1125 C13.709375,12.575 13,12.371875 13,12.371875 L12.965625,11.55 L13.709375,11.55 L14.303125,12.85625 L14.8375,12.85625 L12.89375,8.74999998 L10.95,12.85625 L11.484375,12.85625 L12.078125,11.55 L12.815625,11.55 L12.78125,12.375 C12.78125,12.375 12.071875,12.578125 11.984375,13.115625 C11.98125,13.125 11.98125,13.1375 11.98125,13.15 L9.95312499,13.090625 L11.978125,13.34375 C11.98125,13.415625 11.9875,13.48125 11.996875,13.546875 C12.00625,13.628125 12.021875,13.703125 12.040625,13.771875 L4.44999996,13.35 L7.22812498,13.6625 L7.22812498,13.859375 C7.04374998,13.8875 6.89999997,14.046875 6.89999997,14.240625 C6.89999997,14.453125 7.07499998,14.628125 7.28749998,14.628125 C7.49999998,14.628125 7.67499998,14.453125 7.67499998,14.240625 C7.67499998,14.046875 7.53124998,13.8875 7.34687498,13.859375 L7.34687498,13.678125 L9.85624999,13.959375 L9.85624999,14.128125 C9.67812499,14.1625 9.54687499,14.321875 9.54687499,14.50625 C9.54687499,14.71875 9.72187499,14.825 9.93437499,14.825 C10.146875,14.825 10.321875,14.71875 10.321875,14.50625 C10.321875,14.31875 10.1875,14.1625 10.0125,14.128125 L10.0125,13.975 L10.9,14.075 L10.9,14.815625 L10.715625,14.815625 L10.715625,15.25 L10.9,15.25 L10.9,15.04375 L11.05625,15.04375 L11.05625,15.25 L11.240625,15.25 L11.240625,14.81875 L11.05625,14.81875 L11.05625,14.09375 L12.253125,14.228125 C12.50625,14.584375 12.846875,14.653125 12.846875,14.653125 L12.84375,14.8625 L12.684375,14.86875 L12.68125,15.246875 L12.809375,15.246875 L12.8125,15.090625 L12.975,15.090625 L12.978125,15.246875 L13.10625,15.246875 L13.103125,14.86875 L12.94375,14.8625 L12.940625,14.653125 C12.940625,14.653125 13.28125,14.5875 13.534375,14.228125 L14.73125,14.09375 L14.73125,14.81875 L14.546875,14.81875 L14.546875,15.25 L14.73125,15.25 L14.73125,15.04375 L14.8875,15.04375 L14.8875,15.25 L15.071875,15.25 L15.071875,14.81875 L14.8875,14.81875 L14.8875,14.078125 L15.775,13.978125 L15.775,14.13125 C15.596875,14.165625 15.465625,14.325 15.465625,14.509375 C15.465625,14.721875 15.640625,14.828125 15.853125,14.828125 C16.065625,14.828125 16.240625,14.721875 16.240625,14.509375 C16.240625,14.321875 16.10625,14.165625 15.93125,14.13125 L15.93125,13.9625 L18.440625,13.68125 L18.440625,13.8625 C18.25625,13.890625 18.1125,14.05 18.1125,14.24375 C18.1125,14.45625 18.2875,14.63125 18.5,14.63125 C18.7125,14.63125 18.8875,14.45625 18.8875,14.24375 C18.88125,14.046875 18.740625,13.8875 18.553125,13.859375 Z M12.278125,11.121875 L12.890625,9.79374999 L13.503125,11.121875 L12.94375,11.121875 L12.890625,9.86249999 L12.8375,11.121875 L12.278125,11.121875 Z" id="path-1"></path>
    </defs>
    <g id="aviato" stroke="none" stroke-width="1" fill="none" fill-rule="evenodd">
        <mask id="mask-2" fill="white">
            <use xlink:href="#path-1"></use>
        </mask>
        <g fill-rule="nonzero"></g>
        <g id="🎨-color" mask="url(#mask-2)" fill="#000000">
            <rect id="🎨-Color" x="0" y="0" width="24" height="24"></rect>
        </g>
    </g>
</svg>