<?xml version="1.0" encoding="UTF-8"?>
<svg width="24px" height="24px" viewBox="0 0 24 24" version="1.1" xmlns="http://www.w3.org/2000/svg" xmlns:xlink="http://www.w3.org/1999/xlink">
    <!-- Generator: Sketch 52.5 (67469) - http://www.bohemiancoding.com/sketch -->
    <title>award</title>
    <desc>Created with Sketch.</desc>
    <defs>
        <path d="M8.30817119,16.1490273 C7.97003889,15.810895 8.14630348,15.9062257 7.33073928,15.6879378 C6.96070036,15.588716 6.63540853,15.3980545 6.34124511,15.1696498 L4.57587545,19.4980545 C4.40505833,19.9171207 4.72412448,20.3723736 5.17626456,20.355253 L7.22645912,20.2770428 L8.63657586,21.766537 C8.94785991,22.0949417 9.49416341,21.9926071 9.66498053,21.5735409 L11.6902724,16.6077821 C11.2684825,16.8428016 10.8003891,16.9805448 10.3163424,16.9805448 C9.55758754,16.9805448 8.84474707,16.685214 8.30817119,16.1490273 Z M19.4241246,19.4980545 L17.6587549,15.1696498 C17.3645915,15.3984436 17.0392996,15.588716 16.6692607,15.6879378 C15.8494164,15.907393 16.0291829,15.8116732 15.6918288,16.1490273 C15.1552529,16.685214 14.4420234,16.9805448 13.6832685,16.9805448 C13.1992218,16.9805448 12.7311284,16.8424125 12.3093385,16.6077821 L14.3346304,21.5735409 C14.5054475,21.9926071 15.0521401,22.0949417 15.363035,21.766537 L16.7735409,20.2770428 L18.8237354,20.355253 C19.2758755,20.3723736 19.5949417,19.9167316 19.4241246,19.4980545 Z M14.7626459,15.2684825 C15.3571985,14.6634241 15.4252918,14.7155642 16.2719845,14.4848249 C16.8124514,14.3373541 17.2350195,13.907393 17.3797666,13.3571985 C17.6708171,12.2521401 17.5953308,12.3856031 18.3894942,11.5770428 C18.785214,11.1743191 18.9396888,10.5871595 18.7949417,10.036965 C18.5042802,8.93268481 18.5038911,9.08677041 18.7949417,7.98132294 C18.9396888,7.43112838 18.785214,6.84396885 18.3894942,6.44124511 C17.5953308,5.63268479 17.6708171,5.76575872 17.3797666,4.66108946 C17.2350195,4.1108949 16.8124514,3.68093381 16.2719845,3.53346299 C15.1871595,3.23735404 15.3178988,3.31478595 14.5229572,2.50583653 C14.1272374,2.10311279 13.5501946,1.94552524 13.0097276,2.09299606 C11.9252918,2.38871591 12.0766537,2.38910501 10.9902724,2.09299606 C10.4498054,1.94552524 9.87276264,2.10272369 9.47704279,2.50583653 C8.68287936,3.31439684 8.81361866,3.23735404 7.72840465,3.53346299 C7.18793772,3.68093381 6.76536962,4.1108949 6.62062254,4.66108946 C6.32996106,5.76575872 6.40505834,5.63268479 5.61089491,6.44124511 C5.21517506,6.84396885 5.06031125,7.43112838 5.20544744,7.98132294 C5.49610892,9.08482489 5.49649802,8.93073928 5.20544744,10.0365759 C5.06070035,10.5867704 5.21517506,11.17393 5.61089491,11.5770428 C6.40505834,12.3856031 6.32957196,12.2521401 6.62062254,13.3571985 C6.76536962,13.907393 7.18793772,14.3373541 7.72840465,14.4848249 C8.59922177,14.722179 8.66420232,14.6848249 9.23735407,15.2684825 C9.75214007,15.792607 10.5540856,15.8863813 11.1727626,15.4949417 C11.6777951,15.1743212 12.322594,15.1743212 12.8276265,15.4949417 C13.4459144,15.8863813 14.2478599,15.792607 14.7626459,15.2684825 Z M8.32918286,8.8856031 C8.32918286,6.82217896 9.97276264,5.14941631 12,5.14941631 C14.0272374,5.14941631 15.6708171,6.82217896 15.6708171,8.8856031 C15.6708171,10.9490272 14.0272374,12.6217899 12,12.6217899 C9.97276264,12.6217899 8.32918286,10.9490272 8.32918286,8.8856031 Z" id="path-1"></path>
    </defs>
    <g id="award" stroke="none" stroke-width="1" fill="none" fill-rule="evenodd">
        <mask id="mask-2" fill="white">
            <use xlink:href="#path-1"></use>
        </mask>
        <g fill-rule="nonzero"></g>
        <g id="🎨-color" mask="url(#mask-2)" fill="#000000">
            <rect id="🎨-Color" x="0" y="0" width="24" height="24"></rect>
        </g>
    </g>
</svg>