<?xml version="1.0" encoding="UTF-8"?>
<svg width="24px" height="24px" viewBox="0 0 24 24" version="1.1" xmlns="http://www.w3.org/2000/svg" xmlns:xlink="http://www.w3.org/1999/xlink">
    <!-- Generator: Sketch 52.5 (67469) - http://www.bohemiancoding.com/sketch -->
    <title>aws</title>
    <desc>Created with Sketch.</desc>
    <defs>
        <path d="M7.65140185,10.3492212 C7.62897194,11.0548287 7.98161992,11.3672897 7.99034266,11.5657321 C7.98191649,11.6476853 7.93431532,11.7204803 7.8626168,11.7610592 L7.46386291,12.0401869 C7.41225948,12.0763627 7.35142772,12.0971081 7.2884735,12.1 C7.27507786,12.0993769 7.03333331,12.1570093 6.65046726,11.3021807 C6.17709473,11.8930697 5.45702298,12.2317714 4.69999996,12.2196262 C4.19283485,12.247352 2.81838002,11.9317757 2.88909653,10.4685358 C2.83956382,9.27601245 3.95015572,8.53520247 5.09875386,8.5978193 C5.31993766,8.59844235 5.77165106,8.60934578 6.5626168,8.7931464 L6.5626168,8.30654204 C6.64641742,7.48224297 6.10467287,6.8426791 5.16666663,6.93862926 C5.09190028,6.93894078 4.56230526,6.92305293 3.73862924,7.25358253 C3.50934575,7.35887848 3.48006226,7.341433 3.40373827,7.341433 C3.17289715,7.341433 3.26791273,6.67227412 3.31214949,6.58753891 C3.47445479,6.38816197 4.42928345,6.01588782 5.36635511,6.02118377 C5.99291214,5.96577171 6.61610966,6.15914311 7.10124608,6.55950153 C7.49975181,7.00525328 7.69863398,7.59458381 7.65171337,8.19065419 L7.65140185,10.3492212 Z M4.95919,11.3582554 C5.96947037,11.3436137 6.39719623,10.7361371 6.49470402,10.4090343 C6.57133954,10.0959501 6.55856695,9.8978193 6.55856695,9.5554517 C6.25732084,9.48317756 5.82367598,9.40436136 5.32616819,9.4037383 C4.85420557,9.36822429 3.9922118,9.57912771 4.02585666,10.4087227 C3.98722737,10.9317757 4.37227411,11.3869159 4.95919,11.3582554 Z M10.2838006,12.076324 C10.0389408,12.0987539 9.92492211,11.9249221 9.88878504,11.753271 L8.33738316,6.62398751 C8.30716509,6.53738315 8.2872274,6.44797505 8.27757007,6.35669779 C8.26565377,6.27833857 8.31947192,6.20514031 8.3978193,6.19314639 C8.40529593,6.19190028 8.33146416,6.19314639 9.09096572,6.19314639 C9.36448597,6.16573206 9.45358254,6.38099686 9.48193145,6.51619935 L10.594704,10.9034268 L11.6277259,6.51619935 C11.6442368,6.41588782 11.7193146,6.17133953 12.0264798,6.19719623 L12.5610592,6.19719623 C12.6286604,6.19158876 12.9071651,6.18161991 12.9560748,6.52024919 L13.9971963,10.9635514 L15.1457944,6.52024919 C15.1607477,6.45233642 15.2305296,6.16604358 15.54081,6.19719623 L16.1551402,6.19719623 C16.18162,6.19314639 16.346729,6.17196259 16.3186916,6.46448595 C16.305296,6.52211835 16.4249221,6.13239872 14.6753894,11.7573209 C14.6395639,11.928972 14.5252337,12.1028037 14.2803738,12.0803738 L13.6981308,12.0803738 C13.3573209,12.1161994 13.3084112,11.7794393 13.3031153,11.7454829 L12.2700935,7.47352023 L11.2489097,11.7411215 C11.2439252,11.7750779 11.1950156,12.111838 10.8538941,12.0760125 L10.2838006,12.0760125 L10.2838006,12.076324 Z M18.8034268,12.2517134 C18.6202493,12.2520249 17.746729,12.2423676 17.0165109,11.8688474 C16.8677506,11.8058618 16.7716799,11.6593572 16.7732087,11.4978193 L16.7732087,11.1629283 C16.7732087,10.8996885 16.9663552,10.9479751 17.0482866,10.9794392 C17.3610592,11.105919 17.5616823,11.2018692 17.9457944,11.2785047 C19.087539,11.5130841 19.5897197,11.2068536 19.7127726,11.1389408 C20.1224299,10.8956386 20.1548287,10.3389408 19.876324,10.0501558 C19.5498443,9.77632398 19.394081,9.7660436 18.2211838,9.39595014 C18.0766355,9.35576323 16.8598131,8.9719626 16.8570094,7.76479749 C16.8380063,6.8850467 17.6373832,6.01464171 19.0227415,6.02180682 C19.4174455,6.0214953 20.4691589,6.15046726 20.7538941,6.50841119 C20.7959502,6.57352022 20.8168225,6.65015574 20.8137072,6.72772583 L20.8137072,7.0426791 C20.8137072,7.18099686 20.7632399,7.25015574 20.6619938,7.25015574 C20.4218069,7.22336446 19.9956387,6.90218066 19.1305296,6.91526477 C18.9158879,6.90404982 17.8878505,6.94361368 17.9339564,7.6931464 C17.9205608,8.2838006 18.7629284,8.50529593 18.8591901,8.5308411 C19.9950156,8.87258565 20.3747664,8.92928347 20.8255452,9.45233644 C21.3595016,10.1454829 21.0716511,10.9570093 20.9610592,11.1794392 C20.3666667,12.347352 18.829595,12.2523364 18.8034268,12.2517134 Z M20.0557633,15.5183801 C17.8741433,17.129595 14.7071651,17.9872274 12.0031153,17.9872274 C8.35453343,18.0112885 4.82891218,16.6696922 2.11931459,14.2261682 C1.9158878,14.0426791 2.09532705,13.7912773 2.34267908,13.9311527 C5.34842767,15.6505168 8.75156648,16.5539251 12.2143302,16.5517134 C14.800229,16.537846 17.3579146,16.0132658 19.7404985,15.0080997 C20.1074767,14.8523365 20.4186916,15.2510904 20.0557633,15.5183801 Z M20.9651091,14.4813084 C20.6859814,14.1224299 19.1183801,14.3137072 18.4165109,14.3975078 C18.2049845,14.4214953 18.1691589,14.2380062 18.3607477,14.1024922 C19.6090343,13.2249221 21.6591901,13.476324 21.8947041,13.7713396 C22.1299066,14.0663552 21.8308412,16.1205608 20.6623053,17.1018692 C20.4828661,17.2535826 20.311215,17.1735203 20.3909658,16.9741433 C20.6538941,16.3121496 21.2442368,14.8404985 20.9651091,14.4813084 Z" id="path-1"></path>
    </defs>
    <g id="aws" stroke="none" stroke-width="1" fill="none" fill-rule="evenodd">
        <mask id="mask-2" fill="white">
            <use xlink:href="#path-1"></use>
        </mask>
        <g fill-rule="nonzero"></g>
        <g id="🎨-color" mask="url(#mask-2)" fill="#000000">
            <rect id="🎨-Color" x="0" y="0" width="24" height="24"></rect>
        </g>
    </g>
</svg>