<?xml version="1.0" encoding="UTF-8"?>
<svg width="24px" height="24px" viewBox="0 0 24 24" version="1.1" xmlns="http://www.w3.org/2000/svg" xmlns:xlink="http://www.w3.org/1999/xlink">
    <!-- Generator: Sketch 52.5 (67469) - http://www.bohemiancoding.com/sketch -->
    <title>backspace</title>
    <desc>Created with Sketch.</desc>
    <defs>
        <path d="M20.0031202,6.00936034 L8.4355694,6.00936034 C7.90586596,6.00925468 7.39784502,6.21971408 7.02340091,6.59438375 L2.32355689,11.2939158 C1.93354129,11.6839314 1.93354129,12.3160686 2.32355689,12.7057722 L7.02340091,17.4056163 C7.39781589,17.7800312 7.90577221,17.9906397 8.43525739,17.9906397 L20.0031202,17.9906397 C21.1060843,17.9906397 22,17.0967239 22,15.9937598 L22,8.00624023 C22,6.90327611 21.1060843,6.00936034 20.0031202,6.00936034 Z M17.3606865,13.9363495 C17.5556943,14.1313573 17.5556943,14.4474259 17.3606865,14.6424337 L16.6549142,15.3482059 C16.4599064,15.5432137 16.1438378,15.5432137 15.94883,15.3482059 L14.0124805,13.4118565 L12.076131,15.3482059 C11.8811232,15.5432137 11.5650546,15.5432137 11.3700468,15.3482059 L10.6642746,14.6424337 C10.4692668,14.4474259 10.4692668,14.1313573 10.6642746,13.9363495 L12.600624,12 L10.6642746,10.0636505 C10.4692668,9.86864274 10.4692668,9.55257409 10.6642746,9.35756629 L11.3700468,8.65179406 C11.5650546,8.45678625 11.8811232,8.45678625 12.076131,8.65179406 L14.0124805,10.5881435 L15.94883,8.65179406 C16.1438378,8.45678625 16.4599064,8.45678625 16.6549142,8.65179406 L17.3606865,9.35756629 C17.5556943,9.55257409 17.5556943,9.86864274 17.3606865,10.0636505 L15.424337,12 L17.3606865,13.9363495 Z" id="path-1"></path>
    </defs>
    <g id="backspace" stroke="none" stroke-width="1" fill="none" fill-rule="evenodd">
        <mask id="mask-2" fill="white">
            <use xlink:href="#path-1"></use>
        </mask>
        <g fill-rule="nonzero"></g>
        <g id="🎨-color" mask="url(#mask-2)" fill="#000000">
            <rect id="🎨-Color" x="0" y="0" width="24" height="24"></rect>
        </g>
    </g>
</svg>