<?xml version="1.0" encoding="UTF-8"?>
<svg width="24px" height="24px" viewBox="0 0 24 24" version="1.1" xmlns="http://www.w3.org/2000/svg" xmlns:xlink="http://www.w3.org/1999/xlink">
    <!-- Generator: Sketch 52.5 (67469) - http://www.bohemiancoding.com/sketch -->
    <title>balance-scale</title>
    <desc>Created with Sketch.</desc>
    <defs>
        <path d="M9.99999999,14.5 L9.99937499,14.5 C9.99937499,13.994375 10.04125,14.2271875 7.34156248,8.82781248 C6.78999997,7.72499998 5.21062497,7.72281248 4.65812496,8.82781248 C1.93562495,14.2734375 2.00062495,14.0103125 2.00062495,14.5 L1.99999995,14.5 C1.99999995,15.880625 3.79093746,17 5.99999997,17 C8.20906248,17 9.99999999,15.880625 9.99999999,14.5 Z M5.99999997,9.49999999 L8.24999998,14 L3.74999996,14 L5.99999997,9.49999999 Z M21.999375,14.5 C21.999375,13.994375 22.0412501,14.2271875 19.3415625,8.82781248 C18.79,7.72499998 17.210625,7.72281248 16.658125,8.82781248 C13.935625,14.2734375 14.000625,14.0103125 14.000625,14.5 L14,14.5 C14,15.880625 15.7909375,17 18,17 C20.2090625,17 22.0000001,15.880625 22.0000001,14.5 L21.999375,14.5 Z M15.75,14 L18,9.49999999 L20.25,14 L15.75,14 Z M18.5,18 L13,18 L13,8.78906248 C13.7346875,8.46749998 14.28625,7.80531248 14.4496875,6.99999997 L18.5,6.99999997 C18.77625,6.99999997 19,6.77624997 19,6.49999997 L19,5.49999997 C19,5.22374997 18.77625,4.99999996 18.5,4.99999996 L13.98875,4.99999996 C13.5325,4.39624996 12.8153125,3.99999996 12,3.99999996 C11.1846875,3.99999996 10.4675,4.39624996 10.01125,4.99999996 L5.49999997,4.99999996 C5.22374997,4.99999996 4.99999996,5.22374997 4.99999996,5.49999997 L4.99999996,6.49999997 C4.99999996,6.77624997 5.22374997,6.99999997 5.49999997,6.99999997 L9.55031249,6.99999997 C9.71374999,7.80499998 10.265,8.46749998 11,8.78906248 L11,18 L5.49999997,18 C5.22374997,18 4.99999996,18.22375 4.99999996,18.5 L4.99999996,19.5 C4.99999996,19.77625 5.22374997,20 5.49999997,20 L18.5,20 C18.77625,20 19,19.77625 19,19.5 L19,18.5 C19,18.22375 18.77625,18 18.5,18 Z" id="path-1"></path>
    </defs>
    <g id="balance-scale" stroke="none" stroke-width="1" fill="none" fill-rule="evenodd">
        <mask id="mask-2" fill="white">
            <use xlink:href="#path-1"></use>
        </mask>
        <g fill-rule="nonzero"></g>
        <g id="🎨-color" mask="url(#mask-2)" fill="#000000">
            <rect id="🎨-Color" x="0" y="0" width="24" height="24"></rect>
        </g>
    </g>
</svg>