<?xml version="1.0" encoding="UTF-8"?>
<svg width="24px" height="24px" viewBox="0 0 24 24" version="1.1" xmlns="http://www.w3.org/2000/svg" xmlns:xlink="http://www.w3.org/1999/xlink">
    <!-- Generator: Sketch 52.5 (67469) - http://www.bohemiancoding.com/sketch -->
    <title>barcode</title>
    <desc>Created with Sketch.</desc>
    <defs>
        <path d="M1.99999995,19.5 L1.99999995,4.49999996 L2.70312495,4.49999996 L2.70312495,19.5 L1.99999995,19.5 Z M3.04910152,19.489336 L3.04910152,4.49999996 L3.40624996,4.49999996 L3.40624996,19.489336 L3.04910152,19.489336 Z M4.10937496,19.489336 L4.10937496,4.49999996 L4.45535152,4.49999996 L4.45535152,19.489336 L4.10937496,19.489336 Z M5.86160153,19.489336 L5.86160153,4.49999996 L6.2075781,4.49999996 L6.2075781,19.489336 L5.86160153,19.489336 Z M7.26785154,19.489336 L7.26785154,4.49999996 L7.95980467,4.49999996 L7.95980467,19.489336 L7.26785154,19.489336 Z M9.02007811,19.489336 L9.02007811,4.49999996 L9.36605467,4.49999996 L9.36605467,19.489336 L9.02007811,19.489336 Z M9.72320311,19.489336 L9.72320311,4.49999996 L10.0691797,4.49999996 L10.0691797,19.489336 L9.72320311,19.489336 Z M10.4263281,19.489336 L10.4263281,4.49999996 L10.7723047,4.49999996 L10.7723047,19.489336 L10.4263281,19.489336 Z M11.8214453,19.489336 L11.8214453,4.49999996 L12.5245703,4.49999996 L12.5245703,19.489336 L11.8214453,19.489336 Z M13.5736719,19.489336 L13.5736719,4.49999996 L14.2767969,4.49999996 L14.2767969,19.489336 L13.5736719,19.489336 Z M14.9798828,19.489336 L14.9798828,4.49999996 L15.6830469,4.49999996 L15.6830469,19.489336 L14.9798828,19.489336 Z M16.3861719,19.489336 L16.3861719,4.49999996 L17.089336,4.49999996 L17.089336,19.489336 L16.3861719,19.489336 Z M17.4352735,19.489336 L17.4352735,4.49999996 L18.1383985,4.49999996 L18.1383985,19.489336 L17.4352735,19.489336 Z M19.1986719,19.489336 L19.1986719,4.49999996 L20.2477735,4.49999996 L20.2477735,19.489336 L19.1986719,19.489336 Z M20.59375,19.489336 L20.59375,4.49999996 L20.9508985,4.49999996 L20.9508985,19.489336 L20.59375,19.489336 Z M21.296875,19.5 L21.296875,4.49999996 L22.0000001,4.49999996 L22.0000001,19.5 L21.296875,19.5 Z" id="path-1"></path>
    </defs>
    <g id="barcode" stroke="none" stroke-width="1" fill="none" fill-rule="evenodd">
        <mask id="mask-2" fill="white">
            <use xlink:href="#path-1"></use>
        </mask>
        <g fill-rule="nonzero"></g>
        <g id="🎨-color" mask="url(#mask-2)" fill="#000000">
            <rect id="🎨-Color" x="0" y="0" width="24" height="24"></rect>
        </g>
    </g>
</svg>