<?xml version="1.0" encoding="UTF-8"?>
<svg width="24px" height="24px" viewBox="0 0 24 24" version="1.1" xmlns="http://www.w3.org/2000/svg" xmlns:xlink="http://www.w3.org/1999/xlink">
    <!-- Generator: Sketch 52.5 (67469) - http://www.bohemiancoding.com/sketch -->
    <title>bars</title>
    <desc>Created with Sketch.</desc>
    <defs>
        <path d="M3.87499996,7.15624998 L20.125,7.15624998 C20.4701954,7.15624998 20.75,6.87644529 20.75,6.53124997 L20.75,4.96874996 C20.75,4.62355465 20.4701954,4.34374996 20.125,4.34374996 L3.87499996,4.34374996 C3.52980465,4.34374996 3.24999996,4.62355465 3.24999996,4.96874996 L3.24999996,6.53124997 C3.24999996,6.87644529 3.52980465,7.15624998 3.87499996,7.15624998 Z M3.87499996,13.40625 L20.125,13.40625 C20.4701954,13.40625 20.75,13.1264453 20.75,12.78125 L20.75,11.21875 C20.75,10.8735547 20.4701954,10.59375 20.125,10.59375 L3.87499996,10.59375 C3.52980465,10.59375 3.24999996,10.8735547 3.24999996,11.21875 L3.24999996,12.78125 C3.24999996,13.1264453 3.52980465,13.40625 3.87499996,13.40625 Z M3.87499996,19.65625 L20.125,19.65625 C20.4701954,19.65625 20.75,19.3764453 20.75,19.03125 L20.75,17.46875 C20.75,17.1235547 20.4701954,16.84375 20.125,16.84375 L3.87499996,16.84375 C3.52980465,16.84375 3.24999996,17.1235547 3.24999996,17.46875 L3.24999996,19.03125 C3.24999996,19.3764453 3.52980465,19.65625 3.87499996,19.65625 Z" id="path-1"></path>
    </defs>
    <g id="bars" stroke="none" stroke-width="1" fill="none" fill-rule="evenodd">
        <mask id="mask-2" fill="white">
            <use xlink:href="#path-1"></use>
        </mask>
        <g fill-rule="nonzero"></g>
        <g id="🎨-color" mask="url(#mask-2)" fill="#000000">
            <rect id="🎨-Color" x="0" y="0" width="24" height="24"></rect>
        </g>
    </g>
</svg>