<?xml version="1.0" encoding="UTF-8"?>
<svg width="24px" height="24px" viewBox="0 0 24 24" version="1.1" xmlns="http://www.w3.org/2000/svg" xmlns:xlink="http://www.w3.org/1999/xlink">
    <!-- Generator: Sketch 52.5 (67469) - http://www.bohemiancoding.com/sketch -->
    <title>baseball-ball</title>
    <desc>Created with Sketch.</desc>
    <defs>
        <path d="M16.7070313,16.2148438 L17.8320313,15.671875 C18.265625,16.5664063 18.8476563,17.359375 19.5546875,18.0507813 C20.8828125,16.390625 21.6835938,14.2890625 21.6835938,12 C21.6835938,9.71484374 20.8867188,7.61718748 19.5664063,5.96093747 C18.8710938,6.63671872 18.2929688,7.41015623 17.8632813,8.28515623 L16.7421875,7.73437498 C17.2421875,6.71874997 17.9140625,5.82031247 18.7265625,5.03906247 C16.984375,3.35546871 14.6171875,2.31249995 12,2.31249995 C9.38671874,2.31249995 7.01953123,3.35156246 5.27734372,5.03515622 C6.08593747,5.81249997 6.75781247,6.71093747 7.25781248,7.72265623 L6.13671872,8.27343748 C5.70703122,7.40234373 5.13281247,6.62890622 4.43749996,5.95312497 C3.10937496,7.61328123 2.31249995,9.71093749 2.31249995,12 C2.31249995,14.2890625 3.10937496,16.3867188 4.43749996,18.0429688 C5.14843747,17.3515625 5.73437497,16.5585938 6.16796872,15.6601563 L7.29296873,16.203125 C6.78906247,17.2460938 6.10937497,18.1679688 5.28124997,18.9648438 C7.01953123,20.6484375 9.38671874,21.6875 12,21.6875 C14.609375,21.6875 16.9726563,20.6523438 18.7148438,18.9726563 C17.890625,18.1757813 17.2109375,17.2578125 16.7070313,16.2148438 Z M7.78906248,14.9648438 L6.59765622,14.5820313 C7.17968748,12.7695313 7.09374998,10.9179687 6.57421872,9.34765624 L7.76171873,8.95703123 C8.34765623,10.7382812 8.46484373,12.859375 7.78906248,14.9648438 Z M16.2382813,8.97265623 L17.4257813,9.36328124 C16.9101563,10.9296875 16.8203125,12.78125 17.4023438,14.5976563 L16.2109375,14.9804688 C15.5351563,12.8710938 15.6523438,10.75 16.2382813,8.97265623 Z" id="path-1"></path>
    </defs>
    <g id="baseball-ball" stroke="none" stroke-width="1" fill="none" fill-rule="evenodd">
        <mask id="mask-2" fill="white">
            <use xlink:href="#path-1"></use>
        </mask>
        <g fill-rule="nonzero"></g>
        <g id="🎨-color" mask="url(#mask-2)" fill="#000000">
            <rect id="🎨-Color" x="0" y="0" width="24" height="24"></rect>
        </g>
    </g>
</svg>