<?xml version="1.0" encoding="UTF-8"?>
<svg width="24px" height="24px" viewBox="0 0 24 24" version="1.1" xmlns="http://www.w3.org/2000/svg" xmlns:xlink="http://www.w3.org/1999/xlink">
    <!-- Generator: Sketch 52.5 (67469) - http://www.bohemiancoding.com/sketch -->
    <title>basketball-ball</title>
    <desc>Created with Sketch.</desc>
    <defs>
        <path d="M10.6054687,2.4023437 C8.89453123,2.64843745 7.23828123,3.34374996 5.83203122,4.50390621 L8.85546873,7.52734373 C9.94140624,6.12890622 10.546875,4.35546871 10.6054687,2.4023437 Z M12,10.671875 L18.1679688,4.50390621 C16.5117188,3.13671871 14.5117188,2.41406245 12.484375,2.31249995 C12.4375,4.80859371 11.6445312,7.08984373 10.1914062,8.86328123 L12,10.671875 Z M4.50390621,5.83203122 C3.34374996,7.23828123 2.64843745,8.89453123 2.4023437,10.6054687 C4.35546871,10.546875 6.13281247,9.94140624 7.52734373,8.85546873 L4.50390621,5.83203122 Z M15.1367188,13.8085938 C16.90625,12.359375 19.1875,11.5664062 21.6875,11.515625 C21.5859375,9.48828124 20.8632813,7.48828123 19.4960938,5.83203122 L13.328125,12 L15.1367188,13.8085938 Z M12,13.328125 L5.83203122,19.4960938 C7.48828123,20.859375 9.48828124,21.5859375 11.515625,21.6875 C11.5664062,19.1875 12.359375,16.90625 13.8085938,15.1367188 L12,13.328125 Z M19.4960938,18.1679688 C20.65625,16.7617188 21.3515625,15.1054688 21.5976563,13.3945313 C19.640625,13.4570313 17.8671875,14.0625 16.4726563,15.1445313 L19.4960938,18.1679688 Z M8.86328123,10.1914062 C7.08984373,11.6445312 4.80859371,12.4414063 2.31249995,12.484375 C2.41406245,14.5117188 3.13671871,16.5117188 4.50390621,18.1679688 L10.671875,12 L8.86328123,10.1914062 Z M13.3945313,21.5976563 C15.1054688,21.3515625 16.7617188,20.65625 18.1679688,19.4960938 L15.1445313,16.4726563 C14.0625,17.8671875 13.4570313,19.6445313 13.3945313,21.5976563 Z" id="path-1"></path>
    </defs>
    <g id="basketball-ball" stroke="none" stroke-width="1" fill="none" fill-rule="evenodd">
        <mask id="mask-2" fill="white">
            <use xlink:href="#path-1"></use>
        </mask>
        <g fill-rule="nonzero"></g>
        <g id="🎨-color" mask="url(#mask-2)" fill="#000000">
            <rect id="🎨-Color" x="0" y="0" width="24" height="24"></rect>
        </g>
    </g>
</svg>