<?xml version="1.0" encoding="UTF-8"?>
<svg width="24px" height="24px" viewBox="0 0 24 24" version="1.1" xmlns="http://www.w3.org/2000/svg" xmlns:xlink="http://www.w3.org/1999/xlink">
    <!-- Generator: Sketch 52.5 (67469) - http://www.bohemiancoding.com/sketch -->
    <title>bath</title>
    <desc>Created with Sketch.</desc>
    <defs>
        <path d="M21.0625,12 L5.12499997,12 L5.12499997,6.37499997 C5.12499997,5.68574216 5.68574216,5.12499997 6.37499997,5.12499997 C6.81839841,5.12499997 7.20828123,5.35722653 7.43027341,5.70624997 C6.78605466,6.69089841 6.85656247,8.03343748 7.69738279,8.94980467 C7.53425779,9.13390624 7.54031248,9.41527342 7.71656248,9.59152343 L8.15851561,10.0334766 C8.34156248,10.2165234 8.63835936,10.2165234 8.8214453,10.0334766 L12.5335547,6.32140622 C12.7166016,6.13835935 12.7166016,5.84156247 12.5335547,5.65847653 L12.0916016,5.2165234 C11.9153516,5.0402734 11.6339844,5.03425778 11.4498828,5.19734372 C10.74875,4.5540234 9.79777343,4.3602734 8.94292967,4.5971484 C8.37816404,3.78386715 7.43796873,3.24999996 6.37499997,3.24999996 C4.65187496,3.24999996 3.24999996,4.65187496 3.24999996,6.37499997 L3.24999996,12 L2.93749995,12 C2.41972651,12 1.99999995,12.4197266 1.99999995,12.9375 L1.99999995,13.5625 C1.99999995,14.0802734 2.41972651,14.5 2.93749995,14.5 L3.24999996,14.5 L3.24999996,15.75 C3.24999996,16.8605469 3.73289058,17.8581641 4.49999996,18.5448047 L4.49999996,19.8125 C4.49999996,20.3302735 4.91972653,20.75 5.43749997,20.75 L6.06249997,20.75 C6.58027341,20.75 6.99999997,20.3302735 6.99999997,19.8125 L6.99999997,19.5 L17,19.5 L17,19.8125 C17,20.3302735 17.4197266,20.75 17.9375,20.75 L18.5625,20.75 C19.0802735,20.75 19.5,20.3302735 19.5,19.8125 L19.5,18.5448047 C20.2671094,17.8581641 20.75,16.8605469 20.75,15.75 L20.75,14.5 L21.0625,14.5 C21.5802735,14.5 22.0000001,14.0802734 22.0000001,13.5625 L22.0000001,12.9375 C22.0000001,12.4197266 21.5802735,12 21.0625,12 Z" id="path-1"></path>
    </defs>
    <g id="bath" stroke="none" stroke-width="1" fill="none" fill-rule="evenodd">
        <mask id="mask-2" fill="white">
            <use xlink:href="#path-1"></use>
        </mask>
        <g></g>
        <g id="🎨-color" mask="url(#mask-2)" fill="#000000">
            <rect id="🎨-Color" x="0" y="0" width="24" height="24"></rect>
        </g>
    </g>
</svg>