<?xml version="1.0" encoding="UTF-8"?>
<svg width="24px" height="24px" viewBox="0 0 24 24" version="1.1" xmlns="http://www.w3.org/2000/svg" xmlns:xlink="http://www.w3.org/1999/xlink">
    <!-- Generator: Sketch 52.5 (67469) - http://www.bohemiancoding.com/sketch -->
    <title>bed</title>
    <desc>Created with Sketch.</desc>
    <defs>
        <path d="M7.49999998,12 C8.87843748,12 9.99999999,10.8784375 9.99999999,9.49999999 C9.99999999,8.12156248 8.87843748,6.99999998 7.49999998,6.99999998 C6.12156247,6.99999998 4.99999996,8.12156248 4.99999996,9.49999999 C4.99999996,10.8784375 6.12156247,12 7.49999998,12 Z M18.5,7.99999998 L11.5,7.99999998 C11.22375,7.99999998 11,8.22374998 11,8.49999998 L11,13 L3.99999996,13 L3.99999996,6.49999997 C3.99999996,6.22374997 3.77624996,5.99999997 3.49999996,5.99999997 L2.49999995,5.99999997 C2.22374995,5.99999997 1.99999995,6.22374997 1.99999995,6.49999997 L1.99999995,17.5 C1.99999995,17.77625 2.22374995,18 2.49999995,18 L3.49999996,18 C3.77624996,18 3.99999996,17.77625 3.99999996,17.5 L3.99999996,16 L20,16 L20,17.5 C20,17.77625 20.22375,18 20.5,18 L21.5,18 C21.77625,18 22.0000001,17.77625 22.0000001,17.5 L22.0000001,11.5 C22.0000001,9.56687499 20.433125,7.99999998 18.5,7.99999998 Z" id="path-1"></path>
    </defs>
    <g id="bed" stroke="none" stroke-width="1" fill="none" fill-rule="evenodd">
        <mask id="mask-2" fill="white">
            <use xlink:href="#path-1"></use>
        </mask>
        <g fill-rule="nonzero"></g>
        <g id="🎨-color" mask="url(#mask-2)" fill="#000000">
            <rect id="🎨-Color" x="0" y="0" width="24" height="24"></rect>
        </g>
    </g>
</svg>