<?xml version="1.0" encoding="UTF-8"?>
<svg width="24px" height="24px" viewBox="0 0 24 24" version="1.1" xmlns="http://www.w3.org/2000/svg" xmlns:xlink="http://www.w3.org/1999/xlink">
    <!-- Generator: Sketch 52.5 (67469) - http://www.bohemiancoding.com/sketch -->
    <title>beer</title>
    <desc>Created with Sketch.</desc>
    <defs>
        <path d="M17.625,5.74999997 L15.75,5.74999997 L15.75,4.18749996 C15.75,3.66972652 15.3302735,3.24999996 14.8125,3.24999996 L4.18749996,3.24999996 C3.66972652,3.24999996 3.24999996,3.66972652 3.24999996,4.18749996 L3.24999996,19.8125 C3.24999996,20.3302735 3.66972652,20.75 4.18749996,20.75 L14.8125,20.75 C15.3302735,20.75 15.75,20.3302735 15.75,19.8125 L15.75,18.1675782 L18.8986719,16.7622266 C20.0232813,16.2602735 20.75,15.1401563 20.75,13.9085938 L20.75,8.87499998 C20.75,7.15187498 19.348125,5.74999997 17.625,5.74999997 Z M18.25,13.9085938 C18.2498228,14.1551825 18.1048326,14.3786715 17.8797266,14.4793359 L15.75,15.4298828 L15.75,8.24999998 L17.625,8.24999998 C17.9696094,8.24999998 18.25,8.53039061 18.25,8.87499998 L18.25,13.9085938 Z M11.375,17 C11.0298437,17 10.75,16.7201563 10.75,16.375 L10.75,7.62499998 C10.75,7.27984373 11.0298437,6.99999997 11.375,6.99999997 C11.7201562,6.99999997 12,7.27984373 12,7.62499998 L12,16.375 C12,16.7201563 11.7201562,17 11.375,17 Z M7.62499998,17 C7.27984373,17 6.99999997,16.7201563 6.99999997,16.375 L6.99999997,7.62499998 C6.99999997,7.27984373 7.27984373,6.99999997 7.62499998,6.99999997 C7.97015623,6.99999997 8.24999998,7.27984373 8.24999998,7.62499998 L8.24999998,16.375 C8.24999998,16.7201563 7.97015623,17 7.62499998,17 Z" id="path-1"></path>
    </defs>
    <g id="beer" stroke="none" stroke-width="1" fill="none" fill-rule="evenodd">
        <mask id="mask-2" fill="white">
            <use xlink:href="#path-1"></use>
        </mask>
        <g fill-rule="nonzero"></g>
        <g id="🎨-color" mask="url(#mask-2)" fill="#000000">
            <rect id="🎨-Color" x="0" y="0" width="24" height="24"></rect>
        </g>
    </g>
</svg>