<?xml version="1.0" encoding="UTF-8"?>
<svg width="24px" height="24px" viewBox="0 0 24 24" version="1.1" xmlns="http://www.w3.org/2000/svg" xmlns:xlink="http://www.w3.org/1999/xlink">
    <!-- Generator: Sketch 52.5 (67469) - http://www.bohemiancoding.com/sketch -->
    <title>behance-square</title>
    <desc>Created with Sketch.</desc>
    <defs>
        <path d="M10.5351562,13.4453125 C10.5351562,14.1992188 9.98828124,14.4375 9.31640624,14.4375 L7.55468748,14.4375 L7.55468748,12.3710938 L9.35156249,12.3710938 C10.078125,12.375 10.5351562,12.6757813 10.5351562,13.4453125 Z M10.234375,10.2304687 C10.234375,9.53906249 9.69921874,9.37499999 9.10546874,9.37499999 L7.55859373,9.37499999 L7.55859373,11.125 L9.22656249,11.125 C9.81640624,11.125 10.234375,10.8671875 10.234375,10.2304687 Z M15.4023438,11.1367187 C14.6875,11.1367187 14.2109375,11.5820312 14.1640625,12.296875 L16.59375,12.296875 C16.5273438,11.5742187 16.1523438,11.1367187 15.4023438,11.1367187 Z M20.75,5.12499997 L20.75,18.875 C20.75,19.9101563 19.9101563,20.75 18.875,20.75 L5.12499997,20.75 C4.08984371,20.75 3.24999996,19.9101563 3.24999996,18.875 L3.24999996,5.12499997 C3.24999996,4.08984371 4.08984371,3.24999996 5.12499997,3.24999996 L18.875,3.24999996 C19.9101563,3.24999996 20.75,4.08984371 20.75,5.12499997 Z M13.8632813,9.22656249 L16.9023438,9.22656249 L16.9023438,8.48828123 L13.8632813,8.48828123 L13.8632813,9.22656249 Z M12.1835938,13.5351563 C12.1835938,12.59375 11.7382812,11.78125 10.8164062,11.5195312 C11.4882812,11.1992187 11.8398437,10.828125 11.8398437,10.0742187 C11.8398437,8.58203123 10.7265625,8.21874998 9.44140624,8.21874998 L5.90624997,8.21874998 L5.90624997,15.71875 L9.54296874,15.71875 C10.90625,15.7109375 12.1835938,15.0585938 12.1835938,13.5351563 Z M18.09375,12.9570313 C18.09375,11.3515625 17.1523438,10.0117187 15.453125,10.0117187 C13.796875,10.0117187 12.6757813,11.2539062 12.6757813,12.8867188 C12.6757813,14.578125 13.7421875,15.7382813 15.453125,15.7382813 C16.75,15.7382813 17.5898438,15.15625 17.9960938,13.9101563 L16.6796875,13.9101563 C16.5351563,14.375 15.953125,14.6171875 15.5,14.6171875 C14.625,14.6171875 14.1679688,14.1054688 14.1679688,13.2382813 L18.0820313,13.2382813 C18.0859375,13.1484375 18.09375,13.0507813 18.09375,12.9570313 Z" id="path-1"></path>
    </defs>
    <g id="behance-square" stroke="none" stroke-width="1" fill="none" fill-rule="evenodd">
        <mask id="mask-2" fill="white">
            <use xlink:href="#path-1"></use>
        </mask>
        <g fill-rule="nonzero"></g>
        <g id="🎨-color" mask="url(#mask-2)" fill="#000000">
            <rect id="🎨-Color" x="0" y="0" width="24" height="24"></rect>
        </g>
    </g>
</svg>