<?xml version="1.0" encoding="UTF-8"?>
<svg width="24px" height="24px" viewBox="0 0 24 24" version="1.1" xmlns="http://www.w3.org/2000/svg" xmlns:xlink="http://www.w3.org/1999/xlink">
    <!-- Generator: Sketch 52.5 (67469) - http://www.bohemiancoding.com/sketch -->
    <title>behance</title>
    <desc>Created with Sketch.</desc>
    <defs>
        <path d="M10.0555555,11.3472222 C11.1597222,10.8194444 11.7361111,10.0208333 11.7361111,8.77777776 C11.7361111,6.32638886 9.90972221,5.72916664 7.80208331,5.72916664 L1.99999995,5.72916664 L1.99999995,18.0347223 L7.96527776,18.0347223 C10.2013889,18.0347223 12.3020833,16.9618056 12.3020833,14.4618056 C12.3020833,12.9166667 11.5694444,11.7743056 10.0555555,11.3472222 Z M4.70486107,7.82986109 L7.24305553,7.82986109 C8.21874998,7.82986109 9.09722221,8.10416665 9.09722221,9.2361111 C9.09722221,10.28125 8.41319443,10.7013889 7.44791664,10.7013889 L4.70486107,10.7013889 L4.70486107,7.82986109 Z M7.5972222,15.9444445 L4.70486107,15.9444445 L4.70486107,12.5555556 L7.65277776,12.5555556 C8.84374998,12.5555556 9.59722221,13.0520833 9.59722221,14.3125 C9.59722221,15.5555556 8.69791665,15.9444445 7.5972222,15.9444445 Z M20.0451389,7.58680553 L15.0555556,7.58680553 L15.0555556,6.37499997 L20.0451389,6.37499997 L20.0451389,7.58680553 Z M22.0000001,13.7083333 C22.0000001,11.0729167 20.4583334,8.87499998 17.6631945,8.87499998 C14.9479167,8.87499998 13.1041667,10.9166667 13.1041667,13.5902778 C13.1041667,16.3645834 14.8506945,18.2673611 17.6631945,18.2673611 C19.7916667,18.2673611 21.1701389,17.3090278 21.8333334,15.2708333 L19.6736111,15.2708333 C19.4409723,16.03125 18.4826389,16.4340278 17.7395834,16.4340278 C16.3055556,16.4340278 15.5520834,15.59375 15.5520834,14.1666667 L21.9791667,14.1666667 C21.9895834,14.0208333 22.0000001,13.8645833 22.0000001,13.7083333 Z M15.5555556,12.625 C15.6354167,11.4548611 16.4131945,10.7222222 17.5868056,10.7222222 C18.8159723,10.7222222 19.4340278,11.4444444 19.5381945,12.625 L15.5555556,12.625 Z" id="path-1"></path>
    </defs>
    <g id="behance" stroke="none" stroke-width="1" fill="none" fill-rule="evenodd">
        <mask id="mask-2" fill="white">
            <use xlink:href="#path-1"></use>
        </mask>
        <g fill-rule="nonzero"></g>
        <g id="🎨-color" mask="url(#mask-2)" fill="#000000">
            <rect id="🎨-Color" x="0" y="0" width="24" height="24"></rect>
        </g>
    </g>
</svg>