<?xml version="1.0" encoding="UTF-8"?>
<svg width="24px" height="24px" viewBox="0 0 24 24" version="1.1" xmlns="http://www.w3.org/2000/svg" xmlns:xlink="http://www.w3.org/1999/xlink">
    <!-- Generator: Sketch 52.5 (67469) - http://www.bohemiancoding.com/sketch -->
    <title>bell-slash</title>
    <desc>Created with Sketch.</desc>
    <defs>
        <path d="M21.8124805,18.7088924 L3.15444613,4.12199684 C2.93915752,3.94976595 2.62496095,3.98439934 2.45273006,4.19968795 L2.14071758,4.58939154 C1.96817468,4.80468015 2.00312007,5.11887672 2.21840869,5.29110761 L20.8767551,19.8780032 C21.0920437,20.050234 21.4059283,20.0152887 21.5784712,19.8003121 L21.8904837,19.4106085 C22.0627146,19.1953198 22.0280812,18.8811233 21.8124805,18.7088924 Z M7.13354132,15.4945398 C7.65491417,14.8071763 8.20936036,13.7535101 8.42527299,12.0443058 L7.00655224,10.9351014 C6.90452416,13.7659906 5.86864272,14.700468 5.29547579,15.3163807 C5.1082683,15.5176287 5.02527298,15.7581903 5.02683304,15.9937598 C5.03026518,16.5054602 5.43182524,16.9921997 6.02839311,16.9921997 L14.7541342,16.9921997 L12.8383775,15.4945398 L7.13354132,15.4945398 Z M12.0156006,7.00780029 C13.9457098,7.00780029 15.5101404,8.57223087 15.5101404,10.5023401 C15.5101404,10.5085803 15.5082683,10.5141966 15.5082683,10.5204368 C15.5088924,11.0458658 15.5444618,11.5117005 15.5953198,11.9472699 L17.4527301,13.399376 C17.1934478,12.7088924 17.0053042,11.7928237 17.0053042,10.5023401 C17.0053042,8.0780031 15.3054602,6.13728546 13.0134165,5.66115441 L13.0134165,5.0109204 C13.0134165,4.45959435 12.5666147,4.01248046 12.0156006,4.01248046 C11.4645866,4.01248046 11.0177847,4.45959435 11.0177847,5.0109204 L11.0177847,5.66115441 C10.2059282,5.82995317 9.47488298,6.18970356 8.86084242,6.68205926 L10.0517941,7.6131045 C10.6115445,7.23182525 11.2870515,7.00780029 12.0156006,7.00780029 Z M12.0156006,19.9875195 C13.1176287,19.9875195 14.0115445,19.0936038 14.0115445,17.9906397 L10.0196568,17.9906397 C10.0196568,19.0936038 10.9135725,19.9875195 12.0156006,19.9875195 Z" id="path-1"></path>
    </defs>
    <g id="bell-slash" stroke="none" stroke-width="1" fill="none" fill-rule="evenodd">
        <mask id="mask-2" fill="white">
            <use xlink:href="#path-1"></use>
        </mask>
        <g fill-rule="nonzero"></g>
        <g id="🎨-color" mask="url(#mask-2)" fill="#000000">
            <rect id="🎨-Color" x="0" y="0" width="24" height="24"></rect>
        </g>
    </g>
</svg>