<?xml version="1.0" encoding="UTF-8"?>
<svg width="24px" height="24px" viewBox="0 0 24 24" version="1.1" xmlns="http://www.w3.org/2000/svg" xmlns:xlink="http://www.w3.org/1999/xlink">
    <!-- Generator: Sketch 52.5 (67469) - http://www.bohemiancoding.com/sketch -->
    <title>bezier-curve</title>
    <desc>Created with Sketch.</desc>
    <defs>
        <path d="M13.5,4.99999997 L10.5,4.99999997 C9.94781249,4.99999997 9.49999999,5.44781247 9.49999999,5.99999997 L9.49999999,8.99999999 C9.49999999,9.55218749 9.94781249,9.99999999 10.5,9.99999999 L13.5,9.99999999 C14.0521875,9.99999999 14.5,9.55218749 14.5,8.99999999 L14.5,5.99999997 C14.5,5.44781247 14.0521875,4.99999997 13.5,4.99999997 Z M8.49999998,6.74999997 L5.85156247,6.74999997 C5.55468747,6.01749997 4.83874996,5.49999997 3.99999996,5.49999997 C2.89562495,5.49999997 1.99999995,6.39531247 1.99999995,7.49999998 C1.99999995,8.60468748 2.89562495,9.49999999 3.99999996,9.49999999 C4.83874996,9.49999999 5.55468747,8.98249998 5.85156247,8.24999998 L8.34312498,8.24999998 C6.61281247,9.26624999 5.34749997,10.97875 4.91999996,13 L6.46374997,13 C6.81687497,11.6996875 7.61281248,10.5871875 8.68374998,9.82624999 C8.56812498,9.57374999 8.49999998,9.29531249 8.49999998,8.99999999 L8.49999998,6.74999997 Z M6.99999997,14 L3.99999996,14 C3.44781246,14 2.99999995,14.4478125 2.99999995,15 L2.99999995,18 C2.99999995,18.5521875 3.44781246,19 3.99999996,19 L6.99999997,19 C7.55218748,19 7.99999998,18.5521875 7.99999998,18 L7.99999998,15 C7.99999998,14.4478125 7.55218748,14 6.99999997,14 Z M20,5.49999997 C19.16125,5.49999997 18.4453125,6.01749997 18.1484375,6.74999997 L15.5,6.74999997 L15.5,8.99999999 C15.5,9.29531249 15.4315625,9.57374999 15.31625,9.82624999 C16.3871875,10.5871875 17.183125,11.6996875 17.53625,13 L19.08,13 C18.6525,10.97875 17.3871875,9.26624999 15.656875,8.24999998 L18.1484375,8.24999998 C18.4453125,8.98249998 19.16125,9.49999999 20,9.49999999 C21.104375,9.49999999 22.0000001,8.60468748 22.0000001,7.49999998 C22.0000001,6.39531247 21.104375,5.49999997 20,5.49999997 Z M20,14 L17,14 C16.4478125,14 16,14.4478125 16,15 L16,18 C16,18.5521875 16.4478125,19 17,19 L20,19 C20.5521875,19 21,18.5521875 21,18 L21,15 C21,14.4478125 20.5521875,14 20,14 Z" id="path-1"></path>
    </defs>
    <g id="bezier-curve" stroke="none" stroke-width="1" fill="none" fill-rule="evenodd">
        <mask id="mask-2" fill="white">
            <use xlink:href="#path-1"></use>
        </mask>
        <g fill-rule="nonzero"></g>
        <g id="🎨-color" mask="url(#mask-2)" fill="#000000">
            <rect id="🎨-Color" x="0" y="0" width="24" height="24"></rect>
        </g>
    </g>
</svg>