<?xml version="1.0" encoding="UTF-8"?>
<svg width="24px" height="24px" viewBox="0 0 24 24" version="1.1" xmlns="http://www.w3.org/2000/svg" xmlns:xlink="http://www.w3.org/1999/xlink">
    <!-- Generator: Sketch 52.5 (67469) - http://www.bohemiancoding.com/sketch -->
    <title>bible</title>
    <desc>Created with Sketch.</desc>
    <defs>
        <path d="M20.75,16 L20.75,2.99999995 C20.75,2.37499995 20.375,1.99999995 19.75,1.99999995 L6.99999997,1.99999995 C4.87499996,1.99999995 3.24999996,3.62499996 3.24999996,5.74999997 L3.24999996,18.25 C3.24999996,20.375 4.87499996,22.0000001 6.99999997,22.0000001 L19.75,22.0000001 C20.25,22.0000001 20.75,21.625 20.75,21 L20.75,20.375 C20.75,20.125 20.625,19.875 20.375,19.625 C20.25,19 20.25,17.25 20.375,16.75 C20.625,16.625 20.75,16.375 20.75,16 Z M8.87499998,7.62499998 C8.87499998,7.27968748 9.15468749,6.99999997 9.49999999,6.99999997 L11.375,6.99999997 L11.375,5.12499997 C11.375,4.77968746 11.6546875,4.49999996 12,4.49999996 L13.25,4.49999996 C13.5953125,4.49999996 13.875,4.77968746 13.875,5.12499997 L13.875,6.99999997 L15.75,6.99999997 C16.0953125,6.99999997 16.375,7.27968748 16.375,7.62499998 L16.375,8.87499998 C16.375,9.22031249 16.0953125,9.49999999 15.75,9.49999999 L13.875,9.49999999 L13.875,13.875 C13.875,14.2203125 13.5953125,14.5 13.25,14.5 L12,14.5 C11.6546875,14.5 11.375,14.2203125 11.375,13.875 L11.375,9.49999999 L9.49999999,9.49999999 C9.15468749,9.49999999 8.87499998,9.22031249 8.87499998,8.87499998 L8.87499998,7.62499998 Z M18.125,19.5 L6.99999997,19.5 C6.24999997,19.5 5.74999997,19 5.74999997,18.25 C5.74999997,17.5 6.37499997,17 6.99999997,17 L18.125,17 L18.125,19.5 Z" id="path-1"></path>
    </defs>
    <g id="bible" stroke="none" stroke-width="1" fill="none" fill-rule="evenodd">
        <mask id="mask-2" fill="white">
            <use xlink:href="#path-1"></use>
        </mask>
        <g fill-rule="nonzero"></g>
        <g id="🎨-color" mask="url(#mask-2)" fill="#000000">
            <rect id="🎨-Color" x="0" y="0" width="24" height="24"></rect>
        </g>
    </g>
</svg>