<?xml version="1.0" encoding="UTF-8"?>
<svg width="24px" height="24px" viewBox="0 0 24 24" version="1.1" xmlns="http://www.w3.org/2000/svg" xmlns:xlink="http://www.w3.org/1999/xlink">
    <!-- Generator: Sketch 52.5 (67469) - http://www.bohemiancoding.com/sketch -->
    <title>bicycle</title>
    <desc>Created with Sketch.</desc>
    <defs>
        <path d="M18.0159063,10.0000312 C17.50425,9.99803124 17.0149688,10.092375 16.5647813,10.2655 L14.1372813,6.35446872 C14.0004663,6.13405169 13.7594575,5.99999114 13.5000313,5.99999997 L11.5000312,5.99999997 C11.223875,5.99999997 11.0000312,6.22384372 11.0000312,6.49999997 L11.0000312,6.99999997 C11.0000312,7.27615623 11.223875,7.49999998 11.5000312,7.49999998 L13.0828125,7.49999998 L13.5483125,8.24999998 L10.0000625,8.24999998 L10.0000625,7.74999998 C10.0000625,7.47384373 9.77621874,7.24999998 9.50006249,7.24999998 L6.76696872,7.24999998 C6.34693747,7.24999998 5.99268747,7.59371873 6.00021872,8.01365623 C6.00746872,8.42128123 6.34009372,8.74999998 6.75006247,8.74999998 L8.27274998,8.74999998 L7.35346873,10.235 C6.93368747,10.0840625 6.48146872,10.0011562 6.00996872,9.99999999 C3.81543746,9.99468749 2.01287495,11.781625 2.00006245,13.976125 C1.9870937,16.1962188 3.78296871,18 6.00006247,18 C7.86387498,18 9.42999999,16.7252188 9.87403124,15 L11.5000625,15 C11.759793,14.9999994 12.0010344,14.8656178 12.13775,14.6447813 L14.8240625,10.3053125 L15.290875,11.0574062 C14.4954063,11.7901562 13.9975938,12.8411875 14.0000313,14.0085625 C14.0045625,16.1595938 15.809375,17.9789063 17.9603125,17.9997813 C20.16675,18.0211875 21.9659688,16.2559375 21.9995313,14.0624063 C22.0334688,11.8455 20.2330938,10.0086562 18.0159063,10.0000312 Z M7.83593748,12.305375 C8.13990623,12.6344063 8.35696873,13.0447813 8.44974998,13.5 L7.09643748,13.5 L7.83593748,12.305375 Z M6.00006247,16.5 C4.62156246,16.5 3.50006246,15.3785 3.50006246,14 C3.50006246,12.6215 4.62156246,11.5 6.00006247,11.5 C6.18346872,11.5 6.36212497,11.5204062 6.53440622,11.5580937 L5.11237497,13.85525 C4.80359371,14.3539688 5.16290622,15 5.75006247,15 L8.29068748,15 C7.90412498,15.8820313 7.02312498,16.5 6.00006247,16.5 Z M11.08225,13.5 L9.96899999,13.5 C9.84524999,12.507625 9.35787499,11.6283125 8.64453123,10.9991875 L9.41784374,9.74999999 L13.4036875,9.74999999 L11.08225,13.5 Z M17.8652813,16.4964375 C16.5829063,16.4287813 15.55125,15.3810625 15.5019375,14.0978438 C15.4765625,13.4378125 15.7092188,12.8316563 16.1061563,12.370875 L17.4946875,14.6079375 C17.6403125,14.8425625 17.9485625,14.9146875 18.1831875,14.7690625 L18.608,14.5054063 C18.842625,14.3597813 18.9147813,14.0515313 18.769125,13.8169063 L17.3795,11.5780625 C17.582266,11.5261451 17.7907554,11.499929 18.0000625,11.5000312 C19.3785625,11.5000312 20.5000625,12.6215313 20.5000625,14.0000313 C20.5000313,15.4231563 19.3046875,16.5724063 17.8652813,16.4964375 Z" id="path-1"></path>
    </defs>
    <g id="bicycle" stroke="none" stroke-width="1" fill="none" fill-rule="evenodd">
        <mask id="mask-2" fill="white">
            <use xlink:href="#path-1"></use>
        </mask>
        <g fill-rule="nonzero"></g>
        <g id="🎨-color" mask="url(#mask-2)" fill="#000000">
            <rect id="🎨-Color" x="0" y="0" width="24" height="24"></rect>
        </g>
    </g>
</svg>