<?xml version="1.0" encoding="UTF-8"?>
<svg width="24px" height="24px" viewBox="0 0 24 24" version="1.1" xmlns="http://www.w3.org/2000/svg" xmlns:xlink="http://www.w3.org/1999/xlink">
    <!-- Generator: Sketch 52.5 (67469) - http://www.bohemiancoding.com/sketch -->
    <title>bimobject</title>
    <desc>Created with Sketch.</desc>
    <defs>
        <path d="M19.5,3.24999996 L4.49999996,3.24999996 C3.81249996,3.24999996 3.24999996,3.81249996 3.24999996,4.49999996 L3.24999996,19.5 C3.24999996,20.1875 3.81249996,20.75 4.49999996,20.75 L19.5,20.75 C20.1875,20.75 20.75,20.1875 20.75,19.5 L20.75,4.49999996 C20.75,3.81249996 20.1875,3.24999996 19.5,3.24999996 Z M17,13.3046875 C17,15.234375 16.5546875,16.53125 12.9453125,16.53125 L12.2851563,16.53125 C10.5625,16.53125 9.84765624,15.9492188 9.53515624,15.015625 L9.49999999,15.015625 L9.49999999,16.375 L6.99999997,16.375 L6.99999997,7.31249998 L9.49999999,7.31249998 L9.49999999,10.2304687 L9.54296874,10.2304687 C9.72265624,9.03906249 11.09375,8.71484373 12.265625,8.71484373 L12.9414063,8.71484373 C16.5507813,8.71484373 16.9960938,10.0078125 16.9960938,11.9375 L16.9960938,13.3046875 L17,13.3046875 Z M14.5,12.1757813 L14.5,13.0703125 C14.5,13.9179688 14.3671875,14.390625 13,14.390625 L11.2304687,14.390625 C10.1015625,14.390625 9.50781249,14.1367188 9.50781249,12.9960938 L9.50781249,12.2539063 C9.50781249,11.109375 10.1015625,10.859375 11.2304687,10.859375 L13,10.859375 C14.3671875,10.8515625 14.5,11.328125 14.5,12.1757813 Z" id="path-1"></path>
    </defs>
    <g id="bimobject" stroke="none" stroke-width="1" fill="none" fill-rule="evenodd">
        <mask id="mask-2" fill="white">
            <use xlink:href="#path-1"></use>
        </mask>
        <g fill-rule="nonzero"></g>
        <g id="🎨-color" mask="url(#mask-2)" fill="#000000">
            <rect id="🎨-Color" x="0" y="0" width="24" height="24"></rect>
        </g>
    </g>
</svg>