<?xml version="1.0" encoding="UTF-8"?>
<svg width="24px" height="24px" viewBox="0 0 24 24" version="1.1" xmlns="http://www.w3.org/2000/svg" xmlns:xlink="http://www.w3.org/1999/xlink">
    <!-- Generator: Sketch 52.5 (67469) - http://www.bohemiancoding.com/sketch -->
    <title>binoculars</title>
    <desc>Created with Sketch.</desc>
    <defs>
        <path d="M18.25,3.87499996 C18.25,3.52968746 17.9703125,3.24999996 17.625,3.24999996 L15.125,3.24999996 C14.7796875,3.24999996 14.5,3.52968746 14.5,3.87499996 L14.5,5.74999997 L18.25,5.74999997 L18.25,3.87499996 Z M4.49648434,8.24960936 C4.39843746,11.915625 2.1351562,12.7117188 1.99999995,17.78125 L1.99999995,19.5 C1.99999995,20.1902344 2.55976558,20.75 3.24999996,20.75 L6.99999997,20.75 C7.69023435,20.75 8.24999998,20.1902344 8.24999998,19.5 L8.24999998,13.25 L9.49999999,13.25 L9.49999999,6.99999997 L5.74374997,6.99999997 C5.05507809,6.99999997 4.51523434,7.5613281 4.49648434,8.24960936 Z M19.5035157,8.24960936 C19.4847657,7.5613281 18.9449219,6.99999997 18.25625,6.99999997 L14.5,6.99999997 L14.5,13.25 L15.75,13.25 L15.75,19.5 C15.75,20.1902344 16.3097656,20.75 17,20.75 L20.75,20.75 C21.4402344,20.75 22.0000001,20.1902344 22.0000001,19.5 L22.0000001,17.78125 C21.8648438,12.7117188 19.6015625,11.915625 19.5035157,8.24960936 Z M8.87499998,3.24999996 L6.37499997,3.24999996 C6.02968747,3.24999996 5.74999997,3.52968746 5.74999997,3.87499996 L5.74999997,5.74999997 L9.49999999,5.74999997 L9.49999999,3.87499996 C9.49999999,3.52968746 9.22031249,3.24999996 8.87499998,3.24999996 Z M10.75,13.25 L13.25,13.25 L13.25,6.99999997 L10.75,6.99999997 L10.75,13.25 Z" id="path-1"></path>
    </defs>
    <g id="binoculars" stroke="none" stroke-width="1" fill="none" fill-rule="evenodd">
        <mask id="mask-2" fill="white">
            <use xlink:href="#path-1"></use>
        </mask>
        <g fill-rule="nonzero"></g>
        <g id="🎨-color" mask="url(#mask-2)" fill="#000000">
            <rect id="🎨-Color" x="0" y="0" width="24" height="24"></rect>
        </g>
    </g>
</svg>