<?xml version="1.0" encoding="UTF-8"?>
<svg width="24px" height="24px" viewBox="0 0 24 24" version="1.1" xmlns="http://www.w3.org/2000/svg" xmlns:xlink="http://www.w3.org/1999/xlink">
    <!-- Generator: Sketch 52.5 (67469) - http://www.bohemiancoding.com/sketch -->
    <title>birthday-cake</title>
    <desc>Created with Sketch.</desc>
    <defs>
        <path d="M20.75,17 C19.6554688,17 19.5289063,15.75 17.8398438,15.75 C16.1433594,15.75 16.0107422,17 14.9199219,17 C13.8380859,17 13.69125,15.75 12,15.75 C10.3264844,15.75 10.1555469,17 9.08984374,17 C7.99031248,17 7.8710156,15.75 6.16992185,15.75 C4.46886715,15.75 4.34753902,17 3.24999996,17 L3.24999996,13.875 C3.24999996,12.8398438 4.08984371,12 5.12499997,12 L5.74999997,12 L5.74999997,6.37499997 L8.24999998,6.37499997 L8.24999998,12 L10.75,12 L10.75,6.37499997 L13.25,6.37499997 L13.25,12 L15.75,12 L15.75,6.37499997 L18.25,6.37499997 L18.25,12 L18.875,12 C19.9101563,12 20.75,12.8398438 20.75,13.875 L20.75,17 Z M20.75,22.0000001 L3.24999996,22.0000001 L3.24999996,18.25 C4.94359371,18.25 5.0768359,17 6.16992185,17 C7.26175779,17 7.39074216,18.25 9.08984374,18.25 C10.7633984,18.25 10.9342578,17 12,17 C13.0995313,17 13.2187891,18.25 14.9199219,18.25 C16.6135547,18.25 16.7467578,17 17.8398438,17 C18.9135938,17 19.060625,18.25 20.75,18.25 L20.75,22.0000001 Z M6.99999997,5.74999997 C6.3066406,5.74999997 5.74999997,5.19335934 5.74999997,4.49999996 C5.74999997,3.28906246 6.99999997,3.60156246 6.99999997,1.99999995 C7.46874998,1.99999995 8.24999998,3.15234371 8.24999998,4.18749996 C8.24999998,5.22265622 7.69335935,5.74999997 6.99999997,5.74999997 Z M12,5.74999997 C11.3066406,5.74999997 10.75,5.19335934 10.75,4.49999996 C10.75,3.28906246 12,3.60156246 12,1.99999995 C12.46875,1.99999995 13.25,3.15234371 13.25,4.18749996 C13.25,5.22265622 12.6933594,5.74999997 12,5.74999997 Z M17,5.74999997 C16.3066406,5.74999997 15.75,5.19335934 15.75,4.49999996 C15.75,3.28906246 17,3.60156246 17,1.99999995 C17.46875,1.99999995 18.25,3.15234371 18.25,4.18749996 C18.25,5.22265622 17.6933594,5.74999997 17,5.74999997 Z" id="path-1"></path>
    </defs>
    <g id="birthday-cake" stroke="none" stroke-width="1" fill="none" fill-rule="evenodd">
        <mask id="mask-2" fill="white">
            <use xlink:href="#path-1"></use>
        </mask>
        <g fill-rule="nonzero"></g>
        <g id="🎨-color" mask="url(#mask-2)" fill="#000000">
            <rect id="🎨-Color" x="0" y="0" width="24" height="24"></rect>
        </g>
    </g>
</svg>