<?xml version="1.0" encoding="UTF-8"?>
<svg width="24px" height="24px" viewBox="0 0 24 24" version="1.1" xmlns="http://www.w3.org/2000/svg" xmlns:xlink="http://www.w3.org/1999/xlink">
    <!-- Generator: Sketch 52.5 (67469) - http://www.bohemiancoding.com/sketch -->
    <title>bitcoin</title>
    <desc>Created with Sketch.</desc>
    <defs>
        <path d="M21.6875,12 C21.6875,17.3502735 17.3502735,21.6875 12,21.6875 C6.64972654,21.6875 2.31249995,17.3502735 2.31249995,12 C2.31249995,6.64972654 6.64972654,2.31249995 12,2.31249995 C17.3502735,2.31249995 21.6875,6.64972654 21.6875,12 Z M16.1542578,10.6199219 C16.3471094,9.33089842 15.3655469,8.63792967 14.0233984,8.17566404 L14.4587891,6.42949216 L13.3957813,6.16460935 L12.9719141,7.8647656 C12.6924609,7.79511717 12.4054297,7.7294531 12.1202344,7.66437498 L12.5471484,5.95304684 L11.4847266,5.68816403 L11.0490625,7.43371091 C10.8177344,7.3810156 10.5906641,7.32894529 10.3702734,7.27417966 L10.3714844,7.26871091 L8.90546873,6.90269529 L8.6226953,8.03792967 C8.6226953,8.03792967 9.41140624,8.21867186 9.39476561,8.22984373 C9.82531249,8.33730467 9.90312499,8.62218748 9.89007811,8.8480078 L9.39414061,10.8372656 C9.42382811,10.8448437 9.46226561,10.8557422 9.50464843,10.8726953 C9.46921874,10.8639062 9.43136717,10.8542187 9.39230467,10.8448437 L8.69714842,13.6314844 C8.64445311,13.7622656 8.51093748,13.9584375 8.20999998,13.8839844 C8.22058592,13.8994141 7.43734373,13.6911328 7.43734373,13.6911328 L6.90960935,14.9078125 L8.29296873,15.2526172 C8.55031248,15.3171094 8.80253905,15.3846094 9.05078124,15.4481641 L8.61085936,17.2142969 L9.67265624,17.4791797 L10.1083203,15.7317969 C10.3899043,15.8081101 10.6723035,15.8813826 10.9554687,15.9516016 L10.5212891,17.6907813 L11.5842969,17.9556641 L12.0242188,16.1928516 C13.836875,16.5358594 15.199961,16.3975 15.7736719,14.7582031 C16.2360156,13.4382813 15.7506641,12.6769141 14.7969531,12.1804297 C15.4914844,12.0203516 16.0146875,11.5635547 16.1542578,10.6199219 Z M13.7254688,14.0253516 C13.3969531,15.3452735 11.174375,14.6317188 10.4537891,14.4528125 L11.0375391,12.1130078 C11.7580859,12.2928125 14.0687891,12.6488281 13.7254688,14.0253516 Z M14.0542578,10.6008594 C13.7545313,11.8014844 11.9046094,11.1914844 11.3045312,11.0419531 L11.83375,8.91980467 C12.4338672,9.06933592 14.3664063,9.34843749 14.0542578,10.6008594 Z" id="path-1"></path>
    </defs>
    <g id="bitcoin" stroke="none" stroke-width="1" fill="none" fill-rule="evenodd">
        <mask id="mask-2" fill="white">
            <use xlink:href="#path-1"></use>
        </mask>
        <g fill-rule="nonzero"></g>
        <g id="🎨-color" mask="url(#mask-2)" fill="#000000">
            <rect id="🎨-Color" x="0" y="0" width="24" height="24"></rect>
        </g>
    </g>
</svg>