<?xml version="1.0" encoding="UTF-8"?>
<svg width="24px" height="24px" viewBox="0 0 24 24" version="1.1" xmlns="http://www.w3.org/2000/svg" xmlns:xlink="http://www.w3.org/1999/xlink">
    <!-- Generator: Sketch 52.5 (67469) - http://www.bohemiancoding.com/sketch -->
    <title>bity</title>
    <desc>Created with Sketch.</desc>
    <defs>
        <path d="M5.37499997,4.62499996 C9.10156249,1.14062495 14.9882813,1.06249995 18.7773438,4.77343746 C19.3359375,5.32421872 18.5273438,6.22265622 17.9023438,5.61328122 C14.5898438,2.3945312 9.47265624,2.47656245 6.22656247,5.48828122 C5.58984372,6.07812497 4.80078121,5.16406247 5.37499997,4.62499996 Z M9.23828124,20.9765625 C9.99218749,21.1992188 10.3828125,20.0546875 9.54687499,19.8046875 C5.16406247,18.4804688 2.67968745,13.9570313 3.78515621,9.60937499 C3.98046871,8.84374998 2.81249995,8.51171873 2.6054687,9.33203124 C1.35156245,14.3085938 4.21093746,19.4804688 9.23828124,20.9765625 Z M15.0234375,20.8984375 C19.7851563,19.328125 22.5585938,14.3789063 21.4453125,9.53124999 C21.2695313,8.76171873 20.0820313,8.99218748 20.2734375,9.83984374 C21.21875,14.046875 18.8242188,18.3515625 14.6796875,19.7382813 C13.8515625,20.0117188 14.2734375,21.1445313 15.0234375,20.8984375 Z M12.5664063,17.8125 L12.5742188,15.0078125 C12.5742188,14.6875 12.3164063,14.4296875 11.9960937,14.4296875 C11.6757812,14.4296875 11.4179687,14.6914063 11.4179687,15.0078125 L11.4101562,17.8125 C11.4101562,18.1328125 11.6679687,18.390625 11.9882812,18.390625 C12.3085938,18.390625 12.5664063,18.1328125 12.5664063,17.8125 Z M15.3398438,7.30468748 C15.421875,10.8554687 15.5234375,12.4570313 12,12.4804688 C8.38671873,12.453125 8.60546873,10.75 8.66015623,7.30468748 C8.66015623,6.45312497 7.39062498,6.53906247 7.39062498,7.30468748 L7.39062498,10.1015625 C7.39062498,12.8085938 9.76171874,13.6523438 12,13.6210938 C14.2382813,13.6523438 16.609375,12.8085938 16.609375,10.1015625 L16.609375,7.30468748 C16.609375,6.53906247 15.3398438,6.45312497 15.3398438,7.30468748 Z" id="path-1"></path>
    </defs>
    <g id="bity" stroke="none" stroke-width="1" fill="none" fill-rule="evenodd">
        <mask id="mask-2" fill="white">
            <use xlink:href="#path-1"></use>
        </mask>
        <g fill-rule="nonzero"></g>
        <g id="🎨-color" mask="url(#mask-2)" fill="#000000">
            <rect id="🎨-Color" x="0" y="0" width="24" height="24"></rect>
        </g>
    </g>
</svg>