<?xml version="1.0" encoding="UTF-8"?>
<svg width="24px" height="24px" viewBox="0 0 24 24" version="1.1" xmlns="http://www.w3.org/2000/svg" xmlns:xlink="http://www.w3.org/1999/xlink">
    <!-- Generator: Sketch 52.5 (67469) - http://www.bohemiancoding.com/sketch -->
    <title>blackberry</title>
    <desc>Created with Sketch.</desc>
    <defs>
        <path d="M8.48437498,6.56640622 C8.48437498,7.48046873 7.84374998,8.48437498 5.65234372,8.48437498 L2.91406245,8.48437498 L3.73437496,5.01562497 L6.38281247,5.01562497 C8.02734373,5.01562497 8.48437498,5.92578122 8.48437498,6.56640622 Z M13.4140625,5.01562497 L10.765625,5.01562497 L10.0351562,8.48437498 L12.7734375,8.48437498 C14.875,8.48437498 15.5117188,7.48046873 15.5117188,6.56640622 C15.515625,5.92578122 15.0585938,5.01562497 13.4140625,5.01562497 Z M5.46874997,10.1289062 L2.82031245,10.1289062 L1.99999995,13.5976563 L4.73828121,13.5976563 C6.92968747,13.5976563 7.57031248,12.6835938 7.57031248,11.6796875 C7.57031248,11.0429687 7.11328123,10.1289062 5.46874997,10.1289062 Z M12.5039063,10.1289062 L9.85546874,10.1289062 L9.12499999,13.5976563 L11.8632812,13.5976563 C13.9648438,13.5976563 14.6015625,12.6835938 14.6015625,11.6796875 C14.6015625,11.0429687 14.1445313,10.1289062 12.5039063,10.1289062 Z M19.8984375,8.02734373 L17.25,8.02734373 L16.5195313,11.4960937 L19.2578125,11.4960937 C21.359375,11.4960937 21.9960938,10.5820312 21.9960938,9.57812499 C22.0000001,8.94140623 21.5429688,8.02734373 19.8984375,8.02734373 Z M18.8046875,13.4140625 L16.15625,13.4140625 L15.4257813,16.8828125 L18.1640625,16.8828125 C20.3554688,16.8828125 20.9023438,15.96875 20.9023438,14.9648438 C20.9023438,14.328125 20.4492188,13.4140625 18.8046875,13.4140625 Z M11.40625,15.515625 L8.75781248,15.515625 L8.02734373,18.984375 L10.765625,18.984375 C12.9570313,18.984375 13.5039063,17.9804688 13.5039063,17.0664063 C13.5078125,16.4296875 13.0507813,15.515625 11.40625,15.515625 Z" id="path-1"></path>
    </defs>
    <g id="blackberry" stroke="none" stroke-width="1" fill="none" fill-rule="evenodd">
        <mask id="mask-2" fill="white">
            <use xlink:href="#path-1"></use>
        </mask>
        <g fill-rule="nonzero"></g>
        <g id="🎨-color" mask="url(#mask-2)" fill="#000000">
            <rect id="🎨-Color" x="0" y="0" width="24" height="24"></rect>
        </g>
    </g>
</svg>