<?xml version="1.0" encoding="UTF-8"?>
<svg width="24px" height="24px" viewBox="0 0 24 24" version="1.1" xmlns="http://www.w3.org/2000/svg" xmlns:xlink="http://www.w3.org/1999/xlink">
    <!-- Generator: Sketch 52.5 (67469) - http://www.bohemiancoding.com/sketch -->
    <title>blender-phone</title>
    <desc>Created with Sketch.</desc>
    <defs>
        <path d="M15.6221837,5.36221834 L21.3948007,5.36221834 L22,3.14384744 L8.68977468,3.14384744 L8.68977468,15.3448874 L18.6724437,15.3448874 L19.277643,13.1265165 L15.6221837,13.1265165 C15.4689775,13.1265165 15.3448874,13.0024263 15.3448874,12.8492201 L15.3448874,12.2946274 C15.3448874,12.1414211 15.4689775,12.017331 15.6221837,12.017331 L19.5798961,12.017331 L20.1850954,9.79896013 L15.6221837,9.79896013 C15.4689775,9.79896013 15.3448874,9.67487001 15.3448874,9.52166377 L15.3448874,8.96707104 C15.3448874,8.8138648 15.4689775,8.68977468 15.6221837,8.68977468 L20.4873484,8.68977468 L21.0925477,6.47140379 L15.6221837,6.47140379 C15.4689775,6.47140379 15.3448874,6.34731366 15.3448874,6.19410742 L15.3448874,5.6395147 C15.3448874,5.48630846 15.4689775,5.36221834 15.6221837,5.36221834 Z M7.53899478,14.7559792 L6.64540725,12.5632582 C6.54904677,12.3272097 6.30571921,12.1823224 6.04783359,12.2076257 L4.4870017,12.3608319 C3.88804155,10.7337955 3.8752166,8.90225302 4.4870017,7.24055457 L6.04783359,7.39376081 C6.30537259,7.4190641 6.54904677,7.27383013 6.64540725,7.03812822 L7.53899478,4.84540724 C7.64367415,4.58925473 7.54592719,4.29601383 7.30745232,4.14974 L5.94592718,3.31438471 C5.44922007,3.00970533 4.8107452,3.12651642 4.42461001,3.55875212 C1.21594449,7.14974001 1.23570185,12.555286 4.49740031,16.1233969 C4.8395147,16.497747 5.50675907,16.5559792 5.94107449,16.2897747 L7.3071057,15.4516465 C7.54592719,15.3053726 7.64332753,15.0124784 7.53899478,14.7559792 Z M18.6724437,16.4540728 L8.68977468,16.4540728 C7.46447138,16.4540728 6.47140379,17.4471404 6.47140379,18.6724437 L6.47140379,19.7816292 C6.47140379,20.3941075 6.96811089,20.8908146 7.58058923,20.8908146 L19.7816292,20.8908146 C20.3941075,20.8908146 20.8908146,20.3941075 20.8908146,19.7816292 L20.8908146,18.6724437 C20.8908146,17.4471404 19.897747,16.4540728 18.6724437,16.4540728 Z M13.6811092,19.7816292 C13.0686309,19.7816292 12.5719237,19.284922 12.5719237,18.6724437 C12.5719237,18.0599654 13.0686309,17.5632583 13.6811092,17.5632583 C14.2935875,17.5632583 14.7902946,18.0599654 14.7902946,18.6724437 C14.7902946,19.284922 14.2935875,19.7816292 13.6811092,19.7816292 Z" id="path-1"></path>
    </defs>
    <g id="blender-phone" stroke="none" stroke-width="1" fill="none" fill-rule="evenodd">
        <mask id="mask-2" fill="white">
            <use xlink:href="#path-1"></use>
        </mask>
        <g fill-rule="nonzero"></g>
        <g id="🎨-color" mask="url(#mask-2)" fill="#000000">
            <rect id="🎨-Color" x="0" y="0" width="24" height="24"></rect>
        </g>
    </g>
</svg>