<?xml version="1.0" encoding="UTF-8"?>
<svg width="24px" height="24px" viewBox="0 0 24 24" version="1.1" xmlns="http://www.w3.org/2000/svg" xmlns:xlink="http://www.w3.org/1999/xlink">
    <!-- Generator: Sketch 52.5 (67469) - http://www.bohemiancoding.com/sketch -->
    <title>blender</title>
    <desc>Created with Sketch.</desc>
    <defs>
        <path d="M18.25,17 L8.24999998,17 C6.8691406,17 5.74999997,18.1191407 5.74999997,19.5 L5.74999997,20.75 C5.74999997,21.4402344 6.3097656,22.0000001 6.99999997,22.0000001 L19.5,22.0000001 C20.1902344,22.0000001 20.75,21.4402344 20.75,20.75 L20.75,19.5 C20.75,18.1191407 19.6308594,17 18.25,17 Z M13.25,20.75 C12.5597656,20.75 12,20.1902344 12,19.5 C12,18.8097657 12.5597656,18.25 13.25,18.25 C13.9402344,18.25 14.5,18.8097657 14.5,19.5 C14.5,20.1902344 13.9402344,20.75 13.25,20.75 Z M14.8125,4.49999996 L21.3179688,4.49999996 L22.0000001,1.99999995 L3.87499996,1.99999995 C2.83945308,1.99999995 1.99999995,2.83945308 1.99999995,3.87499996 L1.99999995,10.125 C1.99999995,11.1605469 2.83945308,12 3.87499996,12 L7.90898435,12 L8.24999998,15.75 L18.25,15.75 L18.9320313,13.25 L14.8125,13.25 C14.6398438,13.25 14.5,13.1101563 14.5,12.9375 L14.5,12.3125 C14.5,12.1398438 14.6398438,12 14.8125,12 L19.2726563,12 L19.9546875,9.49999999 L14.8125,9.49999999 C14.6398438,9.49999999 14.5,9.36015624 14.5,9.18749999 L14.5,8.56249998 C14.5,8.38984373 14.6398438,8.24999998 14.8125,8.24999998 L20.2953125,8.24999998 L20.9773438,5.74999997 L14.8125,5.74999997 C14.6398438,5.74999997 14.5,5.61015622 14.5,5.43749997 L14.5,4.81249996 C14.5,4.63984371 14.6398438,4.49999996 14.8125,4.49999996 Z M4.49999996,9.49999999 L4.49999996,4.49999996 L7.22734373,4.49999996 L7.68203123,9.49999999 L4.49999996,9.49999999 Z" id="path-1"></path>
    </defs>
    <g id="blender" stroke="none" stroke-width="1" fill="none" fill-rule="evenodd">
        <mask id="mask-2" fill="white">
            <use xlink:href="#path-1"></use>
        </mask>
        <g fill-rule="nonzero"></g>
        <g id="🎨-color" mask="url(#mask-2)" fill="#000000">
            <rect id="🎨-Color" x="0" y="0" width="24" height="24"></rect>
        </g>
    </g>
</svg>