<?xml version="1.0" encoding="UTF-8"?>
<svg width="24px" height="24px" viewBox="0 0 24 24" version="1.1" xmlns="http://www.w3.org/2000/svg" xmlns:xlink="http://www.w3.org/1999/xlink">
    <!-- Generator: Sketch 52.5 (67469) - http://www.bohemiancoding.com/sketch -->
    <title>blogger-b</title>
    <desc>Created with Sketch.</desc>
    <defs>
        <path d="M20.6953125,10.6992187 C20.625,10.3867187 20.4296875,10.0976562 20.2070313,9.97656249 C20.1367188,9.93749999 19.6992188,9.89062499 19.2304688,9.87109374 C18.4453125,9.83593749 18.359375,9.82031249 18.109375,9.67578124 C17.7148438,9.44531249 17.609375,9.19531249 17.6054688,8.52343748 C17.6015625,7.23437498 17.0664063,6.03515622 16.0078125,4.95703121 C15.2539063,4.18749996 14.4101563,3.66796871 13.4492188,3.37499996 C13.21875,3.30468746 12.703125,3.28124996 10.9765625,3.26171871 C8.26562498,3.23046871 7.66406248,3.28515621 6.74218747,3.65234371 C5.04296872,4.32421871 3.82421871,5.75390622 3.37890621,7.58203123 C3.29687496,7.92578123 3.27734371,8.47656248 3.25781246,11.640625 C3.23437496,15.6054688 3.26171871,16.1875 3.50781246,16.9726563 C4.11718746,18.9101563 5.84765622,20.34375 7.58593748,20.65625 C8.16406248,20.7617188 15.2929688,20.7851563 16.0234375,20.6875 C17.2929688,20.515625 18.2890625,20.0039063 19.2226563,19.0507813 C19.8984375,18.359375 20.3203125,17.6132813 20.5976563,16.625 C20.7890625,15.9375 20.7734375,11.046875 20.6953125,10.6992187 Z M8.11328123,8.21484373 C8.41796873,7.90624998 8.50390623,7.89453123 10.4101562,7.89453123 C12.125,7.89453123 12.1835938,7.89843748 12.4335938,8.02734373 C12.796875,8.21093748 12.9570313,8.46874998 12.9570313,8.88281248 C12.9570313,9.25390624 12.8085938,9.51562499 12.4765625,9.72656249 C12.296875,9.83984374 12.1914063,9.84765624 10.5117187,9.85546874 C9.47656249,9.86328124 8.64843748,9.83984374 8.52734373,9.80859374 C7.87890623,9.62499999 7.63671873,8.69531248 8.11328123,8.21484373 Z M15.6054688,16.0195313 L15.0234375,16.1132813 L11.9960937,16.1484375 C9.33593749,16.1796875 8.58593748,16.1328125 8.44531248,16.0703125 C8.16796873,15.9492188 7.90624998,15.6132813 7.86328123,15.3125 C7.82031248,15.0273438 7.96484373,14.6367188 8.18359373,14.4375 C8.46093748,14.1875 8.58203123,14.1796875 11.984375,14.1757813 C15.484375,14.171875 15.4648438,14.171875 15.796875,14.4804688 C16.2695313,14.921875 16.1679688,15.6992188 15.6054688,16.0195313 Z" id="path-1"></path>
    </defs>
    <g id="blogger-b" stroke="none" stroke-width="1" fill="none" fill-rule="evenodd">
        <mask id="mask-2" fill="white">
            <use xlink:href="#path-1"></use>
        </mask>
        <g fill-rule="nonzero"></g>
        <g id="🎨-color" mask="url(#mask-2)" fill="#000000">
            <rect id="🎨-Color" x="0" y="0" width="24" height="24"></rect>
        </g>
    </g>
</svg>