<?xml version="1.0" encoding="UTF-8"?>
<svg width="24px" height="24px" viewBox="0 0 24 24" version="1.1" xmlns="http://www.w3.org/2000/svg" xmlns:xlink="http://www.w3.org/1999/xlink">
    <!-- Generator: Sketch 52.5 (67469) - http://www.bohemiancoding.com/sketch -->
    <title>blogger</title>
    <desc>Created with Sketch.</desc>
    <defs>
        <path d="M9.59374999,9.65624999 C9.78124999,9.46484374 9.83593749,9.45703124 11.015625,9.45703124 C12.078125,9.45703124 12.1132813,9.46093749 12.2695313,9.53906249 C12.4960938,9.65234374 12.59375,9.81249999 12.59375,10.0703125 C12.59375,10.3007812 12.5,10.4609375 12.296875,10.59375 C12.1875,10.6640625 12.1210938,10.6679687 11.0820312,10.6757812 C10.4414062,10.6796875 9.92968749,10.6679687 9.85156249,10.6445312 C9.44921874,10.53125 9.30078124,9.95312499 9.59374999,9.65624999 Z M11.9921875,13.3476563 C9.88671874,13.3476563 9.81249999,13.3554688 9.64062499,13.5078125 C9.50390624,13.6289063 9.41796874,13.875 9.44140624,14.0507813 C9.46874999,14.234375 9.62890624,14.4453125 9.80078124,14.5195313 C9.88671874,14.5585938 10.3515625,14.5859375 12,14.5664063 L13.8710938,14.5429688 L14.2304688,14.484375 C14.5820313,14.2851563 14.640625,13.8046875 14.3515625,13.53125 C14.1445313,13.3476563 14.15625,13.3476563 11.9921875,13.3476563 Z M20.71875,18.4296875 C20.5820313,19.5390625 19.8203125,20.3984375 18.7226563,20.6757813 C18.4414063,20.7460938 18.34375,20.75 11.96875,20.7460938 C5.80468747,20.7460938 5.48828122,20.7421875 5.24999997,20.6757813 C4.92187496,20.5898438 4.64062496,20.4609375 4.37890621,20.2851563 C4.16015621,20.1367188 3.83593746,19.8242188 3.71484371,19.6445313 C3.56640621,19.4257813 3.39453121,19.046875 3.32421871,18.7851563 C3.25390621,18.5234375 3.24999996,18.4179688 3.24999996,12.0117188 C3.24999996,5.64062497 3.24999996,5.50390622 3.32031246,5.22656247 C3.56640621,4.26171871 4.33203121,3.52343746 5.32031247,3.30468746 C5.60546872,3.24218746 18.2929688,3.23046871 18.6015625,3.29296871 C19.4296875,3.46093746 20.0820313,3.96093746 20.4609375,4.71484371 C20.7617188,5.31249997 20.734375,4.65624996 20.7460938,11.7695312 C20.7539063,16.2929688 20.7460938,18.1953125 20.71875,18.4296875 Z M17.3828125,11.1953125 C17.3398438,11 17.21875,10.8203125 17.0820313,10.7460937 C17.0390625,10.7226562 16.7695313,10.6953125 16.4765625,10.6796875 C15.9921875,10.65625 15.9375,10.6484375 15.78125,10.5585937 C15.5390625,10.4179687 15.4726563,10.2617187 15.46875,9.84374999 C15.46875,9.04687499 15.1367188,8.30468748 14.4804688,7.63671873 C14.0117188,7.16015623 13.4921875,6.83593747 12.8945313,6.65624997 C12.7539063,6.61328122 12.4335938,6.59765622 11.3632812,6.58593747 C9.68749999,6.56640622 9.31249999,6.60156247 8.74218748,6.82812497 C7.68749998,7.24609373 6.93359372,8.13281248 6.65624997,9.26562499 C6.60546872,9.47656249 6.59374997,9.82031249 6.58203122,11.7773437 C6.56640622,14.2304688 6.58203122,14.59375 6.73828122,15.078125 C7.11718748,16.2773438 8.18749998,17.1640625 9.26171874,17.359375 C9.62109374,17.4257813 14.0351563,17.4414063 14.484375,17.3789063 C15.2695313,17.2734375 15.8867188,16.9570313 16.4648438,16.3671875 C16.8828125,15.9414063 17.1445313,15.4765625 17.3164063,14.8632813 C17.4414063,14.4375 17.4296875,11.4101562 17.3828125,11.1953125 Z" id="path-1"></path>
    </defs>
    <g id="blogger" stroke="none" stroke-width="1" fill="none" fill-rule="evenodd">
        <mask id="mask-2" fill="white">
            <use xlink:href="#path-1"></use>
        </mask>
        <g fill-rule="nonzero"></g>
        <g id="🎨-color" mask="url(#mask-2)" fill="#000000">
            <rect id="🎨-Color" x="0" y="0" width="24" height="24"></rect>
        </g>
    </g>
</svg>