<?xml version="1.0" encoding="UTF-8"?>
<svg width="24px" height="24px" viewBox="0 0 24 24" version="1.1" xmlns="http://www.w3.org/2000/svg" xmlns:xlink="http://www.w3.org/1999/xlink">
    <!-- Generator: Sketch 52.5 (67469) - http://www.bohemiancoding.com/sketch -->
    <title>bold</title>
    <desc>Created with Sketch.</desc>
    <defs>
        <path d="M16.4059766,11.5269922 C17.72,10.8028906 18.5019532,9.41136717 18.5019532,7.78898435 C18.5019532,5.90476559 17.4765625,4.36609371 15.82125,3.71949215 C14.8569531,3.32851558 13.9081641,3.24999996 12.6898828,3.24999996 L5.43749997,3.24999996 C5.09230465,3.24999996 4.81249996,3.52980465 4.81249996,3.87499996 L4.81249996,5.16597653 C4.81249996,5.51117184 5.09230465,5.79097653 5.43749997,5.79097653 L6.73097654,5.79097653 L6.73097654,18.2335547 L5.43749997,18.2335547 C5.09230465,18.2335547 4.81249996,18.5133594 4.81249996,18.8585547 L4.81249996,20.125 C4.81249996,20.4701954 5.09230465,20.75 5.43749997,20.75 L13.0816406,20.75 C14.0270703,20.75 14.8329688,20.6996485 15.6935938,20.45375 C17.684375,19.8591016 19.1875,18.0408985 19.1875,15.6724219 C19.1875,13.6346094 18.1494922,12.0910156 16.4059766,11.5269922 Z M10.0553516,5.93785153 L12.6898828,5.93785153 C13.3263672,5.93785153 13.7655078,6.01671872 14.1557031,6.20023435 C14.7739844,6.53144529 15.1285938,7.23546873 15.1285938,8.13171873 C15.1285938,9.50003905 14.3348438,10.3500781 13.0571484,10.3500781 L10.0553516,10.3500781 L10.0553516,5.93785153 Z M14.4554297,17.8704688 C14.0593359,18.0289063 13.5696094,18.0621485 13.2285156,18.0621485 L10.0553516,18.0621485 L10.0553516,13.0133984 L13.3509375,13.0133984 C14.8995703,13.0133984 15.8141016,14.0048047 15.8141016,15.4765625 C15.8141406,16.5869141 15.2805078,17.5266797 14.4554297,17.8704688 Z" id="path-1"></path>
    </defs>
    <g id="bold" stroke="none" stroke-width="1" fill="none" fill-rule="evenodd">
        <mask id="mask-2" fill="white">
            <use xlink:href="#path-1"></use>
        </mask>
        <g fill-rule="nonzero"></g>
        <g id="🎨-color" mask="url(#mask-2)" fill="#000000">
            <rect id="🎨-Color" x="0" y="0" width="24" height="24"></rect>
        </g>
    </g>
</svg>