<?xml version="1.0" encoding="UTF-8"?>
<svg width="24px" height="24px" viewBox="0 0 24 24" version="1.1" xmlns="http://www.w3.org/2000/svg" xmlns:xlink="http://www.w3.org/1999/xlink">
    <!-- Generator: Sketch 52.5 (67469) - http://www.bohemiancoding.com/sketch -->
    <title>bomb</title>
    <desc>Created with Sketch.</desc>
    <defs>
        <path d="M19.2070313,5.45703122 L17.1757813,7.48828123 L18.2109375,8.52343748 C18.578125,8.89062498 18.578125,9.48437499 18.2109375,9.84765624 L17.53125,10.5273437 C17.9921875,11.546875 18.25,12.6796875 18.25,13.8710938 C18.25,18.359375 14.6132813,21.9960938 10.125,21.9960938 C5.63671872,21.9960938 1.99999995,18.3632813 1.99999995,13.875 C1.99999995,9.38671874 5.63671872,5.74999997 10.125,5.74999997 C11.3164062,5.74999997 12.4492188,6.00781247 13.46875,6.46874997 L14.1484375,5.78906247 C14.515625,5.42187497 15.109375,5.42187497 15.4726563,5.78906247 L16.5078125,6.82421872 L18.5390625,4.79296871 L19.2070313,5.45703122 Z M21.53125,4.34374996 L20.59375,4.34374996 C20.3359375,4.34374996 20.125,4.55468746 20.125,4.81249996 C20.125,5.07031247 20.3359375,5.28124997 20.59375,5.28124997 L21.53125,5.28124997 C21.7890625,5.28124997 22.0000001,5.07031247 22.0000001,4.81249996 C22.0000001,4.55468746 21.7890625,4.34374996 21.53125,4.34374996 Z M19.1875,1.99999995 C18.9296875,1.99999995 18.71875,2.21093745 18.71875,2.46874995 L18.71875,3.40624996 C18.71875,3.66406246 18.9296875,3.87499996 19.1875,3.87499996 C19.4453125,3.87499996 19.65625,3.66406246 19.65625,3.40624996 L19.65625,2.46874995 C19.65625,2.21093745 19.4453125,1.99999995 19.1875,1.99999995 Z M20.5117188,4.14843746 L21.1757813,3.48437496 C21.359375,3.30078121 21.359375,3.00390621 21.1757813,2.82031245 C20.9921875,2.6367187 20.6953125,2.6367187 20.5117188,2.82031245 L19.8476563,3.48437496 C19.6640625,3.66796871 19.6640625,3.96484371 19.8476563,4.14843746 C20.0351563,4.33203121 20.3320313,4.33203121 20.5117188,4.14843746 Z M17.8632813,4.14843746 C18.046875,4.33203121 18.34375,4.33203121 18.5273438,4.14843746 C18.7109375,3.96484371 18.7109375,3.66796871 18.5273438,3.48437496 L17.8632813,2.82031245 C17.6796875,2.6367187 17.3828125,2.6367187 17.1992188,2.82031245 C17.015625,3.00390621 17.015625,3.30078121 17.1992188,3.48437496 L17.8632813,4.14843746 Z M20.5117188,5.47656247 C20.328125,5.29296872 20.03125,5.29296872 19.8476563,5.47656247 C19.6640625,5.66015622 19.6640625,5.95703122 19.8476563,6.14062497 L20.5117188,6.80468747 C20.6953125,6.98828122 20.9921875,6.98828122 21.1757813,6.80468747 C21.359375,6.62109372 21.359375,6.32421872 21.1757813,6.14062497 L20.5117188,5.47656247 Z M6.37499997,12.625 C6.37499997,11.2460937 7.49609373,10.125 8.87499998,10.125 C9.21874999,10.125 9.49999999,9.84374999 9.49999999,9.49999999 C9.49999999,9.15624999 9.21874999,8.87499998 8.87499998,8.87499998 C6.80859372,8.87499998 5.12499997,10.5585937 5.12499997,12.625 C5.12499997,12.96875 5.40624997,13.25 5.74999997,13.25 C6.09374997,13.25 6.37499997,12.96875 6.37499997,12.625 Z" id="path-1"></path>
    </defs>
    <g id="bomb" stroke="none" stroke-width="1" fill="none" fill-rule="evenodd">
        <mask id="mask-2" fill="white">
            <use xlink:href="#path-1"></use>
        </mask>
        <g fill-rule="nonzero"></g>
        <g id="🎨-color" mask="url(#mask-2)" fill="#000000">
            <rect id="🎨-Color" x="0" y="0" width="24" height="24"></rect>
        </g>
    </g>
</svg>