<?xml version="1.0" encoding="UTF-8"?>
<svg width="24px" height="24px" viewBox="0 0 24 24" version="1.1" xmlns="http://www.w3.org/2000/svg" xmlns:xlink="http://www.w3.org/1999/xlink">
    <!-- Generator: Sketch 52.5 (67469) - http://www.bohemiancoding.com/sketch -->
    <title>bone</title>
    <desc>Created with Sketch.</desc>
    <defs>
        <path d="M20.715,11.6425 C21.5025,11.24875 22.0000001,10.44375 22.0000001,9.56343749 L22.0000001,9.32468749 C22.0000001,8.04062498 20.959375,6.99999997 19.6753125,6.99999997 C18.6746875,6.99999997 17.7865625,7.64031248 17.47,8.58937498 C17.23,9.30906249 17.1075,9.99999999 16.2790625,9.99999999 L7.72062498,9.99999999 C6.86499997,9.99999999 6.73374997,9.20187499 6.52968747,8.58937498 C6.21343747,7.64031248 5.32499997,6.99999997 4.32468746,6.99999997 C3.04062496,6.99999997 1.99999995,8.04062498 1.99999995,9.32468749 L1.99999995,9.56343749 C1.99999995,10.44375 2.49749995,11.24875 3.28499996,11.6425 C3.57968746,11.7896875 3.57968746,12.2103125 3.28499996,12.3575 C2.49749995,12.75125 1.99999995,13.55625 1.99999995,14.4365625 L1.99999995,14.6753125 C1.99999995,15.959375 3.04062496,17 4.32437496,17 C5.32499997,17 6.21312497,16.3596875 6.52968747,15.410625 C6.76968747,14.6909375 6.89218747,14 7.72062498,14 L16.2790625,14 C17.1346875,14 17.2659375,14.798125 17.47,15.410625 C17.7865625,16.3596875 18.675,17 19.6753125,17 C20.9590625,17 21.9996875,15.959375 21.9996875,14.6753125 L21.9996875,14.4365625 C21.9996875,13.5559375 21.5021875,12.75125 20.7146875,12.3575 C20.4203125,12.2103125 20.4203125,11.7896875 20.715,11.6425 Z" id="path-1"></path>
    </defs>
    <g id="bone" stroke="none" stroke-width="1" fill="none" fill-rule="evenodd">
        <mask id="mask-2" fill="white">
            <use xlink:href="#path-1"></use>
        </mask>
        <g></g>
        <g id="🎨-color" mask="url(#mask-2)" fill="#000000">
            <rect id="🎨-Color" x="0" y="0" width="24" height="24"></rect>
        </g>
    </g>
</svg>