<?xml version="1.0" encoding="UTF-8"?>
<svg width="24px" height="24px" viewBox="0 0 24 24" version="1.1" xmlns="http://www.w3.org/2000/svg" xmlns:xlink="http://www.w3.org/1999/xlink">
    <!-- Generator: Sketch 52.5 (67469) - http://www.bohemiancoding.com/sketch -->
    <title>bong</title>
    <desc>Created with Sketch.</desc>
    <defs>
        <path d="M15.0664063,22 C15.971875,22 16.8019531,21.5085938 17.2539063,20.7242188 C17.8863282,19.6273438 18.25,18.3574219 18.25,17 C18.25,15.5890625 17.85625,14.2730469 17.178125,13.1476563 L18.875,11.4507812 L19.2414063,11.8171875 C19.4855469,12.0613281 19.88125,12.0613281 20.1253907,11.8171875 L20.5667969,11.375 C20.8109375,11.1308594 20.8109375,10.7351562 20.5667969,10.4910156 L18.5085938,8.43281248 C18.2644532,8.18867186 17.86875,8.18867186 17.6246094,8.43281248 L17.1828125,8.87460936 C16.9386719,9.11874999 16.9386719,9.51445311 17.1828125,9.75859374 L17.5492188,10.125 L16.0097656,11.6644531 C15.5582031,11.2203125 15.0515625,10.83125 14.5,10.5117187 L14.5,4.48984371 L15.1238281,4.48906246 C15.4683594,4.48867184 15.7476563,4.20937496 15.7480469,3.86484371 L15.7496094,2.6257812 C15.75,2.28007808 15.4695313,1.99960932 15.1238281,1.99999995 L6.37617185,2.0101562 C6.0316406,2.01054683 5.75234372,2.2898437 5.75195309,2.63437495 L5.75039059,3.87382808 C5.74999997,4.21953121 6.03046872,4.49960934 6.37617185,4.49921871 L6.99999997,4.49843746 L6.99999997,10.5113281 C4.76054684,11.8085937 3.24999996,14.2253906 3.24999996,17 C3.24999996,18.3574219 3.61367183,19.6277344 4.24609371,20.7242188 C4.69843746,21.5085938 5.52851559,22 6.43359372,22 L15.0664063,22 Z M7.93984373,12.1339844 L8.87499998,11.5921875 L8.87499998,4.49648434 L12.625,4.49218746 L12.625,11.5921875 L13.5601563,12.1339844 C14.5292969,12.6953125 15.2835938,13.5296875 15.7695313,14.5 L5.73046872,14.5 C6.21679685,13.5296875 6.9707031,12.6953125 7.93984373,12.1339844 Z" id="path-1"></path>
    </defs>
    <g id="bong" stroke="none" stroke-width="1" fill="none" fill-rule="evenodd">
        <mask id="mask-2" fill="white">
            <use xlink:href="#path-1"></use>
        </mask>
        <g fill-rule="nonzero"></g>
        <g id="🎨-color" mask="url(#mask-2)" fill="#000000">
            <rect id="🎨-Color" x="0" y="0" width="24" height="24"></rect>
        </g>
    </g>
</svg>