<?xml version="1.0" encoding="UTF-8"?>
<svg width="24px" height="24px" viewBox="0 0 24 24" version="1.1" xmlns="http://www.w3.org/2000/svg" xmlns:xlink="http://www.w3.org/1999/xlink">
    <!-- Generator: Sketch 52.5 (67469) - http://www.bohemiancoding.com/sketch -->
    <title>book</title>
    <desc>Created with Sketch.</desc>
    <defs>
        <path d="M20.75,16.0625 L20.75,2.93749995 C20.75,2.4179687 20.3320313,1.99999995 19.8125,1.99999995 L6.99999997,1.99999995 C4.92968746,1.99999995 3.24999996,3.67968746 3.24999996,5.74999997 L3.24999996,18.25 C3.24999996,20.3203125 4.92968746,22.0000001 6.99999997,22.0000001 L19.8125,22.0000001 C20.3320313,22.0000001 20.75,21.5820313 20.75,21.0625 L20.75,20.4375 C20.75,20.1445313 20.6132813,19.8789063 20.4023438,19.7070313 C20.2382813,19.1054688 20.2382813,17.390625 20.4023438,16.7890625 C20.6132813,16.6210938 20.75,16.3554688 20.75,16.0625 Z M8.24999998,7.23437498 C8.24999998,7.10546873 8.35546873,6.99999997 8.48437498,6.99999997 L16.765625,6.99999997 C16.8945313,6.99999997 17,7.10546873 17,7.23437498 L17,8.01562498 C17,8.14453123 16.8945313,8.24999998 16.765625,8.24999998 L8.48437498,8.24999998 C8.35546873,8.24999998 8.24999998,8.14453123 8.24999998,8.01562498 L8.24999998,7.23437498 Z M8.24999998,9.73437499 C8.24999998,9.60546874 8.35546873,9.49999999 8.48437498,9.49999999 L16.765625,9.49999999 C16.8945313,9.49999999 17,9.60546874 17,9.73437499 L17,10.515625 C17,10.6445312 16.8945313,10.75 16.765625,10.75 L8.48437498,10.75 C8.35546873,10.75 8.24999998,10.6445312 8.24999998,10.515625 L8.24999998,9.73437499 Z M18.1484375,19.5 L6.99999997,19.5 C6.30859372,19.5 5.74999997,18.9414063 5.74999997,18.25 C5.74999997,17.5625 6.31249997,17 6.99999997,17 L18.1484375,17 C18.0742188,17.6679688 18.0742188,18.8320313 18.1484375,19.5 Z" id="path-1"></path>
    </defs>
    <g id="book" stroke="none" stroke-width="1" fill="none" fill-rule="evenodd">
        <mask id="mask-2" fill="white">
            <use xlink:href="#path-1"></use>
        </mask>
        <g fill-rule="nonzero"></g>
        <g id="🎨-color" mask="url(#mask-2)" fill="#000000">
            <rect id="🎨-Color" x="0" y="0" width="24" height="24"></rect>
        </g>
    </g>
</svg>