<?xml version="1.0" encoding="UTF-8"?>
<svg width="24px" height="24px" viewBox="0 0 24 24" version="1.1" xmlns="http://www.w3.org/2000/svg" xmlns:xlink="http://www.w3.org/1999/xlink">
    <!-- Generator: Sketch 52.5 (67469) - http://www.bohemiancoding.com/sketch -->
    <title>book-reader</title>
    <desc>Created with Sketch.</desc>
    <defs>
        <path d="M15.7231969,5.74269003 C15.7231969,3.67563349 14.0475634,1.99999995 11.9805068,1.99999995 C9.91345028,1.99999995 8.23781675,3.67563349 8.23781675,5.74269003 C8.23781675,7.80974657 9.91345028,9.4853801 11.9805068,9.4853801 C14.0475634,9.4853801 15.7231969,7.80974657 15.7231969,5.74269003 Z M11.1068226,11.3996101 C8.79376217,9.98362572 5.04717345,9.5945419 3.16179333,9.48732942 C2.52826506,9.45146198 1.99999995,9.93411305 1.99999995,10.5434698 L1.99999995,19.2296297 C1.99999995,19.7883041 2.4518518,20.2541911 3.03274849,20.2842106 C4.73489275,20.3734893 8.17855749,20.7005848 10.5586745,21.8994153 C10.9239766,22.0834308 11.357115,21.8327486 11.357115,21.4366472 L11.357115,11.8463938 C11.3567251,11.6643275 11.2666667,11.4974659 11.1068226,11.3996101 Z M20.7992203,9.48732942 C18.9142301,9.59415203 15.1672515,9.98362572 12.8545809,11.3996101 C12.6947368,11.4974659 12.6046784,11.6709552 12.6046784,11.8530214 L12.6046784,21.4354776 C12.6046784,21.8327486 13.0389864,22.0838207 13.4054581,21.8994153 C15.7851852,20.7017544 19.2269006,20.3746589 20.928655,20.2853802 C21.5095517,20.2549708 21.9614036,19.7890839 21.9614036,19.2304094 L21.9614036,10.5434698 C21.9610137,9.93411305 21.4327486,9.45146198 20.7992203,9.48732942 Z" id="path-1"></path>
    </defs>
    <g id="book-reader" stroke="none" stroke-width="1" fill="none" fill-rule="evenodd">
        <mask id="mask-2" fill="white">
            <use xlink:href="#path-1"></use>
        </mask>
        <g fill-rule="nonzero"></g>
        <g id="🎨-color" mask="url(#mask-2)" fill="#000000">
            <rect id="🎨-Color" x="0" y="0" width="24" height="24"></rect>
        </g>
    </g>
</svg>