<?xml version="1.0" encoding="UTF-8"?>
<svg width="24px" height="24px" viewBox="0 0 24 24" version="1.1" xmlns="http://www.w3.org/2000/svg" xmlns:xlink="http://www.w3.org/1999/xlink">
    <!-- Generator: Sketch 52.5 (67469) - http://www.bohemiancoding.com/sketch -->
    <title>book-dead</title>
    <desc>Created with Sketch.</desc>
    <defs>
        <path d="M13.875,7.31249998 C14.2203125,7.31249998 14.5,7.03281248 14.5,6.68749997 C14.5,6.34218747 14.2203125,6.06249997 13.875,6.06249997 C13.5296875,6.06249997 13.25,6.34218747 13.25,6.68749997 C13.25,7.03281248 13.5296875,7.31249998 13.875,7.31249998 Z M20.75,16 L20.75,2.99999995 C20.75,2.37499995 20.375,1.99999995 19.75,1.99999995 L6.99999997,1.99999995 C4.87499996,1.99999995 3.24999996,3.62499996 3.24999996,5.74999997 L3.24999996,18.25 C3.24999996,20.375 4.87499996,22.0000001 6.99999997,22.0000001 L19.75,22.0000001 C20.25,22.0000001 20.75,21.625 20.75,21 L20.75,20.375 C20.75,20.125 20.625,19.875 20.375,19.625 C20.25,19 20.25,17.25 20.375,16.75 C20.625,16.625 20.75,16.375 20.75,16 Z M12.625,4.18749996 C14.3507813,4.18749996 15.75,5.30664059 15.75,6.68749997 C15.75,7.50273435 15.2546875,8.21992186 14.5,8.67617186 L14.5,9.18749999 C14.5,9.53281249 14.2203125,9.81249999 13.875,9.81249999 L11.375,9.81249999 C11.0296875,9.81249999 10.75,9.53281249 10.75,9.18749999 L10.75,8.67617186 C9.99531249,8.21992186 9.49999999,7.50273435 9.49999999,6.68749997 C9.49999999,5.30664059 10.8992187,4.18749996 12.625,4.18749996 Z M8.29101561,11.1347656 C8.21486553,11.1021362 8.15479812,11.0405902 8.12402977,10.9636693 C8.09326142,10.8867485 8.09431299,10.8007549 8.12695311,10.7246094 L8.37265623,10.1503906 C8.40527475,10.0741357 8.46688583,10.0139873 8.54390233,9.98321 C8.62091883,9.95243271 8.70701468,9.95355455 8.78320311,9.98632811 L12.625,11.6328125 L16.4667969,9.98632811 C16.6253906,9.91835936 16.809375,9.99179686 16.8773438,10.1503906 L17.1230469,10.7246094 C17.155687,10.8007549 17.1567386,10.8867485 17.1259702,10.9636693 C17.0952019,11.0405902 17.0351345,11.1021362 16.9589844,11.1347656 L14.2109375,12.3125 L16.9585938,13.4902344 C17.0347438,13.5228638 17.0948113,13.5844098 17.1255796,13.6613307 C17.156348,13.7382516 17.1552964,13.8242451 17.1226563,13.9003906 L16.8769531,14.4746094 C16.8089596,14.6333538 16.6251887,14.706967 16.4664063,14.6390625 L12.625,12.9921875 L8.78320311,14.6386719 C8.70695656,14.6713356 8.62085433,14.672358 8.54385373,14.6415138 C8.46685313,14.6106696 8.40526749,14.5504878 8.37265623,14.4742188 L8.12695311,13.9 C8.09431299,13.8238545 8.09326142,13.7378609 8.12402977,13.6609401 C8.15479812,13.5840192 8.21486553,13.5224732 8.29101561,13.4898438 L11.0390625,12.3125 L8.29101561,11.1347656 Z M18.125,19.5 L6.99999997,19.5 C6.24999997,19.5 5.74999997,19 5.74999997,18.25 C5.74999997,17.5 6.37499997,17 6.99999997,17 L18.125,17 L18.125,19.5 Z M11.375,7.31249998 C11.7203125,7.31249998 12,7.03281248 12,6.68749997 C12,6.34218747 11.7203125,6.06249997 11.375,6.06249997 C11.0296875,6.06249997 10.75,6.34218747 10.75,6.68749997 C10.75,7.03281248 11.0296875,7.31249998 11.375,7.31249998 Z" id="path-1"></path>
    </defs>
    <g id="book-dead" stroke="none" stroke-width="1" fill="none" fill-rule="evenodd">
        <mask id="mask-2" fill="white">
            <use xlink:href="#path-1"></use>
        </mask>
        <g fill-rule="nonzero"></g>
        <g id="🎨-color" mask="url(#mask-2)" fill="#000000">
            <rect id="🎨-Color" x="0" y="0" width="24" height="24"></rect>
        </g>
    </g>
</svg>