<?xml version="1.0" encoding="UTF-8"?>
<svg width="24px" height="24px" viewBox="0 0 24 24" version="1.1" xmlns="http://www.w3.org/2000/svg" xmlns:xlink="http://www.w3.org/1999/xlink">
    <!-- Generator: Sketch 52.5 (67469) - http://www.bohemiancoding.com/sketch -->
    <title>book-open</title>
    <desc>Created with Sketch.</desc>
    <defs>
        <path d="M20.8270834,4.22395829 C18.9243056,4.33194441 15.1423611,4.72499996 12.8076389,6.15416664 C12.6465278,6.25277775 12.5552083,6.42812497 12.5552083,6.61145831 L12.5552083,19.2458334 C12.5552083,19.646875 12.99375,19.9003473 13.3635417,19.7142361 C15.765625,18.5052084 19.2395834,18.1753473 20.9572917,18.0850695 C21.54375,18.0541667 21.9996528,17.5840278 21.9996528,17.0204861 L21.9996528,5.28993052 C22.0000001,4.67499996 21.4666667,4.18784718 20.8270834,4.22395829 Z M11.1920139,6.15416664 C8.85763887,4.72499996 5.07569441,4.33229163 3.17291662,4.22395829 C2.53333329,4.18784718 1.99999995,4.67499996 1.99999995,5.28993052 L1.99999995,17.0208334 C1.99999995,17.5847223 2.45590273,18.0548611 3.04236107,18.0854167 C4.76076385,18.1756945 8.23645831,18.5059028 10.6385417,19.715625 C11.0072917,19.9013889 11.4444444,19.6482639 11.4444444,19.2482639 L11.4444444,6.60520831 C11.4444444,6.42152775 11.3534722,6.25312497 11.1920139,6.15416664 Z" id="path-1"></path>
    </defs>
    <g id="book-open" stroke="none" stroke-width="1" fill="none" fill-rule="evenodd">
        <mask id="mask-2" fill="white">
            <use xlink:href="#path-1"></use>
        </mask>
        <g fill-rule="nonzero"></g>
        <g id="🎨-color" mask="url(#mask-2)" fill="#000000">
            <rect id="🎨-Color" x="0" y="0" width="24" height="24"></rect>
        </g>
    </g>
</svg>