<?xml version="1.0" encoding="UTF-8"?>
<svg width="24px" height="24px" viewBox="0 0 24 24" version="1.1" xmlns="http://www.w3.org/2000/svg" xmlns:xlink="http://www.w3.org/1999/xlink">
    <!-- Generator: Sketch 52.5 (67469) - http://www.bohemiancoding.com/sketch -->
    <title>bowling-ball</title>
    <desc>Created with Sketch.</desc>
    <defs>
        <path d="M12,2.31249995 C6.64843747,2.31249995 2.31249995,6.64843747 2.31249995,12 C2.31249995,17.3515625 6.64843747,21.6875 12,21.6875 C17.3515625,21.6875 21.6875,17.3515625 21.6875,12 C21.6875,6.64843747 17.3515625,2.31249995 12,2.31249995 Z M6.99999997,9.49999999 C6.30859372,9.49999999 5.74999997,8.94140623 5.74999997,8.24999998 C5.74999997,7.55859373 6.30859372,6.99999997 6.99999997,6.99999997 C7.69140623,6.99999997 8.24999998,7.55859373 8.24999998,8.24999998 C8.24999998,8.94140623 7.69140623,9.49999999 6.99999997,9.49999999 Z M9.49999999,5.74999997 C9.49999999,5.05859372 10.0585937,4.49999996 10.75,4.49999996 C11.4414062,4.49999996 12,5.05859372 12,5.74999997 C12,6.44140622 11.4414062,6.99999997 10.75,6.99999997 C10.0585937,6.99999997 9.49999999,6.44140622 9.49999999,5.74999997 Z M11.375,11.375 C10.6835937,11.375 10.125,10.8164062 10.125,10.125 C10.125,9.43359374 10.6835937,8.87499998 11.375,8.87499998 C12.0664063,8.87499998 12.625,9.43359374 12.625,10.125 C12.625,10.8164062 12.0664063,11.375 11.375,11.375 Z" id="path-1"></path>
    </defs>
    <g id="bowling-ball" stroke="none" stroke-width="1" fill="none" fill-rule="evenodd">
        <mask id="mask-2" fill="white">
            <use xlink:href="#path-1"></use>
        </mask>
        <g fill-rule="nonzero"></g>
        <g id="🎨-color" mask="url(#mask-2)" fill="#000000">
            <rect id="🎨-Color" x="0" y="0" width="24" height="24"></rect>
        </g>
    </g>
</svg>