<?xml version="1.0" encoding="UTF-8"?>
<svg width="24px" height="24px" viewBox="0 0 24 24" version="1.1" xmlns="http://www.w3.org/2000/svg" xmlns:xlink="http://www.w3.org/1999/xlink">
    <!-- Generator: Sketch 52.5 (67469) - http://www.bohemiancoding.com/sketch -->
    <title>box-open</title>
    <desc>Created with Sketch.</desc>
    <defs>
        <path d="M3.6911076,5.29173164 L2.08424332,8.49921995 C1.94071758,8.78627143 2.09360369,9.12948517 2.39937593,9.21684866 L8.57410295,10.9797192 C8.79563181,11.0421217 9.0327613,10.9485179 9.15132604,10.7519501 L12.0156006,6.00936034 L4.20904832,5.01404053 C3.99375971,4.98907953 3.78783147,5.0982839 3.6911076,5.29173164 Z M21.9469579,8.49921995 L20.3400936,5.29173164 C20.2433698,5.0982839 20.0343214,4.9859594 19.8190328,5.01404053 L12.0156006,6.00936034 L14.8767551,10.7550702 C14.9953198,10.9516381 15.2324493,11.0452418 15.4539782,10.9828393 L21.6287052,9.21996878 C21.9375976,9.12948517 22.0873635,8.78627143 21.9469579,8.49921995 Z M15.3135726,12 C14.7862715,12 14.2901716,11.7191888 14.0218409,11.2698908 L12.0156006,7.94383773 L10.0124805,11.2698908 C9.74102963,11.7223089 9.24492978,12.0031201 8.71762869,12.0031201 C8.57722307,12.0031201 8.43681745,11.9843994 8.30265209,11.9438378 L4.02808108,10.7207488 L4.02808108,16.274571 C4.02808108,16.7332294 4.34009357,17.1326053 4.78315129,17.2418097 L11.5288612,18.9297972 C11.8471139,19.0078003 12.1809672,19.0078003 12.4960998,18.9297972 L19.24805,17.2418097 C19.6911077,17.1294852 20.0031202,16.7301092 20.0031202,16.274571 L20.0031202,10.7207488 L15.7285492,11.9407176 C15.5943838,11.9812793 15.4539782,12 15.3135726,12 Z" id="path-1"></path>
    </defs>
    <g id="box-open" stroke="none" stroke-width="1" fill="none" fill-rule="evenodd">
        <mask id="mask-2" fill="white">
            <use xlink:href="#path-1"></use>
        </mask>
        <g fill-rule="nonzero"></g>
        <g id="🎨-color" mask="url(#mask-2)" fill="#000000">
            <rect id="🎨-Color" x="0" y="0" width="24" height="24"></rect>
        </g>
    </g>
</svg>