<?xml version="1.0" encoding="UTF-8"?>
<svg width="24px" height="24px" viewBox="0 0 24 24" version="1.1" xmlns="http://www.w3.org/2000/svg" xmlns:xlink="http://www.w3.org/1999/xlink">
    <!-- Generator: Sketch 52.5 (67469) - http://www.bohemiancoding.com/sketch -->
    <title>box</title>
    <desc>Created with Sketch.</desc>
    <defs>
        <path d="M21.9023438,9.21093749 L19.9257813,3.28124996 C19.671875,2.51562495 18.9570313,1.99999995 18.1484375,1.99999995 L12.625,1.99999995 L12.625,9.49999999 L21.9492188,9.49999999 C21.9335938,9.40234374 21.9335938,9.30468749 21.9023438,9.21093749 Z M11.375,1.99999995 L5.85156247,1.99999995 C5.04296872,1.99999995 4.32812496,2.51562495 4.07421871,3.28124996 L2.0976562,9.21093749 C2.0664062,9.30468749 2.0664062,9.40234374 2.0507812,9.49999999 L11.375,9.49999999 L11.375,1.99999995 Z M1.99999995,10.75 L1.99999995,20.125 C1.99999995,21.1601563 2.8398437,22.0000001 3.87499996,22.0000001 L20.125,22.0000001 C21.1601563,22.0000001 22.0000001,21.1601563 22.0000001,20.125 L22.0000001,10.75 L1.99999995,10.75 Z" id="path-1"></path>
    </defs>
    <g id="box" stroke="none" stroke-width="1" fill="none" fill-rule="evenodd">
        <mask id="mask-2" fill="white">
            <use xlink:href="#path-1"></use>
        </mask>
        <g fill-rule="nonzero"></g>
        <g id="🎨-color" mask="url(#mask-2)" fill="#000000">
            <rect id="🎨-Color" x="0" y="0" width="24" height="24"></rect>
        </g>
    </g>
</svg>