<?xml version="1.0" encoding="UTF-8"?>
<svg width="24px" height="24px" viewBox="0 0 24 24" version="1.1" xmlns="http://www.w3.org/2000/svg" xmlns:xlink="http://www.w3.org/1999/xlink">
    <!-- Generator: Sketch 52.5 (67469) - http://www.bohemiancoding.com/sketch -->
    <title>boxes</title>
    <desc>Created with Sketch.</desc>
    <defs>
        <path d="M21.4444445,13.1111111 L18.6666667,13.1111111 L18.6666667,16.4444445 L17.5555556,15.7048611 L16.4444445,16.4444445 L16.4444445,13.1111111 L13.6666667,13.1111111 C13.3611111,13.1111111 13.1111111,13.3611111 13.1111111,13.6666667 L13.1111111,20.3333334 C13.1111111,20.6388889 13.3611111,20.8888889 13.6666667,20.8888889 L21.4444445,20.8888889 C21.75,20.8888889 22.0000001,20.6388889 22.0000001,20.3333334 L22.0000001,13.6666667 C22.0000001,13.3611111 21.75,13.1111111 21.4444445,13.1111111 Z M8.11111109,10.8888889 L15.8888889,10.8888889 C16.1944445,10.8888889 16.4444445,10.6388889 16.4444445,10.3333333 L16.4444445,3.66666662 C16.4444445,3.36111107 16.1944445,3.11111107 15.8888889,3.11111107 L13.1111111,3.11111107 L13.1111111,6.44444442 L12,5.70486108 L10.8888889,6.44444442 L10.8888889,3.11111107 L8.11111109,3.11111107 C7.80555553,3.11111107 7.55555553,3.36111107 7.55555553,3.66666662 L7.55555553,10.3333333 C7.55555553,10.6388889 7.80555553,10.8888889 8.11111109,10.8888889 Z M10.3333333,13.1111111 L7.55555553,13.1111111 L7.55555553,16.4444445 L6.44444442,15.7048611 L5.3333333,16.4444445 L5.3333333,13.1111111 L2.55555551,13.1111111 C2.24999995,13.1111111 1.99999995,13.3611111 1.99999995,13.6666667 L1.99999995,20.3333334 C1.99999995,20.6388889 2.24999995,20.8888889 2.55555551,20.8888889 L10.3333333,20.8888889 C10.6388889,20.8888889 10.8888889,20.6388889 10.8888889,20.3333334 L10.8888889,13.6666667 C10.8888889,13.3611111 10.6388889,13.1111111 10.3333333,13.1111111 Z" id="path-1"></path>
    </defs>
    <g id="boxes" stroke="none" stroke-width="1" fill="none" fill-rule="evenodd">
        <mask id="mask-2" fill="white">
            <use xlink:href="#path-1"></use>
        </mask>
        <g fill-rule="nonzero"></g>
        <g id="🎨-color" mask="url(#mask-2)" fill="#000000">
            <rect id="🎨-Color" x="0" y="0" width="24" height="24"></rect>
        </g>
    </g>
</svg>