<?xml version="1.0" encoding="UTF-8"?>
<svg width="24px" height="24px" viewBox="0 0 24 24" version="1.1" xmlns="http://www.w3.org/2000/svg" xmlns:xlink="http://www.w3.org/1999/xlink">
    <!-- Generator: Sketch 52.5 (67469) - http://www.bohemiancoding.com/sketch -->
    <title>brain</title>
    <desc>Created with Sketch.</desc>
    <defs>
        <path d="M9.22222221,3.11111107 C8.18506943,3.11111107 7.32152775,3.82465274 7.07638886,4.78541663 C7.0503472,4.78472219 7.02604164,4.77777774 6.99999997,4.77777774 C5.77291664,4.77777774 4.77777774,5.77256941 4.77777774,6.99999998 C4.77777774,7.16805553 4.79999996,7.33020831 4.83541663,7.48749998 C3.82430551,7.90277776 3.11111107,8.89479165 3.11111107,10.0555555 C3.11111107,10.4923611 3.22083329,10.9 3.4006944,11.2677083 C2.56736106,11.7472222 1.99999995,12.6364583 1.99999995,13.6666667 C1.99999995,14.8243056 2.70902773,15.8152778 3.71597218,16.2322917 C3.68472218,16.3909722 3.66666662,16.5545139 3.66666662,16.7222222 C3.66666662,18.1027778 4.78576385,19.2222223 6.16666664,19.2222223 C6.30972219,19.2222223 6.44791664,19.203125 6.58437497,19.1802084 C6.91701386,20.1704862 7.84201387,20.8888889 8.94444443,20.8888889 C10.3253472,20.8888889 11.4444444,19.7694445 11.4444444,18.3888889 L11.4444444,10.2447917 C11.065625,10.5565972 10.6118055,10.78125 10.1125,10.8833333 C9.93993055,10.91875 9.77777777,10.7854167 9.77777777,10.609375 L9.77777777,10.0475694 C9.77777777,9.9236111 9.85937499,9.81215277 9.97916666,9.78159721 C10.8194444,9.56770832 11.4444444,8.8111111 11.4444444,7.90520831 L11.4444444,5.3333333 C11.4444444,4.10590274 10.4493055,3.11111107 9.22222221,3.11111107 Z M22.0000001,13.6666667 C22.0000001,12.6364583 21.4326389,11.7472222 20.5993056,11.2677083 C20.7788195,10.9 20.8888889,10.4923611 20.8888889,10.0555555 C20.8888889,8.89479165 20.1756945,7.90277776 19.1645834,7.48749998 C19.2,7.33020831 19.2222223,7.16805553 19.2222223,6.99999998 C19.2222223,5.77256941 18.2270834,4.77777774 17,4.77777774 C16.9739584,4.77777774 16.9496528,4.78472219 16.9236111,4.78541663 C16.6784722,3.82465274 15.8149306,3.11111107 14.7777778,3.11111107 C13.5506945,3.11111107 12.5555556,4.10590274 12.5555556,5.3333333 L12.5555556,7.90520831 C12.5555556,8.8111111 13.1802083,9.56770832 14.0208333,9.78159721 C14.1409722,9.81215277 14.2222222,9.9236111 14.2222222,10.0475694 L14.2222222,10.609375 C14.2222222,10.7854167 14.0597222,10.91875 13.8875,10.8833333 C13.3881945,10.78125 12.9347222,10.5565972 12.5555556,10.2447917 L12.5555556,18.3888889 C12.5555556,19.7694445 13.6746528,20.8888889 15.0555556,20.8888889 C16.1579861,20.8888889 17.0829861,20.1704862 17.415625,19.1802084 C17.5520834,19.2034723 17.6902778,19.2222223 17.8333334,19.2222223 C19.2142361,19.2222223 20.3333334,18.1027778 20.3333334,16.7222222 C20.3333334,16.5545139 20.3152778,16.3909722 20.2840278,16.2322917 C21.2909723,15.8152778 22.0000001,14.8243056 22.0000001,13.6666667 Z" id="path-1"></path>
    </defs>
    <g id="brain" stroke="none" stroke-width="1" fill="none" fill-rule="evenodd">
        <mask id="mask-2" fill="white">
            <use xlink:href="#path-1"></use>
        </mask>
        <g fill-rule="nonzero"></g>
        <g id="🎨-color" mask="url(#mask-2)" fill="#000000">
            <rect id="🎨-Color" x="0" y="0" width="24" height="24"></rect>
        </g>
    </g>
</svg>