<?xml version="1.0" encoding="UTF-8"?>
<svg width="24px" height="24px" viewBox="0 0 24 24" version="1.1" xmlns="http://www.w3.org/2000/svg" xmlns:xlink="http://www.w3.org/1999/xlink">
    <!-- Generator: Sketch 52.5 (67469) - http://www.bohemiancoding.com/sketch -->
    <title>braille</title>
    <desc>Created with Sketch.</desc>
    <defs>
        <path d="M5.99999997,12 C5.99999997,13.1045625 5.10456247,14 3.99999996,14 C2.89543745,14 1.99999995,13.1045625 1.99999995,12 C1.99999995,10.8954375 2.89543745,9.99999999 3.99999996,9.99999999 C5.10456247,9.99999999 5.99999997,10.8954375 5.99999997,12 Z M3.99999996,16 C3.44771871,16 2.99999995,16.4477188 2.99999995,17 C2.99999995,17.5522813 3.44771871,18 3.99999996,18 C4.55228121,18 4.99999996,17.5522813 4.99999996,17 C4.99999996,16.4477188 4.55228121,16 3.99999996,16 Z M3.99999996,4.99999997 C2.89543745,4.99999997 1.99999995,5.89543747 1.99999995,6.99999998 C1.99999995,8.10456248 2.89543745,8.99999999 3.99999996,8.99999999 C5.10456247,8.99999999 5.99999997,8.10456248 5.99999997,6.99999998 C5.99999997,5.89543747 5.10456247,4.99999997 3.99999996,4.99999997 Z M8.99999998,11 C8.44771873,11 7.99999998,11.4477187 7.99999998,12 C7.99999998,12.5522813 8.44771873,13 8.99999998,13 C9.55228124,13 9.99999999,12.5522813 9.99999999,12 C9.99999999,11.4477187 9.55228124,11 8.99999998,11 Z M8.99999998,16 C8.44771873,16 7.99999998,16.4477188 7.99999998,17 C7.99999998,17.5522813 8.44771873,18 8.99999998,18 C9.55228124,18 9.99999999,17.5522813 9.99999999,17 C9.99999999,16.4477188 9.55228124,16 8.99999998,16 Z M8.99999998,4.99999997 C7.89543748,4.99999997 6.99999997,5.89543747 6.99999997,6.99999998 C6.99999997,8.10456248 7.89543748,8.99999999 8.99999998,8.99999999 C10.1045625,8.99999999 11,8.10456248 11,6.99999998 C11,5.89543747 10.1045625,4.99999997 8.99999998,4.99999997 Z M16,11 C15.4477188,11 15,11.4477187 15,12 C15,12.5522813 15.4477188,13 16,13 C16.5522813,13 17,12.5522813 17,12 C17,11.4477187 16.5522813,11 16,11 Z M16,16 C15.4477188,16 15,16.4477188 15,17 C15,17.5522813 15.4477188,18 16,18 C16.5522813,18 17,17.5522813 17,17 C17,16.4477188 16.5522813,16 16,16 Z M16,4.99999997 C14.8954375,4.99999997 14,5.89543747 14,6.99999998 C14,8.10456248 14.8954375,8.99999999 16,8.99999999 C17.1045625,8.99999999 18,8.10456248 18,6.99999998 C18,5.89543747 17.1045625,4.99999997 16,4.99999997 Z M21,11 C20.4477188,11 20,11.4477187 20,12 C20,12.5522813 20.4477188,13 21,13 C21.5522813,13 22.0000001,12.5522813 22.0000001,12 C22.0000001,11.4477187 21.5522813,11 21,11 Z M21,16 C20.4477188,16 20,16.4477188 20,17 C20,17.5522813 20.4477188,18 21,18 C21.5522813,18 22.0000001,17.5522813 22.0000001,17 C22.0000001,16.4477188 21.5522813,16 21,16 Z M21,5.99999997 C20.4477188,5.99999997 20,6.44771872 20,6.99999998 C20,7.55228123 20.4477188,7.99999998 21,7.99999998 C21.5522813,7.99999998 22.0000001,7.55228123 22.0000001,6.99999998 C22.0000001,6.44771872 21.5522813,5.99999997 21,5.99999997 Z" id="path-1"></path>
    </defs>
    <g id="braille" stroke="none" stroke-width="1" fill="none" fill-rule="evenodd">
        <mask id="mask-2" fill="white">
            <use xlink:href="#path-1"></use>
        </mask>
        <g fill-rule="nonzero"></g>
        <g id="🎨-color" mask="url(#mask-2)" fill="#000000">
            <rect id="🎨-Color" x="0" y="0" width="24" height="24"></rect>
        </g>
    </g>
</svg>