<?xml version="1.0" encoding="UTF-8"?>
<svg width="24px" height="24px" viewBox="0 0 24 24" version="1.1" xmlns="http://www.w3.org/2000/svg" xmlns:xlink="http://www.w3.org/1999/xlink">
    <!-- Generator: Sketch 52.5 (67469) - http://www.bohemiancoding.com/sketch -->
    <title>briefcase-medical</title>
    <desc>Created with Sketch.</desc>
    <defs>
        <path d="M20.125,6.99999997 L17,6.99999997 L17,5.12499997 C17,4.08984371 16.1601563,3.24999996 15.125,3.24999996 L8.87499998,3.24999996 C7.83984373,3.24999996 6.99999997,4.08984371 6.99999997,5.12499997 L6.99999997,6.99999997 L3.87499996,6.99999997 C2.8398437,6.99999997 1.99999995,7.83984373 1.99999995,8.87499998 L1.99999995,20.125 C1.99999995,21.1601563 2.8398437,22 3.87499996,22 L20.125,22 C21.1601563,22 22.0000001,21.1601563 22.0000001,20.125 L22.0000001,8.87499998 C22.0000001,7.83984373 21.1601563,6.99999997 20.125,6.99999997 Z M9.49999999,5.74999997 L14.5,5.74999997 L14.5,6.99999997 L9.49999999,6.99999997 L9.49999999,5.74999997 Z M15.75,15.4375 C15.75,15.609375 15.609375,15.75 15.4375,15.75 L13.25,15.75 L13.25,17.9375 C13.25,18.109375 13.109375,18.25 12.9375,18.25 L11.0625,18.25 C10.890625,18.25 10.75,18.109375 10.75,17.9375 L10.75,15.75 L8.56249998,15.75 C8.39062498,15.75 8.24999998,15.609375 8.24999998,15.4375 L8.24999998,13.5625 C8.24999998,13.390625 8.39062498,13.25 8.56249998,13.25 L10.75,13.25 L10.75,11.0625 C10.75,10.890625 10.890625,10.75 11.0625,10.75 L12.9375,10.75 C13.109375,10.75 13.25,10.890625 13.25,11.0625 L13.25,13.25 L15.4375,13.25 C15.609375,13.25 15.75,13.390625 15.75,13.5625 L15.75,15.4375 Z" id="path-1"></path>
    </defs>
    <g id="briefcase-medical" stroke="none" stroke-width="1" fill="none" fill-rule="evenodd">
        <mask id="mask-2" fill="white">
            <use xlink:href="#path-1"></use>
        </mask>
        <g fill-rule="nonzero"></g>
        <g id="🎨-color" mask="url(#mask-2)" fill="#000000">
            <rect id="🎨-Color" x="0" y="0" width="24" height="24"></rect>
        </g>
    </g>
</svg>