<?xml version="1.0" encoding="UTF-8"?>
<svg width="24px" height="24px" viewBox="0 0 24 24" version="1.1" xmlns="http://www.w3.org/2000/svg" xmlns:xlink="http://www.w3.org/1999/xlink">
    <!-- Generator: Sketch 52.5 (67469) - http://www.bohemiancoding.com/sketch -->
    <title>broadcast-tower</title>
    <desc>Created with Sketch.</desc>
    <defs>
        <path d="M6.71687497,9.99999999 L7.77093748,9.99999999 C8.11499998,9.99999999 8.35249998,9.66156249 8.23531248,9.33812499 C8.08124998,8.91374998 7.99937498,8.46374998 7.99937498,7.99999998 C7.99937498,7.53624998 8.08124998,7.08624998 8.23531248,6.66187497 C8.35281248,6.33843747 8.11499998,5.99999997 7.77093748,5.99999997 L6.71687497,5.99999997 C6.49781247,5.99999997 6.29624997,6.14031247 6.23531247,6.35093747 C6.08249997,6.88156247 5.99999997,7.43374998 5.99999997,7.99999998 C5.99999997,8.56624998 6.08249997,9.11843749 6.23562497,9.64874999 C6.29624997,9.85937499 6.49781247,9.99999999 6.71687497,9.99999999 Z M4.80999996,4.72937496 C4.98624996,4.39749996 4.74906246,3.99999996 4.37374996,3.99999996 L3.26968746,3.99999996 C3.07374996,3.99999996 2.89031245,4.11218746 2.80906245,4.29093746 C2.29374995,5.42312497 1.99999995,6.67656247 1.99999995,7.99999998 C1.99999995,8.77343748 2.09749995,10.1353125 2.83406245,11.714375 C2.91593745,11.8903125 3.09718746,12 3.29062496,12 L4.37937496,12 C4.75499996,12 4.99218746,11.601875 4.81531246,11.2696875 C3.25968746,8.35343748 4.29312496,5.70249997 4.80999996,4.72937496 Z M21.189375,4.29031246 C21.108125,4.11187496 20.925,3.99999996 20.7290625,3.99999996 L19.6221875,3.99999996 C19.2478125,3.99999996 19.0078125,4.39562496 19.1840625,4.72656246 C19.755,5.79812497 20.6971875,8.45843748 19.1928125,11.265 C19.0140625,11.59875 19.2490625,12 19.6275,12 L20.7284375,12 C20.924375,12 21.1075,11.888125 21.18875,11.7096875 C21.7053125,10.5775 22.0000001,9.32374999 22.0000001,7.99999998 C22.0000001,6.67624997 21.705625,5.42249997 21.189375,4.29031246 Z M17.283125,5.99999997 L16.2290625,5.99999997 C15.885,5.99999997 15.6475,6.33843747 15.7646875,6.66187497 C15.91875,7.08624998 16.000625,7.53624998 16.000625,7.99999998 C16.000625,8.46374998 15.91875,8.91374998 15.7646875,9.33812499 C15.6471875,9.66156249 15.885,9.99999999 16.2290625,9.99999999 L17.283125,9.99999999 C17.5025,9.99999999 17.70375,9.85968749 17.7646875,9.64874999 C17.9178125,9.11843749 18,8.56624998 18,7.99999998 C18,7.43374998 17.9175,6.88156247 17.764375,6.35124997 C17.70375,6.14031247 17.5021875,5.99999997 17.283125,5.99999997 Z M13.64875,9.12874999 C13.8690625,8.80718748 13.99875,8.41906248 13.99875,7.99999998 C13.99875,6.89531247 13.1040625,5.99999997 12,5.99999997 C10.89625,5.99999997 10.00125,6.89531247 10.00125,7.99999998 C10.00125,8.41906248 10.1309375,8.80718748 10.35125,9.12874999 L6.27312497,18.9228125 C6.16687497,19.1775 6.28749997,19.4703125 6.54218747,19.5765625 L7.46437498,19.96125 C7.71906248,20.0675 8.01187498,19.946875 8.11781248,19.6921875 L9.65499999,16 L14.3446875,16 L15.8821875,19.6921875 C15.9884375,19.9471875 16.2809375,20.0675 16.535625,19.96125 L17.4578125,19.5765625 C17.7125,19.4703125 17.8328125,19.1775 17.726875,18.9228125 L13.64875,9.12874999 Z M10.488125,14 L12,10.3690625 L13.511875,14 L10.488125,14 Z" id="path-1"></path>
    </defs>
    <g id="broadcast-tower" stroke="none" stroke-width="1" fill="none" fill-rule="evenodd">
        <mask id="mask-2" fill="white">
            <use xlink:href="#path-1"></use>
        </mask>
        <g fill-rule="nonzero"></g>
        <g id="🎨-color" mask="url(#mask-2)" fill="#000000">
            <rect id="🎨-Color" x="0" y="0" width="24" height="24"></rect>
        </g>
    </g>
</svg>