<?xml version="1.0" encoding="UTF-8"?>
<svg width="24px" height="24px" viewBox="0 0 24 24" version="1.1" xmlns="http://www.w3.org/2000/svg" xmlns:xlink="http://www.w3.org/1999/xlink">
    <!-- Generator: Sketch 52.5 (67469) - http://www.bohemiancoding.com/sketch -->
    <title>broom</title>
    <desc>Created with Sketch.</desc>
    <defs>
        <path d="M10.0021841,10.775975 L12.7082683,14.1825273 C12.7082683,14.1825273 12.1903276,17.3762871 10.3191888,18.8664587 C8.4480499,20.3572543 1.99999995,19.9310453 1.99999995,19.9310453 C1.99999995,19.9310453 2.11856469,19.2090484 2.34321368,18.2015601 L5.29547579,14.7017161 C5.41934474,14.5550702 5.2683307,14.3391576 5.08798748,14.4053042 L3.20343209,15.0945398 C3.65397812,13.7946958 4.22433693,12.5971919 4.90702025,12.0533541 C6.7781591,10.5631825 10.0021841,10.775975 10.0021841,10.775975 Z M21.8605305,4.98065519 L21.2408737,4.20062399 C21.0695788,3.98533537 20.7566303,3.94945394 20.5416537,4.12074879 L13.2879875,9.66833072 L12.2227769,8.32761309 C12.0639626,8.12761309 11.75039,8.16505458 11.6427457,8.39656784 L10.8524181,10.0985959 L13.5585023,13.5051482 L15.3931357,13.1166927 C15.6427457,13.0639626 15.749454,12.7672387 15.5909517,12.5675507 L14.5273011,11.2283931 L21.7809673,5.6808112 C21.9959439,5.50982836 22.0318253,5.19625582 21.8605305,4.98065519 Z" id="path-1"></path>
    </defs>
    <g id="broom" stroke="none" stroke-width="1" fill="none" fill-rule="evenodd">
        <mask id="mask-2" fill="white">
            <use xlink:href="#path-1"></use>
        </mask>
        <g fill-rule="nonzero"></g>
        <g id="🎨-color" mask="url(#mask-2)" fill="#000000">
            <rect id="🎨-Color" x="0" y="0" width="24" height="24"></rect>
        </g>
    </g>
</svg>