<?xml version="1.0" encoding="UTF-8"?>
<svg width="24px" height="24px" viewBox="0 0 24 24" version="1.1" xmlns="http://www.w3.org/2000/svg" xmlns:xlink="http://www.w3.org/1999/xlink">
    <!-- Generator: Sketch 52.5 (67469) - http://www.bohemiancoding.com/sketch -->
    <title>brush</title>
    <desc>Created with Sketch.</desc>
    <defs>
        <path d="M18.25,1.99999995 L5.74999997,1.99999995 C5.05976559,1.99999995 4.49999996,2.55976558 4.49999996,3.24999996 L4.49999996,12 L19.5,12 L19.5,3.24999996 C19.5,2.55976558 18.9402344,1.99999995 18.25,1.99999995 Z M4.49999996,14.5 C4.49999996,15.8808594 5.61953122,17 6.99999997,17 L9.49999999,17 L9.49999999,19.5 C9.49999999,20.8808594 10.6195312,22.0000001 12,22.0000001 C13.3804688,22.0000001 14.5,20.8808594 14.5,19.5 L14.5,17 L17,17 C18.3804688,17 19.5,15.8808594 19.5,14.5 L19.5,13.25 L4.49999996,13.25 L4.49999996,14.5 Z M12,18.5625 C12.5175781,18.5625 12.9375,18.9820313 12.9375,19.5 C12.9375,20.0175782 12.5175781,20.4375 12,20.4375 C11.4824219,20.4375 11.0625,20.0175782 11.0625,19.5 C11.0625,18.9820313 11.4824219,18.5625 12,18.5625 Z" id="path-1"></path>
    </defs>
    <g id="brush" stroke="none" stroke-width="1" fill="none" fill-rule="evenodd">
        <mask id="mask-2" fill="white">
            <use xlink:href="#path-1"></use>
        </mask>
        <g fill-rule="nonzero"></g>
        <g id="🎨-color" mask="url(#mask-2)" fill="#000000">
            <rect id="🎨-Color" x="0" y="0" width="24" height="24"></rect>
        </g>
    </g>
</svg>