<?xml version="1.0" encoding="UTF-8"?>
<svg width="24px" height="24px" viewBox="0 0 24 24" version="1.1" xmlns="http://www.w3.org/2000/svg" xmlns:xlink="http://www.w3.org/1999/xlink">
    <!-- Generator: Sketch 52.5 (67469) - http://www.bohemiancoding.com/sketch -->
    <title>btc</title>
    <desc>Created with Sketch.</desc>
    <defs>
        <path d="M16.6173438,11.4780469 C17.7005469,10.9241406 18.3898828,9.93937499 18.2298438,8.30226561 C18.0205469,6.06199216 16.1807031,5.31113278 13.7435156,5.10191403 L13.7435156,1.99999995 L11.8478906,1.99999995 L11.8478906,5.01574215 C11.3555078,5.01574215 10.8508203,5.02804684 10.3461719,5.04035153 L10.3461719,1.99999995 L8.45054686,1.99999995 L8.45054686,5.10191403 C7.75359373,5.12296872 6.94187497,5.11269528 4.64703121,5.10191403 L4.64703121,7.12058591 C6.14367185,7.09410154 6.92894529,6.99792966 7.10886716,7.9575781 L7.10886716,16.4508985 C6.99460935,17.2123047 6.38527341,17.1026563 5.02859372,17.0786719 L4.64707028,19.33125 C8.10335936,19.33125 8.45058592,19.3435547 8.45058592,19.3435547 L8.45058592,22.0000001 L10.3462109,22.0000001 L10.3462109,19.3804688 C10.8631641,19.3927735 11.3678516,19.3927735 11.8479297,19.3927735 L11.8479297,22.0000001 L13.7435547,22.0000001 L13.7435547,19.3435547 C16.9192969,19.171211 19.0422657,18.3711328 19.3253907,15.38 C19.5469141,12.9797656 18.4144532,11.9088281 16.6173438,11.4780469 Z M10.383125,7.25597654 C11.4540234,7.25597654 14.8021094,6.92367185 14.8021094,9.15160155 C14.8021094,11.2810937 11.4540625,11.0348828 10.383125,11.0348828 L10.383125,7.25597654 Z M10.383125,17.0909766 L10.383125,12.9305078 C11.6632812,12.9305078 15.5833985,12.5735547 15.5833985,15.0107813 C15.5833594,17.3617969 11.6632812,17.0909766 10.383125,17.0909766 Z" id="path-1"></path>
    </defs>
    <g id="btc" stroke="none" stroke-width="1" fill="none" fill-rule="evenodd">
        <mask id="mask-2" fill="white">
            <use xlink:href="#path-1"></use>
        </mask>
        <g fill-rule="nonzero"></g>
        <g id="🎨-color" mask="url(#mask-2)" fill="#000000">
            <rect id="🎨-Color" x="0" y="0" width="24" height="24"></rect>
        </g>
    </g>
</svg>