<?xml version="1.0" encoding="UTF-8"?>
<svg width="24px" height="24px" viewBox="0 0 24 24" version="1.1" xmlns="http://www.w3.org/2000/svg" xmlns:xlink="http://www.w3.org/1999/xlink">
    <!-- Generator: Sketch 52.5 (67469) - http://www.bohemiancoding.com/sketch -->
    <title>bug</title>
    <desc>Created with Sketch.</desc>
    <defs>
        <path d="M21.9995313,13.2851563 C21.9808594,13.9660156 21.4051172,14.5 20.7240235,14.5 L18.5625,14.5 L18.5625,15.125 C18.5625,15.9790625 18.3717969,16.7884375 18.03125,17.5134766 L20.3839063,19.8661329 C20.8720313,20.3542969 20.8720313,21.1457422 20.3839063,21.6339063 C19.8957032,22.1220704 19.1042578,22.1220313 18.6160938,21.6339063 L16.4779688,19.4957813 C15.5111719,20.2798829 14.2793359,20.75 12.9375,20.75 L12.9375,11.21875 C12.9375,10.9598828 12.7276172,10.75 12.46875,10.75 L11.53125,10.75 C11.2723828,10.75 11.0625,10.9598828 11.0625,11.21875 L11.0625,20.75 C9.72066405,20.75 8.48882811,20.2798829 7.52203123,19.4957813 L5.38390622,21.6339063 C4.89570309,22.1220704 4.10425777,22.1220313 3.61609371,21.6339063 C3.12796871,21.1457422 3.12796871,20.3542969 3.61609371,19.8661329 L5.96874997,17.5134766 C5.62820309,16.7884375 5.43749997,15.9790625 5.43749997,15.125 L5.43749997,14.5 L3.27601558,14.5 C2.59492183,14.5 2.01917964,13.9660156 2.00050776,13.2851563 C1.9810937,12.57875 2.5479687,12 3.24999996,12 L5.43749997,12 L5.43749997,9.70527343 L3.61609371,7.88386717 C3.12796871,7.3957031 3.12796871,6.60425779 3.61609371,6.11609372 C4.10429684,5.62792966 4.89570309,5.62792966 5.38390622,6.11609372 L7.51777342,8.24999998 L16.4821875,8.24999998 L18.6160547,6.11613278 C19.1042578,5.62796872 19.8956641,5.62796872 20.3838672,6.11613278 C20.8719922,6.60429685 20.8719922,7.39574216 20.3838672,7.88390623 L18.5625,9.70527343 L18.5625,12 L20.75,12 C21.4520313,12 22.0189063,12.57875 21.9995313,13.2851563 Z M12.0390625,1.99999995 C9.62281249,1.99999995 7.66406248,3.95874996 7.66406248,6.37499997 L16.4140625,6.37499997 C16.4140625,3.95874996 14.4553125,1.99999995 12.0390625,1.99999995 Z" id="path-1"></path>
    </defs>
    <g id="bug" stroke="none" stroke-width="1" fill="none" fill-rule="evenodd">
        <mask id="mask-2" fill="white">
            <use xlink:href="#path-1"></use>
        </mask>
        <g fill-rule="nonzero"></g>
        <g id="🎨-color" mask="url(#mask-2)" fill="#000000">
            <rect id="🎨-Color" x="0" y="0" width="24" height="24"></rect>
        </g>
    </g>
</svg>