<?xml version="1.0" encoding="UTF-8"?>
<svg width="24px" height="24px" viewBox="0 0 24 24" version="1.1" xmlns="http://www.w3.org/2000/svg" xmlns:xlink="http://www.w3.org/1999/xlink">
    <!-- Generator: Sketch 52.5 (67469) - http://www.bohemiancoding.com/sketch -->
    <title>bullhorn</title>
    <desc>Created with Sketch.</desc>
    <defs>
        <path d="M22.0000001,11.4444444 C22.0000001,10.6239583 21.5503473,9.91527777 20.8888889,9.53055554 L20.8888889,4.22256941 C20.8888889,3.91874996 20.6465278,3.11111107 19.7777778,3.11111107 C19.5305556,3.11111107 19.2850695,3.19374996 19.0840278,3.35486107 L16.1315972,5.71701386 C14.6486111,6.90243053 12.7868056,7.55555553 10.8888889,7.55555553 L4.22222218,7.55555553 C2.99479162,7.55555553 1.99999995,8.5503472 1.99999995,9.77777777 L1.99999995,13.1111111 C1.99999995,14.3385417 2.99479162,15.3333334 4.22222218,15.3333334 L5.39236108,15.3333334 C5.34409719,15.6972222 5.31666663,16.0673611 5.31666663,16.4444445 C5.31666663,17.8253473 5.63819441,19.1302084 6.20416664,20.2965278 C6.38437497,20.6677084 6.77777775,20.8888889 7.19027775,20.8888889 L9.76944443,20.8888889 C10.6739583,20.8888889 11.2170139,19.8527778 10.66875,19.1333334 C10.0993055,18.3861111 9.76076388,17.4541667 9.76076388,16.4444445 C9.76076388,16.0586806 9.81701388,15.6878472 9.91388888,15.3333334 L10.8888889,15.3333334 C12.7868056,15.3333334 14.6486111,15.9864584 16.13125,17.171875 L19.0836806,19.5340278 C19.280595,19.6916042 19.5252292,19.7775567 19.7774306,19.7777778 C20.6427084,19.7777778 20.8885417,18.9868056 20.8885417,18.6666667 L20.8885417,13.3586806 C21.5503473,12.9736111 22.0000001,12.2649306 22.0000001,11.4444444 Z M18.6666667,16.3548611 L17.5190972,15.4368056 C15.6440972,13.9368056 13.2888889,13.1111111 10.8888889,13.1111111 L10.8888889,9.77777777 C13.2888889,9.77777777 15.6440972,8.95208332 17.5190972,7.45208331 L18.6666667,6.53402775 L18.6666667,16.3548611 Z" id="path-1"></path>
    </defs>
    <g id="bullhorn" stroke="none" stroke-width="1" fill="none" fill-rule="evenodd">
        <mask id="mask-2" fill="white">
            <use xlink:href="#path-1"></use>
        </mask>
        <g fill-rule="nonzero"></g>
        <g id="🎨-color" mask="url(#mask-2)" fill="#000000">
            <rect id="🎨-Color" x="0" y="0" width="24" height="24"></rect>
        </g>
    </g>
</svg>