<?xml version="1.0" encoding="UTF-8"?>
<svg width="24px" height="24px" viewBox="0 0 24 24" version="1.1" xmlns="http://www.w3.org/2000/svg" xmlns:xlink="http://www.w3.org/1999/xlink">
    <!-- Generator: Sketch 52.5 (67469) - http://www.bohemiancoding.com/sketch -->
    <title>bullseye</title>
    <desc>Created with Sketch.</desc>
    <defs>
        <path d="M12,2.31249995 C6.64960935,2.31249995 2.31249995,6.64960935 2.31249995,12 C2.31249995,17.3503907 6.64960935,21.6875 12,21.6875 C17.3503907,21.6875 21.6875,17.3503907 21.6875,12 C21.6875,6.64960935 17.3503907,2.31249995 12,2.31249995 Z M12,19.1875 C8.02773436,19.1875 4.81249996,15.9730469 4.81249996,12 C4.81249996,8.02773436 8.02695311,4.81249996 12,4.81249996 C15.9722656,4.81249996 19.1875,8.02695311 19.1875,12 C19.1875,15.9722656 15.9730469,19.1875 12,19.1875 Z M12,6.99999997 C9.23867186,6.99999997 6.99999997,9.23867186 6.99999997,12 C6.99999997,14.7613281 9.23867186,17 12,17 C14.7613281,17 17,14.7613281 17,12 C17,9.23867186 14.7613281,6.99999997 12,6.99999997 Z M12,14.5 C10.6214844,14.5 9.49999999,13.3785156 9.49999999,12 C9.49999999,10.6214844 10.6214844,9.49999999 12,9.49999999 C13.3785156,9.49999999 14.5,10.6214844 14.5,12 C14.5,13.3785156 13.3785156,14.5 12,14.5 Z" id="path-1"></path>
    </defs>
    <g id="bullseye" stroke="none" stroke-width="1" fill="none" fill-rule="evenodd">
        <mask id="mask-2" fill="white">
            <use xlink:href="#path-1"></use>
        </mask>
        <g fill-rule="nonzero"></g>
        <g id="🎨-color" mask="url(#mask-2)" fill="#000000">
            <rect id="🎨-Color" x="0" y="0" width="24" height="24"></rect>
        </g>
    </g>
</svg>