<?xml version="1.0" encoding="UTF-8"?>
<svg width="24px" height="24px" viewBox="0 0 24 24" version="1.1" xmlns="http://www.w3.org/2000/svg" xmlns:xlink="http://www.w3.org/1999/xlink">
    <!-- Generator: Sketch 52.5 (67469) - http://www.bohemiancoding.com/sketch -->
    <title>buromobelexperte</title>
    <desc>Created with Sketch.</desc>
    <defs>
        <path d="M3.24999996,3.24999996 L3.24999996,8.24999998 L8.24999998,8.24999998 L8.24999998,3.24999996 L3.24999996,3.24999996 Z M7.93749998,7.93749998 L3.56249996,7.93749998 L3.56249996,3.56249996 L7.93749998,3.56249996 L7.93749998,7.93749998 Z M9.49999999,3.24999996 L9.49999999,8.24999998 L14.5,8.24999998 L14.5,3.24999996 L9.49999999,3.24999996 Z M14.1875,7.93749998 L9.81249999,7.93749998 L9.81249999,3.56249996 L14.1875,3.56249996 L14.1875,7.93749998 Z M15.75,3.24999996 L15.75,8.24999998 L20.75,8.24999998 L20.75,3.24999996 L15.75,3.24999996 Z M20.4375,7.93749998 L16.0625,7.93749998 L16.0625,3.56249996 L20.4375,3.56249996 L20.4375,7.93749998 Z M3.24999996,9.49999999 L3.24999996,14.5 L8.24999998,14.5 L8.24999998,9.49999999 L3.24999996,9.49999999 Z M7.93749998,14.1875 L3.56249996,14.1875 L3.56249996,9.81249999 L7.93749998,9.81249999 L7.93749998,14.1875 Z M9.49999999,9.49999999 L9.49999999,14.5 L14.5,14.5 L14.5,9.49999999 L9.49999999,9.49999999 Z M14.1875,14.1875 L9.81249999,14.1875 L9.81249999,9.81249999 L14.1875,9.81249999 L14.1875,14.1875 Z M15.75,9.49999999 L15.75,14.5 L20.75,14.5 L20.75,9.49999999 L15.75,9.49999999 Z M20.4375,14.1875 L16.0625,14.1875 L16.0625,9.81249999 L20.4375,9.81249999 L20.4375,14.1875 Z M3.24999996,15.75 L3.24999996,20.75 L8.24999998,20.75 L8.24999998,15.75 L3.24999996,15.75 Z M7.93749998,20.4375 L3.56249996,20.4375 L3.56249996,16.0625 L7.93749998,16.0625 L7.93749998,20.4375 Z M9.49999999,15.75 L9.49999999,20.75 L14.5,20.75 L14.5,15.75 L9.49999999,15.75 Z M14.1875,20.4375 L9.81249999,20.4375 L9.81249999,16.0625 L14.1875,16.0625 L14.1875,20.4375 Z M15.75,15.75 L15.75,20.75 L20.75,20.75 L20.75,15.75 L15.75,15.75 Z" id="path-1"></path>
    </defs>
    <g id="buromobelexperte" stroke="none" stroke-width="1" fill="none" fill-rule="evenodd">
        <mask id="mask-2" fill="white">
            <use xlink:href="#path-1"></use>
        </mask>
        <g fill-rule="nonzero"></g>
        <g id="🎨-color" mask="url(#mask-2)" fill="#000000">
            <rect id="🎨-Color" x="0" y="0" width="24" height="24"></rect>
        </g>
    </g>
</svg>