<?xml version="1.0" encoding="UTF-8"?>
<svg width="24px" height="24px" viewBox="0 0 24 24" version="1.1" xmlns="http://www.w3.org/2000/svg" xmlns:xlink="http://www.w3.org/1999/xlink">
    <!-- Generator: Sketch 52.5 (67469) - http://www.bohemiancoding.com/sketch -->
    <title>bus</title>
    <desc>Created with Sketch.</desc>
    <defs>
        <path d="M21.0625,6.99999997 L20.75,6.99999997 L20.75,5.12499997 C20.75,3.37499996 16.875,1.99999995 12,1.99999995 C7.12499998,1.99999995 3.24999996,3.37499996 3.24999996,5.12499997 L3.24999996,6.99999997 L2.93749995,6.99999997 C2.41992183,6.99999997 1.99999995,7.41953123 1.99999995,7.93749998 L1.99999995,11.0625 C1.99999995,11.5800781 2.41992183,12 2.93749995,12 L3.24999996,12 L3.24999996,18.25 C3.24999996,18.9402344 3.80976558,19.5 4.49999996,19.5 L4.49999996,20.75 C4.49999996,21.4402344 5.05976559,22.0000001 5.74999997,22.0000001 L6.99999997,22.0000001 C7.69023435,22.0000001 8.24999998,21.4402344 8.24999998,20.75 L8.24999998,19.5 L15.75,19.5 L15.75,20.75 C15.75,21.4402344 16.3097656,22.0000001 17,22.0000001 L18.25,22.0000001 C18.9402344,22.0000001 19.5,21.4402344 19.5,20.75 L19.5,19.5 L19.75,19.5 C20.375,19.5 20.75,19 20.75,18.5 L20.75,12 L21.0625,12 C21.5800782,12 22.0000001,11.5800781 22.0000001,11.0625 L22.0000001,7.93749998 C22.0000001,7.41953123 21.5800782,6.99999997 21.0625,6.99999997 Z M6.37499997,17.625 C5.68476559,17.625 5.12499997,17.0652344 5.12499997,16.375 C5.12499997,15.6847656 5.68476559,15.125 6.37499997,15.125 C7.06523435,15.125 7.62499998,15.6847656 7.62499998,16.375 C7.62499998,17.0652344 7.06523435,17.625 6.37499997,17.625 Z M6.99999997,13.25 C6.3097656,13.25 5.74999997,12.6902344 5.74999997,12 L5.74999997,6.99999997 C5.74999997,6.3097656 6.3097656,5.74999997 6.99999997,5.74999997 L17,5.74999997 C17.6902344,5.74999997 18.25,6.3097656 18.25,6.99999997 L18.25,12 C18.25,12.6902344 17.6902344,13.25 17,13.25 L6.99999997,13.25 Z M17.625,17.625 C16.9347656,17.625 16.375,17.0652344 16.375,16.375 C16.375,15.6847656 16.9347656,15.125 17.625,15.125 C18.3152344,15.125 18.875,15.6847656 18.875,16.375 C18.875,17.0652344 18.3152344,17.625 17.625,17.625 Z" id="path-1"></path>
    </defs>
    <g id="bus" stroke="none" stroke-width="1" fill="none" fill-rule="evenodd">
        <mask id="mask-2" fill="white">
            <use xlink:href="#path-1"></use>
        </mask>
        <g fill-rule="nonzero"></g>
        <g id="🎨-color" mask="url(#mask-2)" fill="#000000">
            <rect id="🎨-Color" x="0" y="0" width="24" height="24"></rect>
        </g>
    </g>
</svg>