<?xml version="1.0" encoding="UTF-8"?>
<svg width="24px" height="24px" viewBox="0 0 24 24" version="1.1" xmlns="http://www.w3.org/2000/svg" xmlns:xlink="http://www.w3.org/1999/xlink">
    <!-- Generator: Sketch 52.5 (67469) - http://www.bohemiancoding.com/sketch -->
    <title>business-time</title>
    <desc>Created with Sketch.</desc>
    <defs>
        <path d="M17.5,11 C15.0128125,11 13,13.0128125 13,15.5 C13,17.9871875 15.0128125,20 17.5,20 C19.9871875,20 22.0000001,17.9871875 22.0000001,15.5 C22.0000001,13.0128125 19.9871875,11 17.5,11 Z M19.5,15.6965625 C19.5,15.8634375 19.3634375,16 19.1965625,16 L17.30375,16 C17.136875,16 17.0003125,15.8634375 17.0003125,15.6965625 L17.0003125,13.30375 C17.0003125,13.136875 17.136875,13.0003125 17.30375,13.0003125 L17.6965625,13.0003125 C17.8634375,13.0003125 18,13.136875 18,13.30375 L18,15 L19.1965625,15 C19.3634375,15 19.5,15.1365625 19.5,15.3034375 L19.5,15.6965625 Z M17.5,9.99999999 C17.66875,9.99999999 17.835,10.0103125 18,10.0253125 L18,8.49999998 C18,7.69999998 17.3,6.99999997 16.5,6.99999997 L14,6.99999997 L14,5.49999997 C14,4.69999996 13.3,3.99999996 12.5,3.99999996 L7.49999998,3.99999996 C6.69999997,3.99999996 5.99999997,4.69999996 5.99999997,5.49999997 L5.99999997,6.99999997 L3.49999996,6.99999997 C2.69999995,6.99999997 1.99999995,7.69999998 1.99999995,8.49999998 L1.99999995,11 L14.3475,11 C15.24125,10.3721875 16.3271875,9.99999999 17.5,9.99999999 Z M12,6.99999997 L7.99999998,6.99999997 L7.99999998,5.99999997 L12,5.99999997 L12,6.99999997 Z M12.213125,14 L8.49999998,14 C8.22374998,14 7.99999998,13.77625 7.99999998,13.5 L7.99999998,12 L1.99999995,12 L1.99999995,16.5 C1.99999995,17.3 2.69999995,18 3.49999996,18 L12.6071875,18 C12.221875,17.24875 12,16.400625 12,15.5 C12,14.979375 12.0775,14.4775 12.213125,14 Z" id="path-1"></path>
    </defs>
    <g id="business-time" stroke="none" stroke-width="1" fill="none" fill-rule="evenodd">
        <mask id="mask-2" fill="white">
            <use xlink:href="#path-1"></use>
        </mask>
        <g fill-rule="nonzero"></g>
        <g id="🎨-color" mask="url(#mask-2)" fill="#000000">
            <rect id="🎨-Color" x="0" y="0" width="24" height="24"></rect>
        </g>
    </g>
</svg>