<?xml version="1.0" encoding="UTF-8"?>
<svg width="24px" height="24px" viewBox="0 0 24 24" version="1.1" xmlns="http://www.w3.org/2000/svg" xmlns:xlink="http://www.w3.org/1999/xlink">
    <!-- Generator: Sketch 52.5 (67469) - http://www.bohemiancoding.com/sketch -->
    <title>calculator</title>
    <desc>Created with Sketch.</desc>
    <defs>
        <path d="M18.875,1.99999995 L5.12499997,1.99999995 C4.12499996,1.99999995 3.24999996,2.87499995 3.24999996,3.87499996 L3.24999996,20.125 C3.24999996,21.125 4.12499996,22.0000001 5.12499997,22.0000001 L18.875,22.0000001 C19.875,22.0000001 20.75,21.125 20.75,20.125 L20.75,3.87499996 C20.75,2.87499995 19.875,1.99999995 18.875,1.99999995 Z M8.24999998,19 C8.24999998,19.25 7.99999998,19.5 7.74999998,19.5 L6.24999997,19.5 C5.99999997,19.5 5.74999997,19.25 5.74999997,19 L5.74999997,17.5 C5.74999997,17.25 5.99999997,17 6.24999997,17 L7.74999998,17 C7.99999998,17 8.24999998,17.25 8.24999998,17.5 L8.24999998,19 Z M8.24999998,14 C8.24999998,14.25 7.99999998,14.5 7.74999998,14.5 L6.24999997,14.5 C5.99999997,14.5 5.74999997,14.25 5.74999997,14 L5.74999997,12.5 C5.74999997,12.25 5.99999997,12 6.24999997,12 L7.74999998,12 C7.99999998,12 8.24999998,12.25 8.24999998,12.5 L8.24999998,14 Z M13.25,19 C13.25,19.25 13,19.5 12.75,19.5 L11.25,19.5 C11,19.5 10.75,19.25 10.75,19 L10.75,17.5 C10.75,17.25 11,17 11.25,17 L12.75,17 C13,17 13.25,17.25 13.25,17.5 L13.25,19 Z M13.25,14 C13.25,14.25 13,14.5 12.75,14.5 L11.25,14.5 C11,14.5 10.75,14.25 10.75,14 L10.75,12.5 C10.75,12.25 11,12 11.25,12 L12.75,12 C13,12 13.25,12.25 13.25,12.5 L13.25,14 Z M18.25,19 C18.25,19.25 18,19.5 17.75,19.5 L16.25,19.5 C16,19.5 15.75,19.25 15.75,19 L15.75,12.5 C15.75,12.25 16,12 16.25,12 L17.75,12 C18,12 18.25,12.25 18.25,12.5 L18.25,19 Z M18.25,8.99999998 C18.25,9.24999999 18,9.49999999 17.75,9.49999999 L6.24999997,9.49999999 C5.99999997,9.49999999 5.74999997,9.24999999 5.74999997,8.99999998 L5.74999997,4.99999996 C5.74999997,4.74999996 5.99999997,4.49999996 6.24999997,4.49999996 L17.75,4.49999996 C18,4.49999996 18.25,4.74999996 18.25,4.99999996 L18.25,8.99999998 Z" id="path-1"></path>
    </defs>
    <g id="calculator" stroke="none" stroke-width="1" fill="none" fill-rule="evenodd">
        <mask id="mask-2" fill="white">
            <use xlink:href="#path-1"></use>
        </mask>
        <g fill-rule="nonzero"></g>
        <g id="🎨-color" mask="url(#mask-2)" fill="#000000">
            <rect id="🎨-Color" x="0" y="0" width="24" height="24"></rect>
        </g>
    </g>
</svg>