<?xml version="1.0" encoding="UTF-8"?>
<svg width="24px" height="24px" viewBox="0 0 24 24" version="1.1" xmlns="http://www.w3.org/2000/svg" xmlns:xlink="http://www.w3.org/1999/xlink">
    <!-- Generator: Sketch 52.5 (67469) - http://www.bohemiancoding.com/sketch -->
    <title>calendar-times</title>
    <desc>Created with Sketch.</desc>
    <defs>
        <path d="M15.4257813,16.6367188 L14.7617188,17.3007813 C14.578125,17.484375 14.28125,17.484375 14.0976563,17.3007813 L12,15.1992188 L9.90234374,17.296875 C9.71874999,17.4804688 9.42187499,17.4804688 9.23828124,17.296875 L8.57421873,16.6328125 C8.39062498,16.4492188 8.39062498,16.1523438 8.57421873,15.96875 L10.671875,13.8710938 L8.57421873,11.7734375 C8.39062498,11.5898437 8.39062498,11.2929687 8.57421873,11.109375 L9.23828124,10.4453125 C9.42187499,10.2617187 9.71874999,10.2617187 9.90234374,10.4453125 L12,12.5429688 L14.0976563,10.4453125 C14.28125,10.2617187 14.578125,10.2617187 14.7617188,10.4453125 L15.4257813,11.109375 C15.609375,11.2929687 15.609375,11.5898437 15.4257813,11.7734375 L13.3242188,13.875 L15.421875,15.9726563 C15.609375,16.15625 15.609375,16.453125 15.4257813,16.6367188 Z M20.75,6.37499997 L20.75,20.125 C20.75,21.1601563 19.9101563,22.0000001 18.875,22.0000001 L5.12499997,22.0000001 C4.08984371,22.0000001 3.24999996,21.1601563 3.24999996,20.125 L3.24999996,6.37499997 C3.24999996,5.33984372 4.08984371,4.49999996 5.12499997,4.49999996 L6.99999997,4.49999996 L6.99999997,2.46874995 C6.99999997,2.21093745 7.21093748,1.99999995 7.46874998,1.99999995 L9.03124999,1.99999995 C9.28906249,1.99999995 9.49999999,2.21093745 9.49999999,2.46874995 L9.49999999,4.49999996 L14.5,4.49999996 L14.5,2.46874995 C14.5,2.21093745 14.7109375,1.99999995 14.96875,1.99999995 L16.53125,1.99999995 C16.7890625,1.99999995 17,2.21093745 17,2.46874995 L17,4.49999996 L18.875,4.49999996 C19.9101563,4.49999996 20.75,5.33984372 20.75,6.37499997 Z M18.875,19.890625 L18.875,8.24999998 L5.12499997,8.24999998 L5.12499997,19.890625 C5.12499997,20.0195313 5.23046872,20.125 5.35937497,20.125 L18.640625,20.125 C18.7695313,20.125 18.875,20.0195313 18.875,19.890625 Z" id="path-1"></path>
    </defs>
    <g id="calendar-times" stroke="none" stroke-width="1" fill="none" fill-rule="evenodd">
        <mask id="mask-2" fill="white">
            <use xlink:href="#path-1"></use>
        </mask>
        <g fill-rule="nonzero"></g>
        <g id="🎨-color" mask="url(#mask-2)" fill="#000000">
            <rect id="🎨-Color" x="0" y="0" width="24" height="24"></rect>
        </g>
    </g>
</svg>