<?xml version="1.0" encoding="UTF-8"?>
<svg width="24px" height="24px" viewBox="0 0 24 24" version="1.1" xmlns="http://www.w3.org/2000/svg" xmlns:xlink="http://www.w3.org/1999/xlink">
    <!-- Generator: Sketch 52.5 (67469) - http://www.bohemiancoding.com/sketch -->
    <title>calendar-check</title>
    <desc>Created with Sketch.</desc>
    <defs>
        <path d="M18.875,4.49999996 L17,4.49999996 L17,2.46874995 C17,2.20988276 16.7901172,1.99999995 16.53125,1.99999995 L14.96875,1.99999995 C14.7098828,1.99999995 14.5,2.20988276 14.5,2.46874995 L14.5,4.49999996 L9.49999999,4.49999996 L9.49999999,2.46874995 C9.49999999,2.20988276 9.29011717,1.99999995 9.03124999,1.99999995 L7.46874998,1.99999995 C7.20988279,1.99999995 6.99999997,2.20988276 6.99999997,2.46874995 L6.99999997,4.49999996 L5.12499997,4.49999996 C4.08945309,4.49999996 3.24999996,5.33945309 3.24999996,6.37499997 L3.24999996,20.125 C3.24999996,21.1605469 4.08945309,22.0000001 5.12499997,22.0000001 L18.875,22.0000001 C19.9105469,22.0000001 20.75,21.1605469 20.75,20.125 L20.75,6.37499997 C20.75,5.33945309 19.9105469,4.49999996 18.875,4.49999996 Z M18.640625,20.125 L5.35937497,20.125 C5.22993323,20.125 5.12499997,20.0200668 5.12499997,19.890625 L5.12499997,8.24999998 L18.875,8.24999998 L18.875,19.890625 C18.875,20.0200668 18.7700668,20.125 18.640625,20.125 Z M16.576211,12.2871094 L11.0172656,17.8015235 C10.8334766,17.9838282 10.5366797,17.9826563 10.3543359,17.7988672 L7.42109373,14.841875 C7.23878904,14.658086 7.23996091,14.3612891 7.42374998,14.1789453 L8.31121092,13.2986328 C8.49499998,13.1163281 8.79179686,13.1175 8.97410155,13.3013281 L10.6969141,15.038086 L15.0356641,10.7341406 C15.2194531,10.5518359 15.51625,10.5530078 15.6985938,10.7367969 L16.5789063,11.6242187 C16.761211,11.8080078 16.76,12.1048047 16.576211,12.2871094 Z" id="path-1"></path>
    </defs>
    <g id="calendar-check" stroke="none" stroke-width="1" fill="none" fill-rule="evenodd">
        <mask id="mask-2" fill="white">
            <use xlink:href="#path-1"></use>
        </mask>
        <g fill-rule="nonzero"></g>
        <g id="🎨-color" mask="url(#mask-2)" fill="#000000">
            <rect id="🎨-Color" x="0" y="0" width="24" height="24"></rect>
        </g>
    </g>
</svg>