<?xml version="1.0" encoding="UTF-8"?>
<svg width="24px" height="24px" viewBox="0 0 24 24" version="1.1" xmlns="http://www.w3.org/2000/svg" xmlns:xlink="http://www.w3.org/1999/xlink">
    <!-- Generator: Sketch 52.5 (67469) - http://www.bohemiancoding.com/sketch -->
    <title>calendar-plus</title>
    <desc>Created with Sketch.</desc>
    <defs>
        <path d="M16.375,13.40625 L16.375,14.34375 C16.375,14.6015625 16.1640625,14.8125 15.90625,14.8125 L12.9375,14.8125 L12.9375,17.78125 C12.9375,18.0390625 12.7265625,18.25 12.46875,18.25 L11.53125,18.25 C11.2734375,18.25 11.0625,18.0390625 11.0625,17.78125 L11.0625,14.8125 L8.09374998,14.8125 C7.83593748,14.8125 7.62499998,14.6015625 7.62499998,14.34375 L7.62499998,13.40625 C7.62499998,13.1484375 7.83593748,12.9375 8.09374998,12.9375 L11.0625,12.9375 L11.0625,9.96874999 C11.0625,9.71093749 11.2734375,9.49999999 11.53125,9.49999999 L12.46875,9.49999999 C12.7265625,9.49999999 12.9375,9.71093749 12.9375,9.96874999 L12.9375,12.9375 L15.90625,12.9375 C16.1640625,12.9375 16.375,13.1484375 16.375,13.40625 Z M20.75,6.37499997 L20.75,20.125 C20.75,21.1601563 19.9101563,22.0000001 18.875,22.0000001 L5.12499997,22.0000001 C4.08984371,22.0000001 3.24999996,21.1601563 3.24999996,20.125 L3.24999996,6.37499997 C3.24999996,5.33984372 4.08984371,4.49999996 5.12499997,4.49999996 L6.99999997,4.49999996 L6.99999997,2.46874995 C6.99999997,2.21093745 7.21093748,1.99999995 7.46874998,1.99999995 L9.03124999,1.99999995 C9.28906249,1.99999995 9.49999999,2.21093745 9.49999999,2.46874995 L9.49999999,4.49999996 L14.5,4.49999996 L14.5,2.46874995 C14.5,2.21093745 14.7109375,1.99999995 14.96875,1.99999995 L16.53125,1.99999995 C16.7890625,1.99999995 17,2.21093745 17,2.46874995 L17,4.49999996 L18.875,4.49999996 C19.9101563,4.49999996 20.75,5.33984372 20.75,6.37499997 Z M18.875,19.890625 L18.875,8.24999998 L5.12499997,8.24999998 L5.12499997,19.890625 C5.12499997,20.0195313 5.23046872,20.125 5.35937497,20.125 L18.640625,20.125 C18.7695313,20.125 18.875,20.0195313 18.875,19.890625 Z" id="path-1"></path>
    </defs>
    <g id="calendar-plus" stroke="none" stroke-width="1" fill="none" fill-rule="evenodd">
        <mask id="mask-2" fill="white">
            <use xlink:href="#path-1"></use>
        </mask>
        <g fill-rule="nonzero"></g>
        <g id="🎨-color" mask="url(#mask-2)" fill="#000000">
            <rect id="🎨-Color" x="0" y="0" width="24" height="24"></rect>
        </g>
    </g>
</svg>