<?xml version="1.0" encoding="UTF-8"?>
<svg width="24px" height="24px" viewBox="0 0 24 24" version="1.1" xmlns="http://www.w3.org/2000/svg" xmlns:xlink="http://www.w3.org/1999/xlink">
    <!-- Generator: Sketch 52.5 (67469) - http://www.bohemiancoding.com/sketch -->
    <title>calendar-alt</title>
    <desc>Created with Sketch.</desc>
    <defs>
        <path d="M9.03124999,13.25 L7.46874998,13.25 C7.21093748,13.25 6.99999997,13.0390625 6.99999997,12.78125 L6.99999997,11.21875 C6.99999997,10.9609375 7.21093748,10.75 7.46874998,10.75 L9.03124999,10.75 C9.28906249,10.75 9.49999999,10.9609375 9.49999999,11.21875 L9.49999999,12.78125 C9.49999999,13.0390625 9.28906249,13.25 9.03124999,13.25 Z M13.25,12.78125 L13.25,11.21875 C13.25,10.9609375 13.0390625,10.75 12.78125,10.75 L11.21875,10.75 C10.9609375,10.75 10.75,10.9609375 10.75,11.21875 L10.75,12.78125 C10.75,13.0390625 10.9609375,13.25 11.21875,13.25 L12.78125,13.25 C13.0390625,13.25 13.25,13.0390625 13.25,12.78125 Z M17,12.78125 L17,11.21875 C17,10.9609375 16.7890625,10.75 16.53125,10.75 L14.96875,10.75 C14.7109375,10.75 14.5,10.9609375 14.5,11.21875 L14.5,12.78125 C14.5,13.0390625 14.7109375,13.25 14.96875,13.25 L16.53125,13.25 C16.7890625,13.25 17,13.0390625 17,12.78125 Z M13.25,16.53125 L13.25,14.96875 C13.25,14.7109375 13.0390625,14.5 12.78125,14.5 L11.21875,14.5 C10.9609375,14.5 10.75,14.7109375 10.75,14.96875 L10.75,16.53125 C10.75,16.7890625 10.9609375,17 11.21875,17 L12.78125,17 C13.0390625,17 13.25,16.7890625 13.25,16.53125 Z M9.49999999,16.53125 L9.49999999,14.96875 C9.49999999,14.7109375 9.28906249,14.5 9.03124999,14.5 L7.46874998,14.5 C7.21093748,14.5 6.99999997,14.7109375 6.99999997,14.96875 L6.99999997,16.53125 C6.99999997,16.7890625 7.21093748,17 7.46874998,17 L9.03124999,17 C9.28906249,17 9.49999999,16.7890625 9.49999999,16.53125 Z M17,16.53125 L17,14.96875 C17,14.7109375 16.7890625,14.5 16.53125,14.5 L14.96875,14.5 C14.7109375,14.5 14.5,14.7109375 14.5,14.96875 L14.5,16.53125 C14.5,16.7890625 14.7109375,17 14.96875,17 L16.53125,17 C16.7890625,17 17,16.7890625 17,16.53125 Z M20.75,6.37499997 L20.75,20.125 C20.75,21.1601563 19.9101563,22.0000001 18.875,22.0000001 L5.12499997,22.0000001 C4.08984371,22.0000001 3.24999996,21.1601563 3.24999996,20.125 L3.24999996,6.37499997 C3.24999996,5.33984372 4.08984371,4.49999996 5.12499997,4.49999996 L6.99999997,4.49999996 L6.99999997,2.46874995 C6.99999997,2.21093745 7.21093748,1.99999995 7.46874998,1.99999995 L9.03124999,1.99999995 C9.28906249,1.99999995 9.49999999,2.21093745 9.49999999,2.46874995 L9.49999999,4.49999996 L14.5,4.49999996 L14.5,2.46874995 C14.5,2.21093745 14.7109375,1.99999995 14.96875,1.99999995 L16.53125,1.99999995 C16.7890625,1.99999995 17,2.21093745 17,2.46874995 L17,4.49999996 L18.875,4.49999996 C19.9101563,4.49999996 20.75,5.33984372 20.75,6.37499997 Z M18.875,19.890625 L18.875,8.24999998 L5.12499997,8.24999998 L5.12499997,19.890625 C5.12499997,20.0195313 5.23046872,20.125 5.35937497,20.125 L18.640625,20.125 C18.7695313,20.125 18.875,20.0195313 18.875,19.890625 Z" id="path-1"></path>
    </defs>
    <g id="calendar-alt" stroke="none" stroke-width="1" fill="none" fill-rule="evenodd">
        <mask id="mask-2" fill="white">
            <use xlink:href="#path-1"></use>
        </mask>
        <g fill-rule="nonzero"></g>
        <g id="🎨-color" mask="url(#mask-2)" fill="#000000">
            <rect id="🎨-Color" x="0" y="0" width="24" height="24"></rect>
        </g>
    </g>
</svg>