<?xml version="1.0" encoding="UTF-8"?>
<svg width="24px" height="24px" viewBox="0 0 24 24" version="1.1" xmlns="http://www.w3.org/2000/svg" xmlns:xlink="http://www.w3.org/1999/xlink">
    <!-- Generator: Sketch 52.5 (67469) - http://www.bohemiancoding.com/sketch -->
    <title>calendar</title>
    <desc>Created with Sketch.</desc>
    <defs>
        <path d="M18.875,4.49999996 L17,4.49999996 L17,2.46874995 C17,2.21093745 16.7890625,1.99999995 16.53125,1.99999995 L14.96875,1.99999995 C14.7109375,1.99999995 14.5,2.21093745 14.5,2.46874995 L14.5,4.49999996 L9.49999999,4.49999996 L9.49999999,2.46874995 C9.49999999,2.21093745 9.28906249,1.99999995 9.03124999,1.99999995 L7.46874998,1.99999995 C7.21093748,1.99999995 6.99999997,2.21093745 6.99999997,2.46874995 L6.99999997,4.49999996 L5.12499997,4.49999996 C4.08984371,4.49999996 3.24999996,5.33984372 3.24999996,6.37499997 L3.24999996,20.125 C3.24999996,21.1601563 4.08984371,22.0000001 5.12499997,22.0000001 L18.875,22.0000001 C19.9101563,22.0000001 20.75,21.1601563 20.75,20.125 L20.75,6.37499997 C20.75,5.33984372 19.9101563,4.49999996 18.875,4.49999996 Z M18.640625,20.125 L5.35937497,20.125 C5.23046872,20.125 5.12499997,20.0195313 5.12499997,19.890625 L5.12499997,8.24999998 L18.875,8.24999998 L18.875,19.890625 C18.875,20.0195313 18.7695313,20.125 18.640625,20.125 Z" id="path-1"></path>
    </defs>
    <g id="calendar" stroke="none" stroke-width="1" fill="none" fill-rule="evenodd">
        <mask id="mask-2" fill="white">
            <use xlink:href="#path-1"></use>
        </mask>
        <g fill-rule="nonzero"></g>
        <g id="🎨-color" mask="url(#mask-2)" fill="#000000">
            <rect id="🎨-Color" x="0" y="0" width="24" height="24"></rect>
        </g>
    </g>
</svg>