<?xml version="1.0" encoding="UTF-8"?>
<svg width="24px" height="24px" viewBox="0 0 24 24" version="1.1" xmlns="http://www.w3.org/2000/svg" xmlns:xlink="http://www.w3.org/1999/xlink">
    <!-- Generator: Sketch 52.5 (67469) - http://www.bohemiancoding.com/sketch -->
    <title>camera</title>
    <desc>Created with Sketch.</desc>
    <defs>
        <path d="M22.0000001,7.62499998 L22.0000001,18.875 C22.0000001,19.9101563 21.1601563,20.75 20.125,20.75 L3.87499996,20.75 C2.8398437,20.75 1.99999995,19.9101563 1.99999995,18.875 L1.99999995,7.62499998 C1.99999995,6.58984372 2.8398437,5.74999997 3.87499996,5.74999997 L7.31249998,5.74999997 L7.79296873,4.46484371 C8.06640623,3.73437496 8.76562498,3.24999996 9.54687499,3.24999996 L14.4492188,3.24999996 C15.2304688,3.24999996 15.9296875,3.73437496 16.203125,4.46484371 L16.6875,5.74999997 L20.125,5.74999997 C21.1601563,5.74999997 22.0000001,6.58984372 22.0000001,7.62499998 Z M16.6875,13.25 C16.6875,10.6640625 14.5859375,8.56249998 12,8.56249998 C9.41406249,8.56249998 7.31249998,10.6640625 7.31249998,13.25 C7.31249998,15.8359375 9.41406249,17.9375 12,17.9375 C14.5859375,17.9375 16.6875,15.8359375 16.6875,13.25 Z M15.4375,13.25 C15.4375,15.1445313 13.8945313,16.6875 12,16.6875 C10.1054687,16.6875 8.56249998,15.1445313 8.56249998,13.25 C8.56249998,11.3554687 10.1054687,9.81249999 12,9.81249999 C13.8945313,9.81249999 15.4375,11.3554687 15.4375,13.25 Z" id="path-1"></path>
    </defs>
    <g id="camera" stroke="none" stroke-width="1" fill="none" fill-rule="evenodd">
        <mask id="mask-2" fill="white">
            <use xlink:href="#path-1"></use>
        </mask>
        <g fill-rule="nonzero"></g>
        <g id="🎨-color" mask="url(#mask-2)" fill="#000000">
            <rect id="🎨-Color" x="0" y="0" width="24" height="24"></rect>
        </g>
    </g>
</svg>