<?xml version="1.0" encoding="UTF-8"?>
<svg width="24px" height="24px" viewBox="0 0 24 24" version="1.1" xmlns="http://www.w3.org/2000/svg" xmlns:xlink="http://www.w3.org/1999/xlink">
    <!-- Generator: Sketch 52.5 (67469) - http://www.bohemiancoding.com/sketch -->
    <title>camera-retro</title>
    <desc>Created with Sketch.</desc>
    <defs>
        <path d="M3.87499996,3.24999996 C2.8398437,3.24999996 1.99999995,4.08984371 1.99999995,5.12499997 L1.99999995,18.875 C1.99999995,19.9101563 2.8398437,20.75 3.87499996,20.75 L20.125,20.75 C21.1601563,20.75 22.0000001,19.9101563 22.0000001,18.875 L22.0000001,5.12499997 C22.0000001,4.08984371 21.1601563,3.24999996 20.125,3.24999996 L3.87499996,3.24999996 Z M3.87499996,4.49999996 L8.01562498,4.49999996 C8.14453123,4.49999996 8.24999998,4.60546871 8.24999998,4.73437496 L8.24999998,5.51562497 C8.24999998,5.64453122 8.14453123,5.74999997 8.01562498,5.74999997 L3.48437496,5.74999997 C3.35546871,5.74999997 3.24999996,5.64453122 3.24999996,5.51562497 L3.24999996,5.12499997 C3.24999996,4.78124996 3.53124996,4.49999996 3.87499996,4.49999996 Z M20.515625,8.24999998 L3.48437496,8.24999998 C3.35546871,8.24999998 3.24999996,8.14453123 3.24999996,8.01562498 L3.24999996,6.60937497 C3.24999996,6.48046872 3.35546871,6.37499997 3.48437496,6.37499997 L8.87499998,6.37499997 L10.0546875,4.60546871 C10.0976562,4.53906246 10.171875,4.49999996 10.25,4.49999996 L20.125,4.49999996 C20.46875,4.49999996 20.75,4.78124996 20.75,5.12499997 L20.75,8.01562498 C20.75,8.14453123 20.6445313,8.24999998 20.515625,8.24999998 Z M12,18.5625 C9.41406249,18.5625 7.31249998,16.4609375 7.31249998,13.875 C7.31249998,11.2890625 9.41406249,9.18749999 12,9.18749999 C14.5859375,9.18749999 16.6875,11.2890625 16.6875,13.875 C16.6875,16.4609375 14.5859375,18.5625 12,18.5625 Z M12,10.4375 C10.1054687,10.4375 8.56249998,11.9804687 8.56249998,13.875 C8.56249998,15.7695313 10.1054687,17.3125 12,17.3125 C13.8945313,17.3125 15.4375,15.7695313 15.4375,13.875 C15.4375,11.9804687 13.8945313,10.4375 12,10.4375 Z M10.125,14.5 C9.78124999,14.5 9.49999999,14.21875 9.49999999,13.875 C9.49999999,12.4960938 10.6210937,11.375 12,11.375 C12.34375,11.375 12.625,11.65625 12.625,12 C12.625,12.34375 12.34375,12.625 12,12.625 C11.3125,12.625 10.75,13.1875 10.75,13.875 C10.75,14.21875 10.46875,14.5 10.125,14.5 Z" id="path-1"></path>
    </defs>
    <g id="camera-retro" stroke="none" stroke-width="1" fill="none" fill-rule="evenodd">
        <mask id="mask-2" fill="white">
            <use xlink:href="#path-1"></use>
        </mask>
        <g fill-rule="nonzero"></g>
        <g id="🎨-color" mask="url(#mask-2)" fill="#000000">
            <rect id="🎨-Color" x="0" y="0" width="24" height="24"></rect>
        </g>
    </g>
</svg>