<?xml version="1.0" encoding="UTF-8"?>
<svg width="24px" height="24px" viewBox="0 0 24 24" version="1.1" xmlns="http://www.w3.org/2000/svg" xmlns:xlink="http://www.w3.org/1999/xlink">
    <!-- Generator: Sketch 52.5 (67469) - http://www.bohemiancoding.com/sketch -->
    <title>cannabis</title>
    <desc>Created with Sketch.</desc>
    <defs>
        <path d="M21.6674464,16.0643275 C21.6066277,16.0323587 20.4046784,15.405848 18.6740741,15.0580897 C21.1789474,12.1294347 21.9508772,8.75516568 21.9851852,8.60038985 C22.0311891,8.39259257 21.9680312,8.17543858 21.8175439,8.02456138 C21.6994153,7.90604286 21.5399611,7.84132552 21.3762184,7.84132552 C21.3317739,7.84132552 21.2869396,7.84600388 21.2421053,7.85614033 C21.0908383,7.88927873 17.8682262,8.61988302 14.9816764,10.965692 C14.9820663,10.9087719 14.9820663,10.851462 14.9820663,10.794152 C14.9820663,6.16296293 12.6436647,2.46198826 12.5442495,2.30682256 C12.4298066,2.12779146 12.2319769,2.01947016 12.0194932,2.01949313 C11.8070175,2.01949313 11.6089669,2.12787519 11.494347,2.30682256 C11.3949318,2.46198826 9.0565302,6.16296293 9.0565302,10.794152 C9.0565302,10.851462 9.05692006,10.9087719 9.05692006,10.965692 C6.1707602,8.62027289 2.9481481,7.8896686 2.79649118,7.85614033 C2.75204674,7.84639374 2.70721243,7.84132552 2.66237812,7.84132552 C2.49863543,7.84132552 2.33918124,7.90604286 2.22105258,8.02456138 C2.07056242,8.17531074 2.00748553,8.39247755 2.05380112,8.60038985 C2.08810911,8.75516568 2.86003894,12.1294347 5.36491225,15.0580897 C3.63430795,15.405848 2.43274849,16.0323587 2.37153991,16.0643275 C2.16715041,16.1722878 2.03920084,16.3844044 2.03903743,16.6155547 C2.03887401,16.846705 2.16652354,17.0590023 2.37076019,17.1672515 C2.46627676,17.2175439 4.73957111,18.4038987 7.57504871,18.4038987 C7.81442493,18.4038987 8.04132552,18.4 8.25730992,18.3918129 C7.81403507,19.2584796 7.61325534,19.8853802 7.6019493,19.9208577 C7.53177386,20.1423002 7.59064325,20.3844055 7.75438594,20.5489279 C7.91838896,20.7134992 8.16019281,20.7734245 8.38206626,20.7044835 C8.45341129,20.6822613 9.85263157,20.2370371 11.3957115,19.1727096 L11.3957115,21.668616 C11.3957115,21.8409357 11.5352826,21.9805069 11.7076023,21.9805069 L12.331384,21.9805069 C12.5037037,21.9805069 12.6432749,21.8409357 12.6432749,21.668616 L12.6432749,19.1730995 C14.1863548,20.2374269 15.5855751,20.6822613 15.6569201,20.7048733 C15.8787935,20.7738143 16.1205974,20.713889 16.2846004,20.5493178 C16.4483431,20.3847954 16.5072125,20.1426901 16.4370371,19.9212476 C16.425731,19.88577 16.2245614,19.2588694 15.7816764,18.3922028 C15.9976608,18.4003899 16.2249513,18.4042885 16.4639376,18.4042885 C19.2990254,18.4042885 21.5727096,17.2179337 21.6682262,17.1676414 C21.8725147,17.0592593 22.0003899,16.8471735 22.0000001,16.6159844 C21.9996102,16.3844055 21.8717349,16.1719298 21.6674464,16.0643275 Z" id="path-1"></path>
    </defs>
    <g id="cannabis" stroke="none" stroke-width="1" fill="none" fill-rule="evenodd">
        <mask id="mask-2" fill="white">
            <use xlink:href="#path-1"></use>
        </mask>
        <g></g>
        <g id="🎨-color" mask="url(#mask-2)" fill="#000000">
            <rect id="🎨-Color" x="0" y="0" width="24" height="24"></rect>
        </g>
    </g>
</svg>