<?xml version="1.0" encoding="UTF-8"?>
<svg width="24px" height="24px" viewBox="0 0 24 24" version="1.1" xmlns="http://www.w3.org/2000/svg" xmlns:xlink="http://www.w3.org/1999/xlink">
    <!-- Generator: Sketch 52.5 (67469) - http://www.bohemiancoding.com/sketch -->
    <title>capsules</title>
    <desc>Created with Sketch.</desc>
    <defs>
        <path d="M21.28125,13.53125 L16.7291667,7.02777775 C15.9548611,5.92361108 14.7222222,5.3333333 13.4722222,5.3333333 C12.6875,5.3333333 11.8923611,5.56597219 11.1979167,6.0520833 C10.5138889,6.53124997 10.0277778,7.1909722 9.75694443,7.92013887 C9.65624999,5.86111108 7.9722222,4.22222218 5.88888886,4.22222218 C3.73958329,4.22222218 1.99999995,5.96180553 1.99999995,8.11111109 L1.99999995,15.8888889 C1.99999995,18.0381945 3.73958329,19.7777778 5.88888886,19.7777778 C8.03819442,19.7777778 9.77777777,18.0381945 9.77777777,15.8888889 L9.77777777,10.7118055 C9.8923611,11.0104167 10.03125,11.3055556 10.2222222,11.5798611 L14.7777778,18.0833334 C15.5486111,19.1875 16.78125,19.7777778 18.0347223,19.7777778 C18.8229167,19.7777778 19.6145834,19.5451389 20.3090278,19.0590278 C22.1041667,17.8020834 22.5381945,15.3263889 21.28125,13.53125 Z M7.55555553,12 L4.22222218,12 L4.22222218,8.11111109 C4.22222218,7.1909722 4.96874996,6.44444442 5.88888886,6.44444442 C6.80902775,6.44444442 7.55555553,7.1909722 7.55555553,8.11111109 L7.55555553,12 Z M14.3194445,13.5590278 L12.0416667,10.3055555 C11.7743056,9.9236111 11.6701389,9.45833332 11.7534722,8.99999998 C11.8333333,8.54166665 12.0902778,8.13888887 12.4722222,7.87152776 C12.7673611,7.66319442 13.1145833,7.55555553 13.4722222,7.55555553 C14.0451389,7.55555553 14.5798611,7.83333331 14.90625,8.30208331 L17.1840278,11.5555556 L14.3194445,13.5590278 Z" id="path-1"></path>
    </defs>
    <g id="capsules" stroke="none" stroke-width="1" fill="none" fill-rule="evenodd">
        <mask id="mask-2" fill="white">
            <use xlink:href="#path-1"></use>
        </mask>
        <g fill-rule="nonzero"></g>
        <g id="🎨-color" mask="url(#mask-2)" fill="#000000">
            <rect id="🎨-Color" x="0" y="0" width="24" height="24"></rect>
        </g>
    </g>
</svg>