<?xml version="1.0" encoding="UTF-8"?>
<svg width="24px" height="24px" viewBox="0 0 24 24" version="1.1" xmlns="http://www.w3.org/2000/svg" xmlns:xlink="http://www.w3.org/1999/xlink">
    <!-- Generator: Sketch 52.5 (67469) - http://www.bohemiancoding.com/sketch -->
    <title>car-crash</title>
    <desc>Created with Sketch.</desc>
    <defs>
        <path d="M6.49376944,10.9193146 L6.10685355,12.3638629 C6.01308408,12.7143302 5.99376944,13.076947 6.03177567,13.4352025 L4.93520246,14.3380062 C4.73052956,14.5065421 4.42710277,14.3246106 4.47975074,14.0647975 L4.96074763,11.6760125 C4.99376944,11.5121495 4.87788158,11.3557632 4.71152644,11.3398754 L2.28598126,11.1046729 C2.02211833,11.0791277 1.93613702,10.7361371 2.1570093,10.5894081 L4.18660432,9.24049843 C4.32554513,9.14797506 4.35420557,8.9554517 4.24828657,8.82647973 L2.69968843,6.94454826 C2.5311526,6.73987536 2.71308407,6.4367601 2.97320868,6.48909655 L5.36199374,6.97009343 C5.52585667,7.00311524 5.68224296,6.88722739 5.69844234,6.72087225 L5.93364483,4.29532706 C5.95919,4.03115261 6.30218066,3.94548283 6.44922116,4.1663551 L7.79813082,6.1956386 C7.89065419,6.33457941 8.08317755,6.36323985 8.21214951,6.25732084 L10.0937695,4.7087227 C10.2984424,4.54018688 10.6015576,4.72211834 10.5492212,4.98193143 L10.1962617,6.73146415 C10.111838,6.82647972 10.0271028,6.92118378 9.94984423,7.02429904 L8.94828659,8.36292833 L8.61464173,8.80903425 C7.59501555,9.08193145 6.77102801,9.88473519 6.49376944,10.9193146 Z M21.9009346,15.047352 L21.5140187,16.4915888 C21.416511,16.8554517 21.2218069,17.1647975 20.9672898,17.4062306 C20.8825892,17.4864316 20.7913027,17.5593774 20.6943926,17.6242991 L20.258567,19.2514019 C20.223053,19.3844237 20.1619938,19.5037384 20.0825546,19.605919 C19.8436137,19.9124611 19.4364486,20.0632399 19.0376947,19.9563863 L18.0747664,19.6984424 C17.5429907,19.5560748 17.2274144,19.0093458 17.369782,18.4775701 L17.6277259,17.5146418 L9.92429906,15.4504673 L9.66635513,16.4133957 C9.52398753,16.9451714 8.97725855,17.2607477 8.44548285,17.1183801 L7.48255449,16.8604362 C7.0838006,16.7535826 6.80654203,16.4193147 6.75295948,16.0345795 C6.73520247,15.9062305 6.74205605,15.7722742 6.77757007,15.6395639 L7.21339561,14.0124611 C7.16184402,13.9077226 7.11922141,13.7988213 7.08598128,13.6869159 C6.98629281,13.3507788 6.97227412,12.9853583 7.06978191,12.6214953 L7.4566978,11.176947 C7.62211836,10.5601246 8.05981306,10.0919003 8.60591899,9.86199376 C8.78954614,9.78461892 8.98368539,9.73506039 9.18193145,9.71495326 L9.74672896,8.9601246 L10.7482866,7.62149531 C10.8557632,7.4778816 10.9722741,7.34423674 11.0971963,7.2214953 C11.3464174,6.97570091 11.6277259,6.77165106 11.9302181,6.61370714 C12.0816199,6.53457941 12.2383178,6.46697817 12.3990654,6.41152645 C12.7208723,6.29999997 13.05919,6.23613704 13.4034268,6.22336446 C13.7476636,6.21059187 14.0984424,6.24890963 14.4448598,6.34174452 L18.2666667,7.36573206 C18.6130841,7.45856696 18.9358256,7.60062303 19.2277259,7.78411213 C19.6633347,8.05762316 20.0325119,8.42477839 20.3084113,8.85887849 C20.5831776,9.29127725 20.764486,9.78847351 20.8280374,10.3227414 L21.0261683,11.982866 L21.1380063,12.9190031 C21.4614905,13.1525631 21.7081053,13.4771532 21.8464175,13.8514019 C21.9831776,14.2214953 22.011215,14.6361371 21.9009346,15.047352 Z M9.99314641,11.34081 C9.41526478,11.1859813 8.92741431,11.4666667 8.77289718,12.0426791 C8.61838005,12.6186916 8.90093456,13.1056075 9.47850466,13.2604361 C10.0563863,13.4152648 10.8971963,13.7436137 11.0514019,13.1676013 C11.205919,12.5915888 10.5707165,11.4956386 9.99314641,11.34081 Z M19.0464175,12.2183801 L18.8482866,10.5582554 C18.8302181,10.406542 18.7894081,10.2613707 18.7292835,10.1264797 C18.5485982,9.72180684 18.193458,9.40965731 17.7504673,9.29096572 L13.9286604,8.26697817 C13.3380316,8.10876199 12.7105761,8.32601506 12.3442368,8.81557631 L11.3426791,10.1542056 L16.7009346,11.5897196 L19.0464175,12.2183801 Z M19.6224299,13.9208723 C19.0445483,13.7660436 17.9464175,14.3978193 17.7922119,14.9735203 C17.6380063,15.5495327 18.5302181,15.6856698 19.1080997,15.8404985 C19.6859813,15.9953271 20.1738318,15.7146418 20.328349,15.1386293 C20.4825546,14.5629284 20.2003116,14.0757009 19.6224299,13.9208723 Z" id="path-1"></path>
    </defs>
    <g id="car-crash" stroke="none" stroke-width="1" fill="none" fill-rule="evenodd">
        <mask id="mask-2" fill="white">
            <use xlink:href="#path-1"></use>
        </mask>
        <g fill-rule="nonzero"></g>
        <g id="🎨-color" mask="url(#mask-2)" fill="#000000">
            <rect id="🎨-Color" x="0" y="0" width="24" height="24"></rect>
        </g>
    </g>
</svg>