<?xml version="1.0" encoding="UTF-8"?>
<svg width="24px" height="24px" viewBox="0 0 24 24" version="1.1" xmlns="http://www.w3.org/2000/svg" xmlns:xlink="http://www.w3.org/1999/xlink">
    <!-- Generator: Sketch 52.5 (67469) - http://www.bohemiancoding.com/sketch -->
    <title>car-side</title>
    <desc>Created with Sketch.</desc>
    <defs>
        <path d="M19,9.99999999 L18.5,9.99999999 L15.100625,5.75062497 C14.7209807,5.27624276 14.1463422,5.00007593 13.53875,4.99999997 L6.85406247,4.99999997 C6.03624997,4.99999997 5.30093747,5.49781247 4.99718746,6.25718747 L3.49999996,10.070625 C2.63874995,10.29375 1.99999995,11.0690625 1.99999995,12 L1.99999995,15.5 C1.99999995,15.77625 2.22374995,16 2.49999995,16 L3.99999996,16 C3.99999996,17.656875 5.34312497,19 6.99999997,19 C8.65687498,19 9.99999999,17.656875 9.99999999,16 L14,16 C14,17.656875 15.343125,19 17,19 C18.656875,19 20,17.656875 20,16 L21.5,16 C21.77625,16 22.0000001,15.77625 22.0000001,15.5 L22.0000001,13 C22.0000001,11.343125 20.656875,9.99999999 19,9.99999999 Z M6.99999997,17.5 C6.17281247,17.5 5.49999997,16.8271875 5.49999997,16 C5.49999997,15.1728125 6.17281247,14.5 6.99999997,14.5 C7.82718748,14.5 8.49999998,15.1728125 8.49999998,16 C8.49999998,16.8271875 7.82718748,17.5 6.99999997,17.5 Z M9.24999999,9.99999999 L5.65406247,9.99999999 L6.85406247,6.99999997 L9.24999999,6.99999997 L9.24999999,9.99999999 Z M10.75,9.99999999 L10.75,6.99999997 L13.53875,6.99999997 L15.93875,9.99999999 L10.75,9.99999999 Z M17,17.5 C16.1728125,17.5 15.5,16.8271875 15.5,16 C15.5,15.1728125 16.1728125,14.5 17,14.5 C17.8271875,14.5 18.5,15.1728125 18.5,16 C18.5,16.8271875 17.8271875,17.5 17,17.5 Z" id="path-1"></path>
    </defs>
    <g id="car-side" stroke="none" stroke-width="1" fill="none" fill-rule="evenodd">
        <mask id="mask-2" fill="white">
            <use xlink:href="#path-1"></use>
        </mask>
        <g fill-rule="nonzero"></g>
        <g id="🎨-color" mask="url(#mask-2)" fill="#000000">
            <rect id="🎨-Color" x="0" y="0" width="24" height="24"></rect>
        </g>
    </g>
</svg>