<?xml version="1.0" encoding="UTF-8"?>
<svg width="24px" height="24px" viewBox="0 0 24 24" version="1.1" xmlns="http://www.w3.org/2000/svg" xmlns:xlink="http://www.w3.org/1999/xlink">
    <!-- Generator: Sketch 52.5 (67469) - http://www.bohemiancoding.com/sketch -->
    <title>car-alt</title>
    <desc>Created with Sketch.</desc>
    <defs>
        <path d="M19.7601563,10.2941406 L19.3210938,9.19648436 L18.5425782,7.24999998 C17.8742188,5.57929684 16.2800781,4.49999996 14.4804688,4.49999996 L9.51953124,4.49999996 C7.72031248,4.49999996 6.12578122,5.57929684 5.45742184,7.24999998 L4.67890621,9.19648436 L4.23984371,10.2941406 C3.29765621,10.6523437 2.62499995,11.5570312 2.62499995,12.625 L2.62499995,14.5 C2.62499995,15.1296875 2.86562495,15.6980469 3.24999996,16.1378906 L3.24999996,18.25 C3.24999996,18.9402344 3.80976558,19.5 4.49999996,19.5 L5.74999997,19.5 C6.44023435,19.5 6.99999997,18.9402344 6.99999997,18.25 L6.99999997,17 L17,17 L17,18.25 C17,18.9402344 17.5597657,19.5 18.25,19.5 L19.5,19.5 C20.1902344,19.5 20.75,18.9402344 20.75,18.25 L20.75,16.1378906 C21.134375,15.6984375 21.375,15.1300781 21.375,14.5 L21.375,12.625 C21.375,11.5570312 20.7023438,10.6523437 19.7601563,10.2941406 Z M7.7785156,8.17851561 C8.06328123,7.46679685 8.75273436,6.99999997 9.51953124,6.99999997 L14.4804688,6.99999997 C15.2472656,6.99999997 15.9367188,7.46679685 16.2214844,8.17851561 L17,10.125 L6.99999997,10.125 L7.7785156,8.17851561 Z M5.74999997,14.4921875 C4.99999997,14.4921875 4.49999996,13.99375 4.49999996,13.2460938 C4.49999996,12.4984375 4.99999997,12 5.74999997,12 C6.49999997,12 7.62499998,13.1214844 7.62499998,13.8691406 C7.62499998,14.6167969 6.49999997,14.4921875 5.74999997,14.4921875 Z M18.25,14.4921875 C17.5,14.4921875 16.375,14.6167969 16.375,13.8691406 C16.375,13.1214844 17.5,12 18.25,12 C19,12 19.5,12.4984375 19.5,13.2460938 C19.5,13.99375 19,14.4921875 18.25,14.4921875 Z" id="path-1"></path>
    </defs>
    <g id="car-alt" stroke="none" stroke-width="1" fill="none" fill-rule="evenodd">
        <mask id="mask-2" fill="white">
            <use xlink:href="#path-1"></use>
        </mask>
        <g fill-rule="nonzero"></g>
        <g id="🎨-color" mask="url(#mask-2)" fill="#000000">
            <rect id="🎨-Color" x="0" y="0" width="24" height="24"></rect>
        </g>
    </g>
</svg>