<?xml version="1.0" encoding="UTF-8"?>
<svg width="24px" height="24px" viewBox="0 0 24 24" version="1.1" xmlns="http://www.w3.org/2000/svg" xmlns:xlink="http://www.w3.org/1999/xlink">
    <!-- Generator: Sketch 52.5 (67469) - http://www.bohemiancoding.com/sketch -->
    <title>car-battery</title>
    <desc>Created with Sketch.</desc>
    <defs>
        <path d="M20.75,6.99999997 L19.5,6.99999997 L19.5,5.12499997 C19.5,4.77968746 19.2203125,4.49999996 18.875,4.49999996 L15.125,4.49999996 C14.7796875,4.49999996 14.5,4.77968746 14.5,5.12499997 L14.5,6.99999997 L9.49999999,6.99999997 L9.49999999,5.12499997 C9.49999999,4.77968746 9.22031249,4.49999996 8.87499998,4.49999996 L5.12499997,4.49999996 C4.77968746,4.49999996 4.49999996,4.77968746 4.49999996,5.12499997 L4.49999996,6.99999997 L3.24999996,6.99999997 C2.55976558,6.99999997 1.99999995,7.5597656 1.99999995,8.24999998 L1.99999995,18.25 C1.99999995,18.9402344 2.55976558,19.5 3.24999996,19.5 L20.75,19.5 C21.4402344,19.5 22.0000001,18.9402344 22.0000001,18.25 L22.0000001,8.24999998 C22.0000001,7.5597656 21.4402344,6.99999997 20.75,6.99999997 Z M9.49999999,12.3125 C9.49999999,12.4851563 9.36015624,12.625 9.18749999,12.625 L4.81249996,12.625 C4.63984371,12.625 4.49999996,12.4851563 4.49999996,12.3125 L4.49999996,11.6875 C4.49999996,11.5148437 4.63984371,11.375 4.81249996,11.375 L9.18749999,11.375 C9.36015624,11.375 9.49999999,11.5148437 9.49999999,11.6875 L9.49999999,12.3125 Z M19.5,12.3125 C19.5,12.4851563 19.3601563,12.625 19.1875,12.625 L17.625,12.625 L17.625,14.1875 C17.625,14.3601563 17.4851563,14.5 17.3125,14.5 L16.6875,14.5 C16.5148438,14.5 16.375,14.3601563 16.375,14.1875 L16.375,12.625 L14.8125,12.625 C14.6398438,12.625 14.5,12.4851563 14.5,12.3125 L14.5,11.6875 C14.5,11.5148437 14.6398438,11.375 14.8125,11.375 L16.375,11.375 L16.375,9.81249999 C16.375,9.63984374 16.5148438,9.49999999 16.6875,9.49999999 L17.3125,9.49999999 C17.4851563,9.49999999 17.625,9.63984374 17.625,9.81249999 L17.625,11.375 L19.1875,11.375 C19.3601563,11.375 19.5,11.5148437 19.5,11.6875 L19.5,12.3125 Z" id="path-1"></path>
    </defs>
    <g id="car-battery" stroke="none" stroke-width="1" fill="none" fill-rule="evenodd">
        <mask id="mask-2" fill="white">
            <use xlink:href="#path-1"></use>
        </mask>
        <g fill-rule="nonzero"></g>
        <g id="🎨-color" mask="url(#mask-2)" fill="#000000">
            <rect id="🎨-Color" x="0" y="0" width="24" height="24"></rect>
        </g>
    </g>
</svg>