<?xml version="1.0" encoding="UTF-8"?>
<svg width="24px" height="24px" viewBox="0 0 24 24" version="1.1" xmlns="http://www.w3.org/2000/svg" xmlns:xlink="http://www.w3.org/1999/xlink">
    <!-- Generator: Sketch 52.5 (67469) - http://www.bohemiancoding.com/sketch -->
    <title>car</title>
    <desc>Created with Sketch.</desc>
    <defs>
        <path d="M21.4927876,8.8810916 L19.1586745,8.8810916 L18.5099416,7.25925924 C17.8432749,5.59181283 16.2522417,4.51461985 14.4561404,4.51461985 L9.50487328,4.51461985 C7.70916177,4.51461985 6.11773876,5.59181283 5.45068223,7.25925924 L4.80194928,8.8810916 L2.46822607,8.8810916 C2.16374264,8.8810916 1.94035083,9.16725145 2.0144249,9.46237815 L2.24834303,10.3980507 C2.30019488,10.6062378 2.48732939,10.7524366 2.7021442,10.7524366 L3.48460035,10.7524366 C2.9610136,11.2097466 2.62378163,11.8744639 2.62378163,12.6237817 L2.62378163,14.4951267 C2.62378163,15.1235868 2.86393758,15.6908382 3.24756331,16.1298246 L3.24756331,18.2378168 C3.24756331,18.9267057 3.80623778,19.4853802 4.49512667,19.4853802 L5.74269003,19.4853802 C6.43157892,19.4853802 6.99025339,18.9267057 6.99025339,18.2378168 L6.99025339,16.9902534 L16.9707603,16.9902534 L16.9707603,18.2378168 C16.9707603,18.9267057 17.5294347,19.4853802 18.2183236,19.4853802 L19.465887,19.4853802 C20.1547759,19.4853802 20.7134503,18.9267057 20.7134503,18.2378168 L20.7134503,16.1298246 C21.0970761,15.6912281 21.337232,15.1239766 21.337232,14.4951267 L21.337232,12.6237817 C21.337232,11.8744639 21,11.2097466 20.4768032,10.7524366 L21.2592593,10.7524366 C21.4740741,10.7524366 21.6612086,10.6062378 21.7130605,10.3980507 L21.9469786,9.46237815 C22.0206628,9.16725145 21.797271,8.8810916 21.4927876,8.8810916 Z M7.76725144,8.18596489 C8.05146197,7.47563351 8.73957113,7.00974656 9.50487328,7.00974656 L14.4561404,7.00974656 C15.2214425,7.00974656 15.9095517,7.47563351 16.1937622,8.18596489 L16.9707603,10.128655 L6.99025339,10.128655 L7.76725144,8.18596489 Z M5.74269003,14.4873294 C4.99415201,14.4873294 4.49512667,13.9898636 4.49512667,13.2436647 C4.49512667,12.4974659 4.99415201,12 5.74269003,12 C6.49122804,12 7.61403507,13.1192983 7.61403507,13.8654971 C7.61403507,14.6116959 6.49122804,14.4873294 5.74269003,14.4873294 Z M18.2183236,14.4873294 C17.4697856,14.4873294 16.3469786,14.6116959 16.3469786,13.8654971 C16.3469786,13.1192983 17.4697856,12 18.2183236,12 C18.9668616,12 19.465887,12.4974659 19.465887,13.2436647 C19.465887,13.9898636 18.9668616,14.4873294 18.2183236,14.4873294 Z" id="path-1"></path>
    </defs>
    <g id="car" stroke="none" stroke-width="1" fill="none" fill-rule="evenodd">
        <mask id="mask-2" fill="white">
            <use xlink:href="#path-1"></use>
        </mask>
        <g fill-rule="nonzero"></g>
        <g id="🎨-color" mask="url(#mask-2)" fill="#000000">
            <rect id="🎨-Color" x="0" y="0" width="24" height="24"></rect>
        </g>
    </g>
</svg>