<?xml version="1.0" encoding="UTF-8"?>
<svg width="24px" height="24px" viewBox="0 0 24 24" version="1.1" xmlns="http://www.w3.org/2000/svg" xmlns:xlink="http://www.w3.org/1999/xlink">
    <!-- Generator: Sketch 52.5 (67469) - http://www.bohemiancoding.com/sketch -->
    <title>caret-square-down</title>
    <desc>Created with Sketch.</desc>
    <defs>
        <path d="M8.13671873,10.125 L15.8632813,10.125 C16.28125,10.125 16.4921875,10.6328125 16.1953125,10.9257812 L12.3320313,14.765625 C12.1484375,14.9492188 11.8554687,14.9492188 11.671875,14.765625 L7.80859373,10.9257812 C7.50781248,10.6328125 7.71874998,10.125 8.13671873,10.125 Z M20.75,5.12499997 L20.75,18.875 C20.75,19.9101563 19.9101563,20.75 18.875,20.75 L5.12499997,20.75 C4.08984371,20.75 3.24999996,19.9101563 3.24999996,18.875 L3.24999996,5.12499997 C3.24999996,4.08984371 4.08984371,3.24999996 5.12499997,3.24999996 L18.875,3.24999996 C19.9101563,3.24999996 20.75,4.08984371 20.75,5.12499997 Z M18.875,18.640625 L18.875,5.35937497 C18.875,5.23046872 18.7695313,5.12499997 18.640625,5.12499997 L5.35937497,5.12499997 C5.23046872,5.12499997 5.12499997,5.23046872 5.12499997,5.35937497 L5.12499997,18.640625 C5.12499997,18.7695313 5.23046872,18.875 5.35937497,18.875 L18.640625,18.875 C18.7695313,18.875 18.875,18.7695313 18.875,18.640625 Z" id="path-1"></path>
    </defs>
    <g id="caret-square-down" stroke="none" stroke-width="1" fill="none" fill-rule="evenodd">
        <mask id="mask-2" fill="white">
            <use xlink:href="#path-1"></use>
        </mask>
        <g fill-rule="nonzero"></g>
        <g id="🎨-color" mask="url(#mask-2)" fill="#000000">
            <rect id="🎨-Color" x="0" y="0" width="24" height="24"></rect>
        </g>
    </g>
</svg>