<?xml version="1.0" encoding="UTF-8"?>
<svg width="24px" height="24px" viewBox="0 0 24 24" version="1.1" xmlns="http://www.w3.org/2000/svg" xmlns:xlink="http://www.w3.org/1999/xlink">
    <!-- Generator: Sketch 52.5 (67469) - http://www.bohemiancoding.com/sketch -->
    <title>cart-plus</title>
    <desc>Created with Sketch.</desc>
    <defs>
        <path d="M19.5248959,14.2222222 L9.34624999,14.2222222 L9.57350693,15.3333334 L18.8935764,15.3333334 C19.4283334,15.3333334 19.8246875,15.8298959 19.7061806,16.3513542 L19.5146181,17.1942709 C20.1636112,17.5093056 20.6111112,18.1745834 20.6111112,18.9444445 C20.6111112,20.0278473 19.7250348,20.9043056 18.6380556,20.8886806 C17.6025348,20.8737848 16.7509028,20.0334375 16.7229514,18.9981598 C16.7076736,18.4326389 16.9342361,17.9200695 17.3063889,17.5555209 L10.0269444,17.5555209 C10.3872569,17.908507 10.6111111,18.4002084 10.6111111,18.9444445 C10.6111111,20.0490625 9.68999999,20.9385764 8.57395832,20.8867362 C7.58298609,20.8407292 6.77704858,20.0400348 6.72496525,19.0493403 C6.68475692,18.2842709 7.08732636,17.6099306 7.69895831,17.2581597 L5.25982636,5.3333333 L2.83333329,5.3333333 C2.37309023,5.3333333 1.99999995,4.96024302 1.99999995,4.49999996 L1.99999995,3.9444444 C1.99999995,3.48420135 2.37309023,3.11111107 2.83333329,3.11111107 L6.39336803,3.11111107 C6.78923609,3.11111107 7.13045136,3.38961801 7.20979164,3.77743051 L7.52805553,5.3333333 L21.1663195,5.3333333 C21.7010764,5.3333333 22.0974306,5.8298958 21.9789237,6.35135414 L20.3375,13.5735764 C20.2512848,13.9529861 19.9139931,14.2222222 19.5248959,14.2222222 Z M16.1666667,8.94444443 L14.5,8.94444443 L14.5,7.55555553 C14.5,7.24871525 14.2512847,6.99999997 13.9444445,6.99999997 L13.3888889,6.99999997 C13.0820486,6.99999997 12.8333333,7.24871525 12.8333333,7.55555553 L12.8333333,8.94444443 L11.1666667,8.94444443 C10.8598264,8.94444443 10.6111111,9.19315971 10.6111111,9.49999999 L10.6111111,10.0555555 C10.6111111,10.3623958 10.8598264,10.6111111 11.1666667,10.6111111 L12.8333333,10.6111111 L12.8333333,12 C12.8333333,12.3068403 13.0820486,12.5555556 13.3888889,12.5555556 L13.9444445,12.5555556 C14.2512847,12.5555556 14.5,12.3068403 14.5,12 L14.5,10.6111111 L16.1666667,10.6111111 C16.473507,10.6111111 16.7222222,10.3623958 16.7222222,10.0555555 L16.7222222,9.49999999 C16.7222222,9.19315971 16.473507,8.94444443 16.1666667,8.94444443 Z" id="path-1"></path>
    </defs>
    <g id="cart-plus" stroke="none" stroke-width="1" fill="none" fill-rule="evenodd">
        <mask id="mask-2" fill="white">
            <use xlink:href="#path-1"></use>
        </mask>
        <g fill-rule="nonzero"></g>
        <g id="🎨-color" mask="url(#mask-2)" fill="#000000">
            <rect id="🎨-Color" x="0" y="0" width="24" height="24"></rect>
        </g>
    </g>
</svg>