<?xml version="1.0" encoding="UTF-8"?>
<svg width="24px" height="24px" viewBox="0 0 24 24" version="1.1" xmlns="http://www.w3.org/2000/svg" xmlns:xlink="http://www.w3.org/1999/xlink">
    <!-- Generator: Sketch 52.5 (67469) - http://www.bohemiancoding.com/sketch -->
    <title>cat</title>
    <desc>Created with Sketch.</desc>
    <defs>
        <path d="M13.3511719,9.49999999 C12.5628906,9.49999999 9.17851561,9.57734374 6.99999997,12.8574219 L6.99999997,9.49999999 C6.99999997,7.43203123 5.31796872,5.74999997 3.24999996,5.74999997 C2.55976558,5.74999997 1.99999995,6.3097656 1.99999995,6.99999997 C1.99999995,7.69023435 2.55976558,8.24999998 3.24999996,8.24999998 C3.93906246,8.24999998 4.49999996,8.81093748 4.49999996,9.49999999 L4.49999996,19.5 C4.49999996,20.8789063 5.62109372,22 6.99999997,22 L13.875,22 C14.2203125,22 14.5,21.7203125 14.5,21.375 L14.5,20.75 C14.5,20.0597657 13.9402344,19.5 13.25,19.5 L12,19.5 L17,15.75 L17,21.375 C17,21.7203125 17.2796875,22 17.625,22 L18.875,22 C19.2203125,22 19.5,21.7203125 19.5,21.375 L19.5,13.3226563 C19.0980469,13.4269531 18.6839844,13.5 18.25,13.5 C15.8355469,13.5 13.815625,11.7792969 13.3511719,9.49999999 Z M19.5,5.74999997 L17,5.74999997 L14.5,3.24999996 L14.5,8.49999998 C14.5,10.5710937 16.1789063,12.25 18.25,12.25 C20.3210938,12.25 22,10.5710937 22,8.49999998 L22,3.24999996 L19.5,5.74999997 Z M16.6875,8.87499998 C16.3421875,8.87499998 16.0625,8.59531248 16.0625,8.24999998 C16.0625,7.90468748 16.3421875,7.62499998 16.6875,7.62499998 C17.0328125,7.62499998 17.3125,7.90468748 17.3125,8.24999998 C17.3125,8.59531248 17.0328125,8.87499998 16.6875,8.87499998 Z M19.8125,8.87499998 C19.4671875,8.87499998 19.1875,8.59531248 19.1875,8.24999998 C19.1875,7.90468748 19.4671875,7.62499998 19.8125,7.62499998 C20.1578125,7.62499998 20.4375,7.90468748 20.4375,8.24999998 C20.4375,8.59531248 20.1578125,8.87499998 19.8125,8.87499998 Z" id="path-1"></path>
    </defs>
    <g id="cat" stroke="none" stroke-width="1" fill="none" fill-rule="evenodd">
        <mask id="mask-2" fill="white">
            <use xlink:href="#path-1"></use>
        </mask>
        <g fill-rule="nonzero"></g>
        <g id="🎨-color" mask="url(#mask-2)" fill="#000000">
            <rect id="🎨-Color" x="0" y="0" width="24" height="24"></rect>
        </g>
    </g>
</svg>