<?xml version="1.0" encoding="UTF-8"?>
<svg width="24px" height="24px" viewBox="0 0 24 24" version="1.1" xmlns="http://www.w3.org/2000/svg" xmlns:xlink="http://www.w3.org/1999/xlink">
    <!-- Generator: Sketch 52.5 (67469) - http://www.bohemiancoding.com/sketch -->
    <title>cc-amazon-pay</title>
    <desc>Created with Sketch.</desc>
    <defs>
        <path d="M6.32986108,10.1180555 C6.3333333,9.70833332 6.32986108,9.30208332 6.32986108,8.8923611 L6.32986108,7.66666664 C6.32986108,7.62152776 6.34374997,7.5972222 6.37847219,7.57291664 C6.77777775,7.29513887 7.21527775,7.15277775 7.70486109,7.18749998 C8.13888887,7.21874998 8.49305554,7.43055553 8.68055554,7.9409722 C8.79513887,8.24999998 8.82291665,8.57291665 8.82291665,8.90277776 C8.82291665,9.2048611 8.7986111,9.50347221 8.70486109,9.79166666 C8.50694443,10.4097222 8.05555554,10.6493055 7.46527776,10.6215278 C7.05902775,10.6041667 6.70486108,10.4479167 6.37499997,10.2152778 C6.34374997,10.1875 6.32638886,10.1597222 6.32986108,10.1180555 Z M11.7083333,10.625 C11.8680556,10.6875 12.03125,10.6944444 12.1979167,10.6770833 C12.6006944,10.6354167 12.9583333,10.4791667 13.2847222,10.2430555 C13.3159722,10.2222222 13.3298611,10.1979167 13.3298611,10.15625 C13.3263889,10.0208333 13.3298611,9.88194443 13.3298611,9.74652777 C13.3298611,9.60763888 13.3263889,9.46874999 13.3298611,9.3298611 C13.3298611,9.28124999 13.3159722,9.26041665 13.2673611,9.25347221 C13.0243056,9.22222221 12.7847222,9.17708332 12.5416667,9.15277776 C12.2986111,9.13194443 12.0555556,9.1423611 11.8194444,9.21874999 C11.5868056,9.29513888 11.4131944,9.43402776 11.34375,9.6736111 C11.2881944,9.8611111 11.2881944,10.0486111 11.3472222,10.2361111 C11.4027778,10.4270833 11.5277778,10.5555555 11.7083333,10.625 Z M22.0000001,5.88888886 L22.0000001,18.1111111 C22.0000001,19.03125 21.2534723,19.7777778 20.3333334,19.7777778 L3.66666662,19.7777778 C2.74652773,19.7777778 1.99999995,19.03125 1.99999995,18.1111111 L1.99999995,5.88888886 C1.99999995,4.96874996 2.74652773,4.22222218 3.66666662,4.22222218 L20.3333334,4.22222218 C21.2534723,4.22222218 22.0000001,4.96874996 22.0000001,5.88888886 Z M14.7951389,6.71874997 C14.8090278,6.77777775 14.8263889,6.83680553 14.8506945,6.89583331 C15.4236111,8.30555554 15.9930556,9.71874999 16.5694445,11.1284722 C16.6180556,11.25 16.6284722,11.3506944 16.5763889,11.4722222 C16.4791667,11.6875 16.40625,11.9097222 16.3055556,12.1215278 C16.2152778,12.3125 16.0729167,12.4513889 15.8645834,12.5104167 C15.71875,12.5486111 15.5694445,12.5555556 15.4166667,12.5416667 C15.34375,12.5347222 15.2708333,12.5173611 15.1979167,12.5138889 C15.1006945,12.5069444 15.0520833,12.5520833 15.0486111,12.6527778 C15.0451389,12.75 15.0451389,12.8472222 15.0486111,12.9409722 C15.0520833,13.1006944 15.1041667,13.1736111 15.2638889,13.2013889 C15.4270834,13.2291667 15.5902778,13.2569445 15.7569445,13.2604167 C16.2534722,13.2708333 16.6493056,13.0729167 16.90625,12.6388889 C17.0069445,12.46875 17.1006945,12.2881944 17.1736111,12.1041667 C17.8611111,10.3645833 18.5451389,8.62152776 19.2291667,6.8784722 C19.25,6.82638886 19.2673611,6.77430553 19.2743056,6.71874997 C19.2881945,6.63541664 19.25,6.59374997 19.1666667,6.59027775 C18.9722223,6.58680553 18.78125,6.59027775 18.5868056,6.59027775 C18.4791667,6.59027775 18.4027778,6.63888886 18.3645834,6.73958331 C18.3506945,6.77777775 18.3333334,6.81944442 18.3194445,6.85763886 L17.3090278,9.76388888 C17.2361111,9.97569443 17.1631945,10.1840278 17.0833334,10.4097222 C17.0694445,10.3784722 17.0625,10.3611111 17.0555556,10.34375 C16.6805556,9.30555554 16.3055556,8.26388887 15.9305556,7.22569442 C15.8715278,7.06249998 15.8090278,6.89583331 15.7465278,6.73263886 C15.7152778,6.64583331 15.6527778,6.59374997 15.5590278,6.59374997 C15.3368056,6.59027775 15.1145833,6.58680553 14.8923611,6.59027775 C14.8159722,6.59027775 14.7777778,6.64583331 14.7951389,6.71874997 Z M10.4166667,10.2638889 C10.4756944,10.6701389 10.6805555,10.9861111 11.0416667,11.1875 C11.3854167,11.3784722 11.7604167,11.4027778 12.1423611,11.3472222 C12.5833333,11.28125 12.9722222,11.09375 13.3159722,10.8090278 C13.3298611,10.7986111 13.34375,10.7881944 13.3645833,10.7743055 C13.3819445,10.8854167 13.3958333,10.9895833 13.4166667,11.09375 C13.4340278,11.1840278 13.4895833,11.2430556 13.5729167,11.2465278 C13.7326389,11.25 13.8888889,11.25 14.0486111,11.2465278 C14.1284722,11.2430556 14.1805556,11.1909722 14.1875,11.1111111 C14.1909722,11.0833333 14.1909722,11.0555556 14.1909722,11.03125 L14.1909722,7.94791665 C14.1909722,7.82291665 14.1840278,7.69791665 14.1666667,7.57291664 C14.1111111,7.19791664 13.9513889,6.88888886 13.6145833,6.6909722 C13.4201389,6.57638886 13.2048611,6.51736108 12.9826389,6.48611108 C12.8784722,6.47222219 12.7743056,6.46180553 12.6666667,6.44791664 L12.3194444,6.44791664 C12.2916667,6.45138886 12.2638889,6.45833331 12.2326389,6.45833331 C11.9479167,6.47222219 11.6666667,6.50694442 11.3923611,6.57986108 C11.2152778,6.62499997 11.0451389,6.6909722 10.8715278,6.74999997 C10.7673611,6.7847222 10.7152778,6.86111109 10.71875,6.97569442 C10.7222222,7.07291664 10.7152778,7.17013886 10.71875,7.26388887 C10.7222222,7.40624998 10.78125,7.44444442 10.9166667,7.40624998 C11.1423611,7.3472222 11.3715278,7.2847222 11.6006944,7.23958331 C11.9583333,7.17361109 12.3194444,7.14583331 12.6805556,7.19791664 C12.8680556,7.22569442 13.0451389,7.28124998 13.1701389,7.4409722 C13.2777778,7.57986109 13.3159722,7.74652776 13.3229167,7.91666665 C13.3333333,8.15624998 13.3298611,8.39930554 13.3333333,8.63888887 C13.3333333,8.65277776 13.3298611,8.66319443 13.3263889,8.68055554 C13.3125,8.68055554 13.2986111,8.68055554 13.2881945,8.67708332 C12.9826389,8.60416665 12.6736111,8.55208332 12.3576389,8.5347222 C12.0277778,8.51736109 11.7013889,8.53819443 11.3888889,8.64583332 C11.0138889,8.77777776 10.7118055,9.00347221 10.5347222,9.36805554 C10.3923611,9.65624999 10.375,9.95833332 10.4166667,10.2638889 Z M5.4270833,6.82291664 L5.4270833,12.9097222 C5.4270833,12.9375 5.4270833,12.96875 5.43055552,12.9965278 C5.43749997,13.0833333 5.4895833,13.1388889 5.57291663,13.1423611 C5.77777775,13.1458333 5.98263886,13.1458333 6.18749997,13.1423611 C6.27430553,13.1423611 6.32638886,13.0833333 6.32986108,13 C6.3333333,12.9722222 6.3333333,12.9409722 6.3333333,12.9131944 L6.3333333,10.8055555 C6.36458331,10.8298611 6.38194442,10.8472222 6.39930553,10.8611111 C6.92013886,11.2951389 7.51736109,11.4375 8.17361109,11.3090278 C8.76736109,11.1909722 9.17708332,10.8263889 9.44791665,10.2951389 C9.64930554,9.8923611 9.7361111,9.45833332 9.74999999,9.01041665 C9.7673611,8.51388887 9.71527777,8.02430554 9.51388888,7.56249998 C9.2673611,6.99305553 8.85763887,6.61458331 8.23958331,6.48958331 C8.14583331,6.46874997 8.04861109,6.46180553 7.95486109,6.44791664 L7.71180553,6.44791664 C7.67013887,6.45486108 7.6284722,6.45833331 7.58680553,6.46527775 C7.18055553,6.51388886 6.81249997,6.66666664 6.48263886,6.90624997 C6.41319442,6.95486109 6.34722219,7.01041664 6.27777775,7.06249998 C6.27430553,7.04513886 6.26736108,7.0347222 6.26388886,7.02083331 C6.24999997,6.9409722 6.2395833,6.86111109 6.22569442,6.78124997 C6.20486108,6.64583331 6.13888886,6.59027775 6.00347219,6.58680553 L5.66666663,6.58680553 C5.46180552,6.58333331 5.4270833,6.62152775 5.4270833,6.82291664 Z M19.1388889,14.8819445 C19.0451389,14.8576389 18.9618056,14.8819445 18.875,14.9166667 C17.3506945,15.5555556 15.7673611,15.9652778 14.125,16.1597222 C13.6215278,16.21875 13.1145833,16.2569445 12.6076389,16.2708334 C11.6840278,16.2951389 10.7604167,16.2430556 9.84374999,16.1215278 C9.22569443,16.0381945 8.61111109,15.9236111 8.0034722,15.7777778 C6.71874997,15.46875 5.47916663,15.0243056 4.29861107,14.4305556 C3.99305552,14.2777778 3.6944444,14.1076389 3.39236107,13.9444445 C3.26041662,13.8715278 3.17708329,13.8923611 3.10763884,14.0173611 L3.10763884,14.0763889 C3.14930551,14.1319445 3.18402773,14.1944445 3.23611107,14.2430556 C4.48611107,15.3611111 5.8958333,16.2048611 7.4722222,16.7743056 C8.23263887,17.0486111 9.01388887,17.25 9.80902777,17.3819445 C10.2951389,17.4618056 10.78125,17.5138889 11.2743056,17.5381945 C11.3784722,17.5416667 11.4826389,17.5451389 11.5868056,17.5520834 C11.6111111,17.5520834 11.6354167,17.5590278 11.6597222,17.5625 L12.2743056,17.5625 C12.2986111,17.5590278 12.3229167,17.5520834 12.3472222,17.5520834 C12.8645833,17.5381945 13.3819445,17.4895834 13.8958333,17.4131945 C14.6388889,17.3020834 15.3680556,17.1319445 16.0798611,16.9027778 C17.1076389,16.5694445 18.0833334,16.125 18.9756945,15.5104167 C19.0729167,15.4444445 19.1736111,15.3784722 19.2534723,15.2951389 C19.4027778,15.1423611 19.3333334,14.9340278 19.1388889,14.8819445 Z M20.8888889,13.9201389 C20.8611112,13.7743056 20.75,13.71875 20.625,13.6770833 C20.4270834,13.6111111 20.2222223,13.5798611 20.0138889,13.5625 C19.6319445,13.53125 19.25,13.5486111 18.875,13.6180556 C18.4583334,13.6944445 18.0625,13.8298611 17.7118056,14.0729167 C17.6701389,14.1006945 17.6284723,14.1354167 17.6041667,14.1770833 C17.5833334,14.2083333 17.5798611,14.2569445 17.5868056,14.2951389 C17.5972223,14.3402778 17.6458334,14.3506945 17.6909723,14.3472222 C17.7118056,14.3472222 17.7326389,14.3472222 17.7534723,14.34375 L18.4305556,14.2708333 C18.7638889,14.2395833 19.0972223,14.21875 19.4305556,14.2430556 C19.5729167,14.2534722 19.7118056,14.2847222 19.8472223,14.3194445 C19.9965278,14.3576389 20.0625,14.4722222 20.0694445,14.6215278 C20.0798612,14.8541667 20.0277778,15.0763889 19.96875,15.2986111 C19.8472223,15.7465278 19.6805556,16.1805556 19.5069445,16.6111111 C19.4965278,16.6388889 19.4826389,16.6701389 19.4791667,16.6979167 C19.4652778,16.7847222 19.5138889,16.8368056 19.5972223,16.8194445 C19.6458334,16.8090278 19.7013889,16.78125 19.7361111,16.7465278 C19.8645834,16.6215278 19.9965278,16.4965278 20.1041667,16.3576389 C20.4756945,15.8784722 20.6944445,15.3298611 20.8229167,14.7395833 C20.8472223,14.6354167 20.8645834,14.5277778 20.8819445,14.4236111 C20.8888889,14.2604167 20.8888889,14.0902778 20.8888889,13.9201389 Z" id="path-1"></path>
    </defs>
    <g id="cc-amazon-pay" stroke="none" stroke-width="1" fill="none" fill-rule="evenodd">
        <mask id="mask-2" fill="white">
            <use xlink:href="#path-1"></use>
        </mask>
        <g fill-rule="nonzero"></g>
        <g id="🎨-color" mask="url(#mask-2)" fill="#000000">
            <rect id="🎨-Color" x="0" y="0" width="24" height="24"></rect>
        </g>
    </g>
</svg>