<?xml version="1.0" encoding="UTF-8"?>
<svg width="24px" height="24px" viewBox="0 0 24 24" version="1.1" xmlns="http://www.w3.org/2000/svg" xmlns:xlink="http://www.w3.org/1999/xlink">
    <!-- Generator: Sketch 52.5 (67469) - http://www.bohemiancoding.com/sketch -->
    <title>cc-amex</title>
    <desc>Created with Sketch.</desc>
    <defs>
        <path d="M21.965398,11.9792388 C20.6539793,11.9723183 20.4359862,11.9480969 20.0795848,12.1522491 L20.0795848,11.9792388 C18.5121108,11.9792388 18.2283737,11.9204152 17.8339101,12.1591696 L17.8339101,11.9792388 L15.1280277,11.9792388 L15.1280277,12.1557093 C14.733564,11.9307958 14.3875433,11.9792388 12.5086505,11.9792388 L12.5086505,12.1730104 C12.2906574,12.0449827 12.0069204,11.9792388 11.6678201,11.9792388 L9.66089964,11.9792388 C9.53979238,12.1107266 9.22837369,12.4532872 9.11764704,12.5743945 C8.67820068,12.0865052 8.75432524,12.1730104 8.58131486,11.9792388 L5.70588232,11.9792388 L5.70588232,15.1730104 L8.54325258,15.1730104 C8.65743943,15.0519031 8.98961936,14.6920415 9.10034601,14.5709343 C9.53979238,15.065744 9.45674739,14.9757786 9.63321798,15.1730104 L11.3252595,15.1730104 C11.3252595,14.6643599 11.3287197,14.8858132 11.3287197,14.3771626 C11.7266436,14.3840831 12.1695502,14.3702422 12.5155709,14.1626298 C12.5155709,14.6435986 12.5121107,14.7543253 12.5121107,15.1730104 L13.882353,15.1730104 C13.882353,14.532872 13.8858132,14.916955 13.8858132,14.2975779 C14.100346,14.2975779 14.1522491,14.2975779 14.2110727,14.3010381 C14.2145329,14.3460208 14.2110727,14.3010381 14.2110727,15.1730104 C19.4982699,15.1730104 19.2595156,15.2110727 19.633218,15.0173011 L19.633218,15.1730104 C20.8373703,15.1730104 21.5294118,15.249135 21.9688582,14.9619377 L21.9688582,18.0899654 C21.9688582,19.0069205 21.2249135,19.7508651 20.3079585,19.7508651 L3.69550169,19.7508651 C2.77854667,19.7508651 2.03460203,19.0069205 2.03460203,18.0899654 L2.03460203,11.0415225 L2.95501726,11.0415225 C3.10034598,10.6920415 3.03114182,10.8581315 3.17647054,10.5121107 L3.84083041,10.5121107 C3.98615913,10.8581315 3.91695498,10.6920415 4.0622837,11.0415225 L5.89273353,11.0415225 L5.89273353,10.6470588 C5.9688581,10.8200692 5.93079582,10.733564 6.06920412,11.0415225 L7.08996537,11.0415225 C7.17301036,10.8512111 7.17993077,10.8408304 7.26643596,10.6470588 L7.26643596,11.0415225 L11.9550173,11.0415225 L11.9550173,10.1730104 C12.1764706,10.1730104 12.2318339,10.1695502 12.2941176,10.1799308 C12.2941176,10.1799308 12.2871972,10.5570934 12.2975779,11.0380623 L14.5986159,11.0380623 L14.5986159,10.7301038 C14.8546713,10.9342561 15.2006921,11.0380623 15.6262976,11.0380623 L16.5536332,11.0380623 C16.698962,10.6885813 16.6297578,10.8546713 16.7750865,10.5086505 L17.432526,10.5086505 C17.6574395,11.0276817 17.4394464,10.5259515 17.6608997,11.0380623 L19.4878893,11.0380623 L19.4878893,10.2802768 C19.8961938,10.9619377 19.7577855,10.7266436 19.9446367,11.0380623 L21.3840831,11.0380623 L21.3840831,7.85467126 L20.0034602,7.85467126 L20.0034602,8.49134946 C19.5813149,7.79238752 19.7854672,8.13148787 19.615917,7.85467126 L18.1176471,7.85467126 L18.1176471,8.56747403 C17.9031142,8.06228372 17.9584775,8.19377161 17.8131488,7.85467126 L16.6920415,7.85467126 C16.6782007,7.85467126 16.6124568,7.86159167 16.6124568,7.84429064 L15.6574395,7.84429064 C15.2145329,7.84429064 14.8581315,7.95501728 14.5951557,8.16608995 L14.5951557,7.84429064 L13.2145329,7.84429064 L13.2145329,8.02768164 C12.8408305,7.81660898 12.4982699,7.85121105 10.9861592,7.84429064 C10.982699,7.84429064 10.5847751,7.84083043 10.5847751,7.84429064 L7.02076122,7.84429064 C6.93425603,8.0553633 6.7854671,8.41176469 6.58477506,8.88235293 C6.48788925,8.67474047 6.20415222,8.05882351 6.1038062,7.84429064 L4.51211069,7.84429064 L4.51211069,8.57439445 C4.25605532,7.97231832 4.34948093,8.19377161 4.200692,7.84429064 L2.82698957,7.84429064 C2.70934251,8.11764704 2.35294113,8.95155708 2.02768161,9.70934255 L2.02768161,5.91003457 C2.02768161,4.99307955 2.77162625,4.24913491 3.68858127,4.24913491 L20.2975779,4.24913491 C21.2145329,4.24913491 21.9584776,4.99307955 21.9584776,5.91003457 L21.9584776,11.9792388 L21.965398,11.9792388 Z M15.5086505,9.1903114 C15.4982699,9.19723182 15.4602076,9.26643597 15.4602076,9.45328718 C15.4602076,9.66089964 15.4913495,9.71972317 15.4982699,9.72664359 C15.5051903,9.73010379 15.5363322,9.74394463 15.615917,9.74394463 L15.8685121,9.15916954 C15.8304498,9.15916954 15.7958478,9.15570933 15.7612457,9.15570933 C15.5674741,9.15570933 15.5190312,9.17993078 15.5086505,9.1903114 Z M14.8200692,13.7197232 C15.1384083,13.83391 15.2006921,14.0484429 15.2006921,14.3564014 L15.1972318,14.83391 L14.6228374,14.83391 L14.6262976,14.4359862 C14.6262976,14.0276817 14.4948097,13.9584775 14.1141869,13.9584775 L13.5051903,13.9584775 L13.5017301,14.83391 L12.9273356,14.83391 L12.9307959,12.4359862 L14.2941177,12.4359862 C14.7439447,12.4359862 15.2318339,12.5155709 15.2318339,13.083045 C15.2283737,13.3460208 15.0865052,13.6124568 14.8200692,13.7197232 Z M14.6020761,13.1868512 C14.6020761,12.9653979 14.4083045,12.9307959 14.2318339,12.9307959 L13.5051903,12.9307959 L13.5051903,13.4705882 L14.2214533,13.4705882 C14.4152249,13.4705882 14.6020761,13.4256055 14.6020761,13.1868512 Z M20.8892734,12.9411765 L21.9307959,12.9411765 L21.9307959,12.4359862 L20.7923876,12.4359862 C20.349481,12.4359862 19.9688582,12.6643599 19.9688582,13.1522491 C19.9688582,14.2941177 21.4463668,13.5951557 21.4463668,14.100346 C21.4463668,14.2768166 21.2975779,14.3217993 21.1557094,14.3217993 L20.0484429,14.3217993 L20.0449827,14.83391 L21.1522492,14.83391 C21.4429066,14.83391 21.7612457,14.7716263 21.9307959,14.5259516 L21.9307959,13.633218 C21.5674741,13.1557093 20.5709343,13.5882353 20.5709343,13.16609 C20.5709343,12.9653979 20.7301038,12.9411765 20.8892734,12.9411765 Z M17.4567474,12.9307959 L17.4567474,12.4359862 L15.5467128,12.4359862 L15.5432526,14.83391 L17.4532872,14.83391 L17.4567474,14.3391004 L16.1211073,14.3287197 L16.1211073,13.8512111 L17.432526,13.8512111 L17.432526,13.3633218 L16.1245675,13.3633218 L16.1245675,12.9307959 L17.4567474,12.9307959 Z M18.9169551,14.3183391 L17.8027682,14.3183391 L17.799308,14.8304498 L18.9134948,14.8304498 C19.4256056,14.8304498 19.8200692,14.6366782 19.8200692,14.0692042 C19.8200692,12.9204152 18.3356402,13.6816609 18.3356402,13.1591696 C18.3356402,12.9653979 18.5051903,12.9377163 18.6539793,12.9377163 L19.7058824,12.9377163 L19.7058824,12.432526 L18.5570935,12.432526 C18.1141869,12.432526 17.7439447,12.6608997 17.7439447,13.1487889 C17.7439447,14.2906575 19.2214533,13.5813149 19.2214533,14.0968858 C19.2179931,14.283737 19.0588236,14.3183391 18.9169551,14.3183391 Z M16.2145329,8.8269896 C15.6124568,8.81660898 15.065744,8.68512109 15.065744,9.50865051 C15.065744,9.91695501 15.1626298,10.1972318 15.6228374,10.1972318 L15.8788928,10.1972318 L16.6920415,8.31141867 L17.550173,8.31141867 L18.515571,10.5743945 L18.515571,8.31141867 L19.3910035,8.31141867 L20.3979239,9.97577854 L20.3979239,8.31141867 L20.982699,8.31141867 L20.982699,10.6989619 L20.16609,10.6989619 L19.0865052,8.90311417 L19.0865052,10.6989619 L17.9204153,10.6989619 L17.6920416,10.1695502 L16.5051903,10.1695502 L16.283737,10.6989619 L15.6193772,10.6989619 C14.8304498,10.6989619 14.4775087,10.2906574 14.4775087,9.52249134 C14.4775087,8.71626296 14.8408305,8.30103804 15.6539793,8.30103804 L16.2110727,8.30103804 L16.2110727,8.8269896 L16.2145329,8.8269896 Z M16.7093426,9.67474047 L17.4982699,9.67474047 L17.1107267,8.71972317 L16.7093426,9.67474047 Z M14.1972318,8.30449825 L13.6124568,8.30449825 L13.6124568,10.7024221 L14.1972318,10.7024221 L14.1972318,8.30449825 Z M12.8788927,9.5951557 C13.2076125,9.70934255 13.2595156,9.9134948 13.2595156,10.2318339 L13.2595156,10.6989619 L12.6851211,10.6989619 C12.6747405,10.1868512 12.8096886,9.83044982 12.1730104,9.83044982 L11.550173,9.83044982 L11.550173,10.6989619 L10.982699,10.6989619 L10.982699,8.30103804 L12.3356401,8.31141867 C12.7958478,8.31141867 13.283737,8.38062282 13.283737,8.94809687 C13.2871972,9.22491348 13.1349481,9.49134947 12.8788927,9.5951557 Z M12.6470588,9.06574393 C12.6470588,8.84429064 12.4532872,8.80968857 12.2768166,8.80968857 L11.550173,8.80968857 L11.550173,9.33910033 L12.266436,9.33910033 C12.4636678,9.33910033 12.6470588,9.29411763 12.6470588,9.06574393 Z M10.5882353,8.80968857 L10.5882353,8.30449825 L8.66782005,8.30449825 L8.66782005,10.7024221 L10.5882353,10.7024221 L10.5882353,10.2076124 L9.24221452,10.2076124 L9.24221452,9.73010379 L10.550173,9.73010379 L10.550173,9.24221452 L9.24221452,9.24221452 L9.24221452,8.80968857 L10.5882353,8.80968857 Z M7.66089963,10.7024221 L7.66089963,8.8269896 L6.8304498,10.7024221 L6.32525949,10.7024221 L5.49480966,8.8269896 L5.49480966,10.7024221 L4.32525948,10.7024221 L4.10380619,10.1730104 L2.91003456,10.1730104 L2.68858127,10.7024221 L2.0692041,10.7024221 L3.09688577,8.30449825 L3.94463664,8.30449825 L4.91695498,10.5778547 L4.91695498,8.30449825 L5.85467125,8.30449825 L6.60553631,9.93079584 L7.28719721,8.30449825 L8.24221451,8.30449825 L8.24221451,10.7024221 L7.66089963,10.7024221 Z M3.89965394,9.67474047 L3.50173006,8.71972317 L3.11418681,9.67474047 L3.89965394,9.67474047 Z M12.6539792,13.2214533 C12.6539792,14.1868512 11.6020761,14.0276817 10.9480969,14.0276817 L10.9446367,14.83391 L9.83044982,14.83391 L9.12456746,14.0380623 L8.38754323,14.83391 L6.12456744,14.83391 L6.12802765,12.4359862 L8.42906573,12.4359862 L9.13840829,13.2249135 L9.86505189,12.4359862 L11.6885813,12.4359862 C12.2283737,12.4359862 12.6539792,12.6228374 12.6539792,13.2214533 Z M8.75432524,13.6297578 L8.13494808,12.9307959 L6.6920415,12.9307959 L6.6920415,13.3633218 L7.94809687,13.3633218 L7.94809687,13.8512111 L6.6920415,13.8512111 L6.6920415,14.3287197 L8.09688579,14.3287197 L8.75432524,13.6297578 Z M10.3737024,12.6920415 L9.49826988,13.6401384 L10.3737024,14.6124568 L10.3737024,12.6920415 Z M12.0449827,13.2214533 C12.0449827,13.0103806 11.8858131,12.9307959 11.6920415,12.9307959 L10.9480969,12.9307959 L10.9480969,13.5397924 L11.6816609,13.5397924 C11.8858131,13.5397924 12.0449827,13.4429066 12.0449827,13.2214533 Z" id="path-1"></path>
    </defs>
    <g id="cc-amex" stroke="none" stroke-width="1" fill="none" fill-rule="evenodd">
        <mask id="mask-2" fill="white">
            <use xlink:href="#path-1"></use>
        </mask>
        <g fill-rule="nonzero"></g>
        <g id="🎨-color" mask="url(#mask-2)" fill="#000000">
            <rect id="🎨-Color" x="0" y="0" width="24" height="24"></rect>
        </g>
    </g>
</svg>