<?xml version="1.0" encoding="UTF-8"?>
<svg width="24px" height="24px" viewBox="0 0 24 24" version="1.1" xmlns="http://www.w3.org/2000/svg" xmlns:xlink="http://www.w3.org/1999/xlink">
    <!-- Generator: Sketch 52.5 (67469) - http://www.bohemiancoding.com/sketch -->
    <title>cc-apple-pay</title>
    <desc>Created with Sketch.</desc>
    <defs>
        <path d="M12.4930556,10.6944444 C12.4930556,11.2916667 12.1284722,11.6354167 11.4861111,11.6354167 L10.6423611,11.6354167 L10.6423611,9.75347221 L11.4895833,9.75347221 C12.1284722,9.75347221 12.4930556,10.09375 12.4930556,10.6944444 Z M14.1423611,12.8680556 C14.1423611,13.15625 14.3923611,13.34375 14.7847222,13.34375 C15.2847222,13.34375 15.6597222,13.0277778 15.6597222,12.5833333 L15.6597222,12.3159722 L14.84375,12.3680556 C14.3819445,12.3993056 14.1423611,12.5694444 14.1423611,12.8680556 Z M22.0000001,5.85416664 L22.0000001,18.0763889 C22.0000001,18.9965278 21.2534723,19.7430556 20.3333334,19.7430556 L3.66666662,19.7430556 C2.74652773,19.7430556 1.99999995,18.9965278 1.99999995,18.0763889 L1.99999995,5.85416664 C1.99999995,4.93402774 2.74652773,4.18749996 3.66666662,4.18749996 L20.3333334,4.18749996 C21.2534723,4.18749996 22.0000001,4.93402774 22.0000001,5.85416664 Z M6.43749997,9.95833332 C6.72916664,9.98263888 7.02083331,9.81249999 7.20486109,9.59722221 C7.38541664,9.37499999 7.5034722,9.07638887 7.4722222,8.77430554 C7.21527775,8.78472221 6.89583331,8.94444443 6.71180553,9.16666665 C6.54513886,9.35763888 6.40277775,9.66666666 6.43749997,9.95833332 Z M8.54166665,12.5451389 C8.5347222,12.5381944 7.86111109,12.28125 7.85416665,11.5034722 C7.8472222,10.8541667 8.38541665,10.5416667 8.4097222,10.5243055 C8.10416665,10.0729167 7.63194442,10.0243055 7.46874998,10.0138889 C7.04513886,9.98958332 6.68402775,10.2534722 6.48263886,10.2534722 C6.27777775,10.2534722 5.97222219,10.0243055 5.63888886,10.03125 C5.20486108,10.0381944 4.79861108,10.2847222 4.57986107,10.6770833 C4.12499996,11.4618056 4.46180552,12.6215278 4.90277774,13.2604167 C5.11805552,13.5763889 5.37847219,13.9236111 5.71874997,13.9097222 C6.04166664,13.8958333 6.17013886,13.7013889 6.55902775,13.7013889 C6.95138886,13.7013889 7.06249998,13.9097222 7.40277775,13.90625 C7.75694442,13.8993056 7.97569442,13.5902778 8.19444443,13.2743056 C8.43402776,12.9131944 8.5347222,12.5659722 8.54166665,12.5451389 Z M13.2430556,10.6909722 C13.2430556,9.7673611 12.6006944,9.13541665 11.6840278,9.13541665 L9.90624999,9.13541665 L9.90624999,13.8715278 L10.6423611,13.8715278 L10.6423611,12.2534722 L11.6597222,12.2534722 C12.5902778,12.2534722 13.2430556,11.6145833 13.2430556,10.6909722 Z M16.3680556,11.5138889 C16.3680556,10.8298611 15.8194445,10.3888889 14.9791667,10.3888889 C14.1979167,10.3888889 13.6215278,10.8368055 13.6006945,11.4479167 L14.2638889,11.4479167 C14.3194445,11.15625 14.5902778,10.9652778 14.9583333,10.9652778 C15.4097222,10.9652778 15.6597222,11.1736111 15.6597222,11.5625 L15.6597222,11.8229167 L14.7430556,11.8784722 C13.8888889,11.9305556 13.4270833,12.28125 13.4270833,12.8888889 C13.4270833,13.5034722 13.9027778,13.9097222 14.5868056,13.9097222 C15.0486111,13.9097222 15.4756945,13.6770833 15.6701389,13.3055556 L15.6840278,13.3055556 L15.6840278,13.875 L16.3645834,13.875 L16.3645834,11.5138889 L16.3680556,11.5138889 Z M19.9166667,10.4340278 L19.1701389,10.4340278 L18.3055556,13.2326389 L18.2916667,13.2326389 L17.4270834,10.4340278 L16.6527778,10.4340278 L17.8993056,13.8819445 L17.8333334,14.0902778 C17.7222223,14.4444445 17.5381945,14.5833333 17.2118056,14.5833333 C17.1527778,14.5833333 17.0416667,14.5763889 16.9965278,14.5729167 L16.9965278,15.1423611 C17.0381945,15.15625 17.2222222,15.1597222 17.2777778,15.1597222 C17.9965278,15.1597222 18.3333334,14.8854167 18.6284723,14.0555556 L19.9166667,10.4340278 Z" id="path-1"></path>
    </defs>
    <g id="cc-apple-pay" stroke="none" stroke-width="1" fill="none" fill-rule="evenodd">
        <mask id="mask-2" fill="white">
            <use xlink:href="#path-1"></use>
        </mask>
        <g fill-rule="nonzero"></g>
        <g id="🎨-color" mask="url(#mask-2)" fill="#000000">
            <rect id="🎨-Color" x="0" y="0" width="24" height="24"></rect>
        </g>
    </g>
</svg>