<?xml version="1.0" encoding="UTF-8"?>
<svg width="24px" height="24px" viewBox="0 0 24 24" version="1.1" xmlns="http://www.w3.org/2000/svg" xmlns:xlink="http://www.w3.org/1999/xlink">
    <!-- Generator: Sketch 52.5 (67469) - http://www.bohemiancoding.com/sketch -->
    <title>cc-discover</title>
    <desc>Created with Sketch.</desc>
    <defs>
        <path d="M4.88194441,10.4756944 C4.88194441,10.75 4.7708333,11.0138889 4.57291663,11.1944444 C4.40277774,11.3472222 4.17013885,11.4166667 3.81249996,11.4166667 L3.66666662,11.4166667 L3.66666662,9.53472221 L3.81249996,9.53472221 C4.17013885,9.53472221 4.39236107,9.59374999 4.57291663,9.76388888 C4.7708333,9.93749999 4.88194441,10.2013889 4.88194441,10.4756944 Z M19.5277778,9.49999999 L19.3576389,9.49999999 L19.3576389,10.3645833 L19.5208334,10.3645833 C19.8784723,10.3645833 20.0694445,10.2118055 20.0694445,9.92013888 C20.0694445,9.64583332 19.8784723,9.49999999 19.5277778,9.49999999 Z M22.0000001,5.88888886 L22.0000001,18.1111111 C22.0000001,19.03125 21.2534723,19.7777778 20.3333334,19.7777778 L3.66666662,19.7777778 C2.74652773,19.7777778 1.99999995,19.03125 1.99999995,18.1111111 L1.99999995,5.88888886 C1.99999995,4.96874996 2.74652773,4.22222218 3.66666662,4.22222218 L20.3333334,4.22222218 C21.2534723,4.22222218 22.0000001,4.96874996 22.0000001,5.88888886 Z M16.8611111,11.8958333 L18.4340278,11.8958333 L18.4340278,11.4166667 L17.4166667,11.4166667 L17.4166667,10.6458333 L18.3993056,10.6458333 L18.3993056,10.1666667 L17.4166667,10.1666667 L17.4166667,9.53472221 L18.4340278,9.53472221 L18.4340278,9.0486111 L16.8611111,9.0486111 L16.8611111,11.8958333 Z M13.8680556,9.0486111 L15.0833333,11.9722222 L15.3819445,11.9722222 L16.6145834,9.0486111 L16.0069445,9.0486111 L15.2361111,10.9652778 L14.4756945,9.0486111 L13.8680556,9.0486111 Z M10.9861111,10.4930555 C10.9861111,11.3472222 11.6770833,12.0416667 12.5347222,12.0416667 C13.3888889,12.0416667 14.0833333,11.3506944 14.0833333,10.4930555 C14.0833333,9.63888888 13.3923611,8.94444443 12.5347222,8.94444443 C11.6805556,8.94444443 10.9861111,9.63541665 10.9861111,10.4930555 Z M8.62499998,10.4756944 C8.62499998,11.6041667 9.79166666,12.2986111 10.8229167,11.8020833 L10.8229167,11.1423611 C10.1527778,11.8125 9.19791665,11.34375 9.19791665,10.4756944 C9.19791665,9.65277777 10.125,9.11805554 10.8229167,9.81597221 L10.8229167,9.15624999 C9.77430554,8.63541665 8.62499998,9.3923611 8.62499998,10.4756944 Z M7.44791664,11.4583333 C7.18402775,11.4583333 6.96874997,11.3298611 6.84027775,11.0833333 L6.48263886,11.4270833 C7.10069442,12.3333333 8.44791665,12.0590278 8.44791665,11.0347222 C8.44791665,10.5798611 8.26041665,10.375 7.6284722,10.1458333 C7.29513887,10.0277778 7.20138886,9.94097221 7.20138886,9.78819443 C7.20138886,9.4861111 7.70486109,9.2986111 8.0659722,9.70138888 L8.35763887,9.32638888 C7.69444442,8.73263887 6.63194442,9.0173611 6.63194442,9.82291666 C6.63194442,10.2152778 6.81249997,10.4201389 7.33333331,10.6111111 C8.22569443,10.9270833 7.84374998,11.4583333 7.44791664,11.4583333 Z M5.45486108,10.4756944 C5.45486108,9.63888888 4.82986108,9.0486111 3.92361107,9.0486111 L3.11111107,9.0486111 L3.11111107,11.8958333 L3.92361107,11.8958333 C4.99652774,11.8958333 5.45486108,11.1180556 5.45486108,10.4756944 Z M6.26736108,9.0486111 L5.71180552,9.0486111 L5.71180552,11.8958333 L6.26736108,11.8958333 L6.26736108,9.0486111 Z M20.8888889,13.1111111 C19.7326389,13.8333333 13.0277778,17.4305556 6.44444442,18.6666667 L20.3680556,18.6666667 C20.6527778,18.6666667 20.8888889,18.4305556 20.8888889,18.1458334 L20.8888889,13.1111111 Z M20.8888889,11.8958333 L19.9895834,10.6979167 C20.4097223,10.6111111 20.6388889,10.3298611 20.6388889,9.8923611 C20.6388889,8.90277776 19.5868056,9.04513887 18.8020834,9.04513887 L18.8020834,11.8923611 L19.3576389,11.8923611 L19.3576389,10.7534722 L19.4340278,10.7534722 L20.2048612,11.8923611 L20.8888889,11.8923611 L20.8888889,11.8958333 Z" id="path-1"></path>
    </defs>
    <g id="cc-discover" stroke="none" stroke-width="1" fill="none" fill-rule="evenodd">
        <mask id="mask-2" fill="white">
            <use xlink:href="#path-1"></use>
        </mask>
        <g fill-rule="nonzero"></g>
        <g id="🎨-color" mask="url(#mask-2)" fill="#000000">
            <rect id="🎨-Color" x="0" y="0" width="24" height="24"></rect>
        </g>
    </g>
</svg>