<?xml version="1.0" encoding="UTF-8"?>
<svg width="24px" height="24px" viewBox="0 0 24 24" version="1.1" xmlns="http://www.w3.org/2000/svg" xmlns:xlink="http://www.w3.org/1999/xlink">
    <!-- Generator: Sketch 52.5 (67469) - http://www.bohemiancoding.com/sketch -->
    <title>cc-diners-club</title>
    <desc>Created with Sketch.</desc>
    <defs>
        <path d="M10.3229167,5.88541664 C6.95833331,5.88541664 4.21874996,8.61458332 4.21874996,11.9895833 C4.21874996,15.3541667 6.95833331,18.09375 10.3229167,18.09375 C13.6979167,18.09375 16.4270834,15.3541667 16.4270834,11.9895833 C16.4270834,8.61458332 13.6979167,5.88541664 10.3229167,5.88541664 Z M8.93749998,15.59375 C7.48958331,15.0416667 6.45833331,13.6354167 6.45833331,11.9895833 C6.45833331,10.34375 7.48958331,8.93749998 8.93749998,8.37499998 L8.93749998,15.59375 Z M11.7083333,15.6041667 L11.7083333,8.37499998 C13.15625,8.93749998 14.1875,10.34375 14.1875,11.9895833 C14.1875,13.6354167 13.15625,15.0416667 11.7083333,15.6041667 Z M20.3333334,4.22222218 L3.66666662,4.22222218 C2.74652773,4.22222218 1.99999995,4.96874996 1.99999995,5.88888886 L1.99999995,18.1111111 C1.99999995,19.03125 2.74652773,19.7777778 3.66666662,19.7777778 L20.3333334,19.7777778 C21.2534723,19.7777778 22.0000001,19.03125 22.0000001,18.1111111 L22.0000001,5.88888886 C22.0000001,4.96874996 21.2534723,4.22222218 20.3333334,4.22222218 Z M13.4479167,18.6666667 L10.3125,18.6666667 C6.62499997,18.6666667 3.58333329,15.6979167 3.58333329,12.0625 C3.58333329,8.08333331 6.62499997,5.3333333 10.3125,5.3333333 L13.4479167,5.3333333 C17.09375,5.3333333 20.4166667,8.08333331 20.4166667,12.0625 C20.4166667,15.6979167 17.09375,18.6666667 13.4479167,18.6666667 Z" id="path-1"></path>
    </defs>
    <g id="cc-diners-club" stroke="none" stroke-width="1" fill="none" fill-rule="evenodd">
        <mask id="mask-2" fill="white">
            <use xlink:href="#path-1"></use>
        </mask>
        <g fill-rule="nonzero"></g>
        <g id="🎨-color" mask="url(#mask-2)" fill="#000000">
            <rect id="🎨-Color" x="0" y="0" width="24" height="24"></rect>
        </g>
    </g>
</svg>