<?xml version="1.0" encoding="UTF-8"?>
<svg width="24px" height="24px" viewBox="0 0 24 24" version="1.1" xmlns="http://www.w3.org/2000/svg" xmlns:xlink="http://www.w3.org/1999/xlink">
    <!-- Generator: Sketch 52.5 (67469) - http://www.bohemiancoding.com/sketch -->
    <title>cc-jcb</title>
    <desc>Created with Sketch.</desc>
    <defs>
        <path d="M16.9826389,11.59375 L16.9826389,10.4722222 C18.4131945,10.4722222 18.3194445,10.4791667 18.3194445,10.4791667 C18.5729167,10.5243055 18.78125,10.7326389 18.78125,11.0347222 C18.78125,11.3402778 18.5729167,11.5381944 18.3194445,11.5833333 C18.2777778,11.5972222 18.2048611,11.59375 16.9826389,11.59375 Z M18.46875,12.2951389 C18.3715278,12.2708333 18.3541667,12.2777778 16.9826389,12.2777778 L16.9826389,13.4930556 C18.3576389,13.4930556 18.3715278,13.5 18.46875,13.4756945 C18.7291667,13.4236111 18.9375,13.1979167 18.9375,12.8854167 C18.9375,12.5833333 18.7291667,12.3472222 18.46875,12.2951389 Z M22.0000001,5.88888886 L22.0000001,18.1111111 C22.0000001,19.03125 21.2534723,19.7777778 20.3333334,19.7777778 L3.66666662,19.7777778 C2.74652773,19.7777778 1.99999995,19.03125 1.99999995,18.1111111 L1.99999995,5.88888886 C1.99999995,4.96874996 2.74652773,4.22222218 3.66666662,4.22222218 L20.3333334,4.22222218 C21.2534723,4.22222218 22.0000001,4.96874996 22.0000001,5.88888886 Z M8.31944443,9.78819443 L6.34027775,9.78819443 C6.34027775,12.1180556 6.71180553,13.5972222 5.09722219,13.5972222 C4.42013885,13.5972222 3.74999996,13.3993056 3.11111107,13.0833333 L3.11111107,14.0555556 C4.15277774,14.34375 5.47222219,14.34375 5.47222219,14.34375 C8.87152776,14.34375 8.31944443,12.6875 8.31944443,9.78819443 Z M14.5173611,9.94444443 C12.3159722,9.38888888 8.78819443,9.42708332 8.78819443,12.0034722 C8.78819443,14.6805556 12.5451389,14.5590278 14.5173611,14.0590278 L14.5173611,13.0763889 C12.8645833,13.9340278 10.7847222,13.8402778 10.7847222,12 C10.7847222,10.1597222 12.8611111,10.0694444 14.5173611,10.9166667 L14.5173611,9.94444443 Z M20.8888889,13.0590278 C20.8888889,12.4166667 20.3159723,12 19.5694445,11.9479167 L19.5694445,11.9201389 C20.2465278,11.8263889 20.6215278,11.3819444 20.6215278,10.8715278 C20.6215278,10.2118055 20.0763889,9.8298611 19.3368056,9.79513888 C19.3368056,9.79513888 19.5555556,9.78472221 15.1597222,9.78472221 L15.1597222,14.2118255 L19.4201389,14.2118056 C20.2638889,14.2152778 20.8888889,13.7638889 20.8888889,13.0590278 Z" id="path-1"></path>
    </defs>
    <g id="cc-jcb" stroke="none" stroke-width="1" fill="none" fill-rule="evenodd">
        <mask id="mask-2" fill="white">
            <use xlink:href="#path-1"></use>
        </mask>
        <g fill-rule="nonzero"></g>
        <g id="🎨-color" mask="url(#mask-2)" fill="#000000">
            <rect id="🎨-Color" x="0" y="0" width="24" height="24"></rect>
        </g>
    </g>
</svg>