<?xml version="1.0" encoding="UTF-8"?>
<svg width="24px" height="24px" viewBox="0 0 24 24" version="1.1" xmlns="http://www.w3.org/2000/svg" xmlns:xlink="http://www.w3.org/1999/xlink">
    <!-- Generator: Sketch 52.5 (67469) - http://www.bohemiancoding.com/sketch -->
    <title>cc-mastercard</title>
    <desc>Created with Sketch.</desc>
    <defs>
        <path d="M18.7673611,17.3576389 C18.7673611,17.59375 18.6076389,17.7638889 18.3784723,17.7638889 C18.1423611,17.7638889 17.9895834,17.5833334 17.9895834,17.3576389 C17.9895834,17.1319445 18.1423611,16.9513889 18.3784723,16.9513889 C18.6076389,16.9513889 18.7673611,17.1319445 18.7673611,17.3576389 Z M7.97569442,16.9513889 C7.72916665,16.9513889 7.58680553,17.1319445 7.58680553,17.3576389 C7.58680553,17.5833334 7.72916665,17.7638889 7.97569442,17.7638889 C8.20138887,17.7638889 8.35416665,17.59375 8.35416665,17.3576389 C8.35069443,17.1319445 8.20138887,16.9513889 7.97569442,16.9513889 Z M12.0555556,16.9409722 C11.8680556,16.9409722 11.7534722,17.0625 11.7256944,17.2430556 L12.3888889,17.2430556 C12.3576389,17.0451389 12.2361111,16.9409722 12.0555556,16.9409722 Z M15.7986111,16.9513889 C15.5625,16.9513889 15.4201389,17.1319445 15.4201389,17.3576389 C15.4201389,17.5833334 15.5625,17.7638889 15.7986111,17.7638889 C16.0347222,17.7638889 16.1875,17.59375 16.1875,17.3576389 C16.1875,17.1319445 16.0347222,16.9513889 15.7986111,16.9513889 Z M19.4756945,17.8576389 C19.4756945,17.8680556 19.4861111,17.875 19.4861111,17.8958334 C19.4861111,17.90625 19.4756945,17.9131945 19.4756945,17.9340278 C19.4652778,17.9444445 19.4652778,17.9513889 19.4583334,17.9618056 C19.4479167,17.9722223 19.4409723,17.9791667 19.4201389,17.9791667 C19.4097223,17.9895834 19.4027778,17.9895834 19.3819445,17.9895834 C19.3715278,17.9895834 19.3645834,17.9895834 19.34375,17.9791667 C19.3333334,17.9791667 19.3263889,17.96875 19.3159723,17.9618056 C19.3055556,17.9513889 19.2986111,17.9444445 19.2986111,17.9340278 C19.2881945,17.9166667 19.2881945,17.90625 19.2881945,17.8958334 C19.2881945,17.8784723 19.2881945,17.8680556 19.2986111,17.8576389 C19.2986111,17.8402778 19.3090278,17.8298611 19.3159723,17.8194445 C19.3263889,17.8090278 19.3333334,17.8090278 19.34375,17.8020834 C19.3611111,17.7916667 19.3715278,17.7916667 19.3819445,17.7916667 C19.3993056,17.7916667 19.4097223,17.7916667 19.4201389,17.8020834 C19.4375,17.8125 19.4479167,17.8125 19.4583334,17.8194445 C19.46875,17.8263889 19.4652778,17.8402778 19.4756945,17.8576389 Z M19.3993056,17.90625 C19.4166667,17.90625 19.4166667,17.8958334 19.4270834,17.8958334 C19.4375,17.8854167 19.4375,17.8784723 19.4375,17.8680556 C19.4375,17.8576389 19.4375,17.8506945 19.4270834,17.8402778 C19.4166667,17.8402778 19.4097223,17.8298611 19.3888889,17.8298611 L19.3333334,17.8298611 L19.3333334,17.9513889 L19.3611111,17.9513889 L19.3611111,17.9027778 L19.3715278,17.9027778 L19.4097223,17.9513889 L19.4375,17.9513889 L19.3993056,17.90625 Z M22.0000001,5.92361108 L22.0000001,18.1458334 C22.0000001,19.0659723 21.2534723,19.8125 20.3333334,19.8125 L3.66666662,19.8125 C2.74652773,19.8125 1.99999995,19.0659723 1.99999995,18.1458334 L1.99999995,5.92361108 C1.99999995,5.00347219 2.74652773,4.25694441 3.66666662,4.25694441 L20.3333334,4.25694441 C21.2534723,4.25694441 22.0000001,5.00347219 22.0000001,5.92361108 Z M4.22222218,10.7708333 C4.22222218,13.4270833 6.37847219,15.5798611 9.03124999,15.5798611 C9.97569443,15.5798611 10.9027778,15.2951389 11.6875,14.7777778 C9.15624999,12.71875 9.1736111,8.83333332 11.6875,6.77430553 C10.9027778,6.25347219 9.97569443,5.97222219 9.03124999,5.97222219 C6.37847219,5.96874997 4.22222218,8.12499998 4.22222218,10.7708333 Z M12,14.5486111 C14.4479167,12.6388889 14.4375,8.91666665 12,6.99652775 C9.56249999,8.91666665 9.55208332,12.6423611 12,14.5486111 Z M7.05902775,17.1979167 C7.05902775,16.8958334 6.86111109,16.6979167 6.54861108,16.6875 C6.38888886,16.6875 6.21874997,16.7361111 6.10416664,16.9131945 C6.0208333,16.7708334 5.87847219,16.6875 5.68055552,16.6875 C5.54861108,16.6875 5.41666663,16.7361111 5.31249997,16.875 L5.31249997,16.7222222 L5.02777774,16.7222222 L5.02777774,17.9965278 L5.31249997,17.9965278 C5.31249997,17.3402778 5.22569441,16.9479167 5.62499997,16.9479167 C5.97916664,16.9479167 5.90972219,17.3020834 5.90972219,17.9965278 L6.18402775,17.9965278 C6.18402775,17.3611111 6.09722219,16.9479167 6.49652775,16.9479167 C6.85069442,16.9479167 6.78124997,17.2951389 6.78124997,17.9965278 L7.0659722,17.9965278 L7.0659722,17.1979167 L7.05902775,17.1979167 Z M8.61805554,16.7222222 L8.34374998,16.7222222 L8.34374998,16.875 C8.24999998,16.7604167 8.11805554,16.6875 7.93749998,16.6875 C7.57986109,16.6875 7.30555553,16.9722222 7.30555553,17.3576389 C7.30555553,17.7465278 7.57986109,18.0277778 7.93749998,18.0277778 C8.11805554,18.0277778 8.24999998,17.9618056 8.34374998,17.8402778 L8.34374998,18 L8.61805554,18 L8.61805554,16.7222222 Z M10.0243055,17.6111111 C10.0243055,17.0902778 9.22916665,17.3263889 9.22916665,17.0833334 C9.22916665,16.8854167 9.6423611,16.9166667 9.87152777,17.0451389 L9.9861111,16.8194445 C9.65972221,16.6076389 8.93749998,16.6111111 8.93749998,17.1041667 C8.93749998,17.6006945 9.73263888,17.3923611 9.73263888,17.625 C9.73263888,17.84375 9.26388888,17.8263889 9.01388887,17.6527778 L8.8923611,17.8715278 C9.28124999,18.1354167 10.0243055,18.0798611 10.0243055,17.6111111 Z M11.2534722,17.9340278 L11.1770833,17.6979167 C11.0451389,17.7708334 10.7534722,17.8506945 10.7534722,17.5555556 L10.7534722,16.9791667 L11.2083333,16.9791667 L11.2083333,16.7222222 L10.7534722,16.7222222 L10.7534722,16.3333334 L10.46875,16.3333334 L10.46875,16.7222222 L10.2048611,16.7222222 L10.2048611,16.9756945 L10.46875,16.9756945 L10.46875,17.5555556 C10.46875,18.1666667 11.0694444,18.0555556 11.2534722,17.9340278 Z M11.7152778,17.46875 L12.6701389,17.46875 C12.6701389,16.90625 12.4131944,16.6840278 12.0659722,16.6840278 C11.6979167,16.6840278 11.4340278,16.9583334 11.4340278,17.3541667 C11.4340278,18.0659723 12.21875,18.1840278 12.6076389,17.8472223 L12.4756944,17.6388889 C12.2048611,17.8611111 11.7951389,17.8402778 11.7152778,17.46875 Z M13.7673611,16.7222222 C13.6076389,16.6527778 13.3645833,16.6597222 13.2395833,16.875 L13.2395833,16.7222222 L12.9548611,16.7222222 L12.9548611,17.9965278 L13.2395833,17.9965278 L13.2395833,17.2777778 C13.2395833,16.875 13.5694445,16.9270834 13.6840278,16.9861111 L13.7673611,16.7222222 Z M14.1354167,17.3576389 C14.1354167,16.9618056 14.5381945,16.8333334 14.8541667,17.0659722 L14.9861111,16.8402778 C14.5833333,16.5243056 13.8506945,16.6979167 13.8506945,17.3611111 C13.8506945,18.0486111 14.6284722,18.1875 14.9861111,17.8819445 L14.8541667,17.65625 C14.5347222,17.8819445 14.1354167,17.7465278 14.1354167,17.3576389 Z M16.4513889,16.7222222 L16.1666667,16.7222222 L16.1666667,16.875 C15.8784722,16.4930556 15.1284722,16.7083334 15.1284722,17.3576389 C15.1284722,18.0243056 15.90625,18.2152778 16.1666667,17.8402778 L16.1666667,18 L16.4513889,18 L16.4513889,16.7222222 Z M17.6215278,16.7222222 C17.5381945,16.6805556 17.2395834,16.6215278 17.09375,16.875 L17.09375,16.7222222 L16.8194445,16.7222222 L16.8194445,17.9965278 L17.09375,17.9965278 L17.09375,17.2777778 C17.09375,16.8958334 17.40625,16.9201389 17.5381945,16.9861111 L17.6215278,16.7222222 Z M19.0208334,16.2048611 L18.7465278,16.2048611 L18.7465278,16.875 C18.4618056,16.4965278 17.7083334,16.6979167 17.7083334,17.3576389 C17.7083334,18.03125 18.4895834,18.2118056 18.7465278,17.8402778 L18.7465278,18 L19.0208334,18 L19.0208334,16.2048611 Z M19.2847223,13.5972222 L19.2847223,13.7569445 L19.3125,13.7569445 L19.3125,13.5972222 L19.3784723,13.5972222 L19.3784723,13.5694445 L19.21875,13.5694445 L19.21875,13.5972222 L19.2847223,13.5972222 Z M19.5138889,17.8958334 C19.5138889,17.8784723 19.5138889,17.8576389 19.5034723,17.8402778 C19.4930556,17.8298611 19.4861111,17.8125 19.4756945,17.8020834 C19.4652778,17.7916667 19.4479167,17.7847223 19.4375,17.7743056 C19.4201389,17.7743056 19.3993056,17.7638889 19.3819445,17.7638889 C19.3715278,17.7638889 19.3541667,17.7743056 19.3333334,17.7743056 C19.3159723,17.7847223 19.3055556,17.7916667 19.2951389,17.8020834 C19.2777778,17.8125 19.2673611,17.8298611 19.2673611,17.8402778 C19.2569445,17.8576389 19.2569445,17.8784723 19.2569445,17.8958334 C19.2569445,17.90625 19.2569445,17.9236111 19.2673611,17.9444445 C19.2673611,17.9548611 19.2777778,17.9722223 19.2951389,17.9826389 C19.3055556,17.9930556 19.3125,18 19.3333334,18.0104167 C19.3506945,18.0208334 19.3715278,18.0208334 19.3819445,18.0208334 C19.3993056,18.0208334 19.4201389,18.0208334 19.4375,18.0104167 C19.4479167,18 19.4652778,17.9930556 19.4756945,17.9826389 C19.4861111,17.9722223 19.4930556,17.9548611 19.5034723,17.9444445 C19.5138889,17.9236111 19.5138889,17.90625 19.5138889,17.8958334 Z M19.625,13.5659722 L19.5763889,13.5659722 L19.5208334,13.6875 L19.4652778,13.5659722 L19.4166667,13.5659722 L19.4166667,13.7534722 L19.4444445,13.7534722 L19.4444445,13.6111111 L19.5,13.7326389 L19.5381945,13.7326389 L19.5868056,13.6111111 L19.5868056,13.7534722 L19.625,13.7534722 L19.625,13.5659722 Z M19.7777778,10.7708333 C19.7777778,8.12499998 17.6215278,5.96874997 14.96875,5.96874997 C14.0243056,5.96874997 13.0972222,6.25347219 12.3125,6.77083331 C14.8159722,8.8298611 14.8541667,12.7256944 12.3125,14.7743056 C13.0972222,15.2951389 14.03125,15.5763889 14.96875,15.5763889 C17.6215278,15.5798611 19.7777778,13.4270833 19.7777778,10.7708333 Z" id="path-1"></path>
    </defs>
    <g id="cc-mastercard" stroke="none" stroke-width="1" fill="none" fill-rule="evenodd">
        <mask id="mask-2" fill="white">
            <use xlink:href="#path-1"></use>
        </mask>
        <g fill-rule="nonzero"></g>
        <g id="🎨-color" mask="url(#mask-2)" fill="#000000">
            <rect id="🎨-Color" x="0" y="0" width="24" height="24"></rect>
        </g>
    </g>
</svg>