<?xml version="1.0" encoding="UTF-8"?>
<svg width="24px" height="24px" viewBox="0 0 24 24" version="1.1" xmlns="http://www.w3.org/2000/svg" xmlns:xlink="http://www.w3.org/1999/xlink">
    <!-- Generator: Sketch 52.5 (67469) - http://www.bohemiancoding.com/sketch -->
    <title>cc-paypal</title>
    <desc>Created with Sketch.</desc>
    <defs>
        <path d="M8.46874998,12.0763889 C8.46874998,12.5 8.13194443,12.8229167 7.70486109,12.8229167 C7.38541664,12.8229167 7.14930553,12.6423611 7.14930553,12.3020833 C7.14930553,11.8784722 7.47916664,11.5381944 7.90277776,11.5381944 C8.22569443,11.5381944 8.46874998,11.7361111 8.46874998,12.0763889 Z M4.79513885,10.3923611 L4.63194441,10.3923611 C4.57986107,10.3923611 4.52777774,10.4270833 4.5208333,10.4861111 L4.37152774,11.4131944 L4.65624996,11.4027778 C5.03819441,11.4027778 5.3333333,11.3506944 5.40277774,10.9097222 C5.48263886,10.4444444 5.18749997,10.3923611 4.79513885,10.3923611 Z M14.65625,10.3923611 L14.5,10.3923611 C14.4375,10.3923611 14.3958333,10.4270833 14.3888889,10.4861111 L14.2430556,11.4131944 L14.5208333,11.4027778 C14.9722222,11.4027778 15.2847222,11.2986111 15.2847222,10.7777778 C15.28125,10.4097222 14.9513889,10.3923611 14.65625,10.3923611 Z M22.0000001,5.88888886 L22.0000001,18.1111111 C22.0000001,19.03125 21.2534723,19.7777778 20.3333334,19.7777778 L3.66666662,19.7777778 C2.74652773,19.7777778 1.99999995,19.03125 1.99999995,18.1111111 L1.99999995,5.88888886 C1.99999995,4.96874996 2.74652773,4.22222218 3.66666662,4.22222218 L20.3333334,4.22222218 C21.2534723,4.22222218 22.0000001,4.96874996 22.0000001,5.88888886 Z M6.45486108,10.5902778 C6.45486108,9.8611111 5.89236108,9.61805554 5.24999997,9.61805554 L3.86111107,9.61805554 C3.77430551,9.61805554 3.68749996,9.68749999 3.68055551,9.78124999 L3.11111107,13.3263889 C3.1006944,13.3958333 3.15277773,13.4652778 3.22222218,13.4652778 L3.8819444,13.4652778 C3.9756944,13.4652778 4.06249996,13.3645833 4.07291663,13.2673611 L4.22916663,12.34375 C4.26388885,12.09375 4.68749996,12.1805556 4.85416663,12.1805556 C5.84722219,12.1805556 6.45486108,11.5902778 6.45486108,10.5902778 Z M9.37847221,10.8958333 L8.71874998,10.8958333 C8.58680554,10.8958333 8.57986109,11.0868056 8.57291665,11.1805556 C8.37152776,10.8854167 8.07986109,10.8333333 7.74999998,10.8333333 C6.89930553,10.8333333 6.24999997,11.5798611 6.24999997,12.4027778 C6.24999997,13.0798611 6.67361108,13.5208333 7.35069442,13.5208333 C7.66319442,13.5208333 8.05208331,13.3506945 8.27083331,13.1076389 C8.2534722,13.1597222 8.23611109,13.2708333 8.23611109,13.3229167 C8.23611109,13.4027778 8.27083331,13.4618056 8.3472222,13.4618056 L8.94444443,13.4618056 C9.03819443,13.4618056 9.11805554,13.3611111 9.13541665,13.2638889 L9.48958332,11.03125 C9.49999999,10.9652778 9.44791665,10.8958333 9.37847221,10.8958333 Z M10.7847222,14.2951389 L12.9965278,11.0798611 C13.0138889,11.0625 13.0138889,11.0451389 13.0138889,11.0208333 C13.0138889,10.9618056 12.9618056,10.8993056 12.9027778,10.8993056 L12.2361111,10.8993056 C12.1770833,10.8993056 12.1145833,10.9340278 12.0798611,10.9861111 L11.1597222,12.3402778 L10.7777778,11.0381944 C10.75,10.9618056 10.6736111,10.8993056 10.5868055,10.8993056 L9.93749999,10.8993056 C9.87847221,10.8993056 9.82638888,10.9618056 9.82638888,11.0208333 C9.82638888,11.0625 10.5034722,12.9930556 10.5625,13.1770833 C10.46875,13.3090278 9.85069443,14.1701389 9.85069443,14.2743056 C9.85069443,14.3368056 9.90277777,14.3854167 9.96180555,14.3854167 L10.6284722,14.3854167 C10.6909722,14.3819445 10.75,14.3472222 10.7847222,14.2951389 Z M16.3159722,10.5902778 C16.3159722,9.8611111 15.7534722,9.61805554 15.1111111,9.61805554 L13.7326389,9.61805554 C13.6388889,9.61805554 13.5520833,9.68749999 13.5416667,9.78124999 L12.9791667,13.3229167 C12.9722222,13.3923611 13.0243056,13.4618056 13.0902778,13.4618056 L13.8020833,13.4618056 C13.8715278,13.4618056 13.9236111,13.4097222 13.9409722,13.3506945 L14.0972222,12.34375 C14.1319445,12.09375 14.5555556,12.1805556 14.7222222,12.1805556 C15.7083334,12.1805556 16.3159722,11.5902778 16.3159722,10.5902778 Z M19.2395834,10.8958333 L18.5798611,10.8958333 C18.4479167,10.8958333 18.4409723,11.0868056 18.4305556,11.1805556 C18.2395834,10.8854167 17.9444445,10.8333333 17.6076389,10.8333333 C16.7569445,10.8333333 16.1076389,11.5798611 16.1076389,12.4027778 C16.1076389,13.0798611 16.53125,13.5208333 17.2083334,13.5208333 C17.53125,13.5208333 17.9201389,13.3506945 18.1284723,13.1076389 C18.1180556,13.1597222 18.09375,13.2708333 18.09375,13.3229167 C18.09375,13.4027778 18.1284723,13.4618056 18.2048611,13.4618056 L18.8055556,13.4618056 C18.8993056,13.4618056 18.9791667,13.3611111 18.9965278,13.2638889 L19.3506945,11.03125 C19.3611111,10.9652778 19.3090278,10.8958333 19.2395834,10.8958333 Z M20.8888889,9.73958332 C20.8888889,9.67013888 20.8368056,9.61805554 20.7777778,9.61805554 L20.1354167,9.61805554 C20.0833334,9.61805554 20.03125,9.65972221 20.0243056,9.71180554 L19.4618056,13.3229167 L19.4513889,13.3402778 C19.4513889,13.4027778 19.5034723,13.4618056 19.5729167,13.4618056 L20.1458334,13.4618056 C20.2326389,13.4618056 20.3194445,13.3611111 20.3263889,13.2638889 L20.8888889,9.74999999 L20.8888889,9.73958332 Z M17.7638889,11.5381944 C17.3402778,11.5381944 17.0104167,11.875 17.0104167,12.3020833 C17.0104167,12.6388889 17.2534722,12.8229167 17.5729167,12.8229167 C17.9895834,12.8229167 18.3263889,12.5034722 18.3263889,12.0763889 C18.3298611,11.7361111 18.0868056,11.5381944 17.7638889,11.5381944 Z" id="path-1"></path>
    </defs>
    <g id="cc-paypal" stroke="none" stroke-width="1" fill="none" fill-rule="evenodd">
        <mask id="mask-2" fill="white">
            <use xlink:href="#path-1"></use>
        </mask>
        <g fill-rule="nonzero"></g>
        <g id="🎨-color" mask="url(#mask-2)" fill="#000000">
            <rect id="🎨-Color" x="0" y="0" width="24" height="24"></rect>
        </g>
    </g>
</svg>