<?xml version="1.0" encoding="UTF-8"?>
<svg width="24px" height="24px" viewBox="0 0 24 24" version="1.1" xmlns="http://www.w3.org/2000/svg" xmlns:xlink="http://www.w3.org/1999/xlink">
    <!-- Generator: Sketch 52.5 (67469) - http://www.bohemiancoding.com/sketch -->
    <title>cc-stripe</title>
    <desc>Created with Sketch.</desc>
    <defs>
        <path d="M15.78125,12.0173611 C15.78125,12.6805556 15.4756945,13.1770833 15.0208333,13.1770833 C14.7326389,13.1770833 14.5590278,13.0729167 14.4375,12.9444444 L14.4305556,11.1111111 C14.5590278,10.96875 14.7361111,10.8680555 15.0208333,10.8680555 C15.46875,10.8645833 15.78125,11.3715278 15.78125,12.0173611 Z M22.0000001,5.88888886 L22.0000001,18.1111111 C22.0000001,19.03125 21.2534723,19.7777778 20.3333334,19.7777778 L3.66666662,19.7777778 C2.74652773,19.7777778 1.99999995,19.03125 1.99999995,18.1111111 L1.99999995,5.88888886 C1.99999995,4.96874996 2.74652773,4.22222218 3.66666662,4.22222218 L20.3333334,4.22222218 C21.2534723,4.22222218 22.0000001,4.96874996 22.0000001,5.88888886 Z M6.24305553,12.8715278 C6.24305553,11.4027778 4.35763885,11.6666667 4.35763885,11.1111111 C4.35763885,10.9201389 4.51736107,10.84375 4.77777774,10.84375 C5.15277774,10.84375 5.62847219,10.9583333 6.00347219,11.1597222 L6.00347219,9.99999999 C5.59374997,9.83680554 5.18749997,9.77430554 4.77777774,9.77430554 C3.77777774,9.77430554 3.11111107,10.2951389 3.11111107,11.1701389 C3.11111107,12.5347222 4.98611108,12.3125 4.98611108,12.9027778 C4.98611108,13.1319445 4.78819441,13.2048611 4.51388885,13.2048611 C4.10416663,13.2048611 3.57986107,13.0347222 3.1631944,12.8125 L3.1631944,13.9895833 C3.62152774,14.1875 4.08680552,14.2708333 4.51041663,14.2708333 C5.53819441,14.2638889 6.24305553,13.7604167 6.24305553,12.8715278 Z M8.63541665,9.85416666 L7.69791665,9.85416666 L7.69791665,8.78472221 L6.49305553,9.04166665 L6.48611108,12.9965278 C6.48611108,13.7256945 7.0347222,14.2638889 7.76736109,14.2638889 C8.17013887,14.2638889 8.46874998,14.1909722 8.63194443,14.1006945 L8.63194443,13.0972222 C8.47569443,13.1597222 7.69444442,13.3854167 7.69444442,12.6597222 L7.69444442,10.90625 L8.63194443,10.90625 L8.63194443,9.85416666 L8.63541665,9.85416666 Z M11.1979167,9.85416666 C11.0347222,9.79513888 10.4583333,9.68749999 10.1701389,10.21875 L10.09375,9.85416666 L9.02777776,9.85416666 L9.02777776,14.1770833 L10.2604167,14.1770833 L10.2604167,11.2465278 C10.5520833,10.8645833 11.0451389,10.9375 11.2013889,10.9895833 L11.2013889,9.85416666 L11.1979167,9.85416666 Z M12.7326389,9.85416666 L11.4930556,9.85416666 L11.4930556,14.1770833 L12.7326389,14.1770833 L12.7326389,9.85416666 Z M12.7326389,8.21180554 L11.4930556,8.47569443 L11.4930556,9.47916665 L12.7326389,9.21527776 L12.7326389,8.21180554 Z M16.9930556,11.9895833 C16.9930556,10.5555555 16.1770834,9.77430554 15.3125,9.77430554 C14.8298611,9.77430554 14.5173611,10.0034722 14.3472222,10.1597222 L14.2847222,9.85416666 L13.1979167,9.85416666 L13.1979167,15.6111111 L14.4305556,15.3506945 L14.4340278,13.9548611 C14.6111111,14.0833333 14.875,14.2673611 15.3055556,14.2673611 C16.1875,14.2638889 16.9930556,13.5555556 16.9930556,11.9895833 Z M20.8888889,12.03125 C20.8888889,10.7673611 20.2777778,9.77083332 19.1076389,9.77083332 C17.9340278,9.77083332 17.2222222,10.7673611 17.2222222,12.0243056 C17.2222222,13.5104167 18.0625,14.2638889 19.2638889,14.2638889 C19.8541667,14.2638889 20.2951389,14.1284722 20.6319445,13.9444445 L20.6319445,12.9513889 C20.2951389,13.1215278 19.9097223,13.2256945 19.4201389,13.2256945 C18.9409723,13.2256945 18.5173611,13.0555556 18.4618056,12.4791667 L20.875,12.4791667 C20.8784723,12.4097222 20.8888889,12.1527778 20.8888889,12.03125 Z M19.0972223,10.7777778 C18.7881945,10.7777778 18.4479167,11.0104167 18.4479167,11.5659722 L19.7222223,11.5659722 C19.7222223,11.0104167 19.3993056,10.7777778 19.0972223,10.7777778 Z" id="path-1"></path>
    </defs>
    <g id="cc-stripe" stroke="none" stroke-width="1" fill="none" fill-rule="evenodd">
        <mask id="mask-2" fill="white">
            <use xlink:href="#path-1"></use>
        </mask>
        <g fill-rule="nonzero"></g>
        <g id="🎨-color" mask="url(#mask-2)" fill="#000000">
            <rect id="🎨-Color" x="0" y="0" width="24" height="24"></rect>
        </g>
    </g>
</svg>