<?xml version="1.0" encoding="UTF-8"?>
<svg width="24px" height="24px" viewBox="0 0 24 24" version="1.1" xmlns="http://www.w3.org/2000/svg" xmlns:xlink="http://www.w3.org/1999/xlink">
    <!-- Generator: Sketch 52.5 (67469) - http://www.bohemiancoding.com/sketch -->
    <title>cc-visa</title>
    <desc>Created with Sketch.</desc>
    <defs>
        <path d="M18.3229167,11.1423611 C18.3229167,11.1423611 18.5868056,12.4340278 18.6458334,12.7048611 L17.4861111,12.7048611 C17.6006945,12.3958333 18.0416667,11.1944444 18.0416667,11.1944444 C18.0347223,11.2048611 18.15625,10.8784722 18.2256945,10.6770833 L18.3229167,11.1423611 Z M22.0000001,5.88888886 L22.0000001,18.1111111 C22.0000001,19.03125 21.2534723,19.7777778 20.3333334,19.7777778 L3.66666662,19.7777778 C2.74652773,19.7777778 1.99999995,19.03125 1.99999995,18.1111111 L1.99999995,5.88888886 C1.99999995,4.96874996 2.74652773,4.22222218 3.66666662,4.22222218 L20.3333334,4.22222218 C21.2534723,4.22222218 22.0000001,4.96874996 22.0000001,5.88888886 Z M7.29513887,14.6111111 L9.48958332,9.22222221 L8.01388887,9.22222221 L6.64930553,12.9027778 L6.49999997,12.15625 L6.01388886,9.67708332 C5.93402775,9.33333332 5.68749997,9.2361111 5.38194441,9.22222221 L3.13541662,9.22222221 L3.11111107,9.3298611 C3.65972218,9.46874999 4.14930552,9.67013888 4.57638885,9.9236111 L5.81944441,14.6111111 L7.29513887,14.6111111 Z M10.5729167,14.6180556 L11.4479167,9.22222221 L10.0520833,9.22222221 L9.18055554,14.6180556 L10.5729167,14.6180556 Z M15.4305556,12.8541667 C15.4375,12.2395833 15.0625,11.7708333 14.2604167,11.3854167 C13.7708333,11.1388889 13.4722222,10.9722222 13.4722222,10.71875 C13.4791667,10.4895833 13.7256945,10.2534722 14.2743056,10.2534722 C14.7291667,10.2430555 15.0625,10.3506944 15.3125,10.4583333 L15.4375,10.5173611 L15.6284722,9.35069443 C15.3541667,9.24305554 14.9166667,9.12152776 14.3784722,9.12152776 C13,9.12152776 12.03125,9.85763888 12.0243056,10.90625 C12.0138889,11.6805556 12.71875,12.1111111 13.2465278,12.3715278 C13.7847222,12.6354167 13.96875,12.8090278 13.96875,13.0416667 C13.9618056,13.4027778 13.53125,13.5694445 13.1319445,13.5694445 C12.5763889,13.5694445 12.2777778,13.4826389 11.8229167,13.28125 L11.6388889,13.1944445 L11.4444444,14.40625 C11.7708333,14.5555556 12.375,14.6875 13,14.6944445 C14.4652778,14.6979167 15.4201389,13.9722222 15.4305556,12.8541667 Z M20.3333334,14.6180556 L19.2083334,9.22222221 L18.1284723,9.22222221 C17.7951389,9.22222221 17.5416667,9.31944443 17.3993056,9.67013888 L15.3263889,14.6180556 L16.7916667,14.6180556 C16.7916667,14.6180556 17.03125,13.9513889 17.0833334,13.8090278 L18.875,13.8090278 C18.9166667,14 19.0416667,14.6180556 19.0416667,14.6180556 L20.3333334,14.6180556 Z" id="path-1"></path>
    </defs>
    <g id="cc-visa" stroke="none" stroke-width="1" fill="none" fill-rule="evenodd">
        <mask id="mask-2" fill="white">
            <use xlink:href="#path-1"></use>
        </mask>
        <g fill-rule="nonzero"></g>
        <g id="🎨-color" mask="url(#mask-2)" fill="#000000">
            <rect id="🎨-Color" x="0" y="0" width="24" height="24"></rect>
        </g>
    </g>
</svg>