<?xml version="1.0" encoding="UTF-8"?>
<svg width="24px" height="24px" viewBox="0 0 24 24" version="1.1" xmlns="http://www.w3.org/2000/svg" xmlns:xlink="http://www.w3.org/1999/xlink">
    <!-- Generator: Sketch 52.5 (67469) - http://www.bohemiancoding.com/sketch -->
    <title>centercode</title>
    <desc>Created with Sketch.</desc>
    <defs>
        <path d="M14.859375,12.4921875 C14.7109375,13.8671875 13.4765625,14.859375 12.1015625,14.7109375 C10.7265625,14.5625 9.73437499,13.328125 9.88281249,11.953125 C10.03125,10.578125 11.265625,9.58593749 12.640625,9.73437499 C14.0117188,9.88281249 15.0078125,11.1171875 14.859375,12.4921875 Z M11.5078125,21.6757813 C5.77734372,21.375 1.67968745,16.2773438 2.3945312,10.7617187 C2.8320312,7.37890623 4.96484371,4.63281246 7.82812498,3.26171871 C14.1171875,0.249999941 21.4882813,4.72265621 21.6835938,11.7226562 C21.84375,17.4648438 17.0585938,21.9648438 11.5078125,21.6757813 Z M18.5351563,14.6445313 C19.625,10.0351562 12.265625,6.60156247 9.26953124,5.49609372 C7.02343748,7.69531248 6.57031247,12.8632813 7.94921873,18.9492188 C10.6367187,19.5664063 14.5546875,17.9179688 18.5351563,14.6445313 Z" id="path-1"></path>
    </defs>
    <g id="centercode" stroke="none" stroke-width="1" fill="none" fill-rule="evenodd">
        <mask id="mask-2" fill="white">
            <use xlink:href="#path-1"></use>
        </mask>
        <g fill-rule="nonzero"></g>
        <g id="🎨-color" mask="url(#mask-2)" fill="#000000">
            <rect id="🎨-Color" x="0" y="0" width="24" height="24"></rect>
        </g>
    </g>
</svg>