<?xml version="1.0" encoding="UTF-8"?>
<svg width="24px" height="24px" viewBox="0 0 24 24" version="1.1" xmlns="http://www.w3.org/2000/svg" xmlns:xlink="http://www.w3.org/1999/xlink">
    <!-- Generator: Sketch 52.5 (67469) - http://www.bohemiancoding.com/sketch -->
    <title>certificate</title>
    <desc>Created with Sketch.</desc>
    <defs>
        <path d="M19.8994932,11.9773879 L21.6922808,10.222807 C22.2267057,9.71688108 21.9775049,8.81777776 21.2765303,8.65013644 L18.8340351,8.02674462 L19.5225731,5.60900582 C19.717154,4.91356722 19.0614035,4.25762179 18.3661989,4.45224168 L15.9492788,5.14101361 L15.3261209,2.69769976 C15.1612086,2.00768026 14.2520468,1.75532159 13.7539961,2.28179332 L12,4.08849899 L10.2460429,2.28183231 C9.75364521,1.76132548 8.84070174,1.99980502 8.67391811,2.69773874 L8.05076021,5.1410526 L5.63380114,4.45228066 C4.93840152,4.25758281 4.28288495,4.91376215 4.47742686,5.6090448 L5.16596488,8.02678361 L2.72346974,8.65017542 C2.02218319,8.81785573 1.77348923,9.717115 2.30768026,10.222807 L4.1004678,11.9773879 L2.30768026,13.7319298 C1.77325531,14.2378558 2.02245609,15.1369591 2.72343075,15.3046004 L5.16592589,15.9279922 L4.47738788,18.345731 C4.28280698,19.0411696 4.93855747,19.697115 5.63376215,19.5024952 L8.05068224,18.8137232 L8.67384014,21.2570371 C8.84690057,21.9812086 9.75360623,22.1934114 10.2459649,21.6729435 L12,19.8795322 L13.7539571,21.6729435 C14.2412866,22.1987915 15.1569591,21.9647954 15.3260819,21.2570371 L15.9492398,18.8137232 L18.3661599,19.5024952 C19.0615205,19.697193 19.7170761,19.0410137 19.5225342,18.345731 L18.8339961,15.9279922 L21.2764913,15.3046004 C21.9777388,15.1368811 22.2264328,14.2376608 21.6922418,13.7319298 L19.8994932,11.9773879 Z" id="path-1"></path>
    </defs>
    <g id="certificate" stroke="none" stroke-width="1" fill="none" fill-rule="evenodd">
        <mask id="mask-2" fill="white">
            <use xlink:href="#path-1"></use>
        </mask>
        <g></g>
        <g id="🎨-color" mask="url(#mask-2)" fill="#000000">
            <rect id="🎨-Color" x="0" y="0" width="24" height="24"></rect>
        </g>
    </g>
</svg>