<?xml version="1.0" encoding="UTF-8"?>
<svg width="24px" height="24px" viewBox="0 0 24 24" version="1.1" xmlns="http://www.w3.org/2000/svg" xmlns:xlink="http://www.w3.org/1999/xlink">
    <!-- Generator: Sketch 52.5 (67469) - http://www.bohemiancoding.com/sketch -->
    <title>chair</title>
    <desc>Created with Sketch.</desc>
    <defs>
        <path d="M20.7042969,15.3546875 L20.2875,14.1046875 C20.1173792,13.5942115 19.6396395,13.2499116 19.1015625,13.25 L4.93710934,13.25 C4.39921871,13.25 3.92148433,13.5941406 3.75117183,14.1046875 L3.33437496,15.3546875 C3.06484371,16.1640625 3.66718746,17 4.52070309,17 L4.51953121,17 L4.51953121,21.375 C4.51953121,21.7203125 4.79921871,22.0000001 5.14453122,22.0000001 L6.39453122,22.0000001 C6.73984372,22.0000001 7.01953123,21.7203125 7.01953123,21.375 L7.01953123,17 L17.0195313,17 L17.0195313,21.375 C17.0195313,21.7203125 17.2992188,22.0000001 17.6445313,22.0000001 L18.8945313,22.0000001 C19.2398438,22.0000001 19.5195313,21.7203125 19.5195313,21.375 L19.5195313,17 L19.5183594,17 C20.371875,17 20.9742188,16.1640625 20.7042969,15.3546875 Z M7.64453123,6.99999997 C7.64453123,5.84843747 8.27734373,4.85195309 9.20703124,4.30976559 L9.20703124,12 L11.0820312,12 L11.0820312,3.87499996 L12.9570313,3.87499996 L12.9570313,12 L14.8320313,12 L14.8320313,4.30976559 C15.7617188,4.85195309 16.3945313,5.84843747 16.3945313,6.99999997 L16.3945313,12 L18.2695313,12 L18.2695313,6.99999997 C18.2695313,4.23867184 16.0308594,1.99999995 13.2695313,1.99999995 L10.7695312,1.99999995 C8.00820311,1.99999995 5.76953122,4.23867184 5.76953122,6.99999997 L5.76953122,12 L7.64453123,12 L7.64453123,6.99999997 Z" id="path-1"></path>
    </defs>
    <g id="chair" stroke="none" stroke-width="1" fill="none" fill-rule="evenodd">
        <mask id="mask-2" fill="white">
            <use xlink:href="#path-1"></use>
        </mask>
        <g fill-rule="nonzero"></g>
        <g id="🎨-color" mask="url(#mask-2)" fill="#000000">
            <rect id="🎨-Color" x="0" y="0" width="24" height="24"></rect>
        </g>
    </g>
</svg>