<?xml version="1.0" encoding="UTF-8"?>
<svg width="24px" height="24px" viewBox="0 0 24 24" version="1.1" xmlns="http://www.w3.org/2000/svg" xmlns:xlink="http://www.w3.org/1999/xlink">
    <!-- Generator: Sketch 52.5 (67469) - http://www.bohemiancoding.com/sketch -->
    <title>chalkboard-teacher</title>
    <desc>Created with Sketch.</desc>
    <defs>
        <path d="M8.51090341,14.9906542 C8.43644858,14.9906542 8.36199375,15.0015576 8.29096571,15.0246106 C7.88722739,15.1557633 7.4626168,15.2398754 7.0155763,15.2398754 C6.5685358,15.2398754 6.1439252,15.1557633 5.73987536,15.0246106 C5.66884732,15.0015576 5.59470402,14.9906542 5.52024919,14.9906542 C3.58691585,14.9906542 2.02087222,16.5632399 2.0311526,18.4990655 C2.03551397,19.317134 2.70809964,19.9750779 3.52647971,19.9750779 L10.5046729,19.9750779 C11.323053,19.9750779 11.9956386,19.317134 12,18.4990655 C12.0102804,16.5632399 10.4442368,14.9906542 8.51090341,14.9906542 Z M7.0155763,13.9937695 C8.6672897,13.9937695 10.0062305,12.6548287 10.0062305,11.0031153 C10.0062305,9.35140186 8.6672897,8.01246104 7.0155763,8.01246104 C5.3638629,8.01246104 4.02492208,9.35140186 4.02492208,11.0031153 C4.02492208,12.6548287 5.3638629,13.9937695 7.0155763,13.9937695 Z M20.4735203,4.02492208 L8.51090341,4.02492208 C7.68629281,4.02492208 7.0155763,4.7180685 7.0155763,5.5697819 L7.0155763,7.0155763 C7.74517132,7.0155763 8.42056073,7.22679125 9.00934578,7.57009344 L9.00934578,6.01869156 L19.9750779,6.01869156 L19.9750779,14.9906542 L17.9813084,14.9906542 L17.9813084,12.9968847 L13.9937695,12.9968847 L13.9937695,14.9906542 L11.6186916,14.9906542 C12.2137072,15.5105919 12.6504673,16.1971963 12.8551402,16.9844237 L20.4735203,16.9844237 C21.2981309,16.9844237 21.9688474,16.2912773 21.9688474,15.4395639 L21.9688474,5.5697819 C21.9688474,4.7180685 21.2981309,4.02492208 20.4735203,4.02492208 Z" id="path-1"></path>
    </defs>
    <g id="chalkboard-teacher" stroke="none" stroke-width="1" fill="none" fill-rule="evenodd">
        <mask id="mask-2" fill="white">
            <use xlink:href="#path-1"></use>
        </mask>
        <g fill-rule="nonzero"></g>
        <g id="🎨-color" mask="url(#mask-2)" fill="#000000">
            <rect id="🎨-Color" x="0" y="0" width="24" height="24"></rect>
        </g>
    </g>
</svg>