<?xml version="1.0" encoding="UTF-8"?>
<svg width="24px" height="24px" viewBox="0 0 24 24" version="1.1" xmlns="http://www.w3.org/2000/svg" xmlns:xlink="http://www.w3.org/1999/xlink">
    <!-- Generator: Sketch 52.5 (67469) - http://www.bohemiancoding.com/sketch -->
    <title>chalkboard</title>
    <desc>Created with Sketch.</desc>
    <defs>
        <path d="M4.99999996,5.99999997 L19,5.99999997 L19,17 L21,17 L21,5.24999997 C21,4.56062496 20.439375,3.99999996 19.75,3.99999996 L4.24999996,3.99999996 C3.56062496,3.99999996 2.99999995,4.56062496 2.99999995,5.24999997 L2.99999995,17 L4.99999996,17 L4.99999996,5.99999997 Z M21.5,18 L17,18 L17,16 L11,16 L11,18 L2.49999995,18 C2.22374995,18 1.99999995,18.22375 1.99999995,18.5 L1.99999995,19.5 C1.99999995,19.77625 2.22374995,20 2.49999995,20 L21.5,20 C21.77625,20 22.0000001,19.77625 22.0000001,19.5 L22.0000001,18.5 C22.0000001,18.22375 21.77625,18 21.5,18 Z" id="path-1"></path>
    </defs>
    <g id="chalkboard" stroke="none" stroke-width="1" fill="none" fill-rule="evenodd">
        <mask id="mask-2" fill="white">
            <use xlink:href="#path-1"></use>
        </mask>
        <g fill-rule="nonzero"></g>
        <g id="🎨-color" mask="url(#mask-2)" fill="#000000">
            <rect id="🎨-Color" x="0" y="0" width="24" height="24"></rect>
        </g>
    </g>
</svg>