<?xml version="1.0" encoding="UTF-8"?>
<svg width="24px" height="24px" viewBox="0 0 24 24" version="1.1" xmlns="http://www.w3.org/2000/svg" xmlns:xlink="http://www.w3.org/1999/xlink">
    <!-- Generator: Sketch 52.5 (67469) - http://www.bohemiancoding.com/sketch -->
    <title>chart-bar</title>
    <desc>Created with Sketch.</desc>
    <defs>
        <path d="M17.5,15.75 L18.375,15.75 C18.625,15.75 18.875,15.5 18.875,15.25 L18.875,6.24999997 C18.875,5.99999997 18.625,5.74999997 18.375,5.74999997 L17.5,5.74999997 C17.25,5.74999997 17,5.99999997 17,6.24999997 L17,15.25 C17,15.5 17.25,15.75 17.5,15.75 Z M9.99999999,15.75 L10.875,15.75 C11.125,15.75 11.375,15.5 11.375,15.25 L11.375,7.49999998 C11.375,7.24999998 11.125,6.99999997 10.875,6.99999997 L9.99999999,6.99999997 C9.74999999,6.99999997 9.49999999,7.24999998 9.49999999,7.49999998 L9.49999999,15.25 C9.49999999,15.5 9.74999999,15.75 9.99999999,15.75 Z M13.75,15.75 L14.625,15.75 C14.875,15.75 15.125,15.5 15.125,15.25 L15.125,9.99999999 C15.125,9.74999999 14.875,9.49999999 14.625,9.49999999 L13.75,9.49999999 C13.5,9.49999999 13.25,9.74999999 13.25,9.99999999 L13.25,15.25 C13.25,15.5 13.5,15.75 13.75,15.75 Z M21.375,17.625 L3.87499996,17.625 L3.87499996,5.12499997 C3.87499996,4.77968746 3.59531246,4.49999996 3.24999996,4.49999996 L2.62499995,4.49999996 C2.27968745,4.49999996 1.99999995,4.77968746 1.99999995,5.12499997 L1.99999995,18.25 C1.99999995,18.9402344 2.55976558,19.5 3.24999996,19.5 L21.375,19.5 C21.7203125,19.5 22.0000001,19.2203125 22.0000001,18.875 L22.0000001,18.25 C22.0000001,17.9046875 21.7203125,17.625 21.375,17.625 Z M6.24999997,15.75 L7.12499998,15.75 C7.37499998,15.75 7.62499998,15.5 7.62499998,15.25 L7.62499998,12.5 C7.62499998,12.25 7.37499998,12 7.12499998,12 L6.24999997,12 C5.99999997,12 5.74999997,12.25 5.74999997,12.5 L5.74999997,15.25 C5.74999997,15.5 5.99999997,15.75 6.24999997,15.75 Z" id="path-1"></path>
    </defs>
    <g id="chart-bar" stroke="none" stroke-width="1" fill="none" fill-rule="evenodd">
        <mask id="mask-2" fill="white">
            <use xlink:href="#path-1"></use>
        </mask>
        <g fill-rule="nonzero"></g>
        <g id="🎨-color" mask="url(#mask-2)" fill="#000000">
            <rect id="🎨-Color" x="0" y="0" width="24" height="24"></rect>
        </g>
    </g>
</svg>