<?xml version="1.0" encoding="UTF-8"?>
<svg width="24px" height="24px" viewBox="0 0 24 24" version="1.1" xmlns="http://www.w3.org/2000/svg" xmlns:xlink="http://www.w3.org/1999/xlink">
    <!-- Generator: Sketch 52.5 (67469) - http://www.bohemiancoding.com/sketch -->
    <title>chart-pie</title>
    <desc>Created with Sketch.</desc>
    <defs>
        <path d="M21.3695971,13.1721612 L12.6776557,13.1721612 L18.4663004,18.9608059 C18.6875458,19.1820513 19.0516484,19.2 19.2791209,18.9857143 C20.6967033,17.6501832 21.6717949,15.8498169 21.9578755,13.8260073 C22.0069598,13.4794872 21.719414,13.1721612 21.3695971,13.1721612 Z M20.7897436,10.7985348 C20.4879121,6.42271059 16.9912088,2.92600728 12.6153846,2.62417578 C12.2813187,2.60109885 12,2.88278384 12,3.21758237 L12,11.4139194 L20.1967033,11.4139194 C20.5315019,11.4139194 20.8128206,11.1326007 20.7897436,10.7985348 Z M10.2417582,13.1721612 L10.2417582,4.48021974 C10.2417582,4.13040289 9.93443222,3.8428571 9.58827838,3.89194135 C5.22307689,4.50879117 1.88644684,8.3223443 2.04175819,12.892674 C2.20146515,17.5864469 6.24285711,21.4355312 10.9388278,21.3765568 C12.7849817,21.3534799 14.4908425,20.7586081 15.8934066,19.7637363 C16.1827839,19.5586081 16.2018315,19.1326008 15.9509158,18.881685 L10.2417582,13.1721612 Z" id="path-1"></path>
    </defs>
    <g id="chart-pie" stroke="none" stroke-width="1" fill="none" fill-rule="evenodd">
        <mask id="mask-2" fill="white">
            <use xlink:href="#path-1"></use>
        </mask>
        <g fill-rule="nonzero"></g>
        <g id="🎨-color" mask="url(#mask-2)" fill="#000000">
            <rect id="🎨-Color" x="0" y="0" width="24" height="24"></rect>
        </g>
    </g>
</svg>