<?xml version="1.0" encoding="UTF-8"?>
<svg width="24px" height="24px" viewBox="0 0 24 24" version="1.1" xmlns="http://www.w3.org/2000/svg" xmlns:xlink="http://www.w3.org/1999/xlink">
    <!-- Generator: Sketch 52.5 (67469) - http://www.bohemiancoding.com/sketch -->
    <title>charging-station</title>
    <desc>Created with Sketch.</desc>
    <defs>
        <path d="M13.6666667,18.6666667 L2.55555551,18.6666667 C2.24861106,18.6666667 1.99999995,18.9152778 1.99999995,19.2222223 L1.99999995,20.3333334 C1.99999995,20.6402778 2.24861106,20.8888889 2.55555551,20.8888889 L13.6666667,20.8888889 C13.9736111,20.8888889 14.2222222,20.6402778 14.2222222,20.3333334 L14.2222222,19.2222223 C14.2222222,18.9152778 13.9736111,18.6666667 13.6666667,18.6666667 Z M20.8888889,7.55555553 L20.8888889,5.88888886 C20.8888889,5.58194441 20.6402778,5.3333333 20.3333334,5.3333333 C20.0263889,5.3333333 19.7777778,5.58194441 19.7777778,5.88888886 L19.7777778,7.55555553 L18.6666667,7.55555553 L18.6666667,5.88888886 C18.6666667,5.58194441 18.4180556,5.3333333 18.1111111,5.3333333 C17.8041667,5.3333333 17.5555556,5.58194441 17.5555556,5.88888886 L17.5555556,7.55555553 L17,7.55555553 C16.6930556,7.55555553 16.4444445,7.80416665 16.4444445,8.11111109 L16.4444445,9.22222221 C16.4444445,10.4638889 17.2645834,11.503125 18.3888889,11.8586806 L18.3888889,15.9729167 C18.3888889,16.4572917 18.0590278,16.9076389 17.58125,16.9864584 C16.9729167,17.0868056 16.4444445,16.6177084 16.4444445,16.0277778 L16.4444445,15.0555556 C16.4444445,13.3680556 15.0763889,12 13.3888889,12 L13.1111111,12 L13.1111111,5.3333333 C13.1111111,4.10590274 12.1163194,3.11111107 10.8888889,3.11111107 L5.3333333,3.11111107 C4.10590274,3.11111107 3.11111107,4.10590274 3.11111107,5.3333333 L3.11111107,17.5555556 L13.1111111,17.5555556 L13.1111111,13.6666667 L13.3888889,13.6666667 C14.1559028,13.6666667 14.7777778,14.2885417 14.7777778,15.0555556 L14.7777778,15.9100695 C14.7777778,17.2875 15.7819445,18.5197917 17.153125,18.6534723 C18.7260417,18.8072917 20.0555556,17.5697917 20.0555556,16.0277778 L20.0555556,11.8586806 C21.1798612,11.503125 22,10.4638889 22,9.22222221 L22,8.11111109 C22,7.80416665 21.7513889,7.55555553 21.4444445,7.55555553 L20.8888889,7.55555553 Z M11.0309028,9.21388887 L7.77743053,14.0402778 C7.70104165,14.1559028 7.56180553,14.2222222 7.41666664,14.2222222 C7.1503472,14.2222222 6.94895831,14.0041667 7.01145831,13.7736111 L7.81076387,10.8888889 L5.74999997,10.8888889 C5.49826386,10.8888889 5.30381941,10.6947917 5.33715274,10.4760417 L5.8927083,6.76076386 C5.92013886,6.57986108 6.09652775,6.44444442 6.30555553,6.44444442 L8.66666665,6.44444442 C8.94027776,6.44444442 9.13958332,6.67152775 9.06944443,6.90312497 L8.66666665,8.66666665 L10.6701389,8.66666665 C10.9909722,8.66666665 11.1913194,8.97152776 11.0309028,9.21388887 Z" id="path-1"></path>
    </defs>
    <g id="charging-station" stroke="none" stroke-width="1" fill="none" fill-rule="evenodd">
        <mask id="mask-2" fill="white">
            <use xlink:href="#path-1"></use>
        </mask>
        <g fill-rule="nonzero"></g>
        <g id="🎨-color" mask="url(#mask-2)" fill="#000000">
            <rect id="🎨-Color" x="0" y="0" width="24" height="24"></rect>
        </g>
    </g>
</svg>