<?xml version="1.0" encoding="UTF-8"?>
<svg width="24px" height="24px" viewBox="0 0 24 24" version="1.1" xmlns="http://www.w3.org/2000/svg" xmlns:xlink="http://www.w3.org/1999/xlink">
    <!-- Generator: Sketch 52.5 (67469) - http://www.bohemiancoding.com/sketch -->
    <title>check-square</title>
    <desc>Created with Sketch.</desc>
    <defs>
        <path d="M18.875,3.24999996 L5.12499997,3.24999996 C4.08945309,3.24999996 3.24999996,4.08945309 3.24999996,5.12499997 L3.24999996,18.875 C3.24999996,19.9105469 4.08945309,20.75 5.12499997,20.75 L18.875,20.75 C19.9105469,20.75 20.75,19.9105469 20.75,18.875 L20.75,5.12499997 C20.75,4.08945309 19.9105469,3.24999996 18.875,3.24999996 Z M18.875,18.875 L5.12499997,18.875 L5.12499997,5.12499997 L18.875,5.12499997 L18.875,18.875 Z M17.4740625,9.43265624 L10.7323047,16.1203125 C10.5485156,16.3026172 10.2517187,16.3014453 10.0694141,16.1176563 L6.52328122,12.5428125 C6.34097653,12.3590234 6.34214841,12.0622266 6.52597654,11.8798828 L7.41343748,10.9995703 C7.59722654,10.8172656 7.89402342,10.8184375 8.07632811,11.0022656 L10.4119531,13.3568359 L15.9335156,7.87964842 C16.1173047,7.69734373 16.4141016,7.6985156 16.5964063,7.88230467 L17.4767188,8.76972655 C17.6590235,8.95355467 17.6578516,9.25035155 17.4740625,9.43265624 Z" id="path-1"></path>
    </defs>
    <g id="check-square" stroke="none" stroke-width="1" fill="none" fill-rule="evenodd">
        <mask id="mask-2" fill="white">
            <use xlink:href="#path-1"></use>
        </mask>
        <g fill-rule="nonzero"></g>
        <g id="🎨-color" mask="url(#mask-2)" fill="#000000">
            <rect id="🎨-Color" x="0" y="0" width="24" height="24"></rect>
        </g>
    </g>
</svg>