<?xml version="1.0" encoding="UTF-8"?>
<svg width="24px" height="24px" viewBox="0 0 24 24" version="1.1" xmlns="http://www.w3.org/2000/svg" xmlns:xlink="http://www.w3.org/1999/xlink">
    <!-- Generator: Sketch 52.5 (67469) - http://www.bohemiancoding.com/sketch -->
    <title>check-double</title>
    <desc>Created with Sketch.</desc>
    <defs>
        <path d="M21.6881092,8.70370369 L20.2768032,7.2842105 C19.8869396,6.89239764 19.2549708,6.89239764 18.8654971,7.2842105 L9.50487328,16.6986355 L5.13450289,12.3033138 C4.74463934,11.9111111 4.11267053,11.9111111 3.72319684,12.3033138 L2.31189079,13.722807 C1.92202724,14.1146199 1.92202724,14.7504873 2.31189079,15.1423002 L8.79922026,21.6670566 C9.18908381,22.0592593 9.82105262,22.0592593 10.2105263,21.6670566 L21.6881092,10.1235867 C22.0779728,9.731384 22.0779728,9.09590642 21.6881092,8.70370369 Z M8.51345027,13.0218324 C8.78011694,13.2955166 9.22222221,13.2955166 9.49629628,13.0288499 L17.7641326,4.83118905 C18.0378168,4.56452238 18.0378168,4.12241711 17.7711501,3.84834304 L16.1356725,2.20623777 C15.8690059,1.93255356 15.4269006,1.93255356 15.1528265,2.19922022 L9.02573098,8.28421051 L6.36569198,5.60311888 C6.09902531,5.32943466 5.65692005,5.32943466 5.38323583,5.59610133 L3.7407407,7.22456138 C3.46705649,7.49122805 3.46705649,7.93333331 3.73372316,8.20701752 L8.51345027,13.0218324 Z" id="path-1"></path>
    </defs>
    <g id="check-double" stroke="none" stroke-width="1" fill="none" fill-rule="evenodd">
        <mask id="mask-2" fill="white">
            <use xlink:href="#path-1"></use>
        </mask>
        <g fill-rule="nonzero"></g>
        <g id="🎨-color" mask="url(#mask-2)" fill="#000000">
            <rect id="🎨-Color" x="0" y="0" width="24" height="24"></rect>
        </g>
    </g>
</svg>