<?xml version="1.0" encoding="UTF-8"?>
<svg width="24px" height="24px" viewBox="0 0 24 24" version="1.1" xmlns="http://www.w3.org/2000/svg" xmlns:xlink="http://www.w3.org/1999/xlink">
    <!-- Generator: Sketch 52.5 (67469) - http://www.bohemiancoding.com/sketch -->
    <title>chess-board</title>
    <desc>Created with Sketch.</desc>
    <defs>
        <path d="M12,12 L12,14.5 L9.49999999,14.5 L9.49999999,12 L12,12 Z M12,1.99999995 L9.49999999,1.99999995 L9.49999999,4.49999996 L12,4.49999996 L12,1.99999995 Z M12,12 L14.5,12 L14.5,9.49999999 L12,9.49999999 L12,12 Z M17,1.99999995 L14.5,1.99999995 L14.5,4.49999996 L17,4.49999996 L17,1.99999995 Z M17,22 L19.5,22 L19.5,19.5 L17,19.5 L17,22 Z M22,19.5 L22,17 L19.5,17 L19.5,19.5 L22,19.5 Z M6.99999997,22 L9.49999999,22 L9.49999999,19.5 L6.99999997,19.5 L6.99999997,22 Z M6.99999997,1.99999995 L4.49999996,1.99999995 L4.49999996,4.49999996 L6.99999997,4.49999996 L6.99999997,1.99999995 Z M22,9.49999999 L22,6.99999997 L19.5,6.99999997 L19.5,9.49999999 L22,9.49999999 Z M22,14.5 L22,12 L19.5,12 L19.5,14.5 L22,14.5 Z M1.99999995,22 L4.49999996,22 L4.49999996,19.5 L1.99999995,19.5 L1.99999995,22 Z M1.99999995,4.49999996 L1.99999995,6.99999997 L4.49999996,6.99999997 L4.49999996,4.49999996 L1.99999995,4.49999996 Z M1.99999995,9.49999999 L1.99999995,12 L4.49999996,12 L4.49999996,9.49999999 L1.99999995,9.49999999 Z M1.99999995,14.5 L1.99999995,17 L4.49999996,17 L4.49999996,14.5 L1.99999995,14.5 Z M12,22 L14.5,22 L14.5,19.5 L12,19.5 L12,22 Z M9.49999999,17 L9.49999999,19.5 L12,19.5 L12,17 L9.49999999,17 Z M12,9.49999999 L12,6.99999997 L9.49999999,6.99999997 L9.49999999,9.49999999 L12,9.49999999 Z M4.49999996,17 L4.49999996,19.5 L6.99999997,19.5 L6.99999997,17 L4.49999996,17 Z M6.99999997,12 L4.49999996,12 L4.49999996,14.5 L6.99999997,14.5 L6.99999997,12 Z M17,17 L19.5,17 L19.5,14.5 L17,14.5 L17,17 Z M22,1.99999995 L19.5,1.99999995 L19.5,4.49999996 L22,4.49999996 L22,1.99999995 Z M17,12 L19.5,12 L19.5,9.49999999 L17,9.49999999 L17,12 Z M17,4.49999996 L17,6.99999997 L19.5,6.99999997 L19.5,4.49999996 L17,4.49999996 Z M14.5,17 L14.5,19.5 L17,19.5 L17,17 L14.5,17 Z M6.99999997,14.5 L6.99999997,17 L9.49999999,17 L9.49999999,14.5 L6.99999997,14.5 Z M12,14.5 L12,17 L14.5,17 L14.5,14.5 L12,14.5 Z M9.49999999,9.49999999 L6.99999997,9.49999999 L6.99999997,12 L9.49999999,12 L9.49999999,9.49999999 Z M6.99999997,6.99999997 L4.49999996,6.99999997 L4.49999996,9.49999999 L6.99999997,9.49999999 L6.99999997,6.99999997 Z M14.5,14.5 L17,14.5 L17,12 L14.5,12 L14.5,14.5 Z M9.49999999,6.99999997 L9.49999999,4.49999996 L6.99999997,4.49999996 L6.99999997,6.99999997 L9.49999999,6.99999997 Z M14.5,6.99999997 L14.5,4.49999996 L12,4.49999996 L12,6.99999997 L14.5,6.99999997 Z M14.5,9.49999999 L17,9.49999999 L17,6.99999997 L14.5,6.99999997 L14.5,9.49999999 Z" id="path-1"></path>
    </defs>
    <g id="chess-board" stroke="none" stroke-width="1" fill="none" fill-rule="evenodd">
        <mask id="mask-2" fill="white">
            <use xlink:href="#path-1"></use>
        </mask>
        <g fill-rule="nonzero"></g>
        <g id="🎨-color" mask="url(#mask-2)" fill="#000000">
            <rect id="🎨-Color" x="0" y="0" width="24" height="24"></rect>
        </g>
    </g>
</svg>