<?xml version="1.0" encoding="UTF-8"?>
<svg width="24px" height="24px" viewBox="0 0 24 24" version="1.1" xmlns="http://www.w3.org/2000/svg" xmlns:xlink="http://www.w3.org/1999/xlink">
    <!-- Generator: Sketch 52.5 (67469) - http://www.bohemiancoding.com/sketch -->
    <title>chess-king</title>
    <desc>Created with Sketch.</desc>
    <defs>
        <path d="M19.5,20.59375 L19.5,21.53125 C19.5,21.7901172 19.2901172,22.0000001 19.03125,22.0000001 L4.96874996,22.0000001 C4.70988278,22.0000001 4.49999996,21.7901172 4.49999996,21.53125 L4.49999996,20.59375 C4.49999996,20.3348829 4.70988278,20.125 4.96874996,20.125 L19.03125,20.125 C19.2901172,20.125 19.5,20.3348829 19.5,20.59375 Z M19.186211,7.93749998 L12.9375,7.93749998 L12.9375,6.06249997 L14.890625,6.06249997 C15.0200668,6.06249997 15.125,5.95756671 15.125,5.82812497 L15.125,4.42187496 C15.125,4.29243322 15.0200668,4.18749996 14.890625,4.18749996 L12.9375,4.18749996 L12.9375,2.23437495 C12.9375,2.10493321 12.8325667,1.99999995 12.703125,1.99999995 L11.296875,1.99999995 C11.1674333,1.99999995 11.0625,2.10493321 11.0625,2.23437495 L11.0625,4.18749996 L9.10937499,4.18749996 C8.97993325,4.18749996 8.87499998,4.29243322 8.87499998,4.42187496 L8.87499998,5.82812497 C8.87499998,5.95756671 8.97993325,6.06249997 9.10937499,6.06249997 L11.0625,6.06249997 L11.0625,7.93749998 L4.81378903,7.93749998 C3.73667965,7.93749998 2.98257808,9.00171874 3.33964839,10.0179297 L6.67117185,19.5 L17.3288282,19.5 L20.6603516,10.0179297 C21.0174219,9.00171874 20.2633204,7.93749998 19.186211,7.93749998 Z" id="path-1"></path>
    </defs>
    <g id="chess-king" stroke="none" stroke-width="1" fill="none" fill-rule="evenodd">
        <mask id="mask-2" fill="white">
            <use xlink:href="#path-1"></use>
        </mask>
        <g fill-rule="nonzero"></g>
        <g id="🎨-color" mask="url(#mask-2)" fill="#000000">
            <rect id="🎨-Color" x="0" y="0" width="24" height="24"></rect>
        </g>
    </g>
</svg>