<?xml version="1.0" encoding="UTF-8"?>
<svg width="24px" height="24px" viewBox="0 0 24 24" version="1.1" xmlns="http://www.w3.org/2000/svg" xmlns:xlink="http://www.w3.org/1999/xlink">
    <!-- Generator: Sketch 52.5 (67469) - http://www.bohemiancoding.com/sketch -->
    <title>chess</title>
    <desc>Created with Sketch.</desc>
    <defs>
        <path d="M9.8055078,10.5012891 C9.93494954,10.5012891 10.0398828,10.6062223 10.0398828,10.7356641 L10.0398437,11.5468359 C10.0398437,11.6762777 9.93491048,11.7812109 9.80546874,11.7812109 L8.79746092,11.7812109 C8.79746092,13.0200781 8.71335936,15.5390625 9.4770703,17.7667188 L4.52332028,17.7667188 C5.30234372,15.4942188 5.20390622,12.9080078 5.20390622,11.7812109 L4.1946484,11.7812109 C4.06520666,11.7812109 3.9602734,11.6762777 3.9602734,11.5468359 L3.96035152,10.7356641 C3.96035152,10.6062223 4.06528478,10.5012891 4.19472652,10.5012891 L9.8055078,10.5012891 Z M3.62320308,6.49562497 L4.97398434,10.2093359 L9.02609374,10.2093359 L10.3765625,6.49558591 C10.4877344,6.18988278 10.2613281,5.86664059 9.93601561,5.86664059 L7.93749998,5.86664059 L7.93749998,4.68617184 L8.78007811,4.68617184 C8.90951985,4.68617184 9.01445311,4.58123858 9.01445311,4.45179684 L9.01445311,3.5774609 C9.01445311,3.44801916 8.90951985,3.34308589 8.78007811,3.34308589 L7.67199217,3.34308589 L7.67199217,2.23437495 C7.67199217,2.10493321 7.5670589,1.99999995 7.43761716,1.99999995 L6.56328122,1.99999995 C6.43383948,1.99999995 6.32890622,2.10493321 6.32890622,2.23437495 L6.32890622,3.34308589 L5.21957028,3.34308589 C5.09012854,3.34308589 4.98519528,3.44801916 4.98519528,3.5774609 L4.98519528,4.45179684 C4.98519528,4.58123858 5.09012854,4.68617184 5.21957028,4.68617184 L6.06249997,4.68617184 L6.06249997,5.86660153 L4.0637109,5.86660153 C3.7383984,5.86664059 3.51199215,6.18988278 3.62320308,6.49562497 Z M10.6983594,19.3894532 L10.6983594,18.293086 C10.6983594,18.1636442 10.5934261,18.058711 10.4639844,18.058711 L3.53601558,18.058711 C3.40657384,18.058711 3.30164058,18.1636442 3.30164058,18.293086 L3.30164058,19.3894532 L2.43648433,19.9427344 C2.36913611,19.9858124 2.32839139,20.0602485 2.32839839,20.1401954 L2.32839839,21.765625 C2.32839839,21.8950668 2.43333165,22.0000001 2.56277339,22.0000001 L11.4372656,22.0000001 C11.5667074,22.0000001 11.6716406,21.8950668 11.6716406,21.765625 L11.6716406,20.1401563 C11.6716476,20.0602094 11.6309029,19.9857734 11.5635547,19.9426954 L10.6983594,19.3894532 Z M14.2365625,13.7556641 L15.2084375,14.4182813 C15.2119531,15.12625 15.2019141,16.9145313 14.7433985,18.8917969 L20.5061329,18.8917969 C20.0485938,16.9201172 20.0385938,15.1291406 20.0419922,14.4176953 L21.0130469,13.755625 C21.0542139,13.7275609 21.07884,13.6809557 21.0788282,13.6311328 L21.0788282,10.900625 C21.0788282,10.8174155 21.0113736,10.7499609 20.9281641,10.7499609 L19.8478907,10.7499609 C19.7646812,10.7499609 19.6972266,10.8174155 19.6972266,10.900625 L19.6972266,12.1316406 L18.8090625,12.1316406 L18.8090625,10.900625 C18.8090625,10.8606596 18.7931837,10.8223317 18.7649202,10.7940756 C18.7366568,10.7658195 18.6983248,10.7499506 18.6583594,10.7499609 L16.59125,10.7499609 C16.5080406,10.7499609 16.440586,10.8174155 16.440586,10.900625 L16.440586,12.1316406 L15.5524219,12.1316406 L15.5524219,10.900625 C15.5524219,10.8174155 15.4849673,10.7499609 15.4017578,10.7499609 L14.3214844,10.7499609 C14.2382749,10.7499609 14.1708203,10.8174155 14.1708203,10.900625 L14.1708203,13.6311328 C14.17078,13.6809639 14.1953937,13.7275881 14.2365625,13.7556641 Z M17.0328516,15.7832422 C17.0328516,15.456211 17.2979688,15.1911328 17.625,15.1911328 C17.9520313,15.1911328 18.2171094,15.45625 18.2171094,15.7832422 L18.2171094,16.9675391 L17.0328516,16.9675391 L17.0328516,15.7832422 Z M21.7117188,20.3616797 L21.1779688,19.9460938 L21.1779688,19.3385938 C21.1779688,19.2986352 21.1620953,19.2603132 21.1338403,19.2320582 C21.1055853,19.2038032 21.0672633,19.1879297 21.0273047,19.1879297 L14.2232422,19.1879297 C14.1832836,19.1879297 14.1449616,19.2038032 14.1167066,19.2320582 C14.0884516,19.2603132 14.0725781,19.2986352 14.0725781,19.3385938 L14.0725781,19.9460938 L13.5383203,20.3616797 C13.5016415,20.3902277 13.4801921,20.4341067 13.4801953,20.480586 L13.4801953,21.8492969 C13.4801953,21.9325064 13.5476499,21.999961 13.6308594,21.999961 L21.6191407,21.999961 C21.6590993,21.999961 21.6974213,21.9840875 21.7256763,21.9558325 C21.7539312,21.9275775 21.7698047,21.8892555 21.7698047,21.8492969 L21.7698047,20.4805469 C21.7697936,20.4340908 21.7483628,20.3902348 21.7117188,20.3616797 Z" id="path-1"></path>
    </defs>
    <g id="chess" stroke="none" stroke-width="1" fill="none" fill-rule="evenodd">
        <mask id="mask-2" fill="white">
            <use xlink:href="#path-1"></use>
        </mask>
        <g fill-rule="nonzero"></g>
        <g id="🎨-color" mask="url(#mask-2)" fill="#000000">
            <rect id="🎨-Color" x="0" y="0" width="24" height="24"></rect>
        </g>
    </g>
</svg>