<?xml version="1.0" encoding="UTF-8"?>
<svg width="24px" height="24px" viewBox="0 0 24 24" version="1.1" xmlns="http://www.w3.org/2000/svg" xmlns:xlink="http://www.w3.org/1999/xlink">
    <!-- Generator: Sketch 52.5 (67469) - http://www.bohemiancoding.com/sketch -->
    <title>chess-queen</title>
    <desc>Created with Sketch.</desc>
    <defs>
        <path d="M19.03125,22.0000001 L4.96874996,22.0000001 C4.70988278,22.0000001 4.49999996,21.7901172 4.49999996,21.53125 L4.49999996,20.59375 C4.49999996,20.3348829 4.70988278,20.125 4.96874996,20.125 L19.03125,20.125 C19.2901172,20.125 19.5,20.3348829 19.5,20.59375 L19.5,21.53125 C19.5,21.7901172 19.2901172,22.0000001 19.03125,22.0000001 Z M11.9835547,1.99999995 C10.7754297,1.99999995 9.79605468,2.97937495 9.79605468,4.18749996 C9.79605468,5.39562497 10.7754297,6.37499997 11.9835547,6.37499997 C13.1916797,6.37499997 14.1710547,5.39562497 14.1710547,4.18749996 C14.1710547,2.97937495 13.1916797,1.99999995 11.9835547,1.99999995 Z M19.9744922,8.04039061 C19.7491797,7.92144529 19.469961,8.00398436 19.3462891,8.22671873 C19.0097266,8.83281248 18.4577344,9.7033203 17.625,9.7033203 C16.5033594,9.7033203 16.428711,8.92972655 16.3872656,7.45558591 C16.3801172,7.20199216 16.1723828,6.99996091 15.918711,6.99996091 L14.3169141,6.99996091 C14.1147656,6.99996091 13.9358984,7.12996091 13.8720703,7.32175779 C13.5248047,8.36507811 12.8535938,8.9230078 12,8.9230078 C11.1464062,8.9230078 10.4752344,8.36507811 10.1279297,7.32175779 C10.0641016,7.12996091 9.88523436,6.99996091 9.68308593,6.99996091 L8.08132811,6.99996091 C7.82761717,6.99996091 7.61988279,7.20207029 7.61277342,7.4557031 C7.57167967,8.92609373 7.49816404,9.7033203 6.37496091,9.7033203 C5.56671872,9.7033203 5.05398434,8.9133203 4.63960934,8.21796873 C4.51203121,8.00390623 4.23890621,7.92769529 4.01855465,8.04402342 L2.48812495,8.85179686 C2.27493189,8.96431626 2.18184066,9.22019043 2.27289058,9.44339842 L6.37499997,19.5 L17.625,19.5 L21.7271094,9.44343749 C21.8181593,9.22022949 21.7250681,8.96435532 21.511875,8.85183592 L19.9744922,8.04039061 Z" id="path-1"></path>
    </defs>
    <g id="chess-queen" stroke="none" stroke-width="1" fill="none" fill-rule="evenodd">
        <mask id="mask-2" fill="white">
            <use xlink:href="#path-1"></use>
        </mask>
        <g fill-rule="nonzero"></g>
        <g id="🎨-color" mask="url(#mask-2)" fill="#000000">
            <rect id="🎨-Color" x="0" y="0" width="24" height="24"></rect>
        </g>
    </g>
</svg>