<?xml version="1.0" encoding="UTF-8"?>
<svg width="24px" height="24px" viewBox="0 0 24 24" version="1.1" xmlns="http://www.w3.org/2000/svg" xmlns:xlink="http://www.w3.org/1999/xlink">
    <!-- Generator: Sketch 52.5 (67469) - http://www.bohemiancoding.com/sketch -->
    <title>chess-bishop</title>
    <desc>Created with Sketch.</desc>
    <defs>
        <path d="M10.5608594,5.04222653 C9.94410155,4.83320309 9.49999999,4.24988277 9.49999999,3.56249996 C9.49999999,2.69957027 10.1995703,1.99999995 11.0625,1.99999995 L12.9295313,1.99999995 C13.7924609,1.99999995 14.4920313,2.69957027 14.4920313,3.56249996 C14.4920313,4.24769527 14.0508203,4.82945309 13.4371484,5.04019528 C14.374375,5.69085934 15.3346875,6.86984372 16.1208594,8.24527342 L11.4112891,12.9548047 C11.3197673,13.0463326 11.3197673,13.1947221 11.4112891,13.28625 L11.9637109,13.8386719 C12.0552388,13.9301937 12.2036284,13.9301937 12.2951563,13.8386719 L16.7226563,9.41117186 C17.4163282,10.9071484 17.869961,12.5144141 17.869961,13.8749609 C17.869961,15.9759766 16.9755469,16.8354297 15.5869141,17.235625 L15.5869141,19.5 L8.41304686,19.5 L8.41304686,17.2355469 C7.02464841,16.8353125 6.13042966,15.9758203 6.13042966,13.875 C6.13042966,10.8269922 8.40703123,6.5403906 10.5608594,5.04222653 Z M18.25,21.53125 L18.25,20.59375 C18.25,20.3348829 18.0401172,20.125 17.78125,20.125 L6.21874997,20.125 C5.95988278,20.125 5.74999997,20.3348829 5.74999997,20.59375 L5.74999997,21.53125 C5.74999997,21.7901172 5.95988278,22.0000001 6.21874997,22.0000001 L17.78125,22.0000001 C18.0401172,22.0000001 18.25,21.7901172 18.25,21.53125 Z" id="path-1"></path>
    </defs>
    <g id="chess-bishop" stroke="none" stroke-width="1" fill="none" fill-rule="evenodd">
        <mask id="mask-2" fill="white">
            <use xlink:href="#path-1"></use>
        </mask>
        <g fill-rule="nonzero"></g>
        <g id="🎨-color" mask="url(#mask-2)" fill="#000000">
            <rect id="🎨-Color" x="0" y="0" width="24" height="24"></rect>
        </g>
    </g>
</svg>