<?xml version="1.0" encoding="UTF-8"?>
<svg width="24px" height="24px" viewBox="0 0 24 24" version="1.1" xmlns="http://www.w3.org/2000/svg" xmlns:xlink="http://www.w3.org/1999/xlink">
    <!-- Generator: Sketch 52.5 (67469) - http://www.bohemiancoding.com/sketch -->
    <title>chess-rook</title>
    <desc>Created with Sketch.</desc>
    <defs>
        <path d="M7.67347654,10.3994922 C7.66238279,12.1140625 7.52386717,15.5967188 6.37499997,19.5 L17.6242969,19.5 C16.4758594,15.6092188 16.3377344,12.120625 16.3266016,10.3994141 L18.1007422,8.74660155 C18.1959209,8.65793951 18.2499709,8.53370948 18.249961,8.40363279 L18.249961,3.71874996 C18.249961,3.45988277 18.0400782,3.24999996 17.781211,3.24999996 L16.218711,3.24999996 C15.9598438,3.24999996 15.749961,3.45988277 15.749961,3.71874996 L15.749961,5.43749997 L13.8749609,5.43749997 L13.8749609,3.71874996 C13.8749609,3.45988277 13.6650781,3.24999996 13.4062109,3.24999996 L10.5937109,3.24999996 C10.3348437,3.24999996 10.1249609,3.45988277 10.1249609,3.71874996 L10.1249609,5.43749997 L8.24999998,5.43749997 L8.24999998,3.71874996 C8.24999998,3.45988277 8.04011717,3.24999996 7.78124998,3.24999996 L6.21874997,3.24999996 C5.95988278,3.24999996 5.74999997,3.45988277 5.74999997,3.71874996 L5.74999997,8.40359373 C5.74999997,8.53367186 5.80406247,8.65789061 5.89921872,8.74656248 L7.67347654,10.3994922 Z M10.75,12 C10.75,11.3096484 11.3096484,10.75 12,10.75 C12.6903516,10.75 13.25,11.3096484 13.25,12 L13.25,14.5001563 L10.75,14.5001563 L10.75,12 Z M19.5,20.59375 L19.5,21.53125 C19.5,21.7901172 19.2901172,22 19.03125,22 L4.96874996,22 C4.70988278,22 4.49999996,21.7901172 4.49999996,21.53125 L4.49999996,20.59375 C4.49999996,20.3348829 4.70988278,20.125 4.96874996,20.125 L19.03125,20.125 C19.2901172,20.125 19.5,20.3348829 19.5,20.59375 Z" id="path-1"></path>
    </defs>
    <g id="chess-rook" stroke="none" stroke-width="1" fill="none" fill-rule="evenodd">
        <mask id="mask-2" fill="white">
            <use xlink:href="#path-1"></use>
        </mask>
        <g fill-rule="nonzero"></g>
        <g id="🎨-color" mask="url(#mask-2)" fill="#000000">
            <rect id="🎨-Color" x="0" y="0" width="24" height="24"></rect>
        </g>
    </g>
</svg>