<?xml version="1.0" encoding="UTF-8"?>
<svg width="24px" height="24px" viewBox="0 0 24 24" version="1.1" xmlns="http://www.w3.org/2000/svg" xmlns:xlink="http://www.w3.org/1999/xlink">
    <!-- Generator: Sketch 52.5 (67469) - http://www.bohemiancoding.com/sketch -->
    <title>chess-pawn</title>
    <desc>Created with Sketch.</desc>
    <defs>
        <path d="M16.0625,19.5 L7.93749998,19.5 C7.93749998,19.5 10.28125,17.8303516 10.28125,12.625 L9.03124999,12.625 C8.7723828,12.625 8.56249998,12.4151172 8.56249998,12.15625 L8.56249998,11.21875 C8.56249998,10.9598828 8.7723828,10.75 9.03124999,10.75 L10.6019141,10.75 C9.48910155,10.225 8.71874998,9.09328124 8.71874998,7.78124998 C8.71874998,5.96906247 10.1878125,4.49999996 12,4.49999996 C13.8121875,4.49999996 15.28125,5.96906247 15.28125,7.78124998 C15.28125,9.09328124 14.5108985,10.225 13.3980859,10.75 L14.96875,10.75 C15.2276172,10.75 15.4375,10.9598828 15.4375,11.21875 L15.4375,12.15625 C15.4375,12.4151172 15.2276172,12.625 14.96875,12.625 L13.71875,12.625 C13.71875,17.8303516 16.0625,19.5 16.0625,19.5 Z M17.15625,20.125 L6.84374997,20.125 C6.58488279,20.125 6.37499997,20.3348829 6.37499997,20.59375 L6.37499997,21.53125 C6.37499997,21.7901172 6.58488279,22 6.84374997,22 L17.15625,22 C17.4151172,22 17.625,21.7901172 17.625,21.53125 L17.625,20.59375 C17.625,20.3348829 17.4151172,20.125 17.15625,20.125 Z" id="path-1"></path>
    </defs>
    <g id="chess-pawn" stroke="none" stroke-width="1" fill="none" fill-rule="evenodd">
        <mask id="mask-2" fill="white">
            <use xlink:href="#path-1"></use>
        </mask>
        <g fill-rule="nonzero"></g>
        <g id="🎨-color" mask="url(#mask-2)" fill="#000000">
            <rect id="🎨-Color" x="0" y="0" width="24" height="24"></rect>
        </g>
    </g>
</svg>