<?xml version="1.0" encoding="UTF-8"?>
<svg width="24px" height="24px" viewBox="0 0 24 24" version="1.1" xmlns="http://www.w3.org/2000/svg" xmlns:xlink="http://www.w3.org/1999/xlink">
    <!-- Generator: Sketch 52.5 (67469) - http://www.bohemiancoding.com/sketch -->
    <title>chess-knight</title>
    <desc>Created with Sketch.</desc>
    <defs>
        <path d="M18.25,10.75 L18.25,19.5 L5.74999997,19.5 L5.74999997,17.6813672 C5.74999997,16.4976953 6.41874997,15.415625 7.47746091,14.8862891 L9.71351561,13.7682422 C10.3487457,13.4506318 10.7500054,12.8013786 10.75,12.0911719 L10.75,10.125 L9.88566405,10.5571484 C9.640872,10.6795242 9.46178895,10.9027715 9.39542967,11.1682812 L8.93312498,13.0174219 C8.89661604,13.1634408 8.79220987,13.2830466 8.65246092,13.3389453 L7.49617185,13.8014453 C7.37873687,13.8484264 7.2472983,13.8459469 7.13171873,13.7945703 L4.77835934,12.7487109 C4.60908237,12.6734705 4.49999361,12.5055969 4.49999996,12.3203516 L4.49999996,6.13832028 C4.49999996,5.88968747 4.59878903,5.65121091 4.77460934,5.47539059 L5.12499997,5.12499997 L4.56988278,4.01476559 C4.52391602,3.92285978 4.49998955,3.82150997 4.49999996,3.71874996 C4.49999996,3.45988277 4.70988278,3.24999996 4.96874996,3.24999996 L10.75,3.24999996 C14.8921485,3.24999996 18.25,6.60785154 18.25,10.75 Z M19.03125,20.125 L4.96874996,20.125 C4.70988278,20.125 4.49999996,20.3348829 4.49999996,20.59375 L4.49999996,21.53125 C4.49999996,21.7901172 4.70988278,22 4.96874996,22 L19.03125,22 C19.2901172,22 19.5,21.7901172 19.5,21.53125 L19.5,20.59375 C19.5,20.3348829 19.2901172,20.125 19.03125,20.125 Z M6.53124997,6.99999997 C6.0997656,6.99999997 5.74999997,7.3497656 5.74999997,7.78124998 C5.74999997,8.21273436 6.0997656,8.56249998 6.53124997,8.56249998 C6.96273435,8.56249998 7.31249998,8.21273436 7.31249998,7.78124998 C7.31249998,7.3497656 6.96273435,6.99999997 6.53124997,6.99999997 Z" id="path-1"></path>
    </defs>
    <g id="chess-knight" stroke="none" stroke-width="1" fill="none" fill-rule="evenodd">
        <mask id="mask-2" fill="white">
            <use xlink:href="#path-1"></use>
        </mask>
        <g fill-rule="nonzero"></g>
        <g id="🎨-color" mask="url(#mask-2)" fill="#000000">
            <rect id="🎨-Color" x="0" y="0" width="24" height="24"></rect>
        </g>
    </g>
</svg>