<?xml version="1.0" encoding="UTF-8"?>
<svg width="24px" height="24px" viewBox="0 0 24 24" version="1.1" xmlns="http://www.w3.org/2000/svg" xmlns:xlink="http://www.w3.org/1999/xlink">
    <!-- Generator: Sketch 52.5 (67469) - http://www.bohemiancoding.com/sketch -->
    <title>chevron-circle-up</title>
    <desc>Created with Sketch.</desc>
    <defs>
        <path d="M2.31249995,12 C2.31249995,6.64843747 6.64843747,2.31249995 12,2.31249995 C17.3515625,2.31249995 21.6875,6.64843747 21.6875,12 C21.6875,17.3515625 17.3515625,21.6875 12,21.6875 C6.64843747,21.6875 2.31249995,17.3515625 2.31249995,12 Z M11.3359375,7.55078123 L6.04296872,12.84375 C5.67578122,13.2109375 5.67578122,13.8046875 6.04296872,14.1679688 L6.70703122,14.8320313 C7.07421873,15.1992188 7.66796873,15.1992188 8.03124998,14.8320313 L12,10.8632812 L15.96875,14.8320313 C16.3359375,15.1992188 16.9296875,15.1992188 17.2929688,14.8320313 L17.9570313,14.1679688 C18.3242188,13.8007813 18.3242188,13.2070313 17.9570313,12.84375 L12.6640625,7.55078123 C12.296875,7.18359373 11.703125,7.18359373 11.3359375,7.55078123 Z" id="path-1"></path>
    </defs>
    <g id="chevron-circle-up" stroke="none" stroke-width="1" fill="none" fill-rule="evenodd">
        <mask id="mask-2" fill="white">
            <use xlink:href="#path-1"></use>
        </mask>
        <g fill-rule="nonzero"></g>
        <g id="🎨-color" mask="url(#mask-2)" fill="#000000">
            <rect id="🎨-Color" x="0" y="0" width="24" height="24"></rect>
        </g>
    </g>
</svg>