<?xml version="1.0" encoding="UTF-8"?>
<svg width="24px" height="24px" viewBox="0 0 24 24" version="1.1" xmlns="http://www.w3.org/2000/svg" xmlns:xlink="http://www.w3.org/1999/xlink">
    <!-- Generator: Sketch 52.5 (67469) - http://www.bohemiancoding.com/sketch -->
    <title>child</title>
    <desc>Created with Sketch.</desc>
    <defs>
        <path d="M9.18749999,4.81249996 C9.18749999,3.25917964 10.4466797,1.99999995 12,1.99999995 C13.5533203,1.99999995 14.8125,3.25917964 14.8125,4.81249996 C14.8125,6.36578122 13.5533203,7.62499998 12,7.62499998 C10.4466797,7.62499998 9.18749999,6.36578122 9.18749999,4.81249996 Z M19.1338672,4.86613278 C18.6457422,4.37796871 17.8542578,4.37796871 17.3661328,4.86613278 L13.9822266,8.24999998 L10.0177344,8.24999998 L6.63386716,4.86613278 C6.14574216,4.37796871 5.35425778,4.37796871 4.86613278,4.86613278 C4.37796871,5.35429684 4.37796871,6.14574216 4.86613278,6.63390622 L8.56249998,10.3302344 L8.56249998,20.75 C8.56249998,21.4403516 9.12214842,22.0000001 9.81249999,22.0000001 L10.4375,22.0000001 C11.1278516,22.0000001 11.6875,21.4403516 11.6875,20.75 L11.6875,16.375 L12.3125,16.375 L12.3125,20.75 C12.3125,21.4403516 12.8721484,22.0000001 13.5625,22.0000001 L14.1875,22.0000001 C14.8778516,22.0000001 15.4375,21.4403516 15.4375,20.75 L15.4375,10.3302344 L19.1338672,6.63386716 C19.6220313,6.1457031 19.6220313,5.35429684 19.1338672,4.86613278 Z" id="path-1"></path>
    </defs>
    <g id="child" stroke="none" stroke-width="1" fill="none" fill-rule="evenodd">
        <mask id="mask-2" fill="white">
            <use xlink:href="#path-1"></use>
        </mask>
        <g fill-rule="nonzero"></g>
        <g id="🎨-color" mask="url(#mask-2)" fill="#000000">
            <rect id="🎨-Color" x="0" y="0" width="24" height="24"></rect>
        </g>
    </g>
</svg>