<?xml version="1.0" encoding="UTF-8"?>
<svg width="24px" height="24px" viewBox="0 0 24 24" version="1.1" xmlns="http://www.w3.org/2000/svg" xmlns:xlink="http://www.w3.org/1999/xlink">
    <!-- Generator: Sketch 52.5 (67469) - http://www.bohemiancoding.com/sketch -->
    <title>chrome</title>
    <desc>Created with Sketch.</desc>
    <defs>
        <path d="M7.44921873,10.4960937 L4.46484371,5.91015622 C6.32421872,3.59765621 9.11328124,2.3242187 11.9648437,2.31249995 C13.6171875,2.3007812 15.3046875,2.7226562 16.8398438,3.60937496 C18.5351563,4.59374996 19.8242188,6.00781247 20.6445313,7.63281248 L12.625,7.21093748 C10.3554687,7.07812498 8.19531248,8.35546873 7.44921873,10.4960937 Z M8.73437498,12 C8.73437498,13.8046875 10.1953125,15.265625 12,15.265625 C13.8046875,15.265625 15.265625,13.8046875 15.265625,12 C15.265625,10.1953125 13.8046875,8.73437498 12,8.73437498 C10.1953125,8.73437498 8.73437498,10.1914062 8.73437498,12 Z M21.0351563,8.51562498 L15.578125,8.79687498 C17.0585938,10.5273437 17.0820313,13.0234375 15.8359375,14.9375 L11.4570312,21.671875 C13.2734375,21.7695313 15.1445313,21.3710938 16.8398438,20.3867188 C21.0351563,17.9648438 22.7343751,12.8867188 21.0351563,8.51562498 Z M7.53515623,13.859375 L3.89062496,6.69140622 C2.8945312,8.21484373 2.31249995,10.0429687 2.31249995,12 C2.31249995,16.84375 5.85937497,20.8554688 10.4960937,21.5664063 L12.984375,16.6914063 C10.734375,17.1132813 8.56249998,15.8789063 7.53515623,13.859375 Z" id="path-1"></path>
    </defs>
    <g id="chrome" stroke="none" stroke-width="1" fill="none" fill-rule="evenodd">
        <mask id="mask-2" fill="white">
            <use xlink:href="#path-1"></use>
        </mask>
        <g fill-rule="nonzero"></g>
        <g id="🎨-color" mask="url(#mask-2)" fill="#000000">
            <rect id="🎨-Color" x="0" y="0" width="24" height="24"></rect>
        </g>
    </g>
</svg>