<?xml version="1.0" encoding="UTF-8"?>
<svg width="24px" height="24px" viewBox="0 0 24 24" version="1.1" xmlns="http://www.w3.org/2000/svg" xmlns:xlink="http://www.w3.org/1999/xlink">
    <!-- Generator: Sketch 52.5 (67469) - http://www.bohemiancoding.com/sketch -->
    <title>church</title>
    <desc>Created with Sketch.</desc>
    <defs>
        <path d="M16.514375,11.70875 L13,9.59999999 L13,7.99999998 L14.5,7.99999998 C14.77625,7.99999998 15,7.77624998 15,7.49999998 L15,6.49999997 C15,6.22374997 14.77625,5.99999997 14.5,5.99999997 L13,5.99999997 L13,4.49999996 C13,4.22374996 12.77625,3.99999996 12.5,3.99999996 L11.5,3.99999996 C11.22375,3.99999996 11,4.22374996 11,4.49999996 L11,5.99999997 L9.49999999,5.99999997 C9.22374999,5.99999997 8.99999998,6.22374997 8.99999998,6.49999997 L8.99999998,7.49999998 C8.99999998,7.77624998 9.22374999,7.99999998 9.49999999,7.99999998 L11,7.99999998 L11,9.59999999 L7.48562498,11.70875 C7.18435725,11.8894312 7.00000429,12.2149553 6.99999997,12.56625 L6.99999997,20 L9.99999999,20 L9.99999999,17 C9.99999999,15.8953125 10.8953125,15 12,15 C13.1046875,15 14,15.8953125 14,17 L14,20 L17,20 L17,12.56625 C17,12.215 16.815625,11.889375 16.514375,11.70875 Z M1.99999995,16.37375 L1.99999995,19.5 C1.99999995,19.77625 2.22374995,20 2.49999995,20 L5.99999997,20 L5.99999997,14 L2.60593745,15.454375 C2.23836531,15.6121888 2.00008109,15.973732 1.99999995,16.37375 Z M21.3940625,15.454375 L18,14 L18,20 L21.5,20 C21.77625,20 22.0000001,19.77625 22.0000001,19.5 L22.0000001,16.37375 C22.0000001,15.97375 21.7615625,15.6121875 21.3940625,15.454375 Z" id="path-1"></path>
    </defs>
    <g id="church" stroke="none" stroke-width="1" fill="none" fill-rule="evenodd">
        <mask id="mask-2" fill="white">
            <use xlink:href="#path-1"></use>
        </mask>
        <g fill-rule="nonzero"></g>
        <g id="🎨-color" mask="url(#mask-2)" fill="#000000">
            <rect id="🎨-Color" x="0" y="0" width="24" height="24"></rect>
        </g>
    </g>
</svg>