<?xml version="1.0" encoding="UTF-8"?>
<svg width="24px" height="24px" viewBox="0 0 24 24" version="1.1" xmlns="http://www.w3.org/2000/svg" xmlns:xlink="http://www.w3.org/1999/xlink">
    <!-- Generator: Sketch 52.5 (67469) - http://www.bohemiancoding.com/sketch -->
    <title>circle-notch</title>
    <desc>Created with Sketch.</desc>
    <defs>
        <path d="M13.25,3.52562496 L13.25,4.17636715 C13.25,4.5983984 13.5344141,4.96382809 13.9408594,5.07738278 C16.9689063,5.92320309 19.1875,8.69992186 19.1875,12 C19.1875,15.9722266 15.9728516,19.1875 12,19.1875 C8.02777342,19.1875 4.81249996,15.9728516 4.81249996,12 C4.81249996,8.70039061 7.0307031,5.92328122 10.0590625,5.07738278 C10.4655859,4.96382809 10.75,4.59832028 10.75,4.17624996 L10.75,3.52593746 C10.75,2.91230464 10.1705469,2.46527339 9.57632811,2.61835933 C5.38292965,3.69851558 2.28882808,7.51585935 2.31261714,12.0520313 C2.34074214,17.405625 6.66718747,21.69875 12.0208594,21.687461 C17.3615235,21.676211 21.6875,17.3432813 21.6875,12 C21.6875,7.48308591 18.5960938,3.68832027 14.4136328,2.6157812 C13.8233594,2.46441401 13.25,2.91624995 13.25,3.52562496 Z" id="path-1"></path>
    </defs>
    <g id="circle-notch" stroke="none" stroke-width="1" fill="none" fill-rule="evenodd">
        <mask id="mask-2" fill="white">
            <use xlink:href="#path-1"></use>
        </mask>
        <g></g>
        <g id="🎨-color" mask="url(#mask-2)" fill="#000000">
            <rect id="🎨-Color" x="0" y="0" width="24" height="24"></rect>
        </g>
    </g>
</svg>