<?xml version="1.0" encoding="UTF-8"?>
<svg width="24px" height="24px" viewBox="0 0 24 24" version="1.1" xmlns="http://www.w3.org/2000/svg" xmlns:xlink="http://www.w3.org/1999/xlink">
    <!-- Generator: Sketch 52.5 (67469) - http://www.bohemiancoding.com/sketch -->
    <title>city</title>
    <desc>Created with Sketch.</desc>
    <defs>
        <path d="M21.25,9.99999999 L17,9.99999999 L17,4.74999996 C17,4.33562496 16.664375,3.99999996 16.25,3.99999996 L11.75,3.99999996 C11.335625,3.99999996 11,4.33562496 11,4.74999996 L11,6.99999997 L8.99999998,6.99999997 L8.99999998,4.49999996 C8.99999998,4.22374996 8.77624998,3.99999996 8.49999998,3.99999996 L7.99999998,3.99999996 C7.72374998,3.99999996 7.49999998,4.22374996 7.49999998,4.49999996 L7.49999998,6.99999997 L5.49999997,6.99999997 L5.49999997,4.49999996 C5.49999997,4.22374996 5.27624997,3.99999996 4.99999996,3.99999996 L4.49999996,3.99999996 C4.22374996,3.99999996 3.99999996,4.22374996 3.99999996,4.49999996 L3.99999996,6.99999997 L2.74999995,6.99999997 C2.33562495,6.99999997 1.99999995,7.33562498 1.99999995,7.74999998 L1.99999995,19 C1.99999995,19.5521875 2.44781245,20 2.99999995,20 L21,20 C21.5521875,20 22.0000001,19.5521875 22.0000001,19 L22.0000001,10.75 C22.0000001,10.335625 21.6640625,9.99999999 21.25,9.99999999 Z M5.99999997,16.625 C5.99999997,16.8321875 5.83218747,17 5.62499997,17 L4.37499996,17 C4.16781246,17 3.99999996,16.8321875 3.99999996,16.625 L3.99999996,15.375 C3.99999996,15.1678125 4.16781246,15 4.37499996,15 L5.62499997,15 C5.83218747,15 5.99999997,15.1678125 5.99999997,15.375 L5.99999997,16.625 Z M5.99999997,13.625 C5.99999997,13.8321875 5.83218747,14 5.62499997,14 L4.37499996,14 C4.16781246,14 3.99999996,13.8321875 3.99999996,13.625 L3.99999996,12.375 C3.99999996,12.1678125 4.16781246,12 4.37499996,12 L5.62499997,12 C5.83218747,12 5.99999997,12.1678125 5.99999997,12.375 L5.99999997,13.625 Z M5.99999997,10.625 C5.99999997,10.8321875 5.83218747,11 5.62499997,11 L4.37499996,11 C4.16781246,11 3.99999996,10.8321875 3.99999996,10.625 L3.99999996,9.37499999 C3.99999996,9.16781249 4.16781246,8.99999999 4.37499996,8.99999999 L5.62499997,8.99999999 C5.83218747,8.99999999 5.99999997,9.16781249 5.99999997,9.37499999 L5.99999997,10.625 Z M9.99999999,16.625 C9.99999999,16.8321875 9.83218749,17 9.62499999,17 L8.37499998,17 C8.16781248,17 7.99999998,16.8321875 7.99999998,16.625 L7.99999998,15.375 C7.99999998,15.1678125 8.16781248,15 8.37499998,15 L9.62499999,15 C9.83218749,15 9.99999999,15.1678125 9.99999999,15.375 L9.99999999,16.625 Z M9.99999999,13.625 C9.99999999,13.8321875 9.83218749,14 9.62499999,14 L8.37499998,14 C8.16781248,14 7.99999998,13.8321875 7.99999998,13.625 L7.99999998,12.375 C7.99999998,12.1678125 8.16781248,12 8.37499998,12 L9.62499999,12 C9.83218749,12 9.99999999,12.1678125 9.99999999,12.375 L9.99999999,13.625 Z M9.99999999,10.625 C9.99999999,10.8321875 9.83218749,11 9.62499999,11 L8.37499998,11 C8.16781248,11 7.99999998,10.8321875 7.99999998,10.625 L7.99999998,9.37499999 C7.99999998,9.16781249 8.16781248,8.99999999 8.37499998,8.99999999 L9.62499999,8.99999999 C9.83218749,8.99999999 9.99999999,9.16781249 9.99999999,9.37499999 L9.99999999,10.625 Z M15,13.625 C15,13.8321875 14.8321875,14 14.625,14 L13.375,14 C13.1678125,14 13,13.8321875 13,13.625 L13,12.375 C13,12.1678125 13.1678125,12 13.375,12 L14.625,12 C14.8321875,12 15,12.1678125 15,12.375 L15,13.625 Z M15,10.625 C15,10.8321875 14.8321875,11 14.625,11 L13.375,11 C13.1678125,11 13,10.8321875 13,10.625 L13,9.37499999 C13,9.16781249 13.1678125,8.99999999 13.375,8.99999999 L14.625,8.99999999 C14.8321875,8.99999999 15,9.16781249 15,9.37499999 L15,10.625 Z M15,7.62499998 C15,7.83218748 14.8321875,7.99999998 14.625,7.99999998 L13.375,7.99999998 C13.1678125,7.99999998 13,7.83218748 13,7.62499998 L13,6.37499997 C13,6.16781247 13.1678125,5.99999997 13.375,5.99999997 L14.625,5.99999997 C14.8321875,5.99999997 15,6.16781247 15,6.37499997 L15,7.62499998 Z M20,16.625 C20,16.8321875 19.8321875,17 19.625,17 L18.375,17 C18.1678125,17 18,16.8321875 18,16.625 L18,15.375 C18,15.1678125 18.1678125,15 18.375,15 L19.625,15 C19.8321875,15 20,15.1678125 20,15.375 L20,16.625 Z M20,13.625 C20,13.8321875 19.8321875,14 19.625,14 L18.375,14 C18.1678125,14 18,13.8321875 18,13.625 L18,12.375 C18,12.1678125 18.1678125,12 18.375,12 L19.625,12 C19.8321875,12 20,12.1678125 20,12.375 L20,13.625 Z" id="path-1"></path>
    </defs>
    <g id="city" stroke="none" stroke-width="1" fill="none" fill-rule="evenodd">
        <mask id="mask-2" fill="white">
            <use xlink:href="#path-1"></use>
        </mask>
        <g fill-rule="nonzero"></g>
        <g id="🎨-color" mask="url(#mask-2)" fill="#000000">
            <rect id="🎨-Color" x="0" y="0" width="24" height="24"></rect>
        </g>
    </g>
</svg>