<?xml version="1.0" encoding="UTF-8"?>
<svg width="24px" height="24px" viewBox="0 0 24 24" version="1.1" xmlns="http://www.w3.org/2000/svg" xmlns:xlink="http://www.w3.org/1999/xlink">
    <!-- Generator: Sketch 52.5 (67469) - http://www.bohemiancoding.com/sketch -->
    <title>clipboard</title>
    <desc>Created with Sketch.</desc>
    <defs>
        <path d="M17.625,4.49999996 L14.5,4.49999996 C14.5,3.12148433 13.3785156,1.99999995 12,1.99999995 C10.6214844,1.99999995 9.49999999,3.12148433 9.49999999,4.49999996 L6.37499997,4.49999996 C5.33945309,4.49999996 4.49999996,5.33945309 4.49999996,6.37499997 L4.49999996,20.125 C4.49999996,21.1605469 5.33945309,22.0000001 6.37499997,22.0000001 L17.625,22.0000001 C18.6605469,22.0000001 19.5,21.1605469 19.5,20.125 L19.5,6.37499997 C19.5,5.33945309 18.6605469,4.49999996 17.625,4.49999996 Z M17.390625,20.125 L6.60937497,20.125 C6.47993323,20.125 6.37499997,20.0200668 6.37499997,19.890625 L6.37499997,6.60937497 C6.37499997,6.47993323 6.47993323,6.37499997 6.60937497,6.37499997 L8.24999998,6.37499997 L8.24999998,7.78124998 C8.24999998,8.04011717 8.45988279,8.24999998 8.71874998,8.24999998 L15.28125,8.24999998 C15.5401172,8.24999998 15.75,8.04011717 15.75,7.78124998 L15.75,6.37499997 L17.390625,6.37499997 C17.5200668,6.37499997 17.625,6.47993323 17.625,6.60937497 L17.625,19.890625 C17.625,20.0200668 17.5200668,20.125 17.390625,20.125 Z M12,3.56249996 C12.5177734,3.56249996 12.9375,3.98222652 12.9375,4.49999996 C12.9375,5.0177734 12.5177734,5.43749997 12,5.43749997 C11.4822266,5.43749997 11.0625,5.0177734 11.0625,4.49999996 C11.0625,3.98222652 11.4822266,3.56249996 12,3.56249996 Z" id="path-1"></path>
    </defs>
    <g id="clipboard" stroke="none" stroke-width="1" fill="none" fill-rule="evenodd">
        <mask id="mask-2" fill="white">
            <use xlink:href="#path-1"></use>
        </mask>
        <g fill-rule="nonzero"></g>
        <g id="🎨-color" mask="url(#mask-2)" fill="#000000">
            <rect id="🎨-Color" x="0" y="0" width="24" height="24"></rect>
        </g>
    </g>
</svg>