<?xml version="1.0" encoding="UTF-8"?>
<svg width="24px" height="24px" viewBox="0 0 24 24" version="1.1" xmlns="http://www.w3.org/2000/svg" xmlns:xlink="http://www.w3.org/1999/xlink">
    <!-- Generator: Sketch 52.5 (67469) - http://www.bohemiancoding.com/sketch -->
    <title>clipboard-list</title>
    <desc>Created with Sketch.</desc>
    <defs>
        <path d="M17.625,4.49999996 L14.5,4.49999996 C14.5,3.12109371 13.3789063,1.99999995 12,1.99999995 C10.6210937,1.99999995 9.49999999,3.12109371 9.49999999,4.49999996 L6.37499997,4.49999996 C5.33984372,4.49999996 4.49999996,5.33984372 4.49999996,6.37499997 L4.49999996,20.125 C4.49999996,21.1601563 5.33984372,22.0000001 6.37499997,22.0000001 L17.625,22.0000001 C18.6601563,22.0000001 19.5,21.1601563 19.5,20.125 L19.5,6.37499997 C19.5,5.33984372 18.6601563,4.49999996 17.625,4.49999996 Z M8.24999998,18.5625 C7.73046873,18.5625 7.31249998,18.1445313 7.31249998,17.625 C7.31249998,17.1054688 7.73046873,16.6875 8.24999998,16.6875 C8.76953123,16.6875 9.18749999,17.1054688 9.18749999,17.625 C9.18749999,18.1445313 8.76953123,18.5625 8.24999998,18.5625 Z M8.24999998,14.8125 C7.73046873,14.8125 7.31249998,14.3945313 7.31249998,13.875 C7.31249998,13.3554688 7.73046873,12.9375 8.24999998,12.9375 C8.76953123,12.9375 9.18749999,13.3554688 9.18749999,13.875 C9.18749999,14.3945313 8.76953123,14.8125 8.24999998,14.8125 Z M8.24999998,11.0625 C7.73046873,11.0625 7.31249998,10.6445312 7.31249998,10.125 C7.31249998,9.60546874 7.73046873,9.18749999 8.24999998,9.18749999 C8.76953123,9.18749999 9.18749999,9.60546874 9.18749999,10.125 C9.18749999,10.6445312 8.76953123,11.0625 8.24999998,11.0625 Z M12,3.56249996 C12.5195313,3.56249996 12.9375,3.98046871 12.9375,4.49999996 C12.9375,5.01953122 12.5195313,5.43749997 12,5.43749997 C11.4804687,5.43749997 11.0625,5.01953122 11.0625,4.49999996 C11.0625,3.98046871 11.4804687,3.56249996 12,3.56249996 Z M17,17.9375 C17,18.109375 16.859375,18.25 16.6875,18.25 L11.0625,18.25 C10.890625,18.25 10.75,18.109375 10.75,17.9375 L10.75,17.3125 C10.75,17.140625 10.890625,17 11.0625,17 L16.6875,17 C16.859375,17 17,17.140625 17,17.3125 L17,17.9375 Z M17,14.1875 C17,14.359375 16.859375,14.5 16.6875,14.5 L11.0625,14.5 C10.890625,14.5 10.75,14.359375 10.75,14.1875 L10.75,13.5625 C10.75,13.390625 10.890625,13.25 11.0625,13.25 L16.6875,13.25 C16.859375,13.25 17,13.390625 17,13.5625 L17,14.1875 Z M17,10.4375 C17,10.609375 16.859375,10.75 16.6875,10.75 L11.0625,10.75 C10.890625,10.75 10.75,10.609375 10.75,10.4375 L10.75,9.81249999 C10.75,9.64062499 10.890625,9.49999999 11.0625,9.49999999 L16.6875,9.49999999 C16.859375,9.49999999 17,9.64062499 17,9.81249999 L17,10.4375 Z" id="path-1"></path>
    </defs>
    <g id="clipboard-list" stroke="none" stroke-width="1" fill="none" fill-rule="evenodd">
        <mask id="mask-2" fill="white">
            <use xlink:href="#path-1"></use>
        </mask>
        <g fill-rule="nonzero"></g>
        <g id="🎨-color" mask="url(#mask-2)" fill="#000000">
            <rect id="🎨-Color" x="0" y="0" width="24" height="24"></rect>
        </g>
    </g>
</svg>