<?xml version="1.0" encoding="UTF-8"?>
<svg width="24px" height="24px" viewBox="0 0 24 24" version="1.1" xmlns="http://www.w3.org/2000/svg" xmlns:xlink="http://www.w3.org/1999/xlink">
    <!-- Generator: Sketch 52.5 (67469) - http://www.bohemiancoding.com/sketch -->
    <title>clipboard-check</title>
    <desc>Created with Sketch.</desc>
    <defs>
        <path d="M17.625,4.49999996 L14.5,4.49999996 C14.5,3.12109371 13.3789063,1.99999995 12,1.99999995 C10.6210937,1.99999995 9.49999999,3.12109371 9.49999999,4.49999996 L6.37499997,4.49999996 C5.33984372,4.49999996 4.49999996,5.33984372 4.49999996,6.37499997 L4.49999996,20.125 C4.49999996,21.1601563 5.33984372,22.0000001 6.37499997,22.0000001 L17.625,22.0000001 C18.6601563,22.0000001 19.5,21.1601563 19.5,20.125 L19.5,6.37499997 C19.5,5.33984372 18.6601563,4.49999996 17.625,4.49999996 Z M12,3.56249996 C12.5195313,3.56249996 12.9375,3.98046871 12.9375,4.49999996 C12.9375,5.01953122 12.5195313,5.43749997 12,5.43749997 C11.4804687,5.43749997 11.0625,5.01953122 11.0625,4.49999996 C11.0625,3.98046871 11.4804687,3.56249996 12,3.56249996 Z M16.734375,12.6171875 L11.1484375,18.15625 C10.9648437,18.3398438 10.6679687,18.3359375 10.484375,18.1523438 L7.25781248,14.8984375 C7.07421873,14.7148438 7.07812498,14.4179688 7.26171873,14.234375 L8.37109373,13.1328125 C8.55468748,12.9492188 8.85156248,12.953125 9.03515624,13.1367188 L10.8320312,14.9492188 L14.9726563,10.8398437 C15.15625,10.65625 15.453125,10.6601562 15.6367188,10.84375 L16.7382813,11.953125 C16.921875,12.140625 16.9179688,12.4335938 16.734375,12.6171875 Z" id="path-1"></path>
    </defs>
    <g id="clipboard-check" stroke="none" stroke-width="1" fill="none" fill-rule="evenodd">
        <mask id="mask-2" fill="white">
            <use xlink:href="#path-1"></use>
        </mask>
        <g fill-rule="nonzero"></g>
        <g id="🎨-color" mask="url(#mask-2)" fill="#000000">
            <rect id="🎨-Color" x="0" y="0" width="24" height="24"></rect>
        </g>
    </g>
</svg>