<?xml version="1.0" encoding="UTF-8"?>
<svg width="24px" height="24px" viewBox="0 0 24 24" version="1.1" xmlns="http://www.w3.org/2000/svg" xmlns:xlink="http://www.w3.org/1999/xlink">
    <!-- Generator: Sketch 52.5 (67469) - http://www.bohemiancoding.com/sketch -->
    <title>clock</title>
    <desc>Created with Sketch.</desc>
    <defs>
        <path d="M12,2.31249995 C6.64843747,2.31249995 2.31249995,6.64843747 2.31249995,12 C2.31249995,17.3515625 6.64843747,21.6875 12,21.6875 C17.3515625,21.6875 21.6875,17.3515625 21.6875,12 C21.6875,6.64843747 17.3515625,2.31249995 12,2.31249995 Z M12,19.8125 C7.68359373,19.8125 4.18749996,16.3164063 4.18749996,12 C4.18749996,7.68359373 7.68359373,4.18749996 12,4.18749996 C16.3164063,4.18749996 19.8125,7.68359373 19.8125,12 C19.8125,16.3164063 16.3164063,19.8125 12,19.8125 Z M14.4140625,15.734375 L11.0976562,13.3242188 C10.9765625,13.234375 10.90625,13.09375 10.90625,12.9453125 L10.90625,6.53124997 C10.90625,6.27343747 11.1171875,6.06249997 11.375,6.06249997 L12.625,6.06249997 C12.8828125,6.06249997 13.09375,6.27343747 13.09375,6.53124997 L13.09375,12.0664063 L15.703125,13.9648438 C15.9140625,14.1171875 15.9570313,14.4101563 15.8046875,14.6210938 L15.0703125,15.6328125 C14.9179688,15.8398438 14.625,15.8867188 14.4140625,15.734375 Z" id="path-1"></path>
    </defs>
    <g id="clock" stroke="none" stroke-width="1" fill="none" fill-rule="evenodd">
        <mask id="mask-2" fill="white">
            <use xlink:href="#path-1"></use>
        </mask>
        <g fill-rule="nonzero"></g>
        <g id="🎨-color" mask="url(#mask-2)" fill="#000000">
            <rect id="🎨-Color" x="0" y="0" width="24" height="24"></rect>
        </g>
    </g>
</svg>