<?xml version="1.0" encoding="UTF-8"?>
<svg width="24px" height="24px" viewBox="0 0 24 24" version="1.1" xmlns="http://www.w3.org/2000/svg" xmlns:xlink="http://www.w3.org/1999/xlink">
    <!-- Generator: Sketch 52.5 (67469) - http://www.bohemiancoding.com/sketch -->
    <title>clone</title>
    <desc>Created with Sketch.</desc>
    <defs>
        <path d="M20.125,1.99999995 L7.62499998,1.99999995 C6.5894531,1.99999995 5.74999997,2.83945308 5.74999997,3.87499996 L5.74999997,5.74999997 L3.87499996,5.74999997 C2.83945308,5.74999997 1.99999995,6.5894531 1.99999995,7.62499998 L1.99999995,20.125 C1.99999995,21.1605469 2.83945308,22.0000001 3.87499996,22.0000001 L16.375,22.0000001 C17.4105469,22.0000001 18.25,21.1605469 18.25,20.125 L18.25,18.25 L20.125,18.25 C21.1605469,18.25 22.0000001,17.4105469 22.0000001,16.375 L22.0000001,3.87499996 C22.0000001,2.83945308 21.1605469,1.99999995 20.125,1.99999995 Z M16.140625,20.125 L4.10937496,20.125 C3.97993322,20.125 3.87499996,20.0200668 3.87499996,19.890625 L3.87499996,7.85937498 C3.87499996,7.72993324 3.97993322,7.62499998 4.10937496,7.62499998 L5.74999997,7.62499998 L5.74999997,16.375 C5.74999997,17.4105469 6.5894531,18.25 7.62499998,18.25 L16.375,18.25 L16.375,19.890625 C16.375,20.0200668 16.2700668,20.125 16.140625,20.125 Z M19.890625,16.375 L7.85937498,16.375 C7.72993324,16.375 7.62499998,16.2700668 7.62499998,16.140625 L7.62499998,4.10937496 C7.62499998,3.97993322 7.72993324,3.87499996 7.85937498,3.87499996 L19.890625,3.87499996 C20.0200668,3.87499996 20.125,3.97993322 20.125,4.10937496 L20.125,16.140625 C20.125,16.2700668 20.0200668,16.375 19.890625,16.375 Z" id="path-1"></path>
    </defs>
    <g id="clone" stroke="none" stroke-width="1" fill="none" fill-rule="evenodd">
        <mask id="mask-2" fill="white">
            <use xlink:href="#path-1"></use>
        </mask>
        <g fill-rule="nonzero"></g>
        <g id="🎨-color" mask="url(#mask-2)" fill="#000000">
            <rect id="🎨-Color" x="0" y="0" width="24" height="24"></rect>
        </g>
    </g>
</svg>