<?xml version="1.0" encoding="UTF-8"?>
<svg width="24px" height="24px" viewBox="0 0 24 24" version="1.1" xmlns="http://www.w3.org/2000/svg" xmlns:xlink="http://www.w3.org/1999/xlink">
    <!-- Generator: Sketch 52.5 (67469) - http://www.bohemiancoding.com/sketch -->
    <title>closed-captioning</title>
    <desc>Created with Sketch.</desc>
    <defs>
        <path d="M20.125,4.49999996 L3.87499996,4.49999996 C2.8398437,4.49999996 1.99999995,5.33984372 1.99999995,6.37499997 L1.99999995,17.625 C1.99999995,18.6601563 2.8398437,19.5 3.87499996,19.5 L20.125,19.5 C21.1601563,19.5 22.0000001,18.6601563 22.0000001,17.625 L22.0000001,6.37499997 C22.0000001,5.33984372 21.1601563,4.49999996 20.125,4.49999996 Z M19.890625,17.625 L4.10937496,17.625 C3.98046871,17.625 3.87499996,17.5195313 3.87499996,17.390625 L3.87499996,6.60937497 C3.87499996,6.48046872 3.98046871,6.37499997 4.10937496,6.37499997 L19.890625,6.37499997 C20.0195313,6.37499997 20.125,6.48046872 20.125,6.60937497 L20.125,17.390625 C20.125,17.5195313 20.0195313,17.625 19.890625,17.625 Z M11.6445312,14.2773438 C11.7109375,14.3710938 11.703125,14.4960938 11.625,14.578125 C9.53124999,16.796875 4.87499996,15.8320313 4.87499996,11.9257812 C4.87499996,8.12499998 9.62890624,7.25781248 11.6132812,9.18749999 C11.6953125,9.26562499 11.7109375,9.31249999 11.6523437,9.41015624 L10.96875,10.6015625 C10.8945312,10.7226562 10.7265625,10.7578125 10.6132812,10.6679687 C9.01953124,9.41796874 6.91796872,10.0859375 6.91796872,11.8867187 C6.91796872,13.7617188 8.91015623,14.640625 10.5195312,13.1601563 C10.6289062,13.0625 10.796875,13.078125 10.8789062,13.1953125 L11.6445312,14.2773438 Z M19.0820313,14.2773438 C19.1484375,14.3710938 19.140625,14.4960938 19.0625,14.578125 C16.96875,16.8007813 12.3125,15.8320313 12.3125,11.9257812 C12.3125,8.12499998 17.0664063,7.25781248 19.0507813,9.18749999 C19.1328125,9.26562499 19.1484375,9.31249999 19.0898438,9.41015624 L18.40625,10.6015625 C18.3320313,10.7226562 18.1640625,10.7578125 18.0507813,10.6679687 C16.4570313,9.41796874 14.3554688,10.0859375 14.3554688,11.8867187 C14.3554688,13.7617188 16.3476563,14.640625 17.9570313,13.1601563 C18.0664063,13.0625 18.234375,13.078125 18.3164063,13.1953125 L19.0820313,14.2773438 Z" id="path-1"></path>
    </defs>
    <g id="closed-captioning" stroke="none" stroke-width="1" fill="none" fill-rule="evenodd">
        <mask id="mask-2" fill="white">
            <use xlink:href="#path-1"></use>
        </mask>
        <g fill-rule="nonzero"></g>
        <g id="🎨-color" mask="url(#mask-2)" fill="#000000">
            <rect id="🎨-Color" x="0" y="0" width="24" height="24"></rect>
        </g>
    </g>
</svg>