<?xml version="1.0" encoding="UTF-8"?>
<svg width="24px" height="24px" viewBox="0 0 24 24" version="1.1" xmlns="http://www.w3.org/2000/svg" xmlns:xlink="http://www.w3.org/1999/xlink">
    <!-- Generator: Sketch 52.5 (67469) - http://www.bohemiancoding.com/sketch -->
    <title>cloud-moon-rain</title>
    <desc>Created with Sketch.</desc>
    <defs>
        <path d="M14.1701389,10.9409722 C13.9305556,9.64930554 12.8055556,8.66666665 11.4444444,8.66666665 C11.0173611,8.66666665 10.6145833,8.77083332 10.2534722,8.94444443 C9.64930554,8.10763887 8.67013887,7.55555553 7.55555553,7.55555553 C5.71527775,7.55555553 4.22222218,9.0486111 4.22222218,10.8888889 C4.22222218,10.90625 4.22916663,10.9270833 4.22916663,10.9444444 C2.95833329,11.1979167 1.99999995,12.3194444 1.99999995,13.6666667 C1.99999995,15.2013889 3.24305551,16.4444445 4.77777774,16.4444445 L13.6666667,16.4444445 C15.2013889,16.4444445 16.4444445,15.2013889 16.4444445,13.6666667 C16.4444445,12.3055556 15.4652778,11.1770833 14.1701389,10.9409722 Z M21.71875,10.8819444 C19.2743056,11.34375 17.03125,9.48263888 17.03125,7.0347222 C17.03125,5.62499997 17.7916667,4.32638885 19.0277778,3.62847218 C19.21875,3.52083329 19.1701389,3.23263885 18.9548611,3.1944444 C18.6527778,3.13888884 18.34375,3.11111107 18.0347223,3.11111107 C15.3298611,3.11111107 13.1354167,5.23611108 13.0208333,7.89930554 C13.9479167,8.31249998 14.6944445,9.07291665 15.0659722,10.0416667 C16.3541667,10.5381944 17.2881945,11.6875 17.5034722,13.0555556 C17.6805556,13.0729167 17.8506945,13.1076389 18.03125,13.1076389 C19.5833334,13.1076389 21.0034723,12.40625 21.9409723,11.2569444 C22.0868056,11.0902778 21.9340278,10.8402778 21.71875,10.8819444 Z M14.65625,17.6284723 C14.3923611,17.4791667 14.0520833,17.5659723 13.8993056,17.8368056 L12.6284722,20.0590278 C12.4756944,20.3263889 12.5694444,20.6631945 12.8368056,20.8159723 C12.9236111,20.8645834 13.0173611,20.8888889 13.1111111,20.8888889 C13.3020833,20.8888889 13.4895833,20.7881945 13.59375,20.6076389 L14.8645833,18.3854167 C15.0138889,18.1180556 14.9236111,17.78125 14.65625,17.6284723 Z M11.3229167,17.6284723 C11.0590278,17.4791667 10.71875,17.5659723 10.5659722,17.8368056 L9.29513888,20.0590278 C9.1423611,20.3263889 9.2361111,20.6631945 9.50347221,20.8159723 C9.59027777,20.8645834 9.68402777,20.8888889 9.77777777,20.8888889 C9.96874999,20.8888889 10.15625,20.7881945 10.2604167,20.6076389 L11.53125,18.3854167 C11.6805556,18.1180556 11.5902778,17.78125 11.3229167,17.6284723 Z M7.98958331,17.6284723 C7.72569442,17.4791667 7.38541664,17.5659723 7.23263887,17.8368056 L5.96180553,20.0590278 C5.80902775,20.3263889 5.90277775,20.6631945 6.17013886,20.8159723 C6.25694442,20.8645834 6.35069442,20.8888889 6.44444442,20.8888889 C6.63541664,20.8888889 6.82291664,20.7881945 6.92708331,20.6076389 L8.19791665,18.3854167 C8.3472222,18.1180556 8.25694443,17.78125 7.98958331,17.6284723 Z M4.65624996,17.6284723 C4.39236107,17.4791667 4.05208329,17.5659723 3.89930552,17.8368056 L2.62847218,20.0590278 C2.4756944,20.3263889 2.5694444,20.6631945 2.83680551,20.8159723 C2.92361107,20.8645834 3.01736107,20.8888889 3.11111107,20.8888889 C3.30208329,20.8888889 3.48958329,20.7881945 3.59374996,20.6076389 L4.8645833,18.3854167 C5.01388885,18.1180556 4.92361108,17.78125 4.65624996,17.6284723 Z" id="path-1"></path>
    </defs>
    <g id="cloud-moon-rain" stroke="none" stroke-width="1" fill="none" fill-rule="evenodd">
        <mask id="mask-2" fill="white">
            <use xlink:href="#path-1"></use>
        </mask>
        <g fill-rule="nonzero"></g>
        <g id="🎨-color" mask="url(#mask-2)" fill="#000000">
            <rect id="🎨-Color" x="0" y="0" width="24" height="24"></rect>
        </g>
    </g>
</svg>