<?xml version="1.0" encoding="UTF-8"?>
<svg width="24px" height="24px" viewBox="0 0 24 24" version="1.1" xmlns="http://www.w3.org/2000/svg" xmlns:xlink="http://www.w3.org/1999/xlink">
    <!-- Generator: Sketch 52.5 (67469) - http://www.bohemiancoding.com/sketch -->
    <title>cloudversify</title>
    <desc>Created with Sketch.</desc>
    <defs>
        <path d="M6.8246753,13.5584416 C7.09090907,15.7824676 9.012987,17.3084416 11.5649351,17.1720779 C13.2272727,18.5779221 16.0064935,18.6590909 17.6168831,16.9902598 C19.8636364,17.0259741 21.4642858,15.5422078 21.8863637,13.7597403 C22.3668832,11.7305195 21.2954546,9.4577922 18.8961039,8.72402596 C17.8246754,5.86363633 14.6298701,5.4285714 12.8409091,5.96428568 C10.9805195,6.525974 10.1038961,7.69155842 9.6168831,9.52597401 C9.36363635,9.61363635 8.75649349,9.81493505 8.15584414,10.3084415 C8.53571427,10.3084415 8.64935063,10.5974026 8.64935063,10.9415584 L8.64935063,11.6038961 C8.64935063,11.9512987 8.3668831,12.237013 8.01623375,12.237013 L7.36038959,12.237013 C7.01298699,12.237013 6.7272727,12.0422078 6.7272727,11.6948052 L6.7272727,11.4805195 L5.20779217,11.4805195 C5.08441555,11.4805195 4.85714282,11.6201299 4.85714282,11.8668831 L4.85714282,13.1785714 C4.85714282,13.3863636 5.02922074,13.5616883 5.23701295,13.5616883 L6.8246753,13.5616883 L6.8246753,13.5584416 Z M14.2077922,13.8181818 C13.8603896,15.3214286 14.9123377,16.1688312 16.0032468,16.6363637 C12.5227273,17.7337663 10.4318182,14.987013 11.6103896,13.038961 C10.5324675,13.7402597 10.5162338,15.3506494 10.6623377,16.0551948 C10.0811688,15.6525974 8.9155844,15.0032468 8.79870128,13.4642857 C8.70129868,12.1688312 9.49675323,11.0064935 10.6493506,10.4155844 C11.6428571,9.90259739 14.0097403,10.1396104 14.987013,11.7402597 C14.5292208,10.1818182 13.2402597,9.4642857 11.6818182,9.3116883 C12.6850649,8.31493505 13.7727273,7.67857141 15.3896104,7.89285712 C17.6558442,8.19480518 19.7142858,10.5811688 17.5876624,12.7792208 C18.724026,12.25 19.1688312,11.012987 19.1298702,10.2824675 L19.4707793,10.9188312 C19.8538961,11.6331169 19.9642858,12.4642857 19.7759741,13.2564935 C19.4772728,14.5227273 18.4577922,15.4902598 17.1883117,15.7402598 C16.1461039,15.9448052 14.4902598,15.5746753 14.2077922,13.8181818 Z M6.15584413,10.4415584 L4.86363633,10.4415584 C4.57467529,10.4415584 4.3376623,10.2045454 4.3376623,9.91558441 L4.3376623,8.62987011 C4.3376623,8.34090907 4.57467529,8.10389608 4.86363633,8.10389608 L6.15584413,8.10389608 C6.44480517,8.10389608 6.68181816,8.34090907 6.68181816,8.62987011 L6.68181816,9.91558441 C6.68181816,10.2045454 6.44480517,10.4415584 6.15584413,10.4415584 Z M2.32792203,9.14285713 C2.14610385,9.14285713 1.99999995,8.99675323 1.99999995,8.81493505 L1.99999995,7.91233764 C1.99999995,7.73051946 2.14610385,7.58441556 2.32792203,7.58441556 L3.22727268,7.58441556 C3.40584411,7.58441556 3.55519476,7.73051946 3.55519476,7.91233764 L3.55519476,8.81493505 C3.55519476,8.99675323 3.40909087,9.14285713 3.22727268,9.14285713 L2.32792203,9.14285713 Z M7.45454543,8.32142855 L7.45454543,7.62662335 C7.45454543,7.46103894 7.59090907,7.3246753 7.75649349,7.3246753 L8.45129868,7.3246753 C8.6168831,7.3246753 8.75324674,7.46103894 8.75324674,7.62662335 L8.75324674,8.32142855 C8.75324674,8.48701297 8.6168831,8.62337661 8.45129868,8.62337661 L7.75649349,8.62337661 C7.59090907,8.62337661 7.45454543,8.48701297 7.45454543,8.32142855 Z M3.81818178,11.3344156 L3.81818178,12.1461039 C3.81818178,12.3506494 3.65259736,12.5194805 3.44805191,12.5194805 L2.62987008,12.5194805 C2.42532463,12.5194805 2.25974021,12.3506494 2.25974021,12.1461039 L2.25974021,11.3344156 C2.25974021,11.1298701 2.42532463,10.961039 2.62987008,10.961039 L3.44480515,10.961039 C3.65259736,10.961039 3.81818178,11.1298701 3.81818178,11.3344156 Z" id="path-1"></path>
    </defs>
    <g id="cloudversify" stroke="none" stroke-width="1" fill="none" fill-rule="evenodd">
        <mask id="mask-2" fill="white">
            <use xlink:href="#path-1"></use>
        </mask>
        <g fill-rule="nonzero"></g>
        <g id="🎨-color" mask="url(#mask-2)" fill="#000000">
            <rect id="🎨-Color" x="0" y="0" width="24" height="24"></rect>
        </g>
    </g>
</svg>