<?xml version="1.0" encoding="UTF-8"?>
<svg width="24px" height="24px" viewBox="0 0 24 24" version="1.1" xmlns="http://www.w3.org/2000/svg" xmlns:xlink="http://www.w3.org/1999/xlink">
    <!-- Generator: Sketch 52.5 (67469) - http://www.bohemiancoding.com/sketch -->
    <title>cloud-sun</title>
    <desc>Created with Sketch.</desc>
    <defs>
        <path d="M19.975,14.1625 C19.98125,14.103125 20,14.046875 20,13.9875 C20,12.884375 19.103125,11.9875 18,11.9875 C17.60625,11.9875 17.24375,12.10625 16.934375,12.3 C16.384375,11.0875 15.16875,10.2375 13.75,10.2375 C11.81875,10.2375 10.25,11.803125 10.25,13.7375 C10.25,13.83125 10.271875,13.91875 10.278125,14.009375 C8.72812498,14.125 7.49999998,15.40625 7.49999998,16.9875 C7.49999998,18.64375 8.84374998,19.9875 10.5,19.9875 L19,19.9875 C20.65625,19.9875 22.0000001,18.64375 22.0000001,16.9875 C22.0000001,15.671875 21.15,14.56875 19.975,14.1625 Z M6.52499997,13.45625 C5.15937497,12.090625 5.15937497,9.87187499 6.52499997,8.50937498 C7.89062498,7.14374998 10.109375,7.14374998 11.475,8.50937498 C11.778125,8.81249998 12.003125,9.16249999 12.171875,9.53124999 C12.478125,9.41562499 12.8,9.34374999 13.13125,9.29687499 L14.0625,6.51874997 C14.1875,6.14687497 13.834375,5.79687497 13.4625,5.91874997 L10.71875,6.83437497 L9.42187499,4.24687496 C9.24999999,3.89687496 8.74999998,3.89687496 8.57499998,4.24687496 L7.28124998,6.83437497 L4.53437496,5.91874997 C4.16562496,5.79687497 3.81249996,6.14999997 3.93437496,6.51874997 L4.84999996,9.26249999 L2.26249995,10.559375 C1.91249995,10.734375 1.91249995,11.23125 2.26249995,11.40625 L4.84999996,12.7 L3.93437496,15.44375 C3.80937496,15.815625 4.16249996,16.165625 4.53437496,16.04375 L6.91249997,15.253125 C7.10312498,14.865625 7.34999998,14.5125 7.64999998,14.20625 C7.24062498,14.0375 6.85624997,13.7875 6.52499997,13.45625 Z M6.37499997,10.98125 C6.37499997,12.25625 7.29062498,13.31875 8.49687498,13.553125 C8.74687498,13.40625 9.00624999,13.278125 9.28437499,13.1875 C9.45312499,11.803125 10.253125,10.609375 11.390625,9.90624999 C10.978125,8.99687498 10.0625,8.35937498 8.99999999,8.35937498 C7.55312498,8.35937498 6.37499997,9.53437499 6.37499997,10.98125 Z" id="path-1"></path>
    </defs>
    <g id="cloud-sun" stroke="none" stroke-width="1" fill="none" fill-rule="evenodd">
        <mask id="mask-2" fill="white">
            <use xlink:href="#path-1"></use>
        </mask>
        <g fill-rule="nonzero"></g>
        <g id="🎨-color" mask="url(#mask-2)" fill="#000000">
            <rect id="🎨-Color" x="0" y="0" width="24" height="24"></rect>
        </g>
    </g>
</svg>