<?xml version="1.0" encoding="UTF-8"?>
<svg width="24px" height="24px" viewBox="0 0 24 24" version="1.1" xmlns="http://www.w3.org/2000/svg" xmlns:xlink="http://www.w3.org/1999/xlink">
    <!-- Generator: Sketch 52.5 (67469) - http://www.bohemiancoding.com/sketch -->
    <title>cloud-moon</title>
    <desc>Created with Sketch.</desc>
    <defs>
        <path d="M13.8821491,15.3518198 C14.0797227,15.0190641 14.2010399,14.6343154 14.2010399,14.2183709 C14.2010399,12.9948007 13.2062392,12 11.982669,12 C11.3864818,12 10.8457539,12.2391681 10.4471404,12.6204506 C9.88214904,11.5944541 8.80069322,10.8908146 7.54592719,10.8908146 C5.70883879,10.8908146 4.21837084,12.3812825 4.21837084,14.2183709 C4.21837084,14.287695 4.23570187,14.3500867 4.23916807,14.4159446 C2.93934138,14.8700173 1.99999995,16.0935875 1.99999995,17.5459272 C1.99999995,19.3830156 3.4904679,20.8734836 5.32755629,20.8734836 L13.6464471,20.8734836 C15.1785095,20.8734836 16.4194108,19.6325824 16.4194108,18.10052 C16.4194108,16.6481803 15.2998267,15.4731369 13.8821491,15.3518198 Z M21.5944541,13.4696707 C18.3674177,14.0831889 15.407279,11.6083189 15.407279,8.35008664 C15.407279,6.47140379 16.4124784,4.74523393 18.0450607,3.81629112 C18.2980936,3.67417673 18.2322357,3.29289424 17.948007,3.23743496 C17.542461,3.16464467 17.1369151,3.12651642 16.7313692,3.12651642 C13.0606586,3.12651642 10.0797227,6.10398611 10.0797227,9.78162911 C10.0797227,10.0762565 10.1039861,10.3639515 10.1421144,10.6481802 C10.3466204,10.797227 10.5441941,10.9566724 10.7209705,11.1403813 C11.1161178,10.9774697 11.542461,10.8908146 11.982669,10.8908146 C13.8162912,10.8908146 15.3102253,12.3847487 15.3102253,14.2183709 C15.3102253,14.3431543 15.3032929,14.4679376 15.2894281,14.5892548 C16.1074524,14.9636049 16.7590988,15.6117851 17.1438475,16.4124784 C19.0294628,16.2946274 20.7383016,15.3968804 21.8960139,13.9722704 C22.0797228,13.7469671 21.8786829,13.4142114 21.5944541,13.4696707 Z" id="path-1"></path>
    </defs>
    <g id="cloud-moon" stroke="none" stroke-width="1" fill="none" fill-rule="evenodd">
        <mask id="mask-2" fill="white">
            <use xlink:href="#path-1"></use>
        </mask>
        <g fill-rule="nonzero"></g>
        <g id="🎨-color" mask="url(#mask-2)" fill="#000000">
            <rect id="🎨-Color" x="0" y="0" width="24" height="24"></rect>
        </g>
    </g>
</svg>