<?xml version="1.0" encoding="UTF-8"?>
<svg width="24px" height="24px" viewBox="0 0 24 24" version="1.1" xmlns="http://www.w3.org/2000/svg" xmlns:xlink="http://www.w3.org/1999/xlink">
    <!-- Generator: Sketch 52.5 (67469) - http://www.bohemiancoding.com/sketch -->
    <title>cloud-meatball</title>
    <desc>Created with Sketch.</desc>
    <defs>
        <path d="M3.87499996,15.75 C2.8398437,15.75 1.99999995,16.5898438 1.99999995,17.625 C1.99999995,18.6601563 2.8398437,19.5 3.87499996,19.5 C4.91015621,19.5 5.74999997,18.6601563 5.74999997,17.625 C5.74999997,16.5898438 4.91015621,15.75 3.87499996,15.75 Z M20.125,15.75 C19.0898438,15.75 18.25,16.5898438 18.25,17.625 C18.25,18.6601563 19.0898438,19.5 20.125,19.5 C21.1601563,19.5 22.0000001,18.6601563 22.0000001,17.625 C22.0000001,16.5898438 21.1601563,15.75 20.125,15.75 Z M15.4765625,16.1835938 C15.65625,15.6171875 15.5390625,14.9804688 15.09375,14.53125 C14.6445313,14.0820313 14.0078125,13.96875 13.4414063,14.1445313 C13.1679688,13.6171875 12.6328125,13.2460938 12,13.2460938 C11.3671875,13.2460938 10.8320312,13.6171875 10.5585937,14.1445313 C9.99218749,13.9648438 9.35546874,14.0820313 8.90624998,14.53125 C8.45703123,14.9804688 8.34374998,15.6171875 8.51953123,16.1835938 C7.99218748,16.4570313 7.62109373,16.9921875 7.62109373,17.625 C7.62109373,18.2578125 7.99218748,18.7929688 8.51953123,19.0664063 C8.33984373,19.6328125 8.45703123,20.2695313 8.90624998,20.71875 C9.22656249,21.0390625 9.64453124,21.1992188 10.0664062,21.1992188 C10.234375,21.1992188 10.3984375,21.15625 10.5585937,21.1015625 C10.8320312,21.6289063 11.3671875,22.0000001 12,22.0000001 C12.6328125,22.0000001 13.1679688,21.6289063 13.4414063,21.1015625 C13.6015625,21.1523438 13.765625,21.1992188 13.9335938,21.1992188 C14.3554688,21.1992188 14.7734375,21.0390625 15.09375,20.71875 C15.5429688,20.2695313 15.65625,19.6328125 15.4765625,19.0664063 C16.0039063,18.7929688 16.375,18.2578125 16.375,17.625 C16.375,16.9921875 16.0039063,16.4570313 15.4765625,16.1835938 Z M22.0000001,10.75 C22.0000001,8.67968748 20.3203125,6.99999997 18.25,6.99999997 C18.2265625,6.99999997 18.2070313,7.00781248 18.1875,7.00781248 C18.2304688,6.80468747 18.25,6.59374997 18.25,6.37499997 C18.25,4.64843746 16.8515625,3.24999996 15.125,3.24999996 C14.1640625,3.24999996 13.3164063,3.69140621 12.7421875,4.37499996 C12.015625,2.96874995 10.5664062,1.99999995 8.87499998,1.99999995 C6.45703122,1.99999995 4.49999996,3.95703121 4.49999996,6.37499997 C4.49999996,6.66015622 4.53124996,6.93359372 4.58203121,7.20312498 C3.08593746,7.69531248 1.99999995,9.08984374 1.99999995,10.75 C1.99999995,12.8203125 3.67968746,14.5 5.74999997,14.5 L7.44531248,14.5 C7.58593748,14.1875 7.77343748,13.8984375 8.02343748,13.6484375 C8.55078123,13.1210938 9.25390624,12.8242188 10.0078125,12.8164063 C10.5351562,12.3007813 11.2460937,12 12,12 C12.7539063,12 13.4648438,12.3007813 13.9921875,12.8164063 C14.7460938,12.8242188 15.4492188,13.1210938 15.9765625,13.6484375 C16.2265625,13.8984375 16.4179688,14.1875 16.5546875,14.5 L18.25,14.5 C20.3203125,14.5 22.0000001,12.8203125 22.0000001,10.75 Z" id="path-1"></path>
    </defs>
    <g id="cloud-meatball" stroke="none" stroke-width="1" fill="none" fill-rule="evenodd">
        <mask id="mask-2" fill="white">
            <use xlink:href="#path-1"></use>
        </mask>
        <g fill-rule="nonzero"></g>
        <g id="🎨-color" mask="url(#mask-2)" fill="#000000">
            <rect id="🎨-Color" x="0" y="0" width="24" height="24"></rect>
        </g>
    </g>
</svg>