<?xml version="1.0" encoding="UTF-8"?>
<svg width="24px" height="24px" viewBox="0 0 24 24" version="1.1" xmlns="http://www.w3.org/2000/svg" xmlns:xlink="http://www.w3.org/1999/xlink">
    <!-- Generator: Sketch 52.5 (67469) - http://www.bohemiancoding.com/sketch -->
    <title>cloud-sun-rain</title>
    <desc>Created with Sketch.</desc>
    <defs>
        <path d="M19.7256945,10.9409722 C19.4861111,9.64930554 18.3611111,8.66666665 17,8.66666665 C16.5729167,8.66666665 16.1701389,8.77083332 15.8090278,8.94444443 C15.2048611,8.10763887 14.2256945,7.55555553 13.1111111,7.55555553 C11.2708333,7.55555553 9.77777777,9.0486111 9.77777777,10.8888889 C9.77777777,10.90625 9.78472221,10.9270833 9.78472221,10.9444444 C8.51388887,11.2013889 7.55555553,12.3194444 7.55555553,13.6666667 C7.55555553,15.2013889 8.7986111,16.4444445 10.3333333,16.4444445 L19.2222223,16.4444445 C20.7569445,16.4444445 22,15.2013889 22,13.6666667 C22,12.3055556 21.0208334,11.1770833 19.7256945,10.9409722 Z M6.30902775,12.1354167 C5.01041663,10.8368055 5.01041663,8.72222221 6.30902775,7.42013887 C7.51041664,6.21874997 9.40277776,6.14236108 10.7083333,7.16319442 C11.4027778,6.71527775 12.2222222,6.44444442 13.1111111,6.44444442 C13.1354167,6.44444442 13.15625,6.45138886 13.1805556,6.45138886 L13.4895833,5.52430552 C13.6076389,5.17013885 13.2708333,4.83680552 12.9166667,4.95486108 L10.3020833,5.82638886 L9.06944443,3.36111107 C8.90277776,3.02777773 8.42708332,3.02777773 8.26041665,3.36111107 L7.02777775,5.82638886 L4.41319441,4.95486108 C4.05902774,4.83680552 3.7256944,5.17361108 3.84374996,5.52777775 L4.71527774,8.14236109 L2.24999995,9.37499999 C1.91666662,9.54166665 1.91666662,10.0173611 2.24999995,10.1840278 L4.71527774,11.4166667 L3.84374996,14.03125 C3.7256944,14.3854167 4.06249996,14.71875 4.41666663,14.6041667 L6.47222219,13.9201389 C6.46527775,13.8368056 6.44791664,13.7569445 6.44791664,13.6701389 C6.44791664,13.2361111 6.52777775,12.8194444 6.66319442,12.4236111 C6.53819442,12.3298611 6.41666664,12.2430556 6.30902775,12.1354167 Z M8.73263887,10.1215278 C8.88194443,9.27083332 9.28124999,8.51041665 9.84027777,7.89930554 C9.49999999,7.68402776 9.09722221,7.55555553 8.66666665,7.55555553 C7.4409722,7.55555553 6.44444442,8.55208332 6.44444442,9.77777777 C6.44444442,10.4270833 6.72916664,11.0069444 7.17708331,11.4131944 C7.56944442,10.8611111 8.10069442,10.4097222 8.73263887,10.1215278 Z M20.2118056,17.6284723 C19.9479167,17.4791667 19.6076389,17.5659723 19.4548611,17.8368056 L18.1840278,20.0590278 C18.03125,20.3263889 18.125,20.6631945 18.3923611,20.8159723 C18.4791667,20.8645834 18.5729167,20.8888889 18.6666667,20.8888889 C18.8576389,20.8888889 19.0451389,20.7881945 19.1493056,20.6076389 L20.4201389,18.3854167 C20.5694445,18.1180556 20.4791667,17.78125 20.2118056,17.6284723 Z M16.8784722,17.6284723 C16.6145834,17.4791667 16.2743056,17.5659723 16.1215278,17.8368056 L14.8506945,20.0590278 C14.6979167,20.3263889 14.7916667,20.6631945 15.0590278,20.8159723 C15.1458333,20.8645834 15.2395833,20.8888889 15.3333333,20.8888889 C15.5243056,20.8888889 15.7118056,20.7881945 15.8159722,20.6076389 L17.0868056,18.3854167 C17.2361111,18.1180556 17.1458334,17.78125 16.8784722,17.6284723 Z M13.5451389,17.6284723 C13.28125,17.4791667 12.9409722,17.5659723 12.7881944,17.8368056 L11.5173611,20.0590278 C11.3645833,20.3263889 11.4583333,20.6631945 11.7256944,20.8159723 C11.8125,20.8645834 11.90625,20.8888889 12,20.8888889 C12.1909722,20.8888889 12.3784722,20.7881945 12.4826389,20.6076389 L13.7534722,18.3854167 C13.9027778,18.1180556 13.8125,17.78125 13.5451389,17.6284723 Z M10.2118055,17.6284723 C9.94791666,17.4791667 9.60763888,17.5659723 9.4548611,17.8368056 L8.18402776,20.0590278 C8.03124998,20.3263889 8.12499998,20.6631945 8.39236109,20.8159723 C8.47916665,20.8645834 8.57291665,20.8888889 8.66666665,20.8888889 C8.85763887,20.8888889 9.04513887,20.7881945 9.14930554,20.6076389 L10.4201389,18.3854167 C10.5694444,18.1180556 10.4791667,17.78125 10.2118055,17.6284723 Z" id="path-1"></path>
    </defs>
    <g id="cloud-sun-rain" stroke="none" stroke-width="1" fill="none" fill-rule="evenodd">
        <mask id="mask-2" fill="white">
            <use xlink:href="#path-1"></use>
        </mask>
        <g fill-rule="nonzero"></g>
        <g id="🎨-color" mask="url(#mask-2)" fill="#000000">
            <rect id="🎨-Color" x="0" y="0" width="24" height="24"></rect>
        </g>
    </g>
</svg>