<?xml version="1.0" encoding="UTF-8"?>
<svg width="24px" height="24px" viewBox="0 0 24 24" version="1.1" xmlns="http://www.w3.org/2000/svg" xmlns:xlink="http://www.w3.org/1999/xlink">
    <!-- Generator: Sketch 52.5 (67469) - http://www.bohemiancoding.com/sketch -->
    <title>cloud</title>
    <desc>Created with Sketch.</desc>
    <defs>
        <path d="M18.8,11.08125 C18.928125,10.746875 19,10.38125 19,9.99999999 C19,8.34374998 17.65625,6.99999998 16,6.99999998 C15.384375,6.99999998 14.809375,7.18749998 14.334375,7.50624998 C13.46875,6.00624997 11.853125,4.99999997 9.99999999,4.99999997 C7.23749998,4.99999997 4.99999996,7.23749998 4.99999996,9.99999999 C4.99999996,10.084375 5.00312497,10.16875 5.00624997,10.253125 C3.25624996,10.86875 1.99999995,12.5375 1.99999995,14.5 C1.99999995,16.984375 4.01562496,19 6.49999997,19 L18,19 C20.209375,19 22.0000001,17.209375 22.0000001,15 C22.0000001,13.065625 20.625,11.45 18.8,11.08125 Z" id="path-1"></path>
    </defs>
    <g id="cloud" stroke="none" stroke-width="1" fill="none" fill-rule="evenodd">
        <mask id="mask-2" fill="white">
            <use xlink:href="#path-1"></use>
        </mask>
        <g></g>
        <g id="🎨-color" mask="url(#mask-2)" fill="#000000">
            <rect id="🎨-Color" x="0" y="0" width="24" height="24"></rect>
        </g>
    </g>
</svg>