<?xml version="1.0" encoding="UTF-8"?>
<svg width="24px" height="24px" viewBox="0 0 24 24" version="1.1" xmlns="http://www.w3.org/2000/svg" xmlns:xlink="http://www.w3.org/1999/xlink">
    <!-- Generator: Sketch 52.5 (67469) - http://www.bohemiancoding.com/sketch -->
    <title>cloudsmith</title>
    <desc>Created with Sketch.</desc>
    <defs>
        <path d="M18.484375,18.4023438 C18.484375,20.2148438 17.015625,21.6875 15.203125,21.6875 C13.390625,21.6875 11.921875,20.2148438 11.921875,18.4023438 C11.921875,16.5898438 13.390625,15.1210938 15.203125,15.1210938 C17.015625,15.1210938 18.484375,16.5898438 18.484375,18.4023438 Z M15.203125,8.87499998 C17.015625,8.87499998 18.328125,7.40624998 18.328125,5.59374997 C18.328125,3.78124996 17.015625,2.31249995 15.203125,2.31249995 C13.390625,2.31249995 11.765625,3.78124996 11.765625,5.59374997 C11.765625,7.40624998 10.609375,8.56249998 8.79687498,8.56249998 C6.98437497,8.56249998 5.51562497,10.1875 5.51562497,12 C5.51562497,13.8125 6.98437497,15.125 8.79687498,15.125 C10.609375,15.125 12.078125,13.8125 12.078125,12 C12.078125,10.1875 13.390625,8.87499998 15.203125,8.87499998 Z" id="path-1"></path>
    </defs>
    <g id="cloudsmith" stroke="none" stroke-width="1" fill="none" fill-rule="evenodd">
        <mask id="mask-2" fill="white">
            <use xlink:href="#path-1"></use>
        </mask>
        <g fill-rule="nonzero"></g>
        <g id="🎨-color" mask="url(#mask-2)" fill="#000000">
            <rect id="🎨-Color" x="0" y="0" width="24" height="24"></rect>
        </g>
    </g>
</svg>