<?xml version="1.0" encoding="UTF-8"?>
<svg width="24px" height="24px" viewBox="0 0 24 24" version="1.1" xmlns="http://www.w3.org/2000/svg" xmlns:xlink="http://www.w3.org/1999/xlink">
    <!-- Generator: Sketch 52.5 (67469) - http://www.bohemiancoding.com/sketch -->
    <title>cloudscale</title>
    <desc>Created with Sketch.</desc>
    <defs>
        <path d="M15.6757813,8.01562498 L15.3085938,8.31249998 C14.4296875,7.55859373 13.296875,6.99999997 12.0546875,6.99999997 C9.25781249,6.99999997 6.99999997,9.37499999 6.99999997,12.1679688 C6.99999997,12.4257813 7.01562498,12.6796875 7.05468748,12.9257813 C6.97656247,10.7382812 8.68749998,9.12109374 10.671875,9.12109374 C11.6171875,9.12109374 12.4765625,9.48828124 13.1171875,10.0859375 L12.1328125,10.8828125 C11.8085937,10.8476562 11.4765625,10.953125 11.2304687,11.1992187 C10.796875,11.6289062 10.796875,12.328125 11.2304687,12.7617188 C11.6640625,13.1914063 12.359375,13.1914063 12.7929688,12.7617188 C13.0390625,12.515625 13.1445313,12.1796875 13.109375,11.859375 L16.046875,8.39062498 C16.2929688,8.13671873 15.9179688,7.76953123 15.6757813,8.01562498 Z M12.4023438,12.3710938 C12.1835938,12.5859375 11.8320312,12.5859375 11.6132812,12.3710938 C11.3945312,12.1523438 11.3945312,11.8007812 11.6132812,11.5820312 C11.8320312,11.3632812 12.1835938,11.3632812 12.4023438,11.5820312 C12.6210938,11.8007812 12.6210938,12.15625 12.4023438,12.3710938 Z M12,3.24999996 C7.17578123,3.24999996 3.24999996,7.17578123 3.24999996,12 C3.24999996,16.8242188 7.17578123,20.75 12,20.75 C16.8242188,20.75 20.75,16.8242188 20.75,12 C20.75,7.17578123 16.8242188,3.24999996 12,3.24999996 Z M12,18.25 C8.55468748,18.25 5.74999997,15.4453125 5.74999997,12 C5.74999997,8.55468748 8.55468748,5.74999997 12,5.74999997 C15.4453125,5.74999997 18.25,8.55468748 18.25,12 C18.25,15.4453125 15.4453125,18.25 12,18.25 Z" id="path-1"></path>
    </defs>
    <g id="cloudscale" stroke="none" stroke-width="1" fill="none" fill-rule="evenodd">
        <mask id="mask-2" fill="white">
            <use xlink:href="#path-1"></use>
        </mask>
        <g fill-rule="nonzero"></g>
        <g id="🎨-color" mask="url(#mask-2)" fill="#000000">
            <rect id="🎨-Color" x="0" y="0" width="24" height="24"></rect>
        </g>
    </g>
</svg>