<?xml version="1.0" encoding="UTF-8"?>
<svg width="24px" height="24px" viewBox="0 0 24 24" version="1.1" xmlns="http://www.w3.org/2000/svg" xmlns:xlink="http://www.w3.org/1999/xlink">
    <!-- Generator: Sketch 52.5 (67469) - http://www.bohemiancoding.com/sketch -->
    <title>cloud-showers-heavy</title>
    <desc>Created with Sketch.</desc>
    <defs>
        <path d="M9.19455252,16.4396887 C8.89883267,16.2684825 8.51750971,16.3696498 8.34630348,16.6731518 L5.8560311,21.0311284 C5.68482487,21.3307393 5.78988324,21.7120623 6.08949413,21.8793775 C6.1867704,21.9338522 6.29182877,21.9610895 6.39688713,21.9610895 C6.61089491,21.9610895 6.82101165,21.8482491 6.93774317,21.6459144 L9.42801555,17.2879378 C9.59922178,16.9922179 9.49416341,16.610895 9.19455252,16.4396887 Z M12.9299611,16.4396887 C12.6342412,16.2684825 12.2529183,16.3696498 12.0817121,16.6731518 L9.59143968,21.0311284 C9.42023345,21.3307393 9.52529182,21.7120623 9.82490271,21.8793775 C9.92217898,21.9338522 10.0272373,21.9610895 10.1322957,21.9610895 C10.3463035,21.9610895 10.5564202,21.8482491 10.6731517,21.6459144 L13.1634241,17.2879378 C13.3346304,16.9922179 13.229572,16.610895 12.9299611,16.4396887 Z M5.45914394,16.4396887 C5.16342409,16.2684825 4.78210113,16.3696498 4.6108949,16.6731518 L2.12062252,21.0311284 C1.94941629,21.3307393 2.05447466,21.7120623 2.35408555,21.8793775 C2.45136182,21.9338522 2.55642019,21.9610895 2.66147855,21.9610895 C2.87548634,21.9610895 3.08560307,21.8482491 3.20233459,21.6459144 L5.69260697,17.2879378 C5.8638132,16.9922179 5.75875483,16.610895 5.45914394,16.4396887 Z M20.4007783,16.4396887 C20.1050584,16.2684825 19.7237354,16.3696498 19.5525292,16.6731518 L17.0622568,21.0311284 C16.8910506,21.3307393 16.996109,21.7120623 17.2957199,21.8793775 C17.3929961,21.9338522 17.4980545,21.9610895 17.6031129,21.9610895 C17.8171207,21.9610895 18.0272374,21.8482491 18.1439689,21.6459144 L20.6342413,17.2879378 C20.8054475,16.9922179 20.7003891,16.610895 20.4007783,16.4396887 Z M16.6653697,16.4396887 C16.3696498,16.2684825 15.9883269,16.3696498 15.8171206,16.6731518 L13.3268483,21.0311284 C13.155642,21.3307393 13.2607004,21.7120623 13.5603113,21.8793775 C13.6575876,21.9338522 13.7626459,21.9610895 13.8677043,21.9610895 C14.0817121,21.9610895 14.2918288,21.8482491 14.4085603,21.6459144 L16.8988327,17.2879378 C17.0700389,16.9922179 16.9649806,16.610895 16.6653697,16.4396887 Z M18.225681,7.01945523 C18.2023347,7.01945523 18.1828794,7.02723733 18.1634242,7.02723733 C18.2062257,6.8249027 18.225681,6.61478597 18.225681,6.39688713 C18.225681,4.67704276 16.8326848,3.28404665 15.1128405,3.28404665 C14.155642,3.28404665 13.3112841,3.72373537 12.7392996,4.40466922 C12.0155642,3.00389101 10.5719844,2.03891046 8.88715952,2.03891046 C6.48249024,2.03891046 4.52918284,3.98832681 4.52918284,6.39688713 C4.52918284,6.68093383 4.56031125,6.95330737 4.6108949,7.22178986 C3.12062252,7.71206224 2.03891046,9.1011673 2.03891046,10.7548638 C2.03891046,12.8171206 3.71206222,14.4902724 5.77431904,14.4902724 L18.225681,14.4902724 C20.2879378,14.4902724 21.9610895,12.8171206 21.9610895,10.7548638 C21.9610895,8.69260699 20.2879378,7.01945523 18.225681,7.01945523 Z" id="path-1"></path>
    </defs>
    <g id="cloud-showers-heavy" stroke="none" stroke-width="1" fill="none" fill-rule="evenodd">
        <mask id="mask-2" fill="white">
            <use xlink:href="#path-1"></use>
        </mask>
        <g fill-rule="nonzero"></g>
        <g id="🎨-color" mask="url(#mask-2)" fill="#000000">
            <rect id="🎨-Color" x="0" y="0" width="24" height="24"></rect>
        </g>
    </g>
</svg>