<?xml version="1.0" encoding="UTF-8"?>
<svg width="24px" height="24px" viewBox="0 0 24 24" version="1.1" xmlns="http://www.w3.org/2000/svg" xmlns:xlink="http://www.w3.org/1999/xlink">
    <!-- Generator: Sketch 52.5 (67469) - http://www.bohemiancoding.com/sketch -->
    <title>cloud-rain</title>
    <desc>Created with Sketch.</desc>
    <defs>
        <path d="M18.25,6.99999997 C18.2265625,6.99999997 18.2070313,7.00781248 18.1875,7.00781248 C18.2304688,6.80468747 18.25,6.59374997 18.25,6.37499997 C18.25,4.64843746 16.8515625,3.24999996 15.125,3.24999996 C14.1640625,3.24999996 13.3164063,3.69140621 12.7421875,4.37499996 C12.015625,2.96874995 10.5664062,1.99999995 8.87499998,1.99999995 C6.45703122,1.99999995 4.49999996,3.95703121 4.49999996,6.37499997 C4.49999996,6.66015622 4.53124996,6.93359372 4.58203121,7.20312498 C3.08593746,7.69531248 1.99999995,9.08984374 1.99999995,10.75 C1.99999995,12.8203125 3.67968746,14.5 5.74999997,14.5 L18.25,14.5 C20.3203125,14.5 22.0000001,12.8203125 22.0000001,10.75 C22.0000001,8.67968748 20.3203125,6.99999997 18.25,6.99999997 Z M5.43749997,16.6171875 C4.93749996,18.3515625 3.87499996,18.8203125 3.87499996,20.0429688 C3.87499996,21.125 4.71484371,22 5.74999997,22 C6.78515622,22 7.62499998,21.125 7.62499998,20.0429688 C7.62499998,18.8164063 6.56249997,18.359375 6.06249997,16.6171875 C5.97656247,16.3007813 5.53515622,16.2851563 5.43749997,16.6171875 Z M11.6875,16.6171875 C11.1875,18.3515625 10.125,18.8203125 10.125,20.0429688 C10.125,21.125 10.9648437,22 12,22 C13.0351563,22 13.875,21.125 13.875,20.0429688 C13.875,18.8164063 12.8125,18.359375 12.3125,16.6171875 C12.2265625,16.3007813 11.7851562,16.2851563 11.6875,16.6171875 Z M17.9375,16.6171875 C17.4375,18.3515625 16.375,18.8203125 16.375,20.0429688 C16.375,21.125 17.2148438,22 18.25,22 C19.2851563,22 20.125,21.125 20.125,20.0429688 C20.125,18.8164063 19.0625,18.359375 18.5625,16.6171875 C18.4765625,16.3007813 18.0351563,16.2851563 17.9375,16.6171875 Z" id="path-1"></path>
    </defs>
    <g id="cloud-rain" stroke="none" stroke-width="1" fill="none" fill-rule="evenodd">
        <mask id="mask-2" fill="white">
            <use xlink:href="#path-1"></use>
        </mask>
        <g fill-rule="nonzero"></g>
        <g id="🎨-color" mask="url(#mask-2)" fill="#000000">
            <rect id="🎨-Color" x="0" y="0" width="24" height="24"></rect>
        </g>
    </g>
</svg>