<?xml version="1.0" encoding="UTF-8"?>
<svg width="24px" height="24px" viewBox="0 0 24 24" version="1.1" xmlns="http://www.w3.org/2000/svg" xmlns:xlink="http://www.w3.org/1999/xlink">
    <!-- Generator: Sketch 52.5 (67469) - http://www.bohemiancoding.com/sketch -->
    <title>cloud-upload-alt</title>
    <desc>Created with Sketch.</desc>
    <defs>
        <path d="M18.8,11.08125 C18.928125,10.746875 19,10.38125 19,9.99999999 C19,8.34374998 17.65625,6.99999998 16,6.99999998 C15.384375,6.99999998 14.809375,7.18749998 14.334375,7.50624998 C13.46875,6.00624997 11.853125,4.99999997 9.99999999,4.99999997 C7.23749998,4.99999997 4.99999996,7.23749998 4.99999996,9.99999999 C4.99999996,10.084375 5.00312497,10.16875 5.00624997,10.253125 C3.25624996,10.86875 1.99999995,12.5375 1.99999995,14.5 C1.99999995,16.984375 4.01562496,19 6.49999997,19 L18,19 C20.209375,19 22.0000001,17.209375 22.0000001,15 C22.0000001,13.065625 20.625,11.45 18.8,11.08125 Z M14.29375,13 L12.25,13 L12.25,16.5 C12.25,16.775 12.025,17 11.75,17 L10.25,17 C9.97499999,17 9.74999999,16.775 9.74999999,16.5 L9.74999999,13 L7.70624998,13 C7.25937498,13 7.03749998,12.4625 7.35312498,12.146875 L10.646875,8.85312498 C10.840625,8.65937498 11.159375,8.65937498 11.353125,8.85312498 L14.646875,12.146875 C14.9625,12.4625 14.7375,13 14.29375,13 Z" id="path-1"></path>
    </defs>
    <g id="cloud-upload-alt" stroke="none" stroke-width="1" fill="none" fill-rule="evenodd">
        <mask id="mask-2" fill="white">
            <use xlink:href="#path-1"></use>
        </mask>
        <g fill-rule="nonzero"></g>
        <g id="🎨-color" mask="url(#mask-2)" fill="#000000">
            <rect id="🎨-Color" x="0" y="0" width="24" height="24"></rect>
        </g>
    </g>
</svg>