<?xml version="1.0" encoding="UTF-8"?>
<svg width="24px" height="24px" viewBox="0 0 24 24" version="1.1" xmlns="http://www.w3.org/2000/svg" xmlns:xlink="http://www.w3.org/1999/xlink">
    <!-- Generator: Sketch 52.5 (67469) - http://www.bohemiancoding.com/sketch -->
    <title>cocktail</title>
    <desc>Created with Sketch.</desc>
    <defs>
        <path d="M12.2946274,19.2097054 L10.3535529,19.2097054 L10.3535529,14.8693241 L16.2024264,9.02079721 C16.7403813,8.48284227 16.3594454,7.56325821 15.5986135,7.56325821 L2.89012127,7.56325821 C2.12928938,7.56325821 1.7483535,8.48284227 2.28630844,9.02079721 L8.13518196,14.8693241 L8.13518196,19.2097054 L6.19410742,19.2097054 C5.42842284,19.2097054 4.80762561,19.8305026 4.80762561,20.5961872 C4.80762561,20.7493935 4.93171574,20.8734836 5.08492198,20.8734836 L13.4038128,20.8734836 C13.5570191,20.8734836 13.6811092,20.7493935 13.6811092,20.5961872 C13.6811092,19.8305026 13.060312,19.2097054 12.2946274,19.2097054 Z M17.0086655,3.12651642 C14.8384749,3.12651642 13.0103986,4.51993064 12.3230503,6.45407276 L14.1441941,6.45407276 C14.7213172,5.46447137 15.782669,4.79029459 17.0086655,4.79029459 C18.8433276,4.79029459 20.3362219,6.28284226 20.3362219,8.11785093 C20.3362219,9.95285961 18.8433276,11.4454073 17.0086655,11.4454073 C16.5220104,11.4454073 16.0627383,11.3344887 15.6457539,11.1459272 L14.4235702,12.3681109 C15.1795494,12.8291161 16.0585789,13.1091854 17.0086655,13.1091854 C19.765338,13.1091854 22,10.8745234 22,8.11785093 C22,5.36117848 19.765338,3.12651642 17.0086655,3.12651642 Z" id="path-1"></path>
    </defs>
    <g id="cocktail" stroke="none" stroke-width="1" fill="none" fill-rule="evenodd">
        <mask id="mask-2" fill="white">
            <use xlink:href="#path-1"></use>
        </mask>
        <g fill-rule="nonzero"></g>
        <g id="🎨-color" mask="url(#mask-2)" fill="#000000">
            <rect id="🎨-Color" x="0" y="0" width="24" height="24"></rect>
        </g>
    </g>
</svg>