<?xml version="1.0" encoding="UTF-8"?>
<svg width="24px" height="24px" viewBox="0 0 24 24" version="1.1" xmlns="http://www.w3.org/2000/svg" xmlns:xlink="http://www.w3.org/1999/xlink">
    <!-- Generator: Sketch 52.5 (67469) - http://www.bohemiancoding.com/sketch -->
    <title>code-branch</title>
    <desc>Created with Sketch.</desc>
    <defs>
        <path d="M19.5,7.62499998 C19.5,5.89843747 18.1015625,4.49999996 16.375,4.49999996 C14.6484375,4.49999996 13.25,5.89843747 13.25,7.62499998 C13.25,9.04687499 14.1992188,10.2460937 15.4960938,10.625 C15.4726563,11.2539062 15.3320313,11.7382812 15.0664063,12.0664063 C14.4648438,12.8164063 13.140625,12.9414063 11.7382812,13.0703125 C10.6367187,13.171875 9.49609374,13.28125 8.56249998,13.7304688 L8.56249998,8.10546873 C9.83203124,7.70703123 10.75,6.52343747 10.75,5.12499997 C10.75,3.39843746 9.35156249,1.99999995 7.62499998,1.99999995 C5.89843747,1.99999995 4.49999996,3.39843746 4.49999996,5.12499997 C4.49999996,6.52343747 5.41796872,7.70703123 6.68749997,8.10546873 L6.68749997,15.890625 C5.41796872,16.2929688 4.49999996,17.4765625 4.49999996,18.875 C4.49999996,20.6015625 5.89843747,22 7.62499998,22 C9.35156249,22 10.75,20.6015625 10.75,18.875 C10.75,17.546875 9.92187499,16.4101563 8.74999998,15.9609375 C8.87109373,15.7578125 9.05468749,15.578125 9.33203124,15.4375 C9.96484374,15.1171875 10.9101562,15.03125 11.9140625,14.9375 C13.5625,14.7851563 15.4296875,14.609375 16.53125,13.2421875 C17.078125,12.5625 17.3554688,11.6875 17.375,10.5898437 C18.609375,10.1679687 19.5,8.99999998 19.5,7.62499998 Z M7.62499998,4.49999996 C7.96874998,4.49999996 8.24999998,4.78124996 8.24999998,5.12499997 C8.24999998,5.46874997 7.96874998,5.74999997 7.62499998,5.74999997 C7.28124998,5.74999997 6.99999997,5.46874997 6.99999997,5.12499997 C6.99999997,4.78124996 7.28124998,4.49999996 7.62499998,4.49999996 Z M7.62499998,19.5 C7.28124998,19.5 6.99999997,19.21875 6.99999997,18.875 C6.99999997,18.53125 7.28124998,18.25 7.62499998,18.25 C7.96874998,18.25 8.24999998,18.53125 8.24999998,18.875 C8.24999998,19.21875 7.96874998,19.5 7.62499998,19.5 Z M16.375,6.99999997 C16.71875,6.99999997 17,7.28124998 17,7.62499998 C17,7.96874998 16.71875,8.24999998 16.375,8.24999998 C16.03125,8.24999998 15.75,7.96874998 15.75,7.62499998 C15.75,7.28124998 16.03125,6.99999997 16.375,6.99999997 Z" id="path-1"></path>
    </defs>
    <g id="code-branch" stroke="none" stroke-width="1" fill="none" fill-rule="evenodd">
        <mask id="mask-2" fill="white">
            <use xlink:href="#path-1"></use>
        </mask>
        <g fill-rule="nonzero"></g>
        <g id="🎨-color" mask="url(#mask-2)" fill="#000000">
            <rect id="🎨-Color" x="0" y="0" width="24" height="24"></rect>
        </g>
    </g>
</svg>