<?xml version="1.0" encoding="UTF-8"?>
<svg width="24px" height="24px" viewBox="0 0 24 24" version="1.1" xmlns="http://www.w3.org/2000/svg" xmlns:xlink="http://www.w3.org/1999/xlink">
    <!-- Generator: Sketch 52.5 (67469) - http://www.bohemiancoding.com/sketch -->
    <title>code</title>
    <desc>Created with Sketch.</desc>
    <defs>
        <path d="M10.7196262,19.9595016 L8.81931463,19.4080997 C8.61993768,19.352025 8.50778814,19.1433022 8.56386291,18.9439253 L12.8161994,4.29595012 C12.8722741,4.09657317 13.0809969,3.98442364 13.2803738,4.0404984 L15.1806854,4.59190027 C15.3800623,4.64797504 15.4922119,4.85669778 15.4361371,5.05607473 L11.1838006,19.7040499 C11.1246106,19.9034268 10.9190031,20.0186916 10.7196262,19.9595016 Z M7.16822427,16.4641745 L8.52336447,15.0186916 C8.66666665,14.8660436 8.65732086,14.623053 8.49844235,14.4828661 L5.67601243,12 L8.49844235,9.51713394 C8.65732086,9.37694703 8.66978191,9.13395637 8.52336447,8.9813084 L7.16822427,7.53582552 C7.02803736,7.38629281 6.79127723,7.37694702 6.63862926,7.5202492 L2.14953266,11.7258567 C1.99065416,11.8722741 1.99065416,12.1246106 2.14953266,12.271028 L6.63862926,16.4797508 C6.79127723,16.623053 7.02803736,16.6168225 7.16822427,16.4641745 Z M17.3613707,16.4828661 L21.8504673,12.2741433 C22.0093458,12.1277259 22.0093458,11.8753894 21.8504673,11.728972 L17.3613707,7.51713393 C17.211838,7.37694702 16.9750779,7.38317755 16.8317757,7.53271026 L15.4766355,8.97819313 C15.3333333,9.13084111 15.3426791,9.37383176 15.5015576,9.51401868 L18.3239876,12 L15.5015576,14.4828661 C15.3426791,14.623053 15.3302181,14.8660436 15.4766355,15.0186916 L16.8317757,16.4641745 C16.9719626,16.6168225 17.2087228,16.623053 17.3613707,16.4828661 Z" id="path-1"></path>
    </defs>
    <g id="code" stroke="none" stroke-width="1" fill="none" fill-rule="evenodd">
        <mask id="mask-2" fill="white">
            <use xlink:href="#path-1"></use>
        </mask>
        <g fill-rule="nonzero"></g>
        <g id="🎨-color" mask="url(#mask-2)" fill="#000000">
            <rect id="🎨-Color" x="0" y="0" width="24" height="24"></rect>
        </g>
    </g>
</svg>