<?xml version="1.0" encoding="UTF-8"?>
<svg width="24px" height="24px" viewBox="0 0 24 24" version="1.1" xmlns="http://www.w3.org/2000/svg" xmlns:xlink="http://www.w3.org/1999/xlink">
    <!-- Generator: Sketch 52.5 (67469) - http://www.bohemiancoding.com/sketch -->
    <title>codepen</title>
    <desc>Created with Sketch.</desc>
    <defs>
        <path d="M21.5822613,8.24576996 L12.4594542,2.16389859 C12.1480702,1.97228065 11.8157505,1.97052627 11.5015205,2.16389859 L2.3787134,8.24576996 C2.14479527,8.4016764 1.99999995,8.68019492 1.99999995,8.95863546 L1.99999995,15.0404679 C1.99999995,15.3189474 2.14479527,15.5974269 2.37875239,15.7533723 L11.5015595,21.8361014 C11.8129435,22.0277193 12.1452632,22.0294737 12.4594932,21.8361014 L21.5823002,15.7533723 C21.8162184,15.5974659 21.9610527,15.3189474 21.9610527,15.0404679 L21.9610527,8.95863546 C21.9610137,8.68019492 21.8162184,8.4016764 21.5822613,8.24576996 Z M12.8382066,4.4807407 L19.5550098,8.95863546 L16.5586355,10.9636647 L12.8382066,8.47964911 L12.8382066,4.4807407 Z M11.122807,4.4807407 L11.122807,8.47964911 L7.40237814,10.9636647 L4.40600386,8.95863546 L11.122807,4.4807407 Z M3.71539957,10.5626511 L5.86522414,11.9995712 L3.71539957,13.4364912 L3.71539957,10.5626511 Z M11.122807,19.5184016 L4.40600386,15.0405068 L7.40237814,13.0354776 L11.122807,15.5194932 L11.122807,19.5184016 Z M11.9805068,14.0268616 L8.95068225,11.9995712 L11.9805068,9.97228069 L15.0103314,11.9995712 L11.9805068,14.0268616 Z M12.8382066,19.5184016 L12.8382066,15.5194932 L16.5586355,13.0354776 L19.5550098,15.0405068 L12.8382066,19.5184016 Z M20.2456141,13.4364912 L18.0957895,11.9995712 L20.2456141,10.5626511 L20.2456141,13.4364912 Z" id="path-1"></path>
    </defs>
    <g id="codepen" stroke="none" stroke-width="1" fill="none" fill-rule="evenodd">
        <mask id="mask-2" fill="white">
            <use xlink:href="#path-1"></use>
        </mask>
        <g fill-rule="nonzero"></g>
        <g id="🎨-color" mask="url(#mask-2)" fill="#000000">
            <rect id="🎨-Color" x="0" y="0" width="24" height="24"></rect>
        </g>
    </g>
</svg>