<?xml version="1.0" encoding="UTF-8"?>
<svg width="24px" height="24px" viewBox="0 0 24 24" version="1.1" xmlns="http://www.w3.org/2000/svg" xmlns:xlink="http://www.w3.org/1999/xlink">
    <!-- Generator: Sketch 52.5 (67469) - http://www.bohemiancoding.com/sketch -->
    <title>codiepie</title>
    <desc>Created with Sketch.</desc>
    <defs>
        <path d="M19.2851563,9.92578124 C20.484375,9.92578124 20.59375,12 19.2734375,12 L18.8515625,12 L18.8515625,13.7304688 L17.8125,13.7304688 L17.8125,9.92578124 L19.2851563,9.92578124 Z M21.21875,15.7734375 C19.5742188,19.3632813 16.46875,21.6875 12.46875,21.6875 C7.11718748,21.6875 2.78124995,17.3515625 2.78124995,12 C2.78124995,6.64843747 7.11718748,2.31249995 12.46875,2.31249995 C16.2734375,2.31249995 19.21875,4.41015621 20.9921875,7.71874998 L13.7265625,11.96875 L21.21875,15.7734375 Z M19.7148438,16.2617188 L17.359375,15.0625 C16.3007813,16.7929688 14.609375,17.8515625 12.578125,17.8515625 C9.35546874,17.8515625 6.74999997,15.2460938 6.74999997,12.0351563 C6.74999997,8.81249998 9.35546874,6.20703122 12.578125,6.20703122 C14.46875,6.20703122 16.0507813,7.12499998 17.1445313,8.68359373 L19.46875,7.33203123 C17.8789063,4.88671871 15.3789063,3.42578121 12.46875,3.42578121 C7.73437498,3.42578121 3.89453121,7.26562498 3.89453121,12 C3.89453121,16.734375 7.73437498,20.5742188 12.46875,20.5742188 C15.5390625,20.5742188 18.1914063,18.9296875 19.7148438,16.2617188 Z" id="path-1"></path>
    </defs>
    <g id="codiepie" stroke="none" stroke-width="1" fill="none" fill-rule="evenodd">
        <mask id="mask-2" fill="white">
            <use xlink:href="#path-1"></use>
        </mask>
        <g fill-rule="nonzero"></g>
        <g id="🎨-color" mask="url(#mask-2)" fill="#000000">
            <rect id="🎨-Color" x="0" y="0" width="24" height="24"></rect>
        </g>
    </g>
</svg>