<?xml version="1.0" encoding="UTF-8"?>
<svg width="24px" height="24px" viewBox="0 0 24 24" version="1.1" xmlns="http://www.w3.org/2000/svg" xmlns:xlink="http://www.w3.org/1999/xlink">
    <!-- Generator: Sketch 52.5 (67469) - http://www.bohemiancoding.com/sketch -->
    <title>coffee</title>
    <desc>Created with Sketch.</desc>
    <defs>
        <path d="M8.02184085,15.9937598 L14.0124805,15.9937598 C15.6661467,15.9937598 17.0078003,14.6521061 17.0078003,12.9984399 L18.0062403,12.9984399 C20.2090484,12.9984399 22,11.2074883 22,9.00468017 C22,6.80187205 20.2090484,5.0109204 18.0062403,5.0109204 L5.77535098,5.0109204 C5.36037438,5.0109204 5.02652103,5.34477376 5.02652103,5.75975036 L5.02652103,12.9984399 C5.02652103,14.6521061 6.3681747,15.9937598 8.02184085,15.9937598 Z M18.0062403,7.00780029 C19.1076443,7.00780029 20.0031202,7.90327611 20.0031202,9.00468017 C20.0031202,10.1060842 19.1076443,11.0015601 18.0062403,11.0015601 L17.0078003,11.0015601 L17.0078003,7.00780029 L18.0062403,7.00780029 Z M19.4945398,18.9890796 L3.53822149,18.9890796 C2.05304207,18.9890796 1.63494535,16.9921997 2.41497655,16.9921997 L20.6146646,16.9921997 C21.3946958,16.9921997 20.9828394,18.9890796 19.4945398,18.9890796 Z" id="path-1"></path>
    </defs>
    <g id="coffee" stroke="none" stroke-width="1" fill="none" fill-rule="evenodd">
        <mask id="mask-2" fill="white">
            <use xlink:href="#path-1"></use>
        </mask>
        <g fill-rule="nonzero"></g>
        <g id="🎨-color" mask="url(#mask-2)" fill="#000000">
            <rect id="🎨-Color" x="0" y="0" width="24" height="24"></rect>
        </g>
    </g>
</svg>