<?xml version="1.0" encoding="UTF-8"?>
<svg width="24px" height="24px" viewBox="0 0 24 24" version="1.1" xmlns="http://www.w3.org/2000/svg" xmlns:xlink="http://www.w3.org/1999/xlink">
    <!-- Generator: Sketch 52.5 (67469) - http://www.bohemiancoding.com/sketch -->
    <title>cog</title>
    <desc>Created with Sketch.</desc>
    <defs>
        <path d="M19.3745313,13.3710938 L21.0392188,14.3319922 C21.229336,14.4417188 21.3175782,14.6686328 21.252461,14.8782813 C20.8200391,16.2705469 20.0817579,17.5283594 19.1161719,18.5730469 C18.9673403,18.7341602 18.7267723,18.770719 18.5367969,18.6610938 L16.8733594,17.7003516 C16.1734791,18.3000221 15.3688465,18.7652494 14.4999609,19.0726172 L14.4999609,20.9937891 C14.4999642,21.2132626 14.3478061,21.4034074 14.1336719,21.4515235 C12.7682031,21.7581641 11.3016797,21.7740235 9.86730468,21.4517969 C9.65285155,21.4036329 9.49999999,21.2136719 9.49999999,20.9938672 L9.49999999,19.0726172 C8.63110609,18.7652674 7.82647035,18.3000383 7.12660154,17.7003516 L5.46316403,18.6610938 C5.27318861,18.770719 5.03262067,18.7341602 4.88378903,18.5730469 C3.91824215,17.5283594 3.17992183,16.2705469 2.74749995,14.8782813 C2.68238277,14.6686719 2.77062495,14.4417578 2.96074214,14.3319922 L4.62546871,13.3710938 C4.45826241,12.464691 4.45826241,11.5353481 4.62546871,10.6289453 L2.9607812,9.66804686 C2.77066402,9.5583203 2.68242183,9.33140624 2.74753902,9.1217578 C3.17996089,7.72949217 3.91824215,6.47167966 4.88382809,5.42699215 C5.03265973,5.26587886 5.27322767,5.22932006 5.46320309,5.33894528 L7.1266406,6.29968747 C7.82652087,5.70001692 8.63115345,5.23478966 9.50003905,4.92742184 L9.50003905,3.00621089 C9.50003584,2.78673738 9.65219389,2.59659256 9.86632811,2.54847652 C11.2317969,2.24183589 12.6983203,2.22597651 14.1326953,2.54820308 C14.3471484,2.59636714 14.5,2.78632808 14.5,3.00613277 L14.5,4.92738278 C15.3688939,5.23473261 16.1735296,5.69996169 16.8733985,6.29964841 L18.536836,5.33890622 C18.7268114,5.229281 18.9673793,5.2658398 19.116211,5.42695309 C20.0817579,6.4716406 20.8200782,7.7294531 21.2525,9.12171874 C21.3176172,9.33132811 21.229375,9.55824218 21.0392579,9.6680078 L19.3745313,10.6289062 C19.541738,11.5353221 19.541738,12.4646779 19.3745313,13.3710938 Z M15.125,12 C15.125,10.276875 13.723125,8.87499998 12,8.87499998 C10.276875,8.87499998 8.87499998,10.276875 8.87499998,12 C8.87499998,13.723125 10.276875,15.125 12,15.125 C13.723125,15.125 15.125,13.723125 15.125,12 Z" id="path-1"></path>
    </defs>
    <g id="cog" stroke="none" stroke-width="1" fill="none" fill-rule="evenodd">
        <mask id="mask-2" fill="white">
            <use xlink:href="#path-1"></use>
        </mask>
        <g fill-rule="nonzero"></g>
        <g id="🎨-color" mask="url(#mask-2)" fill="#000000">
            <rect id="🎨-Color" x="0" y="0" width="24" height="24"></rect>
        </g>
    </g>
</svg>