<?xml version="1.0" encoding="UTF-8"?>
<svg width="24px" height="24px" viewBox="0 0 24 24" version="1.1" xmlns="http://www.w3.org/2000/svg" xmlns:xlink="http://www.w3.org/1999/xlink">
    <!-- Generator: Sketch 52.5 (67469) - http://www.bohemiancoding.com/sketch -->
    <title>cogs</title>
    <desc>Created with Sketch.</desc>
    <defs>
        <path d="M18.0093604,9.97191887 L17.7535102,10.4180967 C17.6599064,10.5834633 17.4602184,10.6521061 17.2823713,10.5865835 C16.9141966,10.449298 16.5772231,10.2527301 16.2808113,10.0062402 C16.1372855,9.8876755 16.099844,9.67862713 16.1934478,9.51638064 L16.449298,9.07020279 C16.2340094,8.82059281 16.0655226,8.5304212 15.9531981,8.21528859 L15.4383776,8.21528859 C15.2511701,8.21528859 15.0889236,8.08112323 15.0577223,7.89391574 C14.9953198,7.51950076 14.9921997,7.12636503 15.0577223,6.73634943 C15.0889236,6.54914194 15.2511701,6.41185645 15.4383776,6.41185645 L15.9531981,6.41185645 C16.0655226,6.09672384 16.2340094,5.80655223 16.449298,5.55694225 L16.1934478,5.1107644 C16.099844,4.94851791 16.1341654,4.73946954 16.2808113,4.6209048 C16.5772231,4.37441494 16.9173167,4.17784707 17.2823713,4.04056158 C17.4602184,3.97503896 17.6599064,4.04368171 17.7535102,4.20904832 L18.0093604,4.65522617 C18.3369735,4.5959438 18.6708269,4.5959438 18.99844,4.65522617 L19.2542902,4.20904832 C19.347894,4.04368171 19.5475819,3.97503896 19.7254291,4.04056158 C20.0936038,4.17784707 20.4305773,4.37441494 20.7269891,4.6209048 C20.8705149,4.73946954 20.9079564,4.94851791 20.8143526,5.1107644 L20.5585024,5.55694225 C20.773791,5.80655223 20.9422777,6.09672384 21.0546022,6.41185645 L21.5694228,6.41185645 C21.7566303,6.41185645 21.9188768,6.54602181 21.9500781,6.7332293 C22.0124805,7.10764428 22.0156007,7.50078001 21.9500781,7.89079561 C21.9188768,8.0780031 21.7566303,8.21528859 21.5694228,8.21528859 L21.0546022,8.21528859 C20.9422777,8.5304212 20.773791,8.82059281 20.5585024,9.07020279 L20.8143526,9.51638064 C20.9079564,9.67862713 20.873635,9.8876755 20.7269891,10.0062402 C20.4305773,10.2527301 20.0904837,10.449298 19.7254291,10.5865835 C19.5475819,10.6521061 19.347894,10.5834633 19.2542902,10.4180967 L18.99844,9.97191887 C18.673947,10.0312012 18.3369735,10.0312012 18.0093604,9.97191887 Z M17.6817473,8.13728547 C18.8829954,9.06084242 20.2527302,7.69110762 19.3291732,6.48985957 C18.1279251,5.5631825 16.7581904,6.93603742 17.6817473,8.13728547 Z M14.0842434,12.9391576 L15.1357254,13.4633385 C15.4508581,13.6443058 15.5881435,14.0280811 15.4633386,14.3712949 C15.1856474,15.1263651 14.6396256,15.8190328 14.1341654,16.424337 C13.9032761,16.7020281 13.5039002,16.7706709 13.1887676,16.5897036 L12.2808112,16.0655226 C11.7815913,16.4929797 11.201248,16.8330733 10.5678627,17.0546022 L10.5678627,18.1029641 C10.5678627,18.4648986 10.3088923,18.7769111 9.95319812,18.8393136 C9.18564741,18.9703588 8.38065521,18.9765991 7.58502338,18.8393136 C7.22620902,18.7769111 6.96099841,18.4680188 6.96099841,18.1029641 L6.96099841,17.0546022 C6.32761308,16.8299532 5.74726986,16.4929797 5.24804989,16.0655226 L4.34009357,16.5865835 C4.02808108,16.7675507 3.62558498,16.698908 3.39469574,16.4212169 C2.88923552,15.8159127 2.35569418,15.1232449 2.07800307,14.3712949 C1.95319808,14.0312013 2.09048357,13.6474259 2.40561618,13.4633385 L3.44461774,12.9391576 C3.32293287,12.2870515 3.32293287,11.6162246 3.44461774,10.9609984 L2.40561618,10.4336973 C2.09048357,10.2527301 1.95007795,9.86895475 2.07800307,9.52886114 C2.35569418,8.77379094 2.88923552,8.08112323 3.39469574,7.47581901 C3.62558498,7.1981279 4.02496096,7.12948516 4.34009357,7.31045239 L5.24804989,7.83463336 C5.74726986,7.40717626 6.32761308,7.06708266 6.96099841,6.8455538 L6.96099841,5.79407173 C6.96099841,5.43525738 7.21684865,5.1232449 7.57254288,5.0608424 C8.34009359,4.92979716 9.14820591,4.92355691 9.94383774,5.05772227 C10.3026521,5.12012477 10.5678627,5.42901713 10.5678627,5.79407173 L10.5678627,6.84243367 C11.201248,7.06708266 11.7815913,7.40405614 12.2808112,7.83151324 L13.1887676,7.30733227 C13.50078,7.12636503 13.9032761,7.19500778 14.1341654,7.47269889 C14.6396256,8.0780031 15.1700468,8.77067081 15.4477379,9.52574102 C15.5725429,9.86583462 15.4508581,10.24961 15.1357254,10.4336973 L14.0842434,10.9578783 C14.2059282,11.6131045 14.2059282,12.2839314 14.0842434,12.9391576 Z M10.4149766,13.5975039 C12.2620905,11.1950078 9.51950077,8.45241808 7.11700466,10.299532 C5.26989076,12.7020281 8.01248048,15.4446178 10.4149766,13.5975039 Z M18.0093604,19.297972 L17.7535102,19.7441498 C17.6599064,19.9095164 17.4602184,19.9781592 17.2823713,19.9126365 C16.9141966,19.7753511 16.5772231,19.5787832 16.2808113,19.3322933 C16.1372855,19.2137286 16.099844,19.0046802 16.1934478,18.8424337 L16.449298,18.3962559 C16.2340094,18.1466459 16.0655226,17.8564743 15.9531981,17.5413417 L15.4383776,17.5413417 C15.2511701,17.5413417 15.0889236,17.4071763 15.0577223,17.2199688 C14.9953198,16.8455538 14.9921997,16.4524181 15.0577223,16.0624025 C15.0889236,15.875195 15.2511701,15.7379095 15.4383776,15.7379095 L15.9531981,15.7379095 C16.0655226,15.4227769 16.2340094,15.1326053 16.449298,14.8829953 L16.1934478,14.4368175 C16.099844,14.274571 16.1341654,14.0655226 16.2808113,13.9469579 C16.5772231,13.700468 16.9173167,13.5039002 17.2823713,13.3666147 C17.4602184,13.3010921 17.6599064,13.3697348 17.7535102,13.5351014 L18.0093604,13.9812793 C18.3369735,13.9219969 18.6708269,13.9219969 18.99844,13.9812793 L19.2542902,13.5351014 C19.347894,13.3697348 19.5475819,13.3010921 19.7254291,13.3666147 C20.0936038,13.5039002 20.4305773,13.700468 20.7269891,13.9469579 C20.8705149,14.0655226 20.9079564,14.274571 20.8143526,14.4368175 L20.5585024,14.8829953 C20.773791,15.1326053 20.9422777,15.4227769 21.0546022,15.7379095 L21.5694228,15.7379095 C21.7566303,15.7379095 21.9188768,15.8720749 21.9500781,16.0592824 C22.0124805,16.4336974 22.0156007,16.8268331 21.9500781,17.2168487 C21.9188768,17.4040562 21.7566303,17.5413417 21.5694228,17.5413417 L21.0546022,17.5413417 C20.9422777,17.8564743 20.773791,18.1466459 20.5585024,18.3962559 L20.8143526,18.8424337 C20.9079564,19.0046802 20.873635,19.2137286 20.7269891,19.3322933 C20.4305773,19.5787832 20.0904837,19.7753511 19.7254291,19.9126365 C19.5475819,19.9781592 19.347894,19.9095164 19.2542902,19.7441498 L18.99844,19.297972 C18.673947,19.3572543 18.3369735,19.3572543 18.0093604,19.297972 Z M17.6817473,17.4602184 C18.8829954,18.3837754 20.2527302,17.0140406 19.3291732,15.8127925 C18.1279251,14.8892356 16.7581904,16.2589704 17.6817473,17.4602184 Z" id="path-1"></path>
    </defs>
    <g id="cogs" stroke="none" stroke-width="1" fill="none" fill-rule="evenodd">
        <mask id="mask-2" fill="white">
            <use xlink:href="#path-1"></use>
        </mask>
        <g fill-rule="nonzero"></g>
        <g id="🎨-color" mask="url(#mask-2)" fill="#000000">
            <rect id="🎨-Color" x="0" y="0" width="24" height="24"></rect>
        </g>
    </g>
</svg>