<?xml version="1.0" encoding="UTF-8"?>
<svg width="24px" height="24px" viewBox="0 0 24 24" version="1.1" xmlns="http://www.w3.org/2000/svg" xmlns:xlink="http://www.w3.org/1999/xlink">
    <!-- Generator: Sketch 52.5 (67469) - http://www.bohemiancoding.com/sketch -->
    <title>coins</title>
    <desc>Created with Sketch.</desc>
    <defs>
        <path d="M1.99999995,17.8320313 L1.99999995,19.5 C1.99999995,20.8789063 5.35937497,22.0000001 9.49999999,22.0000001 C13.640625,22.0000001 17,20.8789063 17,19.5 L17,17.8320313 C15.3867188,18.96875 12.4375,19.5 9.49999999,19.5 C6.56249997,19.5 3.61328121,18.96875 1.99999995,17.8320313 Z M14.5,6.99999997 C18.640625,6.99999997 22.0000001,5.87890622 22.0000001,4.49999996 C22.0000001,3.12109371 18.640625,1.99999995 14.5,1.99999995 C10.359375,1.99999995 6.99999997,3.12109371 6.99999997,4.49999996 C6.99999997,5.87890622 10.359375,6.99999997 14.5,6.99999997 Z M1.99999995,13.734375 L1.99999995,15.75 C1.99999995,17.1289063 5.35937497,18.25 9.49999999,18.25 C13.640625,18.25 17,17.1289063 17,15.75 L17,13.734375 C15.3867188,15.0625 12.4335938,15.75 9.49999999,15.75 C6.56640622,15.75 3.61328121,15.0625 1.99999995,13.734375 Z M18.25,14.1640625 C20.4882813,13.7304688 22.0000001,12.9257813 22.0000001,12 L22.0000001,10.3320312 C21.09375,10.9726562 19.7617188,11.4101562 18.25,11.6796875 L18.25,14.1640625 Z M9.49999999,8.24999998 C5.35937497,8.24999998 1.99999995,9.64843749 1.99999995,11.375 C1.99999995,13.1015625 5.35937497,14.5 9.49999999,14.5 C13.640625,14.5 17,13.1015625 17,11.375 C17,9.64843749 13.640625,8.24999998 9.49999999,8.24999998 Z M18.0664063,10.4492187 C20.4101563,10.0273437 22.0000001,9.19921874 22.0000001,8.24999998 L22.0000001,6.58203122 C20.6132813,7.56249998 18.2304688,8.08984373 15.7226563,8.21484373 C16.875,8.77343748 17.7226563,9.52343749 18.0664063,10.4492187 Z" id="path-1"></path>
    </defs>
    <g id="coins" stroke="none" stroke-width="1" fill="none" fill-rule="evenodd">
        <mask id="mask-2" fill="white">
            <use xlink:href="#path-1"></use>
        </mask>
        <g fill-rule="nonzero"></g>
        <g id="🎨-color" mask="url(#mask-2)" fill="#000000">
            <rect id="🎨-Color" x="0" y="0" width="24" height="24"></rect>
        </g>
    </g>
</svg>