<?xml version="1.0" encoding="UTF-8"?>
<svg width="24px" height="24px" viewBox="0 0 24 24" version="1.1" xmlns="http://www.w3.org/2000/svg" xmlns:xlink="http://www.w3.org/1999/xlink">
    <!-- Generator: Sketch 52.5 (67469) - http://www.bohemiancoding.com/sketch -->
    <title>comment-slash</title>
    <desc>Created with Sketch.</desc>
    <defs>
        <path d="M3.99687984,11.50078 C3.99687984,13.0483619 4.66458655,14.4648986 5.77535098,15.5787832 C5.38221526,17.148206 4.08112321,18.549142 4.06552258,18.5678627 C3.99687984,18.6396256 3.97815909,18.7457099 4.01872071,18.8393136 C4.05928233,18.9297972 4.14664583,18.9890796 4.24648982,18.9890796 C6.31513258,18.9890796 7.86583461,17.9968799 8.63338532,17.3853354 C9.65366613,17.7691108 10.7862714,17.9906397 11.9843994,17.9906397 C12.8393136,17.9906397 13.6599064,17.8783152 14.4305772,17.6786272 L4.27457094,9.82839312 C4.09984395,10.3619345 3.99687984,10.9204368 3.99687984,11.50078 Z M21.7753511,18.3057723 L18.2059283,15.5475819 C19.3042122,14.4368175 19.9719189,13.0358814 19.9719189,11.50078 C19.9719189,7.91575661 16.3962559,5.0109204 11.9843994,5.0109204 C9.95319812,5.0109204 8.10920435,5.63806549 6.69890793,6.65522618 L3.41965674,4.1185647 C3.20124801,3.95007796 2.88923552,3.98751946 2.71762866,4.2059282 L2.10608419,4.99219965 C1.93759745,5.21060839 1.97503895,5.52262087 2.19344769,5.69110761 L20.5522621,19.8783152 C20.7706709,20.0468019 21.0826834,20.0093604 21.2542902,19.7909517 L21.8658347,19.0015601 C22.0343214,18.7893916 21.9937598,18.474259 21.7753511,18.3057723 Z" id="path-1"></path>
    </defs>
    <g id="comment-slash" stroke="none" stroke-width="1" fill="none" fill-rule="evenodd">
        <mask id="mask-2" fill="white">
            <use xlink:href="#path-1"></use>
        </mask>
        <g fill-rule="nonzero"></g>
        <g id="🎨-color" mask="url(#mask-2)" fill="#000000">
            <rect id="🎨-Color" x="0" y="0" width="24" height="24"></rect>
        </g>
    </g>
</svg>