<?xml version="1.0" encoding="UTF-8"?>
<svg width="24px" height="24px" viewBox="0 0 24 24" version="1.1" xmlns="http://www.w3.org/2000/svg" xmlns:xlink="http://www.w3.org/1999/xlink">
    <!-- Generator: Sketch 52.5 (67469) - http://www.bohemiancoding.com/sketch -->
    <title>comment-alt</title>
    <desc>Created with Sketch.</desc>
    <defs>
        <path d="M19.5,1.99999995 L4.49999996,1.99999995 C3.12109371,1.99999995 1.99999995,3.12109371 1.99999995,4.49999996 L1.99999995,15.75 C1.99999995,17.1289063 3.12109371,18.25 4.49999996,18.25 L8.24999998,18.25 L8.24999998,21.53125 C8.24999998,21.8085938 8.47656248,22.0000001 8.71874998,22.0000001 C8.81249998,22.0000001 8.91015623,21.9726563 8.99609373,21.90625 L13.875,18.25 L19.5,18.25 C20.8789063,18.25 22.0000001,17.1289063 22.0000001,15.75 L22.0000001,4.49999996 C22.0000001,3.12109371 20.8789063,1.99999995 19.5,1.99999995 Z M20.125,15.75 C20.125,16.09375 19.84375,16.375 19.5,16.375 L13.25,16.375 L12.75,16.75 L10.125,18.71875 L10.125,16.375 L4.49999996,16.375 C4.15624996,16.375 3.87499996,16.09375 3.87499996,15.75 L3.87499996,4.49999996 C3.87499996,4.15624996 4.15624996,3.87499996 4.49999996,3.87499996 L19.5,3.87499996 C19.84375,3.87499996 20.125,4.15624996 20.125,4.49999996 L20.125,15.75 Z" id="path-1"></path>
    </defs>
    <g id="comment-alt" stroke="none" stroke-width="1" fill="none" fill-rule="evenodd">
        <mask id="mask-2" fill="white">
            <use xlink:href="#path-1"></use>
        </mask>
        <g fill-rule="nonzero"></g>
        <g id="🎨-color" mask="url(#mask-2)" fill="#000000">
            <rect id="🎨-Color" x="0" y="0" width="24" height="24"></rect>
        </g>
    </g>
</svg>