<?xml version="1.0" encoding="UTF-8"?>
<svg width="24px" height="24px" viewBox="0 0 24 24" version="1.1" xmlns="http://www.w3.org/2000/svg" xmlns:xlink="http://www.w3.org/1999/xlink">
    <!-- Generator: Sketch 52.5 (67469) - http://www.bohemiancoding.com/sketch -->
    <title>comments-dollar</title>
    <desc>Created with Sketch.</desc>
    <defs>
        <path d="M16.4444445,9.77777777 C16.4444445,6.70937497 13.2111111,4.22222218 9.22222221,4.22222218 C5.2333333,4.22222218 1.99999995,6.70937497 1.99999995,9.77777777 C1.99999995,10.9677083 2.49062495,12.0677083 3.31840273,12.9715278 C2.85451384,14.0215278 2.08749995,14.8527778 2.07638884,14.8645833 C1.99996846,14.945069 1.97883132,15.0633372 2.02264221,15.1653108 C2.06645309,15.2672844 2.1667912,15.3333633 2.27777773,15.3333334 C3.54791662,15.3333334 4.60173607,14.9079861 5.35868052,14.4659722 C6.47673608,15.0125 7.79930553,15.3333334 9.22222221,15.3333334 C13.2111111,15.3333334 16.4444445,12.8461806 16.4444445,9.77777777 Z M8.66666665,13.1111111 L8.66666665,12.5454861 C8.27465276,12.5253472 7.89340276,12.3885417 7.57743053,12.1513889 C7.44201387,12.0496528 7.43506942,11.846875 7.55763887,11.7298611 L7.96562498,11.340625 C8.06180554,11.2489583 8.20486109,11.2447917 8.31736109,11.3152778 C8.45173609,11.3993056 8.60416665,11.4444444 8.76249998,11.4444444 L9.73854166,11.4444444 C9.9642361,11.4444444 10.1482639,11.2388889 10.1482639,10.9864583 C10.1482639,10.7798611 10.0229167,10.5979167 9.84374999,10.5444444 L8.28124998,10.0756944 C7.63576387,9.88194443 7.1847222,9.26249999 7.1847222,8.56909721 C7.1847222,7.71770831 7.84618053,7.02604164 8.66631943,7.00416664 L8.66631943,6.44444442 C8.66631943,6.29097219 8.79062498,6.16666664 8.94409721,6.16666664 L9.49965277,6.16666664 C9.65312499,6.16666664 9.77743054,6.29097219 9.77743054,6.44444442 L9.77743054,7.01006942 C10.1694444,7.03020831 10.5506944,7.16666664 10.8666667,7.40416664 C11.0020833,7.50590276 11.0090278,7.70868053 10.8864583,7.82569442 L10.4784722,8.21493054 C10.3822917,8.3065972 10.2392361,8.31076387 10.1267361,8.24027776 C9.9923611,8.15590276 9.83993054,8.11111109 9.68159721,8.11111109 L8.70555554,8.11111109 C8.47986109,8.11111109 8.29583331,8.31666665 8.29583331,8.56909721 C8.29583331,8.77569443 8.42118054,8.95763887 8.60034721,9.0111111 L10.1628472,9.4798611 C10.8083333,9.6736111 11.259375,10.2930555 11.259375,10.9864583 C11.259375,11.8381944 10.5979167,12.5295139 9.77777777,12.5513889 L9.77777777,13.1111111 C9.77777777,13.2645833 9.65347221,13.3888889 9.49999999,13.3888889 L8.94444443,13.3888889 C8.79097221,13.3888889 8.66666665,13.2645833 8.66666665,13.1111111 Z M20.6809028,17.4163195 C21.509375,16.5125 22.0000001,15.4121528 22.0000001,14.2222222 C22.0000001,11.8979167 20.1427084,9.90972221 17.509375,9.08090276 C17.5392361,9.31006943 17.5555556,9.5423611 17.5555556,9.77777777 C17.5555556,13.4538195 13.8173611,16.4444445 9.22222221,16.4444445 C8.84791665,16.4444445 8.48194443,16.4177084 8.12048609,16.3791667 C9.21527776,18.3760417 11.7836806,19.7777778 14.7777778,19.7777778 C16.2006945,19.7777778 17.5232639,19.4569445 18.6413195,18.9104167 C19.3982639,19.3524306 20.4520834,19.7777778 21.7222223,19.7777778 C21.8333334,19.7777778 21.9336806,19.7114584 21.9770834,19.6097223 C22.0211806,19.5076389 22.0000001,19.3895834 21.9232639,19.3086806 C21.9125,19.2972223 21.1447917,18.4670139 20.6809028,17.4163195 Z" id="path-1"></path>
    </defs>
    <g id="comments-dollar" stroke="none" stroke-width="1" fill="none" fill-rule="evenodd">
        <mask id="mask-2" fill="white">
            <use xlink:href="#path-1"></use>
        </mask>
        <g fill-rule="nonzero"></g>
        <g id="🎨-color" mask="url(#mask-2)" fill="#000000">
            <rect id="🎨-Color" x="0" y="0" width="24" height="24"></rect>
        </g>
    </g>
</svg>