<?xml version="1.0" encoding="UTF-8"?>
<svg width="24px" height="24px" viewBox="0 0 24 24" version="1.1" xmlns="http://www.w3.org/2000/svg" xmlns:xlink="http://www.w3.org/1999/xlink">
    <!-- Generator: Sketch 52.5 (67469) - http://www.bohemiancoding.com/sketch -->
    <title>comment-dollar</title>
    <desc>Created with Sketch.</desc>
    <defs>
        <path d="M12,3.24999996 C6.47734372,3.24999996 1.99999995,6.88749997 1.99999995,11.375 C1.99999995,13.3109375 2.83632808,15.0863281 4.22734371,16.4820313 C3.73671871,18.4472657 2.1054687,20.2019532 2.08593745,20.2226563 C1.99996453,20.3132026 1.97618525,20.4462544 2.02547249,20.5609747 C2.07475974,20.675695 2.18764011,20.7500337 2.31249995,20.75 C4.90078121,20.75 6.84335935,19.5097657 7.80468748,18.7429688 C9.08164061,19.2238282 10.4996094,19.5 12,19.5 C17.5226563,19.5 22.0000001,15.8625 22.0000001,11.375 C22.0000001,6.88749997 17.5226563,3.24999996 12,3.24999996 Z M12.9375,15.0640625 L12.9375,15.75 C12.9375,16.0953125 12.6578125,16.375 12.3125,16.375 L11.6875,16.375 C11.3421875,16.375 11.0625,16.0953125 11.0625,15.75 L11.0625,15.0574219 C10.6164062,15.0046875 10.1921875,14.8546875 9.82109374,14.6097656 C9.57812499,14.4492188 9.55468749,14.0976563 9.76054686,13.8917969 L10.4449219,13.2074219 C10.5910156,13.0613281 10.8085937,13.0417969 10.9960937,13.128125 C11.1203125,13.1851563 11.25625,13.2148438 11.396875,13.2148438 L12.6773438,13.2148438 C12.859375,13.2148438 13.0070313,13.0671875 13.0070313,12.8859375 C13.0070313,12.7394531 12.9085938,12.609375 12.7679688,12.5691406 L10.8121094,12.0105469 C9.94296874,11.7625 9.24921874,11.0453125 9.13593749,10.1484375 C8.97773436,8.89570311 9.87929686,7.8269531 11.0625,7.68554685 L11.0625,6.99999997 C11.0625,6.65468747 11.3421875,6.37499997 11.6875,6.37499997 L12.3125,6.37499997 C12.6578125,6.37499997 12.9375,6.65468747 12.9375,6.99999997 L12.9375,7.6925781 C13.3835938,7.74531248 13.8078125,7.89531248 14.1789063,8.14023436 C14.421875,8.30078123 14.4453125,8.65234373 14.2394531,8.85820311 L13.5550781,9.54257811 C13.4089844,9.68867186 13.1914063,9.70820311 13.0039063,9.62187499 C12.8781407,9.56437077 12.741413,9.53478641 12.603125,9.53515624 L11.3226562,9.53515624 C11.140625,9.53515624 10.9929687,9.68281249 10.9929687,9.86406249 C10.9929687,10.0105469 11.0914062,10.140625 11.2320312,10.1808594 L13.1878906,10.7394531 C14.0570313,10.9878906 14.7507813,11.7046875 14.8640625,12.6015625 C15.0222656,13.8539063 14.1207031,14.9226563 12.9375,15.0640625 Z" id="path-1"></path>
    </defs>
    <g id="comment-dollar" stroke="none" stroke-width="1" fill="none" fill-rule="evenodd">
        <mask id="mask-2" fill="white">
            <use xlink:href="#path-1"></use>
        </mask>
        <g fill-rule="nonzero"></g>
        <g id="🎨-color" mask="url(#mask-2)" fill="#000000">
            <rect id="🎨-Color" x="0" y="0" width="24" height="24"></rect>
        </g>
    </g>
</svg>