<?xml version="1.0" encoding="UTF-8"?>
<svg width="24px" height="24px" viewBox="0 0 24 24" version="1.1" xmlns="http://www.w3.org/2000/svg" xmlns:xlink="http://www.w3.org/1999/xlink">
    <!-- Generator: Sketch 52.5 (67469) - http://www.bohemiancoding.com/sketch -->
    <title>comment</title>
    <desc>Created with Sketch.</desc>
    <defs>
        <path d="M12.0194932,3.26705649 C6.50682258,3.26705649 2.0389863,6.89668613 2.0389863,11.3762183 C2.0389863,13.2319688 2.81481477,14.9317739 4.10136448,16.300195 C3.52046779,17.8362573 2.31189079,19.1384016 2.29239761,19.1539961 C2.03508767,19.4269006 1.96491223,19.8245614 2.11306038,20.1676414 C2.26120853,20.5107213 2.60038982,20.7329435 2.97465882,20.7329435 C5.37231965,20.7329435 7.26315787,19.7309942 8.3976608,18.9278753 C9.52436646,19.2826511 10.7407407,19.4853802 12.0194932,19.4853802 C17.5321638,19.4853802 22,15.8557505 22,11.3762183 C22,6.89668613 17.5321638,3.26705649 12.0194932,3.26705649 Z M12.0194932,17.6140351 C10.9785575,17.6140351 9.94931773,17.4541911 8.96296295,17.1423002 L8.07797269,16.8615985 L7.31773877,17.3996102 C6.76023389,17.7933723 5.99610133,18.2339182 5.07602336,18.5302145 C5.36062375,18.0584796 5.63742687,17.5282651 5.85185182,16.962963 L6.26510718,15.8674464 L5.46198827,15.0175439 C4.75633525,14.2651072 3.91033134,13.0214425 3.91033134,11.3762183 C3.91033134,7.93762181 7.54775826,5.13840153 12.0194932,5.13840153 C16.4912281,5.13840153 20.128655,7.93762181 20.128655,11.3762183 C20.128655,14.8148148 16.4912281,17.6140351 12.0194932,17.6140351 Z" id="path-1"></path>
    </defs>
    <g id="comment" stroke="none" stroke-width="1" fill="none" fill-rule="evenodd">
        <mask id="mask-2" fill="white">
            <use xlink:href="#path-1"></use>
        </mask>
        <g fill-rule="nonzero"></g>
        <g id="🎨-color" mask="url(#mask-2)" fill="#000000">
            <rect id="🎨-Color" x="0" y="0" width="24" height="24"></rect>
        </g>
    </g>
</svg>