<?xml version="1.0" encoding="UTF-8"?>
<svg width="24px" height="24px" viewBox="0 0 24 24" version="1.1" xmlns="http://www.w3.org/2000/svg" xmlns:xlink="http://www.w3.org/1999/xlink">
    <!-- Generator: Sketch 52.5 (67469) - http://www.bohemiancoding.com/sketch -->
    <title>comments</title>
    <desc>Created with Sketch.</desc>
    <defs>
        <path d="M20.4429066,16.5051903 C21.3944637,15.5674741 21.965398,14.3910035 21.965398,13.1072664 C21.965398,10.3391003 19.3183391,8.05190309 15.8685121,7.64359859 C14.7785467,5.650519 12.2179931,4.24913491 9.2318339,4.24913491 C5.25605533,4.24913491 2.03460203,6.72664357 2.03460203,9.78546712 C2.03460203,11.0657439 2.60553629,12.2422145 3.55709338,13.183391 C3.02768162,14.2456748 2.26643594,15.0692042 2.25259511,15.083045 C2.03460203,15.3148789 1.97231829,15.6539793 2.10034597,15.9480969 C2.22491345,16.2422146 2.51557089,16.432526 2.83390999,16.432526 C4.68512107,16.432526 6.17993077,15.733564 7.16608994,15.0899654 C7.48442904,15.1626298 7.81314877,15.2179931 8.14878891,15.2595156 C9.2352941,17.2456748 11.7854671,18.6435986 14.7681661,18.6435986 C15.4878893,18.6435986 16.1799308,18.5605537 16.8373703,18.4083045 C17.8235294,19.0484429 19.3148789,19.7508651 21.1695502,19.7508651 C21.4878893,19.7508651 21.7750866,19.5605537 21.9031142,19.266436 C22.0276817,18.9723184 21.9688582,18.633218 21.7508651,18.4013841 C21.7370243,18.3910035 20.9723184,17.5674741 20.4429066,16.5051903 Z M6.85121105,13.3114187 L6.25951554,13.6955017 C5.77162627,14.0103806 5.27335637,14.2595156 4.76816605,14.4359862 C4.86159166,14.2733564 4.95501727,14.100346 5.04498266,13.9238754 L5.58131485,12.8477509 L4.72318335,12 C4.25605532,11.5363322 3.69550169,10.7785467 3.69550169,9.78546712 C3.69550169,7.68512109 6.23183388,5.91003457 9.2318339,5.91003457 C12.2318339,5.91003457 14.7681661,7.68512109 14.7681661,9.78546712 C14.7681661,11.8858131 12.2318339,13.6608997 9.2318339,13.6608997 C8.66089964,13.6608997 8.08996538,13.5951557 7.53633216,13.467128 L6.85121105,13.3114187 Z M19.2768166,15.3217993 L18.4221454,16.16609 L18.9584775,17.2422146 C19.0484429,17.4186851 19.1418685,17.5916955 19.2352942,17.7543253 C18.7301038,17.5778547 18.2318339,17.3287197 17.7439447,17.0138409 L17.1522492,16.6297578 L16.4636678,16.7889274 C15.9100346,16.916955 15.3391004,16.982699 14.7681661,16.982699 C12.899654,16.982699 11.2318339,16.2871973 10.2249135,15.2629758 C13.7301038,14.8892734 16.4290658,12.5847751 16.4290658,9.78546712 C16.4290658,9.66782006 16.4152249,9.55363321 16.4048443,9.43944635 C18.633218,9.94117646 20.3044983,11.4048443 20.3044983,13.1072664 C20.3044983,14.100346 19.7439447,14.8581315 19.2768166,15.3217993 Z" id="path-1"></path>
    </defs>
    <g id="comments" stroke="none" stroke-width="1" fill="none" fill-rule="evenodd">
        <mask id="mask-2" fill="white">
            <use xlink:href="#path-1"></use>
        </mask>
        <g fill-rule="nonzero"></g>
        <g id="🎨-color" mask="url(#mask-2)" fill="#000000">
            <rect id="🎨-Color" x="0" y="0" width="24" height="24"></rect>
        </g>
    </g>
</svg>