<?xml version="1.0" encoding="UTF-8"?>
<svg width="24px" height="24px" viewBox="0 0 24 24" version="1.1" xmlns="http://www.w3.org/2000/svg" xmlns:xlink="http://www.w3.org/1999/xlink">
    <!-- Generator: Sketch 52.5 (67469) - http://www.bohemiancoding.com/sketch -->
    <title>compress</title>
    <desc>Created with Sketch.</desc>
    <defs>
        <path d="M20.28125,9.49999999 L15.4375,9.49999999 C14.9179688,9.49999999 14.5,9.08203124 14.5,8.56249998 L14.5,3.71874996 C14.5,3.46093746 14.7109375,3.24999996 14.96875,3.24999996 L16.53125,3.24999996 C16.7890625,3.24999996 17,3.46093746 17,3.71874996 L17,6.99999997 L20.28125,6.99999997 C20.5390625,6.99999997 20.75,7.21093748 20.75,7.46874998 L20.75,9.03124999 C20.75,9.28906249 20.5390625,9.49999999 20.28125,9.49999999 Z M9.49999999,8.56249998 L9.49999999,3.71874996 C9.49999999,3.46093746 9.28906249,3.24999996 9.03124999,3.24999996 L7.46874998,3.24999996 C7.21093748,3.24999996 6.99999997,3.46093746 6.99999997,3.71874996 L6.99999997,6.99999997 L3.71874996,6.99999997 C3.46093746,6.99999997 3.24999996,7.21093748 3.24999996,7.46874998 L3.24999996,9.03124999 C3.24999996,9.28906249 3.46093746,9.49999999 3.71874996,9.49999999 L8.56249998,9.49999999 C9.08203124,9.49999999 9.49999999,9.08203124 9.49999999,8.56249998 Z M9.49999999,20.28125 L9.49999999,15.4375 C9.49999999,14.9179688 9.08203124,14.5 8.56249998,14.5 L3.71874996,14.5 C3.46093746,14.5 3.24999996,14.7109375 3.24999996,14.96875 L3.24999996,16.53125 C3.24999996,16.7890625 3.46093746,17 3.71874996,17 L6.99999997,17 L6.99999997,20.28125 C6.99999997,20.5390625 7.21093748,20.75 7.46874998,20.75 L9.03124999,20.75 C9.28906249,20.75 9.49999999,20.5390625 9.49999999,20.28125 Z M17,20.28125 L17,17 L20.28125,17 C20.5390625,17 20.75,16.7890625 20.75,16.53125 L20.75,14.96875 C20.75,14.7109375 20.5390625,14.5 20.28125,14.5 L15.4375,14.5 C14.9179688,14.5 14.5,14.9179688 14.5,15.4375 L14.5,20.28125 C14.5,20.5390625 14.7109375,20.75 14.96875,20.75 L16.53125,20.75 C16.7890625,20.75 17,20.5390625 17,20.28125 Z" id="path-1"></path>
    </defs>
    <g id="compress" stroke="none" stroke-width="1" fill="none" fill-rule="evenodd">
        <mask id="mask-2" fill="white">
            <use xlink:href="#path-1"></use>
        </mask>
        <g fill-rule="nonzero"></g>
        <g id="🎨-color" mask="url(#mask-2)" fill="#000000">
            <rect id="🎨-Color" x="0" y="0" width="24" height="24"></rect>
        </g>
    </g>
</svg>