<?xml version="1.0" encoding="UTF-8"?>
<svg width="24px" height="24px" viewBox="0 0 24 24" version="1.1" xmlns="http://www.w3.org/2000/svg" xmlns:xlink="http://www.w3.org/1999/xlink">
    <!-- Generator: Sketch 52.5 (67469) - http://www.bohemiancoding.com/sketch -->
    <title>compact-disc</title>
    <desc>Created with Sketch.</desc>
    <defs>
        <path d="M12,2.31249995 C6.64843747,2.31249995 2.31249995,6.64843747 2.31249995,12 C2.31249995,17.3515625 6.64843747,21.6875 12,21.6875 C17.3515625,21.6875 21.6875,17.3515625 21.6875,12 C21.6875,6.64843747 17.3515625,2.31249995 12,2.31249995 Z M5.74999997,12 L4.49999996,12 C4.49999996,7.86328123 7.86328123,4.49999996 12,4.49999996 L12,5.74999997 C8.55468748,5.74999997 5.74999997,8.55468748 5.74999997,12 Z M12,15.75 C9.92968749,15.75 8.24999998,14.0703125 8.24999998,12 C8.24999998,9.92968749 9.92968749,8.24999998 12,8.24999998 C14.0703125,8.24999998 15.75,9.92968749 15.75,12 C15.75,14.0703125 14.0703125,15.75 12,15.75 Z M12,10.75 C11.3085937,10.75 10.75,11.3085937 10.75,12 C10.75,12.6914063 11.3085937,13.25 12,13.25 C12.6914063,13.25 13.25,12.6914063 13.25,12 C13.25,11.3085937 12.6914063,10.75 12,10.75 Z" id="path-1"></path>
    </defs>
    <g id="compact-disc" stroke="none" stroke-width="1" fill="none" fill-rule="evenodd">
        <mask id="mask-2" fill="white">
            <use xlink:href="#path-1"></use>
        </mask>
        <g fill-rule="nonzero"></g>
        <g id="🎨-color" mask="url(#mask-2)" fill="#000000">
            <rect id="🎨-Color" x="0" y="0" width="24" height="24"></rect>
        </g>
    </g>
</svg>