<?xml version="1.0" encoding="UTF-8"?>
<svg width="24px" height="24px" viewBox="0 0 24 24" version="1.1" xmlns="http://www.w3.org/2000/svg" xmlns:xlink="http://www.w3.org/1999/xlink">
    <!-- Generator: Sketch 52.5 (67469) - http://www.bohemiancoding.com/sketch -->
    <title>concierge-bell</title>
    <desc>Created with Sketch.</desc>
    <defs>
        <path d="M13.25,7.09921873 L13.25,6.37499997 L13.875,6.37499997 C14.2203125,6.37499997 14.5,6.09531247 14.5,5.74999997 L14.5,5.12499997 C14.5,4.77968746 14.2203125,4.49999996 13.875,4.49999996 L10.125,4.49999996 C9.77968749,4.49999996 9.49999999,4.77968746 9.49999999,5.12499997 L9.49999999,5.74999997 C9.49999999,6.09531247 9.77968749,6.37499997 10.125,6.37499997 L10.75,6.37499997 L10.75,7.09921873 C6.5113281,7.70742185 3.24999996,11.3429687 3.24999996,15.75 L20.75,15.75 C20.75,11.3429687 17.4886719,7.70742185 13.25,7.09921873 Z M21.375,17 L2.62499995,17 C2.27968745,17 1.99999995,17.2796875 1.99999995,17.625 L1.99999995,18.875 C1.99999995,19.2203125 2.27968745,19.5 2.62499995,19.5 L21.375,19.5 C21.7203125,19.5 22.0000001,19.2203125 22.0000001,18.875 L22.0000001,17.625 C22.0000001,17.2796875 21.7203125,17 21.375,17 Z" id="path-1"></path>
    </defs>
    <g id="concierge-bell" stroke="none" stroke-width="1" fill="none" fill-rule="evenodd">
        <mask id="mask-2" fill="white">
            <use xlink:href="#path-1"></use>
        </mask>
        <g fill-rule="nonzero"></g>
        <g id="🎨-color" mask="url(#mask-2)" fill="#000000">
            <rect id="🎨-Color" x="0" y="0" width="24" height="24"></rect>
        </g>
    </g>
</svg>