<?xml version="1.0" encoding="UTF-8"?>
<svg width="24px" height="24px" viewBox="0 0 24 24" version="1.1" xmlns="http://www.w3.org/2000/svg" xmlns:xlink="http://www.w3.org/1999/xlink">
    <!-- Generator: Sketch 52.5 (67469) - http://www.bohemiancoding.com/sketch -->
    <title>connectdevelop</title>
    <desc>Created with Sketch.</desc>
    <defs>
        <path d="M21.1145834,11.4791667 L19.375382,8.46576387 C19.4125695,8.39138887 19.4404861,8.30767359 19.4404861,8.21465276 C19.4404861,7.93562498 19.2079861,7.70309026 18.9289584,7.6937847 L17.0037153,4.36416663 C17.0223264,4.30836802 17.0409028,4.25256941 17.0409028,4.19677079 C17.0409028,3.89916663 16.7990972,3.6666319 16.5107639,3.6666319 C16.3433681,3.6666319 16.2038542,3.74104163 16.1015278,3.8619444 L12.3999306,3.8619444 C12.3069097,3.74107635 12.1673958,3.66666662 12,3.66666662 C11.8326042,3.66666662 11.6930903,3.74107635 11.6000694,3.86197913 L7.91704859,3.86197913 C7.8147222,3.74107635 7.67524303,3.66666662 7.50781248,3.66666662 C7.21951386,3.66666662 6.97767359,3.89916663 6.97767359,4.19680552 C6.97767359,4.25260413 6.9962847,4.31770829 7.01489581,4.36420135 L5.07104163,7.7403472 C4.88506941,7.82402776 4.75482635,8.00076387 4.75482635,8.21468748 C4.75482635,8.23326387 4.76413191,8.25187498 4.76413191,8.27048609 L2.91329857,11.4698958 C2.66218745,11.5163889 2.47614579,11.7303125 2.47614579,11.9907292 C2.47614579,12.2418403 2.65284718,12.4557639 2.89468745,12.5115625 L4.81062496,15.8226042 C4.79201385,15.8784028 4.7827083,15.9248959 4.7827083,15.99 C4.7827083,16.2411111 4.95940969,16.4550347 5.20124997,16.5015278 L6.9962847,19.6172223 C6.97767359,19.6730209 6.9590972,19.738125 6.9590972,19.8032292 C6.9590972,20.1008334 7.20090275,20.3333681 7.48923609,20.3333681 C7.65663192,20.3333681 7.79614581,20.2589584 7.88916665,20.1473612 L11.6001042,20.1473612 C11.6930903,20.2589237 11.8419097,20.3333334 12,20.3333334 C12.1580903,20.3333334 12.3069097,20.2589237 12.3999306,20.1473264 L16.1201736,20.1473264 C16.2131597,20.2496181 16.3526736,20.3147223 16.5014931,20.3147223 C16.7990972,20.3147223 17.031632,20.0729167 17.031632,19.7845834 C17.031632,19.7287848 17.0223611,19.6822917 17.00375,19.6357986 L18.7987848,16.5014931 C19.0405903,16.455 19.2173264,16.2410764 19.2173264,15.9899653 C19.2173264,15.9341667 19.2080209,15.8783681 19.1894098,15.8225695 L21.0960417,12.5115278 C21.3378473,12.4650347 21.5238889,12.2511111 21.5238889,11.9906944 C21.5238195,11.7395833 21.3470834,11.5256597 21.1145834,11.4791667 Z M7.33107637,18.7615278 L5.81510414,16.1294792 L7.33107637,16.1294792 L7.33107637,18.7615278 Z M7.33107637,15.8504514 L5.81510414,15.8504514 C5.80579858,15.8132639 5.78718747,15.7760764 5.76861108,15.7388542 L7.33107637,14.0926736 L7.33107637,15.8504514 Z M7.33107637,13.6834028 L5.58256941,15.5342361 C5.53607636,15.515625 5.48954858,15.4877084 5.44305552,15.4784375 L3.50857635,12.1302083 C3.52715274,12.0837153 3.52715274,12.0371875 3.52715274,11.9906944 C3.52715274,11.9442014 3.52715274,11.9070139 3.51784718,11.8697917 L5.32218747,8.74479165 C5.4152083,8.73548609 5.50819441,8.70756943 5.59190969,8.65177082 L7.33111109,10.4561111 L7.33111109,13.6834028 L7.33107637,13.6834028 Z M7.33107637,10.1305555 L5.74069441,8.48437498 C5.78718747,8.40996526 5.81510414,8.31697915 5.81510414,8.21468748 C5.81510414,8.20538193 5.80579858,8.18677081 5.80579858,8.17746526 L7.33107637,7.62871526 L7.33107637,10.1305555 Z M7.33107637,7.33107637 L5.81510414,7.87982637 L7.33107637,5.25704858 L7.33107637,7.33107637 Z M18.6685417,8.68899304 L18.6964584,8.73548609 L17.46875,14.5390625 L15.2552083,12.2046181 L18.6592361,8.67968748 L18.6685417,8.68899304 Z M12.1302083,15.4412153 L12.5301389,15.8504514 L11.7395833,15.8504514 L12.1302083,15.4412153 Z M12.1209028,15.0505903 L9.22843749,12.0837153 L11.9906944,9.15402776 L14.8738889,12.1953125 L12.1209028,15.0505903 Z M12.3069097,15.2552083 L15.0598958,12.3999306 L17.4036459,14.8738889 L17.1990625,15.8504514 L12.8928472,15.8504514 L12.3069097,15.2552083 Z M16.250382,4.65253469 C16.2875695,4.6711458 16.324757,4.68975691 16.3712847,4.69906246 L18.3802084,8.19607637 L18.3802084,8.21468748 C18.3802084,8.31697915 18.4080903,8.40996526 18.4546181,8.48437498 L15.0692014,12 L12.1860417,8.95871526 L16.250382,4.65253469 Z M15.9341667,4.57812496 L11.9906944,8.75409721 L10.0096528,6.66145831 L15.7853125,4.57812496 L15.9341667,4.57812496 Z M11.6465625,4.57812496 C11.7395486,4.67111107 11.8604514,4.72690969 12,4.72690969 C12.1395486,4.72690969 12.2604167,4.67111107 12.3534375,4.57812496 L14.9576042,4.57812496 L9.80506943,6.43822914 L8.03795137,4.57812496 L11.6465625,4.57812496 Z M7.61013887,4.77343746 L7.64732637,4.69906246 C7.67870486,4.6910431 7.70973832,4.68172959 7.7403472,4.6711458 L9.51677082,6.54059025 L7.61013887,7.22881942 L7.61013887,4.77343746 Z M7.61013887,7.52642359 L9.72135416,6.7637847 L11.7953819,8.95871526 L9.03312499,11.8790972 L7.61013887,10.4189236 L7.61013887,7.52642359 Z M7.61013887,10.7444097 L8.87499998,12.0557986 L7.61013887,13.3857986 L7.61013887,10.7444097 Z M7.61013887,13.7950347 L9.07031249,12.2511458 L11.9442014,15.236632 L11.3489583,15.8504514 L7.61013887,15.8504514 L7.61013887,13.7950347 Z M7.85194442,19.421875 C7.79614581,19.3660764 7.73104165,19.3288889 7.64732637,19.3009723 L7.61013887,19.2451736 L7.61013887,16.1294792 L11.0792361,16.1294792 L7.89843748,19.421875 L7.85194442,19.421875 Z M12.3627431,19.421875 C12.2697222,19.3381945 12.1395486,19.2730903 12,19.2730903 C11.8604514,19.2730903 11.7303125,19.3381945 11.6372569,19.421875 L8.28902776,19.421875 L11.4698264,16.1294792 L12.7998264,16.1294792 L15.980625,19.421875 L12.3627431,19.421875 Z M16.5294097,19.0126389 L16.3805903,19.2730556 C16.3340972,19.2823611 16.2969097,19.3009375 16.2596875,19.3195486 L13.1626042,16.1294445 L17.1339931,16.1294445 L16.5294097,19.0126389 Z M16.9757986,18.2406945 L17.422257,16.1294792 L18.1848959,16.1294792 L16.9757986,18.2406945 Z M18.1848959,15.8504514 L17.4780556,15.8504514 L17.6361459,15.1157292 L18.2313889,15.7481597 C18.2128125,15.7760417 18.1942014,15.8132292 18.1848959,15.8504514 Z M20.4821528,12.1209028 L18.5569098,15.4784375 C18.5104167,15.4970139 18.4638889,15.515625 18.4173959,15.543507 L17.70125,14.7808681 L18.9010417,9.0889236 L20.4914237,11.8419097 C20.4821528,11.8884028 20.4635417,11.9348958 20.4635417,11.9906944 C20.4635417,12.0371875 20.4728473,12.0744097 20.4821528,12.1209028 Z" id="path-1"></path>
    </defs>
    <g id="connectdevelop" stroke="none" stroke-width="1" fill="none" fill-rule="evenodd">
        <mask id="mask-2" fill="white">
            <use xlink:href="#path-1"></use>
        </mask>
        <g fill-rule="nonzero"></g>
        <g id="🎨-color" mask="url(#mask-2)" fill="#000000">
            <rect id="🎨-Color" x="0" y="0" width="24" height="24"></rect>
        </g>
    </g>
</svg>