<?xml version="1.0" encoding="UTF-8"?>
<svg width="24px" height="24px" viewBox="0 0 24 24" version="1.1" xmlns="http://www.w3.org/2000/svg" xmlns:xlink="http://www.w3.org/1999/xlink">
    <!-- Generator: Sketch 52.5 (67469) - http://www.bohemiancoding.com/sketch -->
    <title>contao</title>
    <desc>Created with Sketch.</desc>
    <defs>
        <path d="M3.77343746,13.9140625 C4.33593746,16.5351563 4.80468746,18.953125 6.43749997,20.75 L3.32812496,20.75 C2.5976562,20.75 1.99999995,20.15625 1.99999995,19.421875 L1.99999995,4.57812496 C1.99999995,3.84765621 2.59374995,3.24999996 3.32812496,3.24999996 L5.58203122,3.24999996 C5.04296872,3.74218746 4.56249996,4.31249996 4.14062496,4.95312496 C2.36718745,7.68749998 3.08593746,10.6875 3.77343746,13.9140625 Z M20.671875,3.24999996 L17.1484375,3.24999996 C17.984375,4.08593746 18.6796875,5.18359372 19.2070313,6.53515622 L13.8515625,7.67968748 C13.2695313,6.54687497 12.375,5.59765622 10.625,5.96484372 C9.66406249,6.17187497 9.02343749,6.71874997 8.73828123,7.31640623 C8.39453123,8.04687498 8.22265623,8.87109373 9.05859374,12.796875 C9.88281249,16.7109375 10.375,17.3945313 10.9921875,17.921875 C11.4960937,18.3554688 12.296875,18.5859375 13.2695313,18.3789063 C15.0078125,18.0117188 15.4453125,16.7890625 15.5117188,15.5195313 L20.8789063,14.3632813 C21.0039063,17.15625 20.1484375,19.2539063 18.6367188,20.7539063 L20.671875,20.7539063 C21.4023438,20.7539063 22.0000001,20.1601563 22.0000001,19.4257813 L22.0000001,4.57812496 C22.0000001,3.84374996 21.40625,3.24999996 20.671875,3.24999996 Z" id="path-1"></path>
    </defs>
    <g id="contao" stroke="none" stroke-width="1" fill="none" fill-rule="evenodd">
        <mask id="mask-2" fill="white">
            <use xlink:href="#path-1"></use>
        </mask>
        <g fill-rule="nonzero"></g>
        <g id="🎨-color" mask="url(#mask-2)" fill="#000000">
            <rect id="🎨-Color" x="0" y="0" width="24" height="24"></rect>
        </g>
    </g>
</svg>