<?xml version="1.0" encoding="UTF-8"?>
<svg width="24px" height="24px" viewBox="0 0 24 24" version="1.1" xmlns="http://www.w3.org/2000/svg" xmlns:xlink="http://www.w3.org/1999/xlink">
    <!-- Generator: Sketch 52.5 (67469) - http://www.bohemiancoding.com/sketch -->
    <title>cookie</title>
    <desc>Created with Sketch.</desc>
    <defs>
        <path d="M21.8976654,11.933463 L21.4276265,8.96614784 C21.2573976,7.89105741 20.7512549,6.89743233 19.9817121,6.12762643 L17.8509728,3.99727622 C17.0832685,3.22996105 16.0929961,2.72490268 15.0217899,2.55564198 L12.0373541,2.08287933 C10.9669261,1.91322952 9.870428,2.08715948 8.90428014,2.57937738 L6.21478596,3.9494163 C5.24657014,4.44285495 4.45941893,5.23014237 3.96614782,6.19844355 L2.60038906,8.87859921 C2.10575178,9.84940288 1.93113262,10.9518736 2.10155637,12.0280156 L2.57159528,14.9957199 C2.74182417,16.0708103 3.24796684,17.0644354 4.01750969,17.8342413 L6.148249,19.9645915 C6.91550513,20.7317119 7.90584553,21.2363483 8.97743189,21.4062257 L11.9618677,21.8785993 C13.0322957,22.0482491 14.1287938,21.8743191 15.0949416,21.3824903 L17.7844358,20.0124514 C18.752569,19.5188991 19.5396892,18.7316428 20.033074,17.7634242 L21.3988327,15.0836576 C21.8933853,14.1124514 22.0680934,13.0097276 21.8976654,11.933463 Z M8.88715952,16.3385214 C8.19961088,16.3385214 7.64202332,15.7809339 7.64202332,15.0933852 C7.64202332,14.4058366 8.19961088,13.848249 8.88715952,13.848249 C9.57470816,13.848249 10.1322957,14.4058366 10.1322957,15.0933852 C10.1322957,15.7809339 9.57470816,16.3385214 8.88715952,16.3385214 Z M10.1322957,10.1128405 C9.44474707,10.1128405 8.88715952,9.55525291 8.88715952,8.86770426 C8.88715952,8.18015562 9.44474707,7.62256807 10.1322957,7.62256807 C10.8198444,7.62256807 11.3774319,8.18015562 11.3774319,8.86770426 C11.3774319,9.55525291 10.8198444,10.1128405 10.1322957,10.1128405 Z M16.3579767,15.0933852 C15.670428,15.0933852 15.1128405,14.5357977 15.1128405,13.848249 C15.1128405,13.1607004 15.670428,12.6031128 16.3579767,12.6031128 C17.0455253,12.6031128 17.6031129,13.1607004 17.6031129,13.848249 C17.6031129,14.5357977 17.0455253,15.0933852 16.3579767,15.0933852 Z" id="path-1"></path>
    </defs>
    <g id="cookie" stroke="none" stroke-width="1" fill="none" fill-rule="evenodd">
        <mask id="mask-2" fill="white">
            <use xlink:href="#path-1"></use>
        </mask>
        <g fill-rule="nonzero"></g>
        <g id="🎨-color" mask="url(#mask-2)" fill="#000000">
            <rect id="🎨-Color" x="0" y="0" width="24" height="24"></rect>
        </g>
    </g>
</svg>