<?xml version="1.0" encoding="UTF-8"?>
<svg width="24px" height="24px" viewBox="0 0 24 24" version="1.1" xmlns="http://www.w3.org/2000/svg" xmlns:xlink="http://www.w3.org/1999/xlink">
    <!-- Generator: Sketch 52.5 (67469) - http://www.bohemiancoding.com/sketch -->
    <title>cookie-bite</title>
    <desc>Created with Sketch.</desc>
    <defs>
        <path d="M21.903502,11.9735409 C19.1809339,11.9404669 16.9824903,9.72879376 16.9824903,6.99844355 C14.2521401,6.99844355 12.040856,4.80038907 12.007393,2.07821007 C10.9466926,1.91712057 9.8622568,2.08988322 8.90544746,2.57704275 L6.21556417,3.94747078 C5.24724298,4.44094741 4.46006757,5.22839524 3.96692603,6.19688713 L2.60116727,8.87704279 C2.10655834,9.84799547 1.93194276,10.9505798 2.10233458,12.0268482 L2.57237349,14.9945525 C2.7425962,16.0697581 3.24873366,17.0635092 4.0182879,17.8334631 L6.14941631,19.9642024 C6.91653868,20.7315768 7.90692303,21.2363718 8.97859921,21.4062257 L11.9634241,21.8789884 C13.0338521,22.0486382 14.1307393,21.8747082 15.0968872,21.3824903 L17.7867705,20.0124514 C18.755009,19.518861 19.5421533,18.7314443 20.0354086,17.763035 L21.4011674,15.0828794 C21.8898833,14.1241245 22.0630351,13.036965 21.903502,11.9735409 Z M8.88715952,16.3385214 C8.19961088,16.3385214 7.64202332,15.7809339 7.64202332,15.0933852 C7.64202332,14.4058366 8.19961088,13.848249 8.88715952,13.848249 C9.57470816,13.848249 10.1322957,14.4058366 10.1322957,15.0933852 C10.1322957,15.7809339 9.57470816,16.3385214 8.88715952,16.3385214 Z M10.1322957,10.1128405 C9.44474707,10.1128405 8.88715952,9.55525291 8.88715952,8.86770426 C8.88715952,8.18015562 9.44474707,7.62256807 10.1322957,7.62256807 C10.8198444,7.62256807 11.3774319,8.18015562 11.3774319,8.86770426 C11.3774319,9.55525291 10.8198444,10.1128405 10.1322957,10.1128405 Z M16.3579767,15.0933852 C15.670428,15.0933852 15.1128405,14.5357977 15.1128405,13.848249 C15.1128405,13.1607004 15.670428,12.6031128 16.3579767,12.6031128 C17.0455253,12.6031128 17.6031129,13.1607004 17.6031129,13.848249 C17.6031129,14.5357977 17.0455253,15.0933852 16.3579767,15.0933852 Z" id="path-1"></path>
    </defs>
    <g id="cookie-bite" stroke="none" stroke-width="1" fill="none" fill-rule="evenodd">
        <mask id="mask-2" fill="white">
            <use xlink:href="#path-1"></use>
        </mask>
        <g fill-rule="nonzero"></g>
        <g id="🎨-color" mask="url(#mask-2)" fill="#000000">
            <rect id="🎨-Color" x="0" y="0" width="24" height="24"></rect>
        </g>
    </g>
</svg>