<?xml version="1.0" encoding="UTF-8"?>
<svg width="24px" height="24px" viewBox="0 0 24 24" version="1.1" xmlns="http://www.w3.org/2000/svg" xmlns:xlink="http://www.w3.org/1999/xlink">
    <!-- Generator: Sketch 52.5 (67469) - http://www.bohemiancoding.com/sketch -->
    <title>copyright</title>
    <desc>Created with Sketch.</desc>
    <defs>
        <path d="M12,2.31249995 C6.64972654,2.31249995 2.31249995,6.64972654 2.31249995,12 C2.31249995,17.3502735 6.64972654,21.6875 12,21.6875 C17.3502735,21.6875 21.6875,17.3502735 21.6875,12 C21.6875,6.64972654 17.3502735,2.31249995 12,2.31249995 Z M12,19.8125 C7.68234373,19.8125 4.18749996,16.3183203 4.18749996,12 C4.18749996,7.68238279 7.68167967,4.18749996 12,4.18749996 C16.3176563,4.18749996 19.8125,7.68167967 19.8125,12 C19.8125,16.3176563 16.3183203,19.8125 12,19.8125 Z M16.1933985,15.8646875 C15.8178516,16.2440625 14.4148828,17.4817188 12.1283594,17.4817188 C8.90843748,17.4817188 6.6407031,15.0823047 6.6407031,11.9517578 C6.6407031,8.8598828 8.9951953,6.50640622 12.1001563,6.50640622 C14.2693359,6.50640622 15.5664844,7.54624998 15.9123828,7.86496092 C16.0802091,8.01931095 16.1121668,8.27223293 15.9880078,8.46347654 L15.2788281,9.56164061 C15.1287891,9.79406249 14.8114063,9.84609374 14.5952735,9.67574218 C14.2595313,9.41105467 13.3525391,8.79535155 12.1848047,8.79535155 C10.2979687,8.79535155 9.14121092,10.1754297 9.14121092,11.9235547 C9.14121092,13.548125 10.1915234,15.1927735 12.1989063,15.1927735 C13.4745703,15.1927735 14.4193359,14.4490625 14.7663281,14.1292969 C14.9721875,13.9395703 15.2974219,13.9715234 15.4624219,14.1971875 L16.2383985,15.2585156 C16.375082,15.4439803 16.3559692,15.7014384 16.1933985,15.8646875 Z" id="path-1"></path>
    </defs>
    <g id="copyright" stroke="none" stroke-width="1" fill="none" fill-rule="evenodd">
        <mask id="mask-2" fill="white">
            <use xlink:href="#path-1"></use>
        </mask>
        <g fill-rule="nonzero"></g>
        <g id="🎨-color" mask="url(#mask-2)" fill="#000000">
            <rect id="🎨-Color" x="0" y="0" width="24" height="24"></rect>
        </g>
    </g>
</svg>