<?xml version="1.0" encoding="UTF-8"?>
<svg width="24px" height="24px" viewBox="0 0 24 24" version="1.1" xmlns="http://www.w3.org/2000/svg" xmlns:xlink="http://www.w3.org/1999/xlink">
    <!-- Generator: Sketch 52.5 (67469) - http://www.bohemiancoding.com/sketch -->
    <title>copy</title>
    <desc>Created with Sketch.</desc>
    <defs>
        <path d="M20.2008204,4.57582028 L18.1741797,2.54917964 C17.822551,2.19754833 17.3456393,2.00000255 16.8483594,1.99999995 L10.125,1.99999995 C9.08945311,1.99999995 8.24999998,2.83945308 8.24999998,3.87499996 L8.24999998,5.74999997 L5.12499997,5.74999997 C4.08945309,5.74999997 3.24999996,6.5894531 3.24999996,7.62499998 L3.24999996,20.125 C3.24999996,21.1605469 4.08945309,22 5.12499997,22 L13.875,22 C14.9105469,22 15.75,21.1605469 15.75,20.125 L15.75,18.25 L18.875,18.25 C19.9105469,18.25 20.75,17.4105469 20.75,16.375 L20.75,5.90164059 C20.7499974,5.40436067 20.5524517,4.92744898 20.2008204,4.57582028 Z M13.640625,20.125 L5.35937497,20.125 C5.22993323,20.125 5.12499997,20.0200668 5.12499997,19.890625 L5.12499997,7.85937498 C5.12499997,7.72993324 5.22993323,7.62499998 5.35937497,7.62499998 L8.24999998,7.62499998 L8.24999998,16.375 C8.24999998,17.4105469 9.08945311,18.25 10.125,18.25 L13.875,18.25 L13.875,19.890625 C13.875,20.0200668 13.7700667,20.125 13.640625,20.125 Z M18.640625,16.375 L10.359375,16.375 C10.2299333,16.375 10.125,16.2700668 10.125,16.140625 L10.125,4.10937496 C10.125,3.97993322 10.2299333,3.87499996 10.359375,3.87499996 L14.5,3.87499996 L14.5,7.31249998 C14.5,7.83027342 14.9197266,8.24999998 15.4375,8.24999998 L18.875,8.24999998 L18.875,16.140625 C18.875,16.2700668 18.7700668,16.375 18.640625,16.375 Z M18.875,6.37499997 L16.375,6.37499997 L16.375,3.87499996 L16.75125,3.87499996 C16.8133985,3.87499996 16.8730078,3.89968746 16.9169922,3.94363277 L18.8063672,5.83300778 C18.8503194,5.87696736 18.8750075,5.93658701 18.875,5.99874997 L18.875,6.37499997 Z" id="path-1"></path>
    </defs>
    <g id="copy" stroke="none" stroke-width="1" fill="none" fill-rule="evenodd">
        <mask id="mask-2" fill="white">
            <use xlink:href="#path-1"></use>
        </mask>
        <g fill-rule="nonzero"></g>
        <g id="🎨-color" mask="url(#mask-2)" fill="#000000">
            <rect id="🎨-Color" x="0" y="0" width="24" height="24"></rect>
        </g>
    </g>
</svg>