<?xml version="1.0" encoding="UTF-8"?>
<svg width="24px" height="24px" viewBox="0 0 24 24" version="1.1" xmlns="http://www.w3.org/2000/svg" xmlns:xlink="http://www.w3.org/1999/xlink">
    <!-- Generator: Sketch 52.5 (67469) - http://www.bohemiancoding.com/sketch -->
    <title>couch</title>
    <desc>Created with Sketch.</desc>
    <defs>
        <path d="M6.99999997,11 L6.99999997,13 L17,13 L17,11 C17,9.89687499 17.896875,8.99999998 19,8.99999998 L20,8.99999998 C20,7.34374998 18.65625,5.99999997 17,5.99999997 L6.99999997,5.99999997 C5.34374997,5.99999997 3.99999996,7.34374998 3.99999996,8.99999998 L4.99999996,8.99999998 C6.10312497,8.99999998 6.99999997,9.89687499 6.99999997,11 Z M20,9.99999999 L19,9.99999999 C18.446875,9.99999999 18,10.446875 18,11 L18,14 L5.99999997,14 L5.99999997,11 C5.99999997,10.446875 5.55312497,9.99999999 4.99999996,9.99999999 L3.99999996,9.99999999 C2.89687495,9.99999999 1.99999995,10.896875 1.99999995,12 C1.99999995,12.7375 2.40624995,13.375 2.99999995,13.721875 L2.99999995,17.5 C2.99999995,17.775 3.22499996,18 3.49999996,18 L5.49999997,18 C5.77499997,18 5.99999997,17.775 5.99999997,17.5 L5.99999997,17 L18,17 L18,17.5 C18,17.775 18.225,18 18.5,18 L20.5,18 C20.775,18 21,17.775 21,17.5 L21,13.721875 C21.59375,13.375 22.0000001,12.7375 22.0000001,12 C22.0000001,10.896875 21.103125,9.99999999 20,9.99999999 Z" id="path-1"></path>
    </defs>
    <g id="couch" stroke="none" stroke-width="1" fill="none" fill-rule="evenodd">
        <mask id="mask-2" fill="white">
            <use xlink:href="#path-1"></use>
        </mask>
        <g fill-rule="nonzero"></g>
        <g id="🎨-color" mask="url(#mask-2)" fill="#000000">
            <rect id="🎨-Color" x="0" y="0" width="24" height="24"></rect>
        </g>
    </g>
</svg>