<?xml version="1.0" encoding="UTF-8"?>
<svg width="24px" height="24px" viewBox="0 0 24 24" version="1.1" xmlns="http://www.w3.org/2000/svg" xmlns:xlink="http://www.w3.org/1999/xlink">
    <!-- Generator: Sketch 52.5 (67469) - http://www.bohemiancoding.com/sketch -->
    <title>cpanel</title>
    <desc>Created with Sketch.</desc>
    <defs>
        <path d="M3.68174723,10.6801872 L4.92979716,10.6801872 L4.73634942,11.4165367 C4.67706705,11.6193448 4.50546018,11.7566303 4.29017157,11.7566303 L3.70982835,11.7566303 C2.93291727,11.7566303 2.93915752,12.9235569 3.70982835,12.9235569 L4.06240246,12.9235569 C4.1934477,12.9235569 4.29953194,13.0452418 4.26209044,13.1825273 L4.04056158,13.9968799 L3.6536661,13.9968799 C2.60842429,13.9968799 1.81279246,13.0171607 2.08424332,11.9625585 C2.31201243,11.1201248 2.96723864,10.6801872 3.68174723,10.6801872 Z M4.31201244,13.9968799 L5.400936,9.93759749 C5.45709825,9.73790951 5.62558499,9.59750389 5.84711385,9.59750389 L7.00156004,9.59750389 C7.75351012,9.59750389 8.41809671,10.1092044 8.5928237,10.8829953 C8.79875193,11.7909516 8.1404056,12.9204368 6.97971916,12.9204368 L5.98127922,12.9204368 L6.18096721,12.1778471 C6.23712946,11.9843994 6.40873632,11.8408736 6.62714506,11.8408736 L6.94851792,11.8408736 C7.33541339,11.8408736 7.59750388,11.475819 7.51950076,11.1357254 C7.45397814,10.8486739 7.2106084,10.673947 6.94851792,10.673947 L6.3307332,10.673947 L5.525741,13.6599064 C5.46645863,13.8533541 5.29485176,13.9937598 5.08268327,13.9937598 L4.31201244,13.9968799 Z M11.1950078,11.8315133 C11.2043682,11.800312 11.2542902,11.6661466 11.1294852,11.6661466 L9.3354134,11.6661466 C9.0327613,11.6661466 8.81747268,11.3884555 8.89235568,11.0889236 L9.00156005,10.6708268 L11.4321373,10.6708268 C12.0187207,10.6708268 12.4711388,11.2199688 12.3213729,11.8190328 L11.8845554,13.4352574 C11.7971919,13.7659906 11.5039002,13.9906396 11.1544462,13.9906396 L9.3603744,13.9843994 C8.02184085,13.9843994 8.15912635,11.9937598 9.38221528,11.9937598 L10.8923557,11.9937598 L10.7831513,12.4056162 C10.7238689,12.599064 10.5522621,12.7425897 10.3400936,12.7425897 L9.66614663,12.7425897 C9.50078002,12.7425897 9.50078002,12.9890796 9.66614663,12.9890796 L10.7550702,12.9890796 C10.8985959,12.9890796 10.9141966,12.8673947 10.9266771,12.823713 L11.1950078,11.8315133 Z M14.4118565,10.6801872 C15.4851794,10.6801872 16.2620905,11.6879875 15.9812793,12.7207488 L15.7067083,13.7535101 C15.6692668,13.9063963 15.5288612,13.9968799 15.3853354,13.9968799 L14.7893916,13.9968799 C14.648986,13.9968799 14.5522621,13.8720749 14.5897036,13.7379095 L14.9204368,12.4898596 C15.023401,12.1279251 14.7457098,11.7597504 14.3556942,11.7597504 L13.7379095,11.7597504 L13.2012481,13.7566303 C13.1638066,13.9063963 13.0265211,14 12.8767551,14 L12.2870515,14 C12.1560062,14 12.049922,13.8783151 12.0873635,13.7410296 L12.9048362,10.6833073 L14.4118565,10.6833073 L14.4118565,10.6801872 Z M17.5694228,11.8627145 L17.3198128,12.798752 C17.2917317,12.9017161 17.3666147,13.0078003 17.4789392,13.0078003 L19.7659907,13.0078003 L19.5881436,13.6630265 C19.5288612,13.8564743 19.3572543,13.9968799 19.1450858,13.9968799 L17.0639626,13.9968799 C16.4399376,13.9968799 16.024961,13.4040562 16.1809673,12.8517941 L16.5179407,11.6037441 C16.6677067,11.0546022 17.1638066,10.6801872 17.7223089,10.6801872 L19.198128,10.6801872 C19.7909517,10.6801872 20.2340094,11.2324493 20.0811233,11.8283931 L19.9812793,12.2028081 C19.8907957,12.5460218 19.5850234,12.7519501 19.2574103,12.7519501 L17.5912637,12.7519501 L17.700468,12.3463339 C17.75039,12.1528861 17.925117,12.0093604 18.1435258,12.0093604 L18.8174727,12.0093604 C18.8798752,12.0093604 18.9204369,11.9781591 18.9391576,11.9157566 L18.9609985,11.8346334 C18.9828393,11.75039 18.9204369,11.675507 18.8393136,11.675507 L17.8127925,11.675507 C17.6848674,11.675507 17.5975039,11.7410296 17.5694228,11.8627145 Z M19.7597504,13.9968799 L20.8705149,9.84399375 C20.9079564,9.69734788 21.0421217,9.59750389 21.1950078,9.59750389 L21.7847114,9.59750389 C21.9251171,9.59750389 22.024961,9.72230888 21.9875196,9.85647425 L21.1606865,12.9204368 C21.0015601,13.5663027 20.4056163,13.9968799 19.7597504,13.9968799 Z" id="path-1"></path>
    </defs>
    <g id="cpanel" stroke="none" stroke-width="1" fill="none" fill-rule="evenodd">
        <mask id="mask-2" fill="white">
            <use xlink:href="#path-1"></use>
        </mask>
        <g fill-rule="nonzero"></g>
        <g id="🎨-color" mask="url(#mask-2)" fill="#000000">
            <rect id="🎨-Color" x="0" y="0" width="24" height="24"></rect>
        </g>
    </g>
</svg>