<?xml version="1.0" encoding="UTF-8"?>
<svg width="24px" height="24px" viewBox="0 0 24 24" version="1.1" xmlns="http://www.w3.org/2000/svg" xmlns:xlink="http://www.w3.org/1999/xlink">
    <!-- Generator: Sketch 52.5 (67469) - http://www.bohemiancoding.com/sketch -->
    <title>creative-commons-share</title>
    <desc>Created with Sketch.</desc>
    <defs>
        <path d="M11.984375,2.31249995 C17.5234375,2.31249995 21.6875,6.61328122 21.6875,12 C21.6875,17.7460938 17.0585938,21.6875 11.984375,21.6875 C6.74999997,21.6875 2.31249995,17.4101563 2.31249995,12 C2.31249995,6.80859372 6.40234372,2.31249995 11.984375,2.31249995 Z M12.015625,4.05859371 C7.39843748,4.05859371 4.05859371,7.88281248 4.05859371,12 C4.05859371,16.2890625 7.62109373,19.921875 12.015625,19.921875 C16.046875,19.921875 19.9375,16.7539063 19.9375,12 C19.9414063,7.55468748 16.4140625,4.05859371 12.015625,4.05859371 Z M15.9609375,9.23046874 C16.265625,9.23046874 16.4960938,9.46874999 16.4960938,9.76562499 L16.4960938,16.8945313 C16.4960938,17.1953125 16.2578125,17.4296875 15.9609375,17.4296875 L10.6835937,17.4296875 C10.3828125,17.4296875 10.1484375,17.1953125 10.1484375,16.8945313 L10.1484375,14.7851563 L8.03906248,14.7851563 C7.73437498,14.7851563 7.50390623,14.5507813 7.50390623,14.25 L7.50390623,7.12109373 C7.50390623,6.80078122 7.76171873,6.62499997 7.98828123,6.58593747 L13.3164063,6.58593747 C13.6171875,6.58593747 13.8515625,6.82031247 13.8515625,7.12109373 L13.8515625,9.23046874 L15.9609375,9.23046874 Z M8.55859373,13.7304688 L10.1484375,13.7304688 L10.1484375,9.76953124 C10.1484375,9.48046874 10.375,9.27734374 10.6171875,9.23437499 L12.796875,9.23437499 L12.796875,7.66015623 L8.55859373,7.66015623 L8.55859373,13.7304688 Z M15.4414063,10.2890625 L11.203125,10.2890625 L11.203125,16.359375 L15.4414063,16.359375 L15.4414063,10.2890625 Z" id="path-1"></path>
    </defs>
    <g id="creative-commons-share" stroke="none" stroke-width="1" fill="none" fill-rule="evenodd">
        <mask id="mask-2" fill="white">
            <use xlink:href="#path-1"></use>
        </mask>
        <g fill-rule="nonzero"></g>
        <g id="🎨-color" mask="url(#mask-2)" fill="#000000">
            <rect id="🎨-Color" x="0" y="0" width="24" height="24"></rect>
        </g>
    </g>
</svg>