<?xml version="1.0" encoding="UTF-8"?>
<svg width="24px" height="24px" viewBox="0 0 24 24" version="1.1" xmlns="http://www.w3.org/2000/svg" xmlns:xlink="http://www.w3.org/1999/xlink">
    <!-- Generator: Sketch 52.5 (67469) - http://www.bohemiancoding.com/sketch -->
    <title>creative-commons-nc</title>
    <desc>Created with Sketch.</desc>
    <defs>
        <path d="M11.984375,2.31249995 C17.4453125,2.31249995 21.6875,6.52734372 21.6875,12 C21.6875,17.75 17.0585938,21.6875 11.984375,21.6875 C6.73046872,21.6875 2.31249995,17.359375 2.31249995,12 C2.31249995,6.80859372 6.40234372,2.31249995 11.984375,2.31249995 Z M4.49218746,9.38671874 C4.20312496,10.1835937 4.05859371,11.0546875 4.05859371,12 C4.05859371,16.3320313 7.65624998,19.90625 12.015625,19.90625 C16.796875,19.90625 18.9375,15.9296875 18.9882813,15.8398438 L15.3398438,14.2148438 C15.0390625,15.6640625 13.7304688,16.2851563 12.6757813,16.3789063 L12.6757813,17.8671875 L11.5507812,17.8671875 L11.5507812,16.375 C10.4765625,16.3632813 9.49609374,15.9765625 8.60937498,15.2148438 L9.94140624,13.8671875 C11.1796875,15.015625 13.3164063,15.109375 13.3164063,13.78125 C13.3164063,13.5390625 13.2304688,13.34375 13.0585938,13.1914063 C12.5039063,12.9570313 12.9882813,13.1875 4.49218746,9.38671874 Z M12.015625,4.04296871 C10.515625,4.04296871 7.62499998,4.38281246 5.35546872,7.67578123 L9.05859374,9.33593749 C9.44921874,8.11328123 10.6367187,7.66015623 11.5507812,7.60546873 L11.5507812,6.11718747 L12.6757813,6.11718747 L12.6757813,7.60546873 C13.5625,7.65234373 14.3710938,7.95312498 15.0976563,8.50390623 L13.8359375,9.80078124 C12.1679688,8.63281248 10.5742187,9.48828124 11.1015625,10.234375 C13.1875,11.1757812 12.8125,11.0078125 14.734375,11.859375 L19.6992188,14.0742188 C19.859375,13.3945313 19.9414063,12.703125 19.9414063,12 C19.9414063,9.77343749 19.1679688,7.89843748 17.625,6.37890622 C16.0898438,4.82031246 14.21875,4.04296871 12.015625,4.04296871 Z" id="path-1"></path>
    </defs>
    <g id="creative-commons-nc" stroke="none" stroke-width="1" fill="none" fill-rule="evenodd">
        <mask id="mask-2" fill="white">
            <use xlink:href="#path-1"></use>
        </mask>
        <g fill-rule="nonzero"></g>
        <g id="🎨-color" mask="url(#mask-2)" fill="#000000">
            <rect id="🎨-Color" x="0" y="0" width="24" height="24"></rect>
        </g>
    </g>
</svg>