<?xml version="1.0" encoding="UTF-8"?>
<svg width="24px" height="24px" viewBox="0 0 24 24" version="1.1" xmlns="http://www.w3.org/2000/svg" xmlns:xlink="http://www.w3.org/1999/xlink">
    <!-- Generator: Sketch 52.5 (67469) - http://www.bohemiancoding.com/sketch -->
    <title>creative-commons-pd</title>
    <desc>Created with Sketch.</desc>
    <defs>
        <path d="M12,2.31249995 C6.64843747,2.31249995 2.31249995,6.65234372 2.31249995,12 C2.31249995,17.3515625 6.64843747,21.6875 12,21.6875 C17.3515625,21.6875 21.6875,17.3515625 21.6875,12 C21.6875,6.65234372 17.3515625,2.31249995 12,2.31249995 Z M12,19.8710938 C6.56249997,19.8710938 2.78906245,14.4804688 4.57031246,9.40624999 L7.64843748,10.7773437 C7.56640623,11.1875 7.51953123,11.6171875 7.51953123,12.0625 C7.51953123,15.9296875 10.40625,17.0195313 12.2226563,17.0195313 C13.1171875,17.0195313 14.3125,16.7578125 15.3242188,15.8671875 L13.9140625,14.1523438 C13.6992188,14.3984375 13.2265625,14.8046875 12.4960938,14.8046875 C11.0195312,14.8046875 10.3984375,13.2460938 10.390625,11.9960937 C19.390625,16.0039063 18.8476563,15.765625 18.9023438,15.7773438 C17.5625,18.2148438 14.9726563,19.8710938 12,19.8710938 Z M19.5859375,14.0117188 L10.8359375,10.1054687 C11.5703125,8.77734373 12.9804688,8.90624998 13.7539063,9.67578124 L15.3320313,8.05078123 C14.2734375,7.14062498 13.0664063,6.97656247 12.28125,6.97656247 C10.4296875,6.97656247 9.12109374,7.77734373 8.34765623,8.99218748 L5.42187497,7.68749998 C6.83203122,5.54296872 9.25390624,4.12499996 12.0039063,4.12499996 C16.34375,4.12499996 19.875,7.65624998 19.875,11.9960937 C19.875,12.6992188 19.78125,13.3789063 19.609375,14.0273438 C19.5976563,14.0234375 19.59375,14.0195313 19.5859375,14.0117188 Z" id="path-1"></path>
    </defs>
    <g id="creative-commons-pd" stroke="none" stroke-width="1" fill="none" fill-rule="evenodd">
        <mask id="mask-2" fill="white">
            <use xlink:href="#path-1"></use>
        </mask>
        <g fill-rule="nonzero"></g>
        <g id="🎨-color" mask="url(#mask-2)" fill="#000000">
            <rect id="🎨-Color" x="0" y="0" width="24" height="24"></rect>
        </g>
    </g>
</svg>