<?xml version="1.0" encoding="UTF-8"?>
<svg width="24px" height="24px" viewBox="0 0 24 24" version="1.1" xmlns="http://www.w3.org/2000/svg" xmlns:xlink="http://www.w3.org/1999/xlink">
    <!-- Generator: Sketch 52.5 (67469) - http://www.bohemiancoding.com/sketch -->
    <title>creative-commons-remix</title>
    <desc>Created with Sketch.</desc>
    <defs>
        <path d="M11.984375,2.31249995 C17.5234375,2.31249995 21.6875,6.61328122 21.6875,12 C21.6875,17.7460938 17.0585938,21.6875 11.984375,21.6875 C6.74999997,21.6875 2.31249995,17.4101563 2.31249995,12 C2.31249995,6.80859372 6.40234372,2.31249995 11.984375,2.31249995 Z M12.015625,4.05859371 C7.39843748,4.05859371 4.05859371,7.88281248 4.05859371,12 C4.05859371,16.2890625 7.62109373,19.921875 12.015625,19.921875 C16.046875,19.921875 19.9375,16.7539063 19.9375,12 C19.9414063,7.55468748 16.4140625,4.05859371 12.015625,4.05859371 Z M18.3320313,12.171875 L18.5234375,12.2578125 L18.5234375,14.9921875 C18.2421875,15.1328125 16.046875,16.0664063 15.8945313,16.1171875 C15.640625,16.046875 11.453125,14.2890625 10.53125,13.921875 L8.02343748,14.9609375 L5.55078122,13.8867188 L5.55078122,11.3945312 L7.86718748,10.4257812 C7.83984373,10.3984375 7.85156248,10.6210937 7.85156248,7.67578123 L10.4804687,6.51562497 L16.4140625,8.97265623 L16.4140625,11.3789062 L18.3320313,12.171875 Z M15.5820313,15.3554688 L15.5820313,13.6445313 L15.5664063,13.6445313 L15.5664063,13.5742188 L11.1210937,11.7578125 L11.1210937,13.5234375 L15.5664063,15.3554688 L15.5664063,15.3398438 L15.5820313,15.3554688 Z M15.875,13.1054688 L17.4335938,12.4648438 L15.9960938,11.859375 L14.4726563,12.5 L15.875,13.1054688 Z M17.9179688,14.59375 L17.9179688,12.9140625 L16.1875,13.640625 L16.1875,15.3359375 L17.9179688,14.59375 Z" id="path-1"></path>
    </defs>
    <g id="creative-commons-remix" stroke="none" stroke-width="1" fill="none" fill-rule="evenodd">
        <mask id="mask-2" fill="white">
            <use xlink:href="#path-1"></use>
        </mask>
        <g fill-rule="nonzero"></g>
        <g id="🎨-color" mask="url(#mask-2)" fill="#000000">
            <rect id="🎨-Color" x="0" y="0" width="24" height="24"></rect>
        </g>
    </g>
</svg>