<?xml version="1.0" encoding="UTF-8"?>
<svg width="24px" height="24px" viewBox="0 0 24 24" version="1.1" xmlns="http://www.w3.org/2000/svg" xmlns:xlink="http://www.w3.org/1999/xlink">
    <!-- Generator: Sketch 52.5 (67469) - http://www.bohemiancoding.com/sketch -->
    <title>creative-commons-nc-eu</title>
    <desc>Created with Sketch.</desc>
    <defs>
        <path d="M11.9882812,2.31249995 C6.35937497,2.31249995 2.31249995,6.87499997 2.31249995,12 C2.31249995,17.3242188 6.67578122,21.6875 11.9882812,21.6875 C17.0742188,21.6875 21.6875,17.7460938 21.6875,12 C21.6875,6.57031247 17.484375,2.31249995 11.9882812,2.31249995 Z M12.0117188,19.9179688 C7.63671873,19.9179688 4.05859371,16.3046875 4.05859371,12 C4.05859371,11.09375 4.20312496,10.234375 4.48437496,9.42187499 L7.05078123,10.5585937 L6.86718747,10.5585937 L6.86718747,11.7109375 L7.77734373,11.7109375 C7.77734373,11.953125 7.76171873,11.8359375 7.76171873,12.4726563 L6.87109372,12.4726563 L6.87109372,13.625 L7.92578123,13.625 C8.37109373,16.2421875 10.5507812,17.5820313 12.7929688,17.5820313 C13.8320313,17.5820313 14.7695313,17.2734375 15.3242188,16.9648438 L14.9335938,15.1640625 C14.59375,15.34375 13.8320313,15.5859375 13.0859375,15.5859375 C11.984375,15.5859375 10.8164062,15.1601563 10.4570312,13.625 L13.984375,13.625 L18.9960938,15.84375 C18.9375,15.9257813 16.8007813,19.9179688 12.0117188,19.9179688 Z M11.3928906,12.5153125 L11.3428906,12.4753125 L11.4328906,12.5153125 L11.3928906,12.5153125 Z M14.375,11.7109375 L14.5195313,11.7109375 L14.5195313,10.5585937 L11.7734375,10.5585937 L10.65625,10.0664062 C10.7539062,9.85156249 10.8671875,9.65624999 11,9.50781249 C11.5039062,8.89062498 12.2148438,8.63281248 12.9960938,8.63281248 C13.7109375,8.63281248 14.375,8.84374998 14.796875,9.02343749 L15.25,7.17578123 C14.6640625,6.91796872 13.8046875,6.69140622 12.8164063,6.69140622 C11.2929687,6.69140622 9.99609374,7.30859373 9.07031249,8.34374998 C8.86328123,8.58203123 8.68749998,8.84765623 8.52734373,9.12890624 L5.33984372,7.71874998 C7.86328123,3.93749996 11.5,4.06249996 12.0078125,4.06249996 C16.421875,4.06249996 19.9375,7.58593748 19.9375,12.0078125 C19.9375,12.7382813 19.8554688,13.4257813 19.6914063,14.0742188 L14.375,11.7109375 Z" id="path-1"></path>
    </defs>
    <g id="creative-commons-nc-eu" stroke="none" stroke-width="1" fill="none" fill-rule="evenodd">
        <mask id="mask-2" fill="white">
            <use xlink:href="#path-1"></use>
        </mask>
        <g fill-rule="nonzero"></g>
        <g id="🎨-color" mask="url(#mask-2)" fill="#000000">
            <rect id="🎨-Color" x="0" y="0" width="24" height="24"></rect>
        </g>
    </g>
</svg>