<?xml version="1.0" encoding="UTF-8"?>
<svg width="24px" height="24px" viewBox="0 0 24 24" version="1.1" xmlns="http://www.w3.org/2000/svg" xmlns:xlink="http://www.w3.org/1999/xlink">
    <!-- Generator: Sketch 52.5 (67469) - http://www.bohemiancoding.com/sketch -->
    <title>creative-commons-sa</title>
    <desc>Created with Sketch.</desc>
    <defs>
        <path d="M11.984375,2.31249995 C17.5234375,2.31249995 21.6875,6.61328122 21.6875,12 C21.6875,17.7460938 17.0585938,21.6875 11.984375,21.6875 C6.74999997,21.6875 2.31249995,17.4101563 2.31249995,12 C2.31249995,6.80859372 6.40234372,2.31249995 11.984375,2.31249995 Z M12.015625,4.05859371 C7.39843748,4.05859371 4.05859371,7.88281248 4.05859371,12 C4.05859371,16.2890625 7.62109373,19.921875 12.015625,19.921875 C16.046875,19.921875 19.9375,16.7539063 19.9375,12 C19.9414063,7.55468748 16.4140625,4.05859371 12.015625,4.05859371 Z M7.69140623,10.6328125 C8.19921873,7.35546873 10.8359375,6.89453122 11.9453125,6.89453122 C15.84375,6.89453122 16.9257813,10.1171875 16.9257813,12.1367188 C16.9257813,14.6210938 15.3242188,17.328125 11.890625,17.328125 C10.3710937,17.328125 8.01953123,16.546875 7.61718748,13.5390625 L10.0585937,13.5390625 C10.1171875,14.7148438 10.8242187,15.3046875 12.1875,15.3046875 C13.0976563,15.3046875 14.453125,14.59375 14.453125,12.0703125 C14.453125,8.84765623 12.5351563,8.92187498 12.2382813,8.92187498 C10.9453125,8.92187498 10.21875,9.49218749 10.0585937,10.6328125 L10.7695312,10.6328125 L8.84765623,12.5546875 L6.93359372,10.6328125 L7.69140623,10.6328125 Z" id="path-1"></path>
    </defs>
    <g id="creative-commons-sa" stroke="none" stroke-width="1" fill="none" fill-rule="evenodd">
        <mask id="mask-2" fill="white">
            <use xlink:href="#path-1"></use>
        </mask>
        <g fill-rule="nonzero"></g>
        <g id="🎨-color" mask="url(#mask-2)" fill="#000000">
            <rect id="🎨-Color" x="0" y="0" width="24" height="24"></rect>
        </g>
    </g>
</svg>