<?xml version="1.0" encoding="UTF-8"?>
<svg width="24px" height="24px" viewBox="0 0 24 24" version="1.1" xmlns="http://www.w3.org/2000/svg" xmlns:xlink="http://www.w3.org/1999/xlink">
    <!-- Generator: Sketch 52.5 (67469) - http://www.bohemiancoding.com/sketch -->
    <title>creative-commons-sampling-plus</title>
    <desc>Created with Sketch.</desc>
    <defs>
        <path d="M11.984375,2.31249995 C17.5234375,2.31249995 21.6875,6.61328122 21.6875,12 C21.6875,17.7460938 17.0585938,21.6875 11.984375,21.6875 C6.74999997,21.6875 2.31249995,17.4101563 2.31249995,12 C2.31249995,6.80859372 6.40234372,2.31249995 11.984375,2.31249995 Z M12.015625,4.05859371 C7.39843748,4.05859371 4.05859371,7.88281248 4.05859371,12 C4.05859371,16.2890625 7.62109373,19.921875 12.015625,19.921875 C16.046875,19.921875 19.9375,16.7539063 19.9375,12 C19.9414063,7.55468748 16.4140625,4.05859371 12.015625,4.05859371 Z M16.1953125,12.0898438 C16.0117188,12.0898438 15.84375,12.1992188 15.7773438,12.3710938 L15.6210938,12.7421875 L15.1914063,9.11718749 C15.125,8.57421873 14.3320313,8.59374998 14.2890625,9.13281249 L14.1210938,11.140625 L13.9179688,8.45312498 C13.875,7.89453123 13.0546875,7.89843748 13.0117188,8.45312498 L12.875,10.2070312 L12.6445313,6.52343747 C12.609375,5.95703122 11.7734375,5.96093747 11.7382812,6.52343747 L11.5390625,9.79296874 L11.3710937,7.20312498 C11.3359375,6.64062497 10.5039062,6.64062497 10.4648437,7.20312498 L10.2578125,10.3359375 L10.0976562,8.10937498 C10.0546875,7.55078123 9.23828124,7.55078123 9.19140624,8.10156248 L8.89062498,11.609375 L8.82031248,11.1328125 C8.75390623,10.6875 8.15234373,10.6015625 7.96093748,11.0039062 L7.44531248,12.0859375 L5.73046872,12.0859375 L5.73046872,12.9921875 L7.73437498,12.9921875 C7.90624998,12.9921875 8.06249998,12.8945313 8.14062498,12.7421875 L8.55859373,15.5976563 C8.63671873,16.125 9.41406249,16.1054688 9.46093749,15.5703125 L9.60937499,13.8671875 L9.83203124,16.9257813 C9.87499999,17.4882813 10.703125,17.4804688 10.7382812,16.921875 L10.9179687,14.171875 L11.1054687,17.0351563 C11.140625,17.5976563 11.9765625,17.5976563 12.0117188,17.03125 L12.203125,13.8867188 L12.3789063,16.6914063 C12.4140625,17.25 13.2421875,17.2578125 13.2851563,16.6992188 L13.4648438,14.4101563 L13.65625,16.9257813 C13.6992188,17.484375 14.515625,17.4804688 14.5585938,16.9296875 L14.8242188,13.6875 L14.9296875,14.5585938 C14.984375,15.0195313 15.6210938,15.109375 15.8007813,14.6796875 L16.5039063,12.984375 L18.4765625,12.984375 L18.4765625,12.078125 L16.1953125,12.0898438 Z M13.1484375,12.2929688 L12.2929688,12.2929688 L12.2929688,13.1484375 C12.2929688,13.3085938 12.1640625,13.4414063 12,13.4414063 C11.8398437,13.4414063 11.7070312,13.3125 11.7070312,13.1484375 L11.7070312,12.2929688 L10.8515625,12.2929688 C10.6914062,12.2929688 10.5585937,12.1640625 10.5585937,12 C10.5585937,11.8398437 10.6914062,11.7070312 10.8515625,11.7070312 L11.7070312,11.7070312 L11.7070312,10.8515625 C11.7070312,10.6914062 11.8398437,10.5585937 12,10.5585937 C12.1601563,10.5585937 12.2929688,10.6875 12.2929688,10.8515625 L12.2929688,11.7070312 L13.1484375,11.7070312 C13.3085938,11.7070312 13.4414063,11.8359375 13.4414063,12 C13.4414063,12.1601563 13.3085938,12.2929688 13.1484375,12.2929688 Z" id="path-1"></path>
    </defs>
    <g id="creative-commons-sampling-plus" stroke="none" stroke-width="1" fill="none" fill-rule="evenodd">
        <mask id="mask-2" fill="white">
            <use xlink:href="#path-1"></use>
        </mask>
        <g fill-rule="nonzero"></g>
        <g id="🎨-color" mask="url(#mask-2)" fill="#000000">
            <rect id="🎨-Color" x="0" y="0" width="24" height="24"></rect>
        </g>
    </g>
</svg>