<?xml version="1.0" encoding="UTF-8"?>
<svg width="24px" height="24px" viewBox="0 0 24 24" version="1.1" xmlns="http://www.w3.org/2000/svg" xmlns:xlink="http://www.w3.org/1999/xlink">
    <!-- Generator: Sketch 52.5 (67469) - http://www.bohemiancoding.com/sketch -->
    <title>creative-commons-pd-alt</title>
    <desc>Created with Sketch.</desc>
    <defs>
        <path d="M11.984375,2.31249995 C17.5234375,2.31249995 21.6875,6.61328122 21.6875,12 C21.6875,17.7460938 17.0585938,21.6875 11.984375,21.6875 C6.74999997,21.6875 2.31249995,17.4101563 2.31249995,12 C2.31249995,6.80859372 6.40234372,2.31249995 11.984375,2.31249995 Z M12.015625,4.05859371 C7.39843748,4.05859371 4.05859371,7.88281248 4.05859371,12 C4.05859371,16.2890625 7.62109373,19.921875 12.015625,19.921875 C16.046875,19.921875 19.9375,16.7539063 19.9375,12 C19.9414063,7.55468748 16.4140625,4.05859371 12.015625,4.05859371 Z M7.60546873,14.6289063 L7.60546873,9.26562499 L10.2695312,9.26562499 C11.5859375,9.26562499 12.2421875,9.87109374 12.2421875,11.0820312 C12.2421875,11.4335937 12.125,12.8984375 10.0117187,12.8984375 L8.95703123,12.8984375 L8.95703123,14.6289063 L7.60546873,14.6289063 Z M8.93749998,10.2695312 L8.93749998,11.8945312 L10.078125,11.8945312 C11.1679687,11.8945312 11.25,10.2695312 10.0429687,10.2695312 L8.93749998,10.2695312 Z M12.6054688,14.6289063 L12.6054688,9.26562499 L14.6835938,9.26562499 C15.5195313,9.26562499 17.4179688,9.46874999 17.4179688,11.9453125 C17.4179688,14.4257813 15.5195313,14.625 14.6835938,14.625 L12.6054688,14.625 L12.6054688,14.6289063 Z M13.9375,10.390625 L13.9375,13.5039063 L14.7148438,13.5039063 C15.6523438,13.5039063 16.0625,12.90625 16.0625,11.9453125 C16.0625,10.3046875 14.84375,10.3867187 14.6953125,10.3867187 L13.9375,10.390625 Z" id="path-1"></path>
    </defs>
    <g id="creative-commons-pd-alt" stroke="none" stroke-width="1" fill="none" fill-rule="evenodd">
        <mask id="mask-2" fill="white">
            <use xlink:href="#path-1"></use>
        </mask>
        <g fill-rule="nonzero"></g>
        <g id="🎨-color" mask="url(#mask-2)" fill="#000000">
            <rect id="🎨-Color" x="0" y="0" width="24" height="24"></rect>
        </g>
    </g>
</svg>