<?xml version="1.0" encoding="UTF-8"?>
<svg width="24px" height="24px" viewBox="0 0 24 24" version="1.1" xmlns="http://www.w3.org/2000/svg" xmlns:xlink="http://www.w3.org/1999/xlink">
    <!-- Generator: Sketch 52.5 (67469) - http://www.bohemiancoding.com/sketch -->
    <title>creative-commons-by</title>
    <desc>Created with Sketch.</desc>
    <defs>
        <path d="M14.6132813,9.59374999 L14.6132813,13.5546875 L13.5078125,13.5546875 L13.5078125,18.2617188 L10.4960937,18.2617188 L10.4960937,13.5585938 L9.39062499,13.5585938 L9.39062499,9.59374999 C9.39062499,9.42187499 9.45312499,9.27343749 9.57031249,9.15234374 C9.69140624,9.03124999 9.83984374,8.96874998 10.0117187,8.96874998 L13.9921875,8.96874998 C14.1523438,8.96874998 14.296875,9.03124999 14.4257813,9.15234374 C14.546875,9.27734374 14.6132813,9.42187499 14.6132813,9.59374999 Z M10.6484375,7.10546873 C10.6484375,6.19531247 11.0976562,5.73828122 11.9960937,5.73828122 C12.8945313,5.73828122 13.34375,6.19531247 13.34375,7.10546873 C13.34375,8.00390623 12.8945313,8.45312498 11.9960937,8.45312498 C11.0976562,8.45312498 10.6484375,8.00390623 10.6484375,7.10546873 Z M11.984375,2.31249995 C17.5234375,2.31249995 21.6875,6.61328122 21.6875,12 C21.6875,17.7460938 17.0585938,21.6875 11.984375,21.6875 C6.74999997,21.6875 2.31249995,17.4101563 2.31249995,12 C2.31249995,6.80859372 6.40234372,2.31249995 11.984375,2.31249995 Z M12.015625,4.05859371 C7.39843748,4.05859371 4.05859371,7.88281248 4.05859371,12 C4.05859371,16.2890625 7.62109373,19.921875 12.015625,19.921875 C16.046875,19.921875 19.9375,16.7539063 19.9375,12 C19.9414063,7.55468748 16.4140625,4.05859371 12.015625,4.05859371 Z" id="path-1"></path>
    </defs>
    <g id="creative-commons-by" stroke="none" stroke-width="1" fill="none" fill-rule="evenodd">
        <mask id="mask-2" fill="white">
            <use xlink:href="#path-1"></use>
        </mask>
        <g fill-rule="nonzero"></g>
        <g id="🎨-color" mask="url(#mask-2)" fill="#000000">
            <rect id="🎨-Color" x="0" y="0" width="24" height="24"></rect>
        </g>
    </g>
</svg>