<?xml version="1.0" encoding="UTF-8"?>
<svg width="24px" height="24px" viewBox="0 0 24 24" version="1.1" xmlns="http://www.w3.org/2000/svg" xmlns:xlink="http://www.w3.org/1999/xlink">
    <!-- Generator: Sketch 52.5 (67469) - http://www.bohemiancoding.com/sketch -->
    <title>creative-commons-zero</title>
    <desc>Created with Sketch.</desc>
    <defs>
        <path d="M11.984375,2.31249995 C17.5234375,2.31249995 21.6875,6.61328122 21.6875,12 C21.6875,17.7460938 17.0585938,21.6875 11.984375,21.6875 C6.74999997,21.6875 2.31249995,17.4101563 2.31249995,12 C2.31249995,6.80859372 6.40234372,2.31249995 11.984375,2.31249995 Z M12.015625,4.05859371 C7.39843748,4.05859371 4.05859371,7.88281248 4.05859371,12 C4.05859371,16.2890625 7.62109373,19.921875 12.015625,19.921875 C16.046875,19.921875 19.9375,16.7539063 19.9375,12 C19.9414063,7.55468748 16.4140625,4.05859371 12.015625,4.05859371 Z M12,6.42187497 C8.80078123,6.42187497 7.99609373,9.44140624 7.99609373,12 C7.99609373,14.5585938 8.80078123,17.578125 12,17.578125 C15.1992188,17.578125 16.0039063,14.5585938 16.0039063,12 C16.0039063,9.44140624 15.1992188,6.42187497 12,6.42187497 Z M12,8.52734373 C12.1289063,8.52734373 12.25,8.54687498 12.359375,8.57421873 C12.5898438,8.77343748 12.703125,9.04687499 12.4804688,9.42968749 L10.3515625,13.34375 C10.2851562,12.8476563 10.2773437,12.3632813 10.2773437,12 C10.2773437,10.875 10.3554687,8.52734373 12,8.52734373 Z M13.59375,10.3320312 C13.7070313,10.9335937 13.7226563,11.5585937 13.7226563,12 C13.7226563,13.1289063 13.6445313,15.4726563 12,15.4726563 C11.4726562,15.4726563 10.7265625,15.171875 11.2148437,14.4414063 L13.59375,10.3320312 Z" id="path-1"></path>
    </defs>
    <g id="creative-commons-zero" stroke="none" stroke-width="1" fill="none" fill-rule="evenodd">
        <mask id="mask-2" fill="white">
            <use xlink:href="#path-1"></use>
        </mask>
        <g fill-rule="nonzero"></g>
        <g id="🎨-color" mask="url(#mask-2)" fill="#000000">
            <rect id="🎨-Color" x="0" y="0" width="24" height="24"></rect>
        </g>
    </g>
</svg>