<?xml version="1.0" encoding="UTF-8"?>
<svg width="24px" height="24px" viewBox="0 0 24 24" version="1.1" xmlns="http://www.w3.org/2000/svg" xmlns:xlink="http://www.w3.org/1999/xlink">
    <!-- Generator: Sketch 52.5 (67469) - http://www.bohemiancoding.com/sketch -->
    <title>creative-commons</title>
    <desc>Created with Sketch.</desc>
    <defs>
        <path d="M11.9152344,10.3933594 L10.6175781,11.0683594 C10.2492187,10.3035156 9.63164061,10.2898437 9.54492186,10.2898437 C8.68046873,10.2898437 8.24726561,10.8605469 8.24726561,12.0023438 C8.24726561,12.9230469 8.60703123,13.7148438 9.54492186,13.7148438 C10.1101562,13.7148438 10.5078125,13.4378906 10.7390625,12.884375 L11.9324219,13.4898438 C11.6914062,13.9394531 10.9289062,15.0125 9.38945311,15.0125 C8.50664061,15.0125 6.5003906,14.609375 6.5003906,12.0027344 C6.5003906,9.71015624 8.18007811,8.99257811 9.33749999,8.99257811 C10.5375,8.99218748 11.3960937,9.45937499 11.9152344,10.3933594 Z M17.503125,10.3933594 L16.2226563,11.0683594 C15.8515625,10.2960937 15.2179688,10.2898437 15.1328125,10.2898437 C14.2679688,10.2898437 13.8351563,10.8605469 13.8351563,12.0023438 C13.8351563,12.9222656 14.1957031,13.7148438 15.1328125,13.7148438 C15.6972656,13.7148438 16.0957031,13.4378906 16.3257813,12.884375 L17.5367188,13.4898438 C17.4546875,13.6363281 16.7011719,15.0125 14.9941406,15.0125 C14.1078125,15.0125 12.1050781,14.6269531 12.1050781,12.0027344 C12.1050781,9.71093749 13.7835938,8.99257811 14.9421875,8.99257811 C16.1417969,8.99218748 16.9960938,9.45937499 17.503125,10.3933594 Z M11.9828125,2.31445308 C6.40390622,2.31445308 2.31249995,6.80898435 2.31249995,12.0019531 C2.31249995,17.4117188 6.74999997,21.6894532 11.9828125,21.6894532 C17.0582032,21.6894532 21.6875,17.7492188 21.6875,12.0019531 C21.6875,6.61640622 17.5226563,2.31445308 11.9828125,2.31445308 Z M12.0167969,19.9242188 C7.6207031,19.9242188 4.05976559,16.2898438 4.05976559,12.0019531 C4.05976559,7.88398435 7.39687498,4.06171871 12.0175781,4.06171871 C16.4132813,4.06171871 19.9402344,7.55624998 19.9402344,12.0015625 C19.9398438,16.7550781 16.0464844,19.9242188 12.0167969,19.9242188 Z" id="path-1"></path>
    </defs>
    <g id="creative-commons" stroke="none" stroke-width="1" fill="none" fill-rule="evenodd">
        <mask id="mask-2" fill="white">
            <use xlink:href="#path-1"></use>
        </mask>
        <g fill-rule="nonzero"></g>
        <g id="🎨-color" mask="url(#mask-2)" fill="#000000">
            <rect id="🎨-Color" x="0" y="0" width="24" height="24"></rect>
        </g>
    </g>
</svg>