<?xml version="1.0" encoding="UTF-8"?>
<svg width="24px" height="24px" viewBox="0 0 24 24" version="1.1" xmlns="http://www.w3.org/2000/svg" xmlns:xlink="http://www.w3.org/1999/xlink">
    <!-- Generator: Sketch 52.5 (67469) - http://www.bohemiancoding.com/sketch -->
    <title>creative-commons-sampling</title>
    <desc>Created with Sketch.</desc>
    <defs>
        <path d="M11.984375,2.31249995 C17.5234375,2.31249995 21.6875,6.61328122 21.6875,12 C21.6875,17.7460938 17.0585938,21.6875 11.984375,21.6875 C6.74999997,21.6875 2.31249995,17.4101563 2.31249995,12 C2.31249995,6.80859372 6.40234372,2.31249995 11.984375,2.31249995 Z M12.015625,4.05859371 C7.39843748,4.05859371 4.05859371,7.88281248 4.05859371,12 C4.05859371,16.2890625 7.62109373,19.921875 12.015625,19.921875 C16.046875,19.921875 19.9375,16.7539063 19.9375,12 C19.9414063,7.55468748 16.4140625,4.05859371 12.015625,4.05859371 Z M12.15625,6.13671872 C12.265625,6.12499997 12.6054688,6.17578122 12.6054688,6.58593747 L12.8632813,10.7734375 L13.0546875,8.45703123 C13.0546875,8.22265623 13.2382813,8.04296873 13.46875,8.04296873 C13.6992188,8.04296873 13.8828125,8.22656248 13.8828125,8.45703123 C13.8828125,8.55468748 13.8632813,8.23437498 14.1054688,11.640625 L14.3320313,9.13281249 C14.34375,9.01953124 14.4453125,8.76953123 14.7304688,8.76953123 C14.8789063,8.76953123 15.1171875,8.85937498 15.1445313,9.11718749 L15.59375,12.8867188 L15.8007813,12.3867188 C15.8710938,12.2148438 16.0039063,12.1289063 16.1992188,12.1289063 L18.4648438,12.1289063 L18.4648438,12.9609375 L16.4765625,12.9609375 L15.765625,14.6914063 C15.6132813,15.078125 15.0039063,15.046875 14.953125,14.5703125 L14.796875,13.3242188 L14.5039063,16.9414063 C14.4921875,17.0585938 14.3867188,17.3046875 14.1054688,17.3046875 C13.9882813,17.3046875 13.7226563,17.2226563 13.6914063,16.9414063 C13.6914063,16.8671875 13.7148438,17.1679688 13.4492188,13.8984375 L13.2421875,16.71875 C13.1992188,16.90625 13.0546875,17.0820313 12.828125,17.0820313 C12.7148438,17.0820313 12.4453125,17.0039063 12.4140625,16.71875 C12.4140625,16.6445313 12.4335938,16.9804688 12.1875,13.2929688 L11.9609375,16.9960938 C11.9609375,17.2421875 11.8203125,17.4804688 11.546875,17.4804688 C11.34375,17.4804688 11.1328125,17.3203125 11.1328125,17.0117188 L10.90625,13.5859375 C10.6796875,17.1992188 10.6992187,16.8671875 10.6992187,16.9414063 C10.65625,17.1289063 10.5117187,17.3046875 10.2851562,17.3046875 C10.1679687,17.3046875 9.90234374,17.2226563 9.87109374,16.9414063 C9.87109374,16.9140625 9.85546874,16.8984375 9.85546874,16.8398438 L9.61328124,13.3789063 L9.42187499,15.59375 C9.39453124,15.8476563 9.16015624,15.9570313 9.00781249,15.9570313 C8.78124998,15.9570313 8.63281248,15.796875 8.59374998,15.609375 L8.16015623,12.625 C8.08203123,12.78125 8.02343748,12.953125 7.72656248,12.953125 L5.71874997,12.953125 L5.71874997,12.1210938 L7.46874998,12.1210938 L8.00390623,11.03125 C8.17578123,10.6445312 8.71484373,10.75 8.78124998,11.1367187 L8.90234373,11.9335937 L9.23046874,8.10937498 C9.23046874,7.87499998 9.41796874,7.69531248 9.64453124,7.69531248 C9.66406249,7.69531248 10.0585937,7.68749998 10.0585937,8.17968748 L10.25,10.8789062 L10.5078125,7.26171873 C10.5078125,6.86718747 10.8789062,6.84765622 10.90625,6.84765622 C10.9296875,6.84765622 11.3203125,6.87499997 11.3203125,7.26171873 L11.5273437,10.4101562 L11.7695312,6.58593747 C11.7734375,6.54296872 11.7460937,6.18359372 12.15625,6.13671872 Z" id="path-1"></path>
    </defs>
    <g id="creative-commons-sampling" stroke="none" stroke-width="1" fill="none" fill-rule="evenodd">
        <mask id="mask-2" fill="white">
            <use xlink:href="#path-1"></use>
        </mask>
        <g fill-rule="nonzero"></g>
        <g id="🎨-color" mask="url(#mask-2)" fill="#000000">
            <rect id="🎨-Color" x="0" y="0" width="24" height="24"></rect>
        </g>
    </g>
</svg>