<?xml version="1.0" encoding="UTF-8"?>
<svg width="24px" height="24px" viewBox="0 0 24 24" version="1.1" xmlns="http://www.w3.org/2000/svg" xmlns:xlink="http://www.w3.org/1999/xlink">
    <!-- Generator: Sketch 52.5 (67469) - http://www.bohemiancoding.com/sketch -->
    <title>creative-commons-nc-jp</title>
    <desc>Created with Sketch.</desc>
    <defs>
        <path d="M11.9882812,2.31249995 C6.35937497,2.31249995 2.31249995,6.87499997 2.31249995,12 C2.31249995,17.328125 6.67968747,21.6875 11.9882812,21.6875 C17.0742188,21.6875 21.6875,17.75 21.6875,12 C21.6875,6.57812497 17.4882813,2.31249995 11.9882812,2.31249995 Z M12.0117188,19.9179688 C7.63671873,19.9179688 4.05859371,16.3046875 4.05859371,12 C4.05859371,11.1757812 4.17578121,10.390625 4.41015621,9.64453124 L9.37109374,11.8515625 L8.28124998,11.8515625 L8.28124998,13.359375 L10.5507812,13.359375 L10.7734375,13.8203125 L10.7734375,14.5507813 L8.28124998,14.5507813 L8.28124998,16.0625 L10.7734375,16.0625 L10.7734375,18.25 L13.1835938,18.25 L13.1835938,16.0625 L15.6914063,16.0625 L15.6914063,14.6679688 L18.8554688,16.078125 C18.796875,16.1640625 16.625,19.9179688 12.0117188,19.9179688 Z M15.4335938,14.5546875 L13.1835938,14.5546875 L13.1835938,13.8242188 L13.296875,13.6054688 L15.4335938,14.5546875 Z M15.6875,12.546875 L15.6875,11.8515625 L14.1796875,11.8515625 L16.640625,7.32031248 L14.0703125,7.32031248 L12.375,11.0703125 L11.4765625,10.671875 L9.92968749,7.32421873 L7.35937498,7.32421873 L8.42578123,9.31640624 L5.22656247,7.89062498 C6.31249997,6.16796872 8.45312498,4.05859371 12.0117188,4.05859371 C16.4179688,4.05859371 19.9414063,7.57421873 19.9414063,12.0039063 C19.9414063,12.8242188 19.8359375,13.5898438 19.6328125,14.3085938 L15.6875,12.546875 Z" id="path-1"></path>
    </defs>
    <g id="creative-commons-nc-jp" stroke="none" stroke-width="1" fill="none" fill-rule="evenodd">
        <mask id="mask-2" fill="white">
            <use xlink:href="#path-1"></use>
        </mask>
        <g fill-rule="nonzero"></g>
        <g id="🎨-color" mask="url(#mask-2)" fill="#000000">
            <rect id="🎨-Color" x="0" y="0" width="24" height="24"></rect>
        </g>
    </g>
</svg>