<?xml version="1.0" encoding="UTF-8"?>
<svg width="24px" height="24px" viewBox="0 0 24 24" version="1.1" xmlns="http://www.w3.org/2000/svg" xmlns:xlink="http://www.w3.org/1999/xlink">
    <!-- Generator: Sketch 52.5 (67469) - http://www.bohemiancoding.com/sketch -->
    <title>critical-role</title>
    <desc>Created with Sketch.</desc>
    <defs>
        <path d="M12.0710938,1.99999995 C12.08125,2.00585933 20.5308594,6.86367185 20.5523438,6.87187497 C20.6710938,6.91796872 20.696875,7.00703123 20.696875,7.12812498 C20.6941407,10.3878906 20.6945313,13.6476563 20.6964844,16.9078125 C20.6964844,17.0160157 20.6582032,17.0808594 20.5644532,17.1335938 C19.7296875,17.6019532 12.4449219,21.7542969 12.0125,22.0000001 L11.8953125,22.0000001 C8.79687498,20.2164063 3.37031246,17.1 3.36445308,17.096875 C3.31406246,17.0679688 3.28789058,17.0285157 3.29101558,16.9703125 C3.29257808,16.9363281 3.28984371,8.14453123 3.28906246,7.08359373 C3.28906246,6.98828122 3.32382808,6.93554685 3.40351558,6.8910156 C4.31210934,6.37929685 11.578125,2.2335937 12.0027344,1.99999995 L12.0710938,1.99999995 Z M11.6640625,2.7976562 L11.6554687,2.7914062 C9.12617186,4.23124996 6.5972656,5.67187497 4.06835934,7.11210935 C4.06992184,7.11679685 4.07148434,7.12109373 4.07343746,7.12578123 C4.47148434,7.27578123 4.86992184,7.42617185 5.27890622,7.58046873 C4.97773434,7.8144531 4.95390621,7.8160156 4.86289059,7.78085935 C4.85898434,7.77929685 3.91874996,7.41835935 3.81601558,7.39062498 L3.81601558,16.3914063 C3.85039058,16.3363281 6.31874997,12.0589844 6.32109372,12.0550781 C6.38437497,11.9449219 6.4394531,11.9800781 6.67734372,11.9957031 C6.73203122,11.9992187 6.73515622,12.0042969 6.70781247,12.0511719 C5.09882809,14.8375 5.28593747,14.5117188 4.07187496,16.6191406 C4.04023434,16.6738281 4.04804684,16.6632813 4.12070309,16.6632813 C13.0164063,16.6632813 11.0113281,16.6632813 11.4058594,16.6644531 C11.4621094,16.6644531 11.471875,16.6554688 11.4722656,16.6003906 C11.4726562,16.4847656 11.4726562,16.3691406 11.4722656,16.2535156 C11.4722656,16.2011719 11.5644531,16.221875 10.7546875,16.2140625 C10.4632812,16.2113281 10.2023437,16.0882813 9.91953124,15.7179688 C9.63124999,15.340625 9.34843749,14.9589844 9.06601561,14.5769531 C8.97695311,14.4566406 8.93124998,14.4839844 8.41132811,14.4839844 C8.34296873,14.4839844 8.34179686,14.4839844 8.34257811,14.5550781 C8.35390623,15.5789063 8.34843748,15.5421875 8.38320311,15.8308594 C8.40351561,16.0015625 8.46757811,15.9949219 8.76171873,16.01875 C8.88437498,16.0289063 8.91328123,16.178125 8.78203123,16.2109375 C8.72070311,16.2261719 7.54765623,16.2308594 7.46679685,16.2070313 C7.37812498,16.18125 7.36718748,16.0476563 7.4785156,16.0222656 C7.60703123,15.9925781 7.7191406,16.0539063 7.73867185,15.8488281 C7.7894531,15.3152344 7.78437498,15.4957031 7.7816406,12.7464844 C7.78124998,12.3238281 7.76796873,12.2550781 7.5722656,12.2171875 C7.52460935,12.2078125 7.43398435,12.2109375 7.38906248,12.1957031 C7.27656248,12.1578125 7.31093748,12.0066406 7.4582031,12.00625 C8.77343748,12.0050781 9.25820311,11.9644531 9.64804686,12.1960938 C9.95039061,12.3761719 10.1160156,12.6445313 10.1367187,12.9929688 C10.1710937,13.5628906 9.88242186,13.8660156 9.55117186,14.2660156 C9.52460936,14.2980469 9.52304686,14.3199219 9.54960936,14.3527344 C9.65117186,14.4796875 9.74687499,14.6117188 9.85078124,14.7367188 C10.9273437,16.0347656 10.7925781,15.9296875 11.4632812,16.028125 C11.4980469,16.0332031 11.503125,16.0117188 11.5027344,15.9832031 C11.5019531,15.8398438 11.503125,15.696875 11.5019531,15.5535156 C11.5015625,15.5136719 11.5144531,15.4976563 11.5570312,15.5042969 C12.046875,15.5789063 12.4105469,15.5015625 12.478125,15.4925781 C12.5203125,15.4867188 12.5367188,15.5003906 12.5359375,15.5445313 C12.5359375,15.5488281 12.5703125,16.5871094 12.5699219,16.5914063 C12.5679688,16.6507813 12.5960938,16.6546875 12.64375,16.6546875 C15.0804688,16.6539063 17.5324219,16.6539063 19.9371094,16.6539063 C18.8777344,14.8167969 17.8234375,12.9878906 16.7660156,11.1535156 C16.8542969,11.1277344 16.7503906,11.1523437 17.0273438,11.0992187 C17.1066407,11.0839844 17.1074219,11.0832031 17.1488282,11.1554687 C17.434375,11.6492187 20.16875,16.3882813 20.1710938,16.3921875 L20.1710938,7.38984373 C20.1039063,7.40937498 16.1359375,8.90234373 16.0398438,8.93984373 C15.9976563,8.95624998 15.9792969,8.94765623 15.9652344,8.90546873 C15.940625,8.83124998 15.9128906,8.75859373 15.8835938,8.68593748 C15.8710938,8.65507811 15.8800781,8.64179686 15.9089844,8.63164061 C15.9128906,8.63007811 19.640625,7.23124998 19.9339844,7.11718748 C17.3785157,5.64960934 14.8339844,4.18749996 12.2773438,2.71874995 C13.4128906,4.68593746 14.5410156,6.6394531 15.66875,8.59335936 C15.6652344,8.59765623 15.6617188,8.60195311 15.6578125,8.60624998 C15.2839844,8.57109373 15.2492188,8.54374998 15.196875,8.45234373 C15.159375,8.38632811 12.3257813,3.46367183 11.99375,2.8992187 C11.6382812,3.47226558 8.72968748,8.61054686 8.65898436,8.61484373 C8.54453123,8.62148436 8.42929686,8.61796873 8.29765623,8.61796873 C9.42382811,6.67148435 10.54375,4.73437496 11.6640625,2.7976562 Z M13.6925781,7.87265623 C13.7648438,7.8707031 13.8371094,7.85234373 13.9089844,7.8394531 C13.975,7.82773435 14.0078125,7.8472656 14.0105469,7.9144531 C14.0105469,7.91874998 14.0132813,8.65898436 13.9769531,8.71328123 C13.9429688,8.76406248 13.9035156,8.76093748 13.8753906,8.70585936 C13.6816406,8.32734373 14.1183594,8.32851561 12.3472656,8.23515623 C12.3199219,8.23359373 12.3082031,8.24414061 12.309375,8.27148436 C12.309375,8.27656248 12.4546875,13.0363281 12.4550781,13.0414063 C12.4558594,13.0761719 12.4753906,13.0882813 12.5023438,13.1003906 C12.6164063,13.1515625 12.7351563,13.1949219 12.8421875,13.2585938 C13.1277344,13.4277344 13.2867188,13.6820313 13.3269531,14.0128906 C13.3832031,14.4738281 13.21875,15.4101563 12.06875,15.4636719 C11.9613281,15.46875 10.9648437,15.5058594 10.7351562,14.5554688 C10.553125,13.803125 11.0578125,13.278125 11.5121094,13.1335938 C11.5703125,13.1152344 11.5882812,13.084375 11.5894531,13.0296875 C11.5933594,12.8097656 11.7066406,8.84609373 11.734375,8.28945311 C11.7363281,8.24726561 11.7101562,8.24414061 11.6816406,8.24453123 C10.4179687,8.26484373 10.2460937,8.23124998 10.1105469,8.57734373 C10.0160156,8.81874998 9.94882811,8.62890623 9.95624999,8.58632811 C9.99776753,8.35127491 10.0408675,8.11650396 10.0855469,7.88203123 C10.1011719,7.79960935 10.1414062,7.7800781 10.2195312,7.80937498 C10.4378906,7.89179685 10.4820312,7.87578123 11.6746094,7.88437498 C11.7421875,7.8847656 11.7441406,7.88124998 11.7457031,7.81210935 C11.7722656,6.73828122 11.7683594,6.92968747 11.7835937,6.65781247 C11.7863281,6.60742185 11.7675781,6.57304685 11.7199219,6.54843747 C11.5011719,6.4347656 11.378125,6.2535156 11.3722656,6.0066406 C11.3585937,5.42812497 12.0644531,5.16015622 12.4417969,5.55703122 C12.7089844,5.83789059 12.6683594,6.2957031 12.3460938,6.5003906 C12.28125,6.54179685 12.2558594,6.59140622 12.259375,6.66992185 C12.2605469,6.69296872 12.2550781,6.50156247 12.2976563,7.84374998 C12.2988281,7.87890623 12.3144531,7.88749998 12.3460938,7.88710935 C12.35,7.88710935 13.2449219,7.88359373 13.6925781,7.87265623 Z M5.91679684,7.53515623 C6.69179685,7.35898435 7.19335935,7.51328123 7.96718748,7.60117185 C8.07499998,7.61328123 8.11328123,7.6488281 8.10859373,7.75703123 C8.10039061,7.9519531 8.06328123,8.62929686 8.06015623,8.66132811 C8.05624998,8.70195311 8.03671873,8.73593748 7.99648435,8.75273436 C7.8378906,8.81914061 7.85546873,8.57890623 7.83984373,8.46796873 C7.7175781,7.59179685 4.95429684,7.19062498 4.92460934,9.46015624 C4.91249996,10.3945312 5.58906247,11.5550781 7.03710935,11.4476562 C8.10117186,11.3691406 7.78124998,10.6589844 8.00742186,10.6480469 C8.08476561,10.6441406 8.13749998,10.7 8.12382811,10.7792969 C8.05234373,11.203125 7.99023435,11.5195312 7.98906248,11.5273437 C7.9300781,11.8859375 4.60351559,12.3898438 4.34257809,9.88476561 C4.23789059,8.87421873 4.75156246,7.79999998 5.91679684,7.53515623 Z M9.04140624,10.9597656 C8.78749998,10.9585937 8.53398436,10.9597656 8.28007811,10.9582031 C8.20351561,10.9578125 8.17148436,10.8953125 8.17617186,10.8882812 C8.26914061,10.7417969 8.40624998,10.9242187 8.40507811,10.6484375 C8.40195311,9.64257811 8.41328123,9.16445311 8.41406248,9.08203124 C8.41523436,8.94843748 8.39335936,8.90039061 8.28437498,8.88906248 C8.01093748,8.86093748 8.16289061,8.75742186 8.24101561,8.75703123 C8.70351561,8.75312498 9.12460936,8.74999998 9.41484374,8.78515623 C9.75742186,8.82695311 10.0675781,9.27851561 9.72460936,9.66874999 C9.64726561,9.75664061 9.56718749,9.84140624 9.48476561,9.93164061 C9.52187499,9.97656249 9.75429686,10.2761719 10.1597656,10.7003906 C10.2636719,10.8089844 10.4,10.8375 10.5457031,10.8226562 C10.5933594,10.8179687 10.628125,10.7933594 10.6328125,10.7398437 C10.6445312,10.60625 10.6429687,10.9246094 10.6503906,9.15468749 C10.6511719,8.93398436 10.6371094,8.89765623 10.5242187,8.88789061 C10.3699219,8.87421873 10.3667969,8.79960936 10.4972656,8.75624998 C10.5019531,8.75468748 11.2386719,8.75273436 11.2429687,8.75273436 C11.2554687,8.75273436 11.4183594,8.77343748 11.2839844,8.88476561 C11.2820312,8.88671873 11.2777344,8.88593748 11.2746094,8.88632811 C11.1335937,8.89648436 11.1207031,8.92460936 11.1199219,9.06679686 C11.109375,10.7828125 11.1226562,10.6382812 11.1359375,10.7394531 C11.1402344,10.7722656 11.1464844,10.8265625 11.3351562,10.8230469 C11.4324219,10.8214844 11.4859375,10.9546875 11.334375,10.9558594 C10.9292969,10.9589844 10.5242187,10.9570312 10.1191406,10.9585937 C9.70234374,10.9601562 9.59296874,10.7164062 9.17343749,10.1453125 C9.11093749,10.0601562 8.84882811,10.053125 8.85312498,10.1308594 C8.88749998,10.7742187 8.85312498,10.8253906 9.00898436,10.8210937 C9.19453124,10.8171875 9.19374999,10.9605469 9.04140624,10.9597656 Z M19.7824219,10.5632812 C19.7351563,10.8417969 19.7890625,10.96875 19.5753907,10.9671875 C17.1710938,10.9507812 17.7074219,10.9585937 17.5941407,10.9550781 C17.5464844,10.9535156 17.4992188,10.9378906 17.4523438,10.9265625 C17.3535157,10.903125 17.5101563,10.8785156 17.4375,10.7078125 C17.3816407,10.5761719 17.3289063,10.4429687 17.2769532,10.3097656 C17.2621094,10.2714844 17.2402344,10.2535156 17.1972657,10.2535156 C17.0753907,10.2535156 16.9132813,10.2363281 16.6277344,10.25625 C16.6050781,10.2578125 16.5730469,10.2777344 16.5644531,10.2976562 C16.5027344,10.4390625 16.4445313,10.5824219 16.3882813,10.7257812 C16.3386719,10.8519531 16.6953125,10.7773437 16.8644531,10.8101562 C16.9804688,10.8324219 17.0414063,10.9554687 16.8902344,10.9558594 C16.546875,10.9570312 16.2035156,10.9582031 15.8601563,10.9578125 C15.7460938,10.9578125 15.7394531,10.8347656 15.83125,10.8324219 C15.9355469,10.8296875 16.0164063,10.7882812 16.0625,10.696875 C16.1210938,10.5808594 16.171875,10.4609375 16.2230469,10.3417969 C16.9332031,8.69570311 16.8894531,8.77265623 16.9425781,8.71640623 C16.9816406,8.67499998 17.0234375,8.67539061 17.0609375,8.71796873 C17.1753907,8.84843748 17.7796875,10.4644531 17.9835938,10.7460937 C18.0601563,10.8515625 18.2078125,10.8234375 18.2320313,10.8246094 C18.3730469,10.8296875 18.3871094,10.78125 18.3933594,10.6570312 C18.396875,10.5839844 18.3964844,10.7027344 18.3960938,9.04609374 C18.3960938,8.87187498 18.3039063,8.89999998 18.1792969,8.87929686 C18.1691407,8.87773436 18.0792969,8.85468748 18.1761719,8.75976561 C18.184375,8.75195311 18.1414063,8.75039061 19.0238282,8.75390623 C19.1144532,8.75429686 19.2316407,8.86132811 18.9765625,8.88867186 C18.9058594,8.89609373 18.8757813,8.92773436 18.8726563,8.99921873 C18.8699219,9.06289061 18.8652344,10.5183594 18.8839844,10.6089844 C18.8976563,10.6765625 18.9515625,10.7019531 19.0101563,10.7039062 C19.5277344,10.7207031 19.5929688,10.7210937 19.6367188,10.5707031 C19.7019532,10.3449219 19.7980469,10.4722656 19.7824219,10.5632812 Z M15.6933594,13.0777344 C15.5277344,13.0777344 15.5207031,12.9453125 15.6695313,12.9445313 C17.0722657,12.9382813 16.7675781,12.959375 17.1222657,12.9191406 C17.1878907,12.9117188 17.2152344,12.9285156 17.2101563,12.9929688 C17.2,13.1253906 17.1851563,13.2578125 17.1699219,13.3898438 C17.1601563,13.4742188 17.0449219,13.4917969 17.0371094,13.3839844 C17.0222657,13.1765625 16.953125,13.2101563 16.4265625,13.1855469 C16.3648438,13.1828125 16.3625,13.1847656 16.3625,13.2449219 L16.3625,13.8746094 C16.3625,13.9390625 16.3625,13.9371094 16.4257813,13.9320313 C16.5476563,13.9222656 16.8285156,13.9453125 17.0386719,13.8726563 C17.0570313,13.8664063 17.1675782,13.8027344 17.1585938,13.9414063 C17.1582032,13.9496094 17.1289063,14.3457031 17.1125,14.3863281 C17.0917969,14.4367188 17.0390625,14.4453125 17.0117188,14.3988281 C16.9660156,14.3226563 17.0117188,14.2003906 16.8667969,14.1917969 C16.2644531,14.1566406 16.3625,14.0921875 16.3625,14.4257813 C16.3625,14.9042969 16.3328125,15.0550781 16.5144531,15.0601563 C17.1644532,15.0789063 17.0769532,15.0601563 17.15625,14.8371094 C17.1890625,14.7445313 17.2929688,14.7679688 17.2804688,14.8597656 C17.2632813,14.9851563 17.2472657,15.1109375 17.2324219,15.2363281 C17.2308594,15.2503906 17.2261719,15.3300781 17.0503907,15.3296875 C15.5988281,15.3265625 15.7011719,15.3222656 15.675,15.3175781 C15.56875,15.2976563 15.5890625,15.1988281 15.6835938,15.1828125 C15.7265625,15.1753906 15.8410156,15.2039063 15.8460938,15.0828125 C15.9414063,12.8867188 15.8433594,13.0773438 15.6933594,13.0777344 Z M15.6773438,8.79960936 C15.7734375,8.82343748 15.7996094,8.86835936 15.7925781,8.98124998 C15.7796875,9.18828124 15.7792969,9.33203124 15.7710938,9.35976561 C15.7453125,9.44687499 15.6480469,9.44257811 15.640625,9.34921874 C15.6257813,9.16132811 15.5214844,9.04374999 15.3449219,8.99179686 C14.3183594,8.68984373 14.0632813,9.59570311 14.2835938,10.1722656 C14.5132813,10.7742187 15.1425781,10.7941406 15.4109375,10.7105469 C15.6421875,10.6382812 15.640625,10.4566406 15.6808594,10.4144531 C15.7289063,10.3636719 15.76875,10.3425781 15.8027344,10.4574219 C15.8039063,10.4613281 15.825,10.921875 15.5695313,10.9554687 C15.5070313,10.9636719 14.8125,11.0996094 14.2929688,10.8230469 C13.4722656,10.3859375 13.6390625,9.43749999 14.0242188,9.05234374 C14.5722656,8.50312498 15.5832031,8.77656248 15.6773438,8.79960936 Z M14.5703125,12.9429688 C14.6984375,12.9429688 14.7132813,13.0601563 14.5765625,13.0769531 C14.4746094,13.0894531 14.3824219,13.0605469 14.38125,13.2902344 C14.3808594,13.3675781 14.3738281,14.425 14.396875,14.909375 C14.4011719,14.9988281 14.4417969,15.046875 14.53125,15.0519531 C15.3917969,15.0992188 15.1152344,14.9875 15.2652344,14.8042969 C15.3367188,14.7167969 15.3730469,14.8371094 15.3730469,14.8464844 C15.3867188,15.3785156 15.2183594,15.3304688 15.1703125,15.3308594 C15.1664063,15.3308594 13.6828125,15.3238281 13.6789063,15.3234375 C13.6035156,15.3144531 13.5984375,15.2066406 13.6625,15.1914063 C13.7402344,15.1726563 13.8554688,15.2070313 13.8628906,15.0820313 C13.9003906,14.4621094 13.8851563,13.3378906 13.8761719,13.2144531 C13.865625,13.0671875 13.7667969,13.0867188 13.6542969,13.0695313 C13.5578125,13.0546875 13.5765625,12.94375 13.6675781,12.94375 C13.725,12.9429688 14.3703125,12.9425781 14.5703125,12.9429688 Z M13.3347656,10.6855469 C13.3375,10.8449219 13.4464844,10.8207031 13.5695313,10.8253906 C13.6714844,10.8292969 13.6683594,10.9585937 13.5667969,10.959375 C13.3136719,10.9609375 13.0316406,10.9585937 12.7226563,10.9570312 C12.5726563,10.95625 12.590625,10.8261719 12.7242188,10.8253906 C12.8996094,10.8242187 12.8507813,10.8882812 12.8574219,9.04648436 C12.8582031,8.84804686 12.7296875,8.90820311 12.6730469,8.88124998 C12.5722656,8.83320311 12.6199219,8.76054686 12.6890625,8.75820311 C12.7394531,8.75624998 13.4777344,8.74218748 13.5160156,8.76640623 C13.5601563,8.79453123 13.5890625,8.83085936 13.4996094,8.87812498 C13.4609375,8.89843748 13.3488281,8.86718748 13.3375,8.97460936 C13.3367188,8.98281248 13.3054688,9.03828124 13.3347656,10.6855469 Z M11.8929687,21.3992188 C11.9375,21.425 11.9757812,21.425 12.0203125,21.3992188 C12.6839844,21.0167969 19.1285157,17.3535157 19.7320313,17.0042969 C19.7265625,16.9875 20.171875,16.9972656 12.6414063,16.99375 C12.59375,16.99375 12.5800781,17.0082032 12.5816406,17.0546875 C12.5816406,17.0585938 12.6304688,18.7933594 12.6292969,19.0226563 C12.6285156,19.1234375 12.6050781,19.2265625 12.5761719,19.3238282 C12.5546875,19.3953125 12.5910156,19.3042969 12.0488281,20.5828125 C12.0203125,20.65 12.0082031,20.6691407 11.971875,20.5796875 C11.8082031,20.1757813 11.6484375,19.7703125 11.4808594,19.3683594 C11.4238281,19.2316407 11.3933594,19.0949219 11.4027344,18.946875 C11.4089844,18.8507813 11.4339844,18.3171875 11.4617187,17.0710938 C11.4632812,16.9949219 11.4621094,16.9945313 11.3851562,16.9945313 L4.23671871,16.9945313 C4.33749996,17.0582032 11.2023437,21.0011719 11.8929687,21.3992188 Z M8.34218748,14.0261719 C8.34218748,14.1199219 8.35624998,14.1351563 8.44999998,14.1445313 C8.90078123,14.1902344 9.27187499,14.290625 9.45156249,13.8585938 C9.68632811,13.29375 9.55546874,12.5144531 8.96406248,12.3414063 C8.88554686,12.3183594 8.34062498,12.2335938 8.34140623,12.4003906 C8.34335936,12.7132813 8.34179686,12.8527344 8.34218748,14.0261719 Z M12.4730469,13.4382813 C12.4730469,13.5214844 12.5148438,14.9492188 12.515625,14.9667969 C12.5289063,15.3550781 11.5164062,15.1921875 11.5300781,14.865625 C11.5332031,14.7867188 11.5835937,13.4039063 11.5730469,13.3253906 C11.0222656,13.6160156 11.0097656,14.8960938 11.8246094,15.2316406 C12.1539063,15.3671875 12.5097656,15.2550781 12.6992188,14.9554688 C12.8910156,14.6523438 12.9664063,13.8042969 12.4871094,13.4335938 C12.4824219,13.4355469 12.4777344,13.4371094 12.4730469,13.4382813 Z M11.9933594,5.70234372 C11.609375,5.70117184 11.6132812,6.2785156 11.990625,6.2832031 C12.3652344,6.28749997 12.3851563,5.70351559 11.9933594,5.70234372 Z M8.86249998,9.75976561 C8.86328123,9.83007811 8.87851561,9.85351561 8.94726561,9.86054686 C9.47929686,9.91484374 9.43593749,9.43124999 9.42226561,9.33867186 C9.35624999,8.90039061 8.86054686,8.94023436 8.86171873,9.03359374 C8.86367186,9.20937499 8.86054686,9.56796874 8.86249998,9.75976561 Z M17.1558594,10.0097656 C17.0765625,9.80351561 16.9996094,9.60390624 16.9175781,9.39101561 C16.8332031,9.60507811 16.7550781,9.80390624 16.6742188,10.0097656 L17.1558594,10.0097656 Z" id="path-1"></path>
    </defs>
    <g id="critical-role" stroke="none" stroke-width="1" fill="none" fill-rule="evenodd">
        <mask id="mask-2" fill="white">
            <use xlink:href="#path-1"></use>
        </mask>
        <g fill-rule="nonzero"></g>
        <g id="🎨-color" mask="url(#mask-2)" fill="#000000">
            <rect id="🎨-Color" x="0" y="0" width="24" height="24"></rect>
        </g>
    </g>
</svg>