<?xml version="1.0" encoding="UTF-8"?>
<svg width="24px" height="24px" viewBox="0 0 24 24" version="1.1" xmlns="http://www.w3.org/2000/svg" xmlns:xlink="http://www.w3.org/1999/xlink">
    <!-- Generator: Sketch 52.5 (67469) - http://www.bohemiancoding.com/sketch -->
    <title>crop</title>
    <desc>Created with Sketch.</desc>
    <defs>
        <path d="M21.0625,15.75 L19.5,15.75 L19.5,6.2675781 L21.8167969,3.95078121 C22.0609376,3.70664058 22.0609376,3.31093746 21.8167969,3.06679683 L20.9332032,2.18320308 C20.6890625,1.93906245 20.2933594,1.93906245 20.0492188,2.18320308 L17.7324219,4.49999996 L9.49999999,4.49999996 L9.49999999,8.24999998 L13.9824219,8.24999998 L8.24999998,13.9824219 L8.24999998,2.93749995 C8.24999998,2.4195312 7.8300781,1.99999995 7.31249998,1.99999995 L5.43749997,1.99999995 C4.91992184,1.99999995 4.49999996,2.4195312 4.49999996,2.93749995 L4.49999996,4.49999996 L2.93749995,4.49999996 C2.41992183,4.49999996 1.99999995,4.91953121 1.99999995,5.43749997 L1.99999995,7.31249998 C1.99999995,7.8300781 2.41992183,8.24999998 2.93749995,8.24999998 L4.49999996,8.24999998 L4.49999996,18.5625 C4.49999996,19.0800782 4.91992184,19.5 5.43749997,19.5 L14.5,19.5 L14.5,15.75 L10.0175781,15.75 L15.75,10.0175781 L15.75,21.0625 C15.75,21.5800782 16.1699219,22.0000001 16.6875,22.0000001 L18.5625,22.0000001 C19.0800782,22.0000001 19.5,21.5800782 19.5,21.0625 L19.5,19.5 L21.0625,19.5 C21.5800782,19.5 22.0000001,19.0800782 22.0000001,18.5625 L22.0000001,16.6875 C22.0000001,16.1695313 21.5800782,15.75 21.0625,15.75 Z" id="path-1"></path>
    </defs>
    <g id="crop" stroke="none" stroke-width="1" fill="none" fill-rule="evenodd">
        <mask id="mask-2" fill="white">
            <use xlink:href="#path-1"></use>
        </mask>
        <g></g>
        <g id="🎨-color" mask="url(#mask-2)" fill="#000000">
            <rect id="🎨-Color" x="0" y="0" width="24" height="24"></rect>
        </g>
    </g>
</svg>