<?xml version="1.0" encoding="UTF-8"?>
<svg width="24px" height="24px" viewBox="0 0 24 24" version="1.1" xmlns="http://www.w3.org/2000/svg" xmlns:xlink="http://www.w3.org/1999/xlink">
    <!-- Generator: Sketch 52.5 (67469) - http://www.bohemiancoding.com/sketch -->
    <title>crosshairs</title>
    <desc>Created with Sketch.</desc>
    <defs>
        <path d="M21.53125,10.75 L20.3451563,10.75 C19.8017188,7.09082029 16.9091797,4.19828121 13.25,3.65484371 L13.25,2.46874995 C13.25,2.20988276 13.0401172,1.99999995 12.78125,1.99999995 L11.21875,1.99999995 C10.9598828,1.99999995 10.75,2.20988276 10.75,2.46874995 L10.75,3.65484371 C7.09082029,4.19828121 4.19828121,7.09082029 3.65484371,10.75 L2.46874995,10.75 C2.20988276,10.75 1.99999995,10.9598828 1.99999995,11.21875 L1.99999995,12.78125 C1.99999995,13.0401172 2.20988276,13.25 2.46874995,13.25 L3.65484371,13.25 C4.19828121,16.9091797 7.09082029,19.8017188 10.75,20.3451563 L10.75,21.53125 C10.75,21.7901172 10.9598828,22.0000001 11.21875,22.0000001 L12.78125,22.0000001 C13.0401172,22.0000001 13.25,21.7901172 13.25,21.53125 L13.25,20.3451563 C16.9091797,19.8017188 19.8017188,16.9091797 20.3451563,13.25 L21.53125,13.25 C21.7901172,13.25 22.0000001,13.0401172 22.0000001,12.78125 L22.0000001,11.21875 C22.0000001,10.9598828 21.7901172,10.75 21.53125,10.75 Z M13.25,17.8060157 L13.25,16.21875 C13.25,15.9598828 13.0401172,15.75 12.78125,15.75 L11.21875,15.75 C10.9598828,15.75 10.75,15.9598828 10.75,16.21875 L10.75,17.8060157 C8.47757811,17.3215625 6.67902341,15.5251172 6.19398435,13.25 L7.78124998,13.25 C8.04011717,13.25 8.24999998,13.0401172 8.24999998,12.78125 L8.24999998,11.21875 C8.24999998,10.9598828 8.04011717,10.75 7.78124998,10.75 L6.19398435,10.75 C6.67843747,8.47757811 8.47488279,6.67902341 10.75,6.19398435 L10.75,7.78124998 C10.75,8.04011717 10.9598828,8.24999998 11.21875,8.24999998 L12.78125,8.24999998 C13.0401172,8.24999998 13.25,8.04011717 13.25,7.78124998 L13.25,6.19398435 C15.5224219,6.67843747 17.3209766,8.47488279 17.8060157,10.75 L16.21875,10.75 C15.9598828,10.75 15.75,10.9598828 15.75,11.21875 L15.75,12.78125 C15.75,13.0401172 15.9598828,13.25 16.21875,13.25 L17.8060157,13.25 C17.3215625,15.5224219 15.5251172,17.3209766 13.25,17.8060157 Z M13.25,12 C13.25,12.6903516 12.6903516,13.25 12,13.25 C11.3096484,13.25 10.75,12.6903516 10.75,12 C10.75,11.3096484 11.3096484,10.75 12,10.75 C12.6903516,10.75 13.25,11.3096484 13.25,12 Z" id="path-1"></path>
    </defs>
    <g id="crosshairs" stroke="none" stroke-width="1" fill="none" fill-rule="evenodd">
        <mask id="mask-2" fill="white">
            <use xlink:href="#path-1"></use>
        </mask>
        <g fill-rule="nonzero"></g>
        <g id="🎨-color" mask="url(#mask-2)" fill="#000000">
            <rect id="🎨-Color" x="0" y="0" width="24" height="24"></rect>
        </g>
    </g>
</svg>