<?xml version="1.0" encoding="UTF-8"?>
<svg width="24px" height="24px" viewBox="0 0 24 24" version="1.1" xmlns="http://www.w3.org/2000/svg" xmlns:xlink="http://www.w3.org/1999/xlink">
    <!-- Generator: Sketch 52.5 (67469) - http://www.bohemiancoding.com/sketch -->
    <title>cross</title>
    <desc>Created with Sketch.</desc>
    <defs>
        <path d="M18.25,6.99999997 L14.5,6.99999997 L14.5,3.24999996 C14.5,2.55976558 13.9402344,1.99999995 13.25,1.99999995 L10.75,1.99999995 C10.0597656,1.99999995 9.49999999,2.55976558 9.49999999,3.24999996 L9.49999999,6.99999997 L5.74999997,6.99999997 C5.05976559,6.99999997 4.49999996,7.5597656 4.49999996,8.24999998 L4.49999996,10.75 C4.49999996,11.4402344 5.05976559,12 5.74999997,12 L9.49999999,12 L9.49999999,20.75 C9.49999999,21.4402344 10.0597656,22.0000001 10.75,22.0000001 L13.25,22.0000001 C13.9402344,22.0000001 14.5,21.4402344 14.5,20.75 L14.5,12 L18.25,12 C18.9402344,12 19.5,11.4402344 19.5,10.75 L19.5,8.24999998 C19.5,7.5597656 18.9402344,6.99999997 18.25,6.99999997 Z" id="path-1"></path>
    </defs>
    <g id="cross" stroke="none" stroke-width="1" fill="none" fill-rule="evenodd">
        <mask id="mask-2" fill="white">
            <use xlink:href="#path-1"></use>
        </mask>
        <g></g>
        <g id="🎨-color" mask="url(#mask-2)" fill="#000000">
            <rect id="🎨-Color" x="0" y="0" width="24" height="24"></rect>
        </g>
    </g>
</svg>