<?xml version="1.0" encoding="UTF-8"?>
<svg width="24px" height="24px" viewBox="0 0 24 24" version="1.1" xmlns="http://www.w3.org/2000/svg" xmlns:xlink="http://www.w3.org/1999/xlink">
    <!-- Generator: Sketch 52.5 (67469) - http://www.bohemiancoding.com/sketch -->
    <title>crow</title>
    <desc>Created with Sketch.</desc>
    <defs>
        <path d="M19,4.99999996 L18.48875,4.99999996 C18.0325,4.39624996 17.3153125,3.99999996 16.5,3.99999996 C15.119375,3.99999996 14,5.11937497 14,6.49999997 L14,7.15562498 L2.37781245,16.2990625 C2.14002702,16.4773463 2.00005405,16.7571764 1.99999995,17.054375 C1.99999995,17.75625 2.73874995,18.2128125 3.36656246,17.8990625 L7.16468748,16 L10.18,16 L11.5678125,19.753125 C11.63875,19.9478125 11.85375,20.048125 12.0484375,19.9771875 L12.753125,19.720625 C12.9478125,19.6496875 13.048125,19.4346875 12.9771875,19.24 L11.779375,16 L13,16 C13.0596875,16 13.1175,15.9928125 13.176875,15.9909375 L14.5678125,19.7528125 C14.63875,19.9475 14.85375,20.0478125 15.0484375,19.976875 L15.753125,19.7203125 C15.9478125,19.649375 16.048125,19.434375 15.9771875,19.2396875 L14.6884375,15.754375 C17.179375,15.025 19,12.726875 19,9.99999999 L19,7.49999998 L22.0000001,6.99999997 C22.0000001,5.89531247 20.656875,4.99999996 19,4.99999996 Z M16.5,7.24999998 C16.0859375,7.24999998 15.75,6.91406247 15.75,6.49999997 C15.75,6.08562497 16.0859375,5.74999997 16.5,5.74999997 C16.9140625,5.74999997 17.25,6.08562497 17.25,6.49999997 C17.25,6.91406247 16.9140625,7.24999998 16.5,7.24999998 Z" id="path-1"></path>
    </defs>
    <g id="crow" stroke="none" stroke-width="1" fill="none" fill-rule="evenodd">
        <mask id="mask-2" fill="white">
            <use xlink:href="#path-1"></use>
        </mask>
        <g fill-rule="nonzero"></g>
        <g id="🎨-color" mask="url(#mask-2)" fill="#000000">
            <rect id="🎨-Color" x="0" y="0" width="24" height="24"></rect>
        </g>
    </g>
</svg>