<?xml version="1.0" encoding="UTF-8"?>
<svg width="24px" height="24px" viewBox="0 0 24 24" version="1.1" xmlns="http://www.w3.org/2000/svg" xmlns:xlink="http://www.w3.org/1999/xlink">
    <!-- Generator: Sketch 52.5 (67469) - http://www.bohemiancoding.com/sketch -->
    <title>crown</title>
    <desc>Created with Sketch.</desc>
    <defs>
        <path d="M18.5,18 L5.49999997,18 C5.22499997,18 4.99999996,18.225 4.99999996,18.5 L4.99999996,19.5 C4.99999996,19.775 5.22499997,20 5.49999997,20 L18.5,20 C18.775,20 19,19.775 19,19.5 L19,18.5 C19,18.225 18.775,18 18.5,18 Z M20.5,7.99999998 C19.671875,7.99999998 19,8.67187498 19,9.49999999 C19,9.72187499 19.05,9.92812499 19.1375,10.11875 L16.875,11.475 C16.39375,11.7625 15.771875,11.6 15.49375,11.1125 L12.946875,6.65624997 C13.28125,6.38124997 13.5,5.96874997 13.5,5.49999997 C13.5,4.67187496 12.828125,3.99999996 12,3.99999996 C11.171875,3.99999996 10.5,4.67187496 10.5,5.49999997 C10.5,5.96874997 10.71875,6.38124997 11.053125,6.65624997 L8.50624998,11.1125 C8.22812498,11.6 7.60312498,11.7625 7.12499998,11.475 L4.86562496,10.11875 C4.94999996,9.93124999 5.00312497,9.72187499 5.00312497,9.49999999 C5.00312497,8.67187498 4.33124996,7.99999998 3.50312496,7.99999998 C2.67499995,7.99999998 1.99999995,8.67187498 1.99999995,9.49999999 C1.99999995,10.328125 2.67187495,11 3.49999996,11 C3.58124996,11 3.66249996,10.9875 3.74062496,10.975 L5.99999997,17 L18,17 L20.259375,10.975 C20.3375,10.9875 20.41875,11 20.5,11 C21.328125,11 22.0000001,10.328125 22.0000001,9.49999999 C22.0000001,8.67187498 21.328125,7.99999998 20.5,7.99999998 Z" id="path-1"></path>
    </defs>
    <g id="crown" stroke="none" stroke-width="1" fill="none" fill-rule="evenodd">
        <mask id="mask-2" fill="white">
            <use xlink:href="#path-1"></use>
        </mask>
        <g fill-rule="nonzero"></g>
        <g id="🎨-color" mask="url(#mask-2)" fill="#000000">
            <rect id="🎨-Color" x="0" y="0" width="24" height="24"></rect>
        </g>
    </g>
</svg>