<?xml version="1.0" encoding="UTF-8"?>
<svg width="24px" height="24px" viewBox="0 0 24 24" version="1.1" xmlns="http://www.w3.org/2000/svg" xmlns:xlink="http://www.w3.org/1999/xlink">
    <!-- Generator: Sketch 52.5 (67469) - http://www.bohemiancoding.com/sketch -->
    <title>cube</title>
    <desc>Created with Sketch.</desc>
    <defs>
        <path d="M11.3398437,2.2460937 L3.21484371,5.29296872 C2.48437495,5.56640622 1.99999995,6.26953122 1.99999995,7.05078123 L1.99999995,15.84375 C1.99999995,16.5546875 2.4023437,17.203125 3.03515621,17.5195313 L11.1601562,21.5820313 C11.6875,21.8476563 12.3085938,21.8476563 12.8359375,21.5820313 L20.9609375,17.5195313 C21.5976563,17.203125 21.9960938,16.5507813 21.9960938,15.84375 L21.9960938,7.05078123 C21.9960938,6.26953122 21.5117188,5.57031247 20.78125,5.29687497 L12.65625,2.24999995 C12.234375,2.08593745 11.765625,2.08593745 11.3398437,2.2460937 Z M12,4.67187496 L19.5,7.48437498 L19.5,7.52734373 L12,10.5742187 L4.49999996,7.52734373 L4.49999996,7.48437498 L12,4.67187496 Z M13.25,18.578125 L13.25,12.7617188 L19.5,10.2226562 L19.5,15.453125 L13.25,18.578125 Z" id="path-1"></path>
    </defs>
    <g id="cube" stroke="none" stroke-width="1" fill="none" fill-rule="evenodd">
        <mask id="mask-2" fill="white">
            <use xlink:href="#path-1"></use>
        </mask>
        <g fill-rule="nonzero"></g>
        <g id="🎨-color" mask="url(#mask-2)" fill="#000000">
            <rect id="🎨-Color" x="0" y="0" width="24" height="24"></rect>
        </g>
    </g>
</svg>