<?xml version="1.0" encoding="UTF-8"?>
<svg width="24px" height="24px" viewBox="0 0 24 24" version="1.1" xmlns="http://www.w3.org/2000/svg" xmlns:xlink="http://www.w3.org/1999/xlink">
    <!-- Generator: Sketch 52.5 (67469) - http://www.bohemiancoding.com/sketch -->
    <title>cubes</title>
    <desc>Created with Sketch.</desc>
    <defs>
        <path d="M21.0859375,11.7734375 L17.3125,10.359375 L17.3125,6.12109372 C17.3125,5.53515622 16.9492188,5.01171872 16.3984375,4.80468746 L12.4921875,3.33984371 C12.1757813,3.21874996 11.8242187,3.21874996 11.5039062,3.33984371 L7.59765623,4.80468746 C7.04687498,5.01171872 6.68359372,5.53515622 6.68359372,6.12109372 L6.68359372,10.359375 L2.9101562,11.7734375 C2.3632812,11.9804687 1.99999995,12.5039063 1.99999995,13.0898438 L1.99999995,17.390625 C1.99999995,17.921875 2.3007812,18.4101563 2.7773437,18.6484375 L6.68359372,20.6015625 C7.07812498,20.8007813 7.54687498,20.8007813 7.94140623,20.6015625 L12,18.5703125 L16.0585938,20.6015625 C16.453125,20.8007813 16.921875,20.8007813 17.3164063,20.6015625 L21.2226563,18.6484375 C21.6992188,18.4101563 22.0000001,17.921875 22.0000001,17.390625 L22.0000001,13.0898438 C22.0000001,12.5039063 21.6367188,11.9804687 21.0859375,11.7734375 Z M15.984375,10.390625 L12.6640625,11.6367187 L12.6640625,8.97265623 L15.984375,7.52734373 L15.984375,10.390625 Z M8.01562498,6.06640622 L12,4.57421871 L15.984375,6.06640622 L15.984375,6.08984372 L12,7.70703123 L8.01562498,6.08984372 L8.01562498,6.06640622 Z M11.296875,17.4375 L7.97656248,19.0976563 L7.97656248,16.0078125 L11.296875,14.4921875 L11.296875,17.4375 Z M11.296875,13.0625 L7.31249998,14.6796875 L3.32812496,13.0625 L3.32812496,13.0390625 L7.31249998,11.546875 L11.296875,13.0390625 L11.296875,13.0625 Z M20.671875,17.4375 L17.3515625,19.0976563 L17.3515625,16.0078125 L20.671875,14.4921875 L20.671875,17.4375 Z M20.671875,13.0625 L16.6875,14.6796875 L12.703125,13.0625 L12.703125,13.0390625 L16.6875,11.546875 L20.671875,13.0390625 L20.671875,13.0625 Z" id="path-1"></path>
    </defs>
    <g id="cubes" stroke="none" stroke-width="1" fill="none" fill-rule="evenodd">
        <mask id="mask-2" fill="white">
            <use xlink:href="#path-1"></use>
        </mask>
        <g fill-rule="nonzero"></g>
        <g id="🎨-color" mask="url(#mask-2)" fill="#000000">
            <rect id="🎨-Color" x="0" y="0" width="24" height="24"></rect>
        </g>
    </g>
</svg>