<?xml version="1.0" encoding="UTF-8"?>
<svg width="24px" height="24px" viewBox="0 0 24 24" version="1.1" xmlns="http://www.w3.org/2000/svg" xmlns:xlink="http://www.w3.org/1999/xlink">
    <!-- Generator: Sketch 52.5 (67469) - http://www.bohemiancoding.com/sketch -->
    <title>cut</title>
    <desc>Created with Sketch.</desc>
    <defs>
        <path d="M14.1117188,12 L20.6125,5.49882809 C20.7957032,5.31562497 20.7957032,5.01874997 20.6125,4.83593746 C19.33125,3.55468746 17.2535157,3.55468746 15.9722656,4.83593746 L11.4601562,9.34843749 L10.4890625,8.37734373 C10.6574219,7.95078123 10.75,7.4863281 10.75,6.99999997 C10.75,4.92890621 9.07109374,3.24999996 6.99999997,3.24999996 C4.92890621,3.24999996 3.24999996,4.92890621 3.24999996,6.99999997 C3.24999996,9.07109374 4.92890621,10.75 6.99999997,10.75 C7.17734373,10.75 7.35117185,10.7375 7.52187498,10.7136719 L8.80820311,12 L7.52187498,13.2863281 C7.35117185,13.2625 7.1769531,13.25 6.99999997,13.25 C4.92890621,13.25 3.24999996,14.9289063 3.24999996,17 C3.24999996,19.0710938 4.92890621,20.75 6.99999997,20.75 C9.07109374,20.75 10.75,19.0710938 10.75,17 C10.75,16.5136719 10.6574219,16.0492188 10.4890625,15.6226563 L11.4601562,14.6515625 L15.9722656,19.1640625 C17.2535157,20.4453125 19.33125,20.4453125 20.6125,19.1640625 C20.7957032,18.98125 20.7957032,18.684375 20.6125,18.5011719 L14.1117188,12 Z M6.99999997,8.24999998 C6.31093747,8.24999998 5.74999997,7.68906248 5.74999997,6.99999997 C5.74999997,6.31093747 6.31093747,5.74999997 6.99999997,5.74999997 C7.68906248,5.74999997 8.24999998,6.31093747 8.24999998,6.99999997 C8.24999998,7.68906248 7.68906248,8.24999998 6.99999997,8.24999998 Z M6.99999997,18.25 C6.31093747,18.25 5.74999997,17.6890625 5.74999997,17 C5.74999997,16.3109375 6.31093747,15.75 6.99999997,15.75 C7.68906248,15.75 8.24999998,16.3109375 8.24999998,17 C8.24999998,17.6890625 7.68906248,18.25 6.99999997,18.25 Z" id="path-1"></path>
    </defs>
    <g id="cut" stroke="none" stroke-width="1" fill="none" fill-rule="evenodd">
        <mask id="mask-2" fill="white">
            <use xlink:href="#path-1"></use>
        </mask>
        <g fill-rule="nonzero"></g>
        <g id="🎨-color" mask="url(#mask-2)" fill="#000000">
            <rect id="🎨-Color" x="0" y="0" width="24" height="24"></rect>
        </g>
    </g>
</svg>