<?xml version="1.0" encoding="UTF-8"?>
<svg width="24px" height="24px" viewBox="0 0 24 24" version="1.1" xmlns="http://www.w3.org/2000/svg" xmlns:xlink="http://www.w3.org/1999/xlink">
    <!-- Generator: Sketch 52.5 (67469) - http://www.bohemiancoding.com/sketch -->
    <title>d-and-d-beyond</title>
    <desc>Created with Sketch.</desc>
    <defs>
        <path d="M10.93625,10.7315625 C10.93625,10.55375 10.985625,10.2503125 11.2365625,10.090625 C11.2325,10.090625 11.1215625,10.06625 10.95625,10.125625 C11.0196875,10.0303125 11.2678125,9.88031249 11.2815625,9.88031249 C11.02625,9.06624999 10.094375,9.16437499 10.2753125,9.16437499 C9.30906249,9.16437499 9.25531249,9.17499999 9.02874999,9.03906249 C9.03281249,9.06281249 9.04499999,9.29406249 9.32906249,9.50468749 C9.37906249,9.54468749 9.41906249,9.57968749 9.41906249,9.70999999 L9.41906249,10.9215625 C9.41906249,11.051875 9.39406249,11.086875 9.33406249,11.121875 C9.33031249,11.1240625 9.09906249,11.26125 9.08874999,11.2671875 L10.185,11.2671875 C10.498125,11.2671875 10.7290625,11.219375 10.9959375,10.996875 C10.9759375,10.8415625 11.0009375,10.7015625 11.0209375,10.62125 C11.02125,10.61625 10.96625,10.66625 10.93625,10.7315625 Z M9.99999999,10.7565625 L9.99999999,9.67531249 C10.143125,9.67531249 10.7209375,9.57093749 10.7209375,10.2159375 C10.7209375,10.8634375 10.146875,10.7565625 9.99999999,10.7565625 Z M13.2740625,11.026875 C13.296875,10.98125 13.3303125,10.869375 13.2690625,10.7465625 C13.2915625,10.7503125 13.444375,10.7615625 13.444375,10.886875 C13.444375,10.976875 13.3540625,11.016875 13.2740625,11.026875 Z M13.7296875,11.2671875 L13.7196875,11.2671875 C13.831875,11.1325 13.82625,10.8940625 13.6496875,10.7565625 C13.68625,10.7565625 14.2653125,10.8565625 14.2653125,10.2159375 C14.2653125,9.56812499 13.6915625,9.67531249 13.544375,9.67531249 L13.544375,9.81062499 C13.3759375,9.78656249 13.3115625,9.81906249 13.3090625,9.82062499 C13.3740625,9.76562499 13.449375,9.74062499 13.499375,9.73062499 C13.2790625,9.68062499 13.07375,9.80562499 13.04375,9.84062499 C13.06875,9.78562499 13.11875,9.73562499 13.15375,9.70031249 C13.08375,9.72531249 13.0184375,9.76031249 12.9634375,9.79531249 C12.9634375,9.63343749 12.9715625,9.56249999 12.8734375,9.49999999 C12.5890625,9.29468749 12.576875,9.05718749 12.573125,9.03437499 C12.7940625,9.16687499 12.8134375,9.15968749 13.8196875,9.15968749 C14.840625,9.20843749 14.8759375,10.091875 14.8759375,10.2059375 C14.87625,10.413125 14.7721875,11.2671875 13.7296875,11.2671875 Z M13.3740625,10.66125 C13.2990625,10.66125 13.21875,10.67625 13.21875,10.67625 C13.20375,10.66125 13.10375,10.58625 13.0584375,10.57625 C13.184375,10.71 13.0728125,10.8834375 12.9634375,10.8015625 L12.9634375,10.3109375 C12.9834375,10.2859375 13.0034375,10.2559375 13.0284375,10.2309375 C13.0834375,10.1659375 13.17375,10.1259375 13.26375,10.1259375 C13.31875,10.1259375 13.37375,10.1409375 13.4090625,10.1709375 L13.4390625,10.1909375 L13.4640625,10.1659375 C13.4790625,10.1509375 13.5140625,10.1359375 13.5490625,10.1209375 L13.5490625,10.6965625 C13.494375,10.67125 13.439375,10.66125 13.3740625,10.66125 Z M13.2740625,9.98062499 C13.08875,9.95562499 12.8034375,10.080625 12.6584375,10.2609375 C12.6884375,10.1409375 12.81875,9.94562499 12.97875,9.85531249 C12.97875,9.85531249 12.89875,9.95531249 12.93375,9.97031249 C12.98375,9.99531249 13.1140625,9.78999999 13.2840625,9.78499999 C13.2840625,9.78499999 13.15875,9.84499999 13.1840625,9.88999999 C13.2040625,9.91999999 13.2890625,9.84999999 13.434375,9.84999999 C13.6146875,9.84999999 13.7746875,9.95999999 13.85,10.0453125 C13.7246875,10.0103125 13.4896875,10.0703125 13.419375,10.1303125 C13.41125,10.1240625 13.051875,9.85156249 12.7334375,10.6159375 C12.5840625,10.49625 12.5946875,10.5003125 12.533125,10.475625 C12.6684375,10.2859375 12.94875,9.99562499 13.2740625,9.98062499 Z M11.3215625,9.41968749 C11.3153125,9.34781249 11.323125,8.80124998 11.9475,8.82906248 C12.2978125,8.84906248 12.468125,9.08937499 12.468125,9.34468749 C12.468125,9.47999999 12.398125,9.65999999 12.2978125,9.77531249 C12.22875,9.70624999 12.1240625,9.62968749 12.0575,9.52999999 C12.1775,9.35468749 12.1275,9.07937499 11.9121875,9.07937499 C11.776875,9.07937499 11.666875,9.21968749 11.711875,9.38968749 C11.691875,9.46468749 11.681875,9.56499999 11.696875,9.63999999 C11.5415625,9.55999999 11.4915625,9.45468749 11.4615625,9.35968749 C11.4215625,9.43968749 11.3965625,9.54999999 11.4265625,9.65499999 C11.426875,9.66499999 11.3365625,9.58499999 11.3215625,9.41968749 Z M11.411875,9.84531249 C11.396875,9.90031249 11.1915625,9.96031249 11.0915625,10.060625 C11.241875,10.030625 11.311875,10.055625 11.336875,10.115625 C11.351875,10.160625 11.331875,10.220625 11.321875,10.2909375 C11.371875,10.2359375 11.5421875,10.120625 11.6671875,10.095625 C11.6371875,10.085625 11.5621875,10.070625 11.531875,10.070625 C11.621875,9.96562499 11.8221875,9.93031249 11.9325,9.95562499 C11.8625,9.95062499 11.7221875,9.99062499 11.6671875,10.035625 C11.7171875,10.045625 11.7621875,10.055625 11.8025,10.070625 C11.7375,10.095625 11.6521875,10.175625 11.6221875,10.2609375 C11.841875,10.1059375 12.030625,10.4221875 11.8425,10.51625 C11.8675,10.52125 11.9275,10.51625 11.9525,10.50125 C11.9425,10.53625 11.8925,10.59625 11.8575,10.60625 C11.9475,10.60625 12.0778125,10.54625 12.1128125,10.4609375 C12.1128125,10.4609375 12.0578125,10.4809375 12.0328125,10.4559375 C12.0078125,10.4309375 12.0428125,10.320625 12.0428125,10.320625 C11.9715625,10.4121875 11.9359375,10.2796875 12.0028125,10.1903125 C11.9728125,10.1803125 11.8928125,10.1703125 11.8575,10.1753125 C11.9575,10.1403125 12.1828125,10.1203125 12.2078125,10.1653125 C12.2278125,10.2003125 12.1778125,10.2703125 12.1778125,10.2703125 C12.303125,10.2546875 12.4359375,10.305625 12.388125,10.430625 C12.478125,10.385625 12.5584375,10.2453125 12.5384375,10.1053125 C12.5284375,10.1353125 12.4884375,10.1803125 12.4484375,10.1903125 C12.4534375,10.1453125 12.4184375,10.1203125 12.3884375,10.1103125 C12.4415625,9.80968749 11.9315625,9.66562499 11.9478125,9.36437499 C11.9178125,9.40437499 11.8928125,9.51968749 11.9228125,9.58468749 C12.0078125,9.68468749 12.193125,9.79499999 12.238125,9.96531249 C12.158125,9.76499999 11.7675,9.60999999 11.7825,9.33437499 C11.7325,9.38437499 11.7025,9.57968749 11.7425,9.67968749 C11.8175,9.72468749 11.8828125,9.79968749 11.8928125,9.86999999 C11.8228125,9.70968749 11.5375,9.67968749 11.4571875,9.48937499 C11.4371875,9.55937499 11.4471875,9.64468749 11.4871875,9.69968749 C11.4871875,9.69968749 11.4171875,9.67468749 11.266875,9.67968749 C11.3165625,9.69999999 11.421875,9.79031249 11.411875,9.84531249 Z M12.2228125,10.075625 C12.1378125,10.075625 12.1128125,10.010625 12.0925,9.94031249 C12.1928125,9.98062499 12.2228125,10.075625 12.2228125,10.075625 Z M13.3140625,11.3821875 C13.3740625,11.4371875 13.519375,11.4771875 13.594375,11.4421875 C13.4728125,11.6584375 12.8734375,11.6775 12.8734375,11.241875 C12.7834375,11.331875 12.8084375,11.4721875 12.8734375,11.5321875 C12.8034375,11.5121875 12.693125,11.4371875 12.673125,11.301875 C12.6321875,10.9878125 12.810625,11.1 12.3478125,10.73625 C12.1975,10.62125 12.2528125,10.5309375 12.2225,10.4709375 C12.188125,10.401875 12.004375,10.341875 12.0821875,10.205625 C12.0771875,10.255625 12.1121875,10.295625 12.1621875,10.315625 C12.2171875,10.335625 12.2621875,10.320625 12.3125,10.345625 C12.3675,10.380625 12.3425,10.465625 12.3825,10.5009375 C12.4175,10.5259375 12.5128125,10.4909375 12.5878125,10.5559375 C12.6678125,10.6209375 12.843125,10.76625 12.918125,10.82625 C13.0534375,10.93625 13.1934375,10.81125 13.1484375,10.6809375 C13.28875,10.7609375 13.30375,10.99125 13.1884375,11.0715625 C13.519375,11.146875 13.59375,10.7578125 13.34375,10.71625 C13.5690625,10.69625 13.764375,10.8515625 13.764375,11.0515625 C13.7546875,11.2521875 13.549375,11.4121875 13.3140625,11.3821875 Z M12.583125,10.986875 C12.463125,11.2321875 12.2378125,11.5475 11.8071875,11.5475 C11.4959375,11.5475 11.3046875,11.3271875 11.3215625,11.3271875 C11.18875,11.1503125 11.2278125,11.3365625 11.2465625,11.3871875 C10.90625,11.066875 11.08125,10.59625 11.08625,10.57625 C11.10625,10.51625 11.08625,10.50625 11.06625,10.51625 C11.03625,10.52625 11.00125,10.57625 11.00125,10.57625 C11.02625,10.2909375 11.2915625,10.115625 11.2915625,10.115625 L11.2965625,10.120625 C11.3265625,10.165625 11.2815625,10.220625 11.2765625,10.4009375 C11.3265625,10.3309375 11.521875,10.195625 11.631875,10.155625 C11.596875,10.200625 11.566875,10.265625 11.566875,10.3609375 C11.6828125,10.2303125 11.8015625,10.278125 11.8171875,10.2859375 C11.4365625,10.65625 11.596875,11.116875 11.9171875,11.116875 C12.0975,11.116875 12.2775,10.9165625 12.3528125,10.7815625 C12.4284375,10.856875 12.5503125,10.95375 12.583125,10.986875 Z M13.07875,12.068125 C10.768125,12.068125 10.6578125,15.171875 13.06875,15.171875 C15.5028125,15.171875 15.3834375,12.068125 13.07875,12.068125 Z M13.06875,14.49125 C11.9009375,14.49125 11.9159375,12.7640625 13.07375,12.7640625 C14.2259375,12.7640625 14.2871875,14.49125 13.06875,14.49125 Z M17.1540625,12.163125 L18.380625,12.163125 L18.1503125,12.4234375 L18.1503125,15.086875 L17.484375,15.086875 C17.3590625,14.69125 16.0825,13.68 15.9675,13.3496875 L15.9575,13.3496875 L15.9575,14.8315625 L16.1878125,15.086875 L14.97125,15.086875 L15.1965625,14.8265625 L15.1965625,12.4234375 L14.96625,12.158125 L15.9525,12.158125 C16.0425,12.4534375 17.1940625,13.2996875 17.364375,13.75 L17.374375,13.75 L17.374375,12.4234375 L17.1540625,12.163125 Z M20.1125,12.098125 C19.4665625,12.098125 18.8609375,12.138125 18.540625,12.163125 L18.7709375,12.4184375 L18.7709375,14.8315625 L18.540625,15.086875 C18.8659375,15.111875 19.506875,15.151875 20.1525,15.151875 C21.4690625,15.151875 21.9996875,14.5059375 21.9996875,13.625 C22,12.70875 21.2740625,12.098125 20.1125,12.098125 Z M19.6421875,14.4609375 L19.6421875,12.79375 C20.581875,12.689375 21.1040625,12.9125 21.1040625,13.6146875 C21.10375,14.415 20.4334375,14.56 19.6421875,14.4609375 Z M10.2203125,14.8265625 L10.445625,15.081875 L9.11406249,15.081875 L9.35437499,14.8265625 L9.34937499,14.2209375 L7.97249998,12.1634375 L9.37437499,12.1634375 L9.17406249,12.38875 L9.82999999,13.5503125 L9.83999999,13.5503125 L10.4809375,12.38875 L10.290625,12.1634375 L11.5921875,12.1634375 L10.2153125,14.2309375 L10.2203125,14.8265625 Z M8.24781248,14.4209375 L7.80718748,15.081875 L7.81218748,15.081875 L5.26906247,15.081875 L5.49937497,14.8265625 L5.49937497,12.4184375 L5.26906247,12.163125 L7.56687498,12.158125 L7.56687498,12.163125 L8.00749998,12.8190625 L6.37031247,12.8190625 L6.37031247,13.2846875 L7.53187498,13.2846875 L7.09124998,13.945625 L7.09124998,13.950625 L6.37031247,13.945625 L6.37031247,14.42625 L8.24781248,14.4209375 Z M4.49812496,13.56 C5.03406247,13.4171875 5.00374997,12.99625 5.00374997,12.939375 C5.00374997,12.2965625 4.24937496,12.1584375 3.84718746,12.1584375 L2.09499995,12.1584375 L2.35531245,12.42875 L2.35531245,13.35 L1.99999995,13.35 L2.35531245,13.805625 L2.35531245,14.811875 L2.09499995,15.0821875 C4.02437496,15.0821875 4.40156246,15.1303125 4.79343746,14.896875 C5.00374997,14.7715625 5.10374997,14.5915625 5.10374997,14.34625 C5.10374997,14.1859375 5.18562497,13.7590625 4.49812496,13.56 Z M3.20656246,12.69875 C3.83093746,12.69875 4.13281246,12.6721875 4.13281246,12.9840625 L4.13281246,13.0790625 C4.13281246,13.4565625 3.54031246,13.354375 3.20656246,13.354375 L3.20656246,12.69875 Z M4.23281246,14.2609375 C4.23281246,14.6109375 3.84437496,14.55125 3.20656246,14.55125 L3.20656246,13.8453125 C3.58781246,13.8453125 4.22781246,13.7740625 4.22781246,14.120625 L4.22781246,14.2609375 L4.23281246,14.2609375 Z" id="path-1"></path>
    </defs>
    <g id="d-and-d-beyond" stroke="none" stroke-width="1" fill="none" fill-rule="evenodd">
        <mask id="mask-2" fill="white">
            <use xlink:href="#path-1"></use>
        </mask>
        <g fill-rule="nonzero"></g>
        <g id="🎨-color" mask="url(#mask-2)" fill="#000000">
            <rect id="🎨-Color" x="0" y="0" width="24" height="24"></rect>
        </g>
    </g>
</svg>