<?xml version="1.0" encoding="UTF-8"?>
<svg width="24px" height="24px" viewBox="0 0 24 24" version="1.1" xmlns="http://www.w3.org/2000/svg" xmlns:xlink="http://www.w3.org/1999/xlink">
    <!-- Generator: Sketch 52.5 (67469) - http://www.bohemiancoding.com/sketch -->
    <title>d-and-d</title>
    <desc>Created with Sketch.</desc>
    <defs>
        <path d="M4.8645833,6.52777775 C4.84374996,5.93055553 4.93402774,5.35416663 5.30555552,4.85416663 C5.31597219,5.11111108 5.34722219,5.35763886 5.45138886,5.60416663 C5.65624997,4.64930552 6.13541664,3.89236107 6.92013886,3.32986107 C6.85416664,3.53472218 6.79861109,3.73958329 6.8159722,3.9444444 C7.11805553,3.68749996 7.46874998,3.32638885 8.35763887,3.15624996 C8.86805554,3.05902773 9.38888888,3.08680551 9.81944443,3.19097218 C11.15625,3.51388885 11.9375,4.38194441 12.2395833,5.70138886 C12.4236111,6.50347219 12.2638889,7.26388887 11.9513889,8.00694442 C11.7708333,8.43749998 11.5347222,8.85416665 11.2326389,9.22569443 C11.1631944,9.15972221 11.0972222,9.09374999 11.03125,9.03124999 C9.54513888,7.61458331 10.1006944,8.15624998 9.73263888,7.73263887 C9.69444443,7.6909722 9.69791666,7.65624998 9.72916666,7.60763887 C10.0173611,7.13888886 10.1388889,6.6284722 10.0763889,6.07986108 C10.0381944,5.7395833 9.92708332,5.42361108 9.68402777,5.17013885 C9.18055554,4.63888885 8.32291665,4.64930552 7.82638887,5.19097219 C7.43055553,5.62499997 7.33680553,6.14236108 7.44791664,6.70486108 C7.45486109,6.74999997 7.46180553,6.79861109 7.44791664,6.84027775 C7.32986109,7.3159722 7.28819442,7.79861109 7.36111109,8.2847222 C7.36458331,8.30208331 7.36458331,8.32291665 7.36458331,8.34027776 C7.36458331,8.35069443 7.36111109,8.35763887 7.35763887,8.3784722 C6.60069442,7.99652776 6.10763886,7.39583331 5.85763886,6.5659722 C5.56944441,7.18402775 5.47222219,7.79861109 5.62847219,8.44444443 C5.08680552,7.91666665 4.88888885,7.2534722 4.8645833,6.52777775 Z M21.1701389,10.8055555 C20.7673612,10.4027778 20.3020834,10.0972222 19.7777778,9.88194443 C19.3333334,9.70138888 18.875,9.60763888 18.3923611,9.63541665 C18.0451389,9.65624999 17.7118056,9.74305554 17.3854167,9.85763888 C17.2986111,9.88888888 17.2083334,9.91319443 17.1180556,9.93402777 C16.9479167,9.97569443 16.8645834,9.82638888 16.9548611,9.69791666 C17.0659722,9.53819443 17.0729167,9.55208332 17.4756945,9.28124999 C17.4965278,9.2673611 17.5173611,9.25347221 17.5520834,9.22916665 L17.4652778,9.22916665 C17.4444445,9.22916665 17.4236111,9.2361111 17.3993056,9.23958332 C16.7291667,9.35416665 16.3333334,9.77777777 15.7013889,10.2673611 C15.3402778,10.5486111 15.2222222,10.3993055 15.2847222,10.25 C15.3333334,10.1284722 15.3993056,10.0173611 15.4618056,9.90277777 C15.4965278,9.84027777 15.5416667,9.78472221 15.5833334,9.72569443 C15.5763889,9.71874999 15.5659722,9.71527777 15.5590278,9.70833332 C14.6215278,10.34375 13.9375,11.1805556 13.5555556,12.2534722 C13.5659722,12.2638889 13.5798611,12.2743056 13.5902778,12.2847222 C13.6006945,12.2638889 13.6076389,12.2430556 13.6215278,12.2256944 C13.9826389,11.8055556 14.4131945,11.46875 14.8923611,11.1909722 C15.5243056,10.8229167 16.1944445,10.5555555 16.9305556,10.4895833 C17.0798611,10.4756944 17.2326389,10.4861111 17.3854167,10.4861111 C17.3229167,10.5104167 17.2638889,10.5173611 17.2013889,10.5243055 C16.5590278,10.6076389 15.96875,10.8368055 15.4131945,11.1666667 C14.3645833,11.7881944 13.5208333,12.6319444 12.8055556,13.6111111 C12.7951389,13.625 12.7916667,13.6423611 12.78125,13.65625 C13.2847222,13.8402778 13.6145833,14.2569445 14.0347222,14.5451389 C14.0416667,14.5416667 14.0451389,14.5381945 14.0486111,14.53125 L14.0902778,14.4375 C14.5138889,13.5034722 15.0277778,12.6215278 15.7118056,11.8506944 C16.2916667,11.1979167 17.03125,10.9722222 17.8819445,11.15625 C18.0868056,11.2013889 18.2777778,11.3090278 18.4791667,11.3923611 C18.5590278,11.34375 18.65625,11.28125 18.7569445,11.2291667 C19.0486111,11.0798611 19.3611111,10.9861111 19.6840278,10.9166667 C20.1944445,10.8090278 20.7083334,10.7465278 21.2291667,10.8715278 L21.2291667,10.8541667 C21.2118056,10.8402778 21.1875,10.8263889 21.1701389,10.8055555 Z M12.9965278,16.8993056 C11.6284722,15.7534722 12.2048611,16.2222222 11.5138889,15.6631945 C11.4861111,15.6944445 11.5138889,15.65625 11.4479167,15.7673611 C11.0590278,16.4305556 10.5625,16.9930556 9.92013888,17.4201389 C9.56249999,17.65625 9.1736111,17.8298611 8.73611109,17.8298611 C7.98611109,17.8298611 7.4097222,17.5 7.02083331,16.8645834 C6.60416664,16.1875 6.55902775,15.4513889 6.73611108,14.6909722 C7.00694442,13.5173611 7.78124998,12.7743056 8.07638887,12.4583333 C7.42708331,12.2430556 6.93055553,12.5173611 6.46527775,12.9409722 C6.49305553,12.4583333 6.61458331,12.03125 6.87499997,11.6458333 C6.03124997,12.0138889 5.28124997,12.5138889 4.62499996,13.1701389 C4.6145833,12.96875 4.81249996,11.6527778 4.81944441,11.6180556 C4.82986108,11.5243056 4.79861108,11.4340278 4.71527774,11.3611111 C3.87499996,12.21875 3.17013884,13.1597222 2.76736106,14.2986111 C3.02430551,14.09375 3.28472218,13.9027778 3.58680551,13.7361111 C3.29861107,14.5104167 2.90624995,15.5694445 3.31597218,17.2465278 C3.4756944,17.90625 3.72916663,18.5243056 4.15277774,19.0625 C4.25347218,19.1909723 4.37152774,19.3020834 4.48263885,19.4201389 C4.4895833,19.4131945 4.49652774,19.4097223 4.50347218,19.4027778 C4.45486107,19.1597223 4.4270833,18.9131945 4.45138885,18.6423611 C4.52777774,18.7534723 4.58680552,18.8506945 4.65624996,18.9409723 C5.09374997,19.4965278 5.65277775,19.8923612 6.29513886,20.1770834 C7.16319442,20.5694445 8.06944442,20.6388889 8.99999998,20.4756945 C10.90625,20.1388889 12.1493056,18.7881945 13.0277778,17.0451389 C13.0625,16.9826389 13.0486111,16.9444445 12.9965278,16.8993056 Z M18.96875,15.2881945 C18.6388889,15.1805556 18.1979167,15.1423611 17.9722223,15.1875 C18.3159723,15.3263889 18.4618056,15.4166667 18.625,15.6041667 C19.0625,16.1041667 18.9861111,16.8090278 18.4375,17.1875 C18.03125,17.46875 17.5729167,17.5520834 17.0868056,17.5034722 C17.0451389,17.5 17.0069445,17.4895834 16.9826389,17.4826389 C17.0798611,17.3541667 17.1909722,17.2395834 17.2638889,17.1076389 C17.5902778,16.5243056 17.4513889,15.6458334 16.9618056,15.1597222 C16.8888889,15.0868056 16.8020834,15.0243056 16.71875,14.9548611 C16.7083334,15 16.7152778,15.0277778 16.7222222,15.0520833 C16.8680556,15.6284722 16.4409722,16.1770834 15.8611111,16.15625 C15.5972222,16.1458334 15.3784722,16.0243056 15.1805556,15.8611111 C14.5034722,15.3020833 13.8229167,14.7465278 13.1493056,14.1840278 C12.9444444,14.0138889 12.7152778,13.9027778 12.4513889,13.8819445 C12.2916667,13.8680556 12.1284722,13.8611111 11.96875,13.8506945 C11.7638889,13.8368056 11.6631944,13.7534722 11.6076389,13.5590278 C11.5763889,13.4409722 11.5555556,13.3229167 11.53125,13.2048611 C11.4791667,12.9236111 11.3159722,12.7534722 11.0347222,12.7118056 C10.8819444,12.6875 10.7256944,12.6770833 10.5729167,12.6597222 C10.1215278,12.6111111 9.88541666,12.4027778 9.78819443,11.9548611 C9.61458332,12.3368056 9.73263888,12.7326389 10.0416667,12.9930556 C10.1979167,13.125 10.3645833,13.2465278 10.5208333,13.3819445 C10.6805555,13.5138889 10.7777778,13.6840278 10.7951389,13.8958333 C10.8090278,14.0590278 10.8229167,14.2256945 10.8576389,14.3854167 C10.9340278,14.7534722 11.1666667,15.0243056 11.4479167,15.2569445 C12.0208333,15.7326389 12.59375,16.2048611 13.1666667,16.6840278 C13.7881945,17.2048611 13.6493056,17.8229167 13.6180556,18.6284723 C13.5868056,19.4236111 14.0416667,20.1180556 14.78125,20.40625 C14.8159722,20.4201389 14.8506945,20.4270834 14.90625,20.4444445 C14.3611111,19.8125 14.5555556,18.9131945 14.9305556,18.6284723 C14.9409722,18.7048611 14.9444445,18.7777778 14.9618056,18.8506945 C15.2881945,20.3819445 16.5381945,21.0798612 17.9131945,20.8263889 C18.46875,20.7256945 18.9756945,20.5173612 19.4027778,20.1388889 C19.4722223,20.0763889 19.53125,19.9965278 19.6076389,19.9131945 C18.9375,20.0729167 18.3645834,19.9166667 17.8402778,19.5451389 C17.8645834,19.5347223 17.8854167,19.5347223 17.90625,19.5347223 C18.6458334,19.5972223 19.3159723,19.4166667 19.8854167,18.9305556 C20.5625,18.3541667 20.8090278,17.4409722 20.4895834,16.6388889 C20.2013889,15.9409722 19.6701389,15.5173611 18.96875,15.2881945 Z M5.45138886,9.31944443 C5.26736108,8.99999999 4.99305552,8.77777776 4.68402774,8.57986109 C5.15972219,8.56249998 5.60763886,8.58680554 6.05902775,8.70833332 C5.81597219,8.2847222 5.76388886,7.85069442 5.88541664,7.36458331 C6.06944441,7.77777776 6.36111108,8.06249998 6.70486108,8.29513887 C7.38888887,8.75347221 7.94444442,8.97569443 8.32638887,9.34374999 C8.44444443,9.45833332 8.54513887,9.59027777 8.65972221,9.72222221 C8.63194443,9.64930554 8.61111109,9.5798611 8.58333332,9.51388888 C8.4097222,9.14583332 8.13194443,8.86805554 7.79861109,8.64583332 C7.73611109,8.60416665 7.70138887,8.55902776 7.68055553,8.48958332 C7.5659722,8.05555554 7.57638887,7.61805553 7.65624998,7.18402775 C7.6909722,6.99305553 7.7534722,6.80555553 7.81249998,6.61805553 C7.84027776,6.53472219 7.89236109,6.45833331 7.95138887,6.38888886 C7.9722222,6.6284722 7.95138887,7.27430553 8.63194443,7.98611109 C9.00694443,8.3784722 9.40972221,8.74652776 9.80902777,9.12152776 C10.1215278,9.41666665 10.4444444,9.70138888 10.6944444,10.0520833 C10.7326389,10.1076389 10.7708333,10.1666667 10.8263889,10.2152778 C10.6527778,9.76388888 10.3333333,9.37847221 9.9861111,9.04166665 C9.65277777,8.71874998 9.31249999,8.40277776 8.97222221,8.09027776 C8.85763887,7.98611109 8.81249998,7.85763887 8.79513887,7.71180553 C8.75347221,7.35069442 8.79513887,6.99652775 8.94444443,6.66319442 C8.96180554,6.6284722 8.98263887,6.59374997 9.01041665,6.54861108 C9.02777776,6.69444442 9.03124999,6.82291664 9.05902776,6.95138886 C9.22569443,7.7534722 9.7673611,8.21180554 10.7708333,9.15624999 C11.1180556,9.48263888 11.4409722,9.82291666 11.6597222,10.2534722 C11.8263889,10.5763889 11.9131944,10.9131944 11.8576389,11.28125 C11.8541667,11.3020833 11.875,11.3402778 11.8958333,11.3506944 C12.1111111,11.4409722 12.2430556,11.5902778 12.2326389,11.8472222 C12.5,11.7569444 12.6666667,11.5694444 12.8020833,11.34375 C12.9479167,12.0451389 12.4861111,13.0902778 11.8576389,13.3819445 C11.8715278,13.2256945 12.03125,12.5694444 11.2847222,12.4201389 C11.0486111,12.375 10.8402778,12.375 10.4895833,12.3472222 C10.6527778,12.0347222 10.8506944,11.6319444 10.5069444,11.5694444 C9.6423611,11.4097222 8.67361109,11.6354167 8.49999998,11.7291667 C8.78472221,11.7430556 9.06597221,11.7638889 9.31597221,11.84375 C9.24652776,12.0694444 9.17708332,12.2847222 9.11458332,12.5 C9.0486111,12.7256944 9.18749999,13.0069444 9.43749999,12.8333333 C9.47916665,12.8020833 9.5173611,12.7673611 9.55208332,12.7395833 C9.44444443,13.3611111 9.45138888,13.2916667 9.4548611,13.375 C9.46527777,13.7291667 9.78472221,13.6458333 9.99999999,13.6284722 C9.91319443,14.0381945 8.97569443,14.5763889 8.42361109,14.5243056 C8.66666665,14.3611111 8.86458332,14.1666667 8.97569443,13.9027778 C8.74999998,13.9305556 8.52777776,13.9583333 8.30902776,13.9861111 L8.29861109,13.9548611 C8.46180554,13.8368056 8.57638887,13.6840278 8.65277776,13.5 C8.9548611,12.7673611 8.52777776,12.1805556 7.7847222,12.1145833 C7.46874998,12.0868056 7.16666664,12.1423611 6.88541664,12.3055556 C7.10069442,11.7638889 7.48263887,11.3819444 8.01736109,11.1076389 C7.48958331,10.9583333 7.70833331,11.0138889 7.16319442,10.8888889 C7.67013887,10.5659722 8.21180554,10.4305555 8.77777776,10.3819444 C8.59722221,10.2708333 7.10763886,10.2569444 6.34027775,11.1076389 C6.61458331,11.15625 6.8784722,11.2048611 7.14583331,11.2534722 C6.31944442,11.4965278 5.61805552,11.9375 4.97916663,12.4895833 C5.01736108,12.3229167 5.07291663,12.1597222 5.09374997,11.9930556 C5.1145833,11.8368056 5.12152774,11.6736111 5.09722219,11.5208333 C5.04513885,11.1944444 4.78819441,10.9965278 4.41319441,10.9548611 C4.13888885,10.9236111 3.87152774,10.9583333 3.60416662,11 C3.57291662,11.0034722 3.54513885,11.0104167 3.50347218,11 C4.05208329,10.4861111 4.75347219,10.2465278 5.34722219,9.83680554 C5.55555552,9.68055554 5.5833333,9.55208332 5.45138886,9.31944443 Z M9.90972221,10.25 C10.0243055,10.8055555 10.3472222,11.1354167 10.7361111,11.09375 C10.5763889,10.7013889 10.3159722,10.4166667 9.90972221,10.25 Z" id="path-1"></path>
    </defs>
    <g id="d-and-d" stroke="none" stroke-width="1" fill="none" fill-rule="evenodd">
        <mask id="mask-2" fill="white">
            <use xlink:href="#path-1"></use>
        </mask>
        <g fill-rule="nonzero"></g>
        <g id="🎨-color" mask="url(#mask-2)" fill="#000000">
            <rect id="🎨-Color" x="0" y="0" width="24" height="24"></rect>
        </g>
    </g>
</svg>