<?xml version="1.0" encoding="UTF-8"?>
<svg width="24px" height="24px" viewBox="0 0 24 24" version="1.1" xmlns="http://www.w3.org/2000/svg" xmlns:xlink="http://www.w3.org/1999/xlink">
    <!-- Generator: Sketch 52.5 (67469) - http://www.bohemiancoding.com/sketch -->
    <title>deaf</title>
    <desc>Created with Sketch.</desc>
    <defs>
        <path d="M10.4375,12.15625 C10.4375,12.7603125 9.94781249,13.25 9.34374999,13.25 C8.73968748,13.25 8.24999998,12.7603125 8.24999998,12.15625 C8.24999998,10.433125 9.65187499,9.03124999 11.375,9.03124999 C13.098125,9.03124999 14.5,10.433125 14.5,12.15625 C14.5,12.7603125 14.0103125,13.25 13.40625,13.25 C12.8021875,13.25 12.3125,12.7603125 12.3125,12.15625 C12.3125,11.6392969 11.8919141,11.21875 11.375,11.21875 C10.8580859,11.21875 10.4375,11.6392969 10.4375,12.15625 Z M11.375,5.28124997 C7.58410154,5.28124997 4.49999996,8.36535154 4.49999996,12.15625 C4.49999996,12.7603125 4.98968746,13.25 5.59374997,13.25 C6.19781247,13.25 6.68749997,12.7603125 6.68749997,12.15625 C6.68749997,9.57156249 8.79031248,7.46874998 11.375,7.46874998 C13.9596875,7.46874998 16.0625,9.57156249 16.0625,12.15625 C16.0625,15.0923438 13.2887109,14.9027735 13.2501172,17.7664844 L13.25,17.78125 C13.25,18.9012891 12.3387891,19.8125 11.21875,19.8125 C10.6146875,19.8125 10.125,20.3021875 10.125,20.90625 C10.125,21.5103125 10.6146875,22.0000001 11.21875,22.0000001 C13.5419922,22.0000001 15.4326563,20.1121875 15.4375,17.7900782 C15.4607422,16.4452344 18.25,15.9057031 18.25,12.15625 C18.25,8.36535154 15.1658985,5.28124997 11.375,5.28124997 Z M21.8626954,3.24214839 L20.7578125,2.13730464 C20.5747266,1.95425776 20.2779688,1.95425776 20.0948829,2.13730464 L16.6953125,5.53687497 C16.5122656,5.71992184 16.5122656,6.01671872 16.6953125,6.19980466 L17.8001953,7.30468748 C17.9832422,7.48773435 18.2800391,7.48773435 18.463086,7.30468748 L21.8626954,3.90511715 C22.0457813,3.72199215 22.0457813,3.42519527 21.8626954,3.24214839 Z M8.60039061,14.2947266 C8.41734373,14.1116797 8.12054686,14.1116797 7.93749998,14.2947266 L2.13730464,20.0949219 C1.95425776,20.2779688 1.95425776,20.5747657 2.13730464,20.7578516 L3.24218746,21.8626954 C3.42527339,22.0457422 3.72203121,22.0457422 3.90511715,21.8626954 L9.70531249,16.0625 C9.88835936,15.8794531 9.88835936,15.5826563 9.70531249,15.3995703 L8.60039061,14.2947266 Z" id="path-1"></path>
    </defs>
    <g id="deaf" stroke="none" stroke-width="1" fill="none" fill-rule="evenodd">
        <mask id="mask-2" fill="white">
            <use xlink:href="#path-1"></use>
        </mask>
        <g fill-rule="nonzero"></g>
        <g id="🎨-color" mask="url(#mask-2)" fill="#000000">
            <rect id="🎨-Color" x="0" y="0" width="24" height="24"></rect>
        </g>
    </g>
</svg>