<?xml version="1.0" encoding="UTF-8"?>
<svg width="24px" height="24px" viewBox="0 0 24 24" version="1.1" xmlns="http://www.w3.org/2000/svg" xmlns:xlink="http://www.w3.org/1999/xlink">
    <!-- Generator: Sketch 52.5 (67469) - http://www.bohemiancoding.com/sketch -->
    <title>delicious</title>
    <desc>Created with Sketch.</desc>
    <defs>
        <path d="M20.671875,4.65624996 C20.65625,4.59765621 20.6367188,4.53906246 20.6171875,4.48046871 C20.5820313,4.38281246 20.5390625,4.29296871 20.4882813,4.20312496 C20.4335938,4.10937496 20.3710938,4.01562496 20.3046875,3.93359371 C20.2226563,3.83593746 20.1328125,3.74609371 20.0351563,3.66796871 C19.9921875,3.63281246 19.9492188,3.60156246 19.90625,3.57031246 C19.8554688,3.53515621 19.8046875,3.50390621 19.75,3.47656246 C19.6796875,3.43749996 19.609375,3.40624996 19.5351563,3.37890621 C19.46875,3.35156246 19.3984375,3.32812496 19.3242188,3.31249996 C19.1757813,3.27343746 19.015625,3.25390621 18.8554688,3.25390621 L5.10546872,3.25390621 C4.07031246,3.24999996 3.23046871,4.08984371 3.23046871,5.12499997 L3.23046871,18.875 C3.23046871,19.0351563 3.24999996,19.1953125 3.28906246,19.34375 C3.36718746,19.6445313 3.51562496,19.9140625 3.71874996,20.1367188 C3.75781246,20.1796875 3.80078121,20.2226563 3.84765621,20.265625 C4.07031246,20.46875 4.33984371,20.6171875 4.64062496,20.6953125 C4.78906246,20.734375 4.94921871,20.7539063 5.10937497,20.7539063 L18.859375,20.7539063 C19.8945313,20.7539063 20.734375,19.9140625 20.734375,18.8789063 L20.734375,5.12499997 C20.7304688,4.96484371 20.7109375,4.80468746 20.671875,4.65624996 Z M19.4804688,18.875 C19.4804688,19.21875 19.1992188,19.5 18.8554688,19.5 L11.9804687,19.5 L11.9804687,12 L4.48046871,12 L4.48046871,5.12499997 C4.48046871,4.78124996 4.76171871,4.49999996 5.10546872,4.49999996 L11.9804687,4.49999996 L11.9804687,12 L19.4804688,12 L19.4804688,18.875 Z" id="path-1"></path>
    </defs>
    <g id="delicious" stroke="none" stroke-width="1" fill="none" fill-rule="evenodd">
        <mask id="mask-2" fill="white">
            <use xlink:href="#path-1"></use>
        </mask>
        <g fill-rule="nonzero"></g>
        <g id="🎨-color" mask="url(#mask-2)" fill="#000000">
            <rect id="🎨-Color" x="0" y="0" width="24" height="24"></rect>
        </g>
    </g>
</svg>