<?xml version="1.0" encoding="UTF-8"?>
<svg width="24px" height="24px" viewBox="0 0 24 24" version="1.1" xmlns="http://www.w3.org/2000/svg" xmlns:xlink="http://www.w3.org/1999/xlink">
    <!-- Generator: Sketch 52.5 (67469) - http://www.bohemiancoding.com/sketch -->
    <title>democrat</title>
    <desc>Created with Sketch.</desc>
    <defs>
        <path d="M21.915625,12.028125 L21.303125,11.109375 C20.421875,9.78749999 18.95,8.99999998 17.3625,8.99999998 L9.99999999,8.99999998 L7.46249998,6.46249997 C8.09062498,5.83437497 8.16874998,4.86562496 7.69687498,4.15312496 C7.59062498,3.99062496 7.35937498,3.96874996 7.22187498,4.10624996 L5.91562497,5.41249997 L4.57499996,4.07499996 C4.46249996,3.96249996 4.27499996,3.98124996 4.18749996,4.11249996 C3.80312496,4.69374996 3.86562496,5.48749997 4.37812496,5.99999997 C4.48124996,6.10312497 4.60624996,6.16562497 4.73124996,6.23437497 C4.66249996,6.28749997 4.58437496,6.33124997 4.53124996,6.40312497 L2.19999995,9.50624999 C1.97187495,9.80937499 1.93749995,10.215625 2.10624995,10.553125 L2.55312495,11.446875 C2.72187495,11.784375 3.06874996,12 3.44687496,12 L4.41562496,12 C4.68124996,12 4.93437496,11.89375 5.12187497,11.70625 L6.31249997,10.625 L7.99999998,14 L19,14 L19,11.56875 C19.50625,11.95 19.571875,12.11875 20.253125,13.140625 C20.40625,13.371875 20.715625,13.43125 20.946875,13.278125 L21.778125,12.725 C22.0062501,12.56875 22.0687501,12.259375 21.915625,12.028125 Z M11.25625,11.603125 L10.740625,12.10625 L10.8625,12.815625 C10.884375,12.94375 10.75,13.040625 10.6375,12.98125 L9.99999999,12.646875 L9.36249999,12.98125 C9.24999999,13.040625 9.11562499,12.94375 9.13749999,12.815625 L9.25937499,12.10625 L8.74374998,11.603125 C8.64999998,11.5125 8.70312498,11.35625 8.83124998,11.3375 L9.54374999,11.234375 L9.86249999,10.5875 C9.91874999,10.471875 10.084375,10.471875 10.14375,10.5875 L10.4625,11.234375 L11.175,11.3375 C11.3,11.35625 11.35,11.5125 11.25625,11.603125 Z M14.75625,11.603125 L14.240625,12.10625 L14.3625,12.815625 C14.384375,12.94375 14.25,13.040625 14.1375,12.98125 L13.5,12.646875 L12.8625,12.98125 C12.75,13.040625 12.615625,12.94375 12.6375,12.815625 L12.759375,12.10625 L12.24375,11.603125 C12.15,11.5125 12.203125,11.35625 12.33125,11.3375 L13.04375,11.234375 L13.3625,10.5875 C13.41875,10.471875 13.584375,10.471875 13.64375,10.5875 L13.9625,11.234375 L14.675,11.3375 C14.8,11.35625 14.85,11.5125 14.75625,11.603125 Z M18.25625,11.603125 L17.740625,12.10625 L17.8625,12.815625 C17.884375,12.94375 17.75,13.040625 17.6375,12.98125 L17,12.646875 L16.3625,12.98125 C16.25,13.040625 16.115625,12.94375 16.1375,12.815625 L16.259375,12.10625 L15.74375,11.603125 C15.65,11.5125 15.703125,11.35625 15.83125,11.3375 L16.54375,11.234375 L16.8625,10.5875 C16.91875,10.471875 17.084375,10.471875 17.14375,10.5875 L17.4625,11.234375 L18.175,11.3375 C18.3,11.35625 18.35,11.5125 18.25625,11.603125 Z M7.99999998,19.5 C7.99999998,19.775 8.22499998,20 8.49999998,20 L10.5,20 C10.775,20 11,19.775 11,19.5 L11,17 L16,17 L16,19.5 C16,19.775 16.225,20 16.5,20 L18.5,20 C18.775,20 19,19.775 19,19.5 L19,15 L7.99999998,15 L7.99999998,19.5 Z" id="path-1"></path>
    </defs>
    <g id="democrat" stroke="none" stroke-width="1" fill="none" fill-rule="evenodd">
        <mask id="mask-2" fill="white">
            <use xlink:href="#path-1"></use>
        </mask>
        <g fill-rule="nonzero"></g>
        <g id="🎨-color" mask="url(#mask-2)" fill="#000000">
            <rect id="🎨-Color" x="0" y="0" width="24" height="24"></rect>
        </g>
    </g>
</svg>