<?xml version="1.0" encoding="UTF-8"?>
<svg width="24px" height="24px" viewBox="0 0 24 24" version="1.1" xmlns="http://www.w3.org/2000/svg" xmlns:xlink="http://www.w3.org/1999/xlink">
    <!-- Generator: Sketch 52.5 (67469) - http://www.bohemiancoding.com/sketch -->
    <title>deploydog</title>
    <desc>Created with Sketch.</desc>
    <defs>
        <path d="M16.9296875,7.31249998 L18.9492188,7.31249998 L18.9492188,16.671875 L16.9296875,16.671875 L16.9296875,15.8632813 C16.15625,16.8320313 14.8671875,16.8046875 14.046875,16.4375 C13.0234375,15.9804688 12.3164063,14.9492188 12.3164063,13.6328125 C12.3164063,12.46875 12.8945313,11.3710937 14.0078125,10.8671875 C14.796875,10.5117187 16.0664063,10.453125 16.9296875,11.3710937 L16.9296875,7.31249998 Z M14.4023438,13.6328125 C14.4023438,14.34375 14.9335938,14.9414063 15.6992188,14.9414063 C16.4726563,14.9414063 16.9960938,14.3007813 16.9960938,13.65625 C16.9960938,12.9882813 16.4609375,12.359375 15.6992188,12.359375 C14.9335938,12.359375 14.4023438,13 14.4023438,13.6328125 Z M9.36328124,7.31249998 L11.3828125,7.31249998 L11.3828125,16.671875 L9.36328124,16.671875 L9.36328124,15.8632813 C8.58984373,16.8320313 7.30078123,16.8046875 6.48046872,16.4375 C5.45703122,15.9804688 4.74999996,14.9492188 4.74999996,13.6328125 C4.74999996,12.46875 5.32812497,11.3710937 6.44140622,10.8671875 C7.23046873,10.5117187 8.49999998,10.453125 9.36328124,11.3710937 L9.36328124,7.31249998 Z M6.83593747,13.6328125 C6.83593747,14.34375 7.36718748,14.9414063 8.13281248,14.9414063 C8.90624998,14.9414063 9.42968749,14.3007813 9.42968749,13.65625 C9.42968749,12.9882813 8.89453123,12.359375 8.13281248,12.359375 C7.36328123,12.359375 6.83593747,13 6.83593747,13.6328125 Z M19.5,5.74999997 C20.1835938,5.74999997 20.75,6.31249997 20.75,6.99999997 L20.75,17 C20.75,17.6835938 20.1875,18.25 19.5,18.25 L4.49999996,18.25 C3.81640621,18.25 3.24999996,17.6875 3.24999996,17 L3.24999996,6.99999997 C3.24999996,6.31640622 3.81249996,5.74999997 4.49999996,5.74999997 L19.5,5.74999997 Z M19.5,4.49999996 L4.49999996,4.49999996 C3.12499996,4.49999996 1.99999995,5.62499997 1.99999995,6.99999997 L1.99999995,17 C1.99999995,18.375 3.12499996,19.5 4.49999996,19.5 L19.5,19.5 C20.875,19.5 22.0000001,18.375 22.0000001,17 L22.0000001,6.99999997 C22.0000001,5.62499997 20.875,4.49999996 19.5,4.49999996 Z" id="path-1"></path>
    </defs>
    <g id="deploydog" stroke="none" stroke-width="1" fill="none" fill-rule="evenodd">
        <mask id="mask-2" fill="white">
            <use xlink:href="#path-1"></use>
        </mask>
        <g fill-rule="nonzero"></g>
        <g id="🎨-color" mask="url(#mask-2)" fill="#000000">
            <rect id="🎨-Color" x="0" y="0" width="24" height="24"></rect>
        </g>
    </g>
</svg>