<?xml version="1.0" encoding="UTF-8"?>
<svg width="24px" height="24px" viewBox="0 0 24 24" version="1.1" xmlns="http://www.w3.org/2000/svg" xmlns:xlink="http://www.w3.org/1999/xlink">
    <!-- Generator: Sketch 52.5 (67469) - http://www.bohemiancoding.com/sketch -->
    <title>deskpro</title>
    <desc>Created with Sketch.</desc>
    <defs>
        <path d="M10.6900585,21.9610137 L11.9025341,20.4639377 C12.3820663,20.4561404 12.9005848,20.4093568 13.3255361,20.2066277 C14.8421053,19.4814815 14.8226121,17.7933723 14.8187135,17.7192983 C14.8148148,17.5243665 14.7875244,17.5477583 13.6920078,16.2612086 L16.7758285,16.2612086 C16.7680312,18.214425 16.4912281,18.9317739 16.3781677,19.2124757 C16.0116959,20.1364523 14.6666667,21.6608188 12.6666667,21.9181287 C12.3274854,21.9610137 11.3879142,21.9649123 10.6900585,21.9610137 Z M18.502924,15.423002 C20.0077973,15.423002 20.7836258,14.8927875 21.3762184,14.2183236 L14.5341131,14.2066277 L13.8557505,15.4269006 L18.502924,15.423002 Z M16.8031189,6.69395709 L16.8031189,13.2553606 L13.9376218,13.2553606 L12.662768,15.4191033 L12.4093567,15.4191033 C10.3703704,15.4191033 10.1442495,13.2163743 10.1364522,13.122807 C10.0896686,12.6081871 9.30604287,12.6705653 9.3528265,13.1929825 C9.40740739,13.8089669 9.69590642,14.7524367 10.3820663,15.4191033 L6.83430797,15.4191033 C5.84015591,15.4191033 2.51461984,14.374269 2.66276798,10.9746589 L2.66276798,2.65886935 C2.66276798,2.03508767 3.04093563,2.01169586 3.24756331,2.00389859 L6.44444442,2.00389859 C6.45224169,2.00389859 6.45614032,2.00779722 6.46393759,2.00779722 C6.63157892,1.99220268 8.41715398,1.92592588 8.41715398,3.71150093 C8.41715398,4.23001945 9.20467835,4.23391809 9.20467835,3.71150093 C9.20467835,3.00194927 8.9902534,2.43274849 8.58869394,2.00779722 L11.871345,2.00779722 C16.1091618,1.99220268 16.8031189,5.10331381 16.8031189,6.69395709 Z M11.6374269,8.87719297 L14.1325536,10.0194932 C14.6510721,8.24561402 12.4873294,7.22417152 11.6374269,8.87719297 Z" id="path-1"></path>
    </defs>
    <g id="deskpro" stroke="none" stroke-width="1" fill="none" fill-rule="evenodd">
        <mask id="mask-2" fill="white">
            <use xlink:href="#path-1"></use>
        </mask>
        <g fill-rule="nonzero"></g>
        <g id="🎨-color" mask="url(#mask-2)" fill="#000000">
            <rect id="🎨-Color" x="0" y="0" width="24" height="24"></rect>
        </g>
    </g>
</svg>