<?xml version="1.0" encoding="UTF-8"?>
<svg width="24px" height="24px" viewBox="0 0 24 24" version="1.1" xmlns="http://www.w3.org/2000/svg" xmlns:xlink="http://www.w3.org/1999/xlink">
    <!-- Generator: Sketch 52.5 (67469) - http://www.bohemiancoding.com/sketch -->
    <title>desktop</title>
    <desc>Created with Sketch.</desc>
    <defs>
        <path d="M20.3333334,3.11111107 L3.66666662,3.11111107 C2.74652773,3.11111107 1.99999995,3.85763885 1.99999995,4.77777774 L1.99999995,15.8888889 C1.99999995,16.8090278 2.74652773,17.5555556 3.66666662,17.5555556 L10.3333333,17.5555556 L9.77777777,19.2222223 L7.27777775,19.2222223 C6.8159722,19.2222223 6.44444442,19.59375 6.44444442,20.0555556 C6.44444442,20.5173612 6.8159722,20.8888889 7.27777775,20.8888889 L16.7222222,20.8888889 C17.1840278,20.8888889 17.5555556,20.5173612 17.5555556,20.0555556 C17.5555556,19.59375 17.1840278,19.2222223 16.7222222,19.2222223 L14.2222222,19.2222223 L13.6666667,17.5555556 L20.3333334,17.5555556 C21.2534723,17.5555556 22.0000001,16.8090278 22.0000001,15.8888889 L22.0000001,4.77777774 C22.0000001,3.85763885 21.2534723,3.11111107 20.3333334,3.11111107 Z M19.7777778,15.3333334 L4.22222218,15.3333334 L4.22222218,5.3333333 L19.7777778,5.3333333 L19.7777778,15.3333334 Z" id="path-1"></path>
    </defs>
    <g id="desktop" stroke="none" stroke-width="1" fill="none" fill-rule="evenodd">
        <mask id="mask-2" fill="white">
            <use xlink:href="#path-1"></use>
        </mask>
        <g fill-rule="nonzero"></g>
        <g id="🎨-color" mask="url(#mask-2)" fill="#000000">
            <rect id="🎨-Color" x="0" y="0" width="24" height="24"></rect>
        </g>
    </g>
</svg>