<?xml version="1.0" encoding="UTF-8"?>
<svg width="24px" height="24px" viewBox="0 0 24 24" version="1.1" xmlns="http://www.w3.org/2000/svg" xmlns:xlink="http://www.w3.org/1999/xlink">
    <!-- Generator: Sketch 52.5 (67469) - http://www.bohemiancoding.com/sketch -->
    <title>dharmachakra</title>
    <desc>Created with Sketch.</desc>
    <defs>
        <path d="M21.2982457,10.7937622 L20.6269006,10.8358674 C20.4214425,9.29629628 19.8163743,7.88693955 18.9169591,6.70955163 L19.4218324,6.26393759 C19.691618,6.02573096 19.7044835,5.60935669 19.4502924,5.35516566 L18.6253412,4.53021439 C18.3707603,4.27563349 17.954386,4.28888885 17.7165692,4.55867443 L17.2709552,5.06315786 C16.0935673,4.16413251 14.6842105,3.55906429 13.1450292,3.35321633 L13.1867446,2.68226116 C13.2093567,2.32319683 12.9239766,2.01949313 12.5641326,2.01949313 L11.3968811,2.01949313 C11.037037,2.01949313 10.7520468,2.32319683 10.774269,2.68226116 L10.8163743,3.35360619 C9.27680311,3.55906429 7.86744637,4.16413251 6.69044832,5.06354772 L6.24483428,4.55867443 C6.00662765,4.28888885 5.59025338,4.27602335 5.33606234,4.53021439 L4.51072121,5.35516566 C4.25614031,5.60974656 4.26939567,6.02612083 4.53918125,6.26393759 L5.04405455,6.70955163 C4.1450292,7.88693955 3.53996097,9.29629628 3.33411302,10.8358674 L2.66276798,10.7937622 C2.30370366,10.7711501 1.99999995,11.0565302 1.99999995,11.4163743 L1.99999995,12.5836257 C1.99999995,12.9434698 2.30370366,13.22846 2.66276798,13.2062378 L3.33411302,13.1641326 C3.53957111,14.7037037 4.14463934,16.1130604 5.04405455,17.2900585 L4.53918125,17.7356725 C4.26939567,17.9738792 4.25653018,18.3902534 4.51072121,18.6444445 L5.33606234,19.4697856 C5.59064324,19.7243665 6.00701751,19.7111111 6.24483428,19.4413256 L6.69044832,18.9364523 C7.86783624,19.8354776 9.27719297,20.4405459 10.8167641,20.6463938 L10.774269,21.3177388 C10.7516569,21.6768032 11.037037,21.9805069 11.3968811,21.9805069 L12.5641326,21.9805069 C12.9239766,21.9805069 13.2089669,21.6768032 13.1867446,21.3177388 L13.1446394,20.6463938 C14.6842105,20.4409357 16.0935673,19.8358675 17.2709552,18.9364523 L17.7165692,19.4413256 C17.9547759,19.7111111 18.3711501,19.7239766 18.6253412,19.4697856 L19.4506823,18.6444445 C19.7052632,18.3898636 19.6920078,17.9734893 19.4222223,17.7356725 L18.917349,17.2900585 C19.8163743,16.1126706 20.4214425,14.7033139 20.6272905,13.1641326 L21.2986355,13.2062378 C21.6576999,13.2288499 21.9614036,12.9434698 21.9614036,12.5836257 L21.9614036,11.4163743 C21.9610137,11.0565302 21.65731,10.77154 21.2982457,10.7937622 Z M12.9879142,5.86393759 C13.9551657,6.02261206 14.8448343,6.3964912 15.6089669,6.94697853 L13.9473684,8.82962961 C13.6070176,8.61754384 13.2331384,8.45769979 12.831579,8.36374267 L12.9879142,5.86393759 Z M10.9730994,5.86393759 L11.1294347,8.36374267 C10.7282651,8.45769979 10.3539961,8.61793371 10.0136452,8.82962961 L8.35204677,6.94697853 C9.11617932,6.3964912 10.0058479,6.02261206 10.9730994,5.86393759 Z M6.92748535,8.37192981 L8.8105263,10.0331384 C8.59844053,10.3734893 8.43859647,10.7477583 8.34424949,11.1489279 L5.84444441,10.9925926 C6.00311888,10.0253411 6.37699802,9.13606236 6.92748535,8.37192981 Z M5.84444441,13.0074074 L8.34424949,12.8510721 C8.43820661,13.2522417 8.59844053,13.6265107 8.81013644,13.9668616 L6.92748535,15.6284601 C6.37699802,14.8643275 6.00311888,13.9746589 5.84444441,13.0074074 Z M10.9730994,18.1360624 C10.0058479,17.9773879 9.11617932,17.6035088 8.35204677,17.0530215 L10.0132554,15.1699805 C10.3536062,15.3820663 10.7278752,15.5419103 11.1290448,15.6362573 L10.9730994,18.1360624 Z M11.9805068,13.2475634 C11.2916179,13.2475634 10.7329435,12.6888889 10.7329435,12 C10.7329435,11.3111111 11.2916179,10.7524366 11.9805068,10.7524366 C12.6693957,10.7524366 13.2280702,11.3111111 13.2280702,12 C13.2280702,12.6888889 12.6693957,13.2475634 11.9805068,13.2475634 Z M12.9879142,18.1360624 L12.831579,15.6362573 C13.2327485,15.5423002 13.6070176,15.3820663 13.9473684,15.1699805 L15.608577,17.0530215 C14.8444445,17.6035088 13.9551657,17.9773879 12.9879142,18.1360624 Z M17.0335283,15.6280702 L15.1508772,13.9664717 C15.362963,13.6261209 15.522807,13.2522417 15.6167642,12.8506823 L18.1165692,13.0070175 C17.9578948,13.9746589 17.5840156,14.8643275 17.0335283,15.6280702 Z M15.6167642,11.1489279 C15.522807,10.7477583 15.3625731,10.3734893 15.1504873,10.0331384 L17.0335283,8.37192981 C17.5840156,9.13606236 17.9578948,10.025731 18.1165692,10.9929825 L15.6167642,11.1489279 Z" id="path-1"></path>
    </defs>
    <g id="dharmachakra" stroke="none" stroke-width="1" fill="none" fill-rule="evenodd">
        <mask id="mask-2" fill="white">
            <use xlink:href="#path-1"></use>
        </mask>
        <g fill-rule="nonzero"></g>
        <g id="🎨-color" mask="url(#mask-2)" fill="#000000">
            <rect id="🎨-Color" x="0" y="0" width="24" height="24"></rect>
        </g>
    </g>
</svg>