<?xml version="1.0" encoding="UTF-8"?>
<svg width="24px" height="24px" viewBox="0 0 24 24" version="1.1" xmlns="http://www.w3.org/2000/svg" xmlns:xlink="http://www.w3.org/1999/xlink">
    <!-- Generator: Sketch 52.5 (67469) - http://www.bohemiancoding.com/sketch -->
    <title>diagnoses</title>
    <desc>Created with Sketch.</desc>
    <defs>
        <path d="M17.5,12 C17.775,12 18,11.775 18,11.5 C18,11.225 17.775,11 17.5,11 C17.225,11 17,11.225 17,11.5 C17,11.775 17.225,12 17.5,12 Z M12,9.49999999 C13.515625,9.49999999 14.75,8.26562498 14.75,6.74999997 C14.75,5.23437497 13.515625,3.99999996 12,3.99999996 C10.484375,3.99999996 9.24999999,5.23437497 9.24999999,6.74999997 C9.24999999,8.26562498 10.484375,9.49999999 12,9.49999999 Z M3.86874996,15.375 C4.18749996,15.853125 4.78437496,15.93125 5.20937497,15.68125 C5.71562497,15.38125 6.96562497,14.690625 8.49999998,14.1625 L8.49999998,17 L15.5,17 L15.5,14.165625 C17.034375,14.690625 18.284375,15.384375 18.790625,15.684375 C19.215625,15.934375 19.8125,15.85 20.13125,15.378125 L20.6875,14.54375 C20.9625,14.13125 20.925,13.4625 20.375,13.134375 C20.003125,12.9125 19.446875,12.603125 18.778125,12.278125 C17.9,13.71875 15.671875,12.834375 16.0375,11.18125 C14.790625,10.7875 13.409375,10.5 12,10.5 C10.21875,10.5 8.47187498,10.953125 6.99999997,11.50625 C6.99374997,12.7625 5.51249997,13.484375 4.52499996,12.63125 C4.17499996,12.81875 3.85937496,12.99375 3.62812496,13.13125 C3.07812496,13.459375 3.04062496,14.125 3.31562496,14.540625 L3.86874996,15.375 Z M13.5,14.75 C13.915625,14.75 14.25,15.084375 14.25,15.5 C14.25,15.915625 13.915625,16.25 13.5,16.25 C13.084375,16.25 12.75,15.915625 12.75,15.5 C12.75,15.084375 13.084375,14.75 13.5,14.75 Z M10.5,11.75 C10.915625,11.75 11.25,12.084375 11.25,12.5 C11.25,12.915625 10.915625,13.25 10.5,13.25 C10.084375,13.25 9.74999999,12.915625 9.74999999,12.5 C9.74999999,12.084375 10.084375,11.75 10.5,11.75 Z M5.49999997,12 C5.77499997,12 5.99999997,11.775 5.99999997,11.5 C5.99999997,11.225 5.77499997,11 5.49999997,11 C5.22499997,11 4.99999996,11.225 4.99999996,11.5 C4.99999996,11.775 5.22499997,12 5.49999997,12 Z M21.5,18 L2.49999995,18 C2.22499995,18 1.99999995,18.225 1.99999995,18.5 L1.99999995,19.5 C1.99999995,19.775 2.22499995,20 2.49999995,20 L21.5,20 C21.775,20 22.0000001,19.775 22.0000001,19.5 L22.0000001,18.5 C22.0000001,18.225 21.775,18 21.5,18 Z" id="path-1"></path>
    </defs>
    <g id="diagnoses" stroke="none" stroke-width="1" fill="none" fill-rule="evenodd">
        <mask id="mask-2" fill="white">
            <use xlink:href="#path-1"></use>
        </mask>
        <g fill-rule="nonzero"></g>
        <g id="🎨-color" mask="url(#mask-2)" fill="#000000">
            <rect id="🎨-Color" x="0" y="0" width="24" height="24"></rect>
        </g>
    </g>
</svg>