<?xml version="1.0" encoding="UTF-8"?>
<svg width="24px" height="24px" viewBox="0 0 24 24" version="1.1" xmlns="http://www.w3.org/2000/svg" xmlns:xlink="http://www.w3.org/1999/xlink">
    <!-- Generator: Sketch 52.5 (67469) - http://www.bohemiancoding.com/sketch -->
    <title>dice-d20</title>
    <desc>Created with Sketch.</desc>
    <defs>
        <path d="M6.78557502,10.3844055 L2.67056526,16.4619883 C2.55048728,16.6569201 2.67446389,16.9103314 2.90175434,16.9352827 L11.0210526,17.7957115 L6.78557502,10.3844055 Z M2.91267052,14.2974659 L5.84795319,9.52748537 L2.86003894,7.73489277 C2.75594537,7.6725146 2.62378163,7.7473684 2.62378163,7.86861596 L2.62378163,14.2159844 C2.62378163,14.3730994 2.83001945,14.431579 2.91267052,14.2974659 Z M3.33528261,18.5146199 L10.91423,21.9321638 C11.1208577,22.0276804 11.3567251,21.8764133 11.3567251,21.6491229 L11.3567251,19.0888889 L3.42105259,18.2194932 C3.24756331,18.2 3.1781676,18.4374269 3.33528261,18.5146199 Z M6.50175436,8.46471733 L9.61793371,2.89200775 C9.78713449,2.61676409 9.4779727,2.29746584 9.1976608,2.45769976 L3.31812861,6.30214422 C3.22183231,6.36530212 3.22495122,6.50721245 3.32319684,6.56647171 L6.50175436,8.46471733 Z M11.9805068,8.86159842 L16.2382066,8.86159842 L12.5118908,2.29707597 C12.3898635,2.09902529 12.1851852,1.99999995 11.9805068,1.99999995 C11.7758285,1.99999995 11.5711501,2.09902529 11.4491228,2.29707597 L7.722807,8.86159842 L11.9805068,8.86159842 Z M21.1009747,7.73489277 L18.1130605,9.52787523 L21.0483431,14.2978558 C21.1306043,14.4319688 21.337232,14.3734893 21.337232,14.2159844 L21.337232,7.86861596 C21.337232,7.7473684 21.2050683,7.6725146 21.1009747,7.73489277 Z M17.4592593,8.46471733 L20.6378168,6.56608184 C20.7364523,6.50682258 20.7391813,6.36491225 20.642885,6.30175436 L14.7633528,2.45769976 C14.4830409,2.29746584 14.1738792,2.61676409 14.3430799,2.89200775 L17.4592593,8.46471733 Z M20.5399611,18.2194932 L12.6042885,19.0884991 L12.6042885,21.648733 C12.6042885,21.8764133 12.8401559,22.0272905 13.0467836,21.9317739 L20.625731,18.5142301 C20.782846,18.4374269 20.7134503,18.2 20.5399611,18.2194932 Z M17.1754386,10.3844055 L12.9403509,17.7957115 L21.0596492,16.9352827 C21.2869396,16.9099415 21.4109162,16.6569201 21.2908383,16.4619883 L17.1754386,10.3844055 Z M11.9805068,10.1091618 L8.06510719,10.1091618 L11.9805068,16.9610137 L15.8959065,10.1091618 L11.9805068,10.1091618 Z" id="path-1"></path>
    </defs>
    <g id="dice-d20" stroke="none" stroke-width="1" fill="none" fill-rule="evenodd">
        <mask id="mask-2" fill="white">
            <use xlink:href="#path-1"></use>
        </mask>
        <g fill-rule="nonzero"></g>
        <g id="🎨-color" mask="url(#mask-2)" fill="#000000">
            <rect id="🎨-Color" x="0" y="0" width="24" height="24"></rect>
        </g>
    </g>
</svg>