<?xml version="1.0" encoding="UTF-8"?>
<svg width="24px" height="24px" viewBox="0 0 24 24" version="1.1" xmlns="http://www.w3.org/2000/svg" xmlns:xlink="http://www.w3.org/1999/xlink">
    <!-- Generator: Sketch 52.5 (67469) - http://www.bohemiancoding.com/sketch -->
    <title>dice-d6</title>
    <desc>Created with Sketch.</desc>
    <defs>
        <path d="M19.7116732,6.31712059 L13.2533074,2.39182875 C12.4785992,1.92101162 11.5210117,1.92101162 10.7463035,2.39182875 L4.28832681,6.31712059 C4.08132292,6.44280153 4.08249023,6.755642 4.29066144,6.87976651 L12,11.4766537 L19.7097277,6.87976651 C19.9178989,6.755642 19.9190662,6.44319063 19.7116732,6.31712059 Z M20.2501946,8.05369648 L12.6225681,12.6015564 L12.6225681,21.3105059 C12.6225681,21.8116732 13.1435798,22.1241246 13.5583658,21.8719845 L19.4789884,18.2735409 C20.2447471,17.8081712 20.7159534,16.9529183 20.7159534,16.0284047 L20.7159534,8.33579765 C20.7159534,8.0863813 20.4575876,7.92996107 20.2501946,8.05369648 Z M3.28404665,8.33579765 L3.28404665,16.0284047 C3.28404665,16.9533074 3.75525288,17.8081712 4.52101164,18.2735409 L10.4416342,21.8715954 C10.8568093,22.1237355 11.3774319,21.8116732 11.3774319,21.3101168 L11.3774319,12.6015564 L3.74980541,8.05369648 C3.54241241,7.92996107 3.28404665,8.0863813 3.28404665,8.33579765 Z" id="path-1"></path>
    </defs>
    <g id="dice-d6" stroke="none" stroke-width="1" fill="none" fill-rule="evenodd">
        <mask id="mask-2" fill="white">
            <use xlink:href="#path-1"></use>
        </mask>
        <g fill-rule="nonzero"></g>
        <g id="🎨-color" mask="url(#mask-2)" fill="#000000">
            <rect id="🎨-Color" x="0" y="0" width="24" height="24"></rect>
        </g>
    </g>
</svg>