<?xml version="1.0" encoding="UTF-8"?>
<svg width="24px" height="24px" viewBox="0 0 24 24" version="1.1" xmlns="http://www.w3.org/2000/svg" xmlns:xlink="http://www.w3.org/1999/xlink">
    <!-- Generator: Sketch 52.5 (67469) - http://www.bohemiancoding.com/sketch -->
    <title>dice-five</title>
    <desc>Created with Sketch.</desc>
    <defs>
        <path d="M18.25,3.24999996 L5.74999997,3.24999996 C4.36914059,3.24999996 3.24999996,4.36914059 3.24999996,5.74999997 L3.24999996,18.25 C3.24999996,19.6308594 4.36914059,20.75 5.74999997,20.75 L18.25,20.75 C19.6308594,20.75 20.75,19.6308594 20.75,18.25 L20.75,5.74999997 C20.75,4.36914059 19.6308594,3.24999996 18.25,3.24999996 Z M8.24999998,17 C7.5597656,17 6.99999997,16.4402344 6.99999997,15.75 C6.99999997,15.0597656 7.5597656,14.5 8.24999998,14.5 C8.94023436,14.5 9.49999999,15.0597656 9.49999999,15.75 C9.49999999,16.4402344 8.94023436,17 8.24999998,17 Z M8.24999998,9.49999999 C7.5597656,9.49999999 6.99999997,8.94023436 6.99999997,8.24999998 C6.99999997,7.5597656 7.5597656,6.99999997 8.24999998,6.99999997 C8.94023436,6.99999997 9.49999999,7.5597656 9.49999999,8.24999998 C9.49999999,8.94023436 8.94023436,9.49999999 8.24999998,9.49999999 Z M12,13.25 C11.3097656,13.25 10.75,12.6902344 10.75,12 C10.75,11.3097656 11.3097656,10.75 12,10.75 C12.6902344,10.75 13.25,11.3097656 13.25,12 C13.25,12.6902344 12.6902344,13.25 12,13.25 Z M15.75,17 C15.0597656,17 14.5,16.4402344 14.5,15.75 C14.5,15.0597656 15.0597656,14.5 15.75,14.5 C16.4402344,14.5 17,15.0597656 17,15.75 C17,16.4402344 16.4402344,17 15.75,17 Z M15.75,9.49999999 C15.0597656,9.49999999 14.5,8.94023436 14.5,8.24999998 C14.5,7.5597656 15.0597656,6.99999997 15.75,6.99999997 C16.4402344,6.99999997 17,7.5597656 17,8.24999998 C17,8.94023436 16.4402344,9.49999999 15.75,9.49999999 Z" id="path-1"></path>
    </defs>
    <g id="dice-five" stroke="none" stroke-width="1" fill="none" fill-rule="evenodd">
        <mask id="mask-2" fill="white">
            <use xlink:href="#path-1"></use>
        </mask>
        <g fill-rule="nonzero"></g>
        <g id="🎨-color" mask="url(#mask-2)" fill="#000000">
            <rect id="🎨-Color" x="0" y="0" width="24" height="24"></rect>
        </g>
    </g>
</svg>