<?xml version="1.0" encoding="UTF-8"?>
<svg width="24px" height="24px" viewBox="0 0 24 24" version="1.1" xmlns="http://www.w3.org/2000/svg" xmlns:xlink="http://www.w3.org/1999/xlink">
    <!-- Generator: Sketch 52.5 (67469) - http://www.bohemiancoding.com/sketch -->
    <title>dice</title>
    <desc>Created with Sketch.</desc>
    <defs>
        <path d="M20.5,9.99999999 L16.789375,9.99999999 C17.1859375,10.9246875 17.011875,12.0375 16.258125,12.79125 L12,17.049375 L12,18.5 C12,19.3284375 12.6715625,20 13.5,20 L20.5,20 C21.3284375,20 22.0000001,19.3284375 22.0000001,18.5 L22.0000001,11.5 C22.0000001,10.6715625 21.3284375,9.99999999 20.5,9.99999999 Z M17,15.75 C16.5859375,15.75 16.25,15.4140625 16.25,15 C16.25,14.585625 16.5859375,14.25 17,14.25 C17.4140625,14.25 17.75,14.585625 17.75,15 C17.75,15.4140625 17.4140625,15.75 17,15.75 Z M15.5509375,9.91562499 L10.084375,4.44906246 C9.48562499,3.85031246 8.51468748,3.85031246 7.91593748,4.44906246 L2.44906245,9.91562499 C1.85031245,10.514375 1.85031245,11.4853125 2.44906245,12.0840625 L7.91562498,17.5509375 C8.51437498,18.1496875 9.48531249,18.1496875 10.0840625,17.5509375 L15.5509375,12.084375 C16.1496875,11.4853125 16.1496875,10.514375 15.5509375,9.91562499 Z M4.99999996,11.75 C4.58593746,11.75 4.24999996,11.4140625 4.24999996,11 C4.24999996,10.585625 4.58593746,10.25 4.99999996,10.25 C5.41406247,10.25 5.74999997,10.585625 5.74999997,11 C5.74999997,11.4140625 5.41406247,11.75 4.99999996,11.75 Z M8.99999998,15.75 C8.58593748,15.75 8.24999998,15.4140625 8.24999998,15 C8.24999998,14.585625 8.58593748,14.25 8.99999998,14.25 C9.41406249,14.25 9.74999999,14.585625 9.74999999,15 C9.74999999,15.4140625 9.41406249,15.75 8.99999998,15.75 Z M8.99999998,11.75 C8.58593748,11.75 8.24999998,11.4140625 8.24999998,11 C8.24999998,10.585625 8.58593748,10.25 8.99999998,10.25 C9.41406249,10.25 9.74999999,10.585625 9.74999999,11 C9.74999999,11.4140625 9.41406249,11.75 8.99999998,11.75 Z M8.99999998,7.74999998 C8.58593748,7.74999998 8.24999998,7.41406248 8.24999998,6.99999997 C8.24999998,6.58562497 8.58593748,6.24999997 8.99999998,6.24999997 C9.41406249,6.24999997 9.74999999,6.58562497 9.74999999,6.99999997 C9.74999999,7.41406248 9.41406249,7.74999998 8.99999998,7.74999998 Z M13,11.75 C12.5859375,11.75 12.25,11.4140625 12.25,11 C12.25,10.585625 12.5859375,10.25 13,10.25 C13.4140625,10.25 13.75,10.585625 13.75,11 C13.75,11.4140625 13.4140625,11.75 13,11.75 Z" id="path-1"></path>
    </defs>
    <g id="dice" stroke="none" stroke-width="1" fill="none" fill-rule="evenodd">
        <mask id="mask-2" fill="white">
            <use xlink:href="#path-1"></use>
        </mask>
        <g fill-rule="nonzero"></g>
        <g id="🎨-color" mask="url(#mask-2)" fill="#000000">
            <rect id="🎨-Color" x="0" y="0" width="24" height="24"></rect>
        </g>
    </g>
</svg>