<?xml version="1.0" encoding="UTF-8"?>
<svg width="24px" height="24px" viewBox="0 0 24 24" version="1.1" xmlns="http://www.w3.org/2000/svg" xmlns:xlink="http://www.w3.org/1999/xlink">
    <!-- Generator: Sketch 52.5 (67469) - http://www.bohemiancoding.com/sketch -->
    <title>digg</title>
    <desc>Created with Sketch.</desc>
    <defs>
        <path d="M5.19140622,8.73046873 L1.99999995,8.73046873 L1.99999995,15.5429688 L7.18359373,15.5429688 L7.18359373,5.74999997 L5.19140622,5.74999997 L5.19140622,8.73046873 Z M5.19140622,13.9414063 L3.98828121,13.9414063 L3.98828121,10.3359375 L5.19140622,10.3359375 L5.19140622,13.9414063 Z M16.8007813,8.73046873 L16.8007813,15.5429688 L19.9960938,15.5429688 L19.9960938,16.65625 L16.8007813,16.65625 L16.8007813,18.25 L22.0000001,18.25 L22.0000001,8.73046873 L16.8007813,8.73046873 Z M19.9960938,13.9414063 L18.7929688,13.9414063 L18.7929688,10.3359375 L19.9960938,10.3359375 L19.9960938,13.9414063 Z M10.7929687,15.5429688 L14,15.5429688 L14,16.65625 L10.7929687,16.65625 L10.7929687,18.25 L16,18.25 L16,8.73046873 L10.7929687,8.73046873 L10.7929687,15.5429688 Z M12.7929688,10.3359375 L13.9960938,10.3359375 L13.9960938,13.9414063 L12.7929688,13.9414063 L12.7929688,10.3359375 Z M7.98828123,5.74999997 L9.99218749,5.74999997 L9.99218749,7.74218748 L7.98828123,7.74218748 L7.98828123,5.74999997 Z M7.98828123,8.73046873 L9.99218749,8.73046873 L9.99218749,15.5429688 L7.98828123,15.5429688 L7.98828123,8.73046873 Z" id="path-1"></path>
    </defs>
    <g id="digg" stroke="none" stroke-width="1" fill="none" fill-rule="evenodd">
        <mask id="mask-2" fill="white">
            <use xlink:href="#path-1"></use>
        </mask>
        <g fill-rule="nonzero"></g>
        <g id="🎨-color" mask="url(#mask-2)" fill="#000000">
            <rect id="🎨-Color" x="0" y="0" width="24" height="24"></rect>
        </g>
    </g>
</svg>