<?xml version="1.0" encoding="UTF-8"?>
<svg width="24px" height="24px" viewBox="0 0 24 24" version="1.1" xmlns="http://www.w3.org/2000/svg" xmlns:xlink="http://www.w3.org/1999/xlink">
    <!-- Generator: Sketch 52.5 (67469) - http://www.bohemiancoding.com/sketch -->
    <title>digital-ocean</title>
    <desc>Created with Sketch.</desc>
    <defs>
        <path d="M12,21.6875 L12,17.9335938 C15.9765625,17.9335938 19.0625,13.9921875 17.5351563,9.80859374 C16.9765625,8.26171873 15.734375,7.01953123 14.1835938,6.46093747 C9.99999999,4.94531246 6.05468747,8.01953123 6.05468747,11.9960937 L2.31249995,11.9960937 C2.31249995,5.66015622 8.44140623,0.718749944 15.0859375,2.7929687 C17.984375,3.70312496 20.3046875,6.01171872 21.203125,8.91015623 C23.2812501,15.5625 18.3515625,21.6875 12,21.6875 Z M12.0117188,14.2109375 L8.27734373,14.2109375 L8.27734373,17.9453125 L12.0117188,17.9453125 L12.0117188,14.2109375 Z M8.27734373,17.9453125 L5.39843747,17.9453125 L5.39843747,20.8203125 L8.27734373,20.8203125 L8.27734373,17.9453125 Z M5.39843747,15.5390625 L2.99218745,15.5390625 L2.99218745,17.9453125 L5.39843747,17.9453125 L5.39843747,15.5390625 Z" id="path-1"></path>
    </defs>
    <g id="digital-ocean" stroke="none" stroke-width="1" fill="none" fill-rule="evenodd">
        <mask id="mask-2" fill="white">
            <use xlink:href="#path-1"></use>
        </mask>
        <g fill-rule="nonzero"></g>
        <g id="🎨-color" mask="url(#mask-2)" fill="#000000">
            <rect id="🎨-Color" x="0" y="0" width="24" height="24"></rect>
        </g>
    </g>
</svg>