<?xml version="1.0" encoding="UTF-8"?>
<svg width="24px" height="24px" viewBox="0 0 24 24" version="1.1" xmlns="http://www.w3.org/2000/svg" xmlns:xlink="http://www.w3.org/1999/xlink">
    <!-- Generator: Sketch 52.5 (67469) - http://www.bohemiancoding.com/sketch -->
    <title>digital-tachograph</title>
    <desc>Created with Sketch.</desc>
    <defs>
        <path d="M21,6.99999997 L2.99999995,6.99999997 C2.44781245,6.99999997 1.99999995,7.44781248 1.99999995,7.99999998 L1.99999995,16 C1.99999995,16.5521875 2.44781245,17 2.99999995,17 L21,17 C21.5521875,17 22.0000001,16.5521875 22.0000001,16 L22.0000001,7.99999998 C22.0000001,7.44781248 21.5521875,6.99999997 21,6.99999997 Z M11.5,15 C11.5,15.138125 11.388125,15.25 11.25,15.25 L4.24999996,15.25 C4.11187496,15.25 3.99999996,15.138125 3.99999996,15 L3.99999996,14.75 C3.99999996,14.611875 4.11187496,14.5 4.24999996,14.5 L11.25,14.5 C11.388125,14.5 11.5,14.611875 11.5,14.75 L11.5,15 Z M4.24999996,13 L4.24999996,12.5 C4.24999996,12.361875 4.36187496,12.25 4.49999996,12.25 L4.99999996,12.25 C5.13812497,12.25 5.24999997,12.361875 5.24999997,12.5 L5.24999997,13 C5.24999997,13.138125 5.13812497,13.25 4.99999996,13.25 L4.49999996,13.25 C4.36187496,13.25 4.24999996,13.138125 4.24999996,13 Z M6.24999997,13 L6.24999997,12.5 C6.24999997,12.361875 6.36187497,12.25 6.49999997,12.25 L6.99999997,12.25 C7.13812498,12.25 7.24999998,12.361875 7.24999998,12.5 L7.24999998,13 C7.24999998,13.138125 7.13812498,13.25 6.99999997,13.25 L6.49999997,13.25 C6.36187497,13.25 6.24999997,13.138125 6.24999997,13 Z M8.24999998,13 L8.24999998,12.5 C8.24999998,12.361875 8.36187498,12.25 8.49999998,12.25 L8.99999998,12.25 C9.13812499,12.25 9.24999999,12.361875 9.24999999,12.5 L9.24999999,13 C9.24999999,13.138125 9.13812499,13.25 8.99999998,13.25 L8.49999998,13.25 C8.36187498,13.25 8.24999998,13.138125 8.24999998,13 Z M10.25,13 L10.25,12.5 C10.25,12.361875 10.361875,12.25 10.5,12.25 L11,12.25 C11.138125,12.25 11.25,12.361875 11.25,12.5 L11.25,13 C11.25,13.138125 11.138125,13.25 11,13.25 L10.5,13.25 C10.361875,13.25 10.25,13.138125 10.25,13 Z M11.5,11 C11.5,11.27625 11.27625,11.5 11,11.5 L4.49999996,11.5 C4.22374996,11.5 3.99999996,11.27625 3.99999996,11 L3.99999996,9.49999999 C3.99999996,9.22374999 4.22374996,8.99999998 4.49999996,8.99999998 L11,8.99999998 C11.27625,8.99999998 11.5,9.22374999 11.5,9.49999999 L11.5,11 Z M20,15 C20,15.138125 19.888125,15.25 19.75,15.25 L12.75,15.25 C12.611875,15.25 12.5,15.138125 12.5,15 L12.5,14.75 C12.5,14.611875 12.611875,14.5 12.75,14.5 L19.75,14.5 C19.888125,14.5 20,14.611875 20,14.75 L20,15 Z" id="path-1"></path>
    </defs>
    <g id="digital-tachograph" stroke="none" stroke-width="1" fill="none" fill-rule="evenodd">
        <mask id="mask-2" fill="white">
            <use xlink:href="#path-1"></use>
        </mask>
        <g fill-rule="nonzero"></g>
        <g id="🎨-color" mask="url(#mask-2)" fill="#000000">
            <rect id="🎨-Color" x="0" y="0" width="24" height="24"></rect>
        </g>
    </g>
</svg>