<?xml version="1.0" encoding="UTF-8"?>
<svg width="24px" height="24px" viewBox="0 0 24 24" version="1.1" xmlns="http://www.w3.org/2000/svg" xmlns:xlink="http://www.w3.org/1999/xlink">
    <!-- Generator: Sketch 52.5 (67469) - http://www.bohemiancoding.com/sketch -->
    <title>directions</title>
    <desc>Created with Sketch.</desc>
    <defs>
        <path d="M21.614425,11.0962963 L12.8842105,2.36608182 C12.3961014,1.87797266 11.6042885,1.87797266 11.1157895,2.36608182 L2.385575,11.0962963 C1.89746584,11.5847953 1.89746584,12.3762183 2.385575,12.8647174 L11.1157895,21.5949318 C11.6038986,22.0834308 12.3957115,22.0834308 12.8842105,21.5949318 L21.614425,12.8647174 C22.1025342,12.3762183 22.1025342,11.5847953 21.614425,11.0962963 Z M17.6775829,11.5859649 L14.3945419,14.6163743 C14.1949318,14.8007797 13.8709552,14.6592593 13.8709552,14.3871345 L13.8709552,12.2923977 L10.1282651,12.2923977 L10.1282651,14.7875244 C10.1282651,14.9598441 9.98869395,15.0994152 9.81637426,15.0994152 L8.5688109,15.0994152 C8.39649121,15.0994152 8.25692006,14.9598441 8.25692006,14.7875244 L8.25692006,11.668616 C8.25692006,10.9797271 8.81559453,10.4210526 9.50448342,10.4210526 L13.8709552,10.4210526 L13.8709552,8.32631577 C13.8709552,8.05458088 14.1945419,7.91267054 14.3945419,8.097076 L17.6775829,11.1274854 C17.8113061,11.2510721 17.8113061,11.4623782 17.6775829,11.5859649 Z" id="path-1"></path>
    </defs>
    <g id="directions" stroke="none" stroke-width="1" fill="none" fill-rule="evenodd">
        <mask id="mask-2" fill="white">
            <use xlink:href="#path-1"></use>
        </mask>
        <g fill-rule="nonzero"></g>
        <g id="🎨-color" mask="url(#mask-2)" fill="#000000">
            <rect id="🎨-Color" x="0" y="0" width="24" height="24"></rect>
        </g>
    </g>
</svg>