<?xml version="1.0" encoding="UTF-8"?>
<svg width="24px" height="24px" viewBox="0 0 24 24" version="1.1" xmlns="http://www.w3.org/2000/svg" xmlns:xlink="http://www.w3.org/1999/xlink">
    <!-- Generator: Sketch 52.5 (67469) - http://www.bohemiancoding.com/sketch -->
    <title>discord</title>
    <desc>Created with Sketch.</desc>
    <defs>
        <path d="M14.86,11.5 C14.86,12.11 14.41,12.61 13.84,12.61 C13.28,12.61 12.82,12.11 12.82,11.5 C12.82,10.89 13.27,10.39 13.84,10.39 C14.41,10.39 14.86,10.89 14.86,11.5 Z M10.19,10.39 C9.61999999,10.39 9.16999999,10.89 9.16999999,11.5 C9.16999999,12.11 9.62999999,12.61 10.19,12.61 C10.76,12.61 11.21,12.11 11.21,11.5 C11.22,10.89 10.76,10.39 10.19,10.39 Z M20.75,4.05999996 L20.75,22.0000001 C18.2307032,19.7736719 19.0364063,20.510625 16.11,17.79 L16.64,19.64 L5.29999997,19.64 C4.16999996,19.64 3.24999996,18.72 3.24999996,17.58 L3.24999996,4.05999996 C3.24999996,2.91999995 4.16999996,1.99999995 5.29999997,1.99999995 L18.7,1.99999995 C19.83,1.99999995 20.75,2.91999995 20.75,4.05999996 Z M17.9,13.54 C17.9,10.32 16.46,7.70999998 16.46,7.70999998 C15.02,6.62999997 13.65,6.65999997 13.65,6.65999997 L13.51,6.81999997 C15.21,7.33999998 16,8.08999998 16,8.08999998 C13.6245703,6.78808591 10.8342187,6.78785154 8.52999998,7.79999998 C8.15999998,7.96999998 7.93999998,8.08999998 7.93999998,8.08999998 C7.93999998,8.08999998 8.76999998,7.29999998 10.57,6.77999997 L10.47,6.65999997 C10.47,6.65999997 9.09999999,6.62999997 7.65999998,7.70999998 C7.65999998,7.70999998 6.21999997,10.32 6.21999997,13.54 C6.21999997,13.54 7.05999998,14.99 9.26999999,15.06 C9.26999999,15.06 9.63999999,14.61 9.93999999,14.23 C8.66999998,13.85 8.18999998,13.05 8.18999998,13.05 C8.33710936,13.1529688 8.57968748,13.2864453 8.59999998,13.3 C10.2878906,14.2452344 12.6854688,14.5549219 14.84,13.65 C15.19,13.52 15.58,13.33 15.99,13.06 C15.99,13.06 15.49,13.88 14.18,14.25 C14.48,14.63 14.84,15.06 14.84,15.06 C17.05,14.99 17.9,13.54 17.9,13.54 Z" id="path-1"></path>
    </defs>
    <g id="discord" stroke="none" stroke-width="1" fill="none" fill-rule="evenodd">
        <mask id="mask-2" fill="white">
            <use xlink:href="#path-1"></use>
        </mask>
        <g fill-rule="nonzero"></g>
        <g id="🎨-color" mask="url(#mask-2)" fill="#000000">
            <rect id="🎨-Color" x="0" y="0" width="24" height="24"></rect>
        </g>
    </g>
</svg>