<?xml version="1.0" encoding="UTF-8"?>
<svg width="24px" height="24px" viewBox="0 0 24 24" version="1.1" xmlns="http://www.w3.org/2000/svg" xmlns:xlink="http://www.w3.org/1999/xlink">
    <!-- Generator: Sketch 52.5 (67469) - http://www.bohemiancoding.com/sketch -->
    <title>divide</title>
    <desc>Created with Sketch.</desc>
    <defs>
        <path d="M12,15.75 C10.6191406,15.75 9.49999999,16.8691406 9.49999999,18.25 C9.49999999,19.6308594 10.6191406,20.75 12,20.75 C13.3808594,20.75 14.5,19.6308594 14.5,18.25 C14.5,16.8691406 13.3808594,15.75 12,15.75 Z M12,8.24999998 C13.3808594,8.24999998 14.5,7.13085935 14.5,5.74999997 C14.5,4.36914059 13.3808594,3.24999996 12,3.24999996 C10.6191406,3.24999996 9.49999999,4.36914059 9.49999999,5.74999997 C9.49999999,7.13085935 10.6191406,8.24999998 12,8.24999998 Z M19.5,10.125 L4.49999996,10.125 C3.80976558,10.125 3.24999996,10.6847656 3.24999996,11.375 L3.24999996,12.625 C3.24999996,13.3152344 3.80976558,13.875 4.49999996,13.875 L19.5,13.875 C20.1902344,13.875 20.75,13.3152344 20.75,12.625 L20.75,11.375 C20.75,10.6847656 20.1902344,10.125 19.5,10.125 Z" id="path-1"></path>
    </defs>
    <g id="divide" stroke="none" stroke-width="1" fill="none" fill-rule="evenodd">
        <mask id="mask-2" fill="white">
            <use xlink:href="#path-1"></use>
        </mask>
        <g fill-rule="nonzero"></g>
        <g id="🎨-color" mask="url(#mask-2)" fill="#000000">
            <rect id="🎨-Color" x="0" y="0" width="24" height="24"></rect>
        </g>
    </g>
</svg>