<?xml version="1.0" encoding="UTF-8"?>
<svg width="24px" height="24px" viewBox="0 0 24 24" version="1.1" xmlns="http://www.w3.org/2000/svg" xmlns:xlink="http://www.w3.org/1999/xlink">
    <!-- Generator: Sketch 52.5 (67469) - http://www.bohemiancoding.com/sketch -->
    <title>dizzy</title>
    <desc>Created with Sketch.</desc>
    <defs>
        <path d="M12,2.31249995 C6.64843747,2.31249995 2.31249995,6.64843747 2.31249995,12 C2.31249995,17.3515625 6.64843747,21.6875 12,21.6875 C17.3515625,21.6875 21.6875,17.3515625 21.6875,12 C21.6875,6.64843747 17.3515625,2.31249995 12,2.31249995 Z M12,19.8125 C7.69140623,19.8125 4.18749996,16.3085938 4.18749996,12 C4.18749996,7.69140623 7.69140623,4.18749996 12,4.18749996 C16.3085938,4.18749996 19.8125,7.69140623 19.8125,12 C19.8125,16.3085938 16.3085938,19.8125 12,19.8125 Z M10.6796875,11.3007812 C10.984375,10.9960937 10.984375,10.5 10.6796875,10.1953125 L9.98046874,9.49999999 L10.6796875,8.80078123 C10.984375,8.49609373 10.984375,7.99999998 10.6796875,7.69531248 C10.375,7.39062498 9.87890624,7.39062498 9.57421874,7.69531248 L8.87499998,8.39453123 L8.17968748,7.69921873 C7.87499998,7.39453123 7.37890623,7.39453123 7.07421873,7.69921873 C6.76953122,8.00390623 6.76953122,8.49999998 7.07421873,8.80468748 L7.77343748,9.50390624 L7.07421873,10.203125 C6.76953122,10.5078125 6.76953122,11.0039062 7.07421873,11.3085937 C7.37890623,11.6132812 7.87499998,11.6132812 8.17968748,11.3085937 L8.87499998,10.6132812 L9.57031249,11.3085937 C9.87890624,11.609375 10.3710937,11.609375 10.6796875,11.3007812 Z M16.9296875,7.69921873 C16.625,7.39453123 16.1289063,7.39453123 15.8242188,7.69921873 L15.125,8.39453123 L14.4296875,7.69921873 C14.125,7.39453123 13.6289063,7.39453123 13.3242188,7.69921873 C13.0195313,8.00390623 13.0195313,8.49999998 13.3242188,8.80468748 L14.0234375,9.50390624 L13.3242188,10.203125 C13.0195313,10.5078125 13.0195313,11.0039062 13.3242188,11.3085937 C13.6289063,11.6132812 14.125,11.6132812 14.4296875,11.3085937 L15.125,10.6132812 L15.8203125,11.3085937 C16.125,11.6132812 16.6210938,11.6132812 16.9257813,11.3085937 C17.2304688,11.0039062 17.2304688,10.5078125 16.9257813,10.203125 L16.2304688,9.49999999 L16.9296875,8.80078123 C17.2304688,8.49609373 17.2304688,8.00390623 16.9296875,7.69921873 Z M12,12.625 C10.6210937,12.625 9.49999999,13.7460938 9.49999999,15.125 C9.49999999,16.5039063 10.6210937,17.625 12,17.625 C13.3789063,17.625 14.5,16.5039063 14.5,15.125 C14.5,13.7460938 13.3789063,12.625 12,12.625 Z" id="path-1"></path>
    </defs>
    <g id="dizzy" stroke="none" stroke-width="1" fill="none" fill-rule="evenodd">
        <mask id="mask-2" fill="white">
            <use xlink:href="#path-1"></use>
        </mask>
        <g fill-rule="nonzero"></g>
        <g id="🎨-color" mask="url(#mask-2)" fill="#000000">
            <rect id="🎨-Color" x="0" y="0" width="24" height="24"></rect>
        </g>
    </g>
</svg>