<?xml version="1.0" encoding="UTF-8"?>
<svg width="24px" height="24px" viewBox="0 0 24 24" version="1.1" xmlns="http://www.w3.org/2000/svg" xmlns:xlink="http://www.w3.org/1999/xlink">
    <!-- Generator: Sketch 52.5 (67469) - http://www.bohemiancoding.com/sketch -->
    <title>dna</title>
    <desc>Created with Sketch.</desc>
    <defs>
        <path d="M3.2879377,21.2645915 C3.24513614,21.6342413 3.53307389,21.9571985 3.90661475,21.9571985 L5.16342409,21.9610895 C5.47859919,21.9610895 5.74319063,21.7315176 5.78599219,21.4202335 C5.81322954,21.229572 5.8560311,20.9883269 5.91828791,20.7159534 L18.0700389,20.7159534 C18.1322958,20.9844358 18.1828794,21.229572 18.2062257,21.4202335 C18.2490273,21.7315176 18.5136187,21.9649806 18.8287938,21.9610895 L20.0856032,21.9571985 C20.459144,21.9571985 20.7509728,21.6342413 20.7042802,21.2645915 C20.5252919,19.7898833 19.7081712,16.2451362 16.077821,13.1828794 C15.3929961,13.6653697 14.6342413,14.1245136 13.8015564,14.5603113 C14.0428016,14.7392996 14.2451362,14.9260701 14.463035,15.1128405 L9.49805446,15.1128405 C10.3268482,14.4085603 11.3268482,13.7276265 12.5603113,13.1128405 C19.2568094,9.78599221 20.4863814,4.59922175 20.7120623,2.73540851 C20.7548639,2.36575871 20.4669261,2.04280151 20.0933853,2.04280151 L18.8326849,2.03891046 C18.5175098,2.03891046 18.2529183,2.26848244 18.2101168,2.57976649 C18.1828794,2.77042797 18.1400779,3.01167311 18.077821,3.28404665 L5.92217896,3.28404665 C5.85992215,3.01167311 5.81712059,2.77431902 5.78988324,2.57976649 C5.74708168,2.26848244 5.48249024,2.03501941 5.16731514,2.03891046 L3.9105058,2.04280151 C3.53696494,2.04280151 3.24513614,2.36575871 3.2879377,2.73540851 C3.49027233,4.40466922 4.50583654,8.72373539 9.50972761,12 C4.50972759,15.2762646 3.49027233,19.5953308 3.2879377,21.2645915 Z M12,10.5836576 C11.0233463,10.0505836 10.1945525,9.47859921 9.49805446,8.88715952 L14.4980545,8.88715952 C13.8054475,9.47859921 12.9766537,10.0544747 12,10.5836576 Z M17.1011673,5.77431904 C16.8754864,6.1789883 16.6031129,6.59533071 16.2840467,7.01945523 L7.71984434,7.01945523 C7.39688714,6.59533071 7.12451359,6.1789883 6.90272371,5.77431904 L17.1011673,5.77431904 Z M6.89883266,18.225681 C7.12451359,17.8210117 7.39688714,17.4046693 7.71595329,16.9805448 L16.2529183,16.9805448 C16.5758755,17.4046693 16.8521401,17.8210117 17.077821,18.225681 L6.89883266,18.225681 Z" id="path-1"></path>
    </defs>
    <g id="dna" stroke="none" stroke-width="1" fill="none" fill-rule="evenodd">
        <mask id="mask-2" fill="white">
            <use xlink:href="#path-1"></use>
        </mask>
        <g fill-rule="nonzero"></g>
        <g id="🎨-color" mask="url(#mask-2)" fill="#000000">
            <rect id="🎨-Color" x="0" y="0" width="24" height="24"></rect>
        </g>
    </g>
</svg>