<?xml version="1.0" encoding="UTF-8"?>
<svg width="24px" height="24px" viewBox="0 0 24 24" version="1.1" xmlns="http://www.w3.org/2000/svg" xmlns:xlink="http://www.w3.org/1999/xlink">
    <!-- Generator: Sketch 52.5 (67469) - http://www.bohemiancoding.com/sketch -->
    <title>docker</title>
    <desc>Created with Sketch.</desc>
    <defs>
        <path d="M12.9485179,11.3853354 L10.8861154,11.3853354 L10.8861154,9.53198127 L12.9485179,9.53198127 L12.9485179,11.3853354 Z M12.9485179,5.0109204 L10.8861154,5.0109204 L10.8861154,6.90483617 L12.9485179,6.90483617 L12.9485179,5.0109204 Z M15.3884556,9.52886114 L13.326053,9.52886114 L13.326053,11.3822153 L15.3884556,11.3822153 L15.3884556,9.52886114 Z M10.5117005,7.27925115 L8.44929795,7.27925115 L8.44929795,9.15444616 L10.5117005,9.15444616 L10.5117005,7.27925115 Z M12.9485179,7.27925115 L10.8861154,7.27925115 L10.8861154,9.15444616 L12.9485179,9.15444616 L12.9485179,7.27925115 Z M21.5850234,10.399376 C21.1357255,10.0967239 20.099844,9.98751949 19.3042122,10.1372855 C19.2012481,9.38845553 18.7831514,8.73634944 18.0218409,8.14976597 L17.5850234,7.85959436 L17.2948518,8.29641184 C16.7207489,9.16380654 16.5647426,10.5928237 17.1794072,11.5351014 C16.9079563,11.6817473 16.374415,11.8814353 15.6692668,11.8689548 L2.10608419,11.8689548 C1.83463333,13.4539782 2.28705143,15.5132605 3.47893911,16.9266771 C4.63650542,18.2964119 6.37129482,18.9921997 8.63962557,18.9921997 C13.550702,18.9921997 17.1856475,16.7301092 18.8861155,12.6209048 C19.5538222,12.6333853 20.9953199,12.624025 21.7347894,11.2106084 C21.7815913,11.1326053 21.9407177,10.7987519 22,10.6770671 L21.5850234,10.399376 Z M5.63806549,9.52886114 L3.57878311,9.52886114 L3.57878311,11.3822153 L5.64118562,11.3822153 L5.64118562,9.52886114 L5.63806549,9.52886114 Z M8.07488298,9.52886114 L6.01248047,9.52886114 L6.01248047,11.3822153 L8.07488298,11.3822153 L8.07488298,9.52886114 Z M10.5117005,9.52886114 L8.44929795,9.52886114 L8.44929795,11.3822153 L10.5117005,11.3822153 L10.5117005,9.52886114 Z M8.07488298,7.27925115 L6.01248047,7.27925115 L6.01248047,9.15444616 L8.07488298,9.15444616 L8.07488298,7.27925115 Z" id="path-1"></path>
    </defs>
    <g id="docker" stroke="none" stroke-width="1" fill="none" fill-rule="evenodd">
        <mask id="mask-2" fill="white">
            <use xlink:href="#path-1"></use>
        </mask>
        <g fill-rule="nonzero"></g>
        <g id="🎨-color" mask="url(#mask-2)" fill="#000000">
            <rect id="🎨-Color" x="0" y="0" width="24" height="24"></rect>
        </g>
    </g>
</svg>