<?xml version="1.0" encoding="UTF-8"?>
<svg width="24px" height="24px" viewBox="0 0 24 24" version="1.1" xmlns="http://www.w3.org/2000/svg" xmlns:xlink="http://www.w3.org/1999/xlink">
    <!-- Generator: Sketch 52.5 (67469) - http://www.bohemiancoding.com/sketch -->
    <title>dog</title>
    <desc>Created with Sketch.</desc>
    <defs>
        <path d="M21.375,5.74999997 L18.875,5.74999997 L18.5953125,5.19101559 C18.3835921,4.7675439 17.9507926,4.50003085 17.4773438,4.49999996 L15.3828125,4.49999996 L14.3171875,3.43437496 C13.9230469,3.04062496 13.25,3.31953121 13.25,3.87617183 L13.25,9.72929686 L18.25,11.5148437 L18.25,10.125 L19.5,10.125 C20.8808594,10.125 22.0000001,9.00585936 22.0000001,7.62499998 L22.0000001,6.37499997 C22.0000001,6.02968747 21.7203125,5.74999997 21.375,5.74999997 Z M17,7.62499998 C16.6546875,7.62499998 16.375,7.34531248 16.375,6.99999997 C16.375,6.65468747 16.6546875,6.37499997 17,6.37499997 C17.3453125,6.37499997 17.625,6.65468747 17.625,6.99999997 C17.625,7.34531248 17.3453125,7.62499998 17,7.62499998 Z M5.74999997,10.75 C5.06093747,10.75 4.49999996,10.1890625 4.49999996,9.49999999 C4.49999996,8.80976561 3.94023433,8.24999998 3.24999996,8.24999998 C2.55976558,8.24999998 1.99999995,8.80976561 1.99999995,9.49999999 C1.99999995,11.1273437 3.04804683,12.5019531 4.49999996,13.0195313 L4.49999996,21.375 C4.49999996,21.7203125 4.77968746,22 5.12499997,22 L7.62499998,22 C7.97031248,22 8.24999998,21.7203125 8.24999998,21.375 L8.24999998,17 L14.5,17 L14.5,21.375 C14.5,21.7203125 14.7796875,22 15.125,22 L17.625,22 C17.9703125,22 18.25,21.7203125 18.25,21.375 L18.25,12.8417969 L12.3925781,10.75 L5.74999997,10.75 Z" id="path-1"></path>
    </defs>
    <g id="dog" stroke="none" stroke-width="1" fill="none" fill-rule="evenodd">
        <mask id="mask-2" fill="white">
            <use xlink:href="#path-1"></use>
        </mask>
        <g fill-rule="nonzero"></g>
        <g id="🎨-color" mask="url(#mask-2)" fill="#000000">
            <rect id="🎨-Color" x="0" y="0" width="24" height="24"></rect>
        </g>
    </g>
</svg>