<?xml version="1.0" encoding="UTF-8"?>
<svg width="24px" height="24px" viewBox="0 0 24 24" version="1.1" xmlns="http://www.w3.org/2000/svg" xmlns:xlink="http://www.w3.org/1999/xlink">
    <!-- Generator: Sketch 52.5 (67469) - http://www.bohemiancoding.com/sketch -->
    <title>dolly</title>
    <desc>Created with Sketch.</desc>
    <defs>
        <path d="M12.1975737,12.7521664 C12.8214905,12.9254766 13.4003466,13.2166378 13.9133449,13.6083189 L19.5112652,11.7435009 C19.8024264,11.6464471 19.9584056,11.3310225 19.8613519,11.0433276 L17.7677643,4.76256496 C17.6707106,4.47140378 17.355286,4.31542457 17.067591,4.4124783 L14.94974,5.11958402 L16.0970537,8.56499132 L13.9930676,9.26169843 L12.8457539,5.81629113 L10.7105719,6.52686306 C10.4194107,6.62391678 10.2634315,6.9393414 10.3604853,7.22703637 L12.1975737,12.7521664 Z M21.9376084,14.440208 L21.5840555,13.3864818 C21.4870018,13.0953206 21.1715772,12.9393414 20.8838822,13.0363952 L13.4835355,15.5043328 C12.8873484,14.7417678 11.9722704,14.2426343 10.9358752,14.2218371 L7.49046792,3.88561521 C7.33795492,3.43154242 6.91507796,3.12651642 6.43674174,3.12651642 L2.55459267,3.12651642 C2.24956668,3.12651642 1.99999995,3.37608315 1.99999995,3.68110914 L1.99999995,4.79029459 C1.99999995,5.09532059 2.24956668,5.34488732 2.55459267,5.34488732 L5.6360485,5.34488732 L8.83188907,14.9358752 C7.92720969,15.642981 7.38648178,16.7937609 7.58405544,18.0727903 C7.79549391,19.4384749 8.89774695,20.5788562 10.2634315,20.8180243 C12.3500867,21.1889082 14.1559792,19.6117851 14.1941075,17.6083189 L21.5875217,15.1403813 C21.8752167,15.0433276 22.0346621,14.7313692 21.9376084,14.440208 Z M10.8734835,19.2097054 C9.95493933,19.2097054 9.20970536,18.4644714 9.20970536,17.5459272 C9.20970536,16.627383 9.95493933,15.8821491 10.8734835,15.8821491 C11.7920277,15.8821491 12.5372617,16.627383 12.5372617,17.5459272 C12.5372617,18.4644714 11.7920277,19.2097054 10.8734835,19.2097054 Z" id="path-1"></path>
    </defs>
    <g id="dolly" stroke="none" stroke-width="1" fill="none" fill-rule="evenodd">
        <mask id="mask-2" fill="white">
            <use xlink:href="#path-1"></use>
        </mask>
        <g fill-rule="nonzero"></g>
        <g id="🎨-color" mask="url(#mask-2)" fill="#000000">
            <rect id="🎨-Color" x="0" y="0" width="24" height="24"></rect>
        </g>
    </g>
</svg>