<?xml version="1.0" encoding="UTF-8"?>
<svg width="24px" height="24px" viewBox="0 0 24 24" version="1.1" xmlns="http://www.w3.org/2000/svg" xmlns:xlink="http://www.w3.org/1999/xlink">
    <!-- Generator: Sketch 52.5 (67469) - http://www.bohemiancoding.com/sketch -->
    <title>dolly-flatbed</title>
    <desc>Created with Sketch.</desc>
    <defs>
        <path d="M8.49999998,14 L20.5,14 C20.775,14 21,13.775 21,13.5 L21,5.49999997 C21,5.22499997 20.775,4.99999997 20.5,4.99999997 L16,4.99999997 L16,8.99999999 L14.5,7.99999998 L13,8.99999999 L13,4.99999997 L8.49999998,4.99999997 C8.22499998,4.99999997 7.99999998,5.22499997 7.99999998,5.49999997 L7.99999998,13.5 C7.99999998,13.775 8.22499998,14 8.49999998,14 Z M21.5,16 L5.99999997,16 L5.99999997,4.49999996 C5.99999997,4.22499996 5.77499997,3.99999996 5.49999997,3.99999996 L2.49999995,3.99999996 C2.22499995,3.99999996 1.99999995,4.22499996 1.99999995,4.49999996 L1.99999995,5.49999997 C1.99999995,5.77499997 2.22499995,5.99999997 2.49999995,5.99999997 L3.99999996,5.99999997 L3.99999996,17.5 C3.99999996,17.775 4.22499996,18 4.49999996,18 L7.09062498,18 C7.03437498,18.15625 6.99999997,18.325 6.99999997,18.5 C6.99999997,19.328125 7.67187498,20 8.49999998,20 C9.32812499,20 9.99999999,19.328125 9.99999999,18.5 C9.99999999,18.325 9.96249999,18.15625 9.90937499,18 L16.09375,18 C16.0375,18.15625 16.003125,18.325 16.003125,18.5 C16.003125,19.328125 16.675,20 17.503125,20 C18.33125,20 19.003125,19.328125 19.003125,18.5 C19.003125,18.325 18.965625,18.15625 18.9125,18 L21.5,18 C21.775,18 22.0000001,17.775 22.0000001,17.5 L22.0000001,16.5 C22.0000001,16.225 21.775,16 21.5,16 Z" id="path-1"></path>
    </defs>
    <g id="dolly-flatbed" stroke="none" stroke-width="1" fill="none" fill-rule="evenodd">
        <mask id="mask-2" fill="white">
            <use xlink:href="#path-1"></use>
        </mask>
        <g fill-rule="nonzero"></g>
        <g id="🎨-color" mask="url(#mask-2)" fill="#000000">
            <rect id="🎨-Color" x="0" y="0" width="24" height="24"></rect>
        </g>
    </g>
</svg>