<?xml version="1.0" encoding="UTF-8"?>
<svg width="24px" height="24px" viewBox="0 0 24 24" version="1.1" xmlns="http://www.w3.org/2000/svg" xmlns:xlink="http://www.w3.org/1999/xlink">
    <!-- Generator: Sketch 52.5 (67469) - http://www.bohemiancoding.com/sketch -->
    <title>dollar-sign</title>
    <desc>Created with Sketch.</desc>
    <defs>
        <path d="M14.546875,11.1171875 L10.328125,9.88281249 C9.83984374,9.74218749 9.49999999,9.28515624 9.49999999,8.77734373 C9.49999999,8.14062498 10.015625,7.62499998 10.6523437,7.62499998 L13.2421875,7.62499998 C13.71875,7.62499998 14.1875,7.76953123 14.578125,8.03515623 C14.8164063,8.19531248 15.1367188,8.15624998 15.3398438,7.95703123 L16.6992188,6.62890622 C16.9765625,6.35937497 16.9375,5.91015622 16.6289063,5.67187497 C15.671875,4.92187496 14.4765625,4.50390621 13.25,4.49999996 L13.25,2.62499995 C13.25,2.28124995 12.96875,1.99999995 12.625,1.99999995 L11.375,1.99999995 C11.03125,1.99999995 10.75,2.28124995 10.75,2.62499995 L10.75,4.49999996 L10.6523437,4.49999996 C8.16406248,4.49999996 6.16406247,6.63671872 6.39453122,9.17187499 C6.55859372,10.9726562 7.93359373,12.4375 9.66796874,12.9453125 L13.671875,14.1171875 C14.1601563,14.2617188 14.5,14.7148438 14.5,15.2226563 C14.5,15.859375 13.984375,16.375 13.3476563,16.375 L10.7578125,16.375 C10.28125,16.375 9.81249999,16.2304688 9.42187499,15.9648438 C9.18359374,15.8046875 8.86328123,15.84375 8.66015623,16.0429688 L7.30078123,17.3710938 C7.02343748,17.640625 7.06249998,18.0898438 7.37109373,18.328125 C8.32812498,19.078125 9.52343749,19.4960938 10.75,19.5 L10.75,21.375 C10.75,21.71875 11.03125,22.0000001 11.375,22.0000001 L12.625,22.0000001 C12.96875,22.0000001 13.25,21.71875 13.25,21.375 L13.25,19.4921875 C15.0703125,19.4570313 16.7773438,18.375 17.3789063,16.6523438 C18.21875,14.2460938 16.8085938,11.7773437 14.546875,11.1171875 Z" id="path-1"></path>
    </defs>
    <g id="dollar-sign" stroke="none" stroke-width="1" fill="none" fill-rule="evenodd">
        <mask id="mask-2" fill="white">
            <use xlink:href="#path-1"></use>
        </mask>
        <g></g>
        <g id="🎨-color" mask="url(#mask-2)" fill="#000000">
            <rect id="🎨-Color" x="0" y="0" width="24" height="24"></rect>
        </g>
    </g>
</svg>