<?xml version="1.0" encoding="UTF-8"?>
<svg width="24px" height="24px" viewBox="0 0 24 24" version="1.1" xmlns="http://www.w3.org/2000/svg" xmlns:xlink="http://www.w3.org/1999/xlink">
    <!-- Generator: Sketch 52.5 (67469) - http://www.bohemiancoding.com/sketch -->
    <title>donate</title>
    <desc>Created with Sketch.</desc>
    <defs>
        <path d="M12,18.25 C16.4882813,18.25 20.125,14.6132813 20.125,10.125 C20.125,5.63671872 16.4882813,1.99999995 12,1.99999995 C7.51171873,1.99999995 3.87499996,5.63671872 3.87499996,10.125 C3.87499996,14.6132813 7.51171873,18.25 12,18.25 Z M11.1328125,5.80468747 L11.1328125,5.14843747 C11.1328125,4.78906246 11.421875,4.49999996 11.78125,4.49999996 L12.2148438,4.49999996 C12.5742188,4.49999996 12.8632813,4.78906246 12.8632813,5.14843747 L12.8632813,5.81249997 C13.46875,5.84374997 14.0546875,6.05078122 14.5429688,6.41406247 C14.7617188,6.57421872 14.7851563,6.89453122 14.5898438,7.08203123 L13.953125,7.68749998 C13.8046875,7.83203123 13.5820313,7.83593748 13.40625,7.72656248 C13.1953125,7.59374998 12.9609375,7.52734373 12.7109375,7.52734373 L11.1914062,7.52734373 C10.8398437,7.52734373 10.5546875,7.84765623 10.5546875,8.24218748 C10.5546875,8.56249998 10.75,8.84765623 11.0273437,8.92968748 L13.4609375,9.66015624 C14.4648438,9.96093749 15.1679688,10.9257812 15.1679688,12.0078125 C15.1679688,13.3359375 14.1367188,14.4101563 12.859375,14.4453125 L12.859375,15.1015625 C12.859375,15.4609375 12.5703125,15.75 12.2109375,15.75 L11.7773437,15.75 C11.4179687,15.75 11.1289062,15.4609375 11.1289062,15.1015625 L11.1289062,14.4375 C10.5234375,14.40625 9.93749999,14.1992188 9.44921874,13.8359375 C9.23046874,13.6757813 9.20703124,13.3554688 9.40234374,13.1679688 L10.0390625,12.5625 C10.1875,12.4179688 10.4101562,12.4140625 10.5859375,12.5234375 C10.796875,12.65625 11.03125,12.7226563 11.28125,12.7226563 L12.8007813,12.7226563 C13.1523438,12.7226563 13.4375,12.4023438 13.4375,12.0078125 C13.4375,11.6875 13.2421875,11.4023437 12.9648438,11.3203125 L10.53125,10.5898437 C9.52734374,10.2890625 8.82421873,9.32421874 8.82421873,8.24218748 C8.82812498,6.91406247 9.85546874,5.83984372 11.1328125,5.80468747 Z M20.75,15.75 L19.4804688,15.75 C18.7148438,16.765625 17.7382813,17.6132813 16.6289063,18.25 L19.1210938,18.25 C19.328125,18.25 19.4960938,18.390625 19.4960938,18.5625 L19.4960938,19.1875 C19.4960938,19.359375 19.328125,19.5 19.1210938,19.5 L4.87499996,19.5 C4.66796871,19.5 4.49999996,19.359375 4.49999996,19.1875 L4.49999996,18.5625 C4.49999996,18.390625 4.66796871,18.25 4.87499996,18.25 L7.36718748,18.25 C6.25781247,17.6132813 5.28515622,16.765625 4.51562496,15.75 L3.24999996,15.75 C2.5585937,15.75 1.99999995,16.3085938 1.99999995,17 L1.99999995,20.75 C1.99999995,21.4414063 2.5585937,22.0000001 3.24999996,22.0000001 L20.75,22.0000001 C21.4414063,22.0000001 22.0000001,21.4414063 22.0000001,20.75 L22.0000001,17 C22.0000001,16.3085938 21.4414063,15.75 20.75,15.75 Z" id="path-1"></path>
    </defs>
    <g id="donate" stroke="none" stroke-width="1" fill="none" fill-rule="evenodd">
        <mask id="mask-2" fill="white">
            <use xlink:href="#path-1"></use>
        </mask>
        <g fill-rule="nonzero"></g>
        <g id="🎨-color" mask="url(#mask-2)" fill="#000000">
            <rect id="🎨-Color" x="0" y="0" width="24" height="24"></rect>
        </g>
    </g>
</svg>