<?xml version="1.0" encoding="UTF-8"?>
<svg width="24px" height="24px" viewBox="0 0 24 24" version="1.1" xmlns="http://www.w3.org/2000/svg" xmlns:xlink="http://www.w3.org/1999/xlink">
    <!-- Generator: Sketch 52.5 (67469) - http://www.bohemiancoding.com/sketch -->
    <title>door-closed</title>
    <desc>Created with Sketch.</desc>
    <defs>
        <path d="M21.5,18 L18,18 L18,5.58749997 C18,4.71187496 17.3271875,3.99999996 16.5,3.99999996 L7.49968748,3.99999996 C6.67249997,3.99999996 5.99968747,4.71187496 5.99968747,5.58749997 L5.99968747,18 L2.49999995,18 C2.22374995,18 1.99999995,18.22375 1.99999995,18.5 L1.99999995,19.5 C1.99999995,19.77625 2.22374995,20 2.49999995,20 L21.5,20 C21.77625,20 22.0000001,19.77625 22.0000001,19.5 L22.0000001,18.5 C22.0000001,18.22375 21.77625,18 21.5,18 Z M14.9996875,13 C14.4475,13 13.9996875,12.5521875 13.9996875,12 C13.9996875,11.4478125 14.4475,11 14.9996875,11 C15.551875,11 15.9996875,11.4478125 15.9996875,12 C16,12.5521875 15.5521875,13 14.9996875,13 Z" id="path-1"></path>
    </defs>
    <g id="door-closed" stroke="none" stroke-width="1" fill="none" fill-rule="evenodd">
        <mask id="mask-2" fill="white">
            <use xlink:href="#path-1"></use>
        </mask>
        <g fill-rule="nonzero"></g>
        <g id="🎨-color" mask="url(#mask-2)" fill="#000000">
            <rect id="🎨-Color" x="0" y="0" width="24" height="24"></rect>
        </g>
    </g>
</svg>