<?xml version="1.0" encoding="UTF-8"?>
<svg width="24px" height="24px" viewBox="0 0 24 24" version="1.1" xmlns="http://www.w3.org/2000/svg" xmlns:xlink="http://www.w3.org/1999/xlink">
    <!-- Generator: Sketch 52.5 (67469) - http://www.bohemiancoding.com/sketch -->
    <title>door-open</title>
    <desc>Created with Sketch.</desc>
    <defs>
        <path d="M21.5,18 L19,18 L19,7.54531248 C19,6.69343747 18.3271875,5.99999997 17.5,5.99999997 L14,5.99999997 L14,7.99999998 L17,7.99999998 L17,20 L21.5,20 C21.77625,20 22.0000001,19.77625 22.0000001,19.5 L22.0000001,18.5 C22.0000001,18.22375 21.77625,18 21.5,18 Z M11.7575,4.03156246 L5.75749997,5.58593747 C5.31218747,5.70124997 4.99999996,6.11562497 4.99999996,6.59124997 L4.99999996,18 L2.49999995,18 C2.22374995,18 1.99999995,18.22375 1.99999995,18.5 L1.99999995,19.5 C1.99999995,19.77625 2.22374995,20 2.49999995,20 L13,20 L13,5.03687497 C13,4.36249996 12.38875,3.86781246 11.7575,4.03156246 Z M10.25,13 C9.83593749,13 9.49999999,12.5521875 9.49999999,12 C9.49999999,11.4478125 9.83593749,11 10.25,11 C10.6640625,11 11,11.4478125 11,12 C11,12.5521875 10.6640625,13 10.25,13 Z" id="path-1"></path>
    </defs>
    <g id="door-open" stroke="none" stroke-width="1" fill="none" fill-rule="evenodd">
        <mask id="mask-2" fill="white">
            <use xlink:href="#path-1"></use>
        </mask>
        <g fill-rule="nonzero"></g>
        <g id="🎨-color" mask="url(#mask-2)" fill="#000000">
            <rect id="🎨-Color" x="0" y="0" width="24" height="24"></rect>
        </g>
    </g>
</svg>