<?xml version="1.0" encoding="UTF-8"?>
<svg width="24px" height="24px" viewBox="0 0 24 24" version="1.1" xmlns="http://www.w3.org/2000/svg" xmlns:xlink="http://www.w3.org/1999/xlink">
    <!-- Generator: Sketch 52.5 (67469) - http://www.bohemiancoding.com/sketch -->
    <title>dot-circle</title>
    <desc>Created with Sketch.</desc>
    <defs>
        <path d="M12,4.18749996 C16.3176563,4.18749996 19.8125,7.68167967 19.8125,12 C19.8125,16.3176563 16.3183203,19.8125 12,19.8125 C7.68234373,19.8125 4.18749996,16.3183203 4.18749996,12 C4.18749996,7.68234373 7.68167967,4.18749996 12,4.18749996 Z M12,2.31249995 C6.64972654,2.31249995 2.31249995,6.64972654 2.31249995,12 C2.31249995,17.3502735 6.64972654,21.6875 12,21.6875 C17.3502735,21.6875 21.6875,17.3502735 21.6875,12 C21.6875,6.64972654 17.3502735,2.31249995 12,2.31249995 Z M12,8.87499998 C10.2741016,8.87499998 8.87499998,10.2741016 8.87499998,12 C8.87499998,13.7258984 10.2741016,15.125 12,15.125 C13.7258984,15.125 15.125,13.7258984 15.125,12 C15.125,10.2741016 13.7258984,8.87499998 12,8.87499998 Z" id="path-1"></path>
    </defs>
    <g id="dot-circle" stroke="none" stroke-width="1" fill="none" fill-rule="evenodd">
        <mask id="mask-2" fill="white">
            <use xlink:href="#path-1"></use>
        </mask>
        <g fill-rule="nonzero"></g>
        <g id="🎨-color" mask="url(#mask-2)" fill="#000000">
            <rect id="🎨-Color" x="0" y="0" width="24" height="24"></rect>
        </g>
    </g>
</svg>