<?xml version="1.0" encoding="UTF-8"?>
<svg width="24px" height="24px" viewBox="0 0 24 24" version="1.1" xmlns="http://www.w3.org/2000/svg" xmlns:xlink="http://www.w3.org/1999/xlink">
    <!-- Generator: Sketch 52.5 (67469) - http://www.bohemiancoding.com/sketch -->
    <title>dove</title>
    <desc>Created with Sketch.</desc>
    <defs>
        <path d="M13.2670565,8.5185185 L13.2670565,7.42300193 C12.1676413,6.00779724 11.4307992,4.33138398 11.1578947,2.54191028 C11.0760234,2.01559449 10.417154,1.80896681 10.0740741,2.21832354 C9.25146197,3.18908378 8.60428848,4.32748534 8.16764131,5.59064324 C9.50097465,7.08382064 11.2865497,8.10916177 13.2670565,8.5185185 Z M17.6335283,4.49512667 C15.9103314,4.49512667 14.5146199,5.89473681 14.5146199,7.6179337 L14.5146199,9.93372319 C10.4444444,9.69200779 6.99025339,7.18518516 5.43079919,3.62962959 C5.21637424,3.14230015 4.52631575,3.1150097 4.30019489,3.59454187 C3.6530214,4.96296293 3.28654966,6.49122804 3.28654966,8.10526314 C3.28654966,10.8654971 4.61598437,13.4424951 6.60428847,15.3528265 C7.11890836,15.8479532 7.62183234,16.25731 8.12085768,16.631579 L2.5107212,18.0350877 C2.0935672,18.1403509 1.9064327,18.6237817 2.14035083,18.9863548 C2.8187134,20.0350878 4.49512667,21.8128655 8.11306041,21.9610137 C8.42495125,21.9727096 8.73684209,21.8596492 8.97465885,21.6530215 L11.5165692,19.465887 L14.5146199,19.465887 C17.9610137,19.465887 20.7524367,16.6783626 20.7524367,13.2319688 L20.7524367,6.99025339 L22.0000001,4.49512667 L17.6335283,4.49512667 Z M17.6335283,8.24171538 C17.2904484,8.24171538 17.0097466,7.96101363 17.0097466,7.6179337 C17.0097466,7.27485378 17.2904484,6.99415202 17.6335283,6.99415202 C17.9766082,6.99415202 18.25731,7.27485378 18.25731,7.6179337 C18.25731,7.96101363 17.9766082,8.24171538 17.6335283,8.24171538 Z" id="path-1"></path>
    </defs>
    <g id="dove" stroke="none" stroke-width="1" fill="none" fill-rule="evenodd">
        <mask id="mask-2" fill="white">
            <use xlink:href="#path-1"></use>
        </mask>
        <g fill-rule="nonzero"></g>
        <g id="🎨-color" mask="url(#mask-2)" fill="#000000">
            <rect id="🎨-Color" x="0" y="0" width="24" height="24"></rect>
        </g>
    </g>
</svg>