<?xml version="1.0" encoding="UTF-8"?>
<svg width="24px" height="24px" viewBox="0 0 24 24" version="1.1" xmlns="http://www.w3.org/2000/svg" xmlns:xlink="http://www.w3.org/1999/xlink">
    <!-- Generator: Sketch 52.5 (67469) - http://www.bohemiancoding.com/sketch -->
    <title>download</title>
    <desc>Created with Sketch.</desc>
    <defs>
        <path d="M10.4375,1.99999995 L13.5625,1.99999995 C14.0820313,1.99999995 14.5,2.4179687 14.5,2.93749995 L14.5,9.49999999 L17.9257813,9.49999999 C18.6210938,9.49999999 18.96875,10.3398437 18.4765625,10.8320312 L12.5351563,16.7773438 C12.2421875,17.0703125 11.7617187,17.0703125 11.46875,16.7773438 L5.51953122,10.8320312 C5.02734372,10.3398437 5.37499997,9.49999999 6.07031247,9.49999999 L9.49999999,9.49999999 L9.49999999,2.93749995 C9.49999999,2.4179687 9.91796874,1.99999995 10.4375,1.99999995 Z M22.0000001,16.6875 L22.0000001,21.0625 C22.0000001,21.5820313 21.5820313,22.0000001 21.0625,22.0000001 L2.93749995,22.0000001 C2.4179687,22.0000001 1.99999995,21.5820313 1.99999995,21.0625 L1.99999995,16.6875 C1.99999995,16.1679688 2.4179687,15.75 2.93749995,15.75 L8.66796873,15.75 L10.5820312,17.6640625 C11.3671875,18.4492188 12.6328125,18.4492188 13.4179688,17.6640625 L15.3320313,15.75 L21.0625,15.75 C21.5820313,15.75 22.0000001,16.1679688 22.0000001,16.6875 Z M17.15625,20.125 C17.15625,19.6953125 16.8046875,19.34375 16.375,19.34375 C15.9453125,19.34375 15.59375,19.6953125 15.59375,20.125 C15.59375,20.5546875 15.9453125,20.90625 16.375,20.90625 C16.8046875,20.90625 17.15625,20.5546875 17.15625,20.125 Z M19.65625,20.125 C19.65625,19.6953125 19.3046875,19.34375 18.875,19.34375 C18.4453125,19.34375 18.09375,19.6953125 18.09375,20.125 C18.09375,20.5546875 18.4453125,20.90625 18.875,20.90625 C19.3046875,20.90625 19.65625,20.5546875 19.65625,20.125 Z" id="path-1"></path>
    </defs>
    <g id="download" stroke="none" stroke-width="1" fill="none" fill-rule="evenodd">
        <mask id="mask-2" fill="white">
            <use xlink:href="#path-1"></use>
        </mask>
        <g fill-rule="nonzero"></g>
        <g id="🎨-color" mask="url(#mask-2)" fill="#000000">
            <rect id="🎨-Color" x="0" y="0" width="24" height="24"></rect>
        </g>
    </g>
</svg>