<?xml version="1.0" encoding="UTF-8"?>
<svg width="24px" height="24px" viewBox="0 0 24 24" version="1.1" xmlns="http://www.w3.org/2000/svg" xmlns:xlink="http://www.w3.org/1999/xlink">
    <!-- Generator: Sketch 52.5 (67469) - http://www.bohemiancoding.com/sketch -->
    <title>draft2digital</title>
    <desc>Created with Sketch.</desc>
    <defs>
        <path d="M17.0742188,18.6171875 L17.0742188,16.4921875 L18.9140625,17.5546875 L17.0742188,18.6171875 Z M5.84374997,16.8671875 C6.83984372,15.8007813 9.66015624,12.7773438 11.7382812,10.2265625 C13.109375,8.54296873 13.3125,7.00781248 12.8476563,5.82421872 C12.5585938,5.08984372 12.1640625,4.64453121 11.8984375,4.42968746 C13.6679688,4.51171871 14.5546875,5.34374997 15.109375,5.92578122 C15.109375,5.92578122 16.765625,7.80859373 15.3359375,10.3515625 C13.890625,12.9257813 11.0039062,16.1132813 10.3164062,16.8632813 L5.84374997,16.8632813 L5.84374997,16.8671875 Z M7.86718748,8.30468748 C7.86718748,8.78906248 7.47656248,9.17968749 6.99218747,9.17968749 C6.50781247,9.17968749 6.11718747,8.78906248 6.11718747,8.30468748 C6.11718747,7.82031248 6.50781247,7.42968748 6.99218747,7.42968748 C7.47656248,7.42968748 7.86718748,7.82421873 7.86718748,8.30468748 Z M15.75,14.3398438 L15.75,16.8671875 L12.1835938,16.8671875 C13.3867188,15.5 15.3789063,13.1210938 16.5507813,11.0351562 C17.9257813,8.58984373 17.1796875,6.21484372 16.0507813,5.04687497 C15.8789063,4.86718746 13.6210938,2.5898437 9.56640624,3.43749996 C7.25781248,3.92187496 6.07421872,5.13281247 5.49218747,6.06640622 C4.98046871,6.88281247 4.82812496,7.62109373 4.78124996,7.92968748 C4.56640621,9.21874999 5.53906247,10.5507812 6.99609372,10.5507812 C8.23437498,10.5507812 9.23437499,9.54687499 9.23437499,8.30859373 C9.23437499,7.24999998 8.46484373,6.27343747 7.35937498,6.08984372 C7.42968748,5.80468747 8.05078123,5.26562497 8.38671873,5.12499997 C9.99218749,4.44921871 11.4335937,5.32812497 11.640625,6.43359372 C11.9648437,8.16406248 10.1914062,9.96484374 8.91796873,11.4179687 C5.92578122,14.8164063 3.33984371,17.5 2.62499995,18.2460938 L15.75,18.2421875 L15.75,20.75 L21.375,17.5507813 L15.75,14.3398438 Z" id="path-1"></path>
    </defs>
    <g id="draft2digital" stroke="none" stroke-width="1" fill="none" fill-rule="evenodd">
        <mask id="mask-2" fill="white">
            <use xlink:href="#path-1"></use>
        </mask>
        <g fill-rule="nonzero"></g>
        <g id="🎨-color" mask="url(#mask-2)" fill="#000000">
            <rect id="🎨-Color" x="0" y="0" width="24" height="24"></rect>
        </g>
    </g>
</svg>