<?xml version="1.0" encoding="UTF-8"?>
<svg width="24px" height="24px" viewBox="0 0 24 24" version="1.1" xmlns="http://www.w3.org/2000/svg" xmlns:xlink="http://www.w3.org/1999/xlink">
    <!-- Generator: Sketch 52.5 (67469) - http://www.bohemiancoding.com/sketch -->
    <title>drafting-compass</title>
    <desc>Created with Sketch.</desc>
    <defs>
        <path d="M19.8366472,15.4276803 C18.860039,16.2202729 17.7847954,16.877193 16.6187135,17.339961 L18.7387915,21.0120858 L20.8421053,21.9103314 C21.2245614,22.0736843 21.6565303,21.8241716 21.7064328,21.4113061 L21.980117,19.1403509 L19.8366472,15.4276803 Z M21.4931774,11.7411306 C21.6826511,11.4421053 21.5668616,11.0397661 21.25731,10.8682261 L20.162963,10.2612086 C19.8713451,10.0994152 19.5153996,10.2042885 19.3341131,10.4842105 C17.731384,12.9610137 14.9727096,14.4756335 12,14.4756335 C11.0670565,14.4756335 10.1586745,14.3099415 9.2939571,14.0261209 L11.920078,9.47719297 C11.9473684,9.4779727 11.9723197,9.4853801 11.9996101,9.4853801 C12.0269006,9.4853801 12.0522417,9.4779727 12.0791423,9.47719297 L14.0709552,12.9274854 C15.288499,12.5781676 16.3929825,11.9235867 17.291618,11.0202729 L15.2725146,7.522807 C15.562963,6.99142298 15.7426901,6.39103311 15.7426901,5.74269003 C15.7426901,3.67563349 14.0670565,1.99999995 12,1.99999995 C9.93294346,1.99999995 8.25730992,3.67563349 8.25730992,5.74269003 C8.25730992,6.39103311 8.43703702,6.99142298 8.7270955,7.522807 L6.06432746,12.1352827 C5.5750487,11.6826511 5.13021439,11.1766082 4.75126702,10.6148148 C4.56452238,10.3380117 4.20662764,10.2397661 3.91773875,10.4070175 L2.8358674,11.0335283 C2.52982451,11.2105263 2.42144245,11.6144249 2.61598436,11.9095517 C3.22300191,12.8311891 3.96842101,13.6331384 4.79844051,14.3274854 L2.01949313,19.1407408 L2.29317734,21.411696 C2.34307987,21.8245615 2.77504869,22.0740741 3.15750483,21.9107213 L5.26081868,21.0124757 L8.02105261,16.231579 C9.27602338,16.708772 10.6206628,16.9707603 12,16.9707603 C15.8615985,16.9707603 19.4417154,14.9820663 21.4931774,11.7411306 Z M12,4.49512667 C12.6888889,4.49512667 13.2475634,5.05380113 13.2475634,5.74269003 C13.2475634,6.43157892 12.6888889,6.99025339 12,6.99025339 C11.3111111,6.99025339 10.7524366,6.43157892 10.7524366,5.74269003 C10.7524366,5.05380113 11.3111111,4.49512667 12,4.49512667 Z" id="path-1"></path>
    </defs>
    <g id="drafting-compass" stroke="none" stroke-width="1" fill="none" fill-rule="evenodd">
        <mask id="mask-2" fill="white">
            <use xlink:href="#path-1"></use>
        </mask>
        <g fill-rule="nonzero"></g>
        <g id="🎨-color" mask="url(#mask-2)" fill="#000000">
            <rect id="🎨-Color" x="0" y="0" width="24" height="24"></rect>
        </g>
    </g>
</svg>