<?xml version="1.0" encoding="UTF-8"?>
<svg width="24px" height="24px" viewBox="0 0 24 24" version="1.1" xmlns="http://www.w3.org/2000/svg" xmlns:xlink="http://www.w3.org/1999/xlink">
    <!-- Generator: Sketch 52.5 (67469) - http://www.bohemiancoding.com/sketch -->
    <title>dragon</title>
    <desc>Created with Sketch.</desc>
    <defs>
        <path d="M2.57160682,11.9931357 L7.99063961,11.000312 L5.14258967,13.1435257 C4.82808109,13.4580343 5.050858,13.9956318 5.49547579,13.9956318 L12.4439938,13.9956318 C12.149454,13.1719189 11.9843994,12.2960998 11.9843994,11.3940718 L11.9843994,10.075195 L8.24867393,7.34196566 C7.5054602,6.84648983 6.52355691,6.90483617 5.84430574,7.48517938 L2.1812792,11.1151326 C1.79500775,11.4374415 2.0736349,12.0642746 2.57160682,11.9931357 Z M19.9466459,13.0570983 L16.8059283,11.4873635 C16.2986752,11.2337469 15.9782264,10.7153277 15.9781591,10.1482059 L15.9781591,9.00343212 L17.975039,9.00343212 L18.8514821,9.70951637 C19.0386896,9.89672386 19.2926677,10.0018721 19.5575663,10.0018721 L20.523869,10.0018721 C20.9020372,10.0018474 21.2477366,9.78817082 21.4168487,9.44992198 L21.8633386,8.55694226 C22.0324331,8.21869624 21.9959566,7.81395139 21.7691108,7.51138843 L19.4436818,4.41060839 C19.2549142,4.15912633 18.9591264,4.01248046 18.6449298,4.01248046 L11.2361934,4.01248046 C11.0137285,4.01248046 10.9023401,4.27987516 11.0595944,4.43712945 L12.9828393,6.00811229 L11.123869,6.7831513 C10.9397816,6.87519498 10.9397816,7.13759748 11.123869,7.22964116 L12.9828393,8.00499218 L12.9828393,11.3940718 C12.9828393,13.6430577 14.1070203,15.7432137 15.9781591,16.9909517 C9.87550701,17.2034322 5.22745706,18.2705149 2.4336973,18.8914197 C2.18034316,18.9475819 1.99999995,19.1725429 1.99999995,19.4321373 C1.99999995,19.7379096 2.24804987,19.9875195 2.55413412,19.9875195 L18.1260531,19.9875195 C20.1007801,19.9878316 21.8580344,18.5035882 21.9634946,16.5316693 C22.0421217,15.0564743 21.2542902,13.7110765 19.9466459,13.0570983 Z M17.2630265,6.07956315 L18.6873635,6.43556939 C18.6015601,6.77597501 18.298284,7.02496097 17.9344774,7.00530419 C17.5301092,6.9831513 17.1279251,6.61435255 17.2630265,6.07956315 Z" id="path-1"></path>
    </defs>
    <g id="dragon" stroke="none" stroke-width="1" fill="none" fill-rule="evenodd">
        <mask id="mask-2" fill="white">
            <use xlink:href="#path-1"></use>
        </mask>
        <g fill-rule="nonzero"></g>
        <g id="🎨-color" mask="url(#mask-2)" fill="#000000">
            <rect id="🎨-Color" x="0" y="0" width="24" height="24"></rect>
        </g>
    </g>
</svg>