<?xml version="1.0" encoding="UTF-8"?>
<svg width="24px" height="24px" viewBox="0 0 24 24" version="1.1" xmlns="http://www.w3.org/2000/svg" xmlns:xlink="http://www.w3.org/1999/xlink">
    <!-- Generator: Sketch 52.5 (67469) - http://www.bohemiancoding.com/sketch -->
    <title>draw-polygon</title>
    <desc>Created with Sketch.</desc>
    <defs>
        <path d="M18.25,15.75 C18.2363282,15.75 18.2238282,15.7539063 18.2101563,15.7539063 L16.6789063,13.2023438 C16.8769531,12.8441406 17,12.4382813 17,12 C17,11.5617187 16.8773438,11.1558594 16.6789063,10.7976562 L18.2101563,8.24609373 C18.2238282,8.24648436 18.2363282,8.24999998 18.25,8.24999998 C19.6308594,8.24999998 20.75,7.13085935 20.75,5.74999997 C20.75,4.36914059 19.6308594,3.24999996 18.25,3.24999996 C17.3269532,3.24999996 16.5296875,3.75585933 16.096875,4.49999996 L7.90312498,4.49999996 C7.47031248,3.75585933 6.67304685,3.24999996 5.74999997,3.24999996 C4.36914059,3.24999996 3.24999996,4.36914059 3.24999996,5.74999997 C3.24999996,6.67304685 3.75585933,7.47031248 4.49999996,7.90312498 L4.49999996,16.0964844 C3.75585933,16.5296875 3.24999996,17.3269532 3.24999996,18.25 C3.24999996,19.6308594 4.36914059,20.75 5.74999997,20.75 C6.67304685,20.75 7.47031248,20.2441407 7.90312498,19.5 L16.0964844,19.5 C16.5296875,20.2441407 17.3265625,20.75 18.2496094,20.75 C19.6304688,20.75 20.7496094,19.6308594 20.7496094,18.25 C20.75,16.8691406 19.6308594,15.75 18.25,15.75 Z M6.99999997,16.096875 L6.99999997,7.90312498 C7.37435261,7.6856077 7.6856077,7.37435261 7.90312498,6.99999997 L16.0421875,6.99999997 L14.5398438,9.50390624 C14.5261719,9.50351561 14.5136719,9.49999999 14.5,9.49999999 C13.1191406,9.49999999 12,10.6191406 12,12 C12,13.3808594 13.1191406,14.5 14.5,14.5 C14.5136719,14.5 14.5261719,14.4960938 14.5398438,14.4960938 L16.0421875,17 L7.90312498,17 C7.68571847,16.6255622 7.37443783,16.3142815 6.99999997,16.096875 Z M13.875,12 C13.875,11.6554687 14.1554688,11.375 14.5,11.375 C14.8445313,11.375 15.125,11.6554687 15.125,12 C15.125,12.3445313 14.8445313,12.625 14.5,12.625 C14.1554688,12.625 13.875,12.3445313 13.875,12 Z M18.875,5.74999997 C18.875,6.09453122 18.5945313,6.37499997 18.25,6.37499997 C17.9054688,6.37499997 17.625,6.09453122 17.625,5.74999997 C17.625,5.40546872 17.9054688,5.12499997 18.25,5.12499997 C18.5945313,5.12499997 18.875,5.40546872 18.875,5.74999997 Z M5.74999997,5.12499997 C6.09453122,5.12499997 6.37499997,5.40546872 6.37499997,5.74999997 C6.37499997,6.09453122 6.09453122,6.37499997 5.74999997,6.37499997 C5.40546872,6.37499997 5.12499997,6.09453122 5.12499997,5.74999997 C5.12499997,5.40546872 5.40546872,5.12499997 5.74999997,5.12499997 Z M5.12499997,18.25 C5.12499997,17.9054688 5.40546872,17.625 5.74999997,17.625 C6.09453122,17.625 6.37499997,17.9054688 6.37499997,18.25 C6.37499997,18.5945313 6.09453122,18.875 5.74999997,18.875 C5.40546872,18.875 5.12499997,18.5945313 5.12499997,18.25 Z M18.25,18.875 C17.9054688,18.875 17.625,18.5945313 17.625,18.25 C17.625,17.9054688 17.9054688,17.625 18.25,17.625 C18.5945313,17.625 18.875,17.9054688 18.875,18.25 C18.875,18.5945313 18.5945313,18.875 18.25,18.875 Z" id="path-1"></path>
    </defs>
    <g id="draw-polygon" stroke="none" stroke-width="1" fill="none" fill-rule="evenodd">
        <mask id="mask-2" fill="white">
            <use xlink:href="#path-1"></use>
        </mask>
        <g fill-rule="nonzero"></g>
        <g id="🎨-color" mask="url(#mask-2)" fill="#000000">
            <rect id="🎨-Color" x="0" y="0" width="24" height="24"></rect>
        </g>
    </g>
</svg>