<?xml version="1.0" encoding="UTF-8"?>
<svg width="24px" height="24px" viewBox="0 0 24 24" version="1.1" xmlns="http://www.w3.org/2000/svg" xmlns:xlink="http://www.w3.org/1999/xlink">
    <!-- Generator: Sketch 52.5 (67469) - http://www.bohemiancoding.com/sketch -->
    <title>dribbble-square</title>
    <desc>Created with Sketch.</desc>
    <defs>
        <path d="M6.77343747,10.9140625 C7.12109373,9.25781249 8.23437498,7.87890623 9.73046874,7.17578123 C9.87109374,7.36718748 10.8242187,8.69140623 11.7109375,10.2617187 C9.21093749,10.9257812 7.01171873,10.9179687 6.77343747,10.9140625 Z M15.5390625,8.01562498 C14.2265625,6.85156247 12.4414063,6.41015622 10.75,6.82031247 C10.8984375,7.01953123 11.8671875,8.33984373 12.7421875,9.94531249 C14.640625,9.23046874 15.4414063,8.15234373 15.5390625,8.01562498 Z M8.72265623,16.21875 C10.3046875,17.453125 12.3671875,17.6523438 14.0859375,16.921875 C14.0078125,16.453125 13.6953125,14.8203125 12.9453125,12.875 C10.7929687,13.609375 9.28124999,15.078125 8.72265623,16.21875 Z M12.5820313,11.9921875 C12.4492188,11.6875 12.3007813,11.3867187 12.1484375,11.0859375 C9.48437499,11.8828125 6.89843747,11.8515625 6.66406247,11.84375 C6.66406247,11.8984375 6.66015622,11.953125 6.66015622,12.0078125 C6.66015622,13.3789063 7.17968748,14.6289063 8.03124998,15.578125 C8.89843748,14.0976563 10.6523437,12.5351563 12.5820313,11.9921875 Z M13.9453125,12.6289063 C14.6445313,14.546875 14.9257813,16.109375 14.9804688,16.4335938 C16.1796875,15.625 17.03125,14.3398438 17.2695313,12.8554688 C17.0898438,12.796875 15.6171875,12.359375 13.9453125,12.6289063 Z M13.1523438,10.7382812 C13.3398438,11.1210937 13.4765625,11.4335937 13.6210938,11.7851562 C15.3984375,11.5625 17.1640625,11.9179687 17.3398438,11.9570312 C17.328125,10.6953125 16.8789063,9.53906249 16.1328125,8.63281248 C16.0195313,8.78515623 15.125,9.92968749 13.1523438,10.7382812 Z M20.75,5.12499997 L20.75,18.875 C20.75,19.9101563 19.9101563,20.75 18.875,20.75 L5.12499997,20.75 C4.08984371,20.75 3.24999996,19.9101563 3.24999996,18.875 L3.24999996,5.12499997 C3.24999996,4.08984371 4.08984371,3.24999996 5.12499997,3.24999996 L18.875,3.24999996 C19.9101563,3.24999996 20.75,4.08984371 20.75,5.12499997 Z M18.25,12 C18.25,8.55468748 15.4453125,5.74999997 12,5.74999997 C8.55468748,5.74999997 5.74999997,8.55468748 5.74999997,12 C5.74999997,15.4453125 8.55468748,18.25 12,18.25 C15.4453125,18.25 18.25,15.4453125 18.25,12 Z" id="path-1"></path>
    </defs>
    <g id="dribbble-square" stroke="none" stroke-width="1" fill="none" fill-rule="evenodd">
        <mask id="mask-2" fill="white">
            <use xlink:href="#path-1"></use>
        </mask>
        <g fill-rule="nonzero"></g>
        <g id="🎨-color" mask="url(#mask-2)" fill="#000000">
            <rect id="🎨-Color" x="0" y="0" width="24" height="24"></rect>
        </g>
    </g>
</svg>