<?xml version="1.0" encoding="UTF-8"?>
<svg width="24px" height="24px" viewBox="0 0 24 24" version="1.1" xmlns="http://www.w3.org/2000/svg" xmlns:xlink="http://www.w3.org/1999/xlink">
    <!-- Generator: Sketch 52.5 (67469) - http://www.bohemiancoding.com/sketch -->
    <title>dribbble</title>
    <desc>Created with Sketch.</desc>
    <defs>
        <path d="M12,2.31249995 C6.65828122,2.31249995 2.31249995,6.65828122 2.31249995,12 C2.31249995,17.3417188 6.65828122,21.6875 12,21.6875 C17.3417188,21.6875 21.6875,17.3417188 21.6875,12 C21.6875,6.65828122 17.3417188,2.31249995 12,2.31249995 Z M18.4050782,6.77992185 C19.5575391,8.18796873 20.2554297,9.98136718 20.2736329,11.9344141 C20.0008204,11.8767187 17.2651172,11.3218359 14.511836,11.6680859 C14.2871484,11.1196094 14.0750781,10.6371094 13.7846094,10.0425391 C16.8440235,8.79343748 18.230625,7.01589841 18.4050782,6.77992185 Z M17.4851953,5.82304684 C17.3363672,6.03503903 16.0907813,7.70921873 13.1484375,8.8120703 C11.7925,6.32082028 10.2896484,4.27425777 10.0609375,3.96800777 C12.685,3.33546871 15.4502344,4.01761715 17.4851953,5.82304684 Z M8.48207029,4.52421871 C8.70023436,4.8233984 10.1788672,6.87249997 11.5499219,9.30972655 C7.67933592,10.3375781 4.27023434,10.3227734 3.90015621,10.3178906 C4.43671871,7.75019529 6.16710935,5.61613278 8.48207029,4.52421871 Z M3.72539058,12.0126172 C3.72539058,11.9280078 3.72707027,11.8437891 3.72960933,11.7597656 C4.09164059,11.7671875 8.10148436,11.8188672 12.23375,10.5821875 C12.470625,11.0457812 12.6969141,11.5163672 12.9046094,11.9864453 C9.91246093,12.8292188 7.19390623,15.2492188 5.85261716,17.5452735 C4.53101559,16.0783203 3.72539058,14.1378906 3.72539058,12.0126172 Z M6.92097654,18.5404688 C7.78531248,16.7735547 10.1310547,14.4927344 13.4670313,13.3546875 C14.62875,16.3735547 15.1091797,18.9036328 15.2322266,19.6296094 C12.5716016,20.7629297 9.37226561,20.4519922 6.92097654,18.5404688 Z M16.6233203,18.8720703 C16.5385156,18.368711 16.098086,15.9464063 15.0158203,12.9723438 C17.6087891,12.5572656 19.8869141,13.2367188 20.17,13.3260547 C19.8011719,15.6284375 18.4796485,17.616836 16.6233203,18.8720703 Z" id="path-1"></path>
    </defs>
    <g id="dribbble" stroke="none" stroke-width="1" fill="none" fill-rule="evenodd">
        <mask id="mask-2" fill="white">
            <use xlink:href="#path-1"></use>
        </mask>
        <g fill-rule="nonzero"></g>
        <g id="🎨-color" mask="url(#mask-2)" fill="#000000">
            <rect id="🎨-Color" x="0" y="0" width="24" height="24"></rect>
        </g>
    </g>
</svg>