<?xml version="1.0" encoding="UTF-8"?>
<svg width="24px" height="24px" viewBox="0 0 24 24" version="1.1" xmlns="http://www.w3.org/2000/svg" xmlns:xlink="http://www.w3.org/1999/xlink">
    <!-- Generator: Sketch 52.5 (67469) - http://www.bohemiancoding.com/sketch -->
    <title>drum</title>
    <desc>Created with Sketch.</desc>
    <defs>
        <path d="M17.8779896,7.31646445 L21.4270364,5.18717501 C21.952513,4.87209702 22.1223571,4.19064121 21.8072791,3.6651646 C21.4918545,3.14003462 20.8110919,2.96949736 20.2852687,3.28492197 L14.7154246,6.62668975 C13.8090199,6.51197833 12.8963036,6.45432578 11.982669,6.45407276 C6.46932406,6.45407276 1.99999995,8.44055457 1.99999995,10.8908146 L1.99999995,16.4655113 C1.99999995,17.5213172 2.8329289,18.4897747 4.21837084,19.2512999 L4.21837084,15.9109186 C4.21837084,15.3008666 4.7175043,14.8017331 5.32755629,14.8017331 C5.93760829,14.8017331 6.43674174,15.3008666 6.43674174,15.9109186 L6.43674174,20.1538995 C7.73310223,20.5396881 9.2443674,20.7930676 10.8734835,20.873137 L10.8734835,17.0204506 C10.8734835,16.4103986 11.372617,15.9112652 11.982669,15.9112652 C12.592721,15.9112652 13.0918544,16.4103986 13.0918544,17.0204506 L13.0918544,20.8734836 C14.7209706,20.7934143 16.2322357,20.5400347 17.5285962,20.1542461 L17.5285962,15.9112652 C17.5285962,15.3012132 18.0277297,14.8020797 18.6377817,14.8020797 C19.2478337,14.8020797 19.7469671,15.3012132 19.7469671,15.9112652 L19.7469671,19.2516465 C21.1324091,18.4901213 21.965338,17.5216638 21.965338,16.4658579 L21.965338,10.8911612 C21.9649914,9.4221837 20.3521664,8.12374348 17.8779896,7.31646445 Z M11.982669,13.6637782 C7.38821488,13.6637782 3.66377812,12.4221837 3.66377812,10.8908146 C3.66377812,9.35944539 7.38821488,8.11785093 11.982669,8.11785093 C12.0637782,8.11785093 12.1428076,8.12131714 12.2232236,8.12201038 L9.1934142,9.93968803 C8.66793759,10.254766 8.49809357,10.9362218 8.81317156,11.4616984 C9.14454071,12.0138648 9.83604852,12.1414211 10.335182,11.8419411 L15.9750433,8.45823222 C18.5528597,8.92928941 20.3015598,9.84194106 20.3015598,10.8911612 C20.3015598,12.4225303 16.5767765,13.6637782 11.982669,13.6637782 Z" id="path-1"></path>
    </defs>
    <g id="drum" stroke="none" stroke-width="1" fill="none" fill-rule="evenodd">
        <mask id="mask-2" fill="white">
            <use xlink:href="#path-1"></use>
        </mask>
        <g fill-rule="nonzero"></g>
        <g id="🎨-color" mask="url(#mask-2)" fill="#000000">
            <rect id="🎨-Color" x="0" y="0" width="24" height="24"></rect>
        </g>
    </g>
</svg>