<?xml version="1.0" encoding="UTF-8"?>
<svg width="24px" height="24px" viewBox="0 0 24 24" version="1.1" xmlns="http://www.w3.org/2000/svg" xmlns:xlink="http://www.w3.org/1999/xlink">
    <!-- Generator: Sketch 52.5 (67469) - http://www.bohemiancoding.com/sketch -->
    <title>drum-steelpan</title>
    <desc>Created with Sketch.</desc>
    <defs>
        <path d="M12,4.22222218 C6.47708331,4.22222218 1.99999995,6.21215275 1.99999995,8.66666665 L1.99999995,15.3333333 C1.99999995,17.7878473 6.47708331,19.7777778 12,19.7777778 C17.5229167,19.7777778 22.0000001,17.7878473 22.0000001,15.3333333 L22.0000001,8.66666665 C22.0000001,6.21215275 17.5229167,4.22222218 12,4.22222218 Z M9.11840276,9.72083332 C8.96388887,10.2975694 8.61354165,10.7822917 8.13541665,11.1263889 C5.4802083,10.6618055 3.66666662,9.73541666 3.66666662,8.66666665 C3.66666662,7.61944442 5.40659719,6.70868053 7.97361109,6.23506942 L8.86249998,7.77465276 C9.2048611,8.36805554 9.29583332,9.05902776 9.11840276,9.72083332 Z M12,11.4444444 C11.2680556,11.4444444 10.5621528,11.4097222 9.88576388,11.3506944 C10.165625,10.4434028 11.0020833,9.77777777 12,9.77777777 C12.9979167,9.77777777 13.834375,10.4434028 14.1142361,11.3506944 C13.4378472,11.4097222 12.7319444,11.4444444 12,11.4444444 Z M14.2222222,6.44444442 C14.2222222,7.66979165 13.2253472,8.66666665 12,8.66666665 C10.7746528,8.66666665 9.77777777,7.66979165 9.77777777,6.44444442 L9.77777777,5.99166664 C10.4861111,5.92638886 11.2291667,5.88888886 12,5.88888886 C12.7708333,5.88888886 13.5138889,5.92638886 14.2222222,5.99166664 L14.2222222,6.44444442 Z M15.8517361,11.1284722 C15.3722222,10.784375 15.0204861,10.2986111 14.865625,9.72083332 C14.6881945,9.05902776 14.7791667,8.36805554 15.121875,7.77499998 L16.0125,6.23263886 C18.5875,6.70486108 20.3333334,7.61770831 20.3333334,8.66666665 C20.3333334,9.73715277 18.5138889,10.6645833 15.8517361,11.1284722 Z" id="path-1"></path>
    </defs>
    <g id="drum-steelpan" stroke="none" stroke-width="1" fill="none" fill-rule="evenodd">
        <mask id="mask-2" fill="white">
            <use xlink:href="#path-1"></use>
        </mask>
        <g fill-rule="nonzero"></g>
        <g id="🎨-color" mask="url(#mask-2)" fill="#000000">
            <rect id="🎨-Color" x="0" y="0" width="24" height="24"></rect>
        </g>
    </g>
</svg>