<?xml version="1.0" encoding="UTF-8"?>
<svg width="24px" height="24px" viewBox="0 0 24 24" version="1.1" xmlns="http://www.w3.org/2000/svg" xmlns:xlink="http://www.w3.org/1999/xlink">
    <!-- Generator: Sketch 52.5 (67469) - http://www.bohemiancoding.com/sketch -->
    <title>drupal</title>
    <desc>Created with Sketch.</desc>
    <defs>
        <path d="M15.7304688,6.48046872 C14.8632813,5.93359372 14.03125,5.71874997 13.203125,5.17187497 C12.6953125,4.82812496 11.9804687,3.99999996 11.3867187,3.28515621 C11.28125,4.42968746 10.9375,4.89453121 10.5273437,5.21874997 C9.69531249,5.88281247 9.16796874,6.08593747 8.43749998,6.48046872 C7.82031248,6.80468747 4.49999996,9.08984374 4.49999996,13.3476563 C4.49999996,17.6132813 8.08593748,20.75 12.0703125,20.75 C16.0429688,20.75 19.5,17.859375 19.5,13.484375 C19.5,9.09765624 16.2578125,6.80468747 15.7304688,6.48046872 Z M15.828125,19.1992188 C15.0429688,19.984375 12.3085938,20.3203125 11.2695312,19.3632813 C11.0820312,19.1757813 11.28125,18.8945313 11.5234375,18.8945313 C11.5234375,18.8945313 12.1875,19.4140625 13.5351563,19.4140625 C14.5898438,19.4140625 15.3320313,19.1132813 15.6640625,18.8671875 C15.9023438,18.6875 15.9921875,19.0351563 15.828125,19.1992188 Z M13.6992188,17.1445313 C14.0390625,17.0039063 14.8320313,16.9960938 15.1367188,17.1953125 C15.296875,17.3046875 15.765625,17.9296875 15.3789063,18.1210938 C15.0507813,18.2851563 15.3320313,17.5078125 14.34375,17.5078125 C13.7695313,17.5078125 13.5820313,17.7109375 13.3007813,17.9375 C13.0273438,18.171875 12.9179688,18.25 12.8242188,18.1210938 C12.5898438,17.8007813 13.4453125,17.25 13.6992188,17.1445313 Z M17.3125,17.8203125 C16.71875,17.78125 15.5351563,15.9140625 14.7734375,15.8867188 C13.5664063,15.8515625 10.7070312,19.0390625 8.47265623,17.5273438 C6.95703122,16.4882813 7.90234373,13.4335938 10.4960937,13.4179688 C12.4296875,13.3984375 13.7695313,15.3320313 14.734375,15.3125 C15.5664063,15.3007813 17.1484375,13.6796875 17.9296875,13.6796875 C19.8320313,13.6796875 18.8398438,17.9492188 17.3125,17.8203125 Z" id="path-1"></path>
    </defs>
    <g id="drupal" stroke="none" stroke-width="1" fill="none" fill-rule="evenodd">
        <mask id="mask-2" fill="white">
            <use xlink:href="#path-1"></use>
        </mask>
        <g fill-rule="nonzero"></g>
        <g id="🎨-color" mask="url(#mask-2)" fill="#000000">
            <rect id="🎨-Color" x="0" y="0" width="24" height="24"></rect>
        </g>
    </g>
</svg>