<?xml version="1.0" encoding="UTF-8"?>
<svg width="24px" height="24px" viewBox="0 0 24 24" version="1.1" xmlns="http://www.w3.org/2000/svg" xmlns:xlink="http://www.w3.org/1999/xlink">
    <!-- Generator: Sketch 52.5 (67469) - http://www.bohemiancoding.com/sketch -->
    <title>dumbbell</title>
    <desc>Created with Sketch.</desc>
    <defs>
        <path d="M5.24999997,6.99999998 L3.74999996,6.99999998 C3.33437496,6.99999998 2.99999995,7.33437498 2.99999995,7.74999998 L2.99999995,11 L2.24999995,11 C2.11249995,11 1.99999995,11.1125 1.99999995,11.25 L1.99999995,12.75 C1.99999995,12.8875 2.11249995,13 2.24999995,13 L2.99999995,13 L2.99999995,16.25 C2.99999995,16.665625 3.33437496,17 3.74999996,17 L5.24999997,17 C5.66562497,17 5.99999997,16.665625 5.99999997,16.25 L5.99999997,7.74999998 C5.99999997,7.33437498 5.66562497,6.99999998 5.24999997,6.99999998 Z M21.75,11 L21,11 L21,7.74999998 C21,7.33437498 20.665625,6.99999998 20.25,6.99999998 L18.75,6.99999998 C18.334375,6.99999998 18,7.33437498 18,7.74999998 L18,16.25 C18,16.665625 18.334375,17 18.75,17 L20.25,17 C20.665625,17 21,16.665625 21,16.25 L21,13 L21.75,13 C21.8875,13 22.0000001,12.8875 22.0000001,12.75 L22.0000001,11.25 C22.0000001,11.1125 21.8875,11 21.75,11 Z M16.25,4.99999997 L14.75,4.99999997 C14.334375,4.99999997 14,5.33437497 14,5.74999997 L14,11 L9.99999999,11 L9.99999999,5.74999997 C9.99999999,5.33437497 9.66562499,4.99999997 9.24999999,4.99999997 L7.74999998,4.99999997 C7.33437498,4.99999997 6.99999997,5.33437497 6.99999997,5.74999997 L6.99999997,18.25 C6.99999997,18.665625 7.33437498,19 7.74999998,19 L9.24999999,19 C9.66562499,19 9.99999999,18.665625 9.99999999,18.25 L9.99999999,13 L14,13 L14,18.25 C14,18.665625 14.334375,19 14.75,19 L16.25,19 C16.665625,19 17,18.665625 17,18.25 L17,5.74999997 C17,5.33437497 16.665625,4.99999997 16.25,4.99999997 Z" id="path-1"></path>
    </defs>
    <g id="dumbbell" stroke="none" stroke-width="1" fill="none" fill-rule="evenodd">
        <mask id="mask-2" fill="white">
            <use xlink:href="#path-1"></use>
        </mask>
        <g fill-rule="nonzero"></g>
        <g id="🎨-color" mask="url(#mask-2)" fill="#000000">
            <rect id="🎨-Color" x="0" y="0" width="24" height="24"></rect>
        </g>
    </g>
</svg>