<?xml version="1.0" encoding="UTF-8"?>
<svg width="24px" height="24px" viewBox="0 0 24 24" version="1.1" xmlns="http://www.w3.org/2000/svg" xmlns:xlink="http://www.w3.org/1999/xlink">
    <!-- Generator: Sketch 52.5 (67469) - http://www.bohemiancoding.com/sketch -->
    <title>dungeon</title>
    <desc>Created with Sketch.</desc>
    <defs>
        <path d="M7.0285156,9.62968749 L3.79374996,7.60781248 C3.47968746,7.41171873 3.05195308,7.52304685 2.89804683,7.8597656 C2.39594717,8.9590796 2.09875754,10.1408221 2.0210937,11.346875 C1.99804682,11.7019531 2.29648433,12 2.65195308,12 L6.44609372,12 C6.75703122,12 6.99609372,11.7558594 7.03242185,11.446875 C7.07499998,11.0824219 7.15898435,10.7308594 7.27617185,10.3945312 C7.37617185,10.1078125 7.28593748,9.79062499 7.0285156,9.62968749 Z M14.4621094,2.31249995 C13.6742188,2.1101562 12.8503906,1.99999995 12,1.99999995 C11.1496094,1.99999995 10.3257812,2.1101562 9.53789061,2.31249995 C9.17968749,2.40429683 8.99453123,2.80468745 9.13203124,3.14804683 L10.5957031,7.21171873 C10.6849887,7.45960646 10.9201166,7.62489903 11.1835937,7.62499998 L12.8164063,7.62499998 C13.0800781,7.62499998 13.3152344,7.4597656 13.4042969,7.21171873 L14.8679688,3.14804683 C15.0054688,2.80468745 14.8203125,2.40468745 14.4621094,2.31249995 Z M6.37499997,13.25 L2.62499995,13.25 C2.27968745,13.25 1.99999995,13.5296875 1.99999995,13.875 L1.99999995,16.375 C1.99999995,16.7203125 2.27968745,17 2.62499995,17 L6.37499997,17 C6.72031247,17 6.99999997,16.7203125 6.99999997,16.375 L6.99999997,13.875 C6.99999997,13.5296875 6.72031247,13.25 6.37499997,13.25 Z M6.37499997,18.25 L2.62499995,18.25 C2.27968745,18.25 1.99999995,18.5296875 1.99999995,18.875 L1.99999995,21.375 C1.99999995,21.7203125 2.27968745,22.0000001 2.62499995,22.0000001 L6.37499997,22.0000001 C6.72031247,22.0000001 6.99999997,21.7203125 6.99999997,21.375 L6.99999997,18.875 C6.99999997,18.5296875 6.72031247,18.25 6.37499997,18.25 Z M9.39492186,7.1691406 L7.97617185,3.62226558 C7.83828123,3.27734371 7.42421873,3.11484371 7.1003906,3.29765621 C6.03312349,3.9003913 5.08510217,4.69325538 4.30312496,5.63710934 C4.06640621,5.92304684 4.15273434,6.35898435 4.46796871,6.55585935 L7.70742185,8.58046873 C7.96171873,8.73945311 8.28007811,8.68281248 8.49296873,8.47148436 C8.69531248,8.27031248 8.91445311,8.08671873 9.14882811,7.92265623 C9.39414061,7.7503906 9.50624999,7.4472656 9.39492186,7.1691406 Z M17.5539063,12 L21.3480469,12 C21.7035157,12 22.0019532,11.7019531 21.9789063,11.346875 C21.9012902,10.1408146 21.6040985,8.95906359 21.1019532,7.8597656 C20.9480469,7.52304685 20.5203125,7.41171873 20.20625,7.60781248 L16.9714844,9.62968749 C16.7140625,9.79062499 16.6238281,10.1078125 16.7238281,10.3945312 C16.8414063,10.7308594 16.925,11.0828125 16.9675781,11.446875 C17.0039063,11.7558594 17.2429688,12 17.5539063,12 Z M19.6964844,5.63710934 C18.9145072,4.69325538 17.9664859,3.9003913 16.8992188,3.29765621 C16.5757813,3.11484371 16.1617188,3.27734371 16.0234375,3.62226558 L14.6046875,7.1691406 C14.4933594,7.4472656 14.6054688,7.7503906 14.8507813,7.9222656 C15.0851563,8.08632811 15.3042969,8.26992186 15.5066406,8.47109373 C15.7191406,8.68242186 16.0378906,8.73906248 16.2921875,8.58007811 L19.5316407,6.55546872 C19.846875,6.35898435 19.9335938,5.92304684 19.6964844,5.63710934 Z M21.375,13.25 L17.625,13.25 C17.2796875,13.25 17,13.5296875 17,13.875 L17,16.375 C17,16.7203125 17.2796875,17 17.625,17 L21.375,17 C21.7203125,17 22.0000001,16.7203125 22.0000001,16.375 L22.0000001,13.875 C22.0000001,13.5296875 21.7203125,13.25 21.375,13.25 Z M21.375,18.25 L17.625,18.25 C17.2796875,18.25 17,18.5296875 17,18.875 L17,21.375 C17,21.7203125 17.2796875,22.0000001 17.625,22.0000001 L21.375,22.0000001 C21.7203125,22.0000001 22.0000001,21.7203125 22.0000001,21.375 L22.0000001,18.875 C22.0000001,18.5296875 21.7203125,18.25 21.375,18.25 Z M11.375,8.93828123 L11.375,20.4375 C11.375,20.6101563 11.5148437,20.75 11.6875,20.75 L12.3125,20.75 C12.4851563,20.75 12.625,20.6101563 12.625,20.4375 L12.625,8.93828123 C12.4207031,8.90351561 12.2140625,8.87499998 12,8.87499998 C11.7859375,8.87499998 11.5792969,8.90351561 11.375,8.93828123 Z M8.87499998,10.5597656 L8.87499998,20.4375 C8.87499998,20.6101563 9.01484374,20.75 9.18749999,20.75 L9.81249999,20.75 C9.98515624,20.75 10.125,20.6101563 10.125,20.4375 L10.125,9.39687499 C9.62578124,9.68789061 9.19374999,10.0792969 8.87499998,10.5597656 Z M13.875,9.39687499 L13.875,20.4375 C13.875,20.6101563 14.0148438,20.75 14.1875,20.75 L14.8125,20.75 C14.9851563,20.75 15.125,20.6101563 15.125,20.4375 L15.125,10.5597656 C14.80625,10.0792969 14.3742188,9.68789061 13.875,9.39687499 Z" id="path-1"></path>
    </defs>
    <g id="dungeon" stroke="none" stroke-width="1" fill="none" fill-rule="evenodd">
        <mask id="mask-2" fill="white">
            <use xlink:href="#path-1"></use>
        </mask>
        <g fill-rule="nonzero"></g>
        <g id="🎨-color" mask="url(#mask-2)" fill="#000000">
            <rect id="🎨-Color" x="0" y="0" width="24" height="24"></rect>
        </g>
    </g>
</svg>