<?xml version="1.0" encoding="UTF-8"?>
<svg width="24px" height="24px" viewBox="0 0 24 24" version="1.1" xmlns="http://www.w3.org/2000/svg" xmlns:xlink="http://www.w3.org/1999/xlink">
    <!-- Generator: Sketch 52.5 (67469) - http://www.bohemiancoding.com/sketch -->
    <title>earlybirds</title>
    <desc>Created with Sketch.</desc>
    <defs>
        <path d="M14.8789063,3.85546871 C14.9257813,3.34765621 15.7109375,3.30859371 16.3085938,3.51562496 C16.34375,3.52734371 17.3320313,3.89453121 17.0507813,4.10937496 C15.9609375,3.82031246 14.8476563,4.82031246 14.8789063,3.85546871 Z M7.02734373,4.12499996 C8.22656248,3.80859371 9.44921874,4.90624996 9.41406249,3.84765621 C9.36328124,3.29296871 8.49999998,3.24999996 7.84374998,3.47265621 C7.80468748,3.48437496 6.72265622,3.88281246 7.02734373,4.12499996 Z M15.1210938,8.24999998 C14.7773438,8.24999998 14.4960938,8.53124998 14.4960938,8.87499998 C14.4960938,9.21874999 14.7773438,9.49999999 15.1210938,9.49999999 C15.4648438,9.49999999 15.7460938,9.21874999 15.7460938,8.87499998 C15.7460938,8.53124998 15.4648438,8.24999998 15.1210938,8.24999998 Z M8.88281248,8.24999998 C8.53906248,8.24999998 8.25781248,8.53124998 8.25781248,8.87499998 C8.25781248,9.21874999 8.53906248,9.49999999 8.88281248,9.49999999 C9.22656249,9.49999999 9.50781249,9.21874999 9.50781249,8.87499998 C9.50781249,8.53124998 9.22656249,8.24999998 8.88281248,8.24999998 Z M21.3242188,14.625 C20.9375,15.5625 19.734375,15.0546875 18.828125,14.578125 C18.3007813,17.2773438 16.5585938,18.9296875 13.8945313,19.4296875 C13.90625,19.4648438 13.8164063,19.4257813 14.8320313,19.46875 C16.1445313,19.5234375 17.3242188,19.3476563 18.6367188,19.15625 C17.8632813,18.6171875 18.1914063,17.7070313 18.2539063,17.6679688 C18.3085938,17.6328125 18.828125,17.734375 19.0976563,18.1171875 C19.4335938,17.6289063 20.2070313,17.5390625 20.2773438,17.5859375 C20.3398438,17.6289063 20.5351563,18.4023438 20.0078125,18.9375 C20.1914063,18.9023438 20.328125,18.875 20.390625,18.8554688 C20.4921875,18.8242188 21.0820313,19.296875 20.5117188,19.375 C19.953125,19.4648438 19.6289063,19.5742188 18.671875,19.796875 C16.8789063,20.2148438 15.3164063,20.2578125 14.0742188,20.296875 L14.1132813,20.75 C14.2617188,21.4570313 13.1992188,21.6992188 13.0351563,20.9921875 C13.0664063,21.6914063 11.9765625,21.84375 11.9257812,20.953125 L11.90625,21.1601563 C11.8789062,21.8789063 10.796875,21.859375 10.8007812,21.1367188 C10.5078125,21.6640625 9.70312499,21.4023438 9.76953124,20.8046875 L9.81640624,20.3203125 C8.38281248,20.3554688 7.48437498,20.4414063 7.40234373,20.4414063 C6.58593747,20.4414063 6.58593747,19.2070313 7.40234373,19.2070313 C7.49609373,19.2070313 8.48437498,19.2578125 9.87109374,19.3164063 C7.48437498,18.7109375 5.82031247,17.1679688 5.38281247,14.6992188 C4.40624996,15.1992188 3.13671871,15.7460938 2.71874995,14.7304688 C2.3085937,13.7382813 3.55859371,13.0664063 5.32812497,11.8632812 C5.35546872,11.6054687 5.39062497,11.34375 5.43359372,11.0898437 C4.87109371,10.3242187 4.98046871,9.67187499 4.80468746,8.73046873 C4.14843746,8.82421873 3.89843746,8.37499998 3.88281246,7.82812498 C3.89453121,7.54296873 3.96484371,7.24609373 3.97656246,7.22656248 C4.01953121,7.15624998 4.37109371,7.14843748 4.47265621,7.12499998 C4.70703121,5.88671872 6.44921872,5.82812497 8.02343748,5.77734372 C8.79296873,4.92578121 9.78906249,4.15624996 11.1835937,3.89062496 C10.5859375,3.13281246 11.0507812,2.3320312 11.0898437,2.31249995 C11.15625,2.28124995 11.9179687,2.4804687 12.1171875,3.21874996 C12.3203125,2.87499995 12.8320313,2.77343745 12.8828125,2.8007812 C12.9257813,2.8242187 13.1328125,3.38671871 12.6914063,3.81249996 C14.265625,3.94921871 15.5117188,4.77734371 16.4414063,5.79296872 C17.8515625,5.85156247 19.2460938,6.02343747 19.453125,7.12109373 C19.5585938,7.14453123 19.90625,7.15234373 19.9492188,7.22265623 C19.9609375,7.24218748 20.03125,7.53906248 20.0429688,7.82421873 C20.0234375,8.36718748 19.7773438,8.81640623 19.1210938,8.72656248 C18.9960938,9.40234374 19.015625,10.0117187 18.78125,10.5898437 C18.875,11.046875 18.9375,11.5195312 18.96875,12.0117188 C20.4140625,13.0039063 21.7148438,13.671875 21.3242188,14.625 Z M10.7460937,8.24609373 C10.78125,6.52734372 9.26562499,6.59765622 7.67578123,6.67187497 C6.82812497,6.71093747 6.15624997,6.74609372 5.89843747,7.21484373 C5.45312497,8.03124998 6.12890622,10.84375 6.80468747,11.1679687 C7.18749998,11.3515625 9.67187499,11.4765625 10.1757812,10.890625 C10.4960937,10.5234375 10.7617187,8.96093748 10.7460937,8.24609373 Z M12.7773438,10.5234375 C12.609375,10.0390625 12.5429688,9.34765624 12.1796875,9.24609374 C12.1015625,9.22656249 11.828125,9.22656249 11.75,9.24609374 C11.359375,9.35546874 11.328125,10.109375 11.0859375,10.6992187 C11.6875,10.6992187 11.8398437,11.078125 12.0117188,11.078125 C12.1796875,11.078125 12.2578125,10.6367187 12.7773438,10.5234375 Z M18.078125,7.21484373 C17.8203125,6.74218747 17.109375,6.71093747 16.2617188,6.67187497 C14.6914063,6.59765622 13.2070313,6.52343747 13.2421875,8.24609373 C13.2226563,8.96093748 13.4375,10.5234375 13.7578125,10.8945312 C14.265625,11.4765625 16.75,11.3554687 17.1289063,11.171875 C17.7460938,10.875 18.5546875,8.08984373 18.078125,7.21484373 Z" id="path-1"></path>
    </defs>
    <g id="earlybirds" stroke="none" stroke-width="1" fill="none" fill-rule="evenodd">
        <mask id="mask-2" fill="white">
            <use xlink:href="#path-1"></use>
        </mask>
        <g fill-rule="nonzero"></g>
        <g id="🎨-color" mask="url(#mask-2)" fill="#000000">
            <rect id="🎨-Color" x="0" y="0" width="24" height="24"></rect>
        </g>
    </g>
</svg>