<?xml version="1.0" encoding="UTF-8"?>
<svg width="24px" height="24px" viewBox="0 0 24 24" version="1.1" xmlns="http://www.w3.org/2000/svg" xmlns:xlink="http://www.w3.org/1999/xlink">
    <!-- Generator: Sketch 52.5 (67469) - http://www.bohemiancoding.com/sketch -->
    <title>ebay</title>
    <desc>Created with Sketch.</desc>
    <defs>
        <path d="M14.6625,12.24375 C13.753125,12.271875 13.1875,12.4375 13.1875,13.034375 C13.1875,13.421875 13.496875,13.840625 14.28125,13.840625 C15.334375,13.840625 15.89375,13.265625 15.89375,12.328125 L15.89375,12.225 C15.525,12.225 15.071875,12.228125 14.6625,12.24375 Z M16.896875,13.484375 C16.896875,13.775 16.90625,14.065625 16.928125,14.321875 L15.996875,14.321875 C15.971875,14.10625 15.9625,13.896875 15.9625,13.690625 C15.459375,14.309375 14.859375,14.4875 14.028125,14.4875 C12.79375,14.4875 12.134375,13.834375 12.134375,13.08125 C12.134375,11.9875 13.034375,11.603125 14.590625,11.56875 C15.01875,11.559375 15.496875,11.55625 15.89375,11.55625 L15.89375,11.45 C15.89375,10.71875 15.425,10.41875 14.6125,10.41875 C14.009375,10.41875 13.5625,10.66875 13.51875,11.1 L12.465625,11.1 C12.578125,10.025 13.70625,9.75312499 14.7,9.75312499 C15.890625,9.75312499 16.896875,10.175 16.896875,11.434375 L16.896875,13.484375 Z M5.99062497,11.709375 C5.91874997,9.99999999 3.25624996,9.94062499 3.04062496,11.709375 L5.99062497,11.709375 Z M3.02187496,12.378125 C3.13124996,14.2 5.49687497,14.171875 5.87187497,13.053125 L6.90624997,13.053125 C6.70624997,14.128125 5.56249997,14.49375 4.58124996,14.49375 C2.79374995,14.49375 2.00312495,13.509375 2.00312495,12.18125 C2.00312495,10.71875 2.82187495,9.75624999 4.59687496,9.75624999 C6.01249997,9.75624999 7.04687498,10.496875 7.04687498,12.1125 L7.04687498,12.378125 L3.02187496,12.378125 Z M9.61562499,13.80625 C10.546875,13.80625 11.184375,13.134375 11.184375,12.125 C11.184375,11.1125 10.546875,10.44375 9.61562499,10.44375 C8.69062498,10.44375 8.04687498,11.1125 8.04687498,12.125 C8.04687498,13.134375 8.69062498,13.80625 9.61562499,13.80625 Z M7.04687498,7.99374998 L8.04999998,7.99374998 L8.04999998,10.5125 C8.54062498,9.92812499 9.21874999,9.75624999 9.88437499,9.75624999 C11,9.75624999 12.240625,10.509375 12.240625,12.1375 C12.240625,13.5 11.25625,14.49375 9.86562499,14.49375 C9.13749999,14.49375 8.45624998,14.234375 8.03124998,13.715625 C8.03124998,13.921875 8.01874998,14.128125 7.99687498,14.325 L7.01249998,14.325 C7.02812498,14.00625 7.04687498,13.6125 7.04687498,13.290625 L7.04687498,7.99374998 Z M22,9.92187499 L18.9,16.009375 L17.778125,16.009375 L18.66875,14.31875 L16.3375,9.92187499 L17.509375,9.92187499 L19.225,13.35625 L20.9375,9.92187499 L22,9.92187499 Z" id="path-1"></path>
    </defs>
    <g id="ebay" stroke="none" stroke-width="1" fill="none" fill-rule="evenodd">
        <mask id="mask-2" fill="white">
            <use xlink:href="#path-1"></use>
        </mask>
        <g fill-rule="nonzero"></g>
        <g id="🎨-color" mask="url(#mask-2)" fill="#000000">
            <rect id="🎨-Color" x="0" y="0" width="24" height="24"></rect>
        </g>
    </g>
</svg>