<?xml version="1.0" encoding="UTF-8"?>
<svg width="24px" height="24px" viewBox="0 0 24 24" version="1.1" xmlns="http://www.w3.org/2000/svg" xmlns:xlink="http://www.w3.org/1999/xlink">
    <!-- Generator: Sketch 52.5 (67469) - http://www.bohemiancoding.com/sketch -->
    <title>edge</title>
    <desc>Created with Sketch.</desc>
    <defs>
        <path d="M3.02450152,10.9578633 C3.03560152,10.9416633 3.04750152,10.9255633 3.05870152,10.9093633 C3.05660152,10.9255633 3.05420152,10.9416633 3.05220152,10.9578633 L3.02450152,10.9578633 Z M20.9955469,11.5183984 C20.9955469,9.79839843 20.6926563,8.21898436 19.8705079,6.7369531 C18.2694532,3.8702734 15.4340625,2.31253901 12.1130078,2.31253901 C6.6469531,2.3017187 3.58660152,6.42242185 3.01781246,10.8937109 C4.67519528,8.49871092 7.59097654,6.15246091 11.6262109,6.01222653 C11.6262109,6.01222653 15.9100391,6.01222653 15.5097656,10.1121094 L8.6405078,10.1121094 C8.88929686,8.65171873 9.36527342,7.80796873 9.98187499,7.02906248 C7.05031248,8.39207029 5.22210934,10.7828125 5.26539059,14.3851172 C5.29781247,17.1760547 7.22335935,20.0427735 9.98191405,21.1029297 C13.2380469,22.3469532 17.5122266,21.3841797 19.3620703,20.269961 L19.3620703,16.1916797 C16.2033203,18.3984766 8.78117186,18.5715625 8.72710936,13.5521484 L20.995586,13.5521484 L20.995586,11.5183984 L20.9955469,11.5183984 Z" id="path-1"></path>
    </defs>
    <g id="edge" stroke="none" stroke-width="1" fill="none" fill-rule="evenodd">
        <mask id="mask-2" fill="white">
            <use xlink:href="#path-1"></use>
        </mask>
        <g fill-rule="nonzero"></g>
        <g id="🎨-color" mask="url(#mask-2)" fill="#000000">
            <rect id="🎨-Color" x="0" y="0" width="24" height="24"></rect>
        </g>
    </g>
</svg>