<?xml version="1.0" encoding="UTF-8"?>
<svg width="24px" height="24px" viewBox="0 0 24 24" version="1.1" xmlns="http://www.w3.org/2000/svg" xmlns:xlink="http://www.w3.org/1999/xlink">
    <!-- Generator: Sketch 52.5 (67469) - http://www.bohemiancoding.com/sketch -->
    <title>edit</title>
    <desc>Created with Sketch.</desc>
    <defs>
        <path d="M15.96875,15.1041667 L17.0798611,13.9930556 C17.2534722,13.8194445 17.5555556,13.9409722 17.5555556,14.1909722 L17.5555556,19.2395834 C17.5555556,20.1597223 16.8090278,20.90625 15.8888889,20.90625 L3.66666662,20.90625 C2.74652773,20.90625 1.99999995,20.1597223 1.99999995,19.2395834 L1.99999995,7.01736109 C1.99999995,6.09722219 2.74652773,5.35069441 3.66666662,5.35069441 L13.1631945,5.35069441 C13.4097222,5.35069441 13.5347222,5.64930552 13.3611111,5.82638886 L12.25,6.93749997 C12.1979167,6.98958331 12.1284722,7.01736109 12.0520833,7.01736109 L3.66666662,7.01736109 L3.66666662,19.2395834 L15.8888889,19.2395834 L15.8888889,15.2986111 C15.8888889,15.2256945 15.9166667,15.15625 15.96875,15.1041667 Z M21.40625,8.0972222 L12.2881944,17.2152778 L9.14930554,17.5625 C8.23958331,17.6631945 7.46527776,16.8958334 7.5659722,15.9791667 L7.91319442,12.8402778 L17.03125,3.72222218 C17.8263889,2.92708329 19.1111111,2.92708329 19.9027778,3.72222218 L21.4027778,5.22222219 C22.1979167,6.01736108 22.1979167,7.30555553 21.40625,8.0972222 Z M17.9756945,9.17013887 L15.9583334,7.15277775 L9.50694443,13.6076389 L9.25347221,15.875 L11.5208333,15.6215278 L17.9756945,9.17013887 Z M20.2256945,6.40277775 L18.7256945,4.90277774 C18.5833334,4.76041663 18.3506945,4.76041663 18.2118056,4.90277774 L17.1388889,5.97569441 L19.15625,7.99305554 L20.2291667,6.92013886 C20.3680556,6.77430553 20.3680556,6.54513886 20.2256945,6.40277775 Z" id="path-1"></path>
    </defs>
    <g id="edit" stroke="none" stroke-width="1" fill="none" fill-rule="evenodd">
        <mask id="mask-2" fill="white">
            <use xlink:href="#path-1"></use>
        </mask>
        <g fill-rule="nonzero"></g>
        <g id="🎨-color" mask="url(#mask-2)" fill="#000000">
            <rect id="🎨-Color" x="0" y="0" width="24" height="24"></rect>
        </g>
    </g>
</svg>