<?xml version="1.0" encoding="UTF-8"?>
<svg width="24px" height="24px" viewBox="0 0 24 24" version="1.1" xmlns="http://www.w3.org/2000/svg" xmlns:xlink="http://www.w3.org/1999/xlink">
    <!-- Generator: Sketch 52.5 (67469) - http://www.bohemiancoding.com/sketch -->
    <title>elementor</title>
    <desc>Created with Sketch.</desc>
    <defs>
        <path d="M19.875,3.24999996 L4.12499996,3.24999996 C3.64062496,3.24999996 3.24999996,3.64062496 3.24999996,4.12499996 L3.24999996,19.875 C3.24999996,20.359375 3.64062496,20.75 4.12499996,20.75 L19.875,20.75 C20.359375,20.75 20.75,20.359375 20.75,19.875 L20.75,4.12499996 C20.75,3.64062496 20.359375,3.24999996 19.875,3.24999996 Z M9.66796874,15.8867188 L8.11328123,15.8867188 L8.11328123,8.11328123 L9.66796874,8.11328123 L9.66796874,15.8867188 Z M15.890625,15.8867188 L11.2226562,15.8867188 L11.2226562,14.3320313 L15.890625,14.3320313 L15.890625,15.8867188 Z M15.890625,12.7773438 L11.2226562,12.7773438 L11.2226562,11.2226562 L15.890625,11.2226562 L15.890625,12.7773438 Z M15.890625,9.66406249 L11.2226562,9.66406249 L11.2226562,8.10937498 L15.890625,8.10937498 L15.890625,9.66406249 Z" id="path-1"></path>
    </defs>
    <g id="elementor" stroke="none" stroke-width="1" fill="none" fill-rule="evenodd">
        <mask id="mask-2" fill="white">
            <use xlink:href="#path-1"></use>
        </mask>
        <g fill-rule="nonzero"></g>
        <g id="🎨-color" mask="url(#mask-2)" fill="#000000">
            <rect id="🎨-Color" x="0" y="0" width="24" height="24"></rect>
        </g>
    </g>
</svg>