<?xml version="1.0" encoding="UTF-8"?>
<svg width="24px" height="24px" viewBox="0 0 24 24" version="1.1" xmlns="http://www.w3.org/2000/svg" xmlns:xlink="http://www.w3.org/1999/xlink">
    <!-- Generator: Sketch 52.5 (67469) - http://www.bohemiancoding.com/sketch -->
    <title>ellipsis-v</title>
    <desc>Created with Sketch.</desc>
    <defs>
        <path d="M12,9.18749999 C13.5546875,9.18749999 14.8125,10.4453125 14.8125,12 C14.8125,13.5546875 13.5546875,14.8125 12,14.8125 C10.4453125,14.8125 9.18749999,13.5546875 9.18749999,12 C9.18749999,10.4453125 10.4453125,9.18749999 12,9.18749999 Z M9.18749999,5.12499997 C9.18749999,6.67968747 10.4453125,7.93749998 12,7.93749998 C13.5546875,7.93749998 14.8125,6.67968747 14.8125,5.12499997 C14.8125,3.57031246 13.5546875,2.31249995 12,2.31249995 C10.4453125,2.31249995 9.18749999,3.57031246 9.18749999,5.12499997 Z M9.18749999,18.875 C9.18749999,20.4296875 10.4453125,21.6875 12,21.6875 C13.5546875,21.6875 14.8125,20.4296875 14.8125,18.875 C14.8125,17.3203125 13.5546875,16.0625 12,16.0625 C10.4453125,16.0625 9.18749999,17.3203125 9.18749999,18.875 Z" id="path-1"></path>
    </defs>
    <g id="ellipsis-v" stroke="none" stroke-width="1" fill="none" fill-rule="evenodd">
        <mask id="mask-2" fill="white">
            <use xlink:href="#path-1"></use>
        </mask>
        <g fill-rule="nonzero"></g>
        <g id="🎨-color" mask="url(#mask-2)" fill="#000000">
            <rect id="🎨-Color" x="0" y="0" width="24" height="24"></rect>
        </g>
    </g>
</svg>