<?xml version="1.0" encoding="UTF-8"?>
<svg width="24px" height="24px" viewBox="0 0 24 24" version="1.1" xmlns="http://www.w3.org/2000/svg" xmlns:xlink="http://www.w3.org/1999/xlink">
    <!-- Generator: Sketch 52.5 (67469) - http://www.bohemiancoding.com/sketch -->
    <title>ello</title>
    <desc>Created with Sketch.</desc>
    <defs>
        <path d="M12,2.31249995 C6.64960935,2.31249995 2.31249995,6.64960935 2.31249995,12 C2.31249995,17.3503907 6.64960935,21.6875 12,21.6875 C17.3503907,21.6875 21.6875,17.3503907 21.6875,12 C21.6875,6.64960935 17.3503907,2.31249995 12,2.31249995 Z M17.61875,13.453125 C16.9730469,16.0042969 14.6480469,17.8125 12,17.8125 C9.35195311,17.8125 7.0269531,16.0042969 6.38124997,13.453125 C6.31679685,13.1625 6.47812497,12.8394531 6.76874997,12.775 C7.05937498,12.7105469 7.38242185,12.871875 7.44687498,13.1625 C7.9957031,15.2292969 9.86874999,16.6824219 12,16.6824219 C14.13125,16.6824219 16.0042969,15.2292969 16.553125,13.1625 C16.6175781,12.871875 16.940625,12.678125 17.23125,12.775 C17.521875,12.8394531 17.715625,13.1625 17.61875,13.453125 Z" id="path-1"></path>
    </defs>
    <g id="ello" stroke="none" stroke-width="1" fill="none" fill-rule="evenodd">
        <mask id="mask-2" fill="white">
            <use xlink:href="#path-1"></use>
        </mask>
        <g fill-rule="nonzero"></g>
        <g id="🎨-color" mask="url(#mask-2)" fill="#000000">
            <rect id="🎨-Color" x="0" y="0" width="24" height="24"></rect>
        </g>
    </g>
</svg>