<?xml version="1.0" encoding="UTF-8"?>
<svg width="24px" height="24px" viewBox="0 0 24 24" version="1.1" xmlns="http://www.w3.org/2000/svg" xmlns:xlink="http://www.w3.org/1999/xlink">
    <!-- Generator: Sketch 52.5 (67469) - http://www.bohemiancoding.com/sketch -->
    <title>ember</title>
    <desc>Created with Sketch.</desc>
    <defs>
        <path d="M21.9657321,11.9563863 C21.9314642,11.623053 21.6323988,11.7445483 21.6323988,11.7445483 C21.6323988,11.7445483 21.1464175,12.1214953 20.7196262,12.0778816 C20.2928349,12.0373832 20.4267913,11.0809969 20.4267913,11.0809969 C20.4267913,11.0809969 20.5202493,10.2056075 20.2679128,10.1339564 C20.0155764,10.05919 19.7071651,10.3613707 19.7071651,10.3613707 C19.7071651,10.3613707 19.3208723,10.788162 19.1370717,11.3333333 L19.0872274,11.3489097 C19.0872274,11.3489097 19.1464175,10.3956386 19.0778817,10.1775701 C19.0280374,10.0685358 18.5669782,10.0778816 18.4922119,10.271028 C18.4174455,10.4641744 18.0498443,11.8037383 18.0249221,12.364486 C18.0249221,12.364486 17.305296,12.9750779 16.6760125,13.0747664 C16.046729,13.1744548 15.8971963,12.7819315 15.8971963,12.7819315 C15.8971963,12.7819315 17.6043614,12.305296 17.5451714,10.94081 C17.4859813,9.57632398 16.1682243,10.0809969 16.0186916,10.1931464 C15.8753894,10.3021807 15.1028038,10.7663551 14.8785047,12.0529595 C14.8722742,12.0965732 14.8566978,12.2866044 14.8566978,12.2866044 C14.8566978,12.2866044 14.1962617,12.728972 13.8286604,12.847352 C13.8286604,12.847352 14.8566978,11.1152648 13.6012461,10.3271028 C13.0311527,9.98442367 12.5794393,10.7040498 12.5794393,10.7040498 C12.5794393,10.7040498 14.2772586,8.8130841 13.9034268,7.21495325 C13.7227414,6.45482863 13.3426791,6.37071648 12.9937695,6.49532708 C12.4641745,6.70404982 12.2616822,7.0155763 12.2616822,7.0155763 C12.2616822,7.0155763 11.576324,8.01246104 11.4174455,9.49221183 C11.258567,10.9719626 11.0249221,12.7663551 11.0249221,12.7663551 C11.0249221,12.7663551 10.6978193,13.0841122 10.3956386,13.0996885 C10.0934579,13.1152648 10.2274143,12.2056075 10.2274143,12.2056075 C10.2274143,12.2056075 10.4610592,10.8161994 10.4454829,10.5825545 C10.4299065,10.3489096 10.4112149,10.2211838 10.1370716,10.1401869 C9.85981307,10.0560748 9.56074765,10.4080997 9.56074765,10.4080997 C9.56074765,10.4080997 8.76635512,11.6137072 8.6978193,11.7975078 L8.65732086,11.8722741 L8.61682241,11.8224299 C8.61682241,11.8224299 9.17757008,10.1806853 8.64174453,10.1557632 C8.10591898,10.1308411 7.75389406,10.741433 7.75389406,10.741433 C7.75389406,10.741433 7.14330216,11.7632399 7.11838004,11.8785047 L7.0778816,11.8286604 C7.0778816,11.8286604 7.33021805,10.6386293 7.27725854,10.3457944 C7.22741431,10.0529595 6.95015574,10.1121495 6.95015574,10.1121495 C6.95015574,10.1121495 6.59813081,10.0716511 6.50778813,10.2959501 C6.41744545,10.5202492 6.08099686,12.0186916 6.04049841,12.4984424 C6.04049841,12.4984424 5.16199374,13.1277259 4.58255448,13.1339564 C4.00623049,13.1433022 4.06230526,12.7663551 4.06230526,12.7663551 C4.06230526,12.7663551 6.18068533,12.0404984 5.60124607,10.6105919 C5.34267909,10.2429906 5.04049841,10.1277258 4.61370713,10.1339564 C4.18691585,10.1433022 3.66978189,10.4018692 3.32710276,11.1713396 C3.16199373,11.5389408 3.11526475,11.8878505 3.0841121,12.152648 C3.0841121,12.152648 2.70093453,12.2274143 2.49844232,12.0623053 C2.29595011,11.8971963 2.18691584,12.0623053 2.18691584,12.0623053 C2.18691584,12.0623053 1.83800618,12.4984424 2.18380057,12.6323988 C2.52959497,12.7663551 3.05918999,12.8224299 3.05918999,12.8224299 C3.10903422,13.0560748 3.2523364,13.4299065 3.66978189,13.7476636 C4.29906538,14.2242991 5.5015576,13.7071651 5.5015576,13.7071651 L5.99688471,13.4330218 C5.99688471,13.4330218 6.01246103,13.8878505 6.37383175,13.953271 C6.73520247,14.0186916 6.88473518,13.9844237 7.5109034,12.4610592 C7.87850465,11.682243 7.90342677,11.7258567 7.90342677,11.7258567 L7.94392521,11.7165109 C7.94392521,11.7165109 7.66043612,13.1744548 7.76947038,13.576324 C7.87850465,13.9750779 8.35514017,13.9314642 8.35514017,13.9314642 C8.35514017,13.9314642 8.61370715,14.0062305 8.82242989,13.271028 C9.03115263,12.5358255 9.43302179,11.7165109 9.43302179,11.7165109 L9.48286603,11.7165109 C9.48286603,11.7165109 9.3084112,13.2149533 9.57632398,13.7009346 C9.84423675,14.1869159 10.5389408,13.8660436 10.5389408,13.8660436 C10.5389408,13.8660436 11.0249221,13.623053 11.0996885,13.5482866 C11.0996885,13.5482866 11.6760125,14.0404985 12.4890966,13.9501558 C14.305296,13.5919003 14.953271,13.1433022 14.953271,13.1433022 C14.953271,13.1433022 15.2647975,13.9034268 16.2336449,13.9750779 C17.3395639,14.05919 17.94081,13.3956386 17.94081,13.3956386 C17.94081,13.3956386 17.9314642,13.8161994 18.317757,13.9750779 C18.7040499,14.1339564 18.9626169,13.2647975 18.9626169,13.2647975 L19.6074767,11.482866 L19.6666667,11.482866 C19.6666667,11.482866 19.7009346,12.6448598 20.3364486,12.8286604 C20.9719627,13.0124611 21.8006231,12.4018692 21.8006231,12.4018692 C21.8006231,12.4018692 22,12.2928349 21.9657321,11.9563863 Z M3.95950152,12.1214953 C3.98442364,11.1246106 4.63862925,10.6915888 4.86292831,10.9065421 C5.09034264,11.1246106 5.00623049,11.5919003 4.57943922,11.8847352 C4.15264794,12.1806854 3.95950152,12.1214953 3.95950152,12.1214953 Z M12.4579439,8.26479749 C12.4579439,8.26479749 13.0529595,6.71651088 13.1931464,7.47040496 C13.3333333,8.22429905 11.9470405,10.4672897 11.9470405,10.4672897 C11.9626168,9.96261681 12.4579439,8.26479749 12.4579439,8.26479749 Z M13.1682243,12.576324 C12.7757009,13.6043614 11.8193146,13.1869159 11.8193146,13.1869159 C11.8193146,13.1869159 11.7102804,12.8193146 12.0186916,11.788162 C12.3271028,10.7570093 13.0560748,11.1588785 13.0560748,11.1588785 C13.0560748,11.1588785 13.5607477,11.5451713 13.1682243,12.576324 Z M15.8037383,12.1214953 C15.8037383,12.1214953 15.7102804,11.7943925 16.0560748,11.1682243 C16.3987539,10.5389408 16.6666667,10.8847352 16.6666667,10.8847352 C16.6666667,10.8847352 16.9595016,11.2024922 16.6261682,11.6791277 C16.2928349,12.1557632 15.8037383,12.1214953 15.8037383,12.1214953 Z" id="path-1"></path>
    </defs>
    <g id="ember" stroke="none" stroke-width="1" fill="none" fill-rule="evenodd">
        <mask id="mask-2" fill="white">
            <use xlink:href="#path-1"></use>
        </mask>
        <g fill-rule="nonzero"></g>
        <g id="🎨-color" mask="url(#mask-2)" fill="#000000">
            <rect id="🎨-Color" x="0" y="0" width="24" height="24"></rect>
        </g>
    </g>
</svg>