<?xml version="1.0" encoding="UTF-8"?>
<svg width="24px" height="24px" viewBox="0 0 24 24" version="1.1" xmlns="http://www.w3.org/2000/svg" xmlns:xlink="http://www.w3.org/1999/xlink">
    <!-- Generator: Sketch 52.5 (67469) - http://www.bohemiancoding.com/sketch -->
    <title>empire</title>
    <desc>Created with Sketch.</desc>
    <defs>
        <path d="M13.546875,4.11718746 C13.125,4.03124996 12.6835938,3.98828121 12.2382813,3.97656246 L12.2382813,3.26562496 C15.2890625,3.35156246 17.9453125,4.98437496 19.4492188,7.42968748 L18.8320313,7.78515623 C18.59375,7.40624998 18.3359375,7.05078123 18.0429688,6.72656247 L17.3398438,7.33203123 C16.3242188,6.17578122 14.9414063,5.35156247 13.359375,5.05078122 L13.546875,4.11718746 Z M4.39843746,14.59375 L5.29687497,14.2929688 C5.04687497,13.578125 4.90624996,12.8007813 4.90624996,12 C4.90624996,11.1992187 5.03515622,10.421875 5.28515622,9.70703124 L4.39843746,9.40624999 C4.53906246,8.98437498 4.72265621,8.57421873 4.92968746,8.19531248 L4.31249996,7.83984373 C3.64062496,9.07031249 3.25390621,10.4960937 3.25390621,12 C3.25390621,13.5039063 3.64453121,14.9296875 4.31249996,16.1640625 L4.92968746,15.8085938 C4.72265621,15.4179688 4.55078121,15.015625 4.39843746,14.59375 Z M10.6367187,18.953125 C9.05859374,18.640625 7.67578123,17.8164063 6.65624997,16.6601563 L5.95312497,17.2773438 C5.66015622,16.9414063 5.39062497,16.5859375 5.16406247,16.2070313 L4.53906246,16.5742188 C6.04296872,19.0078125 8.71093748,20.6484375 11.7617187,20.7382813 L11.7617187,20.0234375 C11.3203125,20.0117188 10.875,19.9570313 10.453125,19.8828125 L10.6367187,18.953125 Z M5.95703122,6.72265622 L6.66015622,7.32812498 C7.67578123,6.17187497 9.05859374,5.34765622 10.640625,5.04687497 L10.4570312,4.11718746 C10.8789062,4.03124996 11.3203125,3.98828121 11.765625,3.97656246 L11.765625,3.26562496 C8.71484373,3.35156246 6.05859372,4.98437496 4.55468746,7.42968748 L5.17187497,7.78515623 C5.40624997,7.40624998 5.66406247,7.04687498 5.95703122,6.72265622 Z M18.0429688,17.2773438 L17.3398438,16.6601563 C16.3242188,17.8164063 14.9414063,18.640625 13.359375,18.953125 L13.5429688,19.8828125 C13.1210938,19.9570313 12.6796875,20.0117188 12.234375,20.0234375 L12.234375,20.7382813 C15.2851563,20.6523438 17.953125,19.0078125 19.4570313,16.5742188 L18.828125,16.2070313 C18.6054688,16.5859375 18.3359375,16.9414063 18.0429688,17.2773438 Z M21.6875,12 C21.6875,17.3515625 17.3515625,21.6875 12,21.6875 C6.64843747,21.6875 2.31249995,17.3515625 2.31249995,12 C2.31249995,6.64843747 6.64843747,2.31249995 12,2.31249995 C17.3515625,2.31249995 21.6875,6.64843747 21.6875,12 Z M21.2109375,12 C21.2109375,6.91796872 17.0820313,2.78906245 12,2.78906245 C6.91796872,2.78906245 2.78906245,6.91796872 2.78906245,12 C2.78906245,17.0820313 6.91796872,21.2109375 12,21.2109375 C17.0820313,21.2109375 21.2109375,17.0820313 21.2109375,12 Z M19.6875,7.83593748 L19.0703125,8.19140623 C19.2773438,8.57031248 19.4609375,8.98046873 19.6015625,9.40234374 L18.7148438,9.70312499 C18.9648438,10.4179687 19.09375,11.1953125 19.09375,11.9960937 C19.09375,12.796875 18.953125,13.5742188 18.703125,14.2890625 L19.6015625,14.5898438 C19.4492188,15.0117188 19.2773438,15.4101563 19.0703125,15.8007813 L19.6875,16.15625 C20.359375,14.9296875 20.7460938,13.5039063 20.7460938,12 C20.7460938,10.4960937 20.359375,9.07031249 19.6875,7.83593748 Z M12.5390625,14.7773438 C13.1757813,14.6484375 13.7265625,14.3242188 14.1289063,13.859375 L16.1289063,15.609375 C16.59375,15.078125 16.9609375,14.4648438 17.1875,13.78125 L14.6796875,12.9179688 C14.7773438,12.625 14.8320313,12.3242188 14.8320313,12 C14.8320313,11.6757812 14.7773438,11.3710937 14.6796875,11.0820312 L17.1992188,10.21875 C16.9609375,9.53906249 16.59375,8.92187498 16.1289063,8.39062498 L14.1289063,10.140625 C13.7304688,9.67578124 13.1757813,9.33984374 12.5390625,9.21093749 L13.0585938,6.61718747 C12.7226563,6.54296872 12.3671875,6.50781247 12,6.50781247 C11.6328125,6.50781247 11.2773437,6.53906247 10.9414062,6.61718747 L11.4609375,9.21093749 C10.8242187,9.33984374 10.2734375,9.67578124 9.87109374,10.140625 L7.87109373,8.39062498 C7.40624998,8.92187498 7.03906248,9.53515624 6.80078122,10.21875 L9.32031249,11.0820312 C9.22265624,11.375 9.16796874,11.6757812 9.16796874,12 C9.16796874,12.3242188 9.22265624,12.6289063 9.32031249,12.9179688 L6.81249997,13.78125 C7.03906248,14.4609375 7.40624998,15.078125 7.87109373,15.609375 L9.87109374,13.859375 C10.2695312,14.3242188 10.8242187,14.6484375 11.4609375,14.7773438 L10.9414062,17.3828125 C11.2773437,17.4492188 11.6328125,17.4921875 12,17.4921875 C12.3671875,17.4921875 12.7226563,17.4492188 13.0585938,17.3828125 L12.5390625,14.7773438 Z" id="path-1"></path>
    </defs>
    <g id="empire" stroke="none" stroke-width="1" fill="none" fill-rule="evenodd">
        <mask id="mask-2" fill="white">
            <use xlink:href="#path-1"></use>
        </mask>
        <g fill-rule="nonzero"></g>
        <g id="🎨-color" mask="url(#mask-2)" fill="#000000">
            <rect id="🎨-Color" x="0" y="0" width="24" height="24"></rect>
        </g>
    </g>
</svg>