<?xml version="1.0" encoding="UTF-8"?>
<svg width="24px" height="24px" viewBox="0 0 24 24" version="1.1" xmlns="http://www.w3.org/2000/svg" xmlns:xlink="http://www.w3.org/1999/xlink">
    <!-- Generator: Sketch 52.5 (67469) - http://www.bohemiancoding.com/sketch -->
    <title>envelope-square</title>
    <desc>Created with Sketch.</desc>
    <defs>
        <path d="M18.875,3.24999996 L5.12499997,3.24999996 C4.08945309,3.24999996 3.24999996,4.08945309 3.24999996,5.12499997 L3.24999996,18.875 C3.24999996,19.9105469 4.08945309,20.75 5.12499997,20.75 L18.875,20.75 C19.9105469,20.75 20.75,19.9105469 20.75,18.875 L20.75,5.12499997 C20.75,4.08945309 19.9105469,3.24999996 18.875,3.24999996 Z M10.2076953,12.2384375 C6.66519529,9.66746093 6.70128904,9.66097655 5.74999997,8.92058592 L5.74999997,7.93749998 C5.74999997,7.41972654 6.16972653,6.99999997 6.68749997,6.99999997 L17.3125,6.99999997 C17.8302735,6.99999997 18.25,7.41972654 18.25,7.93749998 L18.25,8.92058592 C17.2980078,9.66156249 17.3346094,9.66761718 13.7923047,12.2384766 C13.3821484,12.5375 12.5660547,13.2587891 12,13.2499609 C11.4334766,13.2584766 10.6184766,12.5379688 10.2076953,12.2384375 Z M18.25,10.5068359 L18.25,16.0625 C18.25,16.5802735 17.8302735,17 17.3125,17 L6.68749997,17 C6.16972653,17 5.74999997,16.5802735 5.74999997,16.0625 L5.74999997,10.5068359 C6.29523435,10.9284766 7.05191404,11.4926172 9.47277342,13.2495703 C10.0259766,13.6535156 10.9561719,14.5052344 11.9998828,14.4999609 C13.0501563,14.5051953 13.9935156,13.6389844 14.5280078,13.2489844 C16.9482422,11.4925391 17.7047657,10.9284375 18.25,10.5068359 Z" id="path-1"></path>
    </defs>
    <g id="envelope-square" stroke="none" stroke-width="1" fill="none" fill-rule="evenodd">
        <mask id="mask-2" fill="white">
            <use xlink:href="#path-1"></use>
        </mask>
        <g fill-rule="nonzero"></g>
        <g id="🎨-color" mask="url(#mask-2)" fill="#000000">
            <rect id="🎨-Color" x="0" y="0" width="24" height="24"></rect>
        </g>
    </g>
</svg>