<?xml version="1.0" encoding="UTF-8"?>
<svg width="24px" height="24px" viewBox="0 0 24 24" version="1.1" xmlns="http://www.w3.org/2000/svg" xmlns:xlink="http://www.w3.org/1999/xlink">
    <!-- Generator: Sketch 52.5 (67469) - http://www.bohemiancoding.com/sketch -->
    <title>envelope-open</title>
    <desc>Created with Sketch.</desc>
    <defs>
        <path d="M21.3197657,8.42640623 C21.1362891,8.27472654 16.955586,4.91273434 16.0365235,4.18199215 C15.173086,3.49183589 13.6967578,1.99999995 12,1.99999995 C10.3123047,1.99999995 8.85015623,3.47332027 7.96347654,4.18199215 C7.0078906,4.94175778 2.84355464,8.29117186 2.68417964,8.42218748 C2.25102298,8.77836593 2.00001586,9.3097157 1.99999995,9.8705078 L1.99999995,20.125 C1.99999995,21.1605469 2.83945308,22.0000001 3.87499996,22.0000001 L20.125,22.0000001 C21.1605469,22.0000001 22,21.1605469 22,20.125 L22,9.8714453 C21.9999978,9.31244813 21.7505801,8.78260389 21.3197657,8.42640623 Z M20.125,19.890625 C20.125,20.0200668 20.0200668,20.125 19.890625,20.125 L4.10937496,20.125 C3.97993322,20.125 3.87499996,20.0200668 3.87499996,19.890625 L3.87499996,9.98230468 C3.87499996,9.91148436 3.90687496,9.8445703 3.96195308,9.80007811 C4.58187496,9.29953124 8.21167967,6.37999997 9.13242186,5.64800778 C9.84199218,5.08124997 11.0780469,3.87499996 12,3.87499996 C12.9255078,3.87499996 14.1819141,5.10035153 14.8675781,5.64800778 C15.7883985,6.3800781 19.4184766,9.30007811 20.038125,9.80097655 C20.0931238,9.84544266 20.1250586,9.91239953 20.125,9.98312499 L20.125,19.890625 Z M18.8753516,12.5584375 C19.0413282,12.7599609 19.0107032,13.0582422 18.8071875,13.2217578 C17.6753516,14.13125 16.4917969,15.0810156 16.0365235,15.4429688 C15.1498438,16.1516797 13.6876953,17.625 12,17.625 C10.3026562,17.625 8.82472655,16.1313672 7.96347654,15.4429688 C7.5228906,15.0926953 6.33285153,14.1377734 5.19289059,13.2216797 C4.98937496,13.058125 4.95878903,12.7598828 5.12472653,12.5583594 L5.72074216,11.8346094 C5.88394528,11.6364453 6.17609372,11.6063672 6.37617185,11.7671875 C7.49406248,12.6656641 8.66390623,13.6044922 9.13242186,13.9769922 C9.81808593,14.5246485 11.0744922,15.75 12,15.75 C12.9219531,15.75 14.1580469,14.54375 14.8675781,13.9769922 C15.3360938,13.6045313 16.5060156,12.6656641 17.6239453,11.7673047 C17.8240235,11.6065234 18.1161719,11.6366016 18.279336,11.8347656 L18.8753516,12.5584375 Z" id="path-1"></path>
    </defs>
    <g id="envelope-open" stroke="none" stroke-width="1" fill="none" fill-rule="evenodd">
        <mask id="mask-2" fill="white">
            <use xlink:href="#path-1"></use>
        </mask>
        <g fill-rule="nonzero"></g>
        <g id="🎨-color" mask="url(#mask-2)" fill="#000000">
            <rect id="🎨-Color" x="0" y="0" width="24" height="24"></rect>
        </g>
    </g>
</svg>