<?xml version="1.0" encoding="UTF-8"?>
<svg width="24px" height="24px" viewBox="0 0 24 24" version="1.1" xmlns="http://www.w3.org/2000/svg" xmlns:xlink="http://www.w3.org/1999/xlink">
    <!-- Generator: Sketch 52.5 (67469) - http://www.bohemiancoding.com/sketch -->
    <title>envelope-open-text</title>
    <desc>Created with Sketch.</desc>
    <defs>
        <path d="M8.8810916,10.460039 L15.1189084,10.460039 C15.4635478,10.460039 15.7426901,10.1808967 15.7426901,9.8362573 L15.7426901,9.21247562 C15.7426901,8.86783624 15.4635478,8.58869394 15.1189084,8.58869394 L8.8810916,8.58869394 C8.53645222,8.58869394 8.25730992,8.86783624 8.25730992,9.21247562 L8.25730992,9.8362573 C8.25730992,10.1808967 8.53645222,10.460039 8.8810916,10.460039 Z M8.25730992,13.5789474 C8.25730992,13.9235868 8.53645222,14.2027291 8.8810916,14.2027291 L15.1189084,14.2027291 C15.4635478,14.2027291 15.7426901,13.9235868 15.7426901,13.5789474 L15.7426901,12.9551657 C15.7426901,12.6105263 15.4635478,12.331384 15.1189084,12.331384 L8.8810916,12.331384 C8.53645222,12.331384 8.25730992,12.6105263 8.25730992,12.9551657 L8.25730992,13.5789474 Z M12,18.3013646 C11.3598441,18.3013646 10.7196881,18.1040936 10.1730994,17.7091618 L2.01949313,11.8191033 L2.01949313,20.128655 C2.01949313,21.1621833 2.8573099,22 3.89083817,22 L20.1091618,22 C21.1426901,22 21.9805069,21.1621833 21.9805069,20.128655 L21.9805069,11.8191033 L13.8269006,17.7091618 C13.2803119,18.1037037 12.6401559,18.3013646 12,18.3013646 Z M21.2635478,8.39181285 C20.9185186,8.12124754 20.591423,7.86666665 20.1091618,7.50253409 L20.1091618,5.78167638 C20.1091618,4.74814811 19.2713451,3.91033134 18.2378168,3.91033134 L15.214425,3.91033134 C15.0959064,3.82456136 14.9855751,3.74424947 14.8619883,3.65458085 C14.2066277,3.17621828 12.9044834,2.02534108 12,2.0389863 C11.0955166,2.02534108 9.79376217,3.17621828 9.13801168,3.65458085 C9.01442494,3.74424947 8.90409355,3.82456136 8.78557503,3.91033134 L5.7621832,3.91033134 C4.72865493,3.91033134 3.89083817,4.74814811 3.89083817,5.78167638 L3.89083817,7.50253409 C3.40857696,7.86627678 3.08148144,8.12124754 2.7364522,8.39181285 C2.28393898,8.74644213 2.019571,9.28940998 2.01949313,9.86432747 L2.01949313,10.2795322 L5.7621832,12.9832359 L5.7621832,5.78167638 L18.2378168,5.78167638 L18.2378168,12.9832359 L21.9805069,10.2795322 L21.9805069,9.86432747 C21.9805069,9.2896686 21.7161794,8.74658868 21.2635478,8.39181285 Z" id="path-1"></path>
    </defs>
    <g id="envelope-open-text" stroke="none" stroke-width="1" fill="none" fill-rule="evenodd">
        <mask id="mask-2" fill="white">
            <use xlink:href="#path-1"></use>
        </mask>
        <g fill-rule="nonzero"></g>
        <g id="🎨-color" mask="url(#mask-2)" fill="#000000">
            <rect id="🎨-Color" x="0" y="0" width="24" height="24"></rect>
        </g>
    </g>
</svg>