<?xml version="1.0" encoding="UTF-8"?>
<svg width="24px" height="24px" viewBox="0 0 24 24" version="1.1" xmlns="http://www.w3.org/2000/svg" xmlns:xlink="http://www.w3.org/1999/xlink">
    <!-- Generator: Sketch 52.5 (67469) - http://www.bohemiancoding.com/sketch -->
    <title>envelope</title>
    <desc>Created with Sketch.</desc>
    <defs>
        <path d="M20.125,4.49999996 L3.87499996,4.49999996 C2.83945308,4.49999996 1.99999995,5.33945309 1.99999995,6.37499997 L1.99999995,17.625 C1.99999995,18.6605469 2.83945308,19.5 3.87499996,19.5 L20.125,19.5 C21.1605469,19.5 22.0000001,18.6605469 22.0000001,17.625 L22.0000001,6.37499997 C22.0000001,5.33945309 21.1605469,4.49999996 20.125,4.49999996 Z M20.125,6.37499997 L20.125,7.96894529 C19.2491407,8.68218748 17.8528125,9.79124999 14.8676953,12.1287109 C14.2098438,12.6461719 12.9067188,13.8893359 12,13.8748438 C11.0934375,13.8894922 9.7898828,12.6459766 9.13230467,12.1287109 C6.14765622,9.79160155 4.75097653,8.68230467 3.87499996,7.96894529 L3.87499996,6.37499997 L20.125,6.37499997 Z M3.87499996,17.625 L3.87499996,10.3749219 C4.77007809,11.0878516 6.03941403,12.0882813 7.9741406,13.6032813 C8.82792967,14.2753516 10.323125,15.7589844 12,15.749961 C13.6686328,15.7589844 15.1448828,14.296875 16.0255078,13.6035938 C17.9601953,12.0886328 19.2298828,11.0879297 20.125,10.3749219 L20.125,17.625 L3.87499996,17.625 Z" id="path-1"></path>
    </defs>
    <g id="envelope" stroke="none" stroke-width="1" fill="none" fill-rule="evenodd">
        <mask id="mask-2" fill="white">
            <use xlink:href="#path-1"></use>
        </mask>
        <g fill-rule="nonzero"></g>
        <g id="🎨-color" mask="url(#mask-2)" fill="#000000">
            <rect id="🎨-Color" x="0" y="0" width="24" height="24"></rect>
        </g>
    </g>
</svg>