<?xml version="1.0" encoding="UTF-8"?>
<svg width="24px" height="24px" viewBox="0 0 24 24" version="1.1" xmlns="http://www.w3.org/2000/svg" xmlns:xlink="http://www.w3.org/1999/xlink">
    <!-- Generator: Sketch 52.5 (67469) - http://www.bohemiancoding.com/sketch -->
    <title>envira</title>
    <desc>Created with Sketch.</desc>
    <defs>
        <path d="M3.24999996,3.24999996 C21.90625,3.24999996 17.5703125,15.6445313 17.5898438,17.5585938 L20.75,20.75 L19.734375,20.75 L16.984375,17.96875 C15.4609375,18.1328125 12.125,19.3164063 8.60937498,16.5234375 C5.08593747,13.7304688 5.28124997,10.3867187 3.24999996,3.24999996 Z M6.36328122,5.04687497 C4.42187496,4.12890621 6.16015622,5.40624997 6.16015622,5.40624997 C7.92578123,6.62499997 8.73828123,8.28515623 9.68359374,10.0898437 C10.9140625,12.4414063 12.7695313,15.546875 15.3164063,16.640625 C17.8554688,17.734375 16.6523438,17.1289063 15.5507813,16.3085938 C14.4492188,15.4804688 12.8867188,12.9101563 11.9960937,11.2226562 C10.7578125,8.87890623 9.61328124,6.58984372 6.36328122,5.04687497 Z" id="path-1"></path>
    </defs>
    <g id="envira" stroke="none" stroke-width="1" fill="none" fill-rule="evenodd">
        <mask id="mask-2" fill="white">
            <use xlink:href="#path-1"></use>
        </mask>
        <g fill-rule="nonzero"></g>
        <g id="🎨-color" mask="url(#mask-2)" fill="#000000">
            <rect id="🎨-Color" x="0" y="0" width="24" height="24"></rect>
        </g>
    </g>
</svg>