<?xml version="1.0" encoding="UTF-8"?>
<svg width="24px" height="24px" viewBox="0 0 24 24" version="1.1" xmlns="http://www.w3.org/2000/svg" xmlns:xlink="http://www.w3.org/1999/xlink">
    <!-- Generator: Sketch 52.5 (67469) - http://www.bohemiancoding.com/sketch -->
    <title>equals</title>
    <desc>Created with Sketch.</desc>
    <defs>
        <path d="M19.5,13.875 L4.49999996,13.875 C3.80976558,13.875 3.24999996,14.4347656 3.24999996,15.125 L3.24999996,16.375 C3.24999996,17.0652344 3.80976558,17.625 4.49999996,17.625 L19.5,17.625 C20.1902344,17.625 20.75,17.0652344 20.75,16.375 L20.75,15.125 C20.75,14.4347656 20.1902344,13.875 19.5,13.875 Z M19.5,6.37499997 L4.49999996,6.37499997 C3.80976558,6.37499997 3.24999996,6.9347656 3.24999996,7.62499998 L3.24999996,8.87499998 C3.24999996,9.56523436 3.80976558,10.125 4.49999996,10.125 L19.5,10.125 C20.1902344,10.125 20.75,9.56523436 20.75,8.87499998 L20.75,7.62499998 C20.75,6.9347656 20.1902344,6.37499997 19.5,6.37499997 Z" id="path-1"></path>
    </defs>
    <g id="equals" stroke="none" stroke-width="1" fill="none" fill-rule="evenodd">
        <mask id="mask-2" fill="white">
            <use xlink:href="#path-1"></use>
        </mask>
        <g fill-rule="nonzero"></g>
        <g id="🎨-color" mask="url(#mask-2)" fill="#000000">
            <rect id="🎨-Color" x="0" y="0" width="24" height="24"></rect>
        </g>
    </g>
</svg>