<?xml version="1.0" encoding="UTF-8"?>
<svg width="24px" height="24px" viewBox="0 0 24 24" version="1.1" xmlns="http://www.w3.org/2000/svg" xmlns:xlink="http://www.w3.org/1999/xlink">
    <!-- Generator: Sketch 52.5 (67469) - http://www.bohemiancoding.com/sketch -->
    <title>erlang</title>
    <desc>Created with Sketch.</desc>
    <defs>
        <path d="M2.67812495,11.7 C2.67499995,14.4125 3.58437496,16.684375 5.13749997,18.328125 L1.99999995,18.328125 L1.99999995,5.67187497 L4.72499996,5.67187497 C3.42812496,7.24062498 2.67499995,9.30312499 2.67812495,11.7 Z M22,5.67499997 L19.3875,5.67499997 C20.36875,7.00937498 20.909375,8.72187498 20.83125,10.759375 C20.846875,10.946875 20.846875,11.125 20.83125,11.5125 L9.19374999,11.5125 C9.18749999,14.940625 10.409375,17.603125 13.525,17.615625 C15.665625,17.60625 17.2125,16.021875 18.271875,14.3 L21.284375,15.80625 C20.740625,16.771875 20.14375,17.6125 19.475,18.33125 L22,18.33125 L22,5.67499997 Z M19.51625,18.3671528 C19.51625,18.3671528 19.51625,18.3571528 19.51625,18.3671528 L19.49625,18.3671528 L19.51625,18.3671528 Z M19.4021875,5.71281247 L19.4321875,5.71281247 L19.4221875,5.70281247 L19.4021875,5.71281247 Z M12.16875,5.97499997 C10.734375,5.97812497 9.50937499,7.02187498 9.38124999,8.57499998 L14.690625,8.57499998 C14.65625,7.02187498 13.6125,5.97812497 12.16875,5.97499997 Z" id="path-1"></path>
    </defs>
    <g id="erlang" stroke="none" stroke-width="1" fill="none" fill-rule="evenodd">
        <mask id="mask-2" fill="white">
            <use xlink:href="#path-1"></use>
        </mask>
        <g fill-rule="nonzero"></g>
        <g id="🎨-color" mask="url(#mask-2)" fill="#000000">
            <rect id="🎨-Color" x="0" y="0" width="24" height="24"></rect>
        </g>
    </g>
</svg>