<?xml version="1.0" encoding="UTF-8"?>
<svg width="24px" height="24px" viewBox="0 0 24 24" version="1.1" xmlns="http://www.w3.org/2000/svg" xmlns:xlink="http://www.w3.org/1999/xlink">
    <!-- Generator: Sketch 52.5 (67469) - http://www.bohemiancoding.com/sketch -->
    <title>etsy</title>
    <desc>Created with Sketch.</desc>
    <defs>
        <path d="M19.5,15.59375 C19.4316407,16.0136719 18.9628907,19.890625 18.8945313,20.75 C14.2898828,20.5820704 10.3048828,20.5647266 4.49999996,20.75 L4.49999996,19.7539063 C6.27566403,19.404375 6.86824216,19.4406641 6.88281247,18.3769532 C6.95285154,15.551875 7.02046873,8.84011717 6.88281247,5.79882809 C6.84261716,4.68710934 6.40898435,4.75332028 4.49999996,4.39257809 L4.49999996,3.39648433 C7.38617185,3.48859371 14.4973828,3.73050777 18.6796485,3.24999996 C18.5429297,4.74414059 18.3769141,8.19140623 18.3769141,8.19140623 L17.46875,8.19140623 C17.0369922,6.51816404 16.7359766,4.65624996 15.3300781,4.65624996 L9.97851561,4.65624996 C9.57812499,4.65624996 9.55859374,4.79296871 9.55859374,5.03710934 L9.55859374,11.4335937 C11.8242187,11.453125 13.015625,11.3359375 13.015625,11.3359375 C14.1785156,11.2987891 14.0921875,11.0038281 14.6074219,8.7870703 L15.6132813,8.7870703 C15.4411328,12.7460938 15.4605469,11.2022656 15.5449219,15.046836 L14.5390625,15.046836 C14.1814453,13.4809766 14.1849609,12.6622656 12.9960547,12.6444922 C12.9960547,12.6444922 12.1562109,12.5663672 9.55855468,12.5663672 L9.55855468,17.9960547 C9.55855468,19.0116797 10.1151953,19.4901953 11.2870703,19.4901953 L14.7734375,19.4901953 C17.2592188,19.4901953 17.3735938,18.5137891 18.6308985,15.593711 L19.5,15.593711 L19.5,15.59375 Z" id="path-1"></path>
    </defs>
    <g id="etsy" stroke="none" stroke-width="1" fill="none" fill-rule="evenodd">
        <mask id="mask-2" fill="white">
            <use xlink:href="#path-1"></use>
        </mask>
        <g></g>
        <g id="🎨-color" mask="url(#mask-2)" fill="#000000">
            <rect id="🎨-Color" x="0" y="0" width="24" height="24"></rect>
        </g>
    </g>
</svg>