<?xml version="1.0" encoding="UTF-8"?>
<svg width="24px" height="24px" viewBox="0 0 24 24" version="1.1" xmlns="http://www.w3.org/2000/svg" xmlns:xlink="http://www.w3.org/1999/xlink">
    <!-- Generator: Sketch 52.5 (67469) - http://www.bohemiancoding.com/sketch -->
    <title>euro-sign</title>
    <desc>Created with Sketch.</desc>
    <defs>
        <path d="M17.8869532,18.1626953 C17.835625,17.903711 17.5808985,17.7380078 17.3235157,17.7967188 C16.9058594,17.8919922 16.2523438,18.0081641 15.5490625,18.0081641 C13.3317578,18.0081641 11.5674609,16.6491797 10.8044922,14.6703125 L15.2454688,14.6703125 C15.4647537,14.6703121 15.6547343,14.5182854 15.7028125,14.3043359 L15.9517578,13.1965234 C16.0176172,12.9034766 15.7947656,12.625 15.4944141,12.625 L10.2507812,12.625 C10.2035156,12.0653125 10.1955469,11.5200391 10.2561328,10.9748047 L15.9824219,10.9748047 C16.2026895,10.9748149 16.393251,10.8214619 16.4403516,10.6062891 L16.6947266,9.44398436 C16.758711,9.15164061 16.5360938,8.87499998 16.2367969,8.87499998 L10.8353125,8.87499998 C11.6412891,7.11753904 13.2841406,5.94414059 15.4298047,5.94414059 C15.9956641,5.94414059 16.545586,6.03203122 16.9083594,6.10605466 C17.1511719,6.15558591 17.3906641,6.00847653 17.4553125,5.76921872 L17.923711,4.03609371 C17.9948828,3.7727734 17.8274219,3.50421871 17.5594141,3.45339839 C17.0866016,3.36374996 16.3246094,3.24999996 15.5013672,3.24999996 C11.7051172,3.24999996 8.64179686,5.60359372 7.51074217,8.87499998 L6.21874997,8.87499998 C5.95988278,8.87499998 5.74999997,9.0848828 5.74999997,9.34374999 L5.74999997,10.5060547 C5.74999997,10.7649219 5.95988278,10.9748047 6.21874997,10.9748047 L7.06128904,10.9748047 C7.02187498,11.5063281 7.01515623,12.1188281 7.05421873,12.625 L6.21874997,12.625 C5.95988278,12.625 5.74999997,12.8348828 5.74999997,13.09375 L5.74999997,14.2015625 C5.74999997,14.4604297 5.95988278,14.6703125 6.21874997,14.6703125 L7.3950781,14.6703125 C8.37261717,18.1989063 11.424375,20.75 15.5013672,20.75 C16.52875,20.75 17.3983203,20.5725 17.888125,20.4457813 C18.1290235,20.3834766 18.2798047,20.1446875 18.2314063,19.900586 L17.8869532,18.1626953 Z" id="path-1"></path>
    </defs>
    <g id="euro-sign" stroke="none" stroke-width="1" fill="none" fill-rule="evenodd">
        <mask id="mask-2" fill="white">
            <use xlink:href="#path-1"></use>
        </mask>
        <g></g>
        <g id="🎨-color" mask="url(#mask-2)" fill="#000000">
            <rect id="🎨-Color" x="0" y="0" width="24" height="24"></rect>
        </g>
    </g>
</svg>