<?xml version="1.0" encoding="UTF-8"?>
<svg width="24px" height="24px" viewBox="0 0 24 24" version="1.1" xmlns="http://www.w3.org/2000/svg" xmlns:xlink="http://www.w3.org/1999/xlink">
    <!-- Generator: Sketch 52.5 (67469) - http://www.bohemiancoding.com/sketch -->
    <title>exchange-alt</title>
    <desc>Created with Sketch.</desc>
    <defs>
        <path d="M1.99999995,8.56249998 L1.99999995,7.93749998 C1.99999995,7.41972654 2.41972651,6.99999998 2.93749995,6.99999998 L17,6.99999998 L17,5.12499997 C17,4.29035152 18.0116797,3.87335933 18.6004297,4.46207027 L21.7254297,7.58707029 C22.0915235,7.9532031 22.0915235,8.54679686 21.7254297,8.91289061 L18.6004297,12.0378906 C18.0139063,12.6242969 17,12.213125 17,11.375 L17,9.49999999 L2.93749995,9.49999999 C2.41972651,9.49999999 1.99999995,9.08027342 1.99999995,8.56249998 Z M21.0625,14.5 L6.99999997,14.5 L6.99999997,12.625 C6.99999997,11.7924219 5.98976559,11.371875 5.39957028,11.9620703 L2.27457026,15.0870703 C1.90847651,15.4532031 1.90847651,16.0467969 2.27457026,16.4128906 L5.39957028,19.5378907 C5.98660153,20.1248829 6.99999997,19.7123829 6.99999997,18.875 L6.99999997,17 L21.0625,17 C21.5802735,17 22,16.5802735 22,16.0625 L22,15.4375 C22,14.9197266 21.5802735,14.5 21.0625,14.5 Z" id="path-1"></path>
    </defs>
    <g id="exchange-alt" stroke="none" stroke-width="1" fill="none" fill-rule="evenodd">
        <mask id="mask-2" fill="white">
            <use xlink:href="#path-1"></use>
        </mask>
        <g fill-rule="nonzero"></g>
        <g id="🎨-color" mask="url(#mask-2)" fill="#000000">
            <rect id="🎨-Color" x="0" y="0" width="24" height="24"></rect>
        </g>
    </g>
</svg>