<?xml version="1.0" encoding="UTF-8"?>
<svg width="24px" height="24px" viewBox="0 0 24 24" version="1.1" xmlns="http://www.w3.org/2000/svg" xmlns:xlink="http://www.w3.org/1999/xlink">
    <!-- Generator: Sketch 52.5 (67469) - http://www.bohemiancoding.com/sketch -->
    <title>exclamation-triangle</title>
    <desc>Created with Sketch.</desc>
    <defs>
        <path d="M21.7748959,18.3893403 C22.4157987,19.5002431 21.6113195,20.8888889 20.33125,20.8888889 L3.66854163,20.8888889 C2.3860069,20.8888889 1.585243,19.4980903 2.22489578,18.3893403 L10.5563542,3.94392357 C11.1975694,2.83249995 12.8035764,2.83451384 13.4436458,3.94392357 L21.7748959,18.3893403 Z M12,15.4027778 C11.1178819,15.4027778 10.4027778,16.117882 10.4027778,17 C10.4027778,17.8821181 11.1178819,18.5972223 12,18.5972223 C12.8821181,18.5972223 13.5972222,17.8821181 13.5972222,17 C13.5972222,16.117882 12.8821181,15.4027778 12,15.4027778 Z M10.4835764,9.66159721 L10.7411458,14.3838195 C10.7531944,14.6047917 10.9359028,14.7777778 11.1571875,14.7777778 L12.8428125,14.7777778 C13.0640972,14.7777778 13.2468056,14.6047917 13.2588542,14.3838195 L13.5164236,9.66159721 C13.5294445,9.42291665 13.3394097,9.22222221 13.1003819,9.22222221 L10.8995833,9.22222221 C10.6605555,9.22222221 10.4705555,9.42291665 10.4835764,9.66159721 Z" id="path-1"></path>
    </defs>
    <g id="exclamation-triangle" stroke="none" stroke-width="1" fill="none" fill-rule="evenodd">
        <mask id="mask-2" fill="white">
            <use xlink:href="#path-1"></use>
        </mask>
        <g fill-rule="nonzero"></g>
        <g id="🎨-color" mask="url(#mask-2)" fill="#000000">
            <rect id="🎨-Color" x="0" y="0" width="24" height="24"></rect>
        </g>
    </g>
</svg>