<?xml version="1.0" encoding="UTF-8"?>
<svg width="24px" height="24px" viewBox="0 0 24 24" version="1.1" xmlns="http://www.w3.org/2000/svg" xmlns:xlink="http://www.w3.org/1999/xlink">
    <!-- Generator: Sketch 52.5 (67469) - http://www.bohemiancoding.com/sketch -->
    <title>exclamation-circle</title>
    <desc>Created with Sketch.</desc>
    <defs>
        <path d="M21.6875,12 C21.6875,17.3514453 17.3498828,21.6875 12,21.6875 C6.65011716,21.6875 2.31249995,17.3514453 2.31249995,12 C2.31249995,6.65167966 6.65011716,2.31249995 12,2.31249995 C17.3498828,2.31249995 21.6875,6.65167966 21.6875,12 Z M12,13.953125 C11.0076172,13.953125 10.203125,14.7576172 10.203125,15.75 C10.203125,16.7423828 11.0076172,17.546875 12,17.546875 C12.9923828,17.546875 13.796875,16.7423828 13.796875,15.75 C13.796875,14.7576172 12.9923828,13.953125 12,13.953125 Z M10.2940234,7.49429685 L10.5837891,12.8067969 C10.5973437,13.0553906 10.8028906,13.25 11.0518359,13.25 L12.9481641,13.25 C13.1971094,13.25 13.4026563,13.0553906 13.4162109,12.8067969 L13.7059766,7.49429685 C13.720625,7.22578123 13.5068359,6.99999997 13.2379297,6.99999997 L10.7620312,6.99999997 C10.493125,6.99999997 10.279375,7.22578123 10.2940234,7.49429685 Z" id="path-1"></path>
    </defs>
    <g id="exclamation-circle" stroke="none" stroke-width="1" fill="none" fill-rule="evenodd">
        <mask id="mask-2" fill="white">
            <use xlink:href="#path-1"></use>
        </mask>
        <g fill-rule="nonzero"></g>
        <g id="🎨-color" mask="url(#mask-2)" fill="#000000">
            <rect id="🎨-Color" x="0" y="0" width="24" height="24"></rect>
        </g>
    </g>
</svg>