<?xml version="1.0" encoding="UTF-8"?>
<svg width="24px" height="24px" viewBox="0 0 24 24" version="1.1" xmlns="http://www.w3.org/2000/svg" xmlns:xlink="http://www.w3.org/1999/xlink">
    <!-- Generator: Sketch 52.5 (67469) - http://www.bohemiancoding.com/sketch -->
    <title>expand</title>
    <desc>Created with Sketch.</desc>
    <defs>
        <path d="M3.24999996,9.03124999 L3.24999996,4.18749996 C3.24999996,3.66796871 3.66796871,3.24999996 4.18749996,3.24999996 L9.03124999,3.24999996 C9.28906249,3.24999996 9.49999999,3.46093746 9.49999999,3.71874996 L9.49999999,5.28124997 C9.49999999,5.53906247 9.28906249,5.74999997 9.03124999,5.74999997 L5.74999997,5.74999997 L5.74999997,9.03124999 C5.74999997,9.28906249 5.53906247,9.49999999 5.28124997,9.49999999 L3.71874996,9.49999999 C3.46093746,9.49999999 3.24999996,9.28906249 3.24999996,9.03124999 Z M14.5,3.71874996 L14.5,5.28124997 C14.5,5.53906247 14.7109375,5.74999997 14.96875,5.74999997 L18.25,5.74999997 L18.25,9.03124999 C18.25,9.28906249 18.4609375,9.49999999 18.71875,9.49999999 L20.28125,9.49999999 C20.5390625,9.49999999 20.75,9.28906249 20.75,9.03124999 L20.75,4.18749996 C20.75,3.66796871 20.3320313,3.24999996 19.8125,3.24999996 L14.96875,3.24999996 C14.7109375,3.24999996 14.5,3.46093746 14.5,3.71874996 Z M20.28125,14.5 L18.71875,14.5 C18.4609375,14.5 18.25,14.7109375 18.25,14.96875 L18.25,18.25 L14.96875,18.25 C14.7109375,18.25 14.5,18.4609375 14.5,18.71875 L14.5,20.28125 C14.5,20.5390625 14.7109375,20.75 14.96875,20.75 L19.8125,20.75 C20.3320313,20.75 20.75,20.3320313 20.75,19.8125 L20.75,14.96875 C20.75,14.7109375 20.5390625,14.5 20.28125,14.5 Z M9.49999999,20.28125 L9.49999999,18.71875 C9.49999999,18.4609375 9.28906249,18.25 9.03124999,18.25 L5.74999997,18.25 L5.74999997,14.96875 C5.74999997,14.7109375 5.53906247,14.5 5.28124997,14.5 L3.71874996,14.5 C3.46093746,14.5 3.24999996,14.7109375 3.24999996,14.96875 L3.24999996,19.8125 C3.24999996,20.3320313 3.66796871,20.75 4.18749996,20.75 L9.03124999,20.75 C9.28906249,20.75 9.49999999,20.5390625 9.49999999,20.28125 Z" id="path-1"></path>
    </defs>
    <g id="expand" stroke="none" stroke-width="1" fill="none" fill-rule="evenodd">
        <mask id="mask-2" fill="white">
            <use xlink:href="#path-1"></use>
        </mask>
        <g fill-rule="nonzero"></g>
        <g id="🎨-color" mask="url(#mask-2)" fill="#000000">
            <rect id="🎨-Color" x="0" y="0" width="24" height="24"></rect>
        </g>
    </g>
</svg>