<?xml version="1.0" encoding="UTF-8"?>
<svg width="24px" height="24px" viewBox="0 0 24 24" version="1.1" xmlns="http://www.w3.org/2000/svg" xmlns:xlink="http://www.w3.org/1999/xlink">
    <!-- Generator: Sketch 52.5 (67469) - http://www.bohemiancoding.com/sketch -->
    <title>expand-arrows-alt</title>
    <desc>Created with Sketch.</desc>
    <defs>
        <path d="M20.734375,15.4375 L20.734375,19.8125 C20.734375,20.3320313 20.3164063,20.75 19.796875,20.75 L15.421875,20.75 C14.5859375,20.75 14.1679688,19.7382813 14.7578125,19.1484375 L16.171875,17.734375 L11.9804687,13.546875 L7.79296873,17.7382813 L9.20703124,19.1484375 C9.79687499,19.7382813 9.37890624,20.75 8.54296873,20.75 L4.16796871,20.75 C3.64843746,20.75 3.23046871,20.3320313 3.23046871,19.8125 L3.23046871,15.4375 C3.23046871,14.6015625 4.24218746,14.1835938 4.83203121,14.7734375 L6.24609372,16.1875 L10.4375,12 L6.24609372,7.80859373 L4.83203121,9.22656249 C4.24218746,9.81640624 3.23046871,9.39843749 3.23046871,8.56249998 L3.23046871,4.18749996 C3.23046871,3.66796871 3.64843746,3.24999996 4.16796871,3.24999996 L8.54296873,3.24999996 C9.37890624,3.24999996 9.79687499,4.26171871 9.20703124,4.85156246 L7.79296873,6.26562497 L11.9804687,10.453125 L16.171875,6.26171872 L14.7578125,4.85156246 C14.1679688,4.26171871 14.5859375,3.24999996 15.421875,3.24999996 L19.796875,3.24999996 C20.3164063,3.24999996 20.734375,3.66796871 20.734375,4.18749996 L20.734375,8.56249998 C20.734375,9.39843749 19.7226563,9.81640624 19.1328125,9.22656249 L17.71875,7.81249998 L13.5273438,12 L17.71875,16.1914063 L19.1328125,14.7773438 C19.7226563,14.1835938 20.734375,14.6015625 20.734375,15.4375 Z" id="path-1"></path>
    </defs>
    <g id="expand-arrows-alt" stroke="none" stroke-width="1" fill="none" fill-rule="evenodd">
        <mask id="mask-2" fill="white">
            <use xlink:href="#path-1"></use>
        </mask>
        <g></g>
        <g id="🎨-color" mask="url(#mask-2)" fill="#000000">
            <rect id="🎨-Color" x="0" y="0" width="24" height="24"></rect>
        </g>
    </g>
</svg>