<?xml version="1.0" encoding="UTF-8"?>
<svg width="24px" height="24px" viewBox="0 0 24 24" version="1.1" xmlns="http://www.w3.org/2000/svg" xmlns:xlink="http://www.w3.org/1999/xlink">
    <!-- Generator: Sketch 52.5 (67469) - http://www.bohemiancoding.com/sketch -->
    <title>expeditedssl</title>
    <desc>Created with Sketch.</desc>
    <defs>
        <path d="M12,3.69531246 C7.41406248,3.69531246 3.69531246,7.41406248 3.69531246,12 C3.69531246,16.5859375 7.41406248,20.3046875 12,20.3046875 C16.5859375,20.3046875 20.3046875,16.5859375 20.3046875,12 C20.3046875,7.41406248 16.5859375,3.69531246 12,3.69531246 Z M8.19531248,8.88671873 C8.19531248,6.78906247 9.90234374,5.08203122 12,5.08203122 C14.0976563,5.08203122 15.8046875,6.78906247 15.8046875,8.88671873 L15.8046875,9.92578124 C15.8046875,10.1210937 15.6523438,10.2734375 15.4570313,10.2734375 L14.765625,10.2734375 C14.5703125,10.2734375 14.4179688,10.1210937 14.4179688,9.92578124 L14.4179688,8.88671873 C14.4179688,5.67968747 9.57421874,5.67968747 9.57421874,8.88671873 L9.57421874,9.92578124 C9.57421874,10.1210937 9.42187499,10.2734375 9.22656249,10.2734375 L8.53515623,10.2734375 C8.33984373,10.2734375 8.18749998,10.1210937 8.18749998,9.92578124 L8.18749998,8.88671873 L8.19531248,8.88671873 Z M17.5351563,16.84375 C17.5351563,17.2226563 17.2226563,17.5351563 16.84375,17.5351563 L7.15624998,17.5351563 C6.77734372,17.5351563 6.46484372,17.2226563 6.46484372,16.84375 L6.46484372,11.3085937 C6.46484372,10.9296875 6.77734372,10.6171875 7.15624998,10.6171875 L16.84375,10.6171875 C17.2226563,10.6171875 17.5351563,10.9296875 17.5351563,11.3085937 L17.5351563,16.84375 Z M7.84765623,11.4804687 L7.84765623,16.671875 C7.84765623,16.7695313 7.77343748,16.84375 7.67578123,16.84375 L7.32812498,16.84375 C7.23046873,16.84375 7.15624998,16.7695313 7.15624998,16.671875 L7.15624998,11.4804687 C7.15624998,11.3828125 7.23046873,11.3085937 7.32812498,11.3085937 L7.67578123,11.3085937 C7.77343748,11.3085937 7.84765623,11.3828125 7.84765623,11.4804687 Z M13.3828125,13.3828125 C13.3828125,13.890625 13.1015625,14.3359375 12.6914063,14.5703125 L12.6914063,15.8046875 C12.6914063,16 12.5390625,16.1523438 12.34375,16.1523438 L11.6523437,16.1523438 C11.4570312,16.1523438 11.3046875,16 11.3046875,15.8046875 L11.3046875,14.5703125 C10.8945312,14.3320313 10.6132812,13.890625 10.6132812,13.3828125 C10.6132812,12.6132813 11.2304687,12 11.9960937,12 C12.7617188,12 13.3828125,12.6171875 13.3828125,13.3828125 Z M12,2.31249995 C6.64843747,2.31249995 2.31249995,6.64843747 2.31249995,12 C2.31249995,17.3515625 6.64843747,21.6875 12,21.6875 C17.3515625,21.6875 21.6875,17.3515625 21.6875,12 C21.6875,6.64843747 17.3515625,2.31249995 12,2.31249995 Z M12,20.9960938 C7.03906248,20.9960938 3.00390621,16.9609375 3.00390621,12 C3.00390621,7.03906248 7.03906248,3.00390621 12,3.00390621 C16.9609375,3.00390621 20.9960938,7.03906248 20.9960938,12 C20.9960938,16.9609375 16.9609375,20.9960938 12,20.9960938 Z" id="path-1"></path>
    </defs>
    <g id="expeditedssl" stroke="none" stroke-width="1" fill="none" fill-rule="evenodd">
        <mask id="mask-2" fill="white">
            <use xlink:href="#path-1"></use>
        </mask>
        <g fill-rule="nonzero"></g>
        <g id="🎨-color" mask="url(#mask-2)" fill="#000000">
            <rect id="🎨-Color" x="0" y="0" width="24" height="24"></rect>
        </g>
    </g>
</svg>