<?xml version="1.0" encoding="UTF-8"?>
<svg width="24px" height="24px" viewBox="0 0 24 24" version="1.1" xmlns="http://www.w3.org/2000/svg" xmlns:xlink="http://www.w3.org/1999/xlink">
    <!-- Generator: Sketch 52.5 (67469) - http://www.bohemiancoding.com/sketch -->
    <title>external-link-alt</title>
    <desc>Created with Sketch.</desc>
    <defs>
        <path d="M22.0000001,3.9444444 L22.0000001,8.38833332 C22.0000001,9.13350693 21.0986112,9.49874999 20.5773959,8.97760415 L19.3375695,7.73770831 L10.8819097,16.1933681 C10.5564583,16.5188195 10.0288542,16.5188195 9.70340277,16.1933681 L8.91774304,15.4077084 C8.59229165,15.082257 8.59229165,14.5546181 8.91774304,14.2292014 L17.3734722,5.77347219 L16.1337847,4.53371524 C15.6104861,4.01041663 15.9811111,3.11111107 16.7230556,3.11111107 L21.1666667,3.11111107 C21.6269098,3.11111107 22.0000001,3.48420135 22.0000001,3.9444444 Z M16.1329514,12.5136806 L15.5773959,13.0692361 C15.4211141,13.2255205 15.3333215,13.4374894 15.3333334,13.658507 L15.3333334,18.6666667 L4.22222218,18.6666667 L4.22222218,7.55555553 L13.3888889,7.55555553 C13.6098914,7.55554294 13.8218405,7.46775329 13.978125,7.31149303 L14.5336806,6.75593747 C15.0586458,6.23093747 14.6868403,5.3333333 13.9444445,5.3333333 L3.66666662,5.3333333 C2.74618051,5.3333333 1.99999995,6.07951386 1.99999995,6.99999997 L1.99999995,19.2222223 C1.99999995,20.1427084 2.74618051,20.8888889 3.66666662,20.8888889 L15.8888889,20.8888889 C16.809375,20.8888889 17.5555556,20.1427084 17.5555556,19.2222223 L17.5555556,13.1029167 C17.5555556,12.3604861 16.6579167,11.9886806 16.1329514,12.5136806 Z" id="path-1"></path>
    </defs>
    <g id="external-link-alt" stroke="none" stroke-width="1" fill="none" fill-rule="evenodd">
        <mask id="mask-2" fill="white">
            <use xlink:href="#path-1"></use>
        </mask>
        <g fill-rule="nonzero"></g>
        <g id="🎨-color" mask="url(#mask-2)" fill="#000000">
            <rect id="🎨-Color" x="0" y="0" width="24" height="24"></rect>
        </g>
    </g>
</svg>