<?xml version="1.0" encoding="UTF-8"?>
<svg width="24px" height="24px" viewBox="0 0 24 24" version="1.1" xmlns="http://www.w3.org/2000/svg" xmlns:xlink="http://www.w3.org/1999/xlink">
    <!-- Generator: Sketch 52.5 (67469) - http://www.bohemiancoding.com/sketch -->
    <title>external-link-square-alt</title>
    <desc>Created with Sketch.</desc>
    <defs>
        <path d="M20.75,5.12499997 L20.75,18.875 C20.75,19.9105469 19.9105469,20.75 18.875,20.75 L5.12499997,20.75 C4.08945309,20.75 3.24999996,19.9105469 3.24999996,18.875 L3.24999996,5.12499997 C3.24999996,4.08945309 4.08945309,3.24999996 5.12499997,3.24999996 L18.875,3.24999996 C19.9105469,3.24999996 20.75,4.08945309 20.75,5.12499997 Z M17.3125,5.74999997 L12.9386328,5.74999997 C12.1060938,5.74999997 11.6855078,6.76019529 12.2757031,7.35042966 L13.5250781,8.59992186 L5.88730466,16.2376953 C5.70425778,16.4207422 5.70425778,16.7175391 5.88730466,16.900625 L7.09937498,18.1126953 C7.28246091,18.2957422 7.57925779,18.2957422 7.76230467,18.1126953 L15.4000391,10.4749609 L16.6495703,11.7246094 C17.2366407,12.3116016 18.25,11.8994141 18.25,11.0616797 L18.25,6.68749997 C18.25,6.16972653 17.8302735,5.74999997 17.3125,5.74999997 Z" id="path-1"></path>
    </defs>
    <g id="external-link-square-alt" stroke="none" stroke-width="1" fill="none" fill-rule="evenodd">
        <mask id="mask-2" fill="white">
            <use xlink:href="#path-1"></use>
        </mask>
        <g fill-rule="nonzero"></g>
        <g id="🎨-color" mask="url(#mask-2)" fill="#000000">
            <rect id="🎨-Color" x="0" y="0" width="24" height="24"></rect>
        </g>
    </g>
</svg>