<?xml version="1.0" encoding="UTF-8"?>
<svg width="24px" height="24px" viewBox="0 0 24 24" version="1.1" xmlns="http://www.w3.org/2000/svg" xmlns:xlink="http://www.w3.org/1999/xlink">
    <!-- Generator: Sketch 52.5 (67469) - http://www.bohemiancoding.com/sketch -->
    <title>eye-slash</title>
    <desc>Created with Sketch.</desc>
    <defs>
        <path d="M11.4688194,15.5638542 C8.67427082,15.2509722 6.73923608,12.5469792 7.40874998,9.76378471 L11.4688194,15.5638542 Z M12,16.7048611 C8.43902776,16.7048611 5.33013886,14.8055208 3.66666662,11.9826389 C4.42204857,10.7007986 5.47569441,9.60965277 6.73416664,8.80006943 L5.77788191,7.43399303 C4.32642357,8.37965276 3.10836801,9.64725693 2.23076384,11.1364931 C1.92305674,11.6586402 1.92305674,12.3066723 2.23076384,12.8288194 C4.18763885,16.1495139 7.83819442,18.3715278 12,18.3715278 C12.4601157,18.3715568 12.9198226,18.3441122 13.3766667,18.2893403 L12.2648264,16.701007 C12.1765721,16.7034765 12.0882887,16.7047613 12,16.7048611 Z M21.7692362,12.8287847 C20.6153473,14.7869097 18.8726736,16.3614931 16.7847222,17.3250347 L18.4554167,19.7118403 C18.5873959,19.9003473 18.5415278,20.1601737 18.3530209,20.2921181 L17.6329861,20.7961806 C17.4444792,20.9281598 17.1846528,20.8822917 17.0527084,20.6937848 L5.5445833,4.25343746 C5.41260413,4.06493052 5.45847219,3.80510413 5.64697913,3.67315968 L6.36701386,3.16909718 C6.55552081,3.03711801 6.8153472,3.08298607 6.94729164,3.27149301 L8.87527776,6.0258333 C9.86847221,5.74454858 10.9169444,5.59374997 12,5.59374997 C16.1618056,5.59374997 19.8123612,7.81576387 21.7692362,11.1364931 C22.0769073,11.6586376 22.0769073,12.3066402 21.7692362,12.8287847 Z M20.3333334,11.9826389 C18.8001042,9.3807986 16.0389931,7.56354164 12.8277083,7.29489581 C12.4875694,7.64506942 12.2777778,8.12256943 12.2777778,8.64930554 C12.2777778,9.72319443 13.1483333,10.59375 14.2222222,10.59375 C15.2961111,10.59375 16.1666667,9.72319443 16.1666667,8.64930554 L16.166632,8.64784721 C17.2302431,10.6366319 16.7478472,13.1707639 14.8844097,14.6103125 L15.8113195,15.9344445 C17.7161806,15.1267708 19.3023611,13.7321528 20.3333334,11.9826389 Z" id="path-1"></path>
    </defs>
    <g id="eye-slash" stroke="none" stroke-width="1" fill="none" fill-rule="evenodd">
        <mask id="mask-2" fill="white">
            <use xlink:href="#path-1"></use>
        </mask>
        <g fill-rule="nonzero"></g>
        <g id="🎨-color" mask="url(#mask-2)" fill="#000000">
            <rect id="🎨-Color" x="0" y="0" width="24" height="24"></rect>
        </g>
    </g>
</svg>