<?xml version="1.0" encoding="UTF-8"?>
<svg width="24px" height="24px" viewBox="0 0 24 24" version="1.1" xmlns="http://www.w3.org/2000/svg" xmlns:xlink="http://www.w3.org/1999/xlink">
    <!-- Generator: Sketch 52.5 (67469) - http://www.bohemiancoding.com/sketch -->
    <title>eye-dropper</title>
    <desc>Created with Sketch.</desc>
    <defs>
        <path d="M3.97855746,15.0311891 C3.51072121,15.4990254 3.24756331,16.1337232 3.24756331,16.7957115 L3.24756331,18.5692008 L1.99999995,20.7524367 L3.24756331,22.0000001 L5.43079919,20.7524367 L7.20428848,20.7524367 C7.86588692,20.7524367 8.50058478,20.4896687 8.96842104,20.0218324 L13.905653,15.0853801 L8.91539959,10.0951267 L3.97855746,15.0311891 Z M20.8647174,3.13528261 C19.4038987,1.6732943 17.0331384,1.6732943 15.5723197,3.13528261 L12.5668616,6.14074071 L12.0561404,5.63001946 C11.6881092,5.26198827 11.0951267,5.2670565 10.7329435,5.63001946 L9.1356725,7.22729042 C8.77037035,7.59259257 8.77037035,8.18518517 9.1356725,8.55048731 L15.4491228,14.8639376 C15.817154,15.2319688 16.4101365,15.2269006 16.7723197,14.8639376 L18.3695907,13.2670565 C18.7348928,12.9017544 18.7348928,12.3091618 18.3695907,11.9438596 L17.8588694,11.4331384 L20.8643275,8.42768029 C22.3267057,6.96647171 22.3267057,4.59688105 20.8647174,3.13528261 Z" id="path-1"></path>
    </defs>
    <g id="eye-dropper" stroke="none" stroke-width="1" fill="none" fill-rule="evenodd">
        <mask id="mask-2" fill="white">
            <use xlink:href="#path-1"></use>
        </mask>
        <g fill-rule="nonzero"></g>
        <g id="🎨-color" mask="url(#mask-2)" fill="#000000">
            <rect id="🎨-Color" x="0" y="0" width="24" height="24"></rect>
        </g>
    </g>
</svg>