<?xml version="1.0" encoding="UTF-8"?>
<svg width="24px" height="24px" viewBox="0 0 24 24" version="1.1" xmlns="http://www.w3.org/2000/svg" xmlns:xlink="http://www.w3.org/1999/xlink">
    <!-- Generator: Sketch 52.5 (67469) - http://www.bohemiancoding.com/sketch -->
    <title>eye</title>
    <desc>Created with Sketch.</desc>
    <defs>
        <path d="M21.7349741,11.1553206 C19.7805893,7.83878681 16.1355286,5.62218368 11.982669,5.62218368 C7.82807624,5.62218368 4.18384745,7.8403466 2.2303639,11.1553206 C1.9231901,11.6765629 1.9231901,12.3234718 2.2303639,12.844714 C4.18478332,16.1612132 7.82980934,18.3778163 11.982669,18.3778163 C16.1372617,18.3778163 19.7814905,16.1596534 21.7349741,12.8446794 C22.0421491,12.3234499 22.0421491,11.6765501 21.7349741,11.1553206 Z M11.982669,16.7140382 C8.42786827,16.7140382 5.32440205,14.8179896 3.66377812,12 C5.19435005,9.40266896 7.95067589,7.5885615 11.1563951,7.32038126 C11.4959445,7.66994799 11.7053726,8.14662043 11.7053726,8.67244366 C11.7053726,9.74447139 10.8363258,10.6135182 9.76429808,10.6135182 C8.69227035,10.6135182 7.82322355,9.74447139 7.82322355,8.67244366 L7.82325821,8.67098785 C7.46946272,9.33251298 7.26863083,10.0881802 7.26863083,10.8908146 C7.26863083,13.4943154 9.3791681,15.6048527 11.982669,15.6048527 C14.5861699,15.6048527 16.6967071,13.4943154 16.6967071,10.8908146 C16.6967071,9.81521663 16.3362219,8.82395146 15.7298094,8.03067589 C17.6569844,8.83320622 19.2620104,10.2359099 20.3015598,12 C18.6409706,14.8179896 15.5374697,16.7140382 11.982669,16.7140382 Z" id="path-1"></path>
    </defs>
    <g id="eye" stroke="none" stroke-width="1" fill="none" fill-rule="evenodd">
        <mask id="mask-2" fill="white">
            <use xlink:href="#path-1"></use>
        </mask>
        <g fill-rule="nonzero"></g>
        <g id="🎨-color" mask="url(#mask-2)" fill="#000000">
            <rect id="🎨-Color" x="0" y="0" width="24" height="24"></rect>
        </g>
    </g>
</svg>