<?xml version="1.0" encoding="UTF-8"?>
<svg width="24px" height="24px" viewBox="0 0 24 24" version="1.1" xmlns="http://www.w3.org/2000/svg" xmlns:xlink="http://www.w3.org/1999/xlink">
    <!-- Generator: Sketch 52.5 (67469) - http://www.bohemiancoding.com/sketch -->
    <title>facebook-square</title>
    <desc>Created with Sketch.</desc>
    <defs>
        <path d="M20.75,5.12499997 L20.75,18.875 C20.75,19.9101563 19.9101563,20.75 18.875,20.75 L15.5429688,20.75 L15.5429688,13.828125 L17.9101563,13.828125 L18.25,11.1875 L15.5429688,11.1875 L15.5429688,9.49999999 C15.5429688,8.73437498 15.7539063,8.21484373 16.8515625,8.21484373 L18.25,8.21484373 L18.25,5.85546872 C18.0078125,5.82421872 17.1796875,5.74999997 16.2109375,5.74999997 C14.1953125,5.74999997 12.8125,6.98046872 12.8125,9.24218749 L12.8125,11.1914062 L10.4375,11.1914062 L10.4375,13.8320313 L12.8164063,13.8320313 L12.8164063,20.75 L5.12499997,20.75 C4.08984371,20.75 3.24999996,19.9101563 3.24999996,18.875 L3.24999996,5.12499997 C3.24999996,4.08984371 4.08984371,3.24999996 5.12499997,3.24999996 L18.875,3.24999996 C19.9101563,3.24999996 20.75,4.08984371 20.75,5.12499997 Z" id="path-1"></path>
    </defs>
    <g id="facebook-square" stroke="none" stroke-width="1" fill="none" fill-rule="evenodd">
        <mask id="mask-2" fill="white">
            <use xlink:href="#path-1"></use>
        </mask>
        <g></g>
        <g id="🎨-color" mask="url(#mask-2)" fill="#000000">
            <rect id="🎨-Color" x="0" y="0" width="24" height="24"></rect>
        </g>
    </g>
</svg>