<?xml version="1.0" encoding="UTF-8"?>
<svg width="24px" height="24px" viewBox="0 0 24 24" version="1.1" xmlns="http://www.w3.org/2000/svg" xmlns:xlink="http://www.w3.org/1999/xlink">
    <!-- Generator: Sketch 52.5 (67469) - http://www.bohemiancoding.com/sketch -->
    <title>facebook</title>
    <desc>Created with Sketch.</desc>
    <defs>
        <path d="M20.75,4.21484371 L20.75,19.78125 C20.75,20.3164063 20.3164063,20.7460938 19.7851563,20.7460938 L15.3242188,20.7460938 L15.3242188,13.9726563 L17.5976563,13.9726563 L17.9375,11.3320312 L15.3203125,11.3320312 L15.3203125,9.64453124 C15.3203125,8.87890623 15.53125,8.35937498 16.6289063,8.35937498 L18.0273438,8.35937498 L18.0273438,5.99609372 C17.7851563,5.96484372 16.9570313,5.89062497 15.9882813,5.89062497 C13.9726563,5.89062497 12.5898438,7.12109373 12.5898438,9.38281249 L12.5898438,11.3320312 L10.3085937,11.3320312 L10.3085937,13.9726563 L12.5898438,13.9726563 L12.5898438,20.75 L4.21484371,20.75 C3.68359371,20.75 3.24999996,20.3164063 3.24999996,19.7851563 L3.24999996,4.21484371 C3.24999996,3.68359371 3.68359371,3.24999996 4.21484371,3.24999996 L19.78125,3.24999996 C20.3164063,3.24999996 20.75,3.68359371 20.75,4.21484371 Z" id="path-1"></path>
    </defs>
    <g id="facebook" stroke="none" stroke-width="1" fill="none" fill-rule="evenodd">
        <mask id="mask-2" fill="white">
            <use xlink:href="#path-1"></use>
        </mask>
        <g></g>
        <g id="🎨-color" mask="url(#mask-2)" fill="#000000">
            <rect id="🎨-Color" x="0" y="0" width="24" height="24"></rect>
        </g>
    </g>
</svg>