<?xml version="1.0" encoding="UTF-8"?>
<svg width="24px" height="24px" viewBox="0 0 24 24" version="1.1" xmlns="http://www.w3.org/2000/svg" xmlns:xlink="http://www.w3.org/1999/xlink">
    <!-- Generator: Sketch 52.5 (67469) - http://www.bohemiancoding.com/sketch -->
    <title>fantasy-flight-games</title>
    <desc>Created with Sketch.</desc>
    <defs>
        <path d="M12,3.28359371 L3.28359371,12 L12,20.7164063 L20.7164063,12 L12,3.28359371 Z M5.45078122,11.9933594 C5.52734372,11.9152344 5.91640622,11.5128906 9.21992186,8.18554686 C10.8390625,6.55468747 12.5867188,6.47578122 13.8984375,7.45546873 C14.8605469,8.17421873 16.3226563,9.75624999 16.3261719,9.76015624 C16.3527344,9.78906249 16.3679688,9.87187499 16.3488281,9.89218749 C15.9085938,10.3546875 15.4628906,10.8117187 15.0402344,11.2472656 C13.7039063,9.98515624 13.4574219,9.75351561 13.1453125,9.53046874 C12.4511719,9.03476561 11.528125,9.13476561 10.9195312,9.72968749 C10.8347656,9.81289061 10.8496094,9.86367186 10.9242187,9.93867186 C11.0390625,10.0539062 12.021875,11.0453125 12.2949219,11.3363281 C11.828125,11.7894531 11.3707031,12.2335938 10.9007812,12.6902344 C10.43125,12.2003906 9.94453124,11.6929687 9.47343749,11.2015625 C8.63789061,12.0253906 7.84492185,12.8074219 7.05742185,13.5839844 C6.5215146,13.0541402 5.98596759,12.5239317 5.45078122,11.9933594 Z M14.6234375,15.9621094 C13.2371094,17.3460938 11.5730469,17.4519532 10.4441406,16.7617188 C9.58164061,16.234375 8.90585936,15.5085938 7.59531248,14.1507813 C8.06601561,13.6675781 8.52460936,13.196875 8.97695311,12.7324219 C10.2667969,13.9789063 10.4246094,14.1390625 10.7222656,14.3765625 C11.4441406,14.9523438 12.3832031,14.9105469 13.0394531,14.30625 C13.1832031,14.1738281 13.1835938,14.1640625 13.0449219,14.0234375 C12.63125,13.6042969 12.2171875,13.1859375 11.8039062,12.7664063 C11.7523437,12.7140625 11.6855469,12.6695313 11.7726562,12.5832031 C12.1941406,12.1648438 12.6117188,11.7425781 13.0308594,11.321875 C13.0410156,11.3117187 13.05625,11.3070312 13.1054688,11.2800781 C13.5886719,11.7828125 14.0789063,12.2925781 14.5605469,12.79375 C15.38125,11.9839844 16.1714844,11.2046875 16.953125,10.4335937 C17.4875,10.9570312 18.0128907,11.471875 18.5492188,11.9972656 C17.7613282,12.8121094 15.3585938,15.228125 14.6234375,15.9621094 Z M12,1.99999995 L1.99999995,12 L12,22.0000001 L22.0000001,12 L12,1.99999995 Z M2.62499995,12 L12,2.62499995 L21.375,12 L12,21.375 L2.62499995,12 Z" id="path-1"></path>
    </defs>
    <g id="fantasy-flight-games" stroke="none" stroke-width="1" fill="none" fill-rule="evenodd">
        <mask id="mask-2" fill="white">
            <use xlink:href="#path-1"></use>
        </mask>
        <g fill-rule="nonzero"></g>
        <g id="🎨-color" mask="url(#mask-2)" fill="#000000">
            <rect id="🎨-Color" x="0" y="0" width="24" height="24"></rect>
        </g>
    </g>
</svg>