<?xml version="1.0" encoding="UTF-8"?>
<svg width="24px" height="24px" viewBox="0 0 24 24" version="1.1" xmlns="http://www.w3.org/2000/svg" xmlns:xlink="http://www.w3.org/1999/xlink">
    <!-- Generator: Sketch 52.5 (67469) - http://www.bohemiancoding.com/sketch -->
    <title>fast-forward</title>
    <desc>Created with Sketch.</desc>
    <defs>
        <path d="M22.0000001,4.96874996 L22.0000001,19.03125 C22.0000001,19.2890625 21.7890625,19.5 21.53125,19.5 L19.96875,19.5 C19.7109375,19.5 19.5,19.2890625 19.5,19.03125 L19.5,13.0976563 L12.8007813,19.2109375 C11.9960937,19.8828125 10.75,19.3203125 10.75,18.25 L10.75,13.0976563 L4.05078121,19.2109375 C3.24609371,19.8828125 1.99999995,19.3203125 1.99999995,18.25 L1.99999995,5.74999997 C1.99999995,4.67968746 3.24609371,4.12109371 4.05078121,4.78906246 L10.75,10.859375 L10.75,5.74999997 C10.75,4.67968746 11.9960937,4.12109371 12.8007813,4.78906246 L19.5,10.859375 L19.5,4.96874996 C19.5,4.71093746 19.7109375,4.49999996 19.96875,4.49999996 L21.53125,4.49999996 C21.7890625,4.49999996 22.0000001,4.71093746 22.0000001,4.96874996 Z" id="path-1"></path>
    </defs>
    <g id="fast-forward" stroke="none" stroke-width="1" fill="none" fill-rule="evenodd">
        <mask id="mask-2" fill="white">
            <use xlink:href="#path-1"></use>
        </mask>
        <g></g>
        <g id="🎨-color" mask="url(#mask-2)" fill="#000000">
            <rect id="🎨-Color" x="0" y="0" width="24" height="24"></rect>
        </g>
    </g>
</svg>