<?xml version="1.0" encoding="UTF-8"?>
<svg width="24px" height="24px" viewBox="0 0 24 24" version="1.1" xmlns="http://www.w3.org/2000/svg" xmlns:xlink="http://www.w3.org/1999/xlink">
    <!-- Generator: Sketch 52.5 (67469) - http://www.bohemiancoding.com/sketch -->
    <title>fast-backward</title>
    <desc>Created with Sketch.</desc>
    <defs>
        <path d="M1.99999995,19.03125 L1.99999995,4.96874996 C1.99999995,4.71093746 2.21093745,4.49999996 2.46874995,4.49999996 L4.03124996,4.49999996 C4.28906246,4.49999996 4.49999996,4.71093746 4.49999996,4.96874996 L4.49999996,10.9023437 L11.1992187,4.78906246 C12.0039063,4.12109371 13.25,4.67968746 13.25,5.74999997 L13.25,10.9023437 L19.9492188,4.78906246 C20.7539063,4.12109371 22.0000001,4.67968746 22.0000001,5.74999997 L22.0000001,18.25 C22.0000001,19.3203125 20.7539063,19.8789063 19.9492188,19.2109375 L13.25,13.1445313 L13.25,18.25 C13.25,19.3203125 12.0039063,19.8789063 11.1992187,19.2109375 L4.49999996,13.1445313 L4.49999996,19.03125 C4.49999996,19.2890625 4.28906246,19.5 4.03124996,19.5 L2.46874995,19.5 C2.21093745,19.5 1.99999995,19.2890625 1.99999995,19.03125 Z" id="path-1"></path>
    </defs>
    <g id="fast-backward" stroke="none" stroke-width="1" fill="none" fill-rule="evenodd">
        <mask id="mask-2" fill="white">
            <use xlink:href="#path-1"></use>
        </mask>
        <g></g>
        <g id="🎨-color" mask="url(#mask-2)" fill="#000000">
            <rect id="🎨-Color" x="0" y="0" width="24" height="24"></rect>
        </g>
    </g>
</svg>