<?xml version="1.0" encoding="UTF-8"?>
<svg width="24px" height="24px" viewBox="0 0 24 24" version="1.1" xmlns="http://www.w3.org/2000/svg" xmlns:xlink="http://www.w3.org/1999/xlink">
    <!-- Generator: Sketch 52.5 (67469) - http://www.bohemiancoding.com/sketch -->
    <title>fax</title>
    <desc>Created with Sketch.</desc>
    <defs>
        <path d="M4.49999996,6.99999997 L3.24999996,6.99999997 C2.55976558,6.99999997 1.99999995,7.5597656 1.99999995,8.24999998 L1.99999995,20.75 C1.99999995,21.4402344 2.55976558,22.0000001 3.24999996,22.0000001 L4.49999996,22.0000001 C5.19023434,22.0000001 5.74999997,21.4402344 5.74999997,20.75 L5.74999997,8.24999998 C5.74999997,7.5597656 5.19023434,6.99999997 4.49999996,6.99999997 Z M20.75,8.24999998 L20.75,5.01757809 C20.75,4.68593746 20.6183594,4.36835934 20.3839844,4.13359371 L18.6160157,2.36601558 C18.3816407,2.13164058 18.0636719,1.99999995 17.7320313,1.99999995 L8.24999998,1.99999995 C7.5597656,1.99999995 6.99999997,2.55976558 6.99999997,3.24999996 L6.99999997,20.75 C6.99999997,21.4402344 7.5597656,22.0000001 8.24999998,22.0000001 L20.75,22.0000001 C21.4402344,22.0000001 22.0000001,21.4402344 22.0000001,20.75 L22.0000001,9.49999999 C22.0000001,8.80976561 21.4402344,8.24999998 20.75,8.24999998 Z M13.25,18.875 C13.25,19.2203125 12.9703125,19.5 12.625,19.5 L11.375,19.5 C11.0296875,19.5 10.75,19.2203125 10.75,18.875 L10.75,17.625 C10.75,17.2796875 11.0296875,17 11.375,17 L12.625,17 C12.9703125,17 13.25,17.2796875 13.25,17.625 L13.25,18.875 Z M13.25,13.875 C13.25,14.2203125 12.9703125,14.5 12.625,14.5 L11.375,14.5 C11.0296875,14.5 10.75,14.2203125 10.75,13.875 L10.75,12.625 C10.75,12.2796875 11.0296875,12 11.375,12 L12.625,12 C12.9703125,12 13.25,12.2796875 13.25,12.625 L13.25,13.875 Z M18.25,18.875 C18.25,19.2203125 17.9703125,19.5 17.625,19.5 L16.375,19.5 C16.0296875,19.5 15.75,19.2203125 15.75,18.875 L15.75,17.625 C15.75,17.2796875 16.0296875,17 16.375,17 L17.625,17 C17.9703125,17 18.25,17.2796875 18.25,17.625 L18.25,18.875 Z M18.25,13.875 C18.25,14.2203125 17.9703125,14.5 17.625,14.5 L16.375,14.5 C16.0296875,14.5 15.75,14.2203125 15.75,13.875 L15.75,12.625 C15.75,12.2796875 16.0296875,12 16.375,12 L17.625,12 C17.9703125,12 18.25,12.2796875 18.25,12.625 L18.25,13.875 Z M18.875,9.49999999 L8.87499998,9.49999999 L8.87499998,3.87499996 L17,3.87499996 L17,5.12499997 C17,5.47031247 17.2796875,5.74999997 17.625,5.74999997 L18.875,5.74999997 L18.875,9.49999999 Z" id="path-1"></path>
    </defs>
    <g id="fax" stroke="none" stroke-width="1" fill="none" fill-rule="evenodd">
        <mask id="mask-2" fill="white">
            <use xlink:href="#path-1"></use>
        </mask>
        <g fill-rule="nonzero"></g>
        <g id="🎨-color" mask="url(#mask-2)" fill="#000000">
            <rect id="🎨-Color" x="0" y="0" width="24" height="24"></rect>
        </g>
    </g>
</svg>