<?xml version="1.0" encoding="UTF-8"?>
<svg width="24px" height="24px" viewBox="0 0 24 24" version="1.1" xmlns="http://www.w3.org/2000/svg" xmlns:xlink="http://www.w3.org/1999/xlink">
    <!-- Generator: Sketch 52.5 (67469) - http://www.bohemiancoding.com/sketch -->
    <title>feather</title>
    <desc>Created with Sketch.</desc>
    <defs>
        <path d="M20.231579,3.78713446 C17.7929825,1.351267 13.928655,1.26159839 10.3961014,4.79025338 C7.33138399,7.85146197 8.01871343,7.16530212 7.05302142,8.12982454 C4.6959064,10.4842105 4.30877189,14.0101365 4.57192979,16.3625731 L11.528655,9.41325535 C11.7727096,9.16959063 12.1680312,9.16959063 12.4116959,9.41325535 C12.6553606,9.65692007 12.6553606,10.0518518 12.4116959,10.2955166 L2.29395707,20.4027291 C1.92826506,20.7680312 1.92826506,21.3606238 2.29395707,21.725926 C2.65964908,22.0912281 3.2530214,22.0912281 3.61871341,21.725926 L6.19571147,19.151657 C8.23469784,19.7641326 12.8966862,19.860039 15.8187135,17.0097466 L11.9906433,17.0097466 L17.7438597,15.0939571 C19.6927876,13.1473684 19.1621833,13.6834308 19.5493178,13.2670565 L15.737232,13.2670565 L20.8654971,11.5594542 C22.6370371,8.6565302 22.203119,5.75672511 20.231579,3.78713446 Z" id="path-1"></path>
    </defs>
    <g id="feather" stroke="none" stroke-width="1" fill="none" fill-rule="evenodd">
        <mask id="mask-2" fill="white">
            <use xlink:href="#path-1"></use>
        </mask>
        <g></g>
        <g id="🎨-color" mask="url(#mask-2)" fill="#000000">
            <rect id="🎨-Color" x="0" y="0" width="24" height="24"></rect>
        </g>
    </g>
</svg>