<?xml version="1.0" encoding="UTF-8"?>
<svg width="24px" height="24px" viewBox="0 0 24 24" version="1.1" xmlns="http://www.w3.org/2000/svg" xmlns:xlink="http://www.w3.org/1999/xlink">
    <!-- Generator: Sketch 52.5 (67469) - http://www.bohemiancoding.com/sketch -->
    <title>feather-alt</title>
    <desc>Created with Sketch.</desc>
    <defs>
        <path d="M22,1.99999995 C19.9773438,2.13906245 5.76718747,3.49218746 4.77382809,13.2347656 C4.65312496,14.2761719 4.58476559,15.3222656 4.53984371,16.3691406 L11.5269531,9.38906249 C11.7710937,9.14492186 12.1675781,9.14492186 12.4117188,9.38906249 C12.6558594,9.63320311 12.6558594,10.0289062 12.4117188,10.2730469 L2.27499995,20.3996094 C1.9085937,20.765625 1.9085937,21.359375 2.27499995,21.7253907 C2.6414062,22.0914063 3.23554683,22.0914063 3.60234371,21.7253907 L5.83398434,19.4960938 C7.47812498,19.490625 9.12109374,19.3972657 10.7542969,19.2085938 C12.8433594,18.9960938 14.5441406,18.1746094 15.9332031,17 L11.9898437,17 L17.7238282,15.090625 C18.1632813,14.5089844 18.5585938,13.8910156 18.9132813,13.25 L15.74375,13.25 L19.9054688,11.1714844 C21.5425782,7.18984373 21.9292969,3.02578121 22,1.99999995 Z" id="path-1"></path>
    </defs>
    <g id="feather-alt" stroke="none" stroke-width="1" fill="none" fill-rule="evenodd">
        <mask id="mask-2" fill="white">
            <use xlink:href="#path-1"></use>
        </mask>
        <g></g>
        <g id="🎨-color" mask="url(#mask-2)" fill="#000000">
            <rect id="🎨-Color" x="0" y="0" width="24" height="24"></rect>
        </g>
    </g>
</svg>