<?xml version="1.0" encoding="UTF-8"?>
<svg width="24px" height="24px" viewBox="0 0 24 24" version="1.1" xmlns="http://www.w3.org/2000/svg" xmlns:xlink="http://www.w3.org/1999/xlink">
    <!-- Generator: Sketch 52.5 (67469) - http://www.bohemiancoding.com/sketch -->
    <title>female</title>
    <desc>Created with Sketch.</desc>
    <defs>
        <path d="M12,1.99999995 C13.3807031,1.99999995 14.5,3.11929683 14.5,4.49999996 C14.5,5.88070309 13.3807031,6.99999997 12,6.99999997 C10.6192969,6.99999997 9.49999999,5.88070309 9.49999999,4.49999996 C9.49999999,3.11929683 10.6192969,1.99999995 12,1.99999995 Z M16.6594922,15.8351172 L14.7844922,8.33511717 C14.6801555,7.91778129 14.3051807,7.62500686 13.875,7.62499998 L13.43125,7.62499998 C12.5441016,8.03292967 11.4941406,8.05054686 10.56875,7.62499998 L10.125,7.62499998 C9.69481934,7.62500686 9.31984453,7.91778129 9.2155078,8.33511717 L7.34050779,15.8351172 C7.19277341,16.4259766 7.63996092,17 8.24999998,17 L10.4375,17 L10.4375,21.0625 C10.4375,21.5802735 10.8572266,22.0000001 11.375,22.0000001 L12.625,22.0000001 C13.1427734,22.0000001 13.5625,21.5802735 13.5625,21.0625 L13.5625,17 L15.75,17 C16.3590235,17 16.807461,16.4269141 16.6594922,15.8351172 Z" id="path-1"></path>
    </defs>
    <g id="female" stroke="none" stroke-width="1" fill="none" fill-rule="evenodd">
        <mask id="mask-2" fill="white">
            <use xlink:href="#path-1"></use>
        </mask>
        <g fill-rule="nonzero"></g>
        <g id="🎨-color" mask="url(#mask-2)" fill="#000000">
            <rect id="🎨-Color" x="0" y="0" width="24" height="24"></rect>
        </g>
    </g>
</svg>