<?xml version="1.0" encoding="UTF-8"?>
<svg width="24px" height="24px" viewBox="0 0 24 24" version="1.1" xmlns="http://www.w3.org/2000/svg" xmlns:xlink="http://www.w3.org/1999/xlink">
    <!-- Generator: Sketch 52.5 (67469) - http://www.bohemiancoding.com/sketch -->
    <title>fighter-jet</title>
    <desc>Created with Sketch.</desc>
    <defs>
        <path d="M19,11 L15,10.5 L13.5,9.99999999 L12.75,9.99999999 L9.09868749,5.37499997 L10.3333437,5.37499997 C10.6979062,5.37499997 11,5.29296872 11,5.18749997 C11,5.08203122 10.6979062,4.99999997 10.3333437,4.99999997 L6.74999997,4.99999997 L6.74999997,5.37499997 L7.24999998,5.37499997 L7.24999998,10.5 L5.74999997,10.5 L3.66665621,7.99999998 L2.5833437,7.99999998 L2.24999995,8.33334373 L2.24999995,10.5 L2.49999995,10.5 L2.49999995,11 L3.99999996,11 L3.99999996,11.0833125 L1.99999995,11.3333125 L1.99999995,12.6666563 L3.99999996,12.9166563 L3.99999996,13 L2.49999995,13 L2.49999995,13.5 L2.24999995,13.5 L2.24999995,15.6666563 L2.5833437,16 L3.66668746,16 L5.74999997,13.5 L7.24999998,13.5 L7.24999998,18.625 L6.74999997,18.625 L6.74999997,19 L10.3333437,19 C10.6979375,19 11,18.9179688 11,18.8125 C11,18.7070313 10.6979062,18.625 10.3333437,18.625 L9.09868749,18.625 L12.75,14 L13.5,14 L15,13.5 L19,13 C22.0000001,12.3333438 22.0000001,12.1692813 22.0000001,12 C22.0000001,11.8307187 22.0000001,11.6666562 19,11 Z" id="path-1"></path>
    </defs>
    <g id="fighter-jet" stroke="none" stroke-width="1" fill="none" fill-rule="evenodd">
        <mask id="mask-2" fill="white">
            <use xlink:href="#path-1"></use>
        </mask>
        <g></g>
        <g id="🎨-color" mask="url(#mask-2)" fill="#000000">
            <rect id="🎨-Color" x="0" y="0" width="24" height="24"></rect>
        </g>
    </g>
</svg>