<?xml version="1.0" encoding="UTF-8"?>
<svg width="24px" height="24px" viewBox="0 0 24 24" version="1.1" xmlns="http://www.w3.org/2000/svg" xmlns:xlink="http://www.w3.org/1999/xlink">
    <!-- Generator: Sketch 52.5 (67469) - http://www.bohemiancoding.com/sketch -->
    <title>file-invoice</title>
    <desc>Created with Sketch.</desc>
    <defs>
        <path d="M15.75,12 L8.24999998,12 L8.24999998,14.5 L15.75,14.5 L15.75,12 Z M19.2265625,6.10156247 L15.4023438,2.27343745 C15.2265625,2.0976562 14.9882813,1.99999995 14.7382813,1.99999995 L14.5,1.99999995 L14.5,6.99999997 L19.5,6.99999997 L19.5,6.76171872 C19.5,6.51562497 19.4023438,6.27734372 19.2265625,6.10156247 Z M13.25,7.31249998 L13.25,1.99999995 L5.43749997,1.99999995 C4.91796871,1.99999995 4.49999996,2.4179687 4.49999996,2.93749995 L4.49999996,21.0625 C4.49999996,21.5820313 4.91796871,22.0000001 5.43749997,22.0000001 L18.5625,22.0000001 C19.0820313,22.0000001 19.5,21.5820313 19.5,21.0625 L19.5,8.24999998 L14.1875,8.24999998 C13.671875,8.24999998 13.25,7.82812498 13.25,7.31249998 Z M6.99999997,4.81249996 C6.99999997,4.63984371 7.13984373,4.49999996 7.31249998,4.49999996 L10.4375,4.49999996 C10.6101562,4.49999996 10.75,4.63984371 10.75,4.81249996 L10.75,5.43749997 C10.75,5.61015622 10.6101562,5.74999997 10.4375,5.74999997 L7.31249998,5.74999997 C7.13984373,5.74999997 6.99999997,5.61015622 6.99999997,5.43749997 L6.99999997,4.81249996 Z M6.99999997,7.31249998 C6.99999997,7.13984373 7.13984373,6.99999997 7.31249998,6.99999997 L10.4375,6.99999997 C10.6101562,6.99999997 10.75,7.13984373 10.75,7.31249998 L10.75,7.93749998 C10.75,8.11015623 10.6101562,8.24999998 10.4375,8.24999998 L7.31249998,8.24999998 C7.13984373,8.24999998 6.99999997,8.11015623 6.99999997,7.93749998 L6.99999997,7.31249998 Z M17,19.1875 C17,19.3601563 16.8601563,19.5 16.6875,19.5 L13.5625,19.5 C13.3898438,19.5 13.25,19.3601563 13.25,19.1875 L13.25,18.5625 C13.25,18.3898438 13.3898438,18.25 13.5625,18.25 L16.6875,18.25 C16.8601563,18.25 17,18.3898438 17,18.5625 L17,19.1875 Z M17,11.375 L17,15.125 C17,15.4703125 16.7203125,15.75 16.375,15.75 L7.62499998,15.75 C7.27968748,15.75 6.99999997,15.4703125 6.99999997,15.125 L6.99999997,11.375 C6.99999997,11.0296875 7.27968748,10.75 7.62499998,10.75 L16.375,10.75 C16.7203125,10.75 17,11.0296875 17,11.375 Z" id="path-1"></path>
    </defs>
    <g id="file-invoice" stroke="none" stroke-width="1" fill="none" fill-rule="evenodd">
        <mask id="mask-2" fill="white">
            <use xlink:href="#path-1"></use>
        </mask>
        <g fill-rule="nonzero"></g>
        <g id="🎨-color" mask="url(#mask-2)" fill="#000000">
            <rect id="🎨-Color" x="0" y="0" width="24" height="24"></rect>
        </g>
    </g>
</svg>