<?xml version="1.0" encoding="UTF-8"?>
<svg width="24px" height="24px" viewBox="0 0 24 24" version="1.1" xmlns="http://www.w3.org/2000/svg" xmlns:xlink="http://www.w3.org/1999/xlink">
    <!-- Generator: Sketch 52.5 (67469) - http://www.bohemiancoding.com/sketch -->
    <title>file-import</title>
    <desc>Created with Sketch.</desc>
    <defs>
        <path d="M2.62499995,13.25 C2.27968745,13.25 1.99999995,13.5296875 1.99999995,13.875 L1.99999995,15.125 C1.99999995,15.4703125 2.27968745,15.75 2.62499995,15.75 L6.99999997,15.75 L6.99999997,13.25 L2.62499995,13.25 Z M15.75,7.31249998 L15.75,1.99999995 L7.93749998,1.99999995 C7.41796873,1.99999995 6.99999997,2.4179687 6.99999997,2.93749995 L6.99999997,13.25 L11.9996094,13.25 L11.9996094,10.7039062 C11.9996094,10.1460937 12.675,9.86757811 13.0683594,10.2636719 L16.8066406,14.0304688 C17.0644532,14.2902344 17.0644532,14.7097656 16.8066406,14.9695313 L13.0683594,18.7359375 C12.6753906,19.1320313 11.9996094,18.8535157 11.9996094,18.2957032 L11.9996094,15.75 L6.99999997,15.75 L6.99999997,21.0625 C6.99999997,21.5820313 7.41796873,22.0000001 7.93749998,22.0000001 L21.0625,22.0000001 C21.5820313,22.0000001 22.0000001,21.5820313 22.0000001,21.0625 L22.0000001,8.24999998 L16.6875,8.24999998 C16.171875,8.24999998 15.75,7.82812498 15.75,7.31249998 Z M21.7265625,6.10156247 L17.9023438,2.27343745 C17.7265625,2.0976562 17.4882813,1.99999995 17.2382813,1.99999995 L17,1.99999995 L17,6.99999997 L22.0000001,6.99999997 L22.0000001,6.76171872 C22.0000001,6.51562497 21.9023438,6.27734372 21.7265625,6.10156247 Z" id="path-1"></path>
    </defs>
    <g id="file-import" stroke="none" stroke-width="1" fill="none" fill-rule="evenodd">
        <mask id="mask-2" fill="white">
            <use xlink:href="#path-1"></use>
        </mask>
        <g fill-rule="nonzero"></g>
        <g id="🎨-color" mask="url(#mask-2)" fill="#000000">
            <rect id="🎨-Color" x="0" y="0" width="24" height="24"></rect>
        </g>
    </g>
</svg>