<?xml version="1.0" encoding="UTF-8"?>
<svg width="24px" height="24px" viewBox="0 0 24 24" version="1.1" xmlns="http://www.w3.org/2000/svg" xmlns:xlink="http://www.w3.org/1999/xlink">
    <!-- Generator: Sketch 52.5 (67469) - http://www.bohemiancoding.com/sketch -->
    <title>file-medical-alt</title>
    <desc>Created with Sketch.</desc>
    <defs>
        <path d="M14.5,7.31249998 L14.5,1.99999995 L6.68749997,1.99999995 C6.16796872,1.99999995 5.74999997,2.4179687 5.74999997,2.93749995 L5.74999997,12 L3.56249996,12 C3.39062496,12 3.24999996,12.140625 3.24999996,12.3125 L3.24999996,12.9375 C3.24999996,13.109375 3.39062496,13.25 3.56249996,13.25 L9.06640624,13.25 C9.18359374,13.25 9.29296874,13.3164063 9.34765624,13.421875 L10.125,14.9765625 L12.34375,10.5351562 C12.4570313,10.3046875 12.7890625,10.3046875 12.9023438,10.5351562 L14.2578125,13.25 L17,13.25 C17.34375,13.25 17.625,13.53125 17.625,13.875 C17.625,14.21875 17.34375,14.5 17,14.5 L13.4882813,14.5 L12.625,12.7734375 L10.40625,17.2148438 C10.2929687,17.4453125 9.96093749,17.4453125 9.84765624,17.2148438 L8.48828123,14.5 L5.74999997,14.5 L5.74999997,21.0625 C5.74999997,21.5820313 6.16796872,22.0000001 6.68749997,22.0000001 L19.8125,22.0000001 C20.3320313,22.0000001 20.75,21.5820313 20.75,21.0625 L20.75,8.24999998 L15.4375,8.24999998 C14.921875,8.24999998 14.5,7.82812498 14.5,7.31249998 Z M20.4765625,6.10156247 L16.6523438,2.27343745 C16.4765625,2.0976562 16.2382813,1.99999995 15.9882813,1.99999995 L15.75,1.99999995 L15.75,6.99999997 L20.75,6.99999997 L20.75,6.76171872 C20.75,6.51562497 20.6523438,6.27734372 20.4765625,6.10156247 Z" id="path-1"></path>
    </defs>
    <g id="file-medical-alt" stroke="none" stroke-width="1" fill="none" fill-rule="evenodd">
        <mask id="mask-2" fill="white">
            <use xlink:href="#path-1"></use>
        </mask>
        <g fill-rule="nonzero"></g>
        <g id="🎨-color" mask="url(#mask-2)" fill="#000000">
            <rect id="🎨-Color" x="0" y="0" width="24" height="24"></rect>
        </g>
    </g>
</svg>