<?xml version="1.0" encoding="UTF-8"?>
<svg width="24px" height="24px" viewBox="0 0 24 24" version="1.1" xmlns="http://www.w3.org/2000/svg" xmlns:xlink="http://www.w3.org/1999/xlink">
    <!-- Generator: Sketch 52.5 (67469) - http://www.bohemiancoding.com/sketch -->
    <title>file-excel</title>
    <desc>Created with Sketch.</desc>
    <defs>
        <path d="M18.9356725,5.85575046 L15.6647174,2.58479527 C15.3138402,2.23391808 14.8382066,2.03508767 14.3430799,2.03508767 L6.38596488,2.03508767 C5.35282648,2.0389863 4.51461985,2.87719294 4.51461985,3.91033134 L4.51461985,20.128655 C4.51461985,21.1617934 5.35282648,22.0000001 6.38596488,22.0000001 L17.6140351,22.0000001 C18.6471735,22.0000001 19.4853802,21.1617934 19.4853802,20.128655 L19.4853802,7.18128653 C19.4853802,6.68615982 19.2865497,6.20662765 18.9356725,5.85575046 Z M17.4619883,7.02923974 L14.4951267,7.02923974 L14.4951267,4.06237813 L17.4619883,7.02923974 Z M6.38596488,20.128655 L6.38596488,3.91033134 L12.6237817,3.91033134 L12.6237817,7.96491226 C12.6237817,8.48343078 13.0409357,8.90058478 13.5594542,8.90058478 L17.6140351,8.90058478 L17.6140351,20.128655 L6.38596488,20.128655 Z M14.6510721,10.7719298 L13.5282651,10.7719298 C13.3567252,10.7719298 13.2007797,10.8654971 13.1189084,11.0175439 C12.417154,12.3079922 12.2534113,12.6705653 12.0038986,13.2670565 C11.4619883,12.1325536 11.7348928,12.5925926 10.8888889,11.0175439 C10.8070175,10.8654971 10.6471735,10.7719298 10.4756335,10.7719298 L9.34892786,10.7719298 C8.98635476,10.7719298 8.76413254,11.1617934 8.94346977,11.4736842 L10.748538,14.5146199 L8.94346977,17.5555556 C8.7602339,17.8674464 8.98635476,18.25731 9.34892786,18.25731 L10.4756335,18.25731 C10.6471735,18.25731 10.8031189,18.1637427 10.8849902,18.0116959 C11.7309942,16.4522417 11.7816764,16.25731 12,15.7621833 C12.5808967,16.9395712 12.2300195,16.3820663 13.1150098,18.0116959 C13.1968811,18.1637427 13.3567252,18.25731 13.5282651,18.25731 L14.6510721,18.25731 C15.0136452,18.25731 15.2358675,17.8674464 15.0565302,17.5555556 L13.2475634,14.5146199 C13.2748538,14.4717349 14.4288499,12.545809 15.0526316,11.4736842 C15.2358675,11.1617934 15.0097466,10.7719298 14.6510721,10.7719298 Z" id="path-1"></path>
    </defs>
    <g id="file-excel" stroke="none" stroke-width="1" fill="none" fill-rule="evenodd">
        <mask id="mask-2" fill="white">
            <use xlink:href="#path-1"></use>
        </mask>
        <g fill-rule="nonzero"></g>
        <g id="🎨-color" mask="url(#mask-2)" fill="#000000">
            <rect id="🎨-Color" x="0" y="0" width="24" height="24"></rect>
        </g>
    </g>
</svg>