<?xml version="1.0" encoding="UTF-8"?>
<svg width="24px" height="24px" viewBox="0 0 24 24" version="1.1" xmlns="http://www.w3.org/2000/svg" xmlns:xlink="http://www.w3.org/1999/xlink">
    <!-- Generator: Sketch 52.5 (67469) - http://www.bohemiancoding.com/sketch -->
    <title>file-invoice-dollar</title>
    <desc>Created with Sketch.</desc>
    <defs>
        <path d="M19.2265625,6.10156247 L15.4023438,2.27343745 C15.2265625,2.0976562 14.9882813,1.99999995 14.7382813,1.99999995 L14.5,1.99999995 L14.5,6.99999997 L19.5,6.99999997 L19.5,6.76171872 C19.5,6.51562497 19.4023438,6.27734372 19.2265625,6.10156247 Z M13.25,7.31249998 L13.25,1.99999995 L5.43749997,1.99999995 C4.91796871,1.99999995 4.49999996,2.4179687 4.49999996,2.93749995 L4.49999996,21.0625 C4.49999996,21.5820313 4.91796871,22.0000001 5.43749997,22.0000001 L18.5625,22.0000001 C19.0820313,22.0000001 19.5,21.5820313 19.5,21.0625 L19.5,8.24999998 L14.1875,8.24999998 C13.671875,8.24999998 13.25,7.82812498 13.25,7.31249998 Z M6.99999997,4.81249996 C6.99999997,4.63984371 7.13984373,4.49999996 7.31249998,4.49999996 L10.4375,4.49999996 C10.6101562,4.49999996 10.75,4.63984371 10.75,4.81249996 L10.75,5.43749997 C10.75,5.61015622 10.6101562,5.74999997 10.4375,5.74999997 L7.31249998,5.74999997 C7.13984373,5.74999997 6.99999997,5.61015622 6.99999997,5.43749997 L6.99999997,4.81249996 Z M6.99999997,7.93749998 L6.99999997,7.31249998 C6.99999997,7.13984373 7.13984373,6.99999997 7.31249998,6.99999997 L10.4375,6.99999997 C10.6101562,6.99999997 10.75,7.13984373 10.75,7.31249998 L10.75,7.93749998 C10.75,8.11015623 10.6101562,8.24999998 10.4375,8.24999998 L7.31249998,8.24999998 C7.13984373,8.24999998 6.99999997,8.11015623 6.99999997,7.93749998 Z M12.625,18.2453125 L12.625,19.1875 C12.625,19.3601563 12.4851563,19.5 12.3125,19.5 L11.6875,19.5 C11.5148437,19.5 11.375,19.3601563 11.375,19.1875 L11.375,18.2386719 C10.9339844,18.2160157 10.5050781,18.0621094 10.1496094,17.7953125 C9.99726561,17.6808594 9.98945311,17.4527344 10.1273437,17.3210938 L10.5863281,16.8832031 C10.6945312,16.7800781 10.8554687,16.7753906 10.9820312,16.8546875 C11.1332031,16.9492188 11.3046875,17 11.4828125,17 L12.5808594,17 C12.8347656,17 13.0417969,16.76875 13.0417969,16.4847656 C13.0417969,16.2523438 12.9007813,16.0476563 12.6992188,15.9875 L10.9414062,15.4601563 C10.2152344,15.2421875 9.70781249,14.5453125 9.70781249,13.7652344 C9.70781249,12.8074219 10.4519531,12.0292969 11.3746094,12.0046875 L11.3746094,11.0625 C11.3746094,10.8898437 11.5144531,10.75 11.6871094,10.75 L12.3121094,10.75 C12.4847656,10.75 12.6246094,10.8898437 12.6246094,11.0625 L12.6246094,12.0113281 C13.065625,12.0339844 13.4945313,12.1875 13.85,12.4546875 C14.0023438,12.5691406 14.0101563,12.7972656 13.8722656,12.9289063 L13.4132813,13.3667969 C13.3050781,13.4699219 13.1441406,13.4746094 13.0175781,13.3953125 C12.8664063,13.3003906 12.6949219,13.25 12.5167969,13.25 L11.41875,13.25 C11.1648437,13.25 10.9578125,13.48125 10.9578125,13.7652344 C10.9578125,13.9976563 11.0988281,14.2023438 11.3003906,14.2625 L13.0582031,14.7898438 C13.784375,15.0078125 14.2917969,15.7046875 14.2917969,16.4847656 C14.2917969,17.4429688 13.5476563,18.2207032 12.625,18.2453125 Z" id="path-1"></path>
    </defs>
    <g id="file-invoice-dollar" stroke="none" stroke-width="1" fill="none" fill-rule="evenodd">
        <mask id="mask-2" fill="white">
            <use xlink:href="#path-1"></use>
        </mask>
        <g fill-rule="nonzero"></g>
        <g id="🎨-color" mask="url(#mask-2)" fill="#000000">
            <rect id="🎨-Color" x="0" y="0" width="24" height="24"></rect>
        </g>
    </g>
</svg>