<?xml version="1.0" encoding="UTF-8"?>
<svg width="24px" height="24px" viewBox="0 0 24 24" version="1.1" xmlns="http://www.w3.org/2000/svg" xmlns:xlink="http://www.w3.org/1999/xlink">
    <!-- Generator: Sketch 52.5 (67469) - http://www.bohemiancoding.com/sketch -->
    <title>file-alt</title>
    <desc>Created with Sketch.</desc>
    <defs>
        <path d="M15.75,11.6875 L15.75,12.78125 C15.75,13.0390625 15.5390625,13.25 15.28125,13.25 L8.71874998,13.25 C8.46093748,13.25 8.24999998,13.0390625 8.24999998,12.78125 L8.24999998,11.6875 C8.24999998,11.4296875 8.46093748,11.21875 8.71874998,11.21875 L15.28125,11.21875 C15.5390625,11.21875 15.75,11.4296875 15.75,11.6875 Z M15.28125,14.5 L8.71874998,14.5 C8.46093748,14.5 8.24999998,14.7109375 8.24999998,14.96875 L8.24999998,16.0625 C8.24999998,16.3203125 8.46093748,16.53125 8.71874998,16.53125 L15.28125,16.53125 C15.5390625,16.53125 15.75,16.3203125 15.75,16.0625 L15.75,14.96875 C15.75,14.7109375 15.5390625,14.5 15.28125,14.5 Z M19.5,7.15234373 L19.5,20.125 C19.5,21.1601563 18.6601563,22.0000001 17.625,22.0000001 L6.37499997,22.0000001 C5.33984372,22.0000001 4.49999996,21.1601563 4.49999996,20.125 L4.49999996,3.87499996 C4.49999996,2.8398437 5.33984372,1.99999995 6.37499997,1.99999995 L14.3476563,1.99999995 C14.84375,1.99999995 15.3203125,2.1992187 15.671875,2.5507812 L18.9492188,5.82812497 C19.3007813,6.17578122 19.5,6.65624997 19.5,7.15234373 Z M14.5,4.02734371 L14.5,6.99999997 L17.4726563,6.99999997 L14.5,4.02734371 Z M17.625,20.125 L17.625,8.87499998 L13.5625,8.87499998 C13.0429688,8.87499998 12.625,8.45703123 12.625,7.93749998 L12.625,3.87499996 L6.37499997,3.87499996 L6.37499997,20.125 L17.625,20.125 Z" id="path-1"></path>
    </defs>
    <g id="file-alt" stroke="none" stroke-width="1" fill="none" fill-rule="evenodd">
        <mask id="mask-2" fill="white">
            <use xlink:href="#path-1"></use>
        </mask>
        <g fill-rule="nonzero"></g>
        <g id="🎨-color" mask="url(#mask-2)" fill="#000000">
            <rect id="🎨-Color" x="0" y="0" width="24" height="24"></rect>
        </g>
    </g>
</svg>