<?xml version="1.0" encoding="UTF-8"?>
<svg width="24px" height="24px" viewBox="0 0 24 24" version="1.1" xmlns="http://www.w3.org/2000/svg" xmlns:xlink="http://www.w3.org/1999/xlink">
    <!-- Generator: Sketch 52.5 (67469) - http://www.bohemiancoding.com/sketch -->
    <title>file-prescription</title>
    <desc>Created with Sketch.</desc>
    <defs>
        <path d="M13.25,7.31249998 L13.25,1.99999995 L5.43749997,1.99999995 C4.91796871,1.99999995 4.49999996,2.4179687 4.49999996,2.93749995 L4.49999996,21.0625 C4.49999996,21.5820313 4.91796871,22.0000001 5.43749997,22.0000001 L18.5625,22.0000001 C19.0820313,22.0000001 19.5,21.5820313 19.5,21.0625 L19.5,8.24999998 L14.1875,8.24999998 C13.671875,8.24999998 13.25,7.82812498 13.25,7.31249998 Z M15.9269531,14.3234375 L16.36875,14.7652344 C16.6128906,15.009375 16.6128906,15.4050781 16.36875,15.6492188 L15.2007813,16.8171875 L16.375,17.9914063 C16.6191406,18.2355469 16.6191406,18.63125 16.375,18.8753907 L15.9332031,19.3171875 C15.6890625,19.5613282 15.2933594,19.5613282 15.0492188,19.3171875 L13.875,18.1425782 L12.7007813,19.3167969 C12.4566406,19.5609375 12.0609375,19.5609375 11.8167969,19.3167969 L11.375,18.875 C11.1308594,18.6308594 11.1308594,18.2351563 11.375,17.9910157 L12.5492188,16.8167969 L10.2320312,14.5 L9.49999999,14.5 L9.49999999,16.375 C9.49999999,16.7203125 9.22031249,17 8.87499998,17 L8.24999998,17 C7.90468748,17 7.62499998,16.7203125 7.62499998,16.375 L7.62499998,10.125 C7.62499998,9.77968749 7.90468748,9.49999999 8.24999998,9.49999999 L11.375,9.49999999 C12.7558594,9.49999999 13.875,10.6191406 13.875,12 C13.875,12.9460938 13.3429688,13.7597656 12.5679688,14.184375 L13.875,15.4914063 L15.0429688,14.3234375 C15.2871094,14.0792969 15.6828125,14.0792969 15.9269531,14.3234375 Z M11.375,12.625 L9.49999999,12.625 L9.49999999,11.375 L11.375,11.375 C11.7195312,11.375 12,11.6554687 12,12 C12,12.3445313 11.7195312,12.625 11.375,12.625 Z M19.5,6.76171872 L19.5,6.99999997 L14.5,6.99999997 L14.5,1.99999995 L14.7382813,1.99999995 C14.9882813,1.99999995 15.2265625,2.0976562 15.4023438,2.27343745 L19.2265625,6.10156247 C19.4023438,6.27734372 19.5,6.51562497 19.5,6.76171872 Z" id="path-1"></path>
    </defs>
    <g id="file-prescription" stroke="none" stroke-width="1" fill="none" fill-rule="evenodd">
        <mask id="mask-2" fill="white">
            <use xlink:href="#path-1"></use>
        </mask>
        <g fill-rule="nonzero"></g>
        <g id="🎨-color" mask="url(#mask-2)" fill="#000000">
            <rect id="🎨-Color" x="0" y="0" width="24" height="24"></rect>
        </g>
    </g>
</svg>