<?xml version="1.0" encoding="UTF-8"?>
<svg width="24px" height="24px" viewBox="0 0 24 24" version="1.1" xmlns="http://www.w3.org/2000/svg" xmlns:xlink="http://www.w3.org/1999/xlink">
    <!-- Generator: Sketch 52.5 (67469) - http://www.bohemiancoding.com/sketch -->
    <title>file-download</title>
    <desc>Created with Sketch.</desc>
    <defs>
        <path d="M13.25,7.31249998 L13.25,1.99999995 L5.43749997,1.99999995 C4.91796871,1.99999995 4.49999996,2.4179687 4.49999996,2.93749995 L4.49999996,21.0625 C4.49999996,21.5820313 4.91796871,22.0000001 5.43749997,22.0000001 L18.5625,22.0000001 C19.0820313,22.0000001 19.5,21.5820313 19.5,21.0625 L19.5,8.24999998 L14.1875,8.24999998 C13.671875,8.24999998 13.25,7.82812498 13.25,7.31249998 Z M16.2363281,15.56875 L12.4699219,19.3070313 C12.2101563,19.5652344 11.790625,19.5652344 11.5308594,19.3070313 L7.7644531,15.56875 C7.36796873,15.1753906 7.64609373,14.5 8.20390623,14.5 L10.75,14.5 L10.75,11.375 C10.75,11.0296875 11.0296875,10.75 11.375,10.75 L12.625,10.75 C12.9703125,10.75 13.25,11.0296875 13.25,11.375 L13.25,14.5 L15.7960938,14.5 C16.3539063,14.5 16.6320313,15.1753906 16.2363281,15.56875 Z M19.2265625,6.10156247 L15.4023438,2.27343745 C15.2265625,2.0976562 14.9882813,1.99999995 14.7382813,1.99999995 L14.5,1.99999995 L14.5,6.99999997 L19.5,6.99999997 L19.5,6.76171872 C19.5,6.51562497 19.4023438,6.27734372 19.2265625,6.10156247 Z" id="path-1"></path>
    </defs>
    <g id="file-download" stroke="none" stroke-width="1" fill="none" fill-rule="evenodd">
        <mask id="mask-2" fill="white">
            <use xlink:href="#path-1"></use>
        </mask>
        <g fill-rule="nonzero"></g>
        <g id="🎨-color" mask="url(#mask-2)" fill="#000000">
            <rect id="🎨-Color" x="0" y="0" width="24" height="24"></rect>
        </g>
    </g>
</svg>