<?xml version="1.0" encoding="UTF-8"?>
<svg width="24px" height="24px" viewBox="0 0 24 24" version="1.1" xmlns="http://www.w3.org/2000/svg" xmlns:xlink="http://www.w3.org/1999/xlink">
    <!-- Generator: Sketch 52.5 (67469) - http://www.bohemiancoding.com/sketch -->
    <title>file-upload</title>
    <desc>Created with Sketch.</desc>
    <defs>
        <path d="M13.25,7.31249998 L13.25,1.99999995 L5.43749997,1.99999995 C4.91796871,1.99999995 4.49999996,2.4179687 4.49999996,2.93749995 L4.49999996,21.0625 C4.49999996,21.5820313 4.91796871,22.0000001 5.43749997,22.0000001 L18.5625,22.0000001 C19.0820313,22.0000001 19.5,21.5820313 19.5,21.0625 L19.5,8.24999998 L14.1875,8.24999998 C13.671875,8.24999998 13.25,7.82812498 13.25,7.31249998 Z M15.7960938,15.7503906 L13.25,15.7503906 L13.25,18.8753907 C13.25,19.2207032 12.9703125,19.5003907 12.625,19.5003907 L11.375,19.5003907 C11.0296875,19.5003907 10.75,19.2207032 10.75,18.8753907 L10.75,15.7503906 L8.20390623,15.7503906 C7.64609373,15.7503906 7.3675781,15.075 7.76367185,14.6816406 L11.5300781,10.9433594 C11.7898437,10.6851562 12.209375,10.6851562 12.4691406,10.9433594 L16.2355469,14.6816406 C16.6320313,15.075 16.3539063,15.7503906 15.7960938,15.7503906 Z M19.2265625,6.10156247 L15.4023438,2.27343745 C15.2265625,2.0976562 14.9882813,1.99999995 14.7382813,1.99999995 L14.5,1.99999995 L14.5,6.99999997 L19.5,6.99999997 L19.5,6.76171872 C19.5,6.51562497 19.4023438,6.27734372 19.2265625,6.10156247 Z" id="path-1"></path>
    </defs>
    <g id="file-upload" stroke="none" stroke-width="1" fill="none" fill-rule="evenodd">
        <mask id="mask-2" fill="white">
            <use xlink:href="#path-1"></use>
        </mask>
        <g fill-rule="nonzero"></g>
        <g id="🎨-color" mask="url(#mask-2)" fill="#000000">
            <rect id="🎨-Color" x="0" y="0" width="24" height="24"></rect>
        </g>
    </g>
</svg>