<?xml version="1.0" encoding="UTF-8"?>
<svg width="24px" height="24px" viewBox="0 0 24 24" version="1.1" xmlns="http://www.w3.org/2000/svg" xmlns:xlink="http://www.w3.org/1999/xlink">
    <!-- Generator: Sketch 52.5 (67469) - http://www.bohemiancoding.com/sketch -->
    <title>file-signature</title>
    <desc>Created with Sketch.</desc>
    <defs>
        <path d="M9.56221836,17.8280763 C9.45996533,17.622877 9.28180241,17.6020798 9.20970536,17.6020798 C9.1376083,17.6020798 8.95944539,17.6225304 8.86239167,17.8166378 L8.59653378,18.3483536 C8.37573655,18.7913345 7.72894279,18.742461 7.57469668,18.2759099 L6.99133446,16.5265165 L6.62357016,17.6315425 C6.41941072,18.2436742 5.84783359,18.6551127 5.20242631,18.6551127 L4.77296357,18.6551127 C4.46655109,18.6551127 4.21837084,18.4069324 4.21837084,18.10052 C4.21837084,17.7941075 4.46655109,17.5459272 4.77296357,17.5459272 L5.20242631,17.5459272 C5.36984399,17.5459272 5.51819754,17.4391681 5.57123047,17.280416 L6.20173307,15.3864818 C6.31611782,15.0464472 6.63292892,14.8176777 6.99133446,14.8176777 C7.34974001,14.8176777 7.6665511,15.0461005 7.78058923,15.3864818 L8.26169842,16.8298094 C8.94627381,16.2686309 10.1355286,16.4935875 10.5493934,17.3206239 C10.6149047,17.4516465 10.739688,17.5268631 10.8738302,17.5376083 L10.8738302,14.6911612 L15.3105719,10.2859619 L15.3105719,8.67244366 L10.5961872,8.67244366 C10.1386482,8.67244366 9.76429808,8.29809357 9.76429808,7.84055457 L9.76429808,3.12651642 L2.83188904,3.12651642 C2.37088383,3.12651642 1.99999995,3.4974003 1.99999995,3.95840551 L1.99999995,20.0415945 C1.99999995,20.5025997 2.37088383,20.8734836 2.83188904,20.8734836 L14.4783362,20.8734836 C14.9393414,20.8734836 15.3102253,20.5025997 15.3102253,20.0415945 L15.3102253,18.6551127 L10.8734835,18.6512999 C10.3147314,18.6405546 9.81351819,18.3296361 9.56221836,17.8280763 Z M15.3102253,7.35181973 C15.3102253,7.13344885 15.2235702,6.92201037 15.067591,6.76603117 L11.6741768,3.36915074 C11.5181976,3.21317153 11.3067591,3.12651642 11.084922,3.12651642 L10.8734835,3.12651642 L10.8734835,7.56325821 L15.3102253,7.56325821 L15.3102253,7.35181973 Z M11.982669,15.1528596 L11.982669,17.5459272 L14.3740035,17.5459272 L19.978163,11.9036395 L17.6253033,9.55077988 L11.982669,15.1528596 Z M21.7067591,8.92651645 L20.6020798,7.82183707 C20.257539,7.47729634 19.6984402,7.47729634 19.3538995,7.82183707 L18.4093588,8.7663778 L20.7622184,11.1192374 L21.7067591,10.1746967 C22.0516465,9.83015597 22.0516465,9.27105718 21.7067591,8.92651645 Z" id="path-1"></path>
    </defs>
    <g id="file-signature" stroke="none" stroke-width="1" fill="none" fill-rule="evenodd">
        <mask id="mask-2" fill="white">
            <use xlink:href="#path-1"></use>
        </mask>
        <g fill-rule="nonzero"></g>
        <g id="🎨-color" mask="url(#mask-2)" fill="#000000">
            <rect id="🎨-Color" x="0" y="0" width="24" height="24"></rect>
        </g>
    </g>
</svg>