<?xml version="1.0" encoding="UTF-8"?>
<svg width="24px" height="24px" viewBox="0 0 24 24" version="1.1" xmlns="http://www.w3.org/2000/svg" xmlns:xlink="http://www.w3.org/1999/xlink">
    <!-- Generator: Sketch 52.5 (67469) - http://www.bohemiancoding.com/sketch -->
    <title>file-word</title>
    <desc>Created with Sketch.</desc>
    <defs>
        <path d="M18.9356725,5.85575046 L15.6647174,2.58479527 C15.3138402,2.23391808 14.8382066,2.03508767 14.3430799,2.03508767 L6.38596488,2.03508767 C5.35282648,2.0389863 4.51461985,2.87719294 4.51461985,3.91033134 L4.51461985,20.128655 C4.51461985,21.1617934 5.35282648,22.0000001 6.38596488,22.0000001 L17.6140351,22.0000001 C18.6471735,22.0000001 19.4853802,21.1617934 19.4853802,20.128655 L19.4853802,7.18128653 C19.4853802,6.68615982 19.2865497,6.20662765 18.9356725,5.85575046 Z M17.4619883,7.02923974 L14.4951267,7.02923974 L14.4951267,4.06237813 L17.4619883,7.02923974 Z M6.38596488,20.128655 L6.38596488,3.91033134 L12.6237817,3.91033134 L12.6237817,7.96491226 C12.6237817,8.48343078 13.0409357,8.90058478 13.5594542,8.90058478 L17.6140351,8.90058478 L17.6140351,20.128655 L6.38596488,20.128655 Z M14.9668616,12.0194932 C14.7446394,12.0194932 14.5536063,12.1754386 14.5107213,12.3898635 C13.7076023,16.1988304 13.7153996,16.1091618 13.6920078,16.4249513 C13.6842105,16.3781677 13.6764133,16.3235868 13.6647174,16.25731 C13.6335283,16.0584796 13.6764133,16.2651072 12.7446394,12.3781676 C12.6939571,12.1676413 12.5068226,12.0194932 12.288499,12.0194932 L11.7699805,12.0194932 C11.5555556,12.0194932 11.368421,12.1676413 11.3138402,12.374269 C10.3625731,16.2339181 10.3781676,16.1247564 10.3469785,16.417154 C10.3430799,16.374269 10.3391813,16.3196881 10.3274854,16.2534113 C10.3001949,16.0506823 9.77777777,13.3957115 9.58284599,12.3937622 C9.539961,12.1754386 9.34892786,12.0155945 9.122807,12.0155945 L8.46783624,12.0155945 C8.16374267,12.0155945 7.94152045,12.3001949 8.01169589,12.5925926 C8.32358673,13.8635478 9.05263156,16.8615985 9.30604287,17.8947369 C9.35672513,18.1052632 9.54385964,18.2495127 9.76218322,18.2495127 L10.7446394,18.2495127 C10.9590643,18.2495127 11.1461988,18.1052632 11.1968811,17.8947369 L11.8947368,15.1111111 C11.9532164,14.8693957 11.9922027,14.6432749 12.0116959,14.4366472 L12.1247563,15.1111111 C12.128655,15.1267057 12.6159844,17.0799221 12.8226121,17.8947369 C12.8732944,18.1013646 13.0604289,18.2495127 13.2748538,18.2495127 L14.2378168,18.2495127 C14.4522417,18.2495127 14.6393762,18.1052632 14.6900585,17.8947369 C15.5009747,14.7017544 15.8674464,13.2553606 16.0350877,12.5925926 C16.1091618,12.2962963 15.8869396,12.0116959 15.582846,12.0116959 L14.9668616,12.0116959 L14.9668616,12.0194932 Z" id="path-1"></path>
    </defs>
    <g id="file-word" stroke="none" stroke-width="1" fill="none" fill-rule="evenodd">
        <mask id="mask-2" fill="white">
            <use xlink:href="#path-1"></use>
        </mask>
        <g fill-rule="nonzero"></g>
        <g id="🎨-color" mask="url(#mask-2)" fill="#000000">
            <rect id="🎨-Color" x="0" y="0" width="24" height="24"></rect>
        </g>
    </g>
</svg>