<?xml version="1.0" encoding="UTF-8"?>
<svg width="24px" height="24px" viewBox="0 0 24 24" version="1.1" xmlns="http://www.w3.org/2000/svg" xmlns:xlink="http://www.w3.org/1999/xlink">
    <!-- Generator: Sketch 52.5 (67469) - http://www.bohemiancoding.com/sketch -->
    <title>file-code</title>
    <desc>Created with Sketch.</desc>
    <defs>
        <path d="M18.9508203,5.82582028 L15.6741797,2.54917964 C15.322551,2.19754833 14.8456393,2.00000255 14.3483594,1.99999995 L6.37499997,1.99999995 C5.33945309,1.99999995 4.49999996,2.83945308 4.49999996,3.87499996 L4.49999996,20.125 C4.49999996,21.1605469 5.33945309,22 6.37499997,22 L17.625,22 C18.6605469,22 19.5,21.1605469 19.5,20.125 L19.5,7.1516406 C19.4999974,6.65436067 19.3024517,6.17744899 18.9508203,5.82582028 Z M17.4733594,6.99999997 L14.5,6.99999997 L14.5,4.02664059 L17.4733594,6.99999997 Z M6.37499997,20.125 L6.37499997,3.87499996 L12.625,3.87499996 L12.625,7.93749998 C12.625,8.45527342 13.0447266,8.87499998 13.5625,8.87499998 L17.625,8.87499998 L17.625,20.125 L6.37499997,20.125 Z M10.3467578,15.6283203 L9.06460936,14.5 L10.3467187,13.3716797 C10.4166185,13.3102461 10.4585993,13.223079 10.463054,13.1301262 C10.4675088,13.0371734 10.4340561,12.9463912 10.3703516,12.8785547 L9.69054686,12.1533984 C9.55835936,12.0122656 9.34039061,12.0103516 9.20468749,12.1377344 L6.95234372,14.2492188 C6.80769529,14.3849219 6.80765622,14.6151172 6.95238279,14.7507813 L9.20468749,16.8623047 C9.26819524,16.9221973 9.35223674,16.9554812 9.43953124,16.9553125 C9.53469942,16.9556371 9.6256898,16.9162509 9.69058593,16.8466406 L10.3703906,16.1215235 C10.4340995,16.0536736 10.4675539,15.9628788 10.4630992,15.8699134 C10.4586446,15.7769479 10.4166622,15.6897678 10.3467578,15.6283203 Z M13.6391016,10.6341797 L12.6859375,10.3574609 C12.5983791,10.3319946 12.5042886,10.3423779 12.4243902,10.3863239 C12.3444918,10.4302699 12.2853391,10.5041738 12.2599609,10.5917578 L10.1265625,17.9398828 C10.0737109,18.1219141 10.1788281,18.3130078 10.3608594,18.3658594 L11.3141016,18.6425782 C11.4969141,18.6955078 11.6874219,18.5896875 11.7400781,18.4082813 L13.8733594,11.0601562 C13.92625,10.878125 13.8211328,10.6870312 13.6391016,10.6341797 Z M17.0476172,14.2492188 L14.7953516,12.1376953 C14.6576172,12.0085156 14.4399219,12.0140625 14.3094531,12.1533594 L13.6296484,12.8784766 C13.5659521,12.9463247 13.5325055,13.0371109 13.53696,13.1300666 C13.5414145,13.2230223 13.583389,13.3101941 13.6532813,13.3716406 L14.9353906,14.5 L13.6532813,15.6283203 C13.5833815,15.6897539 13.5414007,15.776921 13.536946,15.8698738 C13.5324912,15.9628266 13.5659439,16.0536088 13.6296484,16.1214453 L14.3094531,16.8466016 C14.3717925,16.9131437 14.4580225,16.9521815 14.5491565,16.9551194 C14.6402905,16.9580573 14.7288559,16.9246544 14.7953516,16.8622656 L14.7953125,16.8622656 L17.0476563,14.7507422 C17.1923047,14.6150781 17.1923047,14.3848828 17.0476172,14.2492188 Z" id="path-1"></path>
    </defs>
    <g id="file-code" stroke="none" stroke-width="1" fill="none" fill-rule="evenodd">
        <mask id="mask-2" fill="white">
            <use xlink:href="#path-1"></use>
        </mask>
        <g fill-rule="nonzero"></g>
        <g id="🎨-color" mask="url(#mask-2)" fill="#000000">
            <rect id="🎨-Color" x="0" y="0" width="24" height="24"></rect>
        </g>
    </g>
</svg>