<?xml version="1.0" encoding="UTF-8"?>
<svg width="24px" height="24px" viewBox="0 0 24 24" version="1.1" xmlns="http://www.w3.org/2000/svg" xmlns:xlink="http://www.w3.org/1999/xlink">
    <!-- Generator: Sketch 52.5 (67469) - http://www.bohemiancoding.com/sketch -->
    <title>file-pdf</title>
    <desc>Created with Sketch.</desc>
    <defs>
        <path d="M18.9356725,5.85575046 L15.6647174,2.58479527 C15.3138402,2.23391808 14.8382066,2.03508767 14.3430799,2.03508767 L6.38596488,2.03508767 C5.35282648,2.0389863 4.51461985,2.87719294 4.51461985,3.91033134 L4.51461985,20.128655 C4.51461985,21.1617934 5.35282648,22.0000001 6.38596488,22.0000001 L17.6140351,22.0000001 C18.6471735,22.0000001 19.4853802,21.1617934 19.4853802,20.128655 L19.4853802,7.18128653 C19.4853802,6.68615982 19.2865497,6.20662765 18.9356725,5.85575046 Z M17.4619883,7.02923974 L14.4951267,7.02923974 L14.4951267,4.06237813 L17.4619883,7.02923974 Z M6.38596488,20.128655 L6.38596488,3.91033134 L12.6237817,3.91033134 L12.6237817,7.96491226 C12.6237817,8.48343078 13.0409357,8.90058478 13.5594542,8.90058478 L17.6140351,8.90058478 L17.6140351,20.128655 L6.38596488,20.128655 Z M16.1403509,14.5263158 C15.6647174,14.0584795 14.3079922,14.1871345 13.6296296,14.2729045 C12.9590643,13.8635478 12.5107213,13.2982456 12.1949318,12.4678363 C12.3469786,11.8401559 12.588694,10.8849902 12.4054581,10.2846004 C12.2417154,9.26315788 10.9317739,9.3645224 10.7446394,10.0545809 C10.5730994,10.6822612 10.7290448,11.5555556 11.0175439,12.6705653 C10.6276803,13.6023392 10.0467836,14.8538012 9.63742689,15.5711501 C8.85769979,15.9727096 7.80506821,16.5925926 7.64912279,17.3723197 C7.52046781,17.9883041 8.66276801,19.5243665 10.6159844,16.1559454 C11.4892787,15.8674464 12.4405458,15.5126706 13.2826511,15.3723197 C14.0194932,15.7699805 14.8810916,16.0350877 15.4580897,16.0350877 C16.4522417,16.0350877 16.5497076,14.9356725 16.1403509,14.5263158 Z M8.41715398,17.5594542 C8.61598439,17.0253412 9.37231967,16.4093567 9.60233917,16.1949318 C8.86159842,17.3762184 8.41715398,17.5867447 8.41715398,17.5594542 Z M11.5984405,10.128655 C11.8869396,10.128655 11.8596491,11.380117 11.668616,11.7192982 C11.497076,11.1773879 11.5009747,10.128655 11.5984405,10.128655 Z M10.6471735,15.4541911 C11.0253411,14.7953217 11.3489279,14.0116959 11.6101365,13.3216374 C11.9337232,13.9103314 12.3469786,14.3820663 12.7836257,14.705653 C11.9727096,14.8732944 11.2670565,15.2163743 10.6471735,15.4541911 Z M15.7777778,15.2592593 C15.7777778,15.2592593 15.582846,15.4931774 14.3235868,14.9551657 C15.6920078,14.8538012 15.9181287,15.165692 15.7777778,15.2592593 Z" id="path-1"></path>
    </defs>
    <g id="file-pdf" stroke="none" stroke-width="1" fill="none" fill-rule="evenodd">
        <mask id="mask-2" fill="white">
            <use xlink:href="#path-1"></use>
        </mask>
        <g fill-rule="nonzero"></g>
        <g id="🎨-color" mask="url(#mask-2)" fill="#000000">
            <rect id="🎨-Color" x="0" y="0" width="24" height="24"></rect>
        </g>
    </g>
</svg>