<?xml version="1.0" encoding="UTF-8"?>
<svg width="24px" height="24px" viewBox="0 0 24 24" version="1.1" xmlns="http://www.w3.org/2000/svg" xmlns:xlink="http://www.w3.org/1999/xlink">
    <!-- Generator: Sketch 52.5 (67469) - http://www.bohemiancoding.com/sketch -->
    <title>file-csv</title>
    <desc>Created with Sketch.</desc>
    <defs>
        <path d="M13.25,7.31249998 L13.25,1.99999995 L5.43749997,1.99999995 C4.91796871,1.99999995 4.49999996,2.4179687 4.49999996,2.93749995 L4.49999996,21.0625 C4.49999996,21.5820313 4.91796871,22.0000001 5.43749997,22.0000001 L18.5625,22.0000001 C19.0820313,22.0000001 19.5,21.5820313 19.5,21.0625 L19.5,8.24999998 L14.1875,8.24999998 C13.671875,8.24999998 13.25,7.82812498 13.25,7.31249998 Z M9.49999999,12.9375 C9.49999999,13.1101563 9.36015624,13.25 9.18749999,13.25 L8.87499998,13.25 C8.52968748,13.25 8.24999998,13.5296875 8.24999998,13.875 L8.24999998,15.125 C8.24999998,15.4703125 8.52968748,15.75 8.87499998,15.75 L9.18749999,15.75 C9.36015624,15.75 9.49999999,15.8898438 9.49999999,16.0625 L9.49999999,16.6875 C9.49999999,16.8601563 9.36015624,17 9.18749999,17 L8.87499998,17 C7.8394531,17 6.99999997,16.1605469 6.99999997,15.125 L6.99999997,13.875 C6.99999997,12.8394531 7.8394531,12 8.87499998,12 L9.18749999,12 C9.36015624,12 9.49999999,12.1398438 9.49999999,12.3125 L9.49999999,12.9375 Z M11.2292969,17 L10.75,17 C10.5773437,17 10.4375,16.8601563 10.4375,16.6875 L10.4375,16.0625 C10.4375,15.8898438 10.5773437,15.75 10.75,15.75 L11.2292969,15.75 C11.4617187,15.75 11.6359375,15.6132813 11.6359375,15.4914063 C11.6359375,15.440625 11.6066406,15.3875 11.553125,15.3414063 L10.6980469,14.6082031 C10.3671875,14.3261719 10.1773437,13.9253906 10.1773437,13.5089844 C10.1773437,12.6769531 10.9203125,12.0003906 11.8339844,12.0003906 L12.3125,12.0003906 C12.4851563,12.0003906 12.625,12.1402344 12.625,12.3128906 L12.625,12.9378906 C12.625,13.1105469 12.4851563,13.2503906 12.3125,13.2503906 L11.8332031,13.2503906 C11.6007812,13.2503906 11.4265625,13.3871094 11.4265625,13.5089844 C11.4265625,13.5597656 11.4558594,13.6128906 11.509375,13.6589844 L12.3644531,14.3921875 C12.6953125,14.6742188 12.8851563,15.075 12.8851563,15.4914063 C12.8855469,16.3230469 12.1429688,17 11.2292969,17 Z M14.5,12.3125 L14.5,13.125 C14.5,13.9167969 14.7226563,14.6941406 15.125,15.346875 C15.5273438,14.6945313 15.75,13.9167969 15.75,13.125 L15.75,12.3125 C15.75,12.1398438 15.8898438,12 16.0625,12 L16.6875,12 C16.8601563,12 17,12.1398438 17,12.3125 L17,13.125 C17,14.5109375 16.496875,15.8160156 15.5828125,16.8003906 C15.4648438,16.9273438 15.2988281,17 15.125,17 C14.9511719,17 14.7851563,16.9273438 14.6671875,16.8003906 C13.753125,15.8160156 13.25,14.5109375 13.25,13.125 L13.25,12.3125 C13.25,12.1398438 13.3898438,12 13.5625,12 L14.1875,12 C14.3601563,12 14.5,12.1398438 14.5,12.3125 Z M19.2265625,6.10156247 L15.4023438,2.27343745 C15.2265625,2.0976562 14.9882813,1.99999995 14.7382813,1.99999995 L14.5,1.99999995 L14.5,6.99999997 L19.5,6.99999997 L19.5,6.76171872 C19.5,6.51562497 19.4023438,6.27734372 19.2265625,6.10156247 Z" id="path-1"></path>
    </defs>
    <g id="file-csv" stroke="none" stroke-width="1" fill="none" fill-rule="evenodd">
        <mask id="mask-2" fill="white">
            <use xlink:href="#path-1"></use>
        </mask>
        <g fill-rule="nonzero"></g>
        <g id="🎨-color" mask="url(#mask-2)" fill="#000000">
            <rect id="🎨-Color" x="0" y="0" width="24" height="24"></rect>
        </g>
    </g>
</svg>