<?xml version="1.0" encoding="UTF-8"?>
<svg width="24px" height="24px" viewBox="0 0 24 24" version="1.1" xmlns="http://www.w3.org/2000/svg" xmlns:xlink="http://www.w3.org/1999/xlink">
    <!-- Generator: Sketch 52.5 (67469) - http://www.bohemiancoding.com/sketch -->
    <title>file-export</title>
    <desc>Created with Sketch.</desc>
    <defs>
        <path d="M15.3333334,7.34374998 C15.3333334,7.12499998 15.2465278,6.91319442 15.0902778,6.75694442 L11.6909722,3.35416662 C11.5347222,3.19791662 11.3229167,3.11111107 11.1006944,3.11111107 L10.8888889,3.11111107 L10.8888889,7.55555553 L15.3333334,7.55555553 L15.3333334,7.34374998 Z M8.66666665,14.7777778 L8.66666665,13.6666667 C8.66666665,13.3597222 8.91527776,13.1111111 9.22222221,13.1111111 L15.3333334,13.1111111 L15.3333334,8.66666665 L10.6111111,8.66666665 C10.1527778,8.66666665 9.77777777,8.29166665 9.77777777,7.83333331 L9.77777777,3.11111107 L2.83333329,3.11111107 C2.37152773,3.11111107 1.99999995,3.48263885 1.99999995,3.9444444 L1.99999995,20.0555556 C1.99999995,20.5173612 2.37152773,20.8888889 2.83333329,20.8888889 L14.5,20.8888889 C14.9618056,20.8888889 15.3333334,20.5173612 15.3333334,20.0555556 L15.3333334,15.3333334 L9.22222221,15.3333334 C8.91527776,15.3333334 8.66666665,15.0847222 8.66666665,14.7777778 Z M21.828125,13.8048611 L18.5052084,10.4565972 C18.1559028,10.1045139 17.5552084,10.3520833 17.5552084,10.8479167 L17.5552084,13.1111111 L15.3333334,13.1111111 L15.3333334,15.3333334 L17.5552084,15.3333334 L17.5552084,17.5965278 C17.5552084,18.0923611 18.1555556,18.3399306 18.5052084,17.9878473 L21.828125,14.6399306 C22.0572917,14.4086806 22.0572917,14.0357639 21.828125,13.8048611 Z" id="path-1"></path>
    </defs>
    <g id="file-export" stroke="none" stroke-width="1" fill="none" fill-rule="evenodd">
        <mask id="mask-2" fill="white">
            <use xlink:href="#path-1"></use>
        </mask>
        <g fill-rule="nonzero"></g>
        <g id="🎨-color" mask="url(#mask-2)" fill="#000000">
            <rect id="🎨-Color" x="0" y="0" width="24" height="24"></rect>
        </g>
    </g>
</svg>