<?xml version="1.0" encoding="UTF-8"?>
<svg width="24px" height="24px" viewBox="0 0 24 24" version="1.1" xmlns="http://www.w3.org/2000/svg" xmlns:xlink="http://www.w3.org/1999/xlink">
    <!-- Generator: Sketch 52.5 (67469) - http://www.bohemiancoding.com/sketch -->
    <title>file-contract</title>
    <desc>Created with Sketch.</desc>
    <defs>
        <path d="M13.25,7.31249998 L13.25,1.99999995 L5.43749997,1.99999995 C4.91796871,1.99999995 4.49999996,2.4179687 4.49999996,2.93749995 L4.49999996,21.0625 C4.49999996,21.5820313 4.91796871,22.0000001 5.43749997,22.0000001 L18.5625,22.0000001 C19.0820313,22.0000001 19.5,21.5820313 19.5,21.0625 L19.5,8.24999998 L14.1875,8.24999998 C13.671875,8.24999998 13.25,7.82812498 13.25,7.31249998 Z M6.99999997,4.81249996 C6.99999997,4.63984371 7.13984373,4.49999996 7.31249998,4.49999996 L10.4375,4.49999996 C10.6101562,4.49999996 10.75,4.63984371 10.75,4.81249996 L10.75,5.43749997 C10.75,5.61015622 10.6101562,5.74999997 10.4375,5.74999997 L7.31249998,5.74999997 C7.13984373,5.74999997 6.99999997,5.61015622 6.99999997,5.43749997 L6.99999997,4.81249996 Z M6.99999997,7.31249998 C6.99999997,7.13984373 7.13984373,6.99999997 7.31249998,6.99999997 L10.4375,6.99999997 C10.6101562,6.99999997 10.75,7.13984373 10.75,7.31249998 L10.75,7.93749998 C10.75,8.11015623 10.6101562,8.24999998 10.4375,8.24999998 L7.31249998,8.24999998 C7.13984373,8.24999998 6.99999997,8.11015623 6.99999997,7.93749998 L6.99999997,7.31249998 Z M14.5316406,17 L16.375,17 C16.7203125,17 17,17.2796875 17,17.625 C17,17.9703125 16.7203125,18.25 16.375,18.25 L14.5316406,18.25 C13.8890625,18.25 13.3101563,17.8929688 13.0222656,17.3179688 C12.9070313,17.0867188 12.70625,17.0632813 12.625,17.0632813 C12.54375,17.0632813 12.3429688,17.0863282 12.2335938,17.3050782 L11.9339844,17.9042969 C11.8281679,18.1160467 11.6117173,18.2497591 11.375,18.2496094 C11.3601562,18.2496094 11.3457031,18.2488282 11.3304687,18.2476563 C11.0785156,18.2300782 10.8617187,18.0621094 10.7824219,17.8222657 L10.125,15.8511719 L9.71054686,17.0964844 C9.48046874,17.7863282 8.83632811,18.25 8.10898436,18.25 L7.62499998,18.25 C7.27968748,18.25 6.99999997,17.9703125 6.99999997,17.625 C6.99999997,17.2796875 7.27968748,17 7.62499998,17 L8.10898436,17 C8.29765623,17 8.46484373,16.8796875 8.52460936,16.7007813 L9.23515624,14.5664063 C9.36406249,14.1832031 9.72109374,13.9253906 10.125,13.9253906 C10.5289062,13.9253906 10.8859375,14.1828125 11.0144531,14.5664063 L11.5566406,16.1929688 C12.3289063,15.5605469 13.6679688,15.8140625 14.1347656,16.7460938 C14.2136719,16.9046875 14.3675781,17 14.5316406,17 Z M19.2265625,6.10156247 L15.4023438,2.27343745 C15.2265625,2.0976562 14.9882813,1.99999995 14.7382813,1.99999995 L14.5,1.99999995 L14.5,6.99999997 L19.5,6.99999997 L19.5,6.76171872 C19.5,6.51562497 19.4023438,6.27734372 19.2265625,6.10156247 Z" id="path-1"></path>
    </defs>
    <g id="file-contract" stroke="none" stroke-width="1" fill="none" fill-rule="evenodd">
        <mask id="mask-2" fill="white">
            <use xlink:href="#path-1"></use>
        </mask>
        <g fill-rule="nonzero"></g>
        <g id="🎨-color" mask="url(#mask-2)" fill="#000000">
            <rect id="🎨-Color" x="0" y="0" width="24" height="24"></rect>
        </g>
    </g>
</svg>