<?xml version="1.0" encoding="UTF-8"?>
<svg width="24px" height="24px" viewBox="0 0 24 24" version="1.1" xmlns="http://www.w3.org/2000/svg" xmlns:xlink="http://www.w3.org/1999/xlink">
    <!-- Generator: Sketch 52.5 (67469) - http://www.bohemiancoding.com/sketch -->
    <title>file-image</title>
    <desc>Created with Sketch.</desc>
    <defs>
        <path d="M18.9356725,5.85575046 L15.6647174,2.58479527 C15.3138402,2.23391808 14.8382066,2.03508767 14.3430799,2.03508767 L6.38596488,2.03508767 C5.35282648,2.0389863 4.51461985,2.87719294 4.51461985,3.91033134 L4.51461985,20.128655 C4.51461985,21.1617934 5.35282648,22.0000001 6.38596488,22.0000001 L17.6140351,22.0000001 C18.6471735,22.0000001 19.4853802,21.1617934 19.4853802,20.128655 L19.4853802,7.18128653 C19.4853802,6.68615982 19.2865497,6.20662765 18.9356725,5.85575046 Z M17.4619883,7.02923974 L14.4951267,7.02923974 L14.4951267,4.06237813 L17.4619883,7.02923974 Z M6.38596488,20.128655 L6.38596488,3.91033134 L12.6237817,3.91033134 L12.6237817,7.96491226 C12.6237817,8.48343078 13.0409357,8.90058478 13.5594542,8.90058478 L17.6140351,8.90058478 L17.6140351,20.128655 L6.38596488,20.128655 Z M7.63352824,18.25731 L16.3664718,18.25731 L16.3664718,13.2670565 L15.4502924,12.3508772 C15.2670565,12.1676413 14.9707602,12.1676413 14.7875244,12.3508772 L11.3762183,15.7621833 L9.8362573,14.2222222 C9.65302143,14.0389864 9.35672513,14.0389864 9.17348926,14.2222222 L7.63352824,15.7621833 L7.63352824,18.25731 Z M9.50487328,8.90058478 C8.47173488,8.90058478 7.63352824,9.73879141 7.63352824,10.7719298 C7.63352824,11.8050682 8.47173488,12.6432749 9.50487328,12.6432749 C10.5380117,12.6432749 11.3762183,11.8050682 11.3762183,10.7719298 C11.3762183,9.73879141 10.5380117,8.90058478 9.50487328,8.90058478 Z" id="path-1"></path>
    </defs>
    <g id="file-image" stroke="none" stroke-width="1" fill="none" fill-rule="evenodd">
        <mask id="mask-2" fill="white">
            <use xlink:href="#path-1"></use>
        </mask>
        <g fill-rule="nonzero"></g>
        <g id="🎨-color" mask="url(#mask-2)" fill="#000000">
            <rect id="🎨-Color" x="0" y="0" width="24" height="24"></rect>
        </g>
    </g>
</svg>