<?xml version="1.0" encoding="UTF-8"?>
<svg width="24px" height="24px" viewBox="0 0 24 24" version="1.1" xmlns="http://www.w3.org/2000/svg" xmlns:xlink="http://www.w3.org/1999/xlink">
    <!-- Generator: Sketch 52.5 (67469) - http://www.bohemiancoding.com/sketch -->
    <title>file-audio</title>
    <desc>Created with Sketch.</desc>
    <defs>
        <path d="M18.9508203,5.82582028 L15.6741797,2.54917964 C15.322551,2.19754833 14.8456393,2.00000255 14.3483594,1.99999995 L6.37499997,1.99999995 C5.33945309,1.99999995 4.49999996,2.83945308 4.49999996,3.87499996 L4.49999996,20.125 C4.49999996,21.1605469 5.33945309,22 6.37499997,22 L17.625,22 C18.6605469,22 19.5,21.1605469 19.5,20.125 L19.5,7.1516406 C19.4999974,6.65436067 19.3024517,6.17744899 18.9508203,5.82582028 Z M17.4733594,6.99999997 L14.5,6.99999997 L14.5,4.02664059 L17.4733594,6.99999997 Z M6.37499997,20.125 L6.37499997,3.87499996 L12.625,3.87499996 L12.625,7.93749998 C12.625,8.45527342 13.0447266,8.87499998 13.5625,8.87499998 L17.625,8.87499998 L17.625,20.125 L6.37499997,20.125 Z M12,17.1553125 C12,17.5729297 11.4950781,17.7820703 11.1998047,17.4867578 L9.81249999,16.0814844 L8.71874998,16.0814844 C8.45988279,16.0814844 8.24999998,15.8716016 8.24999998,15.6127344 L8.24999998,13.4252344 C8.24999998,13.1663672 8.45988279,12.9564844 8.71874998,12.9564844 L9.81249999,12.9564844 L11.1998047,11.5132422 C11.4951172,11.2179297 12,11.4270703 12,11.8446875 L12,17.1553125 Z M13.6094141,15.3142969 C13.9629688,14.9511328 13.9633203,14.3716016 13.6094531,14.0080859 C12.7442578,13.1193359 14.0873828,11.8109766 14.9530078,12.7002344 C16.0154297,13.7916406 16.0159766,15.5300781 14.9530469,16.6221485 C14.1017578,17.4966016 12.7285547,16.2192188 13.6094141,15.3142969 Z" id="path-1"></path>
    </defs>
    <g id="file-audio" stroke="none" stroke-width="1" fill="none" fill-rule="evenodd">
        <mask id="mask-2" fill="white">
            <use xlink:href="#path-1"></use>
        </mask>
        <g fill-rule="nonzero"></g>
        <g id="🎨-color" mask="url(#mask-2)" fill="#000000">
            <rect id="🎨-Color" x="0" y="0" width="24" height="24"></rect>
        </g>
    </g>
</svg>