<?xml version="1.0" encoding="UTF-8"?>
<svg width="24px" height="24px" viewBox="0 0 24 24" version="1.1" xmlns="http://www.w3.org/2000/svg" xmlns:xlink="http://www.w3.org/1999/xlink">
    <!-- Generator: Sketch 52.5 (67469) - http://www.bohemiancoding.com/sketch -->
    <title>file-medical</title>
    <desc>Created with Sketch.</desc>
    <defs>
        <path d="M19.2265625,6.10156247 L15.4023438,2.27343745 C15.2265625,2.0976562 14.9882813,1.99999995 14.7382813,1.99999995 L14.5,1.99999995 L14.5,6.99999997 L19.5,6.99999997 L19.5,6.76171872 C19.5,6.51562497 19.4023438,6.27734372 19.2265625,6.10156247 Z M13.25,7.31249998 L13.25,1.99999995 L5.43749997,1.99999995 C4.91796871,1.99999995 4.49999996,2.4179687 4.49999996,2.93749995 L4.49999996,21.0625 C4.49999996,21.5820313 4.91796871,22.0000001 5.43749997,22.0000001 L18.5625,22.0000001 C19.0820313,22.0000001 19.5,21.5820313 19.5,21.0625 L19.5,8.24999998 L14.1875,8.24999998 C13.671875,8.24999998 13.25,7.82812498 13.25,7.31249998 Z M15.75,13.5625 L15.75,15.4375 C15.75,15.609375 15.609375,15.75 15.4375,15.75 L13.25,15.75 L13.25,17.9375 C13.25,18.109375 13.109375,18.25 12.9375,18.25 L11.0625,18.25 C10.890625,18.25 10.75,18.109375 10.75,17.9375 L10.75,15.75 L8.56249998,15.75 C8.39062498,15.75 8.24999998,15.609375 8.24999998,15.4375 L8.24999998,13.5625 C8.24999998,13.390625 8.39062498,13.25 8.56249998,13.25 L10.75,13.25 L10.75,11.0625 C10.75,10.890625 10.890625,10.75 11.0625,10.75 L12.9375,10.75 C13.109375,10.75 13.25,10.890625 13.25,11.0625 L13.25,13.25 L15.4375,13.25 C15.609375,13.25 15.75,13.390625 15.75,13.5625 Z" id="path-1"></path>
    </defs>
    <g id="file-medical" stroke="none" stroke-width="1" fill="none" fill-rule="evenodd">
        <mask id="mask-2" fill="white">
            <use xlink:href="#path-1"></use>
        </mask>
        <g fill-rule="nonzero"></g>
        <g id="🎨-color" mask="url(#mask-2)" fill="#000000">
            <rect id="🎨-Color" x="0" y="0" width="24" height="24"></rect>
        </g>
    </g>
</svg>