<?xml version="1.0" encoding="UTF-8"?>
<svg width="24px" height="24px" viewBox="0 0 24 24" version="1.1" xmlns="http://www.w3.org/2000/svg" xmlns:xlink="http://www.w3.org/1999/xlink">
    <!-- Generator: Sketch 52.5 (67469) - http://www.bohemiancoding.com/sketch -->
    <title>file</title>
    <desc>Created with Sketch.</desc>
    <defs>
        <path d="M18.9356725,5.85575046 L15.6647174,2.58479527 C15.3138402,2.23391808 14.8382066,2.03508767 14.3430799,2.03508767 L6.38596488,2.03508767 C5.35282648,2.0389863 4.51461985,2.87719294 4.51461985,3.91033134 L4.51461985,20.128655 C4.51461985,21.1617934 5.35282648,22.0000001 6.38596488,22.0000001 L17.6140351,22.0000001 C18.6471735,22.0000001 19.4853802,21.1617934 19.4853802,20.128655 L19.4853802,7.18128653 C19.4853802,6.68615982 19.2865497,6.20662765 18.9356725,5.85575046 Z M17.4619883,7.02923974 L14.4951267,7.02923974 L14.4951267,4.06237813 L17.4619883,7.02923974 Z M6.38596488,20.128655 L6.38596488,3.91033134 L12.6237817,3.91033134 L12.6237817,7.96491226 C12.6237817,8.48343078 13.0409357,8.90058478 13.5594542,8.90058478 L17.6140351,8.90058478 L17.6140351,20.128655 L6.38596488,20.128655 Z" id="path-1"></path>
    </defs>
    <g id="file" stroke="none" stroke-width="1" fill="none" fill-rule="evenodd">
        <mask id="mask-2" fill="white">
            <use xlink:href="#path-1"></use>
        </mask>
        <g fill-rule="nonzero"></g>
        <g id="🎨-color" mask="url(#mask-2)" fill="#000000">
            <rect id="🎨-Color" x="0" y="0" width="24" height="24"></rect>
        </g>
    </g>
</svg>