<?xml version="1.0" encoding="UTF-8"?>
<svg width="24px" height="24px" viewBox="0 0 24 24" version="1.1" xmlns="http://www.w3.org/2000/svg" xmlns:xlink="http://www.w3.org/1999/xlink">
    <!-- Generator: Sketch 52.5 (67469) - http://www.bohemiancoding.com/sketch -->
    <title>file-archive</title>
    <desc>Created with Sketch.</desc>
    <defs>
        <path d="M18.9508203,5.82582028 L15.6741797,2.54917964 C15.322551,2.19754833 14.8456393,2.00000255 14.3483594,1.99999995 L6.37499997,1.99999995 C5.33945309,1.99999995 4.49999996,2.83945308 4.49999996,3.87499996 L4.49999996,20.125 C4.49999996,21.1605469 5.33945309,22 6.37499997,22 L17.625,22 C18.6605469,22 19.5,21.1605469 19.5,20.125 L19.5,7.1516406 C19.4999974,6.65436067 19.3024517,6.17744899 18.9508203,5.82582028 Z M14.5,4.02664059 L17.4733594,6.99999997 L14.5,6.99999997 L14.5,4.02664059 Z M17.625,20.125 L6.37499997,20.125 L6.37499997,3.87499996 L9.48882811,3.87499996 L9.48882811,4.49999996 L10.7388281,4.49999996 L10.7388281,3.87499996 L12.625,3.87499996 L12.625,7.93749998 C12.625,8.45527342 13.0447266,8.87499998 13.5625,8.87499998 L17.625,8.87499998 L17.625,20.125 Z M12.0105469,5.74999997 L10.7605469,5.74999997 L10.7605469,4.49999996 L12.0105469,4.49999996 L12.0105469,5.74999997 Z M10.7605469,5.74999997 L10.7605469,6.99999997 L9.51054686,6.99999997 L9.51054686,5.74999997 L10.7605469,5.74999997 Z M10.7605469,8.24999998 L10.7605469,9.49999999 L9.51054686,9.49999999 L9.51054686,8.24999998 L10.7605469,8.24999998 Z M12.0105469,8.24999998 L10.7605469,8.24999998 L10.7605469,6.99999997 L12.0105469,6.99999997 L12.0105469,8.24999998 Z M12.0851172,12.3780469 C12.0417903,12.1583674 11.8491458,12.0000038 11.6252344,12 L10.7605469,12 L10.7605469,10.75 L9.51054686,10.75 L9.51054686,12 L8.74140623,15.7932031 C8.48394529,17.0629297 9.45445311,18.25 10.75,18.25 C12.0410938,18.25 13.0105859,17.070625 12.7607813,15.8039063 L12.0851172,12.3780469 Z M10.7605469,17.2372266 C10.060625,17.2372266 9.49320311,16.764375 9.49320311,16.1811328 C9.49320311,15.5978516 10.0605859,15.1250391 10.7605469,15.1250391 C11.4605078,15.1250391 12.0278906,15.5978906 12.0278906,16.1811328 C12.0278906,16.764375 11.4604687,17.2372266 10.7605469,17.2372266 Z M12.0105469,10.75 L10.7605469,10.75 L10.7605469,9.49999999 L12.0105469,9.49999999 L12.0105469,10.75 Z" id="path-1"></path>
    </defs>
    <g id="file-archive" stroke="none" stroke-width="1" fill="none" fill-rule="evenodd">
        <mask id="mask-2" fill="white">
            <use xlink:href="#path-1"></use>
        </mask>
        <g fill-rule="nonzero"></g>
        <g id="🎨-color" mask="url(#mask-2)" fill="#000000">
            <rect id="🎨-Color" x="0" y="0" width="24" height="24"></rect>
        </g>
    </g>
</svg>