<?xml version="1.0" encoding="UTF-8"?>
<svg width="24px" height="24px" viewBox="0 0 24 24" version="1.1" xmlns="http://www.w3.org/2000/svg" xmlns:xlink="http://www.w3.org/1999/xlink">
    <!-- Generator: Sketch 52.5 (67469) - http://www.bohemiancoding.com/sketch -->
    <title>file-video</title>
    <desc>Created with Sketch.</desc>
    <defs>
        <path d="M18.9508203,5.82582028 L15.6741797,2.54917964 C15.322551,2.19754833 14.8456393,2.00000255 14.3483594,1.99999995 L6.37499997,1.99999995 C5.33945309,1.99999995 4.49999996,2.83945308 4.49999996,3.87499996 L4.49999996,20.125 C4.49999996,21.1605469 5.33945309,22 6.37499997,22 L17.625,22 C18.6605469,22 19.5,21.1605469 19.5,20.125 L19.5,7.1516406 C19.4999974,6.65436067 19.3024517,6.17744899 18.9508203,5.82582028 Z M17.4733594,6.99999997 L14.5,6.99999997 L14.5,4.02664059 L17.4733594,6.99999997 Z M6.37499997,20.125 L6.37499997,3.87499996 L12.625,3.87499996 L12.625,7.93749998 C12.625,8.45527342 13.0447266,8.87499998 13.5625,8.87499998 L17.625,8.87499998 L17.625,20.125 L6.37499997,20.125 Z M15.308086,11.8709766 L13.25,13.9286719 L13.25,12.46875 C13.25,12.0372656 12.9002344,11.6875 12.46875,11.6875 L8.40624998,11.6875 C7.9747656,11.6875 7.62499998,12.0372656 7.62499998,12.46875 L7.62499998,16.53125 C7.62499998,16.9627344 7.9747656,17.3125 8.40624998,17.3125 L12.46875,17.3125 C12.9002344,17.3125 13.25,16.9627344 13.25,16.53125 L13.25,15.0713281 L15.308086,17.1289063 C15.699375,17.5202344 16.375,17.2453125 16.375,16.6869531 L16.375,12.3129297 C16.375,11.7539062 15.6988672,11.4801562 15.308086,11.8709766 Z" id="path-1"></path>
    </defs>
    <g id="file-video" stroke="none" stroke-width="1" fill="none" fill-rule="evenodd">
        <mask id="mask-2" fill="white">
            <use xlink:href="#path-1"></use>
        </mask>
        <g fill-rule="nonzero"></g>
        <g id="🎨-color" mask="url(#mask-2)" fill="#000000">
            <rect id="🎨-Color" x="0" y="0" width="24" height="24"></rect>
        </g>
    </g>
</svg>