<?xml version="1.0" encoding="UTF-8"?>
<svg width="24px" height="24px" viewBox="0 0 24 24" version="1.1" xmlns="http://www.w3.org/2000/svg" xmlns:xlink="http://www.w3.org/1999/xlink">
    <!-- Generator: Sketch 52.5 (67469) - http://www.bohemiancoding.com/sketch -->
    <title>fill</title>
    <desc>Created with Sketch.</desc>
    <defs>
        <path d="M21.6152047,10.4623782 L13.5181287,2.3653021 C13.2744639,2.12163738 12.9551657,1.99999995 12.6358674,1.99999995 C12.3165692,1.99999995 11.997271,2.12163738 11.7539961,2.3653021 L8.57348926,5.54580893 L5.21364519,2.18596486 C4.97037034,1.94230014 4.5750487,1.94230014 4.33177384,2.18596486 L3.44990249,3.06744635 C3.20662764,3.31111107 3.20662764,3.70604284 3.44990249,3.94970756 L6.81013643,7.30955163 L3.11578943,11.0038986 C1.65419098,12.4654971 1.65419098,14.8346979 3.11578943,16.2962963 L7.68460037,20.8651073 C8.41559452,21.5957115 9.3730994,21.9614036 10.3306043,21.9614036 C11.288499,21.9614036 12.2460039,21.5961014 12.9769981,20.8651073 L21.6152047,12.2269006 C22.1021443,11.7395711 22.1021443,10.9497076 21.6152047,10.4623782 Z M17.0842106,13.2292398 L4.58986351,13.2292398 C4.64288495,13.0795322 4.7290448,12.9181287 4.87953213,12.7680312 L5.3922027,12.2553606 L8.57387913,9.0736842 L10.8588694,11.3582846 C11.345809,11.8452242 12.1356725,11.8452242 12.6226121,11.3582846 C13.1095517,10.871345 13.1095517,10.0814815 12.6226121,9.5945419 L10.3376218,7.3099415 L12.6358674,5.01169587 L18.9692008,11.3446394 L17.0842106,13.2292398 Z" id="path-1"></path>
    </defs>
    <g id="fill" stroke="none" stroke-width="1" fill="none" fill-rule="evenodd">
        <mask id="mask-2" fill="white">
            <use xlink:href="#path-1"></use>
        </mask>
        <g fill-rule="nonzero"></g>
        <g id="🎨-color" mask="url(#mask-2)" fill="#000000">
            <rect id="🎨-Color" x="0" y="0" width="24" height="24"></rect>
        </g>
    </g>
</svg>