<?xml version="1.0" encoding="UTF-8"?>
<svg width="24px" height="24px" viewBox="0 0 24 24" version="1.1" xmlns="http://www.w3.org/2000/svg" xmlns:xlink="http://www.w3.org/1999/xlink">
    <!-- Generator: Sketch 52.5 (67469) - http://www.bohemiancoding.com/sketch -->
    <title>fill-drip</title>
    <desc>Created with Sketch.</desc>
    <defs>
        <path d="M19.7777778,14.2222222 C19.7777778,14.2222222 17.5555556,17.4392361 17.5555556,18.6666667 C17.5555556,19.8940973 18.5506945,20.8888889 19.7777778,20.8888889 C21.0048612,20.8888889 22,19.8940973 22,18.6666667 C22,17.4392361 19.7777778,14.2222222 19.7777778,14.2222222 Z M19.4524306,10.6479167 L12.2409722,3.43645829 C12.0239583,3.2194444 11.7395833,3.11111107 11.4552083,3.11111107 C11.1708333,3.11111107 10.8864583,3.2194444 10.6697917,3.43645829 L7.83715276,6.26909719 L4.84479163,3.27638885 C4.62777774,3.05937496 4.27604163,3.05937496 4.05937496,3.27638885 L3.27395829,4.06180552 C3.05729162,4.27881941 3.05729162,4.63055552 3.27395829,4.84722219 L6.26666664,7.83958331 L2.97638884,11.1298611 C1.67465273,12.43125 1.67465273,14.5416667 2.97638884,15.8434028 L7.04548609,19.9125 C7.69618053,20.5631945 8.54930554,20.8888889 9.40208332,20.8888889 C10.2552083,20.8888889 11.1079861,20.5635417 11.7586806,19.9125 L19.4520834,12.2190972 C19.8861112,11.7850694 19.8861112,11.0819444 19.4524306,10.6479167 Z M15.4170139,13.1121528 L4.28923607,13.1121528 C4.3364583,12.9788194 4.41319441,12.8350694 4.54722218,12.7013889 L5.00381941,12.2447917 L7.83749998,9.4111111 L9.87222221,11.4458333 C10.3059028,11.8795139 11.009375,11.8795139 11.4430556,11.4458333 C11.8767361,11.0121528 11.8767361,10.3086805 11.4430556,9.87499999 L9.40833332,7.84027776 L11.4552083,5.79340275 L17.0954861,11.4336806 L15.4170139,13.1121528 Z" id="path-1"></path>
    </defs>
    <g id="fill-drip" stroke="none" stroke-width="1" fill="none" fill-rule="evenodd">
        <mask id="mask-2" fill="white">
            <use xlink:href="#path-1"></use>
        </mask>
        <g fill-rule="nonzero"></g>
        <g id="🎨-color" mask="url(#mask-2)" fill="#000000">
            <rect id="🎨-Color" x="0" y="0" width="24" height="24"></rect>
        </g>
    </g>
</svg>