<?xml version="1.0" encoding="UTF-8"?>
<svg width="24px" height="24px" viewBox="0 0 24 24" version="1.1" xmlns="http://www.w3.org/2000/svg" xmlns:xlink="http://www.w3.org/1999/xlink">
    <!-- Generator: Sketch 52.5 (67469) - http://www.bohemiancoding.com/sketch -->
    <title>film</title>
    <desc>Created with Sketch.</desc>
    <defs>
        <path d="M21.0625,4.49999996 L20.75,4.49999996 L20.75,5.28124997 C20.75,5.53906247 20.5390625,5.74999997 20.28125,5.74999997 L18.71875,5.74999997 C18.4609375,5.74999997 18.25,5.53906247 18.25,5.28124997 L18.25,4.49999996 L5.74999997,4.49999996 L5.74999997,5.28124997 C5.74999997,5.53906247 5.53906247,5.74999997 5.28124997,5.74999997 L3.71874996,5.74999997 C3.46093746,5.74999997 3.24999996,5.53906247 3.24999996,5.28124997 L3.24999996,4.49999996 L2.93749995,4.49999996 C2.4179687,4.49999996 1.99999995,4.91796871 1.99999995,5.43749997 L1.99999995,18.5625 C1.99999995,19.0820313 2.4179687,19.5 2.93749995,19.5 L3.24999996,19.5 L3.24999996,18.71875 C3.24999996,18.4609375 3.46093746,18.25 3.71874996,18.25 L5.28124997,18.25 C5.53906247,18.25 5.74999997,18.4609375 5.74999997,18.71875 L5.74999997,19.5 L18.25,19.5 L18.25,18.71875 C18.25,18.4609375 18.4609375,18.25 18.71875,18.25 L20.28125,18.25 C20.5390625,18.25 20.75,18.4609375 20.75,18.71875 L20.75,19.5 L21.0625,19.5 C21.5820313,19.5 22.0000001,19.0820313 22.0000001,18.5625 L22.0000001,5.43749997 C22.0000001,4.91796871 21.5820313,4.49999996 21.0625,4.49999996 Z M5.74999997,16.53125 C5.74999997,16.7890625 5.53906247,17 5.28124997,17 L3.71874996,17 C3.46093746,17 3.24999996,16.7890625 3.24999996,16.53125 L3.24999996,14.96875 C3.24999996,14.7109375 3.46093746,14.5 3.71874996,14.5 L5.28124997,14.5 C5.53906247,14.5 5.74999997,14.7109375 5.74999997,14.96875 L5.74999997,16.53125 Z M5.74999997,12.78125 C5.74999997,13.0390625 5.53906247,13.25 5.28124997,13.25 L3.71874996,13.25 C3.46093746,13.25 3.24999996,13.0390625 3.24999996,12.78125 L3.24999996,11.21875 C3.24999996,10.9609375 3.46093746,10.75 3.71874996,10.75 L5.28124997,10.75 C5.53906247,10.75 5.74999997,10.9609375 5.74999997,11.21875 L5.74999997,12.78125 Z M5.74999997,9.03124999 C5.74999997,9.28906249 5.53906247,9.49999999 5.28124997,9.49999999 L3.71874996,9.49999999 C3.46093746,9.49999999 3.24999996,9.28906249 3.24999996,9.03124999 L3.24999996,7.46874998 C3.24999996,7.21093748 3.46093746,6.99999997 3.71874996,6.99999997 L5.28124997,6.99999997 C5.53906247,6.99999997 5.74999997,7.21093748 5.74999997,7.46874998 L5.74999997,9.03124999 Z M16.375,17.15625 C16.375,17.4140625 16.1640625,17.625 15.90625,17.625 L8.09374998,17.625 C7.83593748,17.625 7.62499998,17.4140625 7.62499998,17.15625 L7.62499998,13.40625 C7.62499998,13.1484375 7.83593748,12.9375 8.09374998,12.9375 L15.90625,12.9375 C16.1640625,12.9375 16.375,13.1484375 16.375,13.40625 L16.375,17.15625 Z M16.375,10.59375 C16.375,10.8515625 16.1640625,11.0625 15.90625,11.0625 L8.09374998,11.0625 C7.83593748,11.0625 7.62499998,10.8515625 7.62499998,10.59375 L7.62499998,6.84374997 C7.62499998,6.58593747 7.83593748,6.37499997 8.09374998,6.37499997 L15.90625,6.37499997 C16.1640625,6.37499997 16.375,6.58593747 16.375,6.84374997 L16.375,10.59375 Z M20.75,16.53125 C20.75,16.7890625 20.5390625,17 20.28125,17 L18.71875,17 C18.4609375,17 18.25,16.7890625 18.25,16.53125 L18.25,14.96875 C18.25,14.7109375 18.4609375,14.5 18.71875,14.5 L20.28125,14.5 C20.5390625,14.5 20.75,14.7109375 20.75,14.96875 L20.75,16.53125 Z M20.75,12.78125 C20.75,13.0390625 20.5390625,13.25 20.28125,13.25 L18.71875,13.25 C18.4609375,13.25 18.25,13.0390625 18.25,12.78125 L18.25,11.21875 C18.25,10.9609375 18.4609375,10.75 18.71875,10.75 L20.28125,10.75 C20.5390625,10.75 20.75,10.9609375 20.75,11.21875 L20.75,12.78125 Z M20.75,9.03124999 C20.75,9.28906249 20.5390625,9.49999999 20.28125,9.49999999 L18.71875,9.49999999 C18.4609375,9.49999999 18.25,9.28906249 18.25,9.03124999 L18.25,7.46874998 C18.25,7.21093748 18.4609375,6.99999997 18.71875,6.99999997 L20.28125,6.99999997 C20.5390625,6.99999997 20.75,7.21093748 20.75,7.46874998 L20.75,9.03124999 Z" id="path-1"></path>
    </defs>
    <g id="film" stroke="none" stroke-width="1" fill="none" fill-rule="evenodd">
        <mask id="mask-2" fill="white">
            <use xlink:href="#path-1"></use>
        </mask>
        <g fill-rule="nonzero"></g>
        <g id="🎨-color" mask="url(#mask-2)" fill="#000000">
            <rect id="🎨-Color" x="0" y="0" width="24" height="24"></rect>
        </g>
    </g>
</svg>