<?xml version="1.0" encoding="UTF-8"?>
<svg width="24px" height="24px" viewBox="0 0 24 24" version="1.1" xmlns="http://www.w3.org/2000/svg" xmlns:xlink="http://www.w3.org/1999/xlink">
    <!-- Generator: Sketch 52.5 (67469) - http://www.bohemiancoding.com/sketch -->
    <title>fingerprint</title>
    <desc>Created with Sketch.</desc>
    <defs>
        <path d="M11.9851852,11.608577 C11.468616,11.608577 11.0495127,12.0272904 11.0495127,12.5442495 C11.0939571,15.3610137 10.7321637,18.0764133 9.96959063,20.7918129 C9.86315788,21.1707603 10.0534113,21.9805069 10.8709552,21.9805069 C11.2795322,21.9805069 11.6549708,21.7107213 11.7711501,21.2974659 C12.2986355,19.4296297 12.9812866,16.4081872 12.9204678,12.5442495 C12.9208577,12.0276803 12.5021443,11.608577 11.9851852,11.608577 Z M11.9516569,8.4222222 C9.56335281,8.41949316 7.89668614,10.2573099 7.92982454,12.3633528 C7.95906431,14.2323587 7.78362571,16.1025341 7.40857698,17.9208577 C7.30370368,18.4269006 7.62962961,18.9224172 8.13528263,19.0265108 C8.64405456,19.1306043 9.13606236,18.805848 9.24093566,18.2998051 C9.64405457,16.3469786 9.83235866,14.3395712 9.80116958,12.3341131 C9.78518517,11.3224172 10.5777778,10.2877193 11.9239766,10.2935672 C13.1446394,10.3118908 14.1520468,11.2814815 14.1703704,12.4561404 C14.2003899,14.3294347 14.0608187,16.2116959 13.7567252,18.0526316 C13.6721248,18.5617934 14.0175439,19.0436648 14.5270955,19.1278753 C15.305653,19.2576998 15.5723197,18.5391813 15.6023392,18.357115 C15.9251462,16.4066277 16.0725146,14.4113061 16.0417154,12.4269006 C16.0074074,10.251462 14.1727096,8.45497074 11.9516569,8.4222222 Z M7.63625729,7.6510721 C7.23469783,7.3259259 6.64717346,7.38596489 6.32007794,7.78674462 C5.32124753,9.0148148 4.78440542,10.565692 4.80935669,12.1532164 C4.83235864,13.6183236 4.71306039,15.0877193 4.454191,16.5216374 C4.36296292,17.0304094 4.7001949,17.5169591 5.20896683,17.6089669 C5.99298243,17.7454191 6.26432746,17.031579 6.29629627,16.8541911 C6.57660816,15.3009747 6.70565299,13.7095517 6.68070173,12.1239766 C6.66237814,10.9590643 7.03937619,9.86744638 7.77231967,8.96725145 C8.09785573,8.56647172 8.03703702,7.97738789 7.63625729,7.6510721 Z M11.9040936,5.2210526 C11.3033138,5.20506819 10.7005848,5.27719295 10.1192982,5.41481478 C9.61676412,5.53411303 9.30565301,6.03781673 9.42417153,6.54113058 C9.54346977,7.04366469 10.0479532,7.35321635 10.5504873,7.23625729 C10.9812865,7.1345029 11.4265107,7.08927873 11.8760234,7.09239764 C14.8167641,7.13645222 17.2456141,9.49005847 17.2904484,12.3391813 C17.3134503,13.8159844 17.2405458,15.3064328 17.0729045,16.7692008 C17.014425,17.2826511 17.382846,17.7469786 17.8959065,17.8054581 C18.5477583,17.8814815 18.8904484,17.3423002 18.9321638,16.9824562 C19.1093135,15.4315267 19.1860166,13.8707674 19.1617934,12.3099415 C19.1009747,8.46003897 15.8452242,5.27953213 11.9040936,5.2210526 Z M21.7313841,9.95594541 C21.6198831,9.4522417 21.1267057,9.12943468 20.6159844,9.2436647 C20.111501,9.35516568 19.7925926,9.85419102 19.9040936,10.3590643 C20.0877193,11.1937622 20.0955166,11.8175439 20.0873295,12.7606238 C20.083041,13.2779727 20.4986355,13.6998051 21.0152047,13.7040936 L21.023002,13.7040936 C21.5364523,13.7040936 21.954386,13.2904483 21.9586745,12.7762183 C21.9656921,11.911501 21.9742691,11.0565302 21.7313841,9.95594541 Z M20.1672515,6.41910329 C18.268616,3.71384011 15.1617934,2.06978553 11.8561404,2.02027285 C9.13528264,1.98752432 6.61871342,2.99064323 4.74697852,4.86315786 C2.93918124,6.67329432 1.96491223,9.07758283 2.00545804,11.6354776 L2.00077968,12.4725146 C1.985575,12.9890838 2.39181282,13.4202729 2.90838202,13.4350877 C2.91734888,13.4358675 2.92709547,13.4358675 2.9364522,13.4358675 C3.4401559,13.4358675 3.85614031,13.034308 3.87095513,12.5274854 L3.87719294,11.605848 C3.84483427,9.55906432 4.6241715,7.63469783 6.071345,6.18674461 C7.58245612,4.67407404 9.63235866,3.86042881 11.8288499,3.89200776 C14.5364523,3.9321637 17.0814815,5.27836254 18.6366472,7.49395709 C18.9333334,7.91734891 19.5161794,8.01832357 19.9395712,7.72241713 C20.3621833,7.42534111 20.4643275,6.84171537 20.1672515,6.41910329 Z" id="path-1"></path>
    </defs>
    <g id="fingerprint" stroke="none" stroke-width="1" fill="none" fill-rule="evenodd">
        <mask id="mask-2" fill="white">
            <use xlink:href="#path-1"></use>
        </mask>
        <g fill-rule="nonzero"></g>
        <g id="🎨-color" mask="url(#mask-2)" fill="#000000">
            <rect id="🎨-Color" x="0" y="0" width="24" height="24"></rect>
        </g>
    </g>
</svg>