<?xml version="1.0" encoding="UTF-8"?>
<svg width="24px" height="24px" viewBox="0 0 24 24" version="1.1" xmlns="http://www.w3.org/2000/svg" xmlns:xlink="http://www.w3.org/1999/xlink">
    <!-- Generator: Sketch 52.5 (67469) - http://www.bohemiancoding.com/sketch -->
    <title>firefox</title>
    <desc>Created with Sketch.</desc>
    <defs>
        <path d="M21.3007813,11.1914062 C21.2734375,11.015625 21.2460938,10.9140625 21.2460938,10.9140625 C21.2460938,10.9140625 21.1757813,10.9921875 21.0625,11.1445312 C21.0273438,10.7265625 20.953125,10.3164062 20.8359375,9.91015624 C20.6914063,9.40624999 20.5039063,8.91796873 20.2695313,8.44921873 C20.1210938,8.13671873 19.9492188,7.83984373 19.75,7.55859373 C19.6796875,7.45312498 19.6054688,7.34765623 19.53125,7.24999998 C19.1875,6.68749997 18.7890625,6.33984372 18.3320313,5.68749997 C18.0351563,5.18749997 17.828125,4.63671871 17.7304688,4.06249996 C17.6054688,4.41015621 17.5078125,4.76562496 17.4414063,5.12890622 C16.96875,4.65234371 16.5625,4.31640621 16.3125,4.08593746 C15.1015625,2.94531245 15.2421875,2.3554687 15.2421875,2.3554687 C15.2421875,2.3554687 12.9648438,4.89843746 13.9492188,7.54687498 C14.2890625,8.44531248 14.8789063,9.23046874 15.6445313,9.80859374 C16.5976563,10.5976562 17.6289063,11.2148437 18.171875,12.8007813 C17.734375,11.96875 17.0742188,11.2695312 16.265625,10.7890625 C16.5078125,11.3632812 16.6328125,11.984375 16.6289063,12.6054688 C16.6289063,14.9882813 14.6914063,16.921875 12.3085938,16.9179688 C11.984375,16.9179688 11.6640625,16.8828125 11.3515625,16.8085938 C10.9804687,16.7382813 10.6210937,16.6171875 10.28125,16.4453125 C9.77734374,16.140625 9.34374999,15.7382813 8.99999998,15.2617188 L8.99218748,15.25 L9.07031249,15.2773438 C9.24999999,15.3398438 9.42968749,15.3867188 9.61718749,15.421875 C10.3476562,15.578125 11.1132812,15.4882813 11.7890625,15.1640625 C12.4726563,14.7851563 12.8828125,14.5039063 13.21875,14.6171875 L13.2265625,14.6171875 C13.5546875,14.7226563 13.8125,14.4023438 13.578125,14.0703125 C13.171875,13.546875 12.5078125,13.2890625 11.8515625,13.40625 C11.1679687,13.5039063 10.5429687,13.9921875 9.64843749,13.5195313 C9.58984374,13.4882813 9.53515624,13.4570313 9.48046874,13.421875 C9.41796874,13.3867188 9.67187499,13.4726563 9.61328124,13.4335938 C9.41796874,13.3359375 9.23046874,13.2226563 9.05078124,13.0976563 C9.03906249,13.0859375 9.18749999,13.140625 9.17187499,13.1289063 C8.94140623,12.9726563 8.74218748,12.7695313 8.58593748,12.5351563 C8.42578123,12.2460938 8.41015623,11.8945312 8.54687498,11.59375 C8.62890623,11.4453125 8.75781248,11.3242187 8.91015623,11.2539062 C9.02734374,11.3125 9.09765624,11.3554687 9.09765624,11.3554687 C9.09765624,11.3554687 9.04687499,11.2578125 9.01562499,11.2070312 C9.02734374,11.203125 9.03515624,11.2070312 9.04687499,11.1992187 C9.14843749,11.2421875 9.37109374,11.3554687 9.49218749,11.4257812 C9.57421874,11.46875 9.64062499,11.53125 9.69531249,11.609375 C9.69531249,11.609375 9.73437499,11.5898437 9.70703124,11.5039062 C9.66406249,11.3984375 9.59374999,11.3085937 9.49609374,11.2460937 L9.50390624,11.2460937 C9.59374999,11.2929687 9.67968749,11.3476562 9.76171874,11.40625 C9.83593749,11.234375 9.87109374,11.046875 9.86328124,10.859375 C9.87109374,10.7578125 9.85546874,10.6523437 9.82031249,10.5546875 C9.78906249,10.4921875 9.83984374,10.46875 9.89453124,10.5351562 C9.88671874,10.484375 9.86718749,10.4375 9.84765624,10.390625 L9.84765624,10.3867187 C9.84765624,10.3867187 9.87890624,10.34375 9.89453124,10.328125 C9.93359374,10.2890625 9.97656249,10.2539062 10.0273437,10.2226562 C10.3085937,10.046875 10.6054687,9.89453124 10.9140625,9.76953124 C11.1640625,9.66015624 11.3710937,9.57812499 11.4140625,9.55078124 C11.4765625,9.51171874 11.5351562,9.46484374 11.5898437,9.41406249 C11.796875,9.23828124 11.9414062,8.99218748 11.9882812,8.72265623 C11.9921875,8.68749998 11.9960937,8.65234373 12,8.61328123 L12,8.55468748 C11.9648437,8.41796873 11.7304687,8.31640623 10.5,8.19921873 C10.0664062,8.12890623 9.71874999,7.80468748 9.62109374,7.37499998 L9.62109374,7.37890623 C9.60546874,7.42187498 9.58593749,7.46874998 9.57031249,7.51562498 C9.58593749,7.46874998 9.60156249,7.42578123 9.62109374,7.37890623 L9.62109374,7.37109373 C9.85546874,6.75781247 10.2773437,6.23437497 10.8242187,5.87499997 C10.8554687,5.84765622 10.6992187,5.88281247 10.7304687,5.85546872 C10.8359375,5.80468747 10.9414062,5.75781247 11.0507812,5.71874997 C11.1054687,5.69531247 10.8164062,5.58593747 10.5585937,5.61328122 C10.4023437,5.62109372 10.2460937,5.66015622 10.1015625,5.72265622 C10.1640625,5.67187497 10.34375,5.60156247 10.3007812,5.60156247 C9.97265624,5.66406247 9.65624999,5.78515622 9.36718749,5.95312497 C9.36718749,5.92187497 9.37109374,5.89453122 9.38671874,5.86718747 C9.15624999,5.96484372 8.95703123,6.12109372 8.80078123,6.31640622 C8.80468748,6.28124997 8.80859373,6.24609372 8.80859373,6.21093747 C8.70312498,6.28906247 8.60546873,6.37890622 8.52343748,6.48046872 L8.51953123,6.48437497 C7.83984373,6.22265622 7.10156248,6.16015622 6.38671872,6.30078122 L6.37890622,6.29687497 L6.38671872,6.29687497 C6.23828122,6.17578122 6.10937497,6.03515622 6.00781247,5.87109372 L5.99999997,5.87499997 L5.98437497,5.86718747 C5.93749997,5.79687497 5.89062497,5.71874997 5.83984372,5.63281247 C5.80468747,5.57031247 5.76953122,5.49999997 5.73437497,5.42968747 C5.73437497,5.42578122 5.73046872,5.42187497 5.72656247,5.42187497 C5.71093747,5.42187497 5.70312497,5.48828122 5.69140622,5.47265622 L5.69140622,5.46874997 C5.56640622,5.14453122 5.50781247,4.79687496 5.51953122,4.44531246 L5.51171872,4.44921871 C5.31249997,4.58593746 5.16015622,4.78515621 5.07812497,5.01562497 C5.04296872,5.09765622 5.01562497,5.14453122 4.99218746,5.19140622 L4.99218746,5.17187497 C4.99609371,5.12890622 5.01562497,5.04296872 5.01171872,5.05078122 C5.00781247,5.05859372 5.00390622,5.06249997 4.99999996,5.06640622 C4.94140621,5.13281247 4.88671871,5.21093747 4.84765621,5.29296872 C4.81249996,5.36718747 4.78124996,5.44531247 4.75781246,5.52343747 C4.75390621,5.53515622 4.75781246,5.51171872 4.75781246,5.48437497 C4.75781246,5.45703122 4.76171871,5.40624997 4.75781246,5.41796872 L4.74609371,5.44531247 C4.48437496,6.02734372 4.32031246,6.64843747 4.26171871,7.28515623 C4.24609371,7.39453123 4.23828121,7.50390623 4.24218746,7.60937498 L4.24218746,7.61718748 C4.05468746,7.82031248 3.89062496,8.04687498 3.74609371,8.28515623 C3.27343746,9.08203124 2.92187495,9.94531249 2.6992187,10.8476562 C2.8554687,10.5039062 3.04296871,10.1757812 3.25781246,9.86718749 C2.8398437,10.9257812 2.62499995,12.0546875 2.62499995,13.1953125 C2.69531245,12.859375 2.78906245,12.53125 2.89843745,12.2070313 C2.8320312,13.5546875 3.08984371,14.8984375 3.65624996,16.125 C4.41406246,17.8242188 5.67187497,19.25 7.26171873,20.2148438 C7.91015623,20.6523438 8.61718748,20.9921875 9.36328124,21.2226563 C9.46093749,21.2578125 9.56249999,21.2929688 9.66406249,21.328125 C9.63281249,21.3164063 9.60156249,21.3007813 9.57031249,21.2890625 C10.453125,21.5546875 11.375,21.6914063 12.296875,21.6914063 C15.5664063,21.6914063 16.6445313,20.4453125 16.7421875,20.3242188 C16.9023438,20.1796875 17.0351563,20.0039063 17.1289063,19.8046875 C17.1914063,19.7773438 17.2539063,19.75 17.3203125,19.7226563 L17.359375,19.703125 L17.4335938,19.6679688 C17.9257813,19.4375 18.390625,19.1445313 18.8125,18.8046875 C19.4492188,18.3476563 19.9023438,17.6835938 20.0976563,16.9257813 C20.2148438,16.6484375 20.21875,16.3398438 20.1132813,16.0585938 C20.1484375,16.0039063 20.1796875,15.9492188 20.21875,15.890625 C20.921875,14.7617188 21.3203125,13.4726563 21.375,12.1445313 L21.375,12.0351563 C21.375,11.75 21.3515625,11.46875 21.3007813,11.1914062 Z" id="path-1"></path>
    </defs>
    <g id="firefox" stroke="none" stroke-width="1" fill="none" fill-rule="evenodd">
        <mask id="mask-2" fill="white">
            <use xlink:href="#path-1"></use>
        </mask>
        <g></g>
        <g id="🎨-color" mask="url(#mask-2)" fill="#000000">
            <rect id="🎨-Color" x="0" y="0" width="24" height="24"></rect>
        </g>
    </g>
</svg>