<?xml version="1.0" encoding="UTF-8"?>
<svg width="24px" height="24px" viewBox="0 0 24 24" version="1.1" xmlns="http://www.w3.org/2000/svg" xmlns:xlink="http://www.w3.org/1999/xlink">
    <!-- Generator: Sketch 52.5 (67469) - http://www.bohemiancoding.com/sketch -->
    <title>fire-extinguisher</title>
    <desc>Created with Sketch.</desc>
    <defs>
        <path d="M20.2041797,3.02847652 L13.6416797,4.12222652 C13.1989453,4.19601559 13.25,4.64843746 13.25,4.81249996 L10.9714062,4.81249996 C11.3887891,3.41046871 10.3377344,1.99999995 8.87499998,1.99999995 C7.33457029,1.99999995 6.28249997,3.54984371 6.83484372,4.97667965 C4.80207028,5.48648434 3.8902734,7.09437498 3.31730464,8.52683592 C3.12499996,9.00757811 3.35882808,9.55316405 3.83957027,9.74546874 C4.32070309,9.93789061 4.86609371,9.70347655 5.05816403,9.22320311 C6.1819531,6.41367185 7.42828123,6.68749997 9.81249999,6.68749997 L9.81249999,7.74515623 C8.18972654,8.16945311 6.99999997,9.66839843 6.99999997,11.4220703 L6.99999997,21.0625 C6.99999997,21.5802735 7.41972654,22.0000001 7.93749998,22.0000001 L13.5625,22.0000001 C14.0802734,22.0000001 14.5,21.5802735 14.5,21.0625 L14.5,11.375 C14.5,9.6276953 13.3048438,8.15968748 11.6875,7.74335935 L11.6875,6.68749997 L13.25,6.68749997 C13.25,6.80367185 13.1834766,7.30140623 13.6416797,7.37777341 L20.2041797,8.47152342 C20.4899219,8.51914061 20.75,8.29882811 20.75,8.00914061 L20.75,3.49085933 C20.75,3.20117183 20.4899219,2.98085933 20.2041797,3.02847652 Z M8.87499998,4.81249996 C8.53039061,4.81249996 8.24999998,4.53210934 8.24999998,4.18749996 C8.24999998,3.84289058 8.53039061,3.56249996 8.87499998,3.56249996 C9.21960936,3.56249996 9.49999999,3.84289058 9.49999999,4.18749996 C9.49999999,4.53210934 9.21960936,4.81249996 8.87499998,4.81249996 Z" id="path-1"></path>
    </defs>
    <g id="fire-extinguisher" stroke="none" stroke-width="1" fill="none" fill-rule="evenodd">
        <mask id="mask-2" fill="white">
            <use xlink:href="#path-1"></use>
        </mask>
        <g fill-rule="nonzero"></g>
        <g id="🎨-color" mask="url(#mask-2)" fill="#000000">
            <rect id="🎨-Color" x="0" y="0" width="24" height="24"></rect>
        </g>
    </g>
</svg>