<?xml version="1.0" encoding="UTF-8"?>
<svg width="24px" height="24px" viewBox="0 0 24 24" version="1.1" xmlns="http://www.w3.org/2000/svg" xmlns:xlink="http://www.w3.org/1999/xlink">
    <!-- Generator: Sketch 52.5 (67469) - http://www.bohemiancoding.com/sketch -->
    <title>first-aid</title>
    <desc>Created with Sketch.</desc>
    <defs>
        <path d="M1.99999995,5.88888886 L1.99999995,18.1111111 C1.99999995,19.03125 2.74652773,19.7777778 3.66666662,19.7777778 L5.3333333,19.7777778 L5.3333333,4.22222218 L3.66666662,4.22222218 C2.74652773,4.22222218 1.99999995,4.96874996 1.99999995,5.88888886 Z M6.44444442,19.7777778 L17.5555556,19.7777778 L17.5555556,4.22222218 L6.44444442,4.22222218 L6.44444442,19.7777778 Z M8.66666665,11.1666667 C8.66666665,11.0138889 8.79166665,10.8888889 8.94444443,10.8888889 L10.8888889,10.8888889 L10.8888889,8.94444443 C10.8888889,8.79166665 11.0138889,8.66666665 11.1666667,8.66666665 L12.8333333,8.66666665 C12.9861111,8.66666665 13.1111111,8.79166665 13.1111111,8.94444443 L13.1111111,10.8888889 L15.0555556,10.8888889 C15.2083333,10.8888889 15.3333334,11.0138889 15.3333334,11.1666667 L15.3333334,12.8333333 C15.3333334,12.9861111 15.2083333,13.1111111 15.0555556,13.1111111 L13.1111111,13.1111111 L13.1111111,15.0555556 C13.1111111,15.2083333 12.9861111,15.3333334 12.8333333,15.3333334 L11.1666667,15.3333334 C11.0138889,15.3333334 10.8888889,15.2083333 10.8888889,15.0555556 L10.8888889,13.1111111 L8.94444443,13.1111111 C8.79166665,13.1111111 8.66666665,12.9861111 8.66666665,12.8333333 L8.66666665,11.1666667 Z M20.3333334,4.22222218 L18.6666667,4.22222218 L18.6666667,19.7777778 L20.3333334,19.7777778 C21.2534723,19.7777778 22,19.03125 22,18.1111111 L22,5.88888886 C22,4.96874996 21.2534723,4.22222218 20.3333334,4.22222218 Z" id="path-1"></path>
    </defs>
    <g id="first-aid" stroke="none" stroke-width="1" fill="none" fill-rule="evenodd">
        <mask id="mask-2" fill="white">
            <use xlink:href="#path-1"></use>
        </mask>
        <g fill-rule="nonzero"></g>
        <g id="🎨-color" mask="url(#mask-2)" fill="#000000">
            <rect id="🎨-Color" x="0" y="0" width="24" height="24"></rect>
        </g>
    </g>
</svg>