<?xml version="1.0" encoding="UTF-8"?>
<svg width="24px" height="24px" viewBox="0 0 24 24" version="1.1" xmlns="http://www.w3.org/2000/svg" xmlns:xlink="http://www.w3.org/1999/xlink">
    <!-- Generator: Sketch 52.5 (67469) - http://www.bohemiancoding.com/sketch -->
    <title>first-order</title>
    <desc>Created with Sketch.</desc>
    <defs>
        <path d="M3.77523433,10.9957812 C3.78523433,10.9857812 3.79523433,10.9657812 3.80523433,10.9557812 C3.80523433,10.9657812 3.80523433,10.9857812 3.79523433,10.9957812 L3.77523433,10.9957812 Z M12,5.77343747 C11.7226562,5.77343747 11.4296875,5.79687497 11.1640625,5.83984372 L11.3085937,8.47265623 L10.4492187,5.97265622 C9.89062499,6.11718747 9.36718749,6.33984372 8.88671873,6.62109372 L10.0351562,9.01953124 L8.27343748,7.03124998 C7.82812498,7.37890623 7.42578123,7.77734373 7.07812498,8.23828123 L9.05468749,10.0117187 L6.66796872,8.85156248 C6.39062497,9.33203124 6.16406247,9.85546874 6.01953122,10.4140625 L8.53124998,11.296875 L5.87499997,11.140625 C5.83984372,11.4179687 5.82031247,11.7109375 5.82031247,12 C5.82031247,12.2890625 5.84374997,12.5703125 5.87499997,12.8476563 L8.51953123,12.6914063 L6.01953122,13.5742188 C6.16406247,14.1328125 6.38671872,14.65625 6.66796872,15.1484375 L9.05468749,13.9882813 L7.06640623,15.75 C7.41406248,16.2070313 7.81249998,16.6210938 8.27343748,16.9570313 L10.0273437,14.96875 L8.87499998,17.3671875 C9.35546874,17.65625 9.87890624,17.8789063 10.4375,18.0273438 L11.3085937,15.5039063 L11.1523437,18.1601563 C11.4296875,18.203125 11.7226562,18.2265625 12,18.2265625 C12.2890625,18.2265625 12.5703125,18.203125 12.8476563,18.1601563 L12.6914063,15.4804688 L13.5742188,18.0234375 C14.1328125,17.8671875 14.65625,17.65625 15.1367188,17.3632813 L13.9882813,14.96875 L15.7421875,16.9570313 C16.1992188,16.609375 16.6015625,16.2109375 16.9375,15.75 L14.9609375,13.9882813 L17.3476563,15.1367188 C17.625,14.65625 17.8515625,14.1328125 17.9960938,13.5625 L15.4960938,12.6914063 L18.1289063,12.8476563 C18.171875,12.5703125 18.1835938,12.2890625 18.1835938,12 C18.1835938,11.7109375 18.171875,11.4179687 18.1289063,11.140625 L15.484375,11.296875 L17.984375,10.4257812 C17.8398438,9.86718749 17.6289063,9.33203124 17.3359375,8.85156248 L14.9570313,10.0117187 L16.9335938,8.23828123 C16.5859375,7.78124998 16.1875,7.37890623 15.7382813,7.03124998 L13.9765625,9.01953124 L15.125,6.63281247 C14.6445313,6.34374997 14.1210938,6.12109372 13.5625,5.97265622 L12.6914063,8.48437498 L12.8476563,5.83984372 C12.5703125,5.79296872 12.2890625,5.77343747 12,5.77343747 Z M20.5703125,6.99999997 L20.5703125,17 L12,22.0000001 L3.42968746,17 L3.42968746,6.99999997 L12,1.99999995 L20.5703125,6.99999997 Z M19.9023438,7.40234373 L12,2.8164062 L4.09765621,7.40234373 L4.09765621,16.5859375 L12,21.1835938 L19.9023438,16.5859375 L19.9023438,7.40234373 Z M12,3.44921871 L19.3320313,7.72265623 L19.3320313,16.2734375 L12,20.5507813 L4.66796871,16.2734375 L4.66796871,7.72656248 L12,3.44921871 Z M12,5.43749997 C8.39453123,5.43749997 5.48046872,8.37109373 5.48046872,12 C5.48046872,15.6171875 8.39453123,18.5507813 12,18.5507813 C15.59375,18.5507813 18.5195313,15.6171875 18.5195313,12 C18.5195313,8.37109373 15.59375,5.43749997 12,5.43749997 Z" id="path-1"></path>
    </defs>
    <g id="first-order" stroke="none" stroke-width="1" fill="none" fill-rule="evenodd">
        <mask id="mask-2" fill="white">
            <use xlink:href="#path-1"></use>
        </mask>
        <g fill-rule="nonzero"></g>
        <g id="🎨-color" mask="url(#mask-2)" fill="#000000">
            <rect id="🎨-Color" x="0" y="0" width="24" height="24"></rect>
        </g>
    </g>
</svg>