<?xml version="1.0" encoding="UTF-8"?>
<svg width="24px" height="24px" viewBox="0 0 24 24" version="1.1" xmlns="http://www.w3.org/2000/svg" xmlns:xlink="http://www.w3.org/1999/xlink">
    <!-- Generator: Sketch 52.5 (67469) - http://www.bohemiancoding.com/sketch -->
    <title>first-order-alt</title>
    <desc>Created with Sketch.</desc>
    <defs>
        <path d="M12,2.31249995 C6.64960935,2.31249995 2.31249995,6.64960935 2.31249995,12 C2.31249995,17.3503907 6.64960935,21.6875 12,21.6875 C17.3503907,21.6875 21.6875,17.3503907 21.6875,12 C21.6875,6.64960935 17.3503907,2.31249995 12,2.31249995 Z M12,21.3832032 C6.81796872,21.3832032 2.61679683,17.1820313 2.61679683,12 C2.61679683,6.81796872 6.81796872,2.61679683 12,2.61679683 C17.1820313,2.61679683 21.3832032,6.81796872 21.3832032,12 C21.3832032,17.1820313 17.1820313,21.3832032 12,21.3832032 Z M12,3.41757808 C7.26015623,3.41757808 3.41757808,7.26015623 3.41757808,12 C3.41757808,16.7398438 7.26015623,20.5824219 12,20.5824219 C16.7398438,20.5824219 20.5824219,16.7398438 20.5824219,12 C20.5824219,7.26015623 16.7398438,3.41757808 12,3.41757808 Z M12,20.2621094 C7.43710935,20.2621094 3.73789058,16.5632813 3.73789058,12 C3.73789058,7.43671873 7.43710935,3.73789058 12,3.73789058 C16.5628906,3.73789058 20.2621094,7.43710935 20.2621094,12 C20.2621094,16.5628906 16.5628906,20.2621094 12,20.2621094 Z M19.2746094,13.8957031 C19.1013284,14.5628706 18.8367182,15.2029039 18.4882813,15.7976563 L15.5925781,14.3960938 L17.9941407,16.5375 C17.5784183,17.0870061 17.0895156,17.5770917 16.5410156,17.9941407 L14.4003906,15.5890625 L15.8019531,18.4902344 C15.2082943,18.8401319 14.5690109,19.1060727 13.9023438,19.2804688 L12.8363281,16.2152344 L13.0234375,19.4546875 C12.6871094,19.5007813 12.34375,19.525 11.9949219,19.525 C11.6460937,19.525 11.3027344,19.5007813 10.9664062,19.4546875 L11.1523437,16.2335938 L10.0917969,19.2816407 C9.42498815,19.1074809 8.78546714,18.8419449 8.19140623,18.4925782 L9.59492186,15.5886719 L7.45156248,17.9964844 C6.90292066,17.5794867 6.41376966,17.0895472 5.99765622,16.5402344 L8.40351561,14.3957031 L5.50273434,15.7992188 C5.15417278,15.2044819 4.88943141,14.5644493 4.71601559,13.8972656 L7.7566406,12.8382813 L4.54453121,13.0242188 C4.49921871,12.6894531 4.47499996,12.3476563 4.47499996,12.0003906 C4.47499996,11.6488281 4.49960934,11.3035156 4.54609371,10.9648437 L7.76406248,11.1511719 L4.71953121,10.0902344 C4.89416343,9.42315278 5.16008706,8.78338494 5.50976559,8.18906248 L8.40898436,9.59218749 L6.00585935,7.44921873 C6.42285705,6.90057691 6.91279658,6.41142591 7.46210935,5.99531247 L9.60117186,8.39882811 L8.20156248,5.50156247 C8.79579903,5.15320258 9.43530585,4.88859267 10.1019531,4.71523434 L11.1515625,7.73281248 L10.9675781,4.54492184 C11.3039062,4.49882809 11.646875,4.47460934 11.9957031,4.47460934 C12.3445313,4.47460934 12.6875,4.49882809 13.0238281,4.54492184 L12.8386719,7.75429685 L13.8953125,4.71679684 C14.5699219,4.89257809 15.2078125,5.16015622 15.7949219,5.50468747 L14.3957031,8.39999998 L16.5332031,5.99882809 C17.0822221,6.41490499 17.5716663,6.90421777 17.9878907,7.45312498 L15.5875,9.59257811 L18.4828125,8.19179686 C18.832112,8.78589132 19.097644,9.42540275 19.271875,10.0921875 L16.2324219,11.1507812 L19.4449219,10.9652344 C19.4914063,11.3035156 19.5160157,11.6488281 19.5160157,12 C19.5160157,12.346875 19.4921875,12.6886719 19.4464844,13.0230469 L16.2386719,12.8375 L19.2746094,13.8957031 Z" id="path-1"></path>
    </defs>
    <g id="first-order-alt" stroke="none" stroke-width="1" fill="none" fill-rule="evenodd">
        <mask id="mask-2" fill="white">
            <use xlink:href="#path-1"></use>
        </mask>
        <g fill-rule="nonzero"></g>
        <g id="🎨-color" mask="url(#mask-2)" fill="#000000">
            <rect id="🎨-Color" x="0" y="0" width="24" height="24"></rect>
        </g>
    </g>
</svg>