<?xml version="1.0" encoding="UTF-8"?>
<svg width="24px" height="24px" viewBox="0 0 24 24" version="1.1" xmlns="http://www.w3.org/2000/svg" xmlns:xlink="http://www.w3.org/1999/xlink">
    <!-- Generator: Sketch 52.5 (67469) - http://www.bohemiancoding.com/sketch -->
    <title>fish</title>
    <desc>Created with Sketch.</desc>
    <defs>
        <path d="M13.372617,6.45407276 C10.2540728,6.45407276 7.53067589,8.35251298 6.01490465,9.97677642 L2.98786824,7.68734833 C2.56741763,7.36915076 1.93968799,7.70814556 2.04714033,8.19549392 L2.88526859,12 L2.04679371,15.8048527 C1.93934137,16.2922011 2.56707101,16.6308492 2.98752162,16.3129983 L6.01455803,14.0235702 C7.53032927,15.647487 10.2540728,17.5459272 13.372617,17.5459272 C18.1372617,17.5459272 22,13.1091854 22,12 C22,10.8908146 18.1372617,6.45407276 13.372617,6.45407276 Z M16.4031196,12.8318891 C15.9438475,12.8318891 15.5712305,12.4592721 15.5712305,12 C15.5712305,11.5403813 15.9438475,11.1681109 16.4031196,11.1681109 C16.8627383,11.1681109 17.2350087,11.5403813 17.2350087,12 C17.2350087,12.4592721 16.8623917,12.8318891 16.4031196,12.8318891 Z" id="path-1"></path>
    </defs>
    <g id="fish" stroke="none" stroke-width="1" fill="none" fill-rule="evenodd">
        <mask id="mask-2" fill="white">
            <use xlink:href="#path-1"></use>
        </mask>
        <g fill-rule="nonzero"></g>
        <g id="🎨-color" mask="url(#mask-2)" fill="#000000">
            <rect id="🎨-Color" x="0" y="0" width="24" height="24"></rect>
        </g>
    </g>
</svg>