<?xml version="1.0" encoding="UTF-8"?>
<svg width="24px" height="24px" viewBox="0 0 24 24" version="1.1" xmlns="http://www.w3.org/2000/svg" xmlns:xlink="http://www.w3.org/1999/xlink">
    <!-- Generator: Sketch 52.5 (67469) - http://www.bohemiancoding.com/sketch -->
    <title>flag-checkered</title>
    <desc>Created with Sketch.</desc>
    <defs>
        <path d="M20.2232422,4.61437496 C21.0519922,4.22945309 22,4.8340234 22,5.74781247 L22,15.2439063 C22,15.6550781 21.7983985,16.0410547 21.4592579,16.2735156 C20.059375,17.2330469 18.5555469,17.8695313 16.6739063,17.8695313 C14.0421484,17.8695313 12.3133594,16.5108203 10.2201172,16.5108203 C8.23367186,16.5108203 6.85589841,16.903711 5.74999997,17.374961 L5.74999997,21.0625 C5.74999997,21.5802735 5.3302734,22 4.81249996,22 L4.18749996,22 C3.66972652,22 3.24999996,21.5802735 3.24999996,21.0625 L3.24999996,5.98222653 C2.68347652,5.58691403 2.31249995,4.93070309 2.31249995,4.18749996 C2.31249995,2.94906245 3.34160152,1.95101557 4.59132809,2.00187495 C5.70335934,2.04710933 6.61394529,2.93812495 6.68316404,4.04890621 C6.70347654,4.37476559 6.65152341,4.68601559 6.54308591,4.96929684 C7.35308591,4.67124996 8.22628904,4.49999996 9.20109374,4.49999996 C11.8328516,4.49999996 13.5616406,5.85871091 15.6548828,5.85871091 C17.2367578,5.85871091 18.8819141,5.23738278 20.2232422,4.61437496 Z M5.74999997,7.25898435 L5.74999997,10.0125 C6.88281247,9.59570311 7.74921873,9.31601561 8.62499998,9.19570311 L8.62499998,6.39999997 C7.70703123,6.4847656 7.04531248,6.78242185 5.74999997,7.25898435 Z M14.375,7.61796873 C13.3430859,7.43546873 12.4263281,7.07191404 11.5,6.78437497 L11.5,9.41796874 C12.4443359,9.67992186 13.3580469,10.0603125 14.375,10.2894531 L14.375,7.61796873 Z M8.62499998,9.19570311 L8.62499998,11.9316406 C9.90609374,11.8153125 10.7308594,11.9068359 11.5,12.0800781 L11.5,9.41796874 C10.5137891,9.14316405 9.68042968,9.0498828 8.62499998,9.19570311 Z M11.5,14.7515625 C12.5288281,14.9332813 13.4426563,15.295586 14.375,15.5851563 L14.375,12.9519531 C13.4266797,12.6884375 12.5179688,12.309375 11.5,12.0800781 L11.5,14.7515625 Z M5.74999997,15.3632813 C6.67265622,15.0355469 7.61679685,14.8226563 8.62499998,14.7164063 L8.62499998,11.9316406 C7.6050781,12.0234375 6.77499997,12.2457031 5.74999997,12.6097656 L5.74999997,15.3632813 Z M20.125,6.70703122 C19.2929688,7.05273435 18.3050782,7.39609373 17.25,7.5847656 L17.25,10.39375 C18.3167969,10.2234375 19.2042969,9.84296874 20.125,9.46054686 L20.125,6.70703122 Z M20.125,14.9085938 L20.125,12.1550781 C19.2582032,12.7097656 18.2195313,13.0382813 17.25,13.1714844 L17.25,15.9675781 C18.2292969,15.8746094 19.1441407,15.5363281 20.125,14.9085938 Z M14.375,10.2894531 L14.375,12.9519531 C15.3775,13.230625 16.1959375,13.316875 17.25,13.1714844 L17.25,10.39375 C16.2344141,10.5573047 15.2991016,10.4982812 14.375,10.2894531 Z" id="path-1"></path>
    </defs>
    <g id="flag-checkered" stroke="none" stroke-width="1" fill="none" fill-rule="evenodd">
        <mask id="mask-2" fill="white">
            <use xlink:href="#path-1"></use>
        </mask>
        <g fill-rule="nonzero"></g>
        <g id="🎨-color" mask="url(#mask-2)" fill="#000000">
            <rect id="🎨-Color" x="0" y="0" width="24" height="24"></rect>
        </g>
    </g>
</svg>