<?xml version="1.0" encoding="UTF-8"?>
<svg width="24px" height="24px" viewBox="0 0 24 24" version="1.1" xmlns="http://www.w3.org/2000/svg" xmlns:xlink="http://www.w3.org/1999/xlink">
    <!-- Generator: Sketch 52.5 (67469) - http://www.bohemiancoding.com/sketch -->
    <title>flag</title>
    <desc>Created with Sketch.</desc>
    <defs>
        <path d="M15.1317969,5.12499997 C13.2125781,5.12499997 11.4870703,3.87499996 8.8070703,3.87499996 C7.58437498,3.87499996 6.52960935,4.12820309 5.65390622,4.46749996 C5.7406968,4.20698917 5.76925924,3.93060559 5.73757809,3.65785152 C5.63542966,2.76464839 4.8971484,2.06226558 4.00003902,2.00406245 C2.90789058,1.93320307 1.99999995,2.79808589 1.99999995,3.87499996 C1.99999995,4.56890621 2.37722651,5.17429684 2.93749995,5.49851559 L2.93749995,21.375 C2.93749995,21.7201954 3.21730464,22.0000001 3.56249996,22.0000001 L4.18749996,22.0000001 C4.53269528,22.0000001 4.81249996,21.7201954 4.81249996,21.375 L4.81249996,18.1155078 C6.29175778,17.440625 7.59605467,17 9.80570311,17 C11.7249219,17 13.4504297,18.25 16.1304297,18.25 C18.4147657,18.25 20.113711,17.3665235 21.151836,16.6882422 C21.6814844,16.3422266 22.0000001,15.7519922 22.0000001,15.119336 L22.0000001,5.74753903 C22.0000001,4.40148434 20.6225,3.49097652 19.3865625,4.02421871 C17.9841016,4.62925778 16.5172266,5.12499997 15.1317969,5.12499997 Z M20.125,15.125 C19.2741016,15.7270313 17.7490625,16.375 16.1304297,16.375 C13.7888281,16.375 12.1459766,15.125 9.80570311,15.125 C8.11191404,15.125 6.04089841,15.4923047 4.81249996,16.0625 L4.81249996,6.99999997 C5.66343747,6.39796872 7.18843748,5.74999997 8.8070703,5.74999997 C11.1486719,5.74999997 12.7915234,6.99999997 15.1317969,6.99999997 C16.8220703,6.99999997 18.8942969,6.3216406 20.125,5.74999997 L20.125,15.125 Z" id="path-1"></path>
    </defs>
    <g id="flag" stroke="none" stroke-width="1" fill="none" fill-rule="evenodd">
        <mask id="mask-2" fill="white">
            <use xlink:href="#path-1"></use>
        </mask>
        <g fill-rule="nonzero"></g>
        <g id="🎨-color" mask="url(#mask-2)" fill="#000000">
            <rect id="🎨-Color" x="0" y="0" width="24" height="24"></rect>
        </g>
    </g>
</svg>