<?xml version="1.0" encoding="UTF-8"?>
<svg width="24px" height="24px" viewBox="0 0 24 24" version="1.1" xmlns="http://www.w3.org/2000/svg" xmlns:xlink="http://www.w3.org/1999/xlink">
    <!-- Generator: Sketch 52.5 (67469) - http://www.bohemiancoding.com/sketch -->
    <title>flag-usa</title>
    <desc>Created with Sketch.</desc>
    <defs>
        <path d="M3.26705649,2.0389863 C2.576998,2.0389863 2.01949313,2.59649118 2.01949313,3.28654966 L2.01949313,21.3762184 C2.01949313,21.7192983 2.30019488,22.0000001 2.64327481,22.0000001 L3.89083817,22.0000001 C4.23391809,22.0000001 4.51461985,21.7192983 4.51461985,21.3762184 L4.51461985,3.28654966 C4.51461985,2.59649118 3.95711497,2.0389863 3.26705649,2.0389863 Z M13.711501,13.8752437 C11.4814815,13.2865497 9.35672513,12.7524367 5.7621832,14.3079922 L5.7621832,17.0097466 C13.0019493,13.4152047 14.4054581,19.0877193 21.2592593,16.1091618 C21.7037038,15.91423 21.9805069,15.465887 21.9805069,14.9863548 L21.9805069,13.582846 C20.2807018,14.25731 18.8538012,14.5224172 17.6101365,14.5224172 C16.1520468,14.5185185 14.9239766,14.1949318 13.711501,13.8752437 Z M13.711501,10.1325536 C11.4814815,9.54385964 9.35672513,9.00974657 5.7621832,10.5653021 L5.7621832,12.962963 C9.45808966,11.497076 11.7894737,12.0779727 14.0311891,12.6666667 C16.2612086,13.2553606 18.3859649,13.7894737 21.9805069,12.2339181 L21.9805069,9.8362573 C20.2807018,10.5107212 18.8538012,10.7758285 17.6101365,10.7758285 C16.1520468,10.7758285 14.9239766,10.4522417 13.711501,10.1325536 Z M14.0818714,5.22417151 C16.1013645,5.83235864 17.8791423,6.3547758 21.9805069,4.44054577 L21.9805069,3.23976604 C21.9805069,2.26120853 20.9356726,1.75438591 20.0545809,2.202729 C13.3762183,5.60623778 13.9259259,-0.385964974 5.7621832,3.30214421 L5.7621832,9.22417153 C9.45808966,7.76218321 11.7894737,8.33918127 14.0311891,8.92787523 C16.2612086,9.51267055 18.3859649,10.0467836 21.9805069,8.49512669 L21.9805069,5.80896683 C19.8908382,6.72514617 18.34308,7.03313838 17.0643275,7.03313838 C15.7855751,7.03313838 14.7641326,6.72904481 13.7231969,6.41325533 C13.5672515,6.36647171 13.4074074,6.31968808 13.251462,6.27680309 L13.251462,4.98245611 C13.5321638,5.06042882 13.8089669,5.14230016 14.0818714,5.22417151 Z M8.25730992,7.03313838 C7.91423,7.03313838 7.63352824,6.75633526 7.63352824,6.4093567 C7.63352824,6.06627677 7.91423,5.78557502 8.25730992,5.78557502 C8.60038985,5.78557502 8.8810916,6.06237814 8.8810916,6.4093567 C8.8810916,6.75633526 8.60038985,7.03313838 8.25730992,7.03313838 Z M8.25730992,4.85769977 C7.91423,4.85769977 7.63352824,4.58089665 7.63352824,4.23391809 C7.63352824,3.89083817 7.91423,3.61013641 8.25730992,3.61013641 C8.60038985,3.61013641 8.8810916,3.88693953 8.8810916,4.23391809 C8.8810916,4.57699801 8.60038985,4.85769977 8.25730992,4.85769977 Z M10.7524366,6.72514617 C10.4093567,6.72514617 10.128655,6.44834305 10.128655,6.10136449 C10.128655,5.75828457 10.4093567,5.47758281 10.7524366,5.47758281 C11.0955166,5.47758281 11.3762183,5.75438593 11.3762183,6.10136449 C11.3762183,6.44444442 11.0955166,6.72514617 10.7524366,6.72514617 Z M10.7524366,4.54580893 C10.4093567,4.54580893 10.128655,4.26900581 10.128655,3.92202725 C10.128655,3.57894733 10.4093567,3.29824557 10.7524366,3.29824557 C11.0955166,3.29824557 11.3762183,3.57504869 11.3762183,3.92202725 C11.3762183,4.26510717 11.0955166,4.54580893 10.7524366,4.54580893 Z" id="path-1"></path>
    </defs>
    <g id="flag-usa" stroke="none" stroke-width="1" fill="none" fill-rule="evenodd">
        <mask id="mask-2" fill="white">
            <use xlink:href="#path-1"></use>
        </mask>
        <g fill-rule="nonzero"></g>
        <g id="🎨-color" mask="url(#mask-2)" fill="#000000">
            <rect id="🎨-Color" x="0" y="0" width="24" height="24"></rect>
        </g>
    </g>
</svg>