<?xml version="1.0" encoding="UTF-8"?>
<svg width="24px" height="24px" viewBox="0 0 24 24" version="1.1" xmlns="http://www.w3.org/2000/svg" xmlns:xlink="http://www.w3.org/1999/xlink">
    <!-- Generator: Sketch 52.5 (67469) - http://www.bohemiancoding.com/sketch -->
    <title>flask</title>
    <desc>Created with Sketch.</desc>
    <defs>
        <path d="M20.3085938,17.7617188 L15.7304688,10.3984375 L15.7304688,4.49999996 L16.0429688,4.49999996 C16.5625,4.49999996 16.9804688,4.08203121 16.9804688,3.56249996 L16.9804688,2.93749995 C16.9804688,2.4179687 16.5625,1.99999995 16.0429688,1.99999995 L7.91796873,1.99999995 C7.39843748,1.99999995 6.98046872,2.4179687 6.98046872,2.93749995 L6.98046872,3.56249996 C6.98046872,4.08203121 7.39843748,4.49999996 7.91796873,4.49999996 L8.23046873,4.49999996 L8.23046873,10.3984375 L3.65234371,17.7617188 C2.50781245,19.6015625 3.82812496,22.0000001 5.99999997,22.0000001 L17.9609375,22.0000001 C20.1367188,22.0000001 21.453125,19.5976563 20.3085938,17.7617188 Z M8.61718748,14.5 L10.5,11.46875 C10.6445312,11.265625 10.7265625,11.015625 10.7265625,10.75 L10.7265625,4.49999996 L13.2265625,4.49999996 L13.2265625,10.75 C13.2265625,11.0195312 13.3125,11.265625 13.453125,11.46875 L15.3359375,14.5 L8.61718748,14.5 Z" id="path-1"></path>
    </defs>
    <g id="flask" stroke="none" stroke-width="1" fill="none" fill-rule="evenodd">
        <mask id="mask-2" fill="white">
            <use xlink:href="#path-1"></use>
        </mask>
        <g fill-rule="nonzero"></g>
        <g id="🎨-color" mask="url(#mask-2)" fill="#000000">
            <rect id="🎨-Color" x="0" y="0" width="24" height="24"></rect>
        </g>
    </g>
</svg>