<?xml version="1.0" encoding="UTF-8"?>
<svg width="24px" height="24px" viewBox="0 0 24 24" version="1.1" xmlns="http://www.w3.org/2000/svg" xmlns:xlink="http://www.w3.org/1999/xlink">
    <!-- Generator: Sketch 52.5 (67469) - http://www.bohemiancoding.com/sketch -->
    <title>flickr</title>
    <desc>Created with Sketch.</desc>
    <defs>
        <path d="M18.875,3.24999996 L5.12499997,3.24999996 C4.08984371,3.24999996 3.24999996,4.08984371 3.24999996,5.12499997 L3.24999996,18.875 C3.24999996,19.9101563 4.08984371,20.75 5.12499997,20.75 L18.875,20.75 C19.9101563,20.75 20.75,19.9101563 20.75,18.875 L20.75,5.12499997 C20.75,4.08984371 19.9101563,3.24999996 18.875,3.24999996 Z M8.89453123,14.4609375 C7.52343748,14.4609375 6.41406247,13.3515625 6.41406247,11.9804687 C6.41406247,10.609375 7.52343748,9.49999999 8.89453123,9.49999999 C10.265625,9.49999999 11.375,10.609375 11.375,11.9804687 C11.375,13.3515625 10.265625,14.4609375 8.89453123,14.4609375 Z M15.1054688,14.4609375 C13.734375,14.4609375 12.625,13.3515625 12.625,11.9804687 C12.625,10.609375 13.734375,9.49999999 15.1054688,9.49999999 C16.4765625,9.49999999 17.5859375,10.609375 17.5859375,11.9804687 C17.5859375,13.3515625 16.4765625,14.4609375 15.1054688,14.4609375 Z" id="path-1"></path>
    </defs>
    <g id="flickr" stroke="none" stroke-width="1" fill="none" fill-rule="evenodd">
        <mask id="mask-2" fill="white">
            <use xlink:href="#path-1"></use>
        </mask>
        <g fill-rule="nonzero"></g>
        <g id="🎨-color" mask="url(#mask-2)" fill="#000000">
            <rect id="🎨-Color" x="0" y="0" width="24" height="24"></rect>
        </g>
    </g>
</svg>