<?xml version="1.0" encoding="UTF-8"?>
<svg width="24px" height="24px" viewBox="0 0 24 24" version="1.1" xmlns="http://www.w3.org/2000/svg" xmlns:xlink="http://www.w3.org/1999/xlink">
    <!-- Generator: Sketch 52.5 (67469) - http://www.bohemiancoding.com/sketch -->
    <title>flushed</title>
    <desc>Created with Sketch.</desc>
    <defs>
        <path d="M12,2.31249995 C6.64843747,2.31249995 2.31249995,6.64843747 2.31249995,12 C2.31249995,17.3515625 6.64843747,21.6875 12,21.6875 C17.3515625,21.6875 21.6875,17.3515625 21.6875,12 C21.6875,6.64843747 17.3515625,2.31249995 12,2.31249995 Z M12,19.8125 C7.69140623,19.8125 4.18749996,16.3085938 4.18749996,12 C4.18749996,7.69140623 7.69140623,4.18749996 12,4.18749996 C16.3085938,4.18749996 19.8125,7.69140623 19.8125,12 C19.8125,16.3085938 16.3085938,19.8125 12,19.8125 Z M15.75,7.62499998 C14.0234375,7.62499998 12.625,9.02343749 12.625,10.75 C12.625,12.4765625 14.0234375,13.875 15.75,13.875 C17.4765625,13.875 18.875,12.4765625 18.875,10.75 C18.875,9.02343749 17.4765625,7.62499998 15.75,7.62499998 Z M15.75,12.625 C14.7148438,12.625 13.875,11.7851562 13.875,10.75 C13.875,9.71484374 14.7148438,8.87499998 15.75,8.87499998 C16.7851563,8.87499998 17.625,9.71484374 17.625,10.75 C17.625,11.7851562 16.7851563,12.625 15.75,12.625 Z M15.75,9.81249999 C15.2304688,9.81249999 14.8125,10.2304687 14.8125,10.75 C14.8125,11.2695312 15.2304688,11.6875 15.75,11.6875 C16.2695313,11.6875 16.6875,11.2695312 16.6875,10.75 C16.6875,10.2304687 16.2695313,9.81249999 15.75,9.81249999 Z M11.375,10.75 C11.375,9.02343749 9.97656249,7.62499998 8.24999998,7.62499998 C6.52343747,7.62499998 5.12499997,9.02343749 5.12499997,10.75 C5.12499997,12.4765625 6.52343747,13.875 8.24999998,13.875 C9.97656249,13.875 11.375,12.4765625 11.375,10.75 Z M8.24999998,12.625 C7.21484373,12.625 6.37499997,11.7851562 6.37499997,10.75 C6.37499997,9.71484374 7.21484373,8.87499998 8.24999998,8.87499998 C9.28515624,8.87499998 10.125,9.71484374 10.125,10.75 C10.125,11.7851562 9.28515624,12.625 8.24999998,12.625 Z M8.24999998,9.81249999 C7.73046873,9.81249999 7.31249998,10.2304687 7.31249998,10.75 C7.31249998,11.2695312 7.73046873,11.6875 8.24999998,11.6875 C8.76953123,11.6875 9.18749999,11.2695312 9.18749999,10.75 C9.18749999,10.2304687 8.76953123,9.81249999 8.24999998,9.81249999 Z M14.5,15.4375 L9.49999999,15.4375 C8.98437498,15.4375 8.56249998,15.859375 8.56249998,16.375 C8.56249998,16.890625 8.98437498,17.3125 9.49999999,17.3125 L14.5,17.3125 C15.015625,17.3125 15.4375,16.890625 15.4375,16.375 C15.4375,15.859375 15.015625,15.4375 14.5,15.4375 Z" id="path-1"></path>
    </defs>
    <g id="flushed" stroke="none" stroke-width="1" fill="none" fill-rule="evenodd">
        <mask id="mask-2" fill="white">
            <use xlink:href="#path-1"></use>
        </mask>
        <g fill-rule="nonzero"></g>
        <g id="🎨-color" mask="url(#mask-2)" fill="#000000">
            <rect id="🎨-Color" x="0" y="0" width="24" height="24"></rect>
        </g>
    </g>
</svg>