<?xml version="1.0" encoding="UTF-8"?>
<svg width="24px" height="24px" viewBox="0 0 24 24" version="1.1" xmlns="http://www.w3.org/2000/svg" xmlns:xlink="http://www.w3.org/1999/xlink">
    <!-- Generator: Sketch 52.5 (67469) - http://www.bohemiancoding.com/sketch -->
    <title>fly</title>
    <desc>Created with Sketch.</desc>
    <defs>
        <path d="M12.2256809,18.6848249 C12.7276265,19.1400779 13.536965,19.9805448 13.5175097,20.6575876 C13.5175097,20.688716 13.5136187,20.7198444 13.5136187,20.7548639 C13.4435798,21.5252919 12.7821012,21.9649806 11.9922179,21.9610895 C11.0194552,21.9571985 10.4396887,21.307393 10.4863813,20.5680934 C10.5252918,19.9377432 11.2840467,19.1400779 11.7470817,18.7159533 C11.8365759,18.6342413 11.8521401,18.610895 11.9649805,18.5758755 C12.0972763,18.5758755 12.1167315,18.5875487 12.2256809,18.6848249 Z M17.4435798,4.65758751 C16.8093385,3.65758751 15.9416343,3.07782097 14.9805448,2.63035015 C13.9883269,2.21400773 12.8560311,2.03112835 12,2.03891046 C10.2840467,2.03891046 9.22957197,2.55252914 8.84435796,2.71206221 C6.75875484,3.79766533 5.56031125,5.43190658 5.61867701,8.21011671 C5.8949416,11.4085603 9.3929961,15.0583658 11.6809339,17.307393 C11.7470817,17.3696498 11.8560311,17.4824903 11.922179,17.5058366 L12.0505837,17.5097277 C12.1322957,17.4824903 12.1206226,17.4902724 12.1867704,17.4280156 C14.2217899,15.5136187 17.6614786,11.7548638 18.2529183,9.03501944 C18.5252919,7.5097276 18.3735409,6.21400775 17.4435798,4.65758751 Z M11.7976654,15.7315175 C10.7081712,13.7431907 9.26070038,10.6459144 9.1011673,8.37743189 C8.96887158,6.52918285 9.54474707,3.2723735 11.7976654,3.05836571 L11.7976654,15.7315175 Z M17.3190662,9.04280154 C16.6809339,11.2529183 14.3112841,14.0233463 12.692607,15.6692607 C13.7743191,13.6498055 15.229572,10.4824903 15.307393,8.20233461 C15.3696498,6.41634238 14.9260701,4.08560307 13.4396887,3.08949412 C16.8949417,3.80155638 17.9338522,6.90661476 17.3190662,9.04280154 Z" id="path-1"></path>
    </defs>
    <g id="fly" stroke="none" stroke-width="1" fill="none" fill-rule="evenodd">
        <mask id="mask-2" fill="white">
            <use xlink:href="#path-1"></use>
        </mask>
        <g fill-rule="nonzero"></g>
        <g id="🎨-color" mask="url(#mask-2)" fill="#000000">
            <rect id="🎨-Color" x="0" y="0" width="24" height="24"></rect>
        </g>
    </g>
</svg>