<?xml version="1.0" encoding="UTF-8"?>
<svg width="24px" height="24px" viewBox="0 0 24 24" version="1.1" xmlns="http://www.w3.org/2000/svg" xmlns:xlink="http://www.w3.org/1999/xlink">
    <!-- Generator: Sketch 52.5 (67469) - http://www.bohemiancoding.com/sketch -->
    <title>folder</title>
    <desc>Created with Sketch.</desc>
    <defs>
        <path d="M20.125,6.99999997 L12.625,6.99999997 L10.4910156,4.86601559 C10.2566406,4.63164059 9.93867186,4.49999996 9.60703124,4.49999996 L3.87499996,4.49999996 C2.83945308,4.49999996 1.99999995,5.33945309 1.99999995,6.37499997 L1.99999995,17.625 C1.99999995,18.6605469 2.83945308,19.5 3.87499996,19.5 L20.125,19.5 C21.1605469,19.5 22.0000001,18.6605469 22.0000001,17.625 L22.0000001,8.87499998 C22.0000001,7.8394531 21.1605469,6.99999997 20.125,6.99999997 Z M20.125,17.625 L3.87499996,17.625 L3.87499996,6.37499997 L9.34843749,6.37499997 L11.4824219,8.50898436 C11.7167969,8.74335936 12.0347656,8.87499998 12.3664063,8.87499998 L20.125,8.87499998 L20.125,17.625 Z" id="path-1"></path>
    </defs>
    <g id="folder" stroke="none" stroke-width="1" fill="none" fill-rule="evenodd">
        <mask id="mask-2" fill="white">
            <use xlink:href="#path-1"></use>
        </mask>
        <g fill-rule="nonzero"></g>
        <g id="🎨-color" mask="url(#mask-2)" fill="#000000">
            <rect id="🎨-Color" x="0" y="0" width="24" height="24"></rect>
        </g>
    </g>
</svg>