<?xml version="1.0" encoding="UTF-8"?>
<svg width="24px" height="24px" viewBox="0 0 24 24" version="1.1" xmlns="http://www.w3.org/2000/svg" xmlns:xlink="http://www.w3.org/1999/xlink">
    <!-- Generator: Sketch 52.5 (67469) - http://www.bohemiancoding.com/sketch -->
    <title>folder-open</title>
    <desc>Created with Sketch.</desc>
    <defs>
        <path d="M20.3313542,10.8888889 L18.6666667,10.8888889 L18.6666667,9.22222221 C18.6666667,8.30173609 17.9204861,7.55555553 17,7.55555553 L11.4444444,7.55555553 L9.22222221,5.3333333 L3.66666662,5.3333333 C2.74618051,5.3333333 1.99999995,6.07951386 1.99999995,6.99999997 L1.99999995,17 C1.99999995,17.9204861 2.74618051,18.6666667 3.66666662,18.6666667 L17.5555556,18.6666667 C18.1302046,18.6666614 18.6643193,18.3706308 18.9688889,17.8833334 L21.7446528,13.4388889 C22.4372917,12.3306597 21.6391667,10.8888889 20.3313542,10.8888889 Z M3.87499996,6.99999997 L8.53187498,6.99999997 L10.7540972,9.22222221 L16.7916667,9.22222221 C16.906726,9.22222221 17,9.31549622 17,9.43055554 L17,10.8888889 L7.27777775,10.8888889 C6.69381782,10.8888909 6.15245216,11.1945205 5.85076386,11.6945139 L3.66666662,15.3142014 L3.66666662,7.20809025 C3.66666659,7.15285914 3.68862368,7.0998937 3.72770076,7.06086221 C3.76677785,7.02183072 3.81976889,6.99993546 3.87499996,6.99999997 Z M17.5555556,17 L4.49999996,17 L7.18173609,12.5555556 L20.3333334,12.5555556 L17.5555556,17 Z" id="path-1"></path>
    </defs>
    <g id="folder-open" stroke="none" stroke-width="1" fill="none" fill-rule="evenodd">
        <mask id="mask-2" fill="white">
            <use xlink:href="#path-1"></use>
        </mask>
        <g fill-rule="nonzero"></g>
        <g id="🎨-color" mask="url(#mask-2)" fill="#000000">
            <rect id="🎨-Color" x="0" y="0" width="24" height="24"></rect>
        </g>
    </g>
</svg>