<?xml version="1.0" encoding="UTF-8"?>
<svg width="24px" height="24px" viewBox="0 0 24 24" version="1.1" xmlns="http://www.w3.org/2000/svg" xmlns:xlink="http://www.w3.org/1999/xlink">
    <!-- Generator: Sketch 52.5 (67469) - http://www.bohemiancoding.com/sketch -->
    <title>font-awesome</title>
    <desc>Created with Sketch.</desc>
    <defs>
        <path d="M18.7890625,3.24999996 L5.21093747,3.24999996 C4.13671871,3.24999996 3.24999996,4.13671871 3.24999996,5.21093747 L3.24999996,18.7890625 C3.24999996,19.8632813 4.13671871,20.75 5.21093747,20.75 L18.7890625,20.75 C19.8632813,20.75 20.75,19.8632813 20.75,18.7890625 L20.75,5.21093747 C20.75,4.13671871 19.8632813,3.24999996 18.7890625,3.24999996 Z M17.015625,14.3554688 C17.015625,14.5195313 16.875,14.5898438 16.7109375,14.6601563 C16.0585938,14.9414063 15.359375,15.1953125 14.609375,15.1953125 C13.5585938,15.1953125 13.0703125,14.5429688 11.8085937,14.5429688 C10.8984375,14.5429688 9.94140624,14.8710938 9.17187499,15.21875 C9.12499999,15.2421875 9.07812499,15.2421875 9.03124999,15.265625 L9.03124999,17.0390625 C9.03124999,17.109375 9.03124999,17.1796875 9.00781249,17.2265625 L9.00781249,17.2734375 C8.91406248,17.6015625 8.60937498,17.8320313 8.26171873,17.8320313 C7.82031248,17.8320313 7.46874998,17.4804688 7.46874998,17.0390625 L7.46874998,8.49999998 C7.16406248,8.26562498 6.95703122,7.89453123 6.95703122,7.47265623 C6.95703122,6.74999997 7.53906248,6.16406247 8.26562498,6.16406247 C8.98828123,6.16406247 9.57421874,6.74609372 9.57421874,7.47265623 C9.57421874,7.89453123 9.38671874,8.26562498 9.06249999,8.49999998 L9.06249999,9.22265624 C9.13281249,9.19921874 9.20312499,9.17578124 9.27343749,9.12890624 C9.99609374,8.82421873 10.859375,8.57031248 11.6757812,8.57031248 C12.5625,8.57031248 13.2617188,8.80468748 14.0546875,9.10546874 C14.21875,9.17578124 14.3828125,9.19921874 14.5664063,9.19921874 C15.453125,9.19921874 16.4335938,8.57031248 16.6679688,8.57031248 C16.8554688,8.57031248 17.0195313,8.71093748 17.0195313,8.87499998 L17.0195313,14.3554688 L17.015625,14.3554688 Z" id="path-1"></path>
    </defs>
    <g id="font-awesome" stroke="none" stroke-width="1" fill="none" fill-rule="evenodd">
        <mask id="mask-2" fill="white">
            <use xlink:href="#path-1"></use>
        </mask>
        <g fill-rule="nonzero"></g>
        <g id="🎨-color" mask="url(#mask-2)" fill="#000000">
            <rect id="🎨-Color" x="0" y="0" width="24" height="24"></rect>
        </g>
    </g>
</svg>