<?xml version="1.0" encoding="UTF-8"?>
<svg width="24px" height="24px" viewBox="0 0 24 24" version="1.1" xmlns="http://www.w3.org/2000/svg" xmlns:xlink="http://www.w3.org/1999/xlink">
    <!-- Generator: Sketch 52.5 (67469) - http://www.bohemiancoding.com/sketch -->
    <title>fonticons</title>
    <desc>Created with Sketch.</desc>
    <defs>
        <path d="M3.24999996,3.24999996 L3.24999996,20.75 L20.75,20.75 L20.75,3.24999996 L3.24999996,3.24999996 Z M9.78906249,10.90625 L12.421875,10.90625 L11.9882812,12.3632813 L9.81249999,12.3632813 L9.81249999,16.7734375 C9.81249999,17 9.73437499,17.0351563 9.93749999,17.0585938 L11.6367187,17.21875 L11.6367187,18.1992188 L6.53124997,18.1992188 L6.53124997,17.1953125 L7.36328123,17.1171875 C7.56640623,17.09375 7.62499998,17.0273438 7.62499998,16.8085938 L7.62499998,12.4570313 C7.62499998,12.3671875 7.51171873,12.3671875 7.39843748,12.3671875 L6.53124997,12.3671875 L6.53124997,10.90625 L7.62499998,10.90625 L7.62499998,10.0859375 C7.62499998,8.14843748 8.66015623,7.35156248 10.6445312,7.35156248 C11.9765625,7.35156248 13.171875,7.67187498 13.171875,9.41406249 L11.1914062,9.65234374 C11.203125,8.92187498 11.0195312,8.75390623 10.5546875,8.75390623 C9.83593749,8.75390623 9.81249999,9.14062499 9.81249999,9.82421874 L9.81249999,10.734375 C9.81249999,10.828125 9.67578124,10.90625 9.78906249,10.90625 Z M17.46875,18.1992188 L13.4570313,18.1992188 L13.4570313,17.21875 L14.2539063,17.1171875 C14.4570313,17.09375 14.5507813,17.0507813 14.5507813,16.8320313 L14.5507813,12.6171875 C14.5507813,12.4570313 14.4375,12.3554688 14.2890625,12.3085938 L13.34375,12.0585938 L13.6054688,10.90625 L16.7382813,10.90625 L16.7382813,16.8320313 C16.7382813,17.0585938 16.6367188,17.0820313 16.8515625,17.1171875 L17.4648438,17.21875 L17.4648438,18.1992188 L17.46875,18.1992188 Z M16.6132813,8.21874998 L16.9648438,9.51562499 L16.6796875,9.80078124 L15.4609375,9.15234374 L14.2421875,9.80078124 L13.9570313,9.51562499 L14.3085938,8.21874998 L13.4570313,7.27343748 L13.59375,6.89843747 L14.6757813,6.89843747 L15.28125,5.80468747 L15.6445313,5.80468747 L16.25,6.89843747 L17.3320313,6.89843747 L17.46875,7.27343748 L16.6132813,8.21874998 Z" id="path-1"></path>
    </defs>
    <g id="fonticons" stroke="none" stroke-width="1" fill="none" fill-rule="evenodd">
        <mask id="mask-2" fill="white">
            <use xlink:href="#path-1"></use>
        </mask>
        <g fill-rule="nonzero"></g>
        <g id="🎨-color" mask="url(#mask-2)" fill="#000000">
            <rect id="🎨-Color" x="0" y="0" width="24" height="24"></rect>
        </g>
    </g>
</svg>