<?xml version="1.0" encoding="UTF-8"?>
<svg width="24px" height="24px" viewBox="0 0 24 24" version="1.1" xmlns="http://www.w3.org/2000/svg" xmlns:xlink="http://www.w3.org/1999/xlink">
    <!-- Generator: Sketch 52.5 (67469) - http://www.bohemiancoding.com/sketch -->
    <title>font-awesome-alt</title>
    <desc>Created with Sketch.</desc>
    <defs>
        <path d="M18.7890625,4.64843746 C19.09375,4.64843746 19.3476563,4.90624996 19.3476563,5.20703122 L19.3476563,18.7851563 C19.3476563,19.0898438 19.0898438,19.34375 18.7890625,19.34375 L5.21093747,19.34375 C4.90624996,19.34375 4.65234371,19.0859375 4.65234371,18.7851563 L4.65234371,5.21093747 C4.65234371,4.90624996 4.91015621,4.65234371 5.21093747,4.65234371 L18.7890625,4.65234371 L18.7890625,4.64843746 Z M18.7890625,3.24999996 L5.21093747,3.24999996 C4.13671871,3.24999996 3.24999996,4.13671871 3.24999996,5.21093747 L3.24999996,18.7890625 C3.24999996,19.8632813 4.13671871,20.75 5.21093747,20.75 L18.7890625,20.75 C19.8632813,20.75 20.75,19.8632813 20.75,18.7890625 L20.75,5.21093747 C20.75,4.13671871 19.8632813,3.24999996 18.7890625,3.24999996 Z M16.5039063,8.68749998 C16.2695313,8.68749998 15.3359375,9.29296874 14.4492188,9.29296874 C14.2851563,9.29296874 14.1210938,9.26953124 13.9609375,9.19921874 C13.1914063,8.89453123 12.515625,8.66406248 11.6523437,8.66406248 C10.859375,8.66406248 10.0195312,8.92187498 9.32031249,9.19921874 C9.24999999,9.22265624 9.17968749,9.24609374 9.13281249,9.26953124 L9.13281249,8.57031248 C9.43749999,8.33593748 9.62109374,7.98828123 9.62109374,7.56640623 C9.62109374,6.86718747 9.06249999,6.30468747 8.35937498,6.30468747 C7.65624998,6.30468747 7.09765623,6.86328122 7.09765623,7.56640623 C7.09765623,7.96484373 7.28515623,8.33593748 7.58593748,8.57031248 L7.58593748,16.8554688 C7.58593748,17.2773438 7.93749998,17.625 8.35546873,17.625 C8.70703123,17.625 8.98437498,17.390625 9.07812499,17.0898438 L9.07812499,17.0390625 C9.10156249,16.96875 9.10156249,16.921875 9.10156249,16.8515625 L9.10156249,15.125 C9.14843749,15.125 9.19531249,15.1015625 9.21874999,15.078125 C9.98828124,14.75 10.8984375,14.4257813 11.7851562,14.4257813 C13,14.4257813 13.4648438,15.0546875 14.4921875,15.0546875 C15.2148438,15.0546875 15.9140625,14.796875 16.5234375,14.5195313 C16.6875,14.4492188 16.8046875,14.3789063 16.8046875,14.2148438 L16.8046875,8.96484373 C16.875,8.80468748 16.7148438,8.68749998 16.5039063,8.68749998 Z" id="path-1"></path>
    </defs>
    <g id="font-awesome-alt" stroke="none" stroke-width="1" fill="none" fill-rule="evenodd">
        <mask id="mask-2" fill="white">
            <use xlink:href="#path-1"></use>
        </mask>
        <g fill-rule="nonzero"></g>
        <g id="🎨-color" mask="url(#mask-2)" fill="#000000">
            <rect id="🎨-Color" x="0" y="0" width="24" height="24"></rect>
        </g>
    </g>
</svg>