<?xml version="1.0" encoding="UTF-8"?>
<svg width="24px" height="24px" viewBox="0 0 24 24" version="1.1" xmlns="http://www.w3.org/2000/svg" xmlns:xlink="http://www.w3.org/1999/xlink">
    <!-- Generator: Sketch 52.5 (67469) - http://www.bohemiancoding.com/sketch -->
    <title>fonticons-fi</title>
    <desc>Created with Sketch.</desc>
    <defs>
        <path d="M8.96874998,10.75 L12.578125,10.75 L11.984375,12.75 L8.99999999,12.75 L8.99999999,18.9140625 C8.99999999,19.2265625 8.89062498,19.2734375 9.17187499,19.3046875 L11.5,19.5234375 L11.5,20.8671875 L4.49999996,20.8671875 L4.49999996,19.4921875 L5.64062497,19.3828125 C5.92187497,19.3515625 5.99999997,19.2578125 5.99999997,18.9609375 L5.99999997,12.875 C5.99999997,12.75 5.84374997,12.75 5.68749997,12.75 L4.49999996,12.75 L4.49999996,10.75 L5.99999997,10.75 L5.99999997,9.62499999 C5.99999997,6.96874997 7.42187498,5.87499997 10.140625,5.87499997 C11.96875,5.87499997 13.609375,6.31249997 13.609375,8.70312498 L10.890625,9.03124999 C10.90625,8.03124998 10.65625,7.79687498 10.015625,7.79687498 C9.03124999,7.79687498 8.99999998,8.32812498 8.99999998,9.26562499 L8.99999998,10.515625 C8.99999998,10.640625 8.81249998,10.75 8.96874998,10.75 Z M19.5,20.8671875 L14,20.8671875 L14,19.5234375 L15.09375,19.3828125 C15.375,19.3515625 15.5,19.2890625 15.5,18.9921875 L15.5,13.2109375 C15.5,12.9921875 15.34375,12.8515625 15.140625,12.7890625 L13.84375,12.4453125 L14.203125,10.8671875 L18.5,10.8671875 L18.5,18.9921875 C18.5,19.3046875 18.359375,19.3359375 18.65625,19.3828125 L19.5,19.5234375 L19.5,20.8671875 Z M18.328125,7.30468748 L18.8125,9.08593749 L18.421875,9.47656249 L16.75,8.58593748 L15.078125,9.47656249 L14.6875,9.08593749 L15.171875,7.30468748 L14,5.88281247 L14.1875,5.49218747 L15.671875,5.49218747 L16.5,3.99218746 L17,3.99218746 L17.828125,5.49218747 L19.3125,5.49218747 L19.5,6.00781247 L18.328125,7.30468748 Z" id="path-1"></path>
    </defs>
    <g id="fonticons-fi" stroke="none" stroke-width="1" fill="none" fill-rule="evenodd">
        <mask id="mask-2" fill="white">
            <use xlink:href="#path-1"></use>
        </mask>
        <g fill-rule="nonzero"></g>
        <g id="🎨-color" mask="url(#mask-2)" fill="#000000">
            <rect id="🎨-Color" x="0" y="0" width="24" height="24"></rect>
        </g>
    </g>
</svg>