<?xml version="1.0" encoding="UTF-8"?>
<svg width="24px" height="24px" viewBox="0 0 24 24" version="1.1" xmlns="http://www.w3.org/2000/svg" xmlns:xlink="http://www.w3.org/1999/xlink">
    <!-- Generator: Sketch 52.5 (67469) - http://www.bohemiancoding.com/sketch -->
    <title>font-awesome-logo-full</title>
    <desc>Created with Sketch.</desc>
    <defs>
        <path d="M4.27755507,10.7174349 L2.2875751,10.7174349 C2.12975947,10.7174349 1.99999995,10.8471944 1.99999995,11.00501 L1.99999995,12.995491 C1.99999995,13.1528056 2.12975947,13.2825651 2.2875751,13.2825651 L4.27805607,13.2825651 C4.4353707,13.2825651 4.56563123,13.1528056 4.56563123,12.99499 L4.56563123,11.00501 C4.56513022,10.8471944 4.4353707,10.7174349 4.27755507,10.7174349 Z M3.98246489,12.3451904 C3.98246489,12.3692385 3.96192381,12.3797595 3.93787571,12.3897796 C3.84168333,12.4303607 3.73897791,12.4684369 3.62975948,12.4684369 C3.42685366,12.4684369 3.2855711,12.243988 2.8121242,12.4809619 L2.8121242,12.740481 C2.8121242,12.8922846 2.58316629,12.8917836 2.58316629,12.740481 L2.58316629,11.4879759 C2.5380761,11.4529058 2.50801598,11.3982966 2.50801598,11.3361723 C2.50801598,11.2309619 2.59368733,11.1447896 2.69939875,11.1447896 C2.80460917,11.1447896 2.89078152,11.2304609 2.89078152,11.3361723 C2.89078152,11.3972946 2.8617234,11.4524048 2.81613222,11.4874749 L2.81613222,11.5926854 C3.00200396,11.5325651 3.14428853,11.4203407 3.54809615,11.5756513 C3.68136268,11.6327655 3.89228453,11.496994 3.93136269,11.496994 C3.9589178,11.496994 3.98296589,11.5175351 3.98296589,11.5415832 L3.98296589,12.3451904 L3.98246489,12.3451904 Z M6.15130258,11.4724449 L5.46492983,11.4724449 L5.46492983,11.8236473 L6.1332665,11.8236473 C6.3326653,11.8236473 6.33567131,12.1352705 6.1332665,12.1352705 L5.46492983,12.1352705 L5.46492983,12.6643287 C5.46492983,12.8922846 5.11072141,12.8967936 5.11072141,12.6643287 L5.11072141,11.3602204 C5.11072141,11.25 5.20090177,11.1608216 5.31012021,11.1608216 L6.15080157,11.1608216 C6.34919837,11.1608216 6.35370739,11.4724449 6.15130258,11.4724449 Z M7.10871741,11.5896794 C6.26052101,11.5896794 6.26152302,12.8542084 7.10871741,12.8542084 C7.95991982,12.8542084 7.95991982,11.5896794 7.10871741,11.5896794 Z M7.10871741,12.5721443 C6.69989977,12.5721443 6.69739476,11.8717435 7.10871741,11.8717435 C7.52204407,11.8717435 7.52154306,12.5721443 7.10871741,12.5721443 Z M8.97444888,12.8396794 C8.88677353,12.8396794 8.81713425,12.7700401 8.81713425,12.6823647 L8.81713425,12.0961924 C8.81713425,11.7835671 8.4534068,11.8331663 8.32064126,12.0140281 L8.32064126,12.6823647 C8.32064126,12.8902806 8.00350699,12.8917836 8.00350699,12.6823647 L8.00350699,11.759519 C8.00350699,11.5591182 8.31963926,11.5511022 8.31963926,11.759519 L8.31963926,11.7765531 C8.53657313,11.5180361 9.13326652,11.4739479 9.13326652,11.9734469 L9.13326652,12.6823647 C9.13476952,12.8346693 8.97545089,12.8396794 8.97444888,12.8396794 Z M9.87474949,12.8542084 C9.6528056,12.8542084 9.53256512,12.739479 9.53256512,12.5245491 L9.53256512,11.8957916 L9.45490981,11.8957916 C9.27655309,11.8957916 9.27104207,11.6187375 9.45490981,11.6187375 L9.53256512,11.6187375 L9.53256512,11.4318637 C9.53256512,11.2249499 9.8522044,11.2209419 9.8522044,11.4318637 L9.8522044,11.6197395 L9.9769539,11.6197395 C10.1543086,11.6197395 10.1558116,11.8967936 9.9769539,11.8967936 L9.8522044,11.8967936 L9.8522044,12.4403808 C9.8522044,12.5886774 9.98296592,12.5721443 9.98947895,12.5721443 C10.1467936,12.5721443 10.253006,12.8542084 9.87474949,12.8542084 Z M11.9799599,11.3336673 C11.8822645,11.0821643 11.501503,11.0831663 11.4063126,11.3336673 C10.8687375,12.7149299 10.9078156,12.5996994 10.9078156,12.6503006 C10.9078156,12.8647295 11.1998998,12.9068136 11.2690381,12.7224449 L11.3366733,12.5425852 L12.0501002,12.5425852 L12.1152305,12.7224449 C12.1863727,12.9113226 12.4764529,12.8587174 12.4764529,12.6503006 C12.4764529,12.5996994 12.503006,12.6843687 11.9799599,11.3336673 Z M11.4343687,12.2309619 L11.6933868,11.5150301 L11.9529058,12.2309619 L11.4343687,12.2309619 Z M14.3967936,11.8021042 L14.1277555,12.6853707 C14.0656313,12.8917836 13.7670341,12.8907816 13.7069138,12.6853707 L13.49499,12.004509 L13.2830661,12.6853707 C13.2209419,12.8902806 12.9223447,12.8917836 12.8597194,12.6853707 L12.5881764,11.8021042 C12.5255511,11.6047094 12.8376754,11.5210421 12.8897796,11.7174349 L13.0871744,12.4308617 L13.3141283,11.7319639 C13.3687375,11.5681363 13.6127255,11.5581162 13.6708417,11.7319639 L13.8977956,12.4308617 L14.0946894,11.7174349 C14.1462926,11.5255511 14.4584168,11.5981964 14.3967936,11.8021042 Z M15.7765531,12.1783567 C15.7765531,11.9659319 15.6067134,11.5896794 15.1778557,11.5896794 C14.8111223,11.5896794 14.5546092,11.8717435 14.5546092,12.2209419 C14.5546092,12.6077154 14.8316633,12.8542084 15.1983968,12.8542084 C15.3572144,12.8542084 15.6643287,12.7965932 15.6643287,12.6548096 C15.6643287,12.5631263 15.5586173,12.496994 15.4674349,12.5425852 C15.2199399,12.6738477 14.9213427,12.5846693 14.8867736,12.3231463 L15.6297595,12.3231463 C15.7114229,12.3231463 15.7765531,12.256012 15.7765531,12.1783567 Z M14.8807615,12.1087174 C14.9283567,11.740982 15.4514028,11.7650301 15.4749499,12.1087174 L14.8807615,12.1087174 Z M16.4674349,12.8542084 C16.3101203,12.8542084 16.0586173,12.8016032 15.983467,12.6943888 C15.9213427,12.6092184 15.995992,12.49499 16.0926854,12.49499 C16.1743487,12.49499 16.2770541,12.6097194 16.481964,12.6097194 C16.6192385,12.6097194 16.6843688,12.5546092 16.6843688,12.4804609 C16.6843688,12.2810621 15.9684369,12.4433868 15.9684369,11.9694389 C15.9684369,11.7670341 16.1452906,11.5901804 16.4624249,11.5901804 C16.6197395,11.5901804 16.8336674,11.6397796 16.9013026,11.7374749 C16.9554108,11.8116232 16.8942886,11.9188377 16.7965932,11.9188377 C16.7209419,11.9188377 16.6628257,11.8321643 16.4649299,11.8321643 C16.3502004,11.8321643 16.2755511,11.8847695 16.2755511,11.9514028 C16.2755511,12.1312625 16.988978,11.9814629 16.988978,12.4679359 C16.988477,12.6868738 16.8016032,12.8542084 16.4674349,12.8542084 Z M17.8041082,11.5896794 C16.9559118,11.5896794 16.9569139,12.8542084 17.8041082,12.8542084 C18.6563127,12.8542084 18.6538076,11.5896794 17.8041082,11.5896794 Z M17.8041082,12.5721443 C17.3942886,12.5721443 17.3932866,11.8717435 17.8041082,11.8717435 C18.2174349,11.8717435 18.2169339,12.5721443 17.8041082,12.5721443 Z M20.1933868,12.6823647 L20.1933868,12.0636273 C20.1933868,11.7940882 19.8857716,11.8341683 19.7640281,12.011022 L19.7640281,12.6823647 C19.7640281,12.8892786 19.4443888,12.8932866 19.4443888,12.6823647 L19.4443888,12.0636273 C19.4443888,11.8026052 19.1462926,11.8261523 19.0150301,12.0130261 L19.0150301,12.6823647 C19.0150301,12.8902806 18.6978958,12.8917836 18.6978958,12.6823647 L18.6978958,11.759519 C18.6978958,11.5591182 19.0140281,11.5511022 19.0140281,11.759519 L19.0140281,11.7765531 C19.0636273,11.7044088 19.2234469,11.5896794 19.4078157,11.5896794 C19.5846694,11.5896794 19.6968938,11.6718437 19.741984,11.8091182 C19.8116233,11.6998998 19.9714429,11.5896794 20.1558117,11.5896794 C20.3777556,11.5896794 20.5100201,11.7069138 20.5100201,11.9539078 L20.5100201,12.6818637 C20.5125251,12.7685371 20.4423848,12.8391784 20.3502004,12.8391784 C20.3677355,12.8396794 20.1933868,12.8446894 20.1933868,12.6823647 Z M22.0000001,12.1783567 C22.0000001,11.9659319 21.8376754,11.5896794 21.4093187,11.5896794 C21.0425852,11.5896794 20.7705411,11.8717435 20.7705411,12.2209419 C20.7705411,12.6077154 21.0626253,12.8542084 21.4298598,12.8542084 C21.5886774,12.8542084 21.8882766,12.7965932 21.8882766,12.6548096 C21.8882766,12.5631263 21.7825652,12.496994 21.6913828,12.5425852 C21.4438878,12.6738477 21.1377756,12.5846693 21.1027055,12.3231463 L21.8532065,12.3231463 C21.9348698,12.3231463 21.998998,12.256012 22.0000001,12.1783567 Z M21.0956914,12.1087174 C21.1442886,11.7359719 21.6763528,11.7665331 21.6973948,12.1087174 L21.0956914,12.1087174 Z" id="path-1"></path>
    </defs>
    <g id="font-awesome-logo-full" stroke="none" stroke-width="1" fill="none" fill-rule="evenodd">
        <mask id="mask-2" fill="white">
            <use xlink:href="#path-1"></use>
        </mask>
        <g fill-rule="nonzero"></g>
        <g id="🎨-color" mask="url(#mask-2)" fill="#000000">
            <rect id="🎨-Color" x="0" y="0" width="24" height="24"></rect>
        </g>
    </g>
</svg>