<?xml version="1.0" encoding="UTF-8"?>
<svg width="24px" height="24px" viewBox="0 0 24 24" version="1.1" xmlns="http://www.w3.org/2000/svg" xmlns:xlink="http://www.w3.org/1999/xlink">
    <!-- Generator: Sketch 52.5 (67469) - http://www.bohemiancoding.com/sketch -->
    <title>font-awesome-flag</title>
    <desc>Created with Sketch.</desc>
    <defs>
        <path d="M20.6083204,16.04 C20.6083204,16.32 20.3683204,16.44 20.0883204,16.56 C18.9683203,17.04 17.7683203,17.48 16.4883203,17.48 C14.6883203,17.48 13.8483203,16.36 11.6883203,16.36 C10.1283203,16.36 8.48832029,16.92 7.16832029,17.52 C7.08832029,17.56 7.00832029,17.56 6.92832029,17.6 L6.92832029,20.64 C6.92832029,21.4761329 6.29855466,22.0000001 5.60832028,22.0000001 C4.84832028,22.0000001 4.24832027,21.4 4.24832027,20.64 L4.24832027,5.99999997 C3.72832027,5.59999997 3.36832027,4.95999996 3.36832027,4.23999996 C3.36832027,2.99999995 4.36832027,1.99999995 5.60832028,1.99999995 C6.84832029,1.99999995 7.84832029,2.99999995 7.84832029,4.23999996 C7.84832029,4.95999996 7.52832029,5.59999997 6.96832029,5.99999997 L6.96832029,7.23999998 C7.12941404,7.1863281 9.2639453,6.11999997 11.4483203,6.11999997 C13.9979297,6.11999997 15.2637891,7.19999998 16.4083203,7.19999998 C17.9283203,7.19999998 19.6083204,6.11999997 20.0083204,6.11999997 C20.3283204,6.11999997 20.6083204,6.35999997 20.6083204,6.63999997 L20.6083204,16.04 Z" id="path-1"></path>
    </defs>
    <g id="font-awesome-flag" stroke="none" stroke-width="1" fill="none" fill-rule="evenodd">
        <mask id="mask-2" fill="white">
            <use xlink:href="#path-1"></use>
        </mask>
        <g></g>
        <g id="🎨-color" mask="url(#mask-2)" fill="#000000">
            <rect id="🎨-Color" x="0" y="0" width="24" height="24"></rect>
        </g>
    </g>
</svg>