<?xml version="1.0" encoding="UTF-8"?>
<svg width="24px" height="24px" viewBox="0 0 24 24" version="1.1" xmlns="http://www.w3.org/2000/svg" xmlns:xlink="http://www.w3.org/1999/xlink">
    <!-- Generator: Sketch 52.5 (67469) - http://www.bohemiancoding.com/sketch -->
    <title>font</title>
    <desc>Created with Sketch.</desc>
    <defs>
        <path d="M9.18749999,18.25 L8.24949217,18.25 L9.2880078,15.0944531 L14.6875,15.0944531 L15.7260156,18.25 L14.8125,18.25 C14.4673047,18.25 14.1875,18.5298047 14.1875,18.875 L14.1875,20.125 C14.1875,20.4701954 14.4673047,20.75 14.8125,20.75 L20.125,20.75 C20.4701954,20.75 20.75,20.4701954 20.75,20.125 L20.75,18.875 C20.75,18.5298047 20.4701954,18.25 20.125,18.25 L19.0805078,18.25 L14.0115234,3.66976558 C13.9241515,3.41844649 13.6872454,3.24999595 13.4211719,3.24999996 L10.57875,3.24999996 C10.3126764,3.24999595 10.0757703,3.41844649 9.98839843,3.66976558 L4.91949215,18.25 L3.87499996,18.25 C3.52980465,18.25 3.24999996,18.5298047 3.24999996,18.875 L3.24999996,20.125 C3.24999996,20.4701954 3.52980465,20.75 3.87499996,20.75 L9.18749999,20.75 C9.5326953,20.75 9.81249999,20.4701954 9.81249999,20.125 L9.81249999,18.875 C9.81249999,18.5298047 9.5326953,18.25 9.18749999,18.25 Z M11.7012891,7.63367185 C11.8711328,7.03929685 11.9594922,6.5338281 11.9976172,6.2803906 C12.0303906,6.53511716 12.1124219,7.04117185 12.2994531,7.63609373 L13.9141016,12.4800781 L10.0617969,12.4800781 L11.7012891,7.63367185 Z" id="path-1"></path>
    </defs>
    <g id="font" stroke="none" stroke-width="1" fill="none" fill-rule="evenodd">
        <mask id="mask-2" fill="white">
            <use xlink:href="#path-1"></use>
        </mask>
        <g fill-rule="nonzero"></g>
        <g id="🎨-color" mask="url(#mask-2)" fill="#000000">
            <rect id="🎨-Color" x="0" y="0" width="24" height="24"></rect>
        </g>
    </g>
</svg>