<?xml version="1.0" encoding="UTF-8"?>
<svg width="24px" height="24px" viewBox="0 0 24 24" version="1.1" xmlns="http://www.w3.org/2000/svg" xmlns:xlink="http://www.w3.org/1999/xlink">
    <!-- Generator: Sketch 52.5 (67469) - http://www.bohemiancoding.com/sketch -->
    <title>football-ball</title>
    <desc>Created with Sketch.</desc>
    <defs>
        <path d="M21.1210938,4.35546871 C20.9335938,3.64453121 20.375,3.08593746 19.6640625,2.8945312 C18.7304688,2.6445312 17.2734375,2.3476562 15.5703125,2.31249995 L21.6875,8.43749998 C21.65625,6.73828122 21.3671875,5.28906247 21.1210938,4.35546871 Z M2.8789062,19.6445313 C3.06640621,20.3554688 3.62499996,20.9140625 4.33593746,21.1054688 C5.26953122,21.3554688 6.72656247,21.6523438 8.42968748,21.6875 L2.31249995,15.5625 C2.34374995,17.2617188 2.63281245,18.7109375 2.8789062,19.6445313 Z M2.47656245,13.0703125 L10.921875,21.53125 C16.0976563,20.7734375 20.640625,16.8945313 21.5273438,10.9296875 L13.078125,2.46874995 C7.90234373,3.22656246 3.35937496,7.10546873 2.47656245,13.0703125 Z M14.8710938,8.24218748 C14.9921875,8.12109373 15.1914063,8.12109373 15.3125,8.24218748 L15.7539063,8.68359373 C15.875,8.80468748 15.875,9.00390624 15.7539063,9.12499999 L14.6484375,10.2304687 L15.7539063,11.3359375 C15.875,11.4570312 15.875,11.65625 15.7539063,11.7773437 L15.3125,12.21875 C15.1914063,12.3398438 14.9921875,12.3398438 14.8710938,12.21875 L13.765625,11.1132812 L12.8828125,12 L13.9882813,13.1054688 C14.109375,13.2265625 14.109375,13.4257813 13.9882813,13.546875 L13.546875,13.9882813 C13.4257813,14.109375 13.2265625,14.109375 13.1054688,13.9882813 L12,12.8828125 L11.1171875,13.765625 L12.2226563,14.8710938 C12.34375,14.9921875 12.34375,15.1914063 12.2226563,15.3125 L11.78125,15.7539063 C11.6601562,15.875 11.4609375,15.875 11.3398437,15.7539063 L10.234375,14.6484375 L9.12890624,15.7539063 C9.00781249,15.875 8.80859373,15.875 8.68749998,15.7539063 L8.24609373,15.3125 C8.12499998,15.1914063 8.12499998,14.9921875 8.24609373,14.8710938 L9.35156249,13.765625 L8.24609373,12.6640625 C8.12499998,12.5429688 8.12499998,12.34375 8.24609373,12.2226563 L8.68749998,11.78125 C8.80859373,11.6601562 9.00781249,11.6601562 9.12890624,11.78125 L10.234375,12.8867188 L11.1171875,12.0039063 L10.0117187,10.8984375 C9.89062499,10.7773437 9.89062499,10.578125 10.0117187,10.4570312 L10.453125,10.015625 C10.5742187,9.89453124 10.7734375,9.89453124 10.8945312,10.015625 L12,11.1210937 L12.8828125,10.2382812 L11.7773437,9.13281249 C11.65625,9.01171874 11.65625,8.81249998 11.7773437,8.69140623 L12.21875,8.24999998 C12.3398438,8.12890623 12.5390625,8.12890623 12.6601563,8.24999998 L13.765625,9.35546874 L14.8710938,8.24218748 Z" id="path-1"></path>
    </defs>
    <g id="football-ball" stroke="none" stroke-width="1" fill="none" fill-rule="evenodd">
        <mask id="mask-2" fill="white">
            <use xlink:href="#path-1"></use>
        </mask>
        <g fill-rule="nonzero"></g>
        <g id="🎨-color" mask="url(#mask-2)" fill="#000000">
            <rect id="🎨-Color" x="0" y="0" width="24" height="24"></rect>
        </g>
    </g>
</svg>