<?xml version="1.0" encoding="UTF-8"?>
<svg width="24px" height="24px" viewBox="0 0 24 24" version="1.1" xmlns="http://www.w3.org/2000/svg" xmlns:xlink="http://www.w3.org/1999/xlink">
    <!-- Generator: Sketch 52.5 (67469) - http://www.bohemiancoding.com/sketch -->
    <title>fort-awesome-alt</title>
    <desc>Created with Sketch.</desc>
    <defs>
        <path d="M10.2695312,11.4179687 L10.2695312,13.4375 C10.2695312,13.5195313 10.2070312,13.5820313 10.125,13.5820313 L9.25781249,13.5820313 C9.17578124,13.5820313 9.11328124,13.5195313 9.11328124,13.4375 L9.11328124,11.4179687 C9.11328124,11.3359375 9.17578124,11.2734375 9.25781249,11.2734375 L10.125,11.2734375 C10.2070312,11.2734375 10.2695312,11.3359375 10.2695312,11.4179687 Z M14.7421875,11.2734375 L13.875,11.2734375 C13.7929688,11.2734375 13.7304688,11.3359375 13.7304688,11.4179687 L13.7304688,13.4375 C13.7304688,13.5195313 13.7929688,13.5820313 13.875,13.5820313 L14.7421875,13.5820313 C14.8242188,13.5820313 14.8867188,13.5195313 14.8867188,13.4375 L14.8867188,11.4179687 C14.8828125,11.3359375 14.8203125,11.2734375 14.7421875,11.2734375 Z M13.6054688,21.5546875 C13.5703125,21.5585938 13.5390625,21.5664063 13.5039063,21.5703125 C13.4648438,21.578125 13.421875,21.5820313 13.3828125,21.5898438 C13.3476563,21.59375 13.3125,21.6015625 13.2734375,21.6054688 C13.234375,21.609375 13.1953125,21.6171875 13.15625,21.6210938 C13.1171875,21.625 13.078125,21.6289063 13.0429688,21.6328125 C13.0039063,21.6367188 12.96875,21.640625 12.9296875,21.6445313 C12.890625,21.6484375 12.8476563,21.6523438 12.8085938,21.65625 C12.7734375,21.6601563 12.7382813,21.6640625 12.703125,21.6640625 C12.6601563,21.6679688 12.6132813,21.6679688 12.5703125,21.671875 C12.5390625,21.671875 12.5039063,21.6757813 12.4726563,21.6757813 C12.421875,21.6796875 12.3710938,21.6796875 12.3203125,21.6796875 C12.2929688,21.6796875 12.265625,21.6835938 12.2382813,21.6835938 C12.1601563,21.6835938 12.0820313,21.6875 12.0039063,21.6875 C11.9257812,21.6875 11.8476562,21.6875 11.7695312,21.6835938 C11.7421875,21.6835938 11.7148437,21.6835938 11.6875,21.6796875 C11.6367187,21.6796875 11.5859375,21.6757813 11.5351562,21.6757813 C11.5039062,21.6757813 11.46875,21.671875 11.4375,21.671875 C11.3945312,21.6679688 11.3476562,21.6679688 11.3046875,21.6640625 C11.2695312,21.6601563 11.234375,21.6601563 11.1992187,21.65625 C11.1601562,21.6523438 11.1171875,21.6484375 11.078125,21.6445313 C11.0390625,21.640625 11.0039062,21.6367188 10.9648437,21.6328125 C10.9257812,21.6289063 10.8867187,21.625 10.8515625,21.6210938 C10.8125,21.6171875 10.7734375,21.6132813 10.734375,21.6054688 C10.6992187,21.6015625 10.6640625,21.59375 10.625,21.5898438 C10.5859375,21.5859375 10.5429687,21.578125 10.5039062,21.5703125 C10.46875,21.5664063 10.4375,21.5585938 10.4023437,21.5546875 C7.83984373,21.1289063 5.61718747,19.6914063 4.15234371,17.671875 C4.14453121,17.6640625 4.14062496,17.6523438 4.13281246,17.6445313 C4.10156246,17.6015625 4.07031246,17.5585938 4.04296871,17.515625 C4.03124996,17.5 4.01953121,17.484375 4.01171871,17.46875 C3.98437496,17.4257813 3.95703121,17.3867188 3.92968746,17.34375 C3.91796871,17.3242188 3.90624996,17.3085938 3.89453121,17.2890625 C3.86718746,17.2460938 3.83984371,17.2070313 3.81640621,17.1640625 C3.80468746,17.1445313 3.79296871,17.1289063 3.78124996,17.109375 C3.75390621,17.0664063 3.73046871,17.0234375 3.70312496,16.9804688 C3.69531246,16.9648438 3.68359371,16.9492188 3.67578121,16.9335938 C3.58203121,16.7773438 3.49609371,16.6171875 3.41015621,16.4570313 C3.40624996,16.4492188 3.40234371,16.4453125 3.39843746,16.4375 C3.37499996,16.3945313 3.35546871,16.3515625 3.33203121,16.3085938 C3.32031246,16.2851563 3.30859371,16.265625 3.30078121,16.2421875 C3.28124996,16.203125 3.26171871,16.1601563 3.24218746,16.1210938 C3.23046871,16.09375 3.21874996,16.0703125 3.20703121,16.0429688 C3.18749996,16.0039063 3.17187496,15.9648438 3.15234371,15.9257813 L3.11718746,15.84375 C3.10156246,15.8046875 3.08203121,15.765625 3.06640621,15.7265625 C3.05468746,15.6992188 3.04296871,15.6679688 3.03124996,15.640625 L2.98437495,15.5234375 C2.9726562,15.4921875 2.96093745,15.4648438 2.9492187,15.4335938 C2.9335937,15.3945313 2.9179687,15.3554688 2.90624995,15.3164063 C2.8945312,15.28125 2.88281245,15.2460938 2.86718745,15.2070313 C2.84374995,15.1445313 2.8242187,15.078125 2.8007812,15.015625 C2.78906245,14.9804688 2.7773437,14.9453125 2.76562495,14.90625 C2.7539062,14.8710938 2.7460937,14.8359375 2.73437495,14.8007813 C2.7226562,14.765625 2.71093745,14.7265625 2.70312495,14.6914063 C2.6914062,14.65625 2.6835937,14.6210938 2.67187495,14.5859375 C2.6601562,14.546875 2.6523437,14.5117188 2.64062495,14.4726563 C2.63281245,14.4375 2.6210937,14.4023438 2.6132812,14.3671875 C2.60156245,14.328125 2.59374995,14.2890625 2.58593745,14.25 C2.57812495,14.2148438 2.57031245,14.1835938 2.56249995,14.1484375 C2.55468745,14.1054688 2.5429687,14.0625 2.5351562,14.0234375 C2.5273437,13.9921875 2.52343745,13.9609375 2.51562495,13.9296875 C2.5039062,13.8789063 2.4960937,13.8242188 2.48437495,13.7734375 C2.4804687,13.75 2.47656245,13.7304688 2.4726562,13.7070313 L2.43749995,13.484375 C2.4335937,13.4609375 2.42968745,13.4335938 2.4257812,13.4101563 C2.4179687,13.359375 2.4101562,13.3085938 2.40624995,13.2578125 C2.4023437,13.2265625 2.39843745,13.1992188 2.3945312,13.1679688 C2.39062495,13.1210938 2.38281245,13.0742188 2.3789062,13.0273438 C2.37499995,12.9960938 2.3710937,12.9648438 2.3710937,12.9335938 C2.36718745,12.8867188 2.3632812,12.8398438 2.35937495,12.796875 C2.3554687,12.765625 2.3554687,12.734375 2.35156245,12.703125 C2.3476562,12.65625 2.34374995,12.609375 2.34374995,12.5585938 C2.34374995,12.5273438 2.3398437,12.5 2.3398437,12.46875 C2.33593745,12.4179688 2.33593745,12.3632813 2.3320312,12.3125 C2.3320312,12.2851563 2.3320312,12.2617188 2.32812495,12.234375 C2.32812495,12.15625 2.3242187,12.078125 2.3242187,12 C2.3242187,9.91015624 2.98437495,7.97656248 4.11328121,6.39062497 C4.20312496,6.26562497 4.29687496,6.14062497 4.39062496,6.01953122 C4.58203121,5.77734372 4.78515621,5.53906247 4.99999996,5.31640622 C5.10546872,5.20312497 5.21484372,5.09374997 5.32812497,4.98828121 C5.44140622,4.88281246 5.55468747,4.77734371 5.67187497,4.67578121 C5.84765622,4.52343746 6.02734372,4.37890621 6.21484372,4.23828121 C6.27734372,4.19140621 6.33984372,4.14453121 6.40234372,4.10156246 C7.46874998,3.33593746 8.70703123,2.7851562 10.046875,2.50781245 C10.6757812,2.3789062 11.3320312,2.31249995 12,2.31249995 C12.6679688,2.31249995 13.3203125,2.3789062 13.953125,2.50781245 C15.2929688,2.78124995 16.53125,3.33203121 17.609375,4.09765621 C17.671875,4.14453121 17.734375,4.18749996 17.796875,4.23437496 C17.984375,4.37499996 18.1640625,4.51953121 18.3398438,4.67187496 C18.8085938,5.07812497 19.2382813,5.52734372 19.6210938,6.01562497 C19.71875,6.13671872 19.8085938,6.26171872 19.8984375,6.38671872 C21.0273438,7.97656248 21.6875,9.91015624 21.6875,12 C21.6875,12.078125 21.6875,12.15625 21.6835938,12.234375 C21.6835938,12.2617188 21.6835938,12.2851563 21.6796875,12.3125 C21.6796875,12.3632813 21.6757813,12.4179688 21.671875,12.46875 C21.671875,12.5 21.6679688,12.5273438 21.6679688,12.5585938 C21.6640625,12.6054688 21.6640625,12.6523438 21.6601563,12.5859375 C21.65625,12.6171875 21.65625,12.6484375 21.6523438,12.6796875 C21.6484375,12.7265625 21.6445313,12.7734375 21.640625,12.8164063 C21.6367188,12.8476563 21.6328125,12.8789063 21.6328125,12.9101563 C21.6289063,12.9570313 21.6210938,13.0039063 21.6171875,13.0507813 C21.6132813,13.0820313 21.609375,13.109375 21.6054688,13.140625 C21.5976563,13.1914063 21.5898438,13.2421875 21.5859375,13.2929688 C21.5820313,13.3164063 21.578125,13.34375 21.5742188,13.3671875 L21.5390625,13.5898438 C21.5351563,13.6132813 21.53125,13.6328125 21.5273438,13.65625 C21.5195313,13.7070313 21.5078125,13.7617188 21.4960938,13.8125 C21.4882813,13.84375 21.484375,13.875 21.4765625,13.90625 C21.46875,13.9492188 21.4570313,13.9921875 21.4492188,14.03125 C21.4414063,14.0664063 21.4335938,14.0976563 21.4257813,14.1328125 C21.4179688,14.171875 21.40625,14.2109375 21.3984375,14.25 C21.390625,14.2851563 21.3789063,14.3203125 21.3710938,14.3554688 C21.359375,14.3945313 21.3515625,14.4296875 21.3398438,14.46875 C21.3320313,14.5039063 21.3203125,14.5390625 21.3085938,14.5742188 C21.296875,14.609375 21.2851563,14.6484375 21.2773438,14.6835938 C21.265625,14.71875 21.2578125,14.7539063 21.2460938,14.7890625 C21.234375,14.8242188 21.2226563,14.859375 21.2109375,14.8984375 C21.1914063,14.9609375 21.1679688,15.0273438 21.1445313,15.0898438 C21.1328125,15.125 21.1210938,15.1601563 21.1054688,15.1992188 C21.0898438,15.2382813 21.078125,15.2773438 21.0625,15.3164063 C21.0507813,15.3476563 21.0390625,15.375 21.0273438,15.40625 L20.9804688,15.5234375 C20.96875,15.5507813 20.9570313,15.5820313 20.9453125,15.609375 C20.9296875,15.6484375 20.9140625,15.6875 20.8945313,15.7265625 L20.859375,15.8085938 C20.84375,15.8476563 20.8242188,15.8867188 20.8046875,15.9257813 C20.7929688,15.953125 20.78125,15.9765625 20.7695313,16.0039063 C20.75,16.0429688 20.7304688,16.0859375 20.7109375,16.125 C20.6992188,16.1484375 20.6875,16.1679688 20.6796875,16.1914063 C20.65625,16.234375 20.6367188,16.2773438 20.6132813,16.3203125 C20.609375,16.328125 20.6054688,16.3320313 20.6015625,16.3398438 C20.515625,16.5 20.4296875,16.6601563 20.3359375,16.8164063 C20.328125,16.8320313 20.3164063,16.8476563 20.3085938,16.8632813 C20.28125,16.90625 20.2578125,16.9492188 20.2304688,16.9921875 C20.21875,17.0117188 20.2070313,17.0273438 20.1953125,17.046875 C20.1679688,17.0898438 20.140625,17.1289063 20.1171875,17.171875 C20.1054688,17.1914063 20.09375,17.2070313 20.0820313,17.2265625 C20.0546875,17.2695313 20.0273438,17.3085938 20,17.3515625 C19.9882813,17.3671875 19.9765625,17.3828125 19.96875,17.3984375 C19.9375,17.4414063 19.9101563,17.484375 19.8789063,17.5273438 C19.8710938,17.5351563 19.8671875,17.546875 19.859375,17.5546875 C18.390625,19.6914063 16.1679688,21.125 13.6054688,21.5546875 Z M18.1875,18.1875 C18.6953125,17.6796875 19.1328125,17.1171875 19.5,16.5117188 L19.5,13.7265625 C19.5,13.6445313 19.4375,13.5820313 19.3554688,13.5820313 L18.4882813,13.5820313 C18.40625,13.5820313 18.34375,13.6445313 18.34375,13.7265625 L18.34375,14.734375 L17.1914063,14.734375 L17.1914063,9.10937499 C17.1914063,9.02734374 17.1289063,8.96484373 17.046875,8.96484373 L16.1835938,8.96484373 C16.1015625,8.96484373 16.0390625,9.02734374 16.0390625,9.10937499 L16.0390625,10.1210937 L14.8867188,10.1210937 L14.8867188,9.10937499 C14.8867188,9.02734374 14.8242188,8.96484373 14.7421875,8.96484373 L13.875,8.96484373 C13.7929688,8.96484373 13.7304688,9.02734374 13.7304688,9.10937499 L13.7304688,10.1210937 L12.578125,10.1210937 L12.578125,9.10937499 C12.578125,8.92187498 12.3242188,8.96484373 12.2070313,8.96484373 L12.2070313,7.76562498 C12.46875,7.70312498 12.7460938,7.65624998 13.0195313,7.65624998 C13.3632813,7.65624998 13.6757813,7.79296873 14.0117188,7.79296873 C14.15625,7.79296873 14.8867188,7.75781248 14.8867188,7.53906248 L14.8867188,5.64843747 C14.8867188,5.56640622 14.8242188,5.50390622 14.7421875,5.50390622 C14.578125,5.50390622 14.265625,5.64062497 13.984375,5.64062497 C13.6757813,5.64062497 13.3242188,5.50390622 12.9570313,5.50390622 C12.703125,5.50390622 12.453125,5.53906247 12.2070313,5.59374997 L12.2070313,5.44140622 C12.3789063,5.35937497 12.4960938,5.17968747 12.4960938,4.99218746 C12.4960938,4.33593746 11.5039062,4.33593746 11.5039062,4.99218746 C11.5039062,5.17968747 11.6210937,5.36328122 11.7929687,5.44140622 L11.7929687,8.96484373 C11.6757812,8.96484373 11.421875,8.92187498 11.421875,9.10937499 L11.421875,10.1210937 L10.2695312,10.1210937 L10.2695312,9.10937499 C10.2695312,9.02734374 10.2070312,8.96484373 10.125,8.96484373 L9.25781249,8.96484373 C9.17578124,8.96484373 9.11328124,9.02734374 9.11328124,9.10937499 L9.11328124,10.1210937 L7.96093748,10.1210937 L7.96093748,9.10937499 C7.96093748,9.02734374 7.89843748,8.96484373 7.81640623,8.96484373 L6.95312497,8.96484373 C6.87109372,8.96484373 6.80859372,9.02734374 6.80859372,9.10937499 L6.80859372,14.734375 L5.65234372,14.734375 L5.65234372,13.7265625 C5.65234372,13.6445313 5.58984372,13.5820313 5.50781247,13.5820313 L4.64453121,13.5820313 C4.56249996,13.5820313 4.49999996,13.6445313 4.49999996,13.7265625 L4.49999996,16.5117188 C4.86718746,17.1171875 5.30468747,17.6796875 5.81249997,18.1875 C6.61718747,18.9921875 7.55078123,19.6210938 8.59374998,20.0625 C9.13671874,20.2929688 9.69531249,20.4648438 10.2695312,20.578125 L10.2695312,17.6171875 C10.2695312,15.328125 13.7304688,15.328125 13.7304688,17.6171875 L13.7304688,20.578125 C14.3046875,20.4648438 14.8632813,20.2890625 15.40625,20.0625 C16.4492188,19.6210938 17.3828125,18.9921875 18.1875,18.1875 Z" id="path-1"></path>
    </defs>
    <g id="fort-awesome-alt" stroke="none" stroke-width="1" fill="none" fill-rule="evenodd">
        <mask id="mask-2" fill="white">
            <use xlink:href="#path-1"></use>
        </mask>
        <g fill-rule="nonzero"></g>
        <g id="🎨-color" mask="url(#mask-2)" fill="#000000">
            <rect id="🎨-Color" x="0" y="0" width="24" height="24"></rect>
        </g>
    </g>
</svg>