<?xml version="1.0" encoding="UTF-8"?>
<svg width="24px" height="24px" viewBox="0 0 24 24" version="1.1" xmlns="http://www.w3.org/2000/svg" xmlns:xlink="http://www.w3.org/1999/xlink">
    <!-- Generator: Sketch 52.5 (67469) - http://www.bohemiancoding.com/sketch -->
    <title>fort-awesome</title>
    <desc>Created with Sketch.</desc>
    <defs>
        <path d="M21.109375,13.2460938 L20.0390625,13.2460938 C19.9375,13.2460938 19.859375,13.3242188 19.859375,13.4257813 L19.859375,14.6757813 L18.4296875,14.6757813 L18.4296875,7.71093748 C18.4296875,7.60937498 18.3515625,7.53124998 18.25,7.53124998 L17.1796875,7.53124998 C17.078125,7.53124998 17,7.60937498 17,7.71093748 L17,8.96093748 L15.5703125,8.96093748 L15.5703125,7.71093748 C15.5703125,7.60937498 15.4921875,7.53124998 15.390625,7.53124998 L14.3203125,7.53124998 C14.21875,7.53124998 14.140625,7.60937498 14.140625,7.71093748 L14.140625,8.96093748 L12.7109375,8.96093748 L12.7109375,7.71093748 C12.7109375,7.47656248 12.3984375,7.53124998 12.2539063,7.53124998 L12.2539063,6.04687497 C12.578125,5.96874997 12.921875,5.91406247 13.2578125,5.91406247 C13.6835938,5.91406247 14.0742188,6.08203122 14.484375,6.08203122 C14.6640625,6.08203122 15.5664063,6.03906247 15.5664063,5.76953122 L15.5664063,3.42578121 C15.5664063,3.32421871 15.4882813,3.24609371 15.3867188,3.24609371 C15.1875,3.24609371 14.796875,3.41406246 14.4492188,3.41406246 C14.0703125,3.41406246 13.6328125,3.24609371 13.1757813,3.24609371 C12.8632813,3.24609371 12.5507813,3.28906246 12.25,3.35937496 L12.25,3.16796871 C12.4609375,3.06640621 12.6054688,2.84374995 12.6054688,2.60937495 C12.6054688,1.8007812 11.3789062,1.79687495 11.3789062,2.60937495 C11.3789062,2.84374995 11.5234375,3.06640621 11.734375,3.16796871 L11.734375,7.53124998 C11.5898437,7.53124998 11.2773437,7.47656248 11.2773437,7.71093748 L11.2773437,8.96093748 L9.84765624,8.96093748 L9.84765624,7.71093748 C9.84765624,7.60937498 9.76953124,7.53124998 9.66796874,7.53124998 L8.59765623,7.53124998 C8.49609373,7.53124998 8.41796873,7.60937498 8.41796873,7.71093748 L8.41796873,8.96093748 L6.99999997,8.96093748 L6.99999997,7.71093748 C6.99999997,7.60937498 6.92187497,7.53124998 6.82031247,7.53124998 L5.74999997,7.53124998 C5.64843747,7.53124998 5.57031247,7.60937498 5.57031247,7.71093748 L5.57031247,14.6757813 L4.14062496,14.6757813 L4.14062496,13.4257813 C4.14062496,13.3242188 4.06249996,13.2460938 3.96093746,13.2460938 L2.89062495,13.2460938 C2.78906245,13.2460938 2.71093745,13.3242188 2.71093745,13.4257813 L2.71093745,22.0000001 L9.85546874,22.0000001 L9.85546874,18.25 C9.85546874,15.4140625 14.140625,15.4140625 14.140625,18.25 L14.140625,22.0000001 L21.2852966,22.0000001 L21.2851563,13.4257813 C21.2890625,13.3242188 21.2109375,13.2460938 21.109375,13.2460938 Z M9.85546874,13.0703125 C9.85546874,13.171875 9.77734374,13.25 9.67578124,13.25 L8.60546873,13.25 C8.50390623,13.25 8.42578123,13.171875 8.42578123,13.0703125 L8.42578123,10.5703125 C8.42578123,10.46875 8.50390623,10.390625 8.60546873,10.390625 L9.67578124,10.390625 C9.77734374,10.390625 9.85546874,10.46875 9.85546874,10.5703125 L9.85546874,13.0703125 Z M15.5742188,13.0703125 C15.5742188,13.171875 15.4960938,13.25 15.3945313,13.25 L14.3242188,13.25 C14.2226563,13.25 14.1445313,13.171875 14.1445313,13.0703125 L14.1445313,10.5703125 C14.1445313,10.46875 14.2226563,10.390625 14.3242188,10.390625 L15.3945313,10.390625 C15.4960938,10.390625 15.5742188,10.46875 15.5742188,10.5703125 L15.5742188,13.0703125 Z" id="path-1"></path>
    </defs>
    <g id="fort-awesome" stroke="none" stroke-width="1" fill="none" fill-rule="evenodd">
        <mask id="mask-2" fill="white">
            <use xlink:href="#path-1"></use>
        </mask>
        <g fill-rule="nonzero"></g>
        <g id="🎨-color" mask="url(#mask-2)" fill="#000000">
            <rect id="🎨-Color" x="0" y="0" width="24" height="24"></rect>
        </g>
    </g>
</svg>