<?xml version="1.0" encoding="UTF-8"?>
<svg width="24px" height="24px" viewBox="0 0 24 24" version="1.1" xmlns="http://www.w3.org/2000/svg" xmlns:xlink="http://www.w3.org/1999/xlink">
    <!-- Generator: Sketch 52.5 (67469) - http://www.bohemiancoding.com/sketch -->
    <title>forumbee</title>
    <desc>Created with Sketch.</desc>
    <defs>
        <path d="M3.47656246,14.0976563 C3.32812496,13.4335938 3.24999996,12.7617188 3.24999996,12.0898438 C3.24999996,7.27343748 7.14843748,3.36718746 11.9648437,3.36718746 C12.6132813,3.36718746 13.265625,3.44531246 13.890625,3.58203121 C9.07031249,5.41796872 5.27734372,9.26562499 3.47656246,14.0976563 Z M18.8242188,6.70703122 C18.2890625,6.02343747 17.6640625,5.42968747 16.9570313,4.93749996 C11.1132812,6.66796872 6.55468747,11.2695312 4.85937496,17.125 C5.34765622,17.8320313 5.95312497,18.515625 6.62499997,19.0390625 C8.30859373,13.1289063 12.921875,8.42578123 18.8242188,6.70703122 Z M19.4414063,16.578125 C20.0351563,15.5976563 20.4335938,14.4804688 20.59375,13.34375 C17.4921875,15.0195313 14.9296875,17.6640625 13.265625,20.7773438 C14.4375,20.6054688 15.5664063,20.1796875 16.5703125,19.5546875 C17.9375,20.0664063 19.3398438,20.5039063 20.75,20.8671875 C20.3867188,19.4414063 19.953125,17.9570313 19.4414063,16.578125 Z M20.6015625,10.8945312 C20.5,10.1328125 20.2929688,9.38281249 19.984375,8.67578123 C14.5976563,10.4648437 10.359375,14.7929688 8.60546873,20.203125 C9.31249999,20.5 10.0507812,20.6914063 10.8164062,20.796875 C12.625,16.3398438 16.1601563,12.71875 20.6015625,10.8945312 Z" id="path-1"></path>
    </defs>
    <g id="forumbee" stroke="none" stroke-width="1" fill="none" fill-rule="evenodd">
        <mask id="mask-2" fill="white">
            <use xlink:href="#path-1"></use>
        </mask>
        <g fill-rule="nonzero"></g>
        <g id="🎨-color" mask="url(#mask-2)" fill="#000000">
            <rect id="🎨-Color" x="0" y="0" width="24" height="24"></rect>
        </g>
    </g>
</svg>