<?xml version="1.0" encoding="UTF-8"?>
<svg width="24px" height="24px" viewBox="0 0 24 24" version="1.1" xmlns="http://www.w3.org/2000/svg" xmlns:xlink="http://www.w3.org/1999/xlink">
    <!-- Generator: Sketch 52.5 (67469) - http://www.bohemiancoding.com/sketch -->
    <title>foursquare</title>
    <desc>Created with Sketch.</desc>
    <defs>
        <path d="M17.3825243,2.1165048 L6.77281551,2.1165048 C5.31650482,2.1165048 4.83495142,3.21553394 4.83495142,3.90679608 L4.83495142,20.7533981 C4.83495142,21.5417476 5.30485434,21.8291263 5.54174754,21.9223301 C5.78252424,22.0194175 6.42718444,22.1009709 6.81941745,21.646602 C11.8252427,15.8446602 11.9106796,15.7475728 11.9106796,15.7475728 C12.031068,15.615534 12.0427184,15.6271845 12.1747573,15.6271845 L15.4135923,15.6271845 C16.7766991,15.6271845 16.9902913,14.6485437 17.1339806,14.0854369 L19.0213593,4.64854365 C19.3514563,3.0019417 18.9359224,2.1165048 17.3825243,2.1165048 Z M16.7495146,4.98252424 L16.3067961,7.30097085 C16.2601942,7.55339804 15.9378641,7.81359221 15.6504855,7.81359221 L11.5184466,7.81359221 C11.0524272,7.81359221 10.7184466,8.13592231 10.7184466,8.60194173 L10.7184466,9.1067961 C10.7184466,9.57281552 11.0524272,9.90679611 11.5184466,9.90679611 L15.0291262,9.90679611 C15.3514563,9.90679611 15.6737864,10.2640777 15.6038835,10.6135922 C15.5339806,10.9592233 15.1961165,12.7029126 15.1611651,12.8970874 C15.1262136,13.0873786 14.8970874,13.4213592 14.5048544,13.4213592 L11.6504854,13.4213592 C11.1262136,13.4213592 10.9825243,13.4912621 10.6213592,13.9106796 C10.6213592,13.9106796 10.2757281,14.3533981 7.14563104,18.1165049 C7.11067959,18.1514563 7.07572813,18.1398059 7.07572813,18.1048544 L7.07572813,4.94757278 C7.07572813,4.64854365 7.3398058,4.30291258 7.72038833,4.30291258 L16.2252427,4.30291258 C16.5436893,4.30291258 16.831068,4.60194171 16.7495146,4.98252424 Z" id="path-1"></path>
    </defs>
    <g id="foursquare" stroke="none" stroke-width="1" fill="none" fill-rule="evenodd">
        <mask id="mask-2" fill="white">
            <use xlink:href="#path-1"></use>
        </mask>
        <g fill-rule="nonzero"></g>
        <g id="🎨-color" mask="url(#mask-2)" fill="#000000">
            <rect id="🎨-Color" x="0" y="0" width="24" height="24"></rect>
        </g>
    </g>
</svg>