<?xml version="1.0" encoding="UTF-8"?>
<svg width="24px" height="24px" viewBox="0 0 24 24" version="1.1" xmlns="http://www.w3.org/2000/svg" xmlns:xlink="http://www.w3.org/1999/xlink">
    <!-- Generator: Sketch 52.5 (67469) - http://www.bohemiancoding.com/sketch -->
    <title>freebsd</title>
    <desc>Created with Sketch.</desc>
    <defs>
        <path d="M15.09375,5.75781247 C15.5273438,5.32421872 19.6054688,2.74999995 20.53125,3.67968746 C21.4570313,4.60546871 18.8867188,8.68359373 18.453125,9.11718749 C18.0195313,9.55078124 16.9140625,9.15234374 15.9882813,8.22265623 C15.0585938,7.29687498 14.65625,6.19140622 15.09375,5.75781247 Z M7.52343748,4.66015621 C6.10546872,3.85546871 4.08984371,2.96093745 3.44921871,3.60546871 C2.8007812,4.25390621 3.72656246,6.31640622 4.53906246,7.73437498 C5.26171872,6.47656247 6.28906247,5.41796872 7.52343748,4.66015621 Z M19.1171875,8.79687498 C19.2460938,9.23828124 19.2226563,9.60546874 19.0117188,9.81640624 C18.21875,10.609375 15.59375,8.76171873 14.7421875,7.07812498 C14.0390625,5.81640622 14.3085938,4.99218746 15.3242188,5.17578122 C15.546875,5.03515622 15.8046875,4.87890621 16.0898438,4.72265621 C14.9257813,4.11718746 13.6054688,3.77343746 12.203125,3.77343746 C7.55078123,3.77343746 3.78124996,7.54296873 3.78124996,12.1953125 C3.78124996,16.84375 7.55078123,20.6171875 12.203125,20.6171875 C16.8554688,20.6171875 20.625,16.8476563 20.625,12.1953125 C20.625,10.6953125 20.2304688,9.28515624 19.5429688,8.06249998 C19.390625,8.33593748 19.2460938,8.58203123 19.1171875,8.79687498 Z" id="path-1"></path>
    </defs>
    <g id="freebsd" stroke="none" stroke-width="1" fill="none" fill-rule="evenodd">
        <mask id="mask-2" fill="white">
            <use xlink:href="#path-1"></use>
        </mask>
        <g fill-rule="nonzero"></g>
        <g id="🎨-color" mask="url(#mask-2)" fill="#000000">
            <rect id="🎨-Color" x="0" y="0" width="24" height="24"></rect>
        </g>
    </g>
</svg>