<?xml version="1.0" encoding="UTF-8"?>
<svg width="24px" height="24px" viewBox="0 0 24 24" version="1.1" xmlns="http://www.w3.org/2000/svg" xmlns:xlink="http://www.w3.org/1999/xlink">
    <!-- Generator: Sketch 52.5 (67469) - http://www.bohemiancoding.com/sketch -->
    <title>frog</title>
    <desc>Created with Sketch.</desc>
    <defs>
        <path d="M17.5123051,6.50363949 C17.2745234,5.2142114 16.1487002,4.23570187 14.7902946,4.23570187 C13.4305026,4.23570187 12.3043328,5.21629113 12.0679376,6.50745231 C6.42807623,7.04194105 2.01733097,11.7961872 2.034662,17.579896 C2.03847482,18.7902947 3.04263427,19.7642981 4.25303289,19.7642981 L14.7902946,19.7642981 C15.0967071,19.7642981 15.3448874,19.5161179 15.3448874,19.2097054 C15.3448874,18.5972271 14.8481803,18.10052 14.2357019,18.10052 L11.4804159,18.10052 L12.7213172,16.4253033 C13.5580589,15.1694974 13.0800693,13.365338 11.5528596,12.7303293 C10.7247834,12.3861352 9.76603118,12.5691508 9.04887347,13.1074523 L7.91334487,13.959792 C7.66863083,14.1438475 7.32097051,14.0953206 7.13656843,13.8492201 C6.95285959,13.6038128 7.0020797,13.2561525 7.24714036,13.0724437 L8.45268629,12.1681109 C9.72963604,11.2093587 11.5126516,11.2107452 12.789948,12.1681109 C13.1667244,12.4506066 14.379896,13.5220104 14.2041595,15.3989602 L18.3126517,19.7642981 L21.4454073,19.7642981 C21.7518198,19.7642981 22.0000001,19.5161179 22.0000001,19.2097054 C22.0000001,18.5972271 21.5032929,18.10052 20.8908146,18.10052 L19.0318891,18.10052 L15.6169844,14.4720971 L20.9701907,11.4686308 C21.6062389,11.1119031 22.0000433,10.4394797 22.0000001,9.71022529 C22.0000001,8.96845752 21.5937609,8.29081454 20.9435009,7.93448871 C19.5376084,7.16429807 17.5123051,6.50363949 17.5123051,6.50363949 Z M14.7902946,7.84055457 C14.3306759,7.84055457 13.9584056,7.46793759 13.9584056,7.00866549 C13.9584056,6.54904677 14.3306759,6.1767764 14.7902946,6.1767764 C15.2495667,6.1767764 15.6221837,6.54904677 15.6221837,7.00866549 C15.6221837,7.46793759 15.2495667,7.84055457 14.7902946,7.84055457 Z" id="path-1"></path>
    </defs>
    <g id="frog" stroke="none" stroke-width="1" fill="none" fill-rule="evenodd">
        <mask id="mask-2" fill="white">
            <use xlink:href="#path-1"></use>
        </mask>
        <g fill-rule="nonzero"></g>
        <g id="🎨-color" mask="url(#mask-2)" fill="#000000">
            <rect id="🎨-Color" x="0" y="0" width="24" height="24"></rect>
        </g>
    </g>
</svg>