<?xml version="1.0" encoding="UTF-8"?>
<svg width="24px" height="24px" viewBox="0 0 24 24" version="1.1" xmlns="http://www.w3.org/2000/svg" xmlns:xlink="http://www.w3.org/1999/xlink">
    <!-- Generator: Sketch 52.5 (67469) - http://www.bohemiancoding.com/sketch -->
    <title>frown</title>
    <desc>Created with Sketch.</desc>
    <defs>
        <path d="M12,2.31249995 C6.64843747,2.31249995 2.31249995,6.64843747 2.31249995,12 C2.31249995,17.3515625 6.64843747,21.6875 12,21.6875 C17.3515625,21.6875 21.6875,17.3515625 21.6875,12 C21.6875,6.64843747 17.3515625,2.31249995 12,2.31249995 Z M12,19.8125 C7.69140623,19.8125 4.18749996,16.3085938 4.18749996,12 C4.18749996,7.69140623 7.69140623,4.18749996 12,4.18749996 C16.3085938,4.18749996 19.8125,7.69140623 19.8125,12 C19.8125,16.3085938 16.3085938,19.8125 12,19.8125 Z M8.87499998,11.375 C9.56640624,11.375 10.125,10.8164062 10.125,10.125 C10.125,9.43359374 9.56640624,8.87499998 8.87499998,8.87499998 C8.18359373,8.87499998 7.62499998,9.43359374 7.62499998,10.125 C7.62499998,10.8164062 8.18359373,11.375 8.87499998,11.375 Z M15.125,8.87499998 C14.4335938,8.87499998 13.875,9.43359374 13.875,10.125 C13.875,10.8164062 14.4335938,11.375 15.125,11.375 C15.8164063,11.375 16.375,10.8164062 16.375,10.125 C16.375,9.43359374 15.8164063,8.87499998 15.125,8.87499998 Z M12,13.875 C10.4296875,13.875 8.95312498,14.5664063 7.94531248,15.7734375 C7.61328123,16.171875 7.66796873,16.7617188 8.06640623,17.09375 C8.46484373,17.421875 9.05468749,17.3710938 9.38671874,16.9726563 C10.0351562,16.1953125 10.9882812,15.7460938 12,15.7460938 C13.0117188,15.7460938 13.9648438,16.1914063 14.6132813,16.9726563 C14.9296875,17.3515625 15.515625,17.4375 15.9335938,17.09375 C16.3320313,16.7617188 16.3828125,16.171875 16.0546875,15.7734375 C15.046875,14.5664063 13.5703125,13.875 12,13.875 Z" id="path-1"></path>
    </defs>
    <g id="frown" stroke="none" stroke-width="1" fill="none" fill-rule="evenodd">
        <mask id="mask-2" fill="white">
            <use xlink:href="#path-1"></use>
        </mask>
        <g fill-rule="nonzero"></g>
        <g id="🎨-color" mask="url(#mask-2)" fill="#000000">
            <rect id="🎨-Color" x="0" y="0" width="24" height="24"></rect>
        </g>
    </g>
</svg>