<?xml version="1.0" encoding="UTF-8"?>
<svg width="24px" height="24px" viewBox="0 0 24 24" version="1.1" xmlns="http://www.w3.org/2000/svg" xmlns:xlink="http://www.w3.org/1999/xlink">
    <!-- Generator: Sketch 52.5 (67469) - http://www.bohemiancoding.com/sketch -->
    <title>funnel-dollar</title>
    <desc>Created with Sketch.</desc>
    <defs>
        <path d="M15.545625,9.18562499 L18.708125,5.68968747 C19.3315625,5.06624997 18.89,3.99999996 18.008125,3.99999996 L2.99187495,3.99999996 C2.10999995,3.99999996 1.66843745,5.06624997 2.29187495,5.68968747 L7.99999998,12 L7.99999998,16.8725 C7.99999998,17.2659375 8.18531248,17.63625 8.49999998,17.8725 L10.9996875,19.7475 C11.6515625,20.23625 12.514375,19.9653125 12.8503125,19.3234375 C11.7125,18.230625 11,16.6984375 11,15 C11,12.1940625 12.9390625,9.83843749 15.545625,9.18562499 Z M17,9.99999999 C14.2384375,9.99999999 12,12.2384375 12,15 C12,17.7615625 14.2384375,20 17,20 C19.7615625,20 22.0000001,17.7615625 22.0000001,15 C22.0000001,12.2384375 19.7615625,9.99999999 17,9.99999999 Z M17.5,17.49625 L17.5,18 C17.5,18.138125 17.388125,18.25 17.25,18.25 L16.75,18.25 C16.611875,18.25 16.5,18.138125 16.5,18 L16.5,17.4909375 C16.1471875,17.4728125 15.8040625,17.3496875 15.5196875,17.13625 C15.3978125,17.0446875 15.3915625,16.8621875 15.501875,16.756875 L15.8690625,16.4065625 C15.955625,16.3240625 16.084375,16.3203125 16.185625,16.38375 C16.3065625,16.459375 16.44375,16.5 16.58625,16.5 L17.4646875,16.5 C17.6678125,16.5 17.8334375,16.315 17.8334375,16.0878125 C17.8334375,15.901875 17.720625,15.738125 17.559375,15.69 L16.153125,15.268125 C15.5721875,15.09375 15.16625,14.53625 15.16625,13.9121875 C15.16625,13.1459375 15.7615625,12.5234375 16.4996875,12.50375 L16.4996875,12 C16.4996875,11.861875 16.6115625,11.75 16.7496875,11.75 L17.2496875,11.75 C17.3878125,11.75 17.4996875,11.861875 17.4996875,12 L17.4996875,12.5090625 C17.8525,12.5271875 18.195625,12.65 18.48,12.86375 C18.601875,12.9553125 18.608125,13.1378125 18.4978125,13.243125 L18.130625,13.5934375 C18.0440625,13.6759375 17.9153125,13.6796875 17.8140625,13.61625 C17.693125,13.5403125 17.5559375,13.5 17.4134375,13.5 L16.535,13.5 C16.331875,13.5 16.16625,13.685 16.16625,13.9121875 C16.16625,14.098125 16.2790625,14.261875 16.4403125,14.31 L17.8465625,14.731875 C18.4275,14.90625 18.8334375,15.46375 18.8334375,16.0878125 C18.8334375,16.854375 18.2384375,17.4765625 17.5,17.49625 Z" id="path-1"></path>
    </defs>
    <g id="funnel-dollar" stroke="none" stroke-width="1" fill="none" fill-rule="evenodd">
        <mask id="mask-2" fill="white">
            <use xlink:href="#path-1"></use>
        </mask>
        <g fill-rule="nonzero"></g>
        <g id="🎨-color" mask="url(#mask-2)" fill="#000000">
            <rect id="🎨-Color" x="0" y="0" width="24" height="24"></rect>
        </g>
    </g>
</svg>