<?xml version="1.0" encoding="UTF-8"?>
<svg width="24px" height="24px" viewBox="0 0 24 24" version="1.1" xmlns="http://www.w3.org/2000/svg" xmlns:xlink="http://www.w3.org/1999/xlink">
    <!-- Generator: Sketch 52.5 (67469) - http://www.bohemiancoding.com/sketch -->
    <title>futbol</title>
    <desc>Created with Sketch.</desc>
    <defs>
        <path d="M21.2109375,9.00781249 C19.8828125,4.91406246 16.0859375,2.31249995 12.0039063,2.31249995 C11.0117187,2.31249995 10.0039062,2.4648437 9.00781249,2.78906245 C3.92187496,4.44140621 1.1367187,9.90624999 2.78906245,14.9921875 C4.11718746,19.0859375 7.91406248,21.6875 11.9960937,21.6875 C12.9882813,21.6875 13.9960938,21.5351563 14.9921875,21.2109375 C20.078125,19.5585938 22.8632813,14.09375 21.2109375,9.00781249 Z M18.3007813,16.5742188 L16.2617188,16.8242188 L14.5546875,14.4453125 L15.5078125,11.5078125 L18.2851563,10.6445312 L19.8046875,12.0664063 C19.796875,13.265625 19.515625,14.453125 18.9570313,15.5507813 C18.7734375,15.9140625 18.5390625,16.2460938 18.3007813,16.5742188 Z M18.3007813,7.37890623 L17.8945313,9.45312499 L15.1328125,10.3125 L12.625,8.49609373 L12.625,5.61328122 L14.4765625,4.58984371 C16.0078125,5.09765622 17.34375,6.07421872 18.3007813,7.37890623 Z M9.53515624,4.59374996 L11.375,5.61328122 L11.375,8.49609373 L8.86718748,10.3125 L6.10937497,9.45312499 L5.71484372,7.40234373 C6.66406247,6.09765622 7.97656248,5.11328122 9.53515624,4.59374996 Z M7.74218748,16.8242188 L5.66796872,16.5703125 C5.10546872,15.7851563 4.21093746,14.2421875 4.19140621,12.0664063 L5.71484372,10.6445312 L8.49218748,11.5117187 L9.44140624,14.4140625 L7.74218748,16.8242188 Z M9.62499999,19.4414063 L8.74999998,17.5625 L10.453125,15.1523438 L13.5234375,15.1523438 L15.2539063,17.5625 L14.3789063,19.4414063 C14.1367188,19.5117188 12.1289063,20.2382813 9.62499999,19.4414063 Z" id="path-1"></path>
    </defs>
    <g id="futbol" stroke="none" stroke-width="1" fill="none" fill-rule="evenodd">
        <mask id="mask-2" fill="white">
            <use xlink:href="#path-1"></use>
        </mask>
        <g fill-rule="nonzero"></g>
        <g id="🎨-color" mask="url(#mask-2)" fill="#000000">
            <rect id="🎨-Color" x="0" y="0" width="24" height="24"></rect>
        </g>
    </g>
</svg>