<?xml version="1.0" encoding="UTF-8"?>
<svg width="24px" height="24px" viewBox="0 0 24 24" version="1.1" xmlns="http://www.w3.org/2000/svg" xmlns:xlink="http://www.w3.org/1999/xlink">
    <!-- Generator: Sketch 52.5 (67469) - http://www.bohemiancoding.com/sketch -->
    <title>galactic-senate</title>
    <desc>Created with Sketch.</desc>
    <defs>
        <path d="M11.7601562,3.30781246 L11.7601562,4.32617184 C11.2296875,5.13164059 10.828125,8.56796873 10.8042969,12.7382813 C11.2628906,12.128125 11.5515625,11.4363281 11.5515625,10.8539062 L11.5515625,10.1945312 C11.5503906,9.98671874 11.5808594,9.78320311 11.6371094,9.58320311 C11.6625,9.49960936 11.6914062,9.42382811 11.7394531,9.35585936 C11.7875,9.28749999 11.8734375,9.20781249 12.0003906,9.20781249 C12.1269531,9.20781249 12.2132813,9.28789061 12.2613281,9.35585936 C12.309375,9.42421874 12.3382813,9.49960936 12.3636719,9.58320311 C12.4199219,9.78320311 12.4503906,9.98671874 12.4492188,10.1945312 L12.4492188,10.8539062 C12.4492188,11.4363281 12.7378906,12.128125 13.1964844,12.7382813 C13.171875,8.56796873 12.7703125,5.13164059 12.2398438,4.32617184 L12.2398438,3.30781246 L11.7601562,3.30781246 Z M10.73125,9.08007811 C10.359375,9.16406249 10.0007812,9.28281249 9.65859374,9.43476561 C10.00625,10.0644531 10.0398437,10.7097656 9.72539061,10.8914062 C9.41289061,11.071875 8.87187498,10.7261719 8.50039061,10.1171875 C8.04804686,10.4605469 7.6457031,10.871875 7.3066406,11.3316406 C7.88203123,11.7074219 8.20078123,12.2269531 8.02226561,12.5292969 C7.84492185,12.8300781 7.23984373,12.8082031 6.63671872,12.4917969 C6.41093747,13.009375 6.25585935,13.5664063 6.1816406,14.1488281 C6.5597656,14.1558594 6.91093747,14.2417969 7.20429685,14.3847656 C7.8988281,14.3730469 8.48437498,14.3082031 8.78593748,14.2199219 C9.00273436,13.190625 9.68515624,12.3359375 10.5953125,11.8953125 C10.6238281,10.8972656 10.66875,9.95507811 10.73125,9.08007811 Z M13.26875,9.08007811 C13.3308594,9.95507811 13.3761719,10.8972656 13.4042969,11.8953125 C14.3140625,12.3359375 14.996875,13.190625 15.2136719,14.2199219 C15.5152344,14.3082031 16.1007813,14.3730469 16.7953125,14.3847656 C17.0886719,14.2417969 17.4398438,14.15625 17.8179688,14.1488281 C17.74375,13.5664063 17.5890625,13.009375 17.3628907,12.4917969 C16.7597656,12.8082031 16.1546875,12.8300781 15.9773438,12.5292969 C15.7988281,12.2269531 16.1179688,11.7070312 16.6929688,11.3316406 C16.3539063,10.871875 15.9515625,10.4605469 15.4992188,10.1171875 C15.1277344,10.7261719 14.5867188,11.071875 14.2742188,10.8914062 C13.9597656,10.7097656 13.9933594,10.0648437 14.3410156,9.43476561 C13.9960727,9.28170414 13.6369256,9.16290431 13.26875,9.08007811 Z M12,9.41601561 C11.8738281,9.41601561 11.7710937,9.76015624 11.7621094,10.1945312 L11.7601562,10.1945312 L11.7601562,10.8539062 C11.7601562,12.471875 9.84570311,14.5664063 8.10820311,14.5664063 C6.0769531,14.5664063 3.31328121,14.5097656 1.99999995,15.7058594 L1.99999995,15.8039063 C2.3679687,16.4726563 2.8039062,17.0996094 3.29609371,17.6777344 C3.78515621,16.8539063 5.31132809,16.078125 7.51562498,16.0625 C9.29999999,16.1023438 10.6027344,16.8566406 11.0609375,17.6589844 C11.0613281,17.659375 11.0605469,17.6605469 11.0609375,17.6609375 C11.3605469,17.7445313 11.6800781,17.7871094 12,17.7863282 C12.3199219,17.7871094 12.6394531,17.7445313 12.9390625,17.6609375 C12.9394531,17.6605469 12.9386719,17.659375 12.9390625,17.6589844 C13.3976563,16.8566406 14.7,16.1023438 16.484375,16.0625 C18.6886719,16.0777344 20.2144532,16.8539063 20.7039063,17.6777344 C21.1960938,17.0996094 21.6320313,16.4722656 22.0000001,15.8039063 L22.0000001,15.7058594 C20.6871094,14.5097656 17.9230469,14.5664063 15.8917969,14.5664063 C14.1542969,14.5664063 12.2398438,12.471875 12.2398438,10.8539062 L12.2398438,10.1945312 L12.2378906,10.1945312 C12.2289063,9.76015624 12.1261719,9.41601561 12,9.41601561 Z M12,13.1890625 C12.8757813,13.1890625 13.5859375,13.8992188 13.5859375,14.775 C13.5859375,15.6507813 12.8757813,16.3628906 12,16.3628906 C11.1242187,16.3628906 10.4140625,15.6507813 10.4140625,14.775 C10.4140625,13.8992188 11.1242187,13.1890625 12,13.1890625 Z M12,13.4875 C11.2894531,13.4875 10.7125,14.0644531 10.7125,14.775 C10.7125,15.4855469 11.2894531,16.0625 12,16.0625 C12.7105469,16.0625 13.2875,15.4855469 13.2875,14.775 C13.2875,14.0644531 12.7105469,13.4875 12,13.4875 Z M12,13.7273438 C12.5785156,13.7273438 13.0476563,14.1964844 13.0476563,14.775 C13.0476563,15.3535156 12.5785156,15.8226563 12,15.8226563 C11.4214844,15.8226563 10.9523437,15.3535156 10.9523437,14.775 C10.9523437,14.1964844 11.4214844,13.7273438 12,13.7273438 Z M7.51562498,16.3316406 C7.1175781,16.334375 6.67187497,16.3457031 6.32421872,16.3964844 C6.3410156,16.5691406 6.3832031,17.1242188 6.6019531,17.5589844 C6.95781247,17.4589844 7.3191406,17.4066407 7.68085935,17.4066407 C9.29335936,17.4433594 10.4730469,18.7484375 10.7378906,20.315625 L10.7421875,20.4992188 C11.1484375,20.5738282 11.5699219,20.6140625 12.0003906,20.6140625 C12.43125,20.6140625 12.8523438,20.5742188 13.2585938,20.4992188 L13.2628906,20.315625 C13.5277344,18.7484375 14.7074219,17.4433594 16.3199219,17.4066407 C16.6816406,17.4066407 17.0429688,17.4589844 17.3988282,17.5589844 C17.6175782,17.1242188 17.6597657,16.5691406 17.6765625,16.3964844 C17.3289063,16.3457031 16.8828125,16.3347656 16.4851563,16.3316406 C15.7523438,16.3480469 15.1105469,16.4945313 14.5863281,16.709375 C14.0964844,17.3355469 13.4472656,17.8824219 12.6496094,18.0011719 C12.6460938,18.0019532 12.6429688,18.0027344 12.6390625,18.003125 C12.6371094,18.0035157 12.6347656,18.0046875 12.6328125,18.0050782 C12.428125,18.046875 12.2175781,18.0675782 12.0003906,18.0675782 C11.7835937,18.0675782 11.5726562,18.046875 11.3679687,18.0050782 C11.3660156,18.0046875 11.3636719,18.0035157 11.3617187,18.003125 C11.3578125,18.0023438 11.3550781,18.0015625 11.3511719,18.0011719 C10.5535156,17.8828125 9.90468749,17.3355469 9.41445311,16.709375 C8.89023436,16.4949219 8.24804686,16.3480469 7.51562498,16.3316406 Z" id="path-1"></path>
    </defs>
    <g id="galactic-senate" stroke="none" stroke-width="1" fill="none" fill-rule="evenodd">
        <mask id="mask-2" fill="white">
            <use xlink:href="#path-1"></use>
        </mask>
        <g fill-rule="nonzero"></g>
        <g id="🎨-color" mask="url(#mask-2)" fill="#000000">
            <rect id="🎨-Color" x="0" y="0" width="24" height="24"></rect>
        </g>
    </g>
</svg>