<?xml version="1.0" encoding="UTF-8"?>
<svg width="24px" height="24px" viewBox="0 0 24 24" version="1.1" xmlns="http://www.w3.org/2000/svg" xmlns:xlink="http://www.w3.org/1999/xlink">
    <!-- Generator: Sketch 52.5 (67469) - http://www.bohemiancoding.com/sketch -->
    <title>galactic-republic</title>
    <desc>Created with Sketch.</desc>
    <defs>
        <path d="M12,21.6875 C6.6582031,21.6875 2.31249995,17.3417969 2.31249995,12 C2.31249995,6.6582031 6.6582031,2.31249995 12,2.31249995 C17.3417969,2.31249995 21.6875,6.6582031 21.6875,12 C21.6875,17.3417969 17.3417969,21.6875 12,21.6875 Z M12,2.95820308 C7.0144531,2.95820308 2.95820308,7.0144531 2.95820308,12 C2.95820308,16.9855469 7.0144531,21.0417969 12,21.0417969 C16.9855469,21.0417969 21.0417969,16.9855469 21.0417969,12 C21.0417969,7.0144531 16.9855469,2.95820308 12,2.95820308 Z M13.0789063,3.81015621 L13.0789063,4.77187496 C14.2615067,4.94612492 15.3828176,5.40956968 16.3433594,6.12109372 L17.0226563,5.44296872 C15.8996094,4.58124996 14.55,4.00195309 13.0789063,3.81015621 Z M10.9160156,3.81289058 C9.44570311,4.00585934 8.09726561,4.58632809 6.9753906,5.44765622 L7.6503906,6.12578122 L7.6535156,6.12578122 C8.59374998,5.42890622 9.70624999,4.95156246 10.9160156,4.77148434 L10.9160156,3.81289058 Z M11.3945312,5.77265622 L11.3945312,9.00976561 C11.0023437,9.08906249 10.6359375,9.24179686 10.3136719,9.45585936 L8.02382811,7.16718748 L7.16718748,8.02382811 L9.45898436,10.315625 C9.24531249,10.6371094 9.08984374,11.0027344 9.01093749,11.3945312 L5.77265622,11.3945312 L5.77265622,12.6054688 L9.01093749,12.6054688 C9.08984374,12.996875 9.24570311,13.3597656 9.45898436,13.68125 L7.16718748,15.9738281 L8.02382811,16.8304688 L10.3136719,14.540625 C10.6415703,14.7585101 11.0086459,14.9106733 11.3945312,14.9886719 L11.3945312,18.2269532 L12.6054688,18.2269532 L12.6054688,14.9886719 C12.9980469,14.909375 13.3621094,14.7519531 13.684375,14.5375 L15.9761719,16.8300781 L16.8328125,15.9734375 L14.5410156,13.6808594 C14.7542969,13.359375 14.9109375,12.9964844 14.9902344,12.6050781 L18.2273438,12.6050781 L18.2273438,11.3941406 L14.9902344,11.3941406 C14.9113281,11.0027344 14.7546875,10.6371094 14.5410156,10.3152344 L16.8328125,8.02343748 L15.9761719,7.16679685 L13.684375,9.45859374 C13.3621094,9.24414061 12.9980469,9.08867186 12.6054688,9.00937499 L12.6054688,5.77265622 L11.3945312,5.77265622 Z M18.5523438,6.97265622 L17.8742188,7.65078123 C18.5875733,8.6122768 19.0527454,9.73488841 19.2285157,10.9191406 L20.1902344,10.9191406 C19.996875,9.44687499 19.415625,8.09531248 18.5523438,6.97265622 Z M5.44492184,6.97773435 C4.58320309,8.09960936 4.00312496,9.44882811 3.81015621,10.9195312 L4.77304684,10.9195312 C4.95273434,9.71015624 5.42773434,8.59726561 6.12421872,7.65703123 L5.44492184,6.97773435 Z M3.81015621,13.0808594 C4.00234371,14.5511719 4.58164059,15.9003906 5.44296872,17.0222657 L6.12109372,16.3429688 C5.42539059,15.4027344 4.95234371,14.2894531 4.77304684,13.0804688 L3.81015621,13.0804688 L3.81015621,13.0808594 Z M19.228125,13.0808594 C19.0480469,14.2914063 18.571875,15.4050781 17.8738282,16.3464844 L18.5519532,17.0246094 C19.4144532,15.9019531 19.9964844,14.5523438 20.1898438,13.0808594 L19.228125,13.0808594 Z M7.65078123,17.8742188 L6.97265622,18.5523438 C8.09492186,19.4152344 9.44531249,19.996875 10.9164062,20.1902344 L10.9164062,19.2277344 C9.70585936,19.046875 8.59101561,18.571875 7.65078123,17.8742188 Z M16.3433594,17.8761719 C15.4023438,18.5730469 14.2894531,19.0511719 13.0789063,19.2304688 L13.0789063,20.1902344 C14.5503906,19.9980469 15.8996094,19.4171875 17.0226563,18.5554688 L16.3464844,17.8761719 L16.3433594,17.8761719 Z" id="path-1"></path>
    </defs>
    <g id="galactic-republic" stroke="none" stroke-width="1" fill="none" fill-rule="evenodd">
        <mask id="mask-2" fill="white">
            <use xlink:href="#path-1"></use>
        </mask>
        <g fill-rule="nonzero"></g>
        <g id="🎨-color" mask="url(#mask-2)" fill="#000000">
            <rect id="🎨-Color" x="0" y="0" width="24" height="24"></rect>
        </g>
    </g>
</svg>