<?xml version="1.0" encoding="UTF-8"?>
<svg width="24px" height="24px" viewBox="0 0 24 24" version="1.1" xmlns="http://www.w3.org/2000/svg" xmlns:xlink="http://www.w3.org/1999/xlink">
    <!-- Generator: Sketch 52.5 (67469) - http://www.bohemiancoding.com/sketch -->
    <title>gamepad</title>
    <desc>Created with Sketch.</desc>
    <defs>
        <path d="M17,6.99999997 L6.99999997,6.99999997 C4.23749996,6.99999997 1.99999995,9.23749999 1.99999995,12 C1.99999995,14.7625 4.23749996,17 6.99999997,17 C8.39999998,17 9.66249999,16.425 10.56875,15.5 L13.428125,15.5 C14.334375,16.425 15.6,17 16.996875,17 C19.759375,17 21.996875,14.7625 21.996875,12 C21.996875,9.23749999 19.7625,6.99999997 17,6.99999997 Z M9.99999999,12.625 C9.99999999,12.83125 9.83124999,13 9.62499999,13 L7.99999998,13 L7.99999998,14.625 C7.99999998,14.83125 7.83124998,15 7.62499998,15 L6.37499997,15 C6.16874997,15 5.99999997,14.83125 5.99999997,14.625 L5.99999997,13 L4.37499996,13 C4.16874996,13 3.99999996,12.83125 3.99999996,12.625 L3.99999996,11.375 C3.99999996,11.16875 4.16874996,11 4.37499996,11 L5.99999997,11 L5.99999997,9.37499999 C5.99999997,9.16874999 6.16874997,8.99999999 6.37499997,8.99999999 L7.62499998,8.99999999 C7.83124998,8.99999999 7.99999998,9.16874999 7.99999998,9.37499999 L7.99999998,11 L9.62499999,11 C9.83124999,11 9.99999999,11.16875 9.99999999,11.375 L9.99999999,12.625 Z M15.75,14.75 C14.921875,14.75 14.25,14.078125 14.25,13.25 C14.25,12.421875 14.921875,11.75 15.75,11.75 C16.578125,11.75 17.25,12.421875 17.25,13.25 C17.25,14.078125 16.578125,14.75 15.75,14.75 Z M18.25,12.25 C17.421875,12.25 16.75,11.578125 16.75,10.75 C16.75,9.92187499 17.421875,9.24999999 18.25,9.24999999 C19.078125,9.24999999 19.75,9.92187499 19.75,10.75 C19.75,11.578125 19.078125,12.25 18.25,12.25 Z" id="path-1"></path>
    </defs>
    <g id="gamepad" stroke="none" stroke-width="1" fill="none" fill-rule="evenodd">
        <mask id="mask-2" fill="white">
            <use xlink:href="#path-1"></use>
        </mask>
        <g fill-rule="nonzero"></g>
        <g id="🎨-color" mask="url(#mask-2)" fill="#000000">
            <rect id="🎨-Color" x="0" y="0" width="24" height="24"></rect>
        </g>
    </g>
</svg>