<?xml version="1.0" encoding="UTF-8"?>
<svg width="24px" height="24px" viewBox="0 0 24 24" version="1.1" xmlns="http://www.w3.org/2000/svg" xmlns:xlink="http://www.w3.org/1999/xlink">
    <!-- Generator: Sketch 52.5 (67469) - http://www.bohemiancoding.com/sketch -->
    <title>gas-pump</title>
    <desc>Created with Sketch.</desc>
    <defs>
        <path d="M15.125,19.5 L2.62499995,19.5 C2.28124995,19.5 1.99999995,19.78125 1.99999995,20.125 L1.99999995,21.375 C1.99999995,21.71875 2.28124995,22 2.62499995,22 L15.125,22 C15.46875,22 15.75,21.71875 15.75,21.375 L15.75,20.125 C15.75,19.78125 15.46875,19.5 15.125,19.5 Z M21.265625,6.19140622 L18.1015625,3.02734371 C17.859375,2.7851562 17.4609375,2.7851562 17.21875,3.02734371 L16.7773438,3.46874996 C16.5351563,3.71093746 16.5351563,4.10937496 16.7773438,4.35156246 L18.25,5.82421872 L18.25,8.24999998 C18.25,9.34765624 19.0664063,10.2539062 20.125,10.40625 L20.125,16.6875 C20.125,17.203125 19.703125,17.625 19.1875,17.625 C18.671875,17.625 18.25,17.203125 18.25,16.6875 L18.25,15.4375 C18.25,13.5390625 16.7109375,12 14.8125,12 L14.5,12 L14.5,4.49999996 C14.5,3.12109371 13.3789063,1.99999995 12,1.99999995 L5.74999997,1.99999995 C4.37109371,1.99999995 3.24999996,3.12109371 3.24999996,4.49999996 L3.24999996,18.25 L14.5,18.25 L14.5,13.875 L14.8125,13.875 C15.6757813,13.875 16.375,14.5742188 16.375,15.4375 L16.375,16.5234375 C16.375,17.9960938 17.4296875,19.3359375 18.8945313,19.4882813 C20.5742188,19.65625 22.0000001,18.3359375 22.0000001,16.6875 L22.0000001,7.96093748 C22.0000001,7.29687498 21.734375,6.66015622 21.265625,6.19140622 Z M12,9.49999999 L5.74999997,9.49999999 L5.74999997,4.49999996 L12,4.49999996 L12,9.49999999 Z" id="path-1"></path>
    </defs>
    <g id="gas-pump" stroke="none" stroke-width="1" fill="none" fill-rule="evenodd">
        <mask id="mask-2" fill="white">
            <use xlink:href="#path-1"></use>
        </mask>
        <g fill-rule="nonzero"></g>
        <g id="🎨-color" mask="url(#mask-2)" fill="#000000">
            <rect id="🎨-Color" x="0" y="0" width="24" height="24"></rect>
        </g>
    </g>
</svg>