<?xml version="1.0" encoding="UTF-8"?>
<svg width="24px" height="24px" viewBox="0 0 24 24" version="1.1" xmlns="http://www.w3.org/2000/svg" xmlns:xlink="http://www.w3.org/1999/xlink">
    <!-- Generator: Sketch 52.5 (67469) - http://www.bohemiancoding.com/sketch -->
    <title>gavel</title>
    <desc>Created with Sketch.</desc>
    <defs>
        <path d="M21.6875876,9.79618676 L20.8071596,8.91575874 C20.4424514,8.55105057 19.8511674,8.55105057 19.4864981,8.91575874 L19.2663814,9.13587547 L14.8641245,4.73365755 L15.0842413,4.51354082 C15.4489494,4.14883265 15.4489494,3.5575486 15.0842413,3.19287933 L14.2038132,2.3124124 C13.8391051,1.94770423 13.247821,1.94770423 12.8831518,2.3124124 L8.04070037,7.15486379 C7.6759922,7.51957196 7.6759922,8.11085601 8.04070037,8.47552527 L8.92112839,9.35595329 C9.28583656,9.72066147 9.87712061,9.72066147 10.2417899,9.35595329 L10.4619066,9.13583656 L12.0026848,10.6766148 L8.84937742,13.8299222 L8.62926068,13.6098055 C8.14299609,13.1235409 7.35463033,13.1235409 6.86836573,13.6098055 L2.40361863,18.0746304 C1.91735404,18.560895 1.91735404,19.3492607 2.40361863,19.8355253 L4.16451358,21.5964203 C4.65077817,22.0826849 5.43914394,22.0826849 5.92540853,21.5964203 L10.3901945,17.1316343 C10.8764591,16.6453697 10.8764591,15.8570039 10.3901945,15.3707393 L10.1700778,15.1506226 L13.3233852,11.9973152 L14.8641634,13.5380934 L14.6440467,13.7582101 C14.2793385,14.1229183 14.2793385,14.7142023 14.6440467,15.0788716 L15.5244747,15.9592996 C15.8891829,16.3240078 16.4804669,16.3240078 16.8451362,15.9592996 L21.6875876,11.1168482 C22.0522569,10.752179 22.0522569,10.1608949 21.6875876,9.79618676 Z" id="path-1"></path>
    </defs>
    <g id="gavel" stroke="none" stroke-width="1" fill="none" fill-rule="evenodd">
        <mask id="mask-2" fill="white">
            <use xlink:href="#path-1"></use>
        </mask>
        <g></g>
        <g id="🎨-color" mask="url(#mask-2)" fill="#000000">
            <rect id="🎨-Color" x="0" y="0" width="24" height="24"></rect>
        </g>
    </g>
</svg>