<?xml version="1.0" encoding="UTF-8"?>
<svg width="24px" height="24px" viewBox="0 0 24 24" version="1.1" xmlns="http://www.w3.org/2000/svg" xmlns:xlink="http://www.w3.org/1999/xlink">
    <!-- Generator: Sketch 52.5 (67469) - http://www.bohemiancoding.com/sketch -->
    <title>gem</title>
    <desc>Created with Sketch.</desc>
    <defs>
        <path d="M18.1111111,3.09374996 L5.88888886,3.09374996 C5.74999997,3.09374996 5.61805552,3.1631944 5.54166663,3.28124996 L2.06944439,8.39236109 C1.96874995,8.54513887 1.97916662,8.74652776 2.09374995,8.88541665 L11.6770833,20.71875 C11.84375,20.9236112 12.15625,20.9236112 12.3229167,20.71875 L21.90625,8.88541665 C22.0208334,8.74305554 22.0312501,8.54513887 21.9305556,8.39236109 L18.4618056,3.28124996 C18.3819445,3.1631944 18.2534723,3.09374996 18.1111111,3.09374996 Z M17.4409722,4.76041663 L19.6388889,8.09374998 L17.2638889,8.09374998 L15.46875,4.76041663 L17.4409722,4.76041663 Z M10.4236111,4.76041663 L13.5729167,4.76041663 L15.3680556,8.09374998 L8.63194443,8.09374998 L10.4236111,4.76041663 Z M6.55902775,4.76041663 L8.53124998,4.76041663 L6.73611108,8.09374998 L4.36111107,8.09374998 L6.55902775,4.76041663 Z M5.06597219,9.76041666 L6.85069442,9.76041666 L9.22222221,15.3159722 L5.06597219,9.76041666 Z M8.63888887,9.76041666 L15.3611111,9.76041666 L12,18.2083334 L8.63888887,9.76041666 Z M14.7777778,15.3159722 L17.1458334,9.76041666 L18.9305556,9.76041666 L14.7777778,15.3159722 Z" id="path-1"></path>
    </defs>
    <g id="gem" stroke="none" stroke-width="1" fill="none" fill-rule="evenodd">
        <mask id="mask-2" fill="white">
            <use xlink:href="#path-1"></use>
        </mask>
        <g fill-rule="nonzero"></g>
        <g id="🎨-color" mask="url(#mask-2)" fill="#000000">
            <rect id="🎨-Color" x="0" y="0" width="24" height="24"></rect>
        </g>
    </g>
</svg>