<?xml version="1.0" encoding="UTF-8"?>
<svg width="24px" height="24px" viewBox="0 0 24 24" version="1.1" xmlns="http://www.w3.org/2000/svg" xmlns:xlink="http://www.w3.org/1999/xlink">
    <!-- Generator: Sketch 52.5 (67469) - http://www.bohemiancoding.com/sketch -->
    <title>get-pocket</title>
    <desc>Created with Sketch.</desc>
    <defs>
        <path d="M19.171875,4.49999996 L4.83593746,4.49999996 C3.97265621,4.49999996 3.24999996,5.22265622 3.24999996,6.08593747 L3.24999996,11.3671875 C3.24999996,16.2382813 7.14453123,20.125 12.0078125,20.125 C16.8515625,20.125 20.75,16.2382813 20.75,11.3671875 L20.75,6.08593747 C20.75,5.21093747 20.0585938,4.49999996 19.171875,4.49999996 Z M12.84375,14.9882813 C12.359375,15.4492188 11.6171875,15.421875 11.1875,14.9882813 C6.74609372,10.734375 6.69921872,10.8828125 6.69921872,10.1757812 C6.69921872,9.51562499 7.23828123,8.97656248 7.89843748,8.97656248 C8.56249998,8.97656248 8.52734373,9.12499999 12.0078125,12.4648438 C15.546875,9.07031249 15.46875,8.97656248 16.1289063,8.97656248 C16.7890625,8.97656248 17.328125,9.51562499 17.328125,10.1757812 C17.328125,10.8710937 17.2148438,10.7890625 12.84375,14.9882813 Z" id="path-1"></path>
    </defs>
    <g id="get-pocket" stroke="none" stroke-width="1" fill="none" fill-rule="evenodd">
        <mask id="mask-2" fill="white">
            <use xlink:href="#path-1"></use>
        </mask>
        <g fill-rule="nonzero"></g>
        <g id="🎨-color" mask="url(#mask-2)" fill="#000000">
            <rect id="🎨-Color" x="0" y="0" width="24" height="24"></rect>
        </g>
    </g>
</svg>