<?xml version="1.0" encoding="UTF-8"?>
<svg width="24px" height="24px" viewBox="0 0 24 24" version="1.1" xmlns="http://www.w3.org/2000/svg" xmlns:xlink="http://www.w3.org/1999/xlink">
    <!-- Generator: Sketch 52.5 (67469) - http://www.bohemiancoding.com/sketch -->
    <title>gg-circle</title>
    <desc>Created with Sketch.</desc>
    <defs>
        <path d="M12.0390625,2.31249995 C6.68749997,2.31249995 2.35156245,6.64843747 2.35156245,12 C2.35156245,17.3515625 6.68749997,21.6875 12.0390625,21.6875 C17.390625,21.6875 21.7265625,17.3515625 21.7265625,12 C21.7265625,6.64843747 17.390625,2.31249995 12.0390625,2.31249995 Z M10.1054687,16.953125 L5.19531247,12.0429688 L10.1054687,7.13281248 L11.4804687,8.51562498 L10.5351562,9.46093749 L10.1015625,9.02734374 L7.08593748,12.0429688 L10.1015625,15.0585938 L11.140625,14.0195313 L9.06640624,11.953125 L10.0195312,11 L13.0351563,14.015625 L10.1054687,16.953125 Z M13.9726563,16.8671875 L12.5976563,15.4921875 L13.5390625,14.5390625 L13.9726563,14.9726563 L16.9882813,11.9570312 L13.9726563,8.94140623 L12.9375,9.97656249 L15.0117188,12.0429688 L14.0585938,12.9960938 L11.0429687,9.98046874 L13.9726563,7.05078123 L18.8828125,11.9609375 L13.9726563,16.8671875 Z" id="path-1"></path>
    </defs>
    <g id="gg-circle" stroke="none" stroke-width="1" fill="none" fill-rule="evenodd">
        <mask id="mask-2" fill="white">
            <use xlink:href="#path-1"></use>
        </mask>
        <g fill-rule="nonzero"></g>
        <g id="🎨-color" mask="url(#mask-2)" fill="#000000">
            <rect id="🎨-Color" x="0" y="0" width="24" height="24"></rect>
        </g>
    </g>
</svg>