<?xml version="1.0" encoding="UTF-8"?>
<svg width="24px" height="24px" viewBox="0 0 24 24" version="1.1" xmlns="http://www.w3.org/2000/svg" xmlns:xlink="http://www.w3.org/1999/xlink">
    <!-- Generator: Sketch 52.5 (67469) - http://www.bohemiancoding.com/sketch -->
    <title>ghost</title>
    <desc>Created with Sketch.</desc>
    <defs>
        <path d="M11.7695312,2.00351558 C7.6644531,2.12656245 4.49999996,5.70781247 4.49999996,9.81445311 L4.49999996,20.1238282 C4.49999996,20.6808594 5.17304684,20.959375 5.56679684,20.565625 L6.54023435,19.8417969 C6.8003906,19.6484375 7.16523435,19.6859375 7.38046873,19.928125 L9.05820311,21.8167969 C9.30234374,22.0609376 9.69804686,22.0609376 9.94218749,21.8167969 L11.5328125,20.0257813 C11.7816406,19.7457032 12.21875,19.7457032 12.4671875,20.0257813 L14.0578125,21.8167969 C14.3019531,22.0609376 14.6976563,22.0609376 14.9417969,21.8167969 L16.6195313,19.928125 C16.8347656,19.6859375 17.1996094,19.6480469 17.4597657,19.8417969 L18.4332032,20.565625 C18.8269532,20.959375 19.5,20.6804688 19.5,20.1238282 L19.5,9.49999999 C19.5,5.28124997 16.0167969,1.87617182 11.7695312,2.00351558 Z M9.49999999,10.75 C8.80976561,10.75 8.24999998,10.1902344 8.24999998,9.49999999 C8.24999998,8.80976561 8.80976561,8.24999998 9.49999999,8.24999998 C10.1902344,8.24999998 10.75,8.80976561 10.75,9.49999999 C10.75,10.1902344 10.1902344,10.75 9.49999999,10.75 Z M14.5,10.75 C13.8097656,10.75 13.25,10.1902344 13.25,9.49999999 C13.25,8.80976561 13.8097656,8.24999998 14.5,8.24999998 C15.1902344,8.24999998 15.75,8.80976561 15.75,9.49999999 C15.75,10.1902344 15.1902344,10.75 14.5,10.75 Z" id="path-1"></path>
    </defs>
    <g id="ghost" stroke="none" stroke-width="1" fill="none" fill-rule="evenodd">
        <mask id="mask-2" fill="white">
            <use xlink:href="#path-1"></use>
        </mask>
        <g fill-rule="nonzero"></g>
        <g id="🎨-color" mask="url(#mask-2)" fill="#000000">
            <rect id="🎨-Color" x="0" y="0" width="24" height="24"></rect>
        </g>
    </g>
</svg>