<?xml version="1.0" encoding="UTF-8"?>
<svg width="24px" height="24px" viewBox="0 0 24 24" version="1.1" xmlns="http://www.w3.org/2000/svg" xmlns:xlink="http://www.w3.org/1999/xlink">
    <!-- Generator: Sketch 52.5 (67469) - http://www.bohemiancoding.com/sketch -->
    <title>gift</title>
    <desc>Created with Sketch.</desc>
    <defs>
        <path d="M3.24999996,19.5 C3.24999996,20.1914063 3.80859371,20.75 4.49999996,20.75 L10.75,20.75 L10.75,14.5 L3.24999996,14.5 L3.24999996,19.5 Z M20.75,8.24999998 L19.1054688,8.24999998 C19.3476563,7.77734373 19.5,7.25390623 19.5,6.68749997 C19.5,4.79296871 17.9570313,3.24999996 16.0625,3.24999996 C14.4375,3.24999996 13.3867188,4.08203121 12.0390625,5.91796872 C10.6914062,4.08203121 9.64062499,3.24999996 8.01562498,3.24999996 C6.12109372,3.24999996 4.57812496,4.79296871 4.57812496,6.68749997 C4.57812496,7.25390623 4.72656246,7.77734373 4.97265621,8.24999998 L3.24999996,8.24999998 C2.5585937,8.24999998 1.99999995,8.80859373 1.99999995,9.49999999 L1.99999995,12.625 C1.99999995,12.96875 2.28124995,13.25 2.62499995,13.25 L21.375,13.25 C21.71875,13.25 22.0000001,12.96875 22.0000001,12.625 L22.0000001,9.49999999 C22.0000001,8.80859373 21.4414063,8.24999998 20.75,8.24999998 Z M8.01171873,8.24999998 C7.14843748,8.24999998 6.44921872,7.55078123 6.44921872,6.68749997 C6.44921872,5.82421872 7.14843748,5.12499997 8.01171873,5.12499997 C8.78906248,5.12499997 9.36328124,5.25390622 11.375,8.24999998 L8.01171873,8.24999998 Z M16.0625,8.24999998 L12.6992188,8.24999998 C14.7070313,5.26171872 15.265625,5.12499997 16.0625,5.12499997 C16.9257813,5.12499997 17.625,5.82421872 17.625,6.68749997 C17.625,7.55078123 16.9257813,8.24999998 16.0625,8.24999998 Z M13.25,20.75 L19.5,20.75 C20.1914063,20.75 20.75,20.1914063 20.75,19.5 L20.75,14.5 L13.25,14.5 L13.25,20.75 Z" id="path-1"></path>
    </defs>
    <g id="gift" stroke="none" stroke-width="1" fill="none" fill-rule="evenodd">
        <mask id="mask-2" fill="white">
            <use xlink:href="#path-1"></use>
        </mask>
        <g fill-rule="nonzero"></g>
        <g id="🎨-color" mask="url(#mask-2)" fill="#000000">
            <rect id="🎨-Color" x="0" y="0" width="24" height="24"></rect>
        </g>
    </g>
</svg>