<?xml version="1.0" encoding="UTF-8"?>
<svg width="24px" height="24px" viewBox="0 0 24 24" version="1.1" xmlns="http://www.w3.org/2000/svg" xmlns:xlink="http://www.w3.org/1999/xlink">
    <!-- Generator: Sketch 52.5 (67469) - http://www.bohemiancoding.com/sketch -->
    <title>git-square</title>
    <desc>Created with Sketch.</desc>
    <defs>
        <path d="M8.72265623,15.6132813 C9.19531249,15.6132813 9.87499999,15.6953125 9.87499999,16.3125 C9.87499999,16.9179688 9.33203124,17.046875 8.82031248,17.046875 C8.33984373,17.046875 7.61328123,16.96875 7.61328123,16.34375 C7.61328123,15.71875 8.22656248,15.6132813 8.72265623,15.6132813 Z M7.75781248,11.0585937 C7.75781248,11.6367187 8.01562498,12 8.62890623,12 C9.23437499,12 9.45703124,11.609375 9.45703124,11.0429687 C9.46093749,9.69921874 7.75781248,9.68359374 7.75781248,11.0585937 Z M20.75,5.12499997 L20.75,18.875 C20.75,19.9101563 19.9101563,20.75 18.875,20.75 L5.12499997,20.75 C4.08984371,20.75 3.24999996,19.9101563 3.24999996,18.875 L3.24999996,5.12499997 C3.24999996,4.08984371 4.08984371,3.24999996 5.12499997,3.24999996 L18.875,3.24999996 C19.9101563,3.24999996 20.75,4.08984371 20.75,5.12499997 Z M11.3359375,8.78515623 C10.8554687,8.97265623 10.3398437,9.11328124 9.81640624,9.11328124 C8.31249998,8.24999998 6.27343747,9.14843749 6.27343747,11.046875 C6.27343747,11.75 6.72656247,12.7226563 7.42968748,12.9570313 L7.42968748,12.984375 C6.90624997,13.2148438 6.76171872,14.3945313 7.45703123,14.8203125 L7.45703123,14.8476563 C6.69531247,15.0976563 6.19531247,15.5820313 6.19531247,16.4179688 C6.19531247,17.8554688 7.55468748,18.2539063 8.74999998,18.2539063 C10.1992187,18.2539063 11.28125,17.7304688 11.28125,16.1328125 C11.28125,14.1640625 8.46484373,14.890625 8.46484373,13.8242188 C8.46484373,13.4492188 8.66796873,13.3007813 9.01562499,13.2304688 C10.171875,13.015625 10.8984375,12.1132813 10.8984375,10.9375 C10.8984375,10.734375 10.8554687,10.5390625 10.7851562,10.3515625 C10.9726562,10.3085937 11.15625,10.2617187 11.3359375,10.1992187 L11.3359375,8.78515623 Z M13.5546875,8.85546873 L12.0078125,8.85546873 C12.0585938,9.26953124 12.0507813,14.4257813 12.0078125,14.9296875 L13.5546875,14.9296875 C13.5117188,14.4296875 13.5078125,9.26171874 13.5546875,8.85546873 Z M13.7304688,6.77343747 C13.7304688,6.24999997 13.3398438,5.74999997 12.7890625,5.74999997 C12.2304688,5.74999997 11.828125,6.23828122 11.828125,6.77343747 C11.828125,7.30468748 12.2382813,7.78515623 12.7890625,7.78515623 C13.3242188,7.78515623 13.7304688,7.29687498 13.7304688,6.77343747 Z M17.8046875,8.85546873 L16.3828125,8.85546873 C16.3828125,8.47265623 16.3671875,8.08984373 16.4257813,7.70312498 L14.84375,7.70312498 C14.8945313,7.98828123 14.8867188,8.23437498 14.8867188,8.85546873 L14.21875,8.85546873 L14.21875,10.1796875 C14.6835938,10.1054687 14.6914063,10.1523437 14.8867188,10.1523437 L14.8867188,10.1796875 L14.8710938,10.1796875 L14.8710938,12.6289063 C14.8710938,13.84375 15.046875,15.0195313 16.5390625,15.0195313 C16.9570313,15.0195313 17.4375,14.9492188 17.8085938,14.7460938 L17.8085938,13.3789063 C17.5859375,13.53125 17.265625,13.609375 16.9921875,13.609375 C16.4765625,13.609375 16.3867188,13.1054688 16.3867188,12.6953125 L16.3867188,10.1484375 C17.2734375,10.1484375 17.8085938,10.1757812 17.8085938,10.1757812 L17.8085938,8.85546873 L17.8046875,8.85546873 Z" id="path-1"></path>
    </defs>
    <g id="git-square" stroke="none" stroke-width="1" fill="none" fill-rule="evenodd">
        <mask id="mask-2" fill="white">
            <use xlink:href="#path-1"></use>
        </mask>
        <g fill-rule="nonzero"></g>
        <g id="🎨-color" mask="url(#mask-2)" fill="#000000">
            <rect id="🎨-Color" x="0" y="0" width="24" height="24"></rect>
        </g>
    </g>
</svg>