<?xml version="1.0" encoding="UTF-8"?>
<svg width="24px" height="24px" viewBox="0 0 24 24" version="1.1" xmlns="http://www.w3.org/2000/svg" xmlns:xlink="http://www.w3.org/1999/xlink">
    <!-- Generator: Sketch 52.5 (67469) - http://www.bohemiancoding.com/sketch -->
    <title>git</title>
    <desc>Created with Sketch.</desc>
    <defs>
        <path d="M3.98437496,10.6601562 C3.98437496,11.6484375 4.61718746,13.0039063 5.60546872,13.3359375 L5.60546872,13.375 C4.87109371,13.6992188 4.66796871,15.3515625 5.64453122,15.9453125 L5.64453122,15.984375 C4.57812496,16.3359375 3.87499996,17.0117188 3.87499996,18.1796875 C3.87499996,20.1914063 5.78124997,20.75 7.44921873,20.75 C9.48046874,20.75 10.9921875,20.0195313 10.9921875,17.78125 C10.9921875,15.0273438 7.04687498,16.0429688 7.04687498,14.546875 C7.04687498,14.0195313 7.32812498,13.8164063 7.81640623,13.7148438 C9.43749999,13.4140625 10.453125,12.1523438 10.453125,10.5039062 C10.453125,10.21875 10.3945312,9.94921874 10.296875,9.68359374 C10.5585937,9.62499999 10.8125,9.55468749 11.0664062,9.46874999 L11.0664062,7.49609373 C10.3945312,7.76171873 9.67187499,7.95703123 8.93749998,7.95703123 C6.83593747,6.74609372 3.98437496,8.00781248 3.98437496,10.6601562 Z M7.41015623,17.0585938 C8.07421873,17.0585938 9.01953124,17.1757813 9.01953124,18.0351563 C9.01953124,18.8867188 8.25781248,19.0625 7.54687498,19.0625 C6.87109372,19.0625 5.85546872,18.9570313 5.85546872,18.078125 C5.85937497,17.2070313 6.71874997,17.0585938 7.41015623,17.0585938 Z M7.28515623,12 C6.42578122,12 6.06249997,11.4921875 6.06249997,10.6796875 C6.06249997,8.75390623 8.44531248,8.77343748 8.44531248,10.6601562 C8.44531248,11.453125 8.13281248,12 7.28515623,12 Z M20.125,13.9335938 L20.125,15.8476563 C19.6054688,16.1328125 18.9335938,16.2304688 18.3476563,16.2304688 C16.2578125,16.2304688 16.0117188,14.5820313 16.0117188,12.8828125 L16.0117188,9.45703124 L16.03125,9.45703124 L16.03125,9.41796874 C15.7578125,9.41796874 15.7460938,9.35546874 15.09375,9.45703124 L15.09375,7.60156248 L16.03125,7.60156248 C16.03125,6.73046872 16.0429688,6.39062497 15.9726563,5.99218747 L18.1875,5.99218747 C18.109375,6.53124997 18.1289063,7.06640623 18.1289063,7.60156248 L20.1210938,7.60156248 L20.1210938,9.45703124 C20.1210938,9.45703124 19.3671875,9.41796874 18.1289063,9.41796874 L18.1289063,12.9765625 C18.1289063,13.5546875 18.2578125,14.2578125 18.9804688,14.2578125 C19.3632813,14.2578125 19.8125,14.1484375 20.125,13.9335938 Z M14.421875,4.68359371 C14.421875,5.41406247 13.8554688,6.09765622 13.1015625,6.09765622 C12.328125,6.09765622 11.7539062,5.42578122 11.7539062,4.68359371 C11.7539062,3.92968746 12.3203125,3.24999996 13.1015625,3.24999996 C13.875,3.24999996 14.421875,3.95312496 14.421875,4.68359371 Z M14.1796875,7.59374998 C14.109375,8.16406248 14.1171875,15.3984375 14.1796875,16.1015625 L12.0117188,16.1015625 C12.0742188,15.3945313 12.0820313,8.17187498 12.0117188,7.59374998 L14.1796875,7.59374998 Z" id="path-1"></path>
    </defs>
    <g id="git" stroke="none" stroke-width="1" fill="none" fill-rule="evenodd">
        <mask id="mask-2" fill="white">
            <use xlink:href="#path-1"></use>
        </mask>
        <g fill-rule="nonzero"></g>
        <g id="🎨-color" mask="url(#mask-2)" fill="#000000">
            <rect id="🎨-Color" x="0" y="0" width="24" height="24"></rect>
        </g>
    </g>
</svg>