<?xml version="1.0" encoding="UTF-8"?>
<svg width="24px" height="24px" viewBox="0 0 24 24" version="1.1" xmlns="http://www.w3.org/2000/svg" xmlns:xlink="http://www.w3.org/1999/xlink">
    <!-- Generator: Sketch 52.5 (67469) - http://www.bohemiancoding.com/sketch -->
    <title>github-alt</title>
    <desc>Created with Sketch.</desc>
    <defs>
        <path d="M9.89453124,14.8398438 C9.89453124,15.65625 9.46874999,16.9921875 8.46093748,16.9921875 C7.45312498,16.9921875 7.02734373,15.65625 7.02734373,14.8398438 C7.02734373,14.0234375 7.45312498,12.6875 8.46093748,12.6875 C9.46874999,12.6875 9.89453124,14.0234375 9.89453124,14.8398438 Z M21.375,12.8671875 C21.375,14.1132813 21.25,15.4335938 20.6914063,16.578125 C19.2109375,19.5703125 15.140625,19.5 12.2265625,19.5 C9.26562499,19.5 4.95312496,19.6054688 3.41406246,16.578125 C2.84374995,15.4453125 2.62499995,14.1132813 2.62499995,12.8671875 C2.62499995,11.2304687 3.16796871,9.68359374 4.24609371,8.42968748 C4.04296871,7.81249998 3.94531246,7.16406248 3.94531246,6.52343747 C3.94531246,5.68359372 4.13671871,5.26171872 4.51562496,4.49999996 C6.28515622,4.49999996 7.41796873,4.85156246 8.76562498,5.90624997 C9.89843749,5.63671872 11.0625,5.51562497 12.2304688,5.51562497 C13.2851563,5.51562497 14.3476563,5.62890622 15.3710938,5.87499997 C16.6992188,4.83203121 17.8320313,4.49999996 19.5820313,4.49999996 C19.9648438,5.26171872 20.1523438,5.68359372 20.1523438,6.52343747 C20.1523438,7.16406248 20.0507813,7.80078123 19.8515625,8.40624998 C20.9257813,9.67187499 21.375,11.2304687 21.375,12.8671875 Z M18.8632813,14.8398438 C18.8632813,13.125 17.8203125,11.6132812 15.9921875,11.6132812 C15.2539063,11.6132812 14.546875,11.7460937 13.8046875,11.8476562 C13.2226563,11.9375 12.640625,11.9726562 12.0429688,11.9726562 C11.4492187,11.9726562 10.8671875,11.9375 10.28125,11.8476562 C9.55078124,11.7460937 8.83593748,11.6132812 8.09374998,11.6132812 C6.26562497,11.6132812 5.22265622,13.125 5.22265622,14.8398438 C5.22265622,18.2695313 8.36328123,18.796875 11.0976562,18.796875 L12.9804688,18.796875 C15.7265625,18.796875 18.8632813,18.2734375 18.8632813,14.8398438 Z M15.6367188,12.6875 C14.6289063,12.6875 14.203125,14.0234375 14.203125,14.8398438 C14.203125,15.65625 14.6289063,16.9921875 15.6367188,16.9921875 C16.6445313,16.9921875 17.0703125,15.65625 17.0703125,14.8398438 C17.0703125,14.0234375 16.6445313,12.6875 15.6367188,12.6875 Z" id="path-1"></path>
    </defs>
    <g id="github-alt" stroke="none" stroke-width="1" fill="none" fill-rule="evenodd">
        <mask id="mask-2" fill="white">
            <use xlink:href="#path-1"></use>
        </mask>
        <g fill-rule="nonzero"></g>
        <g id="🎨-color" mask="url(#mask-2)" fill="#000000">
            <rect id="🎨-Color" x="0" y="0" width="24" height="24"></rect>
        </g>
    </g>
</svg>