<?xml version="1.0" encoding="UTF-8"?>
<svg width="24px" height="24px" viewBox="0 0 24 24" version="1.1" xmlns="http://www.w3.org/2000/svg" xmlns:xlink="http://www.w3.org/1999/xlink">
    <!-- Generator: Sketch 52.5 (67469) - http://www.bohemiancoding.com/sketch -->
    <title>github</title>
    <desc>Created with Sketch.</desc>
    <defs>
        <path d="M8.79296873,17.5234375 C8.79296873,17.6015625 8.70312498,17.6640625 8.58984373,17.6640625 C8.46093748,17.6757813 8.37109373,17.6132813 8.37109373,17.5234375 C8.37109373,17.4453125 8.46093748,17.3828125 8.57421873,17.3828125 C8.69140623,17.3710938 8.79296873,17.4335938 8.79296873,17.5234375 Z M7.57812498,17.3476563 C7.55078123,17.4257813 7.62890623,17.515625 7.74609373,17.5390625 C7.84765623,17.578125 7.96484373,17.5390625 7.98828123,17.4609375 C8.01171873,17.3828125 7.93749998,17.2929688 7.82031248,17.2578125 C7.71874998,17.2304688 7.60546873,17.2695313 7.57812498,17.3476563 Z M9.30468749,17.28125 C9.19140624,17.3085938 9.11328124,17.3828125 9.12499999,17.4726563 C9.13671874,17.5507813 9.23828124,17.6015625 9.35546874,17.5742188 C9.46874999,17.546875 9.54687499,17.4726563 9.53515624,17.3945313 C9.52343749,17.3203125 9.41796874,17.2695313 9.30468749,17.28125 Z M11.875,2.31249995 C6.45703122,2.31249995 2.31249995,6.42578122 2.31249995,11.84375 C2.31249995,16.1757813 5.03906247,19.8828125 8.93359373,21.1875 C9.43359374,21.2773438 9.60937499,20.96875 9.60937499,20.7148438 C9.60937499,20.4726563 9.59765624,19.1367188 9.59765624,18.3164063 C9.59765624,18.3164063 6.86328122,18.9023438 6.28906247,17.1523438 C6.28906247,17.1523438 5.84374997,16.015625 5.20312497,15.7226563 C5.20312497,15.7226563 4.30859371,15.109375 5.26562497,15.1210938 C5.26562497,15.1210938 6.23828122,15.1992188 6.77343747,16.1289063 C7.62890623,17.6367188 9.06249999,17.203125 9.62109374,16.9453125 C9.71093749,16.3203125 9.96484374,15.8867188 10.2460937,15.6289063 C8.06249998,15.3867188 5.85937497,15.0703125 5.85937497,11.3125 C5.85937497,10.2382812 6.15624997,9.69921874 6.78124997,9.01171874 C6.67968747,8.75781248 6.34765622,7.71093748 6.88281247,6.35937497 C7.69921873,6.10546872 9.57812499,7.41406248 9.57812499,7.41406248 C10.359375,7.19531248 11.1992187,7.08203123 12.03125,7.08203123 C12.8632813,7.08203123 13.703125,7.19531248 14.484375,7.41406248 C14.484375,7.41406248 16.3632813,6.10156247 17.1796875,6.35937497 C17.7148438,7.71484373 17.3828125,8.75781248 17.28125,9.01171874 C17.90625,9.70312499 18.2890625,10.2421875 18.2890625,11.3125 C18.2890625,15.0820313 15.9882813,15.3828125 13.8046875,15.6289063 C14.1640625,15.9375 14.46875,16.5234375 14.46875,17.4414063 C14.46875,18.7578125 14.4570313,20.3867188 14.4570313,20.7070313 C14.4570313,20.9609375 14.6367188,21.2695313 15.1328125,21.1796875 C19.0390625,19.8828125 21.6875,16.1757813 21.6875,11.84375 C21.6875,6.42578122 17.2929688,2.31249995 11.875,2.31249995 Z M6.10937497,15.7851563 C6.05859372,15.8242188 6.07031247,15.9140625 6.13671872,15.9882813 C6.19921872,16.0507813 6.28906247,16.078125 6.33984372,16.0273438 C6.39062497,15.9882813 6.37890622,15.8984375 6.31249997,15.8242188 C6.24999997,15.7617188 6.16015622,15.734375 6.10937497,15.7851563 Z M5.68749997,15.46875 C5.66015622,15.5195313 5.69921872,15.5820313 5.77734372,15.6210938 C5.83984372,15.6601563 5.91796872,15.6484375 5.94531247,15.59375 C5.97265622,15.5429688 5.93359372,15.4804688 5.85546872,15.4414063 C5.77734372,15.4179688 5.71484372,15.4296875 5.68749997,15.46875 Z M6.95312497,16.859375 C6.89062497,16.9101563 6.91406247,17.0273438 7.00390623,17.1015625 C7.09374998,17.1914063 7.20703123,17.203125 7.25781248,17.140625 C7.30859373,17.0898438 7.28515623,16.9726563 7.20703123,16.8984375 C7.12109373,16.8085938 7.00390623,16.796875 6.95312497,16.859375 Z M6.50781247,16.2851563 C6.44531247,16.3242188 6.44531247,16.4257813 6.50781247,16.515625 C6.57031247,16.6054688 6.67578122,16.6445313 6.72656247,16.6054688 C6.78906247,16.5546875 6.78906247,16.453125 6.72656247,16.3632813 C6.67187497,16.2734375 6.57031247,16.234375 6.50781247,16.2851563 Z" id="path-1"></path>
    </defs>
    <g id="github" stroke="none" stroke-width="1" fill="none" fill-rule="evenodd">
        <mask id="mask-2" fill="white">
            <use xlink:href="#path-1"></use>
        </mask>
        <g fill-rule="nonzero"></g>
        <g id="🎨-color" mask="url(#mask-2)" fill="#000000">
            <rect id="🎨-Color" x="0" y="0" width="24" height="24"></rect>
        </g>
    </g>
</svg>