<?xml version="1.0" encoding="UTF-8"?>
<svg width="24px" height="24px" viewBox="0 0 24 24" version="1.1" xmlns="http://www.w3.org/2000/svg" xmlns:xlink="http://www.w3.org/1999/xlink">
    <!-- Generator: Sketch 52.5 (67469) - http://www.bohemiancoding.com/sketch -->
    <title>github-square</title>
    <desc>Created with Sketch.</desc>
    <defs>
        <path d="M18.875,3.24999996 L5.12499997,3.24999996 C4.08984371,3.24999996 3.24999996,4.08984371 3.24999996,5.12499997 L3.24999996,18.875 C3.24999996,19.9101563 4.08984371,20.75 5.12499997,20.75 L18.875,20.75 C19.9101563,20.75 20.75,19.9101563 20.75,18.875 L20.75,5.12499997 C20.75,4.08984371 19.9101563,3.24999996 18.875,3.24999996 Z M14.0820313,18.2382813 C13.7539063,18.296875 13.6328125,18.09375 13.6328125,17.9257813 C13.6328125,17.7148438 13.640625,16.6367188 13.640625,15.765625 C13.640625,15.15625 13.4375,14.7695313 13.1992188,14.5664063 C14.6445313,14.40625 16.1679688,14.2070313 16.1679688,11.7109375 C16.1679688,11 15.9140625,10.6445312 15.5,10.1875 C15.5664063,10.0195312 15.7890625,9.32812499 15.4335938,8.42968748 C14.890625,8.26171873 13.6484375,9.12890624 13.6484375,9.12890624 C13.1328125,8.98437498 12.5742188,8.91015623 12.0234375,8.91015623 C11.4726562,8.91015623 10.9140625,8.98437498 10.3984375,9.12890624 C10.3984375,9.12890624 9.15624999,8.26171873 8.61328123,8.42968748 C8.25781248,9.32421874 8.47656248,10.015625 8.54687498,10.1875 C8.13281248,10.6445312 7.93749998,11 7.93749998,11.7109375 C7.93749998,14.1953125 9.39453124,14.40625 10.8398437,14.5664063 C10.6523437,14.734375 10.484375,15.0234375 10.4257812,15.4375 C10.0546875,15.6054688 9.10546874,15.8945313 8.53906248,14.8945313 C8.18359373,14.2773438 7.54296873,14.2265625 7.54296873,14.2265625 C6.91015622,14.21875 7.49999998,14.625 7.49999998,14.625 C7.92187498,14.8203125 8.21874998,15.5703125 8.21874998,15.5703125 C8.59765623,16.7304688 10.4101562,16.3398438 10.4101562,16.3398438 C10.4101562,16.8828125 10.4179687,17.765625 10.4179687,17.9257813 C10.4179687,18.09375 10.3007812,18.296875 9.96874999,18.2382813 C7.39062498,17.375 5.58593747,14.921875 5.58593747,12.0546875 C5.58593747,8.46874998 8.32812498,5.74609372 11.9140625,5.74609372 C15.5,5.74609372 18.40625,8.46874998 18.40625,12.0546875 C18.4101563,14.921875 16.6601563,17.3789063 14.0820313,18.2382813 Z M10.25,15.8515625 C10.1757812,15.8671875 10.1054687,15.8359375 10.0976562,15.7851563 C10.0898437,15.7265625 10.140625,15.6757813 10.2148437,15.6601563 C10.2890625,15.6523438 10.359375,15.6835938 10.3671875,15.734375 C10.3789062,15.7851563 10.328125,15.8359375 10.25,15.8515625 Z M9.87890624,15.8164063 C9.87890624,15.8671875 9.82031249,15.9101563 9.74218749,15.9101563 C9.65624999,15.9179688 9.59765624,15.875 9.59765624,15.8164063 C9.59765624,15.765625 9.65624999,15.7226563 9.73437499,15.7226563 C9.80859374,15.7148438 9.87890624,15.7578125 9.87890624,15.8164063 Z M9.34374999,15.7734375 C9.32812499,15.8242188 9.24999999,15.8476563 9.18359374,15.8242188 C9.10937499,15.8085938 9.05859374,15.75 9.07421874,15.6992188 C9.08984374,15.6484375 9.16796874,15.625 9.23437499,15.640625 C9.31249999,15.6640625 9.36328124,15.7226563 9.34374999,15.7734375 Z M8.86328123,15.5625 C8.82812498,15.6054688 8.75390623,15.5976563 8.69531248,15.5390625 C8.63671873,15.4882813 8.62109373,15.4140625 8.66015623,15.3789063 C8.69531248,15.3359375 8.76953123,15.34375 8.82812498,15.4023438 C8.87890623,15.453125 8.89843748,15.53125 8.86328123,15.5625 Z M8.50781248,15.2070313 C8.47265623,15.2304688 8.40624998,15.2070313 8.36328123,15.1484375 C8.32031248,15.0898438 8.32031248,15.0234375 8.36328123,14.9960938 C8.40624998,14.9609375 8.47265623,14.9882813 8.50781248,15.046875 C8.55078123,15.1054688 8.55078123,15.1757813 8.50781248,15.2070313 Z M8.25390623,14.828125 C8.21874998,14.8632813 8.16015623,14.84375 8.11718748,14.8046875 C8.07421873,14.7539063 8.06640623,14.6953125 8.10156248,14.6679688 C8.13671873,14.6328125 8.19531248,14.6523438 8.23828123,14.6914063 C8.28124998,14.7421875 8.28906248,14.8007813 8.25390623,14.828125 Z M7.99218748,14.5390625 C7.97656248,14.5742188 7.92578123,14.5820313 7.88281248,14.5546875 C7.83203123,14.53125 7.80859373,14.4882813 7.82421873,14.453125 C7.83984373,14.4296875 7.88281248,14.4179688 7.93359373,14.4375 C7.98437498,14.4648438 8.00781248,14.5078125 7.99218748,14.5390625 Z" id="path-1"></path>
    </defs>
    <g id="github-square" stroke="none" stroke-width="1" fill="none" fill-rule="evenodd">
        <mask id="mask-2" fill="white">
            <use xlink:href="#path-1"></use>
        </mask>
        <g fill-rule="nonzero"></g>
        <g id="🎨-color" mask="url(#mask-2)" fill="#000000">
            <rect id="🎨-Color" x="0" y="0" width="24" height="24"></rect>
        </g>
    </g>
</svg>