<?xml version="1.0" encoding="UTF-8"?>
<svg width="24px" height="24px" viewBox="0 0 24 24" version="1.1" xmlns="http://www.w3.org/2000/svg" xmlns:xlink="http://www.w3.org/1999/xlink">
    <!-- Generator: Sketch 52.5 (67469) - http://www.bohemiancoding.com/sketch -->
    <title>gitkraken</title>
    <desc>Created with Sketch.</desc>
    <defs>
        <path d="M21.1114865,7.34121619 C21.0337838,7.13513511 20.7972973,7.03040538 20.5945946,7.11824322 C20.4020271,7.1993243 20.3074325,7.4189189 20.3817568,7.61148646 C20.75,8.5912162 20.9527027,9.65540539 20.9527027,10.7635135 C20.9527027,15.3108108 17.5641892,19.0641892 13.1756757,19.6385136 L13.1756757,15.4594595 C13.4425676,15.4087838 13.6993243,15.3378379 13.9527027,15.25 L13.9527027,18.7635135 C17.5574325,17.8885135 20.2331081,14.6385135 20.2331081,10.7635135 C20.2331081,7.66216214 18.5168919,4.95945942 15.9831081,3.55743239 C15.7905406,3.44932428 15.5439189,3.52702698 15.445946,3.72635131 C15.3547297,3.91216212 15.4256757,4.13851347 15.6047297,4.23648645 C17.8986487,5.50675672 19.4527027,7.95270268 19.4527027,10.7635135 C19.4527027,13.9155406 17.4966216,16.6114865 14.7297297,17.7027027 L14.7297297,14.5878379 C15.2094595,14.4358108 15.570946,13.9898649 15.570946,13.4560811 C15.570946,13.0135135 15.3412162,12.6317568 14.9864865,12.4256757 C15.2668919,9.73986485 16.4898649,10.4459459 16.4898649,9.5912162 L16.4898649,9.09459458 C16.4898649,7.81081079 13.5202703,3.62837834 12.1317568,3.53040536 C12.0472973,3.52364861 11.9628378,3.52364861 11.875,3.53040536 C10.4831081,3.63175671 7.51351349,7.81081079 7.51351349,9.09459458 L7.51351349,9.59459458 C7.51351349,10.4493243 8.73986485,9.73986485 9.01689188,12.4290541 C8.65878377,12.6351351 8.43243241,13.0168919 8.43243241,13.4594595 C8.43243241,13.9932433 8.79054052,14.4391892 9.27027026,14.5912162 L9.27027026,17.7060811 C6.50337835,16.6182433 4.54729726,13.9222973 4.54729726,10.7668919 C4.54729726,7.95945944 6.10135132,5.51351348 8.39527025,4.23986483 C8.57770269,4.13851347 8.64527025,3.9155405 8.55405404,3.72972969 C8.45608106,3.53040536 8.21283782,3.45270266 8.01689187,3.56081077 C5.48310808,4.9628378 3.76689185,7.66554052 3.76689185,10.7668919 C3.76689185,14.6418919 6.44256754,17.8885135 10.0472973,18.7668919 L10.0472973,15.2533784 C10.304054,15.3378379 10.5574324,15.4087838 10.8243243,15.4628379 L10.8243243,19.6418919 C6.43918916,19.0675676 3.04729725,15.3141892 3.04729725,10.7668919 C3.04729725,9.65878377 3.24999996,8.59459458 3.6182432,7.61486484 C3.69256753,7.4189189 3.59797293,7.20270268 3.40540536,7.1216216 C3.20270266,7.03378376 2.96621617,7.13513511 2.88851347,7.34459457 C2.48986482,8.40878377 2.27027022,9.5608108 2.27027022,10.7668919 C2.27027022,16.0067568 6.41216213,20.2804054 11.6047297,20.4898649 L11.6047297,15.5608108 C11.8344595,15.5743243 12.1114865,15.5777027 12.3952703,15.5608108 L12.3952703,20.4864865 C17.5878379,20.2804054 21.7297298,16.0067568 21.7297298,10.7668919 C21.7297298,9.5608108 21.5101352,8.40878377 21.1114865,7.34121619 Z M14.3614865,12.6587838 C14.8006757,12.6587838 15.1621622,13.0135135 15.1621622,13.4594595 C15.1621622,13.902027 14.8040541,14.2601351 14.3614865,14.2601351 C13.9222973,14.2601351 13.5608108,13.9054054 13.5608108,13.4594595 C13.5608108,13.0168919 13.9189189,12.6587838 14.3614865,12.6587838 Z M9.6385135,14.2567568 C9.19256755,14.2567568 8.83783782,13.8952703 8.83783782,13.4560811 C8.83783782,13.0168919 9.19256755,12.6554054 9.6385135,12.6554054 C10.0810811,12.6554054 10.4391892,13.0135135 10.4391892,13.4560811 C10.4391892,13.8952703 10.0844594,14.2567568 9.6385135,14.2567568 Z" id="path-1"></path>
    </defs>
    <g id="gitkraken" stroke="none" stroke-width="1" fill="none" fill-rule="evenodd">
        <mask id="mask-2" fill="white">
            <use xlink:href="#path-1"></use>
        </mask>
        <g fill-rule="nonzero"></g>
        <g id="🎨-color" mask="url(#mask-2)" fill="#000000">
            <rect id="🎨-Color" x="0" y="0" width="24" height="24"></rect>
        </g>
    </g>
</svg>