<?xml version="1.0" encoding="UTF-8"?>
<svg width="24px" height="24px" viewBox="0 0 24 24" version="1.1" xmlns="http://www.w3.org/2000/svg" xmlns:xlink="http://www.w3.org/1999/xlink">
    <!-- Generator: Sketch 52.5 (67469) - http://www.bohemiancoding.com/sketch -->
    <title>glasses</title>
    <desc>Created with Sketch.</desc>
    <defs>
        <path d="M21.9340278,12.8461806 L20.359375,6.53680553 C20.1541667,5.71388886 19.6097223,5.00729163 18.8663195,4.5989583 C18.121875,4.19166663 17.2354167,4.10902774 16.4291667,4.37916663 L15.8996528,4.55555552 C15.6083334,4.65243052 15.4510417,4.96736108 15.5482639,5.2583333 L15.7239584,5.78541664 C15.8208334,6.07638886 16.1354167,6.23368053 16.4263889,6.13680553 L16.8840278,5.98437497 C17.2614584,5.85868052 17.6826389,5.86041664 18.0354167,6.04444441 C18.3927084,6.23090275 18.6454861,6.54999997 18.7427084,6.9409722 L20.078125,12.2819444 C19.3076389,12.0454861 18.3493056,11.8493056 17.2586806,11.8493056 C16.0513889,11.8493056 14.6899306,12.0930556 13.2708333,12.7777778 L10.7298611,12.7777778 C9.31076388,12.0923611 7.94930554,11.8489583 6.74166664,11.8489583 C5.65069441,11.8489583 4.69236107,12.0451389 3.92187496,12.2815972 L5.25729163,6.94027775 C5.35416663,6.54965275 5.60763886,6.2302083 5.96493053,6.04409719 C6.3177083,5.86006941 6.73854164,5.8583333 7.1159722,5.98402775 L7.57326387,6.1364583 C7.86423609,6.2333333 8.17881943,6.07604164 8.27569443,5.78506941 L8.45138887,5.25798608 C8.54861109,4.96701385 8.39131943,4.6520833 8.09999998,4.5552083 L7.57048609,4.37881941 C6.76423608,4.10868052 5.87777775,4.19097218 5.1333333,4.59861107 C4.38993052,5.00729163 3.84548607,5.71354164 3.64027774,6.53611108 L2.06597217,12.8461806 C2.02219783,13.0221143 2.00004354,13.2027301 1.99999995,13.3840278 L1.99999995,15.8232639 C1.99999995,18.0072917 3.79097218,19.7777778 5.99999997,19.7777778 L7.28888887,19.7777778 C9.38194443,19.7777778 11.1211806,18.1826389 11.2777778,16.1190972 L11.3795139,14.7777778 L12.6208333,14.7777778 L12.7225694,16.1190972 C12.8788194,18.1826389 14.6180556,19.7777778 16.7111111,19.7777778 L18,19.7777778 C20.2090278,19.7777778 22,18.0072917 22,15.8236111 L22,13.384375 C22,13.2027778 21.9777778,13.0222222 21.9340278,12.8461806 Z M9.06180554,15.9510417 C8.99340276,16.8506945 8.21458331,17.5555556 7.28888887,17.5555556 L5.99999997,17.5555556 C5.01979163,17.5555556 4.22222218,16.7784722 4.22222218,15.8232639 L4.22222218,14.5197917 C4.85138885,14.2944445 5.72986108,14.0711806 6.74236108,14.0711806 C7.57083331,14.0711806 8.38333332,14.2215278 9.1704861,14.5197917 L9.06180554,15.9510417 Z M19.7777778,15.8236111 C19.7777778,16.7788195 18.9802084,17.5555556 18,17.5555556 L16.7111111,17.5555556 C15.7850695,17.5555556 15.00625,16.8506945 14.9381945,15.9510417 L14.8295139,14.5197917 C15.6166667,14.2215278 16.4295139,14.0711806 17.2583334,14.0711806 C18.2694445,14.0711806 19.1482639,14.2947917 19.7774306,14.5201389 L19.7774306,15.8236111 L19.7777778,15.8236111 Z" id="path-1"></path>
    </defs>
    <g id="glasses" stroke="none" stroke-width="1" fill="none" fill-rule="evenodd">
        <mask id="mask-2" fill="white">
            <use xlink:href="#path-1"></use>
        </mask>
        <g fill-rule="nonzero"></g>
        <g id="🎨-color" mask="url(#mask-2)" fill="#000000">
            <rect id="🎨-Color" x="0" y="0" width="24" height="24"></rect>
        </g>
    </g>
</svg>