<?xml version="1.0" encoding="UTF-8"?>
<svg width="24px" height="24px" viewBox="0 0 24 24" version="1.1" xmlns="http://www.w3.org/2000/svg" xmlns:xlink="http://www.w3.org/1999/xlink">
    <!-- Generator: Sketch 52.5 (67469) - http://www.bohemiancoding.com/sketch -->
    <title>globe</title>
    <desc>Created with Sketch.</desc>
    <defs>
        <path d="M15.4570313,8.24999998 C14.890625,4.76171871 13.5546875,2.31249995 12,2.31249995 C10.4453125,2.31249995 9.10937499,4.76171871 8.54296873,8.24999998 L15.4570313,8.24999998 Z M8.24999998,12 C8.24999998,12.8671875 8.29687498,13.6992188 8.37890623,14.5 L15.6171875,14.5 C15.6992188,13.6992188 15.7460938,12.8671875 15.7460938,12 C15.7460938,11.1328125 15.6992188,10.3007812 15.6171875,9.49999999 L8.37890623,9.49999999 C8.29687498,10.3007812 8.24999998,11.1328125 8.24999998,12 Z M20.9335938,8.24999998 C19.8164063,5.59765622 17.5546875,3.54687496 14.7617188,2.71874995 C15.7148438,4.03906246 16.3710938,6.02734372 16.7148438,8.24999998 L20.9335938,8.24999998 Z M9.23437499,2.71874995 C6.44531247,3.54687496 4.17968746,5.59765622 3.06640621,8.24999998 L7.28515623,8.24999998 C7.62499998,6.02734372 8.28124998,4.03906246 9.23437499,2.71874995 Z M21.3515625,9.49999999 L16.8710938,9.49999999 C16.953125,10.3203125 17,11.1601562 17,12 C17,12.8398438 16.953125,13.6796875 16.8710938,14.5 L21.3476563,14.5 C21.5625,13.6992188 21.6835938,12.8671875 21.6835938,12 C21.6835938,11.1328125 21.5625,10.3007812 21.3515625,9.49999999 Z M6.99999997,12 C6.99999997,11.1601562 7.04687498,10.3203125 7.12890623,9.49999999 L2.64843745,9.49999999 C2.43749995,10.3007812 2.31249995,11.1328125 2.31249995,12 C2.31249995,12.8671875 2.43749995,13.6992188 2.64843745,14.5 L7.12499998,14.5 C7.04687498,13.6796875 6.99999997,12.8398438 6.99999997,12 Z M8.54296873,15.75 C9.10937499,19.2382813 10.4453125,21.6875 12,21.6875 C13.5546875,21.6875 14.890625,19.2382813 15.4570313,15.75 L8.54296873,15.75 Z M14.765625,21.28125 C17.5546875,20.453125 19.8203125,18.4023438 20.9375,15.75 L16.71875,15.75 C16.375,17.9726563 15.71875,19.9609375 14.765625,21.28125 Z M3.06640621,15.75 C4.18359371,18.4023438 6.44531247,20.453125 9.23828124,21.28125 C8.28515623,19.9609375 7.62890623,17.9726563 7.28515623,15.75 L3.06640621,15.75 Z" id="path-1"></path>
    </defs>
    <g id="globe" stroke="none" stroke-width="1" fill="none" fill-rule="evenodd">
        <mask id="mask-2" fill="white">
            <use xlink:href="#path-1"></use>
        </mask>
        <g fill-rule="nonzero"></g>
        <g id="🎨-color" mask="url(#mask-2)" fill="#000000">
            <rect id="🎨-Color" x="0" y="0" width="24" height="24"></rect>
        </g>
    </g>
</svg>