<?xml version="1.0" encoding="UTF-8"?>
<svg width="24px" height="24px" viewBox="0 0 24 24" version="1.1" xmlns="http://www.w3.org/2000/svg" xmlns:xlink="http://www.w3.org/1999/xlink">
    <!-- Generator: Sketch 52.5 (67469) - http://www.bohemiancoding.com/sketch -->
    <title>globe-americas</title>
    <desc>Created with Sketch.</desc>
    <defs>
        <path d="M12,2.31249995 C6.64960935,2.31249995 2.31249995,6.64960935 2.31249995,12 C2.31249995,17.3503907 6.64960935,21.6875 12,21.6875 C17.3503907,21.6875 21.6875,17.3503907 21.6875,12 C21.6875,6.64960935 17.3503907,2.31249995 12,2.31249995 Z M15.2144531,16.28125 C15.0621094,16.4328125 14.9023438,16.5917969 14.7726563,16.721875 C14.6558594,16.8390625 14.5734375,16.9835938 14.5316406,17.1402344 C14.4726563,17.3613282 14.425,17.5847657 14.3453125,17.7992188 L13.6660156,19.6292969 C13.1285156,19.7464844 12.5722656,19.8125 12,19.8125 L12,18.7429688 C12.0660156,18.25 11.7015625,17.3265625 11.1160156,16.7410156 C10.8816406,16.5066406 10.75,16.1886719 10.75,15.8570313 L10.75,14.6066406 C10.75,14.1519531 10.5050781,13.7339844 10.1070312,13.5140625 C9.54570311,13.2035156 8.74726561,12.7695313 8.20039061,12.4941406 C7.7519531,12.2683594 7.33710935,11.9808594 6.96406247,11.6445312 L6.93281247,11.6164062 C6.66604035,11.3756003 6.42918478,11.1035967 6.22734372,10.80625 C5.86093747,10.2683594 5.26406247,9.38359374 4.87617184,8.80859373 C5.67578122,7.03124998 7.11679685,5.60390622 8.90742186,4.82851559 L9.84531249,5.29765622 C10.2609375,5.50546872 10.75,5.20351559 10.75,4.73867184 L10.75,4.29726559 C11.0621094,4.24687496 11.3796875,4.21484371 11.7027344,4.20273434 L12.8082031,5.30820309 C13.0523438,5.55234372 13.0523438,5.94804684 12.8082031,6.19218747 L12.625,6.37499997 L12.2210938,6.77890622 C12.0992188,6.90078122 12.0992188,7.0988281 12.2210938,7.2207031 L12.4042969,7.40390623 C12.5261719,7.52578123 12.5261719,7.7238281 12.4042969,7.8457031 L12.0917969,8.15820311 C12.0331221,8.21676418 11.9536014,8.24964023 11.8707031,8.24960936 L11.5195312,8.24960936 C11.4382812,8.24960936 11.3601562,8.28124998 11.3015625,8.33828123 L10.9140625,8.71523436 C10.8166002,8.81014177 10.7916501,8.95715818 10.8523437,9.07890624 L11.4613281,10.2972656 C11.5652344,10.5050781 11.4140625,10.7496094 11.1820312,10.7496094 L10.9617187,10.7496094 C10.8863281,10.7496094 10.8136719,10.7222656 10.7570312,10.6730469 L10.3945312,10.3582031 C10.2276404,10.2134208 9.99676189,10.1673936 9.78710936,10.2371094 L8.56953123,10.6429687 C8.37889091,10.7065357 8.25033017,10.8849786 8.25039061,11.0859375 C8.25039061,11.2628906 8.35039061,11.4242187 8.50859373,11.5035156 L8.94140623,11.7199219 C9.30898436,11.9039062 9.71445311,11.9996094 10.1253906,11.9996094 C10.5363281,11.9996094 11.0078125,13.065625 11.3753906,13.2496094 L13.9828125,13.2496094 C14.3144531,13.2496094 14.6320313,13.38125 14.8667969,13.615625 L15.4015625,14.1503906 C15.6249682,14.3738817 15.750445,14.676965 15.7503906,14.9929688 C15.7502285,15.4765907 15.5573575,15.9402122 15.2144531,16.28125 Z M18.6015625,12.7128906 C18.3753907,12.65625 18.178125,12.5175781 18.0488282,12.3234375 L17.3464844,11.2699219 C17.1363289,10.9551621 17.1363289,10.5448379 17.3464844,10.2300781 L18.1117188,9.08242186 C18.2023438,8.94687498 18.3265625,8.83671873 18.4726563,8.76406248 L18.9796875,8.51054686 C19.5078125,9.56210936 19.8125,10.7449219 19.8125,12 C19.8125,12.3386719 19.7835938,12.6703125 19.7414063,12.9976563 L18.6015625,12.7128906 Z" id="path-1"></path>
    </defs>
    <g id="globe-americas" stroke="none" stroke-width="1" fill="none" fill-rule="evenodd">
        <mask id="mask-2" fill="white">
            <use xlink:href="#path-1"></use>
        </mask>
        <g fill-rule="nonzero"></g>
        <g id="🎨-color" mask="url(#mask-2)" fill="#000000">
            <rect id="🎨-Color" x="0" y="0" width="24" height="24"></rect>
        </g>
    </g>
</svg>