<?xml version="1.0" encoding="UTF-8"?>
<svg width="24px" height="24px" viewBox="0 0 24 24" version="1.1" xmlns="http://www.w3.org/2000/svg" xmlns:xlink="http://www.w3.org/1999/xlink">
    <!-- Generator: Sketch 52.5 (67469) - http://www.bohemiancoding.com/sketch -->
    <title>globe-asia</title>
    <desc>Created with Sketch.</desc>
    <defs>
        <path d="M12,2.31249995 C6.64960935,2.31249995 2.31249995,6.64960935 2.31249995,12 C2.31249995,17.3503907 6.64960935,21.6875 12,21.6875 C17.3503907,21.6875 21.6875,17.3503907 21.6875,12 C21.6875,6.64960935 17.3503907,2.31249995 12,2.31249995 Z M11.5570312,11.6964844 C11.4441406,11.8847656 11.240625,12 11.0210937,12 L11.0089844,12 C10.8433594,12 10.684375,12.0660156 10.5671875,12.1832031 L10.3460937,12.4042969 C10.2242187,12.5261719 10.2242187,12.7242188 10.3460937,12.8460938 L10.5671875,13.0671875 C10.684375,13.184375 10.7503906,13.3433594 10.7503906,13.5089844 L10.7503906,13.875 C10.7503906,14.2203125 10.4707031,14.5 10.1253906,14.5 L9.88671874,14.5 C9.64999999,14.5 9.43359374,14.3664063 9.32773436,14.1542969 L8.44414061,12.3875 C8.34882811,12.196875 8.09453123,12.1554688 7.94374998,12.30625 L7.1832031,13.0664063 C7.0660156,13.1835938 6.90703122,13.2496094 6.74140622,13.2496094 L4.29726559,13.2496094 C4.23124996,12.8417969 4.18749996,12.4265625 4.18749996,12 C4.18749996,7.69218748 7.69218748,4.18749996 12,4.18749996 C12.8402344,4.18749996 13.6484375,4.32460934 14.4074219,4.57109371 L12.4480469,6.07617185 C12.2484375,6.20937497 12.2671875,6.5082031 12.4816406,6.61562497 L12.9046875,6.8269531 C13.1164063,6.93281247 13.25,7.14921873 13.25,7.38593748 L13.25,10.4375 C13.25,10.6101562 13.1101563,10.75 12.9375,10.75 L12.8179688,10.75 C12.6996094,10.75 12.5914063,10.6832031 12.5386719,10.5773437 C12.4777344,10.4554687 12.3058594,10.4488281 12.2355469,10.565625 L11.5570312,11.6964844 Z M18.25,16.0011719 C18.25,16.1667969 18.1839844,16.3257813 18.0667969,16.4429688 L17.6929688,16.8167969 C17.5757813,16.9339844 17.4167969,17 17.2511719,17 L16.6589844,17 C16.4933594,17 16.334375,16.9339844 16.2171875,16.8167969 L15.7089844,16.3085938 C15.4492685,16.0488877 15.0723318,15.9444961 14.7160156,16.0335938 L13.8851563,16.2414063 C13.8355469,16.2539063 13.7847656,16.2601563 13.7335938,16.2601563 L13.3296875,16.2601563 C13.1640625,16.2601563 13.0050781,16.1941406 12.8878906,16.0769531 L12.4226563,15.6117188 C12.3640952,15.553044 12.3312191,15.4735233 12.33125,15.390625 L12.33125,14.9921875 C12.33125,14.8644531 12.4089844,14.7496094 12.5277344,14.7019531 L14.0644531,14.0871094 C14.1417969,14.05625 14.2152344,14.0160156 14.2828125,13.9679688 L15.2089844,13.3082031 C15.2618983,13.2705113 15.3252687,13.2502984 15.3902344,13.2503906 L15.8625,13.2503906 C15.9886719,13.2503906 16.1027344,13.3261719 16.1511719,13.4429688 L16.3601563,13.9449219 C16.3844232,14.0030941 16.441266,14.0409894 16.5042969,14.0410156 L16.6527344,14.0410156 C16.7222656,14.0410156 16.7835938,13.9949219 16.8027344,13.9285156 L16.9667969,13.3632813 C16.9863281,13.2964844 17.0472657,13.2507813 17.1167969,13.2507813 L17.3535157,13.2507813 C17.4398438,13.2507813 17.5097657,13.3207031 17.5097657,13.4070313 L17.5097657,13.9121094 C17.5097657,13.9949219 17.5425782,14.0746094 17.6011719,14.1332031 L18.0664063,14.5984375 C18.1835938,14.715625 18.2496094,14.8746094 18.2496094,15.0402344 L18.2496094,16.0011719 L18.25,16.0011719 Z" id="path-1"></path>
    </defs>
    <g id="globe-asia" stroke="none" stroke-width="1" fill="none" fill-rule="evenodd">
        <mask id="mask-2" fill="white">
            <use xlink:href="#path-1"></use>
        </mask>
        <g fill-rule="nonzero"></g>
        <g id="🎨-color" mask="url(#mask-2)" fill="#000000">
            <rect id="🎨-Color" x="0" y="0" width="24" height="24"></rect>
        </g>
    </g>
</svg>