<?xml version="1.0" encoding="UTF-8"?>
<svg width="24px" height="24px" viewBox="0 0 24 24" version="1.1" xmlns="http://www.w3.org/2000/svg" xmlns:xlink="http://www.w3.org/1999/xlink">
    <!-- Generator: Sketch 52.5 (67469) - http://www.bohemiancoding.com/sketch -->
    <title>globe-africa</title>
    <desc>Created with Sketch.</desc>
    <defs>
        <path d="M12,2.31249995 C6.64960935,2.31249995 2.31249995,6.64960935 2.31249995,12 C2.31249995,17.3503907 6.64960935,21.6875 12,21.6875 C17.3503907,21.6875 21.6875,17.3503907 21.6875,12 C21.6875,6.64960935 17.3503907,2.31249995 12,2.31249995 Z M18.25,10.7304687 L18.25,11.0011719 C18.25,11.2304687 18.1203125,11.4402344 17.9152344,11.5425781 L17.3140625,11.8433594 C17.1197243,11.940621 16.888147,11.9261567 16.7074219,11.8054687 L15.9960938,11.33125 C15.8405971,11.2276854 15.6460353,11.2015997 15.46875,11.2605469 L15.3652344,11.2949219 C14.9863281,11.4210937 14.8316406,11.8726562 15.053125,12.2050781 L15.5703125,12.9808594 C15.6824219,13.1492188 15.8714844,13.2503906 16.0738281,13.2503906 L16.3945313,13.2503906 C16.7289063,13.2503906 17,13.5214844 17,13.8558594 L17,14.2988281 C17,14.4296875 16.9574219,14.5574219 16.8789063,14.6621094 L16.146875,15.6378906 C16.0914063,15.7121094 16.0535156,15.7980469 16.0363281,15.8890625 L15.8683594,16.7808594 C15.8441406,16.909375 15.7789063,17.0265625 15.6824219,17.1152344 C15.3122354,17.4542264 14.9843409,17.8366826 14.7058594,18.2542969 L14.196875,19.0179688 C13.9958255,19.3195503 13.6573751,19.5007217 13.2949219,19.5007813 C12.884375,19.5007813 12.5089844,19.26875 12.3253906,18.9015625 C12.1113822,18.4735485 11.9999772,18.0015817 12,17.5230469 L12,16.3554688 C12,16.0210938 11.7289062,15.75 11.3945312,15.75 L10.3835937,15.75 C9.81757811,15.75 9.27499999,15.525 8.87460936,15.125 C8.4745187,14.7247178 8.24971805,14.1819647 8.24960936,13.6160156 L8.24960936,13.0667969 C8.24960936,12.3953125 8.56601561,11.7628906 9.10312499,11.3597656 L10.1804687,10.5515625 C10.5498988,10.2745357 10.9991774,10.1247305 11.4609375,10.1246094 L11.4957031,10.1246094 C11.8269531,10.1246094 12.1539063,10.2015625 12.45,10.35 L13.025,10.6375 C13.16875,10.709375 13.3347656,10.7210937 13.4871094,10.6703125 L15.3351563,10.0542969 C15.5824219,9.97187499 15.7492188,9.74062499 15.7492188,9.48007811 C15.7492188,9.14570311 15.478125,8.87460936 15.14375,8.87460936 L14.7496094,8.87460936 C14.5890625,8.87460936 14.4351563,8.81093748 14.3214844,8.69726561 L14.0511719,8.42695311 C13.937644,8.31337948 13.7836319,8.24958252 13.6230469,8.24960936 L10.1054687,8.24960936 C9.77109374,8.24960936 9.49999999,7.9785156 9.49999999,7.6441406 L9.49999999,7.4722656 C9.49999999,7.19453123 9.68906249,6.95234372 9.95859374,6.8847656 L10.5230469,6.74374997 C10.6691406,6.70703122 10.7964844,6.6175781 10.8800781,6.49218747 L11.1957031,6.0191406 C11.3078125,5.85078122 11.496875,5.74960934 11.6992187,5.74960934 L12.6449219,5.74960934 C12.9792969,5.74960934 13.2503906,5.47851559 13.2503906,5.14414059 L13.2503906,4.29648434 C16.3449219,4.79804684 18.8304688,7.11796873 19.5753907,10.125 L18.8554688,10.125 C18.5210938,10.125 18.25,10.3960937 18.25,10.7304687 Z" id="path-1"></path>
    </defs>
    <g id="globe-africa" stroke="none" stroke-width="1" fill="none" fill-rule="evenodd">
        <mask id="mask-2" fill="white">
            <use xlink:href="#path-1"></use>
        </mask>
        <g fill-rule="nonzero"></g>
        <g id="🎨-color" mask="url(#mask-2)" fill="#000000">
            <rect id="🎨-Color" x="0" y="0" width="24" height="24"></rect>
        </g>
    </g>
</svg>