<?xml version="1.0" encoding="UTF-8"?>
<svg width="24px" height="24px" viewBox="0 0 24 24" version="1.1" xmlns="http://www.w3.org/2000/svg" xmlns:xlink="http://www.w3.org/1999/xlink">
    <!-- Generator: Sketch 52.5 (67469) - http://www.bohemiancoding.com/sketch -->
    <title>gofore</title>
    <desc>Created with Sketch.</desc>
    <defs>
        <path d="M16.84375,14.4921875 L16.328125,14.4921875 L16.328125,15.8476563 C15.3710938,16.75 14.1289063,17.2460938 12.8164063,17.2460938 C9.95703124,17.2460938 7.64453123,14.8945313 7.64453123,11.9960937 C7.64453123,9.10156249 9.95703124,6.74609372 12.8164063,6.74609372 C14.1953125,6.74609372 15.4960938,7.29296873 16.4726563,8.28515623 L18.90625,5.81249997 C17.2734375,4.16015621 15.1132813,3.24999996 12.8085938,3.24999996 C8.01562498,3.24999996 4.18749996,7.17968748 4.18749996,12 C4.18749996,16.7851563 7.97656248,20.75 12.8085938,20.75 C15.2773438,20.75 17.671875,19.7265625 19.4882813,17.5273438 C19.4101563,16.4492188 18.9648438,14.4921875 16.84375,14.4921875 Z M16.3710938,10.0976562 L12.21875,10.0976562 L12.21875,13.5742188 L16.84375,13.5742188 C18.1523438,13.5742188 19.2070313,14.1640625 19.8125,15.2070313 L19.8125,14.0117188 C19.8125,11.4648437 18.234375,10.0976562 16.3710938,10.0976562 Z" id="path-1"></path>
    </defs>
    <g id="gofore" stroke="none" stroke-width="1" fill="none" fill-rule="evenodd">
        <mask id="mask-2" fill="white">
            <use xlink:href="#path-1"></use>
        </mask>
        <g fill-rule="nonzero"></g>
        <g id="🎨-color" mask="url(#mask-2)" fill="#000000">
            <rect id="🎨-Color" x="0" y="0" width="24" height="24"></rect>
        </g>
    </g>
</svg>