<?xml version="1.0" encoding="UTF-8"?>
<svg width="24px" height="24px" viewBox="0 0 24 24" version="1.1" xmlns="http://www.w3.org/2000/svg" xmlns:xlink="http://www.w3.org/1999/xlink">
    <!-- Generator: Sketch 52.5 (67469) - http://www.bohemiancoding.com/sketch -->
    <title>golf-ball</title>
    <desc>Created with Sketch.</desc>
    <defs>
        <path d="M7.62499998,18.25 L16.375,18.25 C16.375,18.9414063 15.8164063,19.5 15.125,19.5 L14.5,19.5 C13.8085938,19.5 13.25,20.0585938 13.25,20.75 L13.25,21.53125 C13.25,21.7890625 13.0390625,22.0000001 12.78125,22.0000001 L11.21875,22.0000001 C10.9609375,22.0000001 10.75,21.7890625 10.75,21.53125 L10.75,20.75 C10.75,20.0585938 10.1914062,19.5 9.49999999,19.5 L8.87499998,19.5 C8.18359373,19.5 7.62499998,18.9414063 7.62499998,18.25 Z M20.125,10.125 C20.125,13.0234375 18.6015625,15.5625 16.3164063,17 L7.68359373,17 C5.39843747,15.5625 3.87499996,13.0234375 3.87499996,10.125 C3.87499996,5.63671872 7.51171873,1.99999995 12,1.99999995 C16.4882813,1.99999995 20.125,5.63671872 20.125,10.125 Z M13.0898438,11.8398437 C13.8046875,11.8398437 14.3828125,11.2617187 14.3828125,10.546875 C14.3828125,9.98437499 14.0195313,9.51953124 13.5195313,9.33984374 C13.8945313,10.3867187 12.9101563,11.34375 11.8828125,10.9765625 C12.0625,11.4765625 12.5273438,11.8398437 13.0898438,11.8398437 Z M15.0078125,13.671875 C15.0078125,13.109375 14.6445313,12.6445313 14.1445313,12.4648438 C14.5195313,13.5117188 13.5351563,14.46875 12.5078125,14.1015625 C12.6875,14.6015625 13.1523438,14.9648438 13.7148438,14.9648438 C14.4296875,14.9648438 15.0078125,14.3828125 15.0078125,13.671875 Z M17.5078125,11.171875 C17.5078125,10.609375 17.1445313,10.1445312 16.6445313,9.96484374 C17.0195313,11.0117187 16.0351563,11.96875 15.0078125,11.6015625 C15.1875,12.1015625 15.6523438,12.4648438 16.2148438,12.4648438 C16.9296875,12.4648438 17.5078125,11.8828125 17.5078125,11.171875 Z" id="path-1"></path>
    </defs>
    <g id="golf-ball" stroke="none" stroke-width="1" fill="none" fill-rule="evenodd">
        <mask id="mask-2" fill="white">
            <use xlink:href="#path-1"></use>
        </mask>
        <g fill-rule="nonzero"></g>
        <g id="🎨-color" mask="url(#mask-2)" fill="#000000">
            <rect id="🎨-Color" x="0" y="0" width="24" height="24"></rect>
        </g>
    </g>
</svg>