<?xml version="1.0" encoding="UTF-8"?>
<svg width="24px" height="24px" viewBox="0 0 24 24" version="1.1" xmlns="http://www.w3.org/2000/svg" xmlns:xlink="http://www.w3.org/1999/xlink">
    <!-- Generator: Sketch 52.5 (67469) - http://www.bohemiancoding.com/sketch -->
    <title>goodreads</title>
    <desc>Created with Sketch.</desc>
    <defs>
        <path d="M14.9648438,9.46874999 C15.1640625,10.9257812 14.78125,12.5546875 13.5625,13.4023438 C12.6914063,14.0078125 11.5,13.953125 10.796875,13.625 C9.34765624,12.9492188 8.86328123,11.3359375 8.96874998,9.82812499 C9.13671874,7.44921873 10.5664062,6.39453122 11.9101562,6.41015622 C13.7421875,6.40234372 14.7148438,7.65234373 14.9648438,9.46874999 Z M20.75,5.43749997 L20.75,18.5625 C20.75,19.7695313 19.7695313,20.75 18.5625,20.75 L5.43749997,20.75 C4.23046871,20.75 3.24999996,19.7695313 3.24999996,18.5625 L3.24999996,5.43749997 C3.24999996,4.23046871 4.23046871,3.24999996 5.43749997,3.24999996 L18.5625,3.24999996 C19.7695313,3.24999996 20.75,4.23046871 20.75,5.43749997 Z M16.140625,14.234375 C16.140625,14.234375 16.1367188,12.90625 16.1367188,5.74609372 L15.0039063,5.74609372 L15.0039063,7.32031248 C14.9726563,7.33203123 14.9570313,7.30078123 14.9414063,7.27343748 C14.5664063,6.46484372 13.5390625,5.46484372 11.9726562,5.47656247 C9.94531249,5.49218747 8.56640623,6.69531247 8.04296873,8.51562498 C7.87499998,9.09765624 7.81640623,9.69140624 7.82812498,10.296875 C7.89453123,13.3398438 9.58984374,14.8984375 12.21875,14.796875 C13.3476563,14.7539063 14.3476563,14.1328125 14.9140625,13.03125 C14.9335938,12.9921875 14.9570313,12.9570313 14.9804688,12.9179688 C14.9882813,12.921875 14.9960938,12.921875 15.0039063,12.9257813 C15.015625,13.0742188 15.0117188,14.125 15.0078125,14.2734375 C15,14.8515625 14.9296875,15.4257813 14.7265625,15.9726563 C14.421875,16.7929688 13.8554688,17.328125 12.9882813,17.515625 C12.2929688,17.6679688 11.5976562,17.6640625 10.9101562,17.46875 C10.0703125,17.2304688 9.48437499,16.7265625 9.30468749,15.8359375 C9.29296874,15.7734375 9.25390624,15.7851563 9.21484374,15.7851563 L8.16796873,15.7851563 C8.19921873,16.1992188 8.29296873,16.578125 8.49999998,16.9257813 C9.44531249,18.5078125 11.7304687,18.8203125 13.5078125,18.3867188 C15.4570313,17.90625 16.1367188,16.2421875 16.140625,14.234375 Z" id="path-1"></path>
    </defs>
    <g id="goodreads" stroke="none" stroke-width="1" fill="none" fill-rule="evenodd">
        <mask id="mask-2" fill="white">
            <use xlink:href="#path-1"></use>
        </mask>
        <g fill-rule="nonzero"></g>
        <g id="🎨-color" mask="url(#mask-2)" fill="#000000">
            <rect id="🎨-Color" x="0" y="0" width="24" height="24"></rect>
        </g>
    </g>
</svg>