<?xml version="1.0" encoding="UTF-8"?>
<svg width="24px" height="24px" viewBox="0 0 24 24" version="1.1" xmlns="http://www.w3.org/2000/svg" xmlns:xlink="http://www.w3.org/1999/xlink">
    <!-- Generator: Sketch 52.5 (67469) - http://www.bohemiancoding.com/sketch -->
    <title>goodreads-g</title>
    <desc>Created with Sketch.</desc>
    <defs>
        <path d="M6.17543857,17.7621833 L6.28460036,17.7621833 C6.77972707,17.7621833 7.27875241,17.7621833 7.77387912,17.7660819 C7.83625729,17.7660819 7.89473682,17.7504874 7.91423,17.8479532 C8.19103312,19.208577 9.08382065,19.9766082 10.3664717,20.3391813 C11.4152047,20.6354776 12.4756335,20.6432749 13.5360624,20.4093568 C14.8538012,20.1208577 15.7192983,19.3060429 16.1871345,18.0545809 C16.4990254,17.2163743 16.6042885,16.3469786 16.6159844,15.4619883 C16.6198831,15.2358675 16.6276803,13.6296296 16.6081872,13.4035088 L16.5730994,13.3918129 C16.5419104,13.4502924 16.5068226,13.5048733 16.4756336,13.5633528 C15.6140351,15.2436647 14.08577,16.1910332 12.3664717,16.25731 C8.35087717,16.4132554 5.7621832,14.0350877 5.66081868,9.38791422 C5.6413255,8.4639376 5.73099412,7.55945417 5.98440543,6.67056528 C6.78752434,3.89863544 8.89278751,2.06237812 11.9844055,2.0389863 C14.374269,2.02339176 15.9415205,3.54775824 16.5146199,4.77972706 C16.5341131,4.82261205 16.5653022,4.86939568 16.6081872,4.85380113 L16.6081872,2.45224167 L18.3352827,2.45224167 C18.3352827,13.380117 18.3391813,15.4035088 18.3391813,15.4035088 C18.3352827,18.4639377 17.2982456,21.005848 14.3235868,21.7270956 C11.6140351,22.385965 8.12475632,21.9142301 6.68226118,19.4970761 C6.37037034,18.9707603 6.22222219,18.3937622 6.17543857,17.7621833 Z M11.8791423,3.46198826 C9.83235866,3.44249508 7.64912279,5.04873291 7.39571148,8.67836256 C7.23586742,10.9785575 7.97270953,13.4424951 10.1832359,14.4717349 C11.2592593,14.9746589 13.079922,15.0565302 14.4054581,14.1325536 C16.2612086,12.8382066 16.8499026,10.3508772 16.5419104,8.12865495 C16.1637427,5.35672511 14.6783626,3.45029235 11.8791423,3.46198826 Z" id="path-1"></path>
    </defs>
    <g id="goodreads-g" stroke="none" stroke-width="1" fill="none" fill-rule="evenodd">
        <mask id="mask-2" fill="white">
            <use xlink:href="#path-1"></use>
        </mask>
        <g fill-rule="nonzero"></g>
        <g id="🎨-color" mask="url(#mask-2)" fill="#000000">
            <rect id="🎨-Color" x="0" y="0" width="24" height="24"></rect>
        </g>
    </g>
</svg>