<?xml version="1.0" encoding="UTF-8"?>
<svg width="24px" height="24px" viewBox="0 0 24 24" version="1.1" xmlns="http://www.w3.org/2000/svg" xmlns:xlink="http://www.w3.org/1999/xlink">
    <!-- Generator: Sketch 52.5 (67469) - http://www.bohemiancoding.com/sketch -->
    <title>google-plus-g</title>
    <desc>Created with Sketch.</desc>
    <defs>
        <path d="M14.0644063,11.1405 C14.1217188,11.443375 14.162625,11.74625 14.162625,12.139125 C14.162625,15.5689063 11.8624687,18 8.39999998,18 C5.08487497,18 2.39999995,15.3151563 2.39999995,12 C2.39999995,8.68484373 5.08487497,5.99999997 8.39999998,5.99999997 C10.02075,5.99999997 11.3713437,6.58934372 12.4190938,7.57162498 L10.7901562,9.13506249 C10.348125,8.70940623 9.57053124,8.21009373 8.39999998,8.21009373 C6.35362497,8.21009373 4.68374996,9.90449999 4.68374996,12 C4.68374996,14.0955 6.35362497,15.7899063 8.39999998,15.7899063 C10.7737812,15.7899063 11.6660312,14.079125 11.8051562,13.20325 L8.39999998,13.20325 L8.39999998,11.1404687 L14.0644063,11.1404687 L14.0644063,11.1405 Z M19.8583438,11.3416562 L19.8583438,9.59999999 L18.1083125,9.59999999 L18.1083125,11.3416562 L16.3666563,11.3416562 L16.3666563,13.0916875 L18.1083125,13.0916875 L18.1083125,14.8333438 L19.8583438,14.8333438 L19.8583438,13.0916875 L21.6,13.0916875 L21.6,11.3416562 L19.8583438,11.3416562 Z" id="path-1"></path>
    </defs>
    <g id="google-plus-g" stroke="none" stroke-width="1" fill="none" fill-rule="evenodd">
        <mask id="mask-2" fill="white">
            <use xlink:href="#path-1"></use>
        </mask>
        <g fill-rule="nonzero"></g>
        <g id="🎨-color" mask="url(#mask-2)" fill="#000000">
            <rect id="🎨-Color" x="0" y="0" width="24" height="24"></rect>
        </g>
    </g>
</svg>