<?xml version="1.0" encoding="UTF-8"?>
<svg width="24px" height="24px" viewBox="0 0 24 24" version="1.1" xmlns="http://www.w3.org/2000/svg" xmlns:xlink="http://www.w3.org/1999/xlink">
    <!-- Generator: Sketch 52.5 (67469) - http://www.bohemiancoding.com/sketch -->
    <title>google-plus</title>
    <desc>Created with Sketch.</desc>
    <defs>
        <path d="M12,2.31249995 C6.65234372,2.31249995 2.31249995,6.65234372 2.31249995,12 C2.31249995,17.3476563 6.65234372,21.6875 12,21.6875 C17.3476563,21.6875 21.6875,17.3476563 21.6875,12 C21.6875,6.65234372 17.3476563,2.31249995 12,2.31249995 Z M9.23828124,16.84375 C6.55078122,16.84375 4.39453121,14.6757813 4.39453121,12 C4.39453121,9.32421874 6.55078122,7.15624998 9.23828124,7.15624998 C10.4609375,7.15624998 11.5859375,7.58593748 12.4804688,8.41796873 L11.1679687,9.69140624 C10.6523437,9.18749999 9.94531249,8.94531248 9.23828124,8.94531248 C7.56249998,8.94531248 6.22265622,10.3320312 6.22265622,11.9960937 C6.22265622,13.6601563 7.55859373,15.046875 9.23828124,15.046875 C10.5117187,15.046875 11.7734375,14.3007813 11.9765625,12.9648438 L9.23828124,12.9648438 L9.23828124,11.3007812 L13.8046875,11.3007812 C13.8554688,11.5664062 13.8789063,11.8320312 13.8789063,12.109375 C13.8789063,14.875 12.0234375,16.84375 9.23828124,16.84375 Z M18.2304688,12.6953125 L18.2304688,14.0820313 L16.84375,14.0820313 L16.84375,12.6953125 L15.4570313,12.6953125 L15.4570313,11.3085937 L16.84375,11.3085937 L16.84375,9.92187499 L18.2304688,9.92187499 L18.2304688,11.3085937 L19.6054688,11.3085937 L19.6054688,12.6953125 L18.2304688,12.6953125 Z" id="path-1"></path>
    </defs>
    <g id="google-plus" stroke="none" stroke-width="1" fill="none" fill-rule="evenodd">
        <mask id="mask-2" fill="white">
            <use xlink:href="#path-1"></use>
        </mask>
        <g fill-rule="nonzero"></g>
        <g id="🎨-color" mask="url(#mask-2)" fill="#000000">
            <rect id="🎨-Color" x="0" y="0" width="24" height="24"></rect>
        </g>
    </g>
</svg>