<?xml version="1.0" encoding="UTF-8"?>
<svg width="24px" height="24px" viewBox="0 0 24 24" version="1.1" xmlns="http://www.w3.org/2000/svg" xmlns:xlink="http://www.w3.org/1999/xlink">
    <!-- Generator: Sketch 52.5 (67469) - http://www.bohemiancoding.com/sketch -->
    <title>google-plus-square</title>
    <desc>Created with Sketch.</desc>
    <defs>
        <path d="M18.875,3.24999996 L5.12499997,3.24999996 C4.08984371,3.24999996 3.24999996,4.08984371 3.24999996,5.12499997 L3.24999996,18.875 C3.24999996,19.9101563 4.08984371,20.75 5.12499997,20.75 L18.875,20.75 C19.9101563,20.75 20.75,19.9101563 20.75,18.875 L20.75,5.12499997 C20.75,4.08984371 19.9101563,3.24999996 18.875,3.24999996 Z M9.65624999,15.90625 C7.49609373,15.90625 5.74999997,14.1601563 5.74999997,12 C5.74999997,9.83984374 7.49609373,8.09374998 9.65624999,8.09374998 C10.7109375,8.09374998 11.5898437,8.47656248 12.2734375,9.11718749 L11.2148437,10.1367187 C10.9257812,9.85937499 10.421875,9.53515624 9.66015624,9.53515624 C8.32812498,9.53515624 7.24218748,10.6367187 7.24218748,12.0039063 C7.24218748,13.3671875 8.32812498,14.4726563 9.66015624,14.4726563 C11.2070312,14.4726563 11.7851562,13.359375 11.8789062,12.7890625 L9.65624999,12.7890625 L9.65624999,11.4453125 L13.34375,11.4453125 C13.3828125,11.640625 13.40625,11.8398437 13.40625,12.09375 C13.40625,14.3242188 11.9101562,15.90625 9.65624999,15.90625 Z M18.25,12.7109375 L17.1171875,12.7109375 L17.1171875,13.84375 L15.9765625,13.84375 L15.9765625,12.7109375 L14.84375,12.7109375 L14.84375,11.5703125 L15.9765625,11.5703125 L15.9765625,10.4375 L17.1171875,10.4375 L17.1171875,11.5703125 L18.25,11.5703125 L18.25,12.7109375 Z" id="path-1"></path>
    </defs>
    <g id="google-plus-square" stroke="none" stroke-width="1" fill="none" fill-rule="evenodd">
        <mask id="mask-2" fill="white">
            <use xlink:href="#path-1"></use>
        </mask>
        <g fill-rule="nonzero"></g>
        <g id="🎨-color" mask="url(#mask-2)" fill="#000000">
            <rect id="🎨-Color" x="0" y="0" width="24" height="24"></rect>
        </g>
    </g>
</svg>