<?xml version="1.0" encoding="UTF-8"?>
<svg width="24px" height="24px" viewBox="0 0 24 24" version="1.1" xmlns="http://www.w3.org/2000/svg" xmlns:xlink="http://www.w3.org/1999/xlink">
    <!-- Generator: Sketch 52.5 (67469) - http://www.bohemiancoding.com/sketch -->
    <title>google-wallet</title>
    <desc>Created with Sketch.</desc>
    <defs>
        <path d="M9.37499999,6.95312497 C10.84375,9.32031249 11.8828125,11.3710937 12.6679688,13.3007813 C12.34375,14.6210938 11.9335937,15.8984375 11.4453125,17.140625 C10.9296875,15.0976563 10.4101562,13.1835938 9.25781249,11.3398437 C9.51171874,9.91796874 9.34765624,8.46484373 9.37499999,6.95312497 Z M7.51953123,9.81249999 L3.87890621,9.81249999 C3.62499996,9.81249999 3.46874996,10.1054687 3.62499996,10.3085937 C5.27343747,12.4296875 6.42578122,14.9101563 7.20703123,17.625 L11.25,17.625 C10.6171875,14.9023438 9.73828124,12.4023438 8.02734373,10.0664062 C7.91015623,9.91015624 7.71484373,9.81249999 7.51953123,9.81249999 Z M9.38671874,6.37499997 C12.0625,10.59375 14.4648438,15.5351563 14.7851563,20.75 L19.2265625,20.75 C18.7578125,15.359375 16.5546875,10.3984375 13.6328125,6.37499997 L9.38671874,6.37499997 Z M19.2226563,3.69921871 C19.1523438,3.43359371 18.9023438,3.24999996 18.6289063,3.24999996 L15.1796875,3.24999996 C14.9726563,3.24999996 14.828125,3.44531246 14.875,3.65234371 C15.390625,5.46874997 15.7460938,7.38281248 15.9101563,9.35546874 C17.7929688,12.7226563 19.0234375,16.3203125 19.4492188,19.9335938 C20.0664063,17.5703125 20.4375,14.71875 20.4375,12.0039063 C20.4375,9.12890624 19.9648438,6.33593747 19.2226563,3.69921871 Z" id="path-1"></path>
    </defs>
    <g id="google-wallet" stroke="none" stroke-width="1" fill="none" fill-rule="evenodd">
        <mask id="mask-2" fill="white">
            <use xlink:href="#path-1"></use>
        </mask>
        <g fill-rule="nonzero"></g>
        <g id="🎨-color" mask="url(#mask-2)" fill="#000000">
            <rect id="🎨-Color" x="0" y="0" width="24" height="24"></rect>
        </g>
    </g>
</svg>