<?xml version="1.0" encoding="UTF-8"?>
<svg width="24px" height="24px" viewBox="0 0 24 24" version="1.1" xmlns="http://www.w3.org/2000/svg" xmlns:xlink="http://www.w3.org/1999/xlink">
    <!-- Generator: Sketch 52.5 (67469) - http://www.bohemiancoding.com/sketch -->
    <title>gopuram</title>
    <desc>Created with Sketch.</desc>
    <defs>
        <path d="M21.375,15.75 L20.75,15.75 L20.75,11.375 C20.75,11.0296875 20.4703125,10.75 20.125,10.75 L19.5,10.75 L19.5,7.62499998 C19.5,7.27968748 19.2203125,6.99999997 18.875,6.99999997 L18.25,6.99999997 L18.25,2.62499995 C18.25,2.27968745 17.9703125,1.99999995 17.625,1.99999995 C17.2796875,1.99999995 17,2.27968745 17,2.62499995 L17,3.24999996 L14.5,3.24999996 L14.5,2.62499995 C14.5,2.27968745 14.2203125,1.99999995 13.875,1.99999995 C13.5296875,1.99999995 13.25,2.27968745 13.25,2.62499995 L13.25,3.24999996 L10.75,3.24999996 L10.75,2.62499995 C10.75,2.27968745 10.4703125,1.99999995 10.125,1.99999995 C9.77968749,1.99999995 9.49999999,2.27968745 9.49999999,2.62499995 L9.49999999,3.24999996 L6.99999997,3.24999996 L6.99999997,2.62499995 C6.99999997,2.27968745 6.72031247,1.99999995 6.37499997,1.99999995 C6.02968747,1.99999995 5.74999997,2.27968745 5.74999997,2.62499995 L5.74999997,6.99999997 L5.12499997,6.99999997 C4.77968746,6.99999997 4.49999996,7.27968748 4.49999996,7.62499998 L4.49999996,10.75 L3.87499996,10.75 C3.52968746,10.75 3.24999996,11.0296875 3.24999996,11.375 L3.24999996,15.75 L2.62499995,15.75 C2.27968745,15.75 1.99999995,16.0296875 1.99999995,16.375 L1.99999995,21.375 C1.99999995,21.7203125 2.27968745,22.0000001 2.62499995,22.0000001 L5.74999997,22.0000001 L5.74999997,15.75 L6.99999997,15.75 L6.99999997,10.75 L8.24999998,10.75 L8.24999998,6.99999997 L9.49999999,6.99999997 L9.49999999,10.75 L8.24999998,10.75 L8.24999998,15.75 L6.99999997,15.75 L6.99999997,22.0000001 L10.125,22.0000001 L10.125,18.875 C10.125,18.5296875 10.4046875,18.25 10.75,18.25 L13.25,18.25 C13.5953125,18.25 13.875,18.5296875 13.875,18.875 L13.875,22.0000001 L17,22.0000001 L17,15.75 L15.75,15.75 L15.75,10.75 L14.5,10.75 L14.5,6.99999997 L15.75,6.99999997 L15.75,10.75 L17,10.75 L17,15.75 L18.25,15.75 L18.25,22.0000001 L21.375,22.0000001 C21.7203125,22.0000001 22.0000001,21.7203125 22.0000001,21.375 L22.0000001,16.375 C22.0000001,16.0296875 21.7203125,15.75 21.375,15.75 Z M10.75,15.75 L10.75,13.25 C10.75,12.9046875 11.0296875,12.625 11.375,12.625 L12.625,12.625 C12.9703125,12.625 13.25,12.9046875 13.25,13.25 L13.25,15.75 L10.75,15.75 Z M11.0625,10.75 L11.0625,8.87499998 C11.0625,8.52968748 11.3421875,8.24999998 11.6875,8.24999998 L12.3125,8.24999998 C12.6578125,8.24999998 12.9375,8.52968748 12.9375,8.87499998 L12.9375,10.75 L11.0625,10.75 Z" id="path-1"></path>
    </defs>
    <g id="gopuram" stroke="none" stroke-width="1" fill="none" fill-rule="evenodd">
        <mask id="mask-2" fill="white">
            <use xlink:href="#path-1"></use>
        </mask>
        <g fill-rule="nonzero"></g>
        <g id="🎨-color" mask="url(#mask-2)" fill="#000000">
            <rect id="🎨-Color" x="0" y="0" width="24" height="24"></rect>
        </g>
    </g>
</svg>