<?xml version="1.0" encoding="UTF-8"?>
<svg width="24px" height="24px" viewBox="0 0 24 24" version="1.1" xmlns="http://www.w3.org/2000/svg" xmlns:xlink="http://www.w3.org/1999/xlink">
    <!-- Generator: Sketch 52.5 (67469) - http://www.bohemiancoding.com/sketch -->
    <title>graduation-cap</title>
    <desc>Created with Sketch.</desc>
    <defs>
        <path d="M21.4177848,8.79251168 L12.7145086,6.11856471 C12.2402496,5.97285488 11.7285491,5.97285488 11.2546022,6.11856471 L2.55101399,8.79251168 C1.81653661,9.01809671 1.81653661,9.98939157 2.55101399,10.2149766 L4.06833069,10.6811232 C3.73541338,11.0926677 3.53073319,11.5946958 3.51045238,12.1444618 C3.20998436,12.3166927 2.99843989,12.6274571 2.99843989,12.9984399 C2.99843989,13.3347894 3.17566298,13.6177847 3.43088919,13.798752 L2.63432133,17.3831514 C2.56505456,17.6948518 2.80218404,17.9906397 3.12137281,17.9906397 L4.87207485,17.9906397 C5.19157563,17.9906397 5.42870512,17.6948518 5.35943834,17.3831514 L4.56287048,13.798752 C4.81809669,13.6177847 4.99531978,13.3347894 4.99531978,12.9984399 C4.99531978,12.6374415 4.7934477,12.3354134 4.50670823,12.1600624 C4.53042118,11.6914197 4.77004677,11.2770671 5.15226206,11.0143526 L11.2542902,12.8892356 C11.5369735,12.975975 12.0792512,13.0842434 12.7141966,12.8892356 L21.4177848,10.2152886 C22.1525742,9.98939157 22.1525742,9.01840872 21.4177848,8.79251168 Z M13.0074883,13.8436818 C12.1173167,14.1170047 11.3588143,13.9659906 10.9609984,13.8436818 L6.43619342,12.4536661 L5.99375972,15.9937598 C5.99375972,17.0967239 8.67581902,17.9906397 11.9843994,17.9906397 C15.2929797,17.9906397 17.975039,17.0967239 17.975039,15.9937598 L17.5326053,12.4533541 L13.0074883,13.8436818 Z" id="path-1"></path>
    </defs>
    <g id="graduation-cap" stroke="none" stroke-width="1" fill="none" fill-rule="evenodd">
        <mask id="mask-2" fill="white">
            <use xlink:href="#path-1"></use>
        </mask>
        <g fill-rule="nonzero"></g>
        <g id="🎨-color" mask="url(#mask-2)" fill="#000000">
            <rect id="🎨-Color" x="0" y="0" width="24" height="24"></rect>
        </g>
    </g>
</svg>