<?xml version="1.0" encoding="UTF-8"?>
<svg width="24px" height="24px" viewBox="0 0 24 24" version="1.1" xmlns="http://www.w3.org/2000/svg" xmlns:xlink="http://www.w3.org/1999/xlink">
    <!-- Generator: Sketch 52.5 (67469) - http://www.bohemiancoding.com/sketch -->
    <title>gratipay</title>
    <desc>Created with Sketch.</desc>
    <defs>
        <path d="M12,2.31249995 C6.65234372,2.31249995 2.31249995,6.65234372 2.31249995,12 C2.31249995,17.3476563 6.65234372,21.6875 12,21.6875 C17.3476563,21.6875 21.6875,17.3476563 21.6875,12 C21.6875,6.65234372 17.3476563,2.31249995 12,2.31249995 Z M16.4765625,11.15625 L12.0625,17.1210938 L7.66015623,11.15625 C7.32031248,10.6914062 6.91406247,9.18749999 8.19140623,8.34374998 C9.28906249,7.63671873 10.3242187,8.17968748 10.8671875,8.80859373 C11.4882812,9.50781249 12.6875,9.46874999 13.2773438,8.80859373 C13.8203125,8.17968748 14.8554688,7.63671873 15.9375,8.34374998 C17.2226563,9.18749999 16.8203125,10.6875 16.4765625,11.15625 Z" id="path-1"></path>
    </defs>
    <g id="gratipay" stroke="none" stroke-width="1" fill="none" fill-rule="evenodd">
        <mask id="mask-2" fill="white">
            <use xlink:href="#path-1"></use>
        </mask>
        <g fill-rule="nonzero"></g>
        <g id="🎨-color" mask="url(#mask-2)" fill="#000000">
            <rect id="🎨-Color" x="0" y="0" width="24" height="24"></rect>
        </g>
    </g>
</svg>