<?xml version="1.0" encoding="UTF-8"?>
<svg width="24px" height="24px" viewBox="0 0 24 24" version="1.1" xmlns="http://www.w3.org/2000/svg" xmlns:xlink="http://www.w3.org/1999/xlink">
    <!-- Generator: Sketch 52.5 (67469) - http://www.bohemiancoding.com/sketch -->
    <title>grav</title>
    <desc>Created with Sketch.</desc>
    <defs>
        <path d="M13.7617188,10.28125 C13.9335938,10.453125 13.9335938,10.7460937 13.7617188,10.9179687 L13.3828125,11.296875 C13.2109375,11.4804687 12.9179688,11.4804687 12.734375,11.296875 L12.3242188,10.8867187 C12.1523438,10.703125 12.1523438,10.421875 12.3242188,10.2382812 L12.703125,9.85937499 C12.875,9.68749999 13.1679688,9.68749999 13.3515625,9.85937499 L13.7617188,10.28125 Z M12.5820313,9.51171874 C12.6992188,9.39453124 12.6992188,9.20703124 12.5820313,9.10156249 C12.4726563,8.98437498 12.2890625,8.98437498 12.171875,9.10156249 C12.0625,9.21093749 12.0625,9.39453124 12.171875,9.51171874 C12.2929688,9.62109374 12.4765625,9.62109374 12.5820313,9.51171874 Z M11.5664062,9.71874999 C11.4492187,9.82812499 11.4492187,10.0117187 11.5664062,10.1171875 C11.6757812,10.234375 11.859375,10.234375 11.9765625,10.1171875 C12.0859375,10.0078125 12.0859375,9.82421874 11.9765625,9.71874999 C11.859375,9.60156249 11.6757812,9.60156249 11.5664062,9.71874999 Z M14.3984375,9.19921874 C13.6210938,8.63671873 13.078125,7.51171873 13.9335938,6.53906247 C14.7773438,5.56640622 15.5234375,5.86718747 16.2695313,6.57031247 C16.734375,7.01171873 17.4140625,7.54296873 16.9414063,8.45312498 C16.453125,9.37109374 15.1796875,9.74999999 14.3984375,9.19921874 Z M16.2617188,7.46093748 C15.9140625,7.07031248 15.3515625,7.73046873 15.65625,8.08984373 C15.9453125,8.44140623 16.9101563,8.18359373 16.2617188,7.46093748 Z M21.6875,12 C21.6875,17.3515625 17.3515625,21.6875 12,21.6875 C6.64843747,21.6875 2.31249995,17.3515625 2.31249995,12 C2.31249995,6.64843747 6.64843747,2.31249995 12,2.31249995 C17.3515625,2.31249995 21.6875,6.64843747 21.6875,12 Z M19.1015625,13.6640625 C19.1992188,13.0351563 18.3125,13.015625 18.1171875,12.6601563 C17.5859375,11.71875 17.0351563,11.2226562 15.9882813,11.4726562 C16.4414063,11.1601562 16.90625,11.234375 16.90625,11.234375 C16.9179688,10.984375 16.90625,10.7265625 16.5390625,10.2617187 C16.6914063,9.77343749 16.5507813,9.38671874 16.5507813,9.38671874 C17.15625,9.05078124 17.5976563,8.43359373 17.6875,7.69921873 C17.828125,6.48828122 16.953125,5.38671872 15.7421875,5.24609372 C14.8789063,5.14843747 14.0351563,5.54687497 13.6210938,6.24999997 C12.7148438,7.81640623 13.6757813,9.01953124 14.4960938,9.42968749 C13.9335938,9.37499999 13.15625,8.96484373 12.9296875,8.08984373 C12.671875,7.08593748 13.0390625,6.14453122 13.2773438,5.69140622 C13.2773438,5.69140622 13.1054688,5.46484372 12.9648438,5.34374997 C12.9648438,5.34374997 12.4257813,5.34374997 12.0039063,5.55078122 C12.46875,4.95703121 12.9882813,4.98828121 12.9882813,4.98828121 C12.9882813,4.73828121 12.9648438,4.40624996 12.8476563,4.14453121 C12.6367188,3.71484371 11.9179687,3.64062496 11.609375,4.25390621 C11.6132812,4.24609371 11.6210937,4.23828121 11.625,4.23437496 C11.4296875,4.69921871 11.5820312,6.41796872 12.2851563,7.64062498 C12.1875,7.69531248 11.9296875,7.87890623 11.7773437,8.03124998 C10.9335937,8.41015623 9.58203124,10.3867187 9.58203124,10.3867187 C8.48046873,10.8085937 6.56640622,12.375 6.82421872,13.5 C6.83593747,13.6171875 6.87890622,13.7148438 6.94140622,13.7929688 C6.83203122,13.8789063 6.72656247,13.9882813 6.61718747,14.1171875 C6.15234372,14.65625 6.41015622,15.4921875 7.30859373,15.0703125 C7.92578123,14.7890625 8.46484373,14.28125 8.72656248,13.8828125 C8.72656248,13.8828125 8.51171873,13.6875 8.08984373,13.7109375 C9.17187499,13.453125 9.42968749,13.34375 9.89453124,13.3554688 C10.2070312,13.5078125 10.2070312,12.015625 10.2070312,12.015625 C10.2070312,11.4414062 10.1210937,10.8046875 9.77343749,10.3945312 C10.2617187,10.8710937 10.9101562,11.671875 10.8671875,12.7617188 C10.8359375,13.4765625 10.2734375,13.6601563 10.2734375,13.6601563 C9.91796874,14.3085938 8.58593748,16.234375 9.08593749,17.8007813 C9.08593749,17.8007813 8.70703123,17.21875 8.68749998,16.9375 C8.00781248,17.6953125 6.87109372,18.9804688 7.72656248,19.4570313 C8.76562498,20.03125 11.9765625,15.9960938 12.65625,13.8984375 C14.0078125,13.0859375 14.8203125,12.0507813 15.1523438,11.359375 C16.0117188,13.0585938 18.875,15.0507813 19.1015625,13.6640625 Z" id="path-1"></path>
    </defs>
    <g id="grav" stroke="none" stroke-width="1" fill="none" fill-rule="evenodd">
        <mask id="mask-2" fill="white">
            <use xlink:href="#path-1"></use>
        </mask>
        <g fill-rule="nonzero"></g>
        <g id="🎨-color" mask="url(#mask-2)" fill="#000000">
            <rect id="🎨-Color" x="0" y="0" width="24" height="24"></rect>
        </g>
    </g>
</svg>