<?xml version="1.0" encoding="UTF-8"?>
<svg width="24px" height="24px" viewBox="0 0 24 24" version="1.1" xmlns="http://www.w3.org/2000/svg" xmlns:xlink="http://www.w3.org/1999/xlink">
    <!-- Generator: Sketch 52.5 (67469) - http://www.bohemiancoding.com/sketch -->
    <title>greater-than-equal</title>
    <desc>Created with Sketch.</desc>
    <defs>
        <path d="M5.40703122,6.2066406 L12.2648438,8.86640623 L5.41171872,11.5246094 C4.69335934,11.7601562 4.32265621,12.4773438 4.58359371,13.1261719 L5.05585934,14.3011719 C5.31679684,14.95 6.11015622,15.2851563 6.8285156,15.0492188 L18.6023438,10.3671875 C19.1402344,10.190625 19.5,9.71835936 19.5,9.18867186 L19.5,8.56523436 C19.5,8.03554686 19.1402344,7.56328123 18.6023438,7.38671873 L6.81640622,2.69999995 C6.1019531,2.46562495 5.31210934,2.79882808 5.05273434,3.44453121 L4.58281246,4.61328121 C4.32343746,5.25898434 4.69257809,5.97226559 5.40703122,6.2066406 Z M19.8125,17.625 L4.18749996,17.625 C3.66992183,17.625 3.24999996,18.0445313 3.24999996,18.5625 L3.24999996,20.4375 C3.24999996,20.9550782 3.66992183,21.375 4.18749996,21.375 L19.8125,21.375 C20.3300782,21.375 20.75,20.9550782 20.75,20.4375 L20.75,18.5625 C20.75,18.0445313 20.3300782,17.625 19.8125,17.625 Z" id="path-1"></path>
    </defs>
    <g id="greater-than-equal" stroke="none" stroke-width="1" fill="none" fill-rule="evenodd">
        <mask id="mask-2" fill="white">
            <use xlink:href="#path-1"></use>
        </mask>
        <g fill-rule="nonzero"></g>
        <g id="🎨-color" mask="url(#mask-2)" fill="#000000">
            <rect id="🎨-Color" x="0" y="0" width="24" height="24"></rect>
        </g>
    </g>
</svg>