<?xml version="1.0" encoding="UTF-8"?>
<svg width="24px" height="24px" viewBox="0 0 24 24" version="1.1" xmlns="http://www.w3.org/2000/svg" xmlns:xlink="http://www.w3.org/1999/xlink">
    <!-- Generator: Sketch 52.5 (67469) - http://www.bohemiancoding.com/sketch -->
    <title>grimace</title>
    <desc>Created with Sketch.</desc>
    <defs>
        <path d="M12,2.31249995 C6.64843747,2.31249995 2.31249995,6.64843747 2.31249995,12 C2.31249995,17.3515625 6.64843747,21.6875 12,21.6875 C17.3515625,21.6875 21.6875,17.3515625 21.6875,12 C21.6875,6.64843747 17.3515625,2.31249995 12,2.31249995 Z M12,19.8125 C7.69140623,19.8125 4.18749996,16.3085938 4.18749996,12 C4.18749996,7.69140623 7.69140623,4.18749996 12,4.18749996 C16.3085938,4.18749996 19.8125,7.69140623 19.8125,12 C19.8125,16.3085938 16.3085938,19.8125 12,19.8125 Z M8.87499998,11.375 C9.56640624,11.375 10.125,10.8164062 10.125,10.125 C10.125,9.43359374 9.56640624,8.87499998 8.87499998,8.87499998 C8.18359373,8.87499998 7.62499998,9.43359374 7.62499998,10.125 C7.62499998,10.8164062 8.18359373,11.375 8.87499998,11.375 Z M15.125,11.375 C15.8164063,11.375 16.375,10.8164062 16.375,10.125 C16.375,9.43359374 15.8164063,8.87499998 15.125,8.87499998 C14.4335938,8.87499998 13.875,9.43359374 13.875,10.125 C13.875,10.8164062 14.4335938,11.375 15.125,11.375 Z M15.75,12 L8.24999998,12 C7.21484373,12 6.37499997,12.8398438 6.37499997,13.875 L6.37499997,15.125 C6.37499997,16.1601563 7.21484373,17 8.24999998,17 L15.75,17 C16.7851563,17 17.625,16.1601563 17.625,15.125 L17.625,13.875 C17.625,12.8398438 16.7851563,12 15.75,12 Z M9.18749999,15.75 L8.24999998,15.75 C7.90624998,15.75 7.62499998,15.46875 7.62499998,15.125 L7.62499998,14.8125 L9.18749999,14.8125 L9.18749999,15.75 Z M9.18749999,14.1875 L7.62499998,14.1875 L7.62499998,13.875 C7.62499998,13.53125 7.90624998,13.25 8.24999998,13.25 L9.18749999,13.25 L9.18749999,14.1875 Z M11.6875,15.75 L9.81249999,15.75 L9.81249999,14.8125 L11.6875,14.8125 L11.6875,15.75 Z M11.6875,14.1875 L9.81249999,14.1875 L9.81249999,13.25 L11.6875,13.25 L11.6875,14.1875 Z M14.1875,15.75 L12.3125,15.75 L12.3125,14.8125 L14.1875,14.8125 L14.1875,15.75 Z M14.1875,14.1875 L12.3125,14.1875 L12.3125,13.25 L14.1875,13.25 L14.1875,14.1875 Z M16.375,15.125 C16.375,15.46875 16.09375,15.75 15.75,15.75 L14.8125,15.75 L14.8125,14.8125 L16.375,14.8125 L16.375,15.125 Z M16.375,14.1875 L14.8125,14.1875 L14.8125,13.25 L15.75,13.25 C16.09375,13.25 16.375,13.53125 16.375,13.875 L16.375,14.1875 Z" id="path-1"></path>
    </defs>
    <g id="grimace" stroke="none" stroke-width="1" fill="none" fill-rule="evenodd">
        <mask id="mask-2" fill="white">
            <use xlink:href="#path-1"></use>
        </mask>
        <g fill-rule="nonzero"></g>
        <g id="🎨-color" mask="url(#mask-2)" fill="#000000">
            <rect id="🎨-Color" x="0" y="0" width="24" height="24"></rect>
        </g>
    </g>
</svg>