<?xml version="1.0" encoding="UTF-8"?>
<svg width="24px" height="24px" viewBox="0 0 24 24" version="1.1" xmlns="http://www.w3.org/2000/svg" xmlns:xlink="http://www.w3.org/1999/xlink">
    <!-- Generator: Sketch 52.5 (67469) - http://www.bohemiancoding.com/sketch -->
    <title>grin-squint-tears</title>
    <desc>Created with Sketch.</desc>
    <defs>
        <path d="M6.59533071,16.9844358 C5.59143966,17.1284047 3.32684821,17.5175098 2.66926065,18.1750973 C1.81712057,19.0272374 1.83268477,20.4280156 2.70428011,21.2996109 C3.57587544,22.1712063 4.97276261,22.1867705 5.82879374,21.3346304 C6.4863813,20.6770428 6.87548636,18.4124514 7.01945523,17.4085603 C7.05058363,17.1595331 6.8404669,16.9494164 6.59533071,16.9844358 Z M4.99221786,15.3618677 C3.60700385,12.4669261 4.10116728,8.89105057 6.49805445,6.49805445 C7.96887158,5.02723732 9.92217898,4.21789879 12,4.21789879 C13.4085603,4.21789879 14.7548638,4.59922175 15.9377432,5.29571981 C16.0856031,4.50583654 16.2490273,3.89105054 16.4046693,3.41634237 C15.0272374,2.70817116 13.5136187,2.3501945 12,2.3501945 C9.52918287,2.3501945 7.06225678,3.29182875 5.17509724,5.17509724 C2.29182875,8.05836574 1.62256804,12.311284 3.15175093,15.8365759 C3.6264591,15.6770428 4.22957195,15.5136187 4.99221786,15.3618677 Z M18.7003891,8.06225679 C20.4513619,11.0428016 20.0583658,14.9455253 17.5019456,17.5019456 C16.0311284,18.9727627 14.077821,19.7821012 12,19.7821012 C10.8132296,19.7821012 9.67315174,19.5097277 8.63813228,19.0116732 C8.48638131,19.7704281 8.32684823,20.3735409 8.16342411,20.8482491 C9.38521399,21.377432 10.692607,21.6498055 12.0038911,21.6498055 C14.4747082,21.6498055 16.9416343,20.7081712 18.8287938,18.8249028 C21.8677043,15.7859922 22.4513619,11.2217899 20.5875487,7.59533072 C20.1089495,7.75097274 19.4902724,7.91050582 18.7003891,8.06225679 Z M17.4046693,7.01556418 C18.4085603,6.87159531 20.6731518,6.48249024 21.3307393,5.82490269 C22.1828794,4.97276261 22.1673152,3.57198439 21.2957199,2.70038906 C20.4241246,1.82879372 19.0272374,1.81322952 18.1712063,2.6653696 C17.5136187,3.32295716 17.1245136,5.58754861 16.9805448,6.59143966 C16.9494164,6.8404669 17.1595331,7.05058363 17.4046693,7.01556418 Z M10.1284047,11.229572 C10.0116731,11.1128405 9.84824902,11.0661479 9.68482489,11.1050584 L6.1634241,11.9883268 C5.94163421,12.0428016 5.79377429,12.2490272 5.80933849,12.4785992 C5.82879374,12.7042802 6.00778207,12.8871595 6.23346301,12.9066148 L8.26848247,13.0933852 L8.4552529,15.1284047 C8.47470815,15.3540856 8.65758753,15.5330739 8.88326847,15.5525292 L8.91828792,15.5525292 C9.13229571,15.5525292 9.31906613,15.4085603 9.37354084,15.1984436 L10.2529183,11.6770428 C10.2918288,11.5136187 10.2451362,11.3463035 10.1284047,11.229572 Z M11.6731517,10.2529183 L15.1945525,9.37354084 C15.4163424,9.31906613 15.5642024,9.11284045 15.5486382,8.88326847 C15.5291829,8.65758753 15.3501946,8.47470815 15.1245136,8.4552529 L13.0894942,8.26848247 L12.9027237,6.23346301 C12.8832685,6.00778207 12.7003891,5.82879374 12.4747082,5.80933849 C12.2568093,5.80544744 12.0389105,5.94163421 11.9844358,6.1634241 L11.1050584,9.68482489 C11.0661479,9.84435797 11.1128405,10.0116731 11.229572,10.1284047 C11.4241245,10.3229572 11.6692607,10.2529183 11.6731517,10.2529183 Z M13.6964981,13.6964981 C12.5642023,14.8287938 11.3735409,15.7548638 10.4319066,16.2412452 C10.07393,16.4280156 10.0428015,16.922179 10.3657587,17.151751 C11.8793774,18.229572 14.5291829,17.3929961 15.9571985,15.9610895 C17.385214,14.5291829 18.225681,11.8832685 17.1478599,10.3696498 C16.922179,10.0505836 16.4280156,10.07393 16.2373541,10.4357977 C15.7587549,11.3774319 14.8287938,12.5642023 13.6964981,13.6964981 Z" id="path-1"></path>
    </defs>
    <g id="grin-squint-tears" stroke="none" stroke-width="1" fill="none" fill-rule="evenodd">
        <mask id="mask-2" fill="white">
            <use xlink:href="#path-1"></use>
        </mask>
        <g fill-rule="nonzero"></g>
        <g id="🎨-color" mask="url(#mask-2)" fill="#000000">
            <rect id="🎨-Color" x="0" y="0" width="24" height="24"></rect>
        </g>
    </g>
</svg>