<?xml version="1.0" encoding="UTF-8"?>
<svg width="24px" height="24px" viewBox="0 0 24 24" version="1.1" xmlns="http://www.w3.org/2000/svg" xmlns:xlink="http://www.w3.org/1999/xlink">
    <!-- Generator: Sketch 52.5 (67469) - http://www.bohemiancoding.com/sketch -->
    <title>grin-stars</title>
    <desc>Created with Sketch.</desc>
    <defs>
        <path d="M12,2.31249995 C6.64843747,2.31249995 2.31249995,6.64843747 2.31249995,12 C2.31249995,17.3515625 6.64843747,21.6875 12,21.6875 C17.3515625,21.6875 21.6875,17.3515625 21.6875,12 C21.6875,6.64843747 17.3515625,2.31249995 12,2.31249995 Z M12,19.8125 C7.69140623,19.8125 4.18749996,16.3085938 4.18749996,12 C4.18749996,7.69140623 7.69140623,4.18749996 12,4.18749996 C16.3085938,4.18749996 19.8125,7.69140623 19.8125,12 C19.8125,16.3085938 16.3085938,19.8125 12,19.8125 Z M16.125,13.8984375 C15.1132813,14.2226563 13.609375,14.4101563 12,14.4101563 C10.390625,14.4101563 8.89062498,14.2226563 7.87499998,13.8984375 C7.49218748,13.7773438 7.11718748,14.1054688 7.18359373,14.4960938 C7.49218748,16.3398438 9.96874999,17.6210938 12,17.6210938 C14.03125,17.6210938 16.5039063,16.3359375 16.8164063,14.4960938 C16.8789063,14.1132813 16.515625,13.7773438 16.125,13.8984375 Z M7.22265623,11.6523437 C7.18359373,11.8945312 7.43359373,12.0820313 7.65234373,11.9609375 L8.87499998,11.3242187 L10.0976562,11.9609375 C10.3164062,12.0820313 10.5664062,11.8945312 10.5273437,11.6523437 L10.2929687,10.2890625 L11.2851562,9.32812499 C11.4609375,9.15234374 11.359375,8.85156248 11.1171875,8.81249998 L9.75390624,8.61718748 L9.14843749,7.38281248 C9.03515624,7.15624998 8.71874998,7.15624998 8.60546873,7.38281248 L7.99999998,8.61718748 L6.63671872,8.81249998 C6.39453122,8.84765623 6.28906247,9.14843749 6.46874997,9.32812499 L7.46093748,10.2890625 L7.22265623,11.6523437 Z M17.3671875,8.81249998 L16.0039063,8.61718748 L15.3984375,7.38281248 C15.2851563,7.15624998 14.96875,7.15624998 14.8554688,7.38281248 L14.25,8.61718748 L12.8867188,8.81249998 C12.6445313,8.84765623 12.5390625,9.14843749 12.71875,9.32812499 L13.7109375,10.2890625 L13.4765625,11.6523437 C13.4375,11.8945312 13.6875,12.0820313 13.90625,11.9609375 L15.1289063,11.3242187 L16.3515625,11.9609375 C16.5703125,12.0820313 16.8203125,11.8945312 16.78125,11.6523437 L16.546875,10.2890625 L17.5390625,9.32812499 C17.7148438,9.14843749 17.609375,8.85156248 17.3671875,8.81249998 Z" id="path-1"></path>
    </defs>
    <g id="grin-stars" stroke="none" stroke-width="1" fill="none" fill-rule="evenodd">
        <mask id="mask-2" fill="white">
            <use xlink:href="#path-1"></use>
        </mask>
        <g fill-rule="nonzero"></g>
        <g id="🎨-color" mask="url(#mask-2)" fill="#000000">
            <rect id="🎨-Color" x="0" y="0" width="24" height="24"></rect>
        </g>
    </g>
</svg>