<?xml version="1.0" encoding="UTF-8"?>
<svg width="24px" height="24px" viewBox="0 0 24 24" version="1.1" xmlns="http://www.w3.org/2000/svg" xmlns:xlink="http://www.w3.org/1999/xlink">
    <!-- Generator: Sketch 52.5 (67469) - http://www.bohemiancoding.com/sketch -->
    <title>grin-alt</title>
    <desc>Created with Sketch.</desc>
    <defs>
        <path d="M10.1367187,11.6875 C10.6210937,10.9570312 10.7265625,10.2304687 10.75,9.49999999 C10.7304687,8.76953123 10.6210937,8.04296873 10.1367187,7.31249998 C9.82421874,6.84374997 9.15624999,6.86718747 8.85937498,7.31249998 C8.37499998,8.04296873 8.26953123,8.76953123 8.24609373,9.49999999 C8.26562498,10.2304687 8.37499998,10.9570312 8.85937498,11.6875 C9.17578124,12.15625 9.84374999,12.1328125 10.1367187,11.6875 Z M15.1367188,11.6875 C15.6210938,10.9570312 15.7265625,10.2304687 15.75,9.49999999 C15.7304688,8.76953123 15.6210938,8.04296873 15.1367188,7.31249998 C14.8242188,6.84374997 14.15625,6.86718747 13.859375,7.31249998 C13.375,8.04296873 13.2695313,8.76953123 13.2460938,9.49999999 C13.265625,10.2304687 13.375,10.9570312 13.859375,11.6875 C14.1757813,12.15625 14.84375,12.1328125 15.1367188,11.6875 Z M12,2.31249995 C6.64843747,2.31249995 2.31249995,6.64843747 2.31249995,12 C2.31249995,17.3515625 6.64843747,21.6875 12,21.6875 C17.3515625,21.6875 21.6875,17.3515625 21.6875,12 C21.6875,6.64843747 17.3515625,2.31249995 12,2.31249995 Z M12,19.8125 C7.69140623,19.8125 4.18749996,16.3085938 4.18749996,12 C4.18749996,7.69140623 7.69140623,4.18749996 12,4.18749996 C16.3085938,4.18749996 19.8125,7.69140623 19.8125,12 C19.8125,16.3085938 16.3085938,19.8125 12,19.8125 Z M16.125,13.8984375 C15.1132813,14.2226563 13.609375,14.4101563 12,14.4101563 C10.390625,14.4101563 8.89062498,14.2226563 7.87499998,13.8984375 C7.48828123,13.7773438 7.11718748,14.1054688 7.18359373,14.4960938 C7.49218748,16.3398438 9.96874999,17.6210938 12,17.6210938 C14.03125,17.6210938 16.5039063,16.3359375 16.8164063,14.4960938 C16.8789063,14.1132813 16.515625,13.7773438 16.125,13.8984375 Z" id="path-1"></path>
    </defs>
    <g id="grin-alt" stroke="none" stroke-width="1" fill="none" fill-rule="evenodd">
        <mask id="mask-2" fill="white">
            <use xlink:href="#path-1"></use>
        </mask>
        <g fill-rule="nonzero"></g>
        <g id="🎨-color" mask="url(#mask-2)" fill="#000000">
            <rect id="🎨-Color" x="0" y="0" width="24" height="24"></rect>
        </g>
    </g>
</svg>