<?xml version="1.0" encoding="UTF-8"?>
<svg width="24px" height="24px" viewBox="0 0 24 24" version="1.1" xmlns="http://www.w3.org/2000/svg" xmlns:xlink="http://www.w3.org/1999/xlink">
    <!-- Generator: Sketch 52.5 (67469) - http://www.bohemiancoding.com/sketch -->
    <title>grin-beam-sweat</title>
    <desc>Created with Sketch.</desc>
    <defs>
        <path d="M19.5,8.24999998 C20.6523438,8.24999998 21.5820313,7.22265623 21.5820313,5.95703122 C21.5820313,4.98046871 20.34375,3.00781246 19.7773438,2.15624995 C19.6367188,1.9492187 19.359375,1.9492187 19.2226563,2.15624995 C18.65625,3.00781246 17.4179688,4.98046871 17.4179688,5.95703122 C17.4179688,7.22265623 18.3476563,8.24999998 19.5,8.24999998 Z M12,17.625 C14.0273438,17.625 16.5039063,16.3398438 16.8164063,14.5 C16.8828125,14.1132813 16.515625,13.7773438 16.125,13.9023438 C15.1132813,14.2265625 13.609375,14.4140625 12,14.4140625 C10.390625,14.4140625 8.89062498,14.2265625 7.87499998,13.9023438 C7.49218748,13.78125 7.11718748,14.109375 7.18359373,14.5 C7.49609373,16.3398438 9.97265624,17.625 12,17.625 Z M17.0898438,11.0507812 C17.2304688,11.0078125 17.3242188,10.875 17.3125,10.7265625 C17.1835938,9.08203124 16.0546875,7.93749998 15.125,7.93749998 C14.1953125,7.93749998 13.0664063,9.08203124 12.9375,10.7265625 C12.9257813,10.8710937 13.0195313,11.0078125 13.1601563,11.0507812 C13.296875,11.09375 13.4492188,11.03125 13.5234375,10.90625 L13.8945313,10.2421875 C14.1953125,9.70703124 14.6445313,9.39843749 15.125,9.39843749 C15.6054688,9.39843749 16.0546875,9.70703124 16.3554688,10.2421875 L16.7265625,10.90625 C16.8085938,11.046875 16.96875,11.0859375 17.0898438,11.0507812 Z M21.203125,8.98437498 C20.2421875,9.59765624 19.40625,9.48828124 19.390625,9.48828124 C19.6601563,10.2773437 19.8125,11.1210937 19.8125,12 C19.8125,16.3085938 16.3085938,19.8125 12,19.8125 C7.69140623,19.8125 4.18749996,16.3085938 4.18749996,12 C4.18749996,7.69140623 7.69140623,4.18749996 12,4.18749996 C13.5546875,4.18749996 15,4.64843746 16.21875,5.43359372 C16.2851563,5.06249997 16.4648438,4.49218746 16.890625,3.64843746 C15.453125,2.80468745 13.7851563,2.31249995 12,2.31249995 C6.64843747,2.31249995 2.31249995,6.64843747 2.31249995,12 C2.31249995,17.3515625 6.64843747,21.6875 12,21.6875 C17.3515625,21.6875 21.6875,17.3515625 21.6875,12 C21.6875,10.9453125 21.515625,9.93359374 21.203125,8.98437498 Z M8.87499998,9.39843749 C9.35546874,9.39843749 9.80468749,9.70703124 10.1054687,10.2421875 L10.4765625,10.90625 C10.5585937,11.0507812 10.71875,11.0898437 10.8398437,11.0507812 C10.9804687,11.0078125 11.0742187,10.875 11.0625,10.7265625 C10.9335937,9.08203124 9.80468749,7.93749998 8.87499998,7.93749998 C7.94531248,7.93749998 6.81640622,9.08203124 6.68749997,10.7265625 C6.67578122,10.8710937 6.76953122,11.0078125 6.91015622,11.0507812 C7.04687498,11.09375 7.19921873,11.03125 7.27343748,10.90625 L7.64453123,10.2421875 C7.94531248,9.70312499 8.39453123,9.39843749 8.87499998,9.39843749 Z" id="path-1"></path>
    </defs>
    <g id="grin-beam-sweat" stroke="none" stroke-width="1" fill="none" fill-rule="evenodd">
        <mask id="mask-2" fill="white">
            <use xlink:href="#path-1"></use>
        </mask>
        <g fill-rule="nonzero"></g>
        <g id="🎨-color" mask="url(#mask-2)" fill="#000000">
            <rect id="🎨-Color" x="0" y="0" width="24" height="24"></rect>
        </g>
    </g>
</svg>