<?xml version="1.0" encoding="UTF-8"?>
<svg width="24px" height="24px" viewBox="0 0 24 24" version="1.1" xmlns="http://www.w3.org/2000/svg" xmlns:xlink="http://www.w3.org/1999/xlink">
    <!-- Generator: Sketch 52.5 (67469) - http://www.bohemiancoding.com/sketch -->
    <title>grin-tears</title>
    <desc>Created with Sketch.</desc>
    <defs>
        <path d="M5.65937497,12.003125 C4.85312496,12.11875 3.03437496,12.43125 2.50624995,12.959375 C1.82187495,13.64375 1.83437495,14.76875 2.53437495,15.46875 C3.23437496,16.16875 4.35624996,16.18125 5.04374997,15.496875 C5.57187497,14.96875 5.88437497,13.15 5.99999997,12.34375 C6.02499997,12.14375 5.85624997,11.975 5.65937497,12.003125 Z M21.49375,12.959375 C20.965625,12.43125 19.146875,12.11875 18.340625,12.003125 C18.14375,11.975 17.975,12.14375 18.003125,12.340625 C18.11875,13.146875 18.43125,14.965625 18.959375,15.49375 C19.64375,16.178125 20.76875,16.165625 21.46875,15.465625 C22.1656251,14.76875 22.1781251,13.64375 21.49375,12.959375 Z M17.5375,14.8875 C16.49375,16.884375 14.403125,18.25 12,18.25 C9.59687499,18.25 7.50624998,16.884375 6.46249997,14.8875 C6.07187497,16.05625 5.67499997,16.259375 5.57812497,16.340625 C6.97187497,18.396875 9.32812499,19.75 12,19.75 C14.671875,19.75 17.028125,18.396875 18.421875,16.340625 C18.321875,16.25625 17.925,16.053125 17.5375,14.8875 Z M5.83437497,11.015625 C6.30937497,8.03749998 8.89062498,5.74999997 12,5.74999997 C15.109375,5.74999997 17.690625,8.03749998 18.165625,11.015625 C18.23125,11.009375 18.328125,10.940625 19.7125,11.234375 C19.325,7.31249998 16.021875,4.24999996 12,4.24999996 C7.97812498,4.24999996 4.67499996,7.31249998 4.28749996,11.23125 C5.67812497,10.9375 5.75937497,11.00625 5.83437497,11.015625 Z M12,16.5 C13.621875,16.5 15.603125,15.471875 15.853125,14 C15.90625,13.690625 15.6125,13.421875 15.3,13.521875 C14.490625,13.78125 13.2875,13.93125 12,13.93125 C10.7125,13.93125 9.51249999,13.78125 8.69999998,13.521875 C8.39374998,13.425 8.09374998,13.6875 8.14687498,14 C8.39687498,15.471875 10.378125,16.5 12,16.5 Z M16.071875,11.240625 C16.184375,11.20625 16.259375,11.1 16.25,10.98125 C16.146875,9.66562499 15.24375,8.74999998 14.5,8.74999998 C13.75625,8.74999998 12.853125,9.66562499 12.75,10.98125 C12.740625,11.096875 12.815625,11.20625 12.928125,11.240625 C13.0375,11.275 13.159375,11.225 13.21875,11.125 L13.515625,10.59375 C13.75625,10.165625 14.115625,9.91874999 14.5,9.91874999 C14.884375,9.91874999 15.24375,10.165625 15.484375,10.59375 L15.78125,11.125 C15.846875,11.2375 15.975,11.26875 16.071875,11.240625 Z M9.49999999,9.91874999 C9.88437499,9.91874999 10.24375,10.165625 10.484375,10.59375 L10.78125,11.125 C10.846875,11.240625 10.975,11.271875 11.071875,11.240625 C11.184375,11.20625 11.259375,11.1 11.25,10.98125 C11.146875,9.66562499 10.24375,8.74999998 9.49999999,8.74999998 C8.75624998,8.74999998 7.85312498,9.66562499 7.74999998,10.98125 C7.74062498,11.096875 7.81562498,11.20625 7.92812498,11.240625 C8.03749998,11.275 8.15937498,11.225 8.21874998,11.125 L8.51562498,10.59375 C8.75624998,10.1625 9.11562499,9.91874999 9.49999999,9.91874999 Z" id="path-1"></path>
    </defs>
    <g id="grin-tears" stroke="none" stroke-width="1" fill="none" fill-rule="evenodd">
        <mask id="mask-2" fill="white">
            <use xlink:href="#path-1"></use>
        </mask>
        <g fill-rule="nonzero"></g>
        <g id="🎨-color" mask="url(#mask-2)" fill="#000000">
            <rect id="🎨-Color" x="0" y="0" width="24" height="24"></rect>
        </g>
    </g>
</svg>