<?xml version="1.0" encoding="UTF-8"?>
<svg width="24px" height="24px" viewBox="0 0 24 24" version="1.1" xmlns="http://www.w3.org/2000/svg" xmlns:xlink="http://www.w3.org/1999/xlink">
    <!-- Generator: Sketch 52.5 (67469) - http://www.bohemiancoding.com/sketch -->
    <title>grin</title>
    <desc>Created with Sketch.</desc>
    <defs>
        <path d="M12,2.31249995 C6.64843747,2.31249995 2.31249995,6.64843747 2.31249995,12 C2.31249995,17.3515625 6.64843747,21.6875 12,21.6875 C17.3515625,21.6875 21.6875,17.3515625 21.6875,12 C21.6875,6.64843747 17.3515625,2.31249995 12,2.31249995 Z M12,19.8125 C7.69140623,19.8125 4.18749996,16.3085938 4.18749996,12 C4.18749996,7.69140623 7.69140623,4.18749996 12,4.18749996 C16.3085938,4.18749996 19.8125,7.69140623 19.8125,12 C19.8125,16.3085938 16.3085938,19.8125 12,19.8125 Z M16.125,13.8984375 C15.1132813,14.2226563 13.609375,14.4101563 12,14.4101563 C10.390625,14.4101563 8.89062498,14.2226563 7.87499998,13.8984375 C7.48828123,13.7773438 7.11718748,14.109375 7.18359373,14.4960938 C7.49218748,16.3359375 9.96874999,17.6210938 12,17.6210938 C14.03125,17.6210938 16.5039063,16.3359375 16.8164063,14.4960938 C16.8789063,14.1132813 16.515625,13.7773438 16.125,13.8984375 Z M8.87499998,11.375 C9.56640624,11.375 10.125,10.8164062 10.125,10.125 C10.125,9.43359374 9.56640624,8.87499998 8.87499998,8.87499998 C8.18359373,8.87499998 7.62499998,9.43359374 7.62499998,10.125 C7.62499998,10.8164062 8.18359373,11.375 8.87499998,11.375 Z M15.125,11.375 C15.8164063,11.375 16.375,10.8164062 16.375,10.125 C16.375,9.43359374 15.8164063,8.87499998 15.125,8.87499998 C14.4335938,8.87499998 13.875,9.43359374 13.875,10.125 C13.875,10.8164062 14.4335938,11.375 15.125,11.375 Z" id="path-1"></path>
    </defs>
    <g id="grin" stroke="none" stroke-width="1" fill="none" fill-rule="evenodd">
        <mask id="mask-2" fill="white">
            <use xlink:href="#path-1"></use>
        </mask>
        <g fill-rule="nonzero"></g>
        <g id="🎨-color" mask="url(#mask-2)" fill="#000000">
            <rect id="🎨-Color" x="0" y="0" width="24" height="24"></rect>
        </g>
    </g>
</svg>