<?xml version="1.0" encoding="UTF-8"?>
<svg width="24px" height="24px" viewBox="0 0 24 24" version="1.1" xmlns="http://www.w3.org/2000/svg" xmlns:xlink="http://www.w3.org/1999/xlink">
    <!-- Generator: Sketch 52.5 (67469) - http://www.bohemiancoding.com/sketch -->
    <title>grin-wink</title>
    <desc>Created with Sketch.</desc>
    <defs>
        <path d="M15.125,9.03124999 C14.1214844,9.03124999 12.9421875,9.69218749 12.7867188,10.6765625 C12.7183594,11.1148437 13.2359375,11.3890625 13.5613281,11.1 L13.934375,10.76875 C14.5128906,10.2535156 15.7375,10.2535156 16.3160156,10.76875 L16.6890625,11.1 C17.0203125,11.3902344 17.53125,11.1097656 17.4636719,10.6765625 C17.3078125,9.69218749 16.1285156,9.03124999 15.125,9.03124999 Z M8.87499998,11.375 C9.56523436,11.375 10.125,10.8152344 10.125,10.125 C10.125,9.43476561 9.56523436,8.87499998 8.87499998,8.87499998 C8.18476561,8.87499998 7.62499998,9.43476561 7.62499998,10.125 C7.62499998,10.8152344 8.18476561,11.375 8.87499998,11.375 Z M16.1230469,13.9 C15.1101563,14.2242188 13.6074219,14.4101563 12,14.4101563 C10.3925781,14.4101563 8.88984373,14.2246094 7.8769531,13.9 C7.48867185,13.7777344 7.1191406,14.1097656 7.18515623,14.4992188 C7.49492185,16.3410156 9.97109374,17.625 12,17.625 C14.0289063,17.625 16.5050781,16.3410156 16.8148438,14.4992188 C16.8804688,14.1128906 16.5152344,13.7773438 16.1230469,13.9 Z M12,2.31249995 C6.64960935,2.31249995 2.31249995,6.64960935 2.31249995,12 C2.31249995,17.3503907 6.64960935,21.6875 12,21.6875 C17.3503907,21.6875 21.6875,17.3503907 21.6875,12 C21.6875,6.64960935 17.3503907,2.31249995 12,2.31249995 Z M12,19.8125 C7.69218748,19.8125 4.18749996,16.3078125 4.18749996,12 C4.18749996,7.69218748 7.69218748,4.18749996 12,4.18749996 C16.3078125,4.18749996 19.8125,7.69218748 19.8125,12 C19.8125,16.3078125 16.3078125,19.8125 12,19.8125 Z" id="path-1"></path>
    </defs>
    <g id="grin-wink" stroke="none" stroke-width="1" fill="none" fill-rule="evenodd">
        <mask id="mask-2" fill="white">
            <use xlink:href="#path-1"></use>
        </mask>
        <g fill-rule="nonzero"></g>
        <g id="🎨-color" mask="url(#mask-2)" fill="#000000">
            <rect id="🎨-Color" x="0" y="0" width="24" height="24"></rect>
        </g>
    </g>
</svg>