<?xml version="1.0" encoding="UTF-8"?>
<svg width="24px" height="24px" viewBox="0 0 24 24" version="1.1" xmlns="http://www.w3.org/2000/svg" xmlns:xlink="http://www.w3.org/1999/xlink">
    <!-- Generator: Sketch 52.5 (67469) - http://www.bohemiancoding.com/sketch -->
    <title>grin-tongue-squint</title>
    <desc>Created with Sketch.</desc>
    <defs>
        <path d="M12,2.31249995 C6.64843747,2.31249995 2.31249995,6.64843747 2.31249995,12 C2.31249995,17.3515625 6.64843747,21.6875 12,21.6875 C17.3515625,21.6875 21.6875,17.3515625 21.6875,12 C21.6875,6.64843747 17.3515625,2.31249995 12,2.31249995 Z M14.5,17.9375 C14.5,19.328125 13.3632813,20.4570313 11.9648437,20.4375 C10.59375,20.4179688 9.49999999,19.2734375 9.49999999,17.8984375 L9.49999999,16.2265625 L10.1914062,15.8828125 C10.7773437,15.5898438 11.421875,15.9492188 11.5546875,16.5273438 L11.6640625,17 C11.7460937,17.359375 12.2578125,17.359375 12.3398438,17 L12.4492188,16.5273438 C12.5820313,15.9492188 13.2226563,15.5859375 13.8125,15.8828125 L14.5039063,16.2265625 L14.5039063,17.9375 L14.5,17.9375 Z M15.6015625,18.9257813 C15.6875,18.609375 15.75,18.28125 15.75,17.9375 L15.75,16.2382813 C16.3046875,15.7539063 16.703125,15.1640625 16.8164063,14.5 C16.8828125,14.1132813 16.515625,13.7773438 16.125,13.9023438 C15.1132813,14.2265625 13.609375,14.4140625 12,14.4140625 C10.390625,14.4140625 8.89062498,14.2265625 7.87499998,13.9023438 C7.48828123,13.78125 7.11718748,14.109375 7.18359373,14.5 C7.29687498,15.1640625 7.69531248,15.7539063 8.24999998,16.2382813 L8.24999998,17.9375 C8.24999998,18.28125 8.31249998,18.609375 8.39843748,18.9257813 C5.89843747,17.6210938 4.18749996,15.0078125 4.18749996,12 C4.18749996,7.69140623 7.69140623,4.18749996 12,4.18749996 C16.3085938,4.18749996 19.8125,7.69140623 19.8125,12 C19.8125,15.0078125 18.1015625,17.6210938 15.6015625,18.9257813 Z M17.0429688,7.94531248 C16.8945313,7.77343748 16.640625,7.73046873 16.4453125,7.84765623 L13.3203125,9.72265624 C13.1796875,9.80859374 13.09375,9.96093749 13.09375,10.125 C13.09375,10.2890625 13.1796875,10.4414062 13.3203125,10.5273437 L16.4453125,12.4023438 C16.65625,12.5273438 16.9023438,12.46875 17.0429688,12.3046875 C17.1914063,12.1289063 17.1914063,11.875 17.046875,11.6992187 L15.734375,10.125 L17.046875,8.55078123 C17.1953125,8.37499998 17.1914063,8.11718748 17.0429688,7.94531248 Z M10.6796875,9.72265624 L7.55468748,7.84765623 C7.35937498,7.73046873 7.10937498,7.76953123 6.95703122,7.94531248 C6.80859372,8.12109373 6.80859372,8.37499998 6.95312497,8.55078123 L8.26562498,10.125 L6.95312497,11.6992187 C6.80468747,11.875 6.80859372,12.1289063 6.95703122,12.3046875 C7.09765623,12.46875 7.34374998,12.5273438 7.55468748,12.4023438 L10.6796875,10.5273437 C10.8203125,10.4414062 10.90625,10.2890625 10.90625,10.125 C10.90625,9.96093749 10.8203125,9.80859374 10.6796875,9.72265624 Z" id="path-1"></path>
    </defs>
    <g id="grin-tongue-squint" stroke="none" stroke-width="1" fill="none" fill-rule="evenodd">
        <mask id="mask-2" fill="white">
            <use xlink:href="#path-1"></use>
        </mask>
        <g fill-rule="nonzero"></g>
        <g id="🎨-color" mask="url(#mask-2)" fill="#000000">
            <rect id="🎨-Color" x="0" y="0" width="24" height="24"></rect>
        </g>
    </g>
</svg>