<?xml version="1.0" encoding="UTF-8"?>
<svg width="24px" height="24px" viewBox="0 0 24 24" version="1.1" xmlns="http://www.w3.org/2000/svg" xmlns:xlink="http://www.w3.org/1999/xlink">
    <!-- Generator: Sketch 52.5 (67469) - http://www.bohemiancoding.com/sketch -->
    <title>grin-hearts</title>
    <desc>Created with Sketch.</desc>
    <defs>
        <path d="M16.125,13.8984375 C15.1132813,14.2226563 13.609375,14.4101563 12,14.4101563 C10.390625,14.4101563 8.89062498,14.2226563 7.87499998,13.8984375 C7.49218748,13.7773438 7.11718748,14.1054688 7.18359373,14.4960938 C7.49218748,16.3398438 9.96874999,17.6210938 12,17.6210938 C14.03125,17.6210938 16.5039063,16.3359375 16.8164063,14.4960938 C16.8789063,14.1132813 16.515625,13.7773438 16.125,13.8984375 Z M10.15625,11.9882812 C10.3320312,12.0351563 10.515625,11.9296875 10.5664062,11.7539062 L11.3242187,9.02343749 C11.5429687,8.23046873 11.0351562,7.41796873 10.1992187,7.28515623 C9.47265624,7.16796873 8.77734373,7.66796873 8.57812498,8.37499998 L8.49999998,8.65234373 L8.22265623,8.57812498 C7.51171873,8.39453123 6.73046872,8.74609373 6.46874997,9.43749999 C6.16796872,10.2265625 6.61718747,11.0742187 7.41406248,11.28125 L10.15625,11.9882812 Z M17.53125,9.43749999 C17.2695313,8.74999998 16.4882813,8.39453123 15.7773438,8.57812498 L15.5,8.65234373 L15.421875,8.37499998 C15.2265625,7.66796873 14.53125,7.16796873 13.8007813,7.28515623 C12.9648438,7.41796873 12.4570313,8.23046873 12.6757813,9.02343749 L13.4335938,11.7539062 C13.4804688,11.9296875 13.6640625,12.0351563 13.84375,11.9882812 L16.5859375,11.2773437 C17.3828125,11.0703125 17.8320313,10.2265625 17.53125,9.43749999 Z M12,2.31249995 C6.64843747,2.31249995 2.31249995,6.64843747 2.31249995,12 C2.31249995,17.3515625 6.64843747,21.6875 12,21.6875 C17.3515625,21.6875 21.6875,17.3515625 21.6875,12 C21.6875,6.64843747 17.3515625,2.31249995 12,2.31249995 Z M12,19.8125 C7.69140623,19.8125 4.18749996,16.3085938 4.18749996,12 C4.18749996,7.69140623 7.69140623,4.18749996 12,4.18749996 C16.3085938,4.18749996 19.8125,7.69140623 19.8125,12 C19.8125,16.3085938 16.3085938,19.8125 12,19.8125 Z" id="path-1"></path>
    </defs>
    <g id="grin-hearts" stroke="none" stroke-width="1" fill="none" fill-rule="evenodd">
        <mask id="mask-2" fill="white">
            <use xlink:href="#path-1"></use>
        </mask>
        <g fill-rule="nonzero"></g>
        <g id="🎨-color" mask="url(#mask-2)" fill="#000000">
            <rect id="🎨-Color" x="0" y="0" width="24" height="24"></rect>
        </g>
    </g>
</svg>