<?xml version="1.0" encoding="UTF-8"?>
<svg width="24px" height="24px" viewBox="0 0 24 24" version="1.1" xmlns="http://www.w3.org/2000/svg" xmlns:xlink="http://www.w3.org/1999/xlink">
    <!-- Generator: Sketch 52.5 (67469) - http://www.bohemiancoding.com/sketch -->
    <title>grin-tongue-wink</title>
    <desc>Created with Sketch.</desc>
    <defs>
        <path d="M8.24999998,9.03124999 C7.24609373,9.03124999 6.06640622,9.69140624 5.91406247,10.6757812 C5.88281247,10.8710937 5.98046872,11.0664062 6.15234372,11.1601562 C6.32421872,11.2539062 6.53906247,11.2304687 6.68749997,11.0976562 L7.05859373,10.765625 C7.63671873,10.25 8.86328123,10.25 9.44140624,10.765625 L9.81249999,11.0976562 C9.91015624,11.1835937 10.125,11.28125 10.3476562,11.1601562 C10.5195312,11.0664062 10.6171875,10.8710937 10.5859375,10.6757812 C10.4335937,9.69140624 9.25390624,9.03124999 8.24999998,9.03124999 Z M15.125,6.99999997 C13.3984375,6.99999997 12,8.39843748 12,10.125 C12,11.8515625 13.3984375,13.25 15.125,13.25 C16.8515625,13.25 18.25,11.8515625 18.25,10.125 C18.25,8.39843748 16.8515625,6.99999997 15.125,6.99999997 Z M15.125,12 C14.0898438,12 13.25,11.1601562 13.25,10.125 C13.25,9.08984374 14.0898438,8.24999998 15.125,8.24999998 C16.1601563,8.24999998 17,9.08984374 17,10.125 C17,11.1601562 16.1601563,12 15.125,12 Z M15.125,9.18749999 C14.6054688,9.18749999 14.1875,9.60546874 14.1875,10.125 C14.1875,10.6445312 14.6054688,11.0625 15.125,11.0625 C15.6445313,11.0625 16.0625,10.6445312 16.0625,10.125 C16.0625,9.60546874 15.6445313,9.18749999 15.125,9.18749999 Z M12,2.31249995 C6.64843747,2.31249995 2.31249995,6.64843747 2.31249995,12 C2.31249995,17.3515625 6.64843747,21.6875 12,21.6875 C17.3515625,21.6875 21.6875,17.3515625 21.6875,12 C21.6875,6.64843747 17.3515625,2.31249995 12,2.31249995 Z M14.5,17.9375 C14.5,19.328125 13.3632813,20.4570313 11.9648437,20.4375 C10.59375,20.4179688 9.49999999,19.2734375 9.49999999,17.8984375 L9.49999999,16.2265625 L10.1914062,15.8828125 C10.7773437,15.5898438 11.421875,15.9492188 11.5546875,16.5273438 L11.6640625,17 C11.7460937,17.359375 12.2578125,17.359375 12.3398438,17 L12.4492188,16.5273438 C12.5820313,15.9492188 13.2226563,15.5859375 13.8125,15.8828125 L14.5039063,16.2265625 L14.5039063,17.9375 L14.5,17.9375 Z M15.6015625,18.9257813 C15.6875,18.609375 15.75,18.28125 15.75,17.9375 L15.75,16.2382813 C16.3046875,15.7539063 16.703125,15.1640625 16.8164063,14.5 C16.8828125,14.1132813 16.515625,13.7773438 16.125,13.9023438 C15.1132813,14.2265625 13.609375,14.4140625 12,14.4140625 C10.390625,14.4140625 8.89062498,14.2265625 7.87499998,13.9023438 C7.48828123,13.78125 7.11718748,14.109375 7.18359373,14.5 C7.29687498,15.1640625 7.69531248,15.7539063 8.24999998,16.2382813 L8.24999998,17.9375 C8.24999998,18.28125 8.31249998,18.609375 8.39843748,18.9257813 C5.89843747,17.6210938 4.18749996,15.0078125 4.18749996,12 C4.18749996,7.69140623 7.69140623,4.18749996 12,4.18749996 C16.3085938,4.18749996 19.8125,7.69140623 19.8125,12 C19.8125,15.0078125 18.1015625,17.6210938 15.6015625,18.9257813 Z" id="path-1"></path>
    </defs>
    <g id="grin-tongue-wink" stroke="none" stroke-width="1" fill="none" fill-rule="evenodd">
        <mask id="mask-2" fill="white">
            <use xlink:href="#path-1"></use>
        </mask>
        <g fill-rule="nonzero"></g>
        <g id="🎨-color" mask="url(#mask-2)" fill="#000000">
            <rect id="🎨-Color" x="0" y="0" width="24" height="24"></rect>
        </g>
    </g>
</svg>