<?xml version="1.0" encoding="UTF-8"?>
<svg width="24px" height="24px" viewBox="0 0 24 24" version="1.1" xmlns="http://www.w3.org/2000/svg" xmlns:xlink="http://www.w3.org/1999/xlink">
    <!-- Generator: Sketch 52.5 (67469) - http://www.bohemiancoding.com/sketch -->
    <title>gripfire</title>
    <desc>Created with Sketch.</desc>
    <defs>
        <path d="M11.2109375,21.6796875 C11.2109375,21.4726563 11.3984375,21.203125 11.3984375,20.8085938 C11.3984375,20.2148438 10.890625,19.25 8.34765623,17.4257813 C7.00781248,16.2890625 5.74999997,15.140625 5.74999997,13.1953125 C5.74999997,8.71484373 11.4960937,6.30078122 11.4960937,2.70312495 C11.4960937,2.5742187 11.4882812,2.4414062 11.4726562,2.31249995 C11.671875,2.40624995 13,4.00390621 13,5.84374997 C13,8.98828123 8.89453123,10.890625 8.89453123,13.7734375 C8.89453123,14.8242188 9.54296874,15.6171875 10.1679687,16.4882813 C11.046875,17.6679688 11.8945312,18.7109375 11.8945312,19.8671875 C11.890625,20.4335938 11.7226562,21.0273438 11.2109375,21.6796875 Z M16.9140625,12.25 C16.9726563,12.578125 17,12.8984375 17,13.2109375 C17,15.234375 15.8515625,17.0195313 14.3710938,18.5546875 C14.3320313,18.59375 14.2851563,18.6484375 14.2460938,18.6484375 C14.1054688,18.6484375 12.859375,17.0234375 12.859375,16.5703125 C12.859375,16.5703125 14.4921875,14.3945313 14.4921875,12.7851563 C14.4921875,12.3632813 14.3867188,11.9375 14.1367188,11.4804687 C14.078125,12.7421875 11.9609375,14.90625 11.8671875,14.90625 C11.7617187,14.90625 11.1679687,14.046875 11.1679687,13.2617188 C11.1679687,13.0546875 11.2070312,12.84375 11.2929687,12.6445313 C11.3867187,12.4296875 13.5039063,9.83203124 13.5039063,8.08593748 C13.5039063,7.84374998 13.4648438,7.61718748 13.3710938,7.41796873 L13.2148438,7.13671873 C13.8671875,7.39062498 16.4414063,9.64062499 16.9140625,12.25 Z" id="path-1"></path>
    </defs>
    <g id="gripfire" stroke="none" stroke-width="1" fill="none" fill-rule="evenodd">
        <mask id="mask-2" fill="white">
            <use xlink:href="#path-1"></use>
        </mask>
        <g fill-rule="nonzero"></g>
        <g id="🎨-color" mask="url(#mask-2)" fill="#000000">
            <rect id="🎨-Color" x="0" y="0" width="24" height="24"></rect>
        </g>
    </g>
</svg>