<?xml version="1.0" encoding="UTF-8"?>
<svg width="24px" height="24px" viewBox="0 0 24 24" version="1.1" xmlns="http://www.w3.org/2000/svg" xmlns:xlink="http://www.w3.org/1999/xlink">
    <!-- Generator: Sketch 52.5 (67469) - http://www.bohemiancoding.com/sketch -->
    <title>grip-horizontal</title>
    <desc>Created with Sketch.</desc>
    <defs>
        <path d="M6.99999997,13.25 L4.49999996,13.25 C3.80976558,13.25 3.24999996,13.8097656 3.24999996,14.5 L3.24999996,17 C3.24999996,17.6902344 3.80976558,18.25 4.49999996,18.25 L6.99999997,18.25 C7.69023435,18.25 8.24999998,17.6902344 8.24999998,17 L8.24999998,14.5 C8.24999998,13.8097656 7.69023435,13.25 6.99999997,13.25 Z M13.25,13.25 L10.75,13.25 C10.0597656,13.25 9.49999999,13.8097656 9.49999999,14.5 L9.49999999,17 C9.49999999,17.6902344 10.0597656,18.25 10.75,18.25 L13.25,18.25 C13.9402344,18.25 14.5,17.6902344 14.5,17 L14.5,14.5 C14.5,13.8097656 13.9402344,13.25 13.25,13.25 Z M19.5,13.25 L17,13.25 C16.3097656,13.25 15.75,13.8097656 15.75,14.5 L15.75,17 C15.75,17.6902344 16.3097656,18.25 17,18.25 L19.5,18.25 C20.1902344,18.25 20.75,17.6902344 20.75,17 L20.75,14.5 C20.75,13.8097656 20.1902344,13.25 19.5,13.25 Z M6.99999997,5.74999997 L4.49999996,5.74999997 C3.80976558,5.74999997 3.24999996,6.3097656 3.24999996,6.99999997 L3.24999996,9.49999999 C3.24999996,10.1902344 3.80976558,10.75 4.49999996,10.75 L6.99999997,10.75 C7.69023435,10.75 8.24999998,10.1902344 8.24999998,9.49999999 L8.24999998,6.99999997 C8.24999998,6.3097656 7.69023435,5.74999997 6.99999997,5.74999997 Z M13.25,5.74999997 L10.75,5.74999997 C10.0597656,5.74999997 9.49999999,6.3097656 9.49999999,6.99999997 L9.49999999,9.49999999 C9.49999999,10.1902344 10.0597656,10.75 10.75,10.75 L13.25,10.75 C13.9402344,10.75 14.5,10.1902344 14.5,9.49999999 L14.5,6.99999997 C14.5,6.3097656 13.9402344,5.74999997 13.25,5.74999997 Z M19.5,5.74999997 L17,5.74999997 C16.3097656,5.74999997 15.75,6.3097656 15.75,6.99999997 L15.75,9.49999999 C15.75,10.1902344 16.3097656,10.75 17,10.75 L19.5,10.75 C20.1902344,10.75 20.75,10.1902344 20.75,9.49999999 L20.75,6.99999997 C20.75,6.3097656 20.1902344,5.74999997 19.5,5.74999997 Z" id="path-1"></path>
    </defs>
    <g id="grip-horizontal" stroke="none" stroke-width="1" fill="none" fill-rule="evenodd">
        <mask id="mask-2" fill="white">
            <use xlink:href="#path-1"></use>
        </mask>
        <g fill-rule="nonzero"></g>
        <g id="🎨-color" mask="url(#mask-2)" fill="#000000">
            <rect id="🎨-Color" x="0" y="0" width="24" height="24"></rect>
        </g>
    </g>
</svg>