<?xml version="1.0" encoding="UTF-8"?>
<svg width="24px" height="24px" viewBox="0 0 24 24" version="1.1" xmlns="http://www.w3.org/2000/svg" xmlns:xlink="http://www.w3.org/1999/xlink">
    <!-- Generator: Sketch 52.5 (67469) - http://www.bohemiancoding.com/sketch -->
    <title>grip-vertical</title>
    <desc>Created with Sketch.</desc>
    <defs>
        <path d="M9.49999999,3.24999996 L6.99999997,3.24999996 C6.3097656,3.24999996 5.74999997,3.80976558 5.74999997,4.49999996 L5.74999997,6.99999997 C5.74999997,7.69023435 6.3097656,8.24999998 6.99999997,8.24999998 L9.49999999,8.24999998 C10.1902344,8.24999998 10.75,7.69023435 10.75,6.99999997 L10.75,4.49999996 C10.75,3.80976558 10.1902344,3.24999996 9.49999999,3.24999996 Z M9.49999999,9.49999999 L6.99999997,9.49999999 C6.3097656,9.49999999 5.74999997,10.0597656 5.74999997,10.75 L5.74999997,13.25 C5.74999997,13.9402344 6.3097656,14.5 6.99999997,14.5 L9.49999999,14.5 C10.1902344,14.5 10.75,13.9402344 10.75,13.25 L10.75,10.75 C10.75,10.0597656 10.1902344,9.49999999 9.49999999,9.49999999 Z M9.49999999,15.75 L6.99999997,15.75 C6.3097656,15.75 5.74999997,16.3097656 5.74999997,17 L5.74999997,19.5 C5.74999997,20.1902344 6.3097656,20.75 6.99999997,20.75 L9.49999999,20.75 C10.1902344,20.75 10.75,20.1902344 10.75,19.5 L10.75,17 C10.75,16.3097656 10.1902344,15.75 9.49999999,15.75 Z M17,3.24999996 L14.5,3.24999996 C13.8097656,3.24999996 13.25,3.80976558 13.25,4.49999996 L13.25,6.99999997 C13.25,7.69023435 13.8097656,8.24999998 14.5,8.24999998 L17,8.24999998 C17.6902344,8.24999998 18.25,7.69023435 18.25,6.99999997 L18.25,4.49999996 C18.25,3.80976558 17.6902344,3.24999996 17,3.24999996 Z M17,9.49999999 L14.5,9.49999999 C13.8097656,9.49999999 13.25,10.0597656 13.25,10.75 L13.25,13.25 C13.25,13.9402344 13.8097656,14.5 14.5,14.5 L17,14.5 C17.6902344,14.5 18.25,13.9402344 18.25,13.25 L18.25,10.75 C18.25,10.0597656 17.6902344,9.49999999 17,9.49999999 Z M17,15.75 L14.5,15.75 C13.8097656,15.75 13.25,16.3097656 13.25,17 L13.25,19.5 C13.25,20.1902344 13.8097656,20.75 14.5,20.75 L17,20.75 C17.6902344,20.75 18.25,20.1902344 18.25,19.5 L18.25,17 C18.25,16.3097656 17.6902344,15.75 17,15.75 Z" id="path-1"></path>
    </defs>
    <g id="grip-vertical" stroke="none" stroke-width="1" fill="none" fill-rule="evenodd">
        <mask id="mask-2" fill="white">
            <use xlink:href="#path-1"></use>
        </mask>
        <g fill-rule="nonzero"></g>
        <g id="🎨-color" mask="url(#mask-2)" fill="#000000">
            <rect id="🎨-Color" x="0" y="0" width="24" height="24"></rect>
        </g>
    </g>
</svg>