<?xml version="1.0" encoding="UTF-8"?>
<svg width="24px" height="24px" viewBox="0 0 24 24" version="1.1" xmlns="http://www.w3.org/2000/svg" xmlns:xlink="http://www.w3.org/1999/xlink">
    <!-- Generator: Sketch 52.5 (67469) - http://www.bohemiancoding.com/sketch -->
    <title>grunt</title>
    <desc>Created with Sketch.</desc>
    <defs>
        <path d="M6.90448341,9.4191033 C6.86159841,9.80896685 7.10721245,10.1637427 7.10721245,10.1637427 C7.1345029,9.87134502 7.19298243,9.66471734 7.26315787,9.51656919 C7.27875241,9.91812864 7.38791421,10.4327485 7.76218321,10.8460039 C8.03118906,11.1423002 9.15009745,11.754386 9.9025341,11.0838207 C9.94152046,11.1773879 9.98440545,11.2904483 10.0194932,11.4152047 C10.1325536,11.8167641 9.91423001,12.4015595 9.91423001,12.4015595 C9.91423001,12.4015595 10.502924,11.7348928 10.4561403,11.1345029 C10.877193,11.1150097 11.2904483,10.8070175 11.2787524,10.374269 C11.2787524,10.374269 10.5419103,10.7797271 9.89473683,10.0311891 C9.51656919,9.5945419 8.30019491,8.39376217 6.65497073,8.79142299 C6.82261206,8.83040934 7.00194929,8.88499024 7.18128653,8.95126704 L7.17738789,8.95126704 C7.0136452,9.02923975 6.92397658,9.22807016 6.90448341,9.4191033 Z M8.00779725,9.34892786 C8.76803117,9.77777777 9.46588693,10.3508772 9.75828459,10.791423 C9.53606237,10.920078 8.91228069,11.1968811 8.2768031,10.7251462 C7.87524364,10.4288499 7.89473682,9.70370369 8.00779725,9.34892786 Z M11.0955166,18.460039 C11.1812865,18.5497076 11.1539961,18.6666667 11.1306043,18.7251462 C11.0877193,18.8304094 10.9161793,19.177388 10.6237817,19.4970761 C10.5185185,19.6101365 10.3664717,19.6764133 10.1949318,19.6764133 C10.0272904,19.6764133 9.85575048,19.6140351 9.73489278,19.508772 C9.64522416,19.4269006 9.33723196,19.1384016 9.20077971,18.7836258 C9.15009745,18.6510722 9.16179336,18.545809 9.23586743,18.4678363 C9.28654969,18.417154 9.39181285,18.3547759 9.6062378,18.3547759 L10.7524366,18.3547759 C10.9122807,18.3547759 11.0253411,18.3898636 11.0955166,18.460039 Z M13.5477583,11.1345029 C13.5009747,11.7387914 14.0896686,12.4015595 14.0896686,12.4015595 C14.0896686,12.4015595 13.871345,11.8167641 13.9844055,11.4152047 C14.0194932,11.2904483 14.0623782,11.1812865 14.1013645,11.0838207 C14.8538012,11.7582846 15.9727096,11.1423002 16.2378168,10.8460039 C16.6120858,10.4327485 16.717349,9.91812864 16.7368421,9.51656919 C16.8070176,9.66471734 16.8693957,9.87134502 16.8927875,10.1637427 C16.8927875,10.1637427 17.1423002,9.80896685 17.0955166,9.4191033 C17.0721248,9.22417153 16.9824562,9.02923975 16.8226121,8.95906431 L16.8187135,8.95906431 C16.9980507,8.88888887 17.1773879,8.83430798 17.3450293,8.79922026 C15.6959065,8.40155944 14.4834308,9.60233917 14.1052632,10.0389863 C13.454191,10.7875244 12.7212476,10.3820663 12.7212476,10.3820663 C12.7134503,10.8070175 13.1267057,11.1189084 13.5477583,11.1345029 Z M14.2417154,10.791423 C14.5341131,10.3469785 15.2319688,9.77777777 15.9922027,9.34892786 C16.1091618,9.70370369 16.1247564,10.4288499 15.7192983,10.7290448 C15.0838207,11.2007797 14.4639376,10.9239766 14.2417154,10.791423 C14.2378168,10.7953216 14.2417154,10.791423 14.2417154,10.791423 Z M14.7680312,18.4678363 C14.8421053,18.5419104 14.8538012,18.6471735 14.8031189,18.7758285 C14.6666667,19.1228071 14.3586745,19.4035088 14.2690059,19.4814815 C14.1481482,19.582846 13.9805068,19.6452242 13.8089669,19.6452242 C13.6374269,19.6452242 13.4853801,19.582846 13.380117,19.4697856 C13.0877193,19.1578948 12.9122807,18.8187135 12.8732944,18.717349 C12.8499025,18.6588694 12.8226121,18.545809 12.9083821,18.4561404 C12.9746589,18.3859649 13.0916179,18.3508772 13.2553606,18.3508772 L14.4015595,18.3508772 C14.6120858,18.3547759 14.7173489,18.417154 14.7680312,18.4678363 Z M10.9356725,8.66276801 C11.3216374,8.89668614 11.668616,8.97855749 12,8.98635476 C12.331384,8.97855749 12.6783626,8.89668614 13.0643275,8.66276801 C13.0643275,8.66276801 12.4990253,9.3528265 12.0038986,9.35672513 L11.9961014,9.35672513 C11.5009747,9.34892786 10.9356725,8.66276801 10.9356725,8.66276801 Z M18.128655,14.4093567 C18.0350877,15.1072125 17.6218324,15.7270955 17.1695907,16.1130604 C17.048733,15.2280702 17.0253412,13.9493177 17.0253412,13.6803119 C17.0253412,13.1072125 17.3957115,12.7251462 17.5009747,12.662768 C17.5984406,12.6042885 17.711501,12.545809 17.8245614,12.4834308 C18.5263158,12.1091618 19.3996102,11.6413255 19.3996102,10.7797271 C19.3996102,10.1481481 19.0370371,9.87524365 18.7992203,9.69590642 C18.7680312,9.67251461 18.7407408,9.65302143 18.7134503,9.62962962 C18.631579,9.56335281 18.5692008,9.51267055 18.545809,9.45808966 C18.374269,9.07602338 18.4054581,8.12475632 18.4795322,7.99220271 C18.502924,7.9688109 19.1306043,7.17738789 18.9395712,6.46393759 C18.8615985,6.17543857 18.6705653,5.94541907 18.3898636,5.80116956 C18.1832359,5.6959064 17.925926,5.63742687 17.6296297,5.62573096 C17.625731,5.54775825 17.6101365,5.47368418 17.5945419,5.39571147 C17.5711501,5.29434695 17.5516569,5.18908379 17.5594542,5.07992199 C17.5750488,4.89668612 17.5906433,4.7290448 17.6452242,4.63937618 C17.9727096,4.12085766 18.7680312,3.95321633 18.7758285,3.95321633 L19.2553607,3.85964908 L18.9395712,3.48927871 C18.9356725,3.48148144 18.2651072,2.8070175 17.1345029,2.8070175 C16.8265107,2.8070175 16.5107213,2.85769976 16.1949318,2.95906428 C15.251462,3.26315785 14.5224172,4.14814811 14.2690059,4.49122803 C14.1481482,4.45224168 14.0233918,4.41715396 13.8947369,4.38596487 C13.7309942,3.76998047 14.245614,2.88499021 14.245614,2.88499021 C14.245614,2.88499021 13.7153996,2.76803114 12.9317739,3.4775828 C12.8304094,3.2241715 12.6159844,2.67836253 12.8615984,2.0272904 C11.711501,2.43274849 11.4230019,3.05263153 11.337232,3.61403505 C11.0409357,3.40350873 11.0760234,2.71345025 11.0565302,2.53801165 C10.7641325,2.57309937 9.91812864,3.39181282 9.957115,4.42105259 C9.87914229,4.44054577 9.80506822,4.46393758 9.72709551,4.4873294 C9.4736842,4.14424947 8.748538,3.25925922 7.80116957,2.95516565 C7.49317737,2.86939567 7.17738789,2.8187134 6.86939569,2.8187134 C5.73879139,2.8187134 5.07212472,3.49317735 5.06432745,3.50097462 L4.74853798,3.86744635 L5.22807014,3.96101361 C5.23586741,3.96101361 6.03118905,4.12865493 6.35867444,4.64717345 C6.41325533,4.73294343 6.42884987,4.9044834 6.44444442,5.08771926 C6.45224169,5.19688106 6.42884987,5.30214422 6.4093567,5.40350874 C6.39376216,5.47758281 6.37816761,5.55555552 6.37426898,5.63352823 C6.07407404,5.64522414 5.82066274,5.70370367 5.61403506,5.80896683 C5.3333333,5.95321634 5.14230016,6.18323584 5.06432745,6.47173487 C4.86939568,7.18128653 5.50097463,7.97270953 5.52436644,7.99999998 C5.59844051,8.13255359 5.6296296,9.08382065 5.45808964,9.46588693 C5.43469782,9.52046782 5.37231965,9.57115009 5.29044831,9.63742689 C5.26315786,9.65692007 5.23586741,9.68031188 5.20467833,9.70370369 C4.96686156,9.88304093 4.60428846,10.159844 4.60428846,10.7875244 C4.60428846,11.6491228 5.47758281,12.1169591 6.1793372,12.4912281 C6.29629627,12.5536062 6.40545806,12.6120858 6.50292395,12.6705653 C6.60818711,12.7329435 6.97855748,13.1150098 6.97855748,13.6881092 C6.97855748,13.957115 6.95516567,15.2358675 6.83430797,16.1208577 C6.38206625,15.7348928 5.96881089,15.1111111 5.87524363,14.4132554 C5.87524363,14.4132554 4.73684207,15.294347 5.07212472,17.1734893 C5.27485377,18.3235868 5.97660816,18.9707603 6.90448341,19.3060429 C7.24756333,20.0506823 8.05068224,21.0877193 9.52826509,21.2397661 C10.0896686,21.6998051 10.8693957,22.0000001 12.0077973,22.0000001 L12.0155945,22.0000001 C13.1500975,22.0000001 13.9298246,21.6998051 14.4951267,21.2397661 C15.9727096,21.0877193 16.7758285,20.0506823 17.1189084,19.3060429 C18.0467837,18.9668616 18.7446394,18.3235868 18.9512671,17.1734893 C19.2709552,15.2865497 18.128655,14.4093567 18.128655,14.4093567 Z M16.4327486,3.50877189 C16.6510721,3.43859645 16.8849903,3.40350873 17.122807,3.40350873 C17.5516569,3.40350873 17.8986355,3.52046779 18.08577,3.5984405 C17.9649123,3.6530214 17.8362573,3.72319684 17.7076024,3.80506819 C17.6140351,3.78947364 17.4892788,3.7738791 17.3489279,3.7738791 C16.9395712,3.7738791 16.5497076,3.8947368 16.2300195,4.12085766 C15.7504873,4.46003895 15.5282651,4.77972706 15.423002,4.99415201 C15.337232,4.94346975 15.2475634,4.89668612 15.1461988,4.8499025 C15.0838207,4.81871341 15.0253411,4.79142297 14.962963,4.76413252 C15.2007797,4.40935669 15.7387914,3.73099411 16.4327486,3.50877189 Z M17.251462,4.21832355 C17.2202729,4.2573099 17.1890838,4.30019489 17.1617934,4.34307988 C17.0331384,4.54580893 17.0097466,4.7953216 16.9902534,5.037037 C16.9707603,5.28654967 16.9473684,5.52436644 16.8187135,5.69980504 C16.6549708,5.73099412 16.502924,5.76608184 16.3703704,5.8050682 C16.2807018,5.68421049 16.1520468,5.53216371 15.9610137,5.36842102 C16.0155946,5.18128652 16.1754386,4.7407407 16.4873295,4.49122803 C16.705653,4.32358671 16.962963,4.23001945 17.251462,4.21832355 Z M6.29239763,3.80506819 C6.16374266,3.7192982 6.03508769,3.64912277 5.91422999,3.5984405 C6.10136449,3.52046779 6.44834305,3.40350873 6.87719296,3.40350873 C7.11500972,3.40350873 7.34502922,3.43859645 7.56725144,3.50877189 C8.26120856,3.73489275 8.79922026,4.41325532 9.03703702,4.76023388 C8.97465885,4.78752433 8.91228069,4.81481478 8.84990252,4.84600386 C8.75243663,4.89278749 8.65886938,4.94346975 8.5730994,4.99025338 C8.47173488,4.77972706 8.24951265,4.45614031 7.76608185,4.11695902 C7.4424951,3.89083817 7.05653019,3.76998047 6.64327483,3.76998047 C6.51072122,3.7738791 6.38596488,3.78947364 6.29239763,3.80506819 Z M8.0350877,5.36842102 C7.84405456,5.53216371 7.71150095,5.68031186 7.62573097,5.8050682 C7.49317737,5.76998048 7.34113058,5.73099412 7.17738789,5.69980504 C7.04873292,5.52826507 7.02923974,5.29044831 7.00974656,5.04093564 C6.99025339,4.79922024 6.96686157,4.54970757 6.8382066,4.34697852 C6.81091615,4.30409353 6.77972707,4.26120854 6.74853799,4.22222218 C7.03703701,4.23391809 7.29434696,4.32358671 7.50877191,4.49512667 C7.82066275,4.7407407 7.9805068,5.18128652 8.0350877,5.36842102 Z M6.77972707,12.17154 C6.67446391,12.1091618 6.56140348,12.0506823 6.45224169,11.9922027 C5.871345,11.6803119 5.27485377,11.3567251 5.27485377,10.8031189 C5.27485377,10.3703704 5.44249509,10.2339181 5.62183233,10.0935672 L5.6413255,10.0779727 C5.66861595,10.0545809 5.6959064,10.0311891 5.72709549,10.0077973 C5.69200777,10.288499 5.65302141,10.5263158 5.62183233,10.588694 C5.62183233,10.588694 6.09356722,10.0038986 6.2339181,8.86159842 C6.288499,8.41325534 6.19103311,7.52436645 6.03508769,7.18518516 C6.04288496,7.3762183 6.03508769,7.56725144 6.02339178,7.74658867 C6.00779724,7.71539959 5.9922027,7.6842105 5.97270952,7.66081869 C5.84795319,7.50487327 5.51267053,6.97855748 5.60623778,6.62378165 C5.6413255,6.48732941 5.72709549,6.38986352 5.86744636,6.31968808 C6.01559451,6.24561401 6.21052629,6.20662765 6.45614032,6.20662765 C6.93567249,6.20662765 7.46588692,6.35087716 7.7387914,6.44054578 C8.71734891,6.75243662 9.89863547,7.64522415 10.2378168,7.91033136 C10.245614,7.91812863 10.2534113,7.92202727 10.2534113,7.92202727 L10.4717349,8.07407405 L10.3352826,7.8479532 C10.3274854,7.83625729 9.59064326,6.62378165 8.26120856,6.03508769 C8.33918127,5.92202726 8.54970759,5.71929821 9.10331383,5.44639373 C9.93762182,5.037037 10.9161793,4.83040932 12,4.83040932 C13.0877193,4.83040932 14.0623782,5.037037 14.8966862,5.44639373 C15.4502924,5.71539958 15.6608187,5.92202726 15.7387914,6.03508769 C14.4132554,6.62378165 13.6764133,7.83625729 13.668616,7.8479532 L13.5321638,8.07407405 L13.7504873,7.92202727 C13.7504873,7.92202727 13.7582846,7.91812863 13.7660819,7.91033136 C14.1052632,7.64522415 15.2865497,6.74853799 16.2651072,6.44054578 C16.5380117,6.3547758 17.0682261,6.20662765 17.5477583,6.20662765 C17.7933723,6.20662765 17.9883041,6.24561401 18.1364523,6.31968808 C18.2729045,6.38986352 18.3586745,6.49122804 18.3976609,6.62378165 C18.4951267,6.97855748 18.1598441,7.50487327 18.0311891,7.66081869 C18.0116959,7.6842105 17.9961014,7.71150095 17.9805069,7.74658867 C17.9688109,7.56725144 17.9610137,7.3762183 17.9688109,7.18518516 C17.8128655,7.52826508 17.7153996,8.41325534 17.7699805,8.86159842 C17.9103314,10.0038986 18.3820663,10.588694 18.3820663,10.588694 C18.3508772,10.5263158 18.3118909,10.288499 18.2768032,10.0077973 C18.3040936,10.0311891 18.3352827,10.0545809 18.3625731,10.0779727 L18.3820663,10.0935672 C18.5614035,10.2378168 18.7290449,10.3703704 18.7290449,10.8031189 C18.7290449,11.3567251 18.128655,11.6803119 17.5516569,11.9922027 C17.4385965,12.0506823 17.3294347,12.1130604 17.2241716,12.17154 C16.8849903,12.3664717 16.5224172,12.8226121 16.4795322,13.5048733 C16.4444445,14.0740741 16.5146199,15.4502924 16.6120858,16.4639376 C16.128655,16.6510721 15.5711501,16.7134503 15.0643275,16.7290449 C14.9863548,16.5692008 14.9122807,16.3976608 14.8499025,16.2183236 C14.8226121,16.1403509 14.08577,14.2261209 13.8206628,13.7933723 C14.0350877,15.3138402 14.502924,16.6666667 14.7368421,17.2865497 C14.6003899,17.2670566 14.4522417,17.2592593 14.2807018,17.2592593 L9.71929823,17.2592593 C9.54775827,17.2592593 9.39571149,17.2709552 9.26315788,17.2865497 C9.49707601,16.6666667 9.96881091,15.3138402 10.1793372,13.7933723 C9.91423001,14.2300195 9.1773879,16.1442495 9.15009745,16.2183236 C9.08771928,16.3976608 9.01364521,16.5692008 8.9356725,16.7290449 C8.42884988,16.7134503 7.87524364,16.6510721 7.38791421,16.4639376 C7.48538009,15.4502924 7.55555553,14.0779727 7.52046781,13.5048733 C7.48538009,12.8265107 7.11890836,12.3664717 6.77972707,12.17154 Z M5.871345,17.8128655 C5.3996101,17.0331384 5.53216371,15.7037037 5.72709549,15.5087719 C6.15204675,16.8499026 7.56725144,17.2358675 8.6276803,17.2787525 C8.52241714,17.4424952 8.42495125,17.5750488 8.35477581,17.668616 L8.30019491,17.7231969 C8.01949316,18.0272905 7.96491226,18.4444445 8.14035086,18.962963 C7.2553606,18.9590644 6.33528262,18.5808967 5.871345,17.8128655 Z M7.65302142,19.508772 C7.88693955,19.551657 8.12865495,19.582846 8.37816762,19.6023392 C8.51461987,19.9142301 8.66666665,20.2222223 8.85769979,20.502924 C8.29629628,20.2729045 7.90643273,19.8791423 7.65302142,19.508772 Z M12,21.4619884 C9.63742689,21.4580897 8.94736841,19.6764133 8.69005846,18.9395712 C8.54580895,18.5302145 8.55750486,18.2300195 8.72514618,18.0389864 C8.83820661,17.9103314 9.09551655,17.7582846 9.68421051,17.7582846 L14.3157895,17.7582846 C14.9044834,17.7582846 15.165692,17.9103314 15.2748538,18.0389864 C15.4385965,18.2261209 15.4502924,18.5302145 15.3099415,18.9395712 C15.0526316,19.6725147 14.3625731,21.4580897 12,21.4619884 Z M15.1423002,20.502924 C15.3333334,20.2222223 15.4853801,19.9142301 15.6218324,19.6023392 C15.871345,19.582846 16.1130604,19.551657 16.3469786,19.508772 C16.0935673,19.8791423 15.7037037,20.2729045 15.1423002,20.502924 Z M18.128655,17.8128655 C17.6608187,18.5808967 16.7407408,18.9551657 15.8635478,18.9707603 C16.0389864,18.4522417 15.9844055,18.0311891 15.7037037,17.7309942 C15.6881092,17.711501 15.668616,17.6920078 15.6491228,17.6725146 C15.5789474,17.5789474 15.4814815,17.4463938 15.3762183,17.2826511 C16.4366472,17.2358675 17.8518519,16.8538012 18.2768032,15.5126706 C18.4717349,15.7076024 18.6042885,17.0370371 18.128655,17.8128655 Z" id="path-1"></path>
    </defs>
    <g id="grunt" stroke="none" stroke-width="1" fill="none" fill-rule="evenodd">
        <mask id="mask-2" fill="white">
            <use xlink:href="#path-1"></use>
        </mask>
        <g fill-rule="nonzero"></g>
        <g id="🎨-color" mask="url(#mask-2)" fill="#000000">
            <rect id="🎨-Color" x="0" y="0" width="24" height="24"></rect>
        </g>
    </g>
</svg>