<?xml version="1.0" encoding="UTF-8"?>
<svg width="24px" height="24px" viewBox="0 0 24 24" version="1.1" xmlns="http://www.w3.org/2000/svg" xmlns:xlink="http://www.w3.org/1999/xlink">
    <!-- Generator: Sketch 52.5 (67469) - http://www.bohemiancoding.com/sketch -->
    <title>gulp</title>
    <desc>Created with Sketch.</desc>
    <defs>
        <path d="M15.1953125,17.2773438 L14.6445313,18.2382813 L14.4648438,21.3710938 C14.4648438,21.71875 13.359375,22 12,22 C10.640625,22 9.53515624,21.71875 9.53515624,21.3710938 L9.30859374,18.2695313 L8.72656248,17.2773438 C10.3359375,17.953125 13.6484375,17.9296875 15.1953125,17.2773438 Z M7.53906248,7.38281248 L8.07031248,12.2851563 C8.30078123,11.5039062 8.88281248,10.4492187 9.63281249,10.1289062 C9.87890624,10.0234375 10.1289062,10.0234375 10.3632812,10.1640625 C10.5664062,10.28125 10.7382812,10.5273437 10.7578125,10.625 C10.8046875,10.8789062 10.6796875,10.9804687 10.5820312,10.9804687 C10.4648437,10.9804687 10.375,10.8007812 10.3164062,10.6953125 C10.15625,10.4101562 9.91406249,10.3984375 9.65624999,10.5859375 C9.38671874,10.78125 9.15234374,11.109375 8.98828123,11.3945312 C8.78906248,11.7382812 8.62109373,12.1171875 8.51953123,12.4960938 C8.46093748,12.7148438 8.40624998,13.0664063 8.49609373,13.2734375 C8.53515623,13.359375 8.59374998,13.4140625 8.68749998,13.4140625 C8.88281248,13.4140625 9.16796874,13.15625 9.30468749,13.0195313 C9.48046874,12.84375 9.70703124,12.5703125 9.79296874,12.3945313 L9.99609374,11.7890625 C10.0976562,11.5234375 10.3828125,11.5703125 10.3828125,11.7890625 C10.3828125,12.1875 10.2382812,12.3203125 9.99218749,13.1445313 C9.76562499,13.90625 9.69531249,14.1523438 9.69531249,14.1523438 C9.66796874,14.2617188 9.56249999,14.4453125 9.44921874,14.4453125 C9.40234374,14.4453125 9.36718749,14.4296875 9.34765624,14.3984375 C9.30859374,14.34375 9.31249999,14.1914063 9.31640624,14.1523438 C9.32421874,14.0273438 9.56249999,13.2851563 9.60156249,13.1679688 C9.52343749,13.2539063 9.44140624,13.3398438 9.35156249,13.4257813 C9.14062499,13.625 8.80078123,13.8867188 8.51171873,13.8867188 C8.37890623,13.8867188 8.29296873,13.8515625 8.21093748,13.7929688 L8.50781248,16.9023438 C8.58593748,17.0976563 10.0390625,17.5703125 11.953125,17.5703125 C13.8710938,17.5703125 15.3242188,17.09375 15.3984375,16.9023438 L15.8242188,13.2070313 C15.6015625,13.4101563 15.34375,13.6601563 15.0585938,13.7851563 C14.8476563,13.875 14.3789063,13.9335938 14.3789063,13.5625 C14.3789063,13.359375 14.734375,12.984375 14.9414063,12.7226563 C14.9960938,12.65625 15.125,12.4921875 15.125,12.40625 C15.125,12.2929688 14.890625,12.3203125 14.6679688,12.5039063 C14.5429688,12.609375 14.4257813,12.75 14.328125,12.8828125 C14.1601563,13.1171875 14.0703125,13.3203125 13.9960938,13.4882813 C13.7539063,14.0429688 13.8359375,13.8242188 13.640625,14.3476563 C13.4453125,14.8671875 13.4765625,14.8085938 13.4375,14.8945313 C13.4023438,14.96875 13.3515625,15.03125 13.28125,15.0703125 C13.2070313,15.109375 13.1054688,15.1054688 13.0429688,15.0585938 C13.0078125,15.0351563 12.9921875,14.984375 12.9921875,14.9140625 C12.9921875,14.8789063 12.9960938,14.84375 13.0039063,14.8085938 C13.0625,14.5703125 13.3085938,14.1015625 13.5898438,13.46875 C13.6523438,13.3242188 13.6289063,13.3671875 13.6210938,13.3789063 C13.3789063,13.6132813 13.1953125,13.7265625 13.0585938,13.7890625 C12.8320313,13.890625 12.5507813,13.890625 12.4921875,13.6289063 C12.4882813,13.6132813 12.4882813,13.5976563 12.484375,13.5820313 C12.0234375,13.9414063 11.5351562,14.0390625 11.703125,13.265625 C11.5234375,13.5859375 11.2109375,13.8476563 10.828125,13.8476563 C10.6679687,13.8476563 10.5507812,13.7929688 10.4921875,13.6484375 C10.4023437,13.4335938 10.5429687,13.0664063 10.671875,12.71875 C10.7382812,12.5429688 10.828125,12.3320313 10.9492187,12.0859375 C11.0117187,11.953125 11.1132812,11.875 11.2460937,11.9101562 C11.2695312,11.9179687 11.2890625,11.9257812 11.3085937,11.9375 C11.4101562,12.0078125 11.3710937,12.1132813 11.3203125,12.21875 C11.171875,12.5117188 11.0429687,12.7265625 10.9570312,13.03125 C10.921875,13.1601563 10.8789062,13.3828125 11.015625,13.3828125 C11.109375,13.3828125 11.1992187,13.3515625 11.2851562,13.2890625 C11.4648437,13.15625 11.609375,12.9570313 11.71875,12.7617188 C11.796875,12.6210938 11.890625,12.4375 11.9375,12.28125 C11.9570312,12.2148438 11.9804687,12.1523438 12.0078125,12.09375 C12.0507813,11.9960937 12.109375,11.8945312 12.2109375,11.8945312 C12.2617188,11.8945312 12.3046875,11.9140625 12.3359375,11.953125 C12.4023438,12.0390625 12.3867188,12.1289063 12.3515625,12.2226563 C12.2734375,12.4414063 12.1679688,12.6367188 12.0820313,12.875 C12.03125,13.0117188 11.9765625,13.1875 11.9765625,13.3320313 C11.9765625,13.4648438 12.1210938,13.4335938 12.2421875,13.3789063 C12.3359375,13.3359375 12.4296875,13.2695313 12.5078125,13.203125 C12.5546875,13.0117188 12.5429688,13.0546875 13.5390625,10.5390625 C13.5898438,10.4101562 13.6835938,10.3554687 13.7773438,10.3554687 C13.8242188,10.3554687 13.8632813,10.3710937 13.9023438,10.3984375 C13.96875,10.4492187 13.96875,10.5585937 13.9414063,10.640625 C13.9140625,10.7148437 13.9179688,10.6914062 13.765625,11.0507812 C13.5625,11.5234375 13.4296875,11.8632812 13.25,12.296875 C13.1757813,12.4765625 12.9492188,13.0351563 12.9101563,13.1679688 C12.8867188,13.2539063 12.859375,13.3945313 12.9492188,13.3945313 C13.1601563,13.3945313 13.703125,12.8828125 13.8515625,12.7304688 C13.859375,12.71875 13.8710938,12.7148438 13.8867188,12.7070313 C13.9101563,12.6328125 13.9335938,12.5625 13.953125,12.4921875 C14.0078125,12.34375 14.0585938,12.171875 14.1601563,12.0507813 C14.1914063,12.0117188 14.2265625,11.9882812 14.265625,11.9882812 C14.375,11.9882812 14.4296875,12.0351563 14.4296875,12.1445313 C14.4296875,12.1875 14.4023438,12.34375 14.3867188,12.3867188 C14.4414063,12.328125 14.5,12.2695313 14.5625,12.2109375 C15.1484375,11.6679687 15.5664063,11.9453125 15.5664063,12.21875 C15.5664063,12.5078125 15.21875,12.9101563 15.0273438,13.1328125 C14.9648438,13.2070313 14.8359375,13.34375 14.8320313,13.3828125 C14.8320313,13.4335938 14.8671875,13.453125 14.9179688,13.453125 C14.9960938,13.453125 15.1679688,13.3164063 15.2304688,13.2695313 C15.4257813,13.1171875 15.6914063,12.8828125 15.8789063,12.71875 L16.4570313,7.37499998 C15.265625,8.04296873 8.73828123,8.04687498 7.53906248,7.38281248 Z M16.5117188,7.05078123 C16.5117188,7.87109373 7.48046873,7.87109373 7.48046873,7.05078123 C7.48046873,6.70703122 9.50390624,6.42968747 11.9960937,6.42968747 C12.3476563,6.42968747 12.6914063,6.43359372 13.0234375,6.44531247 L13.515625,4.54296871 L15.9101563,2.02343745 C15.9648438,1.96874995 16.1367188,2.01562495 16.296875,2.1601562 C16.4570313,2.30468745 16.5546875,2.46874995 16.5039063,2.52343745 L16.5,2.5273437 L14.2617188,4.89062496 L13.8710938,6.48046872 C15.4296875,6.58203122 16.5117188,6.79687497 16.5117188,7.05078123 Z M13.8007813,7.23046873 C13.8007813,7.19921873 13.765625,7.17187498 13.703125,7.14843748 L13.6953125,7.17968748 C13.6953125,7.23046873 13.5,7.27343748 13.2617188,7.27343748 C13.0234375,7.27343748 12.828125,7.23046873 12.828125,7.17968748 C12.828125,7.17578123 12.828125,7.17187498 12.8320313,7.16796873 L12.8398438,7.14062498 C12.7695313,7.16406248 12.7226563,7.19531248 12.7226563,7.23046873 C12.7226563,7.31249998 12.9648438,7.37499998 13.2578125,7.37499998 C13.5585938,7.37890623 13.8007813,7.31249998 13.8007813,7.23046873 Z" id="path-1"></path>
    </defs>
    <g id="gulp" stroke="none" stroke-width="1" fill="none" fill-rule="evenodd">
        <mask id="mask-2" fill="white">
            <use xlink:href="#path-1"></use>
        </mask>
        <g fill-rule="nonzero"></g>
        <g id="🎨-color" mask="url(#mask-2)" fill="#000000">
            <rect id="🎨-Color" x="0" y="0" width="24" height="24"></rect>
        </g>
    </g>
</svg>