<?xml version="1.0" encoding="UTF-8"?>
<svg width="24px" height="24px" viewBox="0 0 24 24" version="1.1" xmlns="http://www.w3.org/2000/svg" xmlns:xlink="http://www.w3.org/1999/xlink">
    <!-- Generator: Sketch 52.5 (67469) - http://www.bohemiancoding.com/sketch -->
    <title>h-square</title>
    <desc>Created with Sketch.</desc>
    <defs>
        <path d="M20.75,5.12499997 L20.75,18.875 C20.75,19.9105469 19.9105469,20.75 18.875,20.75 L5.12499997,20.75 C4.08945309,20.75 3.24999996,19.9105469 3.24999996,18.875 L3.24999996,5.12499997 C3.24999996,4.08945309 4.08945309,3.24999996 5.12499997,3.24999996 L18.875,3.24999996 C19.9105469,3.24999996 20.75,4.08945309 20.75,5.12499997 Z M16.375,6.99999997 L15.125,6.99999997 C14.7798047,6.99999997 14.5,7.27980466 14.5,7.62499998 L14.5,10.75 L9.49999999,10.75 L9.49999999,7.62499998 C9.49999999,7.27980466 9.2201953,6.99999997 8.87499998,6.99999997 L7.62499998,6.99999997 C7.27980466,6.99999997 6.99999997,7.27980466 6.99999997,7.62499998 L6.99999997,16.375 C6.99999997,16.7201953 7.27980466,17 7.62499998,17 L8.87499998,17 C9.2201953,17 9.49999999,16.7201953 9.49999999,16.375 L9.49999999,13.25 L14.5,13.25 L14.5,16.375 C14.5,16.7201953 14.7798047,17 15.125,17 L16.375,17 C16.7201953,17 17,16.7201953 17,16.375 L17,7.62499998 C17,7.27980466 16.7201953,6.99999997 16.375,6.99999997 Z" id="path-1"></path>
    </defs>
    <g id="h-square" stroke="none" stroke-width="1" fill="none" fill-rule="evenodd">
        <mask id="mask-2" fill="white">
            <use xlink:href="#path-1"></use>
        </mask>
        <g fill-rule="nonzero"></g>
        <g id="🎨-color" mask="url(#mask-2)" fill="#000000">
            <rect id="🎨-Color" x="0" y="0" width="24" height="24"></rect>
        </g>
    </g>
</svg>