<?xml version="1.0" encoding="UTF-8"?>
<svg width="24px" height="24px" viewBox="0 0 24 24" version="1.1" xmlns="http://www.w3.org/2000/svg" xmlns:xlink="http://www.w3.org/1999/xlink">
    <!-- Generator: Sketch 52.5 (67469) - http://www.bohemiancoding.com/sketch -->
    <title>hammer</title>
    <desc>Created with Sketch.</desc>
    <defs>
        <path d="M21.8371528,9.82777777 L21.0513889,9.04201387 C20.834375,8.82499998 20.4826389,8.82499998 20.265625,9.04201387 L19.8729167,9.43472221 L18.8694445,8.43124998 C19.0649306,7.69131942 18.8819445,6.8722222 18.3017361,6.29201386 L16.7305556,4.7208333 C14.5611111,2.55138884 11.0434028,2.55138884 8.8736111,4.7208333 L12.0163194,6.29201386 L12.0163194,6.94305553 C12.0163194,7.53229164 12.2503472,8.09756942 12.6673611,8.51423609 L14.3736111,10.2204861 C14.9538195,10.8006944 15.7729167,10.9836806 16.5128472,10.7881944 L17.5163195,11.7916667 L17.1236111,12.184375 C16.9065972,12.4013889 16.9065972,12.753125 17.1236111,12.9701389 L17.909375,13.7559028 C18.1263889,13.9729167 18.478125,13.9729167 18.6951389,13.7559028 L21.8378473,10.6131944 C22.0541667,10.3965278 22.0541667,10.0447917 21.8371528,9.82777777 Z M11.8815972,9.29999999 C11.753125,9.17152776 11.6440972,9.02951387 11.5395833,8.88506943 L2.6819444,17.1548611 C1.79409717,17.9840278 1.77013884,19.3836806 2.6288194,20.2427084 C3.48749996,21.1017362 4.88749996,21.0777778 5.71666664,20.1895834 L13.9850695,11.3329861 C13.8475695,11.2319444 13.7107639,11.1291667 13.5878472,11.00625 L11.8815972,9.29999999 Z" id="path-1"></path>
    </defs>
    <g id="hammer" stroke="none" stroke-width="1" fill="none" fill-rule="evenodd">
        <mask id="mask-2" fill="white">
            <use xlink:href="#path-1"></use>
        </mask>
        <g fill-rule="nonzero"></g>
        <g id="🎨-color" mask="url(#mask-2)" fill="#000000">
            <rect id="🎨-Color" x="0" y="0" width="24" height="24"></rect>
        </g>
    </g>
</svg>