<?xml version="1.0" encoding="UTF-8"?>
<svg width="24px" height="24px" viewBox="0 0 24 24" version="1.1" xmlns="http://www.w3.org/2000/svg" xmlns:xlink="http://www.w3.org/1999/xlink">
    <!-- Generator: Sketch 52.5 (67469) - http://www.bohemiancoding.com/sketch -->
    <title>hamsa</title>
    <desc>Created with Sketch.</desc>
    <defs>
        <path d="M21.8962963,13.9980507 C21.6990254,13.5423002 21.2495127,13.2475634 20.7524367,13.2475634 L18.25731,13.2475634 L18.25731,5.13840153 C18.25731,4.28070172 17.5555556,3.57894733 16.6978558,3.57894733 C15.840156,3.57894733 15.1384016,4.28070172 15.1384016,5.13840153 L15.1384016,10.3625731 C15.1384016,10.5777778 14.9637427,10.7524366 14.748538,10.7524366 L13.9688109,10.7524366 C13.7536062,10.7524366 13.5789474,10.5777778 13.5789474,10.3625731 L13.5789474,3.57894733 C13.5789474,2.72124752 12.877193,2.01949313 12.0194932,2.01949313 C11.1617934,2.01949313 10.460039,2.72124752 10.460039,3.57894733 L10.460039,10.3625731 C10.460039,10.5777778 10.2853801,10.7524366 10.0701754,10.7524366 L9.29044833,10.7524366 C9.07524365,10.7524366 8.90058478,10.5777778 8.90058478,10.3625731 L8.90058478,5.13840153 C8.90058478,4.28070172 8.19883039,3.57894733 7.34113058,3.57894733 C6.48343077,3.57894733 5.78167638,4.28070172 5.78167638,5.13840153 L5.78167638,13.2475634 L3.28654966,13.2475634 C2.78947364,13.2475634 2.33996097,13.5423002 2.14269001,13.9980507 C1.94432266,14.4534282 2.0353109,14.9831207 2.37426896,15.3461988 L6.37777775,19.6358675 C7.7688109,21.125926 9.82417153,21.9805069 12.0194932,21.9805069 C14.2148148,21.9805069 16.2701755,21.125926 17.6615985,19.6358675 L21.6647174,15.3461988 C22.0036755,14.9831207 22.0946637,14.4534282 21.8962963,13.9980507 Z M12.0194932,18.2378168 C9.95243664,18.2378168 8.2768031,15.7426901 8.2768031,15.7426901 C8.2768031,15.7426901 9.95243664,13.2475634 12.0194932,13.2475634 C14.0865497,13.2475634 15.7621833,15.7426901 15.7621833,15.7426901 C15.7621833,15.7426901 14.0865497,18.2378168 12.0194932,18.2378168 Z M12.0194932,14.4951267 C11.3306043,14.4951267 10.7719298,15.0538012 10.7719298,15.7426901 C10.7719298,16.431579 11.3306043,16.9902534 12.0194932,16.9902534 C12.7083821,16.9902534 13.2670565,16.431579 13.2670565,15.7426901 C13.2670565,15.0538012 12.7083821,14.4951267 12.0194932,14.4951267 Z" id="path-1"></path>
    </defs>
    <g id="hamsa" stroke="none" stroke-width="1" fill="none" fill-rule="evenodd">
        <mask id="mask-2" fill="white">
            <use xlink:href="#path-1"></use>
        </mask>
        <g fill-rule="nonzero"></g>
        <g id="🎨-color" mask="url(#mask-2)" fill="#000000">
            <rect id="🎨-Color" x="0" y="0" width="24" height="24"></rect>
        </g>
    </g>
</svg>