<?xml version="1.0" encoding="UTF-8"?>
<svg width="24px" height="24px" viewBox="0 0 24 24" version="1.1" xmlns="http://www.w3.org/2000/svg" xmlns:xlink="http://www.w3.org/1999/xlink">
    <!-- Generator: Sketch 52.5 (67469) - http://www.bohemiancoding.com/sketch -->
    <title>handshake</title>
    <desc>Created with Sketch.</desc>
    <defs>
        <path d="M18.225,7.99687498 L16.7375,6.50937497 C16.4082901,6.18306922 15.9635241,5.99999635 15.5,5.99999997 L8.41249998,5.99999997 C7.94999998,5.99999997 7.50312498,6.18437497 7.17499998,6.50937497 L5.68749997,7.99687498 L1.99999995,7.99687498 L1.99999995,15.9875 L3.99999996,15.9875 C4.54999996,15.9875 4.99374996,15.54375 4.99687496,14.996875 L5.28124997,14.996875 L7.92499998,17.384375 C8.89062498,18.16875 10.23125,18.1875 11.225,17.503125 C11.615625,17.840625 12.0375,18 12.509375,18 C13.078125,18 13.6125,17.76875 14.034375,17.25 C14.725,17.521875 15.540625,17.33125 16.034375,16.725 L16.853125,15.715625 C17.028125,15.5 17.1375,15.253125 17.19375,14.996875 L19.003125,14.996875 C19.00625,15.54375 19.453125,15.9875 20,15.9875 L22.0000001,15.9875 L22.0000001,7.99687498 L18.225,7.99687498 Z M3.49999996,14.9875 C3.22499996,14.9875 2.99999995,14.7625 2.99999995,14.4875 C2.99999995,14.2125 3.22499996,13.9875 3.49999996,13.9875 C3.77499996,13.9875 3.99999996,14.2125 3.99999996,14.4875 C3.99999996,14.765625 3.77499996,14.9875 3.49999996,14.9875 Z M15.6875,14.771875 L14.871875,15.778125 C14.784375,15.884375 14.628125,15.903125 14.51875,15.815625 L13.771875,15.209375 L12.834375,16.35 C12.646875,16.578125 12.365625,16.5 12.271875,16.425 L11.121875,15.440625 L10.634375,16.040625 C10.2,16.575 9.40937499,16.65625 8.90624998,16.246875 L5.86562497,13.496875 L4.99999996,13.496875 L4.99999996,9.49374999 L6.30937497,9.49374999 L8.23749998,7.56874998 C8.29999998,7.54374998 8.35312498,7.52187498 8.41562498,7.49687498 L10.1875,7.49687498 L8.97812498,8.60624998 C8.05937498,9.44687499 8.00624998,10.865625 8.84062498,11.771875 C9.30312499,12.278125 10.753125,13.059375 12.0125,11.909375 L12.26875,11.675 L15.65,14.41875 C15.75625,14.50625 15.771875,14.665625 15.6875,14.771875 Z M19,13.496875 L16.8375,13.496875 C16.765625,13.409375 16.684375,13.328125 16.596875,13.25625 L13.3875,10.65 L13.778125,10.29375 C13.98125,10.10625 13.996875,9.79062499 13.809375,9.58749999 L13.46875,9.22187499 C13.28125,9.01874999 12.965625,9.00624999 12.7625,9.19062499 L11.0375,10.771875 C10.740625,11.04375 10.234375,11.065625 9.95624999,10.771875 C9.66562499,10.4625 9.69062499,9.98749999 9.99374999,9.71249999 L12.04375,7.83437498 C12.275,7.62187498 12.575,7.50624998 12.8875,7.50624998 L15.503125,7.49999998 C15.56875,7.49999998 15.63125,7.52499998 15.675,7.57187498 L17.603125,9.49687499 L19,9.49687499 L19,13.496875 Z M20.5,14.9875 C20.225,14.9875 20,14.7625 20,14.4875 C20,14.2125 20.225,13.9875 20.5,13.9875 C20.775,13.9875 21,14.2125 21,14.4875 C21,14.765625 20.775,14.9875 20.5,14.9875 Z" id="path-1"></path>
    </defs>
    <g id="handshake" stroke="none" stroke-width="1" fill="none" fill-rule="evenodd">
        <mask id="mask-2" fill="white">
            <use xlink:href="#path-1"></use>
        </mask>
        <g fill-rule="nonzero"></g>
        <g id="🎨-color" mask="url(#mask-2)" fill="#000000">
            <rect id="🎨-Color" x="0" y="0" width="24" height="24"></rect>
        </g>
    </g>
</svg>