<?xml version="1.0" encoding="UTF-8"?>
<svg width="24px" height="24px" viewBox="0 0 24 24" version="1.1" xmlns="http://www.w3.org/2000/svg" xmlns:xlink="http://www.w3.org/1999/xlink">
    <!-- Generator: Sketch 52.5 (67469) - http://www.bohemiancoding.com/sketch -->
    <title>hand-peace</title>
    <desc>Created with Sketch.</desc>
    <defs>
        <path d="M17.3963282,9.49906249 C16.8607813,8.65339842 15.8822266,8.17031248 14.8570313,8.31386717 L14.8570313,4.89062496 C14.8570313,3.29671871 13.5753516,1.99999995 11.9999609,1.99999995 C10.4245703,1.99999995 9.14292967,3.29671871 9.14292967,4.89062496 L9.49999999,8.56249998 L8.77035155,5.48242184 C8.19445311,3.98605465 6.5253906,3.25429683 5.05503903,3.84406246 C3.5912109,4.43117184 2.87613277,6.10011716 3.44562496,7.5800781 L5.62363278,13.2412891 C4.42999996,14.2161328 3.90511715,15.4994531 4.65749996,16.8435547 L6.80019529,20.6716407 C7.25878904,21.4910157 8.12226561,22.0000001 9.05371092,22.0000001 L17.0889453,22.0000001 C18.2898828,22.0000001 19.3373047,21.1625 19.610625,19.9766797 L20.6819922,15.3282813 C20.7268415,15.1335081 20.7494988,14.9342841 20.7495313,14.7344141 L20.75,12 C20.75,10.2439062 19.0600391,8.97878905 17.3963282,9.49906249 Z M18.8744922,14.734375 C18.8744922,14.7925 18.8678907,14.8506641 18.8548828,14.9071485 L17.7835157,19.555625 C17.70625,19.8908594 17.420625,20.125 17.0889063,20.125 L9.05371092,20.125 C8.80035155,20.125 8.56378905,19.9835547 8.43632811,19.7558985 L6.29359372,15.9277735 C6.11558591,15.6097656 6.19128903,15.1985547 6.46968747,14.971211 L7.51058592,14.1210547 C7.71971631,13.9502672 7.79552806,13.6644922 7.69855467,13.4125 L5.19503903,6.90667966 C4.70414059,5.63109372 6.5457031,4.92332028 7.01992185,6.15582028 L9.35523436,12.2244531 C9.44809579,12.4657802 9.67997778,12.625006 9.93855468,12.625 L10.3929297,12.625 C10.738125,12.625 11.0179297,12.3451953 11.0179297,12 L11.0179297,4.89062496 C11.0179297,3.54785152 12.9820313,3.54570308 12.9820313,4.89062496 L12.9820313,12 C12.9820313,12.3451953 13.2618359,12.625 13.6070313,12.625 L13.8748438,12.625 C14.2200391,12.625 14.4998438,12.3451953 14.4998438,12 L14.4998438,10.90625 C14.4998438,9.92492186 15.9282422,9.92347655 15.9282422,10.90625 L15.9282422,12 C15.9282422,12.3451953 16.2080469,12.625 16.5532422,12.625 L16.8210547,12.625 C17.16625,12.625 17.4460547,12.3451953 17.4460547,12 C17.4460547,11.01875 18.8744532,11.0171875 18.8744532,12 L18.8744532,14.734375 L18.8744922,14.734375 Z" id="path-1"></path>
    </defs>
    <g id="hand-peace" stroke="none" stroke-width="1" fill="none" fill-rule="evenodd">
        <mask id="mask-2" fill="white">
            <use xlink:href="#path-1"></use>
        </mask>
        <g fill-rule="nonzero"></g>
        <g id="🎨-color" mask="url(#mask-2)" fill="#000000">
            <rect id="🎨-Color" x="0" y="0" width="24" height="24"></rect>
        </g>
    </g>
</svg>