<?xml version="1.0" encoding="UTF-8"?>
<svg width="24px" height="24px" viewBox="0 0 24 24" version="1.1" xmlns="http://www.w3.org/2000/svg" xmlns:xlink="http://www.w3.org/1999/xlink">
    <!-- Generator: Sketch 52.5 (67469) - http://www.bohemiancoding.com/sketch -->
    <title>hand-point-right</title>
    <desc>Created with Sketch.</desc>
    <defs>
        <path d="M18.75,7.37499998 L15.383711,7.37499998 C15.4404555,7.08679499 15.4689239,6.79373797 15.468711,6.49999997 C15.468711,4.62835934 14.0987109,3.24999996 11.8749609,3.24999996 C10.1048828,3.24999996 9.6483203,5.14597653 8.91765623,6.32749997 C8.6155078,6.81238279 8.25382811,7.23832029 7.90785154,7.62644529 L7.90273435,7.63214842 L7.89769529,7.63792967 C7.29929685,8.32058592 6.99078122,8.56249998 6.71874997,8.56249998 L6.61410154,8.56249998 C6.38960935,8.36906248 6.08535153,8.24999998 5.75003903,8.24999998 L3.24999996,8.24999998 C2.55964839,8.24999998 1.99999995,8.75367186 1.99999995,9.37499999 L1.99999995,18.375 C1.99999995,18.9963282 2.55964839,19.5 3.24999996,19.5 L5.74999997,19.5 C6.08531247,19.5 6.38957028,19.3809375 6.61406247,19.1875 L6.71871091,19.1875 C7.83933592,19.1875 9.34124999,20.75 11.6874609,20.75 L12.5194531,20.75 C14.9625,20.75 16.3788281,19.2399219 16.4233594,17.1896485 C16.9109375,16.4938281 17.1456641,15.5964844 17.0477735,14.736875 C17.1869037,14.4637749 17.29097,14.17419 17.3575,13.875 L18.75,13.875 C20.5248047,13.875 22.0000001,12.406875 22.0000001,10.625 C22.0000001,8.8633203 20.5116797,7.37499998 18.75,7.37499998 Z M18.75,12 L15.1942969,12 C15.6957422,12.5730078 15.7573828,13.6728516 15.0009375,14.3847656 C15.4394922,15.1521875 15.066836,16.1669531 14.4960547,16.4794922 C14.7508985,18.0079297 14.1024609,18.875 12.5194922,18.875 L11.6875,18.875 C9.9105078,18.875 8.67148436,17.4721485 6.99999997,17.3251563 L6.99999997,10.4207422 C7.98589842,10.3049609 8.67835936,9.5917578 9.30761717,8.87402342 C9.74804686,8.37988279 10.15625,7.88574217 10.5107031,7.31640623 C11.0763672,6.40281247 11.5314844,5.12499997 11.875,5.12499997 C12.7880859,5.12499997 13.59375,5.46874997 13.59375,6.49999997 C13.59375,7.87499998 12.5625,8.57324217 12.5625,9.24999999 L18.75,9.24999999 C19.4697266,9.24999999 20.125,9.89453124 20.125,10.625 C20.125,11.3662109 19.491211,12 18.75,12 Z M5.43749997,17 C5.43749997,17.5177735 5.0177734,17.9375 4.49999996,17.9375 C3.98222652,17.9375 3.56249996,17.5177735 3.56249996,17 C3.56249996,16.4822266 3.98222652,16.0625 4.49999996,16.0625 C5.0177734,16.0625 5.43749997,16.4822266 5.43749997,17 Z" id="path-1"></path>
    </defs>
    <g id="hand-point-right" stroke="none" stroke-width="1" fill="none" fill-rule="evenodd">
        <mask id="mask-2" fill="white">
            <use xlink:href="#path-1"></use>
        </mask>
        <g fill-rule="nonzero"></g>
        <g id="🎨-color" mask="url(#mask-2)" fill="#000000">
            <rect id="🎨-Color" x="0" y="0" width="24" height="24"></rect>
        </g>
    </g>
</svg>