<?xml version="1.0" encoding="UTF-8"?>
<svg width="24px" height="24px" viewBox="0 0 24 24" version="1.1" xmlns="http://www.w3.org/2000/svg" xmlns:xlink="http://www.w3.org/1999/xlink">
    <!-- Generator: Sketch 52.5 (67469) - http://www.bohemiancoding.com/sketch -->
    <title>hand-lizard</title>
    <desc>Created with Sketch.</desc>
    <defs>
        <path d="M21.329375,13.199375 L16.2475,5.36211802 C15.784757,4.6483333 15.0005903,4.22222218 14.1498958,4.22222218 L3.9444444,4.22222218 C2.8722569,4.22222218 1.99999995,5.09451385 1.99999995,6.16666664 L1.99999995,6.44444442 C1.99999995,7.97611109 3.24611107,9.22222221 4.77777774,9.22222221 L11.5847917,9.22222221 L10.9482292,10.8888889 L6.99999997,10.8888889 C5.31517358,10.8888889 3.9444444,12.2596181 3.9444444,13.9444445 C3.9444444,15.016632 4.81670135,15.8888889 5.88888886,15.8888889 L10.4566667,15.8888889 C10.5603819,15.8888889 10.6620139,15.9079514 10.7586458,15.9455209 L14.2222222,17.2922917 L14.2222222,19.7777778 L22.0000001,19.7777778 L22.0000001,15.4662847 C22.0000001,14.6598611 21.7680903,13.8759722 21.329375,13.199375 Z M20.3333339,18.1111111 L15.8888889,18.1111111 L15.8888889,17.2922917 C15.8888889,16.5996528 15.4717361,15.9899306 14.82625,15.7389584 L11.3626736,14.3921528 C11.0738749,14.2796312 10.7666114,14.2220009 10.4566667,14.2222222 L5.88888886,14.2222222 C5.73572914,14.2222222 5.61111108,14.0976042 5.61111108,13.9444445 C5.61111108,13.1786111 6.23416664,12.5555556 6.99999997,12.5555556 L10.9482292,12.5555556 C11.6345833,12.5555556 12.2602431,12.1247569 12.5051736,11.4835764 L13.3576736,9.25159721 C13.6700347,8.4337847 13.0650347,7.55555553 12.1899653,7.55555553 L4.77777774,7.55555553 C4.16510413,7.55555553 3.66666662,7.05711803 3.66666662,6.44444442 L3.66666662,6.16666664 C3.66666662,6.01350691 3.79128468,5.88888886 3.9444444,5.88888886 L14.1498958,5.88888886 C14.4334375,5.88888886 14.6947917,6.03090275 14.8490972,6.26881942 L19.9309723,14.1061458 C20.1938843,14.5110377 20.3336562,14.9835218 20.3333334,15.4662847 L20.3333339,18.1111111 Z" id="path-1"></path>
    </defs>
    <g id="hand-lizard" stroke="none" stroke-width="1" fill="none" fill-rule="evenodd">
        <mask id="mask-2" fill="white">
            <use xlink:href="#path-1"></use>
        </mask>
        <g fill-rule="nonzero"></g>
        <g id="🎨-color" mask="url(#mask-2)" fill="#000000">
            <rect id="🎨-Color" x="0" y="0" width="24" height="24"></rect>
        </g>
    </g>
</svg>