<?xml version="1.0" encoding="UTF-8"?>
<svg width="24px" height="24px" viewBox="0 0 24 24" version="1.1" xmlns="http://www.w3.org/2000/svg" xmlns:xlink="http://www.w3.org/1999/xlink">
    <!-- Generator: Sketch 52.5 (67469) - http://www.bohemiancoding.com/sketch -->
    <title>hand-spock</title>
    <desc>Created with Sketch.</desc>
    <defs>
        <path d="M2.84194927,16.8846004 L7.87477581,21.6219494 C8.10619682,21.8397653 8.41202039,21.9610517 8.72982455,21.9610527 L17.9929825,21.9610527 C18.5454191,21.9610527 19.0320858,21.5977388 19.1890839,21.0681092 L20.4294347,16.8843665 C20.553177,16.4670822 20.6160087,16.0341146 20.6159844,15.5988694 L20.6159844,14.1626511 C20.6159844,14.0047174 20.634542,13.8467057 20.6711112,13.6930604 L21.9081482,8.49189082 C22.3018714,6.83840153 21.0381287,5.26623778 19.3528265,5.27454188 C19.1912671,4.30549704 18.4739571,3.43575044 17.4093568,3.1695906 C16.0135283,2.82058475 14.5934893,3.66296292 14.2417154,5.0701754 L13.582807,9.17348926 L12.7377778,4.02768027 C12.4147368,2.62144245 11.0105653,1.74417149 9.60701753,2.06682256 C8.45239764,2.33208572 7.65231967,3.32955161 7.58432746,4.45649119 C5.92206625,4.48888885 4.72058476,6.03789471 5.08643271,7.64729043 L6.29656917,12.9692398 C5.23637424,12.091462 3.67341126,12.1898246 2.73001945,13.1923197 C1.7407017,14.2434308 1.79052626,15.8950488 2.84194927,16.8846004 Z M4.0921637,14.4748148 L4.09224168,14.4747758 C4.37368417,14.1756725 4.84237813,14.1636647 5.13925922,14.4430799 L7.20600387,16.3882651 C7.60331382,16.7621443 8.25730992,16.4795322 8.25730992,15.9339571 L8.25730992,13.2252242 C8.25730992,13.1787135 8.25208575,13.1323197 8.24183234,13.0869786 L6.91122804,7.23231966 C6.6930604,6.27259256 8.1393762,5.95122804 8.35582844,6.90401557 L9.54097465,12.1187135 C9.60552403,12.4027255 9.85802378,12.6042657 10.1492787,12.6042495 L10.4847173,12.6042495 C10.8853411,12.6042495 11.1823392,12.2312671 11.0926706,11.8407797 L9.47005847,4.77828456 C9.25083819,3.82432744 10.6938401,3.48877189 10.9139181,4.44658866 L12.6768811,12.1201949 C12.7419783,12.4035058 12.9941409,12.6042947 13.2848343,12.6042885 L13.800117,12.6042885 C14.0863412,12.6042854 14.3358359,12.4094893 14.4052632,12.1318129 L16.057193,5.52401556 C16.2951657,4.5718908 17.7321248,4.93302141 17.494425,5.8833528 L16.0079922,11.8292398 C15.9097076,12.2225341 16.2074074,12.6042885 16.6131384,12.6042885 L16.9910721,12.6042885 C17.2799329,12.6042863 17.5310054,12.4059608 17.5978948,12.1249513 L18.6475244,7.71539959 C18.874464,6.76226118 20.3160234,7.10382064 20.088694,8.05855749 L18.8506823,13.2596491 C18.7802702,13.5554896 18.744681,13.8585467 18.7446394,14.1626511 L18.7446394,15.5988694 C18.7446394,15.8541521 18.7078753,16.1076803 18.6352827,16.3523977 L17.5272905,20.0896687 L8.97719297,20.0896687 L4.1238986,15.5218714 C3.82647169,15.2419493 3.81224167,14.7722027 4.0921637,14.4748148 Z" id="path-1"></path>
    </defs>
    <g id="hand-spock" stroke="none" stroke-width="1" fill="none" fill-rule="evenodd">
        <mask id="mask-2" fill="white">
            <use xlink:href="#path-1"></use>
        </mask>
        <g fill-rule="nonzero"></g>
        <g id="🎨-color" mask="url(#mask-2)" fill="#000000">
            <rect id="🎨-Color" x="0" y="0" width="24" height="24"></rect>
        </g>
    </g>
</svg>