<?xml version="1.0" encoding="UTF-8"?>
<svg width="24px" height="24px" viewBox="0 0 24 24" version="1.1" xmlns="http://www.w3.org/2000/svg" xmlns:xlink="http://www.w3.org/1999/xlink">
    <!-- Generator: Sketch 52.5 (67469) - http://www.bohemiancoding.com/sketch -->
    <title>hand-pointer</title>
    <desc>Created with Sketch.</desc>
    <defs>
        <path d="M17.2414844,9.00628905 C16.4800391,8.03878904 15.183711,7.75843748 14.1214844,8.26027342 C13.5305859,7.64749998 12.708125,7.38187498 11.9107422,7.4935156 L11.9107422,4.61718746 C11.9107422,3.17406246 10.7491797,1.99999995 9.3214453,1.99999995 C7.89371092,1.99999995 6.73214841,3.17406246 6.73214841,4.61718746 L6.73214841,10.9112891 C5.95445309,10.6218359 5.0418359,10.7123047 4.30703121,11.2578516 C3.16035152,12.1092188 2.90886714,13.7317969 3.73867183,14.8966016 L8.02378904,20.9122657 C8.50906248,21.5933594 9.2945703,22.0000001 10.125,22.0000001 L17.0892969,22.0000001 C18.2925,22.0000001 19.3382813,21.1601563 19.6110547,19.9766797 L20.6825,15.3282813 C20.7273154,15.1334898 20.7499592,14.9342553 20.75,14.734375 L20.75,11.453125 C20.75,9.62328124 18.928711,8.35652342 17.2414844,9.00628905 Z M6.41347653,12.9256641 L7.47308591,14.413125 C7.8244531,14.9063281 8.60710936,14.658711 8.60710936,14.0505078 L8.60710936,4.61718746 C8.60710936,3.63593746 10.0356641,3.63437496 10.0356641,4.61718746 L10.0356641,11.453125 C10.0356641,11.7982812 10.3154687,12.078125 10.6606641,12.078125 L10.9285156,12.078125 C11.2737109,12.078125 11.5535156,11.7982812 11.5535156,11.453125 L11.5535156,10.0859375 C11.5535156,9.10468749 12.9820703,9.10312499 12.9820703,10.0859375 L12.9820703,11.453125 C12.9820703,11.7982812 13.261875,12.078125 13.6070703,12.078125 L13.875,12.078125 C14.2201953,12.078125 14.5,11.7982812 14.5,11.453125 L14.5,10.6328125 C14.5,9.65156249 15.9285547,9.64999999 15.9285547,10.6328125 L15.9285547,11.453125 C15.9285547,11.7982812 16.2083594,12.078125 16.5535547,12.078125 L16.8214063,12.078125 C17.1666016,12.078125 17.4464063,11.7982812 17.4464063,11.453125 C17.4464063,10.4718359 18.874961,10.4703125 18.874961,11.453125 L18.874961,14.734375 C18.874961,14.7925 18.8683594,14.8506641 18.8553516,14.9071485 L17.7838672,19.555625 C17.7066016,19.8908594 17.4209766,20.125 17.0892578,20.125 L10.125,20.125 C9.89964843,20.125 9.68503905,20.0125782 9.55089843,19.824336 L5.2652734,13.8087109 C4.70253903,13.01875 5.85097653,12.1361328 6.41347653,12.9256641 Z M10.1305859,17.625 L10.1305859,13.875 C10.1305859,13.5298047 10.3754297,13.25 10.6774609,13.25 L10.9118359,13.25 C11.2138672,13.25 11.4587109,13.5298047 11.4587109,13.875 L11.4587109,17.625 C11.4587109,17.9701953 11.2138672,18.25 10.9118359,18.25 L10.6774609,18.25 C10.3753906,18.25 10.1305859,17.9701953 10.1305859,17.625 Z M13.0769922,17.625 L13.0769922,13.875 C13.0769922,13.5298047 13.3218359,13.25 13.6238672,13.25 L13.8582422,13.25 C14.1602734,13.25 14.4051172,13.5298047 14.4051172,13.875 L14.4051172,17.625 C14.4051172,17.9701953 14.1602734,18.25 13.8582422,18.25 L13.6238672,18.25 C13.3218359,18.25 13.0769922,17.9701953 13.0769922,17.625 Z M16.0234375,17.625 L16.0234375,13.875 C16.0234375,13.5298047 16.2682813,13.25 16.5703125,13.25 L16.8046875,13.25 C17.1067188,13.25 17.3515625,13.5298047 17.3515625,13.875 L17.3515625,17.625 C17.3515625,17.9701953 17.1067188,18.25 16.8046875,18.25 L16.5703125,18.25 C16.2682813,18.25 16.0234375,17.9701953 16.0234375,17.625 Z" id="path-1"></path>
    </defs>
    <g id="hand-pointer" stroke="none" stroke-width="1" fill="none" fill-rule="evenodd">
        <mask id="mask-2" fill="white">
            <use xlink:href="#path-1"></use>
        </mask>
        <g fill-rule="nonzero"></g>
        <g id="🎨-color" mask="url(#mask-2)" fill="#000000">
            <rect id="🎨-Color" x="0" y="0" width="24" height="24"></rect>
        </g>
    </g>
</svg>