<?xml version="1.0" encoding="UTF-8"?>
<svg width="24px" height="24px" viewBox="0 0 24 24" version="1.1" xmlns="http://www.w3.org/2000/svg" xmlns:xlink="http://www.w3.org/1999/xlink">
    <!-- Generator: Sketch 52.5 (67469) - http://www.bohemiancoding.com/sketch -->
    <title>hand-point-down</title>
    <desc>Created with Sketch.</desc>
    <defs>
        <path d="M10.625,22.0000001 C12.406875,22.0000001 13.875,20.5248047 13.875,18.75 L13.875,17.3575391 C14.17419,17.2910091 14.4637749,17.1869428 14.736875,17.0478125 C15.5964844,17.1457422 16.4938281,16.9109766 17.1896485,16.4233985 C19.2399219,16.3789063 20.75,14.9625391 20.75,12.5194922 L20.75,11.6875 C20.75,9.34128905 19.1875,7.83937498 19.1875,6.71874997 L19.1875,6.61410154 C19.3809375,6.38960935 19.5,6.08535153 19.5,5.75003903 L19.5,3.24999996 C19.5,2.55964839 18.9963282,1.99999995 18.375,1.99999995 L9.37499999,1.99999995 C8.75367186,1.99999995 8.24999998,2.55964839 8.24999998,3.24999996 L8.24999998,5.74999997 C8.24999998,6.08531247 8.36906248,6.38957028 8.56249998,6.61406247 L8.56249998,6.71871091 C8.56249998,6.99074216 8.32058592,7.29925779 7.63796873,7.89773435 L7.63218748,7.90277342 L7.62648435,7.9078906 C7.23832029,8.25382811 6.81238279,8.61554686 6.32753903,8.9176953 C5.14597653,9.64835936 3.24999996,10.1049219 3.24999996,11.875 C3.24999996,14.09875 4.62835934,15.46875 6.49999997,15.46875 C6.8135156,15.46875 7.10503904,15.4369531 7.37499998,15.38375 L7.37499998,18.75 C7.37499998,20.5116797 8.8633203,22.0000001 10.625,22.0000001 Z M10.625,20.125 C9.89453124,20.125 9.24999999,19.4697266 9.24999999,18.75 L9.24999999,12.5625 C8.57324217,12.5625 7.87499998,13.59375 6.49999997,13.59375 C5.46874997,13.59375 5.12499997,12.7880859 5.12499997,11.875 C5.12499997,11.5314844 6.40281247,11.0763672 7.31640623,10.5107031 C7.88574217,10.15625 8.37988279,9.74804686 8.87402342,9.30761717 C9.5917578,8.67835936 10.305,7.98589842 10.4207422,6.99999997 L17.3251172,6.99999997 C17.4721485,8.67148436 18.875,9.9105078 18.875,11.6875 L18.875,12.5194922 C18.875,14.1024609 18.0079297,14.7508985 16.4794922,14.4960938 C16.1669531,15.066875 15.1521875,15.4394922 14.3847656,15.0009766 C13.6728516,15.7574219 12.5730078,15.6957813 12,15.194336 L12,18.75 C12,19.491211 11.3662109,20.125 10.625,20.125 Z M16.0625,4.49999996 C16.0625,3.98222652 16.4822266,3.56249996 17,3.56249996 C17.5177735,3.56249996 17.9375,3.98222652 17.9375,4.49999996 C17.9375,5.0177734 17.5177735,5.43749997 17,5.43749997 C16.4822266,5.43749997 16.0625,5.0177734 16.0625,4.49999996 Z" id="path-1"></path>
    </defs>
    <g id="hand-point-down" stroke="none" stroke-width="1" fill="none" fill-rule="evenodd">
        <mask id="mask-2" fill="white">
            <use xlink:href="#path-1"></use>
        </mask>
        <g fill-rule="nonzero"></g>
        <g id="🎨-color" mask="url(#mask-2)" fill="#000000">
            <rect id="🎨-Color" x="0" y="0" width="24" height="24"></rect>
        </g>
    </g>
</svg>