<?xml version="1.0" encoding="UTF-8"?>
<svg width="24px" height="24px" viewBox="0 0 24 24" version="1.1" xmlns="http://www.w3.org/2000/svg" xmlns:xlink="http://www.w3.org/1999/xlink">
    <!-- Generator: Sketch 52.5 (67469) - http://www.bohemiancoding.com/sketch -->
    <title>hand-point-up</title>
    <desc>Created with Sketch.</desc>
    <defs>
        <path d="M7.37499998,5.24999997 L7.37499998,8.61628905 C7.08679499,8.55954448 6.79373797,8.53107609 6.49999997,8.53128905 C4.62835934,8.53128905 3.24999996,9.90128905 3.24999996,12.1250391 C3.24999996,13.8951172 5.14597653,14.3516797 6.32749997,15.0823438 C6.81238279,15.3844922 7.23832029,15.7461719 7.62644529,16.0921485 L7.63214842,16.0972656 L7.63792967,16.1023047 C8.32058592,16.7007031 8.56249998,17.0092188 8.56249998,17.28125 L8.56249998,17.3858985 C8.36906248,17.6103907 8.24999998,17.9146485 8.24999998,18.249961 L8.24999998,20.749961 C8.24999998,21.4403125 8.75367186,21.999961 9.37499999,21.999961 L18.375,21.999961 C18.9963282,21.999961 19.5,21.4403125 19.5,20.749961 L19.5,18.249961 C19.5,17.9146485 19.3809375,17.6103907 19.1875,17.3858985 L19.1875,17.28125 C19.1875,16.160625 20.75,14.658711 20.75,12.3125 L20.75,11.4805078 C20.75,9.03746092 19.2399219,7.62113279 17.1896485,7.57660154 C16.4938281,7.08902341 15.5964844,6.85429685 14.736875,6.95218747 C14.4637749,6.81305724 14.17419,6.70899092 13.875,6.64246091 L13.875,5.24999997 C13.875,3.47519527 12.406875,1.99999995 10.625,1.99999995 C8.8633203,1.99999995 7.37499998,3.48832027 7.37499998,5.24999997 Z M12,5.24999997 L12,8.80570311 C12.5730078,8.30425779 13.6728516,8.24261717 14.3847656,8.99906248 C15.1521875,8.5605078 16.1669531,8.93316405 16.4794922,9.5039453 C18.0079297,9.24910155 18.875,9.89753905 18.875,11.4805078 L18.875,12.3125 C18.875,14.0894922 17.4721485,15.3285156 17.3251563,17 L10.4207422,17 C10.3049609,16.0141016 9.5917578,15.3216406 8.87402342,14.6923828 C8.37988279,14.2519531 7.88574217,13.84375 7.31640623,13.4892969 C6.40281247,12.9236328 5.12499997,12.4685156 5.12499997,12.125 C5.12499997,11.2119141 5.46874997,10.40625 6.49999997,10.40625 C7.87499998,10.40625 8.57324217,11.4375 9.24999999,11.4375 L9.24999999,5.24999997 C9.24999999,4.5302734 9.89453124,3.87499996 10.625,3.87499996 C11.3662109,3.87499996 12,4.50878903 12,5.24999997 Z M17,18.5625 C17.5177735,18.5625 17.9375,18.9822266 17.9375,19.5 C17.9375,20.0177735 17.5177735,20.4375 17,20.4375 C16.4822266,20.4375 16.0625,20.0177735 16.0625,19.5 C16.0625,18.9822266 16.4822266,18.5625 17,18.5625 Z" id="path-1"></path>
    </defs>
    <g id="hand-point-up" stroke="none" stroke-width="1" fill="none" fill-rule="evenodd">
        <mask id="mask-2" fill="white">
            <use xlink:href="#path-1"></use>
        </mask>
        <g fill-rule="nonzero"></g>
        <g id="🎨-color" mask="url(#mask-2)" fill="#000000">
            <rect id="🎨-Color" x="0" y="0" width="24" height="24"></rect>
        </g>
    </g>
</svg>