<?xml version="1.0" encoding="UTF-8"?>
<svg width="24px" height="24px" viewBox="0 0 24 24" version="1.1" xmlns="http://www.w3.org/2000/svg" xmlns:xlink="http://www.w3.org/1999/xlink">
    <!-- Generator: Sketch 52.5 (67469) - http://www.bohemiancoding.com/sketch -->
    <title>hand-point-left</title>
    <desc>Created with Sketch.</desc>
    <defs>
        <path d="M1.99999995,10.625 C1.99999995,12.406875 3.47519527,13.875 5.24999997,13.875 L6.64246091,13.875 C6.70899092,14.17419 6.81305724,14.4637749 6.95218747,14.736875 C6.85425779,15.5964844 7.08902341,16.4938281 7.57660154,17.1896485 C7.62109373,19.2399219 9.03746092,20.75 11.4805078,20.75 L12.3125,20.75 C14.658711,20.75 16.160625,19.1875 17.28125,19.1875 L17.3858985,19.1875 C17.6103907,19.3809375 17.9146485,19.5 18.249961,19.5 L20.749961,19.5 C21.4403125,19.5 21.999961,18.9963282 21.999961,18.375 L21.999961,9.37499999 C21.999961,8.75367186 21.4403125,8.24999998 20.749961,8.24999998 L18.249961,8.24999998 C17.9146485,8.24999998 17.6103907,8.36906248 17.3858985,8.56249998 L17.28125,8.56249998 C17.0092188,8.56249998 16.7007031,8.32058592 16.1022266,7.63796873 L16.0971875,7.63218748 L16.0920703,7.62648435 C15.7461328,7.23832029 15.3844141,6.81238279 15.0822656,6.32753903 C14.3516406,5.14597653 13.8950781,3.24999996 12.125,3.24999996 C9.90124999,3.24999996 8.53124998,4.62835934 8.53124998,6.49999997 C8.53124998,6.8135156 8.56304686,7.10503904 8.61624998,7.37499998 L5.24999997,7.37499998 C3.48832027,7.37499998 1.99999995,8.8633203 1.99999995,10.625 Z M3.87499996,10.625 C3.87499996,9.89453124 4.5302734,9.24999999 5.24999997,9.24999999 L11.4375,9.24999999 C11.4375,8.57324217 10.40625,7.87499998 10.40625,6.49999997 C10.40625,5.46874997 11.2119141,5.12499997 12.125,5.12499997 C12.4685156,5.12499997 12.9236328,6.40281247 13.4892969,7.31640623 C13.84375,7.88574217 14.2519531,8.37988279 14.6923828,8.87402342 C15.3216406,9.5917578 16.0141016,10.305 17,10.4207422 L17,17.3251172 C15.3285156,17.4721485 14.0894922,18.875 12.3125,18.875 L11.4805078,18.875 C9.89753905,18.875 9.24910155,18.0079297 9.50390624,16.4794922 C8.93312498,16.1669531 8.5605078,15.1521875 8.99902342,14.3847656 C8.24257811,13.6728516 8.30421873,12.5730078 8.80566405,12 L5.24999997,12 C4.50878903,12 3.87499996,11.3662109 3.87499996,10.625 Z M19.5,16.0625 C20.0177735,16.0625 20.4375,16.4822266 20.4375,17 C20.4375,17.5177735 20.0177735,17.9375 19.5,17.9375 C18.9822266,17.9375 18.5625,17.5177735 18.5625,17 C18.5625,16.4822266 18.9822266,16.0625 19.5,16.0625 Z" id="path-1"></path>
    </defs>
    <g id="hand-point-left" stroke="none" stroke-width="1" fill="none" fill-rule="evenodd">
        <mask id="mask-2" fill="white">
            <use xlink:href="#path-1"></use>
        </mask>
        <g fill-rule="nonzero"></g>
        <g id="🎨-color" mask="url(#mask-2)" fill="#000000">
            <rect id="🎨-Color" x="0" y="0" width="24" height="24"></rect>
        </g>
    </g>
</svg>