<?xml version="1.0" encoding="UTF-8"?>
<svg width="24px" height="24px" viewBox="0 0 24 24" version="1.1" xmlns="http://www.w3.org/2000/svg" xmlns:xlink="http://www.w3.org/1999/xlink">
    <!-- Generator: Sketch 52.5 (67469) - http://www.bohemiancoding.com/sketch -->
    <title>hands-helping</title>
    <desc>Created with Sketch.</desc>
    <defs>
        <path d="M17.2574103,10.0031201 L12.5148206,10.0031201 L12.5148206,11.75039 C12.5148206,12.9890796 11.5070203,13.9968799 10.2683307,13.9968799 C9.02964117,13.9968799 8.02184085,12.9890796 8.02184085,11.75039 L8.02184085,7.95631823 L5.99687985,9.17316691 C5.39469575,9.53198127 5.02652103,10.1840874 5.02652103,10.8829953 L5.02652103,12.3588144 L2.53042117,13.800312 C2.05304207,14.074883 1.88767546,14.6864275 2.16536657,15.1638066 L4.66146642,19.4882996 C4.93603741,19.9656787 5.54758187,20.1279252 6.02496097,19.8533542 L9.25117003,17.9906397 L13.5132605,17.9906397 C14.6146646,17.9906397 15.5101404,17.0951638 15.5101404,15.9937598 L16.0093604,15.9937598 C16.5616225,15.9937598 17.0078003,15.5475819 17.0078003,14.9953198 L17.0078003,12.9984399 L17.2574103,12.9984399 C17.6723869,12.9984399 18.0062403,12.6645866 18.0062403,12.24961 L18.0062403,10.7519501 C18.0062403,10.3369735 17.6723869,10.0031201 17.2574103,10.0031201 Z M21.8658347,8.83619343 L19.3697348,4.51170043 C19.0951638,4.03432133 18.4836194,3.87207484 18.0062403,4.14664583 L14.7800312,6.00936034 L11.5912636,6.00936034 C11.2168487,6.00936034 10.8517941,6.11544459 10.5335413,6.31201245 L9.48829952,6.96411854 C9.19500779,7.14508578 9.0202808,7.46645864 9.0202808,7.80967237 L9.0202808,11.75039 C9.0202808,12.4399376 9.57878314,12.9984399 10.2683307,12.9984399 C10.9578783,12.9984399 11.5163807,12.4399376 11.5163807,11.75039 L11.5163807,9.00468017 L17.2574103,9.00468017 C18.2215289,9.00468017 19.0046802,9.7878315 19.0046802,10.7519501 L19.0046802,11.6411856 L21.5007801,10.199688 C21.9781592,9.92199687 22.1404057,9.31357253 21.8658347,8.83619343 Z" id="path-1"></path>
    </defs>
    <g id="hands-helping" stroke="none" stroke-width="1" fill="none" fill-rule="evenodd">
        <mask id="mask-2" fill="white">
            <use xlink:href="#path-1"></use>
        </mask>
        <g fill-rule="nonzero"></g>
        <g id="🎨-color" mask="url(#mask-2)" fill="#000000">
            <rect id="🎨-Color" x="0" y="0" width="24" height="24"></rect>
        </g>
    </g>
</svg>