<?xml version="1.0" encoding="UTF-8"?>
<svg width="24px" height="24px" viewBox="0 0 24 24" version="1.1" xmlns="http://www.w3.org/2000/svg" xmlns:xlink="http://www.w3.org/1999/xlink">
    <!-- Generator: Sketch 52.5 (67469) - http://www.bohemiancoding.com/sketch -->
    <title>hand-rock</title>
    <desc>Created with Sketch.</desc>
    <defs>
        <path d="M17.97125,5.08796872 C17.096211,3.76382808 15.3889063,3.43667964 14.1113672,4.16656246 C12.9600391,2.93730464 11.0197656,2.95199214 9.8795703,4.16570309 C8.03738279,3.11023433 5.63308591,4.36316402 5.55648434,6.54093747 C3.75179683,6.11746091 1.99999995,7.46878904 1.99999995,9.3214453 L1.99999995,11.5461719 C1.99999995,12.8251172 2.55781245,14.044375 3.53046871,14.89125 L7.3472656,18.2147266 C7.51335935,18.359336 7.46874998,18.4324219 7.46874998,19.5 C7.46874998,20.1903516 8.02839842,20.75 8.71874998,20.75 L18.5625,20.75 C19.2528516,20.75 19.8125,20.1903516 19.8125,19.5 C19.8125,18.5815235 19.7728516,18.2990235 19.9680469,17.8449219 L21.6412891,13.9521094 C21.879336,13.3983203 22.0000001,12.8125781 22.0000001,12.2111719 L22.0000001,7.74074217 C22.0000001,5.67671872 19.8783594,4.27738277 17.97125,5.08796872 Z M20.125,12.2111719 C20.1252598,12.5552641 20.0550409,12.8957635 19.9186719,13.2116797 L18.2454297,17.1044532 C18.0411328,17.5798828 17.9375,18.0825782 17.9375,18.5985938 L17.9375,18.875 L9.34374999,18.875 L9.34374999,18.4732032 C9.34374999,17.83375 9.06484374,17.2241016 8.57851561,16.8006641 L4.76171871,13.4772266 C4.19820309,12.9865234 3.87499996,12.2826563 3.87499996,11.5461328 L3.87499996,9.32140624 C3.87499996,8.02421873 5.90624997,8.01136717 5.90624997,9.34785155 L5.90624997,10.9583203 C5.9062455,11.1390784 5.98449927,11.3109859 6.12082028,11.4296875 L6.39425778,11.6677734 C6.5789962,11.8286345 6.84067634,11.8667458 7.0636231,11.7652603 C7.28656985,11.6637748 7.42967822,11.4414036 7.42968748,11.1964453 L7.42968748,6.64285154 C7.42968748,5.34999997 9.46093749,5.32546872 9.46093749,6.66929685 L9.46093749,7.71425779 C9.46093749,8.05941404 9.74078124,8.33925779 10.0859375,8.33925779 L10.359375,8.33925779 C10.7045312,8.33925779 10.984375,8.05941404 10.984375,7.71425779 L10.984375,6.10710935 C10.984375,4.81281246 13.015625,4.79167965 13.015625,6.13355466 L13.015625,7.71425779 C13.015625,8.05941404 13.2954297,8.33925779 13.640625,8.33925779 L13.9140625,8.33925779 C14.2592578,8.33925779 14.5390625,8.05941404 14.5390625,7.71425779 L14.5390625,6.64281247 C14.5390625,5.35257809 16.5703125,5.32328122 16.5703125,6.66925779 L16.5703125,7.71421873 C16.5703125,8.05937498 16.8501172,8.33921873 17.1953125,8.33921873 L17.46875,8.33921873 C17.8139453,8.33921873 18.09375,8.05937498 18.09375,7.71421873 C18.09375,6.4194531 20.125,6.40121091 20.125,7.74066404 L20.125,12.2111719 Z" id="path-1"></path>
    </defs>
    <g id="hand-rock" stroke="none" stroke-width="1" fill="none" fill-rule="evenodd">
        <mask id="mask-2" fill="white">
            <use xlink:href="#path-1"></use>
        </mask>
        <g fill-rule="nonzero"></g>
        <g id="🎨-color" mask="url(#mask-2)" fill="#000000">
            <rect id="🎨-Color" x="0" y="0" width="24" height="24"></rect>
        </g>
    </g>
</svg>