<?xml version="1.0" encoding="UTF-8"?>
<svg width="24px" height="24px" viewBox="0 0 24 24" version="1.1" xmlns="http://www.w3.org/2000/svg" xmlns:xlink="http://www.w3.org/1999/xlink">
    <!-- Generator: Sketch 52.5 (67469) - http://www.bohemiancoding.com/sketch -->
    <title>hands</title>
    <desc>Created with Sketch.</desc>
    <defs>
        <path d="M8.39999998,11.2 C8.06874998,10.759375 7.44062498,10.66875 6.99999997,11 C6.55937497,11.33125 6.46874997,11.959375 6.79999997,12.4 L7.99062498,13.9875 C8.14062498,14.1875 8.11874998,14.465625 7.94374998,14.640625 L7.54374998,15.040625 C7.33437498,15.25 6.99374997,15.234375 6.80624997,15.00625 L3.99999996,11.6375 L3.99999996,6.99999998 C3.99999996,6.44687497 3.55312496,5.99999997 2.99999995,5.99999997 C2.44687495,5.99999997 1.99999995,6.44687497 1.99999995,6.99999998 L1.99999995,13.825 C1.99999995,14.165625 2.11562495,14.496875 2.32812495,14.7625 L5.58124997,18.959375 C5.73749997,19.1625 5.84374997,19.39375 5.90624997,19.6375 C5.96249997,19.853125 6.15937497,20 6.38437497,20 L10.5,20 C10.775,20 11,19.775 11,19.5 L11,16 C11,15.134375 10.71875,14.29375 10.2,13.6 L8.39999998,11.2 Z M21,5.99999997 C20.446875,5.99999997 20,6.44687497 20,6.99999998 L20,11.6375 L17.19375,15.00625 C17.00625,15.23125 16.6625,15.246875 16.45625,15.040625 L16.05625,14.640625 C15.88125,14.465625 15.859375,14.1875 16.009375,13.9875 L17.2,12.4 C17.53125,11.959375 17.440625,11.33125 17,11 C16.559375,10.66875 15.93125,10.759375 15.6,11.2 L13.8,13.6 C13.28125,14.29375 13,15.134375 13,16 L13,19.5 C13,19.775 13.225,20 13.5,20 L17.615625,20 C17.8375,20 18.0375,19.853125 18.09375,19.6375 C18.15625,19.39375 18.2625,19.1625 18.41875,18.959375 L21.671875,14.7625 C21.884375,14.496875 22.0000001,14.165625 22.0000001,13.825 L22.0000001,6.99999998 C22.0000001,6.44687497 21.553125,5.99999997 21,5.99999997 Z" id="path-1"></path>
    </defs>
    <g id="hands" stroke="none" stroke-width="1" fill="none" fill-rule="evenodd">
        <mask id="mask-2" fill="white">
            <use xlink:href="#path-1"></use>
        </mask>
        <g fill-rule="nonzero"></g>
        <g id="🎨-color" mask="url(#mask-2)" fill="#000000">
            <rect id="🎨-Color" x="0" y="0" width="24" height="24"></rect>
        </g>
    </g>
</svg>