<?xml version="1.0" encoding="UTF-8"?>
<svg width="24px" height="24px" viewBox="0 0 24 24" version="1.1" xmlns="http://www.w3.org/2000/svg" xmlns:xlink="http://www.w3.org/1999/xlink">
    <!-- Generator: Sketch 52.5 (67469) - http://www.bohemiancoding.com/sketch -->
    <title>hand-holding-usd</title>
    <desc>Created with Sketch.</desc>
    <defs>
        <path d="M11.4705882,7.89338233 L13.3088235,8.41911763 C13.4411765,8.45588234 13.5330882,8.58088234 13.5330882,8.71691175 C13.5330882,8.8860294 13.3933824,9.02573528 13.2242647,9.02573528 L12.0183824,9.02573528 C11.8860294,9.02573528 11.7573529,8.99632351 11.6397059,8.94485293 C11.4632353,8.86397057 11.2573529,8.88235293 11.1213235,9.01838234 L10.4779412,9.66176469 C10.2830882,9.85661764 10.3051471,10.1875 10.5330882,10.3382353 C10.8823529,10.5698529 11.2794118,10.7095588 11.7022059,10.7610294 L11.7022059,11.4117647 C11.7022059,11.7352941 11.9669118,12 12.2904412,12 L12.8786765,12 C13.2022059,12 13.4669118,11.7352941 13.4669118,11.4117647 L13.4669118,10.7647059 C14.5808824,10.6323529 15.4264706,9.62499999 15.2794118,8.44852939 C15.1727941,7.60294115 14.5183824,6.93014703 13.7022059,6.69485291 L11.8639706,6.16911762 C11.7316176,6.13235291 11.6397059,6.00735291 11.6397059,5.8713235 C11.6397059,5.70220585 11.7794118,5.56249997 11.9485294,5.56249997 L13.1544118,5.56249997 C13.2867647,5.56249997 13.4154412,5.59191173 13.5330882,5.64338232 C13.7095588,5.72426467 13.9154412,5.70588232 14.0514706,5.56985291 L14.694853,4.92647055 C14.8897059,4.73161761 14.8676471,4.40073526 14.6397059,4.24999996 C14.2904412,4.01838231 13.8933824,3.87867643 13.4705882,3.82720584 L13.4705882,3.17647054 C13.4705882,2.85294113 13.2058824,2.58823525 12.8823529,2.58823525 L12.2941176,2.58823525 C11.9705882,2.58823525 11.7058824,2.85294113 11.7058824,3.17647054 L11.7058824,3.82352937 C10.5919118,3.95588231 9.74632352,4.96323526 9.89338234,6.13970585 C9.99999999,6.98529409 10.6544118,7.65808821 11.4705882,7.89338233 Z M21.6286765,14.6507353 C21.2169118,14.257353 20.5808824,14.2830882 20.1470589,14.6507353 L16.9411765,17.3676471 C16.5477941,17.7022059 16.0588235,17.882353 15.5514706,17.882353 L11.4448529,17.882353 C11.1397059,17.882353 10.8897059,17.6176471 10.8897059,17.2941177 C10.8897059,16.9705883 11.1397059,16.7058824 11.4448529,16.7058824 L14.1617647,16.7058824 C14.7169118,16.7058824 15.2279412,16.3051471 15.3161765,15.7279412 C15.4301471,14.9926471 14.8933824,14.3529412 14.2205882,14.3529412 L8.66544116,14.3529412 C7.72794116,14.3529412 6.81985292,14.694853 6.09558821,15.319853 L4.48161761,16.7058824 L2.55514701,16.7058824 C2.24999995,16.7058824 1.99999995,16.9705883 1.99999995,17.2941177 L1.99999995,20.8235295 C1.99999995,21.1470589 2.24999995,21.4117648 2.55514701,21.4117648 L14.9411765,21.4117648 C15.444853,21.4117648 15.9338235,21.2316177 16.3308824,20.8970589 L21.5808824,16.4485294 C22.1102942,16.0036765 22.1507353,15.1507353 21.6286765,14.6507353 Z" id="path-1"></path>
    </defs>
    <g id="hand-holding-usd" stroke="none" stroke-width="1" fill="none" fill-rule="evenodd">
        <mask id="mask-2" fill="white">
            <use xlink:href="#path-1"></use>
        </mask>
        <g fill-rule="nonzero"></g>
        <g id="🎨-color" mask="url(#mask-2)" fill="#000000">
            <rect id="🎨-Color" x="0" y="0" width="24" height="24"></rect>
        </g>
    </g>
</svg>