<?xml version="1.0" encoding="UTF-8"?>
<svg width="24px" height="24px" viewBox="0 0 24 24" version="1.1" xmlns="http://www.w3.org/2000/svg" xmlns:xlink="http://www.w3.org/1999/xlink">
    <!-- Generator: Sketch 52.5 (67469) - http://www.bohemiancoding.com/sketch -->
    <title>hand-holding</title>
    <desc>Created with Sketch.</desc>
    <defs>
        <path d="M21.5944541,14.4991335 C21.185442,14.1282496 20.5476604,14.152513 20.117851,14.4991335 L16.915078,17.0606586 C16.5233969,17.3760832 16.0346621,17.5459272 15.5285962,17.5459272 L11.4280763,17.5459272 C11.1230503,17.5459272 10.8734835,17.2963605 10.8734835,16.9913345 C10.8734835,16.6863085 11.1230503,16.4367418 11.4280763,16.4367418 L14.1421144,16.4367418 C14.6932409,16.4367418 15.2062392,16.0589255 15.2963605,15.5147314 C15.4107453,14.8214905 14.8769498,14.2183709 14.2010399,14.2183709 L8.65511263,14.2183709 C7.71923741,14.2183709 6.81455803,14.5407279 6.08665508,15.1299827 L4.47486998,16.4367418 L2.55459267,16.4367418 C2.24956668,16.4367418 1.99999995,16.6863085 1.99999995,16.9913345 L1.99999995,20.3188909 C1.99999995,20.6239169 2.24956668,20.8734836 2.55459267,20.8734836 L14.9220104,20.8734836 C15.4246101,20.8734836 15.9133449,20.7036396 16.3084922,20.3882149 L21.5493935,16.1941075 C22.0762565,15.7746967 22.117851,14.9705373 21.5944541,14.4991335 Z" id="path-1"></path>
    </defs>
    <g id="hand-holding" stroke="none" stroke-width="1" fill="none" fill-rule="evenodd">
        <mask id="mask-2" fill="white">
            <use xlink:href="#path-1"></use>
        </mask>
        <g></g>
        <g id="🎨-color" mask="url(#mask-2)" fill="#000000">
            <rect id="🎨-Color" x="0" y="0" width="24" height="24"></rect>
        </g>
    </g>
</svg>