<?xml version="1.0" encoding="UTF-8"?>
<svg width="24px" height="24px" viewBox="0 0 24 24" version="1.1" xmlns="http://www.w3.org/2000/svg" xmlns:xlink="http://www.w3.org/1999/xlink">
    <!-- Generator: Sketch 52.5 (67469) - http://www.bohemiancoding.com/sketch -->
    <title>hand-scissors</title>
    <desc>Created with Sketch.</desc>
    <defs>
        <path d="M12,20.75 L14.734375,20.7494922 C14.9341406,20.7494922 15.1340235,20.7267188 15.3282422,20.6819532 L19.9766407,19.610586 C21.1625,19.3373047 22.0000001,18.2898438 22.0000001,17.0889453 L22.0000001,9.05371092 C22.0000001,8.12226561 21.4910157,7.25874998 20.6716797,6.80019529 L16.8435938,4.65749996 C15.4994922,3.90511715 14.2161328,4.42999996 13.2413281,5.62363278 L7.5800781,3.44562496 C6.10011716,2.87613277 4.43117184,3.5912109 3.84406246,5.05503903 C3.25429683,6.52542966 3.98605465,8.19449217 5.48242184,8.77035155 L8.56249998,9.49999999 L4.89062496,9.14292967 C3.29671871,9.14292967 1.99999995,10.4246094 1.99999995,11.9999609 C1.99999995,13.5753516 3.29671871,14.8570313 4.89062496,14.8570313 L8.31386717,14.8570313 C8.17031248,15.8822266 8.65339842,16.8608203 9.49906249,17.3963282 C8.97878905,19.0600391 10.2439062,20.75 12,20.75 Z M12,18.8744922 C11.0171875,18.8744922 11.01875,17.4460938 12,17.4460938 C12.3451953,17.4460938 12.625,17.1662891 12.625,16.8210938 L12.625,16.5532813 C12.625,16.208086 12.3451953,15.9282813 12,15.9282813 L10.90625,15.9282813 C9.92347655,15.9282813 9.92492186,14.4998828 10.90625,14.4998828 L12,14.4998828 C12.3451953,14.4998828 12.625,14.2200781 12.625,13.8748828 L12.625,13.6070703 C12.625,13.261875 12.3451953,12.9820703 12,12.9820703 L4.89062496,12.9820703 C3.54570308,12.9820703 3.54785152,11.0179687 4.89062496,11.0179687 L12,11.0179687 C12.3451953,11.0179687 12.625,10.7381641 12.625,10.3929687 L12.625,9.93859374 C12.625006,9.68001685 12.4657802,9.44813485 12.2244531,9.35527342 L6.15582028,7.01992185 C4.92332028,6.5457031 5.63113278,4.70417965 6.90667966,5.19503903 L13.4125,7.69859373 C13.6644929,7.7955543 13.9502602,7.71974458 14.1210547,7.51062498 L14.971211,6.46972653 C15.1985547,6.1913281 15.6098047,6.11566403 15.9277735,6.29363278 L19.7558985,8.43636717 C19.9835547,8.56382811 20.125,8.80035155 20.125,9.05374999 L20.125,17.0889453 C20.125,17.420625 19.8908594,17.7062891 19.555625,17.7835547 L14.9071485,18.8549219 C14.8504807,18.8679507 14.7925212,18.8745289 14.734375,18.8745313 L12,18.8745313 L12,18.8744922 Z" id="path-1"></path>
    </defs>
    <g id="hand-scissors" stroke="none" stroke-width="1" fill="none" fill-rule="evenodd">
        <mask id="mask-2" fill="white">
            <use xlink:href="#path-1"></use>
        </mask>
        <g fill-rule="nonzero"></g>
        <g id="🎨-color" mask="url(#mask-2)" fill="#000000">
            <rect id="🎨-Color" x="0" y="0" width="24" height="24"></rect>
        </g>
    </g>
</svg>