<?xml version="1.0" encoding="UTF-8"?>
<svg width="24px" height="24px" viewBox="0 0 24 24" version="1.1" xmlns="http://www.w3.org/2000/svg" xmlns:xlink="http://www.w3.org/1999/xlink">
    <!-- Generator: Sketch 52.5 (67469) - http://www.bohemiancoding.com/sketch -->
    <title>hashtag</title>
    <desc>Created with Sketch.</desc>
    <defs>
        <path d="M20.4635547,9.1136328 L20.7425782,7.55113279 C20.7938672,7.2638281 20.5729688,6.99999997 20.2811329,6.99999997 L17.3588672,6.99999997 L17.9300782,3.80113277 C17.9813672,3.51382808 17.7604688,3.24999996 17.4686328,3.24999996 L15.8814453,3.24999996 C15.6543448,3.25000408 15.4599129,3.41280147 15.42,3.63636715 L14.819336,6.99999997 L10.9664062,6.99999997 L11.5376172,3.80113277 C11.5889453,3.51382808 11.3680469,3.24999996 11.0761719,3.24999996 L9.48898436,3.24999996 C9.26188383,3.25000408 9.06745197,3.41280147 9.02753905,3.63636715 L8.42687498,6.99999997 L5.33718747,6.99999997 C5.11008693,7.0000041 4.91565507,7.16280149 4.87574215,7.38636716 L4.59671871,8.94886717 C4.54542965,9.23617186 4.76632809,9.49999999 5.05816403,9.49999999 L7.98042967,9.49999999 L7.0875781,14.5 L3.99789058,14.5 C3.77079005,14.5000041 3.57635819,14.6628015 3.53644527,14.8863672 L3.25742183,16.4488672 C3.20613277,16.7361719 3.42703121,17 3.71886715,17 L6.64113279,17 L6.06992185,20.1988672 C6.01863278,20.4861719 6.23953122,20.75 6.53136716,20.75 L8.11855467,20.75 C8.3456552,20.7499959 8.54008706,20.5871985 8.57999998,20.3636329 L9.18070311,17 L13.0335938,17 L12.4623828,20.1988672 C12.4110547,20.4861719 12.6319531,20.75 12.9238281,20.75 L14.5110156,20.75 C14.7381162,20.7499959 14.932548,20.5871985 14.972461,20.3636329 L15.573125,17 L18.6628125,17 C18.8899131,16.9999959 19.0843449,16.8371985 19.1242578,16.6136328 L19.4032813,15.0511328 C19.4545703,14.7638281 19.2336719,14.5 18.941836,14.5 L16.0195703,14.5 L16.9124219,9.49999999 L20.0021094,9.49999999 C20.2292099,9.49999586 20.4236418,9.33719847 20.4635547,9.1136328 Z M13.4800391,14.5 L9.62714843,14.5 L10.52,9.49999999 L14.3728906,9.49999999 L13.4800391,14.5 Z" id="path-1"></path>
    </defs>
    <g id="hashtag" stroke="none" stroke-width="1" fill="none" fill-rule="evenodd">
        <mask id="mask-2" fill="white">
            <use xlink:href="#path-1"></use>
        </mask>
        <g fill-rule="nonzero"></g>
        <g id="🎨-color" mask="url(#mask-2)" fill="#000000">
            <rect id="🎨-Color" x="0" y="0" width="24" height="24"></rect>
        </g>
    </g>
</svg>