<?xml version="1.0" encoding="UTF-8"?>
<svg width="24px" height="24px" viewBox="0 0 24 24" version="1.1" xmlns="http://www.w3.org/2000/svg" xmlns:xlink="http://www.w3.org/1999/xlink">
    <!-- Generator: Sketch 52.5 (67469) - http://www.bohemiancoding.com/sketch -->
    <title>hat-wizard</title>
    <desc>Created with Sketch.</desc>
    <defs>
        <path d="M21.375,19.5 L2.62499995,19.5 C2.27968745,19.5 1.99999995,19.7796875 1.99999995,20.125 L1.99999995,21.375 C1.99999995,21.7203125 2.27968745,22 2.62499995,22 L21.375,22 C21.7203125,22 22.0000001,21.7203125 22.0000001,21.375 L22.0000001,20.125 C22.0000001,19.7796875 21.7203125,19.5 21.375,19.5 Z M9.49999999,17 L6.99999997,15.75 L9.49999999,14.5 L10.75,12 L12,14.5 L14.5,15.75 L12,17 L11.375,18.25 L19.5,18.25 L16.1246094,10.3738281 C15.8832559,9.81107702 15.8569833,9.17928399 16.0507813,8.59843748 L18.25,1.99999995 L10.9226562,6.18710935 C9.9983116,6.71530667 9.2667087,7.52477752 8.83437498,8.49765623 L4.49999996,18.25 L10.125,18.25 L9.49999999,17 Z M12,8.24999998 L12.625,6.99999997 L13.25,8.24999998 L14.5,8.87499998 L13.25,9.49999999 L12.625,10.75 L12,9.49999999 L10.75,8.87499998 L12,8.24999998 Z" id="path-1"></path>
    </defs>
    <g id="hat-wizard" stroke="none" stroke-width="1" fill="none" fill-rule="evenodd">
        <mask id="mask-2" fill="white">
            <use xlink:href="#path-1"></use>
        </mask>
        <g fill-rule="nonzero"></g>
        <g id="🎨-color" mask="url(#mask-2)" fill="#000000">
            <rect id="🎨-Color" x="0" y="0" width="24" height="24"></rect>
        </g>
    </g>
</svg>