<?xml version="1.0" encoding="UTF-8"?>
<svg width="24px" height="24px" viewBox="0 0 24 24" version="1.1" xmlns="http://www.w3.org/2000/svg" xmlns:xlink="http://www.w3.org/1999/xlink">
    <!-- Generator: Sketch 52.5 (67469) - http://www.bohemiancoding.com/sketch -->
    <title>haykal</title>
    <desc>Created with Sketch.</desc>
    <defs>
        <path d="M21.3482491,9.91906614 L17.0680934,9.31828792 L18.6953308,5.25836573 C18.9548638,4.6108949 18.2439689,4.00622564 17.6607004,4.37782097 L14.0015564,6.70817118 L12.6750973,2.53774314 C12.5696498,2.20505832 12.2848249,2.03891046 12,2.03891046 C11.7151751,2.03891046 11.4303502,2.20505832 11.3249027,2.53774314 L9.99844357,6.70856028 L6.33929958,4.37821008 C5.7560311,4.00661475 5.04552526,4.61128401 5.30466923,5.25875483 L6.93190659,9.31867703 L2.65175093,9.91906614 C1.96926065,10.014786 1.80817116,10.9412451 2.41712057,11.2680934 L6.23657585,13.3171206 L3.33852136,16.5677043 C2.91361863,17.044358 3.27159529,17.7712063 3.85564198,17.7712063 C3.90661475,17.7712063 3.95953303,17.7657588 4.01400774,17.7536965 L8.23852138,16.8334631 L8.0785992,21.2128405 C8.06186768,21.6661479 8.42373539,21.9607004 8.79494162,21.9607004 C8.99533072,21.9607004 9.19922178,21.8747082 9.3474708,21.681323 L12.0003891,18.222179 L14.6533074,21.681323 C14.8015564,21.8747082 15.0050584,21.9607004 15.2058366,21.9607004 C15.5770428,21.9607004 15.9389105,21.6661479 15.922179,21.2128405 L15.7622568,16.8334631 L19.9867705,17.7536965 C20.6622569,17.9 21.1233463,17.0844358 20.6618677,16.5673152 L17.7638133,13.3167315 L21.5832685,11.2677043 C22.1918288,10.9412451 22.0307393,10.014786 21.3482491,9.91906614 Z M15.2105059,14.166537 L13.1914397,13.7268483 L13.2680934,15.8198444 L12,14.166537 L10.7319066,15.8198444 L10.8081712,13.7268483 L8.78910504,14.166537 L10.1743191,12.6128405 L8.34863811,11.633463 L10.3941634,11.3463035 L9.6163424,9.40583656 L11.3653696,10.5194552 L12,8.52607002 L12.6338521,10.5194552 L14.3828794,9.40583656 L13.6050584,11.3463035 L15.6505837,11.633463 L13.8249027,12.6128405 L15.2105059,14.166537 Z" id="path-1"></path>
    </defs>
    <g id="haykal" stroke="none" stroke-width="1" fill="none" fill-rule="evenodd">
        <mask id="mask-2" fill="white">
            <use xlink:href="#path-1"></use>
        </mask>
        <g fill-rule="nonzero"></g>
        <g id="🎨-color" mask="url(#mask-2)" fill="#000000">
            <rect id="🎨-Color" x="0" y="0" width="24" height="24"></rect>
        </g>
    </g>
</svg>