<?xml version="1.0" encoding="UTF-8"?>
<svg width="24px" height="24px" viewBox="0 0 24 24" version="1.1" xmlns="http://www.w3.org/2000/svg" xmlns:xlink="http://www.w3.org/1999/xlink">
    <!-- Generator: Sketch 52.5 (67469) - http://www.bohemiancoding.com/sketch -->
    <title>hdd</title>
    <desc>Created with Sketch.</desc>
    <defs>
        <path d="M21.7014931,11.293125 L18.052882,6.04822914 C17.7413184,5.60035422 17.2302732,5.3333278 16.6846875,5.3333333 L7.31531248,5.3333333 C6.76972675,5.3333278 6.25868157,5.60035422 5.94711803,6.04822914 L2.2985069,11.293125 C2.10416927,11.5724795 2.00000034,11.9046277 1.99999995,12.2449306 L1.99999995,17 C1.99999995,17.9204861 2.74618051,18.6666667 3.66666662,18.6666667 L20.3333334,18.6666667 C21.2538195,18.6666667 22.0000001,17.9204861 22.0000001,17 L22.0000001,12.2449306 C22.0000001,11.9046181 21.8958334,11.5725 21.7014931,11.293125 Z M7.31531248,6.99999997 L16.6846875,6.99999997 L19.39,10.8888889 L4.60999996,10.8888889 L7.31531248,6.99999997 Z M20.3333334,17 L3.66666662,17 L3.66666662,12.5555556 L20.3333334,12.5555556 L20.3333334,17 Z M19.2222223,14.7777778 C19.2222223,15.3914236 18.724757,15.8888889 18.1111111,15.8888889 C17.4974653,15.8888889 17,15.3914236 17,14.7777778 C17,14.164132 17.4974653,13.6666667 18.1111111,13.6666667 C18.724757,13.6666667 19.2222223,14.164132 19.2222223,14.7777778 Z M15.8888889,14.7777778 C15.8888889,15.3914236 15.3914236,15.8888889 14.7777778,15.8888889 C14.164132,15.8888889 13.6666667,15.3914236 13.6666667,14.7777778 C13.6666667,14.164132 14.164132,13.6666667 14.7777778,13.6666667 C15.3914236,13.6666667 15.8888889,14.164132 15.8888889,14.7777778 Z" id="path-1"></path>
    </defs>
    <g id="hdd" stroke="none" stroke-width="1" fill="none" fill-rule="evenodd">
        <mask id="mask-2" fill="white">
            <use xlink:href="#path-1"></use>
        </mask>
        <g fill-rule="nonzero"></g>
        <g id="🎨-color" mask="url(#mask-2)" fill="#000000">
            <rect id="🎨-Color" x="0" y="0" width="24" height="24"></rect>
        </g>
    </g>
</svg>