<?xml version="1.0" encoding="UTF-8"?>
<svg width="24px" height="24px" viewBox="0 0 24 24" version="1.1" xmlns="http://www.w3.org/2000/svg" xmlns:xlink="http://www.w3.org/1999/xlink">
    <!-- Generator: Sketch 52.5 (67469) - http://www.bohemiancoding.com/sketch -->
    <title>headphones</title>
    <desc>Created with Sketch.</desc>
    <defs>
        <path d="M12,3.24999996 C6.47343747,3.24999996 1.99999995,7.72249998 1.99999995,13.25 L1.99999995,15.125 C1.99999385,15.5984683 2.26749483,16.031303 2.69097652,16.2430469 L3.25281246,16.5239453 C3.33136714,18.871211 5.25863278,20.75 7.62499998,20.75 L8.56249998,20.75 C9.08027342,20.75 9.49999999,20.3302735 9.49999999,19.8125 L9.49999999,12.9375 C9.49999999,12.4197266 9.08027342,12 8.56249998,12 L7.62499998,12 C6.4007031,12 5.29410153,12.5030859 4.49999996,13.3135547 L4.49999996,13.25 C4.49999996,9.11449217 7.86449217,5.74999997 12,5.74999997 C16.1355078,5.74999997 19.5,9.11449217 19.5,13.25 L19.5,13.3135547 C18.7058985,12.5030859 17.5992969,12 16.375,12 L15.4375,12 C14.9197266,12 14.5,12.4197266 14.5,12.9375 L14.5,19.8125 C14.5,20.3302735 14.9197266,20.75 15.4375,20.75 L16.375,20.75 C18.7413672,20.75 20.6686329,18.8711719 20.7471875,16.5239453 L21.3089844,16.2430469 C21.7324813,16.0313139 21.9999988,15.598477 22.0000001,15.125 L22.0000001,13.25 C22.0000001,7.72347654 17.5275,3.24999996 12,3.24999996 Z" id="path-1"></path>
    </defs>
    <g id="headphones" stroke="none" stroke-width="1" fill="none" fill-rule="evenodd">
        <mask id="mask-2" fill="white">
            <use xlink:href="#path-1"></use>
        </mask>
        <g></g>
        <g id="🎨-color" mask="url(#mask-2)" fill="#000000">
            <rect id="🎨-Color" x="0" y="0" width="24" height="24"></rect>
        </g>
    </g>
</svg>