<?xml version="1.0" encoding="UTF-8"?>
<svg width="24px" height="24px" viewBox="0 0 24 24" version="1.1" xmlns="http://www.w3.org/2000/svg" xmlns:xlink="http://www.w3.org/1999/xlink">
    <!-- Generator: Sketch 52.5 (67469) - http://www.bohemiancoding.com/sketch -->
    <title>headphones-alt</title>
    <desc>Created with Sketch.</desc>
    <defs>
        <path d="M8.24999998,13.25 L7.62499998,13.25 C6.2441406,13.25 5.12499997,14.3710938 5.12499997,15.7546875 L5.12499997,18.2453125 C5.12499997,19.6285157 6.2441406,20.75 7.62499998,20.75 L8.24999998,20.75 C8.94023436,20.75 9.49999999,20.1890625 9.49999999,19.4976563 L9.49999999,14.5023438 C9.49999999,13.8105469 8.94023436,13.25 8.24999998,13.25 Z M16.375,13.25 L15.75,13.25 C15.0597656,13.25 14.5,13.8105469 14.5,14.5023438 L14.5,19.4976563 C14.5,20.1890625 15.0597656,20.75 15.75,20.75 L16.375,20.75 C17.7558594,20.75 18.875,19.6285157 18.875,18.2453125 L18.875,15.7546875 C18.875,14.3714844 17.7558594,13.25 16.375,13.25 Z M12,3.24999996 C6.41054685,3.24999996 2.17851558,7.9035156 1.99999995,13.25 L1.99999995,17.625 C1.99999995,17.9703125 2.27968745,18.25 2.62499995,18.25 L3.24999996,18.25 C3.59531246,18.25 3.87499996,17.9703125 3.87499996,17.625 L3.87499996,13.25 C3.87499996,8.77070311 7.5207031,5.13281247 12,5.13203122 C16.4792969,5.13281247 20.125,8.77070311 20.125,13.25 L20.125,17.625 C20.125,17.9703125 20.4046875,18.25 20.75,18.25 L21.375,18.25 C21.7203125,18.25 22.0000001,17.9703125 22.0000001,17.625 L22.0000001,13.25 C21.8214844,7.9035156 17.5894532,3.24999996 12,3.24999996 Z" id="path-1"></path>
    </defs>
    <g id="headphones-alt" stroke="none" stroke-width="1" fill="none" fill-rule="evenodd">
        <mask id="mask-2" fill="white">
            <use xlink:href="#path-1"></use>
        </mask>
        <g fill-rule="nonzero"></g>
        <g id="🎨-color" mask="url(#mask-2)" fill="#000000">
            <rect id="🎨-Color" x="0" y="0" width="24" height="24"></rect>
        </g>
    </g>
</svg>