<?xml version="1.0" encoding="UTF-8"?>
<svg width="24px" height="24px" viewBox="0 0 24 24" version="1.1" xmlns="http://www.w3.org/2000/svg" xmlns:xlink="http://www.w3.org/1999/xlink">
    <!-- Generator: Sketch 52.5 (67469) - http://www.bohemiancoding.com/sketch -->
    <title>heading</title>
    <desc>Created with Sketch.</desc>
    <defs>
        <path d="M21.375,5.12499997 L21.375,3.87499996 C21.375,3.52980465 21.0951954,3.24999996 20.75,3.24999996 L14.5,3.24999996 C14.1548047,3.24999996 13.875,3.52980465 13.875,3.87499996 L13.875,5.12499997 C13.875,5.47019528 14.1548047,5.74999997 14.5,5.74999997 L15.9695703,5.74999997 L15.9695703,10.75 L8.03042967,10.75 L8.03042967,5.74999997 L9.49999999,5.74999997 C9.8451953,5.74999997 10.125,5.47019528 10.125,5.12499997 L10.125,3.87499996 C10.125,3.52980465 9.8451953,3.24999996 9.49999999,3.24999996 L3.24999996,3.24999996 C2.90480464,3.24999996 2.62499995,3.52980465 2.62499995,3.87499996 L2.62499995,5.12499997 C2.62499995,5.47019528 2.90480464,5.74999997 3.24999996,5.74999997 L4.70605465,5.74999997 L4.70605465,18.25 L3.24999996,18.25 C2.90480464,18.25 2.62499995,18.5298047 2.62499995,18.875 L2.62499995,20.125 C2.62499995,20.4701954 2.90480464,20.75 3.24999996,20.75 L9.49999999,20.75 C9.8451953,20.75 10.125,20.4701954 10.125,20.125 L10.125,18.875 C10.125,18.5298047 9.8451953,18.25 9.49999999,18.25 L8.03042967,18.25 L8.03042967,13.25 L15.9695313,13.25 L15.9695313,18.25 L14.5,18.25 C14.1548047,18.25 13.875,18.5298047 13.875,18.875 L13.875,20.125 C13.875,20.4701954 14.1548047,20.75 14.5,20.75 L20.75,20.75 C21.0951954,20.75 21.375,20.4701954 21.375,20.125 L21.375,18.875 C21.375,18.5298047 21.0951954,18.25 20.75,18.25 L19.2939453,18.25 L19.2939453,5.74999997 L20.75,5.74999997 C21.0951954,5.74999997 21.375,5.47019528 21.375,5.12499997 Z" id="path-1"></path>
    </defs>
    <g id="heading" stroke="none" stroke-width="1" fill="none" fill-rule="evenodd">
        <mask id="mask-2" fill="white">
            <use xlink:href="#path-1"></use>
        </mask>
        <g></g>
        <g id="🎨-color" mask="url(#mask-2)" fill="#000000">
            <rect id="🎨-Color" x="0" y="0" width="24" height="24"></rect>
        </g>
    </g>
</svg>