<?xml version="1.0" encoding="UTF-8"?>
<svg width="24px" height="24px" viewBox="0 0 24 24" version="1.1" xmlns="http://www.w3.org/2000/svg" xmlns:xlink="http://www.w3.org/1999/xlink">
    <!-- Generator: Sketch 52.5 (67469) - http://www.bohemiancoding.com/sketch -->
    <title>headset</title>
    <desc>Created with Sketch.</desc>
    <defs>
        <path d="M9.49999999,10.125 C9.49999999,9.43476561 8.94023436,8.87499998 8.24999998,8.87499998 L7.62499998,8.87499998 C6.2441406,8.87499998 5.12499997,9.99414061 5.12499997,11.375 L5.12499997,13.25 C5.12499997,14.6308594 6.2441406,15.75 7.62499998,15.75 L8.24999998,15.75 C8.94023436,15.75 9.49999999,15.1902344 9.49999999,14.5 L9.49999999,10.125 Z M16.375,15.75 C17.7558594,15.75 18.875,14.6308594 18.875,13.25 L18.875,11.375 C18.875,9.99414061 17.7558594,8.87499998 16.375,8.87499998 L15.75,8.87499998 C15.0597656,8.87499998 14.5,9.43476561 14.5,10.125 L14.5,14.5 C14.5,15.1902344 15.0597656,15.75 15.75,15.75 L16.375,15.75 Z M12,1.99999995 C6.42109372,1.99999995 2.1789062,6.64179685 1.99999995,12 L1.99999995,12.625 C1.99999995,12.9703125 2.27968745,13.25 2.62499995,13.25 L3.24999996,13.25 C3.59531246,13.25 3.87499996,12.9703125 3.87499996,12.625 L3.87499996,12 C3.87499996,7.51992185 7.51992185,3.87499996 12,3.87499996 C16.4800781,3.87499996 20.125,7.51992185 20.125,12 L20.1203125,12 C20.1234375,12.0949219 20.125,18.4734375 20.125,18.4734375 C20.125,19.3855469 19.3855469,20.125 18.4734375,20.125 L14.5,20.125 C14.5,19.0894532 13.6605469,18.25 12.625,18.25 L11.375,18.25 C10.3394531,18.25 9.49999999,19.0894532 9.49999999,20.125 C9.49999999,21.1605469 10.3394531,22.0000001 11.375,22.0000001 L18.4734375,22.0000001 C20.4210938,22.0000001 22.0000001,20.4210938 22.0000001,18.4734375 L22.0000001,12 C21.8210938,6.64179685 17.5789063,1.99999995 12,1.99999995 Z" id="path-1"></path>
    </defs>
    <g id="headset" stroke="none" stroke-width="1" fill="none" fill-rule="evenodd">
        <mask id="mask-2" fill="white">
            <use xlink:href="#path-1"></use>
        </mask>
        <g fill-rule="nonzero"></g>
        <g id="🎨-color" mask="url(#mask-2)" fill="#000000">
            <rect id="🎨-Color" x="0" y="0" width="24" height="24"></rect>
        </g>
    </g>
</svg>