<?xml version="1.0" encoding="UTF-8"?>
<svg width="24px" height="24px" viewBox="0 0 24 24" version="1.1" xmlns="http://www.w3.org/2000/svg" xmlns:xlink="http://www.w3.org/1999/xlink">
    <!-- Generator: Sketch 52.5 (67469) - http://www.bohemiancoding.com/sketch -->
    <title>helicopter</title>
    <desc>Created with Sketch.</desc>
    <defs>
        <path d="M11.5,16 L20,16 C20.5521875,16 21,15.5521875 21,15 C21,11.1340625 17.8659375,7.99999998 14,7.99999998 L14,5.99999997 L19.5,5.99999997 C19.77625,5.99999997 20,5.77624997 20,5.49999997 L20,4.49999996 C20,4.22374996 19.77625,3.99999996 19.5,3.99999996 L6.49999997,3.99999996 C6.22374997,3.99999996 5.99999997,4.22374996 5.99999997,4.49999996 L5.99999997,5.49999997 C5.99999997,5.77624997 6.22374997,5.99999997 6.49999997,5.99999997 L12,5.99999997 L12,7.99999998 L5.49999997,7.99999998 L4.14999996,6.19999997 C4.05562496,6.07406247 3.90718746,5.99999997 3.74999996,5.99999997 L2.50031245,5.99999997 C2.17499995,5.99999997 1.93624995,6.30562497 2.01531245,6.62124997 L2.99999996,9.99999999 L7.99999998,12 L10.7,15.6 C10.8888285,15.8518369 11.1852334,16.0000394 11.5,16 Z M15,10.1096875 C16.9546875,10.509375 18.5009375,12.045 18.8996875,14 L15,14 L15,10.1096875 Z M21.8553125,18.3378125 L21.163125,17.6440625 C20.9678125,17.4484375 20.655625,17.4534375 20.455625,17.644375 C20.2340625,17.8559375 20.023125,17.9959375 19.685625,17.9959375 L9.49999999,17.9959375 C9.22374999,17.9959375 8.99999998,18.2203125 8.99999998,18.496875 L8.99999998,19.49875 C8.99999998,19.7753125 9.22374999,19.9996875 9.49999999,19.9996875 L19.685625,19.9996875 C20.150625,19.9996875 20.78875,19.985 21.8246875,19.0771875 C22.0440626,18.8853125 22.0612501,18.544375 21.8553125,18.3378125 Z" id="path-1"></path>
    </defs>
    <g id="helicopter" stroke="none" stroke-width="1" fill="none" fill-rule="evenodd">
        <mask id="mask-2" fill="white">
            <use xlink:href="#path-1"></use>
        </mask>
        <g fill-rule="nonzero"></g>
        <g id="🎨-color" mask="url(#mask-2)" fill="#000000">
            <rect id="🎨-Color" x="0" y="0" width="24" height="24"></rect>
        </g>
    </g>
</svg>