<?xml version="1.0" encoding="UTF-8"?>
<svg width="24px" height="24px" viewBox="0 0 24 24" version="1.1" xmlns="http://www.w3.org/2000/svg" xmlns:xlink="http://www.w3.org/1999/xlink">
    <!-- Generator: Sketch 52.5 (67469) - http://www.bohemiancoding.com/sketch -->
    <title>hiking</title>
    <desc>Created with Sketch.</desc>
    <defs>
        <path d="M7.69005846,20.4105264 C7.52319686,21.0795322 7.92943468,21.7567252 8.5976608,21.9235868 C8.69941519,21.9493178 8.80116957,21.9606238 8.90175437,21.9606238 C9.46042884,21.9606238 9.96881091,21.5824562 10.1111111,21.0159845 L11.0951267,17.0795322 L9.03742689,15.0218324 L7.69005846,20.4105264 Z M8.27056528,12.7645224 L9.87524365,6.56140348 C9.96062377,6.23313837 9.7528265,5.90058476 9.4105263,5.81832356 C7.69980505,5.4081871 5.96608184,6.40584793 5.53840153,8.04717347 L4.55321634,11.8729045 C4.46783622,12.2011696 4.67563349,12.5337232 5.01793369,12.6159844 L7.49590641,13.2105263 C7.83859647,13.2923977 8.18518517,13.0927875 8.27056528,12.7645224 Z M18.8810917,8.23781675 L18.25731,8.23781675 C17.9126706,8.23781675 17.6335283,8.51695905 17.6335283,8.86159842 L17.6335283,9.4853801 L16.2787525,9.4853801 L14.4549708,7.66159842 C14.0226121,7.22846002 13.4467836,6.99025339 12.8346979,6.99025339 C11.7812865,6.99025339 10.8670565,7.70370368 10.611306,8.72592591 L9.56179336,12.9255361 C9.45561208,13.3507105 9.58021178,13.8004237 9.89005847,14.1103314 L13.2670565,17.4873295 L13.2670565,20.7134503 C13.2670565,21.4023392 13.825731,21.9610137 14.5146199,21.9610137 C15.2035088,21.9610137 15.7621833,21.4023392 15.7621833,20.7134503 L15.7621833,17.4873295 C15.7621833,16.8210527 15.5025341,16.1945419 15.0311891,15.7231969 L13.205848,13.8978558 C13.2116959,13.8783626 13.2249513,13.8631579 13.2300195,13.842885 L14.0054581,10.7407407 L14.879922,11.6152047 C15.1138402,11.8491228 15.4311891,11.9808967 15.7617934,11.9808967 L17.6331384,11.9808967 L17.6331384,21.3376219 C17.6331384,21.6822613 17.9122807,21.9614036 18.2569201,21.9614036 L18.8807018,21.9614036 C19.2253412,21.9614036 19.5044835,21.6822613 19.5044835,21.3376219 L19.5044835,8.86159842 C19.5048733,8.51695905 19.225731,8.23781675 18.8810917,8.23781675 Z M13.8908382,5.74269003 C14.9243665,5.74269003 15.7621833,4.90487326 15.7621833,3.87134499 C15.7621833,2.83781672 14.9243665,1.99999995 13.8908382,1.99999995 C12.8573099,1.99999995 12.0194932,2.83781672 12.0194932,3.87134499 C12.0194932,4.90487326 12.8573099,5.74269003 13.8908382,5.74269003 Z" id="path-1"></path>
    </defs>
    <g id="hiking" stroke="none" stroke-width="1" fill="none" fill-rule="evenodd">
        <mask id="mask-2" fill="white">
            <use xlink:href="#path-1"></use>
        </mask>
        <g fill-rule="nonzero"></g>
        <g id="🎨-color" mask="url(#mask-2)" fill="#000000">
            <rect id="🎨-Color" x="0" y="0" width="24" height="24"></rect>
        </g>
    </g>
</svg>