<?xml version="1.0" encoding="UTF-8"?>
<svg width="24px" height="24px" viewBox="0 0 24 24" version="1.1" xmlns="http://www.w3.org/2000/svg" xmlns:xlink="http://www.w3.org/1999/xlink">
    <!-- Generator: Sketch 52.5 (67469) - http://www.bohemiancoding.com/sketch -->
    <title>hippo</title>
    <desc>Created with Sketch.</desc>
    <defs>
        <path d="M20.16,7.00624998 C19.2953125,7.00156248 18.519375,7.55562498 17.76625,7.83812498 C17.311875,6.75843747 16.2446875,5.99999997 15,5.99999997 C14.6475,5.99999997 14.3140625,6.07187497 14,6.18374997 L14,5.74999997 C14,5.33562497 13.6640625,4.99999997 13.25,4.99999997 L12.75,4.99999997 C12.3359375,4.99999997 12,5.33562497 12,5.74999997 L12,7.28062498 C10.9378125,6.48687497 9.53874999,5.99999997 7.99999998,5.99999997 C4.68624996,5.99999997 1.99999995,8.23874998 1.99999995,11 L1.99999995,18.5 C1.99999995,18.77625 2.22374995,19 2.49999995,19 L4.49999996,19 C4.77624996,19 4.99999996,18.77625 4.99999996,18.5 L4.99999996,16.2878125 C6.01093747,16.7365625 7.20999998,17 8.49999998,17 C9.78999999,17 10.9890625,16.7365625 12,16.2878125 L12,18.5 C12,18.77625 12.22375,19 12.5,19 L14.5,19 C14.77625,19 15,18.77625 15,18.5 L15,13 L19,13 L19,14 C19,14.27625 19.22375,14.5 19.5,14.5 L20.5,14.5 C20.77625,14.5 21,14.27625 21,14 L21,13 C21.5521875,13 22.0000001,12.5521875 22.0000001,12 L22.0000001,9.12437499 C22.0000001,8.05906248 21.2253125,7.01218748 20.16,7.00624998 Z M16,9.49999999 C15.72375,9.49999999 15.5,9.27624999 15.5,8.99999999 C15.5,8.72374998 15.72375,8.49999998 16,8.49999998 C16.27625,8.49999998 16.5,8.72374998 16.5,8.99999999 C16.5,9.27624999 16.27625,9.49999999 16,9.49999999 Z" id="path-1"></path>
    </defs>
    <g id="hippo" stroke="none" stroke-width="1" fill="none" fill-rule="evenodd">
        <mask id="mask-2" fill="white">
            <use xlink:href="#path-1"></use>
        </mask>
        <g fill-rule="nonzero"></g>
        <g id="🎨-color" mask="url(#mask-2)" fill="#000000">
            <rect id="🎨-Color" x="0" y="0" width="24" height="24"></rect>
        </g>
    </g>
</svg>