<?xml version="1.0" encoding="UTF-8"?>
<svg width="24px" height="24px" viewBox="0 0 24 24" version="1.1" xmlns="http://www.w3.org/2000/svg" xmlns:xlink="http://www.w3.org/1999/xlink">
    <!-- Generator: Sketch 52.5 (67469) - http://www.bohemiancoding.com/sketch -->
    <title>hips</title>
    <desc>Created with Sketch.</desc>
    <defs>
        <path d="M1.99999995,6.51482057 C1.99999995,6.45865832 2.02808107,6.4305772 2.08424332,6.4305772 L3.36037437,6.4305772 C3.41965674,6.4305772 3.44773787,6.45865832 3.44773787,6.51482057 L3.44773787,9.04836192 C3.92199684,8.80811231 4.43681743,8.68954757 5.00156003,8.69266769 C5.75038998,8.69578781 6.3806552,8.88611543 6.88299529,9.25429016 C7.46645864,9.67550701 7.75663024,10.24961 7.75663024,10.9797192 L7.75663024,15.2262091 C7.75663024,15.2854914 7.72854912,15.3135726 7.67238687,15.3135726 L6.8205928,15.3135726 C6.53666144,15.3135726 6.30889233,15.0858034 6.30889233,14.8049922 L6.30889233,10.9797192 C6.30889233,10.9516381 6.3931357,10.1372855 4.87987516,10.1372855 C3.3634945,10.1372855 3.45085799,10.9547582 3.45085799,10.9797192 L3.45085799,15.2262091 C3.45085799,15.2854914 3.42277687,15.3135726 3.3634945,15.3135726 L2.08424332,15.3135726 C2.02808107,15.3135726 1.99999995,15.2854914 1.99999995,15.2262091 L1.99999995,6.51482057 Z M17.5288612,13.425897 C17.9563183,13.7441498 18.5928237,14.0218409 19.3510141,14.0218409 C20.0780032,14.0218409 20.374415,13.8814353 20.4898596,13.5975039 C20.5834634,13.351014 20.4711389,13.0951638 20.1092044,12.9360374 L18.4368175,12.2028081 C17.7691108,11.9095164 17.3822153,11.4539782 17.2761311,10.8424337 C17.098284,9.79095163 17.9687988,9.17940716 17.9843994,9.16692666 C18.3962559,8.86739468 18.9828393,8.68642744 19.8096724,8.68642744 C20.4024961,8.68642744 20.9765991,8.78939156 21.5288612,8.9953198 C21.5694228,9.01092042 21.5881436,9.03588142 21.5881436,9.07644304 L21.5881436,10.4711388 C21.5881436,10.5366615 21.5163807,10.5772231 21.4633386,10.5460218 C20.224649,9.900156 19.073323,10.1622465 18.8424337,10.3338533 C18.6365055,10.4867395 18.6552262,10.7238689 18.923557,10.8361934 L20.7207489,11.625585 C21.2355695,11.8471139 21.5975039,12.199688 21.8096724,12.6895476 C21.9812793,13.0826833 22.0156007,13.4882995 21.9063963,13.9095164 C21.6068643,15.0608424 20.5054603,15.3291732 20.4836194,15.3385336 C20.1560063,15.4352574 19.7472699,15.4726989 19.3510141,15.4726989 C18.8330734,15.4726989 18.3338534,15.3884556 17.8471139,15.2168487 C17.5444618,15.1107644 17.3915757,14.8954758 17.3915757,14.5709829 L17.3915757,13.4976599 C17.3915757,13.4321373 17.4633386,13.3822153 17.5288612,13.425897 Z M13.7379095,8.68642744 C12.74883,8.68642744 10.4867395,9.31357253 10.4867395,11.9157566 L10.4867395,17.6411857 C10.4867395,17.6661467 10.5054602,17.725429 10.5709828,17.725429 L11.8471139,17.725429 C11.9063963,17.725429 11.9344774,17.6973479 11.9344774,17.6411857 L11.9344774,14.8705148 C12.449298,15.2667707 13.0514821,15.4664587 13.7347894,15.4664587 C15.6224649,15.4664587 17.1263651,13.9531981 17.1263651,12.074883 C17.1294852,10.1934477 15.6224649,8.68642744 13.7379095,8.68642744 Z M13.7379095,14.0187208 C13.2012481,14.0187208 12.7425897,13.8283931 12.3650546,13.450858 C11.9843994,13.0702028 11.7971919,12.6146646 11.7971919,12.0780031 C11.7971919,11.0015601 12.6583463,10.1372855 13.7379095,10.1372855 C14.8143526,10.1372855 15.6786272,10.9984399 15.6786272,12.0780031 C15.6817473,13.1482059 14.8268331,14.0187208 13.7379095,14.0187208 Z M9.850234,15.2262091 C9.850234,15.2854914 9.82215288,15.3135726 9.7628705,15.3135726 L8.48673945,15.3135726 C8.43681745,15.3135726 8.40249608,15.2698908 8.40249608,15.2262091 L8.40249608,8.92979718 C8.40249608,8.88611543 8.43681745,8.84243368 8.48673945,8.84243368 L9.7628705,8.84243368 C9.82215288,8.84243368 9.850234,8.8705148 9.850234,8.92979718 L9.850234,15.2262091 Z M9.12324492,6.27457095 C9.61934476,6.27457095 10.024961,6.67082681 10.024961,7.17628703 C10.024961,7.66926675 9.62870514,8.0780031 9.12324492,8.0780031 C8.61778469,8.0780031 8.22152884,7.6630265 8.22152884,7.17628703 C8.22464897,6.67706706 8.62714507,6.27457095 9.12324492,6.27457095 Z" id="path-1"></path>
    </defs>
    <g id="hips" stroke="none" stroke-width="1" fill="none" fill-rule="evenodd">
        <mask id="mask-2" fill="white">
            <use xlink:href="#path-1"></use>
        </mask>
        <g fill-rule="nonzero"></g>
        <g id="🎨-color" mask="url(#mask-2)" fill="#000000">
            <rect id="🎨-Color" x="0" y="0" width="24" height="24"></rect>
        </g>
    </g>
</svg>