<?xml version="1.0" encoding="UTF-8"?>
<svg width="24px" height="24px" viewBox="0 0 24 24" version="1.1" xmlns="http://www.w3.org/2000/svg" xmlns:xlink="http://www.w3.org/1999/xlink">
    <!-- Generator: Sketch 52.5 (67469) - http://www.bohemiancoding.com/sketch -->
    <title>hire-a-helper</title>
    <desc>Created with Sketch.</desc>
    <defs>
        <path d="M19.3085938,1.99999995 L4.80859371,1.99999995 C4.65234371,3.45703121 3.46093746,4.64843746 1.99999995,4.80078121 L1.99999995,19.3125 C3.46093746,19.5039063 4.57812496,20.578125 4.80859371,22.0000001 L19.3476563,22.0000001 C19.4648438,20.578125 20.6171875,19.4296875 22.0000001,19.2734375 L22.0000001,4.80078121 C20.578125,4.57031246 19.4609375,3.42187496 19.3085938,1.99999995 Z M17.8632813,17.8164063 C16.4453125,17.8164063 17.1289063,17.7382813 15.7109375,17.7382813 C14.3125,17.7382813 14.890625,17.8164063 13.5195313,17.8164063 C13.2890625,17.8164063 13.328125,17.4960938 13.5195313,17.4335938 C14.4101563,17.1367188 14.4140625,17.0351563 14.4804688,16.9335938 C14.8867188,16.3242188 14.7109375,13.6914063 14.7109375,12.5195313 C14.7109375,12.3125 14.4609375,12.0195313 14.171875,12.0195313 L9.82812499,12.0195313 C9.53906249,12.0195313 9.28906249,12.3125 9.28906249,12.5195313 C9.28906249,13.6914063 9.11328124,16.3242188 9.51953124,16.9335938 C9.58593749,17.03125 9.58984374,17.1367188 10.4804687,17.4335938 C10.671875,17.4960938 10.7148437,17.8164063 10.4804687,17.8164063 C9.10937499,17.8164063 9.68749999,17.7382813 8.28906248,17.7382813 C6.87109372,17.7382813 7.55468748,17.8164063 6.13671872,17.8164063 C5.82812497,17.8164063 5.91015622,17.3945313 6.13671872,17.3945313 C6.53515622,17.2617188 6.66406247,17.2578125 6.98437497,16.8554688 C7.28515623,16.3515625 7.29296873,15.1210938 7.29296873,11.8632812 L7.29296873,7.91015623 C7.29296873,7.04296873 6.81640622,6.80468747 6.17578122,6.64453122 C5.83203122,6.55859372 6.01953122,6.18359372 6.21484372,6.18359372 C7.64062498,6.18359372 7.01953123,6.26171872 8.44531248,6.26171872 C9.72265624,6.26171872 9.08984374,6.18359372 10.3671875,6.18359372 C10.4960937,6.18359372 10.6992187,6.50781247 10.40625,6.60546872 C10.2148437,6.66796872 9.32812499,6.74999997 9.32812499,8.14062498 C9.32812499,9.92187499 9.32031249,10.3203125 9.36718749,10.828125 C9.36718749,10.8789062 9.45703124,11.328125 9.86718749,11.328125 L14.1328125,11.328125 C14.5429688,11.328125 14.6328125,10.8789062 14.6328125,10.828125 C14.6796875,10.3203125 14.671875,9.92187499 14.671875,8.14062498 C14.671875,6.74999997 13.7851563,6.66796872 13.59375,6.60546872 C13.3007813,6.50781247 13.5039063,6.18359372 13.6328125,6.18359372 C14.9101563,6.18359372 14.2773438,6.26171872 15.5546875,6.26171872 C16.9804688,6.26171872 16.359375,6.18359372 17.7851563,6.18359372 C17.9765625,6.18359372 18.171875,6.55859372 17.8242188,6.64453122 C17.1835938,6.80468747 16.7070313,7.04687498 16.7070313,7.91015623 L16.7070313,11.8632812 C16.7070313,15.1210938 16.7109375,16.3515625 17.015625,16.8554688 C17.3359375,17.2539063 17.4609375,17.2617188 17.8632813,17.3945313 C18.0898438,17.3945313 18.1679688,17.8164063 17.8632813,17.8164063 Z" id="path-1"></path>
    </defs>
    <g id="hire-a-helper" stroke="none" stroke-width="1" fill="none" fill-rule="evenodd">
        <mask id="mask-2" fill="white">
            <use xlink:href="#path-1"></use>
        </mask>
        <g fill-rule="nonzero"></g>
        <g id="🎨-color" mask="url(#mask-2)" fill="#000000">
            <rect id="🎨-Color" x="0" y="0" width="24" height="24"></rect>
        </g>
    </g>
</svg>