<?xml version="1.0" encoding="UTF-8"?>
<svg width="24px" height="24px" viewBox="0 0 24 24" version="1.1" xmlns="http://www.w3.org/2000/svg" xmlns:xlink="http://www.w3.org/1999/xlink">
    <!-- Generator: Sketch 52.5 (67469) - http://www.bohemiancoding.com/sketch -->
    <title>history</title>
    <desc>Created with Sketch.</desc>
    <defs>
        <path d="M21.6875,11.9816797 C21.6973829,17.3191797 17.3445313,21.683711 12.0070313,21.687461 C9.7017578,21.6891016 7.58425779,20.8855079 5.92023434,19.5425 C5.48753903,19.1932813 5.45519528,18.5448047 5.84839841,18.1516016 L6.2885156,17.7114844 C6.62480466,17.3751953 7.16167966,17.3383985 7.53425779,17.6339844 C8.76023436,18.606836 10.3117578,19.1875 12,19.1875 C15.9728516,19.1875 19.1875,15.9722266 19.1875,12 C19.1875,8.02714842 15.9722266,4.81249996 12,4.81249996 C10.0932031,4.81249996 8.36136717,5.55347653 7.07546873,6.76296872 L9.05804686,8.74554686 C9.45179686,9.13929686 9.17292967,9.81249999 8.6161328,9.81249999 L2.93749995,9.81249999 C2.59230464,9.81249999 2.31249995,9.5326953 2.31249995,9.18749999 L2.31249995,3.50886715 C2.31249995,2.95207027 2.98570308,2.67320308 3.37945308,3.06691402 L5.30804684,4.99550778 C7.04722654,3.33343746 9.40437499,2.31249995 12,2.31249995 C17.3441407,2.31249995 21.6776172,6.63984372 21.6875,11.9816797 Z M14.620625,15.0591797 L15.004336,14.5658203 C15.3222266,14.1571094 15.2485938,13.5680859 14.8398828,13.2502344 L13.25,12.0136328 L13.25,7.93749998 C13.25,7.41972654 12.8302734,6.99999997 12.3125,6.99999997 L11.6875,6.99999997 C11.1697266,6.99999997 10.75,7.41972654 10.75,7.93749998 L10.75,13.2363672 L13.3050391,15.2236328 C13.71375,15.5414844 14.3027344,15.4678906 14.620625,15.0591797 Z" id="path-1"></path>
    </defs>
    <g id="history" stroke="none" stroke-width="1" fill="none" fill-rule="evenodd">
        <mask id="mask-2" fill="white">
            <use xlink:href="#path-1"></use>
        </mask>
        <g fill-rule="nonzero"></g>
        <g id="🎨-color" mask="url(#mask-2)" fill="#000000">
            <rect id="🎨-Color" x="0" y="0" width="24" height="24"></rect>
        </g>
    </g>
</svg>