<?xml version="1.0" encoding="UTF-8"?>
<svg width="24px" height="24px" viewBox="0 0 24 24" version="1.1" xmlns="http://www.w3.org/2000/svg" xmlns:xlink="http://www.w3.org/1999/xlink">
    <!-- Generator: Sketch 52.5 (67469) - http://www.bohemiancoding.com/sketch -->
    <title>home</title>
    <desc>Created with Sketch.</desc>
    <defs>
        <path d="M18.9444445,13.96875 L18.9444445,18.9444445 C18.9444445,19.40625 18.5729167,19.7777778 18.1111111,19.7777778 L14.0833333,19.7777778 C13.8541667,19.7777778 13.6666667,19.5902778 13.6666667,19.3611111 L13.6666667,15.4722222 C13.6666667,15.2430556 13.4791667,15.0555556 13.25,15.0555556 L10.75,15.0555556 C10.5208333,15.0555556 10.3333333,15.2430556 10.3333333,15.4722222 L10.3333333,19.3611111 C10.3333333,19.5902778 10.1458333,19.7777778 9.91666666,19.7777778 L5.88888886,19.7777778 C5.4270833,19.7777778 5.05555552,19.40625 5.05555552,18.9444445 L5.05555552,13.96875 C5.05555552,13.84375 5.11111108,13.7256945 5.2083333,13.6458333 L11.7361111,8.27083331 C11.8888889,8.14583331 12.1111111,8.14583331 12.2673611,8.27083331 L18.7951389,13.6458333 C18.8888889,13.7256945 18.9444445,13.84375 18.9444445,13.96875 Z M21.8472223,11.8541667 L18.9444445,9.46180554 L18.9444445,4.65277774 C18.9444445,4.42361107 18.7569445,4.23611107 18.5277778,4.23611107 L16.5833334,4.23611107 C16.3541667,4.23611107 16.1666667,4.42361107 16.1666667,4.65277774 L16.1666667,7.17361109 L13.0590278,4.6145833 C12.4444444,4.10763885 11.5555556,4.10763885 10.9409722,4.6145833 L2.15277773,11.8541667 C1.97569439,12 1.95138884,12.2638889 2.09722217,12.4409722 L2.98263884,13.5173611 C3.12847218,13.6944445 3.39236107,13.71875 3.5694444,13.5729167 L11.7361111,6.8472222 C11.8888889,6.7222222 12.1111111,6.7222222 12.2673611,6.8472222 L20.4340278,13.5729167 C20.6111112,13.71875 20.875,13.6944445 21.0208334,13.5173611 L21.90625,12.4409722 C22.0520834,12.2604167 22.0243056,12 21.8472223,11.8541667 Z" id="path-1"></path>
    </defs>
    <g id="home" stroke="none" stroke-width="1" fill="none" fill-rule="evenodd">
        <mask id="mask-2" fill="white">
            <use xlink:href="#path-1"></use>
        </mask>
        <g fill-rule="nonzero"></g>
        <g id="🎨-color" mask="url(#mask-2)" fill="#000000">
            <rect id="🎨-Color" x="0" y="0" width="24" height="24"></rect>
        </g>
    </g>
</svg>