<?xml version="1.0" encoding="UTF-8"?>
<svg width="24px" height="24px" viewBox="0 0 24 24" version="1.1" xmlns="http://www.w3.org/2000/svg" xmlns:xlink="http://www.w3.org/1999/xlink">
    <!-- Generator: Sketch 52.5 (67469) - http://www.bohemiancoding.com/sketch -->
    <title>hooli</title>
    <desc>Created with Sketch.</desc>
    <defs>
        <path d="M17.8875,15 L19.696875,15 L19.696875,8.89687498 L17.8875,9.74999999 L17.8875,15 Z M20.190625,11.546875 L20.190625,15 L22.0000001,15 L22.0000001,11.546875 L20.190625,11.546875 Z M12.35625,11.26875 C11.7875,10.7 10.78125,10.734375 10.78125,10.734375 C10.78125,10.734375 9.77499999,10.7 9.20624999,11.26875 C9.14687499,11.328125 9.09062499,11.390625 9.04062499,11.45625 C7.84687498,10.53125 6.77499997,10.003125 5.84999997,9.54687499 L5.84999997,8.89999998 L5.14687497,9.23124999 C3.44687496,8.54062498 2.36562495,8.66249998 2.10624995,9.23437499 C2.10624995,9.23437499 1.32812495,10.259375 4.04062496,12.7 L4.04062496,11.73125 C2.51562495,10.025 2.82187495,9.35312499 2.93749995,9.25624999 C3.35937496,8.89999998 4.10937496,9.00624999 4.94999996,9.32187499 L4.03749996,9.74999999 L4.03749996,11.728125 C4.44687496,12.1875 4.99062496,12.7125 5.70937497,13.303125 L5.84999997,13.415625 L5.84999997,12.484375 C5.84999997,12.26875 5.90312497,11.915625 6.18749997,11.915625 C6.47187497,11.915625 6.51874997,12.13125 6.51874997,12.384375 L6.51874997,13.90625 C7.08124998,14.2875 7.68437498,14.596875 8.32187498,14.83125 L8.32187498,11.896875 C8.32187498,11.3125 7.90312498,10.728125 7.05312498,10.728125 C6.55937497,10.725 6.09999997,10.984375 5.84999997,11.4125 L5.84999997,9.71562499 C7.15937498,10.36875 8.47187498,11.16875 8.97187498,11.5375 C8.65312498,11.99375 8.68124998,12.415625 8.68124998,12.903125 C8.68124998,13.4875 8.63749998,13.975 9.20624999,14.54375 C9.77499999,15.1125 10.78125,15.078125 10.78125,15.078125 C10.78125,15.078125 11.790625,15.1125 12.35625,14.54375 C12.925,13.975 12.878125,13.4875 12.878125,12.903125 C12.878125,12.325 12.925,11.834375 12.35625,11.26875 Z M11.115625,13.515625 C11.115625,13.628125 11.059375,13.90625 10.78125,13.90625 C10.503125,13.90625 10.446875,13.628125 10.446875,13.515625 L10.446875,12.253125 C10.446875,11.98125 10.675,11.9125 10.78125,11.9125 C10.8875,11.9125 11.115625,11.978125 11.115625,12.253125 L11.115625,13.515625 Z M16.91875,11.26875 C16.35,10.7 15.34375,10.734375 15.34375,10.734375 C15.34375,10.734375 14.334375,10.7 13.76875,11.26875 C13.2,11.8375 13.24375,12.328125 13.24375,12.9125 C13.24375,13.496875 13.2,13.984375 13.76875,14.553125 C14.3375,15.121875 15.34375,15.0875 15.34375,15.0875 C15.34375,15.0875 16.353125,15.121875 16.91875,14.553125 C17.4875,13.984375 17.44375,13.496875 17.44375,12.9125 C17.440625,12.325 17.484375,11.834375 16.91875,11.26875 Z M15.675,13.515625 C15.675,13.628125 15.61875,13.90625 15.340625,13.90625 C15.0625,13.90625 15.00625,13.628125 15.00625,13.515625 L15.00625,12.253125 C15.00625,11.98125 15.234375,11.9125 15.340625,11.9125 C15.446875,11.9125 15.675,11.978125 15.675,12.253125 L15.675,13.515625 Z M21.096875,11.234375 C21.59375,11.234375 22.0000001,10.83125 22.0000001,10.33125 C22.0000001,9.83124999 21.596875,9.56562499 21.096875,9.56562499 C20.6,9.56562499 20.19375,9.83437499 20.19375,10.33125 C20.19375,10.828125 20.596875,11.234375 21.096875,11.234375 Z M6.51562497,15 L7.71249998,15.025 C7.29999998,14.88125 6.89999997,14.70625 6.51562497,14.5 L6.51562497,15 Z M5.84687497,15 L5.84687497,14.10625 C5.64374997,13.975 5.44062497,13.834375 5.24062497,13.68125 C4.77812496,13.33125 4.38124996,13.003125 4.03749996,12.696875 L4.03749996,15 L5.84687497,15 Z M7.71249998,15.025 C8.85312498,15.415625 9.89687499,15.46875 10.671875,15.25 C10.05,15.25625 9.24062499,15.16875 8.31874998,14.834375 L8.31874998,15 L7.71249998,15.025 Z" id="path-1"></path>
    </defs>
    <g id="hooli" stroke="none" stroke-width="1" fill="none" fill-rule="evenodd">
        <mask id="mask-2" fill="white">
            <use xlink:href="#path-1"></use>
        </mask>
        <g fill-rule="nonzero"></g>
        <g id="🎨-color" mask="url(#mask-2)" fill="#000000">
            <rect id="🎨-Color" x="0" y="0" width="24" height="24"></rect>
        </g>
    </g>
</svg>