<?xml version="1.0" encoding="UTF-8"?>
<svg width="24px" height="24px" viewBox="0 0 24 24" version="1.1" xmlns="http://www.w3.org/2000/svg" xmlns:xlink="http://www.w3.org/1999/xlink">
    <!-- Generator: Sketch 52.5 (67469) - http://www.bohemiancoding.com/sketch -->
    <title>hornbill</title>
    <desc>Created with Sketch.</desc>
    <defs>
        <path d="M5.01637423,16.4756336 C5.09980503,17.0927875 4.79142297,17.7224172 4.19999996,18.0074074 C3.46510717,18.3621833 2.58011691,18.0530215 2.22417149,17.3181287 C1.87017539,16.5840156 2.18011691,15.697076 2.91422997,15.3434698 C3.18908378,15.2109162 3.48460035,15.1711501 3.76608183,15.2116959 C0.714229963,10.8705653 5.79337229,7.78362571 5.79337229,7.78362571 C5.56491225,9.46159843 5.47212472,11.3376218 5.47212472,11.3376218 C2.84795317,12.9536062 5.50799217,13.8350877 7.02417152,14.1785575 C7.79493175,16.2690059 9.79922026,17.762963 12.157115,17.762963 C12.2319688,17.762963 12.3040936,17.7547759 12.3781676,17.7520468 L12.3824561,18.4873295 C8.51423,18.5415205 6.19532161,17.3512671 5.01637423,16.4756336 Z M9.22729043,3.69980503 C9.26198829,3.42690054 9.2233918,3.14113056 9.09512669,2.87524362 C8.74035086,2.14074069 7.85458088,1.83118903 7.12007795,2.185575 C6.38479529,2.54035083 6.07524364,3.42651068 6.43040933,4.16140347 C6.70253409,4.72553603 7.28888887,5.03547755 7.87992201,4.98908379 C7.0007797,6.15516566 5.78128652,8.4810916 5.83625728,12.3976608 L6.68771927,12.3918129 C6.68693954,12.3567251 6.68226118,12.322807 6.68226118,12.2873294 C6.68226118,9.98908381 8.10019491,8.02495125 10.1072125,7.21286547 C10.4194932,5.74113057 11.305653,2.7567251 12.9859649,5.48615981 C12.9859649,5.48615981 14.862768,5.57894734 16.5407408,5.80740738 C16.5407408,5.80701751 13.5060429,0.81598435 9.22729043,3.69980503 Z M21.0861599,8.93060427 C21.8206628,8.57621831 22.1313841,7.69044832 21.7762184,6.95594539 C21.4214425,6.2210526 20.5352827,5.91228067 19.8007798,6.26627677 C19.2054581,6.55360621 18.8966862,7.18986352 18.9871345,7.81169589 C17.7508772,6.95633526 15.4846004,5.89941517 11.8350877,5.9504873 L11.8405458,6.82768029 C11.945809,6.82183233 12.0506823,6.81169588 12.1578947,6.81169588 C14.4697856,6.81169588 16.4424951,8.24639374 17.2452242,10.2721247 C18.7695907,10.6237817 21.3411307,11.5033138 18.7446394,13.1001949 C18.7446394,13.1001949 18.6534113,14.9766082 18.4245614,16.6541911 C18.4245614,16.6541911 23.6272905,13.4900585 20.3333334,9.06705652 C20.5840156,9.08654969 20.842885,9.0479532 21.0861599,8.93060427 Z M16.6218324,19.0463938 C17.45731,17.7808967 18.431579,15.5497076 18.3816764,12.0421053 L17.6206628,12.0475634 C17.6237817,12.1278752 17.6323587,12.2062378 17.6323587,12.2873294 C17.6323587,14.6370371 16.1489279,16.6362573 14.0693957,17.4120858 C13.7243665,18.9306043 12.8436647,21.5703704 11.2323587,18.951657 C11.2323587,18.951657 9.35633527,18.8604289 7.67719296,18.6311891 C7.67719296,18.6311891 10.7929825,23.751657 15.1586745,20.6183236 C15.1707602,20.8023392 15.2152047,20.9867447 15.3005848,21.162963 C15.6538012,21.8994153 16.5403509,22.2070176 17.2748538,21.8534114 C18.0101365,21.4986355 18.3192983,20.6124757 17.9649123,19.8787525 C17.7091618,19.3477583 17.1750488,19.0432749 16.6218324,19.0463938 Z" id="path-1"></path>
    </defs>
    <g id="hornbill" stroke="none" stroke-width="1" fill="none" fill-rule="evenodd">
        <mask id="mask-2" fill="white">
            <use xlink:href="#path-1"></use>
        </mask>
        <g fill-rule="nonzero"></g>
        <g id="🎨-color" mask="url(#mask-2)" fill="#000000">
            <rect id="🎨-Color" x="0" y="0" width="24" height="24"></rect>
        </g>
    </g>
</svg>