<?xml version="1.0" encoding="UTF-8"?>
<svg width="24px" height="24px" viewBox="0 0 24 24" version="1.1" xmlns="http://www.w3.org/2000/svg" xmlns:xlink="http://www.w3.org/1999/xlink">
    <!-- Generator: Sketch 52.5 (67469) - http://www.bohemiancoding.com/sketch -->
    <title>horse</title>
    <desc>Created with Sketch.</desc>
    <defs>
        <path d="M21.9972223,5.7708333 C21.996875,5.48854163 21.8923612,5.21979163 21.6993056,5.01388885 C21.5680556,4.8739583 21.4013889,4.69722219 21.2239584,4.51041663 C21.6079862,4.27291663 21.9010417,3.90312496 21.9940973,3.44583329 C22.0295139,3.27361107 21.8944445,3.11111107 21.71875,3.11111107 L17.5527778,3.11111107 C15.0982639,3.11111107 13.1083333,5.10104163 13.1083333,7.55555553 L7.55555553,7.55555553 C6.55416664,7.55555553 5.66666663,8.00624998 5.05555552,8.70520832 L5.05555552,8.66666665 C3.37048607,8.66666665 1.99999995,10.0371528 1.99999995,11.7222222 L1.99999995,13.6666667 C1.99999995,13.9736111 2.24861106,14.2222222 2.55555551,14.2222222 L3.11111107,14.2222222 C3.41805551,14.2222222 3.66666662,13.9736111 3.66666662,13.6666667 L3.66666662,11.7222222 C3.66666662,11.2631944 3.90520829,10.8753472 4.24930552,10.6222222 C4.24201385,10.7118055 4.22222218,10.7975694 4.22222218,10.8888889 C4.22222218,11.8486111 4.6333333,12.7069444 5.28263886,13.3152778 L4.3895833,15.6972222 C4.23130697,16.1191234 4.20514854,16.579197 4.31458329,17.0163195 L5.17743052,20.4680556 C5.23901432,20.7153533 5.46112178,20.8889151 5.71597219,20.8888889 L8.00624998,20.8888889 C8.36770832,20.8888889 8.63298609,20.5493056 8.54513887,20.1986112 L7.6315972,16.54375 L8.45937498,14.3357639 L13.1111111,15.1111111 L13.1111111,20.3333334 C13.1111111,20.6402778 13.3597222,20.8888889 13.6666667,20.8888889 L15.8888889,20.8888889 C16.1958334,20.8888889 16.4444445,20.6402778 16.4444445,20.3333334 L16.4444445,14.1604167 C17.1298611,13.459375 17.5555556,12.5024306 17.5555556,11.4444444 C17.5555556,11.4368056 17.553125,11.4298611 17.5527778,11.4222222 L17.5527778,7.86423609 L18.1083334,8.11111109 L18.7645834,9.42013888 C19.0232639,9.93645832 19.634375,10.1684028 20.1704862,9.95381943 L21.3006945,9.5017361 C21.7229557,9.33293715 21.9997174,8.92384705 21.9993056,8.4690972 L21.9972223,5.7708333 Z M19.775,6.44444442 C19.4680556,6.44444442 19.2194445,6.1958333 19.2194445,5.88888886 C19.2194445,5.58194441 19.4680556,5.3333333 19.775,5.3333333 C20.0819445,5.3333333 20.3305556,5.58194441 20.3305556,5.88888886 C20.3305556,6.1958333 20.0819445,6.44444442 19.775,6.44444442 Z" id="path-1"></path>
    </defs>
    <g id="horse" stroke="none" stroke-width="1" fill="none" fill-rule="evenodd">
        <mask id="mask-2" fill="white">
            <use xlink:href="#path-1"></use>
        </mask>
        <g fill-rule="nonzero"></g>
        <g id="🎨-color" mask="url(#mask-2)" fill="#000000">
            <rect id="🎨-Color" x="0" y="0" width="24" height="24"></rect>
        </g>
    </g>
</svg>