<?xml version="1.0" encoding="UTF-8"?>
<svg width="24px" height="24px" viewBox="0 0 24 24" version="1.1" xmlns="http://www.w3.org/2000/svg" xmlns:xlink="http://www.w3.org/1999/xlink">
    <!-- Generator: Sketch 52.5 (67469) - http://www.bohemiancoding.com/sketch -->
    <title>hospital-alt</title>
    <desc>Created with Sketch.</desc>
    <defs>
        <path d="M20.8888889,6.44444442 L16.4444445,6.44444442 L16.4444445,4.22222218 C16.4444445,3.60763885 15.9479167,3.11111107 15.3333334,3.11111107 L8.66666665,3.11111107 C8.05208331,3.11111107 7.55555553,3.60763885 7.55555553,4.22222218 L7.55555553,6.44444442 L3.11111107,6.44444442 C2.49652773,6.44444442 1.99999995,6.9409722 1.99999995,7.55555553 L1.99999995,20.3333334 C1.99999995,20.6388889 2.24999995,20.8888889 2.55555551,20.8888889 L21.4444445,20.8888889 C21.75,20.8888889 22.0000001,20.6388889 22.0000001,20.3333334 L22.0000001,7.55555553 C22.0000001,6.9409722 21.5034723,6.44444442 20.8888889,6.44444442 Z M7.55555553,18.25 C7.55555553,18.4791667 7.36805553,18.6666667 7.13888886,18.6666667 L5.74999997,18.6666667 C5.5208333,18.6666667 5.3333333,18.4791667 5.3333333,18.25 L5.3333333,16.8611111 C5.3333333,16.6319445 5.5208333,16.4444445 5.74999997,16.4444445 L7.13888886,16.4444445 C7.36805553,16.4444445 7.55555553,16.6319445 7.55555553,16.8611111 L7.55555553,18.25 Z M7.55555553,13.8055556 C7.55555553,14.0347222 7.36805553,14.2222222 7.13888886,14.2222222 L5.74999997,14.2222222 C5.5208333,14.2222222 5.3333333,14.0347222 5.3333333,13.8055556 L5.3333333,12.4166667 C5.3333333,12.1875 5.5208333,12 5.74999997,12 L7.13888886,12 C7.36805553,12 7.55555553,12.1875 7.55555553,12.4166667 L7.55555553,13.8055556 Z M13.1111111,18.25 C13.1111111,18.4791667 12.9236111,18.6666667 12.6944444,18.6666667 L11.3055556,18.6666667 C11.0763889,18.6666667 10.8888889,18.4791667 10.8888889,18.25 L10.8888889,16.8611111 C10.8888889,16.6319445 11.0763889,16.4444445 11.3055556,16.4444445 L12.6944444,16.4444445 C12.9236111,16.4444445 13.1111111,16.6319445 13.1111111,16.8611111 L13.1111111,18.25 Z M13.1111111,13.8055556 C13.1111111,14.0347222 12.9236111,14.2222222 12.6944444,14.2222222 L11.3055556,14.2222222 C11.0763889,14.2222222 10.8888889,14.0347222 10.8888889,13.8055556 L10.8888889,12.4166667 C10.8888889,12.1875 11.0763889,12 11.3055556,12 L12.6944444,12 C12.9236111,12 13.1111111,12.1875 13.1111111,12.4166667 L13.1111111,13.8055556 Z M13.6666667,7.90277776 C13.6666667,8.01736109 13.5729167,8.11111109 13.4583333,8.11111109 L12.5555556,8.11111109 L12.5555556,9.01388887 C12.5555556,9.12847221 12.4618056,9.22222221 12.3472222,9.22222221 L11.6527778,9.22222221 C11.5381944,9.22222221 11.4444444,9.12847221 11.4444444,9.01388887 L11.4444444,8.11111109 L10.5416667,8.11111109 C10.4270833,8.11111109 10.3333333,8.01736109 10.3333333,7.90277776 L10.3333333,7.20833331 C10.3333333,7.09374998 10.4270833,6.99999997 10.5416667,6.99999997 L11.4444444,6.99999997 L11.4444444,6.09722219 C11.4444444,5.98263886 11.5381944,5.88888886 11.6527778,5.88888886 L12.3472222,5.88888886 C12.4618056,5.88888886 12.5555556,5.98263886 12.5555556,6.09722219 L12.5555556,6.99999997 L13.4583333,6.99999997 C13.5729167,6.99999997 13.6666667,7.09374998 13.6666667,7.20833331 L13.6666667,7.90277776 Z M18.6666667,18.25 C18.6666667,18.4791667 18.4791667,18.6666667 18.25,18.6666667 L16.8611111,18.6666667 C16.6319445,18.6666667 16.4444445,18.4791667 16.4444445,18.25 L16.4444445,16.8611111 C16.4444445,16.6319445 16.6319445,16.4444445 16.8611111,16.4444445 L18.25,16.4444445 C18.4791667,16.4444445 18.6666667,16.6319445 18.6666667,16.8611111 L18.6666667,18.25 Z M18.6666667,13.8055556 C18.6666667,14.0347222 18.4791667,14.2222222 18.25,14.2222222 L16.8611111,14.2222222 C16.6319445,14.2222222 16.4444445,14.0347222 16.4444445,13.8055556 L16.4444445,12.4166667 C16.4444445,12.1875 16.6319445,12 16.8611111,12 L18.25,12 C18.4791667,12 18.6666667,12.1875 18.6666667,12.4166667 L18.6666667,13.8055556 Z" id="path-1"></path>
    </defs>
    <g id="hospital-alt" stroke="none" stroke-width="1" fill="none" fill-rule="evenodd">
        <mask id="mask-2" fill="white">
            <use xlink:href="#path-1"></use>
        </mask>
        <g fill-rule="nonzero"></g>
        <g id="🎨-color" mask="url(#mask-2)" fill="#000000">
            <rect id="🎨-Color" x="0" y="0" width="24" height="24"></rect>
        </g>
    </g>
</svg>