<?xml version="1.0" encoding="UTF-8"?>
<svg width="24px" height="24px" viewBox="0 0 24 24" version="1.1" xmlns="http://www.w3.org/2000/svg" xmlns:xlink="http://www.w3.org/1999/xlink">
    <!-- Generator: Sketch 52.5 (67469) - http://www.bohemiancoding.com/sketch -->
    <title>hospital</title>
    <desc>Created with Sketch.</desc>
    <defs>
        <path d="M8.24999998,11.53125 L8.24999998,9.96874999 C8.24999998,9.7098828 8.45988279,9.49999999 8.71874998,9.49999999 L10.28125,9.49999999 C10.5401172,9.49999999 10.75,9.7098828 10.75,9.96874999 L10.75,11.53125 C10.75,11.7901172 10.5401172,12 10.28125,12 L8.71874998,12 C8.45988279,12 8.24999998,11.7901172 8.24999998,11.53125 Z M13.71875,12 L15.28125,12 C15.5401172,12 15.75,11.7901172 15.75,11.53125 L15.75,9.96874999 C15.75,9.7098828 15.5401172,9.49999999 15.28125,9.49999999 L13.71875,9.49999999 C13.4598828,9.49999999 13.25,9.7098828 13.25,9.96874999 L13.25,11.53125 C13.25,11.7901172 13.4598828,12 13.71875,12 Z M10.75,15.28125 L10.75,13.71875 C10.75,13.4598828 10.5401172,13.25 10.28125,13.25 L8.71874998,13.25 C8.45988279,13.25 8.24999998,13.4598828 8.24999998,13.71875 L8.24999998,15.28125 C8.24999998,15.5401172 8.45988279,15.75 8.71874998,15.75 L10.28125,15.75 C10.5401172,15.75 10.75,15.5401172 10.75,15.28125 Z M13.71875,15.75 L15.28125,15.75 C15.5401172,15.75 15.75,15.5401172 15.75,15.28125 L15.75,13.71875 C15.75,13.4598828 15.5401172,13.25 15.28125,13.25 L13.71875,13.25 C13.4598828,13.25 13.25,13.4598828 13.25,13.71875 L13.25,15.28125 C13.25,15.5401172 13.4598828,15.75 13.71875,15.75 Z M20.75,20.59375 L20.75,22.0000001 L3.24999996,22.0000001 L3.24999996,20.59375 C3.24999996,20.3348829 3.45988277,20.125 3.71874996,20.125 L4.48046871,20.125 L4.48046871,5.32167965 C4.48046871,4.86789059 4.90019528,4.49999996 5.41796872,4.49999996 L8.87499998,4.49999996 L8.87499998,2.93749995 C8.87499998,2.41972651 9.29472655,1.99999995 9.81249999,1.99999995 L14.1875,1.99999995 C14.7052735,1.99999995 15.125,2.41972651 15.125,2.93749995 L15.125,4.49999996 L18.5820313,4.49999996 C19.0998047,4.49999996 19.5195313,4.86789059 19.5195313,5.32167965 L19.5195313,20.125 L20.28125,20.125 C20.5401172,20.125 20.75,20.3348829 20.75,20.59375 Z M6.35546872,20.0859375 L10.75,20.0859375 L10.75,17.46875 C10.75,17.2098828 10.9598828,17 11.21875,17 L12.78125,17 C13.0401172,17 13.25,17.2098828 13.25,17.46875 L13.25,20.0859375 L17.6445313,20.0859375 L17.6445313,6.37499997 L15.125,6.37499997 L15.125,7.31249998 C15.125,7.83027342 14.7052735,8.24999998 14.1875,8.24999998 L9.81249999,8.24999998 C9.29472655,8.24999998 8.87499998,7.83027342 8.87499998,7.31249998 L8.87499998,6.37499997 L6.35546872,6.37499997 L6.35546872,20.0859375 Z M13.640625,4.49999996 L12.625,4.49999996 L12.625,3.48437496 C12.625,3.35493322 12.5200667,3.24999996 12.390625,3.24999996 L11.609375,3.24999996 C11.4799333,3.24999996 11.375,3.35493322 11.375,3.48437496 L11.375,4.49999996 L10.359375,4.49999996 C10.2299333,4.49999996 10.125,4.60493322 10.125,4.73437496 L10.125,5.51562497 C10.125,5.64506671 10.2299333,5.74999997 10.359375,5.74999997 L11.375,5.74999997 L11.375,6.76562497 C11.375,6.89506671 11.4799333,6.99999997 11.609375,6.99999997 L12.390625,6.99999997 C12.5200667,6.99999997 12.625,6.89506671 12.625,6.76562497 L12.625,5.74999997 L13.640625,5.74999997 C13.7700667,5.74999997 13.875,5.64506671 13.875,5.51562497 L13.875,4.73437496 C13.875,4.60493322 13.7700667,4.49999996 13.640625,4.49999996 Z" id="path-1"></path>
    </defs>
    <g id="hospital" stroke="none" stroke-width="1" fill="none" fill-rule="evenodd">
        <mask id="mask-2" fill="white">
            <use xlink:href="#path-1"></use>
        </mask>
        <g fill-rule="nonzero"></g>
        <g id="🎨-color" mask="url(#mask-2)" fill="#000000">
            <rect id="🎨-Color" x="0" y="0" width="24" height="24"></rect>
        </g>
    </g>
</svg>