<?xml version="1.0" encoding="UTF-8"?>
<svg width="24px" height="24px" viewBox="0 0 24 24" version="1.1" xmlns="http://www.w3.org/2000/svg" xmlns:xlink="http://www.w3.org/1999/xlink">
    <!-- Generator: Sketch 52.5 (67469) - http://www.bohemiancoding.com/sketch -->
    <title>hospital-symbol</title>
    <desc>Created with Sketch.</desc>
    <defs>
        <path d="M12,1.99999995 C6.47656247,1.99999995 1.99999995,6.47656247 1.99999995,12 C1.99999995,17.5234375 6.47656247,22.0000001 12,22.0000001 C17.5234375,22.0000001 22.0000001,17.5234375 22.0000001,12 C22.0000001,6.47656247 17.5234375,1.99999995 12,1.99999995 Z M16.375,16.6875 C16.375,16.859375 16.234375,17 16.0625,17 L14.1875,17 C14.015625,17 13.875,16.859375 13.875,16.6875 L13.875,13.25 L10.125,13.25 L10.125,16.6875 C10.125,16.859375 9.98437499,17 9.81249999,17 L7.93749998,17 C7.76562498,17 7.62499998,16.859375 7.62499998,16.6875 L7.62499998,7.31249998 C7.62499998,7.14062498 7.76562498,6.99999997 7.93749998,6.99999997 L9.81249999,6.99999997 C9.98437499,6.99999997 10.125,7.14062498 10.125,7.31249998 L10.125,10.75 L13.875,10.75 L13.875,7.31249998 C13.875,7.14062498 14.015625,6.99999997 14.1875,6.99999997 L16.0625,6.99999997 C16.234375,6.99999997 16.375,7.14062498 16.375,7.31249998 L16.375,16.6875 Z" id="path-1"></path>
    </defs>
    <g id="hospital-symbol" stroke="none" stroke-width="1" fill="none" fill-rule="evenodd">
        <mask id="mask-2" fill="white">
            <use xlink:href="#path-1"></use>
        </mask>
        <g fill-rule="nonzero"></g>
        <g id="🎨-color" mask="url(#mask-2)" fill="#000000">
            <rect id="🎨-Color" x="0" y="0" width="24" height="24"></rect>
        </g>
    </g>
</svg>