<?xml version="1.0" encoding="UTF-8"?>
<svg width="24px" height="24px" viewBox="0 0 24 24" version="1.1" xmlns="http://www.w3.org/2000/svg" xmlns:xlink="http://www.w3.org/1999/xlink">
    <!-- Generator: Sketch 52.5 (67469) - http://www.bohemiancoding.com/sketch -->
    <title>hot-tub</title>
    <desc>Created with Sketch.</desc>
    <defs>
        <path d="M18.1800782,8.93945311 C18.2199219,9.26015624 18.4828125,9.49999999 18.7953125,9.49999999 L19.425,9.49999999 C19.7964844,9.49999999 20.0921875,9.16523436 20.05,8.78320311 C19.8804688,7.25546873 19.175,5.87187497 18.0917969,4.98789059 C17.4132813,4.43437496 16.9660156,3.55234371 16.8425781,2.5601562 C16.803125,2.2398437 16.5398438,1.99999995 16.2277344,1.99999995 L15.5980469,1.99999995 C15.2265625,1.99999995 14.9304688,2.33476558 14.9730469,2.71679683 C15.1425781,4.24453121 15.8480469,5.62812497 16.93125,6.51210935 C17.609375,7.06562498 18.0570313,7.94765623 18.1800782,8.93945311 Z M13.9613281,8.93945311 C14.0011719,9.26015624 14.2640625,9.49999999 14.5765625,9.49999999 L15.20625,9.49999999 C15.5777344,9.49999999 15.8734375,9.16523436 15.83125,8.78320311 C15.6617188,7.25546873 14.95625,5.87187497 13.8730469,4.98789059 C13.1945313,4.43437496 12.7472656,3.55234371 12.6238281,2.5601562 C12.584375,2.2398437 12.3210938,1.99999995 12.0089844,1.99999995 L11.3792969,1.99999995 C11.0078125,1.99999995 10.7117187,2.33476558 10.7542969,2.71679683 C10.9238281,4.24453121 11.6292969,5.62812497 12.7125,6.51210935 C13.390625,7.06562498 13.8382813,7.94765623 13.9613281,8.93945311 Z M20.75,12 L12,12 L7.66679685,8.74999998 C7.23406967,8.42541938 6.70772695,8.2499718 6.16679685,8.24999998 L4.49999996,8.24999998 C3.11914058,8.24999998 1.99999995,9.36914061 1.99999995,10.75 L1.99999995,19.5 C1.99999995,20.8808594 3.11914058,22.0000001 4.49999996,22.0000001 L19.5,22.0000001 C20.8808594,22.0000001 22.0000001,20.8808594 22.0000001,19.5 L22.0000001,13.25 C22.0000001,12.5597656 21.4402344,12 20.75,12 Z M6.99999997,19.1875 C6.99999997,19.3601563 6.86015622,19.5 6.68749997,19.5 L6.06249997,19.5 C5.88984372,19.5 5.74999997,19.3601563 5.74999997,19.1875 L5.74999997,14.8125 C5.74999997,14.6398438 5.88984372,14.5 6.06249997,14.5 L6.68749997,14.5 C6.86015622,14.5 6.99999997,14.6398438 6.99999997,14.8125 L6.99999997,19.1875 Z M10.75,19.1875 C10.75,19.3601563 10.6101562,19.5 10.4375,19.5 L9.81249999,19.5 C9.63984374,19.5 9.49999999,19.3601563 9.49999999,19.1875 L9.49999999,14.8125 C9.49999999,14.6398438 9.63984374,14.5 9.81249999,14.5 L10.4375,14.5 C10.6101562,14.5 10.75,14.6398438 10.75,14.8125 L10.75,19.1875 Z M14.5,19.1875 C14.5,19.3601563 14.3601563,19.5 14.1875,19.5 L13.5625,19.5 C13.3898438,19.5 13.25,19.3601563 13.25,19.1875 L13.25,14.8125 C13.25,14.6398438 13.3898438,14.5 13.5625,14.5 L14.1875,14.5 C14.3601563,14.5 14.5,14.6398438 14.5,14.8125 L14.5,19.1875 Z M18.25,19.1875 C18.25,19.3601563 18.1101563,19.5 17.9375,19.5 L17.3125,19.5 C17.1398438,19.5 17,19.3601563 17,19.1875 L17,14.8125 C17,14.6398438 17.1398438,14.5 17.3125,14.5 L17.9375,14.5 C18.1101563,14.5 18.25,14.6398438 18.25,14.8125 L18.25,19.1875 Z M4.49999996,6.99999997 C5.88085934,6.99999997 6.99999997,5.88085934 6.99999997,4.49999996 C6.99999997,3.11914058 5.88085934,1.99999995 4.49999996,1.99999995 C3.11914058,1.99999995 1.99999995,3.11914058 1.99999995,4.49999996 C1.99999995,5.88085934 3.11914058,6.99999997 4.49999996,6.99999997 Z" id="path-1"></path>
    </defs>
    <g id="hot-tub" stroke="none" stroke-width="1" fill="none" fill-rule="evenodd">
        <mask id="mask-2" fill="white">
            <use xlink:href="#path-1"></use>
        </mask>
        <g fill-rule="nonzero"></g>
        <g id="🎨-color" mask="url(#mask-2)" fill="#000000">
            <rect id="🎨-Color" x="0" y="0" width="24" height="24"></rect>
        </g>
    </g>
</svg>