<?xml version="1.0" encoding="UTF-8"?>
<svg width="24px" height="24px" viewBox="0 0 24 24" version="1.1" xmlns="http://www.w3.org/2000/svg" xmlns:xlink="http://www.w3.org/1999/xlink">
    <!-- Generator: Sketch 52.5 (67469) - http://www.bohemiancoding.com/sketch -->
    <title>hotel</title>
    <desc>Created with Sketch.</desc>
    <defs>
        <path d="M21.4444445,5.3333333 C21.7513889,5.3333333 22.0000001,5.08472219 22.0000001,4.77777774 L22.0000001,3.66666662 C22.0000001,3.35972218 21.7513889,3.11111107 21.4444445,3.11111107 L2.55555551,3.11111107 C2.24861106,3.11111107 1.99999995,3.35972218 1.99999995,3.66666662 L1.99999995,4.77777774 C1.99999995,5.08472219 2.24861106,5.3333333 2.55555551,5.3333333 L3.11041662,5.3333333 L3.11041662,18.6666667 L2.55555551,18.6666667 C2.24861106,18.6666667 1.99999995,18.9152778 1.99999995,19.2222223 L1.99999995,20.3333334 C1.99999995,20.6402778 2.24861106,20.8888889 2.55555551,20.8888889 L10.8888889,20.8888889 L10.8888889,18.1111111 C10.8888889,17.8055556 11.1388889,17.5555556 11.4444444,17.5555556 L12.5555556,17.5555556 C12.8611111,17.5555556 13.1111111,17.8055556 13.1111111,18.1111111 L13.1111111,20.8888889 L21.4444445,20.8888889 C21.7513889,20.8888889 22.0000001,20.6402778 22.0000001,20.3333334 L22.0000001,19.2222223 C22.0000001,18.9152778 21.7513889,18.6666667 21.4444445,18.6666667 L20.8888889,18.6666667 L20.8888889,5.3333333 L21.4444445,5.3333333 Z M10.8888889,6.88888886 C10.8888889,6.66666664 11.1111111,6.44444442 11.3333333,6.44444442 L12.6666667,6.44444442 C12.8888889,6.44444442 13.1111111,6.66666664 13.1111111,6.88888886 L13.1111111,8.2222222 C13.1111111,8.44444443 12.8888889,8.66666665 12.6666667,8.66666665 L11.3333333,8.66666665 C11.1111111,8.66666665 10.8888889,8.44444443 10.8888889,8.2222222 L10.8888889,6.88888886 Z M10.8888889,10.2222222 C10.8888889,9.99999999 11.1111111,9.77777777 11.3333333,9.77777777 L12.6666667,9.77777777 C12.8888889,9.77777777 13.1111111,9.99999999 13.1111111,10.2222222 L13.1111111,11.5555556 C13.1111111,11.7777778 12.8888889,12 12.6666667,12 L11.3333333,12 C11.1111111,12 10.8888889,11.7777778 10.8888889,11.5555556 L10.8888889,10.2222222 Z M6.44444442,6.88888886 C6.44444442,6.66666664 6.66666664,6.44444442 6.88888886,6.44444442 L8.2222222,6.44444442 C8.44444443,6.44444442 8.66666665,6.66666664 8.66666665,6.88888886 L8.66666665,8.2222222 C8.66666665,8.44444443 8.44444443,8.66666665 8.2222222,8.66666665 L6.88888886,8.66666665 C6.66666664,8.66666665 6.44444442,8.44444443 6.44444442,8.2222222 L6.44444442,6.88888886 Z M8.2222222,12 L6.88888886,12 C6.66666664,12 6.44444442,11.7777778 6.44444442,11.5555556 L6.44444442,10.2222222 C6.44444442,9.99999999 6.66666664,9.77777777 6.88888886,9.77777777 L8.2222222,9.77777777 C8.44444443,9.77777777 8.66666665,9.99999999 8.66666665,10.2222222 L8.66666665,11.5555556 C8.66666665,11.7777778 8.44444443,12 8.2222222,12 Z M8.66666665,16.4444445 C8.66666665,14.6034722 10.1590278,13.1111111 12,13.1111111 C13.8409722,13.1111111 15.3333334,14.6034722 15.3333334,16.4444445 L8.66666665,16.4444445 Z M17.5555556,11.5555556 C17.5555556,11.7777778 17.3333334,12 17.1111111,12 L15.7777778,12 C15.5555556,12 15.3333334,11.7777778 15.3333334,11.5555556 L15.3333334,10.2222222 C15.3333334,9.99999999 15.5555556,9.77777777 15.7777778,9.77777777 L17.1111111,9.77777777 C17.3333334,9.77777777 17.5555556,9.99999999 17.5555556,10.2222222 L17.5555556,11.5555556 Z M17.5555556,8.2222222 C17.5555556,8.44444443 17.3333334,8.66666665 17.1111111,8.66666665 L15.7777778,8.66666665 C15.5555556,8.66666665 15.3333334,8.44444443 15.3333334,8.2222222 L15.3333334,6.88888886 C15.3333334,6.66666664 15.5555556,6.44444442 15.7777778,6.44444442 L17.1111111,6.44444442 C17.3333334,6.44444442 17.5555556,6.66666664 17.5555556,6.88888886 L17.5555556,8.2222222 Z" id="path-1"></path>
    </defs>
    <g id="hotel" stroke="none" stroke-width="1" fill="none" fill-rule="evenodd">
        <mask id="mask-2" fill="white">
            <use xlink:href="#path-1"></use>
        </mask>
        <g fill-rule="nonzero"></g>
        <g id="🎨-color" mask="url(#mask-2)" fill="#000000">
            <rect id="🎨-Color" x="0" y="0" width="24" height="24"></rect>
        </g>
    </g>
</svg>