<?xml version="1.0" encoding="UTF-8"?>
<svg width="24px" height="24px" viewBox="0 0 24 24" version="1.1" xmlns="http://www.w3.org/2000/svg" xmlns:xlink="http://www.w3.org/1999/xlink">
    <!-- Generator: Sketch 52.5 (67469) - http://www.bohemiancoding.com/sketch -->
    <title>hourglass-start</title>
    <desc>Created with Sketch.</desc>
    <defs>
        <path d="M18.5625,1.99999995 L5.43749997,1.99999995 C4.91972653,1.99999995 4.49999996,2.41972651 4.49999996,2.93749995 L4.49999996,3.56249996 C4.49999996,4.0802734 4.91972653,4.49999996 5.43749997,4.49999996 C5.43749997,8.05332029 7.43031248,11.0521094 10.1578906,12 C7.43031248,12.9478906 5.43749997,15.9466797 5.43749997,19.5 C4.91972653,19.5 4.49999996,19.9197266 4.49999996,20.4375 L4.49999996,21.0625 C4.49999996,21.5802735 4.91972653,22.0000001 5.43749997,22.0000001 L18.5625,22.0000001 C19.0802735,22.0000001 19.5,21.5802735 19.5,21.0625 L19.5,20.4375 C19.5,19.9197266 19.0802735,19.5 18.5625,19.5 C18.5625,15.9466797 16.5696875,12.9478906 13.8421094,12 C16.5696875,11.0521094 18.5625,8.05332029 18.5625,4.49999996 C19.0802735,4.49999996 19.5,4.0802734 19.5,3.56249996 L19.5,2.93749995 C19.5,2.41972651 19.0802735,1.99999995 18.5625,1.99999995 Z M16.0625,19.5 L7.93749998,19.5 C7.93749998,16.4742969 9.74234374,13.875 12,13.875 C14.2572656,13.875 16.0625,16.4733203 16.0625,19.5 Z" id="path-1"></path>
    </defs>
    <g id="hourglass-start" stroke="none" stroke-width="1" fill="none" fill-rule="evenodd">
        <mask id="mask-2" fill="white">
            <use xlink:href="#path-1"></use>
        </mask>
        <g fill-rule="nonzero"></g>
        <g id="🎨-color" mask="url(#mask-2)" fill="#000000">
            <rect id="🎨-Color" x="0" y="0" width="24" height="24"></rect>
        </g>
    </g>
</svg>