<?xml version="1.0" encoding="UTF-8"?>
<svg width="24px" height="24px" viewBox="0 0 24 24" version="1.1" xmlns="http://www.w3.org/2000/svg" xmlns:xlink="http://www.w3.org/1999/xlink">
    <!-- Generator: Sketch 52.5 (67469) - http://www.bohemiancoding.com/sketch -->
    <title>hourglass</title>
    <desc>Created with Sketch.</desc>
    <defs>
        <path d="M18.875,3.87499996 L19.03125,3.87499996 C19.2901172,3.87499996 19.5,3.66511715 19.5,3.40624996 L19.5,2.46874995 C19.5,2.20988276 19.2901172,1.99999995 19.03125,1.99999995 L4.96874996,1.99999995 C4.70988278,1.99999995 4.49999996,2.20988276 4.49999996,2.46874995 L4.49999996,3.40624996 C4.49999996,3.66511715 4.70988278,3.87499996 4.96874996,3.87499996 L5.12499997,3.87499996 C5.12499997,7.02203123 6.38234372,10.3518359 8.92109373,12 C6.37105466,13.6555078 5.12499997,16.9960938 5.12499997,20.125 L4.96874996,20.125 C4.70988278,20.125 4.49999996,20.3348829 4.49999996,20.59375 L4.49999996,21.53125 C4.49999996,21.7901172 4.70988278,22.0000001 4.96874996,22.0000001 L19.03125,22.0000001 C19.2901172,22.0000001 19.5,21.7901172 19.5,21.53125 L19.5,20.59375 C19.5,20.3348829 19.2901172,20.125 19.03125,20.125 L18.875,20.125 C18.875,16.9779688 17.6176563,13.6481641 15.0789063,12 C17.6289844,10.3444922 18.875,7.00390623 18.875,3.87499996 Z M6.99999997,3.87499996 L17,3.87499996 C17,7.84453123 14.7614453,11.0625 12,11.0625 C9.23855467,11.0625 6.99999997,7.84457029 6.99999997,3.87499996 Z M17,20.125 L6.99999997,20.125 C6.99999997,16.1554688 9.23859374,12.9375 12,12.9375 C14.7614063,12.9375 17,16.1554688 17,20.125 Z" id="path-1"></path>
    </defs>
    <g id="hourglass" stroke="none" stroke-width="1" fill="none" fill-rule="evenodd">
        <mask id="mask-2" fill="white">
            <use xlink:href="#path-1"></use>
        </mask>
        <g fill-rule="nonzero"></g>
        <g id="🎨-color" mask="url(#mask-2)" fill="#000000">
            <rect id="🎨-Color" x="0" y="0" width="24" height="24"></rect>
        </g>
    </g>
</svg>