<?xml version="1.0" encoding="UTF-8"?>
<svg width="24px" height="24px" viewBox="0 0 24 24" version="1.1" xmlns="http://www.w3.org/2000/svg" xmlns:xlink="http://www.w3.org/1999/xlink">
    <!-- Generator: Sketch 52.5 (67469) - http://www.bohemiancoding.com/sketch -->
    <title>house-damage</title>
    <desc>Created with Sketch.</desc>
    <defs>
        <path d="M11.982669,7.11126514 L4.40797223,13.7923744 C4.35181972,13.8429809 4.28006929,13.8665511 4.21837084,13.9084922 L4.21837084,20.3188909 C4.21837084,20.6253033 4.46655109,20.8734836 4.77296357,20.8734836 L9.94558058,20.8734836 L8.65511263,18.3497401 L12.2637782,16.1313692 L10.1785095,11.9989601 L15.3102253,16.7400347 L11.7015598,18.9584056 L13.0852686,20.8734836 L19.1923744,20.8734836 C19.4987869,20.8734836 19.7469671,20.6253033 19.7469671,20.3188909 L19.7469671,13.9098787 C19.6880416,13.8696707 19.6180243,13.8467938 19.5646448,13.7989601 L11.982669,7.11126514 Z M21.7812825,11.3164645 L19.7469671,9.51993066 L19.7469671,4.79029459 C19.7469671,4.48388211 19.4987869,4.23570187 19.1923744,4.23570187 L16.9740035,4.23570187 C16.667591,4.23570187 16.4194108,4.48388211 16.4194108,4.79029459 L16.4194108,6.58197571 L12.9098787,3.48388211 C12.6454073,3.24610048 12.3140381,3.12686304 11.982669,3.12651642 C11.6512998,3.1261698 11.3206239,3.24471399 11.0571924,3.48249562 L2.18405541,11.3164645 C1.95632577,11.5213172 1.93726165,11.8717504 2.14211434,12.0998267 L2.8838821,12.9254766 C3.08838817,13.1532062 3.43916807,13.1722704 3.66724433,12.9674177 L11.6159445,5.95597917 C11.8256499,5.77123047 12.1400347,5.77123047 12.34974,5.95597917 L20.2984402,12.9670711 C20.5261699,13.1715771 20.8769498,13.1528596 21.0818025,12.92513 L21.8235702,12.0994801 C22.0280763,11.8717504 22.0093588,11.5209705 21.7812825,11.3164645 Z" id="path-1"></path>
    </defs>
    <g id="house-damage" stroke="none" stroke-width="1" fill="none" fill-rule="evenodd">
        <mask id="mask-2" fill="white">
            <use xlink:href="#path-1"></use>
        </mask>
        <g fill-rule="nonzero"></g>
        <g id="🎨-color" mask="url(#mask-2)" fill="#000000">
            <rect id="🎨-Color" x="0" y="0" width="24" height="24"></rect>
        </g>
    </g>
</svg>