<?xml version="1.0" encoding="UTF-8"?>
<svg width="24px" height="24px" viewBox="0 0 24 24" version="1.1" xmlns="http://www.w3.org/2000/svg" xmlns:xlink="http://www.w3.org/1999/xlink">
    <!-- Generator: Sketch 52.5 (67469) - http://www.bohemiancoding.com/sketch -->
    <title>hryvnia</title>
    <desc>Created with Sketch.</desc>
    <defs>
        <path d="M18.875,11.375 C19.2203125,11.375 19.5,11.0953125 19.5,10.75 L19.5,9.49999999 C19.5,9.15468749 19.2203125,8.87499998 18.875,8.87499998 L17.2398438,8.87499998 C17.7636719,7.7566406 17.7765625,6.40117185 17.0785157,5.20117184 C16.3492188,3.94687496 14.9335938,3.24999996 13.4828125,3.24999996 L10.4039062,3.24999996 C9.45390624,3.24999996 8.53437498,3.58320308 7.80468748,4.19101559 L7.34492185,4.57421871 C6.9472656,4.90585934 6.89335935,5.49687497 7.22499998,5.89453122 L8.02539061,6.8550781 C8.35703123,7.25312498 8.94804686,7.3066406 9.34609374,6.97499997 L9.80429686,6.59296872 C9.97304686,6.45234372 10.1859375,6.3753906 10.4054687,6.3753906 L13.671875,6.3753906 C14.1285156,6.3753906 14.5,6.7472656 14.5,7.2035156 C14.5,7.43437498 14.403125,7.65585935 14.2339844,7.81210935 L13.0820313,8.87499998 L5.12499997,8.87499998 C4.77968746,8.87499998 4.49999996,9.15468749 4.49999996,9.49999999 L4.49999996,10.75 C4.49999996,11.0953125 4.77968746,11.375 5.12499997,11.375 L10.3738281,11.375 L9.01953124,12.625 L5.12499997,12.625 C4.77968746,12.625 4.49999996,12.9046875 4.49999996,13.25 L4.49999996,14.5 C4.49999996,14.8453125 4.77968746,15.125 5.12499997,15.125 L6.76015622,15.125 C6.2363281,16.2433594 6.22343747,17.5988282 6.92148435,18.7988282 C7.65078123,20.0527344 9.06640624,20.75 10.5171875,20.75 L13.5960938,20.75 C14.5460938,20.75 15.465625,20.4167969 16.1953125,19.8089844 L16.6550781,19.4257813 C17.0527344,19.0941407 17.1066407,18.503125 16.775,18.1054688 L15.9746094,17.1449219 C15.6429688,16.746875 15.0519531,16.6933594 14.6539063,17.025 L14.1949219,17.4078125 C14.0264835,17.5481623 13.8141695,17.6250155 13.5949219,17.625 L10.328125,17.625 C9.87148436,17.625 9.49999999,17.253125 9.49999999,16.796875 C9.49999999,16.5660156 9.59687499,16.3445313 9.76601561,16.1882813 L10.9179687,15.125 L18.875,15.125 C19.2203125,15.125 19.5,14.8453125 19.5,14.5 L19.5,13.25 C19.5,12.9046875 19.2203125,12.625 18.875,12.625 L13.6261719,12.625 L14.9804688,11.375 L18.875,11.375 Z" id="path-1"></path>
    </defs>
    <g id="hryvnia" stroke="none" stroke-width="1" fill="none" fill-rule="evenodd">
        <mask id="mask-2" fill="white">
            <use xlink:href="#path-1"></use>
        </mask>
        <g></g>
        <g id="🎨-color" mask="url(#mask-2)" fill="#000000">
            <rect id="🎨-Color" x="0" y="0" width="24" height="24"></rect>
        </g>
    </g>
</svg>