<?xml version="1.0" encoding="UTF-8"?>
<svg width="24px" height="24px" viewBox="0 0 24 24" version="1.1" xmlns="http://www.w3.org/2000/svg" xmlns:xlink="http://www.w3.org/1999/xlink">
    <!-- Generator: Sketch 52.5 (67469) - http://www.bohemiancoding.com/sketch -->
    <title>hubspot</title>
    <desc>Created with Sketch.</desc>
    <defs>
        <path d="M12.4453125,10.265625 C11.4648437,11.1914062 10.8515625,12.5039063 10.8515625,13.9609375 C10.8515625,15.1054688 11.2304687,16.1601563 11.8671875,17.0078125 L9.93359374,18.953125 C9.76171874,18.890625 9.57812499,18.8554688 9.38671874,18.8554688 C8.96484373,18.8554688 8.57031248,19.0195313 8.27343748,19.3164063 C7.97656248,19.6132813 7.81249998,20.0117188 7.81249998,20.4335938 C7.81249998,20.8554688 7.97656248,21.25 8.27343748,21.546875 C8.57031248,21.84375 8.96874998,22.0000001 9.38671874,22.0000001 C9.80859374,22.0000001 10.203125,21.8476563 10.5039062,21.546875 C10.8007812,21.25 10.9648437,20.8515625 10.9648437,20.4335938 C10.9648437,20.2695313 10.9414062,20.1132813 10.890625,19.9609375 L12.84375,18 C13.703125,18.6601563 14.7734375,19.0507813 15.9414063,19.0507813 C18.75,19.0507813 21.0195313,16.7734375 21.0195313,13.9648438 C21.0195313,11.4179687 19.15625,9.30859374 16.7148438,8.93749998 L16.7148438,6.53124997 C17.3984375,6.24218747 17.8164063,5.60156247 17.8164063,4.85546871 C17.8164063,3.83593746 17,2.98437495 15.9804688,2.98437495 C14.9609375,2.98437495 14.15625,3.83593746 14.15625,4.85546871 C14.15625,5.60156247 14.5742188,6.24218747 15.2578125,6.53124997 L15.2578125,8.92187498 C14.6640625,9.00390624 14.1015625,9.18359374 13.5898438,9.45312499 C12.5117188,8.63671873 8.99999998,6.10546872 6.99218747,4.57812496 C7.03906248,4.40624996 7.07031248,4.22656246 7.07031248,4.03906246 C7.07031248,2.91406245 6.15234372,1.99999995 5.02343747,1.99999995 C3.89843746,1.99999995 2.98437495,2.91406245 2.98437495,4.03906246 C2.98437495,5.16796872 3.89843746,6.08203122 5.02343747,6.08203122 C5.40624997,6.08203122 5.76171872,5.96874997 6.07031247,5.78515622 L12.4453125,10.265625 Z M15.9414063,16.65625 C14.453125,16.65625 13.2460938,15.4492188 13.2460938,13.9609375 C13.2460938,12.4726563 14.453125,11.265625 15.9414063,11.265625 C17.4296875,11.265625 18.6367188,12.4726563 18.6367188,13.9609375 C18.6367188,15.4492188 17.4296875,16.65625 15.9414063,16.65625 Z" id="path-1"></path>
    </defs>
    <g id="hubspot" stroke="none" stroke-width="1" fill="none" fill-rule="evenodd">
        <mask id="mask-2" fill="white">
            <use xlink:href="#path-1"></use>
        </mask>
        <g fill-rule="nonzero"></g>
        <g id="🎨-color" mask="url(#mask-2)" fill="#000000">
            <rect id="🎨-Color" x="0" y="0" width="24" height="24"></rect>
        </g>
    </g>
</svg>