<?xml version="1.0" encoding="UTF-8"?>
<svg width="24px" height="24px" viewBox="0 0 24 24" version="1.1" xmlns="http://www.w3.org/2000/svg" xmlns:xlink="http://www.w3.org/1999/xlink">
    <!-- Generator: Sketch 52.5 (67469) - http://www.bohemiancoding.com/sketch -->
    <title>id-card-alt</title>
    <desc>Created with Sketch.</desc>
    <defs>
        <path d="M20.3333334,5.3333333 L15.3333334,5.3333333 L15.3333334,8.66666665 L8.66666665,8.66666665 L8.66666665,5.3333333 L3.66666662,5.3333333 C2.74652773,5.3333333 1.99999995,6.07986108 1.99999995,6.99999997 L1.99999995,19.2222223 C1.99999995,20.1423612 2.74652773,20.8888889 3.66666662,20.8888889 L20.3333334,20.8888889 C21.2534723,20.8888889 22.0000001,20.1423612 22.0000001,19.2222223 L22.0000001,6.99999997 C22.0000001,6.07986108 21.2534723,5.3333333 20.3333334,5.3333333 Z M12,10.8888889 C13.2256945,10.8888889 14.2222222,11.8854167 14.2222222,13.1111111 C14.2222222,14.3368056 13.2256945,15.3333334 12,15.3333334 C10.7743055,15.3333334 9.77777777,14.3368056 9.77777777,13.1111111 C9.77777777,11.8854167 10.7743055,10.8888889 12,10.8888889 Z M15.2395833,18.6666667 L8.76041665,18.6666667 C8.39930554,18.6666667 8.10763887,18.3194445 8.21874998,17.9791667 C8.50694443,17.0902778 9.34374999,16.4444445 10.3333333,16.4444445 L10.6180555,16.4444445 C11.0451389,16.6215278 11.5104167,16.7222222 12,16.7222222 C12.4895833,16.7222222 12.9583333,16.6215278 13.3819445,16.4444445 L13.6666667,16.4444445 C14.6527778,16.4444445 15.4895834,17.0868056 15.78125,17.9791667 C15.8923611,18.3194445 15.6006945,18.6666667 15.2395833,18.6666667 Z M14.2222222,4.22222218 C14.2222222,3.60763885 13.7256945,3.11111107 13.1111111,3.11111107 L10.8888889,3.11111107 C10.2743055,3.11111107 9.77777777,3.60763885 9.77777777,4.22222218 L9.77777777,7.55555553 L14.2222222,7.55555553 L14.2222222,4.22222218 Z" id="path-1"></path>
    </defs>
    <g id="id-card-alt" stroke="none" stroke-width="1" fill="none" fill-rule="evenodd">
        <mask id="mask-2" fill="white">
            <use xlink:href="#path-1"></use>
        </mask>
        <g fill-rule="nonzero"></g>
        <g id="🎨-color" mask="url(#mask-2)" fill="#000000">
            <rect id="🎨-Color" x="0" y="0" width="24" height="24"></rect>
        </g>
    </g>
</svg>