<?xml version="1.0" encoding="UTF-8"?>
<svg width="24px" height="24px" viewBox="0 0 24 24" version="1.1" xmlns="http://www.w3.org/2000/svg" xmlns:xlink="http://www.w3.org/1999/xlink">
    <!-- Generator: Sketch 52.5 (67469) - http://www.bohemiancoding.com/sketch -->
    <title>id-card</title>
    <desc>Created with Sketch.</desc>
    <defs>
        <path d="M20.3333334,4.22222218 L3.66666662,4.22222218 C2.74652773,4.22222218 1.99999995,4.96874996 1.99999995,5.88888886 L1.99999995,18.1111111 C1.99999995,19.03125 2.74652773,19.7777778 3.66666662,19.7777778 L20.3333334,19.7777778 C21.2534723,19.7777778 22.0000001,19.03125 22.0000001,18.1111111 L22.0000001,5.88888886 C22.0000001,4.96874996 21.2534723,4.22222218 20.3333334,4.22222218 Z M20.3333334,18.1111111 L12.5277778,18.1111111 C12.5590278,17.9548611 12.5555556,18.2361111 12.5555556,17.3333334 C12.5555556,16.2291667 11.5104167,15.3333334 10.2222222,15.3333334 C9.84722221,15.3333334 9.57291665,15.6111111 8.66666665,15.6111111 C7.73263887,15.6111111 7.50694442,15.3333334 7.11111109,15.3333334 C5.82291664,15.3333334 4.77777774,16.2291667 4.77777774,17.3333334 C4.77777774,18.2361111 4.7708333,17.9548611 4.80555552,18.1111111 L3.66666662,18.1111111 L3.66666662,8.11111109 L20.3333334,8.11111109 L20.3333334,18.1111111 Z M14.5,15.3333334 L18.3888889,15.3333334 C18.5416667,15.3333334 18.6666667,15.2083333 18.6666667,15.0555556 L18.6666667,14.5 C18.6666667,14.3472222 18.5416667,14.2222222 18.3888889,14.2222222 L14.5,14.2222222 C14.3472222,14.2222222 14.2222222,14.3472222 14.2222222,14.5 L14.2222222,15.0555556 C14.2222222,15.2083333 14.3472222,15.3333334 14.5,15.3333334 Z M14.5,13.1111111 L18.3888889,13.1111111 C18.5416667,13.1111111 18.6666667,12.9861111 18.6666667,12.8333333 L18.6666667,12.2777778 C18.6666667,12.125 18.5416667,12 18.3888889,12 L14.5,12 C14.3472222,12 14.2222222,12.125 14.2222222,12.2777778 L14.2222222,12.8333333 C14.2222222,12.9861111 14.3472222,13.1111111 14.5,13.1111111 Z M14.5,10.8888889 L18.3888889,10.8888889 C18.5416667,10.8888889 18.6666667,10.7638889 18.6666667,10.6111111 L18.6666667,10.0555555 C18.6666667,9.90277777 18.5416667,9.77777777 18.3888889,9.77777777 L14.5,9.77777777 C14.3472222,9.77777777 14.2222222,9.90277777 14.2222222,10.0555555 L14.2222222,10.6111111 C14.2222222,10.7638889 14.3472222,10.8888889 14.5,10.8888889 Z M8.66666665,14.2222222 C9.8923611,14.2222222 10.8888889,13.2256945 10.8888889,12 C10.8888889,10.7743055 9.8923611,9.77777777 8.66666665,9.77777777 C7.4409722,9.77777777 6.44444442,10.7743055 6.44444442,12 C6.44444442,13.2256945 7.4409722,14.2222222 8.66666665,14.2222222 Z" id="path-1"></path>
    </defs>
    <g id="id-card" stroke="none" stroke-width="1" fill="none" fill-rule="evenodd">
        <mask id="mask-2" fill="white">
            <use xlink:href="#path-1"></use>
        </mask>
        <g fill-rule="nonzero"></g>
        <g id="🎨-color" mask="url(#mask-2)" fill="#000000">
            <rect id="🎨-Color" x="0" y="0" width="24" height="24"></rect>
        </g>
    </g>
</svg>