<?xml version="1.0" encoding="UTF-8"?>
<svg width="24px" height="24px" viewBox="0 0 24 24" version="1.1" xmlns="http://www.w3.org/2000/svg" xmlns:xlink="http://www.w3.org/1999/xlink">
    <!-- Generator: Sketch 52.5 (67469) - http://www.bohemiancoding.com/sketch -->
    <title>image</title>
    <desc>Created with Sketch.</desc>
    <defs>
        <path d="M20.125,4.49999996 L3.87499996,4.49999996 C2.83945308,4.49999996 1.99999995,5.33945309 1.99999995,6.37499997 L1.99999995,17.625 C1.99999995,18.6605469 2.83945308,19.5 3.87499996,19.5 L20.125,19.5 C21.1605469,19.5 22.0000001,18.6605469 22.0000001,17.625 L22.0000001,6.37499997 C22.0000001,5.33945309 21.1605469,4.49999996 20.125,4.49999996 Z M19.890625,17.625 L4.10937496,17.625 C3.97993322,17.625 3.87499996,17.5200668 3.87499996,17.390625 L3.87499996,6.60937497 C3.87499996,6.47993323 3.97993322,6.37499997 4.10937496,6.37499997 L19.890625,6.37499997 C20.0200668,6.37499997 20.125,6.47993323 20.125,6.60937497 L20.125,17.390625 C20.125,17.5200668 20.0200668,17.625 19.890625,17.625 Z M6.99999997,7.93749998 C6.13707028,7.93749998 5.43749997,8.6370703 5.43749997,9.49999999 C5.43749997,10.3629297 6.13707028,11.0625 6.99999997,11.0625 C7.86292967,11.0625 8.56249998,10.3629297 8.56249998,9.49999999 C8.56249998,8.6370703 7.86292967,7.93749998 6.99999997,7.93749998 Z M5.74999997,15.75 L18.25,15.75 L18.25,12.625 L14.8314453,9.2064453 C14.6483985,9.02339842 14.3516016,9.02339842 14.1685156,9.2064453 L9.49999999,13.875 L7.95644529,12.3314453 C7.77339842,12.1483984 7.47660154,12.1483984 7.2935156,12.3314453 L5.74999997,13.875 L5.74999997,15.75 Z" id="path-1"></path>
    </defs>
    <g id="image" stroke="none" stroke-width="1" fill="none" fill-rule="evenodd">
        <mask id="mask-2" fill="white">
            <use xlink:href="#path-1"></use>
        </mask>
        <g fill-rule="nonzero"></g>
        <g id="🎨-color" mask="url(#mask-2)" fill="#000000">
            <rect id="🎨-Color" x="0" y="0" width="24" height="24"></rect>
        </g>
    </g>
</svg>