<?xml version="1.0" encoding="UTF-8"?>
<svg width="24px" height="24px" viewBox="0 0 24 24" version="1.1" xmlns="http://www.w3.org/2000/svg" xmlns:xlink="http://www.w3.org/1999/xlink">
    <!-- Generator: Sketch 52.5 (67469) - http://www.bohemiancoding.com/sketch -->
    <title>images</title>
    <desc>Created with Sketch.</desc>
    <defs>
        <path d="M18.6666667,17.5555556 L18.6666667,18.1111111 C18.6666667,19.0315973 17.9204861,19.7777778 17,19.7777778 L3.66666662,19.7777778 C2.74618051,19.7777778 1.99999995,19.0315973 1.99999995,18.1111111 L1.99999995,9.22222221 C1.99999995,8.30173609 2.74618051,7.55555553 3.66666662,7.55555553 L4.22222218,7.55555553 L4.22222218,9.22222221 L3.87499996,9.22222221 C3.75994064,9.22222221 3.66666662,9.31549622 3.66666662,9.43055554 L3.66666662,17.9027778 C3.66666662,18.0178371 3.75994064,18.1111111 3.87499996,18.1111111 L16.7916667,18.1111111 C16.906726,18.1111111 17,18.0178371 17,17.9027778 L17,17.5555556 L18.6666667,17.5555556 Z M20.125,5.88888886 L7.20833331,5.88888886 C7.09327399,5.88888886 6.99999997,5.98216287 6.99999997,6.09722219 L6.99999997,14.5694445 C6.99999997,14.6845038 7.09327399,14.7777778 7.20833331,14.7777778 L20.125,14.7777778 C20.2400594,14.7777778 20.3333334,14.6845038 20.3333334,14.5694445 L20.3333334,6.09722219 C20.3333334,5.98216287 20.2400594,5.88888886 20.125,5.88888886 Z M20.3333334,4.22222218 C21.2538195,4.22222218 22.0000001,4.96840274 22.0000001,5.88888886 L22.0000001,14.7777778 C22.0000001,15.6982639 21.2538195,16.4444445 20.3333334,16.4444445 L6.99999997,16.4444445 C6.07951386,16.4444445 5.3333333,15.6982639 5.3333333,14.7777778 L5.3333333,5.88888886 C5.3333333,4.96840274 6.07951386,4.22222218 6.99999997,4.22222218 L20.3333334,4.22222218 Z M11.1666667,8.11111109 C11.1666667,8.87815971 10.5448264,9.49999999 9.77777777,9.49999999 C9.01072915,9.49999999 8.38888887,8.87815971 8.38888887,8.11111109 C8.38888887,7.34406248 9.01072915,6.7222222 9.77777777,6.7222222 C10.5448264,6.7222222 11.1666667,7.34406248 11.1666667,8.11111109 Z M8.66666665,11.4444444 L10.0387153,10.0723958 C10.2014236,9.90968749 10.465243,9.90968749 10.6279861,10.0723958 L12,11.4444444 L15.5942709,7.85017359 C15.7569792,7.68746526 16.0207986,7.68746526 16.1835417,7.85017359 L18.6666667,10.3333333 L18.6666667,13.1111111 L8.66666665,13.1111111 L8.66666665,11.4444444 Z" id="path-1"></path>
    </defs>
    <g id="images" stroke="none" stroke-width="1" fill="none" fill-rule="evenodd">
        <mask id="mask-2" fill="white">
            <use xlink:href="#path-1"></use>
        </mask>
        <g fill-rule="nonzero"></g>
        <g id="🎨-color" mask="url(#mask-2)" fill="#000000">
            <rect id="🎨-Color" x="0" y="0" width="24" height="24"></rect>
        </g>
    </g>
</svg>