<?xml version="1.0" encoding="UTF-8"?>
<svg width="24px" height="24px" viewBox="0 0 24 24" version="1.1" xmlns="http://www.w3.org/2000/svg" xmlns:xlink="http://www.w3.org/1999/xlink">
    <!-- Generator: Sketch 52.5 (67469) - http://www.bohemiancoding.com/sketch -->
    <title>imdb</title>
    <desc>Created with Sketch.</desc>
    <defs>
        <path d="M16.9414063,13.2773438 C16.9414063,13.4882813 17.0039063,13.8398438 16.6992188,13.8398438 C16.6367188,13.8398438 16.5820313,13.8085938 16.5507813,13.7460938 C16.4648438,13.546875 16.5078125,12.0234375 16.5078125,12 C16.5078125,11.8515625 16.4648438,11.5039062 16.6992188,11.5039062 C16.984375,11.5039062 16.9414063,11.7890625 16.9414063,12 L16.9414063,13.2773438 Z M13.6015625,10.9804687 C13.6015625,10.6015625 13.6640625,10.3554687 13.1992188,10.3554687 L13.1992188,13.625 C13.6757813,13.6367188 13.6015625,13.2851563 13.6015625,12.90625 L13.6015625,10.9804687 Z M20.75,5.12499997 L20.75,18.875 C20.75,19.9101563 19.9101563,20.75 18.875,20.75 L5.12499997,20.75 C4.08984371,20.75 3.24999996,19.9101563 3.24999996,18.875 L3.24999996,5.12499997 C3.24999996,4.08984371 4.08984371,3.24999996 5.12499997,3.24999996 L18.875,3.24999996 C19.9101563,3.24999996 20.75,4.08984371 20.75,5.12499997 Z M4.12164059,10.9557812 C4.11164059,10.9657812 4.10164059,10.9857812 4.09164059,10.9957812 L4.12164059,10.9957812 L4.12164059,10.9557812 Z M7.03906248,9.49999999 L5.74999997,9.49999999 L5.74999997,14.4921875 L7.03906248,14.4921875 L7.03906248,9.49999999 Z M11.4648437,9.49999999 L9.78124999,9.49999999 L9.48437499,11.8398437 C9.37890624,11.0585937 9.27343749,10.2734375 9.14453124,9.49999999 L7.47265623,9.49999999 L7.47265623,14.4921875 L8.60546873,14.4921875 L8.60546873,11.1914062 L9.08203124,14.4921875 L9.88671874,14.4921875 L10.3398437,11.1171875 L10.3398437,14.4921875 L11.4609375,14.4921875 L11.4609375,9.49999999 L11.4648437,9.49999999 Z M14.8359375,11.2695312 C14.8359375,10.953125 14.8476563,10.6132812 14.78125,10.3164062 C14.6132813,9.43749999 13.5546875,9.49999999 12.8671875,9.49999999 L11.90625,9.49999999 L11.90625,14.4921875 C15.2695313,14.4960938 14.8359375,14.7265625 14.8359375,11.2695312 Z M18.1914063,11.9453125 C18.1914063,11.2695312 18.1601563,10.7695312 17.3242188,10.7695312 C16.9765625,10.7695312 16.7421875,10.875 16.5078125,11.1289062 L16.5078125,9.49999999 L15.2695313,9.49999999 L15.2695313,14.4921875 L16.4335938,14.4921875 L16.5078125,14.1757813 C16.7304688,14.4414063 16.9726563,14.5585938 17.3242188,14.5585938 C18.0976563,14.5585938 18.1914063,13.9648438 18.1914063,13.3515625 L18.1914063,11.9453125 Z" id="path-1"></path>
    </defs>
    <g id="imdb" stroke="none" stroke-width="1" fill="none" fill-rule="evenodd">
        <mask id="mask-2" fill="white">
            <use xlink:href="#path-1"></use>
        </mask>
        <g fill-rule="nonzero"></g>
        <g id="🎨-color" mask="url(#mask-2)" fill="#000000">
            <rect id="🎨-Color" x="0" y="0" width="24" height="24"></rect>
        </g>
    </g>
</svg>