<?xml version="1.0" encoding="UTF-8"?>
<svg width="24px" height="24px" viewBox="0 0 24 24" version="1.1" xmlns="http://www.w3.org/2000/svg" xmlns:xlink="http://www.w3.org/1999/xlink">
    <!-- Generator: Sketch 52.5 (67469) - http://www.bohemiancoding.com/sketch -->
    <title>inbox</title>
    <desc>Created with Sketch.</desc>
    <defs>
        <path d="M21.7200695,11.5801389 L18.0503473,6.07548608 C17.7412176,5.61183503 17.2208317,5.33334211 16.6635764,5.3333333 L7.33642359,5.3333333 C6.77917594,5.33333508 6.25879738,5.61183103 5.94968747,6.07548608 L2.27993051,11.5801389 C2.09739857,11.8539051 1.99999593,12.1755803 1.99999995,12.5046181 L1.99999995,17 C1.99999995,17.9204861 2.74618051,18.6666667 3.66666662,18.6666667 L20.3333334,18.6666667 C21.2538195,18.6666667 22.0000001,17.9204861 22.0000001,17 L22.0000001,12.5046181 C22.0000041,12.1755803 21.9026014,11.8539051 21.7200695,11.5801389 Z M7.63374998,7.55555553 L16.3662847,7.55555553 L19.3292361,12 L15.0555556,12 L13.9444445,14.2222222 L10.0555555,14.2222222 L8.94444443,12 L4.67076385,12 L7.63374998,7.55555553 Z" id="path-1"></path>
    </defs>
    <g id="inbox" stroke="none" stroke-width="1" fill="none" fill-rule="evenodd">
        <mask id="mask-2" fill="white">
            <use xlink:href="#path-1"></use>
        </mask>
        <g fill-rule="nonzero"></g>
        <g id="🎨-color" mask="url(#mask-2)" fill="#000000">
            <rect id="🎨-Color" x="0" y="0" width="24" height="24"></rect>
        </g>
    </g>
</svg>