<?xml version="1.0" encoding="UTF-8"?>
<svg width="24px" height="24px" viewBox="0 0 24 24" version="1.1" xmlns="http://www.w3.org/2000/svg" xmlns:xlink="http://www.w3.org/1999/xlink">
    <!-- Generator: Sketch 52.5 (67469) - http://www.bohemiancoding.com/sketch -->
    <title>infinity</title>
    <desc>Created with Sketch.</desc>
    <defs>
        <path d="M16.721875,6.99999997 C14.65625,6.99999997 13.040625,8.29062498 12,9.45624999 C10.959375,8.29062498 9.34374999,6.99999997 7.27812498,6.99999997 C4.36874996,6.99999997 1.99999995,9.24374999 1.99999995,12 C1.99999995,14.75625 4.36874996,17 7.27812498,17 C9.34374999,17 10.959375,15.709375 12,14.54375 C13.040625,15.709375 14.65625,17 16.721875,17 C19.63125,17 22.0000001,14.75625 22.0000001,12 C22.0000001,9.24374999 19.63125,6.99999997 16.721875,6.99999997 Z M7.27812498,14 C6.02187497,14 4.99999996,13.103125 4.99999996,12 C4.99999996,10.896875 6.02187497,9.99999999 7.27812498,9.99999999 C8.47187498,9.99999999 9.57187499,11.128125 10.215625,12 C9.57812499,12.8625 8.46874998,14 7.27812498,14 Z M16.721875,14 C15.528125,14 14.428125,12.871875 13.784375,12 C14.421875,11.1375 15.53125,9.99999999 16.721875,9.99999999 C17.978125,9.99999999 19,10.896875 19,12 C19,13.103125 17.978125,14 16.721875,14 Z" id="path-1"></path>
    </defs>
    <g id="infinity" stroke="none" stroke-width="1" fill="none" fill-rule="evenodd">
        <mask id="mask-2" fill="white">
            <use xlink:href="#path-1"></use>
        </mask>
        <g fill-rule="nonzero"></g>
        <g id="🎨-color" mask="url(#mask-2)" fill="#000000">
            <rect id="🎨-Color" x="0" y="0" width="24" height="24"></rect>
        </g>
    </g>
</svg>