<?xml version="1.0" encoding="UTF-8"?>
<svg width="24px" height="24px" viewBox="0 0 24 24" version="1.1" xmlns="http://www.w3.org/2000/svg" xmlns:xlink="http://www.w3.org/1999/xlink">
    <!-- Generator: Sketch 52.5 (67469) - http://www.bohemiancoding.com/sketch -->
    <title>info</title>
    <desc>Created with Sketch.</desc>
    <defs>
        <path d="M9.03124999,18.5714453 L9.81249999,18.5714453 L9.81249999,12.9285547 L9.03124999,12.9285547 C8.59976561,12.9285547 8.24999998,12.5787891 8.24999998,12.1473047 L8.24999998,10.28125 C8.24999998,9.84976561 8.59976561,9.49999999 9.03124999,9.49999999 L13.40625,9.49999999 C13.8377344,9.49999999 14.1875,9.84976561 14.1875,10.28125 L14.1875,18.5714453 L14.96875,18.5714453 C15.4002344,18.5714453 15.75,18.921211 15.75,19.3526953 L15.75,21.21875 C15.75,21.6502344 15.4002344,22.0000001 14.96875,22.0000001 L9.03124999,22.0000001 C8.59976561,22.0000001 8.24999998,21.6502344 8.24999998,21.21875 L8.24999998,19.3526953 C8.24999998,18.921211 8.59976561,18.5714453 9.03124999,18.5714453 Z M12,1.99999995 C10.4466797,1.99999995 9.18749999,3.25917964 9.18749999,4.81249996 C9.18749999,6.36582028 10.4466797,7.62499998 12,7.62499998 C13.5533203,7.62499998 14.8125,6.36582028 14.8125,4.81249996 C14.8125,3.25917964 13.5532813,1.99999995 12,1.99999995 Z" id="path-1"></path>
    </defs>
    <g id="info" stroke="none" stroke-width="1" fill="none" fill-rule="evenodd">
        <mask id="mask-2" fill="white">
            <use xlink:href="#path-1"></use>
        </mask>
        <g fill-rule="nonzero"></g>
        <g id="🎨-color" mask="url(#mask-2)" fill="#000000">
            <rect id="🎨-Color" x="0" y="0" width="24" height="24"></rect>
        </g>
    </g>
</svg>