<?xml version="1.0" encoding="UTF-8"?>
<svg width="24px" height="24px" viewBox="0 0 24 24" version="1.1" xmlns="http://www.w3.org/2000/svg" xmlns:xlink="http://www.w3.org/1999/xlink">
    <!-- Generator: Sketch 52.5 (67469) - http://www.bohemiancoding.com/sketch -->
    <title>instagram</title>
    <desc>Created with Sketch.</desc>
    <defs>
        <path d="M12.0039063,7.50781248 C9.51953124,7.50781248 7.51562498,9.51171874 7.51562498,11.9960937 C7.51562498,14.4804688 9.51953124,16.484375 12.0039063,16.484375 C14.4882813,16.484375 16.4921875,14.4804688 16.4921875,11.9960937 C16.4921875,9.51171874 14.4882813,7.50781248 12.0039063,7.50781248 Z M12.0039063,14.9140625 C10.3984375,14.9140625 9.08593749,13.6054688 9.08593749,11.9960937 C9.08593749,10.3867187 10.3945312,9.07812499 12.0039063,9.07812499 C13.6132813,9.07812499 14.921875,10.3867187 14.921875,11.9960937 C14.921875,13.6054688 13.609375,14.9140625 12.0039063,14.9140625 Z M17.7226563,7.32421873 C17.7226563,7.90624998 17.2539063,8.37109373 16.6757813,8.37109373 C16.09375,8.37109373 15.6289063,7.90234373 15.6289063,7.32421873 C15.6289063,6.74609372 16.0976563,6.27734372 16.6757813,6.27734372 C17.2539063,6.27734372 17.7226563,6.74609372 17.7226563,7.32421873 Z M20.6953125,8.38671873 C20.6289063,6.98437497 20.3085938,5.74218747 19.28125,4.71874996 C18.2578125,3.69531246 17.015625,3.37499996 15.6132813,3.30468746 C14.1679688,3.22265621 9.83593749,3.22265621 8.39062498,3.30468746 C6.99218747,3.37109371 5.74999997,3.69140621 4.72265621,4.71484371 C3.69531246,5.73828122 3.37890621,6.98046872 3.30859371,8.38281248 C3.22656246,9.82812499 3.22656246,14.1601563 3.30859371,15.6054688 C3.37499996,17.0078125 3.69531246,18.25 4.72265621,19.2734375 C5.74999997,20.296875 6.98828122,20.6171875 8.39062498,20.6875 C9.83593749,20.7695313 14.1679688,20.7695313 15.6132813,20.6875 C17.015625,20.6210938 18.2578125,20.3007813 19.28125,19.2734375 C20.3046875,18.25 20.625,17.0078125 20.6953125,15.6054688 C20.7773438,14.1601563 20.7773438,9.83203124 20.6953125,8.38671873 Z M18.828125,17.15625 C18.5234375,17.921875 17.9335938,18.5117188 17.1640625,18.8203125 C16.0117188,19.2773438 13.2773438,19.171875 12.0039063,19.171875 C10.7304687,19.171875 7.99218748,19.2734375 6.84374997,18.8203125 C6.07812497,18.515625 5.48828122,17.9257813 5.17968747,17.15625 C4.72265621,16.0039063 4.82812496,13.2695313 4.82812496,11.9960937 C4.82812496,10.7226562 4.72656246,7.98437498 5.17968747,6.83593747 C5.48437497,6.07031247 6.07421872,5.48046872 6.84374997,5.17187497 C7.99609373,4.71484371 10.7304687,4.82031246 12.0039063,4.82031246 C13.2773438,4.82031246 16.015625,4.71874996 17.1640625,5.17187497 C17.9296875,5.47656247 18.5195313,6.06640622 18.828125,6.83593747 C19.2851563,7.98828123 19.1796875,10.7226562 19.1796875,11.9960937 C19.1796875,13.2695313 19.2851563,16.0078125 18.828125,17.15625 Z" id="path-1"></path>
    </defs>
    <g id="instagram" stroke="none" stroke-width="1" fill="none" fill-rule="evenodd">
        <mask id="mask-2" fill="white">
            <use xlink:href="#path-1"></use>
        </mask>
        <g fill-rule="nonzero"></g>
        <g id="🎨-color" mask="url(#mask-2)" fill="#000000">
            <rect id="🎨-Color" x="0" y="0" width="24" height="24"></rect>
        </g>
    </g>
</svg>