<?xml version="1.0" encoding="UTF-8"?>
<svg width="24px" height="24px" viewBox="0 0 24 24" version="1.1" xmlns="http://www.w3.org/2000/svg" xmlns:xlink="http://www.w3.org/1999/xlink">
    <!-- Generator: Sketch 52.5 (67469) - http://www.bohemiancoding.com/sketch -->
    <title>internet-explorer</title>
    <desc>Created with Sketch.</desc>
    <defs>
        <path d="M20.8691016,8.23851561 C21.293125,7.27855466 21.7059766,5.87765622 21.7059766,4.80605465 C21.7059766,1.96535151 18.595,0.963437445 13.515625,3.29914058 C9.31124999,3.01863277 5.26480465,6.17687497 4.25398434,10.5826172 C5.45914059,9.2208203 7.31144529,7.36785154 9.01871092,6.63113279 C6.89859372,8.51757811 5.09093747,10.9063281 3.71843746,13.3955078 C2.90804683,14.8769922 1.99999995,17.2710938 1.99999995,19.0604297 C1.99999995,22.9110157 5.62710934,22.439336 9.04105467,20.7012891 C10.2685156,21.3040235 11.6410156,21.3096094 13.0135156,21.3096094 C16.8074219,21.3096094 20.2107422,19.18875 21.4828125,15.605625 L16.7627735,15.605625 C14.7116406,19.0662891 9.07453124,17.6757813 9.07453124,13.7526563 L21.9179688,13.7526563 C22.1682422,12.0502734 21.8533204,10.0137891 20.8691016,8.23851561 Z M4.5218359,15.5498828 C5.21367184,17.5479297 6.61960935,19.2948438 8.43847654,20.3664454 C4.97203121,22.2781641 1.67023432,21.5030079 4.5218359,15.5498828 Z M9.05218749,11.2970312 C9.13031249,9.1426953 11.0160937,7.59113279 13.1139063,7.59113279 C15.2005469,7.59113279 17.0975391,9.1426953 17.1756641,11.2970312 L9.05218749,11.2970312 Z M16.260625,3.96890621 C17.0975391,3.56707027 18.1576172,3.10941402 19.0949219,3.10941402 C20.3223438,3.10941402 21.215,3.95773433 21.215,5.20792965 C21.215,5.98929684 20.9248829,7.1222656 20.6458985,7.85898435 C19.619336,6.2069531 18.0683203,4.67210934 16.260625,3.96890621 Z" id="path-1"></path>
    </defs>
    <g id="internet-explorer" stroke="none" stroke-width="1" fill="none" fill-rule="evenodd">
        <mask id="mask-2" fill="white">
            <use xlink:href="#path-1"></use>
        </mask>
        <g fill-rule="nonzero"></g>
        <g id="🎨-color" mask="url(#mask-2)" fill="#000000">
            <rect id="🎨-Color" x="0" y="0" width="24" height="24"></rect>
        </g>
    </g>
</svg>