<?xml version="1.0" encoding="UTF-8"?>
<svg width="24px" height="24px" viewBox="0 0 24 24" version="1.1" xmlns="http://www.w3.org/2000/svg" xmlns:xlink="http://www.w3.org/1999/xlink">
    <!-- Generator: Sketch 52.5 (67469) - http://www.bohemiancoding.com/sketch -->
    <title>ioxhost</title>
    <desc>Created with Sketch.</desc>
    <defs>
        <path d="M21.25,8.99999998 L19.146875,8.99999998 C17.975,6.20937497 15.215625,4.24999996 12,4.24999996 C7.71874998,4.24999996 4.24999996,7.71874998 4.24999996,12 C4.24999996,12.5125 4.29999996,13.015625 4.39687496,13.5 L2.74999995,13.5 C2.33437495,13.5 1.99999995,13.8375 1.99999995,14.25 C1.99999995,14.665625 2.33437495,15 2.74999995,15 L4.85312496,15 C6.02499997,17.790625 8.78437498,19.75 12,19.75 C16.28125,19.75 19.75,16.28125 19.75,12 C19.75,11.4875 19.7,10.984375 19.603125,10.5 L21.25,10.5 C21.665625,10.5 22.0000001,10.1625 22.0000001,9.74999999 C22.0000001,9.33437499 21.665625,8.99999998 21.25,8.99999998 Z M18.25,12 C18.25,15.453125 15.453125,18.25 12,18.25 C9.63437499,18.25 7.57499998,16.9375 6.51562497,15 L15.25,15 C15.665625,15 16,14.6625 16,14.25 C16,13.834375 15.665625,13.5 15.25,13.5 L5.93124997,13.5 C5.81249997,13.01875 5.74999997,12.51875 5.74999997,12 C5.74999997,8.54687498 8.54687498,5.74999997 12,5.74999997 C14.365625,5.74999997 16.425,7.06249998 17.484375,8.99999998 L8.74999998,8.99999998 C8.33437498,8.99999998 7.99999998,9.33749999 7.99999998,9.74999999 C7.99999998,10.165625 8.33437498,10.5 8.74999998,10.5 L18.06875,10.5 C18.1875,10.98125 18.25,11.48125 18.25,12 Z M8.74999998,11.25 L15.25,11.25 C15.665625,11.25 16,11.584375 16,12 C16,12.4125 15.665625,12.75 15.25,12.75 L8.74999998,12.75 C8.33437498,12.75 7.99999998,12.415625 7.99999998,12 C7.99999998,11.5875 8.33437498,11.25 8.74999998,11.25 Z" id="path-1"></path>
    </defs>
    <g id="ioxhost" stroke="none" stroke-width="1" fill="none" fill-rule="evenodd">
        <mask id="mask-2" fill="white">
            <use xlink:href="#path-1"></use>
        </mask>
        <g fill-rule="nonzero"></g>
        <g id="🎨-color" mask="url(#mask-2)" fill="#000000">
            <rect id="🎨-Color" x="0" y="0" width="24" height="24"></rect>
        </g>
    </g>
</svg>