<?xml version="1.0" encoding="UTF-8"?>
<svg width="24px" height="24px" viewBox="0 0 24 24" version="1.1" xmlns="http://www.w3.org/2000/svg" xmlns:xlink="http://www.w3.org/1999/xlink">
    <!-- Generator: Sketch 52.5 (67469) - http://www.bohemiancoding.com/sketch -->
    <title>italic</title>
    <desc>Created with Sketch.</desc>
    <defs>
        <path d="M13.7483594,18.25 L12.4261328,18.25 L14.8516016,5.74999997 L16.4424219,5.74999997 C16.7414674,5.74999853 16.9986109,5.53816302 17.0558594,5.2446484 L17.2996875,3.9946484 C17.374961,3.60874996 17.0794532,3.24999996 16.68625,3.24999996 L10.4466797,3.24999996 C10.1476342,3.25000139 9.8904907,3.4618369 9.83324218,3.75535152 L9.58941405,5.00535153 C9.51414061,5.39124997 9.80964843,5.74999997 10.2028516,5.74999997 L11.5249609,5.74999997 L9.0995703,18.25 L7.55773435,18.25 C7.25871304,18.2499942 7.00157812,18.4617899 6.94429685,18.7552735 L6.70035154,20.0052735 C6.6250781,20.391211 6.92058591,20.75 7.3138281,20.75 L13.5044141,20.75 C13.8034354,20.7500059 14.0605703,20.5382102 14.1178516,20.2447266 L14.3617969,18.9947266 C14.4370703,18.6087891 14.1415625,18.25 13.7483594,18.25 Z" id="path-1"></path>
    </defs>
    <g id="italic" stroke="none" stroke-width="1" fill="none" fill-rule="evenodd">
        <mask id="mask-2" fill="white">
            <use xlink:href="#path-1"></use>
        </mask>
        <g></g>
        <g id="🎨-color" mask="url(#mask-2)" fill="#000000">
            <rect id="🎨-Color" x="0" y="0" width="24" height="24"></rect>
        </g>
    </g>
</svg>