<?xml version="1.0" encoding="UTF-8"?>
<svg width="24px" height="24px" viewBox="0 0 24 24" version="1.1" xmlns="http://www.w3.org/2000/svg" xmlns:xlink="http://www.w3.org/1999/xlink">
    <!-- Generator: Sketch 52.5 (67469) - http://www.bohemiancoding.com/sketch -->
    <title>itunes-note</title>
    <desc>Created with Sketch.</desc>
    <defs>
        <path d="M19.4375,17.1640625 C19.1875,18.234375 18.375,18.8359375 17.2851563,19.0390625 C16.328125,19.2148438 15.53125,19.2578125 14.765625,18.640625 C13.8320313,17.8554688 13.8203125,16.5546875 14.6601563,15.734375 C15.3242188,15.1015625 16.2578125,14.9726563 17.6601563,14.7265625 C17.8945313,14.6835938 18.0976563,14.6289063 18.2695313,14.4375 C18.5195313,14.15625 18.4414063,14.2773438 18.4414063,8.06249998 C18.4414063,7.62499998 18.2265625,7.50390623 17.7773438,7.58203123 C17.4570313,7.63671873 10.5234375,8.93359373 10.5234375,8.93359373 C10.125,9.01953124 9.99999999,9.13671874 9.99999999,9.58593749 C9.99999999,18.7539063 10.0429687,18.3320313 9.90234374,18.9414063 C9.73828124,19.6523438 9.30078124,20.1875 8.72265623,20.484375 C8.06640623,20.8476563 6.87890622,21.0078125 6.24609372,20.890625 C4.55859371,20.5742188 3.96484371,18.625 5.10937497,17.5078125 C5.77343747,16.875 6.70703122,16.7460938 8.10937498,16.5 C8.34374998,16.4570313 8.54687498,16.4023438 8.71874998,16.2109375 C9.11328124,15.7617188 8.78906248,6.18749997 8.92187498,5.65624997 C8.95312498,5.45312497 9.03906249,5.28124997 9.19921874,5.15234372 C9.36328124,5.01562497 9.66015624,4.93749996 9.72265624,4.93749996 C17.6914063,3.44531246 18.6640625,3.25390621 18.8007813,3.25390621 C19.25,3.22265621 19.5078125,3.48828121 19.5078125,3.94140621 C19.515625,17.3984375 19.5507813,16.6757813 19.4375,17.1640625 Z" id="path-1"></path>
    </defs>
    <g id="itunes-note" stroke="none" stroke-width="1" fill="none" fill-rule="evenodd">
        <mask id="mask-2" fill="white">
            <use xlink:href="#path-1"></use>
        </mask>
        <g></g>
        <g id="🎨-color" mask="url(#mask-2)" fill="#000000">
            <rect id="🎨-Color" x="0" y="0" width="24" height="24"></rect>
        </g>
    </g>
</svg>