<?xml version="1.0" encoding="UTF-8"?>
<svg width="24px" height="24px" viewBox="0 0 24 24" version="1.1" xmlns="http://www.w3.org/2000/svg" xmlns:xlink="http://www.w3.org/1999/xlink">
    <!-- Generator: Sketch 52.5 (67469) - http://www.bohemiancoding.com/sketch -->
    <title>java</title>
    <desc>Created with Sketch.</desc>
    <defs>
        <path d="M9.37231967,17.4385965 C9.37231967,17.4385965 8.60818712,17.883041 9.91423001,18.0311891 C11.497076,18.2105263 12.3040936,18.1871345 14.0467836,17.8557505 C14.0467836,17.8557505 14.5068226,18.1442495 15.1461988,18.3937622 C11.2397661,20.0662768 6.30409354,18.2962963 9.37231967,17.4385965 M8.89668614,15.251462 C8.89668614,15.251462 8.04288497,15.883041 9.34892786,16.0194932 C11.037037,16.1949318 12.374269,16.2066277 14.6822612,15.7621833 C14.6822612,15.7621833 15.0019493,16.08577 15.5048733,16.2612086 C10.7758285,17.6452242 5.51267053,16.374269 8.89668614,15.251462 M12.920078,11.5438596 C13.8830409,12.6510721 12.6666667,13.6491228 12.6666667,13.6491228 C12.6666667,13.6491228 15.1111111,12.3859649 13.9883041,10.8070175 C12.9395712,9.33333332 12.1364522,8.60038985 16.4873311,6.07797268 C16.4912281,6.07797268 9.65692007,7.78557503 12.920078,11.5438596 M18.0896686,19.0526316 C18.0896686,19.0526316 18.6549708,19.5165692 17.4697856,19.8791423 C15.2124756,20.5614036 8.08187133,20.7680312 6.10136449,19.9064328 C5.3879142,19.5984406 6.72514617,19.165692 7.14619881,19.0760234 C7.58284598,18.9824562 7.83625729,18.9980507 7.83625729,18.9980507 C7.04483428,18.4405458 2.71734888,20.0935673 5.63742687,20.5653022 C13.5984406,21.8596492 20.1559455,19.9844055 18.0896686,19.0526316 M9.73879141,12.9863548 C9.73879141,12.9863548 6.10916176,13.8479532 8.4522417,14.1598441 C9.44249511,14.2923977 11.4152047,14.2612086 13.251462,14.1091618 C14.7524367,13.9844055 16.2612086,13.711501 16.2612086,13.711501 C16.2612086,13.711501 15.7309942,13.9376218 15.3489279,14.1988304 C11.6647173,15.1695907 4.54970757,14.7173489 6.5964912,13.7270955 C8.331384,12.8927875 9.73879141,12.9863548 9.73879141,12.9863548 M16.2495127,16.6237817 C19.9961014,14.6783626 18.2612086,12.8070175 17.0526316,13.0604289 C16.7563353,13.122807 16.6237817,13.1773879 16.6237817,13.1773879 C16.6237817,13.1773879 16.7329435,13.005848 16.9434698,12.9317739 C19.3333334,12.0896686 21.1734893,15.4113061 16.17154,16.7251462 C16.17154,16.7212476 16.2300195,16.6705653 16.2495127,16.6237817 M13.9883041,1.99999995 C13.9883041,1.99999995 16.0623782,4.07407403 12.0194932,7.26315787 C8.77972708,9.82066276 11.2787524,11.2826511 12.0194932,12.9473684 C10.128655,11.2397661 8.74074072,9.73879141 9.67251461,8.33918127 C11.0409357,6.29239763 14.8265107,5.29434695 13.9883041,1.99999995 M10.1091618,21.8986355 C13.7037037,22.128655 19.2241716,21.7699806 19.3528265,20.0701755 C19.3528265,20.0701755 19.1033139,20.7134503 16.3820663,21.2280702 C13.3138402,21.8050683 9.52826509,21.7387915 7.28654968,21.3684211 C7.28654968,21.3645225 7.74658867,21.7465887 10.1091618,21.8986355" id="path-1"></path>
    </defs>
    <g id="java" stroke="none" stroke-width="1" fill="none" fill-rule="evenodd">
        <mask id="mask-2" fill="white">
            <use xlink:href="#path-1"></use>
        </mask>
        <g fill-rule="nonzero"></g>
        <g id="🎨-color" mask="url(#mask-2)" fill="#000000">
            <rect id="🎨-Color" x="0" y="0" width="24" height="24"></rect>
        </g>
    </g>
</svg>