<?xml version="1.0" encoding="UTF-8"?>
<svg width="24px" height="24px" viewBox="0 0 24 24" version="1.1" xmlns="http://www.w3.org/2000/svg" xmlns:xlink="http://www.w3.org/1999/xlink">
    <!-- Generator: Sketch 52.5 (67469) - http://www.bohemiancoding.com/sketch -->
    <title>jedi-order</title>
    <desc>Created with Sketch.</desc>
    <defs>
        <path d="M12.3082031,15.1140625 L13.5363281,13.3214844 L12.7480469,15.4894531 L15.1917969,15.8445313 L12.7480469,16.1992188 L13.6941406,18.0519532 C13.6941406,18.0519532 12.5136719,16.8109375 12.346875,16.6359375 C12.415625,19.3226563 12.4324219,19.9835938 12.4324219,19.9835938 C12.4324219,19.9835938 18.4636719,17.1847657 15.1128906,10.9957031 C15.1128906,10.9957031 19.2914063,6.38359372 15.5070313,3.54531246 C15.5070313,3.54531246 21.971875,7.44804685 17.8722657,14.1492188 C17.8722657,14.1492188 21.2621094,10.8378906 19.4882813,7.48749998 C19.4882813,7.48749998 22.5628907,11.8238281 18.8179688,16.5933594 C18.8179688,16.5933594 19.8429688,15.9625 20.7496094,13.5578125 C20.7496094,13.5578125 20.0882813,20.7164063 12.0792969,20.8101563 L12.0792969,20.8109375 L11.9199219,20.8109375 L11.9199219,20.8101563 C3.91132808,20.7164063 3.24999996,13.5578125 3.24999996,13.5578125 C4.15664059,15.9625 5.18124997,16.5933594 5.18124997,16.5933594 C1.43632807,11.8234375 4.51132809,7.48749998 4.51132809,7.48749998 C2.73749995,10.8382812 6.12773435,14.1492188 6.12773435,14.1492188 C2.02812495,7.44765623 8.49257811,3.54531246 8.49257811,3.54531246 C4.70820309,6.38359372 8.88671873,10.9957031 8.88671873,10.9957031 C5.53593747,17.1847657 11.5671875,19.9835938 11.5671875,19.9835938 C11.5671875,19.9835938 11.5839844,19.3222657 11.6527344,16.6359375 L10.3058594,18.0519532 L11.2519531,16.1992188 L8.80820311,15.8445313 L11.2519531,15.4894531 L10.4636719,13.3214844 L11.6917969,15.1140625 C11.7796875,11.6824219 11.9972656,3.16796871 11.9984375,3.12773433 L11.9988281,3.03281246 L11.9996094,3.07187496 L12.0007813,3.03281246 L12.0011719,3.12773433 C12.003125,3.19492183 12.2203125,11.6902344 12.3082031,15.1140625 Z" id="path-1"></path>
    </defs>
    <g id="jedi-order" stroke="none" stroke-width="1" fill="none" fill-rule="evenodd">
        <mask id="mask-2" fill="white">
            <use xlink:href="#path-1"></use>
        </mask>
        <g></g>
        <g id="🎨-color" mask="url(#mask-2)" fill="#000000">
            <rect id="🎨-Color" x="0" y="0" width="24" height="24"></rect>
        </g>
    </g>
</svg>