<?xml version="1.0" encoding="UTF-8"?>
<svg width="24px" height="24px" viewBox="0 0 24 24" version="1.1" xmlns="http://www.w3.org/2000/svg" xmlns:xlink="http://www.w3.org/1999/xlink">
    <!-- Generator: Sketch 52.5 (67469) - http://www.bohemiancoding.com/sketch -->
    <title>jedi</title>
    <desc>Created with Sketch.</desc>
    <defs>
        <path d="M19.6466912,15.5294118 L21.8113971,13.3650735 C21.932353,12.7474265 22.0000001,12.1106618 22.0000001,11.4584559 C22.0000001,11.2448529 21.975,11.0352941 21.9613971,10.8235294 L20.2352942,10.8235294 L21.7518383,9.30735293 C21.21875,6.92536762 19.8242647,4.78345585 17.7845589,3.34154407 C17.6827206,3.26948525 17.5650736,3.2316176 17.4444853,3.2316176 C17.2470588,3.2316176 17.0617647,3.33124996 16.9485294,3.49779408 C16.8363971,3.66286761 16.8147059,3.86507349 16.8893383,4.05257349 C17.1301471,4.65772055 17.2518383,5.29264703 17.2518383,5.93897056 C17.2518383,7.5977941 16.4786765,9.12169116 15.1308824,10.1202206 C14.9830883,10.2297794 14.8933824,10.3959559 14.8845588,10.5761029 C14.8757353,10.7569853 14.9492647,10.93125 15.0863971,11.0551471 C16.2970588,12.1488971 16.8272059,13.7577206 16.5044118,15.3591912 C16.1463236,17.1367647 14.7088235,18.5613971 12.9268382,18.9069853 L12.8349265,16.5047794 L13.8338235,17.1838236 C13.9433824,17.2595588 14.1055147,17.2459559 14.2022059,17.1544118 C14.3020247,17.0593889 14.3225004,16.9078071 14.2514706,16.7897059 L13.5121324,15.5496324 L15.0588235,15.2290441 C15.194853,15.2014706 15.2933824,15.0801471 15.2933824,14.9411765 C15.2933824,14.8025735 15.1944853,14.6816177 15.0588235,14.6533088 L13.5121324,14.332353 L14.2522059,13.0908088 C14.3227941,12.9720588 14.3014706,12.8220588 14.2014706,12.7264706 C14.1022059,12.6327206 13.9452206,12.6202206 13.8338235,12.6970588 L12.7165441,13.4569853 L12.2926471,2.87132348 C12.2873948,2.71290549 12.1570324,2.58743171 11.9985294,2.58823525 C11.8393382,2.58823525 11.7102941,2.71249995 11.7044118,2.87022054 L11.2808823,13.4573529 L10.1636029,12.6977941 C10.0481618,12.6198529 9.89632352,12.6305147 9.79595587,12.7264706 C9.69595587,12.8216912 9.67463234,12.9716912 9.74595587,13.0919118 L10.4852941,14.3319853 L8.93860293,14.6529412 C8.80257351,14.6805147 8.7040441,14.8018382 8.7040441,14.9408088 C8.7040441,15.0797794 8.80220587,15.201103 8.93860293,15.2286765 L10.4852941,15.5492647 L9.74522058,16.7908088 C9.67463234,16.9095588 9.69595587,17.0602941 9.79632352,17.15625 C9.89154411,17.2463236 10.0547794,17.257353 10.1639706,17.1838236 L11.1625,16.5044118 L11.0705882,18.9036765 C8.97720587,18.4757353 7.39816174,16.6283088 7.39816174,14.4213235 C7.39816174,13.1316177 7.93566174,11.9360294 8.91176469,11.0544118 C9.0485294,10.9308823 9.12205881,10.75625 9.11323528,10.5761029 C9.10441175,10.3959559 9.01470587,10.230147 8.8672794,10.1209559 C7.51911762,9.12242646 6.74558821,7.59816174 6.74558821,5.9393382 C6.74558821,5.29374997 6.86727939,4.65955879 7.10735292,4.05477937 C7.18161762,3.86764702 7.15992645,3.66544113 7.04779409,3.49999996 C6.9345588,3.33308819 6.74889703,3.23345584 6.55110291,3.23345584 C6.42977938,3.23345584 6.31213232,3.27169113 6.21029409,3.34374996 C4.15624996,4.79669114 2.7691176,6.92352939 2.24080877,9.30220587 L3.76213231,10.8235294 L2.02647054,10.8235294 C2.00330877,11.1882353 1.99080877,11.5555147 2.00808819,11.9261029 C2.0308823,12.4198529 2.10147054,12.9014706 2.19595583,13.375 L4.35036761,15.5294118 L2.88308819,15.5294118 C4.39963231,18.8466912 7.7040441,21.2257353 11.5264706,21.401103 C11.6845588,21.4084559 11.8422794,21.4117648 11.9988971,21.4117648 C16.0555147,21.4117648 19.5485294,18.9915442 21.1158089,15.5294118 L19.6466912,15.5294118 Z" id="path-1"></path>
    </defs>
    <g id="jedi" stroke="none" stroke-width="1" fill="none" fill-rule="evenodd">
        <mask id="mask-2" fill="white">
            <use xlink:href="#path-1"></use>
        </mask>
        <g></g>
        <g id="🎨-color" mask="url(#mask-2)" fill="#000000">
            <rect id="🎨-Color" x="0" y="0" width="24" height="24"></rect>
        </g>
    </g>
</svg>