<?xml version="1.0" encoding="UTF-8"?>
<svg width="24px" height="24px" viewBox="0 0 24 24" version="1.1" xmlns="http://www.w3.org/2000/svg" xmlns:xlink="http://www.w3.org/1999/xlink">
    <!-- Generator: Sketch 52.5 (67469) - http://www.bohemiancoding.com/sketch -->
    <title>joget</title>
    <desc>Created with Sketch.</desc>
    <defs>
        <path d="M11.1992187,20.3085938 C10.8476562,19.7773438 10.421875,19.0078125 10.2734375,18.6523438 C10.0507812,18.1171875 9.21093749,16.8710938 11.4921875,16.03125 C13.5117188,15.2851563 18.3945313,15.3867188 19.6484375,15.34375 C19.4921875,15.6953125 19.3125,16.0429688 19.1054688,16.3828125 C17.5273438,18.9414063 14.7929688,20.3476563 11.9960937,20.3476563 C11.7304687,20.3476563 11.4648437,20.3320313 11.1992187,20.3085938 M4.89453121,7.62109373 C7.31249998,3.69531246 12.453125,2.47656245 16.3789063,4.89453121 C19.3007813,6.69531247 20.7226563,10.0078125 20.2578125,13.203125 C19.2851563,13.1835938 13.2539063,13.0625 11.2617187,13.0117188 C9.09374999,12.9570313 8.07031248,12.1992188 8.97656248,11.1289062 C9.88281249,10.0585937 10.9726562,9.53906249 11.6679687,9.12890624 C12.3671875,8.71874998 12.734375,7.81249998 10.7460937,7.96874998 C5.72265622,8.30859373 4.21093746,11.8476562 3.78124996,13.4453125 C3.43749996,11.5039062 3.77734371,9.43359374 4.89453121,7.62109373 M3.75390621,6.91796872 C0.945312445,11.4726562 2.3632812,17.4375 6.91796872,20.2460938 C11.4726562,23.0546876 17.4375,21.6367188 20.2460938,17.0859375 C23.0546876,12.53125 21.6367188,6.56249997 17.0820313,3.75781246 C15.5,2.7773437 13.7421875,2.31249995 12.0078125,2.31249995 C8.75781248,2.31249995 5.58593747,3.94921871 3.75390621,6.91796872 M13.3007813,11.2304687 C12.0703125,12.03125 10.75,12.453125 10.75,12.453125 L17.3710938,12.390625 L19.1875,11.4765625 C19.1875,11.4765625 19.328125,11.1054687 18.4414063,10.8710937 C17.5546875,10.6367187 16.2148438,11.3125 15.0546875,11.9335937 C13.8945313,12.5507813 13.8398438,12.2539063 13.8398438,12.2539063 C13.8398438,12.2539063 15.4101563,11.15625 15.8203125,10.90625 C16.2304688,10.65625 17.0664063,10.359375 16.34375,9.94531249 C16.21875,9.87499999 16.0820313,9.83984374 15.9375,9.83984374 C15.2421875,9.83984374 14.3164063,10.5703125 13.3007813,11.2304687" id="path-1"></path>
    </defs>
    <g id="joget" stroke="none" stroke-width="1" fill="none" fill-rule="evenodd">
        <mask id="mask-2" fill="white">
            <use xlink:href="#path-1"></use>
        </mask>
        <g fill-rule="nonzero"></g>
        <g id="🎨-color" mask="url(#mask-2)" fill="#000000">
            <rect id="🎨-Color" x="0" y="0" width="24" height="24"></rect>
        </g>
    </g>
</svg>