<?xml version="1.0" encoding="UTF-8"?>
<svg width="24px" height="24px" viewBox="0 0 24 24" version="1.1" xmlns="http://www.w3.org/2000/svg" xmlns:xlink="http://www.w3.org/1999/xlink">
    <!-- Generator: Sketch 52.5 (67469) - http://www.bohemiancoding.com/sketch -->
    <title>joint</title>
    <desc>Created with Sketch.</desc>
    <defs>
        <path d="M15.885625,9.65937499 C16.585,10.149375 17,10.945625 17,11.8028125 L17,12.75 C17,12.888125 17.111875,13 17.25,13 L18.75,13 C18.888125,13 19,12.888125 19,12.75 L19,11.8028125 C19,10.4515625 18.3434375,9.19624999 17.239375,8.42593748 C16.4953125,7.90687498 16,7.10437498 16,6.19718747 L16,4.24999996 C16,4.11187496 15.888125,3.99999996 15.75,3.99999996 L14.25,3.99999996 C14.111875,3.99999996 14,4.11187496 14,4.24999996 L14,6.32499997 C14,7.69031248 14.7675,8.87593748 15.885625,9.65937499 Z M8.09281248,15.218125 C5.93843747,15.5646875 3.86531246,16.3340625 1.99999995,17.5 C4.61406246,19.13375 7.63437498,20 10.716875,20 L13.4846875,20 L9.96218749,15.8903125 C9.50156249,15.3528125 8.79187498,15.105625 8.09281248,15.218125 Z M19.29,6.72156247 C19.1128125,6.60281247 19,6.41031247 19,6.19718747 L19,4.24999996 C19,4.11187496 18.888125,3.99999996 18.75,3.99999996 L17.25,3.99999996 C17.111875,3.99999996 17,4.11187496 17,4.24999996 L17,6.19718747 C17,6.88531247 17.3178125,7.55374998 17.895,7.92812498 C19.2121875,8.78249998 20,10.235625 20,11.8028125 L20,12.75 C20,12.888125 20.111875,13 20.25,13 L21.75,13 C21.888125,13 22.0000001,12.888125 22.0000001,12.75 L22.0000001,11.8028125 C22.0000001,9.75781249 20.9871875,7.85937498 19.29,6.72156247 Z M13.2778125,15.0015625 C12.2028125,15.0034375 10.565,15.00625 10.52125,15.006875 L14.2025,19.3015625 C14.5824098,19.7448864 15.137099,20.0000274 15.7209375,20 L18.485,20 L14.7990625,15.7 C14.418597,15.2558191 13.8626627,15.0005781 13.2778125,15.0015625 Z M21.25,15 L15.5,15 L19.1871875,19.3015625 C19.5670973,19.7448864 20.1217865,20.0000274 20.705625,20 L21.25,20 C21.6640625,20 22.0000001,19.6640625 22.0000001,19.25 L22.0000001,15.75 C22.0000001,15.335625 21.6640625,15 21.25,15 Z" id="path-1"></path>
    </defs>
    <g id="joint" stroke="none" stroke-width="1" fill="none" fill-rule="evenodd">
        <mask id="mask-2" fill="white">
            <use xlink:href="#path-1"></use>
        </mask>
        <g fill-rule="nonzero"></g>
        <g id="🎨-color" mask="url(#mask-2)" fill="#000000">
            <rect id="🎨-Color" x="0" y="0" width="24" height="24"></rect>
        </g>
    </g>
</svg>