<?xml version="1.0" encoding="UTF-8"?>
<svg width="24px" height="24px" viewBox="0 0 24 24" version="1.1" xmlns="http://www.w3.org/2000/svg" xmlns:xlink="http://www.w3.org/1999/xlink">
    <!-- Generator: Sketch 52.5 (67469) - http://www.bohemiancoding.com/sketch -->
    <title>joomla</title>
    <desc>Created with Sketch.</desc>
    <defs>
        <path d="M3.27343746,5.59765622 C3.27343746,4.29687496 4.32031246,3.24999996 5.60937497,3.24999996 C6.78124997,3.24999996 7.73828123,4.10546871 7.92187498,5.21093747 C9.19531249,4.91406246 10.5429687,5.23437497 11.6914062,6.38281247 L9.96093749,8.11328123 C9.16015624,7.31249998 8.29687498,7.47656248 7.79687498,7.97656248 C7.23828123,8.53515623 7.23828123,9.45703124 7.79687498,10.015625 L11.6835937,13.9023438 L9.96484374,15.6328125 C6.53906247,12.2265625 8.02343748,13.6914063 6.06640622,11.7382812 C5.01953122,10.703125 4.69921871,9.20703124 5.09765622,7.87499998 C4.04687496,7.64843748 3.27343746,6.71484372 3.27343746,5.59765622 Z M8.33203123,10.1445312 L10.0625,11.875 C10.453125,11.484375 13.5664063,8.37109373 13.9570313,7.97656248 C14.515625,7.41796873 15.4257813,7.41796873 15.984375,7.97656248 C16.484375,8.47656248 16.6484375,9.34374999 15.8476563,10.140625 L17.5664063,11.8710937 C18.7851563,10.6523437 19.0703125,9.23046874 18.6953125,7.91796873 C19.8359375,7.75781248 20.7226563,6.77734372 20.7226563,5.59374997 C20.7226563,4.29687496 19.6757813,3.24609371 18.3867188,3.24609371 C17.203125,3.24609371 16.2226563,4.12499996 16.0625,5.26171872 C14.7421875,4.87499996 13.2617188,5.20312497 12.2226563,6.24218747 C11.5078125,6.98828122 9.44531249,9.03515624 8.33203123,10.1445312 Z M18.734375,16.0898438 C19.0546875,14.8125 18.6992188,13.4140625 17.7070313,12.421875 C17.2460938,11.9453125 17.9023438,12.6054688 13.8203125,8.52734373 L12.0898438,10.2578125 L15.984375,14.1523438 C16.5429688,14.7109375 16.5429688,15.6210938 15.984375,16.1796875 C15.484375,16.6796875 14.6171875,16.84375 13.8203125,16.0429688 L12.1015625,17.7734375 C13.1796875,18.953125 14.7578125,19.2890625 16.1132813,18.8671875 C16.328125,19.9375 17.2734375,20.7460938 18.4140625,20.7460938 C19.703125,20.7460938 20.75,19.6992188 20.75,18.3984375 C20.75,17.21875 19.8710938,16.25 18.734375,16.0898438 Z M15.4414063,14.015625 L13.7226563,12.2851563 C10.3242187,15.6601563 11.7539062,14.2539063 9.82812499,16.1835938 C9.26953124,16.7421875 8.35937498,16.7421875 7.80078123,16.1835938 C7.28906248,15.6601563 7.14062498,14.8046875 7.92578123,14.0195313 L6.20703122,12.2890625 C5.02734372,13.46875 4.72265621,14.8359375 5.05468747,16.1289063 C4.01171871,16.3632813 3.24999996,17.296875 3.24999996,18.4023438 C3.24999996,19.703125 4.29687496,20.75 5.58593747,20.75 C6.70312497,20.75 7.63671873,19.9765625 7.87499998,18.9257813 C9.15234374,19.2460938 10.5507812,18.9023438 11.5546875,17.9101563 C12.8085938,16.6601563 12.03125,17.4257813 15.4414063,14.015625 Z" id="path-1"></path>
    </defs>
    <g id="joomla" stroke="none" stroke-width="1" fill="none" fill-rule="evenodd">
        <mask id="mask-2" fill="white">
            <use xlink:href="#path-1"></use>
        </mask>
        <g fill-rule="nonzero"></g>
        <g id="🎨-color" mask="url(#mask-2)" fill="#000000">
            <rect id="🎨-Color" x="0" y="0" width="24" height="24"></rect>
        </g>
    </g>
</svg>