<?xml version="1.0" encoding="UTF-8"?>
<svg width="24px" height="24px" viewBox="0 0 24 24" version="1.1" xmlns="http://www.w3.org/2000/svg" xmlns:xlink="http://www.w3.org/1999/xlink">
    <!-- Generator: Sketch 52.5 (67469) - http://www.bohemiancoding.com/sketch -->
    <title>journal-whills</title>
    <desc>Created with Sketch.</desc>
    <defs>
        <path d="M20.75,16 L20.75,2.99999995 C20.75,2.37499995 20.375,1.99999995 19.75,1.99999995 L6.99999997,1.99999995 C4.87499996,1.99999995 3.24999996,3.62499996 3.24999996,5.74999997 L3.24999996,18.25 C3.24999996,20.375 4.87499996,22.0000001 6.99999997,22.0000001 L19.75,22.0000001 C20.25,22.0000001 20.75,21.625 20.75,21 L20.75,20.375 C20.75,20.125 20.625,19.875 20.375,19.625 C20.25,19 20.25,17.25 20.375,16.75 C20.625,16.625 20.75,16.375 20.75,16 Z M8.44843748,7.64023435 L9.27890624,8.47070311 C9.33984374,8.53164061 9.41992186,8.56210936 9.49999999,8.56210936 C9.58007811,8.56210936 9.65976561,8.53164061 9.72109374,8.47070311 C9.84296874,8.34882811 9.84296874,8.15078123 9.72109374,8.02890623 L8.68906248,6.99687497 C9.07968749,6.18046872 9.71406249,5.51367184 10.5003906,5.07265622 C10.2664062,5.45312497 10.125,5.89609372 10.125,6.37499997 C10.125,7.15468748 10.4894531,7.8425781 11.0492187,8.30117186 C10.6722656,8.69414061 10.4375,9.22499999 10.4375,9.81249999 C10.4375,10.8648437 11.18125,11.7421875 12.1710938,11.9515625 L12.2242188,10.6738281 L11.8191406,10.9488281 C11.7921875,10.9664062 11.7617187,10.9757812 11.73125,10.9757812 C11.6921875,10.9757812 11.6539062,10.9609375 11.6238281,10.9332031 C11.5708105,10.8829431 11.5596233,10.8026867 11.596875,10.7398437 L11.9304687,10.1808594 L11.2308594,10.0355469 C11.1582031,10.0203125 11.10625,9.95624999 11.10625,9.88242186 C11.10625,9.80859374 11.1582031,9.74453124 11.2308594,9.72929686 L11.9304687,9.58398436 L11.596875,9.02499999 C11.5597656,8.96210936 11.5707031,8.88164061 11.6238281,8.83164061 C11.6769531,8.78085936 11.7582031,8.77539061 11.8191406,8.81562498 L12.2882813,9.13437499 L12.46875,4.80585934 C12.4722656,4.72226559 12.5414063,4.65624996 12.625,4.65624996 C12.7085938,4.65624996 12.7777344,4.72226559 12.78125,4.80585934 L12.9640625,9.19218749 L13.51875,8.81523436 C13.5797849,8.7750005 13.6603972,8.78161072 13.7140625,8.83124998 C13.7670801,8.88150999 13.7782674,8.96176636 13.7410156,9.02460936 L13.4074219,9.58359374 L14.1070313,9.72890624 C14.1796875,9.74414061 14.2316406,9.80820311 14.2316406,9.88203124 C14.2316406,9.95585936 14.1796875,10.0199219 14.1070313,10.0351562 L13.4074219,10.1804687 L13.7410156,10.7394531 C13.778125,10.8023437 13.7671875,10.8828125 13.7140625,10.9328125 C13.6839844,10.9609375 13.6449219,10.9753906 13.6066406,10.9753906 C13.5761719,10.9753906 13.5457031,10.9664062 13.51875,10.9484375 L13.0234375,10.6117187 L13.0792969,11.9507812 C14.06875,11.7421875 14.8125,10.8648437 14.8125,9.81249999 C14.8125,9.22499999 14.5777344,8.69414061 14.2007813,8.30117186 C14.7605469,7.8425781 15.125,7.15468748 15.125,6.37499997 C15.125,5.89609372 14.9835938,5.45312497 14.75,5.07304684 C15.5363281,5.51367184 16.1707031,6.18085935 16.5613281,6.9972656 L15.5292969,8.02929686 C15.4074219,8.15117186 15.4074219,8.34921873 15.5292969,8.47109373 C15.5902344,8.53203123 15.6703125,8.56249998 15.7503906,8.56249998 C15.8304688,8.56249998 15.9101563,8.53203123 15.9714844,8.47109373 L16.8019531,7.64062498 C16.9179688,8.03437498 17,8.44335936 17,8.87499998 C17,8.89531248 16.9945313,8.91367186 16.9941406,8.93398436 L15.5445313,10.2023437 C15.4820421,10.2567816 15.4438203,10.3338754 15.4383221,10.4165684 C15.4328238,10.4992615 15.4605026,10.5807369 15.5152344,10.6429687 C15.5744891,10.7108776 15.6602646,10.7497758 15.7503906,10.7496094 C15.8238281,10.7496094 15.896875,10.7238281 15.95625,10.6722656 L16.8777344,9.86601561 C16.4265625,11.803125 14.6988281,13.25 12.625,13.25 C10.5511719,13.25 8.82343748,11.803125 8.37265623,9.86640624 L9.29414061,10.6726562 C9.35104271,10.7226619 9.42424788,10.7501659 9.49999999,10.75 C9.58671874,10.75 9.67343749,10.7140625 9.73515624,10.6433594 C9.84921874,10.5132812 9.83593749,10.3160156 9.70585936,10.2027344 L8.25624998,8.93437498 C8.25585936,8.91406248 8.25039061,8.89570311 8.25039061,8.87539061 C8.24999998,8.44335936 8.33203123,8.03437498 8.44843748,7.64023435 Z M18.125,19.5 L6.99999997,19.5 C6.24999997,19.5 5.74999997,19 5.74999997,18.25 C5.74999997,17.5 6.37499997,17 6.99999997,17 L18.125,17 L18.125,19.5 Z" id="path-1"></path>
    </defs>
    <g id="journal-whills" stroke="none" stroke-width="1" fill="none" fill-rule="evenodd">
        <mask id="mask-2" fill="white">
            <use xlink:href="#path-1"></use>
        </mask>
        <g fill-rule="nonzero"></g>
        <g id="🎨-color" mask="url(#mask-2)" fill="#000000">
            <rect id="🎨-Color" x="0" y="0" width="24" height="24"></rect>
        </g>
    </g>
</svg>