<?xml version="1.0" encoding="UTF-8"?>
<svg width="24px" height="24px" viewBox="0 0 24 24" version="1.1" xmlns="http://www.w3.org/2000/svg" xmlns:xlink="http://www.w3.org/1999/xlink">
    <!-- Generator: Sketch 52.5 (67469) - http://www.bohemiancoding.com/sketch -->
    <title>js-square</title>
    <desc>Created with Sketch.</desc>
    <defs>
        <path d="M18.875,3.24999996 L5.12499997,3.24999996 C4.08984371,3.24999996 3.24999996,4.08984371 3.24999996,5.12499997 L3.24999996,18.875 C3.24999996,19.9101563 4.08984371,20.75 5.12499997,20.75 L18.875,20.75 C19.9101563,20.75 20.75,19.9101563 20.75,18.875 L20.75,5.12499997 C20.75,4.08984371 19.9101563,3.24999996 18.875,3.24999996 Z M12.7734375,16.8984375 C12.7734375,18.6015625 11.7734375,19.3789063 10.3164062,19.3789063 C8.99999998,19.3789063 8.23828123,18.6992188 7.84765623,17.875 L9.18749999,17.0664063 C9.44531249,17.5234375 9.67968749,17.9101563 10.2460937,17.9101563 C10.7851562,17.9101563 11.1289062,17.6992188 11.1289062,16.875 L11.1289062,11.2851562 L12.7734375,11.2851562 L12.7734375,16.8984375 Z M16.6640625,19.3789063 C15.1367188,19.3789063 14.1484375,18.6523438 13.6679688,17.6992188 L15.0078125,16.9257813 C15.359375,17.5 15.8203125,17.9257813 16.6289063,17.9257813 C17.3085938,17.9257813 17.7460938,17.5859375 17.7460938,17.1132813 C17.7460938,16.5507813 17.3007813,16.3515625 16.546875,16.0195313 L16.1367188,15.84375 C14.9492188,15.3398438 14.1640625,14.703125 14.1640625,13.3632813 C14.1640625,12.1289063 15.1054688,11.1914062 16.5703125,11.1914062 C17.6171875,11.1914062 18.3671875,11.5546875 18.90625,12.5078125 L17.625,13.328125 C17.34375,12.8242188 17.0390625,12.625 16.5664063,12.625 C16.0859375,12.625 15.78125,12.9296875 15.78125,13.328125 C15.78125,13.8203125 16.0859375,14.0195313 16.7929688,14.328125 L17.203125,14.5039063 C18.6015625,15.1015625 19.3867188,15.7148438 19.3867188,17.0898438 C19.3867188,18.5664063 18.2226563,19.3789063 16.6640625,19.3789063 Z" id="path-1"></path>
    </defs>
    <g id="js-square" stroke="none" stroke-width="1" fill="none" fill-rule="evenodd">
        <mask id="mask-2" fill="white">
            <use xlink:href="#path-1"></use>
        </mask>
        <g fill-rule="nonzero"></g>
        <g id="🎨-color" mask="url(#mask-2)" fill="#000000">
            <rect id="🎨-Color" x="0" y="0" width="24" height="24"></rect>
        </g>
    </g>
</svg>