<?xml version="1.0" encoding="UTF-8"?>
<svg width="24px" height="24px" viewBox="0 0 24 24" version="1.1" xmlns="http://www.w3.org/2000/svg" xmlns:xlink="http://www.w3.org/1999/xlink">
    <!-- Generator: Sketch 52.5 (67469) - http://www.bohemiancoding.com/sketch -->
    <title>jsfiddle</title>
    <desc>Created with Sketch.</desc>
    <defs>
        <path d="M19.7303473,11.3563194 C19.5662153,11.2653125 19.5336806,11.1567361 19.5087848,10.9821528 C19.4271181,10.4096528 19.3859028,9.81482638 19.1929167,9.27746526 C17.9465625,5.80673608 13.8460417,4.29878468 10.6217708,6.09531247 C9.6714236,6.62482636 8.92138887,7.35812498 8.34770832,8.31416665 C8.23715276,8.26180554 8.15819443,8.22006943 8.07604165,8.18618054 C7.03083331,7.75489581 6.02572914,7.83475692 5.11315969,8.50447915 C4.22666663,9.15506943 3.8485069,10.0512847 3.97857635,11.1575347 C3.99090274,11.2625694 3.91027774,11.4221528 3.82184024,11.4889583 C2.44295134,12.5303472 1.87631939,14.1995486 2.36690967,15.8158681 C2.84715273,17.398125 4.36392357,18.5865625 6.03385414,18.6434028 C7.08562498,18.6792014 8.13930554,18.6623611 9.19215276,18.6621181 C12.1102431,18.6613889 15.0286111,18.6805556 17.9463195,18.6454514 C19.7749306,18.6234375 21.2834028,17.3651389 21.7036806,15.6144445 C22.1043751,13.9452083 21.3167362,12.2359722 19.7303473,11.3563194 Z M20.4632292,16.8035417 C19.8302431,17.5824306 18.9929861,18.0276042 17.9882292,18.0413889 C16.0134375,18.068507 14.0379861,18.049375 12.0628125,18.049375 C12.0628125,18.0736806 6.40211803,18.0548959 6.37781247,18.0547223 C4.85486108,18.0431945 3.71326385,17.3684028 3.07312496,15.9715625 C2.41680551,14.5394445 2.93409718,12.8171181 4.26013885,11.9401042 C4.5789583,11.7292361 4.69434024,11.5385069 4.61069441,11.1367708 C4.42006941,10.2214583 4.76531246,9.47163193 5.52805552,8.94993054 C6.32621525,8.40399304 7.17465275,8.38930554 8.02923609,8.84288193 C8.38579859,9.03211804 8.53642359,9.24440971 8.79999998,8.75513887 C9.29381943,7.83850692 9.99989582,7.13267359 10.9066319,6.62687497 C14.2906597,4.73916663 18.8361459,6.88965275 18.9010764,11.2344097 C18.9053125,11.5173958 18.9848264,11.6659375 19.2430209,11.7862847 C21.241632,12.7178472 21.8282987,15.1238542 20.4632292,16.8035417 Z M17.415,14.0084375 C17.2119445,15.0902778 16.2128472,15.9214931 15.1002083,15.9214584 C14.5115625,15.9214236 13.9870833,15.6942014 13.5696875,15.3067014 C12.6079861,14.4138889 11.0995139,12.7032292 10.2385417,12.0640972 C9.54215277,11.5471528 8.78055554,11.6358681 8.14576387,12.1954167 C6.40979164,13.7256597 8.69642359,16.4237153 10.4743403,14.8755556 C10.6322569,14.7380556 10.7465625,14.5442014 10.9168403,14.4295833 C11.2010069,14.2382986 11.6378819,14.3988889 11.3740625,14.7984028 C10.7713542,15.7110417 9.66121527,16.1246875 8.63576387,15.8157986 C7.63239581,15.5135764 6.93993053,14.5669097 6.94736109,13.3790278 C6.98989581,12.5982986 7.37666664,11.8838889 8.17701387,11.4357986 C8.96086804,10.9969792 9.7870486,10.9793403 10.5030903,11.5217014 C12.2666667,12.8576389 13.1273264,14.3600695 14.2286458,15.0371528 C15.0813542,15.5614236 16.1124653,15.2928125 16.6183334,14.4293056 C17.619375,12.7206597 15.4172222,10.7829167 13.8798611,12.2258333 C13.7413542,12.3558333 13.6396875,12.5359722 13.4836806,12.6327778 C13.1026042,12.8692708 12.8818403,12.4899653 13.0389236,12.2732986 C13.7577778,11.2818403 14.7911458,10.8691319 15.9302778,11.2936458 C17.0215625,11.7003819 17.6354167,12.8341319 17.415,14.0084375 Z" id="path-1"></path>
    </defs>
    <g id="jsfiddle" stroke="none" stroke-width="1" fill="none" fill-rule="evenodd">
        <mask id="mask-2" fill="white">
            <use xlink:href="#path-1"></use>
        </mask>
        <g fill-rule="nonzero"></g>
        <g id="🎨-color" mask="url(#mask-2)" fill="#000000">
            <rect id="🎨-Color" x="0" y="0" width="24" height="24"></rect>
        </g>
    </g>
</svg>