<?xml version="1.0" encoding="UTF-8"?>
<svg width="24px" height="24px" viewBox="0 0 24 24" version="1.1" xmlns="http://www.w3.org/2000/svg" xmlns:xlink="http://www.w3.org/1999/xlink">
    <!-- Generator: Sketch 52.5 (67469) - http://www.bohemiancoding.com/sketch -->
    <title>kaaba</title>
    <desc>Created with Sketch.</desc>
    <defs>
        <path d="M21.2069325,6.00381279 L13.0350087,3.28006928 C12.352048,3.05233945 11.6136366,3.05233945 10.9306759,3.28006928 L2.7584055,6.00381279 C2.30550241,6.15486028 2.00002908,6.57872548 1.99999995,7.05615249 L1.99999995,8.75493933 L11.1861352,5.99896011 C11.7071057,5.84298091 12.2578856,5.84298091 12.779896,5.99896011 L21.965338,8.75493933 L21.965338,7.05615249 C21.965338,6.57885613 21.6599654,6.15493931 21.2069325,6.00381279 Z M11.505026,7.06169842 L1.99999995,9.91334488 L1.99999995,17.8294628 C1.99999995,18.3493934 2.36117846,18.7993068 2.8686308,18.9123051 L11.2610052,20.7771231 C11.7364236,20.8828427 12.229261,20.8828427 12.7046794,20.7771231 L21.0970538,18.9123051 C21.6045061,18.7996534 21.9656846,18.3493934 21.9656846,17.8294628 L21.9656846,9.91299826 L12.4613518,7.06169842 C12.1480069,6.96741765 11.8169844,6.96741765 11.505026,7.06169842 Z M6.43674174,11.0852686 C6.43674174,11.2103986 6.35320621,11.3199307 6.23258229,11.3528596 L3.45961867,12.1091854 C3.28318886,12.1570191 3.1091854,12.0242634 3.1091854,11.8415945 L3.1091854,11.2668977 C3.1091854,11.1417678 3.19272093,11.0322357 3.31334484,10.9993068 L6.08630846,10.2429809 C6.26273827,10.1948007 6.43674174,10.3275563 6.43674174,10.5105719 L6.43674174,11.0852686 Z M11.4280763,9.72374349 C11.4280763,9.84887347 11.3445407,9.95840554 11.2239168,9.99133448 L7.89636046,10.8987868 C7.71993065,10.9469671 7.54592719,10.8142114 7.54592719,10.6311958 L7.54592719,10.0564991 C7.54592719,9.93136914 7.62946272,9.82183708 7.75008663,9.78890813 L11.077643,8.88145579 C11.2540728,8.83327555 11.4280763,8.96603118 11.4280763,9.14904678 L11.4280763,9.72374349 Z M17.5285962,10.5105719 C17.5285962,10.3275563 17.7025997,10.1948007 17.8790295,10.2429809 L20.6519931,10.9993068 C20.772617,11.0322357 20.8561526,11.1417678 20.8561526,11.2668977 L20.8561526,11.8415945 C20.8561526,12.0246101 20.6821491,12.1573657 20.5057193,12.1091854 L17.7327557,11.3528596 C17.6121397,11.3199165 17.5285093,11.2103024 17.5285962,11.0852686 L17.5285962,10.5105719 Z M12.5372617,9.1493934 C12.5372617,8.9663778 12.7112652,8.83362217 12.887695,8.88180241 L16.2152513,9.78925475 C16.3358752,9.8221837 16.4194108,9.93171576 16.4194108,10.0568457 L16.4194108,10.6315425 C16.4194108,10.8145581 16.2454073,10.9473137 16.0689775,10.8991334 L12.7414211,9.9916811 C12.6208052,9.958738 12.5371748,9.84912386 12.5372617,9.72409011 L12.5372617,9.1493934 Z" id="path-1"></path>
    </defs>
    <g id="kaaba" stroke="none" stroke-width="1" fill="none" fill-rule="evenodd">
        <mask id="mask-2" fill="white">
            <use xlink:href="#path-1"></use>
        </mask>
        <g fill-rule="nonzero"></g>
        <g id="🎨-color" mask="url(#mask-2)" fill="#000000">
            <rect id="🎨-Color" x="0" y="0" width="24" height="24"></rect>
        </g>
    </g>
</svg>