<?xml version="1.0" encoding="UTF-8"?>
<svg width="24px" height="24px" viewBox="0 0 24 24" version="1.1" xmlns="http://www.w3.org/2000/svg" xmlns:xlink="http://www.w3.org/1999/xlink">
    <!-- Generator: Sketch 52.5 (67469) - http://www.bohemiancoding.com/sketch -->
    <title>kaggle</title>
    <desc>Created with Sketch.</desc>
    <defs>
        <path d="M17.6921875,21.8820313 C17.6722657,21.9605469 17.5941407,21.9996094 17.4574219,21.9996094 L14.8433594,21.9996094 C14.6863281,21.9996094 14.55,21.93125 14.4324219,21.79375 L10.1148437,16.3023438 L8.91093748,17.4476563 L8.91093748,21.70625 C8.91093748,21.9023438 8.81289061,22.0000001 8.61718748,22.0000001 L6.59062497,22.0000001 C6.39453122,22.0000001 6.29687497,21.9023438 6.29687497,21.70625 L6.29687497,2.29335933 C6.29687497,2.09804683 6.39453122,1.99999995 6.59062497,1.99999995 L8.61718748,1.99999995 C8.81289061,1.99999995 8.91093748,2.09804683 8.91093748,2.29335933 L8.91093748,14.2464844 L14.0796875,9.01914061 C14.2167969,8.88242186 14.3539063,8.81367186 14.490625,8.81367186 L17.1929688,8.81367186 C17.4648438,8.81367186 17.5015625,9.12109374 17.3984375,9.22460936 L11.9355469,14.5101563 L17.6332032,21.5882813" id="path-1"></path>
    </defs>
    <g id="kaggle" stroke="none" stroke-width="1" fill="none" fill-rule="evenodd">
        <mask id="mask-2" fill="white">
            <use xlink:href="#path-1"></use>
        </mask>
        <g></g>
        <g id="🎨-color" mask="url(#mask-2)" fill="#000000">
            <rect id="🎨-Color" x="0" y="0" width="24" height="24"></rect>
        </g>
    </g>
</svg>