<?xml version="1.0" encoding="UTF-8"?>
<svg width="24px" height="24px" viewBox="0 0 24 24" version="1.1" xmlns="http://www.w3.org/2000/svg" xmlns:xlink="http://www.w3.org/1999/xlink">
    <!-- Generator: Sketch 52.5 (67469) - http://www.bohemiancoding.com/sketch -->
    <title>key</title>
    <desc>Created with Sketch.</desc>
    <defs>
        <path d="M22.0000001,8.87503905 C22.0000001,12.6719922 18.9219532,15.75 15.125,15.75 C14.6867188,15.75 14.2582031,15.7085156 13.8426953,15.6301172 L12.9047266,16.6853516 C12.7268191,16.885499 12.4718107,17.0000097 12.2040234,17 L10.75,17 L10.75,18.5625 C10.75,19.0802735 10.3302734,19.5 9.81249999,19.5 L8.24999998,19.5 L8.24999998,21.0625 C8.24999998,21.5802735 7.83027342,22.0000001 7.31249998,22.0000001 L2.93749995,22.0000001 C2.41972651,22.0000001 1.99999995,21.5802735 1.99999995,21.0625 L1.99999995,18.0133203 C1.99999995,17.7646875 2.09878901,17.526211 2.27457026,17.3503907 L8.59496092,11.03 C8.37140623,10.3521094 8.24999998,9.62777343 8.24999998,8.87499998 C8.24999998,5.07804684 11.3280078,2.00003901 15.124961,1.99999995 C18.933125,1.99996089 22.0000001,5.0668359 22.0000001,8.87503905 Z M15.125,6.99999997 C15.125,8.03554686 15.9644531,8.87499998 17,8.87499998 C18.0355469,8.87499998 18.875,8.03554686 18.875,6.99999997 C18.875,5.96445309 18.0355469,5.12499997 17,5.12499997 C15.9644531,5.12499997 15.125,5.96445309 15.125,6.99999997 Z" id="path-1"></path>
    </defs>
    <g id="key" stroke="none" stroke-width="1" fill="none" fill-rule="evenodd">
        <mask id="mask-2" fill="white">
            <use xlink:href="#path-1"></use>
        </mask>
        <g fill-rule="nonzero"></g>
        <g id="🎨-color" mask="url(#mask-2)" fill="#000000">
            <rect id="🎨-Color" x="0" y="0" width="24" height="24"></rect>
        </g>
    </g>
</svg>