<?xml version="1.0" encoding="UTF-8"?>
<svg width="24px" height="24px" viewBox="0 0 24 24" version="1.1" xmlns="http://www.w3.org/2000/svg" xmlns:xlink="http://www.w3.org/1999/xlink">
    <!-- Generator: Sketch 52.5 (67469) - http://www.bohemiancoding.com/sketch -->
    <title>keybase</title>
    <desc>Created with Sketch.</desc>
    <defs>
        <path d="M10.875,18.8320313 C10.875,19.2148438 10.5625,19.5273438 10.1796875,19.5273438 C9.79687499,19.5273438 9.48437499,19.2148438 9.48437499,18.8320313 C9.48437499,18.4492188 9.79687499,18.1367188 10.1796875,18.1367188 C10.5625,18.1328125 10.875,18.4453125 10.875,18.8320313 Z M14.5,18.1328125 C14.1171875,18.1328125 13.8046875,18.4453125 13.8046875,18.828125 C13.8046875,19.2109375 14.1171875,19.5234375 14.5,19.5234375 C14.8828125,19.5234375 15.1953125,19.2109375 15.1953125,18.828125 C15.1953125,18.4453125 14.8828125,18.1328125 14.5,18.1328125 Z M20.0585938,16.7265625 C20.0585938,18.2460938 19.7617188,19.6132813 19.1914063,20.75 L18.125,20.75 C19.0429688,19.2382813 19.3164063,17.046875 19,15.5039063 C18.3710938,16.65625 16.9648438,17.0117188 15.6445313,16.6289063 C10.6523437,15.1640625 8.12499998,17.3984375 6.48046872,18.59375 L7.21874998,16.2773438 L5.66015622,17.9296875 C5.84765622,18.9726563 6.27343747,19.9335938 6.87890622,20.7539063 L5.75390622,20.7539063 C5.37499997,20.1367188 5.08203122,19.4648438 4.88671871,18.75 L3.95703121,19.734375 C3.95703121,16.8085938 3.74218746,13.96875 6.35937497,11.328125 C7.14843748,10.53125 8.06640623,9.91406249 9.05859374,9.50390624 C8.79296873,8.97656248 8.68749998,8.36328123 8.75390623,7.70703123 L7.97656248,7.66015623 C7.27734373,7.61718748 6.74218747,7.01562498 6.78124997,6.31640622 L6.78124997,6.31249997 L6.84374997,5.28906247 C6.88671872,4.62109371 7.44531248,4.09374996 8.11328123,4.09374996 C8.16406248,4.09374996 8.10156248,4.08984371 9.21484374,4.16015621 C9.75781249,4.19140621 10.0546875,4.54296871 10.1054687,4.60546871 C10.3828125,4.19921871 10.671875,3.80468746 11.0664062,3.25781246 L11.8710937,3.73046871 C11.3398437,4.86328121 11.515625,5.14453122 11.5195312,5.14843747 C11.671875,5.14843747 12.0625,5.12890622 12.7851563,5.37109372 C13.5625,5.62890622 14.1875,6.17968747 14.5390625,6.92187497 C14.5546875,6.95703122 15.1445313,8.05468748 14.5859375,9.36718749 C15.328125,9.60546874 16.5898438,10.1445312 17.8046875,11.390625 C19.234375,12.859375 20.0585938,14.8046875 20.0585938,16.7265625 Z M8.95312498,6.77734372 C9.07812499,6.38671872 9.25390624,6.00781247 9.46484374,5.62890622 C9.46874999,5.55078122 9.55078124,5.11718747 9.16015624,5.08984372 C8.04687498,5.01953122 8.13281248,5.02734372 8.11718748,5.02734372 C7.93749998,5.02734372 7.79296873,5.16406247 7.78124998,5.34374997 L7.71874998,6.36718747 C7.70703123,6.55078122 7.85156248,6.71093747 8.03515623,6.72265622 L8.95312498,6.77734372 Z M9.96093749,9.19140624 C10.1796875,9.55859374 10.5117187,9.82031249 10.8320312,9.97265624 C10.8320312,9.14453124 11.9453125,8.33593748 12.8945313,9.28906249 L13.2226563,9.69140624 C14.0351563,8.95703123 13.9804688,7.92187498 13.6953125,7.31249998 C13.15625,6.17578122 11.8632812,6.06249997 11.5742187,6.07421872 C11.171875,6.08984372 10.8046875,5.86328122 10.6484375,5.47656247 C10.1132812,6.30468747 9.19531249,7.91796873 9.96093749,9.19140624 Z M13.1992188,11.8632812 L12.4296875,12.4921875 C12.3554688,12.5546875 12.34375,12.6640625 12.40625,12.7382813 L12.7539063,13.1640625 C12.7929688,13.2109375 12.9023438,13.2695313 13,13.1875 L13.765625,12.5625 L13.9804688,12.828125 C14.171875,13.0625 14.5195313,12.7734375 14.3320313,12.5429688 C11.8476562,9.48437499 12.7109375,10.546875 12.171875,9.88281249 C11.9882812,9.64843749 11.6289062,9.93749999 11.8203125,10.1679687 C11.8945312,10.2578125 12.5390625,11.0507812 12.59375,11.1171875 L12.21875,11.4257812 C12.0390625,11.5742187 12.3203125,11.9453125 12.5078125,11.7929687 L12.8867188,11.4804687 L13.1992188,11.8632812 Z M17.8242188,12.8671875 C17.1640625,11.9414062 16.1601563,11.0429687 14.9570313,10.5078125 C14.6484375,10.3710937 14.3710938,10.2695312 14.0625,10.171875 C13.984375,10.2578125 13.9023438,10.3398437 13.8125,10.4140625 L15.0585938,11.9453125 C15.4648438,12.4414063 15.390625,13.1757813 14.8945313,13.5820313 C14.84375,13.625 14.3828125,14 13.7617188,13.7734375 C13.6484375,13.8632813 13.3671875,14.1601563 12.8945313,14.1601563 C12.5585938,14.1601563 12.2460938,14.0117188 12.03125,13.75 L11.6835937,13.3242188 C11.4375,13.0195313 11.375,12.625 11.4882812,12.2773438 C11.1679687,11.890625 11.1640625,11.4453125 11.3085937,11.1054687 C11.0273437,11.0546875 10.265625,10.8632812 9.64062499,10.2695312 C7.46093748,11.078125 6.20312497,12.7851563 5.68359372,13.8320313 C5.10156247,15.0117188 4.94921871,16.2109375 4.90624996,17.3554688 C5.22656247,17.015625 4.75390621,17.515625 9.35937499,12.6328125 L8.19140623,16.2890625 C10.4492187,15.0742188 13.0351563,14.8828125 15.9023438,15.7265625 C16.8242188,15.9960938 17.6640625,15.7890625 18.0898438,15.1835938 C18.5234375,14.5742188 18.421875,13.7109375 17.8242188,12.8671875 Z M8.27343748,6.19140622 L8.88281248,6.23046872 L8.92187498,5.62109372 L8.31249998,5.58203122 L8.27343748,6.19140622 Z" id="path-1"></path>
    </defs>
    <g id="keybase" stroke="none" stroke-width="1" fill="none" fill-rule="evenodd">
        <mask id="mask-2" fill="white">
            <use xlink:href="#path-1"></use>
        </mask>
        <g fill-rule="nonzero"></g>
        <g id="🎨-color" mask="url(#mask-2)" fill="#000000">
            <rect id="🎨-Color" x="0" y="0" width="24" height="24"></rect>
        </g>
    </g>
</svg>