<?xml version="1.0" encoding="UTF-8"?>
<svg width="24px" height="24px" viewBox="0 0 24 24" version="1.1" xmlns="http://www.w3.org/2000/svg" xmlns:xlink="http://www.w3.org/1999/xlink">
    <!-- Generator: Sketch 52.5 (67469) - http://www.bohemiancoding.com/sketch -->
    <title>keyboard</title>
    <desc>Created with Sketch.</desc>
    <defs>
        <path d="M20.3333334,5.3333333 L3.66666662,5.3333333 C2.74618051,5.3333333 1.99999995,6.07951386 1.99999995,6.99999997 L1.99999995,17 C1.99999995,17.9204861 2.74618051,18.6666667 3.66666662,18.6666667 L20.3333334,18.6666667 C21.2538195,18.6666667 22.0000001,17.9204861 22.0000001,17 L22.0000001,6.99999997 C22.0000001,6.07951386 21.2538195,5.3333333 20.3333334,5.3333333 Z M20.6111112,17 C20.6111112,17.1531597 20.4864931,17.2777778 20.3333334,17.2777778 L3.66666662,17.2777778 C3.5135069,17.2777778 3.38888885,17.1531597 3.38888885,17 L3.38888885,6.99999997 C3.38888885,6.84684025 3.5135069,6.7222222 3.66666662,6.7222222 L20.3333334,6.7222222 C20.4864931,6.7222222 20.6111112,6.84684025 20.6111112,6.99999997 L20.6111112,17 Z M7.90277776,12.4861111 L7.90277776,11.5138889 C7.90277776,11.2837847 7.71621526,11.0972222 7.48611109,11.0972222 L6.51388886,11.0972222 C6.28378469,11.0972222 6.09722219,11.2837847 6.09722219,11.5138889 L6.09722219,12.4861111 C6.09722219,12.7162153 6.28378469,12.9027778 6.51388886,12.9027778 L7.48611109,12.9027778 C7.71621526,12.9027778 7.90277776,12.7162153 7.90277776,12.4861111 Z M11.2361111,12.4861111 L11.2361111,11.5138889 C11.2361111,11.2837847 11.0495486,11.0972222 10.8194444,11.0972222 L9.84722221,11.0972222 C9.61711804,11.0972222 9.43055554,11.2837847 9.43055554,11.5138889 L9.43055554,12.4861111 C9.43055554,12.7162153 9.61711804,12.9027778 9.84722221,12.9027778 L10.8194444,12.9027778 C11.0495486,12.9027778 11.2361111,12.7162153 11.2361111,12.4861111 Z M14.5694445,12.4861111 L14.5694445,11.5138889 C14.5694445,11.2837847 14.382882,11.0972222 14.1527778,11.0972222 L13.1805556,11.0972222 C12.9504514,11.0972222 12.7638889,11.2837847 12.7638889,11.5138889 L12.7638889,12.4861111 C12.7638889,12.7162153 12.9504514,12.9027778 13.1805556,12.9027778 L14.1527778,12.9027778 C14.382882,12.9027778 14.5694445,12.7162153 14.5694445,12.4861111 Z M17.9027778,12.4861111 L17.9027778,11.5138889 C17.9027778,11.2837847 17.7162153,11.0972222 17.4861111,11.0972222 L16.5138889,11.0972222 C16.2837847,11.0972222 16.0972222,11.2837847 16.0972222,11.5138889 L16.0972222,12.4861111 C16.0972222,12.7162153 16.2837847,12.9027778 16.5138889,12.9027778 L17.4861111,12.9027778 C17.7162153,12.9027778 17.9027778,12.7162153 17.9027778,12.4861111 Z M6.23611108,15.3333334 L6.23611108,14.3611111 C6.23611108,14.131007 6.04954858,13.9444445 5.81944441,13.9444445 L4.84722219,13.9444445 C4.61711802,13.9444445 4.43055552,14.131007 4.43055552,14.3611111 L4.43055552,15.3333334 C4.43055552,15.5634375 4.61711802,15.75 4.84722219,15.75 L5.81944441,15.75 C6.04954858,15.75 6.23611108,15.5634375 6.23611108,15.3333334 Z M19.5694445,15.3333334 L19.5694445,14.3611111 C19.5694445,14.131007 19.382882,13.9444445 19.1527778,13.9444445 L18.1805556,13.9444445 C17.9504514,13.9444445 17.7638889,14.131007 17.7638889,14.3611111 L17.7638889,15.3333334 C17.7638889,15.5634375 17.9504514,15.75 18.1805556,15.75 L19.1527778,15.75 C19.382882,15.75 19.5694445,15.5634375 19.5694445,15.3333334 Z M6.23611108,9.63888888 L6.23611108,8.66666665 C6.23611108,8.43656248 6.04954858,8.24999998 5.81944441,8.24999998 L4.84722219,8.24999998 C4.61711802,8.24999998 4.43055552,8.43656248 4.43055552,8.66666665 L4.43055552,9.63888888 C4.43055552,9.86899304 4.61711802,10.0555555 4.84722219,10.0555555 L5.81944441,10.0555555 C6.04954858,10.0555555 6.23611108,9.86899304 6.23611108,9.63888888 Z M9.56944443,9.63888888 L9.56944443,8.66666665 C9.56944443,8.43656248 9.38288193,8.24999998 9.15277776,8.24999998 L8.18055554,8.24999998 C7.95045137,8.24999998 7.76388887,8.43656248 7.76388887,8.66666665 L7.76388887,9.63888888 C7.76388887,9.86899304 7.95045137,10.0555555 8.18055554,10.0555555 L9.15277776,10.0555555 C9.38288193,10.0555555 9.56944443,9.86899304 9.56944443,9.63888888 Z M12.9027778,9.63888888 L12.9027778,8.66666665 C12.9027778,8.43656248 12.7162153,8.24999998 12.4861111,8.24999998 L11.5138889,8.24999998 C11.2837847,8.24999998 11.0972222,8.43656248 11.0972222,8.66666665 L11.0972222,9.63888888 C11.0972222,9.86899304 11.2837847,10.0555555 11.5138889,10.0555555 L12.4861111,10.0555555 C12.7162153,10.0555555 12.9027778,9.86899304 12.9027778,9.63888888 Z M16.2361111,9.63888888 L16.2361111,8.66666665 C16.2361111,8.43656248 16.0495486,8.24999998 15.8194445,8.24999998 L14.8472222,8.24999998 C14.6171181,8.24999998 14.4305556,8.43656248 14.4305556,8.66666665 L14.4305556,9.63888888 C14.4305556,9.86899304 14.6171181,10.0555555 14.8472222,10.0555555 L15.8194445,10.0555555 C16.0495486,10.0555555 16.2361111,9.86899304 16.2361111,9.63888888 Z M19.5694445,9.63888888 L19.5694445,8.66666665 C19.5694445,8.43656248 19.382882,8.24999998 19.1527778,8.24999998 L18.1805556,8.24999998 C17.9504514,8.24999998 17.7638889,8.43656248 17.7638889,8.66666665 L17.7638889,9.63888888 C17.7638889,9.86899304 17.9504514,10.0555555 18.1805556,10.0555555 L19.1527778,10.0555555 C19.382882,10.0555555 19.5694445,9.86899304 19.5694445,9.63888888 Z M16.1666667,15.125 L16.1666667,14.5694445 C16.1666667,14.3393403 15.9801042,14.1527778 15.75,14.1527778 L8.24999998,14.1527778 C8.01989581,14.1527778 7.83333331,14.3393403 7.83333331,14.5694445 L7.83333331,15.125 C7.83333331,15.3551042 8.01989581,15.5416667 8.24999998,15.5416667 L15.75,15.5416667 C15.9801042,15.5416667 16.1666667,15.3551042 16.1666667,15.125 Z" id="path-1"></path>
    </defs>
    <g id="keyboard" stroke="none" stroke-width="1" fill="none" fill-rule="evenodd">
        <mask id="mask-2" fill="white">
            <use xlink:href="#path-1"></use>
        </mask>
        <g fill-rule="nonzero"></g>
        <g id="🎨-color" mask="url(#mask-2)" fill="#000000">
            <rect id="🎨-Color" x="0" y="0" width="24" height="24"></rect>
        </g>
    </g>
</svg>