<?xml version="1.0" encoding="UTF-8"?>
<svg width="24px" height="24px" viewBox="0 0 24 24" version="1.1" xmlns="http://www.w3.org/2000/svg" xmlns:xlink="http://www.w3.org/1999/xlink">
    <!-- Generator: Sketch 52.5 (67469) - http://www.bohemiancoding.com/sketch -->
    <title>keycdn</title>
    <desc>Created with Sketch.</desc>
    <defs>
        <path d="M4.49218746,17.9882813 L6.85546872,15.6835938 C8.10937498,17.3554688 9.63281249,18.2617188 11.8007812,18.3164063 C12.9921875,18.34375 14.15625,18.0429688 15.1757813,17.4414063 C15.375,17.6484375 15.8984375,18.203125 15.9921875,18.3007813 C14.734375,19.109375 13.2734375,19.515625 11.7695312,19.4804688 C10.078125,19.4375 8.46484373,18.828125 7.17187498,17.7460938 C7.18359373,17.7226563 5.67968747,19.2109375 5.66406247,19.2265625 C6.03515622,20.390625 5.15234372,21.6640625 3.85546871,21.6640625 C2.8085937,21.6601563 1.99999995,20.8164063 1.99999995,19.7695313 C1.99999995,18.4296875 3.29296871,17.5585938 4.49218746,17.9882813 Z M18.3554688,8.12890623 C19.1015625,9.35156249 19.5117188,10.7617187 19.4765625,12.1914063 C19.4335938,13.9414063 18.734375,15.609375 17.578125,16.9179688 C17.5898438,16.9296875 18.5078125,17.9023438 18.5195313,17.9140625 C18.8945313,17.8632813 19.2695313,17.9921875 19.53125,18.2695313 C19.9726563,18.7382813 19.9570313,19.4765625 19.4882813,19.9257813 C19.0195313,20.3671875 18.28125,20.3515625 17.8320313,19.8828125 C17.5703125,19.609375 17.4648438,19.2265625 17.5351563,18.8554688 C16.5625,17.8164063 15.8007813,17.0117188 15.8007813,17.0117188 C17.46875,15.6796875 18.2734375,13.9023438 18.3164063,12.1601563 C18.34375,11.03125 18.0351563,9.92578124 17.4921875,8.94921873 L18.3554688,8.12890623 Z M6.06249997,4.07421871 C6.32421872,4.34765621 6.42968747,4.73046871 6.35937497,5.10156247 L8.15234373,6.98046872 C7.96874998,7.12890623 7.63281248,7.38671873 7.26171873,7.81249998 C6.26953122,8.92578123 5.71484372,10.34375 5.67187497,11.8320312 C5.64453122,12.9609375 5.91015622,14.0664063 6.45312497,15.0507813 L5.59374997,15.890625 C4.83984371,14.65625 4.46484371,13.2460938 4.50781246,11.8007812 C4.54687496,10.0585937 5.22265622,8.37890623 6.36328122,7.07031248 L5.37499997,6.03906247 C4.99999996,6.08984372 4.62499996,5.96093747 4.36328121,5.68359372 C3.92187496,5.21484372 3.93749996,4.47656246 4.40624996,4.02734371 C4.87109371,3.58984371 5.60156247,3.60156246 6.06249997,4.07421871 Z M20.1601563,2.31249995 C21.1757813,2.31249995 22.0000001,3.18749996 22.0000001,4.19921871 C22.0000001,5.21093747 21.1757813,6.06249997 20.1601563,6.06249997 C19.9140625,6.06640622 19.6132813,6.01953122 19.5390625,5.99218747 L17.0820313,8.32421873 C15.8046875,6.62109372 14.0859375,5.74999997 12.125,5.69921872 C10.9335937,5.67187497 9.76953124,5.96484372 8.75781248,6.57421872 L7.93359373,5.71484372 C9.19140624,4.90234371 10.6523437,4.49999996 12.15625,4.53515621 C13.8476563,4.57812496 15.4609375,5.18749997 16.7539063,6.27734372 L18.359375,4.76953121 C18.3007813,4.58593746 18.2734375,4.39453121 18.2734375,4.20312496 C18.2695313,3.16015621 19.1445313,2.31249995 20.1601563,2.31249995 Z M12.0273438,6.42968747 C12.2421875,6.42968747 12.453125,6.44531247 12.6679688,6.47265622 C15.71875,6.85546872 17.8789063,9.64062499 17.5039063,12.6875 C17.1210938,15.7382813 14.3359375,17.8984375 11.2890625,17.5234375 C8.23828123,17.140625 6.07812497,14.3554688 6.45312497,11.3046875 C6.81640622,8.47656248 9.19140624,6.43749997 12.0273438,6.42968747 Z M9.72265624,11.09375 C9.74609374,11.9804687 10.1992187,12.7265625 10.9882812,13.1328125 L10.5585937,15.1523438 L13.4375,15.1523438 L13.0078125,13.1328125 C13.7929688,12.7070313 14.2617188,12 14.2734375,11.09375 C14.2578125,9.81249999 13.265625,8.84765623 11.9960937,8.81640623 C10.7421875,8.84765623 9.75781249,9.78515624 9.72265624,11.09375 Z" id="path-1"></path>
    </defs>
    <g id="keycdn" stroke="none" stroke-width="1" fill="none" fill-rule="evenodd">
        <mask id="mask-2" fill="white">
            <use xlink:href="#path-1"></use>
        </mask>
        <g fill-rule="nonzero"></g>
        <g id="🎨-color" mask="url(#mask-2)" fill="#000000">
            <rect id="🎨-Color" x="0" y="0" width="24" height="24"></rect>
        </g>
    </g>
</svg>