<?xml version="1.0" encoding="UTF-8"?>
<svg width="24px" height="24px" viewBox="0 0 24 24" version="1.1" xmlns="http://www.w3.org/2000/svg" xmlns:xlink="http://www.w3.org/1999/xlink">
    <!-- Generator: Sketch 52.5 (67469) - http://www.bohemiancoding.com/sketch -->
    <title>khanda</title>
    <desc>Created with Sketch.</desc>
    <defs>
        <path d="M18.2304094,4.57309938 C17.9820663,4.43664714 17.6701755,4.48226117 17.4756336,4.69083817 C17.2796715,4.89761842 17.2490068,5.21100813 17.4011696,5.45185182 C18.0440546,6.47173487 18.3836258,7.65029238 18.3836258,8.85964911 C18.3762184,10.9356725 17.339961,12.8631579 15.6050682,14.0218324 L12.6175439,16.1017544 L12.6175439,15.3181287 L14.3348928,13.9111111 C14.4877193,13.7473684 14.5298246,13.5177388 14.4444445,13.3153996 L14.1384016,12.6432749 C15.4576998,11.8923977 16.3582846,10.4892787 16.3582846,8.86198829 C16.3582846,7.27173487 15.4998051,5.89395708 14.2300195,5.13060425 L14.4335283,4.68460035 C14.5247563,4.46900581 14.4697856,4.22339177 14.294347,4.05925922 L11.9945419,1.99999995 L9.69473683,4.05886936 C9.51929823,4.22300191 9.46471734,4.46861595 9.55555554,4.68421049 L9.75906432,5.13021439 C8.48927873,5.89356722 7.6307992,7.27173487 7.6307992,8.86198829 C7.6307992,10.4896686 8.53099413,11.8923977 9.85068225,12.6432749 L9.54463936,13.3153996 C9.45925925,13.5173489 9.50175437,13.7469786 9.65419102,13.9111111 L11.37154,15.3181287 L11.37154,16.0939571 L8.38557503,14.0148148 C6.6596491,12.8623782 5.62339178,10.9352826 5.61637424,8.86159842 C5.61637424,7.64990251 5.95594539,6.471345 6.59883038,5.45146196 C6.74970758,5.21130601 6.69239763,4.91461985 6.49785572,4.7076023 C6.30292395,4.49941517 5.96452239,4.4658869 5.7173489,4.60233914 C2.65575044,6.27290445 1.15009741,10.0038986 2.54035083,13.5395712 C2.81598436,14.2409357 3.23781672,14.879922 3.7278752,15.4522417 L5.90994149,18.0003899 C6.09980504,18.2222223 6.41832356,18.2826511 6.67602337,18.1454191 L9.76959063,16.4990254 L10.9083821,17.291618 L9.07290447,18.5695907 C9.00779726,18.5551657 8.94697854,18.5302145 8.87758283,18.5302145 C8.36101363,18.5302145 7.94230017,18.9489279 7.94230017,19.465887 C7.94230017,19.9824562 8.36101363,20.4015595 8.87758283,20.4015595 C9.34931773,20.4015595 9.72319687,20.0463938 9.78713449,19.5922028 L11.3711501,18.4896686 L11.3711501,19.65731 C11.0050682,19.874464 10.7477583,20.2569201 10.7477583,20.7138402 C10.7477583,21.4027291 11.3060429,21.9614036 11.9945419,21.9614036 C12.6830409,21.9614036 13.2413255,21.4027291 13.2413255,20.7138402 C13.2413255,20.25731 12.9836257,19.8748538 12.6179337,19.65731 L12.6179337,18.4818714 L14.2128655,19.5922028 C14.277193,20.0463938 14.6510721,20.4015595 15.1224172,20.4015595 C15.6389864,20.4015595 16.0576998,19.9824562 16.0576998,19.465887 C16.0576998,18.9489279 15.6389864,18.5302145 15.1224172,18.5302145 C15.0530215,18.5302145 14.9922027,18.5551657 14.9270955,18.5695907 L13.0916179,17.291618 L14.2304094,16.4986355 L17.3239766,18.1450293 C17.5816764,18.2822612 17.900195,18.2218324 18.0900585,18.0003899 L20.137232,15.6101365 C20.8729045,14.7516569 21.4627681,13.7582846 21.7454192,12.6631579 C22.5883041,9.40155944 21.1040936,6.1419103 18.2304094,4.57309938 Z M14.4881092,8.86159842 C14.4881092,9.73099414 14.040156,10.4959064 13.3641326,10.9426901 L13.1438597,10.4588694 C12.802729,9.50292396 12.802729,8.46900583 13.1438597,7.51306041 L13.4491228,6.84327483 C14.0756335,7.29746586 14.4881092,8.03040934 14.4881092,8.86159842 Z M9.50058478,8.86159842 C9.50058478,8.03040934 9.91306042,7.29746586 10.539961,6.84366469 L10.8452242,7.51345027 C11.1863548,8.46939569 11.1863548,9.50292396 10.8452242,10.4592593 L10.6249513,10.9430799 C9.94892786,10.4962963 9.50058478,9.73099414 9.50058478,8.86159842 Z" id="path-1"></path>
    </defs>
    <g id="khanda" stroke="none" stroke-width="1" fill="none" fill-rule="evenodd">
        <mask id="mask-2" fill="white">
            <use xlink:href="#path-1"></use>
        </mask>
        <g fill-rule="nonzero"></g>
        <g id="🎨-color" mask="url(#mask-2)" fill="#000000">
            <rect id="🎨-Color" x="0" y="0" width="24" height="24"></rect>
        </g>
    </g>
</svg>