<?xml version="1.0" encoding="UTF-8"?>
<svg width="24px" height="24px" viewBox="0 0 24 24" version="1.1" xmlns="http://www.w3.org/2000/svg" xmlns:xlink="http://www.w3.org/1999/xlink">
    <!-- Generator: Sketch 52.5 (67469) - http://www.bohemiancoding.com/sketch -->
    <title>kiss</title>
    <desc>Created with Sketch.</desc>
    <defs>
        <path d="M8.87499998,8.87499998 C8.18359373,8.87499998 7.62499998,9.43359374 7.62499998,10.125 C7.62499998,10.8164062 8.18359373,11.375 8.87499998,11.375 C9.56640624,11.375 10.125,10.8164062 10.125,10.125 C10.125,9.43359374 9.56640624,8.87499998 8.87499998,8.87499998 Z M14.1875,14.03125 C14.1875,13.28125 13.0625,12.4101563 11.3945312,12.3125 C11.2460937,12.296875 11.1054687,12.40625 11.0742187,12.5546875 C11.0390625,12.703125 11.1171875,12.8554688 11.2578125,12.9140625 L11.9179687,13.1953125 C12.4257813,13.4101563 12.7304688,13.7226563 12.7304688,14.0351563 C12.7304688,14.3476563 12.4257813,14.6601563 11.921875,14.875 L11.2578125,15.15625 C11.0351562,15.25 11.0234375,15.6328125 11.2578125,15.734375 L11.9179687,16.015625 C12.4257813,16.2304688 12.7304688,16.5429688 12.7304688,16.8554688 C12.7304688,17.1679688 12.4257813,17.4804688 11.921875,17.6953125 L11.2578125,17.9765625 C11.1171875,18.0351563 11.0390625,18.1875 11.0742187,18.3359375 C11.1054687,18.4765625 11.234375,18.578125 11.3789062,18.578125 L11.3984375,18.578125 C13.0703125,18.4804688 14.1914063,17.609375 14.1914063,16.859375 C14.1914063,16.3515625 13.6679688,15.7929688 12.8164063,15.453125 C13.6640625,15.0976563 14.1875,14.5390625 14.1875,14.03125 Z M12,2.31249995 C6.64843747,2.31249995 2.31249995,6.64843747 2.31249995,12 C2.31249995,17.3515625 6.64843747,21.6875 12,21.6875 C17.3515625,21.6875 21.6875,17.3515625 21.6875,12 C21.6875,6.64843747 17.3515625,2.31249995 12,2.31249995 Z M12,19.8125 C7.69140623,19.8125 4.18749996,16.3085938 4.18749996,12 C4.18749996,7.69140623 7.69140623,4.18749996 12,4.18749996 C16.3085938,4.18749996 19.8125,7.69140623 19.8125,12 C19.8125,16.3085938 16.3085938,19.8125 12,19.8125 Z M15.125,8.87499998 C14.4335938,8.87499998 13.875,9.43359374 13.875,10.125 C13.875,10.8164062 14.4335938,11.375 15.125,11.375 C15.8164063,11.375 16.375,10.8164062 16.375,10.125 C16.375,9.43359374 15.8164063,8.87499998 15.125,8.87499998 Z" id="path-1"></path>
    </defs>
    <g id="kiss" stroke="none" stroke-width="1" fill="none" fill-rule="evenodd">
        <mask id="mask-2" fill="white">
            <use xlink:href="#path-1"></use>
        </mask>
        <g fill-rule="nonzero"></g>
        <g id="🎨-color" mask="url(#mask-2)" fill="#000000">
            <rect id="🎨-Color" x="0" y="0" width="24" height="24"></rect>
        </g>
    </g>
</svg>