<?xml version="1.0" encoding="UTF-8"?>
<svg width="24px" height="24px" viewBox="0 0 24 24" version="1.1" xmlns="http://www.w3.org/2000/svg" xmlns:xlink="http://www.w3.org/1999/xlink">
    <!-- Generator: Sketch 52.5 (67469) - http://www.bohemiancoding.com/sketch -->
    <title>kiss-beam</title>
    <desc>Created with Sketch.</desc>
    <defs>
        <path d="M8.87499998,7.93749998 C7.94531248,7.93749998 6.81640622,9.08203124 6.68749997,10.7265625 C6.67578122,10.8710937 6.76562497,11.0078125 6.90624997,11.0507812 C7.04296873,11.0898437 7.19921873,11.03125 7.26953123,10.90625 L7.64062498,10.2421875 C7.94140623,9.70703124 8.39062498,9.39843749 8.87109373,9.39843749 C9.35156249,9.39843749 9.80078124,9.70703124 10.1015625,10.2421875 L10.4726562,10.90625 C10.5546875,11.0507812 10.7148437,11.0898437 10.8359375,11.0507812 C10.9765625,11.0078125 11.0664062,10.875 11.0546875,10.7265625 C10.9335937,9.08203124 9.80468749,7.93749998 8.87499998,7.93749998 Z M12,2.31249995 C6.64843747,2.31249995 2.31249995,6.64843747 2.31249995,12 C2.31249995,17.3515625 6.64843747,21.6875 12,21.6875 C17.3515625,21.6875 21.6875,17.3515625 21.6875,12 C21.6875,6.64843747 17.3515625,2.31249995 12,2.31249995 Z M12,19.8125 C7.69140623,19.8125 4.18749996,16.3085938 4.18749996,12 C4.18749996,7.69140623 7.69140623,4.18749996 12,4.18749996 C16.3085938,4.18749996 19.8125,7.69140623 19.8125,12 C19.8125,16.3085938 16.3085938,19.8125 12,19.8125 Z M14.1875,14.03125 C14.1875,13.28125 13.0625,12.4101563 11.3945312,12.3125 C11.2460937,12.296875 11.1054687,12.40625 11.0742187,12.5546875 C11.0390625,12.703125 11.1171875,12.8554688 11.2578125,12.9140625 L11.9179687,13.1953125 C12.4257813,13.4101563 12.7304688,13.7226563 12.7304688,14.0351563 C12.7304688,14.3476563 12.4257813,14.6601563 11.921875,14.875 L11.2578125,15.15625 C11.0351562,15.25 11.0234375,15.6328125 11.2578125,15.734375 L11.9179687,16.015625 C12.4257813,16.2304688 12.7304688,16.5429688 12.7304688,16.8554688 C12.7304688,17.1679688 12.4257813,17.4804688 11.921875,17.6953125 L11.2578125,17.9765625 C11.1171875,18.0351563 11.0390625,18.1875 11.0742187,18.3359375 C11.1054687,18.4765625 11.234375,18.578125 11.3789062,18.578125 L11.3984375,18.578125 C13.0703125,18.4804688 14.1914063,17.609375 14.1914063,16.859375 C14.1914063,16.3515625 13.6679688,15.7929688 12.8164063,15.453125 C13.6640625,15.0976563 14.1875,14.5390625 14.1875,14.03125 Z M15.125,7.93749998 C14.1953125,7.93749998 13.0664063,9.08203124 12.9375,10.7265625 C12.9257813,10.8710937 13.015625,11.0078125 13.15625,11.0507812 C13.2929688,11.0898437 13.4492188,11.03125 13.5195313,10.90625 L13.890625,10.2421875 C14.1914063,9.70703124 14.640625,9.39843749 15.1210938,9.39843749 C15.6015625,9.39843749 16.0507813,9.70703124 16.3515625,10.2421875 L16.7226563,10.90625 C16.8046875,11.0507812 16.9648438,11.0898437 17.0859375,11.0507812 C17.2265625,11.0078125 17.3164063,10.875 17.3046875,10.7265625 C17.1835938,9.08203124 16.0546875,7.93749998 15.125,7.93749998 Z" id="path-1"></path>
    </defs>
    <g id="kiss-beam" stroke="none" stroke-width="1" fill="none" fill-rule="evenodd">
        <mask id="mask-2" fill="white">
            <use xlink:href="#path-1"></use>
        </mask>
        <g fill-rule="nonzero"></g>
        <g id="🎨-color" mask="url(#mask-2)" fill="#000000">
            <rect id="🎨-Color" x="0" y="0" width="24" height="24"></rect>
        </g>
    </g>
</svg>