<?xml version="1.0" encoding="UTF-8"?>
<svg width="24px" height="24px" viewBox="0 0 24 24" version="1.1" xmlns="http://www.w3.org/2000/svg" xmlns:xlink="http://www.w3.org/1999/xlink">
    <!-- Generator: Sketch 52.5 (67469) - http://www.bohemiancoding.com/sketch -->
    <title>kiwi-bird</title>
    <desc>Created with Sketch.</desc>
    <defs>
        <path d="M21.9587522,10.682149 C21.8488735,8.58266896 19.9646448,7.00866549 17.8623917,7.00866549 L17.5376083,7.00866549 C15.7067591,7.00866549 13.9240901,6.44540725 12.4166378,5.40589251 C10.9611785,4.40207968 9.08769496,3.96325819 7.10606583,4.41109182 C6.4818024,4.55181972 1.99722699,5.83847484 1.99999995,10.8908146 C2.00138643,13.3500867 3.34072786,15.4939342 5.32720967,16.6450607 L5.32720967,19.2097054 C5.32720967,19.5161179 5.57538992,19.7642981 5.8818024,19.7642981 L6.43639512,19.7642981 C6.7428076,19.7642981 6.99098784,19.5161179 6.99098784,19.2097054 L6.99098784,17.3289428 C7.52339686,17.4662045 8.07937606,17.5459272 8.65476601,17.5459272 C8.84332754,17.5459272 9.02495666,17.5206239 9.20935874,17.505026 L9.20935874,19.2097054 C9.20935874,19.5161179 9.45753898,19.7642981 9.76395146,19.7642981 L10.3185442,19.7642981 C10.6249567,19.7642981 10.8731369,19.5161179 10.8731369,19.2097054 L10.8731369,17.1497401 C11.3667244,16.9743501 11.8395147,16.7549394 12.2714038,16.4734836 C13.8568458,15.440208 15.6519931,14.7729636 17.5445408,14.7729636 C18.4277297,14.7729636 18.0994801,14.7622184 18.3435009,14.7459272 L20.9227037,19.4752167 C21.0218371,19.6564992 21.2103987,19.7642981 21.4097054,19.7642981 C21.4551127,19.7642981 21.5012132,19.7587522 21.5466205,19.7469671 C21.7923744,19.6845754 21.9642981,19.463085 21.9642981,19.2097054 C21.9642981,19.2097054 21.9691508,10.8824957 21.9587522,10.682149 Z M18.0821491,11.7227036 C17.622877,11.7227036 17.25026,11.3500867 17.25026,10.8908146 C17.25026,10.4311958 17.622877,10.0589255 18.0821491,10.0589255 C18.5414212,10.0589255 18.9140382,10.4311958 18.9140382,10.8908146 C18.9140382,11.3500867 18.5414212,11.7227036 18.0821491,11.7227036 Z M20.8551127,17.0346621 L19.4734836,14.5015598 C19.9975737,14.2994801 20.4693241,13.9954939 20.8551127,13.6010399 L20.8551127,17.0346621 Z" id="path-1"></path>
    </defs>
    <g id="kiwi-bird" stroke="none" stroke-width="1" fill="none" fill-rule="evenodd">
        <mask id="mask-2" fill="white">
            <use xlink:href="#path-1"></use>
        </mask>
        <g fill-rule="nonzero"></g>
        <g id="🎨-color" mask="url(#mask-2)" fill="#000000">
            <rect id="🎨-Color" x="0" y="0" width="24" height="24"></rect>
        </g>
    </g>
</svg>