<?xml version="1.0" encoding="UTF-8"?>
<svg width="24px" height="24px" viewBox="0 0 24 24" version="1.1" xmlns="http://www.w3.org/2000/svg" xmlns:xlink="http://www.w3.org/1999/xlink">
    <!-- Generator: Sketch 52.5 (67469) - http://www.bohemiancoding.com/sketch -->
    <title>landmark</title>
    <desc>Created with Sketch.</desc>
    <defs>
        <path d="M21.5945313,5.59804684 L12.4390625,2.07968745 C12.1561303,1.97343903 11.8442603,1.97343903 11.5613281,2.07968745 L2.4054687,5.59804684 C2.16158423,5.68955317 2.00001949,5.92271693 1.99999995,6.1832031 L1.99999995,7.62499998 C1.99999995,7.97031248 2.27968745,8.24999998 2.62499995,8.24999998 L21.375,8.24999998 C21.7203125,8.24999998 22.0000001,7.97031248 22.0000001,7.62499998 L22.0000001,6.1832031 C22.0000001,5.92265622 21.8382813,5.68945309 21.5945313,5.59804684 Z M4.49999996,9.49999999 L4.49999996,15.75 L3.87499996,15.75 C3.52968746,15.75 3.24999996,16.0296875 3.24999996,16.375 L3.24999996,18.25 L20.75,18.25 L20.75,16.375 C20.75,16.0296875 20.4703125,15.75 20.125,15.75 L19.5,15.75 L19.5,9.49999999 L17,9.49999999 L17,15.75 L13.25,15.75 L13.25,9.49999999 L10.75,9.49999999 L10.75,15.75 L6.99999997,15.75 L6.99999997,9.49999999 L4.49999996,9.49999999 Z M21.375,19.5 L2.62499995,19.5 C2.27968745,19.5 1.99999995,19.7796875 1.99999995,20.125 L1.99999995,21.375 C1.99999995,21.7203125 2.27968745,22 2.62499995,22 L21.375,22 C21.7203125,22 22.0000001,21.7203125 22.0000001,21.375 L22.0000001,20.125 C22.0000001,19.7796875 21.7203125,19.5 21.375,19.5 Z" id="path-1"></path>
    </defs>
    <g id="landmark" stroke="none" stroke-width="1" fill="none" fill-rule="evenodd">
        <mask id="mask-2" fill="white">
            <use xlink:href="#path-1"></use>
        </mask>
        <g fill-rule="nonzero"></g>
        <g id="🎨-color" mask="url(#mask-2)" fill="#000000">
            <rect id="🎨-Color" x="0" y="0" width="24" height="24"></rect>
        </g>
    </g>
</svg>