<?xml version="1.0" encoding="UTF-8"?>
<svg width="24px" height="24px" viewBox="0 0 24 24" version="1.1" xmlns="http://www.w3.org/2000/svg" xmlns:xlink="http://www.w3.org/1999/xlink">
    <!-- Generator: Sketch 52.5 (67469) - http://www.bohemiancoding.com/sketch -->
    <title>language</title>
    <desc>Created with Sketch.</desc>
    <defs>
        <path d="M11.5,17 L2.74999995,17 C2.3357812,17 1.99999995,16.6642188 1.99999995,16.25 L1.99999995,7.74999998 C1.99999995,7.33578123 2.3357812,6.99999997 2.74999995,6.99999997 L11.5,6.99999997 L11.5,17 Z M7.72887498,14.7305625 C7.77573141,14.8902841 7.92226603,15.0000037 8.08871873,15 L8.80318748,15 C9.06006249,15 9.24090624,14.7475625 9.15824999,14.5043438 L7.36281248,9.22140624 C7.31113661,9.06933792 7.16835872,8.96706109 7.00774998,8.96706248 L5.99246872,8.96706248 C5.83186305,8.96707068 5.68909017,9.06934392 5.63740622,9.22140624 L3.84193746,14.5043438 C3.75928121,14.7475625 3.94012496,15 4.19699996,15 L4.90965621,15 C5.07695791,14.9999955 5.22401941,14.8891671 5.27012497,14.7283438 L5.55506247,13.734375 L7.43665623,13.734375 L7.72887498,14.7305625 Z M6.50853122,10.3424375 C6.50853122,10.3424375 6.64353122,11.0005937 6.75321872,11.38025 L7.09071873,12.5530938 L5.90103122,12.5530938 L6.24696872,11.38025 C6.35665622,11.0005625 6.49165622,10.3424375 6.49165622,10.3424375 L6.50853122,10.3424375 Z M21.25,17 L12.5,17 L12.5,6.99999997 L21.25,6.99999997 C21.6642188,6.99999997 22.0000001,7.33578123 22.0000001,7.74999998 L22.0000001,16.25 C22.0000001,16.6642188 21.6642188,17 21.25,17 Z M20.125,9.87499999 L18.125,9.87499999 L18.125,9.37499999 C18.125,9.16790624 17.9570938,8.99999999 17.75,8.99999999 L17.25,8.99999999 C17.0429063,8.99999999 16.875,9.16790624 16.875,9.37499999 L16.875,9.87499999 L14.875,9.87499999 C14.6679063,9.87499999 14.5,10.0429062 14.5,10.25 L14.5,10.75 C14.5,10.9570937 14.6679063,11.125 14.875,11.125 L18.4408125,11.125 C18.2450938,11.5718437 17.924625,12.030375 17.5025938,12.4751875 C17.2975938,12.259625 17.1151875,12.0405 16.9599375,11.8210312 C16.8462188,11.6602812 16.6291563,11.6124375 16.4600938,11.7133437 L16.2325938,11.8491562 L16.0295313,11.970375 C15.8434063,12.0815 15.789125,12.3272813 15.9128125,12.5052813 C16.1023438,12.7780625 16.322125,13.0470313 16.5685625,13.3092188 C16.31475,13.5037813 16.0422813,13.6918438 15.7528438,13.8705938 C15.5803125,13.9771563 15.5221875,14.2004688 15.6227813,14.3765313 L15.8709375,14.8107813 C15.976,14.994625 16.2126563,15.0553438 16.393,14.9444063 C16.790875,14.6996875 17.1608438,14.4389375 17.5005938,14.1665625 C17.84175,14.4403438 18.2120313,14.701 18.6067188,14.9440938 C18.7871563,15.0552188 19.024,14.9946563 19.129125,14.8106563 L19.377375,14.3761875 C19.4777813,14.2004688 19.4201875,13.9774375 19.2481563,13.8708438 C18.9673585,13.6970258 18.6955515,13.5090867 18.4337813,13.30775 C19.0907813,12.6069688 19.5515313,11.8612187 19.7685625,11.1249375 L20.125,11.1249375 C20.3320938,11.1249375 20.5,10.9570312 20.5,10.7499375 L20.5,10.2499375 C20.5,10.0429062 20.3320938,9.87499999 20.125,9.87499999 Z" id="path-1"></path>
    </defs>
    <g id="language" stroke="none" stroke-width="1" fill="none" fill-rule="evenodd">
        <mask id="mask-2" fill="white">
            <use xlink:href="#path-1"></use>
        </mask>
        <g fill-rule="nonzero"></g>
        <g id="🎨-color" mask="url(#mask-2)" fill="#000000">
            <rect id="🎨-Color" x="0" y="0" width="24" height="24"></rect>
        </g>
    </g>
</svg>