<?xml version="1.0" encoding="UTF-8"?>
<svg width="24px" height="24px" viewBox="0 0 24 24" version="1.1" xmlns="http://www.w3.org/2000/svg" xmlns:xlink="http://www.w3.org/1999/xlink">
    <!-- Generator: Sketch 52.5 (67469) - http://www.bohemiancoding.com/sketch -->
    <title>laptop-code</title>
    <desc>Created with Sketch.</desc>
    <defs>
        <path d="M9.96968749,12.1765625 C10.165,12.371875 10.4815625,12.371875 10.676875,12.1765625 L11.0303125,11.823125 C11.225625,11.6278125 11.225625,11.31125 11.0303125,11.1159375 L9.91406249,9.99999999 L11.03,8.88374998 C11.2253125,8.68843748 11.2253125,8.37187498 11.03,8.17656248 L10.6765625,7.82312498 C10.48125,7.62781248 10.1646875,7.62781248 9.96937499,7.82312498 L8.14624998,9.64624999 C7.95093748,9.84156249 7.95093748,10.158125 8.14624998,10.3534375 L9.96968749,12.1765625 Z M12.97,11.8234375 L13.3234375,12.176875 C13.51875,12.3721875 13.8353125,12.3721875 14.030625,12.176875 L15.85375,10.35375 C16.0490625,10.1584375 16.0490625,9.84187499 15.85375,9.64656249 L14.030625,7.82343748 C13.8353125,7.62812498 13.51875,7.62812498 13.3234375,7.82343748 L12.97,8.17687498 C12.7746875,8.37218748 12.7746875,8.68874998 12.97,8.88406248 L14.0859375,9.99999999 L12.97,11.11625 C12.7746875,11.3115625 12.7746875,11.628125 12.97,11.8234375 Z M21.5,17 L13.923125,17 C13.9,17.6190625 13.4634375,18 12.9,18 L11,18 C10.4159375,18 9.96812499,17.4540625 9.97593749,17 L2.49999995,17 C2.22499995,17 1.99999995,17.225 1.99999995,17.5 L1.99999995,18 C1.99999995,19.1 2.89999995,20 3.99999996,20 L20,20 C21.1,20 22.0000001,19.1 22.0000001,18 L22.0000001,17.5 C22.0000001,17.225 21.775,17 21.5,17 Z M20,5.49999997 C20,4.67499996 19.325,3.99999996 18.5,3.99999996 L5.49999997,3.99999996 C4.67499996,3.99999996 3.99999996,4.67499996 3.99999996,5.49999997 L3.99999996,16 L20,16 L20,5.49999997 Z M18,14 L5.99999997,14 L5.99999997,5.99999997 L18,5.99999997 L18,14 Z" id="path-1"></path>
    </defs>
    <g id="laptop-code" stroke="none" stroke-width="1" fill="none" fill-rule="evenodd">
        <mask id="mask-2" fill="white">
            <use xlink:href="#path-1"></use>
        </mask>
        <g fill-rule="nonzero"></g>
        <g id="🎨-color" mask="url(#mask-2)" fill="#000000">
            <rect id="🎨-Color" x="0" y="0" width="24" height="24"></rect>
        </g>
    </g>
</svg>