<?xml version="1.0" encoding="UTF-8"?>
<svg width="24px" height="24px" viewBox="0 0 24 24" version="1.1" xmlns="http://www.w3.org/2000/svg" xmlns:xlink="http://www.w3.org/1999/xlink">
    <!-- Generator: Sketch 52.5 (67469) - http://www.bohemiancoding.com/sketch -->
    <title>laravel</title>
    <desc>Created with Sketch.</desc>
    <defs>
        <path d="M21.9219969,11.550702 C21.7909517,11.400936 19.9625585,9.11388454 19.6411857,8.72698906 C19.3198128,8.34009359 19.1606865,8.40873633 18.9641186,8.43681745 C18.7644306,8.46489858 16.4524181,8.85491418 16.1840874,8.89859593 C15.9157566,8.9453978 15.7472699,9.05148204 15.9126365,9.28237128 C16.0592824,9.48829952 17.5787832,11.6443058 17.9157567,12.1185647 L11.8720749,13.5663027 L7.06084241,5.53198125 C6.87051479,5.24804989 6.82995317,5.14820589 6.3931357,5.17004677 C5.95631822,5.18876752 2.62090479,5.46645863 2.3837753,5.4882995 C2.14664582,5.50702025 1.88455533,5.61310449 2.12168482,6.17472696 C2.3588143,6.73634943 6.14664584,14.898596 6.25273008,15.1357254 C6.35881432,15.3728549 6.63338531,15.7597504 7.27613102,15.6037442 C7.93447736,15.4446178 10.2184087,14.848674 11.4664587,14.5210609 C12.124805,15.7160687 13.4695788,18.1372855 13.7191888,18.4836194 C14.049922,18.948518 14.2808112,18.8705149 14.7893916,18.7145086 C15.1887676,18.5928237 21.0171607,16.4960999 21.2792512,16.3900156 C21.5413417,16.2808113 21.7035882,16.2059283 21.5257411,15.9407176 C21.3946958,15.7472699 19.8564743,13.6879875 19.0514821,12.6084243 C19.6037442,12.4617785 21.5663027,11.9407176 21.7753511,11.8814353 C22.0218409,11.8190328 22.0561623,11.700468 21.9219969,11.550702 Z M10.9329173,13.7971919 C10.8611544,13.8127925 7.47581901,14.624025 7.29485177,14.6645866 C7.11388453,14.7051482 7.11388453,14.6864275 7.09204366,14.624025 C7.07020278,14.5616225 3.06708264,6.30265208 3.01092039,6.19968796 C2.95475815,6.09672384 2.95787827,6.01560059 3.01092039,6.01560059 C3.06396251,6.01560059 6.20904833,5.73478936 6.3182527,5.72854911 C6.4305772,5.72230886 6.4180967,5.74726986 6.45865832,5.81591261 C6.45865832,5.81591261 10.8954758,13.4726989 10.9703588,13.6068643 C11.0514821,13.7410296 11.0046802,13.7815913 10.9329173,13.7971919 Z M20.4804993,15.5881435 C20.5335414,15.6723869 20.5897036,15.7285492 20.4180968,15.7878315 C20.24961,15.850234 14.6864275,17.725429 14.5803432,17.7722309 C14.4711389,17.8190328 14.3868955,17.8346334 14.24961,17.6318253 C14.1123245,17.4290172 12.3026521,14.299532 12.3026521,14.299532 L18.1934478,12.7675507 C18.3400936,12.7207488 18.3868955,12.6895476 18.4804993,12.8361935 C18.5709829,12.9859594 20.4274571,15.5039002 20.4804993,15.5881435 Z M20.8580344,11.4040562 C20.7269891,11.4321373 18.5616225,11.9687988 18.5616225,11.9687988 L16.7925117,9.54134164 C16.7425897,9.46957877 16.7020281,9.40093602 16.8268331,9.3853354 C16.9516381,9.36973478 18.9609985,9.00468017 19.0514821,8.98595942 C19.1419657,8.96411855 19.2199688,8.93915755 19.3322933,9.09204367 C19.4446178,9.24492978 20.973479,11.1825273 21.0327614,11.2574103 C21.0889236,11.3291732 20.9890796,11.3728549 20.8580344,11.4040562 Z" id="path-1"></path>
    </defs>
    <g id="laravel" stroke="none" stroke-width="1" fill="none" fill-rule="evenodd">
        <mask id="mask-2" fill="white">
            <use xlink:href="#path-1"></use>
        </mask>
        <g fill-rule="nonzero"></g>
        <g id="🎨-color" mask="url(#mask-2)" fill="#000000">
            <rect id="🎨-Color" x="0" y="0" width="24" height="24"></rect>
        </g>
    </g>
</svg>