<?xml version="1.0" encoding="UTF-8"?>
<svg width="24px" height="24px" viewBox="0 0 24 24" version="1.1" xmlns="http://www.w3.org/2000/svg" xmlns:xlink="http://www.w3.org/1999/xlink">
    <!-- Generator: Sketch 52.5 (67469) - http://www.bohemiancoding.com/sketch -->
    <title>lastfm</title>
    <desc>Created with Sketch.</desc>
    <defs>
        <path d="M10.8203125,16.3398438 L10.0859375,14.3476563 C10.0859375,14.3476563 8.89453123,15.6757813 7.10937498,15.6757813 C5.52734372,15.6757813 4.40624996,14.3007813 4.40624996,12.1015625 C4.40624996,9.28515624 5.82812497,8.27734373 7.22265623,8.27734373 C9.82031249,8.27734373 10.1445312,10.359375 11.1640625,13.546875 C11.8984375,15.7695313 13.2734375,17.5546875 17.234375,17.5546875 C20.0742188,17.5546875 22.0000001,16.6835938 22.0000001,14.3945313 C22.0000001,11.546875 19.5507813,11.2460937 17.5078125,10.796875 C16.5,10.5664062 16.203125,10.15625 16.203125,9.46874999 C16.203125,8.69140623 16.8203125,8.23046873 17.828125,8.23046873 C18.9296875,8.23046873 19.5234375,8.64453123 19.6132813,9.62890624 L21.9023438,9.35546874 C21.71875,7.29296873 20.296875,6.44531247 17.9609375,6.44531247 C15.8984375,6.44531247 13.8828125,7.22265623 13.8828125,9.72265624 C13.8828125,11.28125 14.640625,12.265625 16.5390625,12.7226563 C18.2929688,13.1367188 19.65625,13.2617188 19.65625,14.5078125 C19.65625,15.3554688 18.8320313,15.6992188 17.2734375,15.6992188 C14.9609375,15.6992188 13.9960938,14.484375 13.4492188,12.8125 C12.1992188,9.03124999 11.7460937,6.44531247 7.14843748,6.44531247 C3.78515621,6.44531247 1.99999995,8.57421873 1.99999995,12.1953125 C1.99999995,15.6757813 3.78515621,17.5546875 6.99609372,17.5546875 C9.58203124,17.5546875 10.8203125,16.3398438 10.8203125,16.3398438 Z" id="path-1"></path>
    </defs>
    <g id="lastfm" stroke="none" stroke-width="1" fill="none" fill-rule="evenodd">
        <mask id="mask-2" fill="white">
            <use xlink:href="#path-1"></use>
        </mask>
        <g></g>
        <g id="🎨-color" mask="url(#mask-2)" fill="#000000">
            <rect id="🎨-Color" x="0" y="0" width="24" height="24"></rect>
        </g>
    </g>
</svg>