<?xml version="1.0" encoding="UTF-8"?>
<svg width="24px" height="24px" viewBox="0 0 24 24" version="1.1" xmlns="http://www.w3.org/2000/svg" xmlns:xlink="http://www.w3.org/1999/xlink">
    <!-- Generator: Sketch 52.5 (67469) - http://www.bohemiancoding.com/sketch -->
    <title>lastfm-square</title>
    <desc>Created with Sketch.</desc>
    <defs>
        <path d="M18.875,3.24999996 L5.12499997,3.24999996 C4.08984371,3.24999996 3.24999996,4.08984371 3.24999996,5.12499997 L3.24999996,18.875 C3.24999996,19.9101563 4.08984371,20.75 5.12499997,20.75 L18.875,20.75 C19.9101563,20.75 20.75,19.9101563 20.75,18.875 L20.75,5.12499997 C20.75,4.08984371 19.9101563,3.24999996 18.875,3.24999996 Z M15.2734375,15.4726563 C12.796875,15.4726563 11.9375,14.3554688 11.4804687,12.96875 C10.84375,10.9765625 10.640625,9.67578124 9.01953124,9.67578124 C8.14453123,9.67578124 7.25781248,10.3046875 7.25781248,12.0664063 C7.25781248,13.4414063 7.96093748,14.3007813 8.94921873,14.3007813 C10.0664062,14.3007813 10.8085937,13.46875 10.8085937,13.46875 L11.265625,14.7148438 C11.265625,14.7148438 10.4921875,15.4726563 8.87499998,15.4726563 C6.87109372,15.4726563 5.75390622,14.296875 5.75390622,12.1210938 C5.75390622,9.85937499 6.87109372,8.52734373 8.97656248,8.52734373 C11.8476562,8.52734373 12.1328125,10.1445312 12.9140625,12.5078125 C13.2578125,13.5546875 13.859375,14.3125 15.3046875,14.3125 C16.2773438,14.3125 16.7929688,14.0976563 16.7929688,13.5664063 C16.7929688,12.7890625 15.9414063,12.7070313 14.84375,12.4492188 C13.65625,12.1640625 13.1835938,11.546875 13.1835938,10.5742187 C13.1835938,9.01171874 14.4453125,8.52734373 15.7304688,8.52734373 C17.1914063,8.52734373 18.078125,9.05859374 18.1914063,10.3476562 L16.7578125,10.5195312 C16.6992188,9.90234374 16.328125,9.64453124 15.640625,9.64453124 C15.0117188,9.64453124 14.625,9.92968749 14.625,10.4179687 C14.625,10.8476562 14.8125,11.1054687 15.4414063,11.25 C16.71875,11.5273437 18.2460938,11.71875 18.2460938,13.4960938 C18.25,14.9296875 17.046875,15.4726563 15.2734375,15.4726563 Z" id="path-1"></path>
    </defs>
    <g id="lastfm-square" stroke="none" stroke-width="1" fill="none" fill-rule="evenodd">
        <mask id="mask-2" fill="white">
            <use xlink:href="#path-1"></use>
        </mask>
        <g fill-rule="nonzero"></g>
        <g id="🎨-color" mask="url(#mask-2)" fill="#000000">
            <rect id="🎨-Color" x="0" y="0" width="24" height="24"></rect>
        </g>
    </g>
</svg>