<?xml version="1.0" encoding="UTF-8"?>
<svg width="24px" height="24px" viewBox="0 0 24 24" version="1.1" xmlns="http://www.w3.org/2000/svg" xmlns:xlink="http://www.w3.org/1999/xlink">
    <!-- Generator: Sketch 52.5 (67469) - http://www.bohemiancoding.com/sketch -->
    <title>laugh-beam</title>
    <desc>Created with Sketch.</desc>
    <defs>
        <path d="M12,2.31249995 C6.64843747,2.31249995 2.31249995,6.64843747 2.31249995,12 C2.31249995,17.3515625 6.64843747,21.6875 12,21.6875 C17.3515625,21.6875 21.6875,17.3515625 21.6875,12 C21.6875,6.64843747 17.3515625,2.31249995 12,2.31249995 Z M17.5234375,17.5234375 C16.046875,19 14.0859375,19.8125 12,19.8125 C9.91406249,19.8125 7.95312498,19 6.47656247,17.5234375 C4.99999996,16.046875 4.18749996,14.0859375 4.18749996,12 C4.18749996,9.91406249 4.99999996,7.95312498 6.47656247,6.47656247 C7.95312498,4.99999996 9.91406249,4.18749996 12,4.18749996 C14.0859375,4.18749996 16.046875,4.99999996 17.5234375,6.47656247 C19,7.95312498 19.8125,9.91406249 19.8125,12 C19.8125,14.0859375 19,16.046875 17.5234375,17.5234375 Z M15.125,7.93749998 C14.1953125,7.93749998 13.0664063,9.08203124 12.9375,10.7265625 C12.9101563,11.0625 13.359375,11.1914062 13.5195313,10.9023437 L13.890625,10.2382812 C14.1914063,9.70312499 14.640625,9.39453124 15.1210938,9.39453124 C15.6015625,9.39453124 16.0507813,9.70312499 16.3515625,10.2382812 L16.7226563,10.9023437 C16.8828125,11.1914062 17.3320313,11.0585937 17.3046875,10.7265625 C17.1835938,9.08203124 16.0546875,7.93749998 15.125,7.93749998 Z M7.27343748,10.9023437 L7.64453123,10.2382812 C7.94531248,9.70312499 8.39453123,9.39453124 8.87499998,9.39453124 C9.35546874,9.39453124 9.80468749,9.70312499 10.1054687,10.2382812 L10.4765625,10.9023437 C10.6367187,11.1914062 11.0859375,11.0585937 11.0585937,10.7265625 C10.9296875,9.08203124 9.80078124,7.93749998 8.87109373,7.93749998 C7.94140623,7.93749998 6.81249997,9.08203124 6.68359372,10.7265625 C6.66015622,11.0585937 7.10937498,11.1914062 7.27343748,10.9023437 Z M16.46875,13.25 L7.53124998,13.25 C7.21093748,13.25 6.96484372,13.5234375 7.00390623,13.8359375 C7.29687498,16.1484375 9.30468749,17.9375 11.734375,17.9375 L12.265625,17.9375 C14.6953125,17.9375 16.703125,16.1484375 16.9960938,13.8359375 C17.0351563,13.5234375 16.7890625,13.25 16.46875,13.25 Z" id="path-1"></path>
    </defs>
    <g id="laugh-beam" stroke="none" stroke-width="1" fill="none" fill-rule="evenodd">
        <mask id="mask-2" fill="white">
            <use xlink:href="#path-1"></use>
        </mask>
        <g fill-rule="nonzero"></g>
        <g id="🎨-color" mask="url(#mask-2)" fill="#000000">
            <rect id="🎨-Color" x="0" y="0" width="24" height="24"></rect>
        </g>
    </g>
</svg>