<?xml version="1.0" encoding="UTF-8"?>
<svg width="24px" height="24px" viewBox="0 0 24 24" version="1.1" xmlns="http://www.w3.org/2000/svg" xmlns:xlink="http://www.w3.org/1999/xlink">
    <!-- Generator: Sketch 52.5 (67469) - http://www.bohemiancoding.com/sketch -->
    <title>laugh-squint</title>
    <desc>Created with Sketch.</desc>
    <defs>
        <path d="M12,2.31249995 C6.64843747,2.31249995 2.31249995,6.64843747 2.31249995,12 C2.31249995,17.3515625 6.64843747,21.6875 12,21.6875 C17.3515625,21.6875 21.6875,17.3515625 21.6875,12 C21.6875,6.64843747 17.3515625,2.31249995 12,2.31249995 Z M17.5234375,17.5234375 C16.046875,19 14.0859375,19.8125 12,19.8125 C9.91406249,19.8125 7.95312498,19 6.47656247,17.5234375 C4.99999996,16.046875 4.18749996,14.0859375 4.18749996,12 C4.18749996,9.91406249 4.99999996,7.95312498 6.47656247,6.47656247 C7.95312498,4.99999996 9.91406249,4.18749996 12,4.18749996 C14.0859375,4.18749996 16.046875,4.99999996 17.5234375,6.47656247 C19,7.95312498 19.8125,9.91406249 19.8125,12 C19.8125,14.0859375 19,16.046875 17.5234375,17.5234375 Z M15.734375,9.65624999 L17.046875,8.08203123 C17.3828125,7.67968748 16.8984375,7.11328123 16.4453125,7.37890623 L13.3203125,9.25390624 C13.015625,9.43749999 13.015625,9.87499999 13.3203125,10.0585937 L16.4453125,11.9335937 C16.8945313,12.1992188 17.3828125,11.6367187 17.046875,11.2304687 L15.734375,9.65624999 Z M7.55468748,11.9335937 L10.6796875,10.0585937 C10.984375,9.87499999 10.984375,9.43749999 10.6796875,9.25390624 L7.55468748,7.37890623 C7.10156248,7.10937498 6.61718747,7.67968748 6.95312497,8.08203123 L8.26562498,9.65624999 L6.95312497,11.2304687 C6.61328122,11.6367187 7.10156248,12.1992188 7.55468748,11.9335937 Z M16.46875,13.25 L7.53124998,13.25 C7.21093748,13.25 6.96484372,13.5234375 7.00390623,13.8359375 C7.29687498,16.1484375 9.30468749,17.9375 11.734375,17.9375 L12.265625,17.9375 C14.6953125,17.9375 16.703125,16.1484375 16.9960938,13.8359375 C17.0351563,13.5234375 16.7890625,13.25 16.46875,13.25 Z" id="path-1"></path>
    </defs>
    <g id="laugh-squint" stroke="none" stroke-width="1" fill="none" fill-rule="evenodd">
        <mask id="mask-2" fill="white">
            <use xlink:href="#path-1"></use>
        </mask>
        <g fill-rule="nonzero"></g>
        <g id="🎨-color" mask="url(#mask-2)" fill="#000000">
            <rect id="🎨-Color" x="0" y="0" width="24" height="24"></rect>
        </g>
    </g>
</svg>