<?xml version="1.0" encoding="UTF-8"?>
<svg width="24px" height="24px" viewBox="0 0 24 24" version="1.1" xmlns="http://www.w3.org/2000/svg" xmlns:xlink="http://www.w3.org/1999/xlink">
    <!-- Generator: Sketch 52.5 (67469) - http://www.bohemiancoding.com/sketch -->
    <title>layer-group</title>
    <desc>Created with Sketch.</desc>
    <defs>
        <path d="M2.52178984,7.79844356 L11.5856031,11.9101167 C11.8501946,12.0303502 12.1494163,12.0303502 12.4140078,11.9101167 L21.4778211,7.79844356 C22.1217899,7.50622566 22.1217899,6.5330739 21.4778211,6.240856 L12.4143969,2.12879372 C12.1513495,2.00856206 11.8490396,2.00856206 11.5859922,2.12879372 L2.52178984,6.2404669 C1.87782096,6.5326848 1.87782096,7.50622566 2.52178984,7.79844356 Z M21.4782102,11.233463 L19.2178989,10.2089494 L12.9284047,13.0599222 C12.6342412,13.1933852 12.3217899,13.2610895 12,13.2610895 C11.6782101,13.2610895 11.3661479,13.1933852 11.0715953,13.0599222 L4.78249024,10.2089494 L2.52178984,11.233463 C1.87782096,11.5252918 1.87782096,12.4980545 2.52178984,12.7898833 L11.5856031,16.8984436 C11.8501946,17.018288 12.1494163,17.018288 12.4140078,16.8984436 L21.4782102,12.7898833 C22.122179,12.4980545 22.122179,11.5252918 21.4782102,11.233463 Z M21.4782102,16.2062257 L19.2264592,15.1856031 L12.9284047,18.040467 C12.6342412,18.17393 12.3217899,18.2416343 12,18.2416343 C11.6782101,18.2416343 11.3661479,18.17393 11.0715953,18.040467 L4.77392992,15.1856031 L2.52178984,16.2062257 C1.87782096,16.4980545 1.87782096,17.4708171 2.52178984,17.7626459 L11.5856031,21.8712063 C11.8501946,21.9910506 12.1494163,21.9910506 12.4140078,21.8712063 L21.4782102,17.7626459 C22.122179,17.4708171 22.122179,16.4980545 21.4782102,16.2062257 Z" id="path-1"></path>
    </defs>
    <g id="layer-group" stroke="none" stroke-width="1" fill="none" fill-rule="evenodd">
        <mask id="mask-2" fill="white">
            <use xlink:href="#path-1"></use>
        </mask>
        <g fill-rule="nonzero"></g>
        <g id="🎨-color" mask="url(#mask-2)" fill="#000000">
            <rect id="🎨-Color" x="0" y="0" width="24" height="24"></rect>
        </g>
    </g>
</svg>