<?xml version="1.0" encoding="UTF-8"?>
<svg width="24px" height="24px" viewBox="0 0 24 24" version="1.1" xmlns="http://www.w3.org/2000/svg" xmlns:xlink="http://www.w3.org/1999/xlink">
    <!-- Generator: Sketch 52.5 (67469) - http://www.bohemiancoding.com/sketch -->
    <title>leaf</title>
    <desc>Created with Sketch.</desc>
    <defs>
        <path d="M20.9652778,3.44791662 C20.7708334,3.01388884 20.2152778,2.99652773 19.9826389,3.40624996 C18.90625,5.27777774 16.9791667,6.44444442 14.7777778,6.44444442 L12,6.44444442 C8.31944443,6.44444442 5.3333333,9.43055554 5.3333333,13.1111111 C5.3333333,13.3541667 5.36111108,13.5868056 5.38541663,13.8229167 C7.60069442,12.2361111 10.7986111,10.8888889 15.3333334,10.8888889 C15.6388889,10.8888889 15.8888889,11.1388889 15.8888889,11.4444444 C15.8888889,11.75 15.6388889,12 15.3333334,12 C6.60416664,12 2.90277773,17.3506945 2.08333328,19.3611111 C1.85416662,19.9270834 2.12499995,20.5729167 2.69097218,20.8055556 C3.26041662,21.0416667 3.90624996,20.7673612 4.14236107,20.2048612 C4.19444441,20.0798612 4.86805552,18.5416667 6.63888886,17.0590278 C7.76388887,18.5833334 9.90277777,20.0381945 12.7118056,19.7395834 C18.1631945,19.34375 22.0000001,14.4548611 22.0000001,8.46874998 C22.0000001,6.72569442 21.625,4.92013885 20.9652778,3.44791662 Z" id="path-1"></path>
    </defs>
    <g id="leaf" stroke="none" stroke-width="1" fill="none" fill-rule="evenodd">
        <mask id="mask-2" fill="white">
            <use xlink:href="#path-1"></use>
        </mask>
        <g></g>
        <g id="🎨-color" mask="url(#mask-2)" fill="#000000">
            <rect id="🎨-Color" x="0" y="0" width="24" height="24"></rect>
        </g>
    </g>
</svg>