<?xml version="1.0" encoding="UTF-8"?>
<svg width="24px" height="24px" viewBox="0 0 24 24" version="1.1" xmlns="http://www.w3.org/2000/svg" xmlns:xlink="http://www.w3.org/1999/xlink">
    <!-- Generator: Sketch 52.5 (67469) - http://www.bohemiancoding.com/sketch -->
    <title>leanpub</title>
    <desc>Created with Sketch.</desc>
    <defs>
        <path d="M15.4214931,6.98211803 L15.9456597,15.6263889 L15.5644445,15.6168403 C14.3063889,15.5882292 13.0769444,15.9218056 11.9999653,16.5889584 C10.9230208,15.9218056 9.69357638,15.6168403 8.43548609,15.6168403 C6.85340275,15.6168403 5.5858333,15.9885417 4.14673607,16.5794445 L5.23322913,7.61111109 C6.22440969,7.2012847 7.36809025,6.98211803 8.43552082,6.98211803 C9.86513888,6.98211803 10.9992708,7.43958331 12,8.45934026 C12.9626042,7.47770831 14.0490625,7.01069442 15.4214931,6.98211803 Z M21.759375,18.6666667 C20.8730556,18.6666667 20.1105903,18.4855903 19.31,18.1234375 C18.1186806,17.5802084 16.8796875,17.2561459 15.5644792,17.2561459 C14.2111111,17.2561459 12.9626042,17.7040973 12,18.6666667 C11.0373958,17.7040625 9.78888888,17.2561459 8.43552082,17.2561459 C7.12031248,17.2561459 5.88131941,17.5802084 4.68999996,18.1234375 C3.91802079,18.4665278 3.13649301,18.6666667 2.28829856,18.6666667 L2.24062495,18.6666667 L3.7178819,6.54371525 C5.08076385,5.77173608 6.7390972,5.3333333 8.31163193,5.3333333 C9.59826388,5.3333333 10.9230556,5.60017358 12,6.34357636 C13.0769444,5.60017358 14.4017361,5.3333333 15.6883681,5.3333333 C17.2609028,5.3333333 18.9192361,5.77173608 20.2821181,6.54371525 L21.759375,18.6666667 Z M20.2535417,17.1131597 L19.0717361,7.38239581 C18.0043056,6.89631942 16.7367361,6.63899303 15.5644792,6.63899303 C14.2301736,6.63899303 12.9816667,7.05833331 12,7.98281248 C11.0183333,7.05833331 9.7698611,6.63899303 8.43552082,6.63899303 C7.26326387,6.63899303 5.99569441,6.89631942 4.92826385,7.38239581 L3.74645829,17.1131597 C5.38572913,16.4365278 6.6247222,15.9504514 8.43552082,15.9504514 C9.74121527,15.9504514 10.8944444,16.2839931 12,16.979757 C13.1055556,16.2839931 14.25875,15.9504514 15.5644792,15.9504514 C17.3752778,15.9504514 18.6142709,16.4365278 20.2535417,17.1131597 Z" id="path-1"></path>
    </defs>
    <g id="leanpub" stroke="none" stroke-width="1" fill="none" fill-rule="evenodd">
        <mask id="mask-2" fill="white">
            <use xlink:href="#path-1"></use>
        </mask>
        <g fill-rule="nonzero"></g>
        <g id="🎨-color" mask="url(#mask-2)" fill="#000000">
            <rect id="🎨-Color" x="0" y="0" width="24" height="24"></rect>
        </g>
    </g>
</svg>