<?xml version="1.0" encoding="UTF-8"?>
<svg width="24px" height="24px" viewBox="0 0 24 24" version="1.1" xmlns="http://www.w3.org/2000/svg" xmlns:xlink="http://www.w3.org/1999/xlink">
    <!-- Generator: Sketch 52.5 (67469) - http://www.bohemiancoding.com/sketch -->
    <title>lemon</title>
    <desc>Created with Sketch.</desc>
    <defs>
        <path d="M20.910625,3.08941402 C19.8120704,1.99089839 18.2542188,1.68527339 17.1194922,2.34628901 C15.5782813,3.24406246 10.730625,0.394101504 5.56234372,5.56238278 C0.387617129,10.7371875 3.24699214,15.573125 2.34632808,17.1194532 C1.68531245,18.2542578 1.99085932,19.8121094 3.08937496,20.910625 C4.1883984,22.0096485 5.74605466,22.3144532 6.88066404,21.6536329 C8.42062498,20.7563672 13.2696094,23.6055469 18.4376172,18.4376563 C23.6123829,13.2627734 20.7529688,8.42683592 21.6536719,6.88058591 C22.3146876,5.74582028 22.0091407,4.18796871 20.910625,3.08941402 Z M20.0354297,5.93683591 C18.5198047,8.53874998 21.8166797,12.4069531 17.1117969,17.111836 C12.4071094,21.8166407 8.53855467,18.519961 5.93695309,20.0353907 C5.05105465,20.5512891 3.43558589,18.9712891 3.96457027,18.0632032 C5.48019528,15.4612891 2.18332026,11.5930859 6.8882031,6.8882031 C11.5926953,2.18367183 15.4615625,5.47992184 18.0632422,3.96453121 C18.9511328,3.44734371 20.5634375,5.03046872 20.0354297,5.93683591 Z M13.4002344,6.27808591 C13.45375,6.70621091 13.1500781,7.09671873 12.7219141,7.15023435 C10.5794922,7.41800779 7.41804685,10.5794141 7.15023435,12.7219141 C7.09660154,13.1511719 6.70496091,13.4537109 6.27812497,13.4002344 C5.84996091,13.3467188 5.54628903,12.95625 5.59980466,12.528125 C5.95769528,9.66539061 9.66882811,5.95722653 12.528125,5.59980466 C12.9559766,5.54636716 13.3467188,5.84992184 13.4002344,6.27808591 Z" id="path-1"></path>
    </defs>
    <g id="lemon" stroke="none" stroke-width="1" fill="none" fill-rule="evenodd">
        <mask id="mask-2" fill="white">
            <use xlink:href="#path-1"></use>
        </mask>
        <g fill-rule="nonzero"></g>
        <g id="🎨-color" mask="url(#mask-2)" fill="#000000">
            <rect id="🎨-Color" x="0" y="0" width="24" height="24"></rect>
        </g>
    </g>
</svg>