<?xml version="1.0" encoding="UTF-8"?>
<svg width="24px" height="24px" viewBox="0 0 24 24" version="1.1" xmlns="http://www.w3.org/2000/svg" xmlns:xlink="http://www.w3.org/1999/xlink">
    <!-- Generator: Sketch 52.5 (67469) - http://www.bohemiancoding.com/sketch -->
    <title>less-than-equal</title>
    <desc>Created with Sketch.</desc>
    <defs>
        <path d="M5.39765622,10.3671875 L17.1714844,15.0496094 C17.8898438,15.2851563 18.6835938,14.9503906 18.9441407,14.3015625 L19.4164063,13.1265625 C19.6773438,12.4777344 19.30625,11.7605469 18.5878907,11.525 L11.7347656,8.86679686 L18.5925782,6.20703122 C19.3070313,5.97265622 19.6761719,5.25898434 19.4167969,4.61367184 L18.946875,3.44492183 C18.6875,2.7992187 17.8976563,2.46601558 17.1832032,2.70039058 L5.39765622,7.3863281 C4.85976559,7.5628906 4.49999996,8.03515623 4.49999996,8.56523436 L4.49999996,9.18867186 C4.49999996,9.71835936 4.85976559,10.190625 5.39765622,10.3671875 Z M19.8125,17.625 L4.18749996,17.625 C3.66992183,17.625 3.24999996,18.0445313 3.24999996,18.5625 L3.24999996,20.4375 C3.24999996,20.9550782 3.66992183,21.375 4.18749996,21.375 L19.8125,21.375 C20.3300782,21.375 20.75,20.9550782 20.75,20.4375 L20.75,18.5625 C20.75,18.0445313 20.3300782,17.625 19.8125,17.625 Z" id="path-1"></path>
    </defs>
    <g id="less-than-equal" stroke="none" stroke-width="1" fill="none" fill-rule="evenodd">
        <mask id="mask-2" fill="white">
            <use xlink:href="#path-1"></use>
        </mask>
        <g fill-rule="nonzero"></g>
        <g id="🎨-color" mask="url(#mask-2)" fill="#000000">
            <rect id="🎨-Color" x="0" y="0" width="24" height="24"></rect>
        </g>
    </g>
</svg>