<?xml version="1.0" encoding="UTF-8"?>
<svg width="24px" height="24px" viewBox="0 0 24 24" version="1.1" xmlns="http://www.w3.org/2000/svg" xmlns:xlink="http://www.w3.org/1999/xlink">
    <!-- Generator: Sketch 52.5 (67469) - http://www.bohemiancoding.com/sketch -->
    <title>less</title>
    <desc>Created with Sketch.</desc>
    <defs>
        <path d="M21.146875,10.84375 C21.146875,10.203125 21.246875,9.82499999 21.246875,9.13749999 C21.246875,8.06874998 20.853125,7.72499998 19.98125,7.72499998 L19.340625,7.72499998 L19.340625,8.48124998 L19.5375,8.48124998 C19.98125,8.48124998 20.078125,8.62812498 20.078125,9.17187499 C20.078125,9.68124999 20.028125,10.190625 20.028125,10.78125 C20.028125,11.5375 20.275,11.83125 20.765625,11.946875 L20.765625,11.996875 C20.271875,12.1125 20.028125,12.40625 20.028125,13.1625 C20.028125,13.753125 20.078125,14.23125 20.078125,14.771875 C20.078125,15.33125 19.9625,15.478125 19.5375,15.478125 L19.5375,15.49375 L19.340625,15.49375 L19.340625,16.28125 L19.98125,16.28125 C20.85,16.28125 21.246875,15.9375 21.246875,14.86875 C21.246875,14.1625 21.146875,13.8 21.146875,13.1625 C21.146875,12.81875 21.359375,12.45625 22,12.425 L22,11.571875 C21.359375,11.55 21.146875,11.1875 21.146875,10.84375 Z M17.846875,11.84375 C17.353125,11.646875 16.89375,11.53125 16.89375,11.203125 C16.89375,10.95625 17.090625,10.809375 17.453125,10.809375 C17.815625,10.809375 18.14375,10.95625 18.503125,11.21875 L19.159375,10.35 C18.75,10.0375 18.190625,9.70937499 17.434375,9.70937499 C16.31875,9.70937499 15.5625,10.35 15.5625,11.253125 C15.5625,12.05625 16.26875,12.46875 16.859375,12.696875 C17.36875,12.89375 17.8625,13.059375 17.8625,13.3875 C17.8625,13.634375 17.665625,13.796875 17.221875,13.796875 C16.8125,13.796875 16.4,13.63125 15.95625,13.2875 L15.3,14.240625 C15.79375,14.65 16.546875,14.93125 17.171875,14.93125 C18.484375,14.93125 19.190625,14.240625 19.190625,13.3375 C19.190625,12.434375 18.4875,12.05625 17.846875,11.84375 Z M6.63124997,13.7 C6.51562497,13.7 6.36874997,13.6 6.36874997,13.290625 L6.36874997,7.72187498 L4.03749996,7.72187498 C3.14999996,7.72187498 2.75624995,8.06562498 2.75624995,9.13437499 C2.75624995,9.84062499 2.85624995,10.234375 2.85624995,10.840625 C2.85624995,11.184375 2.64374995,11.546875 2.00312495,11.578125 L2.00312495,12.43125 C2.64374995,12.446875 2.85624995,12.809375 2.85624995,13.153125 C2.85624995,13.759375 2.75624995,14.121875 2.75624995,14.828125 C2.75624995,15.896875 3.14999996,16.240625 4.02187496,16.240625 L4.66249996,16.240625 L4.66249996,15.484375 L4.46562496,15.484375 C4.05624996,15.484375 3.92499996,15.31875 3.92499996,14.778125 C3.92499996,14.2375 3.97499996,13.775 3.97499996,13.16875 C3.97499996,12.4125 3.72812496,12.11875 3.23749996,12.003125 L3.23749996,11.953125 C3.73124996,11.8375 3.97499996,11.54375 3.97499996,10.7875 C3.97499996,10.196875 3.92499996,9.71874999 3.92499996,9.17812499 C3.92499996,8.63749998 4.04062496,8.48749998 4.46562496,8.48749998 L4.90624996,8.48749998 L4.90624996,13.2 C4.90624996,14.203125 5.24999997,14.859375 6.25312497,14.859375 C6.56562497,14.859375 6.81249997,14.809375 6.99062497,14.74375 L6.82499997,13.675 C6.72812497,13.7 6.68124997,13.7 6.63124997,13.7 Z M13.871875,11.84375 C13.3625,11.646875 12.903125,11.53125 12.903125,11.203125 C12.903125,10.95625 13.1,10.809375 13.4625,10.809375 C13.825,10.809375 14.153125,10.95625 14.5125,11.21875 L15.16875,10.35 C14.759375,10.0375 14.2,9.70937499 13.44375,9.70937499 C12.328125,9.70937499 11.571875,10.35 11.571875,11.253125 C11.571875,12.05625 12.278125,12.46875 12.86875,12.696875 C13.378125,12.89375 13.871875,13.059375 13.871875,13.3875 C13.871875,13.634375 13.675,13.796875 13.23125,13.796875 C12.821875,13.796875 12.409375,13.63125 11.965625,13.2875 L11.325,14.240625 C11.81875,14.65 12.571875,14.93125 13.196875,14.93125 C14.509375,14.93125 15.215625,14.240625 15.215625,13.3375 C15.21875,12.434375 14.5125,12.05625 13.871875,11.84375 Z M9.02812499,9.69374999 C7.82812498,9.69374999 6.68124997,10.696875 6.71249997,12.271875 C6.71249997,13.896875 7.78124998,14.85 9.19062499,14.85 C9.78124999,14.85 10.4375,14.6375 10.946875,14.290625 L10.453125,13.421875 C10.090625,13.634375 9.74687499,13.734375 9.38437499,13.734375 C8.72812498,13.734375 8.21874998,13.421875 8.08749998,12.665625 L11.0625,12.665625 C11.078125,12.55 11.1125,12.321875 11.1125,12.059375 C11.13125,10.728125 10.40625,9.69374999 9.02812499,9.69374999 Z M8.09062498,11.7625 C8.19062498,11.10625 8.58437498,10.79375 9.04374999,10.79375 C9.63437499,10.79375 9.86562499,11.203125 9.86562499,11.7625 L8.09062498,11.7625 Z" id="path-1"></path>
    </defs>
    <g id="less" stroke="none" stroke-width="1" fill="none" fill-rule="evenodd">
        <mask id="mask-2" fill="white">
            <use xlink:href="#path-1"></use>
        </mask>
        <g fill-rule="nonzero"></g>
        <g id="🎨-color" mask="url(#mask-2)" fill="#000000">
            <rect id="🎨-Color" x="0" y="0" width="24" height="24"></rect>
        </g>
    </g>
</svg>