<?xml version="1.0" encoding="UTF-8"?>
<svg width="24px" height="24px" viewBox="0 0 24 24" version="1.1" xmlns="http://www.w3.org/2000/svg" xmlns:xlink="http://www.w3.org/1999/xlink">
    <!-- Generator: Sketch 52.5 (67469) - http://www.bohemiancoding.com/sketch -->
    <title>life-ring</title>
    <desc>Created with Sketch.</desc>
    <defs>
        <path d="M12,21.6875 C17.3502735,21.6875 21.6875,17.3502735 21.6875,12 C21.6875,6.64972654 17.3502735,2.31249995 12,2.31249995 C6.64972654,2.31249995 2.31249995,6.64972654 2.31249995,12 C2.31249995,17.3502735 6.64972654,21.6875 12,21.6875 Z M7.9610156,18.690625 L10.0473828,16.6042578 C11.2898047,17.131836 12.7086328,17.132461 13.9526172,16.6042578 L16.0389844,18.690625 C13.5695703,20.187461 10.4304297,20.187461 7.9610156,18.690625 Z M15.125,12 C15.125,13.723125 13.723125,15.125 12,15.125 C10.276875,15.125 8.87499998,13.723125 8.87499998,12 C8.87499998,10.276875 10.276875,8.87499998 12,8.87499998 C13.723125,8.87499998 15.125,10.276875 15.125,12 Z M18.690625,16.0389844 L16.6042578,13.9526172 C17.1317969,12.7101953 17.132461,11.2913672 16.6042578,10.0473828 L18.690625,7.9610156 C20.187461,10.4304297 20.187461,13.5695703 18.690625,16.0389844 Z M16.0389453,5.30937497 L13.9525781,7.39574216 C12.7101563,6.8682031 11.2913281,6.86753904 10.0473828,7.39574216 L7.9610156,5.30937497 C10.4304297,3.81253902 13.5695703,3.81253902 16.0389453,5.30937497 Z M5.30937497,7.9610156 L7.39574216,10.0473828 C6.86816404,11.2898047 6.86753904,12.7086328 7.39574216,13.9526172 L5.30937497,16.0389844 C3.81253902,13.5695703 3.81253902,10.4304297 5.30937497,7.9610156 Z" id="path-1"></path>
    </defs>
    <g id="life-ring" stroke="none" stroke-width="1" fill="none" fill-rule="evenodd">
        <mask id="mask-2" fill="white">
            <use xlink:href="#path-1"></use>
        </mask>
        <g fill-rule="nonzero"></g>
        <g id="🎨-color" mask="url(#mask-2)" fill="#000000">
            <rect id="🎨-Color" x="0" y="0" width="24" height="24"></rect>
        </g>
    </g>
</svg>