<?xml version="1.0" encoding="UTF-8"?>
<svg width="24px" height="24px" viewBox="0 0 24 24" version="1.1" xmlns="http://www.w3.org/2000/svg" xmlns:xlink="http://www.w3.org/1999/xlink">
    <!-- Generator: Sketch 52.5 (67469) - http://www.bohemiancoding.com/sketch -->
    <title>lightbulb</title>
    <desc>Created with Sketch.</desc>
    <defs>
        <path d="M12,5.12499997 C9.93203124,5.12499997 8.24999998,6.80703122 8.24999998,8.87499998 C8.24999998,9.22031249 8.52968748,9.49999999 8.87499998,9.49999999 C9.22031249,9.49999999 9.49999999,9.22031249 9.49999999,8.87499998 C9.49999999,7.49609373 10.621875,6.37499997 12,6.37499997 C12.3453125,6.37499997 12.625,6.09531247 12.625,5.74999997 C12.625,5.40468747 12.3453125,5.12499997 12,5.12499997 Z M8.87734373,19.9363282 C8.87734373,20.059375 8.91367186,20.1792969 8.98203123,20.2816407 L9.93945311,21.7207032 C10.0554687,21.8949219 10.2507812,21.9996094 10.4597656,21.9996094 L13.5398438,21.9996094 C13.7492188,21.9996094 13.9445313,21.8949219 14.0601563,21.7207032 L15.0175781,20.2816407 C15.0855469,20.1792969 15.121875,20.0589844 15.1222656,19.9363282 L15.1242188,18.2496094 L8.87578123,18.2496094 L8.87734373,19.9363282 Z M12,1.99999995 C8.00468748,1.99999995 5.12499997,5.24101559 5.12499997,8.87499998 C5.12499997,10.6082031 5.76757809,12.1894531 6.82656247,13.3976563 C7.47656248,14.1394531 8.49609373,15.6945313 8.87421873,16.9976563 L8.87421873,17 L10.7492187,17 L10.7492187,16.9953125 C10.7488281,16.8089844 10.7210937,16.6238281 10.6652344,16.4457031 C10.446875,15.75 9.77382811,13.915625 8.23671873,12.1617188 C7.43437498,11.2464844 7.00546873,10.0855469 7.0019531,8.87499998 C6.9941406,5.99843747 9.33281249,3.87499996 12,3.87499996 C14.7570313,3.87499996 17,6.11796872 17,8.87499998 C17,10.0847656 16.5609375,11.2519531 15.7636719,12.1617188 C14.2359375,13.9042969 13.5597656,15.7347656 13.3378906,16.4375 C13.2806283,16.6181769 13.2513829,16.8065599 13.2511719,16.9960938 L13.2511719,17 L15.1261719,17 L15.1261719,16.9980469 C15.5042969,15.6945313 16.5238281,14.1394531 17.1738282,13.3980469 C18.2324219,12.1894531 18.875,10.6082031 18.875,8.87499998 C18.875,5.07812497 15.796875,1.99999995 12,1.99999995 Z" id="path-1"></path>
    </defs>
    <g id="lightbulb" stroke="none" stroke-width="1" fill="none" fill-rule="evenodd">
        <mask id="mask-2" fill="white">
            <use xlink:href="#path-1"></use>
        </mask>
        <g fill-rule="nonzero"></g>
        <g id="🎨-color" mask="url(#mask-2)" fill="#000000">
            <rect id="🎨-Color" x="0" y="0" width="24" height="24"></rect>
        </g>
    </g>
</svg>