<?xml version="1.0" encoding="UTF-8"?>
<svg width="24px" height="24px" viewBox="0 0 24 24" version="1.1" xmlns="http://www.w3.org/2000/svg" xmlns:xlink="http://www.w3.org/1999/xlink">
    <!-- Generator: Sketch 52.5 (67469) - http://www.bohemiancoding.com/sketch -->
    <title>line</title>
    <desc>Created with Sketch.</desc>
    <defs>
        <path d="M13.8789063,9.97656249 L13.8789063,12.7539063 C13.8789063,12.8242188 13.8242188,12.8789063 13.7539063,12.8789063 L13.3085938,12.8789063 C13.265625,12.8789063 13.2265625,12.8554688 13.2070313,12.828125 L11.9335937,11.109375 L11.9335937,12.7578125 C11.9335937,12.828125 11.8789062,12.8828125 11.8085937,12.8828125 L11.3632812,12.8828125 C11.2929687,12.8828125 11.2382812,12.828125 11.2382812,12.7578125 L11.2382812,9.98046874 C11.2382812,9.91015624 11.2929687,9.85546874 11.3632812,9.85546874 L11.8046875,9.85546874 C11.84375,9.85546874 11.8867187,9.87499999 11.90625,9.91015624 L13.1796875,11.6289062 L13.1796875,9.98046874 C13.1796875,9.91015624 13.234375,9.85546874 13.3046875,9.85546874 L13.75,9.85546874 C13.8203125,9.85156249 13.8789063,9.91015624 13.8789063,9.97656249 Z M10.6757812,9.85156249 L10.2304687,9.85156249 C10.1601562,9.85156249 10.1054687,9.90624999 10.1054687,9.97656249 L10.1054687,12.7539063 C10.1054687,12.8242188 10.1601562,12.8789063 10.2304687,12.8789063 L10.6757812,12.8789063 C10.7460937,12.8789063 10.8007812,12.8242188 10.8007812,12.7539063 L10.8007812,9.97656249 C10.8007812,9.91015624 10.7460937,9.85156249 10.6757812,9.85156249 Z M9.60156249,12.1796875 L8.38671873,12.1796875 L8.38671873,9.97656249 C8.38671873,9.90624999 8.33203123,9.85156249 8.26171873,9.85156249 L7.81640623,9.85156249 C7.74609373,9.85156249 7.69140623,9.90624999 7.69140623,9.97656249 L7.69140623,12.7539063 C7.69140623,12.7890625 7.70312498,12.8164063 7.72656248,12.8398438 C7.74999998,12.859375 7.77734373,12.875 7.81249998,12.875 L9.59765624,12.875 C9.66796874,12.875 9.72265624,12.8203125 9.72265624,12.75 L9.72265624,12.3046875 C9.72265624,12.2382813 9.66796874,12.1796875 9.60156249,12.1796875 Z M16.2226563,9.85156249 L14.4375,9.85156249 C14.3710938,9.85156249 14.3125,9.90624999 14.3125,9.97656249 L14.3125,12.7539063 C14.3125,12.8203125 14.3671875,12.8789063 14.4375,12.8789063 L16.2226563,12.8789063 C16.2929688,12.8789063 16.3476563,12.8242188 16.3476563,12.7539063 L16.3476563,12.3085938 C16.3476563,12.2382813 16.2929688,12.1835938 16.2226563,12.1835938 L15.0078125,12.1835938 L15.0078125,11.7148437 L16.2226563,11.7148437 C16.2929688,11.7148437 16.3476563,11.6601562 16.3476563,11.5898437 L16.3476563,11.140625 C16.3476563,11.0703125 16.2929688,11.015625 16.2226563,11.015625 L15.0078125,11.015625 L15.0078125,10.546875 L16.2226563,10.546875 C16.2929688,10.546875 16.3476563,10.4921875 16.3476563,10.421875 L16.3476563,9.97656249 C16.34375,9.91015624 16.2890625,9.85156249 16.2226563,9.85156249 Z M20.75,6.44140622 L20.75,17.5859375 C20.7460938,19.3359375 19.3125,20.7539063 17.5585938,20.75 L6.41406247,20.75 C4.66406246,20.7460938 3.24609371,19.3085938 3.24999996,17.5585938 L3.24999996,6.41406247 C3.25390621,4.66406246 4.69140621,3.24609371 6.44140622,3.24999996 L17.5859375,3.24999996 C19.3359375,3.25390621 20.7539063,4.68749996 20.75,6.44140622 Z M18.34375,11.2304687 C18.34375,8.37890623 15.484375,6.05859372 11.9726562,6.05859372 C8.46093748,6.05859372 5.60156247,8.37890623 5.60156247,11.2304687 C5.60156247,13.7851563 7.86718748,15.9257813 10.9296875,16.3320313 C11.6757812,16.4921875 11.5898437,16.765625 11.421875,17.7695313 C11.3945312,17.9296875 11.2929687,18.3984375 11.9726562,18.1132813 C12.6523438,17.828125 15.640625,15.953125 16.9804688,14.4140625 C17.9023438,13.3984375 18.34375,12.3710938 18.34375,11.2304687 Z" id="path-1"></path>
    </defs>
    <g id="line" stroke="none" stroke-width="1" fill="none" fill-rule="evenodd">
        <mask id="mask-2" fill="white">
            <use xlink:href="#path-1"></use>
        </mask>
        <g fill-rule="nonzero"></g>
        <g id="🎨-color" mask="url(#mask-2)" fill="#000000">
            <rect id="🎨-Color" x="0" y="0" width="24" height="24"></rect>
        </g>
    </g>
</svg>