<?xml version="1.0" encoding="UTF-8"?>
<svg width="24px" height="24px" viewBox="0 0 24 24" version="1.1" xmlns="http://www.w3.org/2000/svg" xmlns:xlink="http://www.w3.org/1999/xlink">
    <!-- Generator: Sketch 52.5 (67469) - http://www.bohemiancoding.com/sketch -->
    <title>link</title>
    <desc>Created with Sketch.</desc>
    <defs>
        <path d="M14.7334113,9.26670564 C17.0627291,11.5984405 17.0307603,15.3368031 14.7474464,17.6327876 C14.7431579,17.6374659 14.7380897,17.6425341 14.7334113,17.6472125 L12.1135283,20.2670956 C9.80280701,22.5778168 6.04339178,22.5775049 3.7330214,20.2670956 C1.42230014,17.9567642 1.42230014,14.1969201 3.7330214,11.8865887 L5.17964909,10.439961 C5.56327482,10.0563353 6.22393759,10.311306 6.24374266,10.8534503 C6.26900582,11.5443665 6.39290446,12.2385185 6.62152044,12.9088499 C6.69894734,13.1358285 6.6436257,13.3869006 6.47403506,13.5564912 L5.96382063,14.0667057 C4.87118905,15.1593372 4.83692004,16.9384406 5.91879139,18.0417544 C7.011345,19.1559455 8.80713449,19.1625731 9.90807016,18.0616375 L12.5279532,15.4421443 C13.6270176,14.3430799 13.6224172,12.5666277 12.5279532,11.4721637 C12.3836647,11.3281481 12.2383236,11.2162573 12.1247953,11.1380897 C11.9619415,11.026258 11.861522,10.8440371 11.8539571,10.6466277 C11.8385185,10.2346589 11.9844834,9.81013644 12.3100195,9.48460038 L13.1308382,8.66374267 C13.3460819,8.44849901 13.6837427,8.42206626 13.9333333,8.59625729 C14.2191691,8.79584775 14.4868936,9.0201952 14.7334113,9.26670564 Z M20.2279533,3.7718908 C17.9175829,1.46148143 14.1581677,1.46116954 11.8474464,3.7718908 L9.22756334,6.39177385 C9.22288498,6.39645221 9.21781675,6.40152044 9.21352825,6.4061988 C6.93025339,8.70218322 6.89824559,12.4405458 9.22756334,14.7722807 C9.47406655,15.01878 9.74177828,15.2431146 10.0276023,15.4426901 C10.277193,15.6168811 10.6148928,15.5904094 10.8300975,15.3752047 L11.6509162,14.554347 C11.9764522,14.2288109 12.1224172,13.8042885 12.1069786,13.3923197 C12.0994137,13.1949103 11.9989942,13.0126894 11.8361404,12.9008577 C11.7226121,12.8226901 11.577271,12.7107992 11.4329825,12.5667836 C10.3385185,11.4723197 10.3339181,9.69586743 11.4329825,8.5968031 L14.0528655,5.97730991 C15.1538012,4.87637423 16.9495517,4.88300191 18.0421443,5.99719295 C19.1240156,7.1005068 19.0897856,8.87961012 17.997115,9.97224171 L17.4869006,10.4824561 C17.31731,10.6520468 17.2619883,10.9031189 17.3394152,11.1300975 C17.5680312,11.8004288 17.6919299,12.4945809 17.717193,13.1854971 C17.7370371,13.7276413 18.3976609,13.9826121 18.7812866,13.5989864 L20.2279143,12.1523587 C22.5386745,9.84206627 22.5386745,6.08222219 20.2279533,3.7718908 Z" id="path-1"></path>
    </defs>
    <g id="link" stroke="none" stroke-width="1" fill="none" fill-rule="evenodd">
        <mask id="mask-2" fill="white">
            <use xlink:href="#path-1"></use>
        </mask>
        <g fill-rule="nonzero"></g>
        <g id="🎨-color" mask="url(#mask-2)" fill="#000000">
            <rect id="🎨-Color" x="0" y="0" width="24" height="24"></rect>
        </g>
    </g>
</svg>