<?xml version="1.0" encoding="UTF-8"?>
<svg width="24px" height="24px" viewBox="0 0 24 24" version="1.1" xmlns="http://www.w3.org/2000/svg" xmlns:xlink="http://www.w3.org/1999/xlink">
    <!-- Generator: Sketch 52.5 (67469) - http://www.bohemiancoding.com/sketch -->
    <title>linode</title>
    <desc>Created with Sketch.</desc>
    <defs>
        <path d="M20.3359375,10.8398437 C20.3242188,10.8046875 20.3007813,10.7851562 20.28125,10.7617187 L17.546875,9.25390624 C17.5117188,9.23046874 17.46875,9.23046874 17.4257813,9.25390624 L15.125,10.6601562 C15.0898438,10.6835937 15.0703125,10.7265625 15.0703125,10.7617187 L15.0351563,11.9882812 L14.0976563,11.3632812 C14.0625,11.3398437 14.0078125,11.3398437 13.9765625,11.3632812 L12.625,12.1914063 L12.5703125,10.8203125 C12.5703125,10.7851562 12.546875,10.7421875 12.515625,10.7304687 L11.109375,9.78124999 L12.4257813,9.10156249 C12.46875,9.07812499 12.4921875,9.03515624 12.4921875,8.98828123 L12.2695313,3.82031246 C12.2695313,3.78515621 12.234375,3.74218746 12.203125,3.71874996 L8.66406248,2.0117187 C8.62890623,1.99999995 8.59765623,1.99999995 8.57421873,1.99999995 L3.74218746,3.50781246 C3.68749996,3.53124996 3.65234371,3.58593746 3.66406246,3.65234371 L4.73437496,8.85156248 C4.76953121,8.98437498 6.06249997,9.92187499 6.24218747,10.0585937 L5.19140622,10.5625 C5.13671872,10.5976562 5.11328122,10.6523437 5.12499997,10.6953125 L5.92968747,14.6132813 C5.95312497,14.7265625 6.85546872,15.515625 6.98828122,15.640625 L6.30859372,16.0546875 C6.27343747,16.078125 6.24218747,16.1328125 6.25390622,16.1757813 C6.30859372,16.453125 6.85546872,19.2109375 6.91406247,19.265625 L9.45703124,21.9648438 C9.48046874,21.9882813 9.51171874,21.9882813 9.54687499,22.0000001 C9.57031249,22.0000001 9.58984374,21.9882813 9.61328124,21.9765625 L12.8828125,19.3632813 C12.9179688,19.3398438 12.9257813,19.3085938 12.9257813,19.2734375 L12.8476563,17.4765625 L13.9414063,18.4023438 C13.984375,18.4375 14.0546875,18.4375 14.0976563,18.4023438 L16.7109375,16.3164063 C16.7460938,16.2929688 16.7539063,16.2617188 16.7539063,16.2265625 L16.84375,14.921875 L17.6367188,15.46875 C17.6796875,15.5039063 17.7382813,15.5039063 17.78125,15.46875 L19.9140625,13.7617188 C19.9375,13.75 19.9570313,13.71875 19.9570313,13.6835938 C19.9921875,13.4296875 20.359375,10.9179687 20.3359375,10.8398437 Z M12.3359375,11.0273437 L12.4921875,14.6445313 L8.95312498,17.0351563 L8.40624998,13.2617188 L12.3359375,11.0273437 Z M12.0351563,3.99609371 L12.2460938,8.91796873 L8.08203123,11.0820312 L7.31249998,5.81640622 L12.0351563,3.99609371 Z M4.96874996,8.76171873 L3.95312496,3.87499996 L7.06640623,5.80468747 L7.82421873,10.9960937 L4.96874996,8.76171873 Z M6.16406247,14.5351563 L5.42578122,10.984375 L8.16015623,13.2617188 L8.69531248,16.9101563 L6.16406247,14.5351563 Z M7.11328123,19.1328125 L6.57812497,16.5117188 L8.98828123,18.890625 L9.36718749,21.5234375 L7.11328123,19.1328125 Z M9.63281249,21.6523438 L9.21874999,18.8828125 L12.5664063,16.484375 L12.6875,19.21875 L9.63281249,21.6523438 Z M12.8359375,17.15625 C12.8359375,17.0234375 12.8710938,16.2617188 12.7578125,16.1757813 L11.8085937,15.3945313 L12.6796875,14.8125 C12.7695313,14.7460938 12.7226563,14.5898438 12.7226563,14.5 L13.8710938,15.3828125 L13.8945313,18.0507813 L12.8359375,17.15625 Z M16.5195313,16.1640625 L14.140625,18.0625 L14.1171875,15.3828125 L16.6835938,13.5507813 L16.5195313,16.1640625 Z M17.6015625,15.1601563 L16.8554688,14.6367188 L16.9335938,13.3085938 C16.9453125,13.2734375 16.921875,13.2304688 16.890625,13.2070313 L15.28125,12.1445313 L15.3046875,10.9726562 L17.828125,12.5585938 L17.6015625,15.1601563 Z M19.734375,13.6054688 L17.8476563,15.1015625 L18.0703125,12.5585938 L20.0664063,11.1289062 L19.734375,13.6054688 Z" id="path-1"></path>
    </defs>
    <g id="linode" stroke="none" stroke-width="1" fill="none" fill-rule="evenodd">
        <mask id="mask-2" fill="white">
            <use xlink:href="#path-1"></use>
        </mask>
        <g fill-rule="nonzero"></g>
        <g id="🎨-color" mask="url(#mask-2)" fill="#000000">
            <rect id="🎨-Color" x="0" y="0" width="24" height="24"></rect>
        </g>
    </g>
</svg>