<?xml version="1.0" encoding="UTF-8"?>
<svg width="24px" height="24px" viewBox="0 0 24 24" version="1.1" xmlns="http://www.w3.org/2000/svg" xmlns:xlink="http://www.w3.org/1999/xlink">
    <!-- Generator: Sketch 52.5 (67469) - http://www.bohemiancoding.com/sketch -->
    <title>linux</title>
    <desc>Created with Sketch.</desc>
    <defs>
        <path d="M10.9122807,6.81871342 C10.9044834,6.76413253 10.9863548,6.72904481 11.037037,6.70565299 C11.1033138,6.67836255 11.1890838,6.66666664 11.251462,6.70175436 C11.2670565,6.70955163 11.2826511,6.72904481 11.2748538,6.74463935 C11.2592593,6.79142298 11.1812865,6.7836257 11.1384016,6.80701752 C11.0994152,6.8265107 11.0682261,6.87329432 11.0214425,6.87329432 C10.9824561,6.87719296 10.9161793,6.85769978 10.9122807,6.81871342 Z M11.8752437,6.80701752 C11.91423,6.8265107 11.9454191,6.87329432 11.9922027,6.87329432 C12.0350877,6.87329432 12.1013645,6.85769978 12.1052632,6.81481479 C12.1130604,6.76023389 12.0311891,6.72514617 11.9805068,6.70175436 C11.91423,6.67446391 11.82846,6.662768 11.7660819,6.69785572 C11.7504873,6.70565299 11.7348928,6.72514617 11.7426901,6.74074071 C11.754386,6.79142298 11.8323587,6.7836257 11.8752437,6.80701752 Z M20.2456141,18.9005848 C20.2261209,19.2202729 19.9922028,19.4385965 19.7037037,19.6140351 C19.1228071,19.9649123 18.2495127,20.2300195 17.7192983,20.8693958 L17.6179338,20.7836258 L17.7192983,20.8693958 C17.165692,21.5282652 16.4834308,21.9064328 15.8362573,21.9571151 C15.1929825,22.0077973 14.588694,21.711501 14.2651072,21.0604289 L14.2651072,21.0565303 C14.2222222,20.9746589 14.1910331,20.8849903 14.1676413,20.7953217 C13.3294347,20.8421053 12.6003899,20.588694 12.0194932,20.6354776 C11.1617934,20.6822613 10.6237817,20.8888889 10.1364522,20.8927876 C9.94931773,21.3060429 9.57894736,21.5789474 9.12670564,21.6803119 C8.50292396,21.8245615 7.71929822,21.6803119 6.9473684,21.2748538 L7.00974656,21.1578948 L6.9473684,21.2748538 C6.22612083,20.8927876 5.30994149,20.9278753 4.63547755,20.7875244 C4.29629626,20.717349 3.99999996,20.5925926 3.85185181,20.3079922 C3.7076023,20.0233919 3.73489275,19.6335283 3.93762179,19.0721248 C4.0038986,18.8732944 3.95321633,18.5769981 3.90643271,18.2612086 C3.8830409,18.1091618 3.85964908,17.9532164 3.85964908,17.8011696 C3.85964908,17.6335283 3.88693953,17.4697856 3.96881088,17.3177388 C4.14424947,16.9863548 4.42884986,16.8460039 4.69005844,16.7524367 C4.95126702,16.6588694 5.18908379,16.5964913 5.35282648,16.4288499 C5.55555552,16.214425 5.74658866,15.8674464 5.99999997,15.6413256 C5.89863545,14.9707602 6.00779724,14.2612086 6.24171537,13.5633528 C6.73294344,12.08577 7.76998049,10.6705653 8.50682259,9.79337231 C9.13450291,8.90058478 9.31773878,8.18323585 9.38401558,7.27095514 C9.42690057,6.03118905 8.42884988,1.99220268 12.4210526,1.99999995 C15.5750488,2.00389859 15.3957115,5.32943466 15.3762183,7.11890836 C15.3645224,8.29239764 16.0116959,9.08771928 16.6783626,9.92592592 C17.2709552,10.6276803 18.0467837,11.6530214 18.4912281,12.8265107 C18.8538012,13.7855751 18.9941521,14.8460039 18.6354776,15.9103314 C18.6900585,15.9298246 18.7446394,15.957115 18.7953217,15.9883041 C18.8499026,16.0194932 18.9005848,16.0584796 18.9512671,16.1013645 C19.208577,16.3196881 19.2904484,16.6588694 19.3606238,16.9746589 C19.4346979,17.2904484 19.5009747,17.5867447 19.6413256,17.7426901 C20.0740741,18.2261209 20.2612086,18.5808967 20.2456141,18.9005848 Z M11.8752437,6.25341128 C12.0155945,6.288499 12.2222222,6.34697853 12.3820663,6.42495124 C12.3001949,5.94931771 12.5575049,5.5087719 12.8421053,5.52826507 C13.1890838,5.53996098 13.3840156,6.13255358 13.1968811,6.59259257 C13.165692,6.66666664 13.0877193,6.72514617 13.0448343,6.7719298 C13.3060429,6.86159841 13.4736842,6.93177385 13.5360624,6.96296294 C13.8440546,6.59259257 13.957115,5.94152044 13.7037037,5.3879142 C13.3216374,4.5536062 12.3703704,4.53801166 11.9883041,5.40350874 C11.8635478,5.68421049 11.8362573,5.98440543 11.8752437,6.25341128 Z M10.0740741,6.98635475 C10.3781676,6.76413253 10.3430799,6.80311888 10.3040936,6.7719298 C9.99220272,6.50292395 10.0467836,5.70370367 10.374269,5.67641322 C10.619883,5.65692005 10.7953216,6.09356722 10.748538,6.44054578 C10.8693957,6.35867444 11.0097466,6.3001949 11.1461988,6.26120855 C11.2124756,5.5087719 10.7953216,4.95516566 10.4015594,4.95516566 C9.66471734,4.95516566 9.46588693,6.41715397 10.0740741,6.98635475 Z M9.70760233,7.80116957 C9.76608186,7.99220271 9.94541909,8.2105263 10.2807017,8.3976608 C10.5847953,8.57699803 10.748538,8.84600388 11.0604288,8.98245613 C11.1617934,9.02534112 11.2826511,9.0565302 11.4346979,9.06432747 C12.1520468,9.10721246 12.4912281,8.62378166 12.9239766,8.48343078 C13.380117,8.33918127 13.7076023,8.05458088 13.8089669,7.77777776 C13.9337232,7.44639374 13.7270955,7.20467834 13.3996101,7.0682261 C12.9590643,6.87719296 12.7641326,6.86549705 12.5185185,6.70565299 C12.1169591,6.44834305 11.785575,6.35867444 11.5087719,6.35867444 C10.9473684,6.35867444 10.6042885,6.74074071 10.4210526,6.91228068 C10.4015594,6.93177385 10.1130604,7.14230017 9.87134502,7.3216374 C9.70760233,7.45029237 9.65302143,7.61013643 9.70760233,7.80116957 Z M8.40155944,17.6569201 L7.63742688,16.2690059 C7.37231966,15.9103314 7.09941518,15.6920078 6.7836257,15.6452242 C6.48343077,15.5984406 6.29239763,15.6998051 6.09356722,15.91423 C5.90643272,16.1130604 5.7504873,16.3937622 5.53606235,16.6159844 C5.23196878,16.8693957 5.17348924,16.8576998 4.77192979,17.0019493 C4.52631575,17.0877193 4.33138398,17.1812866 4.19493173,17.4424952 C4.08966858,17.6374269 4.11306039,17.9181287 4.15984402,18.2222223 C4.20662764,18.5302145 4.27680308,18.8576998 4.18323583,19.1539961 L4.18323583,19.1617934 C3.98830405,19.6959065 3.98830405,20.0077973 4.08187131,20.1910332 C4.38986351,20.791423 5.89863545,20.4288499 7.06432746,21.0448344 C8.28849901,21.6842106 9.89473683,21.711501 9.99999999,20.34308 C10.0818713,19.5438597 8.77192981,18.4327486 8.40155944,17.6569201 Z M14.4015595,19.0526316 C14.5263158,18.6237817 14.6471735,18.2222223 14.6666667,17.9220273 C14.6978558,17.3294347 14.7290448,16.8031189 14.8382066,16.3664718 C14.9590643,15.8752437 15.2007797,15.465887 15.6725146,15.3021443 C15.7621833,14.4795322 16.4015595,14.4795322 17.165692,14.8148148 C17.9025341,15.1461988 18.1793373,15.4385965 18.0545809,15.8323587 C18.0935673,15.8323587 18.1325536,15.8284601 18.2183236,15.8323587 C18.4210527,15.1734893 17.6608187,14.7407408 17.0214425,14.4756335 C17.1345029,14.0077973 17.1150098,13.5360624 17.005848,13.0838207 C16.7719298,12.0974659 16.1247564,11.2202729 15.6335283,10.7836257 C15.5438597,10.7797271 15.5516569,10.8576998 15.7348928,11.037037 C16.1871345,11.454191 17.1812866,12.9551657 16.6432749,14.3469786 C16.4912281,14.3079922 16.3469786,14.288499 16.2183236,14.2923977 C16.0116959,13.1578947 15.5360624,12.2183236 15.2982456,11.7738791 C14.8499025,10.9395711 14.1481482,9.22807016 13.8479532,8.04288497 C13.6725146,8.29239764 13.3645224,8.50682259 12.9785575,8.6276803 C12.7953216,8.68615983 12.6003899,8.84210525 12.3586745,8.97855749 C11.8167641,9.29044833 11.1890838,9.32163741 10.705653,8.93177386 C10.5302144,8.79142299 10.3937622,8.63547757 10.2144249,8.53021441 C10.1520468,8.49512669 10.0155945,8.40155944 9.97270954,8.37037035 C9.89473683,9.84405457 8.90838205,11.6959064 8.44054579,12.7641326 C8.11695904,13.5321638 7.92592591,14.3547758 7.90253409,15.1617934 C7.05263155,14.0272905 7.6725146,12.5769981 8.00389862,11.9493177 C8.37426899,11.2631579 8.43274852,11.0721248 8.3430799,11.1384016 C8.00779725,11.6842105 7.48538009,12.5536062 7.28265105,13.4463938 C7.17738789,13.9103314 7.15789471,14.3820663 7.29434696,14.8187135 C7.4307992,15.2553606 7.7270955,15.6569201 8.25341129,15.9844055 C8.25341129,15.9844055 9.22027289,16.5419104 9.74658868,17.251462 C10.0350877,17.6413256 10.1247563,17.9805069 10.0350877,18.2222223 C9.93762182,18.4834308 9.6608187,18.5692008 9.38401558,18.5692008 C9.57115009,18.8031189 9.78557504,19.0760234 9.94541909,19.3333334 C11.411306,20.3352827 13.1500975,19.9454191 14.4015595,19.0526316 Z M19.4463938,17.925926 C19.0565302,17.4853801 19.165692,16.6354776 18.7797271,16.3040936 C18.5107213,16.0701755 18.2495127,16.0935673 17.8986355,16.1052632 C17.5984406,16.4483431 16.8927875,16.8693957 16.4015595,16.7407408 C15.9532164,16.6276803 15.6998051,16.1052632 15.668616,15.5906433 C15.6569201,15.5984406 15.6413256,15.6023392 15.6296296,15.6101365 C15.3528265,15.7621833 15.1968811,16.0311891 15.0955166,16.4327486 C14.9980507,16.8304094 14.962963,17.3489279 14.9317739,17.9415205 C14.9044834,18.4015595 14.6900585,18.9707603 14.545809,19.5243665 C14.4093567,20.0389864 14.3196881,20.5068227 14.502924,20.9395712 C14.7836257,21.5048733 15.2631579,21.7348928 15.8167642,21.6920078 C16.3703704,21.6491229 17.0019493,21.3099416 17.5165692,20.6978558 C18.374269,19.6608188 19.9454191,19.5399611 19.9805069,18.8849903 C19.9922028,18.6861599 19.8596492,18.3781677 19.4463938,17.925926 Z M10.0233918,7.79727093 C10.1013645,7.87134501 10.2066277,7.97270953 10.3352826,8.07407405 C10.5925926,8.2768031 10.9512671,8.48732942 11.3996101,8.48732942 C11.8518519,8.48732942 12.2768031,8.25730992 12.6393762,8.06627678 C12.8304094,7.96491226 13.0643275,7.7933723 13.2163743,7.66081869 C13.3684211,7.52826508 13.4463938,7.41520466 13.337232,7.40350875 C13.2280702,7.39181284 13.2358675,7.50487327 13.1033138,7.60233916 C12.9317739,7.7270955 12.7251462,7.89083819 12.5614035,7.98440544 C12.2729045,8.14814813 11.8011696,8.38206626 11.3957115,8.38206626 C10.9902534,8.38206626 10.6666667,8.19493175 10.4249513,8.00389862 C10.3040936,7.90643273 10.202729,7.80896684 10.1247563,7.73489277 C10.0662768,7.68031187 10.0506823,7.55555553 9.957115,7.54385963 C9.9025341,7.53996099 9.88693956,7.68810914 10.0233918,7.79727093 Z" id="path-1"></path>
    </defs>
    <g id="linux" stroke="none" stroke-width="1" fill="none" fill-rule="evenodd">
        <mask id="mask-2" fill="white">
            <use xlink:href="#path-1"></use>
        </mask>
        <g fill-rule="nonzero"></g>
        <g id="🎨-color" mask="url(#mask-2)" fill="#000000">
            <rect id="🎨-Color" x="0" y="0" width="24" height="24"></rect>
        </g>
    </g>
</svg>