<?xml version="1.0" encoding="UTF-8"?>
<svg width="24px" height="24px" viewBox="0 0 24 24" version="1.1" xmlns="http://www.w3.org/2000/svg" xmlns:xlink="http://www.w3.org/1999/xlink">
    <!-- Generator: Sketch 52.5 (67469) - http://www.bohemiancoding.com/sketch -->
    <title>lira-sign</title>
    <desc>Created with Sketch.</desc>
    <defs>
        <path d="M19.0310157,12 L17.1552735,12 C16.9078125,12 16.6875,12.191875 16.6875,12.4392969 C16.6875,16.375 13.4913672,18.25 10.125,18.25 L10.125,12.0305078 L15.3829297,10.8620703 C15.5973995,10.8144135 15.7499949,10.624193 15.75,10.4044922 L15.75,8.80386717 C15.75,8.50398436 15.4723047,8.28121092 15.1795703,8.34628904 L10.125,9.46949217 L10.125,8.28046873 L15.3829297,7.11203123 C15.5973995,7.06437445 15.7499949,6.87415395 15.75,6.6544531 L15.75,5.05386715 C15.75,4.75398434 15.4723047,4.5312109 15.1795703,4.59628903 L10.125,5.71949216 L10.125,3.71874996 C10.125,3.45988277 9.91511718,3.24999996 9.65624999,3.24999996 L7.46874998,3.24999996 C7.20988279,3.24999996 6.99999997,3.45988277 6.99999997,3.71874996 L6.99999997,6.41394528 L4.86707028,6.88792966 C4.65260047,6.93558644 4.50000512,7.12580693 4.49999996,7.34550779 L4.49999996,8.9461328 C4.49999996,9.24601561 4.77769528,9.46878905 5.07042965,9.40371092 L6.99999997,8.97492186 L6.99999997,10.1639453 L4.86707028,10.6379297 C4.65260047,10.6855865 4.50000512,10.875807 4.49999996,11.0955078 L4.49999996,12.6961328 C4.49999996,12.9960156 4.77769528,13.2187891 5.07042965,13.1537109 L6.99999997,12.7249219 L6.99999997,20.28125 C6.99999997,20.5401172 7.20988279,20.75 7.46874998,20.75 L10.5774609,20.75 C15.8153906,20.75 19.2983594,17.7096094 19.4996485,12.4846875 C19.5098438,12.2197656 19.2960938,12 19.0310157,12 Z" id="path-1"></path>
    </defs>
    <g id="lira-sign" stroke="none" stroke-width="1" fill="none" fill-rule="evenodd">
        <mask id="mask-2" fill="white">
            <use xlink:href="#path-1"></use>
        </mask>
        <g></g>
        <g id="🎨-color" mask="url(#mask-2)" fill="#000000">
            <rect id="🎨-Color" x="0" y="0" width="24" height="24"></rect>
        </g>
    </g>
</svg>