<?xml version="1.0" encoding="UTF-8"?>
<svg width="24px" height="24px" viewBox="0 0 24 24" version="1.1" xmlns="http://www.w3.org/2000/svg" xmlns:xlink="http://www.w3.org/1999/xlink">
    <!-- Generator: Sketch 52.5 (67469) - http://www.bohemiancoding.com/sketch -->
    <title>list-ul</title>
    <desc>Created with Sketch.</desc>
    <defs>
        <path d="M5.74999997,5.74999997 C5.74999997,6.78554685 4.91054684,7.62499998 3.87499996,7.62499998 C2.83945308,7.62499998 1.99999995,6.78554685 1.99999995,5.74999997 C1.99999995,4.71445309 2.83945308,3.87499996 3.87499996,3.87499996 C4.91054684,3.87499996 5.74999997,4.71445309 5.74999997,5.74999997 Z M3.87499996,10.125 C2.83945308,10.125 1.99999995,10.9644531 1.99999995,12 C1.99999995,13.0355469 2.83945308,13.875 3.87499996,13.875 C4.91054684,13.875 5.74999997,13.0355469 5.74999997,12 C5.74999997,10.9644531 4.91054684,10.125 3.87499996,10.125 Z M3.87499996,16.375 C2.83945308,16.375 1.99999995,17.2144532 1.99999995,18.25 C1.99999995,19.2855469 2.83945308,20.125 3.87499996,20.125 C4.91054684,20.125 5.74999997,19.2855469 5.74999997,18.25 C5.74999997,17.2144532 4.91054684,16.375 3.87499996,16.375 Z M7.62499998,7.15624998 L21.375,7.15624998 C21.7201954,7.15624998 22.0000001,6.87644529 22.0000001,6.53124997 L22.0000001,4.96874996 C22.0000001,4.62355465 21.7201954,4.34374996 21.375,4.34374996 L7.62499998,4.34374996 C7.27980466,4.34374996 6.99999997,4.62355465 6.99999997,4.96874996 L6.99999997,6.53124997 C6.99999997,6.87644529 7.27980466,7.15624998 7.62499998,7.15624998 Z M7.62499998,13.40625 L21.375,13.40625 C21.7201954,13.40625 22.0000001,13.1264453 22.0000001,12.78125 L22.0000001,11.21875 C22.0000001,10.8735547 21.7201954,10.59375 21.375,10.59375 L7.62499998,10.59375 C7.27980466,10.59375 6.99999997,10.8735547 6.99999997,11.21875 L6.99999997,12.78125 C6.99999997,13.1264453 7.27980466,13.40625 7.62499998,13.40625 Z M7.62499998,19.65625 L21.375,19.65625 C21.7201954,19.65625 22.0000001,19.3764453 22.0000001,19.03125 L22.0000001,17.46875 C22.0000001,17.1235547 21.7201954,16.84375 21.375,16.84375 L7.62499998,16.84375 C7.27980466,16.84375 6.99999997,17.1235547 6.99999997,17.46875 L6.99999997,19.03125 C6.99999997,19.3764453 7.27980466,19.65625 7.62499998,19.65625 Z" id="path-1"></path>
    </defs>
    <g id="list-ul" stroke="none" stroke-width="1" fill="none" fill-rule="evenodd">
        <mask id="mask-2" fill="white">
            <use xlink:href="#path-1"></use>
        </mask>
        <g fill-rule="nonzero"></g>
        <g id="🎨-color" mask="url(#mask-2)" fill="#000000">
            <rect id="🎨-Color" x="0" y="0" width="24" height="24"></rect>
        </g>
    </g>
</svg>