<?xml version="1.0" encoding="UTF-8"?>
<svg width="24px" height="24px" viewBox="0 0 24 24" version="1.1" xmlns="http://www.w3.org/2000/svg" xmlns:xlink="http://www.w3.org/1999/xlink">
    <!-- Generator: Sketch 52.5 (67469) - http://www.bohemiancoding.com/sketch -->
    <title>list-alt</title>
    <desc>Created with Sketch.</desc>
    <defs>
        <path d="M20.125,3.24999996 L3.87499996,3.24999996 C2.83945308,3.24999996 1.99999995,4.08945309 1.99999995,5.12499997 L1.99999995,18.875 C1.99999995,19.9105469 2.83945308,20.75 3.87499996,20.75 L20.125,20.75 C21.1605469,20.75 22.0000001,19.9105469 22.0000001,18.875 L22.0000001,5.12499997 C22.0000001,4.08945309 21.1605469,3.24999996 20.125,3.24999996 Z M19.890625,18.875 L4.10937496,18.875 C3.97993322,18.875 3.87499996,18.7700668 3.87499996,18.640625 L3.87499996,5.35937497 C3.87499996,5.22993323 3.97993322,5.12499997 4.10937496,5.12499997 L19.890625,5.12499997 C20.0200668,5.12499997 20.125,5.22993323 20.125,5.35937497 L20.125,18.640625 C20.125,18.7700668 20.0200668,18.875 19.890625,18.875 Z M18.25,15.28125 L18.25,16.21875 C18.25,16.4776172 18.0401172,16.6875 17.78125,16.6875 L9.96874999,16.6875 C9.7098828,16.6875 9.49999999,16.4776172 9.49999999,16.21875 L9.49999999,15.28125 C9.49999999,15.0223828 9.7098828,14.8125 9.96874999,14.8125 L17.78125,14.8125 C18.0401172,14.8125 18.25,15.0223828 18.25,15.28125 Z M18.25,11.53125 L18.25,12.46875 C18.25,12.7276172 18.0401172,12.9375 17.78125,12.9375 L9.96874999,12.9375 C9.7098828,12.9375 9.49999999,12.7276172 9.49999999,12.46875 L9.49999999,11.53125 C9.49999999,11.2723828 9.7098828,11.0625 9.96874999,11.0625 L17.78125,11.0625 C18.0401172,11.0625 18.25,11.2723828 18.25,11.53125 Z M18.25,7.78124998 L18.25,8.71874998 C18.25,8.97761717 18.0401172,9.18749999 17.78125,9.18749999 L9.96874999,9.18749999 C9.7098828,9.18749999 9.49999999,8.97761717 9.49999999,8.71874998 L9.49999999,7.78124998 C9.49999999,7.52238279 9.7098828,7.31249998 9.96874999,7.31249998 L17.78125,7.31249998 C18.0401172,7.31249998 18.25,7.52238279 18.25,7.78124998 Z M8.40624998,8.24999998 C8.40624998,9.02664061 7.7766406,9.65624999 6.99999997,9.65624999 C6.22335935,9.65624999 5.59374997,9.02664061 5.59374997,8.24999998 C5.59374997,7.47335935 6.22335935,6.84374997 6.99999997,6.84374997 C7.7766406,6.84374997 8.40624998,7.47335935 8.40624998,8.24999998 Z M8.40624998,12 C8.40624998,12.7766406 7.7766406,13.40625 6.99999997,13.40625 C6.22335935,13.40625 5.59374997,12.7766406 5.59374997,12 C5.59374997,11.2233594 6.22335935,10.59375 6.99999997,10.59375 C7.7766406,10.59375 8.40624998,11.2233594 8.40624998,12 Z M8.40624998,15.75 C8.40624998,16.5266406 7.7766406,17.15625 6.99999997,17.15625 C6.22335935,17.15625 5.59374997,16.5266406 5.59374997,15.75 C5.59374997,14.9733594 6.22335935,14.34375 6.99999997,14.34375 C7.7766406,14.34375 8.40624998,14.9733594 8.40624998,15.75 Z" id="path-1"></path>
    </defs>
    <g id="list-alt" stroke="none" stroke-width="1" fill="none" fill-rule="evenodd">
        <mask id="mask-2" fill="white">
            <use xlink:href="#path-1"></use>
        </mask>
        <g fill-rule="nonzero"></g>
        <g id="🎨-color" mask="url(#mask-2)" fill="#000000">
            <rect id="🎨-Color" x="0" y="0" width="24" height="24"></rect>
        </g>
    </g>
</svg>