<?xml version="1.0" encoding="UTF-8"?>
<svg width="24px" height="24px" viewBox="0 0 24 24" version="1.1" xmlns="http://www.w3.org/2000/svg" xmlns:xlink="http://www.w3.org/1999/xlink">
    <!-- Generator: Sketch 52.5 (67469) - http://www.bohemiancoding.com/sketch -->
    <title>list</title>
    <desc>Created with Sketch.</desc>
    <defs>
        <path d="M6.99999997,6.53124997 L6.99999997,4.96874996 C6.99999997,4.62355465 7.27980466,4.34374996 7.62499998,4.34374996 L21.375,4.34374996 C21.7201954,4.34374996 22.0000001,4.62355465 22.0000001,4.96874996 L22.0000001,6.53124997 C22.0000001,6.87644529 21.7201954,7.15624998 21.375,7.15624998 L7.62499998,7.15624998 C7.27980466,7.15624998 6.99999997,6.87644529 6.99999997,6.53124997 Z M7.62499998,13.40625 L21.375,13.40625 C21.7201954,13.40625 22.0000001,13.1264453 22.0000001,12.78125 L22.0000001,11.21875 C22.0000001,10.8735547 21.7201954,10.59375 21.375,10.59375 L7.62499998,10.59375 C7.27980466,10.59375 6.99999997,10.8735547 6.99999997,11.21875 L6.99999997,12.78125 C6.99999997,13.1264453 7.27980466,13.40625 7.62499998,13.40625 Z M7.62499998,19.65625 L21.375,19.65625 C21.7201954,19.65625 22.0000001,19.3764453 22.0000001,19.03125 L22.0000001,17.46875 C22.0000001,17.1235547 21.7201954,16.84375 21.375,16.84375 L7.62499998,16.84375 C7.27980466,16.84375 6.99999997,17.1235547 6.99999997,17.46875 L6.99999997,19.03125 C6.99999997,19.3764453 7.27980466,19.65625 7.62499998,19.65625 Z M2.62499995,7.62499998 L5.12499997,7.62499998 C5.47019528,7.62499998 5.74999997,7.34519529 5.74999997,6.99999998 L5.74999997,4.49999996 C5.74999997,4.15480465 5.47019528,3.87499996 5.12499997,3.87499996 L2.62499995,3.87499996 C2.27980464,3.87499996 1.99999995,4.15480465 1.99999995,4.49999996 L1.99999995,6.99999998 C1.99999995,7.34519529 2.27980464,7.62499998 2.62499995,7.62499998 Z M2.62499995,13.875 L5.12499997,13.875 C5.47019528,13.875 5.74999997,13.5951953 5.74999997,13.25 L5.74999997,10.75 C5.74999997,10.4048047 5.47019528,10.125 5.12499997,10.125 L2.62499995,10.125 C2.27980464,10.125 1.99999995,10.4048047 1.99999995,10.75 L1.99999995,13.25 C1.99999995,13.5951953 2.27980464,13.875 2.62499995,13.875 Z M2.62499995,20.125 L5.12499997,20.125 C5.47019528,20.125 5.74999997,19.8451954 5.74999997,19.5 L5.74999997,17 C5.74999997,16.6548047 5.47019528,16.375 5.12499997,16.375 L2.62499995,16.375 C2.27980464,16.375 1.99999995,16.6548047 1.99999995,17 L1.99999995,19.5 C1.99999995,19.8451954 2.27980464,20.125 2.62499995,20.125 Z" id="path-1"></path>
    </defs>
    <g id="list" stroke="none" stroke-width="1" fill="none" fill-rule="evenodd">
        <mask id="mask-2" fill="white">
            <use xlink:href="#path-1"></use>
        </mask>
        <g fill-rule="nonzero"></g>
        <g id="🎨-color" mask="url(#mask-2)" fill="#000000">
            <rect id="🎨-Color" x="0" y="0" width="24" height="24"></rect>
        </g>
    </g>
</svg>