<?xml version="1.0" encoding="UTF-8"?>
<svg width="24px" height="24px" viewBox="0 0 24 24" version="1.1" xmlns="http://www.w3.org/2000/svg" xmlns:xlink="http://www.w3.org/1999/xlink">
    <!-- Generator: Sketch 52.5 (67469) - http://www.bohemiancoding.com/sketch -->
    <title>lock</title>
    <desc>Created with Sketch.</desc>
    <defs>
        <path d="M18.875,10.75 L17.9375,10.75 L17.9375,7.93749998 C17.9375,4.66406246 15.2734375,1.99999995 12,1.99999995 C8.72656248,1.99999995 6.06249997,4.66406246 6.06249997,7.93749998 L6.06249997,10.75 L5.12499997,10.75 C4.08984371,10.75 3.24999996,11.5898437 3.24999996,12.625 L3.24999996,20.125 C3.24999996,21.1601563 4.08984371,22.0000001 5.12499997,22.0000001 L18.875,22.0000001 C19.9101563,22.0000001 20.75,21.1601563 20.75,20.125 L20.75,12.625 C20.75,11.5898437 19.9101563,10.75 18.875,10.75 Z M14.8125,10.75 L9.18749999,10.75 L9.18749999,7.93749998 C9.18749999,6.38671872 10.4492187,5.12499997 12,5.12499997 C13.5507813,5.12499997 14.8125,6.38671872 14.8125,7.93749998 L14.8125,10.75 Z" id="path-1"></path>
    </defs>
    <g id="lock" stroke="none" stroke-width="1" fill="none" fill-rule="evenodd">
        <mask id="mask-2" fill="white">
            <use xlink:href="#path-1"></use>
        </mask>
        <g fill-rule="nonzero"></g>
        <g id="🎨-color" mask="url(#mask-2)" fill="#000000">
            <rect id="🎨-Color" x="0" y="0" width="24" height="24"></rect>
        </g>
    </g>
</svg>