<?xml version="1.0" encoding="UTF-8"?>
<svg width="24px" height="24px" viewBox="0 0 24 24" version="1.1" xmlns="http://www.w3.org/2000/svg" xmlns:xlink="http://www.w3.org/1999/xlink">
    <!-- Generator: Sketch 52.5 (67469) - http://www.bohemiancoding.com/sketch -->
    <title>lock-open</title>
    <desc>Created with Sketch.</desc>
    <defs>
        <path d="M16.7048611,3.12847218 C13.7881945,3.13888884 11.4444444,5.54166663 11.4444444,8.45833332 L11.4444444,10.90625 L3.66666662,10.90625 C2.74652773,10.90625 1.99999995,11.6527778 1.99999995,12.5729167 L1.99999995,19.2395834 C1.99999995,20.1597223 2.74652773,20.90625 3.66666662,20.90625 L15.8888889,20.90625 C16.8090278,20.90625 17.5555556,20.1597223 17.5555556,19.2395834 L17.5555556,12.5729167 C17.5555556,11.6527778 16.8090278,10.90625 15.8888889,10.90625 L14.2222222,10.90625 L14.2222222,8.43749998 C14.2222222,7.06249998 15.3229167,5.92013886 16.6979167,5.90624997 C18.0868056,5.89236108 19.2222223,7.02083331 19.2222223,8.40624998 L19.2222223,11.1840278 C19.2222223,11.6458333 19.59375,12.0173611 20.0555556,12.0173611 L21.1666667,12.0173611 C21.6284723,12.0173611 22.0000001,11.6458333 22.0000001,11.1840278 L22.0000001,8.40624998 C22.0000001,5.4895833 19.6215278,3.11805551 16.7048611,3.12847218 Z" id="path-1"></path>
    </defs>
    <g id="lock-open" stroke="none" stroke-width="1" fill="none" fill-rule="evenodd">
        <mask id="mask-2" fill="white">
            <use xlink:href="#path-1"></use>
        </mask>
        <g></g>
        <g id="🎨-color" mask="url(#mask-2)" fill="#000000">
            <rect id="🎨-Color" x="0" y="0" width="24" height="24"></rect>
        </g>
    </g>
</svg>