<?xml version="1.0" encoding="UTF-8"?>
<svg width="24px" height="24px" viewBox="0 0 24 24" version="1.1" xmlns="http://www.w3.org/2000/svg" xmlns:xlink="http://www.w3.org/1999/xlink">
    <!-- Generator: Sketch 52.5 (67469) - http://www.bohemiancoding.com/sketch -->
    <title>low-vision</title>
    <desc>Created with Sketch.</desc>
    <defs>
        <path d="M21.7692895,11.1553206 C19.8149047,7.83878681 16.1701907,5.62218368 12.017331,5.62218368 C11.0305719,5.62218368 10.072721,5.74762562 9.15941073,5.98298091 L7.33025994,3.48145576 C7.06679374,3.10509528 6.54814555,3.01351815 6.1717504,3.2769497 L5.71719234,3.59507795 C5.34076253,3.85854415 5.24918541,4.37726166 5.51268628,4.75369147 L7.00769495,6.7777816 C5.13514728,7.69254764 3.42904675,9.18138647 2.26627378,11.1535875 C2.26592716,11.1541768 2.26547655,11.1547314 2.26509527,11.1553206 C1.96128245,11.6709185 1.9543847,12.3174697 2.26509527,12.844714 C3.59958401,15.1092548 5.72235699,16.8607279 8.25674175,17.7441595 L3.95202769,11.5945234 C4.24345028,11.1528266 4.57151652,10.7364304 4.9327556,10.34974 L9.0714038,16.2623917 L9.07175042,16.2623917 L10.4800693,18.2741768 C11.3872356,18.3971226 12.3058797,18.4107382 13.2162912,18.3147314 L6.63119581,8.90745232 C7.0585684,8.62285378 7.50803341,8.3729166 7.97528594,8.16003464 L16.7044368,20.5185789 C16.967903,20.8949394 17.4865512,20.9864818 17.8629463,20.723085 L18.3175044,20.4049567 C18.6939342,20.1414905 18.7855113,19.6227383 18.5220104,19.2463432 L17.027383,17.222877 L17.0271404,17.222565 C19.0084576,16.2527903 20.6609359,14.7255113 21.7692548,12.844714 C22.0768932,12.323602 22.0769064,11.6764453 21.7692895,11.1553206 Z M15.5537608,15.1175043 L14.8928943,14.1736569 C15.7484229,13.044818 15.8534142,11.5271057 15.1979203,10.3025996 L15.1979203,10.3036395 C15.1979203,11.1233969 14.5334489,11.7878683 13.7136915,11.7878683 C12.8877643,11.7878683 12.2294627,11.1171924 12.2294627,10.3036395 C12.2294627,9.48388214 12.8939341,8.81941073 13.7136915,8.81941073 L13.7147314,8.81941073 C12.8568458,8.36017329 11.8595494,8.27719236 10.9587522,8.55320622 L10.2978163,7.6091161 C10.8304333,7.40055457 11.4103293,7.28596185 12.017331,7.28596185 C14.6225997,7.28596185 16.7313692,9.39431541 16.7313692,12 C16.7313692,13.1959792 16.2865511,14.2868284 15.5537608,15.1175043 Z" id="path-1"></path>
    </defs>
    <g id="low-vision" stroke="none" stroke-width="1" fill="none" fill-rule="evenodd">
        <mask id="mask-2" fill="white">
            <use xlink:href="#path-1"></use>
        </mask>
        <g fill-rule="nonzero"></g>
        <g id="🎨-color" mask="url(#mask-2)" fill="#000000">
            <rect id="🎨-Color" x="0" y="0" width="24" height="24"></rect>
        </g>
    </g>
</svg>