<?xml version="1.0" encoding="UTF-8"?>
<svg width="24px" height="24px" viewBox="0 0 24 24" version="1.1" xmlns="http://www.w3.org/2000/svg" xmlns:xlink="http://www.w3.org/1999/xlink">
    <!-- Generator: Sketch 52.5 (67469) - http://www.bohemiancoding.com/sketch -->
    <title>luggage-cart</title>
    <desc>Created with Sketch.</desc>
    <defs>
        <path d="M8.99999998,14 L9.99999999,14 L9.99999999,6.99999997 L8.99999998,6.99999997 C8.44781248,6.99999997 7.99999998,7.44781248 7.99999998,7.99999998 L7.99999998,13 C7.99999998,13.5521875 8.44781248,14 8.99999998,14 Z M20,13 L20,7.99999998 C20,7.44781248 19.5521875,6.99999997 19,6.99999997 L18,6.99999997 L18,14 L19,14 C19.5521875,14 20,13.5521875 20,13 Z M21.5,16 L5.99999997,16 L5.99999997,4.49999996 C5.99999997,4.22374996 5.77624997,3.99999996 5.49999997,3.99999996 L2.49999995,3.99999996 C2.22374995,3.99999996 1.99999995,4.22374996 1.99999995,4.49999996 L1.99999995,5.49999997 C1.99999995,5.77624997 2.22374995,5.99999997 2.49999995,5.99999997 L3.99999996,5.99999997 L3.99999996,17.5 C3.99999996,17.77625 4.22374996,18 4.49999996,18 L7.09187498,18 C7.03593748,18.1571875 6.99999997,18.32375 6.99999997,18.5 C6.99999997,19.3284375 7.67156248,20 8.49999998,20 C9.32843749,20 9.99999999,19.3284375 9.99999999,18.5 C9.99999999,18.32375 9.96406249,18.1571875 9.90812499,18 L16.091875,18 C16.0359375,18.1571875 16,18.32375 16,18.5 C16,19.3284375 16.6715625,20 17.5,20 C18.3284375,20 19,19.3284375 19,18.5 C19,18.32375 18.9640625,18.1571875 18.908125,18 L21.5,18 C21.77625,18 22.0000001,17.77625 22.0000001,17.5 L22.0000001,16.5 C22.0000001,16.22375 21.77625,16 21.5,16 Z M17,6.99999997 L17,5.49999997 C17,4.67156246 16.3284375,3.99999996 15.5,3.99999996 L12.5,3.99999996 C11.6715625,3.99999996 11,4.67156246 11,5.49999997 L11,14 L17,14 L17,6.99999997 Z M15.5,6.99999997 L12.5,6.99999997 L12.5,5.49999997 L15.5,5.49999997 L15.5,6.99999997 Z" id="path-1"></path>
    </defs>
    <g id="luggage-cart" stroke="none" stroke-width="1" fill="none" fill-rule="evenodd">
        <mask id="mask-2" fill="white">
            <use xlink:href="#path-1"></use>
        </mask>
        <g fill-rule="nonzero"></g>
        <g id="🎨-color" mask="url(#mask-2)" fill="#000000">
            <rect id="🎨-Color" x="0" y="0" width="24" height="24"></rect>
        </g>
    </g>
</svg>