<?xml version="1.0" encoding="UTF-8"?>
<svg width="24px" height="24px" viewBox="0 0 24 24" version="1.1" xmlns="http://www.w3.org/2000/svg" xmlns:xlink="http://www.w3.org/1999/xlink">
    <!-- Generator: Sketch 52.5 (67469) - http://www.bohemiancoding.com/sketch -->
    <title>lyft</title>
    <desc>Created with Sketch.</desc>
    <defs>
        <path d="M1.99999995,5.16796872 L5.03906247,5.16796872 L5.03906247,13.3203125 C5.03906247,14.6132813 5.62499997,15.3828125 6.10156247,15.703125 C5.60546872,16.1367188 4.10156246,16.5195313 2.96874995,15.59375 C2.30468745,15.046875 1.99999995,14.1367188 1.99999995,13.2890625 L1.99999995,5.16796872 Z M20.9804688,11.9453125 L20.9804688,11.0859375 L21.9101563,11.0859375 L21.9101563,8.08593748 L20.890625,8.08593748 C20.4960938,6.27734372 18.890625,4.93359371 16.9726563,4.93359371 C14.7617188,4.93359371 12.9609375,6.73046872 12.9609375,8.94531248 L12.9609375,15.9453125 C13.5859375,16.0351563 14.34375,15.9335938 14.9804688,15.3984375 C15.6484375,14.8515625 15.9492188,13.9453125 15.9492188,13.09375 L15.9492188,12.8320313 L17.4648438,12.8320313 L17.4648438,9.83203124 L15.9492188,9.83203124 L15.9492188,8.92187498 C15.9492188,7.57031248 17.9882813,7.57031248 17.9882813,8.92187498 L17.9882813,11.9335937 C17.9882813,14.1445313 19.7851563,15.9453125 22.0000001,15.9453125 L22.0000001,12.9570313 C21.4335938,12.9570313 20.9804688,12.5 20.9804688,11.9453125 Z M9.48437499,8.07812498 L9.48437499,12.4921875 C9.48437499,13.09375 8.55468748,13.09375 8.55468748,12.4921875 L8.55468748,8.07812498 L5.55468747,8.07812498 L5.55468747,13.2617188 C5.55468747,14.1914063 5.86718747,15.3710938 7.31249998,15.7578125 C8.75781248,16.140625 9.58593749,15.34375 9.58593749,15.34375 C9.50390624,15.8671875 9.01953124,16.2539063 8.22265623,16.3320313 C7.61718748,16.3945313 6.84765622,16.1914063 6.46484372,16.0273438 L6.46484372,18.7734375 C7.44531248,19.0664063 8.47656248,19.15625 9.49609374,18.9570313 C11.3359375,18.6015625 12.4960938,17.0664063 12.4960938,15.0195313 L12.4960938,8.05859373 L9.48437499,8.05859373 L9.48437499,8.07812498 Z" id="path-1"></path>
    </defs>
    <g id="lyft" stroke="none" stroke-width="1" fill="none" fill-rule="evenodd">
        <mask id="mask-2" fill="white">
            <use xlink:href="#path-1"></use>
        </mask>
        <g fill-rule="nonzero"></g>
        <g id="🎨-color" mask="url(#mask-2)" fill="#000000">
            <rect id="🎨-Color" x="0" y="0" width="24" height="24"></rect>
        </g>
    </g>
</svg>