<?xml version="1.0" encoding="UTF-8"?>
<svg width="24px" height="24px" viewBox="0 0 24 24" version="1.1" xmlns="http://www.w3.org/2000/svg" xmlns:xlink="http://www.w3.org/1999/xlink">
    <!-- Generator: Sketch 52.5 (67469) - http://www.bohemiancoding.com/sketch -->
    <title>magic</title>
    <desc>Created with Sketch.</desc>
    <defs>
        <path d="M10.75,5.74999997 L11.375,4.49999996 L12.625,3.87499996 L11.375,3.24999996 L10.75,1.99999995 L10.125,3.24999996 L8.87499998,3.87499996 L10.125,4.49999996 L10.75,5.74999997 Z M5.12499997,8.24999998 L6.16640622,6.16679685 L8.24999998,5.12499997 L6.16640622,4.08320309 L5.12499997,1.99999995 L4.08359371,4.08320309 L1.99999995,5.12499997 L4.08359371,6.16679685 L5.12499997,8.24999998 Z M18.875,13.25 L17.8335938,15.3332031 L15.75,16.375 L17.8335938,17.4167969 L18.875,19.5 L19.9164063,17.4167969 L22.0000001,16.375 L19.9164063,15.3332031 L18.875,13.25 Z M21.6335938,5.68085934 L18.3191407,2.3664062 C18.0753907,2.12187495 17.7554688,1.99999995 17.4355469,1.99999995 C17.115625,1.99999995 16.7957031,2.12187495 16.5515625,2.3664062 L2.3664062,16.5515625 C1.87812495,17.0398438 1.87812495,17.83125 2.3664062,18.3191407 L5.68085934,21.6335938 C5.92499997,21.8777344 6.24492185,21.9996094 6.5644531,21.9996094 C6.88437497,21.9996094 7.20429685,21.8777344 7.44843748,21.6335938 L21.6335938,7.44804685 C22.1218751,6.96054685 22.1218751,6.16874997 21.6335938,5.68085934 Z M16.0410156,9.94765624 L14.0523438,7.95898435 L17.4351563,4.57617184 L19.4238282,6.56484372 L16.0410156,9.94765624 Z" id="path-1"></path>
    </defs>
    <g id="magic" stroke="none" stroke-width="1" fill="none" fill-rule="evenodd">
        <mask id="mask-2" fill="white">
            <use xlink:href="#path-1"></use>
        </mask>
        <g fill-rule="nonzero"></g>
        <g id="🎨-color" mask="url(#mask-2)" fill="#000000">
            <rect id="🎨-Color" x="0" y="0" width="24" height="24"></rect>
        </g>
    </g>
</svg>