<?xml version="1.0" encoding="UTF-8"?>
<svg width="24px" height="24px" viewBox="0 0 24 24" version="1.1" xmlns="http://www.w3.org/2000/svg" xmlns:xlink="http://www.w3.org/1999/xlink">
    <!-- Generator: Sketch 52.5 (67469) - http://www.bohemiancoding.com/sketch -->
    <title>magnet</title>
    <desc>Created with Sketch.</desc>
    <defs>
        <path d="M8.3976608,8.25730992 L2.46783621,8.25730992 C2.21052627,8.25730992 1.99999995,8.04678361 1.99999995,7.78947366 L1.99999995,4.67056527 C1.99999995,3.8947368 2.62768027,3.26705649 3.40350873,3.26705649 L7.45808965,3.26705649 C8.23391811,3.26705649 8.86159842,3.8947368 8.86159842,4.67056527 L8.86159842,7.78947366 C8.86549706,8.04678361 8.65497074,8.25730992 8.3976608,8.25730992 Z M21.9649123,7.78947366 L21.9649123,4.66666663 C21.9649123,3.89083817 21.337232,3.26315785 20.5614036,3.26315785 L16.5068226,3.26315785 C15.7309942,3.26315785 15.1033139,3.89083817 15.1033139,4.66666663 L15.1033139,7.78557503 C15.1033139,8.04288497 15.3138402,8.25341129 15.5711501,8.25341129 L21.4970761,8.25341129 C21.754386,8.25730992 21.9649123,8.04678361 21.9649123,7.78947366 Z M15.5711501,9.50487328 C15.3138402,9.50487328 15.1033139,9.7153996 15.1033139,9.97270954 L15.1033139,12 C15.1033139,16.9941521 8.86549706,16.9863548 8.86549706,12 L8.86549706,9.97270954 C8.86549706,9.7153996 8.65497074,9.50487328 8.3976608,9.50487328 L2.47173485,9.50487328 C2.21052627,9.50487328 2.00389859,9.7153996 2.00389859,9.97660818 C2.00779722,10.8109162 2.0272904,11.5477583 2.00389859,12.0545809 C2.00389859,17.925926 7.31384013,21.668616 12.0155945,21.668616 C16.717349,21.668616 21.9610137,17.925926 21.9610137,12.0506823 C21.9376219,11.5516569 21.9532164,10.7641325 21.9610137,9.97660818 C21.9610137,9.7153996 21.754386,9.50487328 21.4931774,9.50487328 L15.5711501,9.50487328 Z" id="path-1"></path>
    </defs>
    <g id="magnet" stroke="none" stroke-width="1" fill="none" fill-rule="evenodd">
        <mask id="mask-2" fill="white">
            <use xlink:href="#path-1"></use>
        </mask>
        <g fill-rule="nonzero"></g>
        <g id="🎨-color" mask="url(#mask-2)" fill="#000000">
            <rect id="🎨-Color" x="0" y="0" width="24" height="24"></rect>
        </g>
    </g>
</svg>