<?xml version="1.0" encoding="UTF-8"?>
<svg width="24px" height="24px" viewBox="0 0 24 24" version="1.1" xmlns="http://www.w3.org/2000/svg" xmlns:xlink="http://www.w3.org/1999/xlink">
    <!-- Generator: Sketch 52.5 (67469) - http://www.bohemiancoding.com/sketch -->
    <title>mailchimp</title>
    <desc>Created with Sketch.</desc>
    <defs>
        <path d="M20.2835938,14.6453125 C20.1628907,14.3878906 19.9332032,14.2105469 19.6449219,14.1421875 C19.5484375,13.7019531 19.4152344,13.4859375 19.403125,13.4535156 C19.4539063,13.3957031 19.503125,13.3375 19.5140625,13.3238281 C19.9210938,12.81875 19.6554688,12.0792969 18.9597657,11.9046875 C18.5683594,11.528125 18.2140625,11.3511719 17.9230469,11.2054687 C17.6441407,11.0660156 17.7554688,11.1207031 17.49375,11.0027344 C17.4242188,10.6625 17.4011719,9.87109374 17.290625,9.31562499 C17.1914063,8.81601561 16.9914063,8.45390623 16.6828125,8.21601561 C16.559375,7.9488281 16.3863281,7.67929685 16.1777344,7.48124998 C17.1480469,5.99374997 17.4035157,4.52460934 16.6929688,3.75507808 C16.3765625,3.41249996 15.9066406,3.24999996 15.3445313,3.24999996 C14.553125,3.24999996 13.5796875,3.57265621 12.596875,4.16953121 C12.596875,4.16953121 11.9570312,3.65468746 11.9433594,3.64374996 C9.20585936,1.48789057 1.46367182,11.0148437 4.19648434,13.096875 L4.90195309,13.6359375 C4.45898434,14.8679688 5.07499997,16.3367188 6.35859372,16.8082031 C6.64218747,16.9125 6.94999997,16.9632813 7.2691406,16.9453125 C7.2691406,16.9453125 9.34296874,20.7484375 13.7183594,20.7496094 C18.7800782,20.7511719 20.0679688,15.7996094 20.0816407,15.7550781 C20.0816407,15.7554688 20.4917969,15.1492188 20.2835938,14.6453125 Z M4.40703121,12.4667969 C3.85234371,11.5308594 4.81757809,9.60781249 5.50429684,8.51484373 C7.20156248,5.81367184 10.0265625,3.68203121 11.309375,3.98632808 L11.6621094,3.85117183 C11.6632812,3.85234371 12.6257813,4.66562496 12.6269531,4.66640621 C13.2898438,4.26835934 14.1339844,3.86289058 14.9238281,3.78203121 C14.4433594,3.89023433 13.8578125,4.13945309 13.1640625,4.56367184 C13.1472656,4.57343746 11.5226562,5.66992184 10.5300781,6.65429685 C9.98906249,7.19062498 7.81718748,9.79531249 7.8191406,9.79296874 C8.21601561,9.04179686 8.47773436,8.67304686 9.10585936,7.88281248 C9.46132811,7.43593748 9.84062499,7.00117185 10.2285156,6.59999997 C10.4085937,6.41367185 10.5910156,6.23437497 10.7734375,6.0644531 C10.8988281,5.94765622 11.025,5.83515622 11.1503906,5.72773434 C11.2082031,5.67812497 11.2660156,5.63007809 11.3234375,5.58281247 L11.3238281,5.58242184 L10.0507812,4.53124996 L10.1179687,5.00234372 L11.0433594,5.81757809 C11.0433594,5.81757809 10.2246094,6.36874997 9.81718749,6.71640622 C8.18476561,8.10937498 6.58281247,10.2476562 5.98671872,12.3292969 L6.01523435,12.328125 C5.71835934,12.4917969 5.42382809,12.7542969 5.16640622,13.1113281 C5.16015622,13.1097656 4.50078121,12.6257813 4.40703121,12.4667969 Z M7.1066406,16.3765625 C6.12890622,16.3765625 5.33593747,15.5417969 5.33593747,14.5125 C5.33593747,13.4828125 6.1285156,12.6484375 7.1066406,12.6484375 C7.36015623,12.6484375 7.60117185,12.7046875 7.8191406,12.8054688 C7.8191406,12.8054688 8.19531248,12.9953125 8.30117186,13.8917969 C8.41132811,13.6117188 8.46679686,13.3816406 8.46679686,13.3816406 C8.59296873,13.7675781 8.65742186,14.1730469 8.63203123,14.5832031 C8.73671873,14.4441406 8.84882811,14.1820313 8.84882811,14.1820313 C9.04414061,15.3277344 8.20820311,16.3765625 7.1066406,16.3765625 Z M9.28632811,9.79335936 C9.28632811,9.79335936 10.0476562,8.34570311 11.7210937,7.38828123 C11.5964844,7.36835935 11.2917969,7.40703123 11.2382812,7.41328123 C11.5421875,7.1519531 12.1070313,6.97734372 12.4972656,6.89804685 C12.3832031,6.8253906 12.1109375,6.80703122 11.9761719,6.8035156 C11.9363281,6.80234372 11.9367187,6.80273435 11.8894531,6.80468747 C12.2566406,6.59960935 12.9371094,6.47890622 13.5554688,6.5878906 C13.4777344,6.4847656 13.3015625,6.40937497 13.1777344,6.37265622 C13.1667969,6.36953122 13.1183594,6.35742185 13.1183594,6.35742185 L13.1648438,6.34648435 C13.5375,6.27460935 13.9730469,6.35234372 14.3171875,6.49062497 C14.278125,6.39999997 14.1824219,6.2941406 14.1105469,6.22734372 C14.103125,6.22031247 14.0601563,6.1894531 14.0601563,6.1894531 C14.4203125,6.26406247 14.765625,6.42148435 15.0253906,6.59960935 C14.9902344,6.53124997 14.9027344,6.41640622 14.8421875,6.35390622 C15.1863281,6.45234372 15.5730469,6.69804685 15.7386719,7.04999998 C15.7425781,7.05781248 15.753125,7.08671873 15.7542969,7.09023435 C15.1019531,6.58867185 13.1980469,6.73085935 11.2917969,7.9660156 C10.4195312,8.53164061 9.77968749,9.15039061 9.28632811,9.79335936 Z M19.5722657,15.5097656 C19.5492188,15.5546875 19.309375,16.8535156 17.9371094,17.9320313 C16.2039063,19.29375 13.9269531,19.1558594 13.0671875,18.3929688 C12.6078125,17.9632813 12.4089844,17.3488282 12.4089844,17.3488282 C12.4089844,17.3488282 12.3570313,17.6953125 12.3480469,17.83125 C12.0015625,17.2417969 12.0308594,16.521875 12.0308594,16.521875 C12.0308594,16.521875 11.8460937,16.8667969 11.7613281,17.0597657 C11.50625,16.4105469 11.6378906,15.7402344 11.6378906,15.7402344 L11.4363281,16.0410156 C11.4363281,16.0410156 11.3417969,15.30625 11.5738281,14.6945313 C11.8222656,14.040625 12.3035156,13.565625 12.3984375,13.50625 C12.0332031,13.3902344 11.6125,13.0574219 11.6117187,13.0566406 C11.6117187,13.0566406 11.7789062,13.0675781 11.8953125,13.0410156 C11.8953125,13.0410156 11.1570312,12.5121094 11.0273437,11.7027344 C11.134375,11.8347656 11.3589844,11.984375 11.3589844,11.984375 C11.2863281,11.7726562 11.2421875,11.3011719 11.3101562,10.8375 L11.3105469,10.8371094 C11.4503906,9.95117186 12.1804688,9.37421874 13.0074219,9.38124999 C13.8878906,9.38906249 14.478125,9.57382811 15.2164063,8.89296873 C15.3726563,8.74882811 15.4972656,8.62460936 15.7167969,8.57617186 C15.7398438,8.57109373 15.7972656,8.54687498 15.9148438,8.54687498 C16.0339844,8.54687498 16.1484375,8.57382811 16.2535156,8.63632811 C16.6539063,8.87460936 16.7402344,9.49609374 16.7832031,9.95195311 C16.9421875,11.6425781 16.878125,11.3414062 17.5621094,11.6898437 C17.8886719,11.8558594 18.2550782,12.0136719 18.6726563,12.4601563 C18.6738282,12.4613281 18.6757813,12.4636719 18.6757813,12.4636719 L18.6808594,12.4636719 C19.0328125,12.4722656 19.2140625,12.7492188 19.0519532,12.9507813 C17.8710938,14.3609375 16.2214844,15.0363281 14.3835938,15.0929688 C14.3078125,15.0949219 14.1367188,15.0988281 14.1359375,15.0988281 C13.3933594,15.1214844 13.1519531,16.0816406 13.6175781,16.659375 C13.9121094,17.0246094 14.478125,17.1445313 14.9445313,17.1460938 L14.9511719,17.14375 C16.9609375,17.184375 18.9800782,15.7621094 19.3289063,14.978125 C19.33125,14.9722656 19.3527344,14.9226563 19.3527344,14.9226563 C19.271875,15.0175781 17.3144532,16.8605469 14.9355469,16.79375 C14.9355469,16.79375 14.6753906,16.7882813 14.4304688,16.73125 C14.1074219,16.65625 13.8621094,16.5140625 13.7683594,16.1921875 C13.965625,16.2316406 14.215625,16.2570313 14.5054688,16.2570313 C16.2226563,16.2570313 17.4597657,15.4765625 17.3308594,15.4660156 C17.3257813,15.4660156 17.3207032,15.4671875 17.3121094,15.4691406 C17.1117188,15.515625 15.0476563,16.3152344 13.7429688,15.9050781 C13.7460938,15.8652344 13.7523438,15.8265625 13.7617188,15.7917969 C13.8777344,15.403125 14.0839844,15.4574219 14.4175781,15.4429688 C15.6082031,15.4035156 16.56875,15.1039063 17.2886719,14.7621094 C18.05625,14.3976563 18.6414063,13.928125 18.8523438,13.6910156 C19.1257813,14.1515625 19.1242188,14.7425781 19.1242188,14.7425781 C19.1242188,14.7425781 19.23125,14.7050781 19.3734375,14.7050781 C19.8179688,14.7054688 19.9097657,15.1046875 19.5722657,15.5097656 Z M13.7713984,16.079961 C13.7713984,16.074961 13.7703984,16.069961 13.7703984,16.064961 C13.7713984,16.069961 13.7713984,16.074961 13.7713984,16.079961 Z M13.7718894,16.0425781 C13.7708894,16.037184 13.7708894,16.0317898 13.7698894,16.0263956 C13.7678894,15.9994246 13.7668894,15.9712089 13.7698894,15.9425781 C13.7678894,15.9732835 13.7678894,16.0014993 13.7698894,16.0263956 C13.7708894,16.0317898 13.7708894,16.0375989 13.7718894,16.0425781 Z M13.7594141,16.0984375 C13.7794141,16.1642709 13.8104141,16.1946875 13.8144141,16.1984375 C13.7914141,16.1780209 13.7724141,16.1426042 13.7594141,16.0984375 Z M11.1976562,4.33124996 L11.3097656,3.98632808 L11.5003906,4.67851559 L11.2648437,4.60234371 L11.1976562,4.33124996 Z M12.071875,5.02343747 L11.9304687,4.53164059 L12.3199219,4.85820309 C12.2324219,4.91445309 12.1496094,4.96992184 12.071875,5.02343747 Z M13.7713125,16.0790703 C13.7703125,16.0660703 13.7703125,16.0530703 13.7693125,16.0400703 C13.7703125,16.0530703 13.7703125,16.0670703 13.7713125,16.0790703 Z M13.7709981,16.0425781 C13.7689981,16.0103999 13.7679981,15.9767366 13.7709981,15.9425781 C13.7679981,15.9797069 13.7679981,16.0128752 13.7709981,16.0425781 Z M13.7713984,16.079961 C13.7713984,16.074961 13.7703984,16.069961 13.7703984,16.064961 L13.7713984,16.079961 Z M13.7594141,16.0984375 C13.7794141,16.1642709 13.8104141,16.1946875 13.8144141,16.1984375 C13.7914141,16.1780209 13.7724141,16.1426042 13.7594141,16.0984375 Z M15.7808594,10.6839844 C15.778125,10.5527344 15.7992188,10.3355469 15.9226563,10.2953125 L15.9230469,10.2953125 C16.134375,10.221875 16.4144531,10.7632812 16.4273438,11.24375 C16.2601563,11.1601562 16.0640625,11.1246094 15.8621094,11.1421875 C15.8113281,10.9871094 15.7871094,10.8414062 15.7808594,10.6839844 Z M11.64375,5.33085934 L11.1128906,4.88632809 L11.9164062,5.13164059 C11.8128906,5.20507809 11.7210937,5.27226559 11.64375,5.33085934 Z M12.7257813,11.8519531 C12.5925781,11.9027344 12.4980469,11.9421875 12.4523438,11.9355469 C12.3785156,11.9246094 12.45,11.7890625 12.6117188,11.6578125 C12.9371094,11.3984375 13.3835938,11.3179687 13.7652344,11.4597656 C13.9324219,11.5210937 14.1199219,11.6441406 14.2183594,11.7875 C14.2554688,11.8417969 14.265625,11.8828125 14.2503906,11.9 C14.2203125,11.9351562 14.1132813,11.8878906 13.9554688,11.8261719 C13.5511719,11.6753906 13.253125,11.6523437 12.7257813,11.8519531 Z M13.2941406,12.4195313 C13.2039063,12.45625 13.1453125,12.484375 13.1214844,12.4652344 C13.0972656,12.4464844 13.1210938,12.3707031 13.2054688,12.2890625 C13.2789063,12.2183594 13.3550781,12.1785156 13.4425781,12.1417969 C13.45625,12.1359375 13.4707031,12.1308594 13.4855469,12.1269531 C13.5261719,12.1160156 13.5671875,12.1023438 13.6117188,12.0957031 C13.9679688,12.0351563 14.2289063,12.2328125 14.1949219,12.2902344 C14.1796875,12.3171875 14.1136719,12.3109375 14.0152344,12.3042969 C13.8109375,12.2902344 13.596875,12.29375 13.2941406,12.4195313 Z M6.94765622,13.6148438 C6.8753906,13.6300781 6.9160156,13.6214844 6.84453122,13.6414063 C6.83432518,13.6440785 6.82428235,13.6473391 6.8144531,13.6511719 C6.79179685,13.6617188 6.77109372,13.66875 6.75117185,13.6796875 C6.73437497,13.6890625 6.59218747,13.7523438 6.47656247,13.89375 C6.3207031,14.0871094 6.26406247,14.3402344 6.2738281,14.5839844 C6.2832031,14.8207031 6.35273435,14.9515625 6.36562497,14.9835938 C6.41953122,15.0992188 6.29335935,15.1230469 6.1785156,14.9988281 L6.17812497,14.9984375 C6.0863281,14.9011719 6.02734372,14.7527344 5.99843747,14.6210938 C5.88203122,14.0761719 6.12499997,13.5285156 6.6863281,13.3097656 C6.7175781,13.2972656 6.75429685,13.2898438 6.78398435,13.28125 L6.78359372,13.28125 C6.8410156,13.2640625 7.04609373,13.2226563 7.2550781,13.2550781 C7.48437498,13.290625 7.6863281,13.4054688 7.81484373,13.5546875 L7.81523435,13.5550781 C7.91406248,13.6671875 7.98828123,13.8253906 7.97499998,13.9664063 L7.97499998,13.9667969 C7.96992185,14.0253906 7.9441406,14.109375 7.89140623,14.13125 C7.87187498,14.1394531 7.8519531,14.1351563 7.83828123,14.1214844 C7.79999998,14.0839844 7.82968748,14.0070313 7.73671873,13.8753906 C7.6128906,13.7007813 7.33398435,13.5332031 6.94765622,13.6148438 Z M8.13046873,14.8324219 C8.20390623,15.2550781 7.89609373,15.6332031 7.52421873,15.6410156 C7.26367185,15.646875 7.12148435,15.4839844 7.14687498,15.4484375 C7.15859373,15.4316406 7.19843748,15.4390625 7.25937498,15.4480469 C7.59140623,15.4996094 7.79296873,15.2972656 7.84140623,15.0851563 C7.84218748,15.0816406 7.8550781,15.025 7.85468748,14.9859375 C7.85742185,14.9515625 7.8535156,14.9171875 7.84843748,14.8859375 C7.80937498,14.6664063 7.55742185,14.625 7.39531248,14.4503906 C7.24999998,14.2925781 7.2785156,14.0902344 7.36992185,13.9929688 C7.47968748,13.8847656 7.63671873,13.9242188 7.6347656,13.9625 C7.6347656,13.9828125 7.59687498,13.9980469 7.54999998,14.0304688 C7.48906248,14.0734375 7.48085935,14.1148438 7.49648435,14.1859375 C7.5066406,14.225 7.52421873,14.2503906 7.56210935,14.2804688 C7.69804685,14.3882813 8.06406248,14.4640625 8.13046873,14.8324219 Z M16.4457031,11.65 C16.5464844,11.665625 16.6105469,11.7902344 16.5890625,11.9285156 C16.5675781,12.0667969 16.4683594,12.1660156 16.3675781,12.15 C16.2667969,12.134375 16.2027344,12.0097656 16.2242188,11.8714844 C16.2460938,11.7335937 16.3449219,11.634375 16.4457031,11.65 Z M15.3390625,12.0527344 C15.3945313,11.9515625 15.5515625,11.93125 15.6902344,12.0074219 C15.8289063,12.0832031 15.8960938,12.2269531 15.8410156,12.3277344 C15.7855469,12.4289063 15.6285156,12.4492188 15.4898438,12.3730469 C15.3511719,12.2972656 15.2835938,12.1539063 15.3390625,12.0527344 Z" id="path-1"></path>
    </defs>
    <g id="mailchimp" stroke="none" stroke-width="1" fill="none" fill-rule="evenodd">
        <mask id="mask-2" fill="white">
            <use xlink:href="#path-1"></use>
        </mask>
        <g fill-rule="nonzero"></g>
        <g id="🎨-color" mask="url(#mask-2)" fill="#000000">
            <rect id="🎨-Color" x="0" y="0" width="24" height="24"></rect>
        </g>
    </g>
</svg>