<?xml version="1.0" encoding="UTF-8"?>
<svg width="24px" height="24px" viewBox="0 0 24 24" version="1.1" xmlns="http://www.w3.org/2000/svg" xmlns:xlink="http://www.w3.org/1999/xlink">
    <!-- Generator: Sketch 52.5 (67469) - http://www.bohemiancoding.com/sketch -->
    <title>mail-bulk</title>
    <desc>Created with Sketch.</desc>
    <defs>
        <path d="M7.55555553,18.6666667 C6.66666664,18.6666667 5.77777775,17.8888889 5.3333333,17.5555556 C3.11111107,16 2.4444444,15.4444445 1.99999995,15.1111111 L1.99999995,19.7777778 C1.99999995,20.3913195 2.4975694,20.8888889 3.11111107,20.8888889 L12,20.8888889 C12.6135417,20.8888889 13.1111111,20.3913195 13.1111111,19.7777778 L13.1111111,15.1111111 C12.6666667,15.4444445 12,16 9.77777777,17.5555556 C9.33333332,17.8888889 8.44444443,18.6666667 7.55555553,18.6666667 Z M12,12 L3.11111107,12 C2.4975694,12 1.99999995,12.4975694 1.99999995,13.1111111 L1.99999995,13.6666667 C2.88888884,14.3333333 2.77777773,14.3333333 5.99999997,16.6666667 C6.33333331,16.8888889 6.99999998,17.5555556 7.55555553,17.5555556 C8.11111109,17.5555556 8.77777776,16.8888889 9.1111111,16.7777778 C12.3333333,14.4444445 12.2222222,14.4444445 13.1111111,13.7777778 L13.1111111,13.1111111 C13.1111111,12.4975694 12.6135417,12 12,12 Z M20.8888889,8.66666665 L9.77777777,8.66666665 C9.1642361,8.66666665 8.66666665,9.1642361 8.66666665,9.77777777 L8.66666665,10.8888889 L12,10.8888889 C13.153125,10.8888889 14.1038195,11.7715278 14.2121528,12.8965278 L14.2222222,12.8888889 L14.2222222,17.5555556 L20.8888889,17.5555556 C21.5024306,17.5555556 22.0000001,17.0579861 22.0000001,16.4444445 L22.0000001,9.77777777 C22.0000001,9.1642361 21.5024306,8.66666665 20.8888889,8.66666665 Z M19.7777778,13.1111111 L17.5555556,13.1111111 L17.5555556,10.8888889 L19.7777778,10.8888889 L19.7777778,13.1111111 Z M7.55555553,9.77777777 C7.55555553,8.55243054 8.55243054,7.55555553 9.77777777,7.55555553 L17.5555556,7.55555553 L17.5555556,4.22222218 C17.5555556,3.60868051 17.0579861,3.11111107 16.4444445,3.11111107 L5.3333333,3.11111107 C4.71979163,3.11111107 4.22222218,3.60868051 4.22222218,4.22222218 L4.22222218,10.8888889 L7.55555553,10.8888889 L7.55555553,9.77777777 Z" id="path-1"></path>
    </defs>
    <g id="mail-bulk" stroke="none" stroke-width="1" fill="none" fill-rule="evenodd">
        <mask id="mask-2" fill="white">
            <use xlink:href="#path-1"></use>
        </mask>
        <g fill-rule="nonzero"></g>
        <g id="🎨-color" mask="url(#mask-2)" fill="#000000">
            <rect id="🎨-Color" x="0" y="0" width="24" height="24"></rect>
        </g>
    </g>
</svg>