<?xml version="1.0" encoding="UTF-8"?>
<svg width="24px" height="24px" viewBox="0 0 24 24" version="1.1" xmlns="http://www.w3.org/2000/svg" xmlns:xlink="http://www.w3.org/1999/xlink">
    <!-- Generator: Sketch 52.5 (67469) - http://www.bohemiancoding.com/sketch -->
    <title>male</title>
    <desc>Created with Sketch.</desc>
    <defs>
        <path d="M12,1.99999995 C13.3807031,1.99999995 14.5,3.11929683 14.5,4.49999996 C14.5,5.88070309 13.3807031,6.99999997 12,6.99999997 C10.6192969,6.99999997 9.49999999,5.88070309 9.49999999,4.49999996 C9.49999999,3.11929683 10.6192969,1.99999995 12,1.99999995 Z M13.875,7.62499998 L13.43125,7.62499998 C12.5441016,8.03292967 11.4941406,8.05054686 10.56875,7.62499998 L10.125,7.62499998 C9.08945311,7.62499998 8.24999998,8.46445311 8.24999998,9.49999999 L8.24999998,14.8125 C8.24999998,15.3302735 8.66972655,15.75 9.18749999,15.75 L9.81249999,15.75 L9.81249999,21.0625 C9.81249999,21.5802735 10.2322266,22.0000001 10.75,22.0000001 L13.25,22.0000001 C13.7677734,22.0000001 14.1875,21.5802735 14.1875,21.0625 L14.1875,15.75 L14.8125,15.75 C15.3302735,15.75 15.75,15.3302735 15.75,14.8125 L15.75,9.49999999 C15.75,8.46445311 14.9105469,7.62499998 13.875,7.62499998 Z" id="path-1"></path>
    </defs>
    <g id="male" stroke="none" stroke-width="1" fill="none" fill-rule="evenodd">
        <mask id="mask-2" fill="white">
            <use xlink:href="#path-1"></use>
        </mask>
        <g fill-rule="nonzero"></g>
        <g id="🎨-color" mask="url(#mask-2)" fill="#000000">
            <rect id="🎨-Color" x="0" y="0" width="24" height="24"></rect>
        </g>
    </g>
</svg>