<?xml version="1.0" encoding="UTF-8"?>
<svg width="24px" height="24px" viewBox="0 0 24 24" version="1.1" xmlns="http://www.w3.org/2000/svg" xmlns:xlink="http://www.w3.org/1999/xlink">
    <!-- Generator: Sketch 52.5 (67469) - http://www.bohemiancoding.com/sketch -->
    <title>mandalorian</title>
    <desc>Created with Sketch.</desc>
    <defs>
        <path d="M12.3033138,21.9567252 C12.2651072,21.8296297 12.2374269,21.3395712 12.2491228,20.9984406 C12.2705653,20.3789474 12.2873294,20.0346979 12.3037037,19.877193 C12.328655,19.6354776 12.4155945,19.0693957 12.4315789,19.0436648 C12.4549708,19.0062379 12.4471735,17.957115 12.4222222,17.7520468 C12.4101365,17.651462 12.3976608,17.2881092 12.3953216,16.9438597 C12.3902534,16.3017544 12.3746589,16.1594542 12.2888889,15.9785575 C12.2460039,15.8881092 12.2409357,15.8288499 12.2502924,15.5329435 C12.2565302,15.3454191 12.2502924,15.1224172 12.237037,15.0374269 C12.157115,14.5317739 12.1021443,13.9575049 12.1103314,13.7157895 C12.1185185,13.477193 12.1270955,13.437037 12.1906433,13.3387914 C12.3095517,13.1551657 12.4444444,12.791423 12.5267057,12.4315789 C12.6148148,12.0471735 12.6779727,11.7617934 12.705653,11.6230019 C12.7403509,11.4506823 12.8003899,11.2440546 12.8756335,11.0362573 C12.9641326,10.7925926 12.9727096,10.4362573 12.8900585,10.4362573 C12.8783626,10.4362573 12.8362573,10.4838207 12.7961014,10.5419103 C12.7559454,10.6 12.6105263,10.7290448 12.4729045,10.8288499 C12.1465887,11.0658869 12.0167641,11.1949318 11.9793372,11.3192982 C11.9430799,11.4405458 11.9395711,11.6011696 11.9730994,11.6218324 C11.9863548,11.6300195 12.0233918,11.7153996 12.0553606,11.8120858 C12.1185185,12.0023392 12.1282651,12.2066277 12.0834308,12.4109162 C12.0682261,12.479922 12.0424951,12.6241715 12.0265107,12.7317739 C12.0105263,12.8393762 11.9883041,12.9836257 11.9777778,13.0522417 C11.9668616,13.1208577 11.939961,13.1957115 11.9173489,13.2183236 C11.879922,13.2557505 11.8729045,13.2538012 11.8374269,13.1976608 C11.8159844,13.1637427 11.7906433,13.0803119 11.7812865,13.0124756 C11.77154,12.9446394 11.7177388,12.7352827 11.6612086,12.5473684 C11.5333333,12.1224172 11.5239766,11.9177388 11.6237817,11.7302144 C11.6596491,11.662768 11.6888889,11.5816764 11.6888889,11.5504873 C11.6888889,11.4573099 11.6031189,11.3430799 11.4,11.1649123 C11.1251462,10.9239766 11.0635478,10.8561403 11.0011696,10.7243665 C10.9345029,10.5840156 10.8818713,10.5660819 10.8241715,10.6643275 C10.7547758,10.7816764 10.722807,11.0194932 10.7083821,11.522807 L10.6947368,11.9957115 L10.7707602,12.0834308 C10.8959064,12.2276803 11.2413255,12.7247563 11.3079922,12.8565302 C11.4409357,13.1192983 11.477193,13.3122807 11.479922,13.7750487 C11.4826511,14.2366472 11.5169591,14.6619883 11.5578947,14.7384016 C11.5719298,14.7641326 11.5777778,14.7910332 11.5711501,14.7976608 C11.5645224,14.8042885 11.5871345,14.8791423 11.6214425,14.9641326 C11.6557505,15.0491228 11.6920078,15.2066277 11.7017544,15.31423 C11.711501,15.4218324 11.7415205,15.6038987 11.7684211,15.7185185 C11.8553606,16.0912281 11.8764133,16.2674464 11.8615984,16.5037037 C11.8538012,16.6311891 11.8409357,16.9352827 11.8331384,17.1789474 C11.7820663,18.8070176 11.7610136,19.4393763 11.7536062,19.5653022 C11.7489279,19.6440546 11.7384016,20.0140351 11.7302144,20.3867447 C11.7161793,21.0222223 11.6795322,21.4538012 11.6358674,21.5037038 C11.6109162,21.5321638 11.3212476,21.3122807 11.1477583,21.1337232 C11.0015594,20.982846 10.9910331,20.9469786 11.0374269,20.745809 C11.0647173,20.6284601 11.1255361,20.0327486 11.1672515,19.4740741 C11.1812865,19.2877193 11.1988304,19.0647174 11.2066277,18.9785575 C11.2389864,18.6132554 11.271345,18.1851852 11.3083821,17.6226121 C11.3302144,17.2927876 11.3602339,16.9816764 11.3754386,16.931384 C11.3902534,16.8810916 11.4101364,16.545809 11.4194932,16.1863548 L11.4362573,15.5325536 L11.3481481,15.3649123 C11.2810916,15.2370371 11.1582846,15.094347 10.8327485,14.7668616 C10.5976608,14.5302144 10.3711501,14.2873294 10.3294347,14.2269006 L10.2534113,14.1173489 L10.2826511,13.6923977 C10.3251462,13.079922 10.3255361,11.7988304 10.2834308,11.3898635 L10.2487329,11.0506823 L10.1208577,10.8744639 C9.89239765,10.5594542 9.89473683,10.5723197 9.87836256,9.5773879 C9.87446393,9.34074073 9.86354775,9.12904482 9.85380116,9.10721246 C9.82144248,9.03430798 9.73489278,9.00350876 9.52085769,8.98830408 C9.17543858,8.96413254 9.09356724,8.91423 8.59103312,8.42105261 C8.35126704,8.18557503 8.1099415,7.95438594 8.05497074,7.90682259 C7.94541908,7.81247561 7.94619881,7.82923975 8.03313838,7.53138399 L8.08576996,7.35009744 L8.01988302,7.23157892 C7.98362571,7.16647171 7.93840154,7.09473682 7.91890836,7.07290446 C7.86705651,7.01403506 7.70448341,6.64834305 7.6853801,6.54697853 C7.67329433,6.48226118 7.68187132,6.44288496 7.71929822,6.39493175 C7.8062378,6.28343077 7.85185183,6.17348925 7.8927875,5.97660816 C7.98362571,5.54035084 8.19454189,4.95945416 8.30604287,4.83742686 C8.43001948,4.70214421 8.6062378,4.79649119 8.67290447,5.03352823 C8.72514618,5.22027287 8.72631577,5.41520465 8.6768031,5.75672511 C8.65614033,5.9001949 8.63859647,6.09512668 8.63820661,6.18986352 C8.63742688,6.3461988 8.64561402,6.37270952 8.72592591,6.47797268 C8.85575047,6.64834305 9.02729043,6.76686157 9.31851851,6.88810914 C9.38479531,6.91578945 9.46744638,6.96569198 9.5025341,6.99922025 C9.93801169,7.41715397 10.22846,7.63001947 10.3972709,7.65614033 C10.5992203,7.68732941 10.7083821,7.83313838 10.788694,8.17816762 C10.8397661,8.39844053 10.9446394,8.61247562 11.0015594,8.61247562 C11.0245614,8.61247562 11.0830409,8.58791421 11.131384,8.55828458 C11.208577,8.51072123 11.2191033,8.49083819 11.2191033,8.39532162 C11.2187134,8.25068224 11.1734893,7.84639374 11.1411306,7.69980505 C11.1267056,7.6350877 11.1107212,7.54152045 11.1048733,7.49122805 C11.0994152,7.44093565 11.0810916,7.34113058 11.0647173,7.26939569 C10.9653021,6.83430797 10.9224171,6.66666664 10.9048733,6.64366469 C10.8444444,6.56491225 10.745809,6.24600387 10.7126706,6.02300192 C10.6487329,5.58986352 10.5582846,5.46822609 10.2093567,5.34502921 C10.02846,5.28109158 9.86276802,5.18440542 9.69005847,5.04171536 C9.64522416,5.00467833 9.53372318,4.9161793 9.44249511,4.84444441 C9.35087718,4.77309938 9.27056529,4.70682258 9.26315788,4.69785571 C9.25614034,4.68888885 9.20896685,4.65341127 9.15828459,4.61910328 C8.91500973,4.45458086 8.81364521,4.34697852 8.71929823,4.15282647 L8.62417152,3.95711497 L8.61559452,3.45107208 L8.60701753,2.94502919 L8.87641324,2.68966857 C9.03040934,2.54346974 9.20701753,2.40311886 9.28927874,2.3610136 C9.41832357,2.29512666 9.46276802,2.28732939 9.73255359,2.28109157 C10.0651072,2.27368416 10.1270955,2.2818713 10.1871345,2.34191028 C10.2467836,2.40155941 10.2401559,2.59142295 10.1758285,2.6732943 C10.1469785,2.70994147 10.1235867,2.75048728 10.1235867,2.76374264 C10.1235867,2.78635473 10.0218323,2.95516565 9.91228069,3.11422998 C9.88576997,3.15282647 9.82923976,3.32280697 9.81988303,3.38011692 C10.6167641,3.90214421 10.660039,3.52709547 10.368421,4.50994148 L10.8128655,4.60896682 C10.9341131,4.27134499 11.0651072,3.93606234 11.148538,3.5867446 C11.1598441,3.28927871 10.6814815,3.42339177 10.5481481,3.24834304 C10.4573099,3.01715395 10.6701754,2.69551652 10.7844055,2.49980502 C10.8467836,2.40857695 11.0424951,2.31656915 11.1282651,2.33801165 C11.1625731,2.34658865 11.2904483,2.32436642 11.4155945,2.28810911 C11.5395711,2.25224167 11.6721248,2.22261204 11.7099415,2.22261204 C11.7477583,2.22261204 11.8526316,2.19999995 11.9430799,2.17231964 C12.0853801,2.12904478 12.1185185,2.1267056 12.1906433,2.1567251 C12.2362573,2.17543855 12.3384016,2.19922022 12.4175439,2.20974654 C12.4962963,2.21988299 12.6015595,2.25341126 12.651462,2.28421048 C12.7013645,2.3150097 12.7890838,2.35321633 12.8471735,2.36881087 C12.9450292,2.39532159 12.9641326,2.39103309 13.1220273,2.30370366 L13.2916179,2.2101364 L13.7087719,2.194152 C14.1157895,2.17855746 14.1302144,2.17582841 14.3037037,2.08966857 L14.4822612,1.99999995 L14.5781677,2.05575044 C14.6467836,2.09551652 14.7005848,2.16218319 14.7672515,2.28888884 C14.8592593,2.4647173 14.860039,2.46744635 14.8206628,2.57621828 C14.7863548,2.67134498 14.7859649,2.70487325 14.8167641,2.82534108 C14.8362573,2.90175434 14.8732944,3.00545804 14.8986355,3.05575044 C14.9239766,3.10604284 14.9469786,3.17621828 14.9497076,3.21208573 C14.9617934,3.38089664 14.948538,3.41871341 14.8557505,3.4818713 C14.7711501,3.53918124 14.5836257,3.79025337 14.5836257,3.84600386 C14.5836257,3.85847949 14.5649123,3.9118908 14.5419103,3.96413251 C14.3454191,4.41286546 14.2783626,4.49278749 13.9859649,4.62612082 C13.6272905,4.78986351 13.5064328,4.82846 13.3539961,4.82846 C13.2331384,4.82846 13.1980507,4.83820659 13.1769981,4.87758281 C13.1625731,4.9044834 13.0908382,4.96998047 13.0175439,5.02222219 C12.9380117,5.07953213 12.8693957,5.15399607 12.8467836,5.20857696 C12.825731,5.2584795 12.7820663,5.30955162 12.7497076,5.32202726 C12.7173489,5.33450289 12.6740741,5.36413252 12.654191,5.38869392 C12.6339181,5.41286546 12.511501,5.50721244 12.3812866,5.59844051 C12.251462,5.68966858 12.1134503,5.79415202 12.0744639,5.83079919 C12.0354776,5.86744636 11.9937622,5.89746586 11.9812865,5.89746586 C11.9688109,5.89746586 11.931384,5.92631576 11.8982456,5.96179334 C11.8471735,6.01598438 11.8401559,6.04405455 11.8538012,6.14113057 C11.8623782,6.20467833 11.8873294,6.30760231 11.9091618,6.37037034 C11.9606238,6.51851849 11.9602339,6.67680309 11.9072125,6.78245611 C11.851462,6.89395709 11.8725146,7.04171537 11.9598441,7.15633526 C12.0382066,7.25886937 12.0440546,7.33411304 11.9875244,7.50097464 C11.9637427,7.57115008 11.9465887,7.71345027 11.9461988,7.84834306 C11.9454191,8.03859647 11.9547758,8.09317737 12.0031189,8.17504871 C12.0499025,8.25458088 12.0740741,8.27173487 12.1294347,8.26549706 C12.2066277,8.2565302 12.2191033,8.22456138 12.3130604,7.79298244 C12.3980507,7.40194929 12.4576998,7.32826508 12.8495127,7.12709549 C12.9641326,7.0682261 13.1403509,6.97270953 13.2405458,6.91500972 C13.3411306,6.85730992 13.5052632,6.77115007 13.605848,6.72358672 C13.8658869,6.60038984 14.0366472,6.46939568 14.1992203,6.26861596 C14.4764133,5.9259259 14.5883041,5.63625728 14.7001949,4.97037034 C14.7216374,4.84249509 14.7559454,4.75009743 14.8116959,4.66900581 C14.8619883,4.59610133 14.9040936,4.48888885 14.9243665,4.38401556 C14.9641326,4.17738788 15.0354776,4.03001945 15.1419103,3.93528261 C15.3251462,3.77231965 15.3758285,3.89278748 15.3208577,4.35906429 C15.302924,4.50955162 15.2779727,4.76179334 15.2647174,4.91968807 L15.2409357,5.20662765 L15.414425,5.36608184 L15.5879142,5.52553603 L15.5922027,5.85380114 C15.5945419,6.03430796 15.6105263,6.2253411 15.6280702,6.27836254 L15.660039,6.37465884 L15.4093567,6.61949315 C15.0764133,6.94424949 14.9072125,7.16257308 14.7559454,7.46198828 C14.6869396,7.59805066 14.6101365,7.73918127 14.5851852,7.77504871 C14.5001949,7.89629628 14.3333333,8.28226119 14.2436647,8.56491226 L14.154386,8.84639375 L13.8826511,9.09941519 C13.7333333,9.23859648 13.5723197,9.38206626 13.5251462,9.41793371 C13.4062378,9.50838205 13.3590643,9.61871344 13.3590643,9.8074074 C13.3590643,9.92358673 13.3758285,10.0007797 13.4210526,10.0904483 C13.4549708,10.1582846 13.4916179,10.242885 13.5025341,10.2787524 C13.5134503,10.3146199 13.5407407,10.3653021 13.5637427,10.391423 C13.6183236,10.4534113 13.6385965,11.019883 13.5961014,11.2966862 C13.5695907,11.471345 13.4545809,11.7653021 13.4128655,11.7653021 C13.3430799,11.7653021 13.2545809,12.1267057 13.2152047,12.5738791 C13.2081871,12.6526316 13.1910331,12.8054581 13.1769981,12.9130604 C13.162963,13.0206628 13.1395712,13.3021443 13.1243665,13.5387914 C13.094347,14.0152047 13.1169591,14.2705653 13.2042885,14.4413255 C13.337232,14.7021443 13.2245614,14.9360624 12.774269,15.3317739 L12.6194932,15.4678363 L12.6222222,15.6701755 C12.6237817,15.7816764 12.6436647,15.937232 12.6666667,16.0159844 C12.8463938,16.6389864 12.8510721,16.6756336 12.8374269,17.4635478 C12.8194932,18.4927876 12.8272905,19.0335283 12.8619883,19.1847954 C12.8783626,19.2565303 12.8974659,19.3797271 12.9040936,19.4584796 C12.9107213,19.537232 12.9298246,19.6662768 12.9461988,19.7454191 C12.9645224,19.8335283 12.9766082,20.1750488 12.9769981,20.6319689 L12.9777778,21.3750488 L12.9072125,21.4775829 C12.8015595,21.6300195 12.3181287,22.0054581 12.3033138,21.9567252 Z M13.4545809,20.1980507 C13.4475634,20.1863548 13.4417154,19.9302145 13.4417154,19.6292398 C13.4417154,19.0810917 13.4070176,18.5555556 13.3536062,18.2861599 C13.3380117,18.2074074 13.3220273,17.9079922 13.3185185,17.6210527 C13.3126706,17.1559454 13.2639376,16.6709552 13.2155945,16.5925926 C13.1898636,16.5508772 13.0978558,15.9040936 13.0974659,15.7621833 C13.097076,15.597271 13.137232,15.5282651 13.3033138,15.4062378 C13.4647174,15.2877193 13.4927875,15.2838207 13.5169591,15.3781677 C13.5278753,15.4210526 13.5734893,15.597271 13.6183236,15.7692008 C13.77154,16.3586745 13.7797271,16.4035088 13.7762183,16.6167642 C13.7723197,16.8421053 13.7711501,16.8557505 13.7083821,17.3079922 C13.6701754,17.5836258 13.662768,17.7910332 13.6678363,18.4163743 C13.6744639,19.1727096 13.642885,19.8093568 13.5883041,20.0253412 C13.5606238,20.1337232 13.4791423,20.2389864 13.4545809,20.1980507 Z M10.6869396,18.7329435 C10.6775828,18.7181287 10.6475633,18.528655 10.6194932,18.3122807 C10.591423,18.0955166 10.5614035,17.9064328 10.5520468,17.891618 C10.5430799,17.8768031 10.5255361,17.762963 10.5134503,17.6385965 C10.5013645,17.51423 10.4779727,17.3477583 10.4615984,17.2690059 C10.4230019,17.0822612 10.3309941,16.5146199 10.3282651,16.4475634 C10.3270955,16.4187135 10.3150097,16.2896686 10.3009747,16.1606238 C10.2748538,15.9185185 10.2682261,15.0818714 10.2923977,15.0576998 C10.3298246,15.0202729 10.5508772,15.1653022 10.7341131,15.3473684 L10.939961,15.5520468 L10.9224171,15.8042885 C10.9126706,15.9430799 10.8990253,16.2031189 10.8920078,16.3824562 C10.8849902,16.5617934 10.8729045,16.7672515 10.8658869,16.8389864 C10.8588694,16.9107213 10.8421053,17.2038987 10.8292398,17.4908382 C10.7984405,18.1695907 10.7536062,18.7107213 10.7259259,18.7384016 C10.7134503,18.7500975 10.6962963,18.7477583 10.6869396,18.7329435 Z M7.28771927,8.33957113 C8.10916177,8.83820661 7.98323585,8.89122805 8.39844053,9.02807016 C8.90565301,9.19532162 9.13411305,9.30604287 9.30097465,9.68576997 C7.59883039,11.0947368 6.61052629,11.9430799 6.31033136,12.4467836 C5.10097462,14.4744639 6.07680309,16.4074074 8.75672513,15.8467836 C8.20389862,16.9863548 5.71695903,16.962963 4.90955162,15.6557505 C3.94736838,14.0982456 4.04834304,11.0436647 7.28771927,8.33957113 Z M15.505653,15.3189084 C17.7146199,15.5871345 18.7150098,13.8475634 17.320078,11.8401559 C17.320078,11.8401559 16.2725146,10.6962963 14.8140351,9.19064326 C14.9302144,8.58830408 15.1840156,7.93840154 16.005848,7.09239764 C19.4834308,9.56842104 19.5925926,12.6132554 19.6105264,12.9153996 C19.7769981,15.6670565 16.5438597,16.4678363 15.505653,15.3189084 Z" id="path-1"></path>
    </defs>
    <g id="mandalorian" stroke="none" stroke-width="1" fill="none" fill-rule="evenodd">
        <mask id="mask-2" fill="white">
            <use xlink:href="#path-1"></use>
        </mask>
        <g fill-rule="nonzero"></g>
        <g id="🎨-color" mask="url(#mask-2)" fill="#000000">
            <rect id="🎨-Color" x="0" y="0" width="24" height="24"></rect>
        </g>
    </g>
</svg>