<?xml version="1.0" encoding="UTF-8"?>
<svg width="24px" height="24px" viewBox="0 0 24 24" version="1.1" xmlns="http://www.w3.org/2000/svg" xmlns:xlink="http://www.w3.org/1999/xlink">
    <!-- Generator: Sketch 52.5 (67469) - http://www.bohemiancoding.com/sketch -->
    <title>map-signs</title>
    <desc>Created with Sketch.</desc>
    <defs>
        <path d="M21.8167969,5.30820309 L20.125,3.61601558 C19.890625,3.38164058 19.5726563,3.24999996 19.2410157,3.24999996 L13.25,3.24999996 L13.25,2.62499995 C13.25,2.27968745 12.9703125,1.99999995 12.625,1.99999995 L11.375,1.99999995 C11.0296875,1.99999995 10.75,2.27968745 10.75,2.62499995 L10.75,3.24999996 L4.18749996,3.24999996 C3.66992183,3.24999996 3.24999996,3.66992183 3.24999996,4.18749996 L3.24999996,7.31249998 C3.24999996,7.8300781 3.66992183,8.24999998 4.18749996,8.24999998 L19.2410157,8.24999998 C19.5726563,8.24999998 19.8902344,8.11835936 20.125,7.88398435 L21.8167969,6.19218747 C22.0609376,5.94765622 22.0609376,5.55234372 21.8167969,5.30820309 Z M10.75,21.375 C10.75,21.7203125 11.0296875,22.0000001 11.375,22.0000001 L12.625,22.0000001 C12.9703125,22.0000001 13.25,21.7203125 13.25,21.375 L13.25,17 L10.75,17 L10.75,21.375 Z M19.8125,10.75 L13.25,10.75 L13.25,9.49999999 L10.75,9.49999999 L10.75,10.75 L4.75898434,10.75 C4.42734371,10.75 4.10976559,10.8816406 3.87499996,11.1160156 L2.18320308,12.8082031 C1.93906245,13.0523438 1.93906245,13.4480469 2.18320308,13.6921875 L3.87499996,15.3839844 C4.10937496,15.6183594 4.42734371,15.75 4.75898434,15.75 L19.8125,15.75 C20.3300782,15.75 20.75,15.3300781 20.75,14.8125 L20.75,11.6875 C20.75,11.1699219 20.3300782,10.75 19.8125,10.75 Z" id="path-1"></path>
    </defs>
    <g id="map-signs" stroke="none" stroke-width="1" fill="none" fill-rule="evenodd">
        <mask id="mask-2" fill="white">
            <use xlink:href="#path-1"></use>
        </mask>
        <g fill-rule="nonzero"></g>
        <g id="🎨-color" mask="url(#mask-2)" fill="#000000">
            <rect id="🎨-Color" x="0" y="0" width="24" height="24"></rect>
        </g>
    </g>
</svg>