<?xml version="1.0" encoding="UTF-8"?>
<svg width="24px" height="24px" viewBox="0 0 24 24" version="1.1" xmlns="http://www.w3.org/2000/svg" xmlns:xlink="http://www.w3.org/1999/xlink">
    <!-- Generator: Sketch 52.5 (67469) - http://www.bohemiancoding.com/sketch -->
    <title>map-pin</title>
    <desc>Created with Sketch.</desc>
    <defs>
        <path d="M10.75,14.3804688 L10.75,20.5011719 L11.6101562,21.7910157 C11.7957031,22.0691407 12.2046875,22.0691407 12.3902344,21.7910157 L13.25,20.5011719 L13.25,14.3804688 C12.8441406,14.4554688 12.4273438,14.5 12,14.5 C11.5726562,14.5 11.1558594,14.4554688 10.75,14.3804688 Z M12,1.99999995 C8.89335936,1.99999995 6.37499997,4.51835934 6.37499997,7.62499998 C6.37499997,10.7316406 8.89335936,13.25 12,13.25 C15.1066406,13.25 17.625,10.7316406 17.625,7.62499998 C17.625,4.51835934 15.1066406,1.99999995 12,1.99999995 Z M12,4.96874996 C10.5351562,4.96874996 9.34374999,6.16015622 9.34374999,7.62499998 C9.34374999,7.88359373 9.13359374,8.09374998 8.87499998,8.09374998 C8.61640623,8.09374998 8.40624998,7.88359373 8.40624998,7.62499998 C8.40624998,5.64335934 10.01875,4.03124996 12,4.03124996 C12.2585938,4.03124996 12.46875,4.24140621 12.46875,4.49999996 C12.46875,4.75859371 12.2585938,4.96874996 12,4.96874996 Z" id="path-1"></path>
    </defs>
    <g id="map-pin" stroke="none" stroke-width="1" fill="none" fill-rule="evenodd">
        <mask id="mask-2" fill="white">
            <use xlink:href="#path-1"></use>
        </mask>
        <g fill-rule="nonzero"></g>
        <g id="🎨-color" mask="url(#mask-2)" fill="#000000">
            <rect id="🎨-Color" x="0" y="0" width="24" height="24"></rect>
        </g>
    </g>
</svg>