<?xml version="1.0" encoding="UTF-8"?>
<svg width="24px" height="24px" viewBox="0 0 24 24" version="1.1" xmlns="http://www.w3.org/2000/svg" xmlns:xlink="http://www.w3.org/1999/xlink">
    <!-- Generator: Sketch 52.5 (67469) - http://www.bohemiancoding.com/sketch -->
    <title>map-marked</title>
    <desc>Created with Sketch.</desc>
    <defs>
        <path d="M12,3.11111107 C9.58368054,3.11111107 7.62499998,5.06979163 7.62499998,7.48611109 C7.62499998,9.43958332 10.484375,13 11.5798611,14.2923611 C11.8017361,14.5541667 12.1986111,14.5541667 12.4201389,14.2923611 C13.515625,13 16.375,9.43958332 16.375,7.48611109 C16.375,5.06979163 14.4163195,3.11111107 12,3.11111107 Z M2.69861106,10.609375 C2.2767596,10.7781035 2.00010098,11.1866288 1.99999995,11.6409722 L1.99999995,20.3326389 C1.99999995,20.7256945 2.39687495,20.9944445 2.76180551,20.8486112 L7.55555553,18.6666667 L7.55555553,10.5736111 C7.24861109,10.01875 6.99756942,9.47847221 6.81770831,8.96180554 L2.69861106,10.609375 Z M12,15.5996528 C11.5114583,15.5996528 11.0493056,15.3850695 10.7322917,15.0107639 C10.0496528,14.2052083 9.3236111,13.2878472 8.66666665,12.346875 L8.66666665,18.6663195 L15.3333334,20.8885417 L15.3333334,12.3472222 C14.6763889,13.2878472 13.9506945,14.2055556 13.2677083,15.0111111 C12.9506944,15.3850695 12.4885417,15.5996528 12,15.5996528 Z M21.2381945,8.70694443 L16.4444445,10.8888889 L16.4444445,20.8888889 L21.3013889,18.9461806 C21.7233035,18.7775303 21.9999951,18.3689563 22.0000001,17.9145834 L22.0000001,9.22291665 C22.0000001,8.8298611 21.603125,8.56111109 21.2381945,8.70694443 Z" id="path-1"></path>
    </defs>
    <g id="map-marked" stroke="none" stroke-width="1" fill="none" fill-rule="evenodd">
        <mask id="mask-2" fill="white">
            <use xlink:href="#path-1"></use>
        </mask>
        <g fill-rule="nonzero"></g>
        <g id="🎨-color" mask="url(#mask-2)" fill="#000000">
            <rect id="🎨-Color" x="0" y="0" width="24" height="24"></rect>
        </g>
    </g>
</svg>