<?xml version="1.0" encoding="UTF-8"?>
<svg width="24px" height="24px" viewBox="0 0 24 24" version="1.1" xmlns="http://www.w3.org/2000/svg" xmlns:xlink="http://www.w3.org/1999/xlink">
    <!-- Generator: Sketch 52.5 (67469) - http://www.bohemiancoding.com/sketch -->
    <title>map</title>
    <desc>Created with Sketch.</desc>
    <defs>
        <path d="M21.4451389,4.22222218 C21.3770834,4.22222218 21.3069445,4.23506941 21.2381945,4.26249996 L15.3336806,6.44444442 L15.3333334,6.44444442 L9.3611111,4.33611107 C9.13445855,4.26077356 8.89717868,4.22232109 8.65833332,4.22222218 C8.42604165,4.22222218 8.1940972,4.25868052 7.97048609,4.33124996 L2.69861106,6.16493053 C2.2767596,6.33365908 2.00010098,6.7421843 1.99999995,7.19652775 L1.99999995,19.2215278 C1.99999995,19.540625 2.26145828,19.7777778 2.55520829,19.7777778 C2.62326384,19.7777778 2.69305551,19.7649306 2.76215273,19.7375 L8.66666665,17.5555556 L14.6388889,19.6635417 C15.0899281,19.814056 15.57736,19.8158816 16.0295139,19.66875 L21.3013889,17.8350695 C21.7233035,17.6664192 21.9999951,17.2578452 22.0000001,16.8034722 L22.0000001,4.77847219 C22.0000001,4.45937496 21.7385417,4.22222218 21.4451389,4.22222218 Z M9.77777777,6.25069442 L14.2222222,7.81979165 L14.2222222,17.7493056 L9.77777777,16.1802084 L9.77777777,6.25069442 Z M3.66666662,17.6267361 L3.66666662,7.59270831 L8.11111109,6.04652775 L8.11111109,15.9840278 L8.08888887,15.9920139 L3.66666662,17.6267361 Z M20.3333334,16.4069445 L15.8888889,17.953125 L15.8888889,8.0159722 L15.9111111,8.00763887 L20.3333334,6.37326386 L20.3333334,16.4069445 Z" id="path-1"></path>
    </defs>
    <g id="map" stroke="none" stroke-width="1" fill="none" fill-rule="evenodd">
        <mask id="mask-2" fill="white">
            <use xlink:href="#path-1"></use>
        </mask>
        <g fill-rule="nonzero"></g>
        <g id="🎨-color" mask="url(#mask-2)" fill="#000000">
            <rect id="🎨-Color" x="0" y="0" width="24" height="24"></rect>
        </g>
    </g>
</svg>