<?xml version="1.0" encoding="UTF-8"?>
<svg width="24px" height="24px" viewBox="0 0 24 24" version="1.1" xmlns="http://www.w3.org/2000/svg" xmlns:xlink="http://www.w3.org/1999/xlink">
    <!-- Generator: Sketch 52.5 (67469) - http://www.bohemiancoding.com/sketch -->
    <title>marker</title>
    <desc>Created with Sketch.</desc>
    <defs>
        <path d="M5.6945525,13.3241245 C3.65188197,15.3668108 2.36502022,18.0437247 2.04552524,20.914786 L2.04435793,20.9237355 C1.97821007,21.518288 2.4805447,22.0210117 3.07509723,21.955253 C5.94985502,21.6378195 8.63070367,20.3505071 10.6758755,18.3054475 L13.6097276,15.3715953 L8.62840465,10.3902724 L5.6945525,13.3241245 Z M20.929572,3.07042797 C19.5540856,1.69494158 17.3237354,1.69494158 15.948249,3.07042797 L15.1015564,3.91712058 L13.6789883,2.49494159 C13.0712062,1.88715948 12.0856031,1.88715948 11.4782101,2.49494159 L7.42684823,6.54630347 C7.18365756,6.78949414 7.18365756,7.18365756 7.42684823,7.42684823 L8.30700387,8.30700387 C8.55019454,8.55019454 8.94435796,8.55019454 9.18754862,8.30700387 L12.5785992,4.91595327 L13.340856,5.67821009 L9.5089494,9.50972761 L14.4902724,14.4910506 L20.929572,8.05175095 C22.3050584,6.67626456 22.3050584,4.44630346 20.929572,3.07042797 Z" id="path-1"></path>
    </defs>
    <g id="marker" stroke="none" stroke-width="1" fill="none" fill-rule="evenodd">
        <mask id="mask-2" fill="white">
            <use xlink:href="#path-1"></use>
        </mask>
        <g fill-rule="nonzero"></g>
        <g id="🎨-color" mask="url(#mask-2)" fill="#000000">
            <rect id="🎨-Color" x="0" y="0" width="24" height="24"></rect>
        </g>
    </g>
</svg>