<?xml version="1.0" encoding="UTF-8"?>
<svg width="24px" height="24px" viewBox="0 0 24 24" version="1.1" xmlns="http://www.w3.org/2000/svg" xmlns:xlink="http://www.w3.org/1999/xlink">
    <!-- Generator: Sketch 52.5 (67469) - http://www.bohemiancoding.com/sketch -->
    <title>markdown</title>
    <desc>Created with Sketch.</desc>
    <defs>
        <path d="M20.5578125,18.15375 L3.44218746,18.15375 C2.64687495,18.15375 1.99999995,17.506875 1.99999995,16.7115625 L1.99999995,7.28843748 C1.99999995,6.49312497 2.64687495,5.84624997 3.44218746,5.84624997 L20.5575,5.84624997 C21.3528125,5.84624997 21.9996875,6.49312497 21.9996875,7.28843748 L21.9996875,16.7115625 C22,17.506875 21.353125,18.15375 20.5578125,18.15375 Z M6.80781247,15.269375 L6.80781247,11.519375 L8.73093748,13.923125 L10.6540625,11.519375 L10.6540625,15.269375 L12.5771875,15.269375 L12.5771875,8.73062498 L10.6540625,8.73062498 L8.73093748,11.134375 L6.80781247,8.73062498 L4.88468746,8.73062498 L4.88468746,15.2690625 L6.80781247,15.2690625 L6.80781247,15.269375 Z M19.6921875,12 L17.7690625,12 L17.7690625,8.73062498 L15.8459375,8.73062498 L15.8459375,12 L13.9228125,12 L16.8075,15.3653125 L19.6921875,12 Z" id="path-1"></path>
    </defs>
    <g id="markdown" stroke="none" stroke-width="1" fill="none" fill-rule="evenodd">
        <mask id="mask-2" fill="white">
            <use xlink:href="#path-1"></use>
        </mask>
        <g fill-rule="nonzero"></g>
        <g id="🎨-color" mask="url(#mask-2)" fill="#000000">
            <rect id="🎨-Color" x="0" y="0" width="24" height="24"></rect>
        </g>
    </g>
</svg>