<?xml version="1.0" encoding="UTF-8"?>
<svg width="24px" height="24px" viewBox="0 0 24 24" version="1.1" xmlns="http://www.w3.org/2000/svg" xmlns:xlink="http://www.w3.org/1999/xlink">
    <!-- Generator: Sketch 52.5 (67469) - http://www.bohemiancoding.com/sketch -->
    <title>mars-double</title>
    <desc>Created with Sketch.</desc>
    <defs>
        <path d="M15.28125,1.99999995 L12.1953125,1.99999995 C11.7773437,1.99999995 11.5703125,2.5039062 11.8632812,2.8007812 L12.5234375,3.46093746 L10.6210937,5.36328122 C9.75390624,4.81640621 8.72656248,4.49999996 7.62499998,4.49999996 C4.51953121,4.49999996 1.99999995,7.01953123 1.99999995,10.125 C1.99999995,13.2304688 4.51953121,15.75 7.62499998,15.75 C10.7304687,15.75 13.25,13.2304688 13.25,10.125 C13.25,9.02343749 12.9335938,7.99609373 12.3867188,7.12890623 L14.2890625,5.22656247 L14.9492188,5.88671872 C15.0429688,5.98046872 15.1640625,6.02343747 15.2773438,6.02343747 C15.5195313,6.02343747 15.75,5.83593747 15.75,5.55468747 L15.75,2.46874995 C15.75,2.21093745 15.5390625,1.99999995 15.28125,1.99999995 Z M7.62499998,13.25 C5.90234372,13.25 4.49999996,11.8476562 4.49999996,10.125 C4.49999996,8.40234373 5.90234372,6.99999997 7.62499998,6.99999997 C9.34765624,6.99999997 10.75,8.40234373 10.75,10.125 C10.75,11.8476562 9.34765624,13.25 7.62499998,13.25 Z M21.53125,8.24609373 L18.4453125,8.24609373 C18.0273438,8.24609373 17.8203125,8.74999998 18.1132813,9.04687499 L18.7734375,9.70703124 L16.8710938,11.609375 C16.1601563,11.1640625 15.3476563,10.8710937 14.46875,10.7773437 C14.3867188,11.6289062 14.1484375,12.46875 13.75,13.25 C13.7929688,13.25 13.8359375,13.2460938 13.875,13.2460938 C15.5976563,13.2460938 17,14.6484375 17,16.3710938 C17,18.09375 15.5976563,19.4960938 13.875,19.4960938 C12.1523438,19.4960938 10.75,18.09375 10.75,16.3710938 C10.75,16.328125 10.75,16.2851563 10.7539062,16.2460938 C9.97265624,16.6445313 9.13281249,16.8867188 8.28124998,16.9648438 C8.57812498,19.796875 10.96875,22.0000001 13.875,22.0000001 C16.9804688,22.0000001 19.5,19.4804688 19.5,16.375 C19.5,15.2734375 19.1835938,14.2460938 18.6367188,13.3789063 L20.5390625,11.4765625 L21.1992188,12.1367188 C21.2929688,12.2304688 21.4101563,12.2734375 21.5273438,12.2734375 C21.7695313,12.2734375 22.0000001,12.0859375 22.0000001,11.8046875 L22.0000001,8.71874998 C22.0000001,8.45703123 21.7890625,8.24609373 21.53125,8.24609373 Z" id="path-1"></path>
    </defs>
    <g id="mars-double" stroke="none" stroke-width="1" fill="none" fill-rule="evenodd">
        <mask id="mask-2" fill="white">
            <use xlink:href="#path-1"></use>
        </mask>
        <g fill-rule="nonzero"></g>
        <g id="🎨-color" mask="url(#mask-2)" fill="#000000">
            <rect id="🎨-Color" x="0" y="0" width="24" height="24"></rect>
        </g>
    </g>
</svg>