<?xml version="1.0" encoding="UTF-8"?>
<svg width="24px" height="24px" viewBox="0 0 24 24" version="1.1" xmlns="http://www.w3.org/2000/svg" xmlns:xlink="http://www.w3.org/1999/xlink">
    <!-- Generator: Sketch 52.5 (67469) - http://www.bohemiancoding.com/sketch -->
    <title>mars</title>
    <desc>Created with Sketch.</desc>
    <defs>
        <path d="M19.03125,4.49999996 L15.9453125,4.49999996 C15.5273438,4.49999996 15.3203125,5.00390622 15.6132813,5.30078122 L16.2734375,5.96093747 L13.1210938,9.11328124 C12.2539063,8.56640623 11.2265625,8.24999998 10.125,8.24999998 C7.01953123,8.24999998 4.49999996,10.7695312 4.49999996,13.875 C4.49999996,16.9804688 7.01953123,19.5 10.125,19.5 C13.2304688,19.5 15.75,16.9804688 15.75,13.875 C15.75,12.7734375 15.4335938,11.7460937 14.8867188,10.8789062 L18.0390625,7.72656248 L18.6992188,8.38671873 C18.9960938,8.68359373 19.5,8.47265623 19.5,8.05468748 L19.5,4.96874996 C19.5,4.71093746 19.2890625,4.49999996 19.03125,4.49999996 Z M10.125,17 C8.40234373,17 6.99999997,15.5976563 6.99999997,13.875 C6.99999997,12.1523438 8.40234373,10.75 10.125,10.75 C11.8476562,10.75 13.25,12.1523438 13.25,13.875 C13.25,15.5976563 11.8476562,17 10.125,17 Z" id="path-1"></path>
    </defs>
    <g id="mars" stroke="none" stroke-width="1" fill="none" fill-rule="evenodd">
        <mask id="mask-2" fill="white">
            <use xlink:href="#path-1"></use>
        </mask>
        <g fill-rule="nonzero"></g>
        <g id="🎨-color" mask="url(#mask-2)" fill="#000000">
            <rect id="🎨-Color" x="0" y="0" width="24" height="24"></rect>
        </g>
    </g>
</svg>