<?xml version="1.0" encoding="UTF-8"?>
<svg width="24px" height="24px" viewBox="0 0 24 24" version="1.1" xmlns="http://www.w3.org/2000/svg" xmlns:xlink="http://www.w3.org/1999/xlink">
    <!-- Generator: Sketch 52.5 (67469) - http://www.bohemiancoding.com/sketch -->
    <title>mars-stroke</title>
    <desc>Created with Sketch.</desc>
    <defs>
        <path d="M19.0117188,4.49999996 L15.9257813,4.49999996 C15.5078125,4.49999996 15.3007813,5.00390622 15.59375,5.30078122 L16.2539063,5.96093747 L15.5703125,6.64453122 L15.0195313,6.09374997 C14.8359375,5.91015622 14.5390625,5.91015622 14.3554688,6.09374997 L13.25,7.19531248 C13.0664063,7.37890623 13.0664063,7.67578123 13.25,7.85937498 L13.8007813,8.41015623 L13.0976563,9.11328124 C12.2304688,8.56640623 11.203125,8.24999998 10.1015625,8.24999998 C6.99999997,8.24999998 4.48046871,10.7695312 4.48046871,13.875 C4.48046871,16.9804688 6.99999997,19.5 10.1054687,19.5 C13.2109375,19.5 15.7304688,16.9804688 15.7304688,13.875 C15.7304688,12.7734375 15.4140625,11.7460937 14.8671875,10.8789062 L15.5703125,10.1757812 L16.1210938,10.7265625 C16.3046875,10.9101562 16.6015625,10.9101562 16.7851563,10.7265625 L17.890625,9.62109374 C18.0742188,9.43749999 18.0742188,9.14062499 17.890625,8.95703123 L17.3398438,8.40624998 L18.0234375,7.72265623 L18.6835938,8.38281248 C18.9804688,8.67968748 19.484375,8.46874998 19.484375,8.05078123 L19.484375,4.96874996 C19.4804688,4.71093746 19.2695313,4.49999996 19.0117188,4.49999996 Z M10.1054687,17 C8.38281248,17 6.98046872,15.5976563 6.98046872,13.875 C6.98046872,12.1523438 8.38281248,10.75 10.1054687,10.75 C11.828125,10.75 13.2304688,12.1523438 13.2304688,13.875 C13.2304688,15.5976563 11.828125,17 10.1054687,17 Z" id="path-1"></path>
    </defs>
    <g id="mars-stroke" stroke="none" stroke-width="1" fill="none" fill-rule="evenodd">
        <mask id="mask-2" fill="white">
            <use xlink:href="#path-1"></use>
        </mask>
        <g fill-rule="nonzero"></g>
        <g id="🎨-color" mask="url(#mask-2)" fill="#000000">
            <rect id="🎨-Color" x="0" y="0" width="24" height="24"></rect>
        </g>
    </g>
</svg>