<?xml version="1.0" encoding="UTF-8"?>
<svg width="24px" height="24px" viewBox="0 0 24 24" version="1.1" xmlns="http://www.w3.org/2000/svg" xmlns:xlink="http://www.w3.org/1999/xlink">
    <!-- Generator: Sketch 52.5 (67469) - http://www.bohemiancoding.com/sketch -->
    <title>mars-stroke-h</title>
    <desc>Created with Sketch.</desc>
    <defs>
        <path d="M21.2265625,11.6679687 L19.0429688,9.48437499 C18.7460938,9.18749999 18.2421875,9.39843749 18.2421875,9.81640624 L18.2421875,10.75 L17.3125,10.75 L17.3125,9.96874999 C17.3125,9.71093749 17.1015625,9.49999999 16.84375,9.49999999 L15.28125,9.49999999 C15.0234375,9.49999999 14.8125,9.71093749 14.8125,9.96874999 L14.8125,10.75 L13.734375,10.75 C13.5078125,9.74999999 13.0039063,8.80078123 12.2265625,8.02343748 C10.03125,5.82812497 6.46874997,5.82812497 4.27343746,8.02343748 C2.07812495,10.21875 2.07812495,13.78125 4.27343746,15.9765625 C6.46874997,18.171875 10.03125,18.171875 12.2265625,15.9765625 C13.0039063,15.1992188 13.5078125,14.25 13.734375,13.25 L14.8125,13.25 L14.8125,14.03125 C14.8125,14.2890625 15.0234375,14.5 15.28125,14.5 L16.84375,14.5 C17.1015625,14.5 17.3125,14.2890625 17.3125,14.03125 L17.3125,13.25 L18.2460938,13.25 L18.2460938,14.1835938 C18.2460938,14.6015625 18.75,14.8085938 19.046875,14.515625 L21.2304688,12.3320313 C21.4101563,12.1484375 21.4101563,11.8515625 21.2265625,11.6679687 Z M10.4609375,14.2109375 C9.24218749,15.4296875 7.26171873,15.4296875 6.04296872,14.2109375 C4.82421871,12.9921875 4.82421871,11.0117187 6.04296872,9.79296874 C7.26171873,8.57421873 9.24218749,8.57421873 10.4609375,9.79296874 C11.6796875,11.0078125 11.6796875,12.9921875 10.4609375,14.2109375 Z" id="path-1"></path>
    </defs>
    <g id="mars-stroke-h" stroke="none" stroke-width="1" fill="none" fill-rule="evenodd">
        <mask id="mask-2" fill="white">
            <use xlink:href="#path-1"></use>
        </mask>
        <g fill-rule="nonzero"></g>
        <g id="🎨-color" mask="url(#mask-2)" fill="#000000">
            <rect id="🎨-Color" x="0" y="0" width="24" height="24"></rect>
        </g>
    </g>
</svg>