<?xml version="1.0" encoding="UTF-8"?>
<svg width="24px" height="24px" viewBox="0 0 24 24" version="1.1" xmlns="http://www.w3.org/2000/svg" xmlns:xlink="http://www.w3.org/1999/xlink">
    <!-- Generator: Sketch 52.5 (67469) - http://www.bohemiancoding.com/sketch -->
    <title>mars-stroke-v</title>
    <desc>Created with Sketch.</desc>
    <defs>
        <path d="M15.9570313,11.1484375 C15.1796875,10.3710937 14.2304688,9.86718749 13.2304688,9.64062499 L13.2304688,8.64843748 L14.0117188,8.64843748 C14.2695313,8.64843748 14.4804688,8.43749998 14.4804688,8.17968748 L14.4804688,6.61718747 C14.4804688,6.35937497 14.2695313,6.14843747 14.0117188,6.14843747 L13.2304688,6.14843747 L13.2304688,5.17968747 L14.1640625,5.17968747 C14.5820313,5.17968747 14.7890625,4.67578121 14.4960938,4.37890621 L12.3125,2.1992187 C12.1289063,2.01562495 11.8320312,2.01562495 11.6484375,2.1992187 L9.46484374,4.38281246 C9.16796874,4.67968746 9.37890624,5.18359372 9.79687499,5.18359372 L10.7304687,5.18359372 L10.7304687,6.14843747 L9.94921874,6.14843747 C9.69140624,6.14843747 9.48046874,6.35937497 9.48046874,6.61718747 L9.48046874,8.17968748 C9.48046874,8.43749998 9.69140624,8.64843748 9.94921874,8.64843748 L10.7304687,8.64843748 L10.7304687,9.64062499 C9.73046874,9.86718749 8.78124998,10.3710937 8.00390623,11.1484375 C5.80859372,13.34375 5.80859372,16.90625 8.00390623,19.1015625 C10.1992187,21.296875 13.7617188,21.296875 15.9570313,19.1015625 C18.15625,16.90625 18.15625,13.34375 15.9570313,11.1484375 Z M14.1914063,17.3359375 C12.9726563,18.5546875 10.9921875,18.5546875 9.77343749,17.3359375 C8.55468748,16.1171875 8.55468748,14.1367188 9.77343749,12.9179688 C10.9921875,11.6992187 12.9726563,11.6992187 14.1914063,12.9179688 C15.4101563,14.1328125 15.4101563,16.1171875 14.1914063,17.3359375 Z" id="path-1"></path>
    </defs>
    <g id="mars-stroke-v" stroke="none" stroke-width="1" fill="none" fill-rule="evenodd">
        <mask id="mask-2" fill="white">
            <use xlink:href="#path-1"></use>
        </mask>
        <g fill-rule="nonzero"></g>
        <g id="🎨-color" mask="url(#mask-2)" fill="#000000">
            <rect id="🎨-Color" x="0" y="0" width="24" height="24"></rect>
        </g>
    </g>
</svg>