<?xml version="1.0" encoding="UTF-8"?>
<svg width="24px" height="24px" viewBox="0 0 24 24" version="1.1" xmlns="http://www.w3.org/2000/svg" xmlns:xlink="http://www.w3.org/1999/xlink">
    <!-- Generator: Sketch 52.5 (67469) - http://www.bohemiancoding.com/sketch -->
    <title>mask</title>
    <desc>Created with Sketch.</desc>
    <defs>
        <path d="M12.0209375,5.99999997 C-1.81031257,5.99999997 0.846874944,18 7.06906248,18 C8.31593748,18 9.48999999,17.3534375 10.2384375,16.254375 L11.0425,15.0734375 C11.531875,14.355 12.5103125,14.355 12.9996875,15.0734375 L13.80375,16.254375 C14.551875,17.3534375 15.7259375,18 16.9728125,18 C22.9059376,18 26.0550001,5.99999997 12.0209375,5.99999997 Z M7.74999998,13.63625 C6.46687497,13.63625 5.63249997,12.834375 5.24749997,12.3534375 C5.08406247,12.149375 5.08406247,11.850625 5.24749997,11.64625 C5.63249997,11.165 6.46656247,10.3634375 7.74999998,10.3634375 C9.03343749,10.3634375 9.86749999,11.1653125 10.2525,11.64625 C10.4159375,11.8503125 10.4159375,12.1490625 10.2525,12.3534375 C9.86749999,12.8346875 9.03312499,13.63625 7.74999998,13.63625 Z M16.25,13.63625 C14.966875,13.63625 14.1325,12.834375 13.7475,12.3534375 C13.5840625,12.149375 13.5840625,11.850625 13.7475,11.64625 C14.1325,11.165 14.9665625,10.3634375 16.25,10.3634375 C17.5334375,10.3634375 18.3675,11.1653125 18.7525,11.64625 C18.9159375,11.8503125 18.9159375,12.1490625 18.7525,12.3534375 C18.3675,12.8346875 17.533125,13.63625 16.25,13.63625 Z" id="path-1"></path>
    </defs>
    <g id="mask" stroke="none" stroke-width="1" fill="none" fill-rule="evenodd">
        <mask id="mask-2" fill="white">
            <use xlink:href="#path-1"></use>
        </mask>
        <g fill-rule="nonzero"></g>
        <g id="🎨-color" mask="url(#mask-2)" fill="#000000">
            <rect id="🎨-Color" x="0" y="0" width="24" height="24"></rect>
        </g>
    </g>
</svg>