<?xml version="1.0" encoding="UTF-8"?>
<svg width="24px" height="24px" viewBox="0 0 24 24" version="1.1" xmlns="http://www.w3.org/2000/svg" xmlns:xlink="http://www.w3.org/1999/xlink">
    <!-- Generator: Sketch 52.5 (67469) - http://www.bohemiancoding.com/sketch -->
    <title>mastodon</title>
    <desc>Created with Sketch.</desc>
    <defs>
        <path d="M20.1757813,8.99609373 C20.1757813,5.19921872 17.6875,4.08593746 17.6875,4.08593746 C15.2460938,2.9648437 8.76171873,2.97656245 6.34374997,4.08593746 C6.34374997,4.08593746 3.85546871,5.19921872 3.85546871,8.99609373 C3.85546871,13.515625 3.59765621,19.1289063 7.98046873,20.2890625 C9.56249999,20.7070313 10.921875,20.796875 12.015625,20.734375 C14,20.625 15.1132813,20.0273438 15.1132813,20.0273438 L15.046875,18.5859375 C15.046875,18.5859375 13.6289063,19.03125 12.0351563,18.9804688 C10.4570312,18.9257813 8.79296873,18.8085938 8.53515623,16.8710938 C8.51171873,16.6992188 8.49999998,16.5195313 8.49999998,16.328125 C11.84375,17.1445313 14.6953125,16.6835938 15.4804688,16.5898438 C17.671875,16.328125 19.5820313,14.9765625 19.8242188,13.7421875 C20.2070313,11.796875 20.1757813,8.99609373 20.1757813,8.99609373 Z M17.2421875,13.8867188 L15.421875,13.8867188 L15.421875,9.42578124 C15.421875,7.48437498 12.921875,7.41015623 12.921875,9.69531249 L12.921875,12.1367188 L11.1132812,12.1367188 L11.1132812,9.69531249 C11.1132812,7.41015623 8.61328123,7.48437498 8.61328123,9.42578124 L8.61328123,13.8867188 L6.78906247,13.8867188 C6.78906247,9.11718749 6.58593747,8.10937498 7.50781248,7.05078123 C8.51953123,5.92187497 10.625,5.84765622 11.5625,7.28906248 L12.015625,8.05078123 L12.46875,7.28906248 C13.4101563,5.83984372 15.5195313,5.92968747 16.5234375,7.05078123 C17.4492188,8.11718748 17.2421875,9.12109374 17.2421875,13.8867188 Z" id="path-1"></path>
    </defs>
    <g id="mastodon" stroke="none" stroke-width="1" fill="none" fill-rule="evenodd">
        <mask id="mask-2" fill="white">
            <use xlink:href="#path-1"></use>
        </mask>
        <g fill-rule="nonzero"></g>
        <g id="🎨-color" mask="url(#mask-2)" fill="#000000">
            <rect id="🎨-Color" x="0" y="0" width="24" height="24"></rect>
        </g>
    </g>
</svg>