<?xml version="1.0" encoding="UTF-8"?>
<svg width="24px" height="24px" viewBox="0 0 24 24" version="1.1" xmlns="http://www.w3.org/2000/svg" xmlns:xlink="http://www.w3.org/1999/xlink">
    <!-- Generator: Sketch 52.5 (67469) - http://www.bohemiancoding.com/sketch -->
    <title>medal</title>
    <desc>Created with Sketch.</desc>
    <defs>
        <path d="M10.7402344,7.10742185 L8.03984373,2.6070312 C7.81399223,2.23044654 7.40708706,2.00000534 6.96796872,1.99999995 L2.62617183,1.99999995 C2.12031245,1.99999995 1.8242187,2.56914058 2.11406245,2.9835937 L6.46054685,9.19296874 C7.62148435,8.10820311 9.09804686,7.36367185 10.7402344,7.10742185 Z M21.3738282,1.99999995 L17.0320313,1.99999995 C16.5929688,1.99999995 16.1859375,2.2304687 15.9601563,2.6070312 L13.2597656,7.10742185 C14.9019531,7.36367185 16.3785156,8.10820311 17.5394532,9.19257811 L21.8859375,2.9835937 C22.1757813,2.56914058 21.8796875,1.99999995 21.3738282,1.99999995 Z M12,8.24999998 C8.20312498,8.24999998 5.12499997,11.328125 5.12499997,15.125 C5.12499997,18.921875 8.20312498,22 12,22 C15.796875,22 18.875,18.921875 18.875,15.125 C18.875,11.328125 15.796875,8.24999998 12,8.24999998 Z M15.6140625,14.3929688 L14.1324219,15.8367188 L14.4828125,17.8765625 C14.5453125,18.2421875 14.1601563,18.5214844 13.8324219,18.3488282 L12,17.3859375 L10.1679687,18.3488282 C9.83984374,18.5226563 9.45507811,18.2417969 9.51757811,17.8765625 L9.86796874,15.8367188 L8.38632811,14.3929688 C8.11992186,14.1335938 8.26718748,13.6808594 8.63437498,13.6277344 L10.6824219,13.3292969 L11.5976562,11.4730469 C11.6800781,11.3058594 11.8394531,11.2234375 11.9992187,11.2234375 C12.1597656,11.2234375 12.3203125,11.3070312 12.4027344,11.4730469 L13.3179688,13.3292969 L15.3660156,13.6277344 C15.7332031,13.6808594 15.8804688,14.1335938 15.6140625,14.3929688 Z" id="path-1"></path>
    </defs>
    <g id="medal" stroke="none" stroke-width="1" fill="none" fill-rule="evenodd">
        <mask id="mask-2" fill="white">
            <use xlink:href="#path-1"></use>
        </mask>
        <g fill-rule="nonzero"></g>
        <g id="🎨-color" mask="url(#mask-2)" fill="#000000">
            <rect id="🎨-Color" x="0" y="0" width="24" height="24"></rect>
        </g>
    </g>
</svg>