<?xml version="1.0" encoding="UTF-8"?>
<svg width="24px" height="24px" viewBox="0 0 24 24" version="1.1" xmlns="http://www.w3.org/2000/svg" xmlns:xlink="http://www.w3.org/1999/xlink">
    <!-- Generator: Sketch 52.5 (67469) - http://www.bohemiancoding.com/sketch -->
    <title>medapps</title>
    <desc>Created with Sketch.</desc>
    <defs>
        <path d="M10.3710937,11.3125 C10.5078125,10.8242187 10.640625,9.99999999 10.8867187,9.99999999 C11.2109375,10.0703125 11.2617187,10.9140625 11.6132812,11.4296875 C11.7929687,10.5117187 11.8203125,8.10546873 12.1640625,8.04296873 C12.515625,8.01562498 12.9335938,10.640625 13.0234375,11.0703125 C13.4101563,11.2304687 14.9335938,11.328125 14.9335938,11.328125 C15.0078125,11.6132812 13.9960938,11.625 13.3710938,11.6328125 C13.1914063,12.2109375 13.1601563,12.7148438 12.9257813,12.7265625 C12.7421875,12.734375 12.6054688,11.6015625 12.2421875,10.7890625 L11.875,13.3476563 C11.703125,13.8554688 11.2695312,12.46875 11.0195312,11.8125 C10.890625,11.8085937 8.58203123,11.75 9.16015624,11.5078125 L10.3710937,11.3125 Z M14.65625,19.5 C15.484375,19.5 15.484375,18.25 14.65625,18.25 L9.34374999,18.25 C8.51562498,18.25 8.51562498,19.5 9.34374999,19.5 L14.65625,19.5 Z M13.71875,22.0000001 C14.546875,22.0000001 14.546875,20.75 13.71875,20.75 L10.28125,20.75 C9.45312499,20.75 9.45312499,22.0000001 10.28125,22.0000001 L13.71875,22.0000001 Z M15.0546875,16.4726563 C15.1796875,15.734375 15.2578125,15.0507813 15.5195313,14.5664063 C15.828125,13.9921875 16.1484375,13.46875 16.4570313,12.9648438 C17.4179688,11.3867187 18.25,10.0273437 18.25,8.06249998 C18.25,4.71874996 15.4453125,1.99999995 12,1.99999995 C8.55468748,1.99999995 5.74999997,4.71874996 5.74999997,8.06249998 C5.74999997,10.0234375 6.58203122,11.3867187 7.54296873,12.9648438 C7.85156248,13.46875 8.16796873,13.9921875 8.48046873,14.5664063 C8.74218748,15.0546875 8.82031248,15.7304688 8.94531248,16.4765625 C9.08203124,17.296875 10.3554687,17.0898438 10.21875,16.2773438 C10.078125,15.4296875 9.99999999,14.6875 9.62109374,13.9882813 C8.34765623,11.6289062 7.03906248,10.2539062 7.03906248,8.06249998 C7.03906248,5.41015622 9.26562499,3.24999996 12,3.24999996 C14.734375,3.24999996 16.9609375,5.41015622 16.9609375,8.06249998 C16.9609375,10.2539062 15.6523438,11.6289062 14.3789063,13.984375 C14,14.6875 13.921875,15.4453125 13.78125,16.2734375 C13.6484375,17.078125 14.9140625,17.3046875 15.0546875,16.4726563 Z" id="path-1"></path>
    </defs>
    <g id="medapps" stroke="none" stroke-width="1" fill="none" fill-rule="evenodd">
        <mask id="mask-2" fill="white">
            <use xlink:href="#path-1"></use>
        </mask>
        <g fill-rule="nonzero"></g>
        <g id="🎨-color" mask="url(#mask-2)" fill="#000000">
            <rect id="🎨-Color" x="0" y="0" width="24" height="24"></rect>
        </g>
    </g>
</svg>