<?xml version="1.0" encoding="UTF-8"?>
<svg width="24px" height="24px" viewBox="0 0 24 24" version="1.1" xmlns="http://www.w3.org/2000/svg" xmlns:xlink="http://www.w3.org/1999/xlink">
    <!-- Generator: Sketch 52.5 (67469) - http://www.bohemiancoding.com/sketch -->
    <title>medium</title>
    <desc>Created with Sketch.</desc>
    <defs>
        <path d="M3.24999996,3.24999996 L3.24999996,20.75 L20.75,20.75 L20.75,3.24999996 L3.24999996,3.24999996 Z M17.7890625,7.39453123 L16.8515625,8.29296873 C16.7695313,8.35546873 16.7304688,8.45703123 16.7460938,8.55468748 L16.7460938,15.1679688 C16.7304688,15.2695313 16.7695313,15.3710938 16.8515625,15.4296875 L17.7695313,16.328125 L17.7695313,16.5273438 L13.1601563,16.5273438 L13.1601563,16.3359375 L14.109375,15.4140625 C14.203125,15.3203125 14.203125,15.2929688 14.203125,15.1523438 L14.203125,9.80468749 L11.5625,16.5078125 L11.2070312,16.5078125 L8.13281248,9.80468749 L8.13281248,14.296875 C8.10546873,14.484375 8.17187498,14.6757813 8.30468748,14.8125 L9.53906249,16.3085938 L9.53906249,16.5078125 L6.03124997,16.5078125 L6.03124997,16.3085938 L7.26562498,14.8125 C7.39843748,14.6757813 7.45703123,14.484375 7.42578123,14.296875 L7.42578123,9.10156249 C7.44140623,8.95703123 7.38671873,8.81640623 7.27734373,8.71874998 L6.17968747,7.39453123 L6.17968747,7.19531248 L9.58984374,7.19531248 L12.2226563,12.9765625 L14.5390625,7.19921873 L17.7890625,7.19921873 L17.7890625,7.39453123 Z" id="path-1"></path>
    </defs>
    <g id="medium" stroke="none" stroke-width="1" fill="none" fill-rule="evenodd">
        <mask id="mask-2" fill="white">
            <use xlink:href="#path-1"></use>
        </mask>
        <g fill-rule="nonzero"></g>
        <g id="🎨-color" mask="url(#mask-2)" fill="#000000">
            <rect id="🎨-Color" x="0" y="0" width="24" height="24"></rect>
        </g>
    </g>
</svg>