<?xml version="1.0" encoding="UTF-8"?>
<svg width="24px" height="24px" viewBox="0 0 24 24" version="1.1" xmlns="http://www.w3.org/2000/svg" xmlns:xlink="http://www.w3.org/1999/xlink">
    <!-- Generator: Sketch 52.5 (67469) - http://www.bohemiancoding.com/sketch -->
    <title>medium-m</title>
    <desc>Created with Sketch.</desc>
    <defs>
        <path d="M4.79296871,7.55859373 C4.81640621,7.32812498 4.72656246,7.09765623 4.55468746,6.94140622 L2.7929687,4.81640621 L2.7929687,4.49999996 L8.26953123,4.49999996 L12.5039063,13.7851563 L16.2265625,4.49999996 L21.4492188,4.49999996 L21.4492188,4.81640621 L19.9414063,6.26171872 C19.8125,6.35937497 19.7460938,6.52343747 19.7734375,6.68359372 L19.7734375,17.3085938 C19.7460938,17.46875 19.8125,17.6328125 19.9414063,17.7304688 L21.4140625,19.1757813 L21.4140625,19.4921875 L14.0039063,19.4921875 L14.0039063,19.1757813 L15.53125,17.6953125 C15.6796875,17.546875 15.6796875,17.5 15.6796875,17.2734375 L15.6796875,8.68749998 L11.4335937,19.4648438 L10.859375,19.4648438 L5.92187497,8.68749998 L5.92187497,15.9101563 C5.87890622,16.2148438 5.98046872,16.5195313 6.19531247,16.7382813 L8.17968748,19.1445313 L8.17968748,19.4609375 L2.55468745,19.4609375 L2.55468745,19.1484375 L4.53906246,16.7382813 C4.74999996,16.5195313 4.84765621,16.2109375 4.79296871,15.9101563 L4.79296871,7.55859373 Z" id="path-1"></path>
    </defs>
    <g id="medium-m" stroke="none" stroke-width="1" fill="none" fill-rule="evenodd">
        <mask id="mask-2" fill="white">
            <use xlink:href="#path-1"></use>
        </mask>
        <g></g>
        <g id="🎨-color" mask="url(#mask-2)" fill="#000000">
            <rect id="🎨-Color" x="0" y="0" width="24" height="24"></rect>
        </g>
    </g>
</svg>