<?xml version="1.0" encoding="UTF-8"?>
<svg width="24px" height="24px" viewBox="0 0 24 24" version="1.1" xmlns="http://www.w3.org/2000/svg" xmlns:xlink="http://www.w3.org/1999/xlink">
    <!-- Generator: Sketch 52.5 (67469) - http://www.bohemiancoding.com/sketch -->
    <title>medkit</title>
    <desc>Created with Sketch.</desc>
    <defs>
        <path d="M5.74999997,20.75 L18.25,20.75 L18.25,6.99999997 L17,6.99999997 L17,5.12499997 C17,4.08945309 16.1605469,3.24999996 15.125,3.24999996 L8.87499998,3.24999996 C7.8394531,3.24999996 6.99999997,4.08945309 6.99999997,5.12499997 L6.99999997,6.99999997 L5.74999997,6.99999997 L5.74999997,20.75 Z M9.49999999,5.74999997 L14.5,5.74999997 L14.5,6.99999997 L9.49999999,6.99999997 L9.49999999,5.74999997 Z M22,8.87499998 L22,18.875 C22,19.9105469 21.1605469,20.75 20.125,20.75 L19.5,20.75 L19.5,6.99999997 L20.125,6.99999997 C21.1605469,6.99999997 22,7.8394531 22,8.87499998 Z M4.49999996,20.75 L3.87499996,20.75 C2.83945308,20.75 1.99999995,19.9105469 1.99999995,18.875 L1.99999995,8.87499998 C1.99999995,7.8394531 2.83945308,6.99999997 3.87499996,6.99999997 L4.49999996,6.99999997 L4.49999996,20.75 Z M15.75,12.625 L15.75,13.875 C15.75,14.2201953 15.4701953,14.5 15.125,14.5 L13.25,14.5 L13.25,16.375 C13.25,16.7201953 12.9701953,17 12.625,17 L11.375,17 C11.0298047,17 10.75,16.7201953 10.75,16.375 L10.75,14.5 L8.87499998,14.5 C8.52980467,14.5 8.24999998,14.2201953 8.24999998,13.875 L8.24999998,12.625 C8.24999998,12.2798047 8.52980467,12 8.87499998,12 L10.75,12 L10.75,10.125 C10.75,9.77980468 11.0298047,9.49999999 11.375,9.49999999 L12.625,9.49999999 C12.9701953,9.49999999 13.25,9.77980468 13.25,10.125 L13.25,12 L15.125,12 C15.4701953,12 15.75,12.2798047 15.75,12.625 Z" id="path-1"></path>
    </defs>
    <g id="medkit" stroke="none" stroke-width="1" fill="none" fill-rule="evenodd">
        <mask id="mask-2" fill="white">
            <use xlink:href="#path-1"></use>
        </mask>
        <g fill-rule="nonzero"></g>
        <g id="🎨-color" mask="url(#mask-2)" fill="#000000">
            <rect id="🎨-Color" x="0" y="0" width="24" height="24"></rect>
        </g>
    </g>
</svg>