<?xml version="1.0" encoding="UTF-8"?>
<svg width="24px" height="24px" viewBox="0 0 24 24" version="1.1" xmlns="http://www.w3.org/2000/svg" xmlns:xlink="http://www.w3.org/1999/xlink">
    <!-- Generator: Sketch 52.5 (67469) - http://www.bohemiancoding.com/sketch -->
    <title>medrt</title>
    <desc>Created with Sketch.</desc>
    <defs>
        <path d="M6.17247704,12 C6.17247704,16.4697248 9.25137613,20.1761468 13.2733945,20.8477065 C12.587156,21.0128441 11.8715596,21.1009175 11.1376147,21.1009175 C6.08807336,21.1009175 1.99999995,17.027523 1.99999995,12 C1.99999995,6.97247704 6.08807336,2.89908252 11.1339449,2.89908252 C11.8715596,2.89908252 12.587156,2.98715592 13.2697248,3.15229353 C9.24770641,3.82385317 6.17247704,7.53027521 6.17247704,12 Z M17.0862386,15.680734 C14.2348624,17.7137615 10.4954128,17.4238532 8.26422016,15.1449541 C8.46605503,15.6623853 8.73027521,16.1614679 9.06055044,16.6311927 C11.3211009,19.8678899 15.7541285,20.6422019 18.9577982,18.3559633 C22.1614679,16.0697248 22.9247707,11.5926605 20.6642202,8.35229356 C20.333945,7.87889906 19.9559633,7.46055044 19.5449542,7.09724768 C20.9174312,9.98899082 19.9376147,13.6477064 17.0862386,15.680734 Z M9.05688072,6.72660548 C9.00550457,6.76330273 8.95779815,6.8036697 8.91009173,6.84036695 C11.2697248,6.18715593 13.8972477,6.98715594 15.4752294,9.06055044 C16.7853211,10.7853211 17.0495413,12.9724771 16.3706422,14.8587156 C18.4513762,12.7963303 18.8513762,9.64403669 17.1889909,7.45321099 C15.3541285,5.04954125 11.7174312,4.72293574 9.05688072,6.72660548 Z M12.8623853,10.8256881 C12.7009174,10.8256881 12.5688073,10.693578 12.5688073,10.5321101 L12.5688073,9.06422017 C12.5688073,8.90275228 12.4366972,8.77064219 12.2752294,8.77064219 L10.5137615,8.77064219 C10.3522936,8.77064219 10.2201835,8.90275228 10.2201835,9.06422017 L10.2201835,10.5321101 C10.2201835,10.693578 10.0880734,10.8256881 9.92660549,10.8256881 L8.45871558,10.8256881 C8.29724769,10.8256881 8.1651376,10.9577982 8.1651376,11.1192661 L8.1651376,12.8807339 C8.1651376,13.0422018 8.29724769,13.1743119 8.45871558,13.1743119 L9.92660549,13.1743119 C10.0880734,13.1743119 10.2201835,13.306422 10.2201835,13.4678899 L10.2201835,14.9357798 C10.2201835,15.0972477 10.3522936,15.2293578 10.5137615,15.2293578 L12.2752294,15.2293578 C12.4366972,15.2293578 12.5688073,15.0972477 12.5688073,14.9357798 L12.5688073,13.4678899 C12.5688073,13.306422 12.7009174,13.1743119 12.8623853,13.1743119 L14.3302752,13.1743119 C14.4917431,13.1743119 14.6238532,13.0422018 14.6238532,12.8807339 L14.6238532,11.1192661 C14.6238532,10.9577982 14.4917431,10.8256881 14.3302752,10.8256881 L12.8623853,10.8256881 Z" id="path-1"></path>
    </defs>
    <g id="medrt" stroke="none" stroke-width="1" fill="none" fill-rule="evenodd">
        <mask id="mask-2" fill="white">
            <use xlink:href="#path-1"></use>
        </mask>
        <g fill-rule="nonzero"></g>
        <g id="🎨-color" mask="url(#mask-2)" fill="#000000">
            <rect id="🎨-Color" x="0" y="0" width="24" height="24"></rect>
        </g>
    </g>
</svg>