<?xml version="1.0" encoding="UTF-8"?>
<svg width="24px" height="24px" viewBox="0 0 24 24" version="1.1" xmlns="http://www.w3.org/2000/svg" xmlns:xlink="http://www.w3.org/1999/xlink">
    <!-- Generator: Sketch 52.5 (67469) - http://www.bohemiancoding.com/sketch -->
    <title>meetup</title>
    <desc>Created with Sketch.</desc>
    <defs>
        <path d="M5.78071831,18.0037807 C5.82230621,18.2192817 5.69376178,18.4234405 5.47826084,18.4688091 C5.27410205,18.510397 5.06616254,18.3818526 5.02457463,18.1663516 C4.98298673,17.9621928 5.11153116,17.7466919 5.31568995,17.7013233 C5.51984874,17.6559547 5.73534969,17.7882798 5.78071831,18.0037807 Z M11.1909263,20.7032137 C10.952741,20.8771267 10.8884688,21.2098299 11.0510397,21.4593573 C11.2249527,21.7088847 11.557656,21.7731569 11.8071834,21.5992439 C12.0453686,21.4253309 12.1096408,21.0926276 11.9357278,20.8431002 C11.7769376,20.5973535 11.4404537,20.5293006 11.1909263,20.7032137 Z M7.93950849,3.2249527 C8.17769374,3.17202264 8.32892248,2.93383738 8.27599242,2.69565213 C8.23440452,2.44612472 7.99621926,2.29489598 7.75803401,2.35160676 C7.51984875,2.40453681 7.36862001,2.64272207 7.41398863,2.88090733 C7.46691869,3.13043474 7.70132323,3.28166347 7.93950849,3.2249527 Z M3.33837425,10.8960302 C2.96030241,10.6351607 2.442344,10.7334594 2.18147443,11.1228733 C1.92060486,11.5009452 2.01890354,12.0302457 2.39697538,12.2911153 C2.77504721,12.5595463 3.29300563,12.4650284 3.55387519,12.0756144 C3.81474476,11.6824197 3.71644608,11.1644612 3.33837425,10.8960302 Z M13.6219282,4.43478257 C14.0226843,4.19659731 14.1398866,3.6786389 13.9130435,3.28922491 C13.6748582,2.88846876 13.168242,2.75992434 12.778828,2.9981096 C12.389414,3.23629485 12.2608696,3.75425327 12.4990548,4.15500941 C12.7258979,4.5444234 13.2325142,4.67296783 13.6219282,4.43478257 Z M6.3969754,6.62759922 C6.68809071,6.42344043 6.75236292,6.02268428 6.55954629,5.73156897 C6.36672965,5.44045365 5.9659735,5.37618144 5.68620035,5.56899808 C5.39508503,5.77315687 5.33081282,6.17391301 5.52362946,6.46502833 C5.71644609,6.75992436 6.11342152,6.82419657 6.3969754,6.62759922 Z M20.4725898,12.5255199 C20.1928167,12.5897921 20.0075615,12.8695652 20.0718337,13.1644613 C20.1247637,13.4442344 20.4083176,13.6294896 20.6880908,13.5652174 C20.9678639,13.5122873 21.1531191,13.2287335 21.0888469,12.9376182 C21.0321362,12.657845 20.752363,12.4725898 20.4725898,12.5255199 Z M21.973535,10.3780718 C21.9319471,10.1625709 21.7240076,10.0340265 21.5198488,10.0756144 C21.3043479,10.1172023 21.1758034,10.3364839 21.2173914,10.5519849 C21.2589793,10.7561437 21.4669188,10.8960302 21.6824197,10.8544423 C21.8865785,10.7977316 22.0264651,10.5935728 21.973535,10.3780718 Z M18.9376182,7.5916824 C18.6124764,7.8185255 18.536862,8.26086955 18.752363,8.58601133 C18.9678639,8.9111531 19.410208,8.98676747 19.7353498,8.77126652 C20.0491494,8.54442342 20.1247637,8.10207938 19.9092628,7.7769376 C19.6937619,7.4480151 19.2514178,7.3648393 18.9376182,7.5916824 Z M18.6994329,12.8620038 C19.6937619,14.4914934 19.2703214,16.6427221 17.705104,17.7429112 C17.047259,18.2079395 16.3024575,18.4120983 15.5538753,18.389414 C15.1001891,20.1701324 12.9300567,20.8317581 11.5803403,19.6219282 C11.5387524,19.6559547 11.4820416,19.6862004 11.4404537,19.731569 C9.96219281,20.7561437 7.95085064,20.389414 6.92627597,18.8884688 C6.55954629,18.3478261 6.37429109,17.731569 6.3553875,17.1153119 C3.88279769,16.7032136 2.95274098,13.5614367 4.80151225,11.8336484 C3.73156896,10.0604915 4.82419656,7.77315688 6.82041585,7.489603 C7.76937616,4.98676745 10.8884688,3.79962189 13.0056711,5.44045365 C15.5538753,4.59735346 18.1587902,6.55198485 17.9546314,9.26275991 C19.5085067,9.73913042 19.9508507,11.7920605 18.6994329,12.8620038 Z M16.0529301,15.6710775 C15.9357278,14.8922495 14.5066163,15.4971645 14.4234405,14.6465028 C14.3062382,13.436673 16.0756144,10.8241966 15.9357278,9.80718335 C15.8071834,8.89981095 15.2022684,8.70699431 14.6729679,8.69565216 C14.1663516,8.68431 14.0340265,8.77126652 13.8638941,8.8695652 C13.7542533,8.93383741 13.6143667,9.0548204 13.4215501,8.85822305 C13.1833648,8.63137995 13.0018904,8.415879 12.6880907,8.37051038 C12.2230624,8.29489601 12.0189036,8.44612475 11.6824197,8.73724006 C11.5538752,8.84688089 11.2287335,9.22495273 10.926276,9.08128543 C10.7977316,9.01701322 10.3440454,8.79017012 10.0189036,8.65028354 C9.40264649,8.38185253 8.50661624,8.82419658 8.18147446,9.40642721 C7.69376179,10.2722117 6.74480149,13.6824197 6.60491491,14.1361059 C6.27977313,15.141777 7.01701321,15.973535 7.99999998,15.9168242 C8.41965972,15.8941399 8.69187144,15.7429112 8.96030244,15.2589792 C9.11153118,14.9792061 10.536862,11.1871456 10.6465028,11.0018904 C10.7221172,10.8733459 10.9829868,10.6994329 11.1984877,10.8090737 C11.4139887,10.926276 11.4593573,11.1644612 11.4253308,11.3799622 C11.3837429,11.7466919 10.3667297,14.0604915 10.3327032,14.3175804 C10.2041588,15.1833649 11.3497164,15.3232514 11.7920605,14.4688091 C11.9319471,14.2003781 13.5198488,10.9678639 13.6597354,10.7523629 C13.8223062,10.5141777 13.9395085,10.4385633 14.1020794,10.4499055 C14.2192817,10.4499055 14.415879,10.4839319 14.3705104,10.8620038 C14.3175804,11.2173913 13.0434783,13.5954631 12.899811,14.1776938 C12.7258979,14.9565218 13.1493384,15.7429112 13.8412098,16.0907373 C14.2722117,16.3062382 16.2041588,16.68431 16.0529301,15.6710775 Z M16.268431,19.1606806 C15.879017,19.4404537 15.7807184,19.9924386 16.0529301,20.3931947 C16.3213611,20.7939509 16.8620038,20.8884689 17.26276,20.6200379 C17.6635161,20.3402647 17.7580341,19.7882798 17.4896031,19.3875237 C17.2098299,18.9867675 16.6691872,18.8771267 16.268431,19.1606806 Z" id="path-1"></path>
    </defs>
    <g id="meetup" stroke="none" stroke-width="1" fill="none" fill-rule="evenodd">
        <mask id="mask-2" fill="white">
            <use xlink:href="#path-1"></use>
        </mask>
        <g fill-rule="nonzero"></g>
        <g id="🎨-color" mask="url(#mask-2)" fill="#000000">
            <rect id="🎨-Color" x="0" y="0" width="24" height="24"></rect>
        </g>
    </g>
</svg>