<?xml version="1.0" encoding="UTF-8"?>
<svg width="24px" height="24px" viewBox="0 0 24 24" version="1.1" xmlns="http://www.w3.org/2000/svg" xmlns:xlink="http://www.w3.org/1999/xlink">
    <!-- Generator: Sketch 52.5 (67469) - http://www.bohemiancoding.com/sketch -->
    <title>megaport</title>
    <desc>Created with Sketch.</desc>
    <defs>
        <path d="M12,2.31249995 C6.64999997,2.31249995 2.31249995,6.64999997 2.31249995,12 C2.31249995,17.3503907 6.64999997,21.6875 12,21.6875 C17.35,21.6875 21.6875,17.3503907 21.6875,12 C21.6875,6.64999997 17.35,2.31249995 12,2.31249995 Z M15.3382813,12.7683594 L17.66875,15.0992188 L17.66875,18.4996094 L16.6503906,19.2507813 L15.6328125,18.4996094 L15.6328125,15.9425781 L14.3265625,14.6363281 L13.0203125,15.9425781 L13.0203125,18.4996094 L12,19.2507813 L10.9796875,18.4996094 L10.9796875,15.9425781 L9.67343749,14.6363281 L8.36718748,15.9421875 L8.36718748,18.4992188 L7.3488281,19.2503907 L6.33085935,18.4992188 L6.33085935,15.0988281 L8.65390623,12.7757813 L8.65390623,9.34374999 L10.978125,7.01953123 L10.978125,4.06562496 L11.9960937,3.31445308 L13.0140625,4.06562496 L13.0140625,7.02031248 L15.3382813,9.34453124 L15.3382813,12.7683594 Z M11.9960937,8.88124998 L13.3023438,10.1875 L13.3023438,12.78125 L12,14.0832031 L10.6898437,12.7730469 L10.6898437,10.1871094 L11.9960937,8.88124998 Z" id="path-1"></path>
    </defs>
    <g id="megaport" stroke="none" stroke-width="1" fill="none" fill-rule="evenodd">
        <mask id="mask-2" fill="white">
            <use xlink:href="#path-1"></use>
        </mask>
        <g fill-rule="nonzero"></g>
        <g id="🎨-color" mask="url(#mask-2)" fill="#000000">
            <rect id="🎨-Color" x="0" y="0" width="24" height="24"></rect>
        </g>
    </g>
</svg>