<?xml version="1.0" encoding="UTF-8"?>
<svg width="24px" height="24px" viewBox="0 0 24 24" version="1.1" xmlns="http://www.w3.org/2000/svg" xmlns:xlink="http://www.w3.org/1999/xlink">
    <!-- Generator: Sketch 52.5 (67469) - http://www.bohemiancoding.com/sketch -->
    <title>meh-rolling-eyes</title>
    <desc>Created with Sketch.</desc>
    <defs>
        <path d="M12,2.31249995 C6.64843747,2.31249995 2.31249995,6.64843747 2.31249995,12 C2.31249995,17.3515625 6.64843747,21.6875 12,21.6875 C17.3515625,21.6875 21.6875,17.3515625 21.6875,12 C21.6875,6.64843747 17.3515625,2.31249995 12,2.31249995 Z M12,19.8125 C7.69140623,19.8125 4.18749996,16.3085938 4.18749996,12 C4.18749996,7.69140623 7.69140623,4.18749996 12,4.18749996 C16.3085938,4.18749996 19.8125,7.69140623 19.8125,12 C19.8125,16.3085938 16.3085938,19.8125 12,19.8125 Z M15.4375,7.93749998 C13.8828125,7.93749998 12.625,9.19531249 12.625,10.75 C12.625,12.3046875 13.8828125,13.5625 15.4375,13.5625 C16.9921875,13.5625 18.25,12.3046875 18.25,10.75 C18.25,9.19531249 16.9921875,7.93749998 15.4375,7.93749998 Z M15.4375,12.3125 C14.5742188,12.3125 13.875,11.6132812 13.875,10.75 C13.875,10.21875 14.1601563,9.76953124 14.5664063,9.48828124 C14.5273438,9.58984374 14.5,9.69531249 14.5,9.81249999 C14.5,10.3320312 14.9179688,10.75 15.4375,10.75 C15.9570313,10.75 16.375,10.3320312 16.375,9.81249999 C16.375,9.69921874 16.3476563,9.58984374 16.3085938,9.48828124 C16.7148438,9.76953124 17,10.21875 17,10.75 C17,11.6132812 16.3007813,12.3125 15.4375,12.3125 Z M11.375,10.75 C11.375,9.19531249 10.1171875,7.93749998 8.56249998,7.93749998 C7.00781248,7.93749998 5.74999997,9.19531249 5.74999997,10.75 C5.74999997,12.3046875 7.00781248,13.5625 8.56249998,13.5625 C10.1171875,13.5625 11.375,12.3046875 11.375,10.75 Z M6.99999997,10.75 C6.99999997,10.21875 7.28515623,9.76953124 7.69140623,9.48828124 C7.65234373,9.58984374 7.62499998,9.69531249 7.62499998,9.81249999 C7.62499998,10.3320312 8.04296873,10.75 8.56249998,10.75 C9.08203124,10.75 9.49999999,10.3320312 9.49999999,9.81249999 C9.49999999,9.69921874 9.47265624,9.58984374 9.43359374,9.48828124 C9.83984374,9.76953124 10.125,10.21875 10.125,10.75 C10.125,11.6132812 9.42578124,12.3125 8.56249998,12.3125 C7.69921873,12.3125 6.99999997,11.6132812 6.99999997,10.75 Z M14.5,15.75 L9.49999999,15.75 C8.98437498,15.75 8.56249998,16.171875 8.56249998,16.6875 C8.56249998,17.203125 8.98437498,17.625 9.49999999,17.625 L14.5,17.625 C15.015625,17.625 15.4375,17.203125 15.4375,16.6875 C15.4375,16.171875 15.015625,15.75 14.5,15.75 Z" id="path-1"></path>
    </defs>
    <g id="meh-rolling-eyes" stroke="none" stroke-width="1" fill="none" fill-rule="evenodd">
        <mask id="mask-2" fill="white">
            <use xlink:href="#path-1"></use>
        </mask>
        <g fill-rule="nonzero"></g>
        <g id="🎨-color" mask="url(#mask-2)" fill="#000000">
            <rect id="🎨-Color" x="0" y="0" width="24" height="24"></rect>
        </g>
    </g>
</svg>