<?xml version="1.0" encoding="UTF-8"?>
<svg width="24px" height="24px" viewBox="0 0 24 24" version="1.1" xmlns="http://www.w3.org/2000/svg" xmlns:xlink="http://www.w3.org/1999/xlink">
    <!-- Generator: Sketch 52.5 (67469) - http://www.bohemiancoding.com/sketch -->
    <title>memory</title>
    <desc>Created with Sketch.</desc>
    <defs>
        <path d="M22.0000001,8.09187498 L22.0000001,6.99999998 C22.0000001,6.44781247 21.5521875,5.99999997 21,5.99999997 L2.99999995,5.99999997 C2.44781245,5.99999997 1.99999995,6.44781247 1.99999995,6.99999998 L1.99999995,8.09187498 C2.58124995,8.29843748 2.99999995,8.84781248 2.99999995,9.49999999 C2.99999995,10.1521875 2.58124995,10.7015625 1.99999995,10.908125 L1.99999995,14 L22.0000001,14 L22.0000001,10.908125 C21.41875,10.7015625 21,10.1521875 21,9.49999999 C21,8.84781248 21.41875,8.29843748 22.0000001,8.09187498 Z M8.99999998,12 L6.99999997,12 L6.99999997,7.99999998 L8.99999998,7.99999998 L8.99999998,12 Z M13,12 L11,12 L11,7.99999998 L13,7.99999998 L13,12 Z M17,12 L15,12 L15,7.99999998 L17,7.99999998 L17,12 Z M1.99999995,18 L3.99999996,18 L3.99999996,17.1665625 C3.99999996,16.8903125 4.22374996,16.6665625 4.49999996,16.6665625 C4.77624996,16.6665625 4.99999996,16.8903125 4.99999996,17.1665625 L4.99999996,18 L8.99999998,18 L8.99999998,17.1665625 C8.99999998,16.8903125 9.22374999,16.6665625 9.49999999,16.6665625 C9.77624999,16.6665625 9.99999999,16.8903125 9.99999999,17.1665625 L9.99999999,18 L14,18 L14,17.1665625 C14,16.8903125 14.22375,16.6665625 14.5,16.6665625 C14.77625,16.6665625 15,16.8903125 15,17.1665625 L15,18 L19,18 L19,17.1665625 C19,16.8903125 19.22375,16.6665625 19.5,16.6665625 C19.77625,16.6665625 20,16.8903125 20,17.1665625 L20,18 L22.0000001,18 L22.0000001,15 L1.99999995,15 L1.99999995,18 Z" id="path-1"></path>
    </defs>
    <g id="memory" stroke="none" stroke-width="1" fill="none" fill-rule="evenodd">
        <mask id="mask-2" fill="white">
            <use xlink:href="#path-1"></use>
        </mask>
        <g fill-rule="nonzero"></g>
        <g id="🎨-color" mask="url(#mask-2)" fill="#000000">
            <rect id="🎨-Color" x="0" y="0" width="24" height="24"></rect>
        </g>
    </g>
</svg>