<?xml version="1.0" encoding="UTF-8"?>
<svg width="24px" height="24px" viewBox="0 0 24 24" version="1.1" xmlns="http://www.w3.org/2000/svg" xmlns:xlink="http://www.w3.org/1999/xlink">
    <!-- Generator: Sketch 52.5 (67469) - http://www.bohemiancoding.com/sketch -->
    <title>menorah</title>
    <desc>Created with Sketch.</desc>
    <defs>
        <path d="M6.49999997,7.99999998 L5.49999997,7.99999998 C5.22374997,7.99999998 4.99999996,8.22374998 4.99999996,8.49999998 L4.99999996,13 L6.99999997,13 L6.99999997,8.49999998 C6.99999997,8.22374998 6.77624997,7.99999998 6.49999997,7.99999998 Z M9.49999999,7.99999998 L8.49999998,7.99999998 C8.22374998,7.99999998 7.99999998,8.22374998 7.99999998,8.49999998 L7.99999998,13 L9.99999999,13 L9.99999999,8.49999998 C9.99999999,8.22374998 9.77624999,7.99999998 9.49999999,7.99999998 Z M15.5,7.99999998 L14.5,7.99999998 C14.22375,7.99999998 14,8.22374998 14,8.49999998 L14,13 L16,13 L16,8.49999998 C16,8.22374998 15.77625,7.99999998 15.5,7.99999998 Z M18.5,7.99999998 L17.5,7.99999998 C17.22375,7.99999998 17,8.22374998 17,8.49999998 L17,13 L19,13 L19,8.49999998 C19,8.22374998 18.77625,7.99999998 18.5,7.99999998 Z M21,6.99999997 C21.5521875,6.99999997 22.0000001,6.55218747 22.0000001,5.99999997 C22.0000001,5.44781247 21,3.99999996 21,3.99999996 C21,3.99999996 20,5.44781247 20,5.99999997 C20,6.55218747 20.4478125,6.99999997 21,6.99999997 Z M18,6.99999997 C18.5521875,6.99999997 19,6.55218747 19,5.99999997 C19,5.44781247 18,3.99999996 18,3.99999996 C18,3.99999996 17,5.44781247 17,5.99999997 C17,6.55218747 17.4478125,6.99999997 18,6.99999997 Z M15,6.99999997 C15.5521875,6.99999997 16,6.55218747 16,5.99999997 C16,5.44781247 15,3.99999996 15,3.99999996 C15,3.99999996 14,5.44781247 14,5.99999997 C14,6.55218747 14.4478125,6.99999997 15,6.99999997 Z M12,6.99999997 C12.5521875,6.99999997 13,6.55218747 13,5.99999997 C13,5.44781247 12,3.99999996 12,3.99999996 C12,3.99999996 11,5.44781247 11,5.99999997 C11,6.55218747 11.4478125,6.99999997 12,6.99999997 Z M8.99999998,6.99999997 C9.55218749,6.99999997 9.99999999,6.55218747 9.99999999,5.99999997 C9.99999999,5.44781247 8.99999998,3.99999996 8.99999998,3.99999996 C8.99999998,3.99999996 7.99999998,5.44781247 7.99999998,5.99999997 C7.99999998,6.55218747 8.44781248,6.99999997 8.99999998,6.99999997 Z M5.99999997,6.99999997 C6.55218747,6.99999997 6.99999997,6.55218747 6.99999997,5.99999997 C6.99999997,5.44781247 5.99999997,3.99999996 5.99999997,3.99999996 C5.99999997,3.99999996 4.99999996,5.44781247 4.99999996,5.99999997 C4.99999996,6.55218747 5.44781247,6.99999997 5.99999997,6.99999997 Z M2.99999995,6.99999997 C3.55218746,6.99999997 3.99999996,6.55218747 3.99999996,5.99999997 C3.99999996,5.44781247 2.99999995,3.99999996 2.99999995,3.99999996 C2.99999995,3.99999996 1.99999995,5.44781247 1.99999995,5.99999997 C1.99999995,6.55218747 2.44781245,6.99999997 2.99999995,6.99999997 Z M20,13 C20,13.5521875 19.5521875,14 19,14 L13,14 L13,8.49999998 C13,8.22374998 12.77625,7.99999998 12.5,7.99999998 L11.5,7.99999998 C11.22375,7.99999998 11,8.22374998 11,8.49999998 L11,14 L4.99999996,14 C4.44781246,14 3.99999996,13.5521875 3.99999996,13 L3.99999996,8.49999998 C3.99999996,8.22374998 3.77624996,7.99999998 3.49999996,7.99999998 L2.49999995,7.99999998 C2.22374995,7.99999998 1.99999995,8.22374998 1.99999995,8.49999998 L1.99999995,13 C1.99999995,14.656875 3.34312496,16 4.99999996,16 L11,16 L11,18 L5.49999997,18 C5.22374997,18 4.99999996,18.22375 4.99999996,18.5 L4.99999996,19.5 C4.99999996,19.77625 5.22374997,20 5.49999997,20 L18.5,20 C18.77625,20 19,19.77625 19,19.5 L19,18.5 C19,18.22375 18.77625,18 18.5,18 L13,18 L13,16 L19,16 C20.656875,16 22.0000001,14.656875 22.0000001,13 L22.0000001,8.49999998 C22.0000001,8.22374998 21.77625,7.99999998 21.5,7.99999998 L20.5,7.99999998 C20.22375,7.99999998 20,8.22374998 20,8.49999998 L20,13 Z" id="path-1"></path>
    </defs>
    <g id="menorah" stroke="none" stroke-width="1" fill="none" fill-rule="evenodd">
        <mask id="mask-2" fill="white">
            <use xlink:href="#path-1"></use>
        </mask>
        <g fill-rule="nonzero"></g>
        <g id="🎨-color" mask="url(#mask-2)" fill="#000000">
            <rect id="🎨-Color" x="0" y="0" width="24" height="24"></rect>
        </g>
    </g>
</svg>