<?xml version="1.0" encoding="UTF-8"?>
<svg width="24px" height="24px" viewBox="0 0 24 24" version="1.1" xmlns="http://www.w3.org/2000/svg" xmlns:xlink="http://www.w3.org/1999/xlink">
    <!-- Generator: Sketch 52.5 (67469) - http://www.bohemiancoding.com/sketch -->
    <title>mercury</title>
    <desc>Created with Sketch.</desc>
    <defs>
        <path d="M17.625,10.125 C17.625,8.39843748 16.8476563,6.85546872 15.625,5.82421872 C15.7226563,5.75390622 15.8164063,5.67578122 15.90625,5.59765622 C16.8710938,4.76953121 17.4609375,3.69140621 17.59375,2.5195312 C17.6289063,2.24218745 17.4101563,1.99999995 17.1289063,1.99999995 L15.546875,1.99999995 C15.3203125,1.99999995 15.1289063,2.1601562 15.0859375,2.38281245 C14.9921875,2.8710937 14.7109375,3.33203121 14.2773438,3.70312496 C13.6796875,4.21874996 12.8710938,4.49999996 12,4.49999996 C11.1289062,4.49999996 10.3203125,4.21874996 9.71874999,3.70312496 C9.28515624,3.33203121 9.00781249,2.8710937 8.91015623,2.38281245 C8.86718748,2.1601562 8.67578123,1.99999995 8.45312498,1.99999995 L6.87109372,1.99999995 C6.58984372,1.99999995 6.37109372,2.24218745 6.40624997,2.5195312 C6.53906247,3.69531246 7.12499998,4.77343746 8.09374998,5.60156247 C8.18359373,5.67968747 8.27734373,5.75390622 8.37499998,5.82812497 C7.15234373,6.85546872 6.37499997,8.39843748 6.37499997,10.125 C6.37499997,12.8007813 8.24609373,15.0429688 10.75,15.609375 L10.75,17.625 L9.34374999,17.625 C9.08593749,17.625 8.87499998,17.8359375 8.87499998,18.09375 L8.87499998,19.65625 C8.87499998,19.9140625 9.08593749,20.125 9.34374999,20.125 L10.75,20.125 L10.75,21.53125 C10.75,21.7890625 10.9609375,22.0000001 11.21875,22.0000001 L12.78125,22.0000001 C13.0390625,22.0000001 13.25,21.7890625 13.25,21.53125 L13.25,20.125 L14.65625,20.125 C14.9140625,20.125 15.125,19.9140625 15.125,19.65625 L15.125,18.09375 C15.125,17.8359375 14.9140625,17.625 14.65625,17.625 L13.25,17.625 L13.25,15.609375 C15.7539063,15.0429688 17.625,12.8007813 17.625,10.125 Z M8.87499998,10.125 C8.87499998,8.40234373 10.2773437,6.99999997 12,6.99999997 C13.7226563,6.99999997 15.125,8.40234373 15.125,10.125 C15.125,11.8476562 13.7226563,13.25 12,13.25 C10.2773437,13.25 8.87499998,11.8476562 8.87499998,10.125 Z" id="path-1"></path>
    </defs>
    <g id="mercury" stroke="none" stroke-width="1" fill="none" fill-rule="evenodd">
        <mask id="mask-2" fill="white">
            <use xlink:href="#path-1"></use>
        </mask>
        <g fill-rule="nonzero"></g>
        <g id="🎨-color" mask="url(#mask-2)" fill="#000000">
            <rect id="🎨-Color" x="0" y="0" width="24" height="24"></rect>
        </g>
    </g>
</svg>