<?xml version="1.0" encoding="UTF-8"?>
<svg width="24px" height="24px" viewBox="0 0 24 24" version="1.1" xmlns="http://www.w3.org/2000/svg" xmlns:xlink="http://www.w3.org/1999/xlink">
    <!-- Generator: Sketch 52.5 (67469) - http://www.bohemiancoding.com/sketch -->
    <title>meteor</title>
    <desc>Created with Sketch.</desc>
    <defs>
        <path d="M21.1322958,2.06614781 C19.6264592,2.51750968 16.7821012,3.40077817 13.8287938,4.45136183 C13.7470817,4.17898829 13.6731518,3.92607 13.6108949,3.72762642 C13.4941634,3.35019451 13.0700389,3.17509723 12.7198444,3.35797661 C11.0700389,4.21789879 6.77431904,6.57198441 4.37743187,8.90272372 C4.33463031,8.94163423 4.2801556,8.98054473 4.2412451,9.01945524 C2.75875482,10.4980545 2.0194552,12.4396887 2.0194552,14.381323 C2.0194552,16.3190662 2.75875482,18.2607004 4.23735405,19.7431907 C5.71595328,21.2217899 7.65758753,21.9649806 9.59922178,21.9610895 C11.540856,21.9610895 13.4824903,21.2217899 14.9649806,19.7392996 C15.0038911,19.7003891 15.0428016,19.6459144 15.0817121,19.6031129 C17.4085603,17.2062257 19.766537,12.9066148 20.6264592,11.2607004 C20.8093386,10.9105058 20.6342413,10.4863813 20.2568094,10.3696498 C20.0544747,10.307393 19.8054475,10.233463 19.533074,10.151751 C20.5836576,7.19455251 21.4669261,4.35408556 21.918288,2.84824898 C22.0583658,2.36575871 21.614786,1.92217894 21.1322958,2.06614781 Z M9.49027236,19.4708172 C6.73929958,19.4708172 4.50972759,17.2412452 4.50972759,14.4902724 C4.50972759,11.7392996 6.73929958,9.50972761 9.49027236,9.50972761 C12.2412451,9.50972761 14.4708171,11.7392996 14.4708171,14.4902724 C14.4708171,17.2412452 12.2412451,19.4708172 9.49027236,19.4708172 Z M8.24513617,12 C7.55642021,12 6.99999997,12.5564202 6.99999997,13.2451362 C6.99999997,13.9338521 7.55642021,14.4902724 8.24513617,14.4902724 C8.93385212,14.4902724 9.49027236,13.9338521 9.49027236,13.2451362 C9.49027236,12.5564202 8.93385212,12 8.24513617,12 Z M10.1128405,15.7354086 C9.770428,15.7354086 9.49027236,16.0155642 9.49027236,16.3579767 C9.49027236,16.7003891 9.770428,16.9805448 10.1128405,16.9805448 C10.4552529,16.9805448 10.7354086,16.7003891 10.7354086,16.3579767 C10.7354086,16.0155642 10.4552529,15.7354086 10.1128405,15.7354086 Z" id="path-1"></path>
    </defs>
    <g id="meteor" stroke="none" stroke-width="1" fill="none" fill-rule="evenodd">
        <mask id="mask-2" fill="white">
            <use xlink:href="#path-1"></use>
        </mask>
        <g fill-rule="nonzero"></g>
        <g id="🎨-color" mask="url(#mask-2)" fill="#000000">
            <rect id="🎨-Color" x="0" y="0" width="24" height="24"></rect>
        </g>
    </g>
</svg>