<?xml version="1.0" encoding="UTF-8"?>
<svg width="24px" height="24px" viewBox="0 0 24 24" version="1.1" xmlns="http://www.w3.org/2000/svg" xmlns:xlink="http://www.w3.org/1999/xlink">
    <!-- Generator: Sketch 52.5 (67469) - http://www.bohemiancoding.com/sketch -->
    <title>microphone-slash</title>
    <desc>Created with Sketch.</desc>
    <defs>
        <path d="M21.7759751,18.2901716 L16.8524181,14.4848674 C17.2452418,13.7357254 17.4758191,12.8895476 17.4758191,11.9843994 L17.4758191,10.4867395 C17.4758191,10.2109204 17.2524181,9.98751949 16.9765991,9.98751949 L16.4773791,9.98751949 C16.2015601,9.98751949 15.9781591,10.2109204 15.9781591,10.4867395 L15.9781591,11.9843994 C15.9781591,12.5435257 15.8546022,13.0702028 15.6436818,13.550702 L14.8152886,12.9104524 C14.9120125,12.6171607 14.9800312,12.3107644 14.9800312,11.9847114 L14.9800312,6.99219966 C14.9800312,5.33790948 13.6390016,3.99687984 11.9847114,3.99687984 C10.3304212,3.99687984 8.98939156,5.33790948 8.98939156,6.99219966 L8.98939156,8.40748828 L3.41872071,4.10202804 C3.20093599,3.93291728 2.88705144,3.97191884 2.71794067,4.18970355 L2.10514816,4.97815909 C1.93603739,5.19563179 1.97503895,5.50920434 2.19282366,5.67862711 L20.5503901,19.8667707 C20.7681748,20.0361935 21.0817473,19.9968799 21.2511701,19.7790952 L21.8639626,18.9906397 C22.0327614,18.773167 21.9937598,18.4595944 21.7759751,18.2901716 Z M14.4804992,18.474259 L12.7332293,18.474259 L12.7332293,17.4205929 C13.0970359,17.3706709 13.4461779,17.2789392 13.7837754,17.1613105 L12.2202808,15.9528861 C12.0109204,15.9653666 11.8018721,15.9800312 11.5853354,15.9591264 C9.8427457,15.7890796 8.50452416,14.4418097 8.11638064,12.7812793 L6.49297969,11.526053 L6.49297969,11.7397816 C6.49297969,14.5366615 8.48892354,17.0299532 11.2355694,17.4087364 L11.2355694,18.474259 L9.48829952,18.474259 C9.21248049,18.474259 8.98907955,18.6976599 8.98907955,18.973479 L8.98907955,19.4726989 C8.98907955,19.748518 9.21248049,19.9719189 9.48829952,19.9719189 L14.4804992,19.9719189 C14.7563183,19.9719189 14.9797192,19.748518 14.9797192,19.4726989 L14.9797192,18.973479 C14.9797192,18.6976599 14.7563183,18.474259 14.4804992,18.474259 Z" id="path-1"></path>
    </defs>
    <g id="microphone-slash" stroke="none" stroke-width="1" fill="none" fill-rule="evenodd">
        <mask id="mask-2" fill="white">
            <use xlink:href="#path-1"></use>
        </mask>
        <g fill-rule="nonzero"></g>
        <g id="🎨-color" mask="url(#mask-2)" fill="#000000">
            <rect id="🎨-Color" x="0" y="0" width="24" height="24"></rect>
        </g>
    </g>
</svg>