<?xml version="1.0" encoding="UTF-8"?>
<svg width="24px" height="24px" viewBox="0 0 24 24" version="1.1" xmlns="http://www.w3.org/2000/svg" xmlns:xlink="http://www.w3.org/1999/xlink">
    <!-- Generator: Sketch 52.5 (67469) - http://www.bohemiancoding.com/sketch -->
    <title>microphone</title>
    <desc>Created with Sketch.</desc>
    <defs>
        <path d="M12,15.75 C14.0710938,15.75 15.75,14.0710938 15.75,12 L15.75,5.74999997 C15.75,3.67890621 14.0710938,1.99999995 12,1.99999995 C9.92890624,1.99999995 8.24999998,3.67890621 8.24999998,5.74999997 L8.24999998,12 C8.24999998,14.0710938 9.92890624,15.75 12,15.75 Z M18.25,9.49999999 L17.625,9.49999999 C17.2796875,9.49999999 17,9.77968749 17,10.125 L17,12 C17,14.921875 14.4808594,17.2664063 11.5003906,16.9757813 C8.90273436,16.7222656 6.99999997,14.3871094 6.99999997,11.7773437 L6.99999997,10.125 C6.99999997,9.77968749 6.72031247,9.49999999 6.37499997,9.49999999 L5.74999997,9.49999999 C5.40468747,9.49999999 5.12499997,9.77968749 5.12499997,10.125 L5.12499997,11.69375 C5.12499997,15.1953125 7.6238281,18.3167969 11.0625,18.7910157 L11.0625,20.125 L8.87499998,20.125 C8.52968748,20.125 8.24999998,20.4046875 8.24999998,20.75 L8.24999998,21.375 C8.24999998,21.7203125 8.52968748,22.0000001 8.87499998,22.0000001 L15.125,22.0000001 C15.4703125,22.0000001 15.75,21.7203125 15.75,21.375 L15.75,20.75 C15.75,20.4046875 15.4703125,20.125 15.125,20.125 L12.9375,20.125 L12.9375,18.8058594 C16.2855469,18.3464844 18.875,15.4726563 18.875,12 L18.875,10.125 C18.875,9.77968749 18.5953125,9.49999999 18.25,9.49999999 Z" id="path-1"></path>
    </defs>
    <g id="microphone" stroke="none" stroke-width="1" fill="none" fill-rule="evenodd">
        <mask id="mask-2" fill="white">
            <use xlink:href="#path-1"></use>
        </mask>
        <g fill-rule="nonzero"></g>
        <g id="🎨-color" mask="url(#mask-2)" fill="#000000">
            <rect id="🎨-Color" x="0" y="0" width="24" height="24"></rect>
        </g>
    </g>
</svg>