<?xml version="1.0" encoding="UTF-8"?>
<svg width="24px" height="24px" viewBox="0 0 24 24" version="1.1" xmlns="http://www.w3.org/2000/svg" xmlns:xlink="http://www.w3.org/1999/xlink">
    <!-- Generator: Sketch 52.5 (67469) - http://www.bohemiancoding.com/sketch -->
    <title>microscope</title>
    <desc>Created with Sketch.</desc>
    <defs>
        <path d="M8.24999998,14.5 L8.71874998,14.5 L8.71874998,15.125 C8.71874998,15.4703125 8.99843748,15.75 9.34374999,15.75 L10.90625,15.75 C11.2515625,15.75 11.53125,15.4703125 11.53125,15.125 L11.53125,14.5 L12,14.5 C12.6902344,14.5 13.25,13.9402344 13.25,13.25 L13.25,4.49999996 C13.25,3.80976558 12.6902344,3.24999996 12,3.24999996 L12,2.62499995 C12,2.27968745 11.7203125,1.99999995 11.375,1.99999995 L8.87499998,1.99999995 C8.52968748,1.99999995 8.24999998,2.27968745 8.24999998,2.62499995 L8.24999998,3.24999996 C7.5597656,3.24999996 6.99999997,3.80976558 6.99999997,4.49999996 L6.99999997,13.25 C6.99999997,13.9402344 7.5597656,14.5 8.24999998,14.5 Z M20.125,19.5 L20.0746094,19.5 C21.2671875,18.1714844 22.0000001,16.421875 22.0000001,14.5 C22.0000001,10.3640625 18.6359375,6.99999997 14.5,6.99999997 L14.5,9.49999999 C17.2570313,9.49999999 19.5,11.7429687 19.5,14.5 C19.5,17.2570313 17.2570313,19.5 14.5,19.5 L3.87499996,19.5 C2.83945308,19.5 1.99999995,20.3394532 1.99999995,21.375 C1.99999995,21.7203125 2.27968745,22.0000001 2.62499995,22.0000001 L21.375,22.0000001 C21.7203125,22.0000001 22.0000001,21.7203125 22.0000001,21.375 C22.0000001,20.3394532 21.1605469,19.5 20.125,19.5 Z M6.06249997,18.25 L14.1875,18.25 C14.3601563,18.25 14.5,18.1101563 14.5,17.9375 L14.5,17.3125 C14.5,17.1398438 14.3601563,17 14.1875,17 L6.06249997,17 C5.88984372,17 5.74999997,17.1398438 5.74999997,17.3125 L5.74999997,17.9375 C5.74999997,18.1101563 5.88984372,18.25 6.06249997,18.25 Z" id="path-1"></path>
    </defs>
    <g id="microscope" stroke="none" stroke-width="1" fill="none" fill-rule="evenodd">
        <mask id="mask-2" fill="white">
            <use xlink:href="#path-1"></use>
        </mask>
        <g fill-rule="nonzero"></g>
        <g id="🎨-color" mask="url(#mask-2)" fill="#000000">
            <rect id="🎨-Color" x="0" y="0" width="24" height="24"></rect>
        </g>
    </g>
</svg>