<?xml version="1.0" encoding="UTF-8"?>
<svg width="24px" height="24px" viewBox="0 0 24 24" version="1.1" xmlns="http://www.w3.org/2000/svg" xmlns:xlink="http://www.w3.org/1999/xlink">
    <!-- Generator: Sketch 52.5 (67469) - http://www.bohemiancoding.com/sketch -->
    <title>microphone-alt-slash</title>
    <desc>Created with Sketch.</desc>
    <defs>
        <path d="M21.7759751,18.2901716 L16.8599064,14.4907956 C17.249298,13.7382215 17.4758191,12.8886115 17.4758191,11.9843994 L17.4758191,10.4867395 C17.4758191,10.2109204 17.2524181,9.98751949 16.9765991,9.98751949 L16.4773791,9.98751949 C16.2015601,9.98751949 15.9781591,10.2109204 15.9781591,10.4867395 L15.9781591,11.9843994 C15.9781591,12.5435257 15.8546022,13.0702028 15.6436818,13.550702 L14.8152886,12.9104524 C14.9120125,12.6171607 14.9800312,12.3107644 14.9800312,11.9847114 L13.6174727,11.9847114 L12.325741,10.9862714 L14.9797192,10.9862714 L14.9797192,9.9878315 L12.3173167,9.9878315 C12.1335413,9.9878315 11.9843994,9.87613103 11.9843994,9.73822152 L11.9843994,9.23900155 C11.9843994,9.10109203 12.1335413,8.98939156 12.3173167,8.98939156 L14.9797192,8.98939156 L14.9797192,7.99095162 L12.3173167,7.99095162 C12.1335413,7.99095162 11.9843994,7.87925115 11.9843994,7.74134163 L11.9843994,7.24212166 C11.9843994,7.10421214 12.1335413,6.99251168 12.3173167,6.99251168 L14.9797192,6.99251168 C14.9797192,5.3382215 13.6386896,3.99719185 11.9843994,3.99719185 C10.3301092,3.99719185 8.98907955,5.3382215 8.98907955,6.99251168 L8.98907955,8.40780029 L3.41872071,4.10202804 C3.20093599,3.93291728 2.88705144,3.97191884 2.71794067,4.18970355 L2.10514816,4.97815909 C1.93603739,5.19563179 1.97503895,5.50920434 2.19282366,5.67862711 L20.5503901,19.8667707 C20.7681748,20.0361935 21.0817473,19.9968799 21.2511701,19.7790952 L21.8639626,18.9906397 C22.0327614,18.773167 21.9937598,18.4595944 21.7759751,18.2901716 Z M14.4804992,18.474259 L12.7332293,18.474259 L12.7332293,17.4202808 C13.0985959,17.3697348 13.4539782,17.2867395 13.7928237,17.1681748 L12.2202808,15.9525741 C12.0109204,15.9650546 11.8018721,15.9797192 11.5853354,15.9588144 C9.8427457,15.7887676 8.50452416,14.4414977 8.11638064,12.7809672 L6.49297969,11.526053 L6.49297969,11.7397816 C6.49297969,14.5366615 8.48892354,17.0299532 11.2355694,17.4087364 L11.2355694,18.474259 L9.48829952,18.474259 C9.21248049,18.474259 8.98907955,18.6976599 8.98907955,18.973479 L8.98907955,19.4726989 C8.98907955,19.748518 9.21248049,19.9719189 9.48829952,19.9719189 L14.4804992,19.9719189 C14.7563183,19.9719189 14.9797192,19.748518 14.9797192,19.4726989 L14.9797192,18.973479 C14.9797192,18.6976599 14.7563183,18.474259 14.4804992,18.474259 Z" id="path-1"></path>
    </defs>
    <g id="microphone-alt-slash" stroke="none" stroke-width="1" fill="none" fill-rule="evenodd">
        <mask id="mask-2" fill="white">
            <use xlink:href="#path-1"></use>
        </mask>
        <g fill-rule="nonzero"></g>
        <g id="🎨-color" mask="url(#mask-2)" fill="#000000">
            <rect id="🎨-Color" x="0" y="0" width="24" height="24"></rect>
        </g>
    </g>
</svg>