<?xml version="1.0" encoding="UTF-8"?>
<svg width="24px" height="24px" viewBox="0 0 24 24" version="1.1" xmlns="http://www.w3.org/2000/svg" xmlns:xlink="http://www.w3.org/1999/xlink">
    <!-- Generator: Sketch 52.5 (67469) - http://www.bohemiancoding.com/sketch -->
    <title>microchip</title>
    <desc>Created with Sketch.</desc>
    <defs>
        <path d="M18.25,3.87499996 L18.25,20.125 C18.25,21.1605469 17.4105469,22.0000001 16.375,22.0000001 L7.62499998,22.0000001 C6.5894531,22.0000001 5.74999997,21.1605469 5.74999997,20.125 L5.74999997,3.87499996 C5.74999997,2.83945308 6.5894531,1.99999995 7.62499998,1.99999995 L16.375,1.99999995 C17.4105469,1.99999995 18.25,2.83945308 18.25,3.87499996 Z M22.0000001,6.14062497 L22.0000001,6.60937497 C22.0000001,6.73881671 21.8950668,6.84374997 21.765625,6.84374997 L21.0625,6.84374997 L21.0625,7.07812498 C21.0625,7.20756671 20.9575668,7.31249998 20.828125,7.31249998 L19.1875,7.31249998 L19.1875,5.43749997 L20.828125,5.43749997 C20.9575668,5.43749997 21.0625,5.54243323 21.0625,5.67187497 L21.0625,5.90624997 L21.765625,5.90624997 C21.8950668,5.90624997 22.0000001,6.01118323 22.0000001,6.14062497 Z M22.0000001,9.89062499 L22.0000001,10.359375 C22.0000001,10.4888167 21.8950668,10.59375 21.765625,10.59375 L21.0625,10.59375 L21.0625,10.828125 C21.0625,10.9575667 20.9575668,11.0625 20.828125,11.0625 L19.1875,11.0625 L19.1875,9.18749999 L20.828125,9.18749999 C20.9575668,9.18749999 21.0625,9.29243325 21.0625,9.42187499 L21.0625,9.65624999 L21.765625,9.65624999 C21.8950668,9.65624999 22.0000001,9.76118325 22.0000001,9.89062499 Z M22.0000001,13.640625 L22.0000001,14.109375 C22.0000001,14.2388167 21.8950668,14.34375 21.765625,14.34375 L21.0625,14.34375 L21.0625,14.578125 C21.0625,14.7075668 20.9575668,14.8125 20.828125,14.8125 L19.1875,14.8125 L19.1875,12.9375 L20.828125,12.9375 C20.9575668,12.9375 21.0625,13.0424333 21.0625,13.171875 L21.0625,13.40625 L21.765625,13.40625 C21.8950668,13.40625 22.0000001,13.5111833 22.0000001,13.640625 Z M22.0000001,17.390625 L22.0000001,17.859375 C22.0000001,17.9888168 21.8950668,18.09375 21.765625,18.09375 L21.0625,18.09375 L21.0625,18.328125 C21.0625,18.4575668 20.9575668,18.5625 20.828125,18.5625 L19.1875,18.5625 L19.1875,16.6875 L20.828125,16.6875 C20.9575668,16.6875 21.0625,16.7924333 21.0625,16.921875 L21.0625,17.15625 L21.765625,17.15625 C21.8950668,17.15625 22.0000001,17.2611833 22.0000001,17.390625 Z M3.17187496,16.6875 L4.81249996,16.6875 L4.81249996,18.5625 L3.17187496,18.5625 C3.04243322,18.5625 2.93749995,18.4575668 2.93749995,18.328125 L2.93749995,18.09375 L2.23437495,18.09375 C2.10493321,18.09375 1.99999995,17.9888168 1.99999995,17.859375 L1.99999995,17.390625 C1.99999995,17.2611833 2.10493321,17.15625 2.23437495,17.15625 L2.93749995,17.15625 L2.93749995,16.921875 C2.93749995,16.7924333 3.04243322,16.6875 3.17187496,16.6875 Z M3.17187496,12.9375 L4.81249996,12.9375 L4.81249996,14.8125 L3.17187496,14.8125 C3.04243322,14.8125 2.93749995,14.7075668 2.93749995,14.578125 L2.93749995,14.34375 L2.23437495,14.34375 C2.10493321,14.34375 1.99999995,14.2388167 1.99999995,14.109375 L1.99999995,13.640625 C1.99999995,13.5111833 2.10493321,13.40625 2.23437495,13.40625 L2.93749995,13.40625 L2.93749995,13.171875 C2.93749995,13.0424333 3.04243322,12.9375 3.17187496,12.9375 Z M3.17187496,9.18749999 L4.81249996,9.18749999 L4.81249996,11.0625 L3.17187496,11.0625 C3.04243322,11.0625 2.93749995,10.9575667 2.93749995,10.828125 L2.93749995,10.59375 L2.23437495,10.59375 C2.10493321,10.59375 1.99999995,10.4888167 1.99999995,10.359375 L1.99999995,9.89062499 C1.99999995,9.76118325 2.10493321,9.65624999 2.23437495,9.65624999 L2.93749995,9.65624999 L2.93749995,9.42187499 C2.93749995,9.29243325 3.04243322,9.18749999 3.17187496,9.18749999 Z M3.17187496,5.43749997 L4.81249996,5.43749997 L4.81249996,7.31249998 L3.17187496,7.31249998 C3.04243322,7.31249998 2.93749995,7.20756671 2.93749995,7.07812498 L2.93749995,6.84374997 L2.23437495,6.84374997 C2.10493321,6.84374997 1.99999995,6.73881671 1.99999995,6.60937497 L1.99999995,6.14062497 C1.99999995,6.01118323 2.10493321,5.90624997 2.23437495,5.90624997 L2.93749995,5.90624997 L2.93749995,5.67187497 C2.93749995,5.54243323 3.04243322,5.43749997 3.17187496,5.43749997 Z" id="path-1"></path>
    </defs>
    <g id="microchip" stroke="none" stroke-width="1" fill="none" fill-rule="evenodd">
        <mask id="mask-2" fill="white">
            <use xlink:href="#path-1"></use>
        </mask>
        <g fill-rule="nonzero"></g>
        <g id="🎨-color" mask="url(#mask-2)" fill="#000000">
            <rect id="🎨-Color" x="0" y="0" width="24" height="24"></rect>
        </g>
    </g>
</svg>