<?xml version="1.0" encoding="UTF-8"?>
<svg width="24px" height="24px" viewBox="0 0 24 24" version="1.1" xmlns="http://www.w3.org/2000/svg" xmlns:xlink="http://www.w3.org/1999/xlink">
    <!-- Generator: Sketch 52.5 (67469) - http://www.bohemiancoding.com/sketch -->
    <title>minus-square</title>
    <desc>Created with Sketch.</desc>
    <defs>
        <path d="M7.46874998,13.09375 C7.21093748,13.09375 6.99999997,12.8828125 6.99999997,12.625 L6.99999997,11.375 C6.99999997,11.1171875 7.21093748,10.90625 7.46874998,10.90625 L16.53125,10.90625 C16.7890625,10.90625 17,11.1171875 17,11.375 L17,12.625 C17,12.8828125 16.7890625,13.09375 16.53125,13.09375 L7.46874998,13.09375 Z M20.75,5.12499997 L20.75,18.875 C20.75,19.9101563 19.9101563,20.75 18.875,20.75 L5.12499997,20.75 C4.08984371,20.75 3.24999996,19.9101563 3.24999996,18.875 L3.24999996,5.12499997 C3.24999996,4.08984371 4.08984371,3.24999996 5.12499997,3.24999996 L18.875,3.24999996 C19.9101563,3.24999996 20.75,4.08984371 20.75,5.12499997 Z M18.875,18.640625 L18.875,5.35937497 C18.875,5.23046872 18.7695313,5.12499997 18.640625,5.12499997 L5.35937497,5.12499997 C5.23046872,5.12499997 5.12499997,5.23046872 5.12499997,5.35937497 L5.12499997,18.640625 C5.12499997,18.7695313 5.23046872,18.875 5.35937497,18.875 L18.640625,18.875 C18.7695313,18.875 18.875,18.7695313 18.875,18.640625 Z" id="path-1"></path>
    </defs>
    <g id="minus-square" stroke="none" stroke-width="1" fill="none" fill-rule="evenodd">
        <mask id="mask-2" fill="white">
            <use xlink:href="#path-1"></use>
        </mask>
        <g fill-rule="nonzero"></g>
        <g id="🎨-color" mask="url(#mask-2)" fill="#000000">
            <rect id="🎨-Color" x="0" y="0" width="24" height="24"></rect>
        </g>
    </g>
</svg>