<?xml version="1.0" encoding="UTF-8"?>
<svg width="24px" height="24px" viewBox="0 0 24 24" version="1.1" xmlns="http://www.w3.org/2000/svg" xmlns:xlink="http://www.w3.org/1999/xlink">
    <!-- Generator: Sketch 52.5 (67469) - http://www.bohemiancoding.com/sketch -->
    <title>mixcloud</title>
    <desc>Created with Sketch.</desc>
    <defs>
        <path d="M15.2634375,10.8665312 C15.003875,8.21021873 12.7542188,6.12499997 10.0287187,6.12499997 C7.77040623,6.12499997 5.77171872,7.57862498 5.05356247,9.68981249 C3.34903121,9.94071874 2.03387495,11.403 2.03387495,13.17675 C2.03387495,15.1235625 3.61724996,16.7069375 5.57271872,16.7069375 L14.6231563,16.7069375 C16.2584375,16.7069375 17.5909375,15.383125 17.5909375,13.7477813 C17.5909375,12.3374375 16.58725,11.1520625 15.2634375,10.8665312 Z M14.6231563,15.3830938 L5.57271872,15.3830938 C4.35271871,15.3830938 3.35768746,14.3967188 3.35768746,13.1767188 C3.35768746,11.9567187 4.35271871,10.9703437 5.57271872,10.9703437 C6.16106247,10.9703437 6.71484372,11.2039375 7.13015623,11.6192812 C7.75399998,12.243125 8.69681248,11.2996875 8.07328123,10.6761562 C7.61468748,10.2262187 7.05228123,9.91474999 6.44662497,9.75899999 C7.06959373,8.37462498 8.47131248,7.44881248 10.02875,7.44881248 C12.2005,7.44881248 13.9655938,9.21390624 13.9655938,11.377 C13.9655938,11.801 13.896375,12.2162813 13.7665625,12.6143125 C13.4870938,13.4742188 14.7707188,13.8311563 15.0211563,13.029625 C15.1076875,12.7700625 15.1769063,12.5018438 15.2201875,12.233625 C15.8258438,12.46725 16.267125,13.0555938 16.267125,13.7477813 C16.267125,14.647625 15.5316563,15.3830938 14.6231563,15.3830938 Z M21.9690625,13.7477813 C21.9690625,15.1235313 21.5710313,16.4473438 20.809625,17.5808125 C20.6798438,17.7711875 20.4721875,17.875 20.255875,17.875 C19.7459688,17.875 19.4081563,17.2866875 19.7107813,16.8453438 C20.3164375,15.9281875 20.64525,14.8552813 20.64525,13.7477813 C20.64525,12.6402813 20.3164688,11.567375 19.7107813,10.658875 C19.2215625,9.94540624 20.3158125,9.18262499 20.809625,9.92343749 C21.5710625,11.0482187 21.9690625,12.3720625 21.9690625,13.7477813 Z M19.7540625,13.7477813 C19.7540625,14.7341875 19.4685313,15.6859375 18.9147813,16.5079375 C18.785,16.6982813 18.5773438,16.7934375 18.3610313,16.7934375 C17.8235,16.7934375 17.5165938,16.2003438 17.8159375,15.7638125 C18.2225938,15.1668125 18.43025,14.4745938 18.43025,13.7477813 C18.43025,13.029625 18.2225938,12.3287813 17.8159375,11.7317812 C17.3234063,11.0134687 18.4099375,10.2600625 18.9147813,10.9963125 C19.4685,11.809625 19.7540625,12.7614063 19.7540625,13.7477813 Z" id="path-1"></path>
    </defs>
    <g id="mixcloud" stroke="none" stroke-width="1" fill="none" fill-rule="evenodd">
        <mask id="mask-2" fill="white">
            <use xlink:href="#path-1"></use>
        </mask>
        <g fill-rule="nonzero"></g>
        <g id="🎨-color" mask="url(#mask-2)" fill="#000000">
            <rect id="🎨-Color" x="0" y="0" width="24" height="24"></rect>
        </g>
    </g>
</svg>