<?xml version="1.0" encoding="UTF-8"?>
<svg width="24px" height="24px" viewBox="0 0 24 24" version="1.1" xmlns="http://www.w3.org/2000/svg" xmlns:xlink="http://www.w3.org/1999/xlink">
    <!-- Generator: Sketch 52.5 (67469) - http://www.bohemiancoding.com/sketch -->
    <title>mizuni</title>
    <desc>Created with Sketch.</desc>
    <defs>
        <path d="M12,2.31249995 C6.64843747,2.31249995 2.31249995,6.65234372 2.31249995,12 C2.31249995,17.3515625 6.64843747,21.6875 12,21.6875 C17.3515625,21.6875 21.6875,17.3515625 21.6875,12 C21.6875,6.65234372 17.3515625,2.31249995 12,2.31249995 Z M8.87499998,16.0585938 C7.64843748,16.4726563 6.57812497,17.125 5.74999997,17.9414063 L5.74999997,7.31249998 C5.74999997,6.44921872 6.44921872,5.74999997 7.31249998,5.74999997 C8.17578123,5.74999997 8.87499998,6.44921872 8.87499998,7.31249998 L8.87499998,16.0585938 Z M13.5625,15.671875 C13.0585938,15.59375 12.5390625,15.5507813 12.0078125,15.5507813 C11.46875,15.5507813 10.9453125,15.59375 10.4375,15.671875 L10.4375,7.31249998 C10.4375,6.44921872 11.1367187,5.74999997 12,5.74999997 C12.8632813,5.74999997 13.5625,6.44921872 13.5625,7.31249998 L13.5625,15.671875 Z M18.25,17.9257813 C17.421875,17.1132813 16.3515625,16.4648438 15.125,16.0507813 L15.125,7.31249998 C15.125,6.44921872 15.8242188,5.74999997 16.6875,5.74999997 C17.5507813,5.74999997 18.25,6.44921872 18.25,7.31249998 L18.25,17.9257813 Z" id="path-1"></path>
    </defs>
    <g id="mizuni" stroke="none" stroke-width="1" fill="none" fill-rule="evenodd">
        <mask id="mask-2" fill="white">
            <use xlink:href="#path-1"></use>
        </mask>
        <g fill-rule="nonzero"></g>
        <g id="🎨-color" mask="url(#mask-2)" fill="#000000">
            <rect id="🎨-Color" x="0" y="0" width="24" height="24"></rect>
        </g>
    </g>
</svg>