<?xml version="1.0" encoding="UTF-8"?>
<svg width="24px" height="24px" viewBox="0 0 24 24" version="1.1" xmlns="http://www.w3.org/2000/svg" xmlns:xlink="http://www.w3.org/1999/xlink">
    <!-- Generator: Sketch 52.5 (67469) - http://www.bohemiancoding.com/sketch -->
    <title>mobile-alt</title>
    <desc>Created with Sketch.</desc>
    <defs>
        <path d="M16.375,1.99999995 L7.62499998,1.99999995 C6.58984372,1.99999995 5.74999997,2.8398437 5.74999997,3.87499996 L5.74999997,20.125 C5.74999997,21.1601563 6.58984372,22.0000001 7.62499998,22.0000001 L16.375,22.0000001 C17.4101563,22.0000001 18.25,21.1601563 18.25,20.125 L18.25,3.87499996 C18.25,2.8398437 17.4101563,1.99999995 16.375,1.99999995 Z M12,20.75 C11.3085937,20.75 10.75,20.1914063 10.75,19.5 C10.75,18.8085938 11.3085937,18.25 12,18.25 C12.6914063,18.25 13.25,18.8085938 13.25,19.5 C13.25,20.1914063 12.6914063,20.75 12,20.75 Z M16.375,16.53125 C16.375,16.7890625 16.1640625,17 15.90625,17 L8.09374998,17 C7.83593748,17 7.62499998,16.7890625 7.62499998,16.53125 L7.62499998,4.34374996 C7.62499998,4.08593746 7.83593748,3.87499996 8.09374998,3.87499996 L15.90625,3.87499996 C16.1640625,3.87499996 16.375,4.08593746 16.375,4.34374996 L16.375,16.53125 Z" id="path-1"></path>
    </defs>
    <g id="mobile-alt" stroke="none" stroke-width="1" fill="none" fill-rule="evenodd">
        <mask id="mask-2" fill="white">
            <use xlink:href="#path-1"></use>
        </mask>
        <g fill-rule="nonzero"></g>
        <g id="🎨-color" mask="url(#mask-2)" fill="#000000">
            <rect id="🎨-Color" x="0" y="0" width="24" height="24"></rect>
        </g>
    </g>
</svg>