<?xml version="1.0" encoding="UTF-8"?>
<svg width="24px" height="24px" viewBox="0 0 24 24" version="1.1" xmlns="http://www.w3.org/2000/svg" xmlns:xlink="http://www.w3.org/1999/xlink">
    <!-- Generator: Sketch 52.5 (67469) - http://www.bohemiancoding.com/sketch -->
    <title>money-check</title>
    <desc>Created with Sketch.</desc>
    <defs>
        <path d="M1.99999995,18 C1.99999995,18.5521875 2.44781245,19 2.99999995,19 L21,19 C21.5521875,19 22.0000001,18.5521875 22.0000001,18 L22.0000001,7.99999998 L1.99999995,7.99999998 L1.99999995,18 Z M16,11.5 C16,11.22375 16.22375,11 16.5,11 L19.5,11 C19.77625,11 20,11.22375 20,11.5 L20,12.5 C20,12.77625 19.77625,13 19.5,13 L16.5,13 C16.22375,13 16,12.77625 16,12.5 L16,11.5 Z M16,15.25 C16,15.111875 16.111875,15 16.25,15 L19.75,15 C19.888125,15 20,15.111875 20,15.25 L20,15.75 C20,15.888125 19.888125,16 19.75,16 L16.25,16 C16.111875,16 16,15.888125 16,15.75 L16,15.25 Z M3.99999996,12.25 C3.99999996,12.111875 4.11187496,12 4.24999996,12 L13.75,12 C13.888125,12 14,12.111875 14,12.25 L14,12.75 C14,12.888125 13.888125,13 13.75,13 L4.24999996,13 C4.11187496,13 3.99999996,12.888125 3.99999996,12.75 L3.99999996,12.25 Z M3.99999996,15.25 C3.99999996,15.111875 4.11187496,15 4.24999996,15 L9.74999999,15 C9.88812499,15 9.99999999,15.111875 9.99999999,15.25 L9.99999999,15.75 C9.99999999,15.888125 9.88812499,16 9.74999999,16 L4.24999996,16 C4.11187496,16 3.99999996,15.888125 3.99999996,15.75 L3.99999996,15.25 Z M21.5,4.99999997 L2.49999995,4.99999997 C2.22374995,4.99999997 1.99999995,5.22374997 1.99999995,5.49999997 L1.99999995,6.99999998 L22.0000001,6.99999998 L22.0000001,5.49999997 C22.0000001,5.22374997 21.77625,4.99999997 21.5,4.99999997 Z" id="path-1"></path>
    </defs>
    <g id="money-check" stroke="none" stroke-width="1" fill="none" fill-rule="evenodd">
        <mask id="mask-2" fill="white">
            <use xlink:href="#path-1"></use>
        </mask>
        <g fill-rule="nonzero"></g>
        <g id="🎨-color" mask="url(#mask-2)" fill="#000000">
            <rect id="🎨-Color" x="0" y="0" width="24" height="24"></rect>
        </g>
    </g>
</svg>