<?xml version="1.0" encoding="UTF-8"?>
<svg width="24px" height="24px" viewBox="0 0 24 24" version="1.1" xmlns="http://www.w3.org/2000/svg" xmlns:xlink="http://www.w3.org/1999/xlink">
    <!-- Generator: Sketch 52.5 (67469) - http://www.bohemiancoding.com/sketch -->
    <title>money-bill-wave</title>
    <desc>Created with Sketch.</desc>
    <defs>
        <path d="M21.3809673,5.71170044 C20.1706709,5.20405613 18.9594384,5.0109204 17.74883,5.0109204 C13.9057722,5.01060839 10.0630265,6.95600622 6.21996877,6.95600622 C5.25616221,6.95600622 4.29297968,6.83369732 3.32917312,6.52792509 C3.22090479,6.49360372 3.11232445,6.47737907 3.0062402,6.47737907 C2.46926672,6.47737907 1.99999995,6.89297969 1.99999995,7.46989077 L1.99999995,17.3687988 C1.99999995,17.7628705 2.22558497,18.1363495 2.58783147,18.2879876 C3.79812788,18.7959439 5.00936034,18.9890796 6.21996877,18.9890796 C10.0630265,18.9890796 13.9060843,17.0436818 17.749142,17.0436818 C18.7129486,17.0436818 19.6761311,17.1659907 20.6399376,17.4717629 C20.748206,17.5060843 20.8567863,17.5223089 20.9628706,17.5223089 C21.499844,17.5223089 21.9691108,17.1067083 21.9691108,16.5297972 L21.9691108,6.63120122 C21.9687988,6.23681744 21.7432138,5.86365052 21.3809673,5.71170044 Z M3.49765986,8.1379095 C4.12542898,8.29516379 4.78065519,8.37410295 5.45460215,8.41653664 C5.27113881,9.33354133 4.46489856,10.024649 3.49765986,10.024649 L3.49765986,8.1379095 Z M3.49765986,17.0302652 L3.49765986,15.5394696 C4.57004676,15.5394696 5.43775348,16.3903276 5.48549139,17.4552262 C4.78252727,17.398752 4.12542898,17.2583464 3.49765986,17.0302652 Z M11.9843994,14.9953198 C10.6056162,14.9953198 9.48829952,13.6539782 9.48829952,12 C9.48829952,10.3457098 10.6059282,9.00468017 11.9843994,9.00468017 C13.3628705,9.00468017 14.4804992,10.3457098 14.4804992,12 C14.4804992,13.6546022 13.3625585,14.9953198 11.9843994,14.9953198 Z M20.4711389,15.8620905 C19.924493,15.725117 19.3569423,15.648362 18.7762871,15.598752 C18.9594384,14.7850234 19.6343214,14.1672387 20.4711389,14.0611545 L20.4711389,15.8620905 Z M20.4711389,8.49516379 C19.5073323,8.37316691 18.7594384,7.56848672 18.7297972,6.57472696 C19.3394696,6.64243367 19.9182528,6.76911074 20.4711389,6.96973476 L20.4711389,8.49516379 Z" id="path-1"></path>
    </defs>
    <g id="money-bill-wave" stroke="none" stroke-width="1" fill="none" fill-rule="evenodd">
        <mask id="mask-2" fill="white">
            <use xlink:href="#path-1"></use>
        </mask>
        <g fill-rule="nonzero"></g>
        <g id="🎨-color" mask="url(#mask-2)" fill="#000000">
            <rect id="🎨-Color" x="0" y="0" width="24" height="24"></rect>
        </g>
    </g>
</svg>