<?xml version="1.0" encoding="UTF-8"?>
<svg width="24px" height="24px" viewBox="0 0 24 24" version="1.1" xmlns="http://www.w3.org/2000/svg" xmlns:xlink="http://www.w3.org/1999/xlink">
    <!-- Generator: Sketch 52.5 (67469) - http://www.bohemiancoding.com/sketch -->
    <title>money-bill-alt</title>
    <desc>Created with Sketch.</desc>
    <defs>
        <path d="M12,8.49999998 C10.343125,8.49999998 8.99999998,10.066875 8.99999998,12 C8.99999998,13.9328125 10.343125,15.5 12,15.5 C13.65625,15.5 15,13.9334375 15,12 C15,10.066875 13.656875,8.49999998 12,8.49999998 Z M13.25,13.75 C13.25,13.888125 13.138125,14 13,14 L11,14 C10.861875,14 10.75,13.888125 10.75,13.75 L10.75,13.25 C10.75,13.111875 10.861875,13 11,13 L11.5,13 L11.5,11.2675 L11.4853125,11.2771875 C11.4301692,11.3139897 11.362656,11.327357 11.2976495,11.3143439 C11.232643,11.3013309 11.1754777,11.2630054 11.13875,11.2078125 L10.86125,10.791875 C10.8244478,10.7367317 10.8110805,10.6692185 10.8240936,10.604212 C10.8371066,10.5392055 10.875432,10.4820402 10.930625,10.4453125 L11.4096875,10.1259375 C11.532858,10.043812 11.6775859,9.99999127 11.825625,9.99999999 L12.25,9.99999999 C12.388125,9.99999999 12.5,10.111875 12.5,10.25 L12.5,13 L13,13 C13.138125,13 13.25,13.111875 13.25,13.25 L13.25,13.75 Z M21,5.99999997 L2.99999995,5.99999997 C2.44781245,5.99999997 1.99999995,6.44781247 1.99999995,6.99999998 L1.99999995,17 C1.99999995,17.5521875 2.44781245,18 2.99999995,18 L21,18 C21.5521875,18 22.0000001,17.5521875 22.0000001,17 L22.0000001,6.99999998 C22.0000001,6.44781247 21.5521875,5.99999997 21,5.99999997 Z M20.5,14.5 C19.3953125,14.5 18.5,15.3953125 18.5,16.5 L5.49999997,16.5 C5.49999997,15.3953125 4.60468746,14.5 3.49999996,14.5 L3.49999996,9.49999999 C4.60468746,9.49999999 5.49999997,8.60468748 5.49999997,7.49999998 L18.5,7.49999998 C18.5,8.60468748 19.3953125,9.49999999 20.5,9.49999999 L20.5,14.5 Z" id="path-1"></path>
    </defs>
    <g id="money-bill-alt" stroke="none" stroke-width="1" fill="none" fill-rule="evenodd">
        <mask id="mask-2" fill="white">
            <use xlink:href="#path-1"></use>
        </mask>
        <g fill-rule="nonzero"></g>
        <g id="🎨-color" mask="url(#mask-2)" fill="#000000">
            <rect id="🎨-Color" x="0" y="0" width="24" height="24"></rect>
        </g>
    </g>
</svg>