<?xml version="1.0" encoding="UTF-8"?>
<svg width="24px" height="24px" viewBox="0 0 24 24" version="1.1" xmlns="http://www.w3.org/2000/svg" xmlns:xlink="http://www.w3.org/1999/xlink">
    <!-- Generator: Sketch 52.5 (67469) - http://www.bohemiancoding.com/sketch -->
    <title>money-bill</title>
    <desc>Created with Sketch.</desc>
    <defs>
        <path d="M21,5.99999997 L2.99999995,5.99999997 C2.44781245,5.99999997 1.99999995,6.44781247 1.99999995,6.99999998 L1.99999995,17 C1.99999995,17.5521875 2.44781245,18 2.99999995,18 L21,18 C21.5521875,18 22.0000001,17.5521875 22.0000001,17 L22.0000001,6.99999998 C22.0000001,6.44781247 21.5521875,5.99999997 21,5.99999997 Z M3.49999996,16.5 L3.49999996,14.5 C4.60468746,14.5 5.49999997,15.3953125 5.49999997,16.5 L3.49999996,16.5 Z M3.49999996,9.49999999 L3.49999996,7.49999998 L5.49999997,7.49999998 C5.49999997,8.60468748 4.60468746,9.49999999 3.49999996,9.49999999 Z M12,15 C10.6190625,15 9.49999999,13.6565625 9.49999999,12 C9.49999999,10.343125 10.619375,8.99999999 12,8.99999999 C13.380625,8.99999999 14.5,10.343125 14.5,12 C14.5,13.6571875 13.3803125,15 12,15 Z M20.5,16.5 L18.5,16.5 C18.5,15.3953125 19.3953125,14.5 20.5,14.5 L20.5,16.5 Z M20.5,9.49999999 C19.3953125,9.49999999 18.5,8.60468748 18.5,7.49999998 L20.5,7.49999998 L20.5,9.49999999 Z" id="path-1"></path>
    </defs>
    <g id="money-bill" stroke="none" stroke-width="1" fill="none" fill-rule="evenodd">
        <mask id="mask-2" fill="white">
            <use xlink:href="#path-1"></use>
        </mask>
        <g fill-rule="nonzero"></g>
        <g id="🎨-color" mask="url(#mask-2)" fill="#000000">
            <rect id="🎨-Color" x="0" y="0" width="24" height="24"></rect>
        </g>
    </g>
</svg>