<?xml version="1.0" encoding="UTF-8"?>
<svg width="24px" height="24px" viewBox="0 0 24 24" version="1.1" xmlns="http://www.w3.org/2000/svg" xmlns:xlink="http://www.w3.org/1999/xlink">
    <!-- Generator: Sketch 52.5 (67469) - http://www.bohemiancoding.com/sketch -->
    <title>money-check-alt</title>
    <desc>Created with Sketch.</desc>
    <defs>
        <path d="M21,4.99999997 L2.99999995,4.99999997 C2.44781245,4.99999997 1.99999995,5.44781247 1.99999995,5.99999997 L1.99999995,18 C1.99999995,18.5521875 2.44781245,19 2.99999995,19 L21,19 C21.5521875,19 22.0000001,18.5521875 22.0000001,18 L22.0000001,5.99999997 C22.0000001,5.44781247 21.5521875,4.99999997 21,4.99999997 Z M7.49999998,14.24625 L7.49999998,14.75 C7.49999998,14.888125 7.38812498,15 7.24999998,15 L6.74999997,15 C6.61187497,15 6.49999997,14.888125 6.49999997,14.75 L6.49999997,14.2409375 C6.14718747,14.2228125 5.80406247,14.0996875 5.51968747,13.88625 C5.39781247,13.7946875 5.39156247,13.6121875 5.50187497,13.506875 L5.86906247,13.1565625 C5.95562497,13.0740625 6.08437497,13.0703125 6.18562497,13.13375 C6.30656247,13.209375 6.44374997,13.25 6.58624997,13.25 L7.46468748,13.25 C7.66781248,13.25 7.83343748,13.065 7.83343748,12.8378125 C7.83343748,12.651875 7.72062498,12.488125 7.55937498,12.44 L6.15312497,12.018125 C5.57218747,11.84375 5.16624997,11.28625 5.16624997,10.6621875 C5.16624997,9.89593749 5.76156247,9.27343749 6.49968747,9.25374999 L6.49968747,8.74999998 C6.49968747,8.61187498 6.61156247,8.49999998 6.74968747,8.49999998 L7.24968748,8.49999998 C7.38781248,8.49999998 7.49968748,8.61187498 7.49968748,8.74999998 L7.49968748,9.25906249 C7.85249998,9.27718749 8.19562498,9.39999999 8.47999998,9.61374999 C8.60187498,9.70531249 8.60812498,9.88781249 8.49781248,9.99312499 L8.13062498,10.3434375 C8.04406248,10.4259375 7.91531248,10.4296875 7.81406248,10.36625 C7.69312498,10.2903125 7.55593748,10.25 7.41343748,10.25 L6.53499997,10.25 C6.33187497,10.25 6.16624997,10.435 6.16624997,10.6621875 C6.16624997,10.848125 6.27906247,11.011875 6.44031247,11.06 L7.84656248,11.481875 C8.42749998,11.65625 8.83343748,12.21375 8.83343748,12.8378125 C8.83343748,13.604375 8.23812498,14.2265625 7.49999998,14.24625 Z M15,13.75 C15,13.888125 14.888125,14 14.75,14 L11.25,14 C11.111875,14 11,13.888125 11,13.75 L11,13.25 C11,13.111875 11.111875,13 11.25,13 L14.75,13 C14.888125,13 15,13.111875 15,13.25 L15,13.75 Z M20,13.75 C20,13.888125 19.888125,14 19.75,14 L17.25,14 C17.111875,14 17,13.888125 17,13.75 L17,13.25 C17,13.111875 17.111875,13 17.25,13 L19.75,13 C19.888125,13 20,13.111875 20,13.25 L20,13.75 Z M20,10.75 C20,10.888125 19.888125,11 19.75,11 L11.25,11 C11.111875,11 11,10.888125 11,10.75 L11,10.25 C11,10.111875 11.111875,9.99999999 11.25,9.99999999 L19.75,9.99999999 C19.888125,9.99999999 20,10.111875 20,10.25 L20,10.75 Z" id="path-1"></path>
    </defs>
    <g id="money-check-alt" stroke="none" stroke-width="1" fill="none" fill-rule="evenodd">
        <mask id="mask-2" fill="white">
            <use xlink:href="#path-1"></use>
        </mask>
        <g fill-rule="nonzero"></g>
        <g id="🎨-color" mask="url(#mask-2)" fill="#000000">
            <rect id="🎨-Color" x="0" y="0" width="24" height="24"></rect>
        </g>
    </g>
</svg>