<?xml version="1.0" encoding="UTF-8"?>
<svg width="24px" height="24px" viewBox="0 0 24 24" version="1.1" xmlns="http://www.w3.org/2000/svg" xmlns:xlink="http://www.w3.org/1999/xlink">
    <!-- Generator: Sketch 52.5 (67469) - http://www.bohemiancoding.com/sketch -->
    <title>monument</title>
    <desc>Created with Sketch.</desc>
    <defs>
        <path d="M18.875,19.5 L5.12499997,19.5 C4.77968746,19.5 4.49999996,19.7796875 4.49999996,20.125 L4.49999996,21.375 C4.49999996,21.7203125 4.77968746,22 5.12499997,22 L18.875,22 C19.2203125,22 19.5,21.7203125 19.5,21.375 L19.5,20.125 C19.5,19.7796875 19.2203125,19.5 18.875,19.5 Z M15.7945313,5.93515622 C15.7659249,5.6480737 15.6388028,5.37975069 15.4347656,5.17578122 L12.4417969,2.18320308 C12.1976563,1.93906245 11.8019531,1.93906245 11.5578125,2.18320308 L8.56562498,5.17578122 C8.36158786,5.37975069 8.23446569,5.6480737 8.20585936,5.93515622 L6.99999997,18.25 L17,18.25 L15.7945313,5.93515622 Z M13.875,14 C13.875,14.25 13.625,14.5 13.375,14.5 L10.625,14.5 C10.375,14.5 10.125,14.25 10.125,14 L10.125,12.5 C10.125,12.25 10.375,12 10.625,12 L13.375,12 C13.625,12 13.875,12.25 13.875,12.5 L13.875,14 Z" id="path-1"></path>
    </defs>
    <g id="monument" stroke="none" stroke-width="1" fill="none" fill-rule="evenodd">
        <mask id="mask-2" fill="white">
            <use xlink:href="#path-1"></use>
        </mask>
        <g fill-rule="nonzero"></g>
        <g id="🎨-color" mask="url(#mask-2)" fill="#000000">
            <rect id="🎨-Color" x="0" y="0" width="24" height="24"></rect>
        </g>
    </g>
</svg>