<?xml version="1.0" encoding="UTF-8"?>
<svg width="24px" height="24px" viewBox="0 0 24 24" version="1.1" xmlns="http://www.w3.org/2000/svg" xmlns:xlink="http://www.w3.org/1999/xlink">
    <!-- Generator: Sketch 52.5 (67469) - http://www.bohemiancoding.com/sketch -->
    <title>moon</title>
    <desc>Created with Sketch.</desc>
    <defs>
        <path d="M12.9037109,22.0000001 C15.9801172,22.0000001 18.8014453,20.6014063 20.6710547,18.2978516 C21.7753516,16.9372656 20.5711329,14.949336 18.8644532,15.274375 C15.6477344,15.8869922 12.6819531,13.4279688 12.6819531,10.1653125 C12.6819531,8.27374998 13.6999219,6.56015622 15.3160938,5.64046872 C16.8295703,4.77914059 16.4488672,2.48468745 14.7292969,2.16707026 C14.1271093,2.05602132 13.5160521,2.00009981 12.9037109,1.99999995 C7.38183591,1.99999995 2.90371089,6.47558591 2.90371089,12 C2.90371089,17.521875 7.37933591,22.0000001 12.9037109,22.0000001 Z M12.9037109,3.87499996 C13.4109375,3.87499996 13.9071875,3.92191402 14.3887109,4.01085934 C12.2496484,5.22816403 10.8069531,7.52812498 10.8069531,10.1653125 C10.8069531,14.6125 14.8554297,17.9465625 19.2152344,17.11625 C17.7255469,18.9517188 15.4517969,20.125 12.9037109,20.125 C8.41640623,20.125 4.7787109,16.4873047 4.7787109,12 C4.7787109,7.51269529 8.41640623,3.87499996 12.9037109,3.87499996 Z" id="path-1"></path>
    </defs>
    <g id="moon" stroke="none" stroke-width="1" fill="none" fill-rule="evenodd">
        <mask id="mask-2" fill="white">
            <use xlink:href="#path-1"></use>
        </mask>
        <g fill-rule="nonzero"></g>
        <g id="🎨-color" mask="url(#mask-2)" fill="#000000">
            <rect id="🎨-Color" x="0" y="0" width="24" height="24"></rect>
        </g>
    </g>
</svg>