<?xml version="1.0" encoding="UTF-8"?>
<svg width="24px" height="24px" viewBox="0 0 24 24" version="1.1" xmlns="http://www.w3.org/2000/svg" xmlns:xlink="http://www.w3.org/1999/xlink">
    <!-- Generator: Sketch 52.5 (67469) - http://www.bohemiancoding.com/sketch -->
    <title>mortar-pestle</title>
    <desc>Created with Sketch.</desc>
    <defs>
        <path d="M21.5914063,4.37929684 C22.2640626,3.70664058 22.0800782,2.5726562 21.2292969,2.14726558 C20.7570266,1.91124619 20.1919576,1.96220371 19.7695313,2.2789062 L11.8082031,8.24999998 L17.7210938,8.24999998 L21.5914063,4.37929684 Z M21.375,9.49999999 L2.62499995,9.49999999 C2.27968745,9.49999999 1.99999995,9.77968749 1.99999995,10.125 L1.99999995,11.375 C1.99999995,11.7203125 2.27968745,12 2.62499995,12 L3.24999996,12 C3.24999996,15.1632813 5.21093747,17.8636719 7.9816406,18.965625 C7.4832031,19.6246094 7.1332031,20.403125 7.00703123,21.2582032 C6.94999997,21.6457032 7.24296873,21.9996094 7.6347656,21.9996094 L16.3652344,21.9996094 C16.7570313,21.9996094 17.05,21.6457032 16.9929688,21.2582032 C16.8671875,20.403125 16.5171875,19.6246094 16.0183594,18.965625 C18.7890625,17.8636719 20.75,15.1632813 20.75,12 L21.375,12 C21.7203125,12 22.0000001,11.7203125 22.0000001,11.375 L22.0000001,10.125 C22.0000001,9.77968749 21.7203125,9.49999999 21.375,9.49999999 Z" id="path-1"></path>
    </defs>
    <g id="mortar-pestle" stroke="none" stroke-width="1" fill="none" fill-rule="evenodd">
        <mask id="mask-2" fill="white">
            <use xlink:href="#path-1"></use>
        </mask>
        <g fill-rule="nonzero"></g>
        <g id="🎨-color" mask="url(#mask-2)" fill="#000000">
            <rect id="🎨-Color" x="0" y="0" width="24" height="24"></rect>
        </g>
    </g>
</svg>