<?xml version="1.0" encoding="UTF-8"?>
<svg width="24px" height="24px" viewBox="0 0 24 24" version="1.1" xmlns="http://www.w3.org/2000/svg" xmlns:xlink="http://www.w3.org/1999/xlink">
    <!-- Generator: Sketch 52.5 (67469) - http://www.bohemiancoding.com/sketch -->
    <title>mosque</title>
    <desc>Created with Sketch.</desc>
    <defs>
        <path d="M1.99999995,19 C1.99999995,19.5521875 2.44781245,20 2.99999995,20 L4.99999996,20 C5.55218747,20 5.99999997,19.5521875 5.99999997,19 L5.99999997,8.99999998 L1.99999995,8.99999998 L1.99999995,19 Z M20.09875,13 C20.656875,12.4565625 21,11.833125 21,11.1590625 C21,9.50718749 19.6940625,8.22812498 18.2525,7.31843748 C16.941875,6.49124997 15.7328125,5.51312497 14.75375,4.31156246 L14.5,3.99999996 L14.24625,4.31156246 C13.2671875,5.51312497 12.0584375,6.49156247 10.7475,7.31843748 C9.30593749,8.22812498 7.99999998,9.50718749 7.99999998,11.1590625 C7.99999998,11.833125 8.34312498,12.4565625 8.90124998,13 L20.09875,13 Z M21,14 L7.99999998,14 C7.44781248,14 6.99999997,14.4478125 6.99999997,15 L6.99999997,19 C6.99999997,19.5521875 7.44781248,20 7.99999998,20 L8.99999998,20 L8.99999998,18 C8.99999998,17.4478125 9.44781249,17 9.99999999,17 C10.5521875,17 11,17.4478125 11,18 L11,20 L13,20 L13,17.75 C13,16.25 14.5,15.5 14.5,15.5 C14.5,15.5 16,16.25 16,17.75 L16,20 L18,20 L18,18 C18,17.4478125 18.4478125,17 19,17 C19.5521875,17 20,17.4478125 20,18 L20,20 L21,20 C21.5521875,20 22.0000001,19.5521875 22.0000001,19 L22.0000001,15 C22.0000001,14.4478125 21.5521875,14 21,14 Z M3.99999996,3.99999996 C3.99999996,3.99999996 1.99999995,4.99999996 1.99999995,6.99999997 L1.99999995,7.99999998 L5.99999997,7.99999998 L5.99999997,6.99999997 C5.99999997,4.99999996 3.99999996,3.99999996 3.99999996,3.99999996 Z" id="path-1"></path>
    </defs>
    <g id="mosque" stroke="none" stroke-width="1" fill="none" fill-rule="evenodd">
        <mask id="mask-2" fill="white">
            <use xlink:href="#path-1"></use>
        </mask>
        <g fill-rule="nonzero"></g>
        <g id="🎨-color" mask="url(#mask-2)" fill="#000000">
            <rect id="🎨-Color" x="0" y="0" width="24" height="24"></rect>
        </g>
    </g>
</svg>