<?xml version="1.0" encoding="UTF-8"?>
<svg width="24px" height="24px" viewBox="0 0 24 24" version="1.1" xmlns="http://www.w3.org/2000/svg" xmlns:xlink="http://www.w3.org/1999/xlink">
    <!-- Generator: Sketch 52.5 (67469) - http://www.bohemiancoding.com/sketch -->
    <title>motorcycle</title>
    <desc>Created with Sketch.</desc>
    <defs>
        <path d="M18.004649,10.0032137 C17.5409361,9.99984398 17.0954446,10.075663 16.6806552,10.2176911 L15.653323,8.5054602 L18.224649,8.5054602 C18.6382216,8.5054602 18.973479,8.17020279 18.973479,7.75663024 L18.973479,6.7581903 C18.973479,6.34461776 18.6382216,6.00936034 18.224649,6.00936034 L16.8108893,6.00936034 C16.598606,6.00936209 16.3962989,6.09946412 16.2542902,6.25725426 L15.0843682,7.55719187 L14.373791,6.37291729 C14.2384582,6.14736525 13.9947067,6.00935781 13.7316693,6.00936034 L11.2355694,6.00936034 C10.959844,6.00936034 10.7363494,6.23285489 10.7363494,6.50858032 L10.7363494,7.00780029 C10.7363494,7.28352572 10.959844,7.50702026 11.2355694,7.50702026 L13.3076755,7.50702026 L13.9067395,8.5054602 L9.11088922,8.5054602 C8.55778469,7.7855538 7.70920435,7.25741027 5.99375972,7.25741027 L4.26333849,7.25741027 C3.8435257,7.25741027 3.48982835,7.60096722 3.49778467,8.02071761 C3.50552258,8.42761309 3.83775347,8.75507019 4.24648982,8.75507019 L5.99375972,8.75507019 C6.75831511,8.75507019 7.20081121,9.09575662 7.48477377,9.5278939 L7.13248047,10.1684243 C6.72667704,10.0478315 6.29407173,9.98945397 5.84539779,10.0058658 C3.74280807,10.0826521 2.0488299,11.800468 2.00106079,13.9039314 C1.94998435,16.1521373 3.75716065,17.9906397 5.99375972,17.9906397 C7.85466457,17.9906397 9.4179095,16.7178159 9.86124804,14.9953198 L12.4895164,14.9953198 C12.916131,14.9953198 13.2567239,14.6389704 13.2375975,14.2128861 C13.1715133,12.7426833 13.7843058,11.2904212 14.9906396,10.3119189 L15.3801872,10.9611544 C14.5175975,11.6991888 13.9731045,12.7982839 13.9814041,14.0244618 C13.9960687,16.1946958 15.7662091,17.969922 17.9364119,17.9904524 C20.1713261,18.0116069 21.9875508,16.1967863 21.968674,13.9624025 C21.9503277,11.7910764 20.1760063,10.0190016 18.004649,10.0032137 Z M5.99375972,16.4929797 C4.61741026,16.4929797 3.49765986,15.3732293 3.49765986,13.9968799 C3.49765986,12.6205304 4.61741026,11.50078 5.99375972,11.50078 C6.12611542,11.50078 6.25600621,11.5114197 6.38280808,11.5314197 L5.08798748,13.8856162 C4.81394692,14.3839938 5.17510137,14.9953198 5.74414973,14.9953198 L8.28071761,14.9953198 C7.89475817,15.8759751 7.01519498,16.4929797 5.99375972,16.4929797 Z M18.1107957,16.4893604 C16.6730733,16.5658971 15.4789392,15.4182215 15.4789392,13.9968799 C15.4789392,13.3303276 15.7420905,12.7244618 16.1692668,12.2763183 L17.7109829,14.8458034 C17.8528237,15.0822153 18.1595008,15.1588768 18.3959127,15.0170359 L18.8239938,14.7601872 C19.0604057,14.6183463 19.1370671,14.3116693 18.9952262,14.0752574 L17.4802184,11.550234 C17.6431014,11.5173204 17.8088639,11.5007536 17.975039,11.50078 C19.3963807,11.50078 20.5440874,12.6949454 20.4675195,14.1326677 C20.4001248,15.3981279 19.3762871,16.4219657 18.1107957,16.4893604 Z" id="path-1"></path>
    </defs>
    <g id="motorcycle" stroke="none" stroke-width="1" fill="none" fill-rule="evenodd">
        <mask id="mask-2" fill="white">
            <use xlink:href="#path-1"></use>
        </mask>
        <g fill-rule="nonzero"></g>
        <g id="🎨-color" mask="url(#mask-2)" fill="#000000">
            <rect id="🎨-Color" x="0" y="0" width="24" height="24"></rect>
        </g>
    </g>
</svg>