<?xml version="1.0" encoding="UTF-8"?>
<svg width="24px" height="24px" viewBox="0 0 24 24" version="1.1" xmlns="http://www.w3.org/2000/svg" xmlns:xlink="http://www.w3.org/1999/xlink">
    <!-- Generator: Sketch 52.5 (67469) - http://www.bohemiancoding.com/sketch -->
    <title>music</title>
    <desc>Created with Sketch.</desc>
    <defs>
        <path d="M21.980117,3.28693953 C21.980117,2.44054576 21.1575049,1.84405453 20.3582846,2.09746584 L7.88304092,5.78167638 C7.36452239,5.94541907 7.00974656,6.42495124 7.00974656,6.97076021 L7.00974656,17.1625731 C6.6179337,17.0697856 6.20194929,17.0097466 5.7621832,17.0097466 C3.69512666,17.0097466 2.01949313,18.1267057 2.01949313,19.5048733 C2.01949313,20.883041 3.69512666,22.0000001 5.7621832,22.0000001 C7.82923975,22.0000001 9.50487328,20.883041 9.50487328,19.5048733 L9.50487328,10.394152 L19.4853802,7.46939569 L19.4853802,14.6674464 C19.0935673,14.5746589 18.6775829,14.5146199 18.2378168,14.5146199 C16.1707603,14.5146199 14.4951267,15.631579 14.4951267,17.0097466 C14.4951267,18.3879143 16.1707603,19.5048733 18.2378168,19.5048733 C20.3048733,19.5048733 21.9805069,18.3879143 21.9805069,17.0097466 L21.980117,3.28693953 Z" id="path-1"></path>
    </defs>
    <g id="music" stroke="none" stroke-width="1" fill="none" fill-rule="evenodd">
        <mask id="mask-2" fill="white">
            <use xlink:href="#path-1"></use>
        </mask>
        <g></g>
        <g id="🎨-color" mask="url(#mask-2)" fill="#000000">
            <rect id="🎨-Color" x="0" y="0" width="24" height="24"></rect>
        </g>
    </g>
</svg>