<?xml version="1.0" encoding="UTF-8"?>
<svg width="24px" height="24px" viewBox="0 0 24 24" version="1.1" xmlns="http://www.w3.org/2000/svg" xmlns:xlink="http://www.w3.org/1999/xlink">
    <!-- Generator: Sketch 52.5 (67469) - http://www.bohemiancoding.com/sketch -->
    <title>napster</title>
    <desc>Created with Sketch.</desc>
    <defs>
        <path d="M13.9648438,16.59375 C13.4101563,17.125 12.7421875,17.5351563 11.9960937,17.7851563 C11.2539062,17.5351563 10.5820312,17.125 10.03125,16.59375 L13.9648438,16.59375 Z M15.6835938,8.79687498 C16.4648438,8.13671873 17.3867188,7.65624998 18.4023438,7.38281248 L18.4023438,13.6796875 C18.4023438,22.2500001 5.58984372,22.1796876 5.58984372,13.6914063 L5.58984372,7.37890623 C6.60156247,7.64843748 7.52734373,8.14453123 8.30468748,8.80078123 C10.5234375,7.23828123 13.4804688,7.24218748 15.6835938,8.79687498 Z M7.52734373,6.51171872 C10.0429687,4.16796871 13.9453125,4.16406246 16.46875,6.50390622 C16.1914063,6.64062497 15.9257813,6.78906247 15.6640625,6.95312497 C13.3710938,5.76171872 10.6171875,5.76562497 8.32421873,6.95703122 C8.07812498,6.80078122 7.78124998,6.63671872 7.52734373,6.51171872 Z M4.02343746,5.64062497 L4.02343746,8.34765623 C1.74218745,9.77343749 1.74218745,13.078125 4.02734371,14.53125 C5.05859372,24.1054688 18.9375,23.9179688 19.9492188,14.5898438 L19.9609375,14.5234375 C22.2539063,13.1054688 22.2617188,9.76953124 19.96875,8.34374998 L19.96875,5.64062497 C19.2929688,5.66015622 18.640625,5.75781247 18.0117188,5.92968747 C14.8085938,2.3554687 9.20312499,2.3554687 5.99999997,5.93359372 C5.36328122,5.76171872 4.70703121,5.66015622 4.02343746,5.64062497 Z M12.4375,15.75 C12.4375,15.75 13.84375,15.7382813 14.8320313,15.6914063 C15.2304688,15.671875 15.65625,15.5351563 15.828125,15.4375 C16.8554688,14.8476563 16.8203125,13.90625 16.8515625,13.5859375 C13.7460938,13.5625 12.9492188,13.4335938 12.4375,15.75 Z M7.14453123,13.5898438 C7.17578123,13.9101563 7.14062498,14.8515625 8.16796873,15.4414063 C8.33984373,15.5390625 8.76171873,15.6757813 9.16406249,15.6953125 C10.1523437,15.7382813 11.5585937,15.7539063 11.5585937,15.7539063 C11.0429687,13.4335938 10.2421875,13.5625 7.14453123,13.5898438 Z M13.75,18.4101563 C13.625,18.203125 13.4804688,18.125 13.4804688,18.125 C12.5117188,18.4101563 11.4414062,18.3945313 10.515625,18.125 C10.515625,18.125 10.4023437,18.1835938 10.265625,18.3828125 C10.15625,18.5429688 10.1210937,18.7578125 10.1210937,18.7578125 C11.2578125,19.4453125 12.7421875,19.4453125 13.8789063,18.7578125 C13.875,18.7539063 13.8671875,18.6015625 13.75,18.4101563 Z" id="path-1"></path>
    </defs>
    <g id="napster" stroke="none" stroke-width="1" fill="none" fill-rule="evenodd">
        <mask id="mask-2" fill="white">
            <use xlink:href="#path-1"></use>
        </mask>
        <g fill-rule="nonzero"></g>
        <g id="🎨-color" mask="url(#mask-2)" fill="#000000">
            <rect id="🎨-Color" x="0" y="0" width="24" height="24"></rect>
        </g>
    </g>
</svg>