<?xml version="1.0" encoding="UTF-8"?>
<svg width="24px" height="24px" viewBox="0 0 24 24" version="1.1" xmlns="http://www.w3.org/2000/svg" xmlns:xlink="http://www.w3.org/1999/xlink">
    <!-- Generator: Sketch 52.5 (67469) - http://www.bohemiancoding.com/sketch -->
    <title>neos</title>
    <desc>Created with Sketch.</desc>
    <defs>
        <path d="M18.2085938,22.0000001 L14.4933594,22.0000001 L10.2664062,15.9632813 L10.2664062,19.521875 L6.89023435,22.0000001 L3.07421871,22.0000001 L3.07421871,3.16484371 L4.65507809,1.99999995 L8.87578123,1.99999995 L13.709375,8.88007811 L13.709375,4.47851559 L17.0855469,1.99999995 L20.9015625,1.99999995 L20.9015625,20.0273438 L18.2085938,22.0000001 Z M3.49492183,3.37773433 L3.49492183,21.3746094 L6.30781247,19.3089844 L6.30781247,9.57617186 L14.7253906,21.5953125 L18.0375,21.5953125 L20.0824219,20.1042969 L17.025,20.1042969 L4.67421871,2.5070312 L3.49492183,3.37773433 Z M6.7191406,21.6046875 L9.84570311,19.3085938 L9.84570311,15.3617188 L6.7285156,10.8945312 L6.7285156,19.525 L3.89335933,21.6050782 L6.7191406,21.6050782 L6.7191406,21.6046875 Z M5.13007809,2.42070308 L17.2628907,19.7085938 L20.4804688,19.7085938 L20.4804688,2.42070308 L17.3652344,2.42070308 L17.3652344,14.8253906 L8.65664061,2.42070308 L5.13007809,2.42070308 Z M14.1300781,9.48632811 L16.9429688,13.5023438 L16.9429688,2.62226558 L14.1300781,4.69101559 L14.1300781,9.48632811 Z" id="path-1"></path>
    </defs>
    <g id="neos" stroke="none" stroke-width="1" fill="none" fill-rule="evenodd">
        <mask id="mask-2" fill="white">
            <use xlink:href="#path-1"></use>
        </mask>
        <g fill-rule="nonzero"></g>
        <g id="🎨-color" mask="url(#mask-2)" fill="#000000">
            <rect id="🎨-Color" x="0" y="0" width="24" height="24"></rect>
        </g>
    </g>
</svg>