<?xml version="1.0" encoding="UTF-8"?>
<svg width="24px" height="24px" viewBox="0 0 24 24" version="1.1" xmlns="http://www.w3.org/2000/svg" xmlns:xlink="http://www.w3.org/1999/xlink">
    <!-- Generator: Sketch 52.5 (67469) - http://www.bohemiancoding.com/sketch -->
    <title>network-wired</title>
    <desc>Created with Sketch.</desc>
    <defs>
        <path d="M22.0000001,12.25 L22.0000001,11.75 C22.0000001,11.47375 21.77625,11.25 21.5,11.25 L12.75,11.25 L12.75,9.99999999 L15,9.99999999 C15.5521875,9.99999999 16,9.55218749 16,8.99999999 L16,4.99999996 C16,4.44781246 15.5521875,3.99999996 15,3.99999996 L8.99999998,3.99999996 C8.44781248,3.99999996 7.99999998,4.44781246 7.99999998,4.99999996 L7.99999998,8.99999999 C7.99999998,9.55218749 8.44781248,9.99999999 8.99999998,9.99999999 L11.25,9.99999999 L11.25,11.25 L2.49999995,11.25 C2.22374995,11.25 1.99999995,11.47375 1.99999995,11.75 L1.99999995,12.25 C1.99999995,12.52625 2.22374995,12.75 2.49999995,12.75 L5.74999997,12.75 L5.74999997,14 L3.99999996,14 C3.44781246,14 2.99999995,14.4478125 2.99999995,15 L2.99999995,19 C2.99999995,19.5521875 3.44781246,20 3.99999996,20 L8.99999998,20 C9.55218749,20 9.99999999,19.5521875 9.99999999,19 L9.99999999,15 C9.99999999,14.4478125 9.55218749,14 8.99999998,14 L7.24999998,14 L7.24999998,12.75 L16.75,12.75 L16.75,14 L15,14 C14.4478125,14 14,14.4478125 14,15 L14,19 C14,19.5521875 14.4478125,20 15,20 L20,20 C20.5521875,20 21,19.5521875 21,19 L21,15 C21,14.4478125 20.5521875,14 20,14 L18.25,14 L18.25,12.75 L21.5,12.75 C21.77625,12.75 22.0000001,12.52625 22.0000001,12.25 Z M9.99999999,7.99999998 L9.99999999,5.99999997 L14,5.99999997 L14,7.99999998 L9.99999999,7.99999998 Z M7.99999998,18 L4.99999996,18 L4.99999996,16 L7.99999998,16 L7.99999998,18 Z M19,18 L16,18 L16,16 L19,16 L19,18 Z" id="path-1"></path>
    </defs>
    <g id="network-wired" stroke="none" stroke-width="1" fill="none" fill-rule="evenodd">
        <mask id="mask-2" fill="white">
            <use xlink:href="#path-1"></use>
        </mask>
        <g fill-rule="nonzero"></g>
        <g id="🎨-color" mask="url(#mask-2)" fill="#000000">
            <rect id="🎨-Color" x="0" y="0" width="24" height="24"></rect>
        </g>
    </g>
</svg>