<?xml version="1.0" encoding="UTF-8"?>
<svg width="24px" height="24px" viewBox="0 0 24 24" version="1.1" xmlns="http://www.w3.org/2000/svg" xmlns:xlink="http://www.w3.org/1999/xlink">
    <!-- Generator: Sketch 52.5 (67469) - http://www.bohemiancoding.com/sketch -->
    <title>newspaper</title>
    <desc>Created with Sketch.</desc>
    <defs>
        <path d="M21.1666667,5.3333333 L5.88888886,5.3333333 C5.16465274,5.3333333 4.54711802,5.79781247 4.31777774,6.44444442 L2.83333329,6.44444442 C2.37309023,6.44444442 1.99999995,6.8175347 1.99999995,7.27777775 L1.99999995,16.7222222 C1.99999995,17.7961111 2.87055551,18.6666667 3.9444444,18.6666667 L21.1666667,18.6666667 C21.6269098,18.6666667 22.0000001,18.2935764 22.0000001,17.8333334 L22.0000001,6.16666664 C22.0000001,5.70642358 21.6269098,5.3333333 21.1666667,5.3333333 Z M3.66666662,16.7222222 L3.66666662,8.11111109 L4.22222218,8.11111109 L4.22222218,16.7222222 C4.22222218,16.875382 4.09760413,17 3.9444444,17 C3.79128468,17 3.66666662,16.875382 3.66666662,16.7222222 Z M20.3333334,17 L5.86881941,17 C5.88180552,16.9092361 5.88888886,16.8165625 5.88888886,16.7222222 L5.88888886,6.99999997 L20.3333334,6.99999997 L20.3333334,17 Z M7.9722222,12.8333333 L12.6944444,12.8333333 C12.9245486,12.8333333 13.1111111,12.6467708 13.1111111,12.4166667 L13.1111111,9.08333332 C13.1111111,8.85322915 12.9245486,8.66666665 12.6944444,8.66666665 L7.9722222,8.66666665 C7.74211803,8.66666665 7.55555553,8.85322915 7.55555553,9.08333332 L7.55555553,12.4166667 C7.55555553,12.6467708 7.74211803,12.8333333 7.9722222,12.8333333 Z M8.94444443,10.0555555 L11.7222222,10.0555555 L11.7222222,11.4444444 L8.94444443,11.4444444 L8.94444443,10.0555555 Z M7.55555553,14.9166667 L7.55555553,14.0833333 C7.55555553,13.8532292 7.74211803,13.6666667 7.9722222,13.6666667 L12.6944444,13.6666667 C12.9245486,13.6666667 13.1111111,13.8532292 13.1111111,14.0833333 L13.1111111,14.9166667 C13.1111111,15.1467708 12.9245486,15.3333333 12.6944444,15.3333333 L7.9722222,15.3333333 C7.74211803,15.3333333 7.55555553,15.1467708 7.55555553,14.9166667 Z M14.2222222,14.9166667 L14.2222222,14.0833333 C14.2222222,13.8532292 14.4087847,13.6666667 14.6388889,13.6666667 L18.25,13.6666667 C18.4801042,13.6666667 18.6666667,13.8532292 18.6666667,14.0833333 L18.6666667,14.9166667 C18.6666667,15.1467708 18.4801042,15.3333333 18.25,15.3333333 L14.6388889,15.3333333 C14.4087847,15.3333333 14.2222222,15.1467708 14.2222222,14.9166667 Z M14.2222222,9.91666666 L14.2222222,9.08333332 C14.2222222,8.85322915 14.4087847,8.66666665 14.6388889,8.66666665 L18.25,8.66666665 C18.4801042,8.66666665 18.6666667,8.85322915 18.6666667,9.08333332 L18.6666667,9.91666666 C18.6666667,10.1467708 18.4801042,10.3333333 18.25,10.3333333 L14.6388889,10.3333333 C14.4087847,10.3333333 14.2222222,10.1467708 14.2222222,9.91666666 Z M14.2222222,12.4166667 L14.2222222,11.5833333 C14.2222222,11.3532292 14.4087847,11.1666667 14.6388889,11.1666667 L18.25,11.1666667 C18.4801042,11.1666667 18.6666667,11.3532292 18.6666667,11.5833333 L18.6666667,12.4166667 C18.6666667,12.6467708 18.4801042,12.8333333 18.25,12.8333333 L14.6388889,12.8333333 C14.4087847,12.8333333 14.2222222,12.6467708 14.2222222,12.4166667 Z" id="path-1"></path>
    </defs>
    <g id="newspaper" stroke="none" stroke-width="1" fill="none" fill-rule="evenodd">
        <mask id="mask-2" fill="white">
            <use xlink:href="#path-1"></use>
        </mask>
        <g fill-rule="nonzero"></g>
        <g id="🎨-color" mask="url(#mask-2)" fill="#000000">
            <rect id="🎨-Color" x="0" y="0" width="24" height="24"></rect>
        </g>
    </g>
</svg>