<?xml version="1.0" encoding="UTF-8"?>
<svg width="24px" height="24px" viewBox="0 0 24 24" version="1.1" xmlns="http://www.w3.org/2000/svg" xmlns:xlink="http://www.w3.org/1999/xlink">
    <!-- Generator: Sketch 52.5 (67469) - http://www.bohemiancoding.com/sketch -->
    <title>nimblr</title>
    <desc>Created with Sketch.</desc>
    <defs>
        <path d="M14.1328125,13.6910156 C14.7410156,13.6910156 15.1933594,14.1386719 15.1933594,14.7441406 C15.1933594,15.3515625 14.7394531,15.7972656 14.1328125,15.7972656 C13.5195313,15.7972656 13.0722656,15.3453125 13.0722656,14.7441406 C13.0722656,14.1382813 13.5246094,13.6910156 14.1328125,13.6910156 Z M8.91445311,14.7441406 C8.91445311,14.134375 9.37070311,13.6910156 9.97499999,13.6910156 C10.5832031,13.6910156 11.0355469,14.1386719 11.0355469,14.7441406 C11.0355469,15.3460938 10.5875,15.7972656 9.97499999,15.7972656 C9.37187499,15.7972656 8.91445311,15.3554688 8.91445311,14.7441406 Z M11.990625,8.20898436 C10.6328125,8.20898436 7.9941406,8.98320311 6.8144531,10.8671875 L5.04687497,1.99999995 L5.04687497,15.1046875 C5.04687497,18.9191407 8.15664061,22.0000001 11.990625,22.0000001 C15.828125,22.0000001 18.934375,18.9160157 18.934375,15.1046875 C18.934375,11.2976562 15.8332031,8.20898436 11.990625,8.20898436 Z M11.990625,20.2449219 C9.12851561,20.2449219 6.8144531,17.9441407 6.8144531,15.1046875 C6.8144531,12.265625 9.12851561,9.96445311 11.990625,9.96445311 C14.8527344,9.96445311 17.1667969,12.265625 17.1667969,15.1046875 C17.1667969,17.94375 14.8523438,20.2449219 11.990625,20.2449219 Z" id="path-1"></path>
    </defs>
    <g id="nimblr" stroke="none" stroke-width="1" fill="none" fill-rule="evenodd">
        <mask id="mask-2" fill="white">
            <use xlink:href="#path-1"></use>
        </mask>
        <g fill-rule="nonzero"></g>
        <g id="🎨-color" mask="url(#mask-2)" fill="#000000">
            <rect id="🎨-Color" x="0" y="0" width="24" height="24"></rect>
        </g>
    </g>
</svg>