<?xml version="1.0" encoding="UTF-8"?>
<svg width="24px" height="24px" viewBox="0 0 24 24" version="1.1" xmlns="http://www.w3.org/2000/svg" xmlns:xlink="http://www.w3.org/1999/xlink">
    <!-- Generator: Sketch 52.5 (67469) - http://www.bohemiancoding.com/sketch -->
    <title>nintendo-switch</title>
    <desc>Created with Sketch.</desc>
    <defs>
        <path d="M6.97656247,3.30859371 C5.23437497,3.62109371 3.83203121,4.91015621 3.39062496,6.60546872 C3.23046871,7.21874998 3.21874996,7.57812498 3.23828121,12.328125 C3.24609371,16.6875 3.24999996,16.7890625 3.32421871,17.1289063 C3.72656246,18.9453125 5.01562497,20.2382813 6.85156247,20.6640625 C7.08984373,20.71875 7.39453123,20.7304688 9.35546874,20.7382813 C11.3828125,20.7539063 11.59375,20.75 11.6484375,20.6953125 C11.703125,20.640625 11.7070312,19.9414063 11.7070312,12.015625 C11.7070312,6.13671872 11.6953125,3.37109371 11.671875,3.32031246 C11.6367187,3.25390621 11.5742187,3.24999996 9.44921874,3.25390621 C7.72265623,3.25781246 7.20312498,3.26953121 6.97656247,3.30859371 Z M10.2539062,12.0039063 L10.2539062,19.34375 L8.77734373,19.3242188 C7.41796873,19.3085938 7.27343748,19.3007813 6.99999997,19.234375 C5.83203122,18.9335938 4.96874996,18.0351563 4.72265621,16.8632813 C4.64453121,16.4960938 4.64453121,7.48437498 4.71874996,7.12499998 C4.93749996,6.10546872 5.64453122,5.26171872 6.59374997,4.88281246 C7.07031248,4.69140621 7.29296873,4.66796871 8.84374998,4.66406246 L10.2460937,4.66015621 L10.2460937,12.0039063 L10.2539062,12.0039063 Z M7.28906248,6.87890622 C7.06249998,6.92187497 6.71484372,7.09765623 6.52734372,7.25781248 C6.14843747,7.58593748 5.95703122,8.05468748 5.98828122,8.60546873 C6.00390622,8.89062498 6.01953122,8.96874998 6.13671872,9.19921874 C6.30859372,9.55078124 6.56249997,9.80859374 6.91406247,9.98046874 C7.15624998,10.1015625 7.21874998,10.1132812 7.53515623,10.125 C7.82031248,10.1367187 7.92187498,10.125 8.11328123,10.0585937 C8.89843748,9.79296874 9.37499999,9.03124999 9.23828124,8.24609373 C9.08593749,7.32031248 8.19921873,6.69531247 7.28906248,6.87890622 Z M13.46875,3.27343746 C13.453125,3.28515621 13.4453125,7.21093748 13.4453125,12.0039063 C13.4453125,19.90625 13.4492188,20.7070313 13.5039063,20.7304688 C13.6015625,20.765625 16.4140625,20.7539063 16.7617188,20.7148438 C18.234375,20.546875 19.5351563,19.6523438 20.2382813,18.3242188 C20.328125,18.1523438 20.4492188,17.8671875 20.5117188,17.6914063 C20.7382813,17.0117188 20.734375,17.1914063 20.734375,11.984375 C20.734375,7.82812498 20.7265625,7.20703123 20.6757813,6.94531247 C20.3164063,5.05859372 18.875,3.63281246 16.984375,3.30859371 C16.7304688,3.26562496 16.3398438,3.25390621 15.078125,3.25390621 C14.203125,3.24999996 13.4804688,3.26171871 13.46875,3.27343746 Z M17.3398438,11.1679687 C17.90625,11.3164062 18.3671875,11.7460937 18.5585938,12.296875 C18.6796875,12.6367188 18.6757813,13.1367188 18.5546875,13.4492188 C18.3320313,14.0234375 17.8984375,14.4257813 17.3398438,14.5742188 C16.4335938,14.8085938 15.46875,14.2617188 15.2070313,13.3632813 C15.1289063,13.0898438 15.1328125,12.625 15.2226563,12.3398438 C15.4921875,11.453125 16.4335938,10.9296875 17.3398438,11.1679687 Z" id="path-1"></path>
    </defs>
    <g id="nintendo-switch" stroke="none" stroke-width="1" fill="none" fill-rule="evenodd">
        <mask id="mask-2" fill="white">
            <use xlink:href="#path-1"></use>
        </mask>
        <g fill-rule="nonzero"></g>
        <g id="🎨-color" mask="url(#mask-2)" fill="#000000">
            <rect id="🎨-Color" x="0" y="0" width="24" height="24"></rect>
        </g>
    </g>
</svg>