<?xml version="1.0" encoding="UTF-8"?>
<svg width="24px" height="24px" viewBox="0 0 24 24" version="1.1" xmlns="http://www.w3.org/2000/svg" xmlns:xlink="http://www.w3.org/1999/xlink">
    <!-- Generator: Sketch 52.5 (67469) - http://www.bohemiancoding.com/sketch -->
    <title>node-js</title>
    <desc>Created with Sketch.</desc>
    <defs>
        <path d="M12,21.84375 C11.7382812,21.84375 11.4726562,21.7734375 11.2421875,21.640625 L8.83203123,20.2148438 C8.47265623,20.0117188 8.64843748,19.9414063 8.76562498,19.9023438 C9.24609374,19.734375 9.34374999,19.6992188 9.85546874,19.40625 C9.91015624,19.375 9.98046874,19.3867188 10.0351562,19.421875 L11.8867187,20.5195313 C11.953125,20.5585938 12.046875,20.5585938 12.109375,20.5195313 L19.3242188,16.3554688 C19.390625,16.3164063 19.4335938,16.2382813 19.4335938,16.1601563 L19.4335938,7.83203123 C19.4335938,7.74999998 19.390625,7.67578123 19.3203125,7.63281248 L12.109375,3.47265621 C12.0429688,3.43359371 11.953125,3.43359371 11.8867187,3.47265621 L4.67968746,7.63671873 C4.60937496,7.67578123 4.56640621,7.75390623 4.56640621,7.83593748 L4.56640621,16.1601563 C4.56640621,16.2382813 4.60937496,16.3164063 4.67968746,16.3515625 L6.65624997,17.4921875 C7.73046873,18.0273438 8.38671873,17.3984375 8.38671873,16.7617188 L8.38671873,8.54296873 C8.38671873,8.42578123 8.48046873,8.33593748 8.59765623,8.33593748 L9.51171874,8.33593748 C9.62499999,8.33593748 9.72265624,8.42578123 9.72265624,8.54296873 L9.72265624,16.765625 C9.72265624,18.1953125 8.94140623,19.015625 7.58593748,19.015625 C7.16796873,19.015625 6.83984372,19.015625 5.92578122,18.5625 L4.03515621,17.4726563 C3.56640621,17.203125 3.27734371,16.6992188 3.27734371,16.15625 L3.27734371,7.83203123 C3.27734371,7.29296873 3.56640621,6.78515622 4.03515621,6.51562497 L11.2421875,2.35156245 C11.6992187,2.09374995 12.3046875,2.09374995 12.7578125,2.35156245 L19.9726563,6.51953122 C20.4414063,6.78906247 20.7304688,7.29296873 20.7304688,7.83593748 L20.7304688,16.1601563 C20.7304688,16.6992188 20.4414063,17.203125 19.9726563,17.4765625 L12.7578125,21.640625 C12.5273438,21.7734375 12.265625,21.84375 12,21.84375 Z M17.8242188,13.6367188 C17.8242188,12.078125 16.7695313,11.6640625 14.5546875,11.3710937 C12.3125,11.0742187 12.0859375,10.921875 12.0859375,10.3984375 C12.0859375,9.96484374 12.2773438,9.38671874 13.9375,9.38671874 C15.4179688,9.38671874 15.9648438,9.70703124 16.1914063,10.7070312 C16.2109375,10.8007812 16.296875,10.8710937 16.3945313,10.8710937 L17.3320313,10.8710937 C17.390625,10.8710937 17.4453125,10.8476562 17.484375,10.8046875 C17.5234375,10.7617187 17.5429688,10.703125 17.5390625,10.6445312 C17.3945313,8.92187498 16.25,8.12109373 13.9375,8.12109373 C11.8789062,8.12109373 10.6523437,8.98828123 10.6523437,10.4453125 C10.6523437,12.0234375 11.875,12.4609375 13.8476563,12.65625 C16.2109375,12.8867188 16.3945313,13.234375 16.3945313,13.6992188 C16.3945313,14.5039063 15.7460938,14.8476563 14.2265625,14.8476563 C12.3164063,14.8476563 11.8984375,14.3671875 11.7578125,13.4179688 C11.7421875,13.3164063 11.65625,13.2421875 11.5507812,13.2421875 L10.6171875,13.2421875 C10.5,13.2421875 10.4101562,13.3359375 10.4101562,13.4492188 C10.4101562,14.6640625 11.0703125,16.1132813 14.2304688,16.1132813 C16.5117188,16.109375 17.8242188,15.2070313 17.8242188,13.6367188 Z" id="path-1"></path>
    </defs>
    <g id="node-js" stroke="none" stroke-width="1" fill="none" fill-rule="evenodd">
        <mask id="mask-2" fill="white">
            <use xlink:href="#path-1"></use>
        </mask>
        <g fill-rule="nonzero"></g>
        <g id="🎨-color" mask="url(#mask-2)" fill="#000000">
            <rect id="🎨-Color" x="0" y="0" width="24" height="24"></rect>
        </g>
    </g>
</svg>