<?xml version="1.0" encoding="UTF-8"?>
<svg width="24px" height="24px" viewBox="0 0 24 24" version="1.1" xmlns="http://www.w3.org/2000/svg" xmlns:xlink="http://www.w3.org/1999/xlink">
    <!-- Generator: Sketch 52.5 (67469) - http://www.bohemiancoding.com/sketch -->
    <title>node</title>
    <desc>Created with Sketch.</desc>
    <defs>
        <path d="M11.884375,18.125 C11.81875,18.125 11.753125,18.10625 11.69375,18.075 L11.09375,17.71875 C11.003125,17.66875 11.046875,17.65 11.078125,17.640625 C11.196875,17.6 11.221875,17.590625 11.35,17.515625 C11.3625,17.509375 11.38125,17.5125 11.39375,17.51875 L11.85625,17.79375 C11.871875,17.803125 11.896875,17.803125 11.9125,17.79375 L13.71875,16.75 C13.734375,16.740625 13.746875,16.721875 13.746875,16.7 L13.746875,14.615625 C13.746875,14.59375 13.7375,14.575 13.71875,14.565625 L11.9125,13.525 C11.896875,13.515625 11.875,13.515625 11.85625,13.525 L10.05,14.565625 C10.03125,14.575 10.021875,14.596875 10.021875,14.615625 L10.021875,16.7 C10.021875,16.71875 10.034375,16.7375 10.05,16.746875 L10.54375,17.03125 C10.8125,17.165625 10.978125,17.00625 10.978125,16.85 L10.978125,14.790625 C10.978125,14.7625 11,14.7375 11.03125,14.7375 L11.259375,14.7375 C11.2875,14.7375 11.3125,14.759375 11.3125,14.790625 L11.3125,16.85 C11.3125,17.209375 11.11875,17.4125 10.778125,17.4125 C10.675,17.4125 10.590625,17.4125 10.3625,17.3 L9.88749999,17.028125 C9.77187499,16.959375 9.69687499,16.834375 9.69687499,16.7 L9.69687499,14.615625 C9.69687499,14.48125 9.76874999,14.353125 9.88749999,14.2875 L11.69375,13.24375 C11.809375,13.178125 11.959375,13.178125 12.071875,13.24375 L13.878125,14.2875 C13.99375,14.35625 14.06875,14.48125 14.06875,14.615625 L14.06875,16.7 C14.06875,16.834375 13.996875,16.9625 13.878125,17.028125 L12.071875,18.071875 C12.01875,18.10625 11.953125,18.125 11.884375,18.125 Z M13.34375,16.06875 C13.34375,15.678125 13.08125,15.575 12.525,15.5 C11.9625,15.425 11.90625,15.3875 11.90625,15.25625 C11.90625,15.146875 11.953125,15.003125 12.36875,15.003125 C12.740625,15.003125 12.878125,15.084375 12.934375,15.334375 C12.940625,15.359375 12.959375,15.375 12.984375,15.375 L13.21875,15.375 C13.234375,15.375 13.246875,15.36875 13.25625,15.359375 C13.265625,15.346875 13.271875,15.334375 13.26875,15.31875 C13.23125,14.8875 12.946875,14.6875 12.36875,14.6875 C11.853125,14.6875 11.546875,14.90625 11.546875,15.26875 C11.546875,15.665625 11.853125,15.771875 12.346875,15.821875 C12.9375,15.88125 12.984375,15.965625 12.984375,16.08125 C12.984375,16.284375 12.821875,16.36875 12.440625,16.36875 C11.9625,16.36875 11.85625,16.25 11.821875,16.0125 C11.81875,15.9875 11.796875,15.96875 11.76875,15.96875 L11.534375,15.96875 C11.50625,15.96875 11.48125,15.990625 11.48125,16.021875 C11.48125,16.325 11.646875,16.6875 12.4375,16.6875 C13.015625,16.6875 13.34375,16.4625 13.34375,16.06875 Z M15.046875,14.503125 C15.046875,14.69375 14.890625,14.85 14.7,14.85 C14.509375,14.85 14.353125,14.69375 14.353125,14.503125 C14.353125,14.30625 14.515625,14.15625 14.7,14.15625 C14.8875,14.153125 15.046875,14.30625 15.046875,14.503125 Z M14.990625,14.503125 C14.990625,14.340625 14.859375,14.2125 14.696875,14.2125 C14.5375,14.2125 14.40625,14.340625 14.40625,14.503125 C14.40625,14.665625 14.5375,14.796875 14.696875,14.796875 C14.859375,14.79375 14.990625,14.6625 14.990625,14.503125 Z M14.85,14.696875 L14.76875,14.696875 C14.765625,14.678125 14.753125,14.578125 14.753125,14.575 C14.746875,14.553125 14.740625,14.540625 14.7125,14.540625 L14.64375,14.540625 L14.64375,14.696875 L14.56875,14.696875 L14.56875,14.30625 L14.703125,14.30625 C14.75,14.30625 14.840625,14.30625 14.840625,14.409375 C14.840625,14.48125 14.79375,14.496875 14.765625,14.50625 C14.81875,14.509375 14.821875,14.54375 14.83125,14.59375 C14.834375,14.625 14.840625,14.678125 14.85,14.696875 Z M14.7625,14.421875 C14.7625,14.36875 14.725,14.36875 14.70625,14.36875 L14.64375,14.36875 L14.64375,14.478125 L14.703125,14.478125 C14.753125,14.478125 14.7625,14.44375 14.7625,14.421875 Z M6.29062497,9.96874999 C6.29062497,9.88437499 6.24687497,9.80937499 6.17499997,9.76874999 L4.25937496,8.66562498 C4.22812496,8.64687498 4.19062496,8.63749998 4.15312496,8.63437498 L4.13437496,8.63437498 C4.09687496,8.63437498 4.06249996,8.64687498 4.02812496,8.66562498 L2.11562495,9.76874999 C2.04374995,9.80937499 1.99999995,9.88749999 1.99999995,9.96874999 L2.00312495,12.9375 C2.00312495,12.978125 2.02499995,13.015625 2.05937495,13.0375 C2.09374995,13.059375 2.13749995,13.059375 2.17499995,13.0375 L3.31249996,12.384375 C3.38437496,12.340625 3.42812496,12.265625 3.42812496,12.184375 L3.42812496,10.796875 C3.42812496,10.715625 3.47187496,10.6375 3.54374996,10.596875 L4.02812496,10.31875 C4.06562496,10.296875 4.10312496,10.2875 4.14374996,10.2875 C4.18437496,10.2875 4.22499996,10.296875 4.25937496,10.31875 L4.74374996,10.596875 C4.81562496,10.6375 4.85937496,10.715625 4.85937496,10.796875 L4.85937496,12.184375 C4.85937496,12.265625 4.90312496,12.34375 4.97499996,12.384375 L6.11249997,13.0375 C6.14687497,13.059375 6.19374997,13.059375 6.22812497,13.0375 C6.26249997,13.01875 6.28437497,12.978125 6.28437497,12.9375 L6.29062497,9.96874999 Z M16.765625,6.72812497 L16.765625,12.240625 C16.765625,12.321875 16.721875,12.4 16.65,12.440625 L14.734375,13.546875 C14.6625,13.5875 14.575,13.5875 14.503125,13.546875 L12.5875,12.440625 C12.515625,12.4 12.471875,12.321875 12.471875,12.240625 L12.471875,10.028125 C12.471875,9.94687499 12.515625,9.86874999 12.5875,9.82812499 L14.503125,8.72187498 C14.575,8.68124998 14.6625,8.68124998 14.734375,8.72187498 L15.2125,8.99687498 C15.265625,9.02812499 15.334375,8.98749998 15.334375,8.92812498 L15.334375,5.99062497 C15.334375,5.90312497 15.428125,5.84687497 15.50625,5.89062497 L16.646875,6.52812497 C16.71875,6.56562497 16.765625,6.64374997 16.765625,6.72812497 Z M15.328125,10.75625 C15.328125,10.734375 15.315625,10.715625 15.3,10.70625 L14.64375,10.325 C14.625,10.315625 14.603125,10.315625 14.584375,10.325 L13.928125,10.70625 C13.909375,10.715625 13.9,10.734375 13.9,10.75625 L13.9,11.515625 C13.9,11.5375 13.9125,11.55625 13.928125,11.565625 L14.584375,11.94375 C14.603125,11.953125 14.625,11.953125 14.640625,11.94375 L15.296875,11.565625 C15.315625,11.55625 15.325,11.5375 15.325,11.515625 L15.325,10.75625 L15.328125,10.75625 Z M21.884375,10.734375 C21.95625,10.69375 22.0000001,10.615625 22.0000001,10.534375 L22.0000001,9.99999999 C22.0000001,9.91874999 21.95625,9.84062499 21.884375,9.79999999 L19.98125,8.69374998 C19.909375,8.65312498 19.821875,8.65312498 19.75,8.69374998 L17.834375,9.79999999 C17.7625,9.84062499 17.71875,9.91874999 17.71875,9.99999999 L17.71875,12.2125 C17.71875,12.296875 17.7625,12.371875 17.834375,12.4125 L19.7375,13.496875 C19.80625,13.5375 19.89375,13.5375 19.965625,13.496875 L21.115625,12.85625 C21.19375,12.8125 21.19375,12.7 21.115625,12.65625 L19.1875,11.55 C19.15,11.528125 19.128125,11.490625 19.128125,11.45 L19.128125,10.75625 C19.128125,10.715625 19.15,10.678125 19.1875,10.65625 L19.7875,10.309375 C19.821875,10.2875 19.86875,10.2875 19.903125,10.309375 L20.503125,10.65625 C20.5375,10.678125 20.5625,10.715625 20.5625,10.75625 L20.5625,11.3 C20.5625,11.3875 20.659375,11.44375 20.7375,11.4 L21.884375,10.734375 Z M19.46875,10.84375 C19.45625,10.853125 19.446875,10.865625 19.446875,10.88125 L19.446875,11.30625 C19.446875,11.321875 19.45625,11.3375 19.46875,11.34375 L19.8375,11.55625 C19.85,11.565625 19.86875,11.565625 19.88125,11.55625 L20.25,11.34375 C20.2625,11.334375 20.271875,11.321875 20.271875,11.30625 L20.271875,10.88125 C20.271875,10.865625 20.2625,10.85 20.25,10.84375 L19.88125,10.63125 C19.86875,10.621875 19.85,10.621875 19.8375,10.63125 L19.46875,10.84375 Z M11.525,12.203125 L11.525,10.003125 C11.525,9.92187499 11.475,9.84374999 11.403125,9.80312499 L9.49374999,8.70312498 C9.42812499,8.66562498 9.33749999,8.65937498 9.26249999,8.70312498 L7.35312498,9.80312499 C7.28124998,9.84374999 7.23124998,9.91874999 7.23124998,10.003125 L7.23124998,12.203125 C7.23124998,12.290625 7.29062498,12.365625 7.35624998,12.403125 L9.26874999,13.503125 C9.34374999,13.546875 9.43124999,13.54375 9.49999999,13.503125 L11.40625,12.403125 C11.4625,12.371875 11.503125,12.31875 11.51875,12.25625 C11.521875,12.240625 11.525,12.221875 11.525,12.203125 Z M9.25085226,8.31718748 L9.17812499,8.36718748 L9.27812499,8.36718748 L9.25085226,8.31718748 Z M11.6325,12.4203125 L11.5925,12.3503125 L11.5925,12.4403125 L11.6325,12.4203125 Z" id="path-1"></path>
    </defs>
    <g id="node" stroke="none" stroke-width="1" fill="none" fill-rule="evenodd">
        <mask id="mask-2" fill="white">
            <use xlink:href="#path-1"></use>
        </mask>
        <g fill-rule="nonzero"></g>
        <g id="🎨-color" mask="url(#mask-2)" fill="#000000">
            <rect id="🎨-Color" x="0" y="0" width="24" height="24"></rect>
        </g>
    </g>
</svg>