<?xml version="1.0" encoding="UTF-8"?>
<svg width="24px" height="24px" viewBox="0 0 24 24" version="1.1" xmlns="http://www.w3.org/2000/svg" xmlns:xlink="http://www.w3.org/1999/xlink">
    <!-- Generator: Sketch 52.5 (67469) - http://www.bohemiancoding.com/sketch -->
    <title>not-equal</title>
    <desc>Created with Sketch.</desc>
    <defs>
        <path d="M19.4708172,10.1322957 C20.1583658,10.1322957 20.7159534,9.57470816 20.7159534,8.88715952 L20.7159534,7.64202332 C20.7159534,6.95447468 20.1583658,6.39688713 19.4708172,6.39688713 L18.5416343,6.39688713 L20.5599222,3.79727622 C20.7688716,3.52412447 20.7171207,3.13346299 20.444358,2.92451357 L19.4556421,2.16731513 C19.1824903,1.9579766 18.7918288,2.01011668 18.5824903,2.28287933 L15.388716,6.39688713 L4.52918284,6.39688713 C3.8416342,6.39688713 3.28404665,6.95447468 3.28404665,7.64202332 L3.28404665,8.88715952 C3.28404665,9.57470816 3.8416342,10.1322957 4.52918284,10.1322957 L12.488716,10.1322957 L9.58871594,13.8677043 L4.52918284,13.8677043 C3.8416342,13.8677043 3.28404665,14.4252918 3.28404665,15.1128405 L3.28404665,16.3579767 C3.28404665,17.0455253 3.8416342,17.6031129 4.52918284,17.6031129 L6.68832682,17.6031129 L4.67003887,20.2027238 C4.46108946,20.4754864 4.51284043,20.8661479 4.78560308,21.0754864 L5.77431904,21.8326849 C6.04747079,22.0420234 6.43813227,21.9898833 6.64708169,21.7171207 L9.84124513,17.6031129 L19.4708172,17.6031129 C20.1583658,17.6031129 20.7159534,17.0455253 20.7159534,16.3579767 L20.7159534,15.1128405 C20.7159534,14.4252918 20.1583658,13.8677043 19.4708172,13.8677043 L12.7412451,13.8677043 L15.6412452,10.1322957 L19.4708172,10.1322957 Z" id="path-1"></path>
    </defs>
    <g id="not-equal" stroke="none" stroke-width="1" fill="none" fill-rule="evenodd">
        <mask id="mask-2" fill="white">
            <use xlink:href="#path-1"></use>
        </mask>
        <g></g>
        <g id="🎨-color" mask="url(#mask-2)" fill="#000000">
            <rect id="🎨-Color" x="0" y="0" width="24" height="24"></rect>
        </g>
    </g>
</svg>