<?xml version="1.0" encoding="UTF-8"?>
<svg width="24px" height="24px" viewBox="0 0 24 24" version="1.1" xmlns="http://www.w3.org/2000/svg" xmlns:xlink="http://www.w3.org/1999/xlink">
    <!-- Generator: Sketch 52.5 (67469) - http://www.bohemiancoding.com/sketch -->
    <title>notes-medical</title>
    <desc>Created with Sketch.</desc>
    <defs>
        <path d="M17.625,4.49999996 L14.5,4.49999996 C14.5,3.12109371 13.3789063,1.99999995 12,1.99999995 C10.6210937,1.99999995 9.49999999,3.12109371 9.49999999,4.49999996 L6.37499997,4.49999996 C5.33984372,4.49999996 4.49999996,5.33984372 4.49999996,6.37499997 L4.49999996,20.125 C4.49999996,21.1601563 5.33984372,22.0000001 6.37499997,22.0000001 L17.625,22.0000001 C18.6601563,22.0000001 19.5,21.1601563 19.5,20.125 L19.5,6.37499997 C19.5,5.33984372 18.6601563,4.49999996 17.625,4.49999996 Z M12,3.56249996 C12.5195313,3.56249996 12.9375,3.98046871 12.9375,4.49999996 C12.9375,5.01953122 12.5195313,5.43749997 12,5.43749997 C11.4804687,5.43749997 11.0625,5.01953122 11.0625,4.49999996 C11.0625,3.98046871 11.4804687,3.56249996 12,3.56249996 Z M15.75,15.4375 C15.75,15.609375 15.609375,15.75 15.4375,15.75 L13.25,15.75 L13.25,17.9375 C13.25,18.109375 13.109375,18.25 12.9375,18.25 L11.0625,18.25 C10.890625,18.25 10.75,18.109375 10.75,17.9375 L10.75,15.75 L8.56249998,15.75 C8.39062498,15.75 8.24999998,15.609375 8.24999998,15.4375 L8.24999998,13.5625 C8.24999998,13.390625 8.39062498,13.25 8.56249998,13.25 L10.75,13.25 L10.75,11.0625 C10.75,10.890625 10.890625,10.75 11.0625,10.75 L12.9375,10.75 C13.109375,10.75 13.25,10.890625 13.25,11.0625 L13.25,13.25 L15.4375,13.25 C15.609375,13.25 15.75,13.390625 15.75,13.5625 L15.75,15.4375 Z M15.75,7.93749998 C15.75,8.10937498 15.609375,8.24999998 15.4375,8.24999998 L8.56249998,8.24999998 C8.39062498,8.24999998 8.24999998,8.10937498 8.24999998,7.93749998 L8.24999998,7.31249998 C8.24999998,7.14062498 8.39062498,6.99999997 8.56249998,6.99999997 L15.4375,6.99999997 C15.609375,6.99999997 15.75,7.14062498 15.75,7.31249998 L15.75,7.93749998 Z" id="path-1"></path>
    </defs>
    <g id="notes-medical" stroke="none" stroke-width="1" fill="none" fill-rule="evenodd">
        <mask id="mask-2" fill="white">
            <use xlink:href="#path-1"></use>
        </mask>
        <g fill-rule="nonzero"></g>
        <g id="🎨-color" mask="url(#mask-2)" fill="#000000">
            <rect id="🎨-Color" x="0" y="0" width="24" height="24"></rect>
        </g>
    </g>
</svg>