<?xml version="1.0" encoding="UTF-8"?>
<svg width="24px" height="24px" viewBox="0 0 24 24" version="1.1" xmlns="http://www.w3.org/2000/svg" xmlns:xlink="http://www.w3.org/1999/xlink">
    <!-- Generator: Sketch 52.5 (67469) - http://www.bohemiancoding.com/sketch -->
    <title>npm</title>
    <desc>Created with Sketch.</desc>
    <defs>
        <path d="M12,13.1111111 L10.8888889,13.1111111 L10.8888889,10.8888889 L12,10.8888889 L12,13.1111111 Z M22.0000001,8.66666665 L22.0000001,15.3333334 L12,15.3333334 L12,16.4444445 L7.55555553,16.4444445 L7.55555553,15.3333334 L1.99999995,15.3333334 L1.99999995,8.66666665 L22.0000001,8.66666665 Z M7.55555553,9.77777777 L3.11111107,9.77777777 L3.11111107,14.2222222 L5.3333333,14.2222222 L5.3333333,10.8888889 L6.44444442,10.8888889 L6.44444442,14.2222222 L7.55555553,14.2222222 L7.55555553,9.77777777 Z M13.1111111,9.77777777 L8.66666665,9.77777777 L8.66666665,15.3333334 L10.8888889,15.3333334 L10.8888889,14.2222222 L13.1111111,14.2222222 L13.1111111,9.77777777 Z M20.8888889,9.77777777 L14.2222222,9.77777777 L14.2222222,14.2222222 L16.4444445,14.2222222 L16.4444445,10.8888889 L17.5555556,10.8888889 L17.5555556,14.2222222 L18.6666667,14.2222222 L18.6666667,10.8888889 L19.7777778,10.8888889 L19.7777778,14.2222222 L20.8888889,14.2222222 L20.8888889,9.77777777 Z" id="path-1"></path>
    </defs>
    <g id="npm" stroke="none" stroke-width="1" fill="none" fill-rule="evenodd">
        <mask id="mask-2" fill="white">
            <use xlink:href="#path-1"></use>
        </mask>
        <g fill-rule="nonzero"></g>
        <g id="🎨-color" mask="url(#mask-2)" fill="#000000">
            <rect id="🎨-Color" x="0" y="0" width="24" height="24"></rect>
        </g>
    </g>
</svg>