<?xml version="1.0" encoding="UTF-8"?>
<svg width="24px" height="24px" viewBox="0 0 24 24" version="1.1" xmlns="http://www.w3.org/2000/svg" xmlns:xlink="http://www.w3.org/1999/xlink">
    <!-- Generator: Sketch 52.5 (67469) - http://www.bohemiancoding.com/sketch -->
    <title>ns8</title>
    <desc>Created with Sketch.</desc>
    <defs>
        <path d="M7.84687498,8.99687498 L6.77812497,12.55 L5.07499997,8.99687498 L3.53124996,8.99687498 L1.99999995,14 L3.40312496,14 L4.37499996,10.671875 L5.95624997,14 L7.73437498,14 L9.24999999,8.99687498 L7.84687498,8.99687498 Z M21.9875,8.96874998 C21.896875,8.40624998 21.240625,8.09062498 20.671875,7.99062498 C19.278125,7.74687498 17.4875,8.49999998 17.90625,9.82812499 L17.90625,9.83124999 C16.5375,10.103125 15.584375,10.66875 14.9625,11.3375 C14.86875,11.03125 14.5375,10.81875 13.9,10.81875 L11.1625,10.81875 C10.871875,10.81875 10.759375,10.746875 10.803125,10.5875 C10.853125,10.415625 10.8625,10.375 10.91875,10.20625 C10.984375,10.00625 11.1625,9.98437499 11.334375,9.98437499 L15.50625,9.98437499 L15.809375,8.99999999 C11.44375,8.99999999 11.29375,8.98437498 10.80625,9.03749999 C10.421875,9.07812499 10.071875,9.18749999 9.84999999,9.50624999 C9.63749999,9.81562499 9.39999999,10.61875 9.29999999,10.978125 C9.13124999,11.584375 9.28124999,11.871875 10.325,11.871875 L13.053125,11.871875 C13.296875,11.871875 13.328125,11.95625 13.29375,12.078125 C13.259375,12.215625 13.20625,12.390625 13.153125,12.534375 C13.103125,12.665625 13.00625,12.765625 12.721875,12.765625 L8.75937498,12.765625 L8.39687498,14 C12.76875,14 12.9375,13.98125 13.425,13.928125 C13.63125,13.90625 13.83125,13.8625 14.003125,13.775 C14.009375,13.890625 14.01875,14.003125 14.040625,14.1125 C14.209375,15.065625 14.896875,15.746875 15.815625,15.971875 C17.334375,16.34375 19.2125,15.446875 20.0375,13.846875 C20.621875,12.715625 20.478125,11.465625 19.93125,10.55 L19.934375,10.55 C20.859375,10.365625 22.1312501,9.86249999 21.9875,8.96874998 Z M18.584375,12.240625 C18.4,13.1625 17.440625,13.734375 16.659375,13.6125 C15.69375,13.4625 15.45625,12.378125 16.21875,11.5875 C16.725,11.0625 17.63125,10.8375 18.359375,10.746875 C18.56875,11.1875 18.68125,11.746875 18.584375,12.240625 Z M19.265625,9.64374999 C19.134375,9.45624999 18.959375,9.06562499 19.1875,8.82187498 C19.396875,8.59687498 19.840625,8.50624998 20.18125,8.58124998 C20.659375,8.68749998 20.796875,9.07812499 20.334375,9.34374999 C20,9.53437499 19.596875,9.59687499 19.265625,9.64374999 Z" id="path-1"></path>
    </defs>
    <g id="ns8" stroke="none" stroke-width="1" fill="none" fill-rule="evenodd">
        <mask id="mask-2" fill="white">
            <use xlink:href="#path-1"></use>
        </mask>
        <g fill-rule="nonzero"></g>
        <g id="🎨-color" mask="url(#mask-2)" fill="#000000">
            <rect id="🎨-Color" x="0" y="0" width="24" height="24"></rect>
        </g>
    </g>
</svg>