<?xml version="1.0" encoding="UTF-8"?>
<svg width="24px" height="24px" viewBox="0 0 24 24" version="1.1" xmlns="http://www.w3.org/2000/svg" xmlns:xlink="http://www.w3.org/1999/xlink">
    <!-- Generator: Sketch 52.5 (67469) - http://www.bohemiancoding.com/sketch -->
    <title>nutritionix</title>
    <desc>Created with Sketch.</desc>
    <defs>
        <path d="M7.62499998,2.3164062 C7.62499998,2.3164062 12.8359375,1.9960937 12.3515625,6.39453122 C12.3515625,6.39453122 13.0976563,3.46874996 16.375,4.80859371 C16.375,4.80859371 15.6835938,7.69921873 12.9375,6.99609372 C12.9375,6.99609372 13.5078125,4.86328121 15.5195313,4.78515621 C15.5195313,4.78515621 13.9609375,4.38281246 12.3125,6.69140622 C12.3125,6.69140622 11.5390625,2.99999996 8.65624998,2.79687495 C8.65624998,2.79687495 11.59375,3.55468746 11.6875,6.99609372 C11.6875,6.99999998 7.53124998,7.26953123 7.62499998,2.3164062 Z M19.8125,14.6445313 C19.8125,16.5390625 19.4335938,18.3671875 18.5625,19.8125 C16.9140625,21.0195313 14.4609375,21.6875 12,21.6875 C9.54296874,21.6875 7.08593748,21.0195313 5.43749997,19.8125 C4.56640621,18.3671875 4.18749996,16.5390625 4.18749996,14.6445313 C4.18749996,12.7539063 4.87890621,10.9453125 5.74999997,9.49999999 C7.39843748,8.29296873 9.54296874,7.60156248 12,7.60156248 C14.4609375,7.60156248 16.6015625,8.28906248 18.25,9.49999999 C19.1210938,10.9453125 19.8125,12.7539063 19.8125,14.6445313 Z M8.87499998,18.71875 C8.87499998,18.1132813 8.38671873,17.625 7.78124998,17.625 C7.17578123,17.625 6.68749997,18.1132813 6.68749997,18.71875 C6.68749997,19.3242188 7.17578123,19.8125 7.78124998,19.8125 C8.38671873,19.8125 8.87499998,19.3242188 8.87499998,18.71875 Z M8.87499998,16.1328125 C8.87499998,15.5273438 8.38671873,15.0390625 7.78124998,15.0390625 C7.17578123,15.0390625 6.68749997,15.5273438 6.68749997,16.1328125 C6.68749997,16.7382813 7.17578123,17.2265625 7.78124998,17.2265625 C8.38671873,17.2265625 8.87499998,16.7382813 8.87499998,16.1328125 Z M8.87499998,13.546875 C8.87499998,12.9414063 8.38671873,12.453125 7.78124998,12.453125 C7.17578123,12.453125 6.68749997,12.9414063 6.68749997,13.546875 C6.68749997,14.1523438 7.17578123,14.640625 7.78124998,14.640625 C8.38671873,14.640625 8.87499998,14.1523438 8.87499998,13.546875 Z M11.6875,18.71875 C11.6875,18.1132813 11.1992187,17.625 10.59375,17.625 C9.98828124,17.625 9.49999999,18.1132813 9.49999999,18.71875 C9.49999999,19.3242188 9.98828124,19.8125 10.59375,19.8125 C11.1992187,19.8125 11.6875,19.3242188 11.6875,18.71875 Z M11.6875,16.1328125 C11.6875,15.5273438 11.1992187,15.0390625 10.59375,15.0390625 C9.98828124,15.0390625 9.49999999,15.5273438 9.49999999,16.1328125 C9.49999999,16.7382813 9.98828124,17.2265625 10.59375,17.2265625 C11.1992187,17.2265625 11.6875,16.7382813 11.6875,16.1328125 Z M11.6875,13.546875 C11.6875,12.9414063 11.1992187,12.453125 10.59375,12.453125 C9.98828124,12.453125 9.49999999,12.9414063 9.49999999,13.546875 C9.49999999,14.1523438 9.98828124,14.640625 10.59375,14.640625 C11.1992187,14.640625 11.6875,14.1523438 11.6875,13.546875 Z M14.5,18.71875 C14.5,18.1132813 14.0117188,17.625 13.40625,17.625 C12.8007813,17.625 12.3125,18.1132813 12.3125,18.71875 C12.3125,19.3242188 12.8007813,19.8125 13.40625,19.8125 C14.0117188,19.8125 14.5,19.3242188 14.5,18.71875 Z M14.5,16.1328125 C14.5,15.5273438 14.0117188,15.0390625 13.40625,15.0390625 C12.8007813,15.0390625 12.3125,15.5273438 12.3125,16.1328125 C12.3125,16.7382813 12.8007813,17.2265625 13.40625,17.2265625 C14.0117188,17.2265625 14.5,16.7382813 14.5,16.1328125 Z M14.5,13.546875 C14.5,12.9414063 14.0117188,12.453125 13.40625,12.453125 C12.8007813,12.453125 12.3125,12.9414063 12.3125,13.546875 C12.3125,14.1523438 12.8007813,14.640625 13.40625,14.640625 C14.0117188,14.640625 14.5,14.1523438 14.5,13.546875 Z M17.3125,18.71875 C17.3125,18.1132813 16.8242188,17.625 16.21875,17.625 C15.6132813,17.625 15.125,18.1132813 15.125,18.71875 C15.125,19.3242188 15.6132813,19.8125 16.21875,19.8125 C16.8242188,19.8125 17.3125,19.3242188 17.3125,18.71875 Z M17.3125,16.1328125 C17.3125,15.5273438 16.8242188,15.0390625 16.21875,15.0390625 C15.6132813,15.0390625 15.125,15.5273438 15.125,16.1328125 C15.125,16.7382813 15.6132813,17.2265625 16.21875,17.2265625 C16.8242188,17.2265625 17.3125,16.7382813 17.3125,16.1328125 Z M17.3125,13.546875 C17.3125,12.9414063 16.8242188,12.453125 16.21875,12.453125 C15.6132813,12.453125 15.125,12.9414063 15.125,13.546875 C15.125,14.1523438 15.6132813,14.640625 16.21875,14.640625 C16.8242188,14.640625 17.3125,14.1523438 17.3125,13.546875 Z M18.25,12 C18.0625,11.1289062 17.9609375,10.5585937 17.625,9.81249999 C16.109375,9.03515624 14.0898438,8.56249998 12,8.56249998 C9.91015624,8.56249998 7.89062498,9.03515624 6.37499997,9.81249999 C6.03124997,10.5742187 5.93749997,11.1367187 5.74999997,12 C7.39843748,11.6914062 9.60546874,11.421875 12,11.421875 C14.3945313,11.421875 16.6015625,11.6914062 18.25,12 Z" id="path-1"></path>
    </defs>
    <g id="nutritionix" stroke="none" stroke-width="1" fill="none" fill-rule="evenodd">
        <mask id="mask-2" fill="white">
            <use xlink:href="#path-1"></use>
        </mask>
        <g fill-rule="nonzero"></g>
        <g id="🎨-color" mask="url(#mask-2)" fill="#000000">
            <rect id="🎨-Color" x="0" y="0" width="24" height="24"></rect>
        </g>
    </g>
</svg>