<?xml version="1.0" encoding="UTF-8"?>
<svg width="24px" height="24px" viewBox="0 0 24 24" version="1.1" xmlns="http://www.w3.org/2000/svg" xmlns:xlink="http://www.w3.org/1999/xlink">
    <!-- Generator: Sketch 52.5 (67469) - http://www.bohemiancoding.com/sketch -->
    <title>object-group</title>
    <desc>Created with Sketch.</desc>
    <defs>
        <path d="M21.53125,6.99999997 C21.7901172,6.99999997 22.0000001,6.79011716 22.0000001,6.53124997 L22.0000001,3.71874996 C22.0000001,3.45988277 21.7901172,3.24999996 21.53125,3.24999996 L18.71875,3.24999996 C18.4598828,3.24999996 18.25,3.45988277 18.25,3.71874996 L18.25,4.18749996 L5.74999997,4.18749996 L5.74999997,3.71874996 C5.74999997,3.45988277 5.54011716,3.24999996 5.28124997,3.24999996 L2.46874995,3.24999996 C2.20988276,3.24999996 1.99999995,3.45988277 1.99999995,3.71874996 L1.99999995,6.53124997 C1.99999995,6.79011716 2.20988276,6.99999997 2.46874995,6.99999997 L2.93749995,6.99999997 L2.93749995,17 L2.46874995,17 C2.20988276,17 1.99999995,17.2098828 1.99999995,17.46875 L1.99999995,20.28125 C1.99999995,20.5401172 2.20988276,20.75 2.46874995,20.75 L5.28124997,20.75 C5.54011716,20.75 5.74999997,20.5401172 5.74999997,20.28125 L5.74999997,19.8125 L18.25,19.8125 L18.25,20.28125 C18.25,20.5401172 18.4598828,20.75 18.71875,20.75 L21.53125,20.75 C21.7901172,20.75 22.0000001,20.5401172 22.0000001,20.28125 L22.0000001,17.46875 C22.0000001,17.2098828 21.7901172,17 21.53125,17 L21.0625,17 L21.0625,6.99999997 L21.53125,6.99999997 Z M19.5,4.49999996 L20.75,4.49999996 L20.75,5.74999997 L19.5,5.74999997 L19.5,4.49999996 Z M3.24999996,4.49999996 L4.49999996,4.49999996 L4.49999996,5.74999997 L3.24999996,5.74999997 L3.24999996,4.49999996 Z M4.49999996,19.5 L3.24999996,19.5 L3.24999996,18.25 L4.49999996,18.25 L4.49999996,19.5 Z M20.75,19.5 L19.5,19.5 L19.5,18.25 L20.75,18.25 L20.75,19.5 Z M19.1875,17 L18.71875,17 C18.4598828,17 18.25,17.2098828 18.25,17.46875 L18.25,17.9375 L5.74999997,17.9375 L5.74999997,17.46875 C5.74999997,17.2098828 5.54011716,17 5.28124997,17 L4.81249996,17 L4.81249996,6.99999997 L5.28124997,6.99999997 C5.54011716,6.99999997 5.74999997,6.79011716 5.74999997,6.53124997 L5.74999997,6.06249997 L18.25,6.06249997 L18.25,6.53124997 C18.25,6.79011716 18.4598828,6.99999997 18.71875,6.99999997 L19.1875,6.99999997 L19.1875,17 Z M17.78125,9.49999999 L14.5,9.49999999 L14.5,7.46874998 C14.5,7.20984373 14.2901172,6.99999997 14.03125,6.99999997 L6.21874997,6.99999997 C5.95988278,6.99999997 5.74999997,7.20984373 5.74999997,7.46874998 L5.74999997,14.03125 C5.74999997,14.2901563 5.95988278,14.5 6.21874997,14.5 L9.49999999,14.5 L9.49999999,16.53125 C9.49999999,16.7901563 9.7098828,17 9.96874999,17 L17.78125,17 C18.0401172,17 18.25,16.7901563 18.25,16.53125 L18.25,9.96874999 C18.25,9.70984374 18.0401172,9.49999999 17.78125,9.49999999 Z M7.31249998,8.56249998 L12.9375,8.56249998 L12.9375,12.9375 L7.31249998,12.9375 L7.31249998,8.56249998 Z M16.6875,15.4375 L11.0625,15.4375 L11.0625,14.5 L14.03125,14.5 C14.2901172,14.5 14.5,14.2901563 14.5,14.03125 L14.5,11.0625 L16.6875,11.0625 L16.6875,15.4375 Z" id="path-1"></path>
    </defs>
    <g id="object-group" stroke="none" stroke-width="1" fill="none" fill-rule="evenodd">
        <mask id="mask-2" fill="white">
            <use xlink:href="#path-1"></use>
        </mask>
        <g fill-rule="nonzero"></g>
        <g id="🎨-color" mask="url(#mask-2)" fill="#000000">
            <rect id="🎨-Color" x="0" y="0" width="24" height="24"></rect>
        </g>
    </g>
</svg>