<?xml version="1.0" encoding="UTF-8"?>
<svg width="24px" height="24px" viewBox="0 0 24 24" version="1.1" xmlns="http://www.w3.org/2000/svg" xmlns:xlink="http://www.w3.org/1999/xlink">
    <!-- Generator: Sketch 52.5 (67469) - http://www.bohemiancoding.com/sketch -->
    <title>object-ungroup</title>
    <desc>Created with Sketch.</desc>
    <defs>
        <path d="M21.5833334,10.8888889 C21.8134375,10.8888889 22.0000001,10.7023264 22.0000001,10.4722222 L22.0000001,7.9722222 C22.0000001,7.74211803 21.8134375,7.55555553 21.5833334,7.55555553 L19.0833334,7.55555553 C18.8532292,7.55555553 18.6666667,7.74211803 18.6666667,7.9722222 L18.6666667,8.38888887 L15.6111111,8.38888887 L15.6111111,7.55555553 L16.0277778,7.55555553 C16.257882,7.55555553 16.4444445,7.36899303 16.4444445,7.13888886 L16.4444445,4.63888885 C16.4444445,4.40878468 16.257882,4.22222218 16.0277778,4.22222218 L13.5277778,4.22222218 C13.2976736,4.22222218 13.1111111,4.40878468 13.1111111,4.63888885 L13.1111111,5.05555552 L5.3333333,5.05555552 L5.3333333,4.63888885 C5.3333333,4.40878468 5.1467708,4.22222218 4.91666663,4.22222218 L2.41666662,4.22222218 C2.18656245,4.22222218 1.99999995,4.40878468 1.99999995,4.63888885 L1.99999995,7.13888886 C1.99999995,7.36899303 2.18656245,7.55555553 2.41666662,7.55555553 L2.83333329,7.55555553 L2.83333329,13.1111111 L2.41666662,13.1111111 C2.18656245,13.1111111 1.99999995,13.2976736 1.99999995,13.5277778 L1.99999995,16.0277778 C1.99999995,16.257882 2.18656245,16.4444445 2.41666662,16.4444445 L4.91666663,16.4444445 C5.1467708,16.4444445 5.3333333,16.257882 5.3333333,16.0277778 L5.3333333,15.6111111 L8.38888887,15.6111111 L8.38888887,16.4444445 L7.9722222,16.4444445 C7.74211803,16.4444445 7.55555553,16.631007 7.55555553,16.8611111 L7.55555553,19.3611111 C7.55555553,19.5912153 7.74211803,19.7777778 7.9722222,19.7777778 L10.4722222,19.7777778 C10.7023264,19.7777778 10.8888889,19.5912153 10.8888889,19.3611111 L10.8888889,18.9444445 L18.6666667,18.9444445 L18.6666667,19.3611111 C18.6666667,19.5912153 18.8532292,19.7777778 19.0833334,19.7777778 L21.5833334,19.7777778 C21.8134375,19.7777778 22.0000001,19.5912153 22.0000001,19.3611111 L22.0000001,16.8611111 C22.0000001,16.631007 21.8134375,16.4444445 21.5833334,16.4444445 L21.1666667,16.4444445 L21.1666667,10.8888889 L21.5833334,10.8888889 Z M14.2222222,5.3333333 L15.3333333,5.3333333 L15.3333333,6.44444442 L14.2222222,6.44444442 L14.2222222,5.3333333 Z M14.2222222,14.2222222 L15.3333333,14.2222222 L15.3333333,15.3333334 L14.2222222,15.3333334 L14.2222222,14.2222222 Z M4.22222218,15.3333334 L3.11111107,15.3333334 L3.11111107,14.2222222 L4.22222218,14.2222222 L4.22222218,15.3333334 Z M4.22222218,6.44444442 L3.11111107,6.44444442 L3.11111107,5.3333333 L4.22222218,5.3333333 L4.22222218,6.44444442 Z M5.3333333,13.9444445 L5.3333333,13.5277778 C5.3333333,13.2976736 5.1467708,13.1111111 4.91666663,13.1111111 L4.49999996,13.1111111 L4.49999996,7.55555553 L4.91666663,7.55555553 C5.1467708,7.55555553 5.3333333,7.36899303 5.3333333,7.13888886 L5.3333333,6.7222222 L13.1111111,6.7222222 L13.1111111,7.13888886 C13.1111111,7.36899303 13.2976736,7.55555553 13.5277778,7.55555553 L13.9444445,7.55555553 L13.9444445,13.1111111 L13.5277778,13.1111111 C13.2976736,13.1111111 13.1111111,13.2976736 13.1111111,13.5277778 L13.1111111,13.9444445 L5.3333333,13.9444445 Z M9.77777777,18.6666667 L8.66666665,18.6666667 L8.66666665,17.5555556 L9.77777777,17.5555556 L9.77777777,18.6666667 Z M19.5,16.4444445 L19.0833334,16.4444445 C18.8532292,16.4444445 18.6666667,16.631007 18.6666667,16.8611111 L18.6666667,17.2777778 L10.8888889,17.2777778 L10.8888889,16.8611111 C10.8888889,16.631007 10.7023264,16.4444445 10.4722222,16.4444445 L10.0555555,16.4444445 L10.0555555,15.6111111 L13.1111111,15.6111111 L13.1111111,16.0277778 C13.1111111,16.257882 13.2976736,16.4444445 13.5277778,16.4444445 L16.0277778,16.4444445 C16.257882,16.4444445 16.4444445,16.257882 16.4444445,16.0277778 L16.4444445,13.5277778 C16.4444445,13.2976736 16.257882,13.1111111 16.0277778,13.1111111 L15.6111111,13.1111111 L15.6111111,10.0555555 L18.6666667,10.0555555 L18.6666667,10.4722222 C18.6666667,10.7023264 18.8532292,10.8888889 19.0833334,10.8888889 L19.5,10.8888889 L19.5,16.4444445 Z M20.8888889,18.6666667 L19.7777778,18.6666667 L19.7777778,17.5555556 L20.8888889,17.5555556 L20.8888889,18.6666667 Z M20.8888889,9.77777777 L19.7777778,9.77777777 L19.7777778,8.66666665 L20.8888889,8.66666665 L20.8888889,9.77777777 Z" id="path-1"></path>
    </defs>
    <g id="object-ungroup" stroke="none" stroke-width="1" fill="none" fill-rule="evenodd">
        <mask id="mask-2" fill="white">
            <use xlink:href="#path-1"></use>
        </mask>
        <g fill-rule="nonzero"></g>
        <g id="🎨-color" mask="url(#mask-2)" fill="#000000">
            <rect id="🎨-Color" x="0" y="0" width="24" height="24"></rect>
        </g>
    </g>
</svg>