<?xml version="1.0" encoding="UTF-8"?>
<svg width="24px" height="24px" viewBox="0 0 24 24" version="1.1" xmlns="http://www.w3.org/2000/svg" xmlns:xlink="http://www.w3.org/1999/xlink">
    <!-- Generator: Sketch 52.5 (67469) - http://www.bohemiancoding.com/sketch -->
    <title>odnoklassniki-square</title>
    <desc>Created with Sketch.</desc>
    <defs>
        <path d="M10.4453125,8.91796873 C10.4453125,8.05468748 11.1445312,7.35546873 12,7.35546873 C12.8554688,7.35546873 13.5546875,8.05468748 13.5546875,8.91796873 C13.5546875,9.77734374 12.8554688,10.4726562 12,10.4726562 C11.1445312,10.4726562 10.4453125,9.77343749 10.4453125,8.91796873 Z M20.75,5.12499997 L20.75,18.875 C20.75,19.9101563 19.9101563,20.75 18.875,20.75 L5.12499997,20.75 C4.08984371,20.75 3.24999996,19.9101563 3.24999996,18.875 L3.24999996,5.12499997 C3.24999996,4.08984371 4.08984371,3.24999996 5.12499997,3.24999996 L18.875,3.24999996 C19.9101563,3.24999996 20.75,4.08984371 20.75,5.12499997 Z M8.83203123,8.91796873 C8.83203123,10.6601562 10.2539062,12.078125 12,12.078125 C13.7460938,12.078125 15.1679688,10.6640625 15.1679688,8.91796873 C15.1679688,7.16796873 13.7460938,5.74999997 12,5.74999997 C10.2539062,5.74999997 8.83203123,7.16406248 8.83203123,8.91796873 Z M15.6484375,12.4609375 C15.46875,12.1054688 14.9726563,11.8046875 14.3164063,12.3203125 C14.3164063,12.3203125 13.4296875,13.0234375 12,13.0234375 C10.5703125,13.0234375 9.68359374,12.3203125 9.68359374,12.3203125 C9.02734374,11.8046875 8.53124998,12.1054688 8.35156248,12.4609375 C8.04296873,13.0898438 8.39453123,13.3867188 9.18749999,13.90625 C9.86328124,14.3398438 10.796875,14.5 11.3984375,14.5625 L10.8945312,15.0664063 C10.1835937,15.7695313 9.50781249,16.453125 9.03124999,16.9296875 C8.34374998,17.6171875 9.44921874,18.71875 10.140625,18.046875 L12.0039063,16.1757813 C12.7148438,16.8867188 13.3984375,17.5703125 13.8671875,18.046875 C14.5546875,18.71875 15.6640625,17.6289063 14.984375,16.9296875 L13.1210938,15.0664063 L12.6132813,14.5625 C13.21875,14.5 14.140625,14.3320313 14.8085938,13.90625 C15.6054688,13.3867188 15.953125,13.0859375 15.6484375,12.4609375 Z" id="path-1"></path>
    </defs>
    <g id="odnoklassniki-square" stroke="none" stroke-width="1" fill="none" fill-rule="evenodd">
        <mask id="mask-2" fill="white">
            <use xlink:href="#path-1"></use>
        </mask>
        <g fill-rule="nonzero"></g>
        <g id="🎨-color" mask="url(#mask-2)" fill="#000000">
            <rect id="🎨-Color" x="0" y="0" width="24" height="24"></rect>
        </g>
    </g>
</svg>