<?xml version="1.0" encoding="UTF-8"?>
<svg width="24px" height="24px" viewBox="0 0 24 24" version="1.1" xmlns="http://www.w3.org/2000/svg" xmlns:xlink="http://www.w3.org/1999/xlink">
    <!-- Generator: Sketch 52.5 (67469) - http://www.bohemiancoding.com/sketch -->
    <title>odnoklassniki</title>
    <desc>Created with Sketch.</desc>
    <defs>
        <path d="M16.4873295,15.0214425 C15.4191033,15.6998051 13.9493177,15.9688109 12.9785575,16.0701755 L13.7933723,16.8732944 L16.7680312,19.8479533 C17.8557505,20.962963 16.08577,22.7056531 14.9863548,21.6296297 C14.2417154,20.8732944 13.1500975,19.7816765 12.0116959,18.6432749 L9.03703702,21.625731 C7.93762181,22.6978558 6.1676413,20.9395712 7.26705651,19.8440546 C8.02339179,19.0877193 9.10331383,17.9961014 10.2417154,16.8693957 L11.0448343,16.0662768 C10.08577,15.9649123 8.59259258,15.711501 7.51267054,15.0175439 C6.24171537,14.1988304 5.68421049,13.7192983 6.17543857,12.7173489 C6.46393759,12.1481481 7.2553606,11.668616 8.30409355,12.4951267 C8.30409355,12.4951267 9.71929823,13.6218324 12.0038986,13.6218324 C14.288499,13.6218324 15.7037037,12.4951267 15.7037037,12.4951267 C16.7524367,11.6725146 17.539961,12.1481481 17.8323587,12.7173489 C18.3157895,13.7192983 17.7582846,14.1988304 16.4873295,15.0214425 Z M6.94346976,7.05653019 C6.94346976,4.26120854 9.21637426,1.99999995 12,1.99999995 C14.7836257,1.99999995 17.0565302,4.26120854 17.0565302,7.05653019 C17.0565302,9.84015593 14.7836257,12.1013645 12,12.1013645 C9.21637426,12.1013645 6.94346976,9.84015593 6.94346976,7.05653019 Z M9.51656919,7.05653019 C9.51656919,8.42495125 10.6315789,9.539961 12,9.539961 C13.3684211,9.539961 14.4834308,8.42495125 14.4834308,7.05653019 C14.4834308,5.67641322 13.3684211,4.56140347 12,4.56140347 C10.6315789,4.56140347 9.51656919,5.67641322 9.51656919,7.05653019 Z" id="path-1"></path>
    </defs>
    <g id="odnoklassniki" stroke="none" stroke-width="1" fill="none" fill-rule="evenodd">
        <mask id="mask-2" fill="white">
            <use xlink:href="#path-1"></use>
        </mask>
        <g fill-rule="nonzero"></g>
        <g id="🎨-color" mask="url(#mask-2)" fill="#000000">
            <rect id="🎨-Color" x="0" y="0" width="24" height="24"></rect>
        </g>
    </g>
</svg>