<?xml version="1.0" encoding="UTF-8"?>
<svg width="24px" height="24px" viewBox="0 0 24 24" version="1.1" xmlns="http://www.w3.org/2000/svg" xmlns:xlink="http://www.w3.org/1999/xlink">
    <!-- Generator: Sketch 52.5 (67469) - http://www.bohemiancoding.com/sketch -->
    <title>oil-can</title>
    <desc>Created with Sketch.</desc>
    <defs>
        <path d="M21.68125,9.00968749 L15,11 L13.4221875,10.21125 C13.1444737,10.0724421 12.838284,10.0001206 12.5278125,9.99999999 L10.75,9.99999999 L10.75,8.49999998 L12.5,8.49999998 C12.77625,8.49999998 13,8.27624998 13,7.99999998 L13,7.49999998 C13,7.22374998 12.77625,6.99999997 12.5,6.99999997 L7.49999998,6.99999997 C7.22374998,6.99999997 6.99999997,7.22374998 6.99999997,7.49999998 L6.99999997,7.99999998 C6.99999997,8.27624998 7.22374998,8.49999998 7.49999998,8.49999998 L9.24999999,8.49999998 L9.24999999,9.99999999 L7.49999998,9.99999999 L3.17874996,9.21437499 C3.11906737,9.20335782 3.05850338,9.19781396 2.99781245,9.19781249 C2.45843745,9.19781249 1.99999995,9.63624999 1.99999995,10.198125 L1.99999995,13.1653125 C1.99999995,13.6484375 2.34562495,14.0628125 2.82124995,14.1490625 L4.99999996,14.545625 L4.99999996,16 C4.99999996,16.5521875 5.44781247,17 5.99999997,17 L14.5821875,17 C14.849375,17 15.105625,16.893125 15.2934375,16.7028125 L21.9265625,9.99187499 C21.9734375,9.94499999 21.9996875,9.88124999 21.9996875,9.81499999 L21.9996875,9.24999999 C22.0000001,9.08406249 21.8409375,8.96406248 21.68125,9.00968749 Z M4.99999996,13.0209375 L3.49999996,12.748125 L3.49999996,10.7971875 L4.99999996,11.07 L4.99999996,13.0209375 Z M19.1665625,15.6665625 C19.1665625,16.4028125 19.7634375,17 20.5,17 C21.2365625,17 21.8334375,16.403125 21.8334375,15.6665625 C21.8334375,14.93 20.5,13 20.5,13 C20.5,13 19.1665625,14.9303125 19.1665625,15.6665625 Z" id="path-1"></path>
    </defs>
    <g id="oil-can" stroke="none" stroke-width="1" fill="none" fill-rule="evenodd">
        <mask id="mask-2" fill="white">
            <use xlink:href="#path-1"></use>
        </mask>
        <g fill-rule="nonzero"></g>
        <g id="🎨-color" mask="url(#mask-2)" fill="#000000">
            <rect id="🎨-Color" x="0" y="0" width="24" height="24"></rect>
        </g>
    </g>
</svg>