<?xml version="1.0" encoding="UTF-8"?>
<svg width="24px" height="24px" viewBox="0 0 24 24" version="1.1" xmlns="http://www.w3.org/2000/svg" xmlns:xlink="http://www.w3.org/1999/xlink">
    <!-- Generator: Sketch 52.5 (67469) - http://www.bohemiancoding.com/sketch -->
    <title>om</title>
    <desc>Created with Sketch.</desc>
    <defs>
        <path d="M16.0859375,4.38046871 C16.1623594,4.45699173 16.2660704,4.49999042 16.3742188,4.49999042 C16.4823672,4.49999042 16.5860782,4.45699173 16.6625,4.38046871 L17.5050782,3.53828121 C17.5816012,3.46185935 17.6245999,3.35814834 17.6245999,3.24999996 C17.6245999,3.14185158 17.5816012,3.03814056 17.5050782,2.9617187 L16.6621094,2.1195312 C16.5027344,1.96054682 16.2449219,1.96054682 16.0855469,2.1195312 L15.2429688,2.9617187 C15.1664458,3.03814056 15.1234471,3.14185158 15.1234471,3.24999996 C15.1234471,3.35814834 15.1664458,3.46185935 15.2429688,3.53828121 L16.0859375,4.38046871 Z M18.0980469,9.49999999 C17.0554688,9.49999999 16.0757813,9.90585936 15.3386719,10.6425781 L14.3914063,11.5898437 C14.1265625,11.8542969 13.775,12 13.4,12 L11.5703125,12 C11.9820312,11.1367187 12.1238281,10.1207031 11.8722656,9.06132811 C11.4777344,7.39921873 10.0613281,6.08828122 8.37539061,5.81171872 C6.96328122,5.58007809 5.60585934,6.00859372 4.62499996,6.93593747 C4.33749996,7.20781248 4.35273434,7.6722656 4.66874996,7.9097656 L5.69023434,8.67656248 C5.91367184,8.84453123 6.2238281,8.84531248 6.44023435,8.66835936 C6.77031247,8.39882811 7.1832031,8.24999998 7.62265623,8.24999998 C8.65664061,8.24999998 9.49804686,9.09101561 9.49804686,10.125 C9.49804686,11.1589844 8.65664061,12 7.62265623,12 L6.37656247,12 C5.90937497,12 5.60546872,12.4914063 5.81445309,12.909375 L6.44296872,14.1660156 C6.54179685,14.3636719 6.73984372,14.4824219 6.95742185,14.5 L8.24765623,14.5 C9.62656249,14.5 10.7480469,15.6210938 10.7480469,17 C10.7480469,18.3789063 9.62656249,19.5 8.24765623,19.5 C4.49687496,19.5 3.46835933,17.3898438 2.57773433,15.9050781 C2.4007812,15.6101563 2.0007812,15.7652344 1.99999995,16.1089844 C1.99648432,18.25 3.60664058,22 8.24765623,22 C11.0050781,22 13.2484375,19.7570313 13.2484375,17 C13.2484375,16.0851563 12.9835938,15.2382813 12.5527344,14.5 L13.4,14.5 C14.4425781,14.5 15.4222656,14.0941406 16.159375,13.3574219 L17.1066407,12.4101563 C17.3714844,12.1457031 17.7230469,12 18.0980469,12 C18.8707032,12 19.4996094,12.6285156 19.4996094,13.4015625 L19.4996094,17.3125 C19.4996094,17.8292969 18.7664063,18.25 18.2492188,18.25 C16.7101563,18.25 15.6449219,17.303125 15.053125,16.5746094 C14.8667969,16.3453125 14.4984375,16.4753906 14.4984375,16.7707031 L14.4984375,18.25 C14.4984375,18.25 14.4984375,20.75 18.2492188,20.75 C20.1453125,20.75 22,19.2082032 22,17.3125 L22,13.4015625 C22,11.25 20.25,9.49999999 18.0980469,9.49999999 Z M19.7457032,4.62773434 C16.4039063,7.17148435 13.1421875,4.73515621 13.0042969,4.62968746 C12.7691406,4.44921871 12.4402344,4.45859371 12.2175781,4.65117184 C11.9933594,4.84335934 11.9335937,5.16562497 12.0746094,5.42460934 C12.1375,5.53984372 13.6515625,8.25039061 16.7152344,8.25039061 C19.8371094,8.25039061 20.5738282,7.0253906 20.6898438,6.77929685 C20.7296875,6.69648435 20.7496094,6.60468747 20.7496094,6.51249997 L20.7496094,5.12499997 C20.7496094,4.60859371 20.1582032,4.31679684 19.7457032,4.62773434 Z" id="path-1"></path>
    </defs>
    <g id="om" stroke="none" stroke-width="1" fill="none" fill-rule="evenodd">
        <mask id="mask-2" fill="white">
            <use xlink:href="#path-1"></use>
        </mask>
        <g fill-rule="nonzero"></g>
        <g id="🎨-color" mask="url(#mask-2)" fill="#000000">
            <rect id="🎨-Color" x="0" y="0" width="24" height="24"></rect>
        </g>
    </g>
</svg>