<?xml version="1.0" encoding="UTF-8"?>
<svg width="24px" height="24px" viewBox="0 0 24 24" version="1.1" xmlns="http://www.w3.org/2000/svg" xmlns:xlink="http://www.w3.org/1999/xlink">
    <!-- Generator: Sketch 52.5 (67469) - http://www.bohemiancoding.com/sketch -->
    <title>opencart</title>
    <desc>Created with Sketch.</desc>
    <defs>
        <path d="M15.228125,17.771875 C15.228125,18.5625 14.59375,19.196875 13.803125,19.196875 C13.0125,19.196875 12.371875,18.5625 12.371875,17.771875 C12.371875,16.98125 13.015625,16.340625 13.803125,16.340625 C14.596875,16.340625 15.228125,16.98125 15.228125,17.771875 Z M7.29374998,16.340625 C6.50312497,16.340625 5.86874997,16.984375 5.86874997,17.771875 C5.86874997,18.559375 6.50312497,19.196875 7.29374998,19.196875 C8.08437498,19.196875 8.72499998,18.5625 8.72499998,17.771875 C8.72499998,16.98125 8.08437498,16.340625 7.29374998,16.340625 Z M16.409375,7.90312498 C6.96562497,7.90312498 4.55937496,7.50312498 1.99999995,4.80312496 C3.07499996,6.41874997 3.66562496,9.45624999 13.659375,9.30937499 C24.0750001,9.15312499 17.721875,12 15.871875,15.2125 C21.70625,10.003125 25.8531251,7.90312498 16.409375,7.90312498 Z" id="path-1"></path>
    </defs>
    <g id="opencart" stroke="none" stroke-width="1" fill="none" fill-rule="evenodd">
        <mask id="mask-2" fill="white">
            <use xlink:href="#path-1"></use>
        </mask>
        <g fill-rule="nonzero"></g>
        <g id="🎨-color" mask="url(#mask-2)" fill="#000000">
            <rect id="🎨-Color" x="0" y="0" width="24" height="24"></rect>
        </g>
    </g>
</svg>