<?xml version="1.0" encoding="UTF-8"?>
<svg width="24px" height="24px" viewBox="0 0 24 24" version="1.1" xmlns="http://www.w3.org/2000/svg" xmlns:xlink="http://www.w3.org/1999/xlink">
    <!-- Generator: Sketch 52.5 (67469) - http://www.bohemiancoding.com/sketch -->
    <title>opera</title>
    <desc>Created with Sketch.</desc>
    <defs>
        <path d="M14.5546875,3.27734371 C7.90624998,3.27734371 4.68749996,12.0195313 8.79296873,17.1484375 C10.21875,18.921875 12.2539063,20.1015625 14.5546875,20.1015625 C15.9726563,20.1015625 17.3007813,19.6679688 18.4375,18.9140625 C16.7265625,20.4453125 14.4570313,21.375 11.9804687,21.375 C11.828125,21.375 11.6679687,21.375 11.515625,21.3632813 C6.37890622,21.125 2.2929687,16.8867188 2.2929687,11.6875 C2.2929687,6.33593747 6.62890622,1.99999995 11.9804687,1.99999995 L12.0117188,1.99999995 C14.4765625,2.0117187 16.7265625,2.9414062 18.4335938,4.46484371 C17.3007813,3.70703121 15.96875,3.27734371 14.5546875,3.27734371 Z M18.53125,18.8125 C16.9335938,19.7773438 14.9882813,19.734375 13.375,18.5859375 C15.5703125,17.7851563 17.1914063,15.0078125 17.1914063,11.6875 C17.1914063,8.37890623 15.5820313,5.60156247 13.3867188,4.78906246 C15.0195313,3.64843746 16.9492188,3.60546871 18.578125,4.59374996 C22.7148438,8.44921873 22.6992188,14.9726563 18.53125,18.8125 Z" id="path-1"></path>
    </defs>
    <g id="opera" stroke="none" stroke-width="1" fill="none" fill-rule="evenodd">
        <mask id="mask-2" fill="white">
            <use xlink:href="#path-1"></use>
        </mask>
        <g fill-rule="nonzero"></g>
        <g id="🎨-color" mask="url(#mask-2)" fill="#000000">
            <rect id="🎨-Color" x="0" y="0" width="24" height="24"></rect>
        </g>
    </g>
</svg>