<?xml version="1.0" encoding="UTF-8"?>
<svg width="24px" height="24px" viewBox="0 0 24 24" version="1.1" xmlns="http://www.w3.org/2000/svg" xmlns:xlink="http://www.w3.org/1999/xlink">
    <!-- Generator: Sketch 52.5 (67469) - http://www.bohemiancoding.com/sketch -->
    <title>optin-monster</title>
    <desc>Created with Sketch.</desc>
    <defs>
        <path d="M21.1205209,18.746632 C21.1205209,19.1501042 20.5763195,19.4222223 20.0039237,19.2627084 C19.5817014,19.1501042 18.9155209,18.6528125 18.7465973,18.315 C18.5495834,17.9115278 18.8873611,17.1796528 19.4034028,17.2453472 C19.9476389,17.301632 21.1205209,18.1273264 21.1205209,18.746632 Z M14.9465278,5.7230208 C14.8151736,3.21777773 11.4466667,2.95503468 10.5740278,4.90670135 C12.1222222,4.06222218 13.7079514,4.36249996 14.9465278,5.7230208 Z M4.59704857,17.2453472 C4.05284718,17.301632 2.87996523,18.1273264 2.87996523,18.746632 C2.87996523,19.1501042 3.42416662,19.4222223 3.99652774,19.2627084 C4.41874996,19.1501042 5.07555552,18.6528125 5.24444441,18.315 C5.45090275,17.9115278 5.11312497,17.1796528 4.59704857,17.2453472 Z M21.8805556,17.7426389 C21.9180903,17.8646181 21.94625,17.9865973 21.94625,18.1179514 C21.974375,19.2157292 20.4074653,20.3417362 19.3940625,20.3792362 C18.7935417,20.4073612 18.1930209,20.0883681 17.9115625,19.5629167 C13.9706945,19.7036459 10.0298264,19.7318056 6.09836803,19.5629167 C5.80749997,20.0883681 5.20697913,20.3979862 4.6064583,20.3792362 C3.60246524,20.3417014 2.03552078,19.2157292 2.05427078,18.1179514 C2.06364578,17.9865973 2.08243051,17.8646181 2.11996523,17.7426389 C1.92670134,17.4140625 1.95173606,17.2120139 2.30763884,17.3391667 C2.42024301,17.1609028 2.55159717,17.0107639 2.69236106,16.860625 C2.60312495,16.4815625 2.73645829,16.37125 3.07704857,16.5415972 C3.23656246,16.4289931 3.42420135,16.3164236 3.63065968,16.2225695 C3.63065968,15.6754514 4.04173607,15.8360764 4.23118052,16.0255209 C4.66406246,15.9637153 4.93010413,16.0501389 5.16010413,16.2225695 L5.16010413,15.5376389 C4.70916663,15.5376389 3.74895829,15.1426736 3.56496524,14.2802778 C3.3922569,13.5606597 3.65548607,12.9582292 4.43760413,12.6288889 C4.46572913,12.4224653 4.71909719,12.1409722 4.9536458,12.0752778 C5.21638885,12.0095833 5.38527774,12.2347917 5.44156247,12.4318403 C5.69937497,12.4318403 6.05812497,12.4827083 6.17343747,12.7133333 C6.36111108,12.6945486 6.55812497,12.6663889 6.74579858,12.6476389 C6.66135414,12.5819444 6.5675347,12.5256597 6.46430553,12.488125 C6.28604164,12.1785069 5.98576386,12.1034375 5.61045136,12.0846528 C5.61045136,12.0565278 5.61045136,12.0283681 5.61982636,11.9908333 C4.93486108,11.9720486 4.0903819,11.7937847 3.7150694,11.3715625 C2.9747569,10.5507986 3.16177079,8.46958332 4.13729163,7.77788192 C4.42815968,7.58083331 4.88791663,7.7497222 4.92545135,8.1156597 C5.00965274,8.83086804 4.93930552,9.0473611 5.83559025,9.0164236 C6.1170833,8.74434026 6.41736108,8.50975693 6.75513886,8.32208331 C6.23909719,8.27513887 5.75118052,8.37836804 5.23506941,8.45343748 C5.67784719,8.02010415 6.0667708,7.5700347 7.20548609,6.98027775 C8.02184026,6.56743053 8.94135415,6.25777775 9.85149304,6.17336803 C9.20406249,5.90124997 8.4628472,5.76048608 7.7778472,5.60100691 C10.4332292,5.0380208 13.8392708,4.83159719 16.2601042,6.90524303 C16.88875,7.44006942 17.3860417,8.16256943 17.7426042,8.9882986 C19.1245139,9.15680554 19.0089236,8.79451387 19.084375,8.1156597 C19.1219098,7.7590972 19.5816667,7.58083331 19.8725348,7.78725692 C20.3885764,8.15319443 20.6419445,8.85690971 20.7263542,9.45743054 C20.8014237,10.0767014 20.7357292,10.8930208 20.294757,11.3715625 C19.9194445,11.7937847 19.1030903,11.9814583 18.4275348,12.0002083 L18.4275348,12.0940625 C18.0428125,12.1034375 17.7237848,12.1785069 17.5361111,12.4975347 C17.4329167,12.5350694 17.3390972,12.5913889 17.2452431,12.6570486 C17.4422917,12.6757986 17.6393403,12.7039583 17.8270139,12.7227083 C17.8919098,12.5276042 18.262257,12.4318403 18.5588542,12.4318403 C18.6151389,12.2441667 18.7934375,12.0189931 19.0467709,12.0752778 C19.3001042,12.1315625 19.5346875,12.4224306 19.5628473,12.6288889 C19.9381598,12.7790278 20.332257,13.0511111 20.4354514,13.5202778 C20.5011459,13.8017708 20.4917362,14.0457292 20.4448264,14.2802778 C20.246007,15.1574306 19.2864584,15.5376389 18.8497223,15.5376389 C18.8497223,15.7722222 18.8497223,15.9973959 18.8403473,16.2225695 C19.1184723,16.0140278 19.4086459,15.9740278 19.7692361,16.0255209 C19.974757,15.82 20.379132,15.6987847 20.379132,16.2225695 C20.5761806,16.3164236 20.7731945,16.4289931 20.9327431,16.5415972 C21.2834375,16.3662153 21.4073612,16.522882 21.3080556,16.860625 C21.4487848,17.0107292 21.5895487,17.1702431 21.6927431,17.3391667 C22.0446876,17.2134722 22.0754167,17.4113195 21.8805556,17.7426389 Z M19.3189931,8.92263887 C19.9195139,9.15722221 20.229132,9.6920486 20.3698612,10.1611805 C20.4073959,9.79524304 20.2760417,8.79128471 19.8913195,8.38781248 C19.6379861,8.13447915 19.4034028,8.20954859 19.4034028,8.41593748 C19.4034375,8.63177082 19.3565278,8.81940971 19.3189931,8.92263887 Z M18.6715625,9.3542361 C19.1219445,9.89843749 19.2626736,10.7992014 19.1125348,11.5404514 C19.4878473,11.4653819 19.825625,11.3246528 20.0226737,11.1182292 C20.0883681,11.0431597 20.1540278,10.9493403 20.1915625,10.8555208 C20.1540278,10.1142708 19.835,9.3729861 19.1594445,9.15718749 C19.046875,9.26979165 18.8404514,9.32607638 18.6715625,9.3542361 Z M17.9115278,9.38239582 C18.1742709,10.0954861 18.3431598,10.8648958 18.4088195,11.6249306 C18.5307986,11.6249306 18.6715625,11.6155556 18.8122917,11.5967708 C19.0187153,10.7522917 18.8029167,9.80461804 18.324375,9.39177082 C18.1930209,9.39177082 18.042882,9.39177082 17.9115278,9.38239582 Z M4.70027774,8.92263887 C4.66274302,8.81940971 4.6158333,8.63177082 4.6158333,8.41593748 C4.6158333,8.20951387 4.37187496,8.13444443 4.12791663,8.38781248 C3.7338194,8.79128471 3.61184024,9.79524304 3.64937496,10.1611805 C3.79010413,9.69201388 4.0997569,9.15718749 4.70027774,8.92263887 Z M4.89732635,11.5404861 C4.74718746,10.7992361 4.88795135,9.89843749 5.3383333,9.35427082 C5.16940969,9.3261111 4.9630208,9.26982638 4.85041663,9.15722221 C4.17482635,9.37302082 3.86517357,10.1142708 3.81826385,10.8555555 C3.86517357,10.949375 3.92145829,11.0431944 3.98715274,11.1182639 C4.18420135,11.3340625 4.52197913,11.4654167 4.89732635,11.5404861 Z M6.33291664,9.41989582 C6.15465275,9.45743054 5.98576386,9.52312499 5.81687497,9.58881943 L5.39465274,9.76708332 L5.39465274,9.75770832 C5.14131941,10.245625 5.04746524,10.9493403 5.20697913,11.5967708 C5.36649302,11.6155556 5.50722219,11.6249306 5.64795136,11.6249306 C5.7323958,10.8555208 5.96697914,10.1048611 6.33291664,9.41989582 Z M9.39177082,8.61298609 C9.39177082,10.0767014 10.5834028,11.2589931 12.0377778,11.2589931 C13.4921528,11.2589931 14.6837847,10.0767014 14.6837847,8.61298609 C14.6837847,7.15861109 13.4921528,5.97635414 12.0377778,5.97635414 C10.5834028,5.97635414 9.39177082,7.15861109 9.39177082,8.61298609 Z M14.6837847,11.9908681 C15.0299306,13.7480903 14.7983333,14.2371181 15.2561458,14.0081945 C15.809757,13.7267014 16.0443056,12.6476736 16.0537153,12.0283681 C15.6033334,12.0002431 15.1435417,12.0002431 14.6837847,11.9908681 Z M12.1972917,11.9720833 L12.1972917,11.9627083 C12.1879167,12.1409722 12.2066667,13.2857292 12.3474306,13.3889236 C12.7321181,13.5765972 13.7173264,13.5484375 14.1207986,13.4264583 C14.3084722,13.3701736 14.2052431,12.1409722 14.1770833,11.9720833 C13.5202778,11.9627083 12.8540972,11.9627083 12.1972917,11.9720833 Z M11.7093403,11.9720833 L11.7093403,11.9627083 C11.0337847,11.9720833 10.3676042,11.9720833 9.70138888,11.9908681 C9.63569443,12.3098611 9.54187499,13.6891667 9.76708332,13.7830208 C10.2174653,13.9800695 11.2120833,13.9612847 11.6624306,13.8393056 C11.8219792,13.7548611 11.7469097,12.2629514 11.7093403,11.9720833 Z M8.73496526,13.9706945 C8.92263887,14.0551389 9.03520832,14.0551389 9.07274304,13.8205556 C9.13843749,13.5203125 9.15718749,12.5444444 9.24166665,12.0096181 C8.81944443,12.0189931 8.38781248,12.0377778 7.96555554,12.0659028 C7.77788192,12.7508681 7.97493054,13.632882 8.73496526,13.9706945 Z M6.45489581,13.5859722 C7.97496526,15.2186111 9.67326388,16.560382 11.8688889,17.2828472 C14.2146528,16.6166667 15.8848264,15.1998264 17.5362153,13.5671875 C17.1509722,13.4173611 17.2683334,13.2073611 17.282882,13.1637153 C16.9732292,13.1355903 16.6636111,13.0980208 16.3633334,13.0698958 C16.0349306,14.2146181 15.1154167,14.9089583 14.7400695,14.1676736 C14.64625,13.9894097 14.6180903,13.7642014 14.5805556,13.5859375 C14.4492014,13.8768056 14.1207639,13.8674306 13.7267014,13.8955903 C13.2669445,13.933125 12.6288889,13.9425 12.1972569,13.7923958 C12.0940625,14.2427778 11.8125694,14.2427778 11.2683681,14.2896875 C10.7804514,14.336632 9.57940971,14.4304514 9.3636111,13.914375 C9.32607638,14.9089583 8.14381943,14.2615278 7.79663192,13.6704167 C7.68402776,13.4733681 7.60895831,13.2763195 7.55267359,13.0605208 C7.28055553,13.0886458 7.0084722,13.1168056 6.73631942,13.1543403 C6.82114581,13.2815278 6.79010414,13.4686458 6.45489581,13.5859722 Z M6.01388886,18.8592014 C5.81687497,18.0522917 5.3664583,17.1327431 4.85041663,16.9826042 C4.0716319,16.7480209 2.45774301,17.7989236 2.55156245,18.8779514 C2.9925694,19.5535417 3.94024302,20.1164931 4.6064583,20.1446528 C5.22572913,20.1727778 5.85437497,19.7599306 5.98576386,19.1406945 C6.00447914,19.05625 6.01388886,18.9624306 6.01388886,18.8592014 Z M6.26722219,18.6528125 C7.43072914,17.9772223 8.66927082,17.4142361 9.94538193,17.0201736 C8.60361109,16.3070834 7.58086803,15.359375 6.56749997,14.346007 C6.49243053,14.3929514 6.38923608,14.4304514 6.29541664,14.4679861 C6.23857636,14.6384722 6.59812497,14.6530556 6.48309025,14.8996181 C6.40802081,15.040382 6.18281247,15.1623611 5.95763886,15.2186458 C5.88260414,15.3124653 5.77937497,15.3875347 5.68555552,15.4438195 L5.67618052,15.4438195 C5.66680552,15.9129514 5.66680552,16.3821528 5.68555552,16.8512847 C5.99593747,17.4055903 6.22118053,18.0080209 6.26722219,18.6528125 Z M17.4048611,19.0937848 C16.12875,18.3525348 14.8338889,17.6581945 13.3889236,17.2547222 C12.9103819,17.4705209 12.4225,17.6487848 11.9252083,17.7895486 C11.8501389,17.8177084 11.8501389,17.8177084 11.7750694,17.7895486 C11.3622222,17.6581945 10.9681597,17.5080556 10.5646875,17.3297917 C9.16659721,17.7332639 7.88114581,18.3431598 6.66135414,19.0937848 L6.65197914,19.0937848 L6.65197914,19.1031598 C6.66135414,19.1031598 6.66135414,19.1031598 6.66135414,19.0937848 C10.245625,19.2345486 13.8299306,19.2157639 17.4048611,19.0937848 Z M18.3431598,16.87 L18.3337848,16.879375 C18.3525695,16.4008334 18.3619445,15.9223264 18.3619445,15.4437847 C18.2587153,15.3875 18.1648959,15.3030208 18.0804514,15.2092014 C17.8552778,15.1622917 17.6300695,15.0309375 17.555,14.8995486 C17.4893056,14.7588195 17.6019098,14.6368403 17.7614236,14.5429861 C17.7520486,14.5242014 17.7426389,14.4867014 17.7426389,14.4585417 C17.6394445,14.430382 17.5549653,14.3928472 17.4798959,14.3459375 C16.3821181,15.3686806 15.2092014,16.3163889 13.8862153,17.0107292 C15.2373958,17.4142014 16.5228472,17.9865625 17.7707639,18.6621528 C17.8072223,18.1520139 18.0218403,17.4208681 18.3431598,16.87 Z M19.1501042,16.9826389 C18.6434028,17.1327431 18.1836459,18.0522917 17.9865973,18.8592361 C17.9865973,19.6865278 18.7254167,20.1751042 19.3940278,20.1447223 C20.0602084,20.1165625 21.0079167,19.5536111 21.4489237,18.8780209 C21.5521528,17.7989584 19.9382639,16.7480209 19.1501042,16.9826389 Z M12.1178889,7.8010479 C12.1223889,7.8010479 12.1267889,7.8013479 12.1312889,7.8013479 C12.1358889,7.8013479 12.1402889,7.8010479 12.1448889,7.8010479 L12.1178889,7.8010479 Z M12.0940625,11.1276389 C13.0886806,11.1276389 13.8955903,10.3770139 13.8955903,9.44809027 C13.8955903,8.19489581 12.4890972,7.43145831 11.3903472,7.90927081 C11.71875,8.01246526 11.9627083,8.31274304 11.9627083,8.65989582 C11.9627083,9.46743054 10.8067708,9.76944443 10.3488194,9.05399304 C10.0954514,10.236875 11.0213194,11.1276389 12.0940625,11.1276389 Z M4.36246524,19.5723264 C4.38121524,19.7975348 4.78468746,20.0133334 5.11309024,19.9007292 C5.34767358,19.806875 5.61979163,19.5347917 5.71361108,19.3377431 C5.81684025,19.0937848 5.67607636,18.6434028 5.3758333,18.6997223 C5.06621524,18.756007 4.34371524,19.2814584 4.36246524,19.5723264 Z M18.6246181,18.6997223 C18.33375,18.6434375 18.1929861,19.0937848 18.2962153,19.3377431 C18.3806598,19.5347917 18.6527778,19.806875 18.8967361,19.9007292 C19.2157292,20.0133334 19.6286111,19.7975348 19.6379861,19.5723264 C19.6661459,19.2814584 18.9342709,18.756007 18.6246181,18.6997223 Z" id="path-1"></path>
    </defs>
    <g id="optin-monster" stroke="none" stroke-width="1" fill="none" fill-rule="evenodd">
        <mask id="mask-2" fill="white">
            <use xlink:href="#path-1"></use>
        </mask>
        <g fill-rule="nonzero"></g>
        <g id="🎨-color" mask="url(#mask-2)" fill="#000000">
            <rect id="🎨-Color" x="0" y="0" width="24" height="24"></rect>
        </g>
    </g>
</svg>