<?xml version="1.0" encoding="UTF-8"?>
<svg width="24px" height="24px" viewBox="0 0 24 24" version="1.1" xmlns="http://www.w3.org/2000/svg" xmlns:xlink="http://www.w3.org/1999/xlink">
    <!-- Generator: Sketch 52.5 (67469) - http://www.bohemiancoding.com/sketch -->
    <title>osi</title>
    <desc>Created with Sketch.</desc>
    <defs>
        <path d="M2.31249995,12.125 C2.4023437,6.82031247 6.11718747,3.04687496 10.6640625,2.4335937 C16.0859375,1.7070312 20.6484375,5.39453122 21.5234375,10.2890625 C22.3554688,14.9296875 19.8046875,19.2734375 15.6015625,20.9921875 C15.2382813,21.140625 15.0390625,21.0585938 14.8984375,20.6914063 C14.203125,18.8828125 13.5078125,17.0703125 12.8125,15.2617188 C12.6914063,14.9453125 12.7734375,14.7460938 13.0859375,14.6054688 C14.03125,14.1757813 14.6210938,13.4570313 14.7773438,12.4257813 C15.0273438,10.7695312 13.8203125,9.35156249 12.2578125,9.21484374 C10.734375,9.08203124 9.45312499,10.140625 9.23046874,11.546875 C9.02734374,12.8359375 9.66406249,14.0351563 10.8671875,14.5820313 C11.2421875,14.7539063 11.3164062,14.9179688 11.171875,15.3007813 C10.4726562,17.1210938 9.77343749,18.9414063 9.07421874,20.765625 C8.97265623,21.0351563 8.74999998,21.1289063 8.46874998,21.0195313 C6.41406247,20.2265625 4.50781246,18.6367188 3.35937496,16.3710938 C2.3867187,14.4492188 2.37499995,12.9453125 2.31249995,12.125 Z M3.12890621,12.0507813 C3.14453121,12.3085938 3.15234371,12.609375 3.17968746,12.9140625 C3.42578121,15.7226563 5.11718747,18.5195313 8.29687498,20.0664063 C8.42187498,20.125 8.46874998,20.0976563 8.51562498,19.9765625 C9.09765624,18.4492188 9.68359374,16.921875 10.2734375,15.3945313 C10.3242187,15.265625 10.296875,15.2070313 10.1796875,15.1328125 C8.94531248,14.3554688 8.33203123,13.2382813 8.39843748,11.7734375 C8.43749998,10.9296875 8.76171873,10.1914062 9.32812499,9.57421874 C10.5,8.29687498 12.3359375,8.01953123 13.8398438,8.88671873 C15.0859375,9.60546874 15.7734375,10.9882812 15.6054688,12.4179688 C15.4648438,13.6132813 14.8515625,14.5234375 13.8203125,15.1445313 C13.7148438,15.2070313 13.6835938,15.2578125 13.7304688,15.3789063 C14.3242188,16.9101563 14.9101563,18.4414063 15.4960938,19.9765625 C15.5429688,20.0976563 15.5898438,20.125 15.7148438,20.0664063 C17.1015625,19.4179688 18.2617188,18.4921875 19.15625,17.2539063 C20.515625,15.3710938 21.0742188,13.2734375 20.8085938,10.9648437 C20.2734375,6.37499997 16.1445313,2.5742187 10.828125,3.23046871 C6.68359372,3.73828121 3.19921871,7.23437498 3.12890621,12.0507813 Z" id="path-1"></path>
    </defs>
    <g id="osi" stroke="none" stroke-width="1" fill="none" fill-rule="evenodd">
        <mask id="mask-2" fill="white">
            <use xlink:href="#path-1"></use>
        </mask>
        <g fill-rule="nonzero"></g>
        <g id="🎨-color" mask="url(#mask-2)" fill="#000000">
            <rect id="🎨-Color" x="0" y="0" width="24" height="24"></rect>
        </g>
    </g>
</svg>