<?xml version="1.0" encoding="UTF-8"?>
<svg width="24px" height="24px" viewBox="0 0 24 24" version="1.1" xmlns="http://www.w3.org/2000/svg" xmlns:xlink="http://www.w3.org/1999/xlink">
    <!-- Generator: Sketch 52.5 (67469) - http://www.bohemiancoding.com/sketch -->
    <title>otter</title>
    <desc>Created with Sketch.</desc>
    <defs>
        <path d="M20.9719627,5.02180682 L19.9750779,5.02180682 L19.5623053,4.60903423 C19.1884445,4.23494816 18.6812148,4.02481657 18.1523365,4.02492208 L17.5140187,4.02492208 C17.1669782,4.02492208 16.8261682,4.11557628 16.5249221,4.2875389 L11.7507788,7.0155763 L10.0062305,7.0155763 C6.70280371,7.0155763 4.02492208,9.69345793 4.02492208,12.9968847 L4.02492208,13.0470405 C4.02492208,14.0672897 3.52647971,14.9828661 2.79252332,15.6915888 C2.22585665,16.2392524 1.91713391,17.0523365 2.07009341,17.9283489 C2.28068531,19.1370717 3.40654201,19.9750779 4.6333333,19.9750779 L8.01246104,19.9750779 C8.56292833,19.9750779 9.00934578,19.5286605 9.00934578,18.9781932 C9.00934578,18.4277259 8.56292833,17.9813084 8.01246104,17.9813084 L4.52336445,17.9813084 C4.24828657,17.9813084 4.02492208,17.757944 4.02492208,17.4828661 C4.02492208,17.2077882 4.24828657,16.9844237 4.52336445,16.9844237 L11.5015576,16.9844237 C11.776947,16.9844237 12,16.7613707 12,16.4859813 L12,15.987539 C12,15.4370717 11.5535826,14.9906542 11.0031153,14.9906542 L9.00934578,14.9906542 L13.6663551,12.482866 L15.987539,16.9844237 L18.4797508,16.9844237 C18.7551402,16.9844237 18.9781932,16.7613707 18.9781932,16.4859813 L18.9781932,15.987539 C18.9781932,15.4370717 18.5317757,14.9906542 17.9813084,14.9906542 L17.1021807,14.9906542 L15.3853583,11.5573209 L18.2660436,10.0062305 L18.9781932,10.0062305 C20.6299066,10.0062305 21.9688474,8.6672897 21.9688474,7.0155763 L21.9688474,6.01869156 C21.9688474,5.46822427 21.52243,5.02180682 20.9719627,5.02180682 Z M17.9813084,5.52024919 C18.2566979,5.52024919 18.4797508,5.74330215 18.4797508,6.01869156 C18.4797508,6.29408097 18.2566979,6.51713393 17.9813084,6.51713393 C17.705919,6.51713393 17.4828661,6.29408097 17.4828661,6.01869156 C17.4828661,5.74330215 17.705919,5.52024919 17.9813084,5.52024919 Z M18.9781932,8.51090341 L17.8890966,8.51090341 L14.7165109,10.2193146 L14.287539,9.36105918 L17.9813084,7.51401867 L20.38162,7.51401867 C20.1753894,8.09283487 19.6271028,8.51090341 18.9781932,8.51090341 Z" id="path-1"></path>
    </defs>
    <g id="otter" stroke="none" stroke-width="1" fill="none" fill-rule="evenodd">
        <mask id="mask-2" fill="white">
            <use xlink:href="#path-1"></use>
        </mask>
        <g fill-rule="nonzero"></g>
        <g id="🎨-color" mask="url(#mask-2)" fill="#000000">
            <rect id="🎨-Color" x="0" y="0" width="24" height="24"></rect>
        </g>
    </g>
</svg>