<?xml version="1.0" encoding="UTF-8"?>
<svg width="24px" height="24px" viewBox="0 0 24 24" version="1.1" xmlns="http://www.w3.org/2000/svg" xmlns:xlink="http://www.w3.org/1999/xlink">
    <!-- Generator: Sketch 52.5 (67469) - http://www.bohemiancoding.com/sketch -->
    <title>page4</title>
    <desc>Created with Sketch.</desc>
    <defs>
        <path d="M12,21.6875 C6.64843747,21.6875 2.31249995,17.3515625 2.31249995,12 C2.31249995,6.64843747 6.64843747,2.31249995 12,2.31249995 C12.8164063,2.31249995 13.6132813,2.41406245 14.3710938,2.6054687 L3.96484371,17.3125 L12,17.3125 L12,21.6875 Z M12,16.078125 L12,7.73437498 L6.16406247,16.078125 L12,16.078125 Z M15.75,17.3125 L15.75,20.9335938 C17.5351563,20.1835938 19.0507813,18.9140625 20.1015625,17.3125 L15.75,17.3125 Z M17.9921875,11.9140625 L17.1640625,12.2421875 L17.9921875,12.5664063 L17.9921875,11.9140625 Z M17.1992188,14.0429688 C16.9375,14.0429688 16.8867188,14.2890625 16.8867188,14.546875 L16.8867188,14.8476563 L17.5195313,14.8476563 L17.5195313,14.4570313 C17.5195313,14.2265625 17.4296875,14.0429688 17.1992188,14.0429688 Z M21.6875,12 C21.6875,13.4570313 21.3671875,14.8398438 20.7890625,16.078125 L15.75,16.078125 L15.75,3.06640621 C19.2382813,4.53124996 21.6875,7.98046873 21.6875,12 Z M16.390625,7.60937498 L19.0546875,7.60937498 L19.0546875,5.74999997 L18.5117188,5.74999997 L18.5117188,7.02343748 L17.96875,7.02343748 L17.96875,5.86718747 L17.4257813,5.86718747 L17.4257813,7.02343748 L16.9296875,7.02343748 L16.9296875,5.74999997 L16.3867188,5.74999997 L16.3867188,7.60937498 L16.390625,7.60937498 Z M19.0507813,14.8476563 L18.015625,14.8476563 L18.015625,14.4179688 C18.015625,13.8164063 17.796875,13.4335938 17.1992188,13.4335938 C16.5976563,13.4335938 16.390625,13.8476563 16.390625,14.4453125 L16.390625,15.4335938 L19.0546875,15.4335938 L19.0546875,14.8476563 L19.0507813,14.8476563 Z M19.0507813,10.8242187 L16.3867188,11.984375 L16.3867188,12.46875 L19.0507813,13.6210938 L19.0507813,12.9726563 L18.4882813,12.75 L18.4882813,11.7148437 L19.0507813,11.484375 L19.0507813,10.8242187 Z M18.8632813,8.14843748 L17.4726563,8.14843748 L17.4726563,9.18749999 L18.015625,9.18749999 L18.015625,8.71093748 L18.4453125,8.71093748 C18.78125,9.32812499 18.4960938,10.0898437 17.71875,10.0898437 C16.8398438,10.0898437 16.6132813,9.10156249 17.1132813,8.61718748 L16.6601563,8.20312498 C16.0273438,8.88671873 16.1835938,10.6992187 17.71875,10.6992187 C19.046875,10.6992187 19.4648438,9.29687499 18.8632813,8.14843748 Z" id="path-1"></path>
    </defs>
    <g id="page4" stroke="none" stroke-width="1" fill="none" fill-rule="evenodd">
        <mask id="mask-2" fill="white">
            <use xlink:href="#path-1"></use>
        </mask>
        <g fill-rule="nonzero"></g>
        <g id="🎨-color" mask="url(#mask-2)" fill="#000000">
            <rect id="🎨-Color" x="0" y="0" width="24" height="24"></rect>
        </g>
    </g>
</svg>