<?xml version="1.0" encoding="UTF-8"?>
<svg width="24px" height="24px" viewBox="0 0 24 24" version="1.1" xmlns="http://www.w3.org/2000/svg" xmlns:xlink="http://www.w3.org/1999/xlink">
    <!-- Generator: Sketch 52.5 (67469) - http://www.bohemiancoding.com/sketch -->
    <title>paint-roller</title>
    <desc>Created with Sketch.</desc>
    <defs>
        <path d="M18.25,6.99999997 L18.25,3.24999996 C18.25,2.55976558 17.6902344,1.99999995 17,1.99999995 L3.24999996,1.99999995 C2.55976558,1.99999995 1.99999995,2.55976558 1.99999995,3.24999996 L1.99999995,6.99999997 C1.99999995,7.69023435 2.55976558,8.24999998 3.24999996,8.24999998 L17,8.24999998 C17.6902344,8.24999998 18.25,7.69023435 18.25,6.99999997 Z M19.5,4.49999996 L19.5,9.49999999 C19.5,10.1902344 18.9402344,10.75 18.25,10.75 L12,10.75 C10.6191406,10.75 9.49999999,11.8691406 9.49999999,13.25 L9.49999999,14.5 C8.80976561,14.5 8.24999998,15.0597656 8.24999998,15.75 L8.24999998,20.75 C8.24999998,21.4402344 8.80976561,22 9.49999999,22 L12,22 C12.6902344,22 13.25,21.4402344 13.25,20.75 L13.25,15.75 C13.25,15.0597656 12.6902344,14.5 12,14.5 L12,13.25 L18.25,13.25 C20.3210938,13.25 22,11.5710937 22,9.49999999 L22,6.99999997 C22,5.61914059 20.8808594,4.49999996 19.5,4.49999996 Z" id="path-1"></path>
    </defs>
    <g id="paint-roller" stroke="none" stroke-width="1" fill="none" fill-rule="evenodd">
        <mask id="mask-2" fill="white">
            <use xlink:href="#path-1"></use>
        </mask>
        <g fill-rule="nonzero"></g>
        <g id="🎨-color" mask="url(#mask-2)" fill="#000000">
            <rect id="🎨-Color" x="0" y="0" width="24" height="24"></rect>
        </g>
    </g>
</svg>