<?xml version="1.0" encoding="UTF-8"?>
<svg width="24px" height="24px" viewBox="0 0 24 24" version="1.1" xmlns="http://www.w3.org/2000/svg" xmlns:xlink="http://www.w3.org/1999/xlink">
    <!-- Generator: Sketch 52.5 (67469) - http://www.bohemiancoding.com/sketch -->
    <title>paint-brush</title>
    <desc>Created with Sketch.</desc>
    <defs>
        <path d="M8.55048731,14.0795322 C6.98635475,14.180117 5.56686157,14.7758285 4.76140347,16.8982456 C4.66978554,17.1403509 4.44951263,17.2873295 4.19259255,17.2873295 C3.75945415,17.2873295 2.42027286,16.208577 2.03859644,15.9481482 C2.0389863,19.1586745 3.51773875,21.9805069 7.02923974,21.9805069 C9.98674463,21.9805069 12.0194932,20.2740741 12.0194932,17.2947369 C12.0194932,17.1734893 11.994152,17.0576998 11.9816764,16.9387914 L8.55048731,14.0795322 Z M19.8904484,2.01949313 C19.2994152,2.01949313 18.7454191,2.28109157 18.322807,2.66081867 C10.3536062,9.77972708 9.52436646,9.94697855 9.52436646,12.0424951 C9.52436646,12.5766082 9.65107211,13.08577 9.86471734,13.5512671 L12.3528265,15.6245614 C12.6339181,15.6947369 12.9235867,15.7426901 13.225731,15.7426901 C15.6471735,15.7426901 17.0506823,13.9699805 21.4580897,5.74424948 C21.745809,5.18479529 22,4.58050679 22,3.95126702 C22,2.82417149 20.9863548,2.01949313 19.8904484,2.01949313 Z" id="path-1"></path>
    </defs>
    <g id="paint-brush" stroke="none" stroke-width="1" fill="none" fill-rule="evenodd">
        <mask id="mask-2" fill="white">
            <use xlink:href="#path-1"></use>
        </mask>
        <g fill-rule="nonzero"></g>
        <g id="🎨-color" mask="url(#mask-2)" fill="#000000">
            <rect id="🎨-Color" x="0" y="0" width="24" height="24"></rect>
        </g>
    </g>
</svg>