<?xml version="1.0" encoding="UTF-8"?>
<svg width="24px" height="24px" viewBox="0 0 24 24" version="1.1" xmlns="http://www.w3.org/2000/svg" xmlns:xlink="http://www.w3.org/1999/xlink">
    <!-- Generator: Sketch 52.5 (67469) - http://www.bohemiancoding.com/sketch -->
    <title>palette</title>
    <desc>Created with Sketch.</desc>
    <defs>
        <path d="M9.98440545,2.23391808 C6.10916176,2.99025337 2.98635473,6.10526313 2.22222217,9.96881091 C0.779727039,17.2592593 7.35672512,22.6939572 12.3118908,21.925926 C13.9181287,21.6764133 14.705653,19.797271 13.9688109,18.3508772 C13.0682261,16.5808967 14.3547758,14.5146199 16.3430799,14.5146199 L19.4502924,14.5146199 C20.8460039,14.5146199 21.9766082,13.3606238 21.9805069,11.9688109 C21.9610137,5.82456137 16.3703704,0.990253356 9.98440545,2.23391808 Z M5.7621832,14.5146199 C5.07212472,14.5146199 4.51461985,13.957115 4.51461985,13.2670565 C4.51461985,12.5769981 5.07212472,12.0194932 5.7621832,12.0194932 C6.45224169,12.0194932 7.00974656,12.5769981 7.00974656,13.2670565 C7.00974656,13.957115 6.45224169,14.5146199 5.7621832,14.5146199 Z M7.00974656,9.52436646 C6.31968808,9.52436646 5.7621832,8.96686158 5.7621832,8.2768031 C5.7621832,7.58674462 6.31968808,7.02923974 7.00974656,7.02923974 C7.69980505,7.02923974 8.25730992,7.58674462 8.25730992,8.2768031 C8.25730992,8.96686158 7.69980505,9.52436646 7.00974656,9.52436646 Z M12,7.02923974 C11.3099415,7.02923974 10.7524366,6.47173487 10.7524366,5.78167638 C10.7524366,5.0916179 11.3099415,4.53411302 12,4.53411302 C12.6900585,4.53411302 13.2475634,5.0916179 13.2475634,5.78167638 C13.2475634,6.47173487 12.6900585,7.02923974 12,7.02923974 Z M16.9902534,9.52436646 C16.300195,9.52436646 15.7426901,8.96686158 15.7426901,8.2768031 C15.7426901,7.58674462 16.300195,7.02923974 16.9902534,7.02923974 C17.6803119,7.02923974 18.2378168,7.58674462 18.2378168,8.2768031 C18.2378168,8.96686158 17.6803119,9.52436646 16.9902534,9.52436646 Z" id="path-1"></path>
    </defs>
    <g id="palette" stroke="none" stroke-width="1" fill="none" fill-rule="evenodd">
        <mask id="mask-2" fill="white">
            <use xlink:href="#path-1"></use>
        </mask>
        <g fill-rule="nonzero"></g>
        <g id="🎨-color" mask="url(#mask-2)" fill="#000000">
            <rect id="🎨-Color" x="0" y="0" width="24" height="24"></rect>
        </g>
    </g>
</svg>