<?xml version="1.0" encoding="UTF-8"?>
<svg width="24px" height="24px" viewBox="0 0 24 24" version="1.1" xmlns="http://www.w3.org/2000/svg" xmlns:xlink="http://www.w3.org/1999/xlink">
    <!-- Generator: Sketch 52.5 (67469) - http://www.bohemiancoding.com/sketch -->
    <title>palfed</title>
    <desc>Created with Sketch.</desc>
    <defs>
        <path d="M15.3645834,9.84374999 C15.3645834,8.19791665 13.4479167,8.30902776 12.0520833,8.80902776 C12.0069444,10.1770833 11.9652778,11.6111111 11.9479167,12.96875 C11.9722222,13.0659722 12.0381944,13.1840278 12.4722222,13.1840278 C13.75,13.1840278 15.3680556,11.6979167 15.3645834,9.84374999 Z M8.61111109,12.3506944 C8.61805554,12.3506944 8.83680554,12.2569444 8.99999998,12.2569444 C9.9236111,12.2569444 9.71874999,13.7881945 8.49999998,13.7881945 C7.7534722,13.7881945 7.21180553,13.1597222 7.21180553,12.2951389 C7.21180553,10.8368055 8.70138887,8.97569443 10.7083333,7.90277776 C10.7430555,7.4722222 10.8125,7.13888886 11.0729167,6.92361109 C11.4618056,6.61111108 11.9965278,6.80208331 12.0972222,7.30902775 C14.6041667,6.53819442 16.7916667,7.34374998 16.7916667,9.80902777 C16.7916667,12.5138889 14.0381945,15.1076389 11.9270833,14.6076389 C11.9236111,15.9756945 11.9583333,17.1909722 12.0208333,18.0798611 L12.0208333,18.0868056 C12.0277778,18.2048611 12.0416667,18.5208334 11.8368056,18.75 C11.5034722,19.1180556 10.6770833,19.0972223 10.5729167,17.9756945 C10.4305555,16.4340278 10.5798611,10.8194444 10.6215278,9.55555554 C9.87499999,10.0763889 8.59027776,11.3020833 8.59027776,12.1909722 C8.59722221,12.2777778 8.60416665,12.3298611 8.61111109,12.3506944 Z M2.27777773,9.39930554 C2.27777773,9.39930554 2.27430551,10.6979167 3.61111107,10.6979167 L4.65277774,10.6979167 L5.43055552,18.2395834 C5.43055552,18.2395834 5.43055552,19.7777778 6.98263886,19.7777778 L17.0138889,19.7777778 C17.0138889,19.7777778 18.5659723,19.7638889 18.5659723,18.2395834 L19.34375,10.6979167 L20.3854167,10.6979167 C20.3854167,10.6979167 21.71875,10.7395833 21.71875,9.39930554 C21.71875,9.39930554 21.7222223,8.10069442 20.3854167,8.10069442 L19.3402778,8.10069442 C19.0868056,7.21180553 18.2916667,5.5208333 15.1944445,5.5208333 L14.2222222,5.5208333 L14.2222222,4.85763885 C14.2222222,4.85763885 14.1284722,4.21874996 13.4895833,4.21874996 L10.5104167,4.21874996 C10.5104167,4.21874996 9.77777777,4.21874996 9.77777777,4.85763885 L9.77777777,5.5208333 L8.80208332,5.5208333 C8.80208332,5.5208333 5.15624997,5.66666664 4.61805552,8.10069442 L3.61111107,8.10069442 C3.61111107,8.10069442 2.27777773,8.05902776 2.27777773,9.39930554 Z" id="path-1"></path>
    </defs>
    <g id="palfed" stroke="none" stroke-width="1" fill="none" fill-rule="evenodd">
        <mask id="mask-2" fill="white">
            <use xlink:href="#path-1"></use>
        </mask>
        <g fill-rule="nonzero"></g>
        <g id="🎨-color" mask="url(#mask-2)" fill="#000000">
            <rect id="🎨-Color" x="0" y="0" width="24" height="24"></rect>
        </g>
    </g>
</svg>