<?xml version="1.0" encoding="UTF-8"?>
<svg width="24px" height="24px" viewBox="0 0 24 24" version="1.1" xmlns="http://www.w3.org/2000/svg" xmlns:xlink="http://www.w3.org/1999/xlink">
    <!-- Generator: Sketch 52.5 (67469) - http://www.bohemiancoding.com/sketch -->
    <title>pallet</title>
    <desc>Created with Sketch.</desc>
    <defs>
        <path d="M6.49999997,12 L17.5,12 C17.775,12 18,11.775 18,11.5 L18,4.49999996 C18,4.22499996 17.775,3.99999996 17.5,3.99999996 L14,3.99999996 L14,7.99999998 L12,6.99999997 L9.99999999,7.99999998 L9.99999999,3.99999996 L6.49999997,3.99999996 C6.22499997,3.99999996 5.99999997,4.22499996 5.99999997,4.49999996 L5.99999997,11.5 C5.99999997,11.775 6.22499997,12 6.49999997,12 Z M21.5,16 C21.775,16 22.0000001,15.775 22.0000001,15.5 L22.0000001,14.5 C22.0000001,14.225 21.775,14 21.5,14 L2.49999995,14 C2.22499995,14 1.99999995,14.225 1.99999995,14.5 L1.99999995,15.5 C1.99999995,15.775 2.22499995,16 2.49999995,16 L3.99999996,16 L3.99999996,18 L2.49999995,18 C2.22499995,18 1.99999995,18.225 1.99999995,18.5 L1.99999995,19.5 C1.99999995,19.775 2.22499995,20 2.49999995,20 L21.5,20 C21.775,20 22.0000001,19.775 22.0000001,19.5 L22.0000001,18.5 C22.0000001,18.225 21.775,18 21.5,18 L20,18 L20,16 L21.5,16 Z M11,18 L5.99999997,18 L5.99999997,16 L11,16 L11,18 Z M18,18 L13,18 L13,16 L18,16 L18,18 Z" id="path-1"></path>
    </defs>
    <g id="pallet" stroke="none" stroke-width="1" fill="none" fill-rule="evenodd">
        <mask id="mask-2" fill="white">
            <use xlink:href="#path-1"></use>
        </mask>
        <g fill-rule="nonzero"></g>
        <g id="🎨-color" mask="url(#mask-2)" fill="#000000">
            <rect id="🎨-Color" x="0" y="0" width="24" height="24"></rect>
        </g>
    </g>
</svg>