<?xml version="1.0" encoding="UTF-8"?>
<svg width="24px" height="24px" viewBox="0 0 24 24" version="1.1" xmlns="http://www.w3.org/2000/svg" xmlns:xlink="http://www.w3.org/1999/xlink">
    <!-- Generator: Sketch 52.5 (67469) - http://www.bohemiancoding.com/sketch -->
    <title>paperclip</title>
    <desc>Created with Sketch.</desc>
    <defs>
        <path d="M4.95306039,20.2121638 C2.67508767,17.8617154 2.71754381,14.071384 5.00709548,11.7294737 L13.1848733,3.36452237 C14.9125926,1.59719293 17.7209747,1.59703699 19.4488499,3.36452237 C21.1599611,5.11477579 21.1620273,7.93875242 19.4488499,9.69107211 L12.3202339,16.9757505 C11.1562963,18.1662768 9.25461987,18.1496686 8.11040934,16.9368421 C7.00807015,15.7684211 7.04343077,13.9164523 8.16701752,12.7671345 L13.7710331,7.04257307 C14.0120468,6.79641323 14.4069786,6.7922027 14.6531384,7.03317736 L15.5444055,7.905653 C15.7906043,8.14666665 15.7947758,8.54159842 15.5538012,8.78775827 L9.95037036,14.5117739 C9.75808966,14.7084601 9.74623781,15.0352827 9.9251072,15.2249123 C10.0955555,15.4055751 10.3635088,15.408577 10.5367251,15.231345 L17.6653412,7.94670563 C18.4299805,7.16456138 18.4299805,5.89115007 17.6649123,5.10857696 C16.9168031,4.34339177 15.717271,4.34300191 14.9688499,5.10857696 L6.79103311,13.4734893 C5.43575045,14.8598441 5.41485377,17.1038987 6.74460036,18.4759455 C8.0705263,19.8440936 10.2138012,19.845809 11.5421832,18.4870955 L18.2501755,11.6255361 C18.4909942,11.3791813 18.885926,11.3747368 19.1322807,11.6155556 L20.0241716,12.4874464 C20.2705264,12.7282651 20.2750098,13.1231969 20.0341521,13.3695517 L13.3261599,20.2310722 C11.0035088,22.6068227 7.2465107,22.5786745 4.95306039,20.2121638 Z" id="path-1"></path>
    </defs>
    <g id="paperclip" stroke="none" stroke-width="1" fill="none" fill-rule="evenodd">
        <mask id="mask-2" fill="white">
            <use xlink:href="#path-1"></use>
        </mask>
        <g></g>
        <g id="🎨-color" mask="url(#mask-2)" fill="#000000">
            <rect id="🎨-Color" x="0" y="0" width="24" height="24"></rect>
        </g>
    </g>
</svg>