<?xml version="1.0" encoding="UTF-8"?>
<svg width="24px" height="24px" viewBox="0 0 24 24" version="1.1" xmlns="http://www.w3.org/2000/svg" xmlns:xlink="http://www.w3.org/1999/xlink">
    <!-- Generator: Sketch 52.5 (67469) - http://www.bohemiancoding.com/sketch -->
    <title>parachute-box</title>
    <desc>Created with Sketch.</desc>
    <defs>
        <path d="M21.9571985,8.84824901 C21.6031129,5.90661476 18.9066148,3.69649801 15.7976654,2.6731517 C17.2140078,4.20622564 18.225681,6.58754861 18.225681,9.50972761 L19.3190662,9.50972761 L14.7821012,14.5486381 C14.6848249,14.5252918 14.5953308,14.4902724 14.4902724,14.4902724 L12.6225681,14.4902724 L12.6225681,9.50972761 L16.9805448,9.50972761 C16.9805448,5.02723732 14.2996109,2.03891046 12,2.03891046 C9.70038909,2.03891046 7.01945523,5.02723732 7.01945523,9.50972761 L11.3774319,9.50972761 L11.3774319,14.4902724 L9.50972761,14.4902724 C9.40466925,14.4902724 9.31517508,14.5252918 9.21789882,14.5486381 L4.68093382,9.50972761 L5.77431904,9.50972761 C5.77431904,6.58754861 6.78599219,4.20622564 8.20233461,2.6731517 C5.09338518,3.70038906 2.39688711,5.91050581 2.04280151,8.84824901 C1.99999995,9.20233462 2.30739295,9.50972761 2.6653696,9.50972761 L3.00389101,9.50972761 L8.32295718,15.4202335 C8.29571983,15.5214008 8.26070037,15.6225681 8.26070037,15.7354086 L8.26070037,20.7159534 C8.26070037,21.4046693 8.81712061,21.9610895 9.50583656,21.9610895 L14.4863813,21.9610895 C15.1750973,21.9610895 15.7315175,21.4046693 15.7315175,20.7159534 L15.7315175,15.7354086 C15.7315175,15.6225681 15.6964981,15.5252918 15.6692607,15.4202335 L20.9922179,9.50972761 L21.3307393,9.50972761 C21.6926071,9.50972761 22.0000001,9.20622567 21.9571985,8.84824901 Z" id="path-1"></path>
    </defs>
    <g id="parachute-box" stroke="none" stroke-width="1" fill="none" fill-rule="evenodd">
        <mask id="mask-2" fill="white">
            <use xlink:href="#path-1"></use>
        </mask>
        <g></g>
        <g id="🎨-color" mask="url(#mask-2)" fill="#000000">
            <rect id="🎨-Color" x="0" y="0" width="24" height="24"></rect>
        </g>
    </g>
</svg>