<?xml version="1.0" encoding="UTF-8"?>
<svg width="24px" height="24px" viewBox="0 0 24 24" version="1.1" xmlns="http://www.w3.org/2000/svg" xmlns:xlink="http://www.w3.org/1999/xlink">
    <!-- Generator: Sketch 52.5 (67469) - http://www.bohemiancoding.com/sketch -->
    <title>parking</title>
    <desc>Created with Sketch.</desc>
    <defs>
        <path d="M18.875,3.24999996 L5.12499997,3.24999996 C4.08984371,3.24999996 3.24999996,4.08984371 3.24999996,5.12499997 L3.24999996,18.875 C3.24999996,19.9101563 4.08984371,20.75 5.12499997,20.75 L18.875,20.75 C19.9101563,20.75 20.75,19.9101563 20.75,18.875 L20.75,5.12499997 C20.75,4.08984371 19.9101563,3.24999996 18.875,3.24999996 Z M12.625,14.5 L10.75,14.5 L10.75,16.375 C10.75,16.71875 10.46875,17 10.125,17 L8.87499998,17 C8.53124998,17 8.24999998,16.71875 8.24999998,16.375 L8.24999998,7.62499998 C8.24999998,7.28124998 8.53124998,6.99999997 8.87499998,6.99999997 L12.625,6.99999997 C14.6914063,6.99999997 16.375,8.68359373 16.375,10.75 C16.375,12.8164063 14.6914063,14.5 12.625,14.5 Z M12.625,9.49999999 L10.75,9.49999999 L10.75,12 L12.625,12 C13.3125,12 13.875,11.4375 13.875,10.75 C13.875,10.0625 13.3125,9.49999999 12.625,9.49999999 Z" id="path-1"></path>
    </defs>
    <g id="parking" stroke="none" stroke-width="1" fill="none" fill-rule="evenodd">
        <mask id="mask-2" fill="white">
            <use xlink:href="#path-1"></use>
        </mask>
        <g fill-rule="nonzero"></g>
        <g id="🎨-color" mask="url(#mask-2)" fill="#000000">
            <rect id="🎨-Color" x="0" y="0" width="24" height="24"></rect>
        </g>
    </g>
</svg>