<?xml version="1.0" encoding="UTF-8"?>
<svg width="24px" height="24px" viewBox="0 0 24 24" version="1.1" xmlns="http://www.w3.org/2000/svg" xmlns:xlink="http://www.w3.org/1999/xlink">
    <!-- Generator: Sketch 52.5 (67469) - http://www.bohemiancoding.com/sketch -->
    <title>passport</title>
    <desc>Created with Sketch.</desc>
    <defs>
        <path d="M8.31328123,8.87499998 L9.84023436,8.87499998 C9.89843749,7.8191406 10.0957031,6.8691406 10.3953125,6.12460935 C9.31289061,6.64179685 8.51953123,7.65546873 8.31328123,8.87499998 Z M8.31328123,10.125 C8.51992186,11.3445312 9.31289061,12.3582031 10.3953125,12.8753906 C10.0953125,12.1308594 9.89843749,11.1808594 9.84023436,10.125 L8.31328123,10.125 Z M12,13.1988281 C12.3003906,12.9078125 12.8113281,11.8542969 12.9152344,10.125 L11.084375,10.125 C11.1886719,11.8539062 11.6996094,12.9078125 12,13.1988281 Z M11.0847656,8.87499998 L12.915625,8.87499998 C12.8117188,7.14609373 12.3007813,6.09218747 12.0003906,5.80117184 C11.6996094,6.09218747 11.1886719,7.14609373 11.0847656,8.87499998 Z M13.6046875,12.8753906 C14.6871094,12.3582031 15.4804688,11.3445312 15.6867188,10.125 L14.1597656,10.125 C14.1015625,11.1808594 13.9046875,12.1308594 13.6046875,12.8753906 Z M19.5,1.99999995 L5.74999997,1.99999995 C4.36914059,1.99999995 3.24999996,3.11914058 3.24999996,4.49999996 L3.24999996,19.5 C3.24999996,20.8808594 4.36914059,22.0000001 5.74999997,22.0000001 L19.5,22.0000001 C20.1902344,22.0000001 20.75,21.4402344 20.75,20.75 L20.75,3.24999996 C20.75,2.55976558 20.1902344,1.99999995 19.5,1.99999995 Z M16.375,18.25 L7.62499998,18.25 C7.28124998,18.25 6.99999997,17.96875 6.99999997,17.625 C6.99999997,17.28125 7.28124998,17 7.62499998,17 L16.375,17 C16.71875,17 17,17.28125 17,17.625 C17,17.96875 16.71875,18.25 16.375,18.25 Z M12,14.5 C9.23867186,14.5 6.99999997,12.2613281 6.99999997,9.49999999 C6.99999997,6.73867185 9.23867186,4.49999996 12,4.49999996 C14.7613281,4.49999996 17,6.73867185 17,9.49999999 C17,12.2613281 14.7613281,14.5 12,14.5 Z M13.6046875,6.12460935 C13.9046875,6.8691406 14.1015625,7.8191406 14.1597656,8.87499998 L15.6867188,8.87499998 C15.4804688,7.65546873 14.6871094,6.64179685 13.6046875,6.12460935 Z" id="path-1"></path>
    </defs>
    <g id="passport" stroke="none" stroke-width="1" fill="none" fill-rule="evenodd">
        <mask id="mask-2" fill="white">
            <use xlink:href="#path-1"></use>
        </mask>
        <g fill-rule="nonzero"></g>
        <g id="🎨-color" mask="url(#mask-2)" fill="#000000">
            <rect id="🎨-Color" x="0" y="0" width="24" height="24"></rect>
        </g>
    </g>
</svg>