<?xml version="1.0" encoding="UTF-8"?>
<svg width="24px" height="24px" viewBox="0 0 24 24" version="1.1" xmlns="http://www.w3.org/2000/svg" xmlns:xlink="http://www.w3.org/1999/xlink">
    <!-- Generator: Sketch 52.5 (67469) - http://www.bohemiancoding.com/sketch -->
    <title>paw</title>
    <desc>Created with Sketch.</desc>
    <defs>
        <path d="M12.0194932,10.7524366 C8.92358673,10.7524366 4.53411302,15.5384016 4.53411302,18.5594542 C4.53411302,19.920078 5.5793372,20.7329435 7.33099413,20.7329435 C9.23508771,20.7329435 10.4923977,19.7551657 12.0194932,19.7551657 C13.5598441,19.7551657 14.8206628,20.7329435 16.7079922,20.7329435 C18.4596492,20.7329435 19.5048733,19.920078 19.5048733,18.5594542 C19.5048733,15.5384016 15.1153996,10.7524366 12.0194932,10.7524366 Z M6.27758282,10.2608187 C5.87212473,8.90994151 4.62300191,8.0350877 3.48771926,8.30643273 C2.3524366,8.57777776 1.76101359,9.89278751 2.16647169,11.2436647 C2.57192978,12.5945419 3.82105259,13.4693957 4.95633525,13.1980507 C6.0916179,12.9267057 6.68304091,11.6116959 6.27758282,10.2608187 Z M9.58050681,9.45068225 C10.7867446,9.13333332 11.3902534,7.50370368 10.928655,5.81091615 C10.4670565,4.11812862 9.11500973,3.00350873 7.90877191,3.32085766 C6.70253409,3.63820659 6.09902531,5.26783622 6.56062375,6.96062376 C7.0222222,8.65341129 8.37465885,9.76842104 9.58050681,9.45068225 Z M20.5508772,8.30682259 C19.4155946,8.03547756 18.1668616,8.91033137 17.7610137,10.2612086 C17.3555556,11.6120858 17.9469786,12.9270955 19.0822612,13.1984406 C20.2175439,13.4697856 21.4662769,12.5949318 21.8721248,11.2440546 C22.2775829,9.89317738 21.6861599,8.57816762 20.5508772,8.30682259 Z M14.4584795,9.45068225 C15.6647174,9.76803118 17.0167642,8.65341129 17.4783626,6.96062376 C17.939961,5.26783622 17.3364523,3.63859645 16.1302144,3.32085766 C14.9239766,3.00311886 13.5719298,4.11812862 13.1103314,5.81091615 C12.6487329,7.50370368 13.2522417,9.13333332 14.4584795,9.45068225 Z" id="path-1"></path>
    </defs>
    <g id="paw" stroke="none" stroke-width="1" fill="none" fill-rule="evenodd">
        <mask id="mask-2" fill="white">
            <use xlink:href="#path-1"></use>
        </mask>
        <g fill-rule="nonzero"></g>
        <g id="🎨-color" mask="url(#mask-2)" fill="#000000">
            <rect id="🎨-Color" x="0" y="0" width="24" height="24"></rect>
        </g>
    </g>
</svg>