<?xml version="1.0" encoding="UTF-8"?>
<svg width="24px" height="24px" viewBox="0 0 24 24" version="1.1" xmlns="http://www.w3.org/2000/svg" xmlns:xlink="http://www.w3.org/1999/xlink">
    <!-- Generator: Sketch 52.5 (67469) - http://www.bohemiancoding.com/sketch -->
    <title>paypal</title>
    <desc>Created with Sketch.</desc>
    <defs>
        <path d="M8.85156248,13.5585938 C8.71484373,14.3085938 8.17187498,17.8046875 8.01171873,18.7929688 C7.99999998,18.8632813 7.97265623,18.890625 7.89453123,18.890625 L4.98046871,18.890625 C4.68359371,18.890625 4.46874996,18.6328125 4.50781246,18.3476563 L6.79687497,3.82031246 C6.85546872,3.44531246 7.19140623,3.16015621 7.57812498,3.16015621 C13.5273438,3.16015621 14.0273438,3.01562496 15.546875,3.60546871 C17.8945313,4.51562496 18.109375,6.71093747 17.265625,9.08593749 C16.4257813,11.53125 14.4335938,12.5820313 11.7929687,12.6132813 C10.0976562,12.640625 9.07812499,12.3398438 8.85156248,13.5585938 Z M18.4492188,7.93749998 C18.3789063,7.88671873 18.3515625,7.86718748 18.3320313,7.98828123 C18.2539063,8.43359373 18.1328125,8.86718748 17.9882813,9.30078124 C16.4296875,13.7460938 12.109375,13.359375 9.99999999,13.359375 C9.76171874,13.359375 9.60546874,13.4882813 9.57421874,13.7265625 C8.69140623,19.2109375 8.51562498,20.3554688 8.51562498,20.3554688 C8.47656248,20.6328125 8.65234373,20.859375 8.92968748,20.859375 L11.4101562,20.859375 C11.7460937,20.859375 12.0234375,20.6132813 12.0898438,20.2773438 C12.1171875,20.0664063 12.046875,20.515625 12.6523438,16.7109375 C12.8320313,15.8515625 13.2109375,15.9414063 13.796875,15.9414063 C16.5703125,15.9414063 18.734375,14.8164063 19.3789063,11.5546875 C19.6328125,10.1953125 19.5585938,8.76562498 18.4492188,7.93749998 Z" id="path-1"></path>
    </defs>
    <g id="paypal" stroke="none" stroke-width="1" fill="none" fill-rule="evenodd">
        <mask id="mask-2" fill="white">
            <use xlink:href="#path-1"></use>
        </mask>
        <g fill-rule="nonzero"></g>
        <g id="🎨-color" mask="url(#mask-2)" fill="#000000">
            <rect id="🎨-Color" x="0" y="0" width="24" height="24"></rect>
        </g>
    </g>
</svg>