<?xml version="1.0" encoding="UTF-8"?>
<svg width="24px" height="24px" viewBox="0 0 24 24" version="1.1" xmlns="http://www.w3.org/2000/svg" xmlns:xlink="http://www.w3.org/1999/xlink">
    <!-- Generator: Sketch 52.5 (67469) - http://www.bohemiancoding.com/sketch -->
    <title>peace</title>
    <desc>Created with Sketch.</desc>
    <defs>
        <path d="M12,2.31249995 C6.64960935,2.31249995 2.31249995,6.64960935 2.31249995,12 C2.31249995,17.3503907 6.64960935,21.6875 12,21.6875 C17.3503907,21.6875 21.6875,17.3503907 21.6875,12 C21.6875,6.64960935 17.3503907,2.31249995 12,2.31249995 Z M19.1875,12 C19.1875,13.2472656 18.8671875,14.4207031 18.3058594,15.4441406 L13.25,11.3996094 L13.25,4.92851559 C16.6183594,5.52265622 19.1875,8.46367186 19.1875,12 Z M10.75,19.0714844 C9.42734374,18.8382813 8.23085936,18.2433594 7.26210935,17.3910157 L10.75,14.6003906 L10.75,19.0714844 Z M13.25,14.6003906 L16.7378906,17.390625 C15.7691406,18.2429688 14.5726563,18.8378907 13.25,19.0710938 L13.25,14.6003906 Z M10.75,4.92851559 L10.75,11.3996094 L5.69414059,15.4441406 C5.13281247,14.4207031 4.81249996,13.2472656 4.81249996,12 C4.81249996,8.46367186 7.3816406,5.52265622 10.75,4.92851559 Z" id="path-1"></path>
    </defs>
    <g id="peace" stroke="none" stroke-width="1" fill="none" fill-rule="evenodd">
        <mask id="mask-2" fill="white">
            <use xlink:href="#path-1"></use>
        </mask>
        <g fill-rule="nonzero"></g>
        <g id="🎨-color" mask="url(#mask-2)" fill="#000000">
            <rect id="🎨-Color" x="0" y="0" width="24" height="24"></rect>
        </g>
    </g>
</svg>