<?xml version="1.0" encoding="UTF-8"?>
<svg width="24px" height="24px" viewBox="0 0 24 24" version="1.1" xmlns="http://www.w3.org/2000/svg" xmlns:xlink="http://www.w3.org/1999/xlink">
    <!-- Generator: Sketch 52.5 (67469) - http://www.bohemiancoding.com/sketch -->
    <title>pen-square</title>
    <desc>Created with Sketch.</desc>
    <defs>
        <path d="M18.875,20.75 L5.12499997,20.75 C4.08984371,20.75 3.24999996,19.9101563 3.24999996,18.875 L3.24999996,5.12499997 C3.24999996,4.08984371 4.08984371,3.24999996 5.12499997,3.24999996 L18.875,3.24999996 C19.9101563,3.24999996 20.75,4.08984371 20.75,5.12499997 L20.75,18.875 C20.75,19.9101563 19.9101563,20.75 18.875,20.75 Z M12.5507813,8.94921873 L7.24999998,14.25 L7.00390623,16.4804688 C6.97265622,16.7773438 7.22265623,17.03125 7.52343748,17 L9.75390624,16.7539063 L15.0546875,11.453125 C15.1445313,11.3632812 15.1445313,11.2148437 15.0546875,11.1210937 L12.8867188,8.95312498 C12.7890625,8.85937498 12.640625,8.85937498 12.5507813,8.94921873 Z M16.7265625,8.44921873 L15.5507813,7.27343748 C15.1835938,6.90624997 14.5898438,6.90624997 14.2265625,7.27343748 L13.3242188,8.17578123 C13.234375,8.26562498 13.234375,8.41406248 13.3242188,8.50781248 L15.4921875,10.6757812 C15.5820313,10.765625 15.7304688,10.765625 15.8242188,10.6757812 L16.7265625,9.77343749 C17.0898438,9.41015624 17.0898438,8.81640623 16.7265625,8.44921873 Z" id="path-1"></path>
    </defs>
    <g id="pen-square" stroke="none" stroke-width="1" fill="none" fill-rule="evenodd">
        <mask id="mask-2" fill="white">
            <use xlink:href="#path-1"></use>
        </mask>
        <g fill-rule="nonzero"></g>
        <g id="🎨-color" mask="url(#mask-2)" fill="#000000">
            <rect id="🎨-Color" x="0" y="0" width="24" height="24"></rect>
        </g>
    </g>
</svg>