<?xml version="1.0" encoding="UTF-8"?>
<svg width="24px" height="24px" viewBox="0 0 24 24" version="1.1" xmlns="http://www.w3.org/2000/svg" xmlns:xlink="http://www.w3.org/1999/xlink">
    <!-- Generator: Sketch 52.5 (67469) - http://www.bohemiancoding.com/sketch -->
    <title>pen-alt</title>
    <desc>Created with Sketch.</desc>
    <defs>
        <path d="M21.4140078,4.92490269 L19.0750973,2.58599217 C18.3455253,1.85642018 17.1622568,1.85642018 16.4326848,2.58599217 L14.2322957,4.78638129 L19.2136187,9.76770427 L21.4140078,7.56731515 C22.1435798,6.83774316 22.1435798,5.65486378 21.4140078,4.92490269 Z M11.8108949,4.12607 C11.2031128,3.5182879 10.2178988,3.5182879 9.61011672,4.12607 L4.98832681,8.74824901 C4.74513615,8.99143967 4.74513615,9.3856031 4.98832681,9.62840466 L5.86887156,10.5089494 C6.11206223,10.7521401 6.50622565,10.7521401 6.74941632,10.5089494 L10.711284,6.54708168 L11.5918288,7.42723733 L5.6945525,13.3241245 C3.65188197,15.3668108 2.36502022,18.0437247 2.04552524,20.914786 L2.04435793,20.9237355 C1.97821007,21.518288 2.4805447,22.0210117 3.07509723,21.955253 C5.94985502,21.6378195 8.63070367,20.3505071 10.6758755,18.3054475 L18.333074,10.648249 L15.1124514,7.42762644 L11.8108949,4.12607 Z" id="path-1"></path>
    </defs>
    <g id="pen-alt" stroke="none" stroke-width="1" fill="none" fill-rule="evenodd">
        <mask id="mask-2" fill="white">
            <use xlink:href="#path-1"></use>
        </mask>
        <g fill-rule="nonzero"></g>
        <g id="🎨-color" mask="url(#mask-2)" fill="#000000">
            <rect id="🎨-Color" x="0" y="0" width="24" height="24"></rect>
        </g>
    </g>
</svg>