<?xml version="1.0" encoding="UTF-8"?>
<svg width="24px" height="24px" viewBox="0 0 24 24" version="1.1" xmlns="http://www.w3.org/2000/svg" xmlns:xlink="http://www.w3.org/1999/xlink">
    <!-- Generator: Sketch 52.5 (67469) - http://www.bohemiancoding.com/sketch -->
    <title>pen-nib</title>
    <desc>Created with Sketch.</desc>
    <defs>
        <path d="M7.33463033,7.43929959 C6.54117743,7.66356892 5.91016481,8.26602497 5.64941631,9.04824901 L2.0194552,19.9377432 L2.59105054,20.5093386 L8.4319066,14.6684825 C8.31556418,14.4249027 8.24513617,14.155642 8.24513617,13.8677043 C8.24513617,12.8361868 9.08132294,12 10.1128405,12 C11.144358,12 11.9805447,12.8361868 11.9805447,13.8677043 C11.9805447,14.8992218 11.144358,15.7354086 10.1128405,15.7354086 C9.82490271,15.7354086 9.55564201,15.6649806 9.31206224,15.5486382 L3.47120618,21.3894942 L4.04280152,21.9610895 L14.9322957,18.3311284 C15.7145198,18.0703799 16.3169758,17.4393673 16.5412452,16.6459144 L18.2062257,10.7548638 L13.2256809,5.77431904 L7.33463033,7.43929959 Z M21.3945526,4.92490269 L19.0556421,2.58599217 C18.3260701,1.85642018 17.1428016,1.85642018 16.4132296,2.58599217 L14.2128405,4.78638129 L19.1941635,9.76770427 L21.3945526,7.56731515 C22.1241246,6.83774316 22.1241246,5.65486378 21.3945526,4.92490269 Z" id="path-1"></path>
    </defs>
    <g id="pen-nib" stroke="none" stroke-width="1" fill="none" fill-rule="evenodd">
        <mask id="mask-2" fill="white">
            <use xlink:href="#path-1"></use>
        </mask>
        <g fill-rule="nonzero"></g>
        <g id="🎨-color" mask="url(#mask-2)" fill="#000000">
            <rect id="🎨-Color" x="0" y="0" width="24" height="24"></rect>
        </g>
    </g>
</svg>