<?xml version="1.0" encoding="UTF-8"?>
<svg width="24px" height="24px" viewBox="0 0 24 24" version="1.1" xmlns="http://www.w3.org/2000/svg" xmlns:xlink="http://www.w3.org/1999/xlink">
    <!-- Generator: Sketch 52.5 (67469) - http://www.bohemiancoding.com/sketch -->
    <title>pen-fancy</title>
    <desc>Created with Sketch.</desc>
    <defs>
        <path d="M5.11984432,13.048249 C4.74802339,13.1722071 4.45625374,13.4639767 4.33229568,13.8357977 L2.03891046,20.7159534 L2.22140073,20.8984436 L5.83579763,17.2840467 C5.8101167,17.1844358 5.77470814,17.0883269 5.77470814,16.9805448 C5.77470814,16.2929961 6.33229569,15.7354086 7.01984433,15.7354086 C7.70739297,15.7354086 8.26498053,16.2929961 8.26498053,16.9805448 C8.26498053,17.6680934 7.70739297,18.225681 7.01984433,18.225681 C6.91206223,18.225681 6.81595328,18.1902724 6.71634239,18.1645915 L3.10194548,21.7789884 L3.28404665,21.9610895 L10.1642023,19.6677043 C10.5360961,19.5438641 10.8279107,19.2520494 10.951751,18.8801557 L12.2385214,15.6089494 L8.39105057,11.7614786 L5.11984432,13.048249 Z M16.4066148,3.14085599 L9.28171205,10.9031128 L13.0891051,14.7105059 L20.8513619,7.58560309 C24.1556421,4.6645914 19.3046693,-0.137743251 16.4066148,3.14085599 Z" id="path-1"></path>
    </defs>
    <g id="pen-fancy" stroke="none" stroke-width="1" fill="none" fill-rule="evenodd">
        <mask id="mask-2" fill="white">
            <use xlink:href="#path-1"></use>
        </mask>
        <g fill-rule="nonzero"></g>
        <g id="🎨-color" mask="url(#mask-2)" fill="#000000">
            <rect id="🎨-Color" x="0" y="0" width="24" height="24"></rect>
        </g>
    </g>
</svg>