<?xml version="1.0" encoding="UTF-8"?>
<svg width="24px" height="24px" viewBox="0 0 24 24" version="1.1" xmlns="http://www.w3.org/2000/svg" xmlns:xlink="http://www.w3.org/1999/xlink">
    <!-- Generator: Sketch 52.5 (67469) - http://www.bohemiancoding.com/sketch -->
    <title>pencil-ruler</title>
    <desc>Created with Sketch.</desc>
    <defs>
        <path d="M6.29805445,11.5540856 L11.5346303,6.31828791 L9.81789882,4.60155638 L7.41789881,7.0015564 C7.36009573,7.05947157 7.28163062,7.09201741 7.19980542,7.09201741 C7.11798023,7.09201741 7.03951512,7.05947157 6.98171204,7.0015564 L6.54552526,6.56536962 C6.4249027,6.44474705 6.4249027,6.24941631 6.54552526,6.12918285 L8.94552528,3.72918284 L7.63657585,2.41984431 C7.15447468,1.93774314 6.37315172,1.93774314 5.89105055,2.41984431 L2.40038906,5.91050581 C1.91867699,6.39260698 1.91828789,7.17392994 2.40038906,7.65603111 L6.29805445,11.5540856 Z M21.4136187,7.0093385 C22.1435798,6.2793774 22.1431907,5.09610891 21.4136187,4.36614782 L19.6529183,2.60544742 C18.9229572,1.87548633 17.7392996,1.87548633 17.0089494,2.60544742 L15.218288,4.39571981 L19.6229572,8.80038909 L21.4136187,7.0093385 Z M14.3377432,5.27665366 L2.78132291,16.8315175 L2.05136182,21.0120623 C1.95291824,21.5758755 2.44396882,22.0669261 3.00817116,21.9677043 L7.18910503,21.2346304 L18.7424125,9.68093384 L14.3377432,5.27665366 Z M21.5996109,16.3828794 L20.2906615,15.07393 L17.8906615,17.47393 C17.7700389,17.5945526 17.5747082,17.5945526 17.4544747,17.47393 L17.018288,17.0377432 C16.8980545,16.9171206 16.8980545,16.7217899 17.018288,16.6015564 L19.418288,14.2015564 L17.7007782,12.4840467 L12.4642023,17.7198444 L16.3634241,21.6186771 C16.8455253,22.1007783 17.6268483,22.1007783 18.1089494,21.6186771 L21.5996109,18.1284047 C22.0817121,17.6463035 22.0817121,16.8649806 21.5996109,16.3828794 Z" id="path-1"></path>
    </defs>
    <g id="pencil-ruler" stroke="none" stroke-width="1" fill="none" fill-rule="evenodd">
        <mask id="mask-2" fill="white">
            <use xlink:href="#path-1"></use>
        </mask>
        <g fill-rule="nonzero"></g>
        <g id="🎨-color" mask="url(#mask-2)" fill="#000000">
            <rect id="🎨-Color" x="0" y="0" width="24" height="24"></rect>
        </g>
    </g>
</svg>