<?xml version="1.0" encoding="UTF-8"?>
<svg width="24px" height="24px" viewBox="0 0 24 24" version="1.1" xmlns="http://www.w3.org/2000/svg" xmlns:xlink="http://www.w3.org/1999/xlink">
    <!-- Generator: Sketch 52.5 (67469) - http://www.bohemiancoding.com/sketch -->
    <title>pencil-alt</title>
    <desc>Created with Sketch.</desc>
    <defs>
        <path d="M21.4307993,7.53996099 L19.6335283,9.33723196 C19.4502924,9.52046782 19.1539961,9.52046782 18.9707603,9.33723196 L14.6432749,5.00974655 C14.460039,4.82651069 14.460039,4.53021439 14.6432749,4.34697852 L16.4405458,2.54970756 C17.1695907,1.82066272 18.3547759,1.82066272 19.0877193,2.54970756 L21.4307993,4.89278749 C22.1637427,5.62183233 22.1637427,6.80701752 21.4307993,7.53996099 Z M13.0994152,5.89083818 L2.86159839,16.128655 L2.03508767,20.8654971 C1.92202724,21.5048733 2.47953212,22.0584796 3.11890834,21.9493178 L7.85575047,21.1189084 L18.0935673,10.8810916 C18.2768032,10.6978557 18.2768032,10.4015594 18.0935673,10.2183236 L13.7660819,5.89083818 C13.5789474,5.70760231 13.2826511,5.70760231 13.0994152,5.89083818 Z M6.85769978,15.251462 C6.64327483,15.0370371 6.64327483,14.6939571 6.85769978,14.4795322 L12.8615984,8.47563351 C13.0760234,8.26120856 13.4191033,8.26120856 13.6335283,8.47563351 C13.8479532,8.69005846 13.8479532,9.03313839 13.6335283,9.24756334 L7.62962961,15.251462 C7.41520466,15.465887 7.07212473,15.465887 6.85769978,15.251462 Z M5.45029236,18.5302145 L7.3216374,18.5302145 L7.3216374,19.9454191 L4.80701751,20.385965 L3.59454187,19.1734893 L4.03508768,16.6588694 L5.45029236,16.6588694 L5.45029236,18.5302145 Z" id="path-1"></path>
    </defs>
    <g id="pencil-alt" stroke="none" stroke-width="1" fill="none" fill-rule="evenodd">
        <mask id="mask-2" fill="white">
            <use xlink:href="#path-1"></use>
        </mask>
        <g fill-rule="nonzero"></g>
        <g id="🎨-color" mask="url(#mask-2)" fill="#000000">
            <rect id="🎨-Color" x="0" y="0" width="24" height="24"></rect>
        </g>
    </g>
</svg>