<?xml version="1.0" encoding="UTF-8"?>
<svg width="24px" height="24px" viewBox="0 0 24 24" version="1.1" xmlns="http://www.w3.org/2000/svg" xmlns:xlink="http://www.w3.org/1999/xlink">
    <!-- Generator: Sketch 52.5 (67469) - http://www.bohemiancoding.com/sketch -->
    <title>penny-arcade</title>
    <desc>Created with Sketch.</desc>
    <defs>
        <path d="M15.1846875,9.13343749 C15.044375,9.74124999 15.1409375,9.32281249 14.7128125,11.17375 L15.954375,10.8421875 C15.25625,9.29187499 15.4140625,9.64187499 15.1846875,9.13343749 Z M8.74437498,10.730625 C8.11343748,10.899375 8.39093748,10.8253125 7.50593748,11.06125 L7.64531248,12.5046875 C8.52562498,12.2675 8.28968748,12.330625 8.73343748,12.2128125 C10.0553125,11.906875 9.75999999,10.4496875 8.74437498,10.730625 Z M18.936875,9.91218749 L17.5159375,6.81218747 C17.338125,6.42562497 16.9078125,6.22343747 16.4965625,6.33312497 C14.300625,6.91906247 15.2865625,6.65562497 12.259375,7.46531248 C11.9851015,7.53854584 11.7643807,7.74197353 11.6690625,8.00937498 C6.50812497,7.53968748 1.99999995,8.80468748 1.99999995,11.0834375 C1.99999995,12.1303125 2.95843745,13.180625 4.52812496,14.06375 L4.58249996,14.6225 C4.21732162,14.7626997 3.99027405,15.1290167 4.02718746,15.5184375 L4.16156246,16.9084375 C4.20499996,17.355625 4.58124996,17.69625 5.03031247,17.6959375 C5.19218747,17.695625 4.93624996,17.7515625 8.85937498,16.7034375 C9.25218749,16.598125 9.51937499,16.2340625 9.50249999,15.8278125 C16.2709375,17.2496875 22.0646876,15.6409375 21.9990625,13.176875 C21.999375,12.2971875 21.305625,11.096875 18.936875,9.91218749 Z M9.97312499,13.321875 L9.28843749,13.505625 L7.77468748,13.9090625 L7.85156248,14.645 L8.49312498,14.4728125 L8.63406248,15.86375 L5.03062497,16.825625 L4.89624996,15.434375 L5.52187497,15.2671875 L5.17468747,11.6846875 L4.54593746,11.853125 L4.40999996,10.4625 C9.97718749,8.97687498 9.72812499,9.01187499 10.229375,9.00468749 C12,8.96937498 12.2340625,11.2496875 11.5590625,12.268125 C11.175319,12.7996856 10.6118506,13.174073 9.97312499,13.321875 Z M16.1975,13.84125 L16.0759375,12.6071875 L16.5415625,12.4828125 L16.335,12.0240625 L14.53,12.5059375 L14.401875,13.0540625 L15.001875,12.8940625 L15.1284375,14.1296875 L11.601875,15.069375 L11.4625,13.6809375 L12.1184375,13.50625 L13.1521875,9.55406249 L12.61625,9.69656249 L12.485,8.30656248 C15.4025,7.52562498 14.5165625,7.76249998 16.7221875,7.17406248 L18.805625,11.72 L19.4553125,11.54625 L19.5896875,12.93625 L16.1975,13.84125 Z" id="path-1"></path>
    </defs>
    <g id="penny-arcade" stroke="none" stroke-width="1" fill="none" fill-rule="evenodd">
        <mask id="mask-2" fill="white">
            <use xlink:href="#path-1"></use>
        </mask>
        <g fill-rule="nonzero"></g>
        <g id="🎨-color" mask="url(#mask-2)" fill="#000000">
            <rect id="🎨-Color" x="0" y="0" width="24" height="24"></rect>
        </g>
    </g>
</svg>