<?xml version="1.0" encoding="UTF-8"?>
<svg width="24px" height="24px" viewBox="0 0 24 24" version="1.1" xmlns="http://www.w3.org/2000/svg" xmlns:xlink="http://www.w3.org/1999/xlink">
    <!-- Generator: Sketch 52.5 (67469) - http://www.bohemiancoding.com/sketch -->
    <title>people-carry</title>
    <desc>Created with Sketch.</desc>
    <defs>
        <path d="M6.01869156,7.0155763 C6.84423673,7.0155763 7.51401867,6.34579436 7.51401867,5.52024919 C7.51401867,4.69470401 6.84423673,4.02492208 6.01869156,4.02492208 C5.19314638,4.02492208 4.52336445,4.69470401 4.52336445,5.52024919 C4.52336445,6.34579436 5.19314638,7.0155763 6.01869156,7.0155763 Z M17.9813084,7.0155763 C18.8068536,7.0155763 19.4766356,6.34579436 19.4766356,5.52024919 C19.4766356,4.69470401 18.8068536,4.02492208 17.9813084,4.02492208 C17.1557633,4.02492208 16.4859813,4.69470401 16.4859813,5.52024919 C16.4859813,6.34579436 17.1557633,7.0155763 17.9813084,7.0155763 Z M21.8971963,18.6074767 L20.5264798,15.1806854 L19.246106,16.6261682 L19.1838007,17.1931464 L20.046729,19.3489097 C20.2024923,19.7383178 20.576324,19.9750779 20.9719627,19.9750779 C21.0965733,19.9750779 21.2211838,19.9532711 21.3426792,19.9034268 C21.8535826,19.6978194 22.1028038,19.1183801 21.8971963,18.6074767 Z M20.8317757,12.0716511 L20.2554518,9.57320871 C20.1121496,8.95015575 19.6760125,8.42679126 19.0872274,8.17445481 C18.5109035,7.92523362 17.8722742,7.96573207 17.3395639,8.27725855 C16.6323988,8.69470403 16.1028038,9.35202491 15.8411215,10.1277258 L15.4890966,11.1838006 L14.9906542,11.5015576 L14.9906542,8.51090341 C14.9906542,8.23676011 14.7663552,8.01246104 14.4922119,8.01246104 L9.50778815,8.01246104 C9.23364485,8.01246104 9.00934578,8.23676011 9.00934578,8.51090341 L9.00934578,11.5015576 L8.50778814,11.1838006 L8.15576322,10.1277258 C7.89719624,9.34890964 7.36448596,8.69470403 6.65732085,8.27725855 C6.1214953,7.96573207 5.48598128,7.92523362 4.90965729,8.17445481 C4.32087224,8.42679126 3.88473516,8.95015575 3.74143298,9.57320871 L3.16822425,12.0716511 C3.02492207,12.6947041 3.19003111,13.3551402 3.61682239,13.8380062 L5.71028034,16.2024922 L6.02492209,19.0872274 C6.08099686,19.5950156 6.5109034,19.9750779 7.0155763,19.9750779 C7.05295948,19.9750779 7.08722739,19.9719627 7.12461057,19.9688474 C7.67289717,19.9096574 8.06542054,19.4174455 8.00623051,18.8691589 L7.69158876,15.9781932 C7.64485979,15.5732087 7.47663549,15.1962617 7.20560745,14.8878505 L5.85669779,13.3613707 L6.4049844,11.1713396 L6.6168224,11.8068536 C6.74454826,12.1962617 6.98753892,12.5358255 7.38006228,12.8224299 L8.9719626,13.834891 C9.11526478,13.9252337 9.34890964,13.9781932 9.50778815,13.9906542 L14.4922119,13.9906542 C14.6510904,13.9781932 14.8847352,13.9252337 15.0280374,13.834891 L16.6199377,12.8224299 C17.0124611,12.5358255 17.2554517,12.1993769 17.3831776,11.8068536 L17.5950156,11.1713396 L18.1433022,13.3613707 L16.7943925,14.8878505 C16.5233645,15.1962617 16.3551402,15.5732087 16.3084112,15.9781932 L15.9937695,18.8691589 C15.9345795,19.4174455 16.3302181,19.9096574 16.8753894,19.9688474 C16.9127726,19.9719627 16.9470405,19.9750779 16.9844237,19.9750779 C17.4859813,19.9750779 17.9190031,19.5981309 17.9750779,19.0872274 L18.2897197,16.2024922 L20.3831776,13.8380062 C20.8068536,13.3551402 20.9750779,12.6947041 20.8317757,12.0716511 Z M3.47352021,15.1806854 L2.10280369,18.6074767 C1.89719621,19.1183801 2.1464174,19.6978194 2.65732083,19.9034268 C3.18068531,20.1090343 3.75077877,19.8504673 3.95327099,19.3489097 L4.81619934,17.1931464 L4.75389404,16.6261682 L3.47352021,15.1806854 Z" id="path-1"></path>
    </defs>
    <g id="people-carry" stroke="none" stroke-width="1" fill="none" fill-rule="evenodd">
        <mask id="mask-2" fill="white">
            <use xlink:href="#path-1"></use>
        </mask>
        <g fill-rule="nonzero"></g>
        <g id="🎨-color" mask="url(#mask-2)" fill="#000000">
            <rect id="🎨-Color" x="0" y="0" width="24" height="24"></rect>
        </g>
    </g>
</svg>