<?xml version="1.0" encoding="UTF-8"?>
<svg width="24px" height="24px" viewBox="0 0 24 24" version="1.1" xmlns="http://www.w3.org/2000/svg" xmlns:xlink="http://www.w3.org/1999/xlink">
    <!-- Generator: Sketch 52.5 (67469) - http://www.bohemiancoding.com/sketch -->
    <title>percent</title>
    <desc>Created with Sketch.</desc>
    <defs>
        <path d="M7.62499998,10.75 C10.0429687,10.75 12,8.79296873 12,6.37499997 C12,3.95703121 10.0429687,1.99999995 7.62499998,1.99999995 C5.20703122,1.99999995 3.24999996,3.95703121 3.24999996,6.37499997 C3.24999996,8.79296873 5.20703122,10.75 7.62499998,10.75 Z M7.62499998,4.49999996 C8.66015623,4.49999996 9.49999999,5.33984372 9.49999999,6.37499997 C9.49999999,7.41015623 8.66015623,8.24999998 7.62499998,8.24999998 C6.58984372,8.24999998 5.74999997,7.41015623 5.74999997,6.37499997 C5.74999997,5.33984372 6.58984372,4.49999996 7.62499998,4.49999996 Z M16.375,13.25 C13.9570313,13.25 12,15.2070313 12,17.625 C12,20.0429688 13.9570313,22.0000001 16.375,22.0000001 C18.7929688,22.0000001 20.75,20.0429688 20.75,17.625 C20.75,15.2070313 18.7929688,13.25 16.375,13.25 Z M16.375,19.5 C15.3398438,19.5 14.5,18.6601563 14.5,17.625 C14.5,16.5898438 15.3398438,15.75 16.375,15.75 C17.4101563,15.75 18.25,16.5898438 18.25,17.625 C18.25,18.6601563 17.4101563,19.5 16.375,19.5 Z M18.5742188,2.00781245 L19.8085938,2.0039062 C20.5664063,1.99999995 21.015625,2.8554687 20.578125,3.48046871 L6.27343747,21.59375 C6.09839875,21.8433832 5.81269811,21.9920642 5.50781247,21.9921875 L4.20312496,21.9960938 C3.44140621,21.9960938 2.9960937,21.140625 3.43359371,20.5195313 L17.8085938,2.40624995 C17.984375,2.15624995 18.2695313,2.00781245 18.5742188,2.00781245 Z" id="path-1"></path>
    </defs>
    <g id="percent" stroke="none" stroke-width="1" fill="none" fill-rule="evenodd">
        <mask id="mask-2" fill="white">
            <use xlink:href="#path-1"></use>
        </mask>
        <g fill-rule="nonzero"></g>
        <g id="🎨-color" mask="url(#mask-2)" fill="#000000">
            <rect id="🎨-Color" x="0" y="0" width="24" height="24"></rect>
        </g>
    </g>
</svg>