<?xml version="1.0" encoding="UTF-8"?>
<svg width="24px" height="24px" viewBox="0 0 24 24" version="1.1" xmlns="http://www.w3.org/2000/svg" xmlns:xlink="http://www.w3.org/1999/xlink">
    <!-- Generator: Sketch 52.5 (67469) - http://www.bohemiancoding.com/sketch -->
    <title>percentage</title>
    <desc>Created with Sketch.</desc>
    <defs>
        <path d="M8.76757811,8.76757811 C9.74374999,7.79140623 9.74374999,6.2082031 8.76757811,5.23203122 C7.79140623,4.25585934 6.2082031,4.25585934 5.23203122,5.23203122 C4.25585934,6.2082031 4.25585934,7.79140623 5.23203122,8.76757811 C6.20859372,9.74414061 7.79140623,9.74414061 8.76757811,8.76757811 Z M18.7675782,15.2320313 C17.7914063,14.2558594 16.2082031,14.2558594 15.2320313,15.2320313 C14.2558594,16.2082031 14.2558594,17.7914063 15.2320313,18.7675782 C16.2082031,19.74375 17.7914063,19.74375 18.7675782,18.7675782 C19.7441407,17.7914063 19.7441407,16.2085938 18.7675782,15.2320313 Z M18.6917969,6.19179685 L17.8082032,5.30820309 C17.3199219,4.81992184 16.5285156,4.81992184 16.040625,5.30820309 L5.30820309,16.040625 C4.81992184,16.5289063 4.81992184,17.3203125 5.30820309,17.8082032 L6.19179685,18.6917969 C6.6800781,19.1800782 7.47148435,19.1800782 7.95937498,18.6917969 L18.6917969,7.95937498 C19.1800782,7.47148435 19.1800782,6.6800781 18.6917969,6.19179685 Z" id="path-1"></path>
    </defs>
    <g id="percentage" stroke="none" stroke-width="1" fill="none" fill-rule="evenodd">
        <mask id="mask-2" fill="white">
            <use xlink:href="#path-1"></use>
        </mask>
        <g fill-rule="nonzero"></g>
        <g id="🎨-color" mask="url(#mask-2)" fill="#000000">
            <rect id="🎨-Color" x="0" y="0" width="24" height="24"></rect>
        </g>
    </g>
</svg>