<?xml version="1.0" encoding="UTF-8"?>
<svg width="24px" height="24px" viewBox="0 0 24 24" version="1.1" xmlns="http://www.w3.org/2000/svg" xmlns:xlink="http://www.w3.org/1999/xlink">
    <!-- Generator: Sketch 52.5 (67469) - http://www.bohemiancoding.com/sketch -->
    <title>periscope</title>
    <desc>Created with Sketch.</desc>
    <defs>
        <path d="M17.703125,4.48437496 C16.1953125,2.88281245 14.2070313,1.99999995 12.1015625,1.99999995 C7.62109373,1.99999995 3.97265621,5.75781247 3.97265621,10.375 C3.97265621,13.3085938 6.23046872,16.6171875 7.20312498,17.9023438 C8.63281248,19.7929688 10.7734375,22.0000001 12.1015625,22.0000001 C13.7265625,22.0000001 16.5117188,18.3203125 16.8242188,17.8984375 C17.7851563,16.6054688 20.0273438,13.2773438 20.0273438,10.375 C20.0273438,8.16796873 19.203125,6.07421872 17.703125,4.48437496 Z M12.1015625,21.2929688 C10.4414062,21.2929688 4.67968746,14.7578125 4.67968746,10.3789062 C4.67968746,6.18359372 7.95703123,2.71093745 12.1015625,2.71093745 C16.0390625,2.71093745 19.3164063,6.18749997 19.3164063,10.3789062 C19.3203125,14.7578125 13.5585938,21.2929688 12.1015625,21.2929688 Z M16.453125,10.078125 C16.453125,12.3867188 14.4570313,14.3632813 12.125,14.3632813 C8.19531248,14.3632813 6.23828122,10.1367187 8.49609373,7.26171873 L8.49609373,7.27734373 C8.49609373,8.23437498 9.28124999,9.01171874 10.2460937,9.01171874 C11.2109375,9.01171874 11.9960937,8.23437498 11.9960937,7.27734373 C11.9960937,6.56640622 11.5625,5.95703122 10.9453125,5.68749997 C13.9375,4.93749996 16.453125,7.22265623 16.453125,10.078125 Z" id="path-1"></path>
    </defs>
    <g id="periscope" stroke="none" stroke-width="1" fill="none" fill-rule="evenodd">
        <mask id="mask-2" fill="white">
            <use xlink:href="#path-1"></use>
        </mask>
        <g fill-rule="nonzero"></g>
        <g id="🎨-color" mask="url(#mask-2)" fill="#000000">
            <rect id="🎨-Color" x="0" y="0" width="24" height="24"></rect>
        </g>
    </g>
</svg>