<?xml version="1.0" encoding="UTF-8"?>
<svg width="24px" height="24px" viewBox="0 0 24 24" version="1.1" xmlns="http://www.w3.org/2000/svg" xmlns:xlink="http://www.w3.org/1999/xlink">
    <!-- Generator: Sketch 52.5 (67469) - http://www.bohemiancoding.com/sketch -->
    <title>person-booth</title>
    <desc>Created with Sketch.</desc>
    <defs>
        <path d="M8.66666665,20.3333334 C8.66666665,20.6388889 8.91666665,20.8888889 9.22222221,20.8888889 L10.3333333,20.8888889 C10.6388889,20.8888889 10.8888889,20.6388889 10.8888889,20.3333334 L10.8888889,14.2222222 L8.66666665,14.2222222 L8.66666665,20.3333334 Z M9.77777777,10.8888889 L8.01041665,10.8888889 L6.44097219,9.31597221 C6.0208333,8.89583332 5.46180552,8.66666665 4.87152774,8.66666665 L4.22222218,8.66666665 C3.62847218,8.66666665 3.0694444,8.89930554 2.64930551,9.31944443 C2.23263884,9.73958332 1.99999995,10.2986111 1.99999995,10.8923611 L2.00694439,14.2222222 L1.99999995,19.7777778 C1.99999995,20.3923612 2.49652773,20.8888889 3.10763884,20.8888889 C3.71874996,20.8888889 4.21874996,20.3923612 4.21874996,19.7777778 L4.22222218,16.28125 C4.25347218,16.2986111 4.27777774,16.3263889 4.30902774,16.3402778 L5.31944441,17.8333334 L5.31944441,19.7777778 C5.31944441,20.3923612 5.81597219,20.8888889 6.43055553,20.8888889 C7.04513886,20.8888889 7.54166664,20.3923612 7.54166664,19.7777778 L7.54166664,17.8159723 C7.54166664,17.4722222 7.46180553,17.1284722 7.30902775,16.8229167 L5.87847219,14.6944445 L5.87847219,11.8958333 L6.60416664,12.6215278 C6.92013886,12.9375 7.33680553,13.1111111 7.78124998,13.1111111 L9.77777777,13.1111111 C10.3923611,13.1111111 10.8888889,12.6145833 10.8888889,12 C10.8888889,11.3854167 10.3923611,10.8888889 9.77777777,10.8888889 Z M4.22222218,7.55555553 C5.14236108,7.55555553 5.88888886,6.80902775 5.88888886,5.88888886 C5.88888886,4.96874996 5.14236108,4.22222218 4.22222218,4.22222218 C3.30208329,4.22222218 2.55555551,4.96874996 2.55555551,5.88888886 C2.55555551,6.80902775 3.30208329,7.55555553 4.22222218,7.55555553 Z M12,4.22222218 L13.09375,11.96875 L12.0208333,17.3368056 C11.8715278,18.0868056 12.4722222,18.6666667 13.1111111,18.6666667 C13.6388889,18.6666667 14.0833333,18.3506945 14.2326389,17.6111111 C14.2638889,18.1979167 14.7395833,18.6666667 15.3333334,18.6666667 C15.9479167,18.6666667 16.4444445,18.1701389 16.4444445,17.5555556 C16.4444445,18.1701389 16.9409722,18.6666667 17.5555556,18.6666667 C18.1701389,18.6666667 18.6666667,18.1701389 18.6666667,17.5555556 L18.6666667,3.11111107 L12,3.11111107 L12,4.22222218 Z M8.66666665,4.22222218 L8.66666665,9.77777777 L10.8888889,9.77777777 L10.8888889,3.11111107 L9.77777777,3.11111107 C9.16319443,3.11111107 8.66666665,3.60763885 8.66666665,4.22222218 Z M20.8888889,3.11111107 L19.7777778,3.11111107 L19.7777778,20.3333334 C19.7777778,20.6388889 20.0277778,20.8888889 20.3333334,20.8888889 L21.4444445,20.8888889 C21.75,20.8888889 22.0000001,20.6388889 22.0000001,20.3333334 L22.0000001,4.22222218 C22.0000001,3.60763885 21.5034723,3.11111107 20.8888889,3.11111107 Z" id="path-1"></path>
    </defs>
    <g id="person-booth" stroke="none" stroke-width="1" fill="none" fill-rule="evenodd">
        <mask id="mask-2" fill="white">
            <use xlink:href="#path-1"></use>
        </mask>
        <g fill-rule="nonzero"></g>
        <g id="🎨-color" mask="url(#mask-2)" fill="#000000">
            <rect id="🎨-Color" x="0" y="0" width="24" height="24"></rect>
        </g>
    </g>
</svg>