<?xml version="1.0" encoding="UTF-8"?>
<svg width="24px" height="24px" viewBox="0 0 24 24" version="1.1" xmlns="http://www.w3.org/2000/svg" xmlns:xlink="http://www.w3.org/1999/xlink">
    <!-- Generator: Sketch 52.5 (67469) - http://www.bohemiancoding.com/sketch -->
    <title>phabricator</title>
    <desc>Created with Sketch.</desc>
    <defs>
        <path d="M14.9296875,12.2382813 L14.9257813,11.7304687 C14.9257813,11.7304687 15.7734375,10.9570312 15.75,10.9023437 L15.3789063,10.1210937 C15.3554688,10.0664062 14.2265625,10.1015625 14.2265625,10.1015625 L13.859375,9.73828124 C13.859375,9.73828124 13.8671875,8.62499998 13.8125,8.60156248 L13.0273438,8.24218748 C12.9726563,8.21874998 12.21875,9.06249999 12.21875,9.06249999 L11.7070312,9.05468749 C11.7070312,9.05468749 10.90625,8.21874998 10.8515625,8.24218748 L10.0703125,8.56640623 C10.015625,8.58593748 10.078125,9.69531249 10.078125,9.69531249 L9.72265624,10.0507812 C9.72265624,10.0507812 8.58203123,10.015625 8.56249998,10.0664062 L8.24609373,10.8398437 C8.22265623,10.8945312 9.06640624,11.6601562 9.06640624,11.6601562 L9.07031249,12.1640625 C9.07031249,12.1640625 8.22265623,12.9375 8.24609373,12.9921875 L8.61718748,13.7734375 C8.64062498,13.828125 9.76953124,13.7929688 9.76953124,13.7929688 L10.1367187,14.15625 C10.1367187,14.15625 10.1289062,15.3984375 10.1835937,15.4179688 L10.96875,15.7421875 C11.0234375,15.765625 11.7773437,14.8242188 11.7773437,14.8242188 L12.2890625,14.8320313 C12.2890625,14.8320313 13.0898438,15.7617188 13.140625,15.7421875 L13.921875,15.4492188 C13.9765625,15.4257813 13.9140625,14.1953125 13.9140625,14.1953125 L14.2695313,13.8398438 C14.2695313,13.8398438 15.4101563,13.875 15.4296875,13.8203125 L15.7460938,13.046875 C15.7734375,13.0039063 14.9296875,12.2382813 14.9296875,12.2382813 Z M13.1757813,11.8984375 C13.203125,12.5664063 12.6757813,13.1328125 12,13.1640625 C11.3242187,13.1953125 10.7460937,12.6757813 10.71875,12.0078125 C10.6914062,11.3398437 11.21875,10.7734375 11.8945312,10.7460937 C12.5703125,10.7148437 13.1484375,11.234375 13.1757813,11.8984375 Z M21.0351563,10.4179687 L17.2460938,6.62890622 L17.2421875,6.63281247 C14.3085938,3.76953121 9.60937499,3.78906246 6.70312497,6.69531247 C4.71484371,8.68749998 5.61718747,7.78515623 2.9648437,10.4179687 C2.09374995,11.2890625 2.09374995,12.7109375 2.9648437,13.5820313 C5.69531247,16.2929688 4.77734371,15.3789063 6.76953122,17.3710938 L6.77343747,17.3671875 C9.70703124,20.2304688 14.40625,20.2148438 17.3125,17.3046875 C19.3046875,15.3164063 18.4023438,16.2148438 21.0351563,13.5820313 C21.90625,12.7109375 21.90625,11.2890625 21.0351563,10.4179687 Z M7.79687498,16.2109375 C5.46874997,13.8867188 5.46874997,10.1171875 7.79687498,7.79296873 C10.1210937,5.46484372 13.890625,5.46874997 16.21875,7.79296873 C18.5429688,10.1171875 18.546875,13.8867188 16.21875,16.2148438 C13.890625,18.5390625 10.125,18.5351563 7.79687498,16.2109375 Z" id="path-1"></path>
    </defs>
    <g id="phabricator" stroke="none" stroke-width="1" fill="none" fill-rule="evenodd">
        <mask id="mask-2" fill="white">
            <use xlink:href="#path-1"></use>
        </mask>
        <g fill-rule="nonzero"></g>
        <g id="🎨-color" mask="url(#mask-2)" fill="#000000">
            <rect id="🎨-Color" x="0" y="0" width="24" height="24"></rect>
        </g>
    </g>
</svg>