<?xml version="1.0" encoding="UTF-8"?>
<svg width="24px" height="24px" viewBox="0 0 24 24" version="1.1" xmlns="http://www.w3.org/2000/svg" xmlns:xlink="http://www.w3.org/1999/xlink">
    <!-- Generator: Sketch 52.5 (67469) - http://www.bohemiancoding.com/sketch -->
    <title>phoenix-framework</title>
    <desc>Created with Sketch.</desc>
    <defs>
        <path d="M8.65312498,14.759375 C8.77187498,14.75625 9.36562499,14.715625 9.45312499,14.690625 C9.37812499,14.609375 8.09062498,14.659375 7.32812498,13.140625 C7.19374998,12.871875 7.09374998,12.590625 7.12812498,12.278125 C7.21874998,11.48125 8.15624998,11.340625 8.75312498,11.7 C9.87812499,12.375 10.73125,14.553125 12.30625,14.746875 C13.4625,14.8875 14.95,14.215625 15.6875,13.328125 C15.66875,13.325 15.6625,13.321875 15.65625,13.325 C15.64375,13.328125 15.63125,13.33125 15.621875,13.334375 C14.58125,13.7125 12.675,13.6375 11.4125,12.871875 C10.2375,12.159375 9.75312499,11.0375 9.79374999,10.540625 C9.84999999,9.87499999 10.509375,9.81562499 10.915625,9.92812499 C11.365625,10.05 11.678125,10.478125 12.13125,10.784375 C12.61875,11.109375 13.159375,11.2125 13.734375,11.10625 C14.2,11.021875 14.809375,10.721875 14.875,10.653125 C14.840625,10.65 14.81875,10.65 14.796875,10.646875 C14.603125,10.628125 14.409375,10.621875 14.21875,10.59375 C10.74375,10.078125 10.190625,5.48124997 6.32812497,5.18437497 C4.94374996,5.07812497 3.22187496,5.43749997 2.06874995,6.27812497 C2.04374995,6.29687497 2.02187495,6.31562497 1.99999995,6.33437497 C2.00312495,6.34062497 2.00312495,6.34374997 2.00624995,6.34999997 C2.03124995,6.34999997 2.05624995,6.34687497 2.08124995,6.34374997 C2.27812495,6.31249997 2.47187495,6.31874997 2.66562495,6.35312497 C3.40937496,6.48749997 4.15624996,7.07499998 4.41249996,8.74374998 C4.57812496,9.81562499 4.39062496,10.33125 4.66249996,11.434375 C5.25624997,13.84375 7.50624998,14.796875 8.65312498,14.759375 Z M4.35312496,6.02812497 C4.32499996,5.99687497 4.32499996,5.99062497 4.31249996,5.96562497 C4.69062496,5.88437497 5.06874997,5.83749997 5.45624997,5.81562497 C5.42187497,6.27499997 4.76249996,6.48124997 4.35312496,6.02812497 Z M10.50625,16.98125 C9.16874999,17.01875 7.63124998,16.146875 6.64687497,15.0625 C6.50312497,14.90625 6.12187497,14.43125 6.06562497,14.33125 L6.07812497,14.31875 C6.28437497,14.446875 6.88124997,14.9 7.79062498,15.1625 C8.54687498,15.38125 9.29374999,15.359375 10.028125,15.059375 C10.7375,14.76875 11.309375,15.04375 11.375,15.15 C10.796875,15.26875 10.746875,15.2875 10.625,15.396875 C10.465625,15.534375 10.48125,15.7625 10.84375,15.934375 C11.6625,16.321875 12.8125,15.846875 13.88125,16.728125 C13.95625,16.790625 14.134375,16.971875 14.196875,17.0625 C14.19375,17.06875 14.1875,17.071875 14.184375,17.078125 C14.034375,17.03125 13.671875,16.84375 12.928125,16.7875 C12.15625,16.725 11.48125,16.953125 10.50625,16.98125 Z M15.96875,9.10624999 C16.48125,8.94374998 17.259375,8.68749998 18.046875,9.00312499 C18.55,9.20624999 18.865625,9.58749999 19.05,10.084375 C19.159375,10.378125 19.209375,10.7 19.209375,10.98125 C19.203125,10.98125 19.196875,10.98125 19.190625,10.984375 C19.184375,10.971875 19.178125,10.95625 19.175,10.94375 C19.01875,10.25625 18.240625,9.57499999 17.0625,10.009375 C15.49375,10.590625 12.9875,10.3125 11.534375,8.50937498 C11.5125,8.48124998 11.459375,8.45624998 11.49375,8.40937498 C11.496875,8.40312498 11.559375,8.42812498 11.5875,8.44999998 C12.153125,8.86874998 12.784375,9.13437499 13.471875,9.26874999 C14.425,9.45937499 15.178125,9.35937499 15.96875,9.10624999 Z M19.178125,12.778125 C18.165625,12.784375 18.121875,14.34375 15.940625,14.790625 C15.371875,14.90625 14.73125,14.934375 14.5375,14.921875 L14.5375,14.909375 C14.625,14.8625 14.996875,14.828125 15.465625,14.390625 C15.7125,14.1625 15.94375,13.91875 16.178125,13.675 C16.7875,13.04375 17.471875,12.35625 18.7375,12.45625 C19.459375,12.5125 19.653125,12.7125 19.865625,12.853125 C19.875,12.859375 19.878125,12.86875 19.8875,12.88125 C19.871875,12.88125 19.865625,12.884375 19.859375,12.88125 C19.640625,12.796875 19.4125,12.778125 19.178125,12.778125 Z M18.79375,12.025 C18.790625,12.03125 18.790625,12.0375 18.7875,12.04375 C17.884375,11.90625 17.2875,11.796875 16.646875,12.16875 C16.115625,12.478125 15.665625,12.809375 14.709375,12.93125 C13.8625,13.0375 13.3,13.00625 12.64375,12.68125 C12.634375,12.675 12.625,12.66875 12.6125,12.6625 C12.6125,12.65625 12.615625,12.653125 12.615625,12.646875 C13.39375,12.765625 13.753125,12.80625 14.35,12.465625 C15.046875,12.0625 15.603125,11.634375 16.578125,11.496875 C17.503125,11.36875 18.18125,11.575 18.79375,12.025 Z M10.39375,7.04062498 C10.375,7.02187498 10.359375,7.00312498 10.328125,6.96874997 C10.565625,6.96874997 11.25625,6.93124997 11.996875,7.23124998 C12.6125,7.48124998 13.003125,7.88749998 13.565625,8.25937498 C13.9125,8.48749998 14.296875,8.54999998 14.703125,8.51249998 C14.8375,8.49999998 14.96875,8.47499998 15.103125,8.45937498 C15.115625,8.45624998 15.13125,8.45937498 15.15,8.46874998 C15.13125,8.48124998 15.1125,8.49687498 15.09375,8.50624998 C14.840625,8.63124998 14.571875,8.70312498 14.29375,8.72812498 C13.478125,8.80937498 12.721875,8.61249998 12,8.24687498 C11.396875,7.93749998 10.8625,7.53124998 10.39375,7.04062498 Z M22.0000001,14.490625 C21.890625,14.5875 21.290625,14.853125 20.665625,14.65625 C20.28125,14.534375 20.05625,14.190625 19.678125,13.903125 C19.365625,13.665625 19.025,13.65625 18.8,13.640625 C18.81875,13.615625 18.828125,13.603125 18.8375,13.596875 C19.3,13.309375 19.790625,13.215625 20.315625,13.39375 C20.70625,13.525 20.915625,13.815625 21.265625,14.15 C21.603125,14.475 21.921875,14.459375 21.9875,14.478125 C21.990625,14.475 21.99375,14.478125 22.0000001,14.490625 Z M15.359375,18.771875 C15.428125,18.809375 15.409375,18.81875 15.40625,18.834375 C14.828125,18.790625 14.346875,18.596875 13.94375,18.140625 C13.2625,17.36875 12.640625,17.26875 12.425,17.2125 C12.440625,17.20625 12.45,17.2 12.459375,17.2 C12.86875,17.203125 13.275,17.221875 13.675,17.321875 C14.465625,17.521875 14.76875,18.115625 14.975,18.425 C15.075,18.575 15.203125,18.684375 15.359375,18.771875 Z" id="path-1"></path>
    </defs>
    <g id="phoenix-framework" stroke="none" stroke-width="1" fill="none" fill-rule="evenodd">
        <mask id="mask-2" fill="white">
            <use xlink:href="#path-1"></use>
        </mask>
        <g fill-rule="nonzero"></g>
        <g id="🎨-color" mask="url(#mask-2)" fill="#000000">
            <rect id="🎨-Color" x="0" y="0" width="24" height="24"></rect>
        </g>
    </g>
</svg>