<?xml version="1.0" encoding="UTF-8"?>
<svg width="24px" height="24px" viewBox="0 0 24 24" version="1.1" xmlns="http://www.w3.org/2000/svg" xmlns:xlink="http://www.w3.org/1999/xlink">
    <!-- Generator: Sketch 52.5 (67469) - http://www.bohemiancoding.com/sketch -->
    <title>phoenix-squadron</title>
    <desc>Created with Sketch.</desc>
    <defs>
        <path d="M5.74474705,4.48287934 C7.56070037,3.0727626 9.86575874,2.29455248 12.166537,2.35330734 C13.3210117,2.33852135 14.4735409,2.56264587 15.5583658,2.95136182 C14.6167315,2.77081707 13.6447471,2.70428011 12.6945525,2.85603108 C11.0214008,3.06420229 9.4548638,3.91556416 8.33035018,5.16536962 C8.55175096,5.12684821 8.75097275,5.02217895 8.95564201,4.93657584 C9.66342411,4.62957195 10.418677,4.41945522 11.1891051,4.35797662 C11.9595331,4.27470813 12.7357977,4.3412451 13.5023346,4.43307389 C12.9396887,4.5416342 12.3661479,4.61128401 11.8249027,4.80700386 C10.4813229,5.23929958 9.277821,6.10116729 8.45719843,7.25136184 C7.91867702,8.02062255 7.53501943,8.9241245 7.49455251,9.87120622 C7.48093383,10.514786 7.69805445,11.229572 8.26848247,11.5898833 C8.7015564,11.8490272 9.23540855,11.9552529 9.73268481,11.8529183 C10.3354086,11.7568093 10.9062257,11.5155642 11.4342412,11.2155642 C11.8836576,10.9494163 12.318677,10.6478599 12.681323,10.2692607 C12.8291829,10.1435798 12.7801556,9.9392996 12.7836576,9.7700389 C12.7007782,9.75680933 12.6124514,9.72684824 12.5377432,9.78171205 C12.092013,10.0260182 11.6238445,10.2269411 11.1396887,10.3817121 C10.3587549,10.6225681 9.49455252,10.7116731 8.7163424,10.4120622 C9.21556419,10.4793774 9.73346302,10.4241245 10.189105,10.1996109 C10.9785992,9.82023345 11.6256809,9.2163424 12.3136187,8.68677041 C13.3968872,7.85836574 14.5564202,7.12607001 15.7832685,6.52840464 C16.7863813,6.06108946 17.8490273,5.63929958 18.966537,5.5867704 C18.3564203,6.12217896 17.7116732,6.62178986 17.1408561,7.2019455 C16.5747082,7.74824901 16.0692607,8.35291827 15.5754864,8.96498053 C15.4381323,9.14435796 15.2260701,9.23579765 15.0455253,9.36147859 C14.1801557,9.94630349 13.4657588,10.7607004 13.0206226,11.7070039 C12.6564202,12.4750973 12.4544747,13.3400778 12.5610895,14.1910506 C12.636965,14.7252918 12.9011673,15.2677043 13.3766537,15.5533074 C13.8801557,15.8642024 14.5105058,15.8680934 15.0735409,15.7521401 C16.3536965,15.4614786 17.4708171,14.6249027 18.2361868,13.5731518 C19.0338522,12.4992218 19.4272374,11.1459144 19.3743191,9.81284046 C19.3540856,9.52023345 19.3128405,9.22918287 19.3093386,8.93540854 C19.6214008,9.69571983 19.8879378,10.485214 19.959144,11.3093385 C20.0373541,11.866537 19.9883269,12.4315175 19.896109,12.9832685 C19.8214008,13.4120623 19.6747082,13.8229572 19.5922179,14.2490272 C20.3844358,13.3645914 20.9217899,12.2552529 21.1276265,11.085214 C21.3501946,9.7089494 21.1501946,8.26964979 20.5731518,7.0015564 C21.3840467,8.25136185 21.8350195,9.71712061 21.966537,11.1961089 C21.9859923,11.6929961 21.9859923,12.1914397 21.966537,12.6879377 C21.8533074,14.0210117 21.4618678,15.3319066 20.8085604,16.5011673 C19.7891051,18.3486382 18.1548638,19.8431907 16.2350195,20.7159534 C13.1797665,22.1299611 9.41789882,21.9381323 6.55719842,20.1431907 C5.04591436,19.2178989 3.79221786,17.87393 2.98988322,16.292607 C2.41712057,15.1684825 2.07937738,13.92607 1.99999995,12.666537 L1.99999995,11.4435798 C2.15330734,8.72101166 3.59494159,6.13929958 5.74474705,4.48287934 Z M14.4081712,7.61789881 C14.6225681,7.58677041 14.8291829,7.51789881 15.0315175,7.44280153 C15.2256809,7.37392994 15.3922179,7.21128402 15.4342413,7.00505834 C15.0875487,7.19961087 14.7357977,7.39221788 14.4081712,7.61789881 Z" id="path-1"></path>
    </defs>
    <g id="phoenix-squadron" stroke="none" stroke-width="1" fill="none" fill-rule="evenodd">
        <mask id="mask-2" fill="white">
            <use xlink:href="#path-1"></use>
        </mask>
        <g fill-rule="nonzero"></g>
        <g id="🎨-color" mask="url(#mask-2)" fill="#000000">
            <rect id="🎨-Color" x="0" y="0" width="24" height="24"></rect>
        </g>
    </g>
</svg>