<?xml version="1.0" encoding="UTF-8"?>
<svg width="24px" height="24px" viewBox="0 0 24 24" version="1.1" xmlns="http://www.w3.org/2000/svg" xmlns:xlink="http://www.w3.org/1999/xlink">
    <!-- Generator: Sketch 52.5 (67469) - http://www.bohemiancoding.com/sketch -->
    <title>phone</title>
    <desc>Created with Sketch.</desc>
    <defs>
        <path d="M21.2748538,2.99805064 L17.2202729,2.06237812 C16.7797271,1.9610136 16.3274854,2.19103309 16.1481482,2.60428845 L14.2768031,6.97076021 C14.1130604,7.35282649 14.2222222,7.80116957 14.545809,8.06237815 L16.9083821,9.99610135 C15.5048733,12.9863548 13.0526316,15.4736842 9.99999999,16.9044835 L8.06627678,14.5419103 C7.80116957,14.2183236 7.35672512,14.1091618 6.97465884,14.2729045 L2.60818709,16.1442495 C2.19103309,16.3274854 1.9610136,16.7797271 2.06237812,17.2202729 L2.99805064,21.2748538 C3.09551652,21.6959065 3.46978553,22 3.91033134,22 C13.8947369,22 22.0000001,13.9103314 22.0000001,3.91033134 C22.0000001,3.47368417 21.6998051,3.09551652 21.2748538,2.99805064 Z" id="path-1"></path>
    </defs>
    <g id="phone" stroke="none" stroke-width="1" fill="none" fill-rule="evenodd">
        <mask id="mask-2" fill="white">
            <use xlink:href="#path-1"></use>
        </mask>
        <g></g>
        <g id="🎨-color" mask="url(#mask-2)" fill="#000000">
            <rect id="🎨-Color" x="0" y="0" width="24" height="24"></rect>
        </g>
    </g>
</svg>