<?xml version="1.0" encoding="UTF-8"?>
<svg width="24px" height="24px" viewBox="0 0 24 24" version="1.1" xmlns="http://www.w3.org/2000/svg" xmlns:xlink="http://www.w3.org/1999/xlink">
    <!-- Generator: Sketch 52.5 (67469) - http://www.bohemiancoding.com/sketch -->
    <title>phone-volume</title>
    <desc>Created with Sketch.</desc>
    <defs>
        <path d="M8.30927873,21.7647564 C3.24596487,16.7014425 3.25348924,8.49957113 8.30927873,3.44378163 C8.53142298,3.22163738 8.87563351,3.18522413 9.1382456,3.34935668 L11.6652242,4.92881088 C11.940221,5.10067323 12.0526797,5.44479787 11.9322417,5.74588691 L10.6687719,8.90460037 C10.557888,9.1817992 10.276994,9.35220513 9.97992202,9.32249511 L7.80409355,9.10495125 C6.98339179,11.3763353 7.0005068,13.8796491 7.80409355,16.1035868 L9.979961,15.8860039 C10.277033,15.8562939 10.5579269,16.0266998 10.6688109,16.3038987 L11.9322807,19.4626511 C12.0527019,19.7637407 11.9402467,20.1078544 11.6652632,20.2797271 L9.13828459,21.8591813 C8.87366418,22.0245392 8.52993439,21.9853879 8.30927873,21.7647564 Z M14.1491618,5.72214422 C14.6104484,6.50370368 14.6104484,7.47684208 14.1491618,8.25840154 C13.9951657,8.51933721 13.6381287,8.56869394 13.4194152,8.35902532 L13.1864717,8.13578945 C13.0339961,7.9896686 12.9996101,7.76066275 13.0983236,7.57399608 C13.2912058,7.20874787 13.2912058,6.77179789 13.0983236,6.40654968 C12.9995712,6.21988301 13.0339961,5.99087716 13.1864717,5.8447563 L13.4194152,5.62152044 C13.6381287,5.41185182 13.9951657,5.46120854 14.1491618,5.72214422 Z M17.7276024,2.16709547 C20.0722418,4.95867443 20.0703704,9.02409355 17.7276024,11.8134113 C17.5531774,12.0210916 17.2391033,12.0374269 17.0433139,11.8497856 L16.817271,11.6331384 C16.6394932,11.462729 16.6232359,11.1836647 16.7810137,10.9945809 C18.7181287,8.67341129 18.7165302,5.30518515 16.7810137,2.98592588 C16.6232359,2.79684206 16.6394542,2.51777773 16.817271,2.34736837 L17.0433139,2.1307212 C17.2391033,1.94307987 17.5531774,1.95941515 17.7276024,2.16709547 Z M15.9353217,3.91918125 C17.3407798,5.72510718 17.343041,8.25247561 15.9353217,10.0613255 C15.7641716,10.2812476 15.4403119,10.3050292 15.2391813,10.1121637 L15.0123587,9.89465886 C14.8408187,9.73017543 14.8175049,9.46210525 14.9622612,9.27356724 C15.9968031,7.92604286 15.9967252,6.05438594 14.9622612,4.70693953 C14.8175049,4.51840152 14.8408187,4.25037033 15.0123587,4.08584791 L15.2391813,3.86834304 C15.4403119,3.67547754 15.7641716,3.69925922 15.9353217,3.91918125 Z" id="path-1"></path>
    </defs>
    <g id="phone-volume" stroke="none" stroke-width="1" fill="none" fill-rule="evenodd">
        <mask id="mask-2" fill="white">
            <use xlink:href="#path-1"></use>
        </mask>
        <g fill-rule="nonzero"></g>
        <g id="🎨-color" mask="url(#mask-2)" fill="#000000">
            <rect id="🎨-Color" x="0" y="0" width="24" height="24"></rect>
        </g>
    </g>
</svg>