<?xml version="1.0" encoding="UTF-8"?>
<svg width="24px" height="24px" viewBox="0 0 24 24" version="1.1" xmlns="http://www.w3.org/2000/svg" xmlns:xlink="http://www.w3.org/1999/xlink">
    <!-- Generator: Sketch 52.5 (67469) - http://www.bohemiancoding.com/sketch -->
    <title>phone-slash</title>
    <desc>Created with Sketch.</desc>
    <defs>
        <path d="M10.3681747,15.9282371 L8.82059281,14.0374415 C8.60842432,13.7784711 8.25273009,13.6911077 7.94695786,13.8221529 L4.45241806,15.3198128 C4.1185647,15.4633386 3.93759746,15.8221529 4.01872071,16.1778471 L4.76755067,19.4227769 C4.84555379,19.7597504 5.14508577,20.0031202 5.49765987,20.0031202 C8.63962557,20.0031202 11.5413417,18.9921997 13.9126365,17.2917317 L11.4165367,15.3634946 C11.0764431,15.5663027 10.7269891,15.7597504 10.3681747,15.9282371 Z M21.7753511,18.3213729 L16.823713,14.4960999 C18.7831514,12.0280811 19.9719189,8.92355693 19.9719189,5.525741 C19.9719189,5.17628702 19.7316693,4.87363491 19.3915757,4.79563179 L16.1466459,4.04680183 C15.7940718,3.96567859 15.4321373,4.14976595 15.2886116,4.48049918 L13.7909516,7.97503898 C13.6599064,8.28081121 13.7472699,8.63962557 14.0062403,8.84867393 L15.8970359,10.3962558 C15.5163807,11.2106084 15.0265211,11.9656786 14.4617785,12.6677067 L3.41965674,4.13416533 C3.20124801,3.96567859 2.88923552,4.00312008 2.71762866,4.22152882 L2.10608419,5.00780028 C1.93759745,5.22620901 1.97503895,5.5382215 2.19344769,5.70670824 L20.5522621,19.8939158 C20.7706709,20.0624025 21.0826834,20.024961 21.2542902,19.8065523 L21.8658347,19.0171607 C22.0343214,18.8049922 21.9937598,18.4898596 21.7753511,18.3213729 Z" id="path-1"></path>
    </defs>
    <g id="phone-slash" stroke="none" stroke-width="1" fill="none" fill-rule="evenodd">
        <mask id="mask-2" fill="white">
            <use xlink:href="#path-1"></use>
        </mask>
        <g fill-rule="nonzero"></g>
        <g id="🎨-color" mask="url(#mask-2)" fill="#000000">
            <rect id="🎨-Color" x="0" y="0" width="24" height="24"></rect>
        </g>
    </g>
</svg>