<?xml version="1.0" encoding="UTF-8"?>
<svg width="24px" height="24px" viewBox="0 0 24 24" version="1.1" xmlns="http://www.w3.org/2000/svg" xmlns:xlink="http://www.w3.org/1999/xlink">
    <!-- Generator: Sketch 52.5 (67469) - http://www.bohemiancoding.com/sketch -->
    <title>phone-square</title>
    <desc>Created with Sketch.</desc>
    <defs>
        <path d="M18.875,3.24999996 L5.12499997,3.24999996 C4.08945309,3.24999996 3.24999996,4.08945309 3.24999996,5.12499997 L3.24999996,18.875 C3.24999996,19.9105469 4.08945309,20.75 5.12499997,20.75 L18.875,20.75 C19.9105469,20.75 20.75,19.9105469 20.75,18.875 L20.75,5.12499997 C20.75,4.08945309 19.9105469,3.24999996 18.875,3.24999996 Z M6.92187497,18.25 C6.64714841,18.25 6.41183591,18.0596485 6.35093747,17.7958203 L5.76507809,15.2567578 C5.70131691,14.9804567 5.84456071,14.6981478 6.10519528,14.5864453 L8.83949217,13.4146094 C9.07944444,13.3117799 9.35848182,13.3800977 9.52378905,13.5821484 L10.7346094,15.0620313 C12.6464844,14.1650391 14.1837109,12.6066406 15.0619922,10.7346875 L13.5820703,9.52386718 C13.3800312,9.35855258 13.3117155,9.0795237 13.4145313,8.8395703 L14.5864063,6.10527341 C14.6981087,5.84463883 14.9804176,5.70139504 15.2567188,5.76515622 L17.7957813,6.3510156 C18.0616511,6.41230852 18.2500057,6.64903142 18.25,6.92187497 C18.25,13.1832813 13.1740234,18.25 6.92187497,18.25 Z" id="path-1"></path>
    </defs>
    <g id="phone-square" stroke="none" stroke-width="1" fill="none" fill-rule="evenodd">
        <mask id="mask-2" fill="white">
            <use xlink:href="#path-1"></use>
        </mask>
        <g fill-rule="nonzero"></g>
        <g id="🎨-color" mask="url(#mask-2)" fill="#000000">
            <rect id="🎨-Color" x="0" y="0" width="24" height="24"></rect>
        </g>
    </g>
</svg>