<?xml version="1.0" encoding="UTF-8"?>
<svg width="24px" height="24px" viewBox="0 0 24 24" version="1.1" xmlns="http://www.w3.org/2000/svg" xmlns:xlink="http://www.w3.org/1999/xlink">
    <!-- Generator: Sketch 52.5 (67469) - http://www.bohemiancoding.com/sketch -->
    <title>php</title>
    <desc>Created with Sketch.</desc>
    <defs>
        <path d="M12,7.26562498 C17.35625,7.26562498 21.475,9.52187499 21.475,12 C21.475,14.478125 17.353125,16.734375 12,16.734375 C6.64374997,16.734375 2.52499995,14.478125 2.52499995,12 C2.52499995,9.52187499 6.64687497,7.26562498 12,7.26562498 Z M12,6.74062497 C6.47812497,6.74062497 1.99999995,9.09374999 1.99999995,12 C1.99999995,14.90625 6.47812497,17.259375 12,17.259375 C17.521875,17.259375 22.0000001,14.90625 22.0000001,12 C22.0000001,9.09374999 17.521875,6.74062497 12,6.74062497 Z M8.81874998,11.578125 C8.57187498,12.84375 7.69999998,12.7125 6.62812497,12.7125 L7.05624998,10.50625 C8.24374998,10.50625 9.04999999,10.378125 8.81874998,11.578125 Z M5.04374997,14.946875 L6.19062497,14.946875 L6.46249997,13.546875 C7.74687498,13.546875 8.54374998,13.640625 9.28124999,12.95 C10.096875,12.2 10.309375,10.865625 9.72812499,10.196875 C9.42499999,9.84687499 8.93749998,9.67499999 8.27499998,9.67499999 L6.06562497,9.67499999 L5.04374997,14.946875 Z M10.846875,8.27187498 L11.9875,8.27187498 L11.715625,9.67187499 C12.7,9.67187499 13.6125,9.59999999 14.053125,10.00625 C14.515625,10.43125 14.29375,10.975 13.79375,13.540625 L12.6375,13.540625 C13.11875,11.059375 13.209375,10.853125 13.034375,10.665625 C12.865625,10.484375 12.48125,10.521875 11.553125,10.521875 L10.965625,13.540625 L9.82499999,13.540625 L10.846875,8.27187498 Z M17.78125,11.578125 C17.53125,12.8625 16.634375,12.7125 15.590625,12.7125 L16.01875,10.50625 C17.2125,10.50625 18.0125,10.378125 17.78125,11.578125 Z M14.00625,14.946875 L15.15625,14.946875 L15.428125,13.546875 C16.778125,13.546875 17.525,13.625 18.246875,12.95 C19.0625,12.2 19.275,10.865625 18.69375,10.196875 C18.390625,9.84687499 17.903125,9.67499999 17.240625,9.67499999 L15.03125,9.67499999 L14.00625,14.946875 Z" id="path-1"></path>
    </defs>
    <g id="php" stroke="none" stroke-width="1" fill="none" fill-rule="evenodd">
        <mask id="mask-2" fill="white">
            <use xlink:href="#path-1"></use>
        </mask>
        <g fill-rule="nonzero"></g>
        <g id="🎨-color" mask="url(#mask-2)" fill="#000000">
            <rect id="🎨-Color" x="0" y="0" width="24" height="24"></rect>
        </g>
    </g>
</svg>