<?xml version="1.0" encoding="UTF-8"?>
<svg width="24px" height="24px" viewBox="0 0 24 24" version="1.1" xmlns="http://www.w3.org/2000/svg" xmlns:xlink="http://www.w3.org/1999/xlink">
    <!-- Generator: Sketch 52.5 (67469) - http://www.bohemiancoding.com/sketch -->
    <title>pied-piper-alt</title>
    <desc>Created with Sketch.</desc>
    <defs>
        <path d="M10.4027778,9.60416665 C10.6215278,9.19444443 10.8611111,9.01388887 11.3020833,8.84722221 C12.25,8.48958332 12.6979167,7.78819442 13.3472222,7.07291664 C13.7604167,7.36458331 13.7638889,7.92708331 14.4444445,7.87152776 L14.4444445,8.62847221 L14.6631945,8.63888887 C15.9618056,8.13888887 17.2569445,7.59027776 18.3645834,6.74305553 C20.0416667,5.46527775 20.2013889,5.00694441 21.1875,3.27083329 L21.2569445,3.18055551 C21.2361112,3.67013885 21.0381945,4.12847218 20.8263889,4.56597219 C19.7673611,6.78124997 18.09375,8.04861109 15.7291667,8.61805554 C15.2986111,8.71874998 14.8125,8.72916665 14.4236111,8.92708332 C14.4722222,9.2673611 14.8819445,9.55555554 14.8819445,9.72569443 C14.8819445,9.84374999 14.6909722,9.97569443 14.6215278,10.0243055 C14.2326389,9.57638888 14.0625,9.35416665 13.8333333,9.25694443 C13.5694445,9.13541665 11.6145833,9.03472221 10.4027778,9.60416665 Z M15.1909722,18.5243056 C14.53125,18.5243056 12.9652778,18.8541667 12.4166667,19.2118056 L12.65625,20.7777778 C13.8958333,20.9895834 15.0902778,20.9027778 16.3368056,20.4375 C16.1701389,20.0902778 15.5208334,18.5243056 15.1909722,18.5243056 Z M10.4722222,11.6527778 C10.3611111,11.5833333 10.2534722,11.5520833 10.1215278,11.5520833 C9.8923611,11.5520833 9.68402777,11.6631944 9.45138888,11.6805556 L9.51041665,11.8506944 L10.4722222,11.6527778 Z M10.0347222,12.7569444 L10.8715278,14.8819445 L11.6006944,14.4027778 L10.5138889,12.6354167 L10.0347222,12.7569444 Z M21.3502084,3.11111107 L21.2902084,3.16611107 L21.2602084,3.21111107 L21.3202084,3.18111107 L21.3502084,3.11111107 Z M19.2326389,16.3784722 C18.0555556,14.4027778 16.6180556,12.2673611 14.0243056,12.3680556 L14.0138889,12.1597222 C13.9756945,11.6909722 15.1527778,12.2708333 15.2326389,11.0833333 L14.7326389,11.3333333 C14.0451389,9.74652777 14.4340278,9.44791665 12.4583333,9.44791665 C11.9479167,9.44791665 11.53125,9.50694443 11.0208333,9.60763888 C11.1215278,10.2534722 11.0972222,10.8819444 10.6423611,11.3541667 L11.3194444,11.5451389 C11.2604167,11.65625 11.21875,11.7638889 11.21875,11.8854167 C11.21875,12.6145833 12.7048611,11.9861111 12.7048611,13.0520833 C12.7048611,13.6909722 11.4270833,15.1388889 10.7986111,15.1388889 C10.5208333,15.1388889 8.93402776,13.4027778 8.94444443,13.0520833 L8.9548611,12.8923611 L10.7708333,12.4930556 C11.2222222,12.4027778 11.1979167,11.7048611 10.6701389,11.7048611 C10.5416667,11.7048611 9.1736111,12.0243056 8.9548611,12.0729167 C8.88541665,11.8923611 8.69444443,11.5833333 8.47569443,11.5833333 C8.36458332,11.5833333 8.25694443,11.6944444 8.14583331,11.7222222 C7.82638887,11.8125 7.06944442,11.8229167 7.39930553,12.4201389 L2.55208329,13.4756945 C2.36111106,13.5138889 2.24305551,13.6944445 2.24305551,13.8854167 C2.24305551,14.09375 2.43402773,14.2638889 2.64236106,14.2638889 C2.92013884,14.2638889 7.20138886,13.2777778 7.76041665,13.1458333 C7.85069442,13.2569445 7.92013887,13.3645833 8.03124998,13.4444445 C8.72916665,13.9444445 10.1076389,16.4270834 10.6840278,16.4270834 C11.5208333,16.4270834 12.6979167,15.6493056 13.1597222,14.9722222 C13.2708333,14.8229167 13.3993056,14.7118056 13.5902778,14.7326389 C13.6111111,15.2118056 12.4930556,15.9201389 12.4444444,16.25 C12.3958333,16.6041667 12.4097222,17.4722222 12.4340278,17.6770834 C13.3611111,17.9583334 14.2395833,17.5520834 15.1388889,17.5763889 C15.2881945,16.8472222 15.5069445,16.1215278 15.4791667,15.3715278 L15.46875,15.0416667 C15.4201389,13.8541667 15.0902778,13.7048611 14.2604167,13.0069444 C14.2222222,12.96875 14.1701389,12.9166667 14.1319445,12.8680556 C14.2083333,12.8194444 14.1701389,12.8333333 14.2916667,12.8090278 C17.3645834,12.8090278 16.2465278,19.1840278 18.1631945,20.7916667 C19.3125,20.2708334 20.6805556,19.8229167 21.7569445,19.1527778 C20.75,18.2638889 19.9305556,17.5659723 19.2326389,16.3784722 Z M12.4201389,17.9756945 L12.4201389,18.9236111 L12.8298611,18.8055556 L12.7291667,17.9791667 L12.4201389,17.9791667 L12.4201389,17.9756945 Z M15.0625,18.0763889 C15.0625,18.0277778 15.0416667,17.9652778 15.03125,17.9166667 C14.1006945,17.9166667 13.75,18.0486111 12.9652778,18.1354167 L13.0347222,18.5659723 C13.3472222,18.5138889 15.0625,18.3368056 15.0625,18.0763889 Z" id="path-1"></path>
    </defs>
    <g id="pied-piper-alt" stroke="none" stroke-width="1" fill="none" fill-rule="evenodd">
        <mask id="mask-2" fill="white">
            <use xlink:href="#path-1"></use>
        </mask>
        <g fill-rule="nonzero"></g>
        <g id="🎨-color" mask="url(#mask-2)" fill="#000000">
            <rect id="🎨-Color" x="0" y="0" width="24" height="24"></rect>
        </g>
    </g>
</svg>