<?xml version="1.0" encoding="UTF-8"?>
<svg width="24px" height="24px" viewBox="0 0 24 24" version="1.1" xmlns="http://www.w3.org/2000/svg" xmlns:xlink="http://www.w3.org/1999/xlink">
    <!-- Generator: Sketch 52.5 (67469) - http://www.bohemiancoding.com/sketch -->
    <title>pied-piper-pp</title>
    <desc>Created with Sketch.</desc>
    <defs>
        <path d="M11.2695312,8.82031248 C11.2695312,9.64453124 10.7148437,10.3085937 10.03125,10.3085937 C9.75390624,10.3085937 9.53124999,10.2617187 9.35937499,10.1640625 L9.35937499,7.50781248 C9.53124999,7.40234373 9.75390624,7.34374998 10.03125,7.34374998 C10.7148437,7.34374998 11.2695312,8.00390623 11.2695312,8.82031248 Z M13.3242188,11.4375 C13.046875,11.4375 12.8242188,11.4960937 12.6523438,11.6015625 L12.6523438,14.2578125 C12.8242188,14.3554688 13.046875,14.4023438 13.3242188,14.4023438 C14.0039063,14.4023438 14.5625,13.7421875 14.5625,12.9257813 C14.5625,12.1015625 14.0039063,11.4375 13.3242188,11.4375 Z M20.75,5.12499997 L20.75,18.875 C20.75,19.9101563 19.9101563,20.75 18.875,20.75 L5.12499997,20.75 C4.08984371,20.75 3.24999996,19.9101563 3.24999996,18.875 L3.24999996,5.12499997 C3.24999996,4.08984371 4.08984371,3.24999996 5.12499997,3.24999996 L18.875,3.24999996 C19.9101563,3.24999996 20.75,4.08984371 20.75,5.12499997 Z M10.4765625,11.9648437 C12.078125,11.9648437 13.375,10.5742187 13.375,8.85546873 C13.375,7.13671873 12.078125,5.74609372 10.4765625,5.74609372 C10.0078125,5.74609372 9.53515624,5.87109372 9.12499999,6.08984372 L7.33984373,6.08984372 L7.33984373,14.1484375 L9.36328124,13.7539063 L9.36328124,11.7773437 C9.69921874,11.8984375 10.0703125,11.9648437 10.4765625,11.9648437 Z M16.6640625,12.953125 C16.6640625,11.234375 15.3671875,9.84374999 13.7773438,9.84374999 C13.6523438,9.84374999 13.5273438,9.85156249 13.4023438,9.87109374 C13.2578125,10.359375 13.0078125,10.8007812 12.6523438,11.1757812 C12.1132813,11.7617187 11.3945312,12.1054688 10.6289062,12.1445313 L10.6289062,18.25 L12.6523438,17.8554688 L12.6523438,15.8789063 C12.9882813,16.0039063 13.3632813,16.0625 13.7734375,16.0625 C15.3671875,16.0625 16.6640625,14.671875 16.6640625,12.953125 Z" id="path-1"></path>
    </defs>
    <g id="pied-piper-pp" stroke="none" stroke-width="1" fill="none" fill-rule="evenodd">
        <mask id="mask-2" fill="white">
            <use xlink:href="#path-1"></use>
        </mask>
        <g fill-rule="nonzero"></g>
        <g id="🎨-color" mask="url(#mask-2)" fill="#000000">
            <rect id="🎨-Color" x="0" y="0" width="24" height="24"></rect>
        </g>
    </g>
</svg>