<?xml version="1.0" encoding="UTF-8"?>
<svg width="24px" height="24px" viewBox="0 0 24 24" version="1.1" xmlns="http://www.w3.org/2000/svg" xmlns:xlink="http://www.w3.org/1999/xlink">
    <!-- Generator: Sketch 52.5 (67469) - http://www.bohemiancoding.com/sketch -->
    <title>pied-piper</title>
    <desc>Created with Sketch.</desc>
    <defs>
        <path d="M4.48046871,18.3671875 L3.23046871,20.71875 L3.26171871,7.90624998 C3.26171871,5.33203122 5.33984372,3.24999996 7.91796873,3.24999996 L20.6992188,3.24999996 C17.0664063,4.37890621 13.28125,6.92968747 10.78125,9.83593749 C8.02343748,13.015625 6.45703122,15.203125 4.48046871,18.3671875 Z M20.7304688,3.24999996 C20.7304688,3.24999996 15.1523438,5.85937497 13.4492188,9.77734374 C12.5429688,11.8710937 12.3203125,14.390625 10.6757812,15.9726563 C9.54687499,17.0585938 7.94921873,17.4648438 6.56249997,18.171875 C5.65624997,18.640625 3.96874996,19.7539063 3.24609371,20.75 L16.0742188,20.75 C18.6523438,20.75 20.734375,18.6679688 20.734375,16.09375 C20.7304688,16.09375 20.7304688,3.24999996 20.7304688,3.24999996 Z" id="path-1"></path>
    </defs>
    <g id="pied-piper" stroke="none" stroke-width="1" fill="none" fill-rule="evenodd">
        <mask id="mask-2" fill="white">
            <use xlink:href="#path-1"></use>
        </mask>
        <g fill-rule="nonzero"></g>
        <g id="🎨-color" mask="url(#mask-2)" fill="#000000">
            <rect id="🎨-Color" x="0" y="0" width="24" height="24"></rect>
        </g>
    </g>
</svg>