<?xml version="1.0" encoding="UTF-8"?>
<svg width="24px" height="24px" viewBox="0 0 24 24" version="1.1" xmlns="http://www.w3.org/2000/svg" xmlns:xlink="http://www.w3.org/1999/xlink">
    <!-- Generator: Sketch 52.5 (67469) - http://www.bohemiancoding.com/sketch -->
    <title>pied-piper-hat</title>
    <desc>Created with Sketch.</desc>
    <defs>
        <path d="M22.0000001,4.77812496 C19.475,6.45312497 19.20625,7.66874998 18.9875,8.04062498 C18.778125,8.42187498 18.621875,9.92499999 18.259375,10.653125 C17.89375,11.390625 16.565625,11.971875 16.19375,12.215625 C15.828125,12.459375 15.309375,13.40625 14.884375,14.221875 C11.50625,14.084375 9.65312499,15.434375 6.78437497,17.146875 C7.70312498,16.84375 8.13749998,16.625 8.13749998,16.625 C11.08125,15.5 12.490625,14.490625 16.921875,15.0875 C16.95625,15.0875 16.98125,15.10625 17.009375,15.1125 C17.13125,15.18125 17.175,15.328125 17.10625,15.45 L15.421875,18.44375 C15.34375,18.590625 15.178125,18.66875 15.0125,18.634375 C11.05,17.890625 7.92187498,19.175 5.04687497,19.215625 C2.75312495,19.25 1.99999995,18.16875 1.99999995,18.11875 C1.99999995,18.084375 2.01874995,18.065625 2.05312495,18.065625 C2.05312495,18.065625 3.24999996,18.065625 5.27499997,17.5875 C7.57499998,13.203125 9.62499999,11.66875 11.85625,11.66875 C11.85625,11.66875 14.096875,11.66875 14.6875,13.603125 C15.4,12.3625 15.571875,12.065625 15.571875,12.065625 C15.7375,11.771875 16.665625,9.65312499 18.271875,7.64687498 C19.88125,5.64687497 21.096875,5.14999997 22.0000001,4.77812496 Z" id="path-1"></path>
    </defs>
    <g id="pied-piper-hat" stroke="none" stroke-width="1" fill="none" fill-rule="evenodd">
        <mask id="mask-2" fill="white">
            <use xlink:href="#path-1"></use>
        </mask>
        <g></g>
        <g id="🎨-color" mask="url(#mask-2)" fill="#000000">
            <rect id="🎨-Color" x="0" y="0" width="24" height="24"></rect>
        </g>
    </g>
</svg>