<?xml version="1.0" encoding="UTF-8"?>
<svg width="24px" height="24px" viewBox="0 0 24 24" version="1.1" xmlns="http://www.w3.org/2000/svg" xmlns:xlink="http://www.w3.org/1999/xlink">
    <!-- Generator: Sketch 52.5 (67469) - http://www.bohemiancoding.com/sketch -->
    <title>piggy-bank</title>
    <desc>Created with Sketch.</desc>
    <defs>
        <path d="M21.4444445,10.8888889 L20.4201389,10.8888889 C20.1145834,10.1944444 19.6701389,9.5798611 19.1215278,9.06597221 L19.7777778,6.44444442 L18.6666667,6.44444442 C17.6458334,6.44444442 16.7430556,6.91319442 16.1319445,7.63541664 C15.8680556,7.5972222 15.6076389,7.55555553 15.3333334,7.55555553 L10.8888889,7.55555553 C8.20138887,7.55555553 5.96180553,9.46527777 5.44444441,12 L3.9444444,12 C3.43055551,12 3.02430551,11.53125 3.12847218,11 C3.20486107,10.6041667 3.57638885,10.3333333 3.97916663,10.3333333 L4.01388885,10.3333333 C4.12847218,10.3333333 4.22222218,10.2395833 4.22222218,10.125 L4.22222218,9.43055554 C4.22222218,9.31597221 4.12847218,9.22222221 4.01388885,9.22222221 C3.02430551,9.22222221 2.14236106,9.93055555 2.01736106,10.9097222 C1.86458328,12.0972222 2.7881944,13.1111111 3.9444444,13.1111111 L5.3333333,13.1111111 C5.3333333,14.9236111 6.21527775,16.5173611 7.55555553,17.53125 L7.55555553,20.3333334 C7.55555553,20.6388889 7.80555553,20.8888889 8.11111109,20.8888889 L10.3333333,20.8888889 C10.6388889,20.8888889 10.8888889,20.6388889 10.8888889,20.3333334 L10.8888889,18.6666667 L15.3333334,18.6666667 L15.3333334,20.3333334 C15.3333334,20.6388889 15.5833334,20.8888889 15.8888889,20.8888889 L18.1111111,20.8888889 C18.4166667,20.8888889 18.6666667,20.6388889 18.6666667,20.3333334 L18.6666667,17.53125 C19.0763889,17.2222222 19.4409723,16.8576389 19.7534723,16.4444445 L21.4444445,16.4444445 C21.75,16.4444445 22.0000001,16.1944445 22.0000001,15.8888889 L22.0000001,11.4444444 C22.0000001,11.1388889 21.75,10.8888889 21.4444445,10.8888889 Z M17,13.1111111 C16.6944445,13.1111111 16.4444445,12.8611111 16.4444445,12.5555556 C16.4444445,12.25 16.6944445,12 17,12 C17.3055556,12 17.5555556,12.25 17.5555556,12.5555556 C17.5555556,12.8611111 17.3055556,13.1111111 17,13.1111111 Z M10.8888889,6.44444442 L15.3333334,6.44444442 C15.5208334,6.44444442 15.7048611,6.45833331 15.8854167,6.47222219 C15.8854167,6.46180553 15.8888889,6.45486108 15.8888889,6.44444442 C15.8888889,4.60416663 14.3958333,3.11111107 12.5555556,3.11111107 C10.7152778,3.11111107 9.22222221,4.60416663 9.22222221,6.44444442 C9.22222221,6.51736108 9.23958332,6.58680553 9.24305554,6.6597222 C9.77083332,6.52430553 10.3194444,6.44444442 10.8888889,6.44444442 Z" id="path-1"></path>
    </defs>
    <g id="piggy-bank" stroke="none" stroke-width="1" fill="none" fill-rule="evenodd">
        <mask id="mask-2" fill="white">
            <use xlink:href="#path-1"></use>
        </mask>
        <g fill-rule="nonzero"></g>
        <g id="🎨-color" mask="url(#mask-2)" fill="#000000">
            <rect id="🎨-Color" x="0" y="0" width="24" height="24"></rect>
        </g>
    </g>
</svg>