<?xml version="1.0" encoding="UTF-8"?>
<svg width="24px" height="24px" viewBox="0 0 24 24" version="1.1" xmlns="http://www.w3.org/2000/svg" xmlns:xlink="http://www.w3.org/1999/xlink">
    <!-- Generator: Sketch 52.5 (67469) - http://www.bohemiancoding.com/sketch -->
    <title>pills</title>
    <desc>Created with Sketch.</desc>
    <defs>
        <path d="M5.88888886,4.22222218 C3.73958329,4.22222218 1.99999995,5.96180553 1.99999995,8.11111109 L1.99999995,15.8888889 C1.99999995,18.0381945 3.73958329,19.7777778 5.88888886,19.7777778 C8.03819442,19.7777778 9.77777777,18.0381945 9.77777777,15.8888889 L9.77777777,8.11111109 C9.77777777,5.96180553 8.03819442,4.22222218 5.88888886,4.22222218 Z M7.55555553,12 L4.22222218,12 L4.22222218,8.11111109 C4.22222218,7.1909722 4.96874996,6.44444442 5.88888886,6.44444442 C6.80902775,6.44444442 7.55555553,7.1909722 7.55555553,8.11111109 L7.55555553,12 Z M12.40625,10.96875 C12.2847222,10.8472222 12.0798611,10.8611111 11.9791667,10.9965278 C10.40625,13.1666667 10.5763889,16.2083334 12.53125,18.1631945 C14.4861111,20.1180556 17.5277778,20.2881945 19.6979167,18.7152778 C19.8368056,18.6145834 19.8472223,18.4097223 19.7256945,18.2881945 L12.40625,10.96875 Z M20.3854167,10.3090278 C18.4305556,8.35416665 15.3888889,8.18402776 13.21875,9.75694443 C13.0798611,9.85763888 13.0694444,10.0625 13.1909722,10.1840278 L20.5104167,17.5034722 C20.6319445,17.625 20.8368056,17.6111111 20.9375,17.4756945 C22.5104167,15.3020833 22.3437501,12.2638889 20.3854167,10.3090278 Z" id="path-1"></path>
    </defs>
    <g id="pills" stroke="none" stroke-width="1" fill="none" fill-rule="evenodd">
        <mask id="mask-2" fill="white">
            <use xlink:href="#path-1"></use>
        </mask>
        <g fill-rule="nonzero"></g>
        <g id="🎨-color" mask="url(#mask-2)" fill="#000000">
            <rect id="🎨-Color" x="0" y="0" width="24" height="24"></rect>
        </g>
    </g>
</svg>