<?xml version="1.0" encoding="UTF-8"?>
<svg width="24px" height="24px" viewBox="0 0 24 24" version="1.1" xmlns="http://www.w3.org/2000/svg" xmlns:xlink="http://www.w3.org/1999/xlink">
    <!-- Generator: Sketch 52.5 (67469) - http://www.bohemiancoding.com/sketch -->
    <title>pinterest-square</title>
    <desc>Created with Sketch.</desc>
    <defs>
        <path d="M20.75,5.12499997 L20.75,18.875 C20.75,19.9101563 19.9101563,20.75 18.875,20.75 L9.28124999,20.75 C9.66406249,20.109375 10.15625,19.1875 10.3515625,18.4335938 C10.46875,17.984375 10.9492187,16.1523438 10.9492187,16.1523438 C11.2617187,16.75 12.1757813,17.2539063 13.1484375,17.2539063 C16.0429688,17.2539063 18.125,14.59375 18.125,11.2890625 C18.125,8.12109373 15.5390625,5.74999997 12.2109375,5.74999997 C8.07031248,5.74999997 5.87499997,8.52734373 5.87499997,11.5546875 C5.87499997,12.9609375 6.62499997,14.7109375 7.82031248,15.2695313 C8.00390623,15.3554688 8.09765623,15.3164063 8.14062498,15.140625 C8.17187498,15.0078125 8.33593748,14.3554688 8.40624998,14.0546875 C8.42968748,13.9570313 8.41796873,13.875 8.33984373,13.78125 C7.94531248,13.3007813 7.62499998,12.4179688 7.62499998,11.59375 C7.62499998,9.47656249 9.22656249,7.42968748 11.9570312,7.42968748 C14.3125,7.42968748 15.9648438,9.03515624 15.9648438,11.3320312 C15.9648438,13.9257813 14.65625,15.7226563 12.9492188,15.7226563 C12.0078125,15.7226563 11.3046875,14.9453125 11.5273437,13.9882813 C11.796875,12.8476563 12.3203125,11.6171875 12.3203125,10.7929687 C12.3203125,8.72265623 9.37109374,9.00781249 9.37109374,11.7695312 C9.37109374,12.6171875 9.65624999,13.1953125 9.65624999,13.1953125 C8.42968748,18.3828125 8.24609373,18.4492188 8.49999998,20.71875 L8.58593748,20.75 L5.12499997,20.75 C4.08984371,20.75 3.24999996,19.9101563 3.24999996,18.875 L3.24999996,5.12499997 C3.24999996,4.08984371 4.08984371,3.24999996 5.12499997,3.24999996 L18.875,3.24999996 C19.9101563,3.24999996 20.75,4.08984371 20.75,5.12499997 Z" id="path-1"></path>
    </defs>
    <g id="pinterest-square" stroke="none" stroke-width="1" fill="none" fill-rule="evenodd">
        <mask id="mask-2" fill="white">
            <use xlink:href="#path-1"></use>
        </mask>
        <g></g>
        <g id="🎨-color" mask="url(#mask-2)" fill="#000000">
            <rect id="🎨-Color" x="0" y="0" width="24" height="24"></rect>
        </g>
    </g>
</svg>