<?xml version="1.0" encoding="UTF-8"?>
<svg width="24px" height="24px" viewBox="0 0 24 24" version="1.1" xmlns="http://www.w3.org/2000/svg" xmlns:xlink="http://www.w3.org/1999/xlink">
    <!-- Generator: Sketch 52.5 (67469) - http://www.bohemiancoding.com/sketch -->
    <title>place-of-worship</title>
    <desc>Created with Sketch.</desc>
    <defs>
        <path d="M21.3940625,15.4546875 L18,14 L18,20 L21.5,20 C21.77625,20 22.0000001,19.77625 22.0000001,19.5 L22.0000001,16.37375 C21.9999916,15.9737862 21.7616628,15.6122983 21.3940625,15.4546875 Z M1.99999995,16.37375 L1.99999995,19.5 C1.99999995,19.77625 2.22374995,20 2.49999995,20 L5.99999997,20 L5.99999997,14 L2.60593745,15.4546875 C2.23833725,15.6122983 2.00000841,15.9737862 1.99999995,16.37375 Z M16.514375,11.70875 L15,10.8 L15,7.20718748 C15,6.94187497 14.8946875,6.68781247 14.706875,6.49999997 L12.3534375,4.14656246 C12.158125,3.95124996 11.8415625,3.95124996 11.6465625,4.14656246 L9.29312499,6.49999997 C9.10562499,6.68749997 8.99999999,6.94187497 8.99999999,7.20718748 L8.99999999,10.8 L7.48562498,11.70875 C7.18435725,11.8894312 7.00000429,12.2149553 6.99999997,12.56625 L6.99999997,20 L9.99999999,20 L9.99999999,17 C9.99999999,15.8953125 10.895625,15 12,15 C13.104375,15 14,15.8953125 14,17 L14,20 L17,20 L17,12.56625 C17,12.215 16.815625,11.889375 16.514375,11.70875 Z" id="path-1"></path>
    </defs>
    <g id="place-of-worship" stroke="none" stroke-width="1" fill="none" fill-rule="evenodd">
        <mask id="mask-2" fill="white">
            <use xlink:href="#path-1"></use>
        </mask>
        <g fill-rule="nonzero"></g>
        <g id="🎨-color" mask="url(#mask-2)" fill="#000000">
            <rect id="🎨-Color" x="0" y="0" width="24" height="24"></rect>
        </g>
    </g>
</svg>