<?xml version="1.0" encoding="UTF-8"?>
<svg width="24px" height="24px" viewBox="0 0 24 24" version="1.1" xmlns="http://www.w3.org/2000/svg" xmlns:xlink="http://www.w3.org/1999/xlink">
    <!-- Generator: Sketch 52.5 (67469) - http://www.bohemiancoding.com/sketch -->
    <title>plane</title>
    <desc>Created with Sketch.</desc>
    <defs>
        <path d="M18.6666667,9.77777777 L14.6982639,9.77777777 L11.0489583,3.39097218 C10.9499056,3.21788519 10.765745,3.11109856 10.5663194,3.11111107 L8.29201387,3.11111107 C7.92291665,3.11111107 7.6565972,3.46423607 7.75798609,3.81909718 L9.46041665,9.77777777 L5.88888886,9.77777777 L4.38888885,7.77777776 C4.28402774,7.6378472 4.11909718,7.55555553 3.9444444,7.55555553 L2.55590273,7.55555553 C2.1944444,7.55555553 1.92916662,7.89513887 2.01701384,8.24583331 L3.11111107,12 L2.01701384,15.7541667 C1.92916662,16.1048611 2.1944444,16.4444445 2.55590273,16.4444445 L3.9444444,16.4444445 C4.11944441,16.4444445 4.28402774,16.3621528 4.38888885,16.2222222 L5.88888886,14.2222222 L9.46041665,14.2222222 L7.75798609,20.1805556 C7.6565972,20.5354167 7.92291665,20.8888889 8.29201387,20.8888889 L10.5663194,20.8888889 C10.765625,20.8888889 10.9496528,20.7819445 11.0486111,20.6090278 L14.6982639,14.2222222 L18.6666667,14.2222222 C19.8940973,14.2222222 22.0000001,13.2274306 22.0000001,12 C22.0000001,10.7725694 19.8940973,9.77777777 18.6666667,9.77777777 Z" id="path-1"></path>
    </defs>
    <g id="plane" stroke="none" stroke-width="1" fill="none" fill-rule="evenodd">
        <mask id="mask-2" fill="white">
            <use xlink:href="#path-1"></use>
        </mask>
        <g></g>
        <g id="🎨-color" mask="url(#mask-2)" fill="#000000">
            <rect id="🎨-Color" x="0" y="0" width="24" height="24"></rect>
        </g>
    </g>
</svg>