<?xml version="1.0" encoding="UTF-8"?>
<svg width="24px" height="24px" viewBox="0 0 24 24" version="1.1" xmlns="http://www.w3.org/2000/svg" xmlns:xlink="http://www.w3.org/1999/xlink">
    <!-- Generator: Sketch 52.5 (67469) - http://www.bohemiancoding.com/sketch -->
    <title>plane-arrival</title>
    <desc>Created with Sketch.</desc>
    <defs>
        <path d="M21.5,18.015625 L2.49999995,18.015625 C2.22374995,18.015625 1.99999995,18.239375 1.99999995,18.515625 L1.99999995,19.515625 C1.99999995,19.791875 2.22374995,20.015625 2.49999995,20.015625 L21.5,20.015625 C21.77625,20.015625 22.0000001,19.791875 22.0000001,19.515625 L22.0000001,18.515625 C22.0000001,18.239375 21.77625,18.015625 21.5,18.015625 Z M3.40031246,10.4425 L6.17343747,12.9425 C6.40097893,13.1479614 6.67362041,13.2970739 6.96937497,13.3778125 L15.956875,15.82625 C16.784375,16.0515625 17.661875,16.09875 18.488125,15.86875 C19.4153125,15.6103125 19.845625,15.2059375 19.9646875,14.7528125 C20.084375,14.2996875 19.910625,13.730625 19.234375,13.0353125 C18.631875,12.4159375 17.8484375,12.010625 17.0209375,11.7853125 L13.97375,10.9553125 L10.8375,4.95999996 C10.7903125,4.77843746 10.6515625,4.63656246 10.473125,4.58781246 L8.43906248,4.03374996 C8.10906248,3.94374996 7.78593748,4.19999996 7.79187498,4.54749996 L9.28937499,9.67906249 L6.09562497,8.80906248 L5.23343747,6.68781247 C5.17312497,6.53499997 5.04562497,6.41999997 4.88906246,6.37749997 L3.64749996,6.03906247 C3.32437496,5.95093747 3.00593746,6.19531247 2.99999995,6.53531247 L3.00718746,9.71593749 C3.01312496,9.99437499 3.19562496,10.2578125 3.40031246,10.4425 Z" id="path-1"></path>
    </defs>
    <g id="plane-arrival" stroke="none" stroke-width="1" fill="none" fill-rule="evenodd">
        <mask id="mask-2" fill="white">
            <use xlink:href="#path-1"></use>
        </mask>
        <g fill-rule="nonzero"></g>
        <g id="🎨-color" mask="url(#mask-2)" fill="#000000">
            <rect id="🎨-Color" x="0" y="0" width="24" height="24"></rect>
        </g>
    </g>
</svg>