<?xml version="1.0" encoding="UTF-8"?>
<svg width="24px" height="24px" viewBox="0 0 24 24" version="1.1" xmlns="http://www.w3.org/2000/svg" xmlns:xlink="http://www.w3.org/1999/xlink">
    <!-- Generator: Sketch 52.5 (67469) - http://www.bohemiancoding.com/sketch -->
    <title>playstation</title>
    <desc>Created with Sketch.</desc>
    <defs>
        <path d="M21.8232236,16.0311959 C21.4315425,16.5233969 20.4783363,16.8734836 20.4783363,16.8734836 L13.3691508,19.4246101 L13.3691508,17.542461 L18.5996534,15.677643 C19.1923744,15.4662045 19.2859619,15.1646447 18.8006933,15.0051993 C18.3188908,14.8457539 17.4454073,14.8908146 16.8526863,15.1057193 L13.3691508,16.3362219 L13.3691508,14.3812825 C14.1733102,14.1109186 15.0017331,13.9098787 15.9930676,13.7989601 C17.4107453,13.6429809 19.1438475,13.8197574 20.5060659,14.3362218 C22.0381283,14.8214905 22.2114385,15.5389948 21.8232236,16.0311959 Z M14.0450607,12.8249567 L14.0450607,8.00693239 C14.0450607,7.44194105 13.9410745,6.92201037 13.4107452,6.77296358 C13.0051993,6.64124781 12.7521664,7.0190641 12.7521664,7.58405544 L12.7521664,19.642981 L9.50086654,18.610052 L9.50086654,4.23570187 C10.8838821,4.492201 12.897747,5.09878679 13.9792028,5.46273827 C16.7348354,6.4090121 17.6672444,7.58752164 17.6672444,10.2391681 C17.6672444,12.8214905 16.0727903,13.8024264 14.0450607,12.8249567 Z M3.53206235,17.3448874 C1.9584055,16.9012132 1.69497395,15.9757366 2.41247829,15.4454073 C3.07452335,14.9532063 4.20450603,14.5823224 4.20450603,14.5823224 L8.86655111,12.9254766 L8.86655111,14.8145581 L5.51126513,16.0138648 C4.91854416,16.2253033 4.82842284,16.5268631 5.31022527,16.6863085 C5.7920277,16.8457539 6.66551124,16.8006933 7.25823221,16.5857886 L8.86655111,16 L8.86655111,17.6915078 C7.07798958,18.0138648 5.35181972,17.9445408 3.53206235,17.3448874 Z" id="path-1"></path>
    </defs>
    <g id="playstation" stroke="none" stroke-width="1" fill="none" fill-rule="evenodd">
        <mask id="mask-2" fill="white">
            <use xlink:href="#path-1"></use>
        </mask>
        <g fill-rule="nonzero"></g>
        <g id="🎨-color" mask="url(#mask-2)" fill="#000000">
            <rect id="🎨-Color" x="0" y="0" width="24" height="24"></rect>
        </g>
    </g>
</svg>