<?xml version="1.0" encoding="UTF-8"?>
<svg width="24px" height="24px" viewBox="0 0 24 24" version="1.1" xmlns="http://www.w3.org/2000/svg" xmlns:xlink="http://www.w3.org/1999/xlink">
    <!-- Generator: Sketch 52.5 (67469) - http://www.bohemiancoding.com/sketch -->
    <title>play-circle</title>
    <desc>Created with Sketch.</desc>
    <defs>
        <path d="M16.5195313,11.296875 L9.64453124,7.11718748 C9.02734374,6.77343747 8.24999998,7.21484373 8.24999998,7.93749998 L8.24999998,16.0625 C8.24999998,16.78125 9.02343749,17.2265625 9.64453124,16.8828125 L16.5195313,12.9375 C17.1601563,12.5820313 17.1601563,11.65625 16.5195313,11.296875 Z M21.6875,12 C21.6875,6.64843747 17.3515625,2.31249995 12,2.31249995 C6.64843747,2.31249995 2.31249995,6.64843747 2.31249995,12 C2.31249995,17.3515625 6.64843747,21.6875 12,21.6875 C17.3515625,21.6875 21.6875,17.3515625 21.6875,12 Z M4.18749996,12 C4.18749996,7.68359373 7.68359373,4.18749996 12,4.18749996 C16.3164063,4.18749996 19.8125,7.68359373 19.8125,12 C19.8125,16.3164063 16.3164063,19.8125 12,19.8125 C7.68359373,19.8125 4.18749996,16.3164063 4.18749996,12 Z" id="path-1"></path>
    </defs>
    <g id="play-circle" stroke="none" stroke-width="1" fill="none" fill-rule="evenodd">
        <mask id="mask-2" fill="white">
            <use xlink:href="#path-1"></use>
        </mask>
        <g fill-rule="nonzero"></g>
        <g id="🎨-color" mask="url(#mask-2)" fill="#000000">
            <rect id="🎨-Color" x="0" y="0" width="24" height="24"></rect>
        </g>
    </g>
</svg>