<?xml version="1.0" encoding="UTF-8"?>
<svg width="24px" height="24px" viewBox="0 0 24 24" version="1.1" xmlns="http://www.w3.org/2000/svg" xmlns:xlink="http://www.w3.org/1999/xlink">
    <!-- Generator: Sketch 52.5 (67469) - http://www.bohemiancoding.com/sketch -->
    <title>plug</title>
    <desc>Created with Sketch.</desc>
    <defs>
        <path d="M14.5,7.62499998 L14.5,3.24999996 C14.5,2.55964839 15.0596485,1.99999995 15.75,1.99999995 C16.4403516,1.99999995 17,2.55964839 17,3.24999996 L17,7.62499998 L14.5,7.62499998 Z M18.875,8.24999998 L5.12499997,8.24999998 C4.77980465,8.24999998 4.49999996,8.52980467 4.49999996,8.87499998 L4.49999996,10.125 C4.49999996,10.4701953 4.77980465,10.75 5.12499997,10.75 L5.74999997,10.75 L5.74999997,12 C5.74999997,15.0236719 7.89722654,17.5457422 10.75,18.1248438 L10.75,22 L13.25,22 L13.25,18.1248438 C16.1027735,17.5457422 18.25,15.0236719 18.25,12 L18.25,10.75 L18.875,10.75 C19.2201953,10.75 19.5,10.4701953 19.5,10.125 L19.5,8.87499998 C19.5,8.52980467 19.2201953,8.24999998 18.875,8.24999998 Z M9.49999999,7.62499998 L9.49999999,3.24999996 C9.49999999,2.55964839 8.94035155,1.99999995 8.24999998,1.99999995 C7.55964842,1.99999995 6.99999997,2.55964839 6.99999997,3.24999996 L6.99999997,7.62499998 L9.49999999,7.62499998 Z" id="path-1"></path>
    </defs>
    <g id="plug" stroke="none" stroke-width="1" fill="none" fill-rule="evenodd">
        <mask id="mask-2" fill="white">
            <use xlink:href="#path-1"></use>
        </mask>
        <g fill-rule="nonzero"></g>
        <g id="🎨-color" mask="url(#mask-2)" fill="#000000">
            <rect id="🎨-Color" x="0" y="0" width="24" height="24"></rect>
        </g>
    </g>
</svg>