<?xml version="1.0" encoding="UTF-8"?>
<svg width="24px" height="24px" viewBox="0 0 24 24" version="1.1" xmlns="http://www.w3.org/2000/svg" xmlns:xlink="http://www.w3.org/1999/xlink">
    <!-- Generator: Sketch 52.5 (67469) - http://www.bohemiancoding.com/sketch -->
    <title>plus-circle</title>
    <desc>Created with Sketch.</desc>
    <defs>
        <path d="M12,2.31249995 C6.64843747,2.31249995 2.31249995,6.64843747 2.31249995,12 C2.31249995,17.3515625 6.64843747,21.6875 12,21.6875 C17.3515625,21.6875 21.6875,17.3515625 21.6875,12 C21.6875,6.64843747 17.3515625,2.31249995 12,2.31249995 Z M17.625,13.09375 C17.625,13.3515625 17.4140625,13.5625 17.15625,13.5625 L13.5625,13.5625 L13.5625,17.15625 C13.5625,17.4140625 13.3515625,17.625 13.09375,17.625 L10.90625,17.625 C10.6484375,17.625 10.4375,17.4140625 10.4375,17.15625 L10.4375,13.5625 L6.84374997,13.5625 C6.58593747,13.5625 6.37499997,13.3515625 6.37499997,13.09375 L6.37499997,10.90625 C6.37499997,10.6484375 6.58593747,10.4375 6.84374997,10.4375 L10.4375,10.4375 L10.4375,6.84374997 C10.4375,6.58593747 10.6484375,6.37499997 10.90625,6.37499997 L13.09375,6.37499997 C13.3515625,6.37499997 13.5625,6.58593747 13.5625,6.84374997 L13.5625,10.4375 L17.15625,10.4375 C17.4140625,10.4375 17.625,10.6484375 17.625,10.90625 L17.625,13.09375 Z" id="path-1"></path>
    </defs>
    <g id="plus-circle" stroke="none" stroke-width="1" fill="none" fill-rule="evenodd">
        <mask id="mask-2" fill="white">
            <use xlink:href="#path-1"></use>
        </mask>
        <g fill-rule="nonzero"></g>
        <g id="🎨-color" mask="url(#mask-2)" fill="#000000">
            <rect id="🎨-Color" x="0" y="0" width="24" height="24"></rect>
        </g>
    </g>
</svg>