<?xml version="1.0" encoding="UTF-8"?>
<svg width="24px" height="24px" viewBox="0 0 24 24" version="1.1" xmlns="http://www.w3.org/2000/svg" xmlns:xlink="http://www.w3.org/1999/xlink">
    <!-- Generator: Sketch 52.5 (67469) - http://www.bohemiancoding.com/sketch -->
    <title>podcast</title>
    <desc>Created with Sketch.</desc>
    <defs>
        <path d="M13.6964453,21.0844922 C13.4955469,21.8270704 12.7366406,22.0000001 12,22.0000001 C11.2633984,22.0000001 10.5044531,21.8270704 10.3035937,21.0844922 C10.0049609,19.9739844 9.49999999,17.1913282 9.49999999,15.8964844 C9.49999999,14.5232031 10.7164844,14.1875 12,14.1875 C13.2835156,14.1875 14.5,14.5232031 14.5,15.8964844 C14.5,17.1835547 13.9972266,19.9659766 13.6964453,21.0844922 Z M9.37761717,13.2716406 C8.64742186,12.5564844 8.20738279,11.5461328 8.25324217,10.4357422 C8.33347654,8.49339842 9.90929686,6.92183591 11.8518359,6.8466406 C13.9867969,6.76398435 15.75,8.47683592 15.75,10.59375 C15.75,11.6416797 15.3178125,12.5904688 14.6224219,13.2715625 C14.5179297,13.3739063 14.5286328,13.5444531 14.6469531,13.6304297 C15.0107031,13.8946875 15.2899219,14.2297656 15.4764063,14.6211719 C15.5444141,14.7639063 15.7301953,14.8032031 15.8455078,14.6950391 C16.9715235,13.6386719 17.6639844,12.1253906 17.6232813,10.4542187 C17.5508203,7.47742185 15.1391016,5.05546872 12.1626172,4.97105465 C8.9870703,4.88097653 6.37499997,7.43808591 6.37499997,10.59375 C6.37499997,12.2094141 7.05984373,13.6679688 8.15429686,14.6948828 C8.26964842,14.803125 8.45550779,14.7640235 8.52355467,14.6211719 C8.71003905,14.2297266 8.98929686,13.8946875 9.35304686,13.6304297 C9.47136717,13.5444922 9.48210936,13.3739453 9.37761717,13.2716406 Z M12,1.99999995 C7.16421873,1.99999995 3.24999996,5.91347653 3.24999996,10.75 C3.24999996,14.2653125 5.30476559,17.220586 8.16167967,18.6175 C8.33093748,18.7002344 8.52367186,18.5571875 8.49507811,18.3710157 C8.40203123,17.7650782 8.32546873,17.1621875 8.28390623,16.6390235 C8.27820311,16.5673047 8.23902342,16.5028516 8.17929686,16.4627735 C6.32773435,15.2203516 5.11039059,13.1027734 5.12511715,10.7070312 C5.14824215,6.94777341 8.22238279,3.88484371 11.9817187,3.87503902 C15.7809766,3.86511715 18.875,6.95300779 18.875,10.75 C18.875,13.1692188 17.6188282,15.3003906 15.7246094,16.5260547 C15.685586,17.074375 15.6047266,17.7208985 15.5049219,18.3709766 C15.4763281,18.5571875 15.6691016,18.7002344 15.8383203,18.617461 C18.6885547,17.223711 20.75,14.2729297 20.75,10.75 C20.75,5.91425778 16.8365235,1.99999995 12,1.99999995 Z M12,8.24999998 C10.6192969,8.24999998 9.49999999,9.36929686 9.49999999,10.75 C9.49999999,12.1307031 10.6192969,13.25 12,13.25 C13.3807031,13.25 14.5,12.1307031 14.5,10.75 C14.5,9.36929686 13.3807031,8.24999998 12,8.24999998 Z" id="path-1"></path>
    </defs>
    <g id="podcast" stroke="none" stroke-width="1" fill="none" fill-rule="evenodd">
        <mask id="mask-2" fill="white">
            <use xlink:href="#path-1"></use>
        </mask>
        <g fill-rule="nonzero"></g>
        <g id="🎨-color" mask="url(#mask-2)" fill="#000000">
            <rect id="🎨-Color" x="0" y="0" width="24" height="24"></rect>
        </g>
    </g>
</svg>