<?xml version="1.0" encoding="UTF-8"?>
<svg width="24px" height="24px" viewBox="0 0 24 24" version="1.1" xmlns="http://www.w3.org/2000/svg" xmlns:xlink="http://www.w3.org/1999/xlink">
    <!-- Generator: Sketch 52.5 (67469) - http://www.bohemiancoding.com/sketch -->
    <title>poll-h</title>
    <desc>Created with Sketch.</desc>
    <defs>
        <path d="M20.75,18.875 L20.75,5.12499997 C20.75,4.08984371 19.9101563,3.24999996 18.875,3.24999996 L5.12499997,3.24999996 C4.08984371,3.24999996 3.24999996,4.08984371 3.24999996,5.12499997 L3.24999996,18.875 C3.24999996,19.9101563 4.08984371,20.75 5.12499997,20.75 L18.875,20.75 C19.9101563,20.75 20.75,19.9101563 20.75,18.875 Z M7.62499998,9.49999999 C7.27968748,9.49999999 6.99999997,9.22031249 6.99999997,8.87499998 L6.99999997,7.62499998 C6.99999997,7.27968748 7.27968748,6.99999997 7.62499998,6.99999997 L12.625,6.99999997 C12.9703125,6.99999997 13.25,7.27968748 13.25,7.62499998 L13.25,8.87499998 C13.25,9.22031249 12.9703125,9.49999999 12.625,9.49999999 L7.62499998,9.49999999 Z M7.62499998,13.25 C7.27968748,13.25 6.99999997,12.9703125 6.99999997,12.625 L6.99999997,11.375 C6.99999997,11.0296875 7.27968748,10.75 7.62499998,10.75 L16.375,10.75 C16.7203125,10.75 17,11.0296875 17,11.375 L17,12.625 C17,12.9703125 16.7203125,13.25 16.375,13.25 L7.62499998,13.25 Z M7.62499998,17 C7.27968748,17 6.99999997,16.7203125 6.99999997,16.375 L6.99999997,15.125 C6.99999997,14.7796875 7.27968748,14.5 7.62499998,14.5 L10.125,14.5 C10.4703125,14.5 10.75,14.7796875 10.75,15.125 L10.75,16.375 C10.75,16.7203125 10.4703125,17 10.125,17 L7.62499998,17 Z" id="path-1"></path>
    </defs>
    <g id="poll-h" stroke="none" stroke-width="1" fill="none" fill-rule="evenodd">
        <mask id="mask-2" fill="white">
            <use xlink:href="#path-1"></use>
        </mask>
        <g fill-rule="nonzero"></g>
        <g id="🎨-color" mask="url(#mask-2)" fill="#000000">
            <rect id="🎨-Color" x="0" y="0" width="24" height="24"></rect>
        </g>
    </g>
</svg>