<?xml version="1.0" encoding="UTF-8"?>
<svg width="24px" height="24px" viewBox="0 0 24 24" version="1.1" xmlns="http://www.w3.org/2000/svg" xmlns:xlink="http://www.w3.org/1999/xlink">
    <!-- Generator: Sketch 52.5 (67469) - http://www.bohemiancoding.com/sketch -->
    <title>poo-storm</title>
    <desc>Created with Sketch.</desc>
    <defs>
        <path d="M15.28125,15.125 L13.0273438,15.125 L13.703125,12.5898438 C13.78125,12.2929688 13.5585938,12 13.25,12 L10.59375,12 C10.359375,12 10.1601562,12.1757813 10.1289062,12.40625 L9.50390624,17.09375 C9.46484374,17.375 9.68359374,17.625 9.96874999,17.625 L12.2851563,17.625 L11.3867187,21.421875 C11.3164062,21.71875 11.5429687,22.0000001 11.84375,22.0000001 C12.0078125,22.0000001 12.1640625,21.9140625 12.25,21.765625 L15.6875,15.828125 C15.8671875,15.515625 15.640625,15.125 15.28125,15.125 Z M17.875,10.7773437 C18.1054688,10.4023437 18.25,9.97265624 18.25,9.49999999 C18.25,8.12109373 17.1289063,6.99999997 15.75,6.99999997 L15.5195313,6.99999997 C15.6601563,6.60546872 15.75,6.19140622 15.75,5.74999997 C15.75,3.67968746 14.0703125,1.99999995 12,1.99999995 C11.796875,1.99999995 11.6015625,2.0273437 11.4101562,2.0585937 C11.7773437,2.57031245 12,3.19531246 12,3.87499996 C12,5.60156247 10.6015625,6.99999997 8.87499998,6.99999997 L8.24999998,6.99999997 C6.87109372,6.99999997 5.74999997,8.12109373 5.74999997,9.49999999 C5.74999997,9.97265624 5.89453122,10.4023437 6.12499997,10.7773437 C4.52343746,10.90625 3.24999996,12.2421875 3.24999996,13.875 C3.24999996,15.59375 4.65624996,17 6.37499997,17 L8.26171873,17 C8.26562498,16.9765625 8.26171873,16.953125 8.26171873,16.9296875 L8.88671873,12.2421875 C9.00390624,11.390625 9.73437499,10.75 10.59375,10.75 L13.25,10.75 C13.7890625,10.75 14.2851563,10.9960937 14.6132813,11.421875 C14.9414063,11.8476562 15.0507813,12.390625 14.9101563,12.9101563 L14.6523438,13.875 L15.2773438,13.875 C15.890625,13.875 16.4609375,14.203125 16.765625,14.734375 C17.0703125,15.265625 17.0703125,15.9257813 16.765625,16.453125 L16.4492188,17 L17.6210938,17 C19.3398438,17 20.7460938,15.59375 20.7460938,13.875 C20.75,12.2421875 19.4765625,10.90625 17.875,10.7773437 Z" id="path-1"></path>
    </defs>
    <g id="poo-storm" stroke="none" stroke-width="1" fill="none" fill-rule="evenodd">
        <mask id="mask-2" fill="white">
            <use xlink:href="#path-1"></use>
        </mask>
        <g fill-rule="nonzero"></g>
        <g id="🎨-color" mask="url(#mask-2)" fill="#000000">
            <rect id="🎨-Color" x="0" y="0" width="24" height="24"></rect>
        </g>
    </g>
</svg>