<?xml version="1.0" encoding="UTF-8"?>
<svg width="24px" height="24px" viewBox="0 0 24 24" version="1.1" xmlns="http://www.w3.org/2000/svg" xmlns:xlink="http://www.w3.org/1999/xlink">
    <!-- Generator: Sketch 52.5 (67469) - http://www.bohemiancoding.com/sketch -->
    <title>poo</title>
    <desc>Created with Sketch.</desc>
    <defs>
        <path d="M19.6328125,16.4179688 C20.3085938,15.90625 20.75,15.1015625 20.75,14.1875 C20.75,12.6328125 19.4921875,11.375 17.9375,11.375 L17.3867188,11.375 C17.9101563,10.9179687 18.25,10.25 18.25,9.49999999 C18.25,8.12109373 17.1289063,6.99999997 15.75,6.99999997 L15.5195313,6.99999997 C15.6601563,6.60546872 15.75,6.19140622 15.75,5.74999997 C15.75,3.67968746 14.0703125,1.99999995 12,1.99999995 C11.796875,1.99999995 11.6015625,2.0273437 11.4101562,2.0585937 C11.7773437,2.57031245 12,3.19531246 12,3.87499996 C12,5.60156247 10.6015625,6.99999997 8.87499998,6.99999997 L8.24999998,6.99999997 C6.87109372,6.99999997 5.74999997,8.12109373 5.74999997,9.49999999 C5.74999997,10.25 6.08984372,10.9179687 6.61328122,11.375 L6.06249997,11.375 C4.50781246,11.375 3.24999996,12.6328125 3.24999996,14.1875 C3.24999996,15.1015625 3.69140621,15.90625 4.36718746,16.4179688 C3.02734371,16.6328125 1.99999995,17.7851563 1.99999995,19.1875 C1.99999995,20.7421875 3.25781246,22.0000001 4.81249996,22.0000001 L19.1875,22.0000001 C20.7421875,22.0000001 22.0000001,20.7421875 22.0000001,19.1875 C22.0000001,17.7851563 20.9726563,16.6328125 19.6328125,16.4179688 Z M9.49999999,12 C10.1914062,12 10.75,12.5585938 10.75,13.25 C10.75,13.9414063 10.1914062,14.5 9.49999999,14.5 C8.80859373,14.5 8.24999998,13.9414063 8.24999998,13.25 C8.24999998,12.5585938 8.80859373,12 9.49999999,12 Z M15.7304688,17.4296875 C15.3203125,18.5195313 13.4453125,19.5 12,19.5 C10.5546875,19.5 8.67968748,18.5195313 8.26953123,17.4296875 C8.19140623,17.2226563 8.34765623,17 8.57421873,17 L15.4257813,17 C15.6523438,17 15.8085938,17.2226563 15.7304688,17.4296875 Z M14.5,14.5 C13.8085938,14.5 13.25,13.9414063 13.25,13.25 C13.25,12.5585938 13.8085938,12 14.5,12 C15.1914063,12 15.75,12.5585938 15.75,13.25 C15.75,13.9414063 15.1914063,14.5 14.5,14.5 Z" id="path-1"></path>
    </defs>
    <g id="poo" stroke="none" stroke-width="1" fill="none" fill-rule="evenodd">
        <mask id="mask-2" fill="white">
            <use xlink:href="#path-1"></use>
        </mask>
        <g fill-rule="nonzero"></g>
        <g id="🎨-color" mask="url(#mask-2)" fill="#000000">
            <rect id="🎨-Color" x="0" y="0" width="24" height="24"></rect>
        </g>
    </g>
</svg>