<?xml version="1.0" encoding="UTF-8"?>
<svg width="24px" height="24px" viewBox="0 0 24 24" version="1.1" xmlns="http://www.w3.org/2000/svg" xmlns:xlink="http://www.w3.org/1999/xlink">
    <!-- Generator: Sketch 52.5 (67469) - http://www.bohemiancoding.com/sketch -->
    <title>poop</title>
    <desc>Created with Sketch.</desc>
    <defs>
        <path d="M19.63125,16.4195313 C20.3070313,15.9058594 20.75,15.1019531 20.75,14.1875 C20.75,12.6339844 19.490625,11.375 17.9375,11.375 L17.3878907,11.375 C17.9121094,10.9167969 18.25,10.2507812 18.25,9.49999999 C18.25,8.11914061 17.1308594,6.99999997 15.75,6.99999997 L15.5203125,6.99999997 C15.6597656,6.60742185 15.75,6.19062497 15.75,5.74999997 C15.75,3.67890621 14.0710938,1.99999995 12,1.99999995 C11.7980469,1.99999995 11.6035156,2.0289062 11.4097656,2.05937495 C11.7777344,2.57187495 12,3.19609371 12,3.87499996 C12,5.60078122 10.6007812,6.99999997 8.87499998,6.99999997 L8.24999998,6.99999997 C6.8691406,6.99999997 5.74999997,8.11914061 5.74999997,9.49999999 C5.74999997,10.2507812 6.0878906,10.9167969 6.61210935,11.375 L6.06249997,11.375 C4.50937496,11.375 3.24999996,12.6339844 3.24999996,14.1875 C3.24999996,15.1019531 3.69296871,15.9058594 4.36874996,16.4195313 C3.02773433,16.6335938 1.99999995,17.7859375 1.99999995,19.1875 C1.99999995,20.740625 3.25937496,22.0000001 4.81249996,22.0000001 L19.1875,22.0000001 C20.740625,22.0000001 22.0000001,20.740625 22.0000001,19.1875 C22.0000001,17.7859375 20.9722657,16.6335938 19.63125,16.4195313 Z" id="path-1"></path>
    </defs>
    <g id="poop" stroke="none" stroke-width="1" fill="none" fill-rule="evenodd">
        <mask id="mask-2" fill="white">
            <use xlink:href="#path-1"></use>
        </mask>
        <g></g>
        <g id="🎨-color" mask="url(#mask-2)" fill="#000000">
            <rect id="🎨-Color" x="0" y="0" width="24" height="24"></rect>
        </g>
    </g>
</svg>