<?xml version="1.0" encoding="UTF-8"?>
<svg width="24px" height="24px" viewBox="0 0 24 24" version="1.1" xmlns="http://www.w3.org/2000/svg" xmlns:xlink="http://www.w3.org/1999/xlink">
    <!-- Generator: Sketch 52.5 (67469) - http://www.bohemiancoding.com/sketch -->
    <title>portrait</title>
    <desc>Created with Sketch.</desc>
    <defs>
        <path d="M17.625,1.99999995 L6.37499997,1.99999995 C5.33984372,1.99999995 4.49999996,2.8398437 4.49999996,3.87499996 L4.49999996,20.125 C4.49999996,21.1601563 5.33984372,22.0000001 6.37499997,22.0000001 L17.625,22.0000001 C18.6601563,22.0000001 19.5,21.1601563 19.5,20.125 L19.5,3.87499996 C19.5,2.8398437 18.6601563,1.99999995 17.625,1.99999995 Z M12,6.99999997 C13.3789063,6.99999997 14.5,8.12109373 14.5,9.49999999 C14.5,10.8789062 13.3789063,12 12,12 C10.6210937,12 9.49999999,10.8789062 9.49999999,9.49999999 C9.49999999,8.12109373 10.6210937,6.99999997 12,6.99999997 Z M16.375,16.25 C16.375,16.6640625 15.984375,17 15.5,17 L8.49999998,17 C8.01562498,17 7.62499998,16.6640625 7.62499998,16.25 L7.62499998,15.5 C7.62499998,14.2578125 8.80078123,13.25 10.25,13.25 L10.4453125,13.25 C10.9257812,13.4492188 11.4492187,13.5625 12,13.5625 C12.5507813,13.5625 13.078125,13.4492188 13.5546875,13.25 L13.75,13.25 C15.1992188,13.25 16.375,14.2578125 16.375,15.5 L16.375,16.25 Z" id="path-1"></path>
    </defs>
    <g id="portrait" stroke="none" stroke-width="1" fill="none" fill-rule="evenodd">
        <mask id="mask-2" fill="white">
            <use xlink:href="#path-1"></use>
        </mask>
        <g fill-rule="nonzero"></g>
        <g id="🎨-color" mask="url(#mask-2)" fill="#000000">
            <rect id="🎨-Color" x="0" y="0" width="24" height="24"></rect>
        </g>
    </g>
</svg>