<?xml version="1.0" encoding="UTF-8"?>
<svg width="24px" height="24px" viewBox="0 0 24 24" version="1.1" xmlns="http://www.w3.org/2000/svg" xmlns:xlink="http://www.w3.org/1999/xlink">
    <!-- Generator: Sketch 52.5 (67469) - http://www.bohemiancoding.com/sketch -->
    <title>pound-sign</title>
    <desc>Created with Sketch.</desc>
    <defs>
        <path d="M17.78125,15.75 L16.0041016,15.75 C15.7452344,15.75 15.5353516,15.9598828 15.5353516,16.21875 L15.5353516,18.205 L10.75,18.205 L10.75,13.25 L14.03125,13.25 C14.2901172,13.25 14.5,13.0401172 14.5,12.78125 L14.5,11.21875 C14.5,10.9598828 14.2901172,10.75 14.03125,10.75 L10.75,10.75 L10.75,8.26734373 C10.75,7.0069531 11.7094531,6.03742185 13.16375,6.03742185 C14.0878906,6.03742185 14.9558594,6.48683591 15.4157813,6.77371091 C15.6169922,6.89921872 15.8801563,6.8538281 16.0285938,6.6688281 L17.1416016,5.28160153 C17.3069532,5.07550778 17.2696875,4.77359371 17.0588282,4.61437496 C16.4189063,4.13124996 14.99125,3.24999996 13.0910547,3.24999996 C9.89164061,3.24999996 7.62499998,5.31023434 7.62499998,8.17035154 L7.62499998,10.75 L6.53124997,10.75 C6.27238278,10.75 6.06249997,10.9598828 6.06249997,11.21875 L6.06249997,12.78125 C6.06249997,13.0401172 6.27238278,13.25 6.53124997,13.25 L7.62499998,13.25 L7.62499998,18.25 L6.21874997,18.25 C5.95988278,18.25 5.74999997,18.4598828 5.74999997,18.71875 L5.74999997,20.28125 C5.74999997,20.5401172 5.95988278,20.75 6.21874997,20.75 L17.78125,20.75 C18.0401172,20.75 18.25,20.5401172 18.25,20.28125 L18.25,16.21875 C18.25,15.9598828 18.0401172,15.75 17.78125,15.75 Z" id="path-1"></path>
    </defs>
    <g id="pound-sign" stroke="none" stroke-width="1" fill="none" fill-rule="evenodd">
        <mask id="mask-2" fill="white">
            <use xlink:href="#path-1"></use>
        </mask>
        <g></g>
        <g id="🎨-color" mask="url(#mask-2)" fill="#000000">
            <rect id="🎨-Color" x="0" y="0" width="24" height="24"></rect>
        </g>
    </g>
</svg>