<?xml version="1.0" encoding="UTF-8"?>
<svg width="24px" height="24px" viewBox="0 0 24 24" version="1.1" xmlns="http://www.w3.org/2000/svg" xmlns:xlink="http://www.w3.org/1999/xlink">
    <!-- Generator: Sketch 52.5 (67469) - http://www.bohemiancoding.com/sketch -->
    <title>power-off</title>
    <desc>Created with Sketch.</desc>
    <defs>
        <path d="M17.625,4.11328121 C20.0859375,5.87109372 21.6875,8.74609373 21.6875,12 C21.6875,17.34375 17.359375,21.6757813 12.0195313,21.6875 C6.68749997,21.6992188 2.32031245,17.3515625 2.31249995,12.015625 C2.3085937,8.76171873 3.91015621,5.87890622 6.36718747,4.11718746 C6.82421872,3.79296871 7.46093748,3.92968746 7.73437498,4.41796871 L8.35156248,5.51562497 C8.58203123,5.92578122 8.47265623,6.44531247 8.09374998,6.72656247 C6.47265622,7.92968748 5.43749997,9.83593749 5.43749997,11.9960937 C5.43359372,15.6015625 8.34765623,18.5625 12,18.5625 C15.578125,18.5625 18.5859375,15.6640625 18.5625,11.9570312 C18.5507813,9.93359374 17.5976563,7.98046873 15.9023438,6.72265622 C15.5234375,6.44140622 15.4179688,5.92187497 15.6484375,5.51562497 L16.265625,4.41796871 C16.5390625,3.93359371 17.171875,3.78906246 17.625,4.11328121 Z M13.5625,12.3125 L13.5625,2.93749995 C13.5625,2.4179687 13.1445313,1.99999995 12.625,1.99999995 L11.375,1.99999995 C10.8554687,1.99999995 10.4375,2.4179687 10.4375,2.93749995 L10.4375,12.3125 C10.4375,12.8320313 10.8554687,13.25 11.375,13.25 L12.625,13.25 C13.1445313,13.25 13.5625,12.8320313 13.5625,12.3125 Z" id="path-1"></path>
    </defs>
    <g id="power-off" stroke="none" stroke-width="1" fill="none" fill-rule="evenodd">
        <mask id="mask-2" fill="white">
            <use xlink:href="#path-1"></use>
        </mask>
        <g fill-rule="nonzero"></g>
        <g id="🎨-color" mask="url(#mask-2)" fill="#000000">
            <rect id="🎨-Color" x="0" y="0" width="24" height="24"></rect>
        </g>
    </g>
</svg>