<?xml version="1.0" encoding="UTF-8"?>
<svg width="24px" height="24px" viewBox="0 0 24 24" version="1.1" xmlns="http://www.w3.org/2000/svg" xmlns:xlink="http://www.w3.org/1999/xlink">
    <!-- Generator: Sketch 52.5 (67469) - http://www.bohemiancoding.com/sketch -->
    <title>pray</title>
    <desc>Created with Sketch.</desc>
    <defs>
        <path d="M14.5,6.99999997 C15.8808594,6.99999997 17,5.88085934 17,4.49999996 C17,3.11914058 15.8808594,1.99999995 14.5,1.99999995 C13.1191406,1.99999995 12,3.11914058 12,4.49999996 C12,5.88085934 13.1191406,6.99999997 14.5,6.99999997 Z M13.3035156,13.6308594 C13.8527344,14.2839844 14.8269531,14.3765625 15.4898438,13.8347656 L18.9273438,11.0214844 C19.5949219,10.4753906 19.6925782,9.49062499 19.146875,8.82304686 C18.6011719,8.15468748 17.6160157,8.05781248 16.9472656,8.60351561 L14.7035156,10.4394531 L13.1835938,8.63046873 C12.5804688,7.91210935 11.6515625,7.53984373 10.6835937,7.6410156 C9.73867186,7.7378906 8.91601561,8.27656248 8.48164061,9.08320311 L6.55312497,12.678125 C5.63906247,14.3828125 6.21367185,16.4425781 7.88867185,17.5121094 L9.63906249,18.875 L6.06249997,18.875 C5.19960934,18.875 4.49999996,19.5746094 4.49999996,20.4375 C4.49999996,21.3003907 5.19960934,22.0000001 6.06249997,22.0000001 L14.1875,22.0000001 C15.51875,22.0000001 16.2878906,20.3285157 15.2921875,19.3328125 L11.0007812,15.0414063 L12.3601563,12.5074219 L13.3035156,13.6308594 Z" id="path-1"></path>
    </defs>
    <g id="pray" stroke="none" stroke-width="1" fill="none" fill-rule="evenodd">
        <mask id="mask-2" fill="white">
            <use xlink:href="#path-1"></use>
        </mask>
        <g fill-rule="nonzero"></g>
        <g id="🎨-color" mask="url(#mask-2)" fill="#000000">
            <rect id="🎨-Color" x="0" y="0" width="24" height="24"></rect>
        </g>
    </g>
</svg>