<?xml version="1.0" encoding="UTF-8"?>
<svg width="24px" height="24px" viewBox="0 0 24 24" version="1.1" xmlns="http://www.w3.org/2000/svg" xmlns:xlink="http://www.w3.org/1999/xlink">
    <!-- Generator: Sketch 52.5 (67469) - http://www.bohemiancoding.com/sketch -->
    <title>praying-hands</title>
    <desc>Created with Sketch.</desc>
    <defs>
        <path d="M10.5,10.0128125 C9.94999999,10.0128125 9.49999999,10.4628125 9.49999999,11.0128125 L9.49999999,13.5128125 C9.49999999,13.7890625 9.27624999,14.0128125 8.99999998,14.0128125 C8.72374998,14.0128125 8.49999998,13.7890625 8.49999998,13.5128125 L8.49999998,11.120625 C8.49999998,10.5771875 8.64749998,10.0434375 8.92781248,9.57718749 L11.3575,5.52749997 C11.6415625,5.05374997 11.4884375,4.43968746 11.0146875,4.15531246 C10.563125,3.88437496 9.99218749,4.02093746 9.69281249,4.44312496 C9.68656249,4.45031246 9.67343749,4.44968746 9.66812499,4.45812496 L6.00374997,9.95499999 C5.67374997,10.45 5.49999997,11.0253125 5.49999997,11.6184375 L5.49999997,14.125625 L2.68374995,15.064375 C2.27534544,15.2002546 1.99985031,15.582397 1.99999995,16.0128125 L1.99999995,19.0128125 C1.99999995,19.3509375 2.26624995,20.0128125 2.99999995,20.0128125 C3.08406246,20.0128125 3.16906246,20.0021875 3.25187496,19.980625 L8.85156248,18.52375 C10.41125,18.0778125 11.5,16.634375 11.5,15.0128125 L11.5,11.0128125 C11.5,10.4628125 11.05,10.0128125 10.5,10.0128125 Z M21.31625,15.066875 L18.5,14.128125 L18.5,11.6209375 C18.5,11.0278125 18.32625,10.4525 17.99625,9.95749999 L14.331875,4.46093746 C14.32625,4.45249996 14.3134375,4.45343746 14.3071875,4.44593746 C14.0078125,4.02374996 13.436875,3.88718746 12.9853125,4.15812496 C12.5115625,4.44218746 12.3584375,5.05656247 12.6425,5.53031247 L15.0721875,9.57999999 C15.3525,10.04625 15.5,10.58 15.5,11.1234375 L15.5,13.515625 C15.5,13.791875 15.27625,14.015625 15,14.015625 C14.72375,14.015625 14.5,13.791875 14.5,13.515625 L14.5,11.015625 C14.5,10.465625 14.05,10.015625 13.5,10.015625 C12.95,10.015625 12.5,10.465625 12.5,11.015625 L12.5,15.015625 C12.5,16.6371875 13.58875,18.080625 15.1484375,18.52625 L20.748125,19.983125 C20.83125,20.0046875 20.91625,20.0153125 21,20.0153125 C21.73375,20.0153125 22.0000001,19.3534375 22.0000001,19.0153125 L22.0000001,16.0153125 C22.0000001,15.585 21.7246875,15.203125 21.31625,15.066875 Z" id="path-1"></path>
    </defs>
    <g id="praying-hands" stroke="none" stroke-width="1" fill="none" fill-rule="evenodd">
        <mask id="mask-2" fill="white">
            <use xlink:href="#path-1"></use>
        </mask>
        <g fill-rule="nonzero"></g>
        <g id="🎨-color" mask="url(#mask-2)" fill="#000000">
            <rect id="🎨-Color" x="0" y="0" width="24" height="24"></rect>
        </g>
    </g>
</svg>