<?xml version="1.0" encoding="UTF-8"?>
<svg width="24px" height="24px" viewBox="0 0 24 24" version="1.1" xmlns="http://www.w3.org/2000/svg" xmlns:xlink="http://www.w3.org/1999/xlink">
    <!-- Generator: Sketch 52.5 (67469) - http://www.bohemiancoding.com/sketch -->
    <title>prescription-bottle</title>
    <desc>Created with Sketch.</desc>
    <defs>
        <path d="M5.74999997,9.49999999 L10.4375,9.49999999 C10.609375,9.49999999 10.75,9.64062499 10.75,9.81249999 L10.75,10.4375 C10.75,10.609375 10.609375,10.75 10.4375,10.75 L5.74999997,10.75 L5.74999997,13.25 L10.4375,13.25 C10.609375,13.25 10.75,13.390625 10.75,13.5625 L10.75,14.1875 C10.75,14.359375 10.609375,14.5 10.4375,14.5 L5.74999997,14.5 L5.74999997,17 L10.4375,17 C10.609375,17 10.75,17.140625 10.75,17.3125 L10.75,17.9375 C10.75,18.109375 10.609375,18.25 10.4375,18.25 L5.74999997,18.25 L5.74999997,20.75 C5.74999997,21.4375 6.31249997,22.0000001 6.99999997,22.0000001 L17,22.0000001 C17.6875,22.0000001 18.25,21.4375 18.25,20.75 L18.25,6.99999997 L5.74999997,6.99999997 L5.74999997,9.49999999 Z M18.5625,1.99999995 L5.43749997,1.99999995 C4.92187496,1.99999995 4.49999996,2.42187495 4.49999996,2.93749995 L4.49999996,4.81249996 C4.49999996,5.32812497 4.92187496,5.74999997 5.43749997,5.74999997 L18.5625,5.74999997 C19.078125,5.74999997 19.5,5.32812497 19.5,4.81249996 L19.5,2.93749995 C19.5,2.42187495 19.078125,1.99999995 18.5625,1.99999995 Z" id="path-1"></path>
    </defs>
    <g id="prescription-bottle" stroke="none" stroke-width="1" fill="none" fill-rule="evenodd">
        <mask id="mask-2" fill="white">
            <use xlink:href="#path-1"></use>
        </mask>
        <g fill-rule="nonzero"></g>
        <g id="🎨-color" mask="url(#mask-2)" fill="#000000">
            <rect id="🎨-Color" x="0" y="0" width="24" height="24"></rect>
        </g>
    </g>
</svg>