<?xml version="1.0" encoding="UTF-8"?>
<svg width="24px" height="24px" viewBox="0 0 24 24" version="1.1" xmlns="http://www.w3.org/2000/svg" xmlns:xlink="http://www.w3.org/1999/xlink">
    <!-- Generator: Sketch 52.5 (67469) - http://www.bohemiancoding.com/sketch -->
    <title>prescription</title>
    <desc>Created with Sketch.</desc>
    <defs>
        <path d="M16.2484375,15.75 L19.2976563,12.7007813 C19.5417969,12.4566406 19.5417969,12.0609375 19.2976563,11.8167969 L18.4136719,10.9328125 C18.1695313,10.6886719 17.7738282,10.6886719 17.5296875,10.9328125 L14.4804688,13.9820313 L11.2007812,10.7023437 C13.0472656,10.46875 14.4804688,8.90976561 14.4804688,6.99999997 C14.4804688,4.92890621 12.8015625,3.24999996 10.7304687,3.24999996 L5.10546872,3.24999996 C4.76015621,3.24999996 4.48046871,3.52968746 4.48046871,3.87499996 L4.48046871,13.875 C4.48046871,14.2203125 4.76015621,14.5 5.10546872,14.5 L6.35546872,14.5 C6.70078122,14.5 6.98046872,14.2203125 6.98046872,13.875 L6.98046872,10.75 L7.7128906,10.75 L12.7128906,15.75 L9.66367186,18.7992188 C9.41953124,19.0433594 9.41953124,19.4390625 9.66367186,19.6832032 L10.5476562,20.5671875 C10.7917969,20.8113282 11.1875,20.8113282 11.4316406,20.5671875 L14.4804688,17.5175782 L17.5296875,20.5667969 C17.7738282,20.8109375 18.1695313,20.8109375 18.4136719,20.5667969 L19.2976563,19.6828125 C19.5417969,19.4386719 19.5417969,19.0429688 19.2976563,18.7988282 L16.2484375,15.75 Z M6.98046872,5.74999997 L10.7304687,5.74999997 C11.4195312,5.74999997 11.9804687,6.31093747 11.9804687,6.99999997 C11.9804687,7.68906248 11.4195312,8.24999998 10.7304687,8.24999998 L6.98046872,8.24999998 L6.98046872,5.74999997 Z" id="path-1"></path>
    </defs>
    <g id="prescription" stroke="none" stroke-width="1" fill="none" fill-rule="evenodd">
        <mask id="mask-2" fill="white">
            <use xlink:href="#path-1"></use>
        </mask>
        <g fill-rule="nonzero"></g>
        <g id="🎨-color" mask="url(#mask-2)" fill="#000000">
            <rect id="🎨-Color" x="0" y="0" width="24" height="24"></rect>
        </g>
    </g>
</svg>