<?xml version="1.0" encoding="UTF-8"?>
<svg width="24px" height="24px" viewBox="0 0 24 24" version="1.1" xmlns="http://www.w3.org/2000/svg" xmlns:xlink="http://www.w3.org/1999/xlink">
    <!-- Generator: Sketch 52.5 (67469) - http://www.bohemiancoding.com/sketch -->
    <title>prescription-bottle-alt</title>
    <desc>Created with Sketch.</desc>
    <defs>
        <path d="M18.5625,1.99999995 L5.43749997,1.99999995 C4.92187496,1.99999995 4.49999996,2.42187495 4.49999996,2.93749995 L4.49999996,4.81249996 C4.49999996,5.32812497 4.92187496,5.74999997 5.43749997,5.74999997 L18.5625,5.74999997 C19.078125,5.74999997 19.5,5.32812497 19.5,4.81249996 L19.5,2.93749995 C19.5,2.42187495 19.078125,1.99999995 18.5625,1.99999995 Z M5.74999997,20.75 C5.74999997,21.4375 6.31249997,22.0000001 6.99999997,22.0000001 L17,22.0000001 C17.6875,22.0000001 18.25,21.4375 18.25,20.75 L18.25,6.99999997 L5.74999997,6.99999997 L5.74999997,20.75 Z M8.24999998,13.5625 C8.24999998,13.390625 8.39062498,13.25 8.56249998,13.25 L10.75,13.25 L10.75,11.0625 C10.75,10.890625 10.890625,10.75 11.0625,10.75 L12.9375,10.75 C13.109375,10.75 13.25,10.890625 13.25,11.0625 L13.25,13.25 L15.4375,13.25 C15.609375,13.25 15.75,13.390625 15.75,13.5625 L15.75,15.4375 C15.75,15.609375 15.609375,15.75 15.4375,15.75 L13.25,15.75 L13.25,17.9375 C13.25,18.109375 13.109375,18.25 12.9375,18.25 L11.0625,18.25 C10.890625,18.25 10.75,18.109375 10.75,17.9375 L10.75,15.75 L8.56249998,15.75 C8.39062498,15.75 8.24999998,15.609375 8.24999998,15.4375 L8.24999998,13.5625 Z" id="path-1"></path>
    </defs>
    <g id="prescription-bottle-alt" stroke="none" stroke-width="1" fill="none" fill-rule="evenodd">
        <mask id="mask-2" fill="white">
            <use xlink:href="#path-1"></use>
        </mask>
        <g fill-rule="nonzero"></g>
        <g id="🎨-color" mask="url(#mask-2)" fill="#000000">
            <rect id="🎨-Color" x="0" y="0" width="24" height="24"></rect>
        </g>
    </g>
</svg>