<?xml version="1.0" encoding="UTF-8"?>
<svg width="24px" height="24px" viewBox="0 0 24 24" version="1.1" xmlns="http://www.w3.org/2000/svg" xmlns:xlink="http://www.w3.org/1999/xlink">
    <!-- Generator: Sketch 52.5 (67469) - http://www.bohemiancoding.com/sketch -->
    <title>print</title>
    <desc>Created with Sketch.</desc>
    <defs>
        <path d="M19.5,9.49999999 L19.5,5.01757809 C19.5,4.68593746 19.3683594,4.36835934 19.1339844,4.13359371 L17.3660157,2.36601558 C17.1316407,2.13164058 16.8136719,1.99999995 16.4820313,1.99999995 L5.74999997,1.99999995 C5.05976559,1.99999995 4.49999996,2.55976558 4.49999996,3.24999996 L4.49999996,9.49999999 C3.11914058,9.49999999 1.99999995,10.6191406 1.99999995,12 L1.99999995,16.375 C1.99999995,16.7203125 2.27968745,17 2.62499995,17 L4.49999996,17 L4.49999996,20.75 C4.49999996,21.4402344 5.05976559,22.0000001 5.74999997,22.0000001 L18.25,22.0000001 C18.9402344,22.0000001 19.5,21.4402344 19.5,20.75 L19.5,17 L21.375,17 C21.7203125,17 22.0000001,16.7203125 22.0000001,16.375 L22.0000001,12 C22.0000001,10.6191406 20.8808594,9.49999999 19.5,9.49999999 Z M17,19.5 L6.99999997,19.5 L6.99999997,15.75 L17,15.75 L17,19.5 Z M17,10.75 L6.99999997,10.75 L6.99999997,4.49999996 L14.5,4.49999996 L14.5,6.37499997 C14.5,6.72031247 14.7796875,6.99999997 15.125,6.99999997 L17,6.99999997 L17,10.75 Z M18.875,13.5625 C18.3574219,13.5625 17.9375,13.1425781 17.9375,12.625 C17.9375,12.1070313 18.3574219,11.6875 18.875,11.6875 C19.3925782,11.6875 19.8125,12.1070313 19.8125,12.625 C19.8125,13.1425781 19.3925782,13.5625 18.875,13.5625 Z" id="path-1"></path>
    </defs>
    <g id="print" stroke="none" stroke-width="1" fill="none" fill-rule="evenodd">
        <mask id="mask-2" fill="white">
            <use xlink:href="#path-1"></use>
        </mask>
        <g fill-rule="nonzero"></g>
        <g id="🎨-color" mask="url(#mask-2)" fill="#000000">
            <rect id="🎨-Color" x="0" y="0" width="24" height="24"></rect>
        </g>
    </g>
</svg>