<?xml version="1.0" encoding="UTF-8"?>
<svg width="24px" height="24px" viewBox="0 0 24 24" version="1.1" xmlns="http://www.w3.org/2000/svg" xmlns:xlink="http://www.w3.org/1999/xlink">
    <!-- Generator: Sketch 52.5 (67469) - http://www.bohemiancoding.com/sketch -->
    <title>procedures</title>
    <desc>Created with Sketch.</desc>
    <defs>
        <path d="M18.5,11.015625 L10.5,11.015625 C10.225,11.015625 9.99999999,11.240625 9.99999999,11.515625 L9.99999999,16.015625 L3.99999996,16.015625 L3.99999996,8.51562498 C3.99999996,8.24062498 3.77499996,8.01562498 3.49999996,8.01562498 L2.49999995,8.01562498 C2.22499995,8.01562498 1.99999995,8.24062498 1.99999995,8.51562498 L1.99999995,19.515625 C1.99999995,19.790625 2.22499995,20.015625 2.49999995,20.015625 L3.49999996,20.015625 C3.77499996,20.015625 3.99999996,19.790625 3.99999996,19.515625 L3.99999996,18.015625 L20,18.015625 L20,19.515625 C20,19.790625 20.225,20.015625 20.5,20.015625 L21.5,20.015625 C21.775,20.015625 22.0000001,19.790625 22.0000001,19.515625 L22.0000001,14.515625 C22.0000001,12.58125 20.434375,11.015625 18.5,11.015625 Z M6.24999997,7.01562498 L10.190625,7.01562498 L11.053125,8.74062498 C11.2375,9.10937499 11.7625,9.10937499 11.946875,8.74062498 L13.5,5.63437497 L14.190625,7.01562498 L18,7.01562498 C18.275,7.01562498 18.5,6.79062497 18.5,6.51562497 C18.5,6.24062497 18.275,6.01562497 18,6.01562497 L14.809375,6.01562497 L13.946875,4.29062496 C13.7625,3.92187496 13.2375,3.92187496 13.053125,4.29062496 L11.5,7.39687498 L10.878125,6.15312497 C10.834375,6.06874997 10.75,6.01562497 10.653125,6.01562497 L6.24999997,6.01562497 C6.11249997,6.01562497 5.99999997,6.12812497 5.99999997,6.26562497 L5.99999997,6.76562497 C5.99999997,6.90312497 6.11249997,7.01562498 6.24999997,7.01562498 Z M6.99999997,15.015625 C8.10312498,15.015625 8.99999998,14.11875 8.99999998,13.015625 C8.99999998,11.9125 8.10312498,11.015625 6.99999997,11.015625 C5.89687497,11.015625 4.99999996,11.9125 4.99999996,13.015625 C4.99999996,14.11875 5.89687497,15.015625 6.99999997,15.015625 Z" id="path-1"></path>
    </defs>
    <g id="procedures" stroke="none" stroke-width="1" fill="none" fill-rule="evenodd">
        <mask id="mask-2" fill="white">
            <use xlink:href="#path-1"></use>
        </mask>
        <g fill-rule="nonzero"></g>
        <g id="🎨-color" mask="url(#mask-2)" fill="#000000">
            <rect id="🎨-Color" x="0" y="0" width="24" height="24"></rect>
        </g>
    </g>
</svg>