<?xml version="1.0" encoding="UTF-8"?>
<svg width="24px" height="24px" viewBox="0 0 24 24" version="1.1" xmlns="http://www.w3.org/2000/svg" xmlns:xlink="http://www.w3.org/1999/xlink">
    <!-- Generator: Sketch 52.5 (67469) - http://www.bohemiancoding.com/sketch -->
    <title>project-diagram</title>
    <desc>Created with Sketch.</desc>
    <defs>
        <path d="M14,14 L9.99999999,14 C9.44781249,14 8.99999998,14.4478125 8.99999998,15 L8.99999998,19 C8.99999998,19.5521875 9.44781249,20 9.99999999,20 L14,20 C14.5521875,20 15,19.5521875 15,19 L15,15 C15,14.4478125 14.5521875,14 14,14 Z M7.99999998,4.99999996 C7.99999998,4.44781246 7.55218748,3.99999996 6.99999997,3.99999996 L2.99999995,3.99999996 C2.44781245,3.99999996 1.99999995,4.44781246 1.99999995,4.99999996 L1.99999995,8.99999999 C1.99999995,9.55218749 2.44781245,9.99999999 2.99999995,9.99999999 L5.99124997,9.99999999 L8.27749998,14.00125 C8.62437498,13.405625 9.26249999,13 9.99999999,13 L10.00875,13 L7.99999998,9.48468749 L7.99999998,7.99999998 L15,7.99999998 L15,5.99999997 L7.99999998,5.99999997 L7.99999998,4.99999996 Z M21,3.99999996 L17,3.99999996 C16.4478125,3.99999996 16,4.44781246 16,4.99999996 L16,8.99999999 C16,9.55218749 16.4478125,9.99999999 17,9.99999999 L21,9.99999999 C21.5521875,9.99999999 22.0000001,9.55218749 22.0000001,8.99999999 L22.0000001,4.99999996 C22.0000001,4.44781246 21.5521875,3.99999996 21,3.99999996 Z" id="path-1"></path>
    </defs>
    <g id="project-diagram" stroke="none" stroke-width="1" fill="none" fill-rule="evenodd">
        <mask id="mask-2" fill="white">
            <use xlink:href="#path-1"></use>
        </mask>
        <g fill-rule="nonzero"></g>
        <g id="🎨-color" mask="url(#mask-2)" fill="#000000">
            <rect id="🎨-Color" x="0" y="0" width="24" height="24"></rect>
        </g>
    </g>
</svg>