<?xml version="1.0" encoding="UTF-8"?>
<svg width="24px" height="24px" viewBox="0 0 24 24" version="1.1" xmlns="http://www.w3.org/2000/svg" xmlns:xlink="http://www.w3.org/1999/xlink">
    <!-- Generator: Sketch 52.5 (67469) - http://www.bohemiancoding.com/sketch -->
    <title>pushed</title>
    <desc>Created with Sketch.</desc>
    <defs>
        <path d="M19.4414063,6.37109372 L15.59375,6.01953122 L16.140625,4.71484371 C16.546875,3.79687496 15.71875,3.13671871 15.0195313,3.26953121 L4.42187496,5.00390622 C3.83203121,5.10937497 3.40624996,5.71874997 3.58593746,6.43359372 L7.69140623,20.0390625 C7.94531248,20.8710938 9.12499999,20.984375 9.55468749,20.3125 L10.9335937,17.15625 L20.1210938,8.12109373 C20.7617188,7.46484373 20.2890625,6.44531247 19.4414063,6.37109372 Z M15.1679688,4.09374996 C15.3671875,4.06640621 15.4609375,4.19140621 15.3710938,4.38281246 L14.7148438,5.94140622 L7.78515623,5.30468747 L15.1679688,4.09374996 Z M4.42968746,6.21484372 C4.30859371,6.01562497 4.46874996,5.82421872 4.66796871,5.85937497 L14.3828125,6.74609372 L10.5976562,15.7578125 L4.42968746,6.21484372 Z M8.85546873,19.828125 C8.75390623,19.984375 8.54687498,19.9492188 8.48828123,19.78125 L5.24218747,9.01953124 L10.2304687,16.7382813 C9.95703124,17.3242188 8.85546873,19.828125 8.85546873,19.828125 Z M19.5117188,7.54296873 L11.75,15.1757813 L15.2539063,6.82812497 L19.4101563,7.20703123 C19.5664063,7.24999998 19.6328125,7.41406248 19.5117188,7.54296873 Z" id="path-1"></path>
    </defs>
    <g id="pushed" stroke="none" stroke-width="1" fill="none" fill-rule="evenodd">
        <mask id="mask-2" fill="white">
            <use xlink:href="#path-1"></use>
        </mask>
        <g fill-rule="nonzero"></g>
        <g id="🎨-color" mask="url(#mask-2)" fill="#000000">
            <rect id="🎨-Color" x="0" y="0" width="24" height="24"></rect>
        </g>
    </g>
</svg>