<?xml version="1.0" encoding="UTF-8"?>
<svg width="24px" height="24px" viewBox="0 0 24 24" version="1.1" xmlns="http://www.w3.org/2000/svg" xmlns:xlink="http://www.w3.org/1999/xlink">
    <!-- Generator: Sketch 52.5 (67469) - http://www.bohemiancoding.com/sketch -->
    <title>puzzle-piece</title>
    <desc>Created with Sketch.</desc>
    <defs>
        <path d="M20.0361806,13.1337153 C18.5945486,13.1337153 17.9702084,14.2306945 17.1869445,14.2306945 C15.1044792,14.2306945 17,8.11111109 17,8.11111109 C17,8.11111109 10.1844444,10.8888889 10.1844444,7.99663192 C10.1844444,6.75263886 11.4444444,6.39072914 11.4444444,5.01104163 C11.4444444,3.77833329 10.4682292,3.11111107 9.31038193,3.11111107 C8.10711804,3.11111107 7.00600692,3.76704857 7.00600692,5.06756941 C7.00600692,6.50381942 8.10708331,7.12579859 8.10708331,7.90611109 C8.10711804,10.3235764 1.99999995,8.90131943 1.99999995,8.90131943 L1.99999995,20.4720487 C1.99999995,20.4720487 8.20260415,21.8972917 8.20260415,19.4768403 C8.20260415,18.6965278 6.81371525,18.0842361 6.81371525,16.6479861 C6.81371525,15.3474306 7.82934026,14.6915278 9.02124999,14.6915278 C10.1904514,14.6915278 11.1666667,15.35875 11.1666667,16.5914236 C11.1666667,17.9711111 9.90666666,18.3330209 9.90666666,19.5770139 C9.90666666,21.6882292 14.4092708,20.4704167 16.199375,20.4704167 C16.199375,20.4704167 14.9936458,16.3002431 17.0961459,16.3002431 C18.3448264,16.3002431 18.7080556,17.5555209 20.0929514,17.5555209 C21.3302778,17.5555556 22.0000001,16.5829861 22.0000001,15.4181597 C22.0000001,14.2306945 21.3415973,13.1337153 20.0361806,13.1337153 Z" id="path-1"></path>
    </defs>
    <g id="puzzle-piece" stroke="none" stroke-width="1" fill="none" fill-rule="evenodd">
        <mask id="mask-2" fill="white">
            <use xlink:href="#path-1"></use>
        </mask>
        <g></g>
        <g id="🎨-color" mask="url(#mask-2)" fill="#000000">
            <rect id="🎨-Color" x="0" y="0" width="24" height="24"></rect>
        </g>
    </g>
</svg>