<?xml version="1.0" encoding="UTF-8"?>
<svg width="24px" height="24px" viewBox="0 0 24 24" version="1.1" xmlns="http://www.w3.org/2000/svg" xmlns:xlink="http://www.w3.org/1999/xlink">
    <!-- Generator: Sketch 52.5 (67469) - http://www.bohemiancoding.com/sketch -->
    <title>python</title>
    <desc>Created with Sketch.</desc>
    <defs>
        <path d="M9.80468749,3.42187496 C8.03906248,3.73437496 7.71874998,4.38671871 7.71874998,5.59374997 L7.71874998,7.18359373 L11.8945312,7.18359373 L11.8945312,7.71484373 L6.15234372,7.71484373 C4.93749996,7.71484373 3.87499996,8.44531248 3.54296871,9.83203124 C3.16015621,11.421875 3.14453121,12.4140625 3.54296871,14.0742188 C3.83984371,15.3085938 4.54687496,16.1914063 5.76171872,16.1914063 L7.19531248,16.1914063 L7.19531248,14.2851563 C7.19531248,12.90625 8.38671873,11.6914062 9.80468749,11.6914062 L13.9765625,11.6914062 C15.1367188,11.6914062 16.0625,10.734375 16.0625,9.57031249 L16.0625,5.58984372 C16.0625,4.45703121 15.109375,3.60937496 13.9765625,3.41796871 C12.578125,3.18749996 11.0585937,3.19921871 9.80468749,3.42187496 Z M9.54296874,4.53124996 C9.97265624,4.53124996 10.328125,4.89062496 10.328125,5.32812497 C10.328125,5.76562497 9.97656249,6.12109372 9.54296874,6.12109372 C9.10937499,6.12109372 8.75781248,5.76562497 8.75781248,5.32812497 C8.76171873,4.88671871 9.10937499,4.53124996 9.54296874,4.53124996 Z M16.7773438,7.71093748 L16.7773438,9.56640624 C16.7773438,11.0039062 15.5585938,12.2148438 14.1679688,12.2148438 L9.99609374,12.2148438 C8.85546873,12.2148438 7.91015623,13.1914063 7.91015623,14.3359375 L7.91015623,18.3125 C7.91015623,19.4453125 8.89453123,20.109375 9.99609374,20.4335938 C11.3164062,20.8203125 12.5859375,20.890625 14.1679688,20.4335938 C15.21875,20.1289063 16.2539063,19.515625 16.2539063,18.3125 L16.2539063,16.7226563 L12.0859375,16.7226563 L12.0859375,16.1914063 L18.34375,16.1914063 C19.5585938,16.1914063 20.0078125,15.34375 20.4296875,14.0742188 C20.8671875,12.765625 20.8476563,11.5078125 20.4296875,9.83203124 C20.1289063,8.62499998 19.5585938,7.71484373 18.34375,7.71484373 L16.7773438,7.71484373 L16.7773438,7.71093748 Z M14.4296875,17.78125 C14.8632813,17.78125 15.2148438,18.1367188 15.2148438,18.5742188 C15.2148438,19.015625 14.8632813,19.3710938 14.4296875,19.3710938 C14,19.3710938 13.6445313,19.0117188 13.6445313,18.5742188 C13.6484375,18.1328125 14,17.78125 14.4296875,17.78125 Z" id="path-1"></path>
    </defs>
    <g id="python" stroke="none" stroke-width="1" fill="none" fill-rule="evenodd">
        <mask id="mask-2" fill="white">
            <use xlink:href="#path-1"></use>
        </mask>
        <g fill-rule="nonzero"></g>
        <g id="🎨-color" mask="url(#mask-2)" fill="#000000">
            <rect id="🎨-Color" x="0" y="0" width="24" height="24"></rect>
        </g>
    </g>
</svg>