<?xml version="1.0" encoding="UTF-8"?>
<svg width="24px" height="24px" viewBox="0 0 24 24" version="1.1" xmlns="http://www.w3.org/2000/svg" xmlns:xlink="http://www.w3.org/1999/xlink">
    <!-- Generator: Sketch 52.5 (67469) - http://www.bohemiancoding.com/sketch -->
    <title>qq</title>
    <desc>Created with Sketch.</desc>
    <defs>
        <path d="M20.1775439,18.391618 C19.7281872,18.445926 18.428616,16.3354386 18.428616,16.3354386 C18.428616,17.5574659 17.7995322,19.1520858 16.4383236,20.3037037 C17.0949318,20.5061209 18.5764523,21.0509552 18.2240156,21.6456531 C17.9387915,22.1268616 13.3308382,21.9529045 12.0005458,21.803041 C10.6702534,21.9529045 6.06230017,22.1268616 5.77707599,21.6456531 C5.42444441,21.0511112 6.90448341,20.5067057 7.56198828,20.3039377 C6.20058477,19.1523197 5.57138398,17.5575439 5.57138398,16.3354386 C5.57138398,16.3354386 4.27181283,18.445926 3.82249509,18.391618 C3.61313836,18.3662768 3.33812861,17.2359065 4.18690055,14.5045224 C4.58693953,13.217037 5.04440542,12.1467057 5.75196878,10.3805848 C5.63286547,5.82311888 7.51586742,2.00023387 12,1.99999995 C16.4341911,2.00023387 18.3608577,5.74787521 18.2481092,10.3806238 C18.954464,12.1437037 19.414269,13.2207797 19.8131774,14.5045224 C20.6618324,17.2359065 20.3869006,18.3662378 20.1775439,18.391618 Z" id="path-1"></path>
    </defs>
    <g id="qq" stroke="none" stroke-width="1" fill="none" fill-rule="evenodd">
        <mask id="mask-2" fill="white">
            <use xlink:href="#path-1"></use>
        </mask>
        <g></g>
        <g id="🎨-color" mask="url(#mask-2)" fill="#000000">
            <rect id="🎨-Color" x="0" y="0" width="24" height="24"></rect>
        </g>
    </g>
</svg>