<?xml version="1.0" encoding="UTF-8"?>
<svg width="24px" height="24px" viewBox="0 0 24 24" version="1.1" xmlns="http://www.w3.org/2000/svg" xmlns:xlink="http://www.w3.org/1999/xlink">
    <!-- Generator: Sketch 52.5 (67469) - http://www.bohemiancoding.com/sketch -->
    <title>question</title>
    <desc>Created with Sketch.</desc>
    <defs>
        <path d="M12.3914453,1.99999995 C9.27351561,1.99999995 7.25402341,3.27746089 5.66851559,5.55570309 C5.3808984,5.96898434 5.46957028,6.53562497 5.87078122,6.83984372 L7.55585935,8.11753904 C7.96105467,8.42476561 8.53757811,8.35292967 8.85480467,7.95550779 C9.83328124,6.72968747 10.5591016,6.02390622 12.0875,6.02390622 C13.2892188,6.02390622 14.775625,6.79730466 14.775625,7.96261717 C14.775625,8.84355467 14.0483984,9.29597655 12.8618359,9.96121093 C11.478125,10.7369922 9.64703124,11.7024609 9.64703124,14.1176563 L9.64703124,14.5 C9.64703124,15.0177735 10.0667578,15.4375 10.5845312,15.4375 L13.4154297,15.4375 C13.9332031,15.4375 14.3529297,15.0177735 14.3529297,14.5 L14.3529297,14.2744922 C14.3529297,12.6002734 19.246211,12.5305469 19.246211,7.99999998 C19.24625,4.58812496 15.7071094,1.99999995 12.3914453,1.99999995 Z M12,16.5882422 C10.5079687,16.5882422 9.29410155,17.8021094 9.29410155,19.2941407 C9.29410155,20.7861329 10.5079687,22 12,22 C13.4920313,22 14.7058985,20.7861329 14.7058985,19.2941016 C14.7058985,17.8020703 13.4920313,16.5882422 12,16.5882422 Z" id="path-1"></path>
    </defs>
    <g id="question" stroke="none" stroke-width="1" fill="none" fill-rule="evenodd">
        <mask id="mask-2" fill="white">
            <use xlink:href="#path-1"></use>
        </mask>
        <g fill-rule="nonzero"></g>
        <g id="🎨-color" mask="url(#mask-2)" fill="#000000">
            <rect id="🎨-Color" x="0" y="0" width="24" height="24"></rect>
        </g>
    </g>
</svg>