<?xml version="1.0" encoding="UTF-8"?>
<svg width="24px" height="24px" viewBox="0 0 24 24" version="1.1" xmlns="http://www.w3.org/2000/svg" xmlns:xlink="http://www.w3.org/1999/xlink">
    <!-- Generator: Sketch 52.5 (67469) - http://www.bohemiancoding.com/sketch -->
    <title>quidditch</title>
    <desc>Created with Sketch.</desc>
    <defs>
        <path d="M10.015625,10.790625 L12.725,14.203125 C12.725,14.203125 12.20625,17.403125 10.33125,18.89375 C8.45937498,20.384375 1.99999995,19.959375 1.99999995,19.959375 C1.99999995,19.959375 2.11874995,19.2375 2.34374995,18.228125 L5.29999997,14.721875 C5.42499997,14.575 5.27187497,14.359375 5.09374997,14.425 L3.20624996,15.115625 C3.65624996,13.8125 4.22812496,12.615625 4.91249996,12.06875 C6.78437497,10.575 10.015625,10.790625 10.015625,10.790625 Z M17.453125,15.009375 C16.078125,15.009375 14.959375,16.128125 14.959375,17.50625 C14.959375,18.884375 16.075,20.003125 17.453125,20.003125 C18.83125,20.003125 19.946875,18.884375 19.946875,17.50625 C19.946875,16.125 18.828125,15.009375 17.453125,15.009375 Z M21.890625,4.98437496 L21.271875,4.20312496 C21.1,3.98749996 20.7875,3.95312496 20.571875,4.12187496 L13.30625,9.68124999 L12.240625,8.33749998 C12.08125,8.13749998 11.76875,8.17499998 11.659375,8.40624998 L10.86875,10.1125 L13.578125,13.525 L15.415625,13.1375 C15.665625,13.084375 15.771875,12.7875 15.6125,12.5875 L14.546875,11.246875 L21.8125,5.68749997 C22.0281251,5.51562497 22.0625001,5.19999997 21.890625,4.98437496 Z" id="path-1"></path>
    </defs>
    <g id="quidditch" stroke="none" stroke-width="1" fill="none" fill-rule="evenodd">
        <mask id="mask-2" fill="white">
            <use xlink:href="#path-1"></use>
        </mask>
        <g fill-rule="nonzero"></g>
        <g id="🎨-color" mask="url(#mask-2)" fill="#000000">
            <rect id="🎨-Color" x="0" y="0" width="24" height="24"></rect>
        </g>
    </g>
</svg>