<?xml version="1.0" encoding="UTF-8"?>
<svg width="24px" height="24px" viewBox="0 0 24 24" version="1.1" xmlns="http://www.w3.org/2000/svg" xmlns:xlink="http://www.w3.org/1999/xlink">
    <!-- Generator: Sketch 52.5 (67469) - http://www.bohemiancoding.com/sketch -->
    <title>quinscape</title>
    <desc>Created with Sketch.</desc>
    <defs>
        <path d="M14.2226563,20.5390625 L14.171875,20.5390625 C10.7617187,20.5390625 7.99609373,17.7734375 7.99609373,14.3632813 C7.99609373,10.953125 10.7617187,8.18749998 14.171875,8.18749998 C17.8789063,8.18749998 20.7421875,11.4335937 20.3046875,15.0859375 C20.4609375,15.2851563 20.625,15.4609375 20.7421875,15.6835938 C21.265625,14.5 21.5351563,13.2460938 21.5351563,11.8671875 C21.5351563,6.58984372 17.2578125,2.31249995 11.9804687,2.31249995 C6.70703122,2.31249995 2.42968745,6.58984372 2.42968745,11.8671875 C2.42968745,17.1445313 6.70703122,21.421875 11.9804687,21.421875 C12.9492188,21.421875 13.8476563,21.296875 14.7304688,21.0273438 C14.5273438,20.890625 14.3789063,20.7070313 14.2070313,20.5351563 L14.2226563,20.5390625 Z M13.3945313,17.8125 C13.3945313,15.671875 15.1289063,13.9375 17.2695313,13.9375 C19.4101563,13.9375 21.1445313,15.671875 21.1445313,17.8125 C21.1445313,19.953125 19.4101563,21.6875 17.2695313,21.6875 C15.1289063,21.6875 13.3945313,19.953125 13.3945313,17.8125 Z" id="path-1"></path>
    </defs>
    <g id="quinscape" stroke="none" stroke-width="1" fill="none" fill-rule="evenodd">
        <mask id="mask-2" fill="white">
            <use xlink:href="#path-1"></use>
        </mask>
        <g fill-rule="nonzero"></g>
        <g id="🎨-color" mask="url(#mask-2)" fill="#000000">
            <rect id="🎨-Color" x="0" y="0" width="24" height="24"></rect>
        </g>
    </g>
</svg>