<?xml version="1.0" encoding="UTF-8"?>
<svg width="24px" height="24px" viewBox="0 0 24 24" version="1.1" xmlns="http://www.w3.org/2000/svg" xmlns:xlink="http://www.w3.org/1999/xlink">
    <!-- Generator: Sketch 52.5 (67469) - http://www.bohemiancoding.com/sketch -->
    <title>quora</title>
    <desc>Created with Sketch.</desc>
    <defs>
        <path d="M20.4570313,17.1054688 L19.3125,17.1054688 C19.2539063,17.6328125 18.9023438,18.3085938 18.0234375,18.3085938 C17.2226563,18.3085938 16.6445313,17.7539063 16.0898438,16.9101563 C17.8164063,15.5742188 19.0078125,13.4921875 19.0078125,10.9335937 C19.0117188,6.34374997 15.234375,3.24999996 11.2578125,3.24999996 C7.36328123,3.24999996 3.53515621,6.36328122 3.53515621,10.9335937 C3.53515621,16.171875 8.66406248,19.5898438 13.2617188,18.3164063 C14.03125,19.6289063 15.046875,20.75 16.9804688,20.75 C20.1757813,20.75 20.5273438,17.8085938 20.4570313,17.1054688 Z M14.8515625,14.859375 C14.0898438,13.71875 13.1445313,12.8203125 11.2773437,12.8203125 C10.0859375,12.8203125 9.15624999,13.2109375 8.58203123,13.7109375 L9.05859374,14.6601563 C9.30078124,14.5429688 9.56640624,14.5039063 9.83203124,14.5039063 C11.21875,14.5039063 11.9296875,15.7070313 12.5351563,16.8984375 C12.1445313,17.015625 11.7265625,17.0625 11.2578125,17.0625 C8.32812498,17.0625 7.05859373,14.9921875 7.05859373,10.9414062 C7.05859373,6.86328122 8.32812498,4.77343746 11.2578125,4.77343746 C14.234375,4.77343746 15.5039063,6.86328122 15.5039063,10.9335937 C15.5078125,12.5664063 15.2929688,13.8867188 14.8515625,14.859375 Z" id="path-1"></path>
    </defs>
    <g id="quora" stroke="none" stroke-width="1" fill="none" fill-rule="evenodd">
        <mask id="mask-2" fill="white">
            <use xlink:href="#path-1"></use>
        </mask>
        <g fill-rule="nonzero"></g>
        <g id="🎨-color" mask="url(#mask-2)" fill="#000000">
            <rect id="🎨-Color" x="0" y="0" width="24" height="24"></rect>
        </g>
    </g>
</svg>