<?xml version="1.0" encoding="UTF-8"?>
<svg width="24px" height="24px" viewBox="0 0 24 24" version="1.1" xmlns="http://www.w3.org/2000/svg" xmlns:xlink="http://www.w3.org/1999/xlink">
    <!-- Generator: Sketch 52.5 (67469) - http://www.bohemiancoding.com/sketch -->
    <title>quote-right</title>
    <desc>Created with Sketch.</desc>
    <defs>
        <path d="M20.125,3.24999996 L15.125,3.24999996 C14.0898438,3.24999996 13.25,4.08984371 13.25,5.12499997 L13.25,10.125 C13.25,11.1601562 14.0898438,12 15.125,12 L18.25,12 L18.25,14.5 C18.25,15.8789063 17.1289063,17 15.75,17 L15.4375,17 C14.9179688,17 14.5,17.4179688 14.5,17.9375 L14.5,19.8125 C14.5,20.3320313 14.9179688,20.75 15.4375,20.75 L15.75,20.75 C19.203125,20.75 22.0000001,17.953125 22.0000001,14.5 L22.0000001,5.12499997 C22.0000001,4.08984371 21.1601563,3.24999996 20.125,3.24999996 Z M8.87499998,3.24999996 L3.87499996,3.24999996 C2.8398437,3.24999996 1.99999995,4.08984371 1.99999995,5.12499997 L1.99999995,10.125 C1.99999995,11.1601562 2.8398437,12 3.87499996,12 L6.99999997,12 L6.99999997,14.5 C6.99999997,15.8789063 5.87890622,17 4.49999996,17 L4.18749996,17 C3.66796871,17 3.24999996,17.4179688 3.24999996,17.9375 L3.24999996,19.8125 C3.24999996,20.3320313 3.66796871,20.75 4.18749996,20.75 L4.49999996,20.75 C7.95312498,20.75 10.75,17.953125 10.75,14.5 L10.75,5.12499997 C10.75,4.08984371 9.91015624,3.24999996 8.87499998,3.24999996 Z" id="path-1"></path>
    </defs>
    <g id="quote-right" stroke="none" stroke-width="1" fill="none" fill-rule="evenodd">
        <mask id="mask-2" fill="white">
            <use xlink:href="#path-1"></use>
        </mask>
        <g fill-rule="nonzero"></g>
        <g id="🎨-color" mask="url(#mask-2)" fill="#000000">
            <rect id="🎨-Color" x="0" y="0" width="24" height="24"></rect>
        </g>
    </g>
</svg>