<?xml version="1.0" encoding="UTF-8"?>
<svg width="24px" height="24px" viewBox="0 0 24 24" version="1.1" xmlns="http://www.w3.org/2000/svg" xmlns:xlink="http://www.w3.org/1999/xlink">
    <!-- Generator: Sketch 52.5 (67469) - http://www.bohemiancoding.com/sketch -->
    <title>quote-left</title>
    <desc>Created with Sketch.</desc>
    <defs>
        <path d="M20.125,12 L17,12 L17,9.49999999 C17,8.12109373 18.1210938,6.99999997 19.5,6.99999997 L19.8125,6.99999997 C20.3320313,6.99999997 20.75,6.58203122 20.75,6.06249997 L20.75,4.18749996 C20.75,3.66796871 20.3320313,3.24999996 19.8125,3.24999996 L19.5,3.24999996 C16.046875,3.24999996 13.25,6.04687497 13.25,9.49999999 L13.25,18.875 C13.25,19.9101563 14.0898438,20.75 15.125,20.75 L20.125,20.75 C21.1601563,20.75 22.0000001,19.9101563 22.0000001,18.875 L22.0000001,13.875 C22.0000001,12.8398438 21.1601563,12 20.125,12 Z M8.87499998,12 L5.74999997,12 L5.74999997,9.49999999 C5.74999997,8.12109373 6.87109372,6.99999997 8.24999998,6.99999997 L8.56249998,6.99999997 C9.08203124,6.99999997 9.49999999,6.58203122 9.49999999,6.06249997 L9.49999999,4.18749996 C9.49999999,3.66796871 9.08203124,3.24999996 8.56249998,3.24999996 L8.24999998,3.24999996 C4.79687496,3.24999996 1.99999995,6.04687497 1.99999995,9.49999999 L1.99999995,18.875 C1.99999995,19.9101563 2.8398437,20.75 3.87499996,20.75 L8.87499998,20.75 C9.91015624,20.75 10.75,19.9101563 10.75,18.875 L10.75,13.875 C10.75,12.8398438 9.91015624,12 8.87499998,12 Z" id="path-1"></path>
    </defs>
    <g id="quote-left" stroke="none" stroke-width="1" fill="none" fill-rule="evenodd">
        <mask id="mask-2" fill="white">
            <use xlink:href="#path-1"></use>
        </mask>
        <g fill-rule="nonzero"></g>
        <g id="🎨-color" mask="url(#mask-2)" fill="#000000">
            <rect id="🎨-Color" x="0" y="0" width="24" height="24"></rect>
        </g>
    </g>
</svg>