<?xml version="1.0" encoding="UTF-8"?>
<svg width="24px" height="24px" viewBox="0 0 24 24" version="1.1" xmlns="http://www.w3.org/2000/svg" xmlns:xlink="http://www.w3.org/1999/xlink">
    <!-- Generator: Sketch 52.5 (67469) - http://www.bohemiancoding.com/sketch -->
    <title>quran</title>
    <desc>Created with Sketch.</desc>
    <defs>
        <path d="M20.75,16 L20.75,2.99999995 C20.75,2.37499995 20.375,1.99999995 19.75,1.99999995 L6.99999997,1.99999995 C4.87499996,1.99999995 3.24999996,3.62499996 3.24999996,5.74999997 L3.24999996,18.25 C3.24999996,20.375 4.87499996,22.0000001 6.99999997,22.0000001 L19.75,22.0000001 C20.25,22.0000001 20.75,21.625 20.75,21 L20.75,20.375 C20.75,20.125 20.625,19.875 20.375,19.625 C20.25,19 20.25,17.25 20.375,16.75 C20.625,16.625 20.75,16.375 20.75,16 Z M15.0109375,7.69609373 C15.034375,7.6488281 15.0796875,7.62499998 15.125,7.62499998 C15.1703125,7.62499998 15.215625,7.6488281 15.2390625,7.69609373 L15.6757813,8.58085936 L16.6523438,8.72265623 C16.7566406,8.73789061 16.7984375,8.86601561 16.7230469,8.93984373 L16.0164063,9.62851561 L16.1832031,10.6007812 C16.1972656,10.6832031 16.1320313,10.75 16.0578125,10.75 C16.0382813,10.75 16.0179688,10.7453125 15.9984375,10.7351562 L15.125,10.2761719 L14.2515625,10.7351562 C14.2320313,10.7453125 14.2117188,10.75 14.1921875,10.75 C14.1179688,10.75 14.0527344,10.6832031 14.0667969,10.6007812 L14.2335938,9.62851561 L13.5269531,8.93984373 C13.4511719,8.86601561 13.4929688,8.73789061 13.5976563,8.72265623 L14.5738281,8.58085936 L15.0109375,7.69609373 Z M12.7496094,5.00039059 C13.2835938,5.00039059 13.8144531,5.09765622 14.3269531,5.28984372 C14.4328637,5.28991874 14.5285301,5.35312936 14.5701371,5.45052497 C14.611744,5.54792058 14.5912778,5.66074251 14.5181121,5.73731808 C14.4449463,5.81389365 14.333173,5.83947417 14.2339844,5.80234372 C14.2078125,5.80234372 14.1132813,5.79414059 14.0726563,5.79414059 C12.0292969,5.79414059 10.3671875,7.45624998 10.3671875,9.49960936 C10.3671875,11.5425781 12.0292969,13.2050781 14.0726563,13.2050781 C14.1128906,13.2050781 14.2085938,13.196875 14.2339844,13.196875 C14.3875,13.196875 14.4996094,13.3195313 14.4996094,13.4617188 C14.4996094,13.578125 14.4238281,13.6769531 14.3191406,13.7125 C13.8085938,13.9027344 13.2804688,13.9992188 12.7492188,13.9992188 C10.2683594,13.9996094 8.24999998,11.9808594 8.24999998,9.49999999 C8.24999998,7.01874998 10.2683594,5.00039059 12.7496094,5.00039059 Z M18.125,19.5 L6.99999997,19.5 C6.24999997,19.5 5.74999997,19 5.74999997,18.25 C5.74999997,17.5 6.37499997,17 6.99999997,17 L18.125,17 L18.125,19.5 Z" id="path-1"></path>
    </defs>
    <g id="quran" stroke="none" stroke-width="1" fill="none" fill-rule="evenodd">
        <mask id="mask-2" fill="white">
            <use xlink:href="#path-1"></use>
        </mask>
        <g fill-rule="nonzero"></g>
        <g id="🎨-color" mask="url(#mask-2)" fill="#000000">
            <rect id="🎨-Color" x="0" y="0" width="24" height="24"></rect>
        </g>
    </g>
</svg>