<?xml version="1.0" encoding="UTF-8"?>
<svg width="24px" height="24px" viewBox="0 0 24 24" version="1.1" xmlns="http://www.w3.org/2000/svg" xmlns:xlink="http://www.w3.org/1999/xlink">
    <!-- Generator: Sketch 52.5 (67469) - http://www.bohemiancoding.com/sketch -->
    <title>r-project</title>
    <desc>Created with Sketch.</desc>
    <defs>
        <path d="M22.0000001,10.9879518 C22.0000001,7.28743543 17.5215147,4.28915659 12,4.28915659 C6.47848534,4.28915659 1.99999995,7.28743543 1.99999995,10.9879518 C1.99999995,14.2857143 5.55593801,17.0258176 10.2409638,17.5800345 L10.2409638,19.7108434 L13.6523236,19.7108434 L13.6523236,17.5938038 C14.4888124,17.5008606 15.2908778,17.3390706 16.0413081,17.1153184 L17.4216868,19.7108434 L21.2771085,19.7108434 L18.9569708,15.7969019 C20.8330465,14.5783133 22.0000001,12.8743546 22.0000001,10.9879518 Z M5.93115315,11.4870912 C5.93115315,8.95697072 9.33562821,6.90877794 13.5318417,6.90877794 C17.7280551,6.90877794 20.8261618,8.30981065 20.8261618,11.4870912 C20.8261618,13.211704 19.9139415,14.4130809 18.4061962,15.1497418 C18.3235801,15.0946644 18.2444062,15.049914 18.1858864,15.0223752 C17.8347677,14.8433735 17.2289157,14.6609294 17.2289157,14.6609294 C17.2289157,14.6609294 20.2099828,14.4406196 20.2099828,11.4698795 C20.2099828,8.4991394 17.0912221,8.44406194 17.0912221,8.44406194 L10.2409638,8.44406194 L10.2409638,15.6144578 C7.69018931,14.8743546 5.93115315,13.3046472 5.93115315,11.4870912 Z M13.6798623,12.8055077 L13.6798623,10.8915663 C15.6695353,10.8915663 16.7022375,10.6574871 16.7022375,11.8313253 C16.7022375,13.0877797 15.3872634,12.8055077 13.6798623,12.8055077 Z M13.6488812,15.3012048 L14.5645439,15.3012048 C14.9363167,15.3012048 15.2151463,15.7039587 15.3907057,15.9621343 C14.8364888,16.0275387 14.2547332,16.0585198 13.6488812,16.0619622 L13.6488812,15.3012048 Z" id="path-1"></path>
    </defs>
    <g id="r-project" stroke="none" stroke-width="1" fill="none" fill-rule="evenodd">
        <mask id="mask-2" fill="white">
            <use xlink:href="#path-1"></use>
        </mask>
        <g fill-rule="nonzero"></g>
        <g id="🎨-color" mask="url(#mask-2)" fill="#000000">
            <rect id="🎨-Color" x="0" y="0" width="24" height="24"></rect>
        </g>
    </g>
</svg>