<?xml version="1.0" encoding="UTF-8"?>
<svg width="24px" height="24px" viewBox="0 0 24 24" version="1.1" xmlns="http://www.w3.org/2000/svg" xmlns:xlink="http://www.w3.org/1999/xlink">
    <!-- Generator: Sketch 52.5 (67469) - http://www.bohemiancoding.com/sketch -->
    <title>rainbow</title>
    <desc>Created with Sketch.</desc>
    <defs>
        <path d="M11.3159722,4.24652774 C6.00694441,4.60069441 1.99999995,9.25347221 1.99999995,14.5763889 L1.99999995,19.2222223 C1.99999995,19.5277778 2.24999995,19.7777778 2.55555551,19.7777778 L3.66666662,19.7777778 C3.97222218,19.7777778 4.22222218,19.5277778 4.22222218,19.2222223 L4.22222218,14.2222222 C4.22222218,9.59722221 8.28124998,5.89930553 13.0243056,6.51041664 C16.9444445,7.01388886 19.7777778,10.5416667 19.7777778,14.4930556 L19.7777778,19.2222223 C19.7777778,19.5277778 20.0277778,19.7777778 20.3333334,19.7777778 L21.4444445,19.7777778 C21.75,19.7777778 22.0000001,19.5277778 22.0000001,19.2222223 L22.0000001,14.2222222 C22.0000001,8.48263887 17.1388889,3.85416663 11.3159722,4.24652774 Z M11.1215278,7.61111109 C7.76388887,8.04166665 5.3333333,11.0659722 5.3333333,14.4548611 L5.3333333,19.2222223 C5.3333333,19.5277778 5.5833333,19.7777778 5.88888886,19.7777778 L6.99999997,19.7777778 C7.30555553,19.7777778 7.55555553,19.5277778 7.55555553,19.2222223 L7.55555553,14.2222222 C7.55555553,11.625 9.79513888,9.54166665 12.4444444,9.7986111 C14.7534722,10.0243055 16.4444445,12.0972222 16.4444445,14.4201389 L16.4444445,19.2222223 C16.4444445,19.5277778 16.6944445,19.7777778 17,19.7777778 L18.1111111,19.7777778 C18.4166667,19.7777778 18.6666667,19.5277778 18.6666667,19.2222223 L18.6666667,14.2222222 C18.6666667,10.2569444 15.1875,7.09027775 11.1215278,7.61111109 Z M11.3368056,10.9548611 C9.75347221,11.2638889 8.66666665,12.7430556 8.66666665,14.3541667 L8.66666665,19.2222223 C8.66666665,19.5277778 8.91666665,19.7777778 9.22222221,19.7777778 L10.3333333,19.7777778 C10.6388889,19.7777778 10.8888889,19.5277778 10.8888889,19.2222223 L10.8888889,14.2222222 C10.8888889,13.6111111 11.3854167,13.1111111 12,13.1111111 C12.6145833,13.1111111 13.1111111,13.6111111 13.1111111,14.2222222 L13.1111111,19.2222223 C13.1111111,19.5277778 13.3611111,19.7777778 13.6666667,19.7777778 L14.7777778,19.7777778 C15.0833333,19.7777778 15.3333334,19.5277778 15.3333334,19.2222223 L15.3333334,14.2222222 C15.3333334,12.1666667 13.4652778,10.5416667 11.3368056,10.9548611 Z" id="path-1"></path>
    </defs>
    <g id="rainbow" stroke="none" stroke-width="1" fill="none" fill-rule="evenodd">
        <mask id="mask-2" fill="white">
            <use xlink:href="#path-1"></use>
        </mask>
        <g fill-rule="nonzero"></g>
        <g id="🎨-color" mask="url(#mask-2)" fill="#000000">
            <rect id="🎨-Color" x="0" y="0" width="24" height="24"></rect>
        </g>
    </g>
</svg>