<?xml version="1.0" encoding="UTF-8"?>
<svg width="24px" height="24px" viewBox="0 0 24 24" version="1.1" xmlns="http://www.w3.org/2000/svg" xmlns:xlink="http://www.w3.org/1999/xlink">
    <!-- Generator: Sketch 52.5 (67469) - http://www.bohemiancoding.com/sketch -->
    <title>random</title>
    <desc>Created with Sketch.</desc>
    <defs>
        <path d="M21.6869786,16.0167252 C22.0523977,16.3821443 22.0523977,16.9745809 21.6869786,17.339961 L18.5680702,20.4582457 C17.982885,21.0434308 16.9707603,20.6332944 16.9707603,19.7966082 L16.9707603,18.2378168 L14.6789474,18.2378168 C14.5492722,18.2378035 14.4254155,18.1839859 14.3369201,18.0892008 L11.5861988,15.1419883 L13.6654581,12.914191 L15.7231969,15.1189084 L16.9707603,15.1189084 L16.9707603,13.5601949 C16.9707603,12.7244055 17.9821833,12.3127096 18.5680702,12.8985575 L21.6869786,16.0167252 Z M2.46783621,8.8810916 L5.74269003,8.8810916 L7.80042883,11.085809 L9.8796881,8.85801168 L7.12896684,5.91079919 C7.04048523,5.81599451 6.91661962,5.76217304 6.78693955,5.7621832 L2.46783621,5.7621832 C2.20947364,5.7621832 1.99999995,5.97165689 1.99999995,6.23001946 L1.99999995,8.41325534 C1.99999995,8.67161792 2.20947364,8.8810916 2.46783621,8.8810916 Z M16.9707603,8.8810916 L16.9707603,10.439922 C16.9707603,11.2765692 17.982885,11.6867057 18.5680702,11.1015594 L21.6869786,7.98327483 C22.0523977,7.61785573 22.0523977,7.02541908 21.6869786,6.66003896 L18.5680702,3.5418713 C17.9821833,2.95598436 16.9707603,3.36771926 16.9707603,4.20346975 L16.9707603,5.7621832 L14.6789474,5.7621832 C14.5492722,5.76219652 14.4254155,5.81601409 14.3369201,5.91079919 L5.74269003,15.1189084 L2.46783621,15.1189084 C2.20947364,15.1189084 1.99999995,15.3283821 1.99999995,15.5867447 L1.99999995,17.7699805 C1.99999995,18.0283431 2.20947364,18.2378168 2.46783621,18.2378168 L6.78693955,18.2378168 C6.91660816,18.2378168 7.04046781,18.1839766 7.12896684,18.0892008 L15.7231969,8.8810916 L16.9707603,8.8810916 Z" id="path-1"></path>
    </defs>
    <g id="random" stroke="none" stroke-width="1" fill="none" fill-rule="evenodd">
        <mask id="mask-2" fill="white">
            <use xlink:href="#path-1"></use>
        </mask>
        <g fill-rule="nonzero"></g>
        <g id="🎨-color" mask="url(#mask-2)" fill="#000000">
            <rect id="🎨-Color" x="0" y="0" width="24" height="24"></rect>
        </g>
    </g>
</svg>