<?xml version="1.0" encoding="UTF-8"?>
<svg width="24px" height="24px" viewBox="0 0 24 24" version="1.1" xmlns="http://www.w3.org/2000/svg" xmlns:xlink="http://www.w3.org/1999/xlink">
    <!-- Generator: Sketch 52.5 (67469) - http://www.bohemiancoding.com/sketch -->
    <title>ravelry</title>
    <desc>Created with Sketch.</desc>
    <defs>
        <path d="M17.9140625,4.40234371 C14.953125,2.8632812 12.0703125,3.21093746 9.14453124,4.57812496 C8.70312498,4.78124996 8.53906248,4.99218746 8.36718748,5.32031247 C7.96484373,6.07031247 7.73437498,6.78124997 7.58984373,7.37890623 C6.76171872,8.37890623 6.16796872,9.57031249 5.89843747,10.890625 C5.48437497,11.59375 5.08203122,12.5078125 4.99609371,13.6796875 C4.99609371,13.6796875 4.96874996,13.9765625 4.97656246,13.9882813 C3.59765621,13.8085938 1.99999995,12.9335938 1.99999995,12.9335938 C2.3554687,13.5 4.39453121,14.1953125 4.98046871,14.4140625 C4.98046871,14.4140625 5.04687497,18.2421875 7.49999998,19.5390625 C7.05859373,18.8671875 6.98046872,18.75 6.98046872,18.75 C6.98046872,18.75 5.70312497,16.4140625 5.92187497,14.6835938 C5.94921872,14.6835938 5.98046872,14.6914063 6.00781247,14.6914063 C6.94140622,18.1054688 10.0390625,20.6054688 13.6992188,20.6054688 C13.9414063,20.6054688 14.171875,20.5976563 14.4023438,20.578125 C14.9492188,20.6367188 15.4804688,20.5976563 15.96875,20.4257813 C16.2382813,20.3398438 16.5078125,20.1757813 16.7578125,20.0039063 C19.5,18.4765625 20.6992188,16.8007813 21.5664063,14.234375 C21.7773438,13.609375 21.8828125,12.8476563 21.9492188,12.1953125 C22.2890626,8.98046873 20.7539063,5.88281247 17.9140625,4.40234371 Z M7.42187498,8.37499998 C7.42187498,8.37499998 7.37499998,8.85546873 7.39453123,9.14453124 C7.26171873,9.24218749 6.99999997,9.46093749 6.68359372,9.79687499 C6.88671872,9.29687499 7.12499998,8.81640623 7.42187498,8.37499998 Z M6.20312497,13.1367188 C6.37499997,12.4648438 6.72265622,11.609375 7.36718748,10.984375 C7.36718748,10.984375 7.43359373,12.859375 7.98437498,14.5039063 L6.36718747,14.234375 C6.28124997,13.875 6.23046872,13.5117188 6.20312497,13.1367188 Z M6.51171872,14.8085938 C7.08984373,14.9335938 7.83984373,15.1054688 8.19531248,15.1640625 C9.26171874,18.1640625 12.4257813,20.0195313 12.4257813,20.0195313 C12.4648438,20.0390625 12.4921875,20.046875 12.53125,20.0585938 C9.67578124,19.6054688 7.34765623,17.53125 6.51171872,14.8085938 Z M17.078125,19.3476563 C16.5117188,19.53125 15.6640625,19.6757813 14.5507813,19.4921875 C14.5507813,19.4921875 10.9921875,18.5898438 9.57031249,15.28125 C11.0625,15.3085938 11.6171875,15.2734375 12.6171875,15.1289063 C14.15625,14.90625 15.703125,14.4960938 17.109375,13.8398438 C17.5703125,13.6289063 17.5429688,13.0820313 17.484375,12.6757813 C17.40625,12.1757813 17.0507813,12.203125 16.6484375,12.4921875 C16.6484375,12.4921875 13.4453125,14.78125 9.23437499,14.5898438 C8.50390623,13.3398438 8.18749998,10.2617187 8.18749998,10.2617187 C9.80468749,8.88671873 11.4375,7.93359373 14.765625,8.21484373 C14.7734375,7.96484373 14.8828125,7.15624998 13.96875,7.11718748 C13.96875,7.11718748 10.3164062,6.68359372 8.26562498,8.42578123 C8.36328123,7.78124998 8.49609373,7.28124998 8.69921873,6.88671872 C10.0351562,5.68359372 11.7851562,4.95312496 13.7109375,4.95312496 C17.8671875,4.95312496 21.25,8.35546873 21.25,12.5507813 C21.2421875,15.5195313 19.5390625,18.0976563 17.078125,19.3476563 Z" id="path-1"></path>
    </defs>
    <g id="ravelry" stroke="none" stroke-width="1" fill="none" fill-rule="evenodd">
        <mask id="mask-2" fill="white">
            <use xlink:href="#path-1"></use>
        </mask>
        <g fill-rule="nonzero"></g>
        <g id="🎨-color" mask="url(#mask-2)" fill="#000000">
            <rect id="🎨-Color" x="0" y="0" width="24" height="24"></rect>
        </g>
    </g>
</svg>