<?xml version="1.0" encoding="UTF-8"?>
<svg width="24px" height="24px" viewBox="0 0 24 24" version="1.1" xmlns="http://www.w3.org/2000/svg" xmlns:xlink="http://www.w3.org/1999/xlink">
    <!-- Generator: Sketch 52.5 (67469) - http://www.bohemiancoding.com/sketch -->
    <title>reacteurope</title>
    <desc>Created with Sketch.</desc>
    <defs>
        <path d="M21.3531469,12.6328671 C20.6608392,13.8601399 18.5524476,14.5629371 17.6573427,14.8181818 C17.5314686,14.4020979 17.3881119,13.9755245 17.2237762,13.5454546 C17.0524476,13.5454546 16.9195804,13.4545455 16.8496504,13.3461539 L16.8461539,13.3496504 C16.7902098,13.4020979 16.7272728,13.444056 16.6573427,13.4755245 C16.8566434,13.9755245 17.0279721,14.4685315 17.1713287,14.951049 C17.1468532,14.958042 16.0594406,15.2482518 14.6538462,15.4055944 C14.7762238,15.2202797 15.2552448,14.4895105 15.7797203,13.5104895 C15.7027972,13.4825175 15.6328672,13.444056 15.5699301,13.3986014 C15.5314685,13.4405594 15.444056,13.5454546 15.1888112,13.5454546 C14.972028,13.9370629 14.5804196,14.6258741 14.0034965,15.4755245 C12.4265734,15.6118881 11.0559441,15.5839161 10.0734266,15.5104895 C9.79720279,15.1188811 9.32167831,14.4230769 8.78671327,13.4895105 C8.75174824,13.4755245 8.7167832,13.458042 8.68181817,13.4370629 C8.6153846,13.493007 8.54545453,13.5489511 8.24125872,13.5489511 C8.46153844,13.9405595 8.85314684,14.6223776 9.42307691,15.458042 C8.0174825,15.3216783 7.0244755,15.0769231 6.89860137,15.0489511 C7.03496501,14.5594406 7.19930068,14.0594406 7.39160837,13.5489511 C7.27972026,13.5489511 7.20279718,13.5559441 7.09790207,13.513986 C6.98601396,13.5559441 6.89160837,13.5489511 6.85664333,13.5489511 C6.68531466,14.0174825 6.53846151,14.4755245 6.41258738,14.9265734 C0.821678266,13.4370629 1.50699295,10.6048951 6.36013983,9.19230768 C6.48601396,9.6083916 6.6293706,10.034965 6.79370627,10.465035 C7.15734263,10.465035 7.24475522,10.5839161 7.29720277,10.6503496 C7.3216783,10.6223776 7.34615382,10.5944056 7.37762235,10.5734266 C7.17482515,10.0594405 6.99650347,9.55244754 6.84615382,9.05944054 C7.09090907,8.99650348 7.97902096,8.76573425 9.36363635,8.60489509 C8.80769229,9.45454544 8.43006991,10.1398601 8.2167832,10.5384615 C8.3216783,10.6013986 8.40209788,10.6958042 8.44055942,10.8181818 C8.56993005,10.6223776 8.75174824,10.5454545 8.79720278,10.5244755 C9.02447551,10.1153846 9.42307691,9.4090909 10.013986,8.53496502 C10.9895105,8.44405593 12.3741259,8.39160837 13.944056,8.49999998 C15.0454546,10.0594405 14.9545455,10.1818182 15.4300699,10.7552447 C15.472028,10.6993007 15.5804196,10.5699301 15.7937063,10.4965035 C15.5699301,10.0979021 15.1783217,9.4125874 14.5944056,8.55594404 C16.006993,8.69930068 16.8671329,8.90559439 17.1188811,8.96503495 C16.979021,9.46853146 16.8076923,9.98601398 16.6083916,10.5104895 C16.6993007,10.5454545 16.7797203,10.5979021 16.8461539,10.6608392 L16.8496504,10.6643357 C16.944056,10.5174825 17.0909091,10.479021 17.1608392,10.4685315 C17.3321679,9.99999999 17.4825175,9.53846153 17.6083916,9.08741257 C17.7937063,9.13636362 18.2797203,9.26923076 18.8146853,9.47202796 C22.5244756,10.8671329 21.4020979,12.5454545 21.3531469,12.6328671 Z M17.3391609,19.6643357 C17.2377623,19.8426574 16.9265735,20.3741259 16.1188811,20.3741259 C14.8356643,20.3741259 12.6678322,18.9965035 10.4090909,15.9615385 C12.0559441,16.0559441 13.3496504,15.958042 13.6923077,15.9300699 C13.2167832,16.5979021 12.7202797,17.2132867 12.2167832,17.7622378 C12.3356643,17.8846154 12.4545455,18.0034965 12.5734266,18.1188811 C13.1818182,17.4545455 13.7797203,16.6993007 14.3461539,15.8741259 C16,15.7097902 17.1538462,15.4020979 17.2972028,15.3636364 C18.0909091,18.3146853 17.4545455,19.4545455 17.3391609,19.6643357 Z M6.68181816,4.3391608 C6.78321676,4.16083912 7.09790207,3.62937059 7.90209788,3.62937059 C9.18881117,3.62937059 11.3566434,5.01398598 13.6118881,8.04195802 C12.9545455,8.00699299 11.8216783,7.96153844 10.3286713,8.07342655 C10.8041958,7.40559438 11.3006993,6.79020976 11.8041958,6.24125871 C11.6853147,6.11888109 11.5664336,5.99999997 11.4475524,5.88461535 C10.8391608,6.54895102 10.2412587,7.30769228 9.67482516,8.12937061 C8.17832166,8.27972026 7.15734263,8.53146851 6.7237762,8.63986012 C6.71678319,8.59090907 5.87412584,5.76573423 6.68181816,4.3391608 Z M18.9615385,9.06293705 C18.3426574,8.82867131 17.7832168,8.68531467 17.7167832,8.66783215 C18.4020979,5.94055941 18.1223777,3.95804192 16.937063,3.28671324 C15.7307692,2.60839156 13.9335664,3.43706289 12.1048951,5.21678318 C12.2237762,5.3321678 12.3426573,5.45104892 12.4615385,5.57342654 C15.3461539,2.77622373 16.6433567,3.70279716 16.6888112,3.72727269 C17.472028,4.17132863 17.9475525,5.67832165 17.2307693,8.54545453 C16.0664336,8.27272725 15.0174825,8.15384613 14.2727273,8.09090907 C11.7587413,4.57692304 9.35664334,3.12237758 7.90209788,3.12237758 C6.8251748,3.12237758 6.37062934,3.85664332 6.23776221,4.09090905 C5.60489507,5.20979018 5.77272724,7.03496501 6.24125871,8.76923075 C3.77622374,9.47902097 2.02097897,10.6608392 2.03496499,12.0909091 C2.0524475,14.1748252 5.64335661,15.1608392 6.30419578,15.3356644 C5.58741256,18.1993007 5.95104892,20.0769231 7.08391606,20.7167833 C8.06293704,21.2692308 9.7097902,20.9265735 11.9160839,18.7867133 C11.7972028,18.6713287 11.6783217,18.5524476 11.5594406,18.43007 C8.67482516,21.2272728 7.37412585,20.3006993 7.33216781,20.2762238 C6.55244753,19.8356644 6.07342654,18.3321679 6.79020976,15.4545455 C7.2237762,15.5559441 8.25174823,15.7867133 9.74825174,15.9090909 C12.2622378,19.4195805 14.6643357,20.8741259 16.1153846,20.8741259 C17.1923077,20.8741259 17.6468532,20.1398602 17.7797203,19.9055944 L17.7482518,19.8881119 L17.7797203,19.9055944 C18.4090909,18.7902098 18.2447553,16.965035 17.7762238,15.2272727 C23.1013987,13.6958042 23.2377623,10.6748252 18.9615385,9.06293705 Z M5.30419577,11.6923077 C5.30419577,11.8601399 5.21678318,11.9055944 5.09090906,11.9055944 L4.88811185,11.9055944 L4.88811185,11.1748252 L5.09090906,11.1748252 C5.21678318,11.1748252 5.30419577,11.2202797 5.30419577,11.3881119 L5.30419577,11.6923077 Z M4.88811185,12.2377622 L5.08391605,12.2377622 L5.34265731,13.0594406 C5.36713283,13.1363636 5.41608388,13.1713287 5.49300696,13.1713287 L5.60839158,13.1713287 C5.70629367,13.1713287 5.74825172,13.1083916 5.72027969,13.0174825 L5.4370629,12.1818182 C5.59790207,12.1118881 5.69230766,11.972028 5.69230766,11.7482517 L5.69230766,11.3321678 C5.69230766,10.979021 5.45804193,10.8391608 5.10489507,10.8391608 L4.6363636,10.8391608 C4.54895101,10.8391608 4.50349647,10.8846154 4.50349647,10.972028 L4.50349647,13.0384615 C4.50349647,13.1258741 4.54895101,13.1713287 4.6363636,13.1713287 L4.75524472,13.1713287 C4.84265731,13.1713287 4.88811185,13.1258741 4.88811185,13.0384615 L4.88811185,12.2377622 Z M6.00699298,10.9685315 L6.00699298,13.034965 C6.00699298,13.1223776 6.05244752,13.1678322 6.13986011,13.1678322 L6.90559438,13.1678322 C6.99300697,13.1678322 7.03846151,13.1223776 7.03846151,13.034965 L7.03846151,12.9615385 C7.03846151,12.8741259 6.99300697,12.8286713 6.90559438,12.8286713 L6.39160836,12.8286713 L6.39160836,12.1538462 L6.79020976,12.1538462 C6.87762235,12.1538462 6.9230769,12.1083916 6.9230769,12.020979 L6.9230769,11.9475524 C6.9230769,11.8601399 6.87762235,11.8146853 6.79020976,11.8146853 L6.39160836,11.8146853 L6.39160836,11.1748252 L6.89510487,11.1748252 C6.98251746,11.1748252 7.027972,11.1293706 7.027972,11.041958 L7.027972,10.9685315 C7.027972,10.8811189 6.98251746,10.8356643 6.89510487,10.8356643 L6.13636361,10.8356643 C6.05244752,10.8321678 6.00699298,10.8811189 6.00699298,10.9685315 Z M7.65384613,12.3286713 L7.8181818,11.2902098 L7.98251746,12.3286713 L7.65384613,12.3286713 Z M7.55594403,10.9545454 L7.17132865,13.0244755 C7.15384613,13.1188811 7.20279718,13.1678322 7.29020977,13.1678322 L7.39510487,13.1678322 C7.47552445,13.1678322 7.5244755,13.1293706 7.53846152,13.0454546 L7.60139858,12.6503497 L8.02797201,12.6503497 L8.09090907,13.0454546 C8.10489509,13.1293706 8.15384613,13.1678322 8.23426572,13.1678322 L8.35664334,13.1678322 C8.44755243,13.1678322 8.49300698,13.1188811 8.47552446,13.0244755 L8.08391606,10.9545454 C8.06993005,10.8741259 8.0174825,10.8356643 7.93706292,10.8356643 L7.69580417,10.8356643 C7.6223776,10.8321678 7.56993005,10.8741259 7.55594403,10.9545454 Z M9.86013985,11.3006993 C9.86013985,10.9545454 9.62587411,10.8076923 9.27272726,10.8076923 L9.26573425,10.8076923 C8.9125874,10.8076923 8.67832166,10.9545454 8.67832166,11.3006993 L8.67832166,12.7027972 C8.67832166,13.0664336 8.9125874,13.1958042 9.26573425,13.1958042 L9.27272726,13.1958042 C9.62587411,13.1958042 9.86013985,13.0629371 9.86013985,12.7027972 C9.86013985,12.3566434 9.89860139,12.2202797 9.72727272,12.2202797 L9.6083916,12.2202797 C9.44055943,12.2202797 9.47552446,12.3601399 9.47552446,12.6433566 C9.47552446,12.8076923 9.39510488,12.8566434 9.27272726,12.8566434 C9.15034964,12.8566434 9.06993006,12.8076923 9.06993006,12.6433566 L9.06993006,11.3636364 C9.06993006,11.1993007 9.15034964,11.1503496 9.27272726,11.1503496 C9.39510488,11.1503496 9.47552446,11.1993007 9.47552446,11.3636364 C9.47552446,11.6153846 9.45104894,11.7307692 9.6083916,11.7307692 L9.72727272,11.7307692 C9.89160838,11.7272727 9.86013985,11.5944056 9.86013985,11.3006993 Z M10.7832168,11.1748252 L11.0384615,11.1748252 C11.1258741,11.1748252 11.1713287,11.1293706 11.1713287,11.041958 L11.1713287,10.9685315 C11.1713287,10.8811189 11.1258741,10.8356643 11.0384615,10.8356643 L10.1363636,10.8356643 C10.048951,10.8356643 10.0034965,10.8811189 10.0034965,10.9685315 L10.0034965,11.041958 C10.0034965,11.1293706 10.048951,11.1748252 10.1363636,11.1748252 L10.3916084,11.1748252 L10.3916084,13.034965 C10.3916084,13.1223776 10.4370629,13.1678322 10.5244755,13.1678322 L10.6433566,13.1678322 C10.7307692,13.1678322 10.7762238,13.1223776 10.7762238,13.034965 L10.7762238,11.1748252 L10.7832168,11.1748252 Z M12.2692308,13.0034965 L11.5909091,13.0034965 L11.5909091,12.0699301 L12.1538462,12.0699301 C12.1958042,12.0699301 12.2237762,12.041958 12.2237762,12 L12.2237762,11.972028 C12.2237762,11.9300699 12.1958042,11.9020979 12.1538462,11.9020979 L11.5909091,11.9020979 L11.5909091,11 L12.2587413,11 C12.3006993,11 12.3286713,10.972028 12.3286713,10.9300699 L12.3286713,10.9020979 C12.3286713,10.8566434 12.3006993,10.8356643 12.2587413,10.8356643 L11.4825175,10.8356643 C11.4405594,10.8356643 11.4125874,10.8601399 11.4125874,10.9020979 L11.4125874,13.1048951 C11.4125874,13.1468532 11.4405594,13.1713287 11.4825175,13.1713287 L12.2692308,13.1713287 C12.3146853,13.1713287 12.3391608,13.1468532 12.3391608,13.1048951 L12.3391608,13.0769231 C12.3391608,13.027972 12.3146853,13.0034965 12.2692308,13.0034965 Z M13.6573427,10.8321678 L13.6153846,10.8321678 C13.5734266,10.8321678 13.5489511,10.8566434 13.5489511,10.8986014 L13.5489511,12.6398601 C13.5489511,12.9160839 13.458042,13.027972 13.1958042,13.027972 C12.9335664,13.027972 12.8426573,12.9195804 12.8426573,12.6398601 L12.8426573,10.8986014 C12.8426573,10.8531468 12.8181818,10.8321678 12.7762238,10.8321678 L12.7342657,10.8321678 C12.6923077,10.8321678 12.6643357,10.8566434 12.6643357,10.8986014 L12.6643357,12.6993007 C12.6643357,13.034965 12.8391608,13.1923077 13.1923077,13.1923077 L13.2062937,13.1923077 C13.5594406,13.1923077 13.7342657,13.0314685 13.7342657,12.6993007 L13.7342657,10.8986014 C13.7272727,10.8566434 13.7027972,10.8321678 13.6573427,10.8321678 Z M14.6993007,11.9965035 L14.3426574,11.9965035 L14.3426574,11 L14.6993007,11 C14.9615385,11 15.0664336,11.1083916 15.0664336,11.3881119 L15.0664336,11.6118881 C15.0664336,11.8846154 14.9615385,11.9965035 14.6993007,11.9965035 Z M15.1888112,13.1678322 L15.2412588,13.1678322 C15.2902098,13.1678322 15.3111888,13.1328671 15.2937063,13.0874126 L14.9230769,12.1328671 C15.1363637,12.0769231 15.2447553,11.9195804 15.2447553,11.6678322 L15.2447553,11.3286713 C15.2447553,11 15.0629371,10.8356643 14.7097902,10.8356643 L14.2307692,10.8356643 C14.1888112,10.8356643 14.1608392,10.8601399 14.1608392,10.9020979 L14.1608392,13.1048951 C14.1608392,13.1468532 14.1888112,13.1713287 14.2307692,13.1713287 L14.2727273,13.1713287 C14.3146853,13.1713287 14.3391609,13.1468532 14.3391609,13.1048951 L14.3391609,12.1643357 L14.7447553,12.1643357 L15.1083916,13.1153846 C15.1258741,13.1538462 15.1538462,13.1678322 15.1888112,13.1678322 Z M16.1818182,13.027972 C15.9195804,13.027972 15.8146853,12.9195804 15.8146853,12.6398601 L15.8146853,11.3601399 C15.8146853,11.0839161 15.9195804,10.972028 16.1818182,10.972028 C16.444056,10.972028 16.5489511,11.0839161 16.5489511,11.3601399 L16.5489511,12.6398601 C16.5454546,12.9195804 16.444056,13.027972 16.1818182,13.027972 Z M16.7272728,11.3006993 C16.7272728,10.972028 16.5454546,10.8076923 16.1923077,10.8076923 L16.1643357,10.8076923 C15.8111888,10.8076923 15.6293706,10.972028 15.6293706,11.3006993 L15.6293706,12.7027972 C15.6293706,13.027972 15.8111888,13.1958042 16.1643357,13.1958042 L16.1923077,13.1958042 C16.5454546,13.1958042 16.7272728,13.027972 16.7272728,12.7027972 L16.7272728,11.3006993 Z M18.0594406,11.3881119 L18.0594406,11.6363636 C18.0594406,11.9125874 17.9545455,12.0244755 17.6923077,12.0244755 L17.3356644,12.0244755 L17.3356644,11.0034965 L17.6923077,11.0034965 C17.9545455,11 18.0594406,11.1118881 18.0594406,11.3881119 Z M17.1538462,10.9020979 L17.1538462,13.1048951 C17.1538462,13.1468532 17.1818182,13.1713287 17.2237762,13.1713287 L17.2657343,13.1713287 C17.3076923,13.1713287 17.3321679,13.1468532 17.3321679,13.1048951 L17.3321679,12.1923077 L17.7027972,12.1923077 C18.0559441,12.1923077 18.2377623,12.0244755 18.2377623,11.6993007 L18.2377623,11.3321678 C18.2377623,11.0034965 18.0559441,10.8391608 17.7027972,10.8391608 L17.2237762,10.8391608 C17.1818182,10.8321678 17.1538462,10.8566434 17.1538462,10.9020979 Z M18.5909091,10.9020979 L18.5909091,13.1048951 C18.5909091,13.1468532 18.6188812,13.1713287 18.6608392,13.1713287 L19.4475525,13.1713287 C19.4895105,13.1713287 19.5174826,13.1468532 19.5174826,13.1048951 L19.5174826,13.0769231 C19.5174826,13.0314685 19.4895105,13.006993 19.4475525,13.006993 L18.7692308,13.006993 L18.7692308,12.0734266 L19.3321679,12.0734266 C19.3741259,12.0734266 19.4020979,12.0454545 19.4020979,12.0034965 L19.4020979,11.9755245 C19.4020979,11.9335664 19.3741259,11.9055944 19.3321679,11.9055944 L18.7692308,11.9055944 L18.7692308,11.0034965 L19.437063,11.0034965 C19.479021,11.0034965 19.506993,10.9755245 19.506993,10.9335664 L19.506993,10.9055944 C19.506993,10.8601399 19.479021,10.8391608 19.437063,10.8391608 L18.6608392,10.8391608 C18.6188812,10.8321678 18.5909091,10.8566434 18.5909091,10.9020979 Z M11.8076923,10.1573426 L12.0104895,10.013986 L12.2132867,10.1573426 L12.1398601,9.91958041 L12.3391608,9.76923076 L12.0909091,9.76573425 L12.0104895,9.52797202 L11.9300699,9.76573425 L11.6818182,9.76923076 L11.8811189,9.91958041 L11.8076923,10.1573426 Z M12.0909091,14.0804196 L12.0104895,13.8426574 L11.9300699,14.0804196 L11.6818182,14.0839161 L11.8811189,14.2342657 L11.8076923,14.472028 L12.0104895,14.3286713 L12.2132867,14.472028 L12.1398601,14.2342657 L12.3391608,14.0839161 L12.0909091,14.0804196 Z M10.6923077,10.4545454 L10.8951049,10.3111888 L11.0979021,10.4545454 L11.0244755,10.2167832 L11.2237762,10.0664336 L10.9755245,10.0629371 L10.8951049,9.82517481 L10.8146853,10.0629371 L10.5629371,10.0664336 L10.7622378,10.2167832 L10.6923077,10.4545454 Z M12.9195804,10.4545454 L13.1223776,10.3111888 L13.3251748,10.4545454 L13.2517483,10.2167832 L13.451049,10.0664336 L13.1993007,10.0629371 L13.1188811,9.82517481 L13.0384615,10.0629371 L12.7867133,10.0664336 L12.986014,10.2167832 L12.9195804,10.4545454 Z M13.1783217,13.8216783 L13.0979021,13.5839161 L13.0174825,13.8216783 L12.7692308,13.8251748 L12.9685315,13.9755245 L12.8951049,14.2132867 L13.0979021,14.0699301 L13.3006993,14.2132867 L13.2272727,13.9755245 L13.4265734,13.8251748 L13.1783217,13.8216783 Z M11.0034965,13.8216783 L10.9230769,13.5839161 L10.8426573,13.8216783 L10.5944056,13.8251748 L10.7937063,13.9755245 L10.7202797,14.2132867 L10.9230769,14.0699301 L11.1258741,14.2132867 L11.0524475,13.9755245 L11.2517482,13.8251748 L11.0034965,13.8216783 Z" id="path-1"></path>
    </defs>
    <g id="reacteurope" stroke="none" stroke-width="1" fill="none" fill-rule="evenodd">
        <mask id="mask-2" fill="white">
            <use xlink:href="#path-1"></use>
        </mask>
        <g fill-rule="nonzero"></g>
        <g id="🎨-color" mask="url(#mask-2)" fill="#000000">
            <rect id="🎨-Color" x="0" y="0" width="24" height="24"></rect>
        </g>
    </g>
</svg>