<?xml version="1.0" encoding="UTF-8"?>
<svg width="24px" height="24px" viewBox="0 0 24 24" version="1.1" xmlns="http://www.w3.org/2000/svg" xmlns:xlink="http://www.w3.org/1999/xlink">
    <!-- Generator: Sketch 52.5 (67469) - http://www.bohemiancoding.com/sketch -->
    <title>react</title>
    <desc>Created with Sketch.</desc>
    <defs>
        <path d="M18.3359375,8.92187498 C18.125,8.85156248 17.9140625,8.78515623 17.703125,8.72265623 C17.7382813,8.57812498 17.7695313,8.43359373 17.8007813,8.28906248 C18.28125,5.96093747 17.9648438,4.08984371 16.8984375,3.47265621 C15.8710938,2.88281245 14.1953125,3.49609371 12.5,4.97265621 C12.3320313,5.11718747 12.1679688,5.26953122 12.0117188,5.42187497 C11.90625,5.32031247 11.796875,5.21874997 11.6875,5.12109372 C9.91015624,3.54296871 8.12890623,2.8789062 7.06249998,3.49999996 C6.03906247,4.09374996 5.73437497,5.85546872 6.16406247,8.05859373 C6.20703122,8.27734373 6.25390622,8.49218748 6.30859372,8.71093748 C6.05859372,8.78124998 5.81249997,8.85937498 5.58203122,8.94140623 C3.49609371,9.66406249 1.99999995,10.8046875 1.99999995,11.984375 C1.99999995,13.203125 3.59374996,14.4257813 5.76171872,15.1679688 C5.93749997,15.2265625 6.11328122,15.2851563 6.29296872,15.3359375 C6.23437497,15.5703125 6.18359372,15.8007813 6.13671872,16.0390625 C5.72656247,18.2070313 6.04687497,19.9257813 7.07031248,20.515625 C8.12499998,21.125 9.89843749,20.5 11.625,18.9882813 C11.7617187,18.8671875 11.8984375,18.7421875 12.0351563,18.609375 C12.2070313,18.7773438 12.3867188,18.9375 12.5664063,19.09375 C14.2382813,20.53125 15.890625,21.1132813 16.9101563,20.5234375 C17.9648438,19.9140625 18.3085938,18.0664063 17.8632813,15.8164063 C17.828125,15.6445313 17.7890625,15.46875 17.7460938,15.2890625 C17.8710938,15.2539063 17.9921875,15.2148438 18.1132813,15.1757813 C20.3671875,14.4296875 22.0000001,13.2226563 22.0000001,11.984375 C22.0000001,10.8007812 20.4609375,9.65234374 18.3359375,8.92187498 Z M13.0507813,5.60546872 C14.5039063,4.33984371 15.859375,3.84374996 16.4765625,4.19921871 C17.1367188,4.57812496 17.390625,6.10937497 16.9765625,8.12109373 C16.9492188,8.25390623 16.921875,8.38281248 16.8867188,8.51171873 C16.0195313,8.31640623 15.140625,8.17578123 14.2578125,8.09765623 C13.75,7.37109373 13.1953125,6.67578122 12.59375,6.02343747 C12.7460938,5.87890622 12.8945313,5.74218747 13.0507813,5.60546872 Z M7.97265623,12.9921875 C8.15234373,13.3359375 8.33593748,13.6757813 8.53124998,14.0117188 C8.73046873,14.3515625 8.93359373,14.6914063 9.14843749,15.0234375 C8.53906248,14.9570313 7.93359373,14.859375 7.33593748,14.7304688 C7.50781248,14.1679688 7.72265623,13.5859375 7.97265623,12.9921875 Z M7.97265623,11.015625 C7.72656248,10.4335937 7.51953123,9.86328124 7.34765623,9.31249999 C7.91015623,9.18749999 8.50781248,9.08593749 9.12890624,9.00781249 C8.92187498,9.33203124 8.71874998,9.66406249 8.52734373,9.99999999 C8.33593748,10.3320312 8.14843748,10.671875 7.97265623,11.015625 Z M8.41796873,12.0039063 C8.67578123,11.4648437 8.95703123,10.9375 9.25390624,10.4179687 C9.55078124,9.89843749 9.87109374,9.39453124 10.2070312,8.89843748 C10.7929687,8.85546873 11.390625,8.83203123 12,8.83203123 C12.609375,8.83203123 13.2109375,8.85546873 13.7929688,8.89843748 C14.125,9.39062499 14.4414063,9.89453124 14.7421875,10.4101562 C15.0429688,10.9257812 15.3242188,11.453125 15.5898438,11.9882812 C15.328125,12.5273438 15.046875,13.0585938 14.7460938,13.5820313 C14.4492188,14.1015625 14.1328125,14.6054688 13.8007813,15.1054688 C13.21875,15.1484375 12.6132813,15.1679688 12,15.1679688 C11.3867187,15.1679688 10.7929687,15.1484375 10.21875,15.1132813 C9.87890624,14.6171875 9.55859374,14.109375 9.25781249,13.5898438 C8.95703123,13.0703125 8.67968748,12.5429688 8.41796873,12.0039063 Z M15.4726563,14.0039063 C15.671875,13.6601563 15.859375,13.3125 16.0429688,12.9609375 C16.2929688,13.5273438 16.5117188,14.1015625 16.703125,14.6914063 C16.0976563,14.828125 15.484375,14.9335938 14.8671875,15.0039063 C15.078125,14.6757813 15.2773438,14.3398438 15.4726563,14.0039063 Z M16.0351563,11.015625 C15.8515625,10.671875 15.6640625,10.328125 15.46875,9.99218749 C15.2773438,9.66015624 15.078125,9.33203124 14.8710938,9.00781249 C15.5,9.08593749 16.1015625,9.19140624 16.6640625,9.32031249 C16.484375,9.89843749 16.2734375,10.4609375 16.0351563,11.015625 Z M12.0078125,6.62109372 C12.4179688,7.06640623 12.8046875,7.53515623 13.1640625,8.01953123 C12.390625,7.98437498 11.6132812,7.98437498 10.8398437,8.01953123 C11.2226562,7.51562498 11.6171875,7.04687498 12.0078125,6.62109372 Z M7.47656248,4.22656246 C8.13281248,3.84374996 9.58984374,4.39062496 11.125,5.74999997 C11.2226562,5.83593747 11.3203125,5.92968747 11.421875,6.02343747 C10.8164062,6.67578122 10.2578125,7.37109373 9.74609374,8.09765623 C8.86328123,8.17578123 7.98828123,8.31249998 7.12109373,8.50390623 C7.07031248,8.30468748 7.02734373,8.10156248 6.98437497,7.89843748 C6.61718747,6.00781247 6.85937497,4.58203121 7.47656248,4.22656246 Z M6.51953122,14.5234375 C6.35546872,14.4765625 6.19531247,14.4257813 6.03515622,14.3710938 C5.20312497,14.109375 4.25781246,13.6953125 3.57421871,13.1523438 C3.17968746,12.8789063 2.91406245,12.4570313 2.8398437,11.984375 C2.8398437,11.2695312 4.07421871,10.3554687 5.85546872,9.73437499 C6.07812497,9.65624999 6.30468747,9.58593749 6.53124997,9.51953124 C6.79687497,10.3671875 7.11718748,11.1992187 7.48828123,12.0039063 C7.11328123,12.8203125 6.78906247,13.6640625 6.51953122,14.5234375 Z M11.0742187,18.3515625 C10.4296875,18.9414063 9.68359374,19.4101563 8.87109373,19.7304688 C8.43749998,19.9375 7.93749998,19.9570313 7.49218748,19.78125 C6.87109372,19.421875 6.61328122,18.0429688 6.96484372,16.1875 C7.00781248,15.96875 7.05468748,15.75 7.10937498,15.5351563 C7.98437498,15.7226563 8.86718748,15.8515625 9.76171874,15.9179688 C10.2773437,16.6484375 10.84375,17.3476563 11.4492187,18.0039063 C11.3242187,18.125 11.1992187,18.2421875 11.0742187,18.3515625 Z M12.03125,17.4023438 C11.6328125,16.9726563 11.234375,16.4960938 10.8476562,15.984375 C11.2226562,16 11.609375,16.0078125 12,16.0078125 C12.4023438,16.0078125 12.796875,16 13.1875,15.9804688 C12.828125,16.4765625 12.4414063,16.9492188 12.03125,17.4023438 Z M17.1367188,18.5742188 C17.1015625,19.0507813 16.8671875,19.4960938 16.4921875,19.796875 C15.8710938,20.15625 14.546875,19.6875 13.1171875,18.4609375 C12.953125,18.3203125 12.7890625,18.1679688 12.6210938,18.0117188 C13.21875,17.3515625 13.7695313,16.6523438 14.2695313,15.9179688 C15.1640625,15.84375 16.0546875,15.7070313 16.9335938,15.5078125 C16.9726563,15.6679688 17.0078125,15.828125 17.0390625,15.984375 C17.2304688,16.828125 17.2617188,17.7070313 17.1367188,18.5742188 Z M17.8476563,14.375 C17.7382813,14.4101563 17.6289063,14.4453125 17.515625,14.4765625 C17.2421875,13.625 16.90625,12.7929688 16.5195313,11.984375 C16.8945313,11.1875 17.2109375,10.3671875 17.4765625,9.52734374 C17.6796875,9.58593749 17.875,9.64843749 18.0625,9.71093749 C19.8828125,10.3359375 21.1601563,11.265625 21.1601563,11.9765625 C21.1601563,12.7421875 19.796875,13.7304688 17.8476563,14.375 Z M12,10.2109375 C12.9882813,10.2109375 13.7890625,11.0117187 13.7890625,12 C13.7890625,12.9882813 12.9882813,13.7890625 12,13.7890625 C11.0117187,13.7890625 10.2109375,12.9882813 10.2109375,12 C10.2109375,11.0117187 11.0117187,10.2109375 12,10.2109375 Z" id="path-1"></path>
    </defs>
    <g id="react" stroke="none" stroke-width="1" fill="none" fill-rule="evenodd">
        <mask id="mask-2" fill="white">
            <use xlink:href="#path-1"></use>
        </mask>
        <g fill-rule="nonzero"></g>
        <g id="🎨-color" mask="url(#mask-2)" fill="#000000">
            <rect id="🎨-Color" x="0" y="0" width="24" height="24"></rect>
        </g>
    </g>
</svg>