<?xml version="1.0" encoding="UTF-8"?>
<svg width="24px" height="24px" viewBox="0 0 24 24" version="1.1" xmlns="http://www.w3.org/2000/svg" xmlns:xlink="http://www.w3.org/1999/xlink">
    <!-- Generator: Sketch 52.5 (67469) - http://www.bohemiancoding.com/sketch -->
    <title>readme</title>
    <desc>Created with Sketch.</desc>
    <defs>
        <path d="M20.34375,4.72569441 L15.4895834,4.72569441 C13.8194445,4.72569441 12.3680556,5.88194441 12.0034722,7.51388887 C11.6354167,5.88194441 10.1875,4.72569441 8.51736109,4.72569441 L3.66666662,4.72569441 C2.74652773,4.72569441 1.99999995,5.47222219 1.99999995,6.39236108 L1.99999995,14.9270833 C1.99999995,15.8472222 2.74652773,16.59375 3.66666662,16.59375 L6.78124997,16.59375 C10.3298611,16.59375 11.3888889,17.4409722 11.8958333,19.1979167 C11.9201389,19.2951389 12.0763889,19.2951389 12.1041667,19.1979167 C12.6145833,17.4409722 13.6736111,16.59375 17.21875,16.59375 L20.3333334,16.59375 C21.2534723,16.59375 22.0000001,15.8472222 22.0000001,14.9270833 L22.0000001,6.39583331 C22.0000001,5.47916663 21.2604167,4.73263885 20.34375,4.72569441 Z M10.4027778,13.9409722 C10.4027778,14.0069445 10.3506944,14.0625 10.28125,14.0625 L4.71527774,14.0625 C4.64930552,14.0625 4.59374996,14.0104167 4.59374996,13.9409722 L4.59374996,13.1458333 C4.59374996,13.0798611 4.6458333,13.0243056 4.71527774,13.0243056 L10.2847222,13.0243056 C10.3506944,13.0243056 10.40625,13.0763889 10.40625,13.1458333 L10.40625,13.9409722 L10.4027778,13.9409722 Z M10.4027778,11.8263889 C10.4027778,11.8923611 10.3506944,11.9479167 10.28125,11.9479167 L4.71527774,11.9479167 C4.64930552,11.9479167 4.59374996,11.8958333 4.59374996,11.8263889 L4.59374996,11.03125 C4.59374996,10.9652778 4.6458333,10.9097222 4.71527774,10.9097222 L10.2847222,10.9097222 C10.3506944,10.9097222 10.40625,10.9618056 10.40625,11.03125 L10.40625,11.8263889 L10.4027778,11.8263889 Z M10.4027778,9.71180554 C10.4027778,9.77777777 10.3506944,9.83333332 10.28125,9.83333332 L4.71527774,9.83333332 C4.64930552,9.83333332 4.59374996,9.78124999 4.59374996,9.71180554 L4.59374996,8.91666665 C4.59374996,8.85069443 4.6458333,8.79513887 4.71527774,8.79513887 L10.2847222,8.79513887 C10.3506944,8.79513887 10.40625,8.84722221 10.40625,8.91666665 L10.40625,9.71180554 L10.4027778,9.71180554 Z M19.40625,13.9375 C19.40625,14.0034722 19.3541667,14.0590278 19.2847223,14.0590278 L13.71875,14.0590278 C13.6527778,14.0590278 13.5972222,14.0069445 13.5972222,13.9375 L13.5972222,13.1423611 C13.5972222,13.0763889 13.6493056,13.0208333 13.71875,13.0208333 L19.2881945,13.0208333 C19.3541667,13.0208333 19.4097223,13.0729167 19.4097223,13.1423611 L19.4097223,13.9375 L19.40625,13.9375 Z M19.40625,11.8229167 C19.40625,11.8888889 19.3541667,11.9444444 19.2847223,11.9444444 L13.71875,11.9444444 C13.6527778,11.9444444 13.5972222,11.8923611 13.5972222,11.8229167 L13.5972222,11.0277778 C13.5972222,10.9618056 13.6493056,10.90625 13.71875,10.90625 L19.2881945,10.90625 C19.3541667,10.90625 19.4097223,10.9583333 19.4097223,11.0277778 L19.4097223,11.8229167 L19.40625,11.8229167 Z M19.40625,9.70833332 C19.40625,9.77430554 19.3541667,9.8298611 19.2847223,9.8298611 L13.71875,9.8298611 C13.6527778,9.8298611 13.5972222,9.77777777 13.5972222,9.70833332 L13.5972222,8.91666665 C13.5972222,8.85069443 13.6493056,8.79513887 13.71875,8.79513887 L19.2881945,8.79513887 C19.3541667,8.79513887 19.4097223,8.84722221 19.4097223,8.91666665 L19.4097223,9.70833332 L19.40625,9.70833332 Z" id="path-1"></path>
    </defs>
    <g id="readme" stroke="none" stroke-width="1" fill="none" fill-rule="evenodd">
        <mask id="mask-2" fill="white">
            <use xlink:href="#path-1"></use>
        </mask>
        <g fill-rule="nonzero"></g>
        <g id="🎨-color" mask="url(#mask-2)" fill="#000000">
            <rect id="🎨-Color" x="0" y="0" width="24" height="24"></rect>
        </g>
    </g>
</svg>