<?xml version="1.0" encoding="UTF-8"?>
<svg width="24px" height="24px" viewBox="0 0 24 24" version="1.1" xmlns="http://www.w3.org/2000/svg" xmlns:xlink="http://www.w3.org/1999/xlink">
    <!-- Generator: Sketch 52.5 (67469) - http://www.bohemiancoding.com/sketch -->
    <title>rebel</title>
    <desc>Created with Sketch.</desc>
    <defs>
        <path d="M12.0195313,21.6875 C6.57812497,21.6875 2.35156245,17.1484375 2.51562495,11.7617187 C2.62499995,8.66796873 4.20312496,5.81640622 7.06640623,3.93359371 C7.07812498,3.93359371 7.14062498,3.91015621 7.10937498,3.96484371 C6.88281247,4.17968746 2.7617187,9.03515624 6.55859372,12.8085938 C8.50390623,14.7421875 10.0742187,12.90625 10.0742187,12.90625 C11.578125,10.9492187 10.0507812,7.98828123 10.0507812,7.98828123 C9.66015624,7.01562498 8.26562498,6.42187497 8.26562498,6.42187497 L9.39062499,5.17968747 C10.34375,5.58984372 11.078125,6.69140622 11.078125,6.69140622 C11.109375,5.53515622 10.2226562,4.29296871 10.2226562,4.29296871 L11.9648437,2.31249995 L13.6953125,4.26953121 C12.8945313,5.39453122 12.8398438,6.71484372 12.8398438,6.71484372 C13.3789063,5.81640622 14.5390625,5.17968747 14.5390625,5.17968747 L15.6523438,6.42187497 C14.5820313,6.76953122 13.8789063,7.98046873 13.8789063,7.98046873 C13.2617188,9.09374999 12.8203125,11.4726562 13.9023438,12.953125 C15.1679688,14.6953125 17.328125,12.84375 17.328125,12.84375 C21.3398438,9.25390624 16.9179688,4.05468746 16.9179688,4.05468746 C16.6796875,3.83984371 16.9492188,3.94531246 16.9492188,3.94531246 C18.90625,5.37109372 21.4257813,7.24218748 21.4882813,11.9453125 C21.5664063,17.6328125 17.5859375,21.6875 12.0195313,21.6875 Z" id="path-1"></path>
    </defs>
    <g id="rebel" stroke="none" stroke-width="1" fill="none" fill-rule="evenodd">
        <mask id="mask-2" fill="white">
            <use xlink:href="#path-1"></use>
        </mask>
        <g></g>
        <g id="🎨-color" mask="url(#mask-2)" fill="#000000">
            <rect id="🎨-Color" x="0" y="0" width="24" height="24"></rect>
        </g>
    </g>
</svg>