<?xml version="1.0" encoding="UTF-8"?>
<svg width="24px" height="24px" viewBox="0 0 24 24" version="1.1" xmlns="http://www.w3.org/2000/svg" xmlns:xlink="http://www.w3.org/1999/xlink">
    <!-- Generator: Sketch 52.5 (67469) - http://www.bohemiancoding.com/sketch -->
    <title>receipt</title>
    <desc>Created with Sketch.</desc>
    <defs>
        <path d="M18.4747082,2.16342408 L16.9805448,3.90661475 L14.8638132,2.16342408 C14.6428936,1.99609739 14.3376512,1.99609739 14.1167315,2.16342408 L12,3.90661475 L9.88326847,2.16342408 C9.66234882,1.99609739 9.35710641,1.99609739 9.13618676,2.16342408 L7.01945523,3.90661475 L5.5252918,2.16342408 C5.11284043,1.85603108 4.52918284,2.14785987 4.52918284,2.66147855 L4.52918284,21.3385214 C4.52918284,21.8521401 5.11284043,22.1439689 5.5252918,21.8365759 L7.01945523,20.0933853 L9.13618676,21.8365759 C9.35710641,22.0039026 9.66234882,22.0039026 9.88326847,21.8365759 L12,20.0933853 L14.1167315,21.8365759 C14.3376512,22.0039026 14.6428936,22.0039026 14.8638132,21.8365759 L16.9805448,20.0933853 L18.4747082,21.8365759 C18.8832685,22.1439689 19.4708172,21.8521401 19.4708172,21.3385214 L19.4708172,2.66147855 C19.4708172,2.14785987 18.8871596,1.85603108 18.4747082,2.16342408 Z M16.9805448,16.0466926 C16.9805448,16.2178989 16.840467,16.3579767 16.6692607,16.3579767 L7.33073928,16.3579767 C7.15953305,16.3579767 7.01945523,16.2178989 7.01945523,16.0466926 L7.01945523,15.4241245 C7.01945523,15.2529183 7.15953305,15.1128405 7.33073928,15.1128405 L16.6692607,15.1128405 C16.840467,15.1128405 16.9805448,15.2529183 16.9805448,15.4241245 L16.9805448,16.0466926 Z M16.9805448,12.311284 C16.9805448,12.4824903 16.840467,12.6225681 16.6692607,12.6225681 L7.33073928,12.6225681 C7.15953305,12.6225681 7.01945523,12.4824903 7.01945523,12.311284 L7.01945523,11.688716 C7.01945523,11.5175097 7.15953305,11.3774319 7.33073928,11.3774319 L16.6692607,11.3774319 C16.840467,11.3774319 16.9805448,11.5175097 16.9805448,11.688716 L16.9805448,12.311284 Z M16.9805448,8.57587547 C16.9805448,8.7470817 16.840467,8.88715952 16.6692607,8.88715952 L7.33073928,8.88715952 C7.15953305,8.88715952 7.01945523,8.7470817 7.01945523,8.57587547 L7.01945523,7.95330737 C7.01945523,7.78210115 7.15953305,7.64202332 7.33073928,7.64202332 L16.6692607,7.64202332 C16.840467,7.64202332 16.9805448,7.78210115 16.9805448,7.95330737 L16.9805448,8.57587547 Z" id="path-1"></path>
    </defs>
    <g id="receipt" stroke="none" stroke-width="1" fill="none" fill-rule="evenodd">
        <mask id="mask-2" fill="white">
            <use xlink:href="#path-1"></use>
        </mask>
        <g fill-rule="nonzero"></g>
        <g id="🎨-color" mask="url(#mask-2)" fill="#000000">
            <rect id="🎨-Color" x="0" y="0" width="24" height="24"></rect>
        </g>
    </g>
</svg>