<?xml version="1.0" encoding="UTF-8"?>
<svg width="24px" height="24px" viewBox="0 0 24 24" version="1.1" xmlns="http://www.w3.org/2000/svg" xmlns:xlink="http://www.w3.org/1999/xlink">
    <!-- Generator: Sketch 52.5 (67469) - http://www.bohemiancoding.com/sketch -->
    <title>recycle</title>
    <desc>Created with Sketch.</desc>
    <defs>
        <path d="M9.21485379,12.2496296 C9.34085769,12.7953216 8.74222221,13.2100585 8.2765302,12.9189474 L6.68838204,11.9265497 L4.70526312,15.100117 C4.18736838,15.9287719 4.78596488,17.0097466 5.76265104,17.0097466 L7.78947366,17.0097466 C8.04783624,17.0097466 8.25730992,17.2192203 8.25730992,17.4775829 L8.25730992,19.0370371 C8.25730992,19.2953996 8.04783624,19.5048733 7.78947366,19.5048733 L5.76666664,19.5048733 C2.82966857,19.5048733 1.0375438,16.2671345 2.59286545,13.7785575 L4.57422998,10.6055361 L2.98651068,9.61341129 C2.51551652,9.31918127 2.63695902,8.60128653 3.1767251,8.47664716 L7.47446391,7.48444442 C7.81017542,7.40693955 8.14506821,7.61625729 8.22257308,7.95189082 L9.21485379,12.2496296 Z M13.0573879,5.11844051 L14.6670955,7.6945029 L13.0787914,8.68697854 C12.6089669,8.98046782 12.7279142,9.69879141 13.2690059,9.82374268 L17.5667447,10.8159454 C17.9048343,10.8938791 18.2378948,10.6819103 18.3148538,10.348499 L19.3070566,6.0507602 C19.4316959,5.51103311 18.8396102,5.0870565 18.368733,5.38144246 L16.7824952,6.37263155 L15.1738012,3.79633524 C13.7109942,1.45586739 10.2923587,1.45048728 8.82619881,3.79633524 L8.12588692,4.91781673 C7.98904481,5.13692004 8.05571148,5.42545806 8.2748148,5.56237814 L9.59719297,6.38869393 C9.81629629,6.52561401 10.1049513,6.45898633 10.2418713,6.23988301 L10.9421053,5.11929821 C11.4376998,4.32627676 12.5784795,4.35220269 13.0573879,5.11844051 Z M21.4069396,13.7785575 L20.3342301,12.0606238 C20.197349,11.8414035 19.908655,11.7746979 19.6894737,11.9116569 L18.3693568,12.7365692 C18.1502534,12.8734893 18.0835868,13.1621053 18.2205069,13.3812476 L19.2951267,15.1010137 C19.8119688,15.9279532 19.2149318,17.0097856 18.237193,17.0097856 L14.4951267,17.0097856 L14.4951267,15.1391813 C14.4951267,14.5850682 13.822924,14.3055361 13.4302924,14.6981287 L10.311384,17.8162963 C10.0677583,18.0598831 10.0677583,18.4548538 10.311384,18.6984406 L13.4302924,21.8169201 C13.8202339,22.2069396 14.4951267,21.9337232 14.4951267,21.3757895 L14.4951267,19.5048733 L18.2331384,19.5048733 C21.1677973,19.5048733 22.9635478,16.2691228 21.4069396,13.7785575 Z" id="path-1"></path>
    </defs>
    <g id="recycle" stroke="none" stroke-width="1" fill="none" fill-rule="evenodd">
        <mask id="mask-2" fill="white">
            <use xlink:href="#path-1"></use>
        </mask>
        <g fill-rule="nonzero"></g>
        <g id="🎨-color" mask="url(#mask-2)" fill="#000000">
            <rect id="🎨-Color" x="0" y="0" width="24" height="24"></rect>
        </g>
    </g>
</svg>