<?xml version="1.0" encoding="UTF-8"?>
<svg width="24px" height="24px" viewBox="0 0 24 24" version="1.1" xmlns="http://www.w3.org/2000/svg" xmlns:xlink="http://www.w3.org/1999/xlink">
    <!-- Generator: Sketch 52.5 (67469) - http://www.bohemiancoding.com/sketch -->
    <title>red-river</title>
    <desc>Created with Sketch.</desc>
    <defs>
        <path d="M17.046875,3.24999996 L6.95312497,3.24999996 C4.90624996,3.24999996 3.24999996,4.90624996 3.24999996,6.95312497 L3.24999996,17.046875 C3.24999996,19.09375 4.90624996,20.75 6.95312497,20.75 L17.046875,20.75 C19.09375,20.75 20.75,19.09375 20.75,17.046875 L20.75,6.95312497 C20.75,4.90624996 19.09375,3.24999996 17.046875,3.24999996 Z M8.91015623,9.84765624 L8.91015623,12.046875 C8.91015623,13.1015625 8.05468748,13.9570313 6.99999997,13.9570313 L6.99999997,7.93359373 C6.99999997,7.41796873 7.41796873,6.99999997 7.93359373,6.99999997 L13.9570313,6.99999997 C13.9570313,8.05468748 13.1015625,8.91015623 12.046875,8.91015623 L9.84765624,8.91015623 C9.36718749,8.88671873 8.88671873,9.36328124 8.91015623,9.84765624 Z M15.796875,12.6601563 L13.5976563,12.6601563 C13.1171875,12.6367188 12.6367188,13.1132813 12.6601563,13.5976563 L12.6601563,15.796875 C12.6601563,16.8515625 11.8046875,17.7070313 10.75,17.7070313 L10.75,11.6835937 C10.75,11.1679687 11.1679687,10.75 11.6835937,10.75 L17.7070313,10.75 C17.7070313,11.8046875 16.8515625,12.6601563 15.796875,12.6601563 Z" id="path-1"></path>
    </defs>
    <g id="red-river" stroke="none" stroke-width="1" fill="none" fill-rule="evenodd">
        <mask id="mask-2" fill="white">
            <use xlink:href="#path-1"></use>
        </mask>
        <g fill-rule="nonzero"></g>
        <g id="🎨-color" mask="url(#mask-2)" fill="#000000">
            <rect id="🎨-Color" x="0" y="0" width="24" height="24"></rect>
        </g>
    </g>
</svg>