<?xml version="1.0" encoding="UTF-8"?>
<svg width="24px" height="24px" viewBox="0 0 24 24" version="1.1" xmlns="http://www.w3.org/2000/svg" xmlns:xlink="http://www.w3.org/1999/xlink">
    <!-- Generator: Sketch 52.5 (67469) - http://www.bohemiancoding.com/sketch -->
    <title>reddit</title>
    <desc>Created with Sketch.</desc>
    <defs>
        <path d="M9.87109374,13.9335938 C9.33203124,13.9335938 8.89843748,13.5 8.89843748,12.9726563 C8.89843748,12.4335938 9.33203124,12 9.87109374,12 C10.4023437,12 10.8320312,12.4335938 10.8320312,12.9726563 C10.8320312,13.5039063 10.3984375,13.9335938 9.87109374,13.9335938 Z M21.6875,12 C21.6875,17.3515625 17.3515625,21.6875 12,21.6875 C6.64843747,21.6875 2.31249995,17.3515625 2.31249995,12 C2.31249995,6.64843747 6.64843747,2.31249995 12,2.31249995 C17.3515625,2.31249995 21.6875,6.64843747 21.6875,12 Z M16.5195313,10.390625 C16.1523438,10.390625 15.828125,10.5429687 15.5898438,10.78125 C14.7148438,10.1757812 13.5351563,9.78515624 12.2265625,9.74218749 L12.90625,6.68359372 L15.0703125,7.17187498 C15.0703125,7.70312498 15.5039063,8.13281248 16.03125,8.13281248 C16.5703125,8.13281248 17.0039063,7.69140623 17.0039063,7.16015623 C17.0039063,6.62890622 16.5703125,6.18749997 16.03125,6.18749997 C15.6523438,6.18749997 15.328125,6.41406247 15.1679688,6.72656247 L12.7773438,6.19531247 C12.6601563,6.16406247 12.5390625,6.24999997 12.5078125,6.36718747 L11.7617187,9.74218749 C10.4648437,9.79687499 9.29687499,10.1835937 8.42187498,10.7890625 C8.18359373,10.5390625 7.84765623,10.390625 7.48046873,10.390625 C6.11718747,10.390625 5.67187497,12.2226563 6.91796872,12.84375 C6.87499997,13.0390625 6.85156247,13.2421875 6.85156247,13.4492188 C6.85156247,15.5039063 9.16406249,17.1679688 12.0078125,17.1679688 C14.8632813,17.1679688 17.1757813,15.5039063 17.1757813,13.4492188 C17.1757813,13.2421875 17.1523438,13.0273438 17.1015625,12.8320313 C18.3242188,12.2070313 17.875,10.390625 16.5195313,10.390625 Z M13.828125,14.9296875 C13.1171875,15.640625 10.8554687,15.6289063 10.171875,14.9296875 C10.0859375,14.84375 9.93359374,14.84375 9.84765624,14.9296875 C9.74999999,15.0273438 9.74999999,15.1796875 9.84765624,15.265625 C10.7382812,16.15625 13.2578125,16.15625 14.1523438,15.265625 C14.25,15.1796875 14.25,15.0273438 14.1523438,14.9296875 C14.0664063,14.84375 13.9140625,14.84375 13.828125,14.9296875 Z M14.1289063,12 C13.5976563,12 13.1679688,12.4335938 13.1679688,12.9726563 C13.1679688,13.5039063 13.6015625,13.9335938 14.1289063,13.9335938 C14.6679688,13.9335938 15.1015625,13.5 15.1015625,12.9726563 C15.1015625,12.4335938 14.671875,12 14.1289063,12 Z" id="path-1"></path>
    </defs>
    <g id="reddit" stroke="none" stroke-width="1" fill="none" fill-rule="evenodd">
        <mask id="mask-2" fill="white">
            <use xlink:href="#path-1"></use>
        </mask>
        <g fill-rule="nonzero"></g>
        <g id="🎨-color" mask="url(#mask-2)" fill="#000000">
            <rect id="🎨-Color" x="0" y="0" width="24" height="24"></rect>
        </g>
    </g>
</svg>