<?xml version="1.0" encoding="UTF-8"?>
<svg width="24px" height="24px" viewBox="0 0 24 24" version="1.1" xmlns="http://www.w3.org/2000/svg" xmlns:xlink="http://www.w3.org/1999/xlink">
    <!-- Generator: Sketch 52.5 (67469) - http://www.bohemiancoding.com/sketch -->
    <title>reddit-alien</title>
    <desc>Created with Sketch.</desc>
    <defs>
        <path d="M19.1992188,9.94921874 C18.6132813,9.94921874 18.0976563,10.1914062 17.71875,10.5703125 C16.3242188,9.60546874 14.4453125,8.98437498 12.3632813,8.91796873 L13.4453125,4.04296871 L16.890625,4.81640621 C16.890625,5.66015622 17.578125,6.34765622 18.421875,6.34765622 C19.28125,6.34765622 19.9726563,5.64062497 19.9726563,4.79687496 C19.9726563,3.95312496 19.2851563,3.24609371 18.421875,3.24609371 C17.8203125,3.24609371 17.3007813,3.60937496 17.0429688,4.10546871 L13.2382813,3.26171871 C13.046875,3.21093746 12.859375,3.34765621 12.8085938,3.53906246 L11.6210937,8.91406248 C9.55468749,8.99999998 7.69531248,9.62109374 6.29687497,10.5859375 C5.91796872,10.1914062 5.38281247,9.94921874 4.79687496,9.94921874 C2.62499995,9.94921874 1.91406245,12.8632813 3.90234371,13.859375 C3.83203121,14.1679688 3.80078121,14.4960938 3.80078121,14.8242188 C3.80078121,18.0976563 7.48828123,20.75 12.015625,20.75 C16.5625,20.75 20.25,18.0976563 20.25,14.8242188 C20.25,14.4960938 20.2148438,14.1523438 20.1289063,13.84375 C22.0781251,12.84375 21.359375,9.94921874 19.1992188,9.94921874 Z M7.05468748,14.0664063 C7.05468748,13.2070313 7.74218748,12.515625 8.60546873,12.515625 C9.44921874,12.515625 10.1367187,13.203125 10.1367187,14.0664063 C10.1367187,14.9101563 9.44921874,15.5976563 8.60546873,15.5976563 C7.74609373,15.6015625 7.05468748,14.9101563 7.05468748,14.0664063 Z M15.4257813,17.71875 C14.0039063,19.140625 9.99218749,19.140625 8.57031248,17.71875 C8.41406248,17.5820313 8.41406248,17.3398438 8.57031248,17.1835938 C8.70703123,17.046875 8.94921873,17.046875 9.08593749,17.1835938 C10.171875,18.296875 13.7734375,18.3164063 14.90625,17.1835938 C15.0429688,17.046875 15.2851563,17.046875 15.421875,17.1835938 C15.5820313,17.3398438 15.5820313,17.5820313 15.4257813,17.71875 Z M15.3945313,15.6015625 C14.5507813,15.6015625 13.8632813,14.9140625 13.8632813,14.0703125 C13.8632813,13.2109375 14.5507813,12.5195313 15.3945313,12.5195313 C16.2539063,12.5195313 16.9453125,13.2070313 16.9453125,14.0703125 C16.9414063,14.9101563 16.2539063,15.6015625 15.3945313,15.6015625 Z" id="path-1"></path>
    </defs>
    <g id="reddit-alien" stroke="none" stroke-width="1" fill="none" fill-rule="evenodd">
        <mask id="mask-2" fill="white">
            <use xlink:href="#path-1"></use>
        </mask>
        <g fill-rule="nonzero"></g>
        <g id="🎨-color" mask="url(#mask-2)" fill="#000000">
            <rect id="🎨-Color" x="0" y="0" width="24" height="24"></rect>
        </g>
    </g>
</svg>