<?xml version="1.0" encoding="UTF-8"?>
<svg width="24px" height="24px" viewBox="0 0 24 24" version="1.1" xmlns="http://www.w3.org/2000/svg" xmlns:xlink="http://www.w3.org/1999/xlink">
    <!-- Generator: Sketch 52.5 (67469) - http://www.bohemiancoding.com/sketch -->
    <title>reddit-square</title>
    <desc>Created with Sketch.</desc>
    <defs>
        <path d="M14.3125,15.4960938 C14.4179688,15.6015625 14.4179688,15.7617188 14.3125,15.8554688 C13.3554688,16.8125 10.6484375,16.8164063 9.68749999,15.8554688 C9.58203124,15.7617188 9.58203124,15.6015625 9.68749999,15.4960938 C9.78124999,15.4023438 9.94140624,15.4023438 10.0351562,15.4960938 C10.765625,16.2460938 13.1992188,16.2617188 13.9609375,15.4960938 C14.0546875,15.40625 14.21875,15.40625 14.3125,15.4960938 Z M10.7460937,13.3945313 C10.7460937,12.8125 10.28125,12.3476563 9.71093749,12.3476563 C9.12890624,12.3476563 8.66406248,12.8125 8.66406248,13.3945313 C8.66406248,13.9648438 9.12890624,14.4296875 9.71093749,14.4296875 C10.28125,14.4296875 10.7460937,13.9648438 10.7460937,13.3945313 Z M14.2890625,12.3476563 C13.71875,12.3476563 13.2539063,12.8125 13.2539063,13.3945313 C13.2539063,13.9648438 13.71875,14.4296875 14.2890625,14.4296875 C14.8710938,14.4296875 15.3359375,13.9648438 15.3359375,13.3945313 C15.3359375,12.8125 14.8710938,12.3476563 14.2890625,12.3476563 Z M20.75,5.12499997 L20.75,18.875 C20.75,19.9101563 19.9101563,20.75 18.875,20.75 L5.12499997,20.75 C4.08984371,20.75 3.24999996,19.9101563 3.24999996,18.875 L3.24999996,5.12499997 C3.24999996,4.08984371 4.08984371,3.24999996 5.12499997,3.24999996 L18.875,3.24999996 C19.9101563,3.24999996 20.75,4.08984371 20.75,5.12499997 Z M16.8554688,10.6171875 C16.4609375,10.6171875 16.1132813,10.78125 15.8554688,11.0351562 C14.9140625,10.3828125 13.6484375,9.96484374 12.2421875,9.91796874 L12.9726563,6.62890622 L15.296875,7.15234373 C15.296875,7.72265623 15.7617188,8.18749998 16.3320313,8.18749998 C16.9140625,8.18749998 17.3789063,7.71093748 17.3789063,7.14062498 C17.3789063,6.57031247 16.9140625,6.09374997 16.3320313,6.09374997 C15.9257813,6.09374997 15.578125,6.33593747 15.4023438,6.67578122 L12.8359375,6.10546872 C12.7070313,6.07031247 12.5820313,6.16406247 12.546875,6.29296872 L11.7460937,9.91796874 C10.3515625,9.97656249 9.09765624,10.3945312 8.15624998,11.046875 C7.90234373,10.78125 7.53906248,10.6171875 7.14453123,10.6171875 C5.67968747,10.6171875 5.19921872,12.5859375 6.53906247,13.2539063 C6.49218747,13.4648438 6.46874997,13.6835938 6.46874997,13.90625 C6.46874997,16.1132813 8.95703123,17.9023438 12.0117188,17.9023438 C15.078125,17.9023438 17.5664063,16.1132813 17.5664063,13.90625 C17.5664063,13.6835938 17.5429688,13.453125 17.484375,13.2421875 C18.796875,12.5703125 18.3125,10.6171875 16.8554688,10.6171875 Z" id="path-1"></path>
    </defs>
    <g id="reddit-square" stroke="none" stroke-width="1" fill="none" fill-rule="evenodd">
        <mask id="mask-2" fill="white">
            <use xlink:href="#path-1"></use>
        </mask>
        <g fill-rule="nonzero"></g>
        <g id="🎨-color" mask="url(#mask-2)" fill="#000000">
            <rect id="🎨-Color" x="0" y="0" width="24" height="24"></rect>
        </g>
    </g>
</svg>