<?xml version="1.0" encoding="UTF-8"?>
<svg width="24px" height="24px" viewBox="0 0 24 24" version="1.1" xmlns="http://www.w3.org/2000/svg" xmlns:xlink="http://www.w3.org/1999/xlink">
    <!-- Generator: Sketch 52.5 (67469) - http://www.bohemiancoding.com/sketch -->
    <title>redo-alt</title>
    <desc>Created with Sketch.</desc>
    <defs>
        <path d="M12.0177734,2.31249995 C14.6064063,2.31714839 16.9567188,3.33722652 18.6919532,4.99550778 L20.0870704,3.60039058 C20.6776954,3.00980464 21.6875,3.42808589 21.6875,4.26332027 L21.6875,9.49999999 C21.6875,10.0177734 21.2677735,10.4375 20.75,10.4375 L15.5133203,10.4375 C14.678086,10.4375 14.2598047,9.4276953 14.8503906,8.8370703 L16.48125,7.20621091 C15.275625,6.07734372 13.7155859,5.45203122 12.0582031,5.43773434 C8.44890623,5.40656247 5.4065234,8.32746092 5.43773434,12.0565625 C5.46734372,15.5941016 8.33531248,18.5625 12,18.5625 C13.6065234,18.5625 15.1248828,17.9891407 16.3214453,16.9392188 C16.5067188,16.7766797 16.7865235,16.7865625 16.9608203,16.9608203 L18.5101172,18.5101172 C18.7004297,18.7004297 18.6910157,19.0107032 18.4912891,19.1910938 C16.7735156,20.7426954 14.4971094,21.6875 12,21.6875 C6.6497656,21.6875 2.31253901,17.3502735 2.31249995,12.0000781 C2.31246089,6.65597654 6.67367185,2.30292964 12.0177734,2.31249995 Z" id="path-1"></path>
    </defs>
    <g id="redo-alt" stroke="none" stroke-width="1" fill="none" fill-rule="evenodd">
        <mask id="mask-2" fill="white">
            <use xlink:href="#path-1"></use>
        </mask>
        <g></g>
        <g id="🎨-color" mask="url(#mask-2)" fill="#000000">
            <rect id="🎨-Color" x="0" y="0" width="24" height="24"></rect>
        </g>
    </g>
</svg>