<?xml version="1.0" encoding="UTF-8"?>
<svg width="24px" height="24px" viewBox="0 0 24 24" version="1.1" xmlns="http://www.w3.org/2000/svg" xmlns:xlink="http://www.w3.org/1999/xlink">
    <!-- Generator: Sketch 52.5 (67469) - http://www.bohemiancoding.com/sketch -->
    <title>redo</title>
    <desc>Created with Sketch.</desc>
    <defs>
        <path d="M21.5061599,2.01949313 L19.6577778,2.01949313 C19.3906043,2.01949313 19.1776998,2.24284596 19.1904874,2.50970755 L19.3451072,5.73617931 C17.5717739,3.65298241 14.9306823,2.33138397 11.9805458,2.33138397 C6.65263155,2.33138397 2.30795317,6.67937619 2.31189079,12.0072904 C2.31582841,17.3437817 6.64311888,21.668616 11.9805068,21.668616 C14.4727486,21.668616 16.7447174,20.7256531 18.4591813,19.1770761 C18.6585186,18.9970371 18.6679143,18.6873685 18.4779727,18.4974269 L17.1535673,17.1730215 C16.9794542,16.9989084 16.6997661,16.9891228 16.5149708,17.1518519 C15.3063548,18.2162963 13.7195322,18.8615985 11.9805068,18.8615985 C8.18842103,18.8615985 5.11890835,15.7927486 5.11890835,12 C5.11890835,8.20791421 8.18775827,5.13840153 11.9805068,5.13840153 C14.3544639,5.13840153 16.4446784,6.34144247 17.6763743,8.17153994 L13.7182846,7.98187132 C13.451423,7.9690838 13.2280702,8.18198829 13.2280702,8.44916178 L13.2280702,10.2975439 C13.2280702,10.5559064 13.4375439,10.7653801 13.6959064,10.7653801 L21.5061599,10.7653801 C21.7645225,10.7653801 21.9739962,10.5559064 21.9739962,10.2975439 L21.9739962,2.48732939 C21.9739962,2.22896681 21.7645225,2.01949313 21.5061599,2.01949313 Z" id="path-1"></path>
    </defs>
    <g id="redo" stroke="none" stroke-width="1" fill="none" fill-rule="evenodd">
        <mask id="mask-2" fill="white">
            <use xlink:href="#path-1"></use>
        </mask>
        <g></g>
        <g id="🎨-color" mask="url(#mask-2)" fill="#000000">
            <rect id="🎨-Color" x="0" y="0" width="24" height="24"></rect>
        </g>
    </g>
</svg>