<?xml version="1.0" encoding="UTF-8"?>
<svg width="24px" height="24px" viewBox="0 0 24 24" version="1.1" xmlns="http://www.w3.org/2000/svg" xmlns:xlink="http://www.w3.org/1999/xlink">
    <!-- Generator: Sketch 52.5 (67469) - http://www.bohemiancoding.com/sketch -->
    <title>renren</title>
    <desc>Created with Sketch.</desc>
    <defs>
        <path d="M10.359375,8.60546873 C10.359375,12.9179688 7.97656248,16.6289063 4.59374996,18.2695313 C3.17187496,16.578125 2.31249995,14.4101563 2.31249995,12.0234375 C2.31249995,7.23046873 5.79296872,3.25781246 10.359375,2.4882812 L10.359375,8.60546873 Z M11.9609375,21.6875 C10.2851562,21.6875 8.70703123,21.2578125 7.33203123,20.5 C9.56640624,19.0898438 11.3710937,16.9570313 11.9609375,14.4609375 C12.5664063,16.9570313 14.3710938,19.0898438 16.6015625,20.5039063 C15.2304688,21.2578125 13.6523438,21.6875 11.9609375,21.6875 Z M19.40625,18.2695313 C16.0234375,16.6289063 13.640625,12.921875 13.640625,8.60546873 L13.640625,2.4882812 C18.2070313,3.25781246 21.6875,7.23046873 21.6875,12.0234375 C21.6875,14.4101563 20.828125,16.578125 19.40625,18.2695313 Z" id="path-1"></path>
    </defs>
    <g id="renren" stroke="none" stroke-width="1" fill="none" fill-rule="evenodd">
        <mask id="mask-2" fill="white">
            <use xlink:href="#path-1"></use>
        </mask>
        <g fill-rule="nonzero"></g>
        <g id="🎨-color" mask="url(#mask-2)" fill="#000000">
            <rect id="🎨-Color" x="0" y="0" width="24" height="24"></rect>
        </g>
    </g>
</svg>