<?xml version="1.0" encoding="UTF-8"?>
<svg width="24px" height="24px" viewBox="0 0 24 24" version="1.1" xmlns="http://www.w3.org/2000/svg" xmlns:xlink="http://www.w3.org/1999/xlink">
    <!-- Generator: Sketch 52.5 (67469) - http://www.bohemiancoding.com/sketch -->
    <title>reply-all</title>
    <desc>Created with Sketch.</desc>
    <defs>
        <path d="M6.73295136,9.70263888 L12.8442014,4.42538191 C13.3791667,3.96340274 14.2222222,4.33847218 14.2222222,5.05607635 L14.2222222,7.92979165 C18.7077084,8.2850347 22.0000001,9.74270832 22.0000001,14.3029861 C22.0000001,16.4363542 20.625625,18.5498264 19.1064931,19.6547917 C18.6324306,19.9996181 17.9568056,19.5668403 18.1315973,19.007882 C19.4688195,14.7314236 17.9954167,13.1230903 14.2222222,12.6879167 L14.2222222,15.6106597 C14.2222222,16.3294445 13.3784722,16.7027778 12.8442014,16.2413542 L6.73295136,10.9640278 C6.34854164,10.6320486 6.34802081,10.0351042 6.73295136,9.70263888 Z M2.2885069,10.9640278 L8.39975693,16.2413195 C8.93402776,16.7027431 9.77777777,16.3294097 9.77777777,15.610625 L9.77777777,15.0613889 L6.00673608,11.8049653 C5.57892139,11.4356754 5.33309036,10.8984191 5.3333333,10.3332639 C5.33309976,9.76816781 5.578919,9.23097298 6.00670136,8.8617361 L9.77777777,5.60527775 L9.77777777,5.05607635 C9.77777777,4.33847218 8.93472221,3.96340274 8.39975693,4.42538191 L2.2885069,9.70263888 C1.90357634,10.0351042 1.90409717,10.6320486 2.2885069,10.9640278 Z" id="path-1"></path>
    </defs>
    <g id="reply-all" stroke="none" stroke-width="1" fill="none" fill-rule="evenodd">
        <mask id="mask-2" fill="white">
            <use xlink:href="#path-1"></use>
        </mask>
        <g fill-rule="nonzero"></g>
        <g id="🎨-color" mask="url(#mask-2)" fill="#000000">
            <rect id="🎨-Color" x="0" y="0" width="24" height="24"></rect>
        </g>
    </g>
</svg>