<?xml version="1.0" encoding="UTF-8"?>
<svg width="24px" height="24px" viewBox="0 0 24 24" version="1.1" xmlns="http://www.w3.org/2000/svg" xmlns:xlink="http://www.w3.org/1999/xlink">
    <!-- Generator: Sketch 52.5 (67469) - http://www.bohemiancoding.com/sketch -->
    <title>replyd</title>
    <desc>Created with Sketch.</desc>
    <defs>
        <path d="M15.75,20.75 L8.24999998,20.75 C5.49999997,20.75 3.24999996,18.5 3.24999996,15.75 L3.24999996,8.24999998 C3.24999996,5.49999997 5.49999997,3.24999996 8.24999998,3.24999996 L15.75,3.24999996 C18.5,3.24999996 20.75,5.49999997 20.75,8.24999998 L20.75,15.75 C20.75,18.5 18.5,20.75 15.75,20.75 Z M10.8046875,12.671875 C10.5664062,12.59375 10.3515625,12.5507813 10.1640625,12.5507813 C9.88281249,12.5507813 9.63671874,12.625 9.42578124,12.7695313 C9.21484374,12.9140625 9.05078124,13.1210938 8.92578123,13.3867188 L8.88281248,13.3867188 L8.71874998,12.671875 L7.62499998,12.671875 L7.62499998,18.0976563 L9.03515624,18.0976563 L9.03515624,14.59375 C9.09374999,14.3828125 9.20703124,14.2109375 9.37499999,14.078125 C9.54296874,13.9453125 9.75781249,13.8789063 10.0078125,13.8789063 C10.1875,13.8789063 10.390625,13.9179688 10.6171875,14 L10.8046875,12.671875 Z M15.3046875,16.7109375 C15.1796875,16.8046875 15.0039063,16.8984375 14.7695313,16.9882813 C14.5351563,17.078125 14.2695313,17.125 13.9726563,17.125 C13.4960938,17.125 13.1484375,17.0078125 12.9375,16.7773438 C12.7226563,16.546875 12.6054688,16.203125 12.5859375,15.7460938 L15.8398438,15.7460938 C15.875,15.5585938 15.9023438,15.3789063 15.921875,15.203125 C15.9414063,15.03125 15.9492188,14.8671875 15.9492188,14.7148438 C15.9492188,14.296875 15.8867188,13.9453125 15.765625,13.6640625 C15.640625,13.3828125 15.4804688,13.15625 15.2773438,12.9921875 C15.0742188,12.8242188 14.84375,12.7070313 14.5820313,12.6328125 C14.3203125,12.5625 14.0546875,12.5234375 13.7773438,12.5234375 C12.953125,12.5234375 12.3125,12.7617188 11.8554687,13.2382813 C11.3984375,13.7148438 11.171875,14.4296875 11.171875,15.3867188 C11.171875,16.2773438 11.375,16.9765625 11.78125,17.484375 C12.1875,17.9960938 12.828125,18.25 13.703125,18.25 C14.1210938,18.25 14.5195313,18.1914063 14.890625,18.0703125 C15.2617188,17.9492188 15.5585938,17.8046875 15.7734375,17.6328125 L15.3046875,16.7109375 Z M14.453125,13.9648438 C14.6015625,14.1757813 14.6601563,14.4765625 14.6328125,14.8671875 L12.6132813,14.8671875 C12.6484375,14.5 12.7578125,14.203125 12.9335938,13.984375 C13.109375,13.765625 13.3828125,13.6523438 13.7539063,13.6523438 C14.0742188,13.6484375 14.3046875,13.7539063 14.453125,13.9648438 Z M17.5742188,14.0625 C17.734375,14.2148438 17.9414063,14.2890625 18.203125,14.2890625 C18.4765625,14.2890625 18.6953125,14.2148438 18.8554688,14.0625 C19.015625,13.9101563 19.09375,13.7070313 19.09375,13.453125 C19.09375,13.1992188 19.015625,13 18.8554688,12.8515625 C18.6953125,12.703125 18.4804688,12.6289063 18.203125,12.6289063 C17.9414063,12.6289063 17.734375,12.703125 17.5742188,12.8515625 C17.4140625,13 17.3359375,13.1992188 17.3359375,13.453125 C17.3359375,13.7070313 17.4140625,13.9101563 17.5742188,14.0625 Z M17.5742188,17.9882813 C17.734375,18.140625 17.9414063,18.2148438 18.203125,18.2148438 C18.4765625,18.2148438 18.6953125,18.140625 18.8554688,17.9882813 C19.015625,17.8359375 19.09375,17.6328125 19.09375,17.3789063 C19.09375,17.125 19.015625,16.9257813 18.8554688,16.7773438 C18.6953125,16.6289063 18.4804688,16.5546875 18.203125,16.5546875 C17.9414063,16.5546875 17.734375,16.6289063 17.5742188,16.7773438 C17.4140625,16.9257813 17.3359375,17.125 17.3359375,17.3789063 C17.3359375,17.6367188 17.4140625,17.8359375 17.5742188,17.9882813 Z" id="path-1"></path>
    </defs>
    <g id="replyd" stroke="none" stroke-width="1" fill="none" fill-rule="evenodd">
        <mask id="mask-2" fill="white">
            <use xlink:href="#path-1"></use>
        </mask>
        <g fill-rule="nonzero"></g>
        <g id="🎨-color" mask="url(#mask-2)" fill="#000000">
            <rect id="🎨-Color" x="0" y="0" width="24" height="24"></rect>
        </g>
    </g>
</svg>