<?xml version="1.0" encoding="UTF-8"?>
<svg width="24px" height="24px" viewBox="0 0 24 24" version="1.1" xmlns="http://www.w3.org/2000/svg" xmlns:xlink="http://www.w3.org/1999/xlink">
    <!-- Generator: Sketch 52.5 (67469) - http://www.bohemiancoding.com/sketch -->
    <title>republican</title>
    <desc>Created with Sketch.</desc>
    <defs>
        <path d="M19,9.99999999 C19,7.23749998 16.7625,4.99999997 14,4.99999997 L6.99999997,4.99999997 C4.23749996,4.99999997 1.99999995,7.23749998 1.99999995,9.99999999 L1.99999995,12 L19,12 L19,9.99999999 Z M7.50937498,9.32499999 L6.89062497,9.92812499 L7.03749998,10.78125 C7.06249998,10.934375 6.90312497,11.05 6.76562497,10.978125 L5.99999997,10.575 L5.23437497,10.978125 C5.09999997,11.05 4.93749996,10.934375 4.96249996,10.78125 L5.10937497,9.92812499 L4.49062496,9.32499999 C4.37812496,9.21562499 4.44062496,9.02812499 4.59374996,9.00624999 L5.44999997,8.88124998 L5.83124997,8.10624998 C5.89999997,7.96562498 6.09999997,7.96874998 6.16562497,8.10624998 L6.54687497,8.88124998 L7.40312498,9.00624999 C7.55937498,9.02812499 7.61874998,9.21562499 7.50937498,9.32499999 Z M12.009375,9.32499999 L11.390625,9.92812499 L11.5375,10.78125 C11.5625,10.934375 11.403125,11.05 11.265625,10.978125 L10.5,10.575 L9.73437499,10.978125 C9.59999999,11.05 9.43749999,10.934375 9.46249999,10.78125 L9.60937499,9.92812499 L8.99062498,9.32499999 C8.87812498,9.21562499 8.94062498,9.02812499 9.09374999,9.00624999 L9.94999999,8.88124998 L10.33125,8.10624998 C10.4,7.96562498 10.6,7.96874998 10.665625,8.10624998 L11.046875,8.88124998 L11.903125,9.00624999 C12.059375,9.02812499 12.11875,9.21562499 12.009375,9.32499999 Z M16.509375,9.32499999 L15.890625,9.92812499 L16.0375,10.78125 C16.0625,10.934375 15.903125,11.05 15.765625,10.978125 L15,10.575 L14.234375,10.978125 C14.1,11.05 13.9375,10.934375 13.9625,10.78125 L14.109375,9.92812499 L13.490625,9.32499999 C13.378125,9.21562499 13.440625,9.02812499 13.59375,9.00624999 L14.45,8.88124998 L14.83125,8.10624998 C14.9,7.96562498 15.1,7.96874998 15.165625,8.10624998 L15.546875,8.88124998 L16.403125,9.00624999 C16.559375,9.02812499 16.61875,9.21562499 16.509375,9.32499999 Z M21.5,14 L20.5,14 C20.225,14 20,14.225 20,14.5 L20,16.5 C20,16.775 19.775,17 19.5,17 C19.225,17 19,16.775 19,16.5 L19,13 L1.99999995,13 L1.99999995,18.5 C1.99999995,18.775 2.22499995,19 2.49999995,19 L5.49999997,19 C5.77499997,19 5.99999997,18.775 5.99999997,18.5 L5.99999997,16 L12,16 L12,18.5 C12,18.775 12.225,19 12.5,19 L15.5,19 C15.775,19 16,18.775 16,18.5 L16,15 L17,15 L17,16.353125 C17,17.659375 17.9375,18.85625 19.2375,18.9875 C20.73125,19.140625 22.0000001,17.965625 22.0000001,16.5 L22.0000001,14.5 C22.0000001,14.225 21.775,14 21.5,14 Z" id="path-1"></path>
    </defs>
    <g id="republican" stroke="none" stroke-width="1" fill="none" fill-rule="evenodd">
        <mask id="mask-2" fill="white">
            <use xlink:href="#path-1"></use>
        </mask>
        <g fill-rule="nonzero"></g>
        <g id="🎨-color" mask="url(#mask-2)" fill="#000000">
            <rect id="🎨-Color" x="0" y="0" width="24" height="24"></rect>
        </g>
    </g>
</svg>