<?xml version="1.0" encoding="UTF-8"?>
<svg width="24px" height="24px" viewBox="0 0 24 24" version="1.1" xmlns="http://www.w3.org/2000/svg" xmlns:xlink="http://www.w3.org/1999/xlink">
    <!-- Generator: Sketch 52.5 (67469) - http://www.bohemiancoding.com/sketch -->
    <title>researchgate</title>
    <desc>Created with Sketch.</desc>
    <defs>
        <path d="M3.24999996,3.24999996 L3.24999996,20.75 L20.75,20.75 L20.75,3.24999996 L3.24999996,3.24999996 Z M13.4921875,16.3125 C13.234375,16.4296875 12.1953125,16.546875 11.5390625,15.7578125 C11.1796875,15.34375 10.5507812,14.4570313 9.89062499,13.2734375 C9.54296874,13.2734375 9.31640624,13.2734375 9.05468749,13.25 L9.05468749,15.0625 C9.05468749,15.9804688 9.28906249,15.890625 10.0625,15.9960938 L10.0625,16.3125 C9.79296874,16.3007813 9.16015624,16.28125 8.67187498,16.28125 C8.16015623,16.28125 7.65234373,16.3046875 7.35937498,16.3125 L7.35937498,15.9960938 C7.96484373,15.8828125 8.21874998,15.9453125 8.21874998,15.0625 L8.21874998,10.7890625 C8.21874998,9.90624999 7.96874998,9.96874999 7.35937498,9.85546874 L7.35937498,9.53906249 C8.36718748,9.57812499 9.43359374,9.51562499 10.1289062,9.51562499 C11.3671875,9.51562499 12.3125,10.078125 12.3125,11.296875 C12.3125,12.1210938 11.6601562,12.9453125 10.78125,13.1523438 C11.3125,14.0976563 11.953125,14.9335938 12.4296875,15.453125 C12.7109375,15.7578125 13.1015625,16.0273438 13.4921875,16.0273438 L13.4921875,16.3125 Z M14.3867188,11.0390625 C13.4765625,11.0390625 13.1289063,10.4257812 13.1289063,9.78124999 L13.1289063,8.52343748 C13.1289063,8.04687498 13.4726563,7.33593748 14.4570313,7.33593748 C15.4414063,7.33593748 15.6445313,8.03515623 15.6445313,8.03515623 L15.2265625,8.31640623 C15.2265625,8.31640623 15.0117188,7.82812498 14.4570313,7.82812498 C14.1484375,7.82812498 13.6875,8.11328123 13.6875,8.59765623 L13.6875,9.64453124 C13.6875,10.1679687 13.9453125,10.5546875 14.3867188,10.5546875 C14.9375,10.5546875 15.2265625,10.1289062 15.2265625,9.50781249 L14.5273438,9.50781249 L14.5273438,9.08984374 L15.7148438,9.08984374 C15.7148438,9.89062499 15.8984375,11.0390625 14.3867188,11.0390625 Z M9.83593749,12.7851563 C9.46874999,12.7851563 9.30468749,12.7734375 9.05468749,12.7539063 L9.05468749,10.03125 C9.30468749,10.0078125 9.64062499,10.0078125 9.93359374,10.0078125 C10.84375,10.0078125 11.3867187,10.484375 11.3867187,11.3554687 C11.3867187,12.2109375 10.8007812,12.7851563 9.83593749,12.7851563 Z" id="path-1"></path>
    </defs>
    <g id="researchgate" stroke="none" stroke-width="1" fill="none" fill-rule="evenodd">
        <mask id="mask-2" fill="white">
            <use xlink:href="#path-1"></use>
        </mask>
        <g fill-rule="nonzero"></g>
        <g id="🎨-color" mask="url(#mask-2)" fill="#000000">
            <rect id="🎨-Color" x="0" y="0" width="24" height="24"></rect>
        </g>
    </g>
</svg>