<?xml version="1.0" encoding="UTF-8"?>
<svg width="24px" height="24px" viewBox="0 0 24 24" version="1.1" xmlns="http://www.w3.org/2000/svg" xmlns:xlink="http://www.w3.org/1999/xlink">
    <!-- Generator: Sketch 52.5 (67469) - http://www.bohemiancoding.com/sketch -->
    <title>resolving</title>
    <desc>Created with Sketch.</desc>
    <defs>
        <path d="M13.2773438,12.8671875 C15.0742188,12.3476563 15.2148438,11.9492187 14.9960938,11.171875 L14.5585938,9.63671874 C14.3203125,8.82031248 13.8398438,8.53906248 11.78125,9.13671874 L4.42968746,11.25 L5.54687497,15.1015625 L13.2773438,12.8671875 Z M12,2.31249995 C7.42578123,2.31249995 3.58984371,5.46484372 2.5742187,9.71484374 L11.2421875,7.21874998 C12.6015625,6.82031247 13.359375,6.76171872 14.3398438,6.89843747 C15.7578125,7.13671873 16.3984375,7.87499998 16.7382813,9.05468749 L17.15625,10.53125 C17.4765625,11.6289062 17.1953125,12.5078125 16.2382813,13.40625 C15.4804688,14.0859375 15.0195313,14.3632813 13.8398438,14.703125 L10.2226562,15.7421875 L18.8320313,16.8007813 L19.2109375,18.1367188 L17.3320313,18.65625 L6.12890622,17.1992188 L7.02734373,20.3320313 C8.46484373,21.1914063 10.1640625,21.6875 11.9609375,21.6875 C17.3125,21.6875 21.6679688,17.3359375 21.6679688,11.9882812 C21.7070313,6.66406247 17.3515625,2.31249995 12,2.31249995 Z M3.78906246,17.1796875 L2.2929687,12.03125 C2.2929687,13.9257813 2.85156245,15.6796875 3.78906246,17.1796875 Z" id="path-1"></path>
    </defs>
    <g id="resolving" stroke="none" stroke-width="1" fill="none" fill-rule="evenodd">
        <mask id="mask-2" fill="white">
            <use xlink:href="#path-1"></use>
        </mask>
        <g fill-rule="nonzero"></g>
        <g id="🎨-color" mask="url(#mask-2)" fill="#000000">
            <rect id="🎨-Color" x="0" y="0" width="24" height="24"></rect>
        </g>
    </g>
</svg>