<?xml version="1.0" encoding="UTF-8"?>
<svg width="24px" height="24px" viewBox="0 0 24 24" version="1.1" xmlns="http://www.w3.org/2000/svg" xmlns:xlink="http://www.w3.org/1999/xlink">
    <!-- Generator: Sketch 52.5 (67469) - http://www.bohemiancoding.com/sketch -->
    <title>retweet</title>
    <desc>Created with Sketch.</desc>
    <defs>
        <path d="M21.6767813,14.7374375 L18.5303438,17.883875 C18.2374375,18.17675 17.7625938,18.17675 17.4696875,17.883875 L14.3232188,14.7374375 C14.0303125,14.4445313 14.0303125,13.9696563 14.3232188,13.6767813 L14.6614375,13.3385625 C14.96025,13.03975 15.4468438,13.0466875 15.7370313,13.3539375 L17,14.6911875 L17,8.99999999 L11.1390937,8.99999999 C10.940182,8.99999007 10.7494176,8.92097981 10.60875,8.78034373 L10.10875,8.28034373 C9.63628124,7.80784373 9.97090624,6.99999998 10.6390937,6.99999998 L18.25,6.99999998 C18.6642188,6.99999998 19,7.33578123 19,7.74999998 L19,14.6911875 L20.263,13.3539375 C20.5531563,13.0467188 21.03975,13.03975 21.3385938,13.3385625 L21.6768125,13.6767813 C21.9696875,13.9696563 21.9696875,14.4445625 21.6767813,14.7374375 Z M13.3912188,15.2196563 C13.2505628,15.0790027 13.0597908,14.9999893 12.860875,15 L6.99999997,15 L6.99999997,9.30878124 L8.26299998,10.6460312 C8.55318748,10.95325 9.03974999,10.9602187 9.33859374,10.661375 L9.67678124,10.3231875 C9.96968749,10.0302812 9.96968749,9.55540624 9.67678124,9.26253124 L6.53034372,6.11612497 C6.23743747,5.82321872 5.76256247,5.82321872 5.46968747,6.11612497 L2.3232187,9.26256249 C2.03031245,9.55546874 2.03031245,10.0303437 2.3232187,10.3232187 L2.6614062,10.6614062 C2.9602187,10.9602187 3.44681246,10.9532812 3.73699996,10.6460625 L4.99999997,9.30878124 L4.99999997,16.25 C4.99999997,16.6642188 5.33578122,17 5.74999997,17 L13.3609063,17 C14.0290938,17 14.3637188,16.1921563 13.89125,15.7196563 L13.3912188,15.2196563 Z" id="path-1"></path>
    </defs>
    <g id="retweet" stroke="none" stroke-width="1" fill="none" fill-rule="evenodd">
        <mask id="mask-2" fill="white">
            <use xlink:href="#path-1"></use>
        </mask>
        <g fill-rule="nonzero"></g>
        <g id="🎨-color" mask="url(#mask-2)" fill="#000000">
            <rect id="🎨-Color" x="0" y="0" width="24" height="24"></rect>
        </g>
    </g>
</svg>