<?xml version="1.0" encoding="UTF-8"?>
<svg width="24px" height="24px" viewBox="0 0 24 24" version="1.1" xmlns="http://www.w3.org/2000/svg" xmlns:xlink="http://www.w3.org/1999/xlink">
    <!-- Generator: Sketch 52.5 (67469) - http://www.bohemiancoding.com/sketch -->
    <title>rev</title>
    <desc>Created with Sketch.</desc>
    <defs>
        <path d="M14.5457031,12.7378906 C14.5457031,14.1503906 13.396875,15.2992188 11.9847656,15.2992188 C10.5726562,15.2992188 9.42343749,14.1503906 9.42343749,12.7378906 C9.42343749,11.3253906 10.5722656,10.1769531 11.9847656,10.1769531 C13.3972656,10.1769531 14.5457031,11.3253906 14.5457031,12.7378906 Z M19.996875,12.540625 L19.9917969,12.540625 C19.9335938,10.1363281 18.8160157,7.9957031 17.0886719,6.56484372 L15.3160156,7.58828123 C17.0023438,8.68320311 18.1210938,10.5816406 18.1210938,12.7375 C18.1210938,16.1210938 15.3683594,18.8738282 11.9847656,18.8738282 C8.60117186,18.8738282 5.84843747,16.1210938 5.84843747,12.7375 C5.84843747,9.53984374 8.30781248,6.9066406 11.4339844,6.6269531 L11.4339844,8.15507811 L15.6824219,5.70234372 L11.4339844,3.24999996 L11.4339844,4.74687496 C7.2660156,5.03007809 3.97265621,8.49843748 3.97265621,12.7378906 C3.97265621,17.096875 7.45390623,20.6398438 11.7875,20.7449219 L11.7875,20.75 L19.996875,20.75 L19.996875,12.540625 Z" id="path-1"></path>
    </defs>
    <g id="rev" stroke="none" stroke-width="1" fill="none" fill-rule="evenodd">
        <mask id="mask-2" fill="white">
            <use xlink:href="#path-1"></use>
        </mask>
        <g fill-rule="nonzero"></g>
        <g id="🎨-color" mask="url(#mask-2)" fill="#000000">
            <rect id="🎨-Color" x="0" y="0" width="24" height="24"></rect>
        </g>
    </g>
</svg>