<?xml version="1.0" encoding="UTF-8"?>
<svg width="24px" height="24px" viewBox="0 0 24 24" version="1.1" xmlns="http://www.w3.org/2000/svg" xmlns:xlink="http://www.w3.org/1999/xlink">
    <!-- Generator: Sketch 52.5 (67469) - http://www.bohemiancoding.com/sketch -->
    <title>ribbon</title>
    <desc>Created with Sketch.</desc>
    <defs>
        <path d="M3.46874996,19.3554688 C3.09374996,19.7773438 3.17578121,20.4335938 3.64453121,20.75 L6.33203122,21.8398438 C6.71874997,22.1015626 7.24218748,22.0351563 7.55468748,21.6914063 L11.140625,17.7109375 L8.04687498,14.2773438 L3.46874996,19.3554688 Z M20.4921875,19.3554688 C20.4921875,19.3554688 9.08593749,6.67578122 8.95312498,6.46093747 C9.55468749,6.13281247 10.5234375,5.76171872 11.9804687,5.76171872 C13.4375,5.76171872 14.40625,6.13281247 15.0078125,6.46093747 C14.8789063,6.67968747 12.8203125,8.98437498 12.8203125,8.98437498 L15.9101563,12.4101563 L17.2460938,10.9257812 C18.3671875,9.67968749 18.546875,7.85546873 17.6914063,6.41406247 L15.984375,3.54296871 C15.8164063,3.26171871 15.5976563,3.02343746 15.328125,2.8398437 C13.7382813,1.7617187 10.3515625,1.67968745 8.63281248,2.8398437 C8.36328123,3.02343746 8.14453123,3.26171871 7.97656248,3.54296871 L6.27343747,6.40234372 C6.21484372,6.49999997 4.82421871,8.83203123 6.72265622,10.9335937 L16.4140625,21.6875 C16.7265625,22.0351563 17.25,22.0976563 17.6367188,21.8359375 L20.3242188,20.7460938 C20.7890625,20.4335938 20.8710938,19.7773438 20.4921875,19.3554688 Z" id="path-1"></path>
    </defs>
    <g id="ribbon" stroke="none" stroke-width="1" fill="none" fill-rule="evenodd">
        <mask id="mask-2" fill="white">
            <use xlink:href="#path-1"></use>
        </mask>
        <g fill-rule="nonzero"></g>
        <g id="🎨-color" mask="url(#mask-2)" fill="#000000">
            <rect id="🎨-Color" x="0" y="0" width="24" height="24"></rect>
        </g>
    </g>
</svg>