<?xml version="1.0" encoding="UTF-8"?>
<svg width="24px" height="24px" viewBox="0 0 24 24" version="1.1" xmlns="http://www.w3.org/2000/svg" xmlns:xlink="http://www.w3.org/1999/xlink">
    <!-- Generator: Sketch 52.5 (67469) - http://www.bohemiancoding.com/sketch -->
    <title>ring</title>
    <desc>Created with Sketch.</desc>
    <defs>
        <path d="M12,4.49999996 C6.29921872,4.49999996 1.99999995,6.91835935 1.99999995,10.125 L1.99999995,13.9582031 C1.99999995,17.01875 6.47734372,19.5 12,19.5 C17.5226563,19.5 22.0000001,17.01875 22.0000001,13.9582031 L22.0000001,10.125 C22.0000001,6.91835935 17.7007813,4.49999996 12,4.49999996 Z M12,6.99999997 C16.1421875,6.99999997 19.5,8.39921873 19.5,10.125 C19.5,10.4867187 19.3449219,10.8328125 19.0738282,11.1558594 C17.3183594,10.1332031 14.8214844,9.49999999 12,9.49999999 C9.17851561,9.49999999 6.6816406,10.1332031 4.92617184,11.1558594 C4.65507809,10.8328125 4.49999996,10.4867187 4.49999996,10.125 C4.49999996,8.39921873 7.85781248,6.99999997 12,6.99999997 Z M6.70429685,12.3375 C8.05624998,11.7628906 9.87656249,11.375 12,11.375 C14.1234375,11.375 15.94375,11.7628906 17.2957032,12.3375 C15.9390625,12.9011719 14.0675781,13.25 12,13.25 C9.93242186,13.25 8.06093748,12.9011719 6.70429685,12.3375 Z" id="path-1"></path>
    </defs>
    <g id="ring" stroke="none" stroke-width="1" fill="none" fill-rule="evenodd">
        <mask id="mask-2" fill="white">
            <use xlink:href="#path-1"></use>
        </mask>
        <g fill-rule="nonzero"></g>
        <g id="🎨-color" mask="url(#mask-2)" fill="#000000">
            <rect id="🎨-Color" x="0" y="0" width="24" height="24"></rect>
        </g>
    </g>
</svg>