<?xml version="1.0" encoding="UTF-8"?>
<svg width="24px" height="24px" viewBox="0 0 24 24" version="1.1" xmlns="http://www.w3.org/2000/svg" xmlns:xlink="http://www.w3.org/1999/xlink">
    <!-- Generator: Sketch 52.5 (67469) - http://www.bohemiancoding.com/sketch -->
    <title>road</title>
    <desc>Created with Sketch.</desc>
    <defs>
        <path d="M21.9025997,17.0838822 L17.0571924,5.9920277 C16.884922,5.59757362 16.5095321,5.34488732 16.0963605,5.34488732 L12.7136915,5.34488732 L12.7986135,6.14766028 C12.8159445,6.31126514 12.6873484,6.45407276 12.5227036,6.45407276 L11.5119584,6.45407276 C11.3473137,6.45407276 11.2187175,6.31126514 11.2360485,6.14766028 L11.3209705,5.34488732 L7.93830154,5.34488732 C7.52478334,5.34488732 7.14939339,5.59757362 6.97712303,5.9920277 L2.13171572,17.0838822 C1.8110918,17.8183709 2.32270359,18.6551127 3.09324086,18.6551127 L9.91611784,18.6551127 L10.2734835,15.2693241 C10.3032929,14.9871751 10.5410745,14.7729636 10.8249567,14.7729636 L13.2097054,14.7729636 C13.4935875,14.7729636 13.7313692,14.9871751 13.7611785,15.2693241 L14.1185442,18.6551127 L20.9414212,18.6551127 C21.7119585,18.6551127 22.2235702,17.8183709 21.9025997,17.0838822 Z M11.0606586,7.81143845 C11.0755613,7.67029185 11.1946373,7.5631833 11.3365685,7.56325821 L12.6984402,7.56325821 C12.840208,7.56325821 12.9594454,7.67036393 12.9743501,7.81143845 L13.1337955,9.32201039 C13.159792,9.56776429 12.9670711,9.78162911 12.7202773,9.78162911 L11.315078,9.78162911 C11.0679376,9.78162911 10.8755633,9.56776429 10.9015598,9.32201039 L11.0606586,7.81143845 Z M12.97539,13.6637782 L11.0589255,13.6637782 C10.729636,13.6637782 10.4727903,13.3785095 10.5074523,13.0509532 L10.6831889,11.387175 C10.7129983,11.105026 10.9507799,10.8908146 11.234662,10.8908146 L12.7996534,10.8908146 C13.0835355,10.8908146 13.3213172,11.105026 13.3511265,11.387175 L13.5268631,13.0509532 C13.5615251,13.3785095 13.3046794,13.6637782 12.97539,13.6637782 Z" id="path-1"></path>
    </defs>
    <g id="road" stroke="none" stroke-width="1" fill="none" fill-rule="evenodd">
        <mask id="mask-2" fill="white">
            <use xlink:href="#path-1"></use>
        </mask>
        <g fill-rule="nonzero"></g>
        <g id="🎨-color" mask="url(#mask-2)" fill="#000000">
            <rect id="🎨-Color" x="0" y="0" width="24" height="24"></rect>
        </g>
    </g>
</svg>