<?xml version="1.0" encoding="UTF-8"?>
<svg width="24px" height="24px" viewBox="0 0 24 24" version="1.1" xmlns="http://www.w3.org/2000/svg" xmlns:xlink="http://www.w3.org/1999/xlink">
    <!-- Generator: Sketch 52.5 (67469) - http://www.bohemiancoding.com/sketch -->
    <title>robot</title>
    <desc>Created with Sketch.</desc>
    <defs>
        <path d="M1.99999995,12 L1.99999995,16 C1.99999995,16.553125 2.44687495,17 2.99999995,17 L3.99999996,17 L3.99999996,11 L2.99999995,11 C2.44687495,11 1.99999995,11.446875 1.99999995,12 Z M16.5,6.99999997 L13,6.99999997 L13,4.99999996 C13,4.44687496 12.553125,3.99999996 12,3.99999996 C11.446875,3.99999996 11,4.44687496 11,4.99999996 L11,6.99999997 L7.49999998,6.99999997 C6.11874997,6.99999997 4.99999996,8.11874998 4.99999996,9.49999999 L4.99999996,18 C4.99999996,19.103125 5.89687497,20 6.99999997,20 L17,20 C18.103125,20 19,19.103125 19,18 L19,9.49999999 C19,8.11874998 17.88125,6.99999997 16.5,6.99999997 Z M9.99999999,17 L7.99999998,17 L7.99999998,16 L9.99999999,16 L9.99999999,17 Z M8.99999998,13.25 C8.30937498,13.25 7.74999998,12.690625 7.74999998,12 C7.74999998,11.309375 8.30937498,10.75 8.99999998,10.75 C9.69062499,10.75 10.25,11.309375 10.25,12 C10.25,12.690625 9.69062499,13.25 8.99999998,13.25 Z M13,17 L11,17 L11,16 L13,16 L13,17 Z M16,17 L14,17 L14,16 L16,16 L16,17 Z M15,13.25 C14.309375,13.25 13.75,12.690625 13.75,12 C13.75,11.309375 14.309375,10.75 15,10.75 C15.690625,10.75 16.25,11.309375 16.25,12 C16.25,12.690625 15.690625,13.25 15,13.25 Z M21,11 L20,11 L20,17 L21,17 C21.553125,17 22.0000001,16.553125 22.0000001,16 L22.0000001,12 C22.0000001,11.446875 21.553125,11 21,11 Z" id="path-1"></path>
    </defs>
    <g id="robot" stroke="none" stroke-width="1" fill="none" fill-rule="evenodd">
        <mask id="mask-2" fill="white">
            <use xlink:href="#path-1"></use>
        </mask>
        <g fill-rule="nonzero"></g>
        <g id="🎨-color" mask="url(#mask-2)" fill="#000000">
            <rect id="🎨-Color" x="0" y="0" width="24" height="24"></rect>
        </g>
    </g>
</svg>