<?xml version="1.0" encoding="UTF-8"?>
<svg width="24px" height="24px" viewBox="0 0 24 24" version="1.1" xmlns="http://www.w3.org/2000/svg" xmlns:xlink="http://www.w3.org/1999/xlink">
    <!-- Generator: Sketch 52.5 (67469) - http://www.bohemiancoding.com/sketch -->
    <title>rocketchat</title>
    <desc>Created with Sketch.</desc>
    <defs>
        <path d="M18.8747856,6.83361919 C16.2058319,5.07032587 12.6586621,4.66895365 9.71183532,5.20068607 C6.41509431,2.02058314 2.72041162,3.48198967 1.99999995,3.90394507 C1.99999995,3.90394507 4.53516291,6.05831901 4.1234991,7.94511147 C1.12178382,11.0051458 2.54888503,14.4116638 4.1234991,16.0205832 C4.53516291,17.9073757 1.99999995,20.0617496 1.99999995,20.0617496 C2.71355055,20.483705 6.39794165,21.941681 9.71183532,18.7787307 C12.651801,19.3070326 16.1989709,18.9090909 18.8747856,17.1423671 C23.0120069,14.5008576 23.025729,9.48885076 18.8747856,6.83361919 Z M12.2058319,17.1252144 C11.1732418,17.128645 10.1475129,16.9948542 9.14922812,16.7307033 L8.46312177,17.3927959 C8.08233274,17.7632933 7.65351627,18.0823328 7.19382502,18.3430532 C6.63464834,18.6243568 6.02401369,18.7993139 5.39965691,18.8542024 C5.43396223,18.7924529 5.46483702,18.7307033 5.4957118,18.6723843 C6.18181815,17.399657 6.36706687,16.2607204 6.05145795,15.2487136 C4.922813,14.3602058 4.24699825,13.2246998 4.24699825,11.9828473 C4.24699825,9.13893652 7.81132073,6.83361919 12.2058319,6.83361919 C16.6003431,6.83361919 20.1646656,9.13893652 20.1646656,11.9828473 C20.1646656,14.8267582 16.6003431,17.1252144 12.2058319,17.1252144 Z M8.38765007,13.2075472 C7.7324185,13.2178388 7.19039449,12.6929674 7.18010289,12.0377358 C7.15608917,10.4631218 9.53344767,10.4288165 9.55746139,12 L9.55746139,12.0171527 C9.56432246,12.6792453 9.02572897,13.2075472 8.38765007,13.2075472 Z M10.9468268,12.0377358 C10.9193825,10.4631218 13.296741,10.4253859 13.3241853,11.9965695 L13.3241853,12.0171527 C13.3379074,13.5814751 10.974271,13.5986278 10.9468268,12.0377358 Z M15.9210978,13.2075472 C15.2658662,13.2178388 14.7238422,12.6929674 14.7135506,12.0377358 C14.6895369,10.4631218 17.0668954,10.4288165 17.0909091,12 L17.0909091,12.0171527 C17.0977702,12.6689537 16.5763294,13.2041166 15.9210978,13.2075472 Z" id="path-1"></path>
    </defs>
    <g id="rocketchat" stroke="none" stroke-width="1" fill="none" fill-rule="evenodd">
        <mask id="mask-2" fill="white">
            <use xlink:href="#path-1"></use>
        </mask>
        <g fill-rule="nonzero"></g>
        <g id="🎨-color" mask="url(#mask-2)" fill="#000000">
            <rect id="🎨-Color" x="0" y="0" width="24" height="24"></rect>
        </g>
    </g>
</svg>