<?xml version="1.0" encoding="UTF-8"?>
<svg width="24px" height="24px" viewBox="0 0 24 24" version="1.1" xmlns="http://www.w3.org/2000/svg" xmlns:xlink="http://www.w3.org/1999/xlink">
    <!-- Generator: Sketch 52.5 (67469) - http://www.bohemiancoding.com/sketch -->
    <title>rockrms</title>
    <desc>Created with Sketch.</desc>
    <defs>
        <path d="M12,2.31249995 C6.64843747,2.31249995 2.31249995,6.64843747 2.31249995,12 C2.31249995,17.3515625 6.64843747,21.6875 12,21.6875 C17.3515625,21.6875 21.6875,17.3515625 21.6875,12 C21.6875,6.64843747 17.3515625,2.31249995 12,2.31249995 Z M18.1484375,18.6992188 L14.6328125,18.6992188 L10.2578125,13.5703125 C9.55859374,12.7734375 10.1054687,11.3789062 11.296875,11.3789062 L14.2382813,11.3789062 L10.9335937,7.49999998 L7.64062498,11.3632812 L4.12499996,11.3632812 L9.87109374,4.62499996 C10.4335937,3.90624996 11.484375,3.94921871 12,4.62499996 L18.1601563,11.8554687 C18.9023438,12.7460938 18.2382813,14.0898438 17.0820313,14.046875 C17.0585938,14.046875 14.1835938,14.0546875 14.1835938,14.0546875 L18.1484375,18.6992188 Z" id="path-1"></path>
    </defs>
    <g id="rockrms" stroke="none" stroke-width="1" fill="none" fill-rule="evenodd">
        <mask id="mask-2" fill="white">
            <use xlink:href="#path-1"></use>
        </mask>
        <g fill-rule="nonzero"></g>
        <g id="🎨-color" mask="url(#mask-2)" fill="#000000">
            <rect id="🎨-Color" x="0" y="0" width="24" height="24"></rect>
        </g>
    </g>
</svg>