<?xml version="1.0" encoding="UTF-8"?>
<svg width="24px" height="24px" viewBox="0 0 24 24" version="1.1" xmlns="http://www.w3.org/2000/svg" xmlns:xlink="http://www.w3.org/1999/xlink">
    <!-- Generator: Sketch 52.5 (67469) - http://www.bohemiancoding.com/sketch -->
    <title>rocket</title>
    <desc>Created with Sketch.</desc>
    <defs>
        <path d="M21.711501,2.74463933 C21.6608188,2.50682256 21.4736843,2.31968806 21.2358675,2.2690058 C19.9805069,1.99999995 18.9980507,1.99999995 18.0194932,1.99999995 C13.9961014,1.99999995 11.582846,4.15204674 9.7816764,6.99025339 L5.71929821,6.99025339 C5.00974655,6.99025339 4.36257306,7.39181284 4.04678359,8.02339179 L2.12085765,11.8752437 C1.80896681,12.4990253 2.26120853,13.2280702 2.95906428,13.2280702 L6.66666664,13.2280702 C6.43664715,13.7270955 6.20272902,14.2222222 5.96491225,14.6978558 C5.84405455,14.9395712 5.89083818,15.2280702 6.08187132,15.4191033 L8.56140349,17.8986355 C8.75243663,18.0896686 9.04093566,18.1364523 9.28265106,18.0155946 C9.75828459,17.7777778 10.2534113,17.5477583 10.7524366,17.3177388 L10.7524366,21.0253412 C10.7524366,21.7192983 11.4853801,22.17154 12.1052632,21.8635478 L15.9532164,19.9376219 C16.588694,19.6218324 16.9863548,18.9707603 16.9863548,18.2651072 L16.9863548,14.1949318 C19.8167642,12.3898635 21.9766082,9.96881091 21.9766082,5.96491225 C21.9805069,4.98245611 21.9805069,3.99999996 21.711501,2.74463933 Z M17.6140351,8.23781675 C16.5808967,8.23781675 15.7426901,7.39961011 15.7426901,6.36647171 C15.7426901,5.3333333 16.5808967,4.49512667 17.6140351,4.49512667 C18.6471735,4.49512667 19.4853802,5.3333333 19.4853802,6.36647171 C19.4853802,7.39961011 18.6471735,8.23781675 17.6140351,8.23781675 Z" id="path-1"></path>
    </defs>
    <g id="rocket" stroke="none" stroke-width="1" fill="none" fill-rule="evenodd">
        <mask id="mask-2" fill="white">
            <use xlink:href="#path-1"></use>
        </mask>
        <g fill-rule="nonzero"></g>
        <g id="🎨-color" mask="url(#mask-2)" fill="#000000">
            <rect id="🎨-Color" x="0" y="0" width="24" height="24"></rect>
        </g>
    </g>
</svg>