<?xml version="1.0" encoding="UTF-8"?>
<svg width="24px" height="24px" viewBox="0 0 24 24" version="1.1" xmlns="http://www.w3.org/2000/svg" xmlns:xlink="http://www.w3.org/1999/xlink">
    <!-- Generator: Sketch 52.5 (67469) - http://www.bohemiancoding.com/sketch -->
    <title>route</title>
    <desc>Created with Sketch.</desc>
    <defs>
        <path d="M18.25,14.5 L14.5,14.5 C13.8125,14.5 13.25,13.9375 13.25,13.25 C13.25,12.5625 13.8125,12 14.5,12 L18.25,12 C18.25,12 22,7.82031248 22,5.74999997 C22,3.67968746 20.3203125,1.99999995 18.25,1.99999995 C16.1796875,1.99999995 14.5,3.67968746 14.5,5.74999997 C14.5,6.74609372 15.3671875,8.22656248 16.2695313,9.49999999 L14.5,9.49999999 C12.4335938,9.49999999 10.75,11.1835937 10.75,13.25 C10.75,15.3164063 12.4335938,17 14.5,17 L18.25,17 C18.9375,17 19.5,17.5625 19.5,18.25 C19.5,18.9375 18.9375,19.5 18.25,19.5 L9.24609374,19.5 C8.62109373,20.46875 7.92578123,21.3632813 7.39843748,22.0000001 L18.25,22.0000001 C20.3164063,22.0000001 22,20.3164063 22,18.25 C22,16.1835938 20.3164063,14.5 18.25,14.5 Z M18.25,4.49999996 C18.9414063,4.49999996 19.5,5.05859372 19.5,5.74999997 C19.5,6.44140622 18.9414063,6.99999997 18.25,6.99999997 C17.5585938,6.99999997 17,6.44140622 17,5.74999997 C17,5.05859372 17.5585938,4.49999996 18.25,4.49999996 Z M5.74999997,12 C3.67968746,12 1.99999995,13.6796875 1.99999995,15.75 C1.99999995,17.8203125 5.74999997,22.0000001 5.74999997,22.0000001 C5.74999997,22.0000001 9.49999999,17.8203125 9.49999999,15.75 C9.49999999,13.6796875 7.82031248,12 5.74999997,12 Z M5.74999997,17 C5.05859372,17 4.49999996,16.4414063 4.49999996,15.75 C4.49999996,15.0585938 5.05859372,14.5 5.74999997,14.5 C6.44140622,14.5 6.99999997,15.0585938 6.99999997,15.75 C6.99999997,16.4414063 6.44140622,17 5.74999997,17 Z" id="path-1"></path>
    </defs>
    <g id="route" stroke="none" stroke-width="1" fill="none" fill-rule="evenodd">
        <mask id="mask-2" fill="white">
            <use xlink:href="#path-1"></use>
        </mask>
        <g fill-rule="nonzero"></g>
        <g id="🎨-color" mask="url(#mask-2)" fill="#000000">
            <rect id="🎨-Color" x="0" y="0" width="24" height="24"></rect>
        </g>
    </g>
</svg>