<?xml version="1.0" encoding="UTF-8"?>
<svg width="24px" height="24px" viewBox="0 0 24 24" version="1.1" xmlns="http://www.w3.org/2000/svg" xmlns:xlink="http://www.w3.org/1999/xlink">
    <!-- Generator: Sketch 52.5 (67469) - http://www.bohemiancoding.com/sketch -->
    <title>rss-square</title>
    <desc>Created with Sketch.</desc>
    <defs>
        <path d="M18.875,3.24999996 L5.12499997,3.24999996 C4.08945309,3.24999996 3.24999996,4.08945309 3.24999996,5.12499997 L3.24999996,18.875 C3.24999996,19.9105469 4.08945309,20.75 5.12499997,20.75 L18.875,20.75 C19.9105469,20.75 20.75,19.9105469 20.75,18.875 L20.75,5.12499997 C20.75,4.08945309 19.9105469,3.24999996 18.875,3.24999996 Z M7.62499998,18.25 C6.5894531,18.25 5.74999997,17.4105469 5.74999997,16.375 C5.74999997,15.3394531 6.5894531,14.5 7.62499998,14.5 C8.66054686,14.5 9.49999999,15.3394531 9.49999999,16.375 C9.49999999,17.4105469 8.66054686,18.25 7.62499998,18.25 Z M13.7786328,18.25 L12.4374219,18.25 C12.2026172,18.25 12.0057422,18.0689063 11.9904687,17.8346094 C11.7867969,14.7076563 9.28566405,12.2127344 6.16535153,12.0094922 C5.93109372,11.9942578 5.74999997,11.7973437 5.74999997,11.5625781 L5.74999997,10.2213672 C5.74999997,9.96609374 5.96359372,9.76132811 6.2185156,9.77507811 C10.5367187,10.0084375 13.9918359,13.4678906 14.2249219,17.7814844 C14.2386719,18.0364063 14.0339063,18.25 13.7786328,18.25 Z M17.803125,18.25 L16.4619531,18.25 C16.2212891,18.25 16.0254297,18.0592969 16.015586,17.8188282 C15.7969141,12.4854297 11.5154297,8.20316404 6.18121091,7.9844531 C5.94070309,7.97457029 5.74999997,7.77871092 5.74999997,7.53804685 L5.74999997,6.19687497 C5.74999997,5.94476559 5.95851559,5.74124997 6.21042966,5.75031247 C12.7662891,5.98566403 18.0155078,11.2655859 18.2496875,17.7895703 C18.25875,18.0414844 18.0552344,18.25 17.803125,18.25 Z" id="path-1"></path>
    </defs>
    <g id="rss-square" stroke="none" stroke-width="1" fill="none" fill-rule="evenodd">
        <mask id="mask-2" fill="white">
            <use xlink:href="#path-1"></use>
        </mask>
        <g fill-rule="nonzero"></g>
        <g id="🎨-color" mask="url(#mask-2)" fill="#000000">
            <rect id="🎨-Color" x="0" y="0" width="24" height="24"></rect>
        </g>
    </g>
</svg>