<?xml version="1.0" encoding="UTF-8"?>
<svg width="24px" height="24px" viewBox="0 0 24 24" version="1.1" xmlns="http://www.w3.org/2000/svg" xmlns:xlink="http://www.w3.org/1999/xlink">
    <!-- Generator: Sketch 52.5 (67469) - http://www.bohemiancoding.com/sketch -->
    <title>rss</title>
    <desc>Created with Sketch.</desc>
    <defs>
        <path d="M8.25316404,18.2483985 C8.25316404,19.63 7.13316404,20.75 5.75156247,20.75 C4.3699609,20.75 3.24999996,19.63 3.24999996,18.2483985 C3.24999996,16.8667969 4.36999996,15.7467969 5.75160153,15.7467969 C7.1332031,15.7467969 8.25316404,16.866836 8.25316404,18.2483985 Z M15.1148828,20.0941016 C14.7885547,14.0550391 9.95140624,9.21179686 3.9058984,8.88511717 C3.54906246,8.8658203 3.24999996,9.15253905 3.24999996,9.5098828 L3.24999996,11.3875781 C3.24999996,11.7162891 3.50351558,11.9919531 3.8315234,12.0132813 C8.19996092,12.2978125 11.7015625,15.7907031 11.9866797,20.1684375 C12.0080469,20.4964454 12.2837109,20.749961 12.6123828,20.749961 L14.4900781,20.749961 C14.847461,20.75 15.1341797,20.4509375 15.1148828,20.0941016 Z M20.7496094,20.1053516 C20.4217188,10.9717578 13.0728516,3.57988277 3.8946484,3.25039058 C3.54191402,3.23773433 3.24999996,3.52269527 3.24999996,3.87562496 L3.24999996,5.75328122 C3.24999996,6.09019528 3.51699215,6.36441403 3.85363277,6.37824216 C11.3215625,6.6844531 17.315625,12.6796484 17.6217969,20.1464063 C17.635586,20.4830469 17.9098047,20.7500391 18.2467578,20.7500391 L20.1244141,20.7500391 C20.4773047,20.75 20.7622657,20.458086 20.7496094,20.1053516 Z" id="path-1"></path>
    </defs>
    <g id="rss" stroke="none" stroke-width="1" fill="none" fill-rule="evenodd">
        <mask id="mask-2" fill="white">
            <use xlink:href="#path-1"></use>
        </mask>
        <g fill-rule="nonzero"></g>
        <g id="🎨-color" mask="url(#mask-2)" fill="#000000">
            <rect id="🎨-Color" x="0" y="0" width="24" height="24"></rect>
        </g>
    </g>
</svg>