<?xml version="1.0" encoding="UTF-8"?>
<svg width="24px" height="24px" viewBox="0 0 24 24" version="1.1" xmlns="http://www.w3.org/2000/svg" xmlns:xlink="http://www.w3.org/1999/xlink">
    <!-- Generator: Sketch 52.5 (67469) - http://www.bohemiancoding.com/sketch -->
    <title>ruble-sign</title>
    <desc>Created with Sketch.</desc>
    <defs>
        <path d="M13.85,14.5 C17.175,14.5 19.5,12.1774219 19.5,8.83871092 C19.5,5.49999997 17.175,3.24999996 13.85,3.24999996 L7.46874998,3.24999996 C7.20988279,3.24999996 6.99999997,3.45988277 6.99999997,3.71874996 L6.99999997,11.7903125 L4.96874996,11.7903125 C4.70988278,11.7903125 4.49999996,12.0001953 4.49999996,12.2590625 L4.49999996,14.03125 C4.49999996,14.2901172 4.70988278,14.5 4.96874996,14.5 L6.99999997,14.5 L6.99999997,15.75 L4.96874996,15.75 C4.70988278,15.75 4.49999996,15.9598828 4.49999996,16.21875 L4.49999996,17.78125 C4.49999996,18.0401172 4.70988278,18.25 4.96874996,18.25 L6.99999997,18.25 L6.99999997,20.28125 C6.99999997,20.5401172 7.20988279,20.75 7.46874998,20.75 L9.75624999,20.75 C10.0151172,20.75 10.225,20.5401172 10.225,20.28125 L10.225,18.25 L16.53125,18.25 C16.7901172,18.25 17,18.0401172 17,17.78125 L17,16.21875 C17,15.9598828 16.7901172,15.75 16.53125,15.75 L10.225,15.75 L10.225,14.5 L13.85,14.5 Z M10.225,5.93546872 L13.3,5.93546872 C15.125,5.93546872 16.225,7.0725781 16.225,8.83871092 C16.225,10.6290234 15.125,11.7903125 13.25,11.7903125 L10.225,11.7903125 L10.225,5.93546872 Z" id="path-1"></path>
    </defs>
    <g id="ruble-sign" stroke="none" stroke-width="1" fill="none" fill-rule="evenodd">
        <mask id="mask-2" fill="white">
            <use xlink:href="#path-1"></use>
        </mask>
        <g fill-rule="nonzero"></g>
        <g id="🎨-color" mask="url(#mask-2)" fill="#000000">
            <rect id="🎨-Color" x="0" y="0" width="24" height="24"></rect>
        </g>
    </g>
</svg>