<?xml version="1.0" encoding="UTF-8"?>
<svg width="24px" height="24px" viewBox="0 0 24 24" version="1.1" xmlns="http://www.w3.org/2000/svg" xmlns:xlink="http://www.w3.org/1999/xlink">
    <!-- Generator: Sketch 52.5 (67469) - http://www.bohemiancoding.com/sketch -->
    <title>ruler-combined</title>
    <desc>Created with Sketch.</desc>
    <defs>
        <path d="M8.24999998,13.25 L6.06249997,13.25 C5.88984372,13.25 5.74999997,13.1101563 5.74999997,12.9375 L5.74999997,12.3125 C5.74999997,12.1398438 5.88984372,12 6.06249997,12 L8.24999998,12 L8.24999998,9.49999999 L6.06249997,9.49999999 C5.88984372,9.49999999 5.74999997,9.36015624 5.74999997,9.18749999 L5.74999997,8.56249998 C5.74999997,8.38984373 5.88984372,8.24999998 6.06249997,8.24999998 L8.24999998,8.24999998 L8.24999998,5.74999997 L6.06249997,5.74999997 C5.88984372,5.74999997 5.74999997,5.61015622 5.74999997,5.43749997 L5.74999997,4.81249996 C5.74999997,4.63984371 5.88984372,4.49999996 6.06249997,4.49999996 L8.24999998,4.49999996 L8.24999998,3.24999996 C8.24999998,2.55976558 7.69023435,1.99999995 6.99999997,1.99999995 L3.24999996,1.99999995 C2.55976558,1.99999995 1.99999995,2.55976558 1.99999995,3.24999996 L1.99999995,20.75 C1.99999995,20.8582032 2.03554683,20.9546875 2.06132808,21.0546875 L8.24999998,14.8664063 L8.24999998,13.25 Z M20.75,15.75 L19.5,15.75 L19.5,17.9375 C19.5,18.1101563 19.3601563,18.25 19.1875,18.25 L18.5625,18.25 C18.3898438,18.25 18.25,18.1101563 18.25,17.9375 L18.25,15.75 L15.75,15.75 L15.75,17.9375 C15.75,18.1101563 15.6101563,18.25 15.4375,18.25 L14.8125,18.25 C14.6398438,18.25 14.5,18.1101563 14.5,17.9375 L14.5,15.75 L12,15.75 L12,17.9375 C12,18.1101563 11.8601562,18.25 11.6875,18.25 L11.0625,18.25 C10.8898437,18.25 10.75,18.1101563 10.75,17.9375 L10.75,15.75 L9.13398436,15.75 L2.94531245,21.9386719 C3.04531246,21.9644532 3.14218746,22.0000001 3.24999996,22.0000001 L20.75,22.0000001 C21.4402344,22.0000001 22.0000001,21.4402344 22.0000001,20.75 L22.0000001,17 C22.0000001,16.3097656 21.4402344,15.75 20.75,15.75 Z" id="path-1"></path>
    </defs>
    <g id="ruler-combined" stroke="none" stroke-width="1" fill="none" fill-rule="evenodd">
        <mask id="mask-2" fill="white">
            <use xlink:href="#path-1"></use>
        </mask>
        <g fill-rule="nonzero"></g>
        <g id="🎨-color" mask="url(#mask-2)" fill="#000000">
            <rect id="🎨-Color" x="0" y="0" width="24" height="24"></rect>
        </g>
    </g>
</svg>