<?xml version="1.0" encoding="UTF-8"?>
<svg width="24px" height="24px" viewBox="0 0 24 24" version="1.1" xmlns="http://www.w3.org/2000/svg" xmlns:xlink="http://www.w3.org/1999/xlink">
    <!-- Generator: Sketch 52.5 (67469) - http://www.bohemiancoding.com/sketch -->
    <title>ruler-horizontal</title>
    <desc>Created with Sketch.</desc>
    <defs>
        <path d="M20.8888889,7.55555553 L19.2222223,7.55555553 L19.2222223,10.6111111 C19.2222223,10.7645833 19.0979167,10.8888889 18.9444445,10.8888889 L18.3888889,10.8888889 C18.2354167,10.8888889 18.1111111,10.7645833 18.1111111,10.6111111 L18.1111111,7.55555553 L15.8888889,7.55555553 L15.8888889,10.6111111 C15.8888889,10.7645833 15.7645834,10.8888889 15.6111111,10.8888889 L15.0555556,10.8888889 C14.9020833,10.8888889 14.7777778,10.7645833 14.7777778,10.6111111 L14.7777778,7.55555553 L12.5555556,7.55555553 L12.5555556,10.6111111 C12.5555556,10.7645833 12.43125,10.8888889 12.2777778,10.8888889 L11.7222222,10.8888889 C11.56875,10.8888889 11.4444444,10.7645833 11.4444444,10.6111111 L11.4444444,7.55555553 L9.22222221,7.55555553 L9.22222221,10.6111111 C9.22222221,10.7645833 9.09791665,10.8888889 8.94444443,10.8888889 L8.38888887,10.8888889 C8.23541665,10.8888889 8.11111109,10.7645833 8.11111109,10.6111111 L8.11111109,7.55555553 L5.88888886,7.55555553 L5.88888886,10.6111111 C5.88888886,10.7645833 5.7645833,10.8888889 5.61111108,10.8888889 L5.05555552,10.8888889 C4.9020833,10.8888889 4.77777774,10.7645833 4.77777774,10.6111111 L4.77777774,7.55555553 L3.11111107,7.55555553 C2.4975694,7.55555553 1.99999995,8.05312498 1.99999995,8.66666665 L1.99999995,15.3333334 C1.99999995,15.946875 2.4975694,16.4444445 3.11111107,16.4444445 L20.8888889,16.4444445 C21.5024306,16.4444445 22.0000001,15.946875 22.0000001,15.3333334 L22.0000001,8.66666665 C22.0000001,8.05312498 21.5024306,7.55555553 20.8888889,7.55555553 Z" id="path-1"></path>
    </defs>
    <g id="ruler-horizontal" stroke="none" stroke-width="1" fill="none" fill-rule="evenodd">
        <mask id="mask-2" fill="white">
            <use xlink:href="#path-1"></use>
        </mask>
        <g></g>
        <g id="🎨-color" mask="url(#mask-2)" fill="#000000">
            <rect id="🎨-Color" x="0" y="0" width="24" height="24"></rect>
        </g>
    </g>
</svg>