<?xml version="1.0" encoding="UTF-8"?>
<svg width="24px" height="24px" viewBox="0 0 24 24" version="1.1" xmlns="http://www.w3.org/2000/svg" xmlns:xlink="http://www.w3.org/1999/xlink">
    <!-- Generator: Sketch 52.5 (67469) - http://www.bohemiancoding.com/sketch -->
    <title>ruler</title>
    <desc>Created with Sketch.</desc>
    <defs>
        <path d="M21.8658347,9.22932916 L19.3822153,5.00156003 C19.1076443,4.5335413 18.49922,4.37441494 18.024961,4.64274567 L15.8720749,5.86271448 L17.7347894,9.03588142 C17.8034322,9.15444616 17.7628705,9.30109203 17.6443058,9.36973478 L17.2137286,9.61310451 C17.0951638,9.68174726 16.9422777,9.64118564 16.873635,9.52262089 L15.0109205,6.35257407 L13.2886116,7.32917314 L14.1591264,8.80811231 C14.2277691,8.92667705 14.1872075,9.07332292 14.0686428,9.14196566 L13.6380655,9.3853354 C13.5195008,9.45397815 13.3666147,9.41341652 13.2979719,9.29485178 L12.4274571,7.81903274 L10.7051482,8.79563181 L12.5709828,11.9687988 C12.6396256,12.0842434 12.599064,12.2340094 12.4804992,12.3026521 L12.049922,12.5460218 C11.9313573,12.6146646 11.7784711,12.574103 11.7098284,12.4555382 L9.84711387,9.28237128 L8.12480497,10.2589704 L8.9953198,11.7379095 C9.06396254,11.8564743 9.02340092,12.0031201 8.90483618,12.0717629 L8.47425895,12.3151326 C8.35569421,12.3837754 8.20280809,12.3432137 8.13416535,12.224649 L7.26365052,10.7425897 L5.54134162,11.7191888 L7.40405614,14.8923557 C7.47269889,15.0078003 7.43213726,15.1575663 7.31357252,15.2262091 L6.88299529,15.4695788 C6.76443055,15.5382215 6.61154443,15.4976599 6.54290169,15.3790952 L4.68018717,12.2152886 L2.52730104,13.4352574 C2.05304207,13.7067083 1.88767546,14.3026521 2.16224644,14.7706708 L4.6458658,19.0015601 C4.92043678,19.4695788 5.52886112,19.6287052 6.00312009,19.3603745 L21.5039002,10.5647426 C21.9781592,10.2964118 22.1404057,9.69734788 21.8658347,9.22932916 Z" id="path-1"></path>
    </defs>
    <g id="ruler" stroke="none" stroke-width="1" fill="none" fill-rule="evenodd">
        <mask id="mask-2" fill="white">
            <use xlink:href="#path-1"></use>
        </mask>
        <g></g>
        <g id="🎨-color" mask="url(#mask-2)" fill="#000000">
            <rect id="🎨-Color" x="0" y="0" width="24" height="24"></rect>
        </g>
    </g>
</svg>