<?xml version="1.0" encoding="UTF-8"?>
<svg width="24px" height="24px" viewBox="0 0 24 24" version="1.1" xmlns="http://www.w3.org/2000/svg" xmlns:xlink="http://www.w3.org/1999/xlink">
    <!-- Generator: Sketch 52.5 (67469) - http://www.bohemiancoding.com/sketch -->
    <title>ruler-vertical</title>
    <desc>Created with Sketch.</desc>
    <defs>
        <path d="M13.5625,18.25 C13.3898438,18.25 13.25,18.1101563 13.25,17.9375 L13.25,17.3125 C13.25,17.1398438 13.3898438,17 13.5625,17 L17,17 L17,14.5 L13.5625,14.5 C13.3898438,14.5 13.25,14.3601563 13.25,14.1875 L13.25,13.5625 C13.25,13.3898438 13.3898438,13.25 13.5625,13.25 L17,13.25 L17,10.75 L13.5625,10.75 C13.3898438,10.75 13.25,10.6101562 13.25,10.4375 L13.25,9.81249999 C13.25,9.63984374 13.3898438,9.49999999 13.5625,9.49999999 L17,9.49999999 L17,6.99999997 L13.5625,6.99999997 C13.3898438,6.99999997 13.25,6.86015622 13.25,6.68749997 L13.25,6.06249997 C13.25,5.88984372 13.3898438,5.74999997 13.5625,5.74999997 L17,5.74999997 L17,3.24999996 C17,2.55976558 16.4402344,1.99999995 15.75,1.99999995 L8.24999998,1.99999995 C7.5597656,1.99999995 6.99999997,2.55976558 6.99999997,3.24999996 L6.99999997,20.75 C6.99999997,21.4402344 7.5597656,22.0000001 8.24999998,22.0000001 L15.75,22.0000001 C16.4402344,22.0000001 17,21.4402344 17,20.75 L17,18.25 L13.5625,18.25 Z" id="path-1"></path>
    </defs>
    <g id="ruler-vertical" stroke="none" stroke-width="1" fill="none" fill-rule="evenodd">
        <mask id="mask-2" fill="white">
            <use xlink:href="#path-1"></use>
        </mask>
        <g></g>
        <g id="🎨-color" mask="url(#mask-2)" fill="#000000">
            <rect id="🎨-Color" x="0" y="0" width="24" height="24"></rect>
        </g>
    </g>
</svg>