<?xml version="1.0" encoding="UTF-8"?>
<svg width="24px" height="24px" viewBox="0 0 24 24" version="1.1" xmlns="http://www.w3.org/2000/svg" xmlns:xlink="http://www.w3.org/1999/xlink">
    <!-- Generator: Sketch 52.5 (67469) - http://www.bohemiancoding.com/sketch -->
    <title>running</title>
    <desc>Created with Sketch.</desc>
    <defs>
        <path d="M14.5,5.74999997 C15.5355469,5.74999997 16.375,4.91054684 16.375,3.87499996 C16.375,2.83945308 15.5355469,1.99999995 14.5,1.99999995 C13.4644531,1.99999995 12.625,2.83945308 12.625,3.87499996 C12.625,4.91054684 13.4644531,5.74999997 14.5,5.74999997 Z M8.31601561,14.4011719 L7.7378906,15.7496094 L5.12499997,15.7496094 C4.43476559,15.7496094 3.87499996,16.309375 3.87499996,16.9996094 C3.87499996,17.6898438 4.43476559,18.2496094 5.12499997,18.2496094 L8.15039061,18.2496094 C8.90234373,18.2496094 9.57929686,17.8027344 9.87343749,17.1132813 L10.2167969,16.3117188 L9.79999999,16.065625 C9.12343749,15.6660156 8.62578123,15.0746094 8.31601561,14.4011719 Z M18.875,10.7496094 L17.1550782,10.7496094 L16.1371094,8.66953123 C15.6488281,7.67148435 14.7523438,6.94179685 13.7238281,6.67968747 L10.9472656,5.85390622 C9.84179686,5.58828122 8.69062498,5.83242184 7.7894531,6.52343747 L6.23984372,7.7113281 C5.69179684,8.13124998 5.58789059,8.91562498 6.00859372,9.46367186 C6.42929685,10.0117187 7.21328123,10.1144531 7.76093748,9.69492186 L9.31132811,8.50703123 C9.61093749,8.27695311 9.99257811,8.19453123 10.2984375,8.26718748 L10.8726562,8.43789061 L9.40937499,11.8515625 C8.91640623,13.003125 9.35820311,14.3519531 10.4367187,14.9886719 L13.75625,16.9484375 L12.6832031,20.3753907 C12.4769531,21.0339844 12.84375,21.7351563 13.5023438,21.9414063 C13.6269531,21.9804688 13.7527344,21.9992188 13.8765625,21.9992188 C14.4082031,21.9992188 14.9011719,21.6566407 15.06875,21.1222657 L16.3046875,17.1746094 C16.5355469,16.3632813 16.1917969,15.4917969 15.459375,15.05 L13.0671875,13.6382813 L14.2902344,10.5804687 L15.0820313,12.1988281 C15.3945313,12.8371094 16.0554688,13.2492188 16.7660156,13.2492188 L18.875,13.2492188 C19.5652344,13.2492188 20.125,12.6894531 20.125,11.9992187 C20.125,11.3089844 19.5652344,10.7496094 18.875,10.7496094 Z" id="path-1"></path>
    </defs>
    <g id="running" stroke="none" stroke-width="1" fill="none" fill-rule="evenodd">
        <mask id="mask-2" fill="white">
            <use xlink:href="#path-1"></use>
        </mask>
        <g fill-rule="nonzero"></g>
        <g id="🎨-color" mask="url(#mask-2)" fill="#000000">
            <rect id="🎨-Color" x="0" y="0" width="24" height="24"></rect>
        </g>
    </g>
</svg>