<?xml version="1.0" encoding="UTF-8"?>
<svg width="24px" height="24px" viewBox="0 0 24 24" version="1.1" xmlns="http://www.w3.org/2000/svg" xmlns:xlink="http://www.w3.org/1999/xlink">
    <!-- Generator: Sketch 52.5 (67469) - http://www.bohemiancoding.com/sketch -->
    <title>rupee-sign</title>
    <desc>Created with Sketch.</desc>
    <defs>
        <path d="M17.78125,5.74999997 C18.0401172,5.74999997 18.25,5.54011716 18.25,5.28124997 L18.25,3.71874996 C18.25,3.45988277 18.0401172,3.24999996 17.78125,3.24999996 L6.21874997,3.24999996 C5.95988278,3.24999996 5.74999997,3.45988277 5.74999997,3.71874996 L5.74999997,5.46671872 C5.74999997,5.72558591 5.95988278,5.93546872 6.21874997,5.93546872 L9.54999999,5.93546872 C10.6167187,5.93546872 11.4351953,6.3244531 11.9316406,6.99999997 L6.21874997,6.99999997 C5.95988278,6.99999997 5.74999997,7.20988279 5.74999997,7.46874998 L5.74999997,9.03124999 C5.74999997,9.29011717 5.95988278,9.49999999 6.21874997,9.49999999 L12.4201953,9.49999999 C12.1773438,10.9096094 11.1326562,11.7903125 9.49999999,11.7903125 L6.21874997,11.7903125 C5.95988278,11.7903125 5.74999997,12.0001953 5.74999997,12.2590625 L5.74999997,14.3298438 C5.74999997,14.4606641 5.80468747,14.5855469 5.90082028,14.6742969 L12.3481641,20.6257032 C12.4347532,20.7056194 12.5482622,20.7499965 12.6660938,20.75 L15.8911719,20.75 C16.3178906,20.75 16.5226563,20.22625 16.2091016,19.9367969 L10.3152734,14.4963281 C13.3035156,14.4049219 15.438086,12.4105859 15.7183203,9.49999999 L17.78125,9.49999999 C18.0401172,9.49999999 18.25,9.29011717 18.25,9.03124999 L18.25,7.46874998 C18.25,7.20988279 18.0401172,6.99999997 17.78125,6.99999997 L15.4886719,6.99999997 C15.3525,6.54917966 15.1652344,6.1310156 14.9319531,5.74999997 L17.78125,5.74999997 Z" id="path-1"></path>
    </defs>
    <g id="rupee-sign" stroke="none" stroke-width="1" fill="none" fill-rule="evenodd">
        <mask id="mask-2" fill="white">
            <use xlink:href="#path-1"></use>
        </mask>
        <g></g>
        <g id="🎨-color" mask="url(#mask-2)" fill="#000000">
            <rect id="🎨-Color" x="0" y="0" width="24" height="24"></rect>
        </g>
    </g>
</svg>