<?xml version="1.0" encoding="UTF-8"?>
<svg width="24px" height="24px" viewBox="0 0 24 24" version="1.1" xmlns="http://www.w3.org/2000/svg" xmlns:xlink="http://www.w3.org/1999/xlink">
    <!-- Generator: Sketch 52.5 (67469) - http://www.bohemiancoding.com/sketch -->
    <title>sad-cry</title>
    <desc>Created with Sketch.</desc>
    <defs>
        <path d="M12,2.31249995 C6.64843747,2.31249995 2.31249995,6.64843747 2.31249995,12 C2.31249995,17.3515625 6.64843747,21.6875 12,21.6875 C17.3515625,21.6875 21.6875,17.3515625 21.6875,12 C21.6875,6.64843747 17.3515625,2.31249995 12,2.31249995 Z M17.625,17.40625 L17.625,12.9375 C17.625,12.421875 17.203125,12 16.6875,12 C16.171875,12 15.75,12.421875 15.75,12.9375 L15.75,18.8515625 C14.6367188,19.4609375 13.359375,19.8125 12,19.8125 C10.640625,19.8125 9.36328124,19.4609375 8.24999998,18.8515625 L8.24999998,12.9375 C8.24999998,12.421875 7.82812498,12 7.31249998,12 C6.79687497,12 6.37499997,12.421875 6.37499997,12.9375 L6.37499997,17.40625 C5.02343747,16 4.18749996,14.0976563 4.18749996,12 C4.18749996,7.69140623 7.69140623,4.18749996 12,4.18749996 C16.3085938,4.18749996 19.8125,7.69140623 19.8125,12 C19.8125,14.0976563 18.9765625,16.0039063 17.625,17.40625 Z M10.3515625,11.1601562 C10.5234375,11.0664062 10.6210937,10.8710937 10.5898437,10.6757812 C10.4335937,9.69140624 9.25390624,9.03124999 8.25390623,9.03124999 C7.25390623,9.03124999 6.07031247,9.69140624 5.91796872,10.6757812 C5.88671872,10.8710937 5.98437497,11.0664062 6.15624997,11.1601562 C6.32812497,11.2539062 6.54296872,11.2304687 6.69140622,11.0976562 L7.06249998,10.765625 C7.64062498,10.25 8.86718748,10.25 9.44531249,10.765625 L9.81640624,11.0976562 C9.91406249,11.1875 10.125,11.2851562 10.3515625,11.1601562 Z M15.75,9.03124999 C14.7460938,9.03124999 13.5664063,9.69140624 13.4140625,10.6757812 C13.3828125,10.8710937 13.4804688,11.0664062 13.6523438,11.1601562 C13.828125,11.2539062 14.0390625,11.2304687 14.1875,11.0976562 L14.5585938,10.765625 C15.1367188,10.25 16.3632813,10.25 16.9414063,10.765625 L17.3125,11.0976562 C17.4101563,11.1835937 17.625,11.28125 17.8476563,11.1601562 C18.0195313,11.0664062 18.1171875,10.8710937 18.0859375,10.6757812 C17.9335938,9.69140624 16.7539063,9.03124999 15.75,9.03124999 Z M12,12.625 C10.7929687,12.625 9.81249999,13.7460938 9.81249999,15.125 C9.81249999,16.5039063 10.7929687,17.625 12,17.625 C13.2070313,17.625 14.1875,16.5039063 14.1875,15.125 C14.1875,13.7460938 13.2070313,12.625 12,12.625 Z" id="path-1"></path>
    </defs>
    <g id="sad-cry" stroke="none" stroke-width="1" fill="none" fill-rule="evenodd">
        <mask id="mask-2" fill="white">
            <use xlink:href="#path-1"></use>
        </mask>
        <g fill-rule="nonzero"></g>
        <g id="🎨-color" mask="url(#mask-2)" fill="#000000">
            <rect id="🎨-Color" x="0" y="0" width="24" height="24"></rect>
        </g>
    </g>
</svg>