<?xml version="1.0" encoding="UTF-8"?>
<svg width="24px" height="24px" viewBox="0 0 24 24" version="1.1" xmlns="http://www.w3.org/2000/svg" xmlns:xlink="http://www.w3.org/1999/xlink">
    <!-- Generator: Sketch 52.5 (67469) - http://www.bohemiancoding.com/sketch -->
    <title>safari</title>
    <desc>Created with Sketch.</desc>
    <defs>
        <path d="M11.2539062,12.03125 C11.2539062,11.6757812 11.5117187,11.3398437 11.890625,11.3398437 C12.2382813,11.3398437 12.5703125,11.5898437 12.5703125,11.96875 C12.5703125,12.3242188 12.3203125,12.6601563 11.9414062,12.6601563 C11.5898437,12.6601563 11.2539062,12.3984375 11.2539062,12.03125 Z M21.6875,12 C21.6875,17.3515625 17.3515625,21.6875 12,21.6875 C6.64843747,21.6875 2.31249995,17.3515625 2.31249995,12 C2.31249995,6.64843747 6.64843747,2.31249995 12,2.31249995 C17.3515625,2.31249995 21.6875,6.64843747 21.6875,12 Z M20.6484375,12 C20.6484375,7.22265623 16.7773438,3.35156246 12,3.35156246 C7.22265623,3.35156246 3.35156246,7.22265623 3.35156246,12 C3.35156246,16.7773438 7.22265623,20.6484375 12,20.6484375 C16.7773438,20.6484375 20.6484375,16.7773438 20.6484375,12 Z M17.8164063,15.7734375 C17.8164063,15.9140625 18.3242188,16.171875 18.453125,16.25 C17.3828125,17.8710938 15.7265625,19.0390625 13.8476563,19.5039063 L13.6757813,18.78125 C13.6640625,18.6835938 13.6015625,18.671875 13.5117188,18.671875 C13.4375,18.671875 13.3945313,18.78125 13.4023438,18.8359375 L13.5742188,19.5703125 C13.0546875,19.6796875 12.5273438,19.734375 11.9960937,19.734375 C10.578125,19.734375 9.18359374,19.3359375 7.97265623,18.5976563 C8.03906248,18.4882813 8.44921873,17.8945313 8.44921873,17.8085938 C8.44921873,17.734375 8.38281248,17.6679688 8.30859373,17.6679688 C8.15624998,17.6679688 7.83203123,18.3164063 7.73437498,18.4453125 C6.10156247,17.3632813 4.92187496,15.6875 4.46874996,13.7734375 L5.21484372,13.609375 C5.30078122,13.5859375 5.32421872,13.5234375 5.32421872,13.4453125 C5.32421872,13.3710938 5.21484372,13.328125 5.15234372,13.3359375 L4.42187496,13.5039063 C4.32421871,13.0078125 4.26953121,12.5078125 4.26953121,12 C4.26953121,10.5507812 4.67968746,9.12499999 5.44921872,7.90234373 C5.55859372,7.96874998 6.07812497,8.32421873 6.16406247,8.32421873 C6.23828122,8.32421873 6.30468747,8.26953123 6.30468747,8.19531248 C6.30468747,8.04296873 5.73046872,7.75390623 5.60156247,7.66406248 C6.70312497,6.05468747 8.37890623,4.89453121 10.28125,4.46484371 L10.4453125,5.18749997 C10.46875,5.27343747 10.53125,5.29687497 10.609375,5.29687497 C10.6875,5.29687497 10.7265625,5.18749997 10.71875,5.12499997 L10.5546875,4.41015621 C11.03125,4.32421871 11.515625,4.26953121 12.0039063,4.26953121 C13.453125,4.26953121 14.8671875,4.67968746 16.1015625,5.44921872 C16.0273438,5.55859372 15.6796875,6.06640622 15.6796875,6.15234372 C15.6796875,6.22656247 15.734375,6.29296872 15.8085938,6.29296872 C15.9609375,6.29296872 16.25,5.73046872 16.328125,5.60156247 C17.9296875,6.68359372 19.0742188,8.33593748 19.5195313,10.21875 L18.9140625,10.3476562 C18.8164063,10.3710937 18.8046875,10.4335937 18.8046875,10.5195312 C18.8046875,10.59375 18.9140625,10.6367187 18.96875,10.6289062 L19.5859375,10.4882812 C19.6835938,10.984375 19.7382813,11.4921875 19.7382813,12 C19.7382813,13.4179688 19.3476563,14.8125 18.6132813,16.0117188 C18.5039063,15.9570313 18.0507813,15.6328125 17.9648438,15.6328125 C17.8828125,15.6328125 17.8164063,15.6992188 17.8164063,15.7734375 Z M16.5195313,6.31249997 C16.0117188,6.78906247 11.2773437,11.1445312 11.1445312,11.3710937 L7.37109373,17.640625 C7.86718748,17.1757813 12.6132813,12.796875 12.734375,12.5898438 L16.5195313,6.31249997 Z" id="path-1"></path>
    </defs>
    <g id="safari" stroke="none" stroke-width="1" fill="none" fill-rule="evenodd">
        <mask id="mask-2" fill="white">
            <use xlink:href="#path-1"></use>
        </mask>
        <g fill-rule="nonzero"></g>
        <g id="🎨-color" mask="url(#mask-2)" fill="#000000">
            <rect id="🎨-Color" x="0" y="0" width="24" height="24"></rect>
        </g>
    </g>
</svg>