<?xml version="1.0" encoding="UTF-8"?>
<svg width="24px" height="24px" viewBox="0 0 24 24" version="1.1" xmlns="http://www.w3.org/2000/svg" xmlns:xlink="http://www.w3.org/1999/xlink">
    <!-- Generator: Sketch 52.5 (67469) - http://www.bohemiancoding.com/sketch -->
    <title>sass</title>
    <desc>Created with Sketch.</desc>
    <defs>
        <path d="M19.199377,13.1183801 C18.5015577,13.1214953 17.8971963,13.2897196 17.3925234,13.5389408 C17.2087228,13.1682243 17.0186916,12.8442368 16.987539,12.6012461 C16.9501558,12.317757 16.9096573,12.1495327 16.9532711,11.8130841 C16.9968848,11.4766355 17.1931464,11 17.1900312,10.9657321 C17.1869159,10.9314642 17.1464175,10.7601246 16.7445483,10.7570093 C16.3426791,10.7538941 15.9968848,10.834891 15.9563863,10.94081 C15.9158879,11.046729 15.8380062,11.2866044 15.7912773,11.5358255 C15.7196262,11.9003115 14.987539,13.2024922 14.5732087,13.8816199 C14.4361371,13.6168224 14.3208723,13.3831776 14.2959502,13.1962617 C14.258567,12.9127726 14.2180685,12.7445483 14.2616823,12.4080997 C14.305296,12.0716511 14.5015576,11.5950156 14.4984424,11.5607477 C14.4953271,11.5264797 14.4548287,11.3551402 14.0529595,11.3520249 C13.6510904,11.3489097 13.305296,11.4299065 13.2647975,11.5358255 C13.2242991,11.6417445 13.1806854,11.8909657 13.0996885,12.1308411 C13.0186916,12.3707165 12.0436137,14.5389408 11.788162,15.1028038 C11.6573209,15.3894081 11.5451713,15.6199377 11.4641745,15.775701 C11.3831776,15.9314642 11.4579439,15.7850467 11.4517134,15.8037383 C11.3831776,15.9376947 11.3426791,16.0124611 11.3426791,16.0124611 L11.3426791,16.0155763 C11.2897196,16.1152648 11.2305296,16.2056075 11.2024922,16.2056075 C11.1838006,16.2056075 11.1433022,15.9439253 11.211838,15.5856698 C11.3582554,14.8317757 11.7040498,13.6604361 11.7009346,13.6199377 C11.6978193,13.5981308 11.7663551,13.3956386 11.4735202,13.2866044 C11.1900311,13.1838006 11.0872274,13.3551402 11.0623053,13.3551402 C11.0373832,13.3551402 11.0186916,13.4174455 11.0186916,13.4174455 C11.0186916,13.4174455 11.3333333,12.0965732 10.4143302,12.0965732 C9.84112148,12.0965732 9.04361369,12.7258567 8.65109033,13.2959502 C8.40498441,13.4299065 7.87227412,13.7196262 7.31152646,14.0280374 C7.09657318,14.1464175 6.87538938,14.2679128 6.66666664,14.3831776 C6.65109032,14.3676013 6.63862926,14.3520249 6.62305293,14.3364486 C5.50778813,13.1464175 3.44859809,12.305296 3.5358255,10.7071651 C3.56697815,10.1246106 3.76947036,8.59501556 7.49532708,6.73831773 C10.5482866,5.2180685 12.9906542,5.63551399 13.411215,6.5638629 C14.0155763,7.88785045 12.105919,10.3520249 8.93457942,10.7071651 C7.72585668,10.8411215 7.09034265,10.3738318 6.93146415,10.1993769 C6.76635511,10.0155763 6.741433,10.0062305 6.6791277,10.0404984 C6.57632396,10.0965732 6.64174452,10.258567 6.6791277,10.3551402 C6.77258564,10.6012461 7.16199375,11.0373832 7.82554515,11.2554517 C8.40809967,11.4454829 9.82554516,11.5514019 11.5389408,10.8878505 C13.4641745,10.1464174 14.9626168,8.08099687 14.5233645,6.35202489 C14.0747664,4.59501554 11.1619938,4.01869155 8.40498441,4.9968847 C6.76323985,5.57943922 4.98753891,6.49532708 3.71028033,7.6884735 C2.19314637,9.10903425 1.95015571,10.3457944 2.04984419,10.8629283 C2.40498438,12.6978193 4.9345794,13.894081 5.94704047,14.7788162 C5.89719623,14.8068536 5.85046726,14.8317757 5.80685355,14.8566978 C5.29906539,15.1090343 3.37071647,16.1183801 2.88785042,17.1838006 C2.34267908,18.3925234 2.9781931,19.258567 3.39563859,19.3769471 C4.69781928,19.7383178 6.03115262,19.0872274 6.74766353,18.0186916 C7.46417443,16.9501558 7.37694702,15.5545172 7.04672895,14.9190031 C7.04361368,14.9096573 7.03738315,14.9034268 7.03426789,14.894081 C7.16510901,14.8161994 7.2990654,14.7383178 7.43302178,14.6604362 C7.69158876,14.5077882 7.94392521,14.3676013 8.16510902,14.2461059 C8.04049842,14.5825545 7.95015574,14.987539 7.90342677,15.5732087 C7.847352,16.258567 8.1308411,17.1464175 8.49844235,17.4953271 C8.66043612,17.6479751 8.8566978,17.6510904 8.97819313,17.6510904 C9.40809968,17.6510904 9.60124609,17.2959502 9.81619937,16.8722742 C10.0809969,16.3551402 10.3146417,15.7538941 10.3146417,15.7538941 C10.3146417,15.7538941 10.0218068,17.3800623 10.8224299,17.3800623 C11.1152648,17.3800623 11.4080997,17.0031153 11.5389408,16.8099689 L11.5389408,16.8130841 C11.5389408,16.8130841 11.5451713,16.8006231 11.5607477,16.775701 C11.5919003,16.728972 11.6074766,16.7009346 11.6074766,16.7009346 L11.6074766,16.6915888 C11.7258567,16.4890966 11.9844237,16.0249221 12.3738318,15.258567 C12.8785047,14.2679128 13.3613707,13.0311527 13.3613707,13.0311527 C13.3613707,13.0311527 13.4049844,13.3333333 13.5545171,13.834891 C13.6417446,14.1308411 13.8255452,14.4548287 13.9719626,14.7694704 C13.8535826,14.9314642 13.7819315,15.0249221 13.7819315,15.0249221 C13.7819315,15.0249221 13.7819315,15.0280374 13.7850467,15.0311527 C13.6915888,15.1557633 13.5856698,15.2897196 13.4766355,15.4205608 C13.0778816,15.894081 12.6043614,16.4361371 12.5420561,16.5919003 C12.4672897,16.775701 12.4859813,16.9127726 12.6292835,17.0186916 C12.7352025,17.0996885 12.9221184,17.1121496 13.1183801,17.0965732 C13.4766355,17.0716511 13.728972,16.9844237 13.8504673,16.9283489 C14.0436137,16.8598131 14.2679128,16.7507788 14.4797508,16.5981309 C14.8691589,16.3115265 15.105919,15.9003115 15.0841122,15.3582555 C15.0716511,15.05919 14.9750779,14.7601246 14.8566978,14.4797508 C14.8909657,14.4299066 14.9283489,14.3769471 14.9626168,14.3239876 C15.5794393,13.423676 16.0560748,12.4361371 16.0560748,12.4361371 C16.0560748,12.4361371 16.0996885,12.7383178 16.2492212,13.2398754 C16.3239876,13.4922118 16.470405,13.7694704 16.6043614,14.0404985 C16.0249221,14.5109034 15.6666667,15.0560748 15.5420561,15.4143302 C15.3115265,16.0778816 15.4922119,16.3769471 15.8317757,16.4454829 C15.9844237,16.4766355 16.2024922,16.4049844 16.364486,16.3364486 C16.5669782,16.2679128 16.8099689,16.1588785 17.0373832,15.9906542 C17.4267913,15.7040499 17.8037383,15.3021807 17.7788162,14.7570094 C17.7694704,14.5109034 17.7009346,14.2647975 17.6105919,14.0280374 C18.0996885,13.8224299 18.7352025,13.7102804 19.5451714,13.8037383 C21.2803739,14.0062305 21.6199377,15.0903427 21.5545172,15.5420561 C21.4890966,15.9968848 21.1246106,16.2461059 21.0031153,16.3208723 C20.88162,16.3956387 20.8442368,16.423676 20.8535826,16.4797508 C20.8691589,16.5607477 20.9252337,16.5576324 21.0280374,16.5389408 C21.1713396,16.5140187 21.9376948,16.1713396 21.9719627,15.3333334 C22.0218069,14.2741433 21.0031153,13.1090343 19.199377,13.1183801 Z M5.82554514,17.6261683 C5.25233641,18.2523365 4.44859809,18.4890966 4.1028037,18.2897197 C3.73208719,18.0747664 3.87850463,17.152648 4.58566974,16.4859813 C5.01557629,16.0809969 5.57009343,15.7071651 5.93769467,15.4766355 C6.02180682,15.4267913 6.14330215,15.3520249 6.29283486,15.2616823 C6.31775698,15.2461059 6.33021804,15.2398754 6.33021804,15.2398754 C6.35825542,15.2211838 6.38940807,15.2056075 6.42056072,15.1869159 C6.6791277,16.1339564 6.42990651,16.9688474 5.82554514,17.6261683 Z M10.012461,14.7788162 C9.8130841,15.2679128 9.39252335,16.5140187 9.13707164,16.4485982 C8.9190031,16.3925234 8.78504671,15.4423676 9.09345793,14.5077882 C9.24922117,14.0373832 9.57943924,13.4766355 9.77570092,13.258567 C10.0903427,12.9065421 10.4361371,12.7943925 10.5171339,12.9345794 C10.6261682,13.1183801 10.1370716,14.4735203 10.012461,14.7788162 Z M13.470405,16.4299066 C13.3862928,16.4735203 13.3084112,16.5015577 13.271028,16.4797508 C13.2429907,16.4641745 13.305296,16.4049844 13.305296,16.4049844 C13.305296,16.4049844 13.7383178,15.94081 13.9096573,15.728972 C14.0093458,15.6043614 14.1246106,15.4579439 14.2492212,15.2959502 C14.2492212,15.3115265 14.2523365,15.3271028 14.2523365,15.3457944 C14.2492212,15.9034268 13.7133956,16.2803739 13.470405,16.4299066 Z M16.1370717,15.8224299 C16.0747664,15.7788162 16.0841122,15.6323988 16.2928349,15.1775701 C16.3738318,15 16.5607477,14.7009346 16.8847352,14.4143302 C16.9221184,14.5327103 16.9439253,14.6448598 16.9439253,14.7507788 C16.94081,15.4517134 16.4392524,15.7133957 16.1370717,15.8224299 Z" id="path-1"></path>
    </defs>
    <g id="sass" stroke="none" stroke-width="1" fill="none" fill-rule="evenodd">
        <mask id="mask-2" fill="white">
            <use xlink:href="#path-1"></use>
        </mask>
        <g fill-rule="nonzero"></g>
        <g id="🎨-color" mask="url(#mask-2)" fill="#000000">
            <rect id="🎨-Color" x="0" y="0" width="24" height="24"></rect>
        </g>
    </g>
</svg>