<?xml version="1.0" encoding="UTF-8"?>
<svg width="24px" height="24px" viewBox="0 0 24 24" version="1.1" xmlns="http://www.w3.org/2000/svg" xmlns:xlink="http://www.w3.org/1999/xlink">
    <!-- Generator: Sketch 52.5 (67469) - http://www.bohemiancoding.com/sketch -->
    <title>save</title>
    <desc>Created with Sketch.</desc>
    <defs>
        <path d="M20.2008204,7.07582029 L16.9241797,3.79917965 C16.572551,3.44754834 16.0956393,3.25000256 15.5983594,3.24999996 L5.12499997,3.24999996 C4.08945309,3.24999996 3.24999996,4.08945309 3.24999996,5.12499997 L3.24999996,18.875 C3.24999996,19.9105469 4.08945309,20.75 5.12499997,20.75 L18.875,20.75 C19.9105469,20.75 20.75,19.9105469 20.75,18.875 L20.75,8.40164061 C20.7499974,7.90436068 20.5524517,7.427449 20.2008204,7.07582029 Z M13.875,5.12499997 L13.875,8.24999998 L8.87499998,8.24999998 L8.87499998,5.12499997 L13.875,5.12499997 Z M18.640625,18.875 L5.35937497,18.875 C5.22993323,18.875 5.12499997,18.7700668 5.12499997,18.640625 L5.12499997,5.35937497 C5.12499997,5.22993323 5.22993323,5.12499997 5.35937497,5.12499997 L6.99999997,5.12499997 L6.99999997,9.18749999 C6.99999997,9.70527343 7.41972654,10.125 7.93749998,10.125 L14.8125,10.125 C15.3302735,10.125 15.75,9.70527343 15.75,9.18749999 L15.75,5.27664059 L18.8063672,8.33300779 C18.8503194,8.37696737 18.8750075,8.43658702 18.875,8.49874998 L18.875,18.640625 C18.875,18.7700668 18.7700668,18.875 18.640625,18.875 Z M12,11.0625 C10.1045703,11.0625 8.56249998,12.6045703 8.56249998,14.5 C8.56249998,16.3954297 10.1045703,17.9375 12,17.9375 C13.8954297,17.9375 15.4375,16.3954297 15.4375,14.5 C15.4375,12.6045703 13.8954297,11.0625 12,11.0625 Z M12,16.0625 C11.1384375,16.0625 10.4375,15.3615625 10.4375,14.5 C10.4375,13.6384375 11.1384375,12.9375 12,12.9375 C12.8615625,12.9375 13.5625,13.6384375 13.5625,14.5 C13.5625,15.3615625 12.8615625,16.0625 12,16.0625 Z" id="path-1"></path>
    </defs>
    <g id="save" stroke="none" stroke-width="1" fill="none" fill-rule="evenodd">
        <mask id="mask-2" fill="white">
            <use xlink:href="#path-1"></use>
        </mask>
        <g fill-rule="nonzero"></g>
        <g id="🎨-color" mask="url(#mask-2)" fill="#000000">
            <rect id="🎨-Color" x="0" y="0" width="24" height="24"></rect>
        </g>
    </g>
</svg>