<?xml version="1.0" encoding="UTF-8"?>
<svg width="24px" height="24px" viewBox="0 0 24 24" version="1.1" xmlns="http://www.w3.org/2000/svg" xmlns:xlink="http://www.w3.org/1999/xlink">
    <!-- Generator: Sketch 52.5 (67469) - http://www.bohemiancoding.com/sketch -->
    <title>schlix</title>
    <desc>Created with Sketch.</desc>
    <defs>
        <path d="M16.9414063,8.16015623 L14.8242188,6.35937497 L17.6914063,4.83593746 L20.75,6.56249997 L16.9414063,8.16015623 Z M10.75,6.76953122 L12.5351563,5.66796872 L13.890625,7.01953123 L11.7265625,8.15234373 L10.75,6.76953122 Z M8.20703123,7.02734373 L9.45312499,6.16406247 L10.125,7.27343748 L8.69140623,8.15234373 L8.20703123,7.02734373 Z M7.29687498,10.4726562 L6.95312497,9.11328124 L8.10937498,8.39843748 L8.62109373,9.77734374 L7.29687498,10.4726562 Z M6.46874997,7.20312498 L7.40234373,6.49609372 L7.74999998,7.43359373 L6.70703122,8.14843748 L6.46874997,7.20312498 Z M5.55468747,10.0664062 L5.41406247,8.95703123 L6.28515622,8.35156248 L6.52343747,9.47265624 L5.55468747,10.0664062 Z M4.35937496,10.7148437 L5.17187497,10.2148437 L5.30078122,11.5195312 L4.40624996,11.9882812 L4.35937496,10.7148437 Z M3.30468746,12.46875 L4.05468746,12.0703125 L4.07031246,13.5625 L3.24999996,13.90625 L3.30468746,12.46875 Z M5.61328122,14.7851563 L4.50781246,15.109375 L4.44531246,13.28125 L5.42578122,12.8632813 L5.61328122,14.7851563 Z M7.11718748,12.28125 L5.90234372,12.7890625 L5.69921872,11.1953125 L6.76953122,10.6328125 L7.11718748,12.28125 Z M8.06249998,16.7265625 L6.43749997,16.9570313 L6.12109372,14.4765625 L7.49609373,14.0546875 L8.06249998,16.7265625 Z M9.17578124,11.2617187 L10.0039062,13.4921875 L8.19921873,14.0234375 L7.66406248,11.9101562 L9.17578124,11.2617187 Z M12.5234375,20.265625 L9.75390624,20.1367188 L8.80468748,16.3945313 L10.9609375,16.0585938 L12.5234375,20.265625 Z M9.20703124,9.33984374 L10.8554687,8.46484373 L11.9492187,10.2578125 L9.96484374,11.0898437 L9.20703124,9.33984374 Z M10.8085937,13.046875 L13.203125,12.3164063 L15.265625,15.6992188 L12.1484375,16.140625 L10.8085937,13.046875 Z M12.8164063,9.70312499 L15.4453125,8.57812498 L18.0039063,11.1328125 L14.5429688,12.15625 L12.8164063,9.70312499 Z" id="path-1"></path>
    </defs>
    <g id="schlix" stroke="none" stroke-width="1" fill="none" fill-rule="evenodd">
        <mask id="mask-2" fill="white">
            <use xlink:href="#path-1"></use>
        </mask>
        <g fill-rule="nonzero"></g>
        <g id="🎨-color" mask="url(#mask-2)" fill="#000000">
            <rect id="🎨-Color" x="0" y="0" width="24" height="24"></rect>
        </g>
    </g>
</svg>