<?xml version="1.0" encoding="UTF-8"?>
<svg width="24px" height="24px" viewBox="0 0 24 24" version="1.1" xmlns="http://www.w3.org/2000/svg" xmlns:xlink="http://www.w3.org/1999/xlink">
    <!-- Generator: Sketch 52.5 (67469) - http://www.bohemiancoding.com/sketch -->
    <title>school</title>
    <desc>Created with Sketch.</desc>
    <defs>
        <path d="M1.99999995,11 L1.99999995,19.5 C1.99999995,19.77625 2.22374995,20 2.49999995,20 L4.99999996,20 L4.99999996,9.99999999 L2.99999995,9.99999999 C2.44781245,9.99999999 1.99999995,10.4478125 1.99999995,11 Z M13.25,9.49999999 L12.5,9.49999999 L12.5,8.24999998 C12.5,8.11187498 12.388125,7.99999998 12.25,7.99999998 L11.75,7.99999998 C11.611875,7.99999998 11.5,8.11187498 11.5,8.24999998 L11.5,10.25 C11.5,10.388125 11.611875,10.5 11.75,10.5 L13.25,10.5 C13.388125,10.5 13.5,10.388125 13.5,10.25 L13.5,9.74999999 C13.5,9.61187499 13.388125,9.49999999 13.25,9.49999999 Z M17.5546875,7.50124998 L12.5546875,4.16781246 C12.218743,3.94405886 11.781257,3.94405886 11.4453125,4.16781246 L6.44531247,7.50124998 C6.16716917,7.68668614 6.00007258,7.9988343 5.99999997,8.33312498 L5.99999997,20 L9.99999999,20 L9.99999999,15.5 C9.99999999,15.22375 10.22375,15 10.5,15 L13.5,15 C13.77625,15 14,15.22375 14,15.5 L14,20 L18,20 L18,8.33343748 C18,7.99906248 17.8328125,7.68656248 17.5546875,7.50124998 Z M12,12 C10.619375,12 9.49999999,10.880625 9.49999999,9.49999999 C9.49999999,8.11937498 10.619375,6.99999997 12,6.99999997 C13.380625,6.99999997 14.5,8.11937498 14.5,9.49999999 C14.5,10.880625 13.380625,12 12,12 Z M21,9.99999999 L19,9.99999999 L19,20 L21.5,20 C21.77625,20 22.0000001,19.77625 22.0000001,19.5 L22.0000001,11 C22.0000001,10.4478125 21.5521875,9.99999999 21,9.99999999 Z" id="path-1"></path>
    </defs>
    <g id="school" stroke="none" stroke-width="1" fill="none" fill-rule="evenodd">
        <mask id="mask-2" fill="white">
            <use xlink:href="#path-1"></use>
        </mask>
        <g fill-rule="nonzero"></g>
        <g id="🎨-color" mask="url(#mask-2)" fill="#000000">
            <rect id="🎨-Color" x="0" y="0" width="24" height="24"></rect>
        </g>
    </g>
</svg>