<?xml version="1.0" encoding="UTF-8"?>
<svg width="24px" height="24px" viewBox="0 0 24 24" version="1.1" xmlns="http://www.w3.org/2000/svg" xmlns:xlink="http://www.w3.org/1999/xlink">
    <!-- Generator: Sketch 52.5 (67469) - http://www.bohemiancoding.com/sketch -->
    <title>scribd</title>
    <desc>Created with Sketch.</desc>
    <defs>
        <path d="M6.13281247,11.8710937 C5.50390622,11.1289062 5.16796872,10.078125 5.16406247,8.74999998 C5.16406247,4.82812496 8.10156248,2.7695312 11.6953125,2.7695312 C15.546875,2.7070312 17.8203125,4.68359371 18.8945313,5.52734372 L16.921875,8.34374998 L15.4648438,7.38281248 L16.515625,5.87499997 C15.0898438,4.93749996 13.4140625,4.44921871 11.7109375,4.47656246 C9.73046874,4.44531246 7.34765623,5.53906247 7.34765623,7.45312498 C7.34765623,8.18359373 7.78515623,8.26171873 8.46484373,8.06249998 C9.37499999,7.85546873 10.1015625,8.08593748 10.6445312,8.60937498 C11.6757812,9.55859374 11.5507812,11.25 10.6171875,12.1992188 C9.47656249,13.3515625 7.28906248,13.265625 6.13281247,11.8710937 Z M18.5429688,12.1015625 C17.9375,11.3671875 17.0234375,10.953125 16.0742188,10.984375 C14.5859375,10.90625 13.296875,12.078125 13.3203125,13.609375 C13.2929688,14.265625 13.5546875,14.8984375 14.0390625,15.3398438 C14.5898438,15.8828125 15.328125,16.109375 16.2382813,15.9023438 C16.9179688,15.703125 17.3554688,15.78125 17.3554688,16.5117188 C17.3554688,16.6796875 17.3359375,16.84375 17.3007813,17.0078125 C16.6484375,18.6054688 14.9765625,19.5234375 12.5585938,19.5234375 C10.53125,19.53125 8.55859373,18.8828125 6.92968747,17.6757813 L8.24609373,16.1367188 L6.85546872,15.0664063 L4.48046871,17.8710938 L5.08203122,18.4101563 C7.13281248,20.2382813 9.78515624,21.2421875 12.53125,21.2304688 C14.5390625,21.2304688 16.21875,20.8203125 17.75,19.5078125 C19.9804688,17.5 19.8671875,13.6796875 18.5429688,12.1015625 Z" id="path-1"></path>
    </defs>
    <g id="scribd" stroke="none" stroke-width="1" fill="none" fill-rule="evenodd">
        <mask id="mask-2" fill="white">
            <use xlink:href="#path-1"></use>
        </mask>
        <g fill-rule="nonzero"></g>
        <g id="🎨-color" mask="url(#mask-2)" fill="#000000">
            <rect id="🎨-Color" x="0" y="0" width="24" height="24"></rect>
        </g>
    </g>
</svg>