<?xml version="1.0" encoding="UTF-8"?>
<svg width="24px" height="24px" viewBox="0 0 24 24" version="1.1" xmlns="http://www.w3.org/2000/svg" xmlns:xlink="http://www.w3.org/1999/xlink">
    <!-- Generator: Sketch 52.5 (67469) - http://www.bohemiancoding.com/sketch -->
    <title>scroll</title>
    <desc>Created with Sketch.</desc>
    <defs>
        <path d="M3.49999996,3.99999996 C2.67281245,3.99999996 1.99999995,4.67281246 1.99999995,5.49999997 L1.99999995,7.49999998 C1.99999995,7.77624998 2.22374995,7.99999998 2.49999995,7.99999998 L4.99999996,7.99999998 L4.99999996,5.49999997 C4.99999996,4.67281246 4.32718746,3.99999996 3.49999996,3.99999996 Z M9.99999999,16.8928125 L9.99999999,15 L19,15 L19,6.99999997 C19,5.34562497 17.654375,3.99999996 16,3.99999996 L5.48718747,3.99999996 C5.80437497,4.41906246 5.99999997,4.93499996 5.99999997,5.49999997 L5.99999997,17 C5.99999997,18.2146875 7.08281248,19.1765625 8.33593748,18.9725 C9.31937499,18.8125 9.99999999,17.889375 9.99999999,16.8928125 Z M11,16 L11,17 C11,18.6540625 9.65437499,20 7.99999998,20 L18.5,20 C20.433125,20 22.0000001,18.433125 22.0000001,16.5 C22.0000001,16.22375 21.77625,16 21.5,16 L11,16 Z" id="path-1"></path>
    </defs>
    <g id="scroll" stroke="none" stroke-width="1" fill="none" fill-rule="evenodd">
        <mask id="mask-2" fill="white">
            <use xlink:href="#path-1"></use>
        </mask>
        <g fill-rule="nonzero"></g>
        <g id="🎨-color" mask="url(#mask-2)" fill="#000000">
            <rect id="🎨-Color" x="0" y="0" width="24" height="24"></rect>
        </g>
    </g>
</svg>