<?xml version="1.0" encoding="UTF-8"?>
<svg width="24px" height="24px" viewBox="0 0 24 24" version="1.1" xmlns="http://www.w3.org/2000/svg" xmlns:xlink="http://www.w3.org/1999/xlink">
    <!-- Generator: Sketch 52.5 (67469) - http://www.bohemiancoding.com/sketch -->
    <title>searchengin</title>
    <desc>Created with Sketch.</desc>
    <defs>
        <path d="M11.6328125,7.08984373 L9.00781249,8.19140623 L9.00781249,3.68749996 L6.87109372,11.1210937 L9.00781249,10.1757812 L9.00781249,15.265625 L11.6328125,7.08984373 Z M8.38281248,3.31249996 L8.33203123,3.49609371 L7.73828123,5.56249997 C6.16406247,6.16796872 5.04687497,7.69531248 5.04687497,9.48046874 C5.04687497,11.5234375 6.38671872,13.2265625 8.30468748,13.6015625 L8.30468748,15.6953125 C5.26171872,15.2851563 3.01562496,12.640625 3.01562496,9.48437499 C3.01562496,6.33984372 5.35156247,3.73437496 8.38281248,3.31249996 Z M20.546875,20.78125 C20.109375,21.21875 19.6445313,21.2617188 19.4296875,21.1914063 C19.21875,21.1210938 18.3710938,20.4140625 17.0703125,19.4570313 C15.7695313,18.4960938 15.7578125,18.0625 15.390625,17.2421875 C15.0234375,16.4257813 14.203125,15.578125 13.1445313,15.1953125 L12.765625,14.6210938 C11.8007812,15.28125 10.6953125,15.671875 9.58984374,15.7421875 L9.67187499,15.484375 L10.2929687,13.5507813 C12.109375,13.0859375 13.453125,11.4414062 13.453125,9.48046874 C13.453125,7.35156248 11.953125,5.49218747 9.70312499,5.29687497 L9.70312499,3.26171871 C12.953125,3.46093746 15.515625,6.17187497 15.515625,9.48437499 C15.515625,10.796875 15.078125,12.0117188 14.3828125,13.015625 L14.953125,13.390625 C15.3359375,14.4492188 16.1835938,15.265625 17,15.6328125 C17.8164063,16 18.2578125,16.0117188 19.21875,17.3125 C20.1796875,18.609375 20.8867188,19.4570313 20.9570313,19.6679688 C21.0273438,19.8789063 20.984375,20.34375 20.546875,20.78125 Z M20.1601563,20.0820313 C20.1601563,19.9101563 20.0195313,19.7695313 19.8476563,19.7695313 C19.6757813,19.7695313 19.5351563,19.9101563 19.5351563,20.0820313 C19.5351563,20.2539063 19.6757813,20.3945313 19.8476563,20.3945313 C20.0195313,20.3945313 20.1601563,20.2539063 20.1601563,20.0820313 Z" id="path-1"></path>
    </defs>
    <g id="searchengin" stroke="none" stroke-width="1" fill="none" fill-rule="evenodd">
        <mask id="mask-2" fill="white">
            <use xlink:href="#path-1"></use>
        </mask>
        <g fill-rule="nonzero"></g>
        <g id="🎨-color" mask="url(#mask-2)" fill="#000000">
            <rect id="🎨-Color" x="0" y="0" width="24" height="24"></rect>
        </g>
    </g>
</svg>