<?xml version="1.0" encoding="UTF-8"?>
<svg width="24px" height="24px" viewBox="0 0 24 24" version="1.1" xmlns="http://www.w3.org/2000/svg" xmlns:xlink="http://www.w3.org/1999/xlink">
    <!-- Generator: Sketch 52.5 (67469) - http://www.bohemiancoding.com/sketch -->
    <title>search-location</title>
    <desc>Created with Sketch.</desc>
    <defs>
        <path d="M21.6896687,19.277193 L17.8023392,15.3906433 C17.6269006,15.2152047 17.3890838,15.1177388 17.1395712,15.1177388 L16.5040936,15.1177388 C17.580117,13.7415205 18.2194932,12.0109162 18.2194932,10.1278752 C18.2194932,5.64873291 14.5894737,2.01949313 10.1099415,2.01949313 C5.63040932,2.01949313 1.99999995,5.64873291 1.99999995,10.1278752 C1.99999995,14.6070176 5.63001946,18.2362573 10.1099415,18.2362573 C11.9929825,18.2362573 13.7243665,17.5968811 15.1005848,16.5208577 L15.1005848,17.1563353 C15.1005848,17.405848 15.1980507,17.6436647 15.3734893,17.8191033 L19.2608187,21.7056531 C19.6272905,22.0721248 20.2198831,22.0721248 20.5824562,21.7056531 L21.68577,20.6023392 C22.0522418,20.2358675 22.0522418,19.6436648 21.6896687,19.277193 Z M10.1099415,15.7411306 C7.00896684,15.7411306 4.4959064,13.2327485 4.4959064,10.1278752 C4.4959064,7.02729042 7.00467834,4.51461985 10.1099415,4.51461985 C13.2109162,4.51461985 15.7239766,7.02300192 15.7239766,10.1278752 C15.7239766,13.22846 13.2152047,15.7411306 10.1099415,15.7411306 Z M10.1107212,6.38596488 C8.52085768,6.38596488 7.23196879,7.67446392 7.23196879,9.26432747 C7.23196879,10.5493177 9.11345028,12.8920078 9.83430798,13.7423002 C9.902752,13.8241975 10.0039891,13.8715272 10.1107212,13.8715272 C10.2174534,13.8715272 10.3186905,13.8241975 10.3871345,13.7423002 C11.1079922,12.8920078 12.9894737,10.5497076 12.9894737,9.26432747 C12.9894737,7.67446392 11.7005848,6.38596488 10.1107212,6.38596488 Z M10.1107212,10.128655 C9.59376217,10.128655 9.17504872,9.70955165 9.17504872,9.19298244 C9.17504872,8.67602338 9.59415203,8.25730992 10.1107212,8.25730992 C10.6272904,8.25730992 11.0463938,8.67602338 11.0463938,9.19298244 C11.0463938,9.70955165 10.6272904,10.128655 10.1107212,10.128655 Z" id="path-1"></path>
    </defs>
    <g id="search-location" stroke="none" stroke-width="1" fill="none" fill-rule="evenodd">
        <mask id="mask-2" fill="white">
            <use xlink:href="#path-1"></use>
        </mask>
        <g fill-rule="nonzero"></g>
        <g id="🎨-color" mask="url(#mask-2)" fill="#000000">
            <rect id="🎨-Color" x="0" y="0" width="24" height="24"></rect>
        </g>
    </g>
</svg>