<?xml version="1.0" encoding="UTF-8"?>
<svg width="24px" height="24px" viewBox="0 0 24 24" version="1.1" xmlns="http://www.w3.org/2000/svg" xmlns:xlink="http://www.w3.org/1999/xlink">
    <!-- Generator: Sketch 52.5 (67469) - http://www.bohemiancoding.com/sketch -->
    <title>search</title>
    <desc>Created with Sketch.</desc>
    <defs>
        <path d="M21.7076024,19.2592593 L17.8206628,15.3723197 C17.6452242,15.1968811 17.4074074,15.0994152 17.1578948,15.0994152 L16.5224172,15.0994152 C17.5984406,13.7231969 18.2378168,11.9922027 18.2378168,10.1091618 C18.2378168,5.6296296 14.6081871,1.99999995 10.128655,1.99999995 C5.64912278,1.99999995 2.01949313,5.6296296 2.01949313,10.1091618 C2.01949313,14.588694 5.64912278,18.2183236 10.128655,18.2183236 C12.0116959,18.2183236 13.7426901,17.5789474 15.1189084,16.502924 L15.1189084,17.1384016 C15.1189084,17.3879143 15.2163743,17.625731 15.3918129,17.8011696 L19.2787525,21.6881092 C19.6452242,22.0545809 20.2378168,22.0545809 20.6003899,21.6881092 L21.7037038,20.5847954 C22.0701755,20.2183236 22.0701755,19.625731 21.7076024,19.2592593 Z M10.128655,15.0994152 C7.37231966,15.0994152 5.13840153,12.8693957 5.13840153,10.1091618 C5.13840153,7.35282649 7.36842103,5.11890835 10.128655,5.11890835 C12.8849903,5.11890835 15.1189084,7.34892785 15.1189084,10.1091618 C15.1189084,12.8654971 12.8888889,15.0994152 10.128655,15.0994152 Z" id="path-1"></path>
    </defs>
    <g id="search" stroke="none" stroke-width="1" fill="none" fill-rule="evenodd">
        <mask id="mask-2" fill="white">
            <use xlink:href="#path-1"></use>
        </mask>
        <g fill-rule="nonzero"></g>
        <g id="🎨-color" mask="url(#mask-2)" fill="#000000">
            <rect id="🎨-Color" x="0" y="0" width="24" height="24"></rect>
        </g>
    </g>
</svg>