<?xml version="1.0" encoding="UTF-8"?>
<svg width="24px" height="24px" viewBox="0 0 24 24" version="1.1" xmlns="http://www.w3.org/2000/svg" xmlns:xlink="http://www.w3.org/1999/xlink">
    <!-- Generator: Sketch 52.5 (67469) - http://www.bohemiancoding.com/sketch -->
    <title>search-dollar</title>
    <desc>Created with Sketch.</desc>
    <defs>
        <path d="M21.6896687,19.277193 L17.8023392,15.3906433 C17.6269006,15.2152047 17.3890838,15.1177388 17.1395712,15.1177388 L16.5040936,15.1177388 C17.580117,13.7415205 18.2194932,12.0109162 18.2194932,10.1278752 C18.2194932,5.64873291 14.5894737,2.01949313 10.1099415,2.01949313 C5.63040932,2.01949313 1.99999995,5.64873291 1.99999995,10.1278752 C1.99999995,14.6070176 5.63001946,18.2362573 10.1099415,18.2362573 C11.9929825,18.2362573 13.7243665,17.5968811 15.1005848,16.5208577 L15.1005848,17.1563353 C15.1005848,17.405848 15.1980507,17.6436647 15.3734893,17.8191033 L19.2608187,21.7056531 C19.6272905,22.0721248 20.2198831,22.0721248 20.5824562,21.7056531 L21.68577,20.6023392 C22.0522418,20.2358675 22.0522418,19.6436648 21.6896687,19.277193 Z M10.1099415,15.7411306 C7.00896684,15.7411306 4.4959064,13.2327485 4.4959064,10.1278752 C4.4959064,7.02729042 7.00467834,4.51461985 10.1099415,4.51461985 C13.2109162,4.51461985 15.7239766,7.02300192 15.7239766,10.1278752 C15.7239766,13.22846 13.2152047,15.7411306 10.1099415,15.7411306 Z M11.1668616,9.79415204 L9.41208576,9.26783624 C9.21091617,9.20740739 9.07017542,9.00350876 9.07017542,8.77153994 C9.07017542,8.48810914 9.27680311,8.25730992 9.53021441,8.25730992 L10.6261209,8.25730992 C10.8038986,8.25730992 10.9754386,8.30760232 11.1259259,8.40233916 C11.2522417,8.48148146 11.4128655,8.4768031 11.5208577,8.37387912 L11.9789474,7.93684208 C12.1165692,7.80545807 12.1087719,7.57777776 11.9567251,7.46354774 C11.6019493,7.19727093 11.1738791,7.04366469 10.7337232,7.02105261 L10.7337232,6.38596488 C10.7337232,6.2136452 10.594152,6.07407404 10.4218324,6.07407404 L9.79805067,6.07407404 C9.62573098,6.07407404 9.48615983,6.2136452 9.48615983,6.38596488 L9.48615983,7.01442493 C8.56491226,7.03898633 7.8222222,7.81559452 7.8222222,8.77153994 C7.8222222,9.55009745 8.32865495,10.245614 9.05341129,10.4631579 L10.8081871,10.9894737 C11.0093567,11.0499025 11.1500975,11.2538012 11.1500975,11.48577 C11.1500975,11.7692008 10.9434698,12 10.6900585,12 L9.5945419,12 C9.41676412,12 9.24522416,11.9497076 9.09473683,11.8549708 C8.96842104,11.7758285 8.80779725,11.7805068 8.69980505,11.8834308 L8.24171538,12.3204678 C8.10409355,12.4518519 8.11189082,12.6795322 8.2639376,12.7937622 C8.61871343,13.060039 9.04678361,13.2136452 9.48693956,13.2362573 L9.48693956,13.871345 C9.48693956,14.0436647 9.62651071,14.1832359 9.7988304,14.1832359 L10.4226121,14.1832359 C10.5949318,14.1832359 10.7345029,14.0436647 10.7345029,13.871345 L10.7345029,13.242885 C11.6557505,13.2183236 12.3984405,12.4421053 12.3984405,11.48577 C12.3984405,10.7072125 11.8920078,10.0116959 11.1668616,9.79415204 Z" id="path-1"></path>
    </defs>
    <g id="search-dollar" stroke="none" stroke-width="1" fill="none" fill-rule="evenodd">
        <mask id="mask-2" fill="white">
            <use xlink:href="#path-1"></use>
        </mask>
        <g fill-rule="nonzero"></g>
        <g id="🎨-color" mask="url(#mask-2)" fill="#000000">
            <rect id="🎨-Color" x="0" y="0" width="24" height="24"></rect>
        </g>
    </g>
</svg>