<?xml version="1.0" encoding="UTF-8"?>
<svg width="24px" height="24px" viewBox="0 0 24 24" version="1.1" xmlns="http://www.w3.org/2000/svg" xmlns:xlink="http://www.w3.org/1999/xlink">
    <!-- Generator: Sketch 52.5 (67469) - http://www.bohemiancoding.com/sketch -->
    <title>search-minus</title>
    <desc>Created with Sketch.</desc>
    <defs>
        <path d="M13.871345,9.4853801 L13.871345,10.7329435 C13.871345,10.9902534 13.6608187,11.2007797 13.4035088,11.2007797 L6.85380114,11.2007797 C6.5964912,11.2007797 6.38596488,10.9902534 6.38596488,10.7329435 L6.38596488,9.4853801 C6.38596488,9.22807016 6.5964912,9.01754384 6.85380114,9.01754384 L13.4035088,9.01754384 C13.6608187,9.01754384 13.871345,9.22807016 13.871345,9.4853801 Z M21.7076024,20.5847954 L20.6042885,21.6881092 C20.2378168,22.0545809 19.6452242,22.0545809 19.2826511,21.6881092 L15.3918129,17.8011696 C15.2163743,17.625731 15.1189084,17.3879143 15.1189084,17.1384016 L15.1189084,16.502924 C13.7426901,17.5789474 12.0116959,18.2183236 10.128655,18.2183236 C5.64912278,18.2183236 2.01949313,14.588694 2.01949313,10.1091618 C2.01949313,5.6296296 5.64912278,1.99999995 10.128655,1.99999995 C14.6081871,1.99999995 18.2378168,5.6296296 18.2378168,10.1091618 C18.2378168,11.9922027 17.5984406,13.7231969 16.5224172,15.0994152 L17.1578948,15.0994152 C17.4074074,15.0994152 17.6452242,15.1968811 17.8206628,15.3723197 L21.7076024,19.2592593 C22.0701755,19.625731 22.0701755,20.2183236 21.7076024,20.5847954 Z M15.4307992,10.1091618 C15.4307992,7.17738789 13.0604289,4.80701751 10.128655,4.80701751 C7.19688107,4.80701751 4.82651069,7.17738789 4.82651069,10.1091618 C4.82651069,13.0409357 7.19688107,15.4113061 10.128655,15.4113061 C13.0604289,15.4113061 15.4307992,13.0409357 15.4307992,10.1091618 Z" id="path-1"></path>
    </defs>
    <g id="search-minus" stroke="none" stroke-width="1" fill="none" fill-rule="evenodd">
        <mask id="mask-2" fill="white">
            <use xlink:href="#path-1"></use>
        </mask>
        <g fill-rule="nonzero"></g>
        <g id="🎨-color" mask="url(#mask-2)" fill="#000000">
            <rect id="🎨-Color" x="0" y="0" width="24" height="24"></rect>
        </g>
    </g>
</svg>