<?xml version="1.0" encoding="UTF-8"?>
<svg width="24px" height="24px" viewBox="0 0 24 24" version="1.1" xmlns="http://www.w3.org/2000/svg" xmlns:xlink="http://www.w3.org/1999/xlink">
    <!-- Generator: Sketch 52.5 (67469) - http://www.bohemiancoding.com/sketch -->
    <title>sellsy</title>
    <desc>Created with Sketch.</desc>
    <defs>
        <path d="M18.8659375,11.415875 C18.9616875,11.0328437 19,10.6402187 19,10.247625 C19,7.35568748 16.6443125,4.99999997 13.752375,4.99999997 C11.33925,4.99999997 9.23256249,6.65662497 8.65799998,8.99315623 C8.17918748,8.58140623 7.56631248,8.35159373 6.93434372,8.35159373 C5.48837497,8.35159373 4.31053121,9.52940624 4.31053121,10.975375 C4.31053121,11.2051875 4.33928121,11.4445937 4.40631246,11.6744062 C3.06568746,12.3064375 2.1942812,13.6662188 2.1942812,15.1504688 C2.19424995,17.2763438 3.92749996,19 6.04378122,19 L17.9562188,19 C20.0724688,19 21.8057188,17.2763438 21.8057188,15.1505 C21.80575,13.3885 20.5895938,11.8372187 18.8659375,11.415875 Z M8.24624998,16.5485625 C8.24624998,16.807125 8.02599998,17.0273438 7.76746873,17.0273438 L6.80031247,17.0273438 C6.54174997,17.0273438 6.32153122,16.8070938 6.32153122,16.5485625 L6.32153122,13.0820625 C6.32153122,12.8235313 6.54178122,12.6032813 6.80031247,12.6032813 L7.76746873,12.6032813 C8.02603123,12.6032813 8.24624998,12.8235313 8.24624998,13.0820625 L8.24624998,16.5485625 Z M11.0424062,16.5485625 C11.0424062,16.807125 10.8221562,17.0273438 10.5635937,17.0273438 L9.59643749,17.0273438 C9.33787499,17.0273438 9.11765624,16.8070938 9.11765624,16.5485625 L9.11765624,12.4405 C9.11765624,12.1819375 9.33790624,11.9617187 9.59643749,11.9617187 L10.5635937,11.9617187 C10.8221562,11.9617187 11.0424062,12.1819688 11.0424062,12.4405 L11.0424062,16.5485625 Z M13.8385625,16.5485625 C13.8385625,16.807125 13.6183438,17.0273438 13.3597813,17.0273438 L12.392625,17.0273438 C12.1340625,17.0273438 11.9138125,16.8070938 11.9138125,16.5485625 L11.9138125,11.46375 C11.9138125,11.2051875 12.1340625,10.9849687 12.392625,10.9849687 L13.3597813,10.9849687 C13.6183438,10.9849687 13.8385625,11.2052187 13.8385625,11.46375 L13.8385625,16.5485625 Z M16.5581563,16.5485625 C16.5581563,16.807125 16.3379063,17.0273438 16.0793438,17.0273438 L15.1888125,17.0273438 C14.93025,17.0273438 14.7100313,16.8070938 14.7100313,16.5485625 L14.7100313,9.52940624 C14.7100313,9.26131249 14.93025,9.04103124 15.1888125,9.04103124 L16.0793438,9.04103124 C16.3379063,9.04103124 16.5581563,9.26128124 16.5581563,9.52940624 L16.5581563,16.5485625 Z" id="path-1"></path>
    </defs>
    <g id="sellsy" stroke="none" stroke-width="1" fill="none" fill-rule="evenodd">
        <mask id="mask-2" fill="white">
            <use xlink:href="#path-1"></use>
        </mask>
        <g fill-rule="nonzero"></g>
        <g id="🎨-color" mask="url(#mask-2)" fill="#000000">
            <rect id="🎨-Color" x="0" y="0" width="24" height="24"></rect>
        </g>
    </g>
</svg>