<?xml version="1.0" encoding="UTF-8"?>
<svg width="24px" height="24px" viewBox="0 0 24 24" version="1.1" xmlns="http://www.w3.org/2000/svg" xmlns:xlink="http://www.w3.org/1999/xlink">
    <!-- Generator: Sketch 52.5 (67469) - http://www.bohemiancoding.com/sketch -->
    <title>sellcast</title>
    <desc>Created with Sketch.</desc>
    <defs>
        <path d="M17.0351563,3.24999996 L6.92968747,3.24999996 C4.89453121,3.24999996 3.23046871,4.91406246 3.23046871,6.94531247 L3.23046871,17.0507813 C3.23046871,19.0859375 4.89453121,20.75 6.92968747,20.75 L17.0351563,20.75 C19.0703125,20.75 20.734375,19.0859375 20.734375,17.0546875 L20.734375,6.94531247 C20.734375,4.91406246 19.0703125,3.24999996 17.0351563,3.24999996 Z M15.0820313,15.609375 C13.9921875,17.4921875 11.5703125,18.1445313 9.68359374,17.0625 C8.78906248,18.6171875 7.53906248,17.3984375 8.03124998,16.546875 L8.64453123,15.484375 C8.87499998,15.0820313 9.39453124,14.9414063 9.79687499,15.1757813 C10.5234375,15.5976563 9.79296874,15.171875 10.5195312,15.59375 C11.5976562,16.2148438 12.9960938,15.8398438 13.6210938,14.7617188 C14.2421875,13.6835938 13.8671875,12.2851563 12.7890625,11.6601562 C12.09375,11.2617187 12.765625,11.6445312 12.0625,11.2460937 C11.1015625,10.6914062 11.9296875,9.21874999 12.90625,9.78124999 C13.6328125,10.203125 12.9023438,9.77734374 13.6289063,10.1992187 C15.5195313,11.2929687 16.171875,13.7265625 15.0820313,15.609375 Z M15.9335938,7.45312498 C15.2695313,8.60546873 15.296875,8.57812498 15.1914063,8.68359373 C14.9375,8.93749998 14.5546875,9.02343749 14.15625,8.82421873 C13.4296875,8.40234373 14.1601563,8.82812498 13.4335938,8.40624998 C12.3554688,7.78515623 10.9570312,8.16015623 10.3320312,9.23828124 C9.70703124,10.3164062 10.0859375,11.7148437 11.1640625,12.3398438 C11.1640625,12.3398438 11.8867187,12.7539063 11.890625,12.7539063 C12.8515625,13.3085938 12.0234375,14.78125 11.046875,14.21875 C10.3203125,13.796875 11.0507812,14.2226563 10.3242187,13.8007813 C8.44140623,12.7148438 7.78906248,10.28125 8.87499998,8.39453123 C9.96484374,6.51171872 12.3867188,5.85937497 14.2734375,6.94140622 L14.4609375,6.61328122 C15.0195313,5.64062497 16.4921875,6.48437497 15.9335938,7.45312498 Z" id="path-1"></path>
    </defs>
    <g id="sellcast" stroke="none" stroke-width="1" fill="none" fill-rule="evenodd">
        <mask id="mask-2" fill="white">
            <use xlink:href="#path-1"></use>
        </mask>
        <g fill-rule="nonzero"></g>
        <g id="🎨-color" mask="url(#mask-2)" fill="#000000">
            <rect id="🎨-Color" x="0" y="0" width="24" height="24"></rect>
        </g>
    </g>
</svg>