<?xml version="1.0" encoding="UTF-8"?>
<svg width="24px" height="24px" viewBox="0 0 24 24" version="1.1" xmlns="http://www.w3.org/2000/svg" xmlns:xlink="http://www.w3.org/1999/xlink">
    <!-- Generator: Sketch 52.5 (67469) - http://www.bohemiancoding.com/sketch -->
    <title>server</title>
    <desc>Created with Sketch.</desc>
    <defs>
        <path d="M20.75,8.24999998 L3.24999996,8.24999998 C2.55964839,8.24999998 1.99999995,7.69035154 1.99999995,6.99999997 L1.99999995,4.49999996 C1.99999995,3.8096484 2.55964839,3.24999996 3.24999996,3.24999996 L20.75,3.24999996 C21.4403516,3.24999996 22.0000001,3.8096484 22.0000001,4.49999996 L22.0000001,6.99999997 C22.0000001,7.69035154 21.4403516,8.24999998 20.75,8.24999998 Z M18.875,4.81249996 C18.3572266,4.81249996 17.9375,5.23222653 17.9375,5.74999997 C17.9375,6.26777341 18.3572266,6.68749997 18.875,6.68749997 C19.3927735,6.68749997 19.8125,6.26777341 19.8125,5.74999997 C19.8125,5.23222653 19.3927735,4.81249996 18.875,4.81249996 Z M16.375,4.81249996 C15.8572266,4.81249996 15.4375,5.23222653 15.4375,5.74999997 C15.4375,6.26777341 15.8572266,6.68749997 16.375,6.68749997 C16.8927735,6.68749997 17.3125,6.26777341 17.3125,5.74999997 C17.3125,5.23222653 16.8927735,4.81249996 16.375,4.81249996 Z M20.75,14.5 L3.24999996,14.5 C2.55964839,14.5 1.99999995,13.9403516 1.99999995,13.25 L1.99999995,10.75 C1.99999995,10.0596484 2.55964839,9.49999999 3.24999996,9.49999999 L20.75,9.49999999 C21.4403516,9.49999999 22.0000001,10.0596484 22.0000001,10.75 L22.0000001,13.25 C22.0000001,13.9403516 21.4403516,14.5 20.75,14.5 Z M18.875,11.0625 C18.3572266,11.0625 17.9375,11.4822266 17.9375,12 C17.9375,12.5177734 18.3572266,12.9375 18.875,12.9375 C19.3927735,12.9375 19.8125,12.5177734 19.8125,12 C19.8125,11.4822266 19.3927735,11.0625 18.875,11.0625 Z M16.375,11.0625 C15.8572266,11.0625 15.4375,11.4822266 15.4375,12 C15.4375,12.5177734 15.8572266,12.9375 16.375,12.9375 C16.8927735,12.9375 17.3125,12.5177734 17.3125,12 C17.3125,11.4822266 16.8927735,11.0625 16.375,11.0625 Z M20.75,20.75 L3.24999996,20.75 C2.55964839,20.75 1.99999995,20.1903516 1.99999995,19.5 L1.99999995,17 C1.99999995,16.3096485 2.55964839,15.75 3.24999996,15.75 L20.75,15.75 C21.4403516,15.75 22.0000001,16.3096485 22.0000001,17 L22.0000001,19.5 C22.0000001,20.1903516 21.4403516,20.75 20.75,20.75 Z M18.875,17.3125 C18.3572266,17.3125 17.9375,17.7322266 17.9375,18.25 C17.9375,18.7677735 18.3572266,19.1875 18.875,19.1875 C19.3927735,19.1875 19.8125,18.7677735 19.8125,18.25 C19.8125,17.7322266 19.3927735,17.3125 18.875,17.3125 Z M16.375,17.3125 C15.8572266,17.3125 15.4375,17.7322266 15.4375,18.25 C15.4375,18.7677735 15.8572266,19.1875 16.375,19.1875 C16.8927735,19.1875 17.3125,18.7677735 17.3125,18.25 C17.3125,17.7322266 16.8927735,17.3125 16.375,17.3125 Z" id="path-1"></path>
    </defs>
    <g id="server" stroke="none" stroke-width="1" fill="none" fill-rule="evenodd">
        <mask id="mask-2" fill="white">
            <use xlink:href="#path-1"></use>
        </mask>
        <g fill-rule="nonzero"></g>
        <g id="🎨-color" mask="url(#mask-2)" fill="#000000">
            <rect id="🎨-Color" x="0" y="0" width="24" height="24"></rect>
        </g>
    </g>
</svg>