<?xml version="1.0" encoding="UTF-8"?>
<svg width="24px" height="24px" viewBox="0 0 24 24" version="1.1" xmlns="http://www.w3.org/2000/svg" xmlns:xlink="http://www.w3.org/1999/xlink">
    <!-- Generator: Sketch 52.5 (67469) - http://www.bohemiancoding.com/sketch -->
    <title>shapes</title>
    <desc>Created with Sketch.</desc>
    <defs>
        <path d="M22.0000001,14.5 L22.0000001,20.75 C22.0000001,21.4402344 21.4402344,22 20.75,22 L14.5,22 C13.8097656,22 13.25,21.4402344 13.25,20.75 L13.25,14.5 C13.25,13.8097656 13.8097656,13.25 14.5,13.25 L20.75,13.25 C21.4402344,13.25 22.0000001,13.8097656 22.0000001,14.5 Z M6.99999997,12 C4.23867184,12 1.99999995,14.2386719 1.99999995,17 C1.99999995,19.7613282 4.23867184,22.0000001 6.99999997,22.0000001 C9.76132811,22.0000001 12,19.7613282 12,17 C12,14.2386719 9.76132811,12 6.99999997,12 Z M20.7121094,10.75 C21.7019532,10.75 22.3207032,9.70820311 21.8257813,8.87499998 L18.1136719,2.62499995 C17.61875,1.79179682 16.38125,1.79179682 15.8863281,2.62499995 L12.1742188,8.87499998 C11.6792969,9.70820311 12.2980469,10.75 13.2878906,10.75 L20.7121094,10.75 Z" id="path-1"></path>
    </defs>
    <g id="shapes" stroke="none" stroke-width="1" fill="none" fill-rule="evenodd">
        <mask id="mask-2" fill="white">
            <use xlink:href="#path-1"></use>
        </mask>
        <g fill-rule="nonzero"></g>
        <g id="🎨-color" mask="url(#mask-2)" fill="#000000">
            <rect id="🎨-Color" x="0" y="0" width="24" height="24"></rect>
        </g>
    </g>
</svg>