<?xml version="1.0" encoding="UTF-8"?>
<svg width="24px" height="24px" viewBox="0 0 24 24" version="1.1" xmlns="http://www.w3.org/2000/svg" xmlns:xlink="http://www.w3.org/1999/xlink">
    <!-- Generator: Sketch 52.5 (67469) - http://www.bohemiancoding.com/sketch -->
    <title>share-square</title>
    <desc>Created with Sketch.</desc>
    <defs>
        <path d="M21.4779203,8.60519929 L16.4866551,3.61497396 C15.4463085,2.57462734 13.6464471,3.30318886 13.6464471,4.79140378 L13.6464471,6.77400344 C12.1750433,6.83916809 10.7337955,7.00103984 9.46065857,7.39757363 C8.24159444,7.77712303 7.27452337,8.35355284 6.5868284,9.11057191 C5.75112649,10.0311958 5.32755629,11.1889081 5.32755629,12.552513 C5.32755629,14.6910572 6.47757363,16.4504333 8.26932407,17.5701907 C9.57074522,18.385026 11.2241941,17.1316811 10.7310225,15.6381283 C10.1932409,14.0048874 10.1363605,13.179792 13.6464471,12.9081456 L13.6464471,14.7729636 C13.6464471,16.2631889 15.4477643,16.9883189 16.4866551,15.9493934 L21.4779203,10.9580589 C22.1278337,10.3084922 22.1278337,9.25476602 21.4779203,8.60519929 Z M15.3102253,14.7729636 L15.3102253,11.1736568 C10.8495321,11.2402773 7.77095319,11.9774697 9.1511265,16.1594454 C8.12790293,15.5199307 6.99133446,14.359792 6.99133446,12.552513 C6.99133446,8.76277295 11.467591,8.42956671 15.3102253,8.39826688 L15.3102253,4.79029459 L20.3015598,9.78162911 L15.3102253,14.7729636 Z M16.1677643,17.7016638 C16.4239107,17.6284971 16.6686015,17.5199648 16.8947661,17.3792028 C17.1712305,17.2075564 17.5285962,17.4078336 17.5285962,17.7332409 L17.5285962,19.2097054 C17.5285962,20.1285962 16.7837089,20.8734836 15.864818,20.8734836 L3.66377812,20.8734836 C2.7448873,20.8734836 1.99999995,20.1285962 1.99999995,19.2097054 L1.99999995,7.00866549 C1.99999995,6.08977467 2.7448873,5.34488732 3.66377812,5.34488732 L8.23916809,5.34488732 C8.46887347,5.34488732 8.65511263,5.53112648 8.65511263,5.76083186 L8.65511263,5.91632579 C8.65511263,6.08675907 8.55157711,6.24107449 8.39275561,6.30287692 C7.91781627,6.48766028 7.47781627,6.70277294 7.07386479,6.94707103 C7.00828974,6.98709076 6.93300897,7.00839234 6.85618715,7.00866549 L3.87175039,7.00866549 C3.75689048,7.00866549 3.66377812,7.10177784 3.66377812,7.21663776 L3.66377812,19.0017331 C3.66377812,19.1165931 3.75689048,19.2097054 3.87175039,19.2097054 L15.6568458,19.2097054 C15.7717057,19.2097054 15.864818,19.1165931 15.864818,19.0017331 L15.864818,18.1016985 C15.864818,17.9155633 15.9888735,17.753033 16.1677643,17.7016638 Z" id="path-1"></path>
    </defs>
    <g id="share-square" stroke="none" stroke-width="1" fill="none" fill-rule="evenodd">
        <mask id="mask-2" fill="white">
            <use xlink:href="#path-1"></use>
        </mask>
        <g fill-rule="nonzero"></g>
        <g id="🎨-color" mask="url(#mask-2)" fill="#000000">
            <rect id="🎨-Color" x="0" y="0" width="24" height="24"></rect>
        </g>
    </g>
</svg>