<?xml version="1.0" encoding="UTF-8"?>
<svg width="24px" height="24px" viewBox="0 0 24 24" version="1.1" xmlns="http://www.w3.org/2000/svg" xmlns:xlink="http://www.w3.org/1999/xlink">
    <!-- Generator: Sketch 52.5 (67469) - http://www.bohemiancoding.com/sketch -->
    <title>share-alt</title>
    <desc>Created with Sketch.</desc>
    <defs>
        <path d="M17,14.5 C16.116875,14.5 15.3051953,14.8054297 14.6644531,15.316211 L10.6610937,12.8141016 C10.7796487,12.2778283 10.7796487,11.7221326 10.6610937,11.1858594 L14.6644531,8.68374998 C15.3051953,9.1945703 16.116875,9.49999999 17,9.49999999 C19.0710547,9.49999999 20.75,7.82105467 20.75,5.74999997 C20.75,3.67894527 19.0710547,1.99999995 17,1.99999995 C14.9289453,1.99999995 13.25,3.67894527 13.25,5.74999997 C13.25,6.02960935 13.2808594,6.3019531 13.3389063,6.56410154 L9.33554686,9.06621092 C8.69480467,8.55542967 7.88312498,8.24999998 6.99999997,8.24999998 C4.92894528,8.24999998 3.24999996,9.9289453 3.24999996,12 C3.24999996,14.0710547 4.92894528,15.75 6.99999997,15.75 C7.88312498,15.75 8.69480467,15.4445703 9.33554686,14.9337891 L13.3389063,17.4358985 C13.2797326,17.7032216 13.2499205,17.976206 13.25,18.25 C13.25,20.3210547 14.9289453,22.0000001 17,22.0000001 C19.0710547,22.0000001 20.75,20.3210547 20.75,18.25 C20.75,16.1789453 19.0710547,14.5 17,14.5 Z" id="path-1"></path>
    </defs>
    <g id="share-alt" stroke="none" stroke-width="1" fill="none" fill-rule="evenodd">
        <mask id="mask-2" fill="white">
            <use xlink:href="#path-1"></use>
        </mask>
        <g></g>
        <g id="🎨-color" mask="url(#mask-2)" fill="#000000">
            <rect id="🎨-Color" x="0" y="0" width="24" height="24"></rect>
        </g>
    </g>
</svg>