<?xml version="1.0" encoding="UTF-8"?>
<svg width="24px" height="24px" viewBox="0 0 24 24" version="1.1" xmlns="http://www.w3.org/2000/svg" xmlns:xlink="http://www.w3.org/1999/xlink">
    <!-- Generator: Sketch 52.5 (67469) - http://www.bohemiancoding.com/sketch -->
    <title>share-alt-square</title>
    <desc>Created with Sketch.</desc>
    <defs>
        <path d="M20.75,5.12499997 L20.75,18.875 C20.75,19.9105469 19.9105469,20.75 18.875,20.75 L5.12499997,20.75 C4.08945309,20.75 3.24999996,19.9105469 3.24999996,18.875 L3.24999996,5.12499997 C3.24999996,4.08945309 4.08945309,3.24999996 5.12499997,3.24999996 L18.875,3.24999996 C19.9105469,3.24999996 20.75,4.08945309 20.75,5.12499997 Z M15.125,13.5625 C14.5561719,13.5625 14.0381641,13.7797266 13.6491016,14.1355859 L10.9944922,12.5428125 C11.0851556,12.1866029 11.0851556,11.813358 10.9944922,11.4571484 L13.6491016,9.86437499 C14.0381641,10.2202734 14.5561719,10.4375 15.125,10.4375 C16.333125,10.4375 17.3125,9.45812499 17.3125,8.24999998 C17.3125,7.04187498 16.333125,6.06249997 15.125,6.06249997 C13.916875,6.06249997 12.9375,7.04187498 12.9375,8.24999998 C12.9375,8.43738279 12.9611328,8.6192578 13.0054688,8.79285155 L10.3508594,10.385625 C9.96183593,10.0297266 9.44382811,9.81249999 8.87499998,9.81249999 C7.66687498,9.81249999 6.68749997,10.791875 6.68749997,12 C6.68749997,13.208125 7.66687498,14.1875 8.87499998,14.1875 C9.44382811,14.1875 9.96183593,13.9702734 10.3508984,13.6144141 L13.0055078,15.2071875 C12.9602596,15.3845875 12.9374254,15.5669595 12.9375391,15.7500391 C12.9375391,16.9581641 13.9169141,17.9375391 15.1250391,17.9375391 C16.3331641,17.9375391 17.3125391,16.9581641 17.3125391,15.7500391 C17.3125,14.541875 16.333125,13.5625 15.125,13.5625 Z" id="path-1"></path>
    </defs>
    <g id="share-alt-square" stroke="none" stroke-width="1" fill="none" fill-rule="evenodd">
        <mask id="mask-2" fill="white">
            <use xlink:href="#path-1"></use>
        </mask>
        <g fill-rule="nonzero"></g>
        <g id="🎨-color" mask="url(#mask-2)" fill="#000000">
            <rect id="🎨-Color" x="0" y="0" width="24" height="24"></rect>
        </g>
    </g>
</svg>