<?xml version="1.0" encoding="UTF-8"?>
<svg width="24px" height="24px" viewBox="0 0 24 24" version="1.1" xmlns="http://www.w3.org/2000/svg" xmlns:xlink="http://www.w3.org/1999/xlink">
    <!-- Generator: Sketch 52.5 (67469) - http://www.bohemiancoding.com/sketch -->
    <title>shekel-sign</title>
    <desc>Created with Sketch.</desc>
    <defs>
        <path d="M12.9375,8.56249998 L12.9375,15.125 C12.9375,15.4703125 13.2171875,15.75 13.5625,15.75 L15.4375,15.75 C15.7828125,15.75 16.0625,15.4703125 16.0625,15.125 L16.0625,8.56249998 C16.0625,5.62851559 13.6839844,3.24999996 10.75,3.24999996 L4.18749996,3.24999996 C3.66992183,3.24999996 3.24999996,3.66953121 3.24999996,4.18749996 L3.24999996,20.125 C3.24999996,20.4703125 3.52968746,20.75 3.87499996,20.75 L5.74999997,20.75 C6.09531247,20.75 6.37499997,20.4703125 6.37499997,20.125 L6.37499997,6.37499997 L10.75,6.37499997 C11.9582031,6.37499997 12.9375,7.35429685 12.9375,8.56249998 Z M20.125,3.24999996 L18.25,3.24999996 C17.9046875,3.24999996 17.625,3.52968746 17.625,3.87499996 L17.625,15.4375 C17.625,16.6457031 16.6457031,17.625 15.4375,17.625 L11.0625,17.625 L11.0625,8.87499998 C11.0625,8.52968748 10.7828125,8.24999998 10.4375,8.24999998 L8.56249998,8.24999998 C8.21718748,8.24999998 7.93749998,8.52968748 7.93749998,8.87499998 L7.93749998,19.8125 C7.93749998,20.3300782 8.35742186,20.75 8.87499998,20.75 L15.4375,20.75 C18.3714844,20.75 20.75,18.3714844 20.75,15.4375 L20.75,3.87499996 C20.75,3.52968746 20.4703125,3.24999996 20.125,3.24999996 Z" id="path-1"></path>
    </defs>
    <g id="shekel-sign" stroke="none" stroke-width="1" fill="none" fill-rule="evenodd">
        <mask id="mask-2" fill="white">
            <use xlink:href="#path-1"></use>
        </mask>
        <g fill-rule="nonzero"></g>
        <g id="🎨-color" mask="url(#mask-2)" fill="#000000">
            <rect id="🎨-Color" x="0" y="0" width="24" height="24"></rect>
        </g>
    </g>
</svg>