<?xml version="1.0" encoding="UTF-8"?>
<svg width="24px" height="24px" viewBox="0 0 24 24" version="1.1" xmlns="http://www.w3.org/2000/svg" xmlns:xlink="http://www.w3.org/1999/xlink">
    <!-- Generator: Sketch 52.5 (67469) - http://www.bohemiancoding.com/sketch -->
    <title>ship</title>
    <desc>Created with Sketch.</desc>
    <defs>
        <path d="M17.51925,15.6449688 L19.707125,13.4570938 C20.2352188,12.9289688 20.0178125,12.02675 19.306,11.7979687 L18,11.3781875 L18,6.99999997 C18,6.44771872 17.5522813,5.99999997 17,5.99999997 L15,5.99999997 L15,4.74999996 C15,4.33578121 14.6642188,3.99999996 14.25,3.99999996 L9.74999999,3.99999996 C9.33578124,3.99999996 8.99999998,4.33578121 8.99999998,4.74999996 L8.99999998,5.99999997 L6.99999997,5.99999997 C6.44771872,5.99999997 5.99999997,6.44771872 5.99999997,6.99999997 L5.99999997,11.3781875 L4.69399996,11.7979687 C3.98296871,12.0265 3.76418746,12.928375 4.29287496,13.4570938 L6.48074997,15.6449688 C5.93212497,17.0089688 4.67459371,18 2.74999995,18 C2.3357812,18 1.99999995,18.3357813 1.99999995,18.75 L1.99999995,19.25 C1.99999995,19.6642188 2.3357812,20 2.74999995,20 C4.65696871,20 6.10934372,19.3559375 7.22681248,18.143875 C7.67740623,19.23225 8.75065623,20 9.99999999,20 L14,20 C15.2493438,20 16.3225938,19.23225 16.7731875,18.143875 C17.8904688,19.35575 19.34275,20 21.25,20 C21.6642188,20 22.0000001,19.6642188 22.0000001,19.25 L22.0000001,18.75 C22.0000001,18.3357813 21.6642188,18 21.25,18 C19.3494688,18 18.0768125,17.0312188 17.51925,15.6449688 Z M7.99999998,7.99999998 L16,7.99999998 L16,10.7353437 L12.306,9.54799999 C12.1070147,9.4840315 11.8929853,9.4840315 11.694,9.54799999 L7.99999998,10.7353437 L7.99999998,7.99999998 Z" id="path-1"></path>
    </defs>
    <g id="ship" stroke="none" stroke-width="1" fill="none" fill-rule="evenodd">
        <mask id="mask-2" fill="white">
            <use xlink:href="#path-1"></use>
        </mask>
        <g fill-rule="nonzero"></g>
        <g id="🎨-color" mask="url(#mask-2)" fill="#000000">
            <rect id="🎨-Color" x="0" y="0" width="24" height="24"></rect>
        </g>
    </g>
</svg>