<?xml version="1.0" encoding="UTF-8"?>
<svg width="24px" height="24px" viewBox="0 0 24 24" version="1.1" xmlns="http://www.w3.org/2000/svg" xmlns:xlink="http://www.w3.org/1999/xlink">
    <!-- Generator: Sketch 52.5 (67469) - http://www.bohemiancoding.com/sketch -->
    <title>shirtsinbulk</title>
    <desc>Created with Sketch.</desc>
    <defs>
        <path d="M18.6878125,10.6555859 L19.109375,10.6555859 L19.109375,11.9658203 L18.6878125,11.9658203 L18.6878125,10.6555859 Z M18.6878125,10.2796094 L19.109375,10.2796094 L19.109375,8.96937498 L18.6878125,8.96937498 L18.6878125,10.2796094 Z M18.6878125,13.6519922 L19.109375,13.6519922 L19.109375,12.3417969 L18.6878125,12.3417969 L18.6878125,13.6519922 Z M17.2636719,7.2832031 L15.9534375,7.2832031 L15.9534375,7.69335935 L17.2636719,7.69335935 L17.2636719,7.2832031 Z M18.6878125,15.3382031 L19.109375,15.3382031 L19.109375,14.0279688 L18.6878125,14.0279688 L18.6878125,15.3382031 Z M15.4179688,7.2832031 L14.1077344,7.2832031 L14.1077344,7.69335935 L15.4179688,7.69335935 L15.4179688,7.2832031 Z M13.5722656,7.2832031 L12.2734375,7.2832031 L12.2734375,7.69335935 L13.5722656,7.69335935 L13.5722656,7.2832031 Z M11.7265625,7.2832031 L10.4277344,7.2832031 L10.4277344,7.69335935 L11.7265625,7.69335935 L11.7265625,7.2832031 Z M18.6878125,8.59343748 L19.109375,8.59343748 L19.109375,7.2832031 L17.7991407,7.2832031 L17.7991407,7.69335935 L18.6878125,7.69335935 L18.6878125,8.59343748 Z M8.69593748,18.710625 L9.89222655,19.2347266 L10.063125,18.8473438 L8.86683592,18.3232422 L8.69593748,18.710625 Z M10.2454297,19.3828125 L11.4303516,19.9182813 L11.6012109,19.5309375 L10.4163281,19.006836 L10.2454297,19.3828125 Z M18.6878125,17.0244141 L19.109375,17.0244141 L19.109375,15.7141797 L18.6878125,15.7141797 L18.6878125,17.0244141 Z M5.60839841,17.3434375 L6.80468747,17.8675 L6.97558591,17.4915625 L5.77929684,16.9560547 L5.60839841,17.3434375 Z M7.15785154,18.0269922 L8.35414061,18.5510938 L8.52503905,18.163711 L7.32874998,17.6396485 L7.15785154,18.0269922 Z M12.3303906,19.5309375 L12.5012891,19.9182813 L13.6976172,19.3828125 L13.5267188,19.006836 L12.3303906,19.5309375 Z M16.9560547,17.4915625 L17.1269532,17.8675 L18.3232032,17.3434375 L18.1523438,16.9560547 L16.9560547,17.4915625 Z M15.4179688,18.163711 L15.5888672,18.5510938 L16.7851563,18.0269922 L16.6142969,17.6396485 L15.4179688,18.163711 Z M13.8684766,18.8473438 L14.039375,19.2347266 L15.2356641,18.710625 L15.0647656,18.3232422 L13.8684766,18.8473438 Z M15.4179688,3.8196484 L14.1077344,3.8196484 L14.1077344,4.22980465 L15.4179688,4.22980465 L15.4179688,3.8196484 Z M19.0980078,3.8196484 L17.7991407,3.8196484 L17.7991407,4.22980465 L19.0980078,4.22980465 L19.0980078,3.8196484 Z M11.7265625,3.8196484 L10.4277344,3.8196484 L10.4277344,4.22980465 L11.7265625,4.22980465 L11.7265625,3.8196484 Z M17.2636719,3.8196484 L15.9534375,3.8196484 L15.9534375,4.22980465 L17.2636719,4.22980465 L17.2636719,3.8196484 Z M13.5722656,3.8196484 L12.2734375,3.8196484 L12.2734375,4.22980465 L13.5722656,4.22980465 L13.5722656,3.8196484 Z M20.75,2.1448437 L20.75,18.0042188 L11.9088281,21.8551563 L3.24999996,18.0042188 L3.24999996,2.1448437 L20.75,2.1448437 Z M19.6107032,6.7135156 L4.38929684,6.7135156 L4.38929684,17.2636719 L11.9202344,20.6132813 L19.6106641,17.2636719 L19.6107032,6.7135156 Z M19.6107032,3.28417964 L4.38929684,3.28417964 L4.38929684,5.57421872 L19.6107032,5.57421872 L19.6107032,3.28417964 Z M6.20085935,3.8196484 L4.90199215,3.8196484 L4.90199215,4.22980465 L6.20085935,4.22980465 L6.20085935,3.8196484 Z M9.89226561,3.8196484 L8.58203123,3.8196484 L8.58203123,4.22980465 L9.89226561,4.22980465 L9.89226561,3.8196484 Z M8.04652342,3.8196484 L6.7363281,3.8196484 L6.7363281,4.22980465 L8.04656248,4.22980465 L8.04656248,3.8196484 L8.04652342,3.8196484 Z M8.34277342,13.0595703 C8.34277342,11.0999219 9.94921874,9.49347655 11.9088672,9.49347655 C13.8798828,9.49347655 15.474961,11.0999219 15.474961,13.0595703 C15.474961,15.030586 13.8799219,16.6256641 11.9088672,16.6256641 C9.94921874,16.625625 8.34277342,15.030586 8.34277342,13.0595703 Z M13.0595703,13.7659766 C13.0595703,14.2786719 12.1253125,14.3242188 11.7835547,14.3242188 C11.3050391,14.3242188 10.6214453,14.2216797 10.3821875,13.7431641 L10.3480078,13.7431641 L9.99476561,14.4609375 C10.5758594,14.8255078 11.1341016,14.9394531 11.8404687,14.9394531 C12.6038281,14.9394531 13.8342969,14.7116016 13.8342969,13.7203516 C13.8342969,11.8404687 10.7695312,13.0823438 10.7695312,12.2392578 C10.7695312,11.7265625 11.5784375,11.6582031 11.9316406,11.6582031 C12.3531641,11.6582031 13.0709375,11.7835156 13.3216016,12.1708594 L13.3557813,12.1708594 L13.6976172,11.5100781 C13.1051563,11.2708203 12.6266406,11.0429297 11.9658203,11.0429297 C11.1796875,11.0429297 10.0289844,11.2935937 10.0289844,12.2848047 C10.0289844,14.0166016 13.0595703,12.7519531 13.0595703,13.7659766 Z M8.04652342,7.2832031 L6.7363281,7.2832031 L6.7363281,7.69335935 L8.04656248,7.69335935 L8.04656248,7.2832031 L8.04652342,7.2832031 Z M5.31218747,7.69335935 L6.20085935,7.69335935 L6.20085935,7.2832031 L4.89062496,7.2832031 L4.89062496,8.59343748 L5.31218747,8.59343748 L5.31218747,7.69335935 Z M5.31218747,8.96937498 L4.89062496,8.96937498 L4.89062496,10.2796094 L5.31218747,10.2796094 L5.31218747,8.96937498 Z M9.89226561,7.2832031 L8.58203123,7.2832031 L8.58203123,7.69335935 L9.89226561,7.69335935 L9.89226561,7.2832031 Z M5.31218747,10.6555859 L4.89062496,10.6555859 L4.89062496,11.9658203 L5.31218747,11.9658203 L5.31218747,10.6555859 Z M5.31218747,14.0280078 L4.89062496,14.0280078 L4.89062496,15.3382422 L5.31218747,15.3382422 L5.31218747,14.0280078 Z M5.31218747,12.3417969 L4.89062496,12.3417969 L4.89062496,13.6520313 L5.31218747,13.6520313 L5.31218747,12.3417969 Z M5.31218747,15.7141797 L4.89062496,15.7141797 L4.89062496,17.0244141 L5.31218747,17.0244141 L5.31218747,15.7141797 Z" id="path-1"></path>
    </defs>
    <g id="shirtsinbulk" stroke="none" stroke-width="1" fill="none" fill-rule="evenodd">
        <mask id="mask-2" fill="white">
            <use xlink:href="#path-1"></use>
        </mask>
        <g fill-rule="nonzero"></g>
        <g id="🎨-color" mask="url(#mask-2)" fill="#000000">
            <rect id="🎨-Color" x="0" y="0" width="24" height="24"></rect>
        </g>
    </g>
</svg>