<?xml version="1.0" encoding="UTF-8"?>
<svg width="24px" height="24px" viewBox="0 0 24 24" version="1.1" xmlns="http://www.w3.org/2000/svg" xmlns:xlink="http://www.w3.org/1999/xlink">
    <!-- Generator: Sketch 52.5 (67469) - http://www.bohemiancoding.com/sketch -->
    <title>shoe-prints</title>
    <desc>Created with Sketch.</desc>
    <defs>
        <path d="M7.99999998,8.98437498 L8.99999998,8.98437498 L8.99999998,4.98437496 L7.99999998,4.98437496 C6.89531247,4.98437496 5.99999997,5.87968747 5.99999997,6.98437497 C5.99999997,8.08906248 6.89531247,8.98437498 7.99999998,8.98437498 Z M1.99999995,16.984375 C1.99999995,18.0890625 2.89531245,18.984375 3.99999996,18.984375 L4.99999996,18.984375 L4.99999996,14.984375 L3.99999996,14.984375 C2.89531245,14.984375 1.99999995,15.8796875 1.99999995,16.984375 Z M12.545625,12.984375 C11.4546875,12.984375 10.165625,13.394375 9.27281249,13.984375 C8.49812498,14.49625 7.88156248,14.984375 5.99999997,14.984375 L5.99999997,18.984375 L7.79781248,19.4834375 C8.61687498,19.7109375 9.45437499,19.8934375 10.3075,19.95375 C11.3290625,20.0259375 12.3575,19.9746875 13.356875,19.76 C16.778125,19.025 18,17.3975 18,15.984375 C18,13.984375 15.369375,12.984375 12.545625,12.984375 Z M17.356875,4.20906246 C16.3575,3.99437496 15.3290625,3.94281246 14.3075,4.01531246 C13.454375,4.07562496 12.616875,4.25812496 11.7978125,4.48531246 L9.99999999,4.98437496 L9.99999999,8.98437498 C11.88125,8.98437498 12.498125,9.47249999 13.2728125,9.98437499 C14.165625,10.574375 15.4546875,10.984375 16.545625,10.984375 C19.369375,10.984375 22.0000001,9.98437499 22.0000001,7.98437498 C22.0000001,6.57124997 20.778125,4.94374996 17.356875,4.20906246 Z" id="path-1"></path>
    </defs>
    <g id="shoe-prints" stroke="none" stroke-width="1" fill="none" fill-rule="evenodd">
        <mask id="mask-2" fill="white">
            <use xlink:href="#path-1"></use>
        </mask>
        <g fill-rule="nonzero"></g>
        <g id="🎨-color" mask="url(#mask-2)" fill="#000000">
            <rect id="🎨-Color" x="0" y="0" width="24" height="24"></rect>
        </g>
    </g>
</svg>