<?xml version="1.0" encoding="UTF-8"?>
<svg width="24px" height="24px" viewBox="0 0 24 24" version="1.1" xmlns="http://www.w3.org/2000/svg" xmlns:xlink="http://www.w3.org/1999/xlink">
    <!-- Generator: Sketch 52.5 (67469) - http://www.bohemiancoding.com/sketch -->
    <title>shopping-cart</title>
    <desc>Created with Sketch.</desc>
    <defs>
        <path d="M20.3375,13.5735764 L21.9789237,6.35135414 C22.0974306,5.8298958 21.7010764,5.3333333 21.1663195,5.3333333 L7.52805553,5.3333333 L7.20979164,3.77743051 C7.13048609,3.38961801 6.78923609,3.11111107 6.39336803,3.11111107 L2.83333329,3.11111107 C2.37309023,3.11111107 1.99999995,3.48420135 1.99999995,3.9444444 L1.99999995,4.49999996 C1.99999995,4.96024302 2.37309023,5.3333333 2.83333329,5.3333333 L5.25982636,5.3333333 L7.69899303,17.2581597 C7.11545136,17.59375 6.7222222,18.2229861 6.7222222,18.9444445 C6.7222222,20.0183334 7.59277776,20.8888889 8.66666665,20.8888889 C9.74055554,20.8888889 10.6111111,20.0183334 10.6111111,18.9444445 C10.6111111,18.4002084 10.3872569,17.908507 10.0269444,17.5555556 L17.3063542,17.5555556 C16.9460764,17.908507 16.7222222,18.4002084 16.7222222,18.9444445 C16.7222222,20.0183334 17.5927778,20.8888889 18.6666667,20.8888889 C19.7405556,20.8888889 20.6111112,20.0183334 20.6111112,18.9444445 C20.6111112,18.1745834 20.1636112,17.5093056 19.5146181,17.1942709 L19.7061806,16.3513542 C19.8246875,15.8298959 19.4283334,15.3333334 18.8935764,15.3333334 L9.57350693,15.3333334 L9.34624999,14.2222222 L19.5248959,14.2222222 C19.9139931,14.2222222 20.2512848,13.9529861 20.3375,13.5735764 Z" id="path-1"></path>
    </defs>
    <g id="shopping-cart" stroke="none" stroke-width="1" fill="none" fill-rule="evenodd">
        <mask id="mask-2" fill="white">
            <use xlink:href="#path-1"></use>
        </mask>
        <g></g>
        <g id="🎨-color" mask="url(#mask-2)" fill="#000000">
            <rect id="🎨-Color" x="0" y="0" width="24" height="24"></rect>
        </g>
    </g>
</svg>