<?xml version="1.0" encoding="UTF-8"?>
<svg width="24px" height="24px" viewBox="0 0 24 24" version="1.1" xmlns="http://www.w3.org/2000/svg" xmlns:xlink="http://www.w3.org/1999/xlink">
    <!-- Generator: Sketch 52.5 (67469) - http://www.bohemiancoding.com/sketch -->
    <title>shopping-basket</title>
    <desc>Created with Sketch.</desc>
    <defs>
        <path d="M22.0000001,10.6111111 L22.0000001,11.1666667 C22.0000001,11.6269097 21.6269098,12 21.1666667,12 L20.8888889,12 L19.9821875,18.3468056 C19.8648959,19.167882 19.1617014,19.7777778 18.3322917,19.7777778 L5.6677083,19.7777778 C4.83829858,19.7777778 4.13510413,19.167882 4.01777774,18.3468056 L3.11111107,12 L2.83333329,12 C2.37309023,12 1.99999995,11.6269097 1.99999995,11.1666667 L1.99999995,10.6111111 C1.99999995,10.150868 2.37309023,9.77777777 2.83333329,9.77777777 L5.17156247,9.77777777 L8.87920137,4.67982635 C9.24013888,4.18357635 9.93499999,4.0738194 10.4313194,4.43475691 C10.9276042,4.79569441 11.0373264,5.49059025 10.6763889,5.98687497 L7.91934026,9.77777777 L16.0806597,9.77777777 L13.3236111,5.98684025 C12.9626736,5.49059025 13.0724306,4.79565969 13.5687153,4.43472218 C14.0649306,4.07378468 14.7598958,4.18350691 15.1208333,4.67979163 L18.8284375,9.77777777 L21.1666667,9.77777777 C21.6269098,9.77777777 22.0000001,10.150868 22.0000001,10.6111111 Z M12.8333333,16.7222222 L12.8333333,12.8333333 C12.8333333,12.3730903 12.4602431,12 12,12 C11.5397569,12 11.1666667,12.3730903 11.1666667,12.8333333 L11.1666667,16.7222222 C11.1666667,17.1824653 11.5397569,17.5555556 12,17.5555556 C12.4602431,17.5555556 12.8333333,17.1824653 12.8333333,16.7222222 Z M16.7222222,16.7222222 L16.7222222,12.8333333 C16.7222222,12.3730903 16.349132,12 15.8888889,12 C15.4286459,12 15.0555556,12.3730903 15.0555556,12.8333333 L15.0555556,16.7222222 C15.0555556,17.1824653 15.4286459,17.5555556 15.8888889,17.5555556 C16.349132,17.5555556 16.7222222,17.1824653 16.7222222,16.7222222 Z M8.94444443,16.7222222 L8.94444443,12.8333333 C8.94444443,12.3730903 8.57135415,12 8.11111109,12 C7.65086803,12 7.27777775,12.3730903 7.27777775,12.8333333 L7.27777775,16.7222222 C7.27777775,17.1824653 7.65086803,17.5555556 8.11111109,17.5555556 C8.57135415,17.5555556 8.94444443,17.1824653 8.94444443,16.7222222 Z" id="path-1"></path>
    </defs>
    <g id="shopping-basket" stroke="none" stroke-width="1" fill="none" fill-rule="evenodd">
        <mask id="mask-2" fill="white">
            <use xlink:href="#path-1"></use>
        </mask>
        <g fill-rule="nonzero"></g>
        <g id="🎨-color" mask="url(#mask-2)" fill="#000000">
            <rect id="🎨-Color" x="0" y="0" width="24" height="24"></rect>
        </g>
    </g>
</svg>