<?xml version="1.0" encoding="UTF-8"?>
<svg width="24px" height="24px" viewBox="0 0 24 24" version="1.1" xmlns="http://www.w3.org/2000/svg" xmlns:xlink="http://www.w3.org/1999/xlink">
    <!-- Generator: Sketch 52.5 (67469) - http://www.bohemiancoding.com/sketch -->
    <title>shopware</title>
    <desc>Created with Sketch.</desc>
    <defs>
        <path d="M17.7617188,19.7839844 C16.0839844,21.0257813 14.0917969,21.6820313 12.0007813,21.6820313 C6.6410156,21.6820313 2.31249995,17.3460938 2.31249995,11.9945312 C2.31249995,6.63554685 6.64999997,2.3070312 12.0007813,2.3070312 C14.3953125,2.3070312 16.69375,3.18789058 18.4726563,4.78749996 C18.575,4.87968746 18.4953125,5.04687497 18.3609375,5.02890622 C17.6707032,4.93398434 16.9253906,4.88593746 16.1457031,4.88593746 C11.0925781,4.88593746 7.4582031,6.97460935 7.4582031,10.9542969 C7.4582031,15.2136719 11.0570312,16.6527344 14.365625,17.9359375 C15.6796875,18.4453125 16.9203125,18.9265625 17.7625,19.5605469 C17.8367188,19.6167969 17.8363282,19.7289063 17.7617188,19.7839844 Z M21.646875,11.0996094 C21.64375,11.0628906 21.6253907,11.028125 21.5972657,11.0042969 C19.5753907,9.32617186 17.9402344,8.64179686 15.9535156,8.64179686 C12.6671875,8.64179686 12.81875,10.6796875 12.81875,10.7367187 C12.81875,12.4007813 14.8523438,13.1589844 17.2070313,14.0371094 C18.4207032,14.4898438 19.6753907,14.9578125 20.8273438,15.596875 C20.9007813,15.6378906 20.99375,15.6042969 21.0246094,15.5257813 C21.7625,13.6355469 21.7253907,12.0011719 21.646875,11.0996094 Z" id="path-1"></path>
    </defs>
    <g id="shopware" stroke="none" stroke-width="1" fill="none" fill-rule="evenodd">
        <mask id="mask-2" fill="white">
            <use xlink:href="#path-1"></use>
        </mask>
        <g fill-rule="nonzero"></g>
        <g id="🎨-color" mask="url(#mask-2)" fill="#000000">
            <rect id="🎨-Color" x="0" y="0" width="24" height="24"></rect>
        </g>
    </g>
</svg>