<?xml version="1.0" encoding="UTF-8"?>
<svg width="24px" height="24px" viewBox="0 0 24 24" version="1.1" xmlns="http://www.w3.org/2000/svg" xmlns:xlink="http://www.w3.org/1999/xlink">
    <!-- Generator: Sketch 52.5 (67469) - http://www.bohemiancoding.com/sketch -->
    <title>shopping-bag</title>
    <desc>Created with Sketch.</desc>
    <defs>
        <path d="M17,8.24999998 L17,6.99999997 C17,4.24296871 14.7569922,1.99999995 12,1.99999995 C9.24296874,1.99999995 6.99999997,4.24296871 6.99999997,6.99999997 L6.99999997,8.24999998 L3.24999996,8.24999998 L3.24999996,18.875 C3.24999996,20.6008985 4.64910153,22.0000001 6.37499997,22.0000001 L17.625,22.0000001 C19.3508985,22.0000001 20.75,20.6008985 20.75,18.875 L20.75,8.24999998 L17,8.24999998 Z M9.49999999,6.99999997 C9.49999999,5.62148434 10.6214844,4.49999996 12,4.49999996 C13.3785156,4.49999996 14.5,5.62148434 14.5,6.99999997 L14.5,8.24999998 L9.49999999,8.24999998 L9.49999999,6.99999997 Z M15.75,11.6875 C15.2322266,11.6875 14.8125,11.2677734 14.8125,10.75 C14.8125,10.2322266 15.2322266,9.81249999 15.75,9.81249999 C16.2677735,9.81249999 16.6875,10.2322266 16.6875,10.75 C16.6875,11.2677734 16.2677735,11.6875 15.75,11.6875 Z M8.24999998,11.6875 C7.73222654,11.6875 7.31249998,11.2677734 7.31249998,10.75 C7.31249998,10.2322266 7.73222654,9.81249999 8.24999998,9.81249999 C8.76777342,9.81249999 9.18749999,10.2322266 9.18749999,10.75 C9.18749999,11.2677734 8.76777342,11.6875 8.24999998,11.6875 Z" id="path-1"></path>
    </defs>
    <g id="shopping-bag" stroke="none" stroke-width="1" fill="none" fill-rule="evenodd">
        <mask id="mask-2" fill="white">
            <use xlink:href="#path-1"></use>
        </mask>
        <g fill-rule="nonzero"></g>
        <g id="🎨-color" mask="url(#mask-2)" fill="#000000">
            <rect id="🎨-Color" x="0" y="0" width="24" height="24"></rect>
        </g>
    </g>
</svg>