<?xml version="1.0" encoding="UTF-8"?>
<svg width="24px" height="24px" viewBox="0 0 24 24" version="1.1" xmlns="http://www.w3.org/2000/svg" xmlns:xlink="http://www.w3.org/1999/xlink">
    <!-- Generator: Sketch 52.5 (67469) - http://www.bohemiancoding.com/sketch -->
    <title>shower</title>
    <desc>Created with Sketch.</desc>
    <defs>
        <path d="M17.2210938,7.29687498 L11.046875,13.4710938 C10.6808594,13.8371094 10.0871094,13.8371094 9.72109374,13.4710938 L9.27890624,13.0289063 C8.91289061,12.6628906 8.91289061,12.0691406 9.27890624,11.703125 L9.28320311,11.6988281 C7.95390623,10.128125 7.9097656,7.83398435 9.15078124,6.21523435 C8.68320311,5.92031247 8.12968748,5.74999997 7.53749998,5.74999997 C5.86249997,5.74999997 4.49999996,7.11249998 4.49999996,8.78749998 L4.49999996,20.75 L1.99999995,20.75 L1.99999995,8.78749998 C1.99999995,5.73398434 4.48398434,3.24999996 7.53749998,3.24999996 C8.98007811,3.24999996 10.2957031,3.80468746 11.2820312,4.71171871 C12.684375,4.26210934 14.2703125,4.53593746 15.4488281,5.53320309 L15.453125,5.52890622 C15.8191406,5.16289059 16.4128906,5.16289059 16.7789063,5.52890622 L17.2210938,5.97109372 C17.5871094,6.33710935 17.5871094,6.93085935 17.2210938,7.29687498 Z M17,10.125 C17,10.4701953 16.7201953,10.75 16.375,10.75 C16.0298047,10.75 15.75,10.4701953 15.75,10.125 C15.75,9.77980468 16.0298047,9.49999999 16.375,9.49999999 C16.7201953,9.49999999 17,9.77980468 17,10.125 Z M18.25,10.125 C18.25,9.77980468 18.5298047,9.49999999 18.875,9.49999999 C19.2201953,9.49999999 19.5,9.77980468 19.5,10.125 C19.5,10.4701953 19.2201953,10.75 18.875,10.75 C18.5298047,10.75 18.25,10.4701953 18.25,10.125 Z M22.0000001,10.125 C22.0000001,10.4701953 21.7201954,10.75 21.375,10.75 C21.0298047,10.75 20.75,10.4701953 20.75,10.125 C20.75,9.77980468 21.0298047,9.49999999 21.375,9.49999999 C21.7201954,9.49999999 22.0000001,9.77980468 22.0000001,10.125 Z M15.75,11.375 C15.75,11.7201953 15.4701953,12 15.125,12 C14.7798047,12 14.5,11.7201953 14.5,11.375 C14.5,11.0298047 14.7798047,10.75 15.125,10.75 C15.4701953,10.75 15.75,11.0298047 15.75,11.375 Z M17.625,10.75 C17.9701953,10.75 18.25,11.0298047 18.25,11.375 C18.25,11.7201953 17.9701953,12 17.625,12 C17.2798047,12 17,11.7201953 17,11.375 C17,11.0298047 17.2798047,10.75 17.625,10.75 Z M20.75,11.375 C20.75,11.7201953 20.4701954,12 20.125,12 C19.7798047,12 19.5,11.7201953 19.5,11.375 C19.5,11.0298047 19.7798047,10.75 20.125,10.75 C20.4701954,10.75 20.75,11.0298047 20.75,11.375 Z M14.5,12.625 C14.5,12.9701953 14.2201953,13.25 13.875,13.25 C13.5298047,13.25 13.25,12.9701953 13.25,12.625 C13.25,12.2798047 13.5298047,12 13.875,12 C14.2201953,12 14.5,12.2798047 14.5,12.625 Z M15.75,12.625 C15.75,12.2798047 16.0298047,12 16.375,12 C16.7201953,12 17,12.2798047 17,12.625 C17,12.9701953 16.7201953,13.25 16.375,13.25 C16.0298047,13.25 15.75,12.9701953 15.75,12.625 Z M19.5,12.625 C19.5,12.9701953 19.2201953,13.25 18.875,13.25 C18.5298047,13.25 18.25,12.9701953 18.25,12.625 C18.25,12.2798047 18.5298047,12 18.875,12 C19.2201953,12 19.5,12.2798047 19.5,12.625 Z M14.5,13.875 C14.5,13.5298047 14.7798047,13.25 15.125,13.25 C15.4701953,13.25 15.75,13.5298047 15.75,13.875 C15.75,14.2201953 15.4701953,14.5 15.125,14.5 C14.7798047,14.5 14.5,14.2201953 14.5,13.875 Z M18.25,13.875 C18.25,14.2201953 17.9701953,14.5 17.625,14.5 C17.2798047,14.5 17,14.2201953 17,13.875 C17,13.5298047 17.2798047,13.25 17.625,13.25 C17.9701953,13.25 18.25,13.5298047 18.25,13.875 Z M14.5,15.125 C14.5,15.4701953 14.2201953,15.75 13.875,15.75 C13.5298047,15.75 13.25,15.4701953 13.25,15.125 C13.25,14.7798047 13.5298047,14.5 13.875,14.5 C14.2201953,14.5 14.5,14.7798047 14.5,15.125 Z M17,15.125 C17,15.4701953 16.7201953,15.75 16.375,15.75 C16.0298047,15.75 15.75,15.4701953 15.75,15.125 C15.75,14.7798047 16.0298047,14.5 16.375,14.5 C16.7201953,14.5 17,14.7798047 17,15.125 Z M15.75,16.375 C15.75,16.7201953 15.4701953,17 15.125,17 C14.7798047,17 14.5,16.7201953 14.5,16.375 C14.5,16.0298047 14.7798047,15.75 15.125,15.75 C15.4701953,15.75 15.75,16.0298047 15.75,16.375 Z M14.5,17.625 C14.5,17.9701953 14.2201953,18.25 13.875,18.25 C13.5298047,18.25 13.25,17.9701953 13.25,17.625 C13.25,17.2798047 13.5298047,17 13.875,17 C14.2201953,17 14.5,17.2798047 14.5,17.625 Z" id="path-1"></path>
    </defs>
    <g id="shower" stroke="none" stroke-width="1" fill="none" fill-rule="evenodd">
        <mask id="mask-2" fill="white">
            <use xlink:href="#path-1"></use>
        </mask>
        <g fill-rule="nonzero"></g>
        <g id="🎨-color" mask="url(#mask-2)" fill="#000000">
            <rect id="🎨-Color" x="0" y="0" width="24" height="24"></rect>
        </g>
    </g>
</svg>