<?xml version="1.0" encoding="UTF-8"?>
<svg width="24px" height="24px" viewBox="0 0 24 24" version="1.1" xmlns="http://www.w3.org/2000/svg" xmlns:xlink="http://www.w3.org/1999/xlink">
    <!-- Generator: Sketch 52.5 (67469) - http://www.bohemiancoding.com/sketch -->
    <title>shuttle-van</title>
    <desc>Created with Sketch.</desc>
    <defs>
        <path d="M21.6525,10.5828125 L17.4496875,5.53968747 C17.1646951,5.19778601 16.7426037,5.00007736 16.2975,4.99999997 L2.99999995,4.99999997 C2.44781245,4.99999997 1.99999995,5.44781247 1.99999995,5.99999997 L1.99999995,15 C1.99999995,15.5521875 2.44781245,16 2.99999995,16 L3.99999996,16 C3.99999996,17.656875 5.34312497,19 6.99999997,19 C8.65687498,19 9.99999999,17.656875 9.99999999,16 L14,16 C14,17.656875 15.343125,19 17,19 C18.656875,19 20,17.656875 20,16 L21,16 C21.5521875,16 22.0000001,15.5521875 22.0000001,15 L22.0000001,11.543125 C22.0000001,11.1921875 21.876875,10.8525 21.6525,10.5828125 Z M3.99999996,9.99999999 L3.99999996,6.99999998 L6.99999997,6.99999998 L6.99999997,9.99999999 L3.99999996,9.99999999 Z M6.99999997,17.5 C6.17156247,17.5 5.49999997,16.8284375 5.49999997,16 C5.49999997,15.1715625 6.17156247,14.5 6.99999997,14.5 C7.82843748,14.5 8.49999998,15.1715625 8.49999998,16 C8.49999998,16.8284375 7.82843748,17.5 6.99999997,17.5 Z M12,9.99999999 L8.99999998,9.99999999 L8.99999998,6.99999998 L12,6.99999998 L12,9.99999999 Z M17,17.5 C16.1715625,17.5 15.5,16.8284375 15.5,16 C15.5,15.1715625 16.1715625,14.5 17,14.5 C17.8284375,14.5 18.5,15.1715625 18.5,16 C18.5,16.8284375 17.8284375,17.5 17,17.5 Z M14,9.99999999 L14,6.99999998 L16.063125,6.99999998 L18.563125,9.99999999 L14,9.99999999 Z" id="path-1"></path>
    </defs>
    <g id="shuttle-van" stroke="none" stroke-width="1" fill="none" fill-rule="evenodd">
        <mask id="mask-2" fill="white">
            <use xlink:href="#path-1"></use>
        </mask>
        <g fill-rule="nonzero"></g>
        <g id="🎨-color" mask="url(#mask-2)" fill="#000000">
            <rect id="🎨-Color" x="0" y="0" width="24" height="24"></rect>
        </g>
    </g>
</svg>