<?xml version="1.0" encoding="UTF-8"?>
<svg width="24px" height="24px" viewBox="0 0 24 24" version="1.1" xmlns="http://www.w3.org/2000/svg" xmlns:xlink="http://www.w3.org/1999/xlink">
    <!-- Generator: Sketch 52.5 (67469) - http://www.bohemiancoding.com/sketch -->
    <title>sign</title>
    <desc>Created with Sketch.</desc>
    <defs>
        <path d="M21.375,4.49999996 L6.99999997,4.49999996 L6.99999997,2.62499995 C6.99999997,2.28124995 6.71874997,1.99999995 6.37499997,1.99999995 L5.12499997,1.99999995 C4.78124996,1.99999995 4.49999996,2.28124995 4.49999996,2.62499995 L4.49999996,4.49999996 L2.62499995,4.49999996 C2.28124995,4.49999996 1.99999995,4.78124996 1.99999995,5.12499997 L1.99999995,6.37499997 C1.99999995,6.71874997 2.28124995,6.99999997 2.62499995,6.99999997 L4.49999996,6.99999997 L4.49999996,21.375 C4.49999996,21.71875 4.78124996,22.0000001 5.12499997,22.0000001 L6.37499997,22.0000001 C6.71874997,22.0000001 6.99999997,21.71875 6.99999997,21.375 L6.99999997,6.99999997 L21.375,6.99999997 C21.71875,6.99999997 22.0000001,6.71874997 22.0000001,6.37499997 L22.0000001,5.12499997 C22.0000001,4.78124996 21.71875,4.49999996 21.375,4.49999996 Z M8.24999998,17 L20.75,17 L20.75,8.24999998 L8.24999998,8.24999998 L8.24999998,17 Z" id="path-1"></path>
    </defs>
    <g id="sign" stroke="none" stroke-width="1" fill="none" fill-rule="evenodd">
        <mask id="mask-2" fill="white">
            <use xlink:href="#path-1"></use>
        </mask>
        <g fill-rule="nonzero"></g>
        <g id="🎨-color" mask="url(#mask-2)" fill="#000000">
            <rect id="🎨-Color" x="0" y="0" width="24" height="24"></rect>
        </g>
    </g>
</svg>