<?xml version="1.0" encoding="UTF-8"?>
<svg width="24px" height="24px" viewBox="0 0 24 24" version="1.1" xmlns="http://www.w3.org/2000/svg" xmlns:xlink="http://www.w3.org/1999/xlink">
    <!-- Generator: Sketch 52.5 (67469) - http://www.bohemiancoding.com/sketch -->
    <title>sign-language</title>
    <desc>Created with Sketch.</desc>
    <defs>
        <path d="M6.83173487,20.8688889 C6.81976606,20.2444055 7.34280699,19.7332554 7.96740739,19.7332554 L10.3959844,19.7332554 L10.3959844,19.5104874 L5.48900582,19.5104874 C4.86440542,19.5104874 4.34136448,18.9993373 4.3533333,18.3748538 C4.36491224,17.7696297 4.85906429,17.2826511 5.46697852,17.2826511 L10.3959844,17.2826511 L10.3959844,17.0598831 L4.40296292,17.0598831 C3.77836253,17.0598831 3.25532159,16.548733 3.2672904,15.9242495 C3.27886935,15.3191033 3.77306039,14.8321248 4.38097462,14.8321248 L10.3960234,14.8321248 L10.3960234,14.6093567 L5.51684207,14.6093567 C4.89224168,14.6093567 4.36920074,14.0982066 4.38116955,13.4737232 C4.3927485,12.868577 4.88693954,12.3815984 5.49485377,12.3815984 L12.0666277,12.3815984 L10.8547368,11.5002729 C10.357193,11.1384405 10.2472125,10.4418324 10.6090448,9.9442495 C10.9708772,9.44674463 11.6675244,9.33676412 12.1650682,9.69855749 L16.974464,13.1962183 C17.3203161,13.4477539 17.5249404,13.8495828 17.5249513,14.277232 L17.5249513,19.7796102 C17.5249513,20.3998831 17.0982067,20.9386745 16.494425,21.0807408 L13.357154,21.8189084 C12.9557991,21.9133435 12.5448687,21.9610418 12.1325536,21.9610527 L7.94541908,21.9610527 C7.33750485,21.9610137 6.84331381,21.4740351 6.83173487,20.8688889 Z M9.68744638,12.0696296 L11.1074464,12.0696296 L10.671306,11.7524366 C9.94697855,11.225692 9.87937621,10.1584016 10.5477193,9.54830408 L10.0407407,8.89723195 C9.65699804,8.40440544 8.93235866,8.30576996 8.44697854,8.69886938 C7.97660817,9.07980505 7.89598438,9.76892786 8.26947367,10.248577 L9.68744638,12.0696296 Z M20.7322028,11.9876413 L20.537154,6.04409354 C20.5169591,5.42923973 20.0021833,4.94717345 19.3873295,4.9673294 C18.7723977,4.98752433 18.2903704,5.50230016 18.3105653,6.11715397 L18.3597661,7.61481479 L14.3222222,2.4295906 C13.948733,1.94994147 13.2608967,1.85922022 12.7762963,2.2218713 C12.2762183,2.59610132 12.194269,3.32284596 12.5780117,3.81567247 L15.5756335,7.6653801 L15.3998441,7.80226119 L11.7043275,3.05629625 C11.3308382,2.57664713 10.6430019,2.48592588 10.1584016,2.84857695 C9.65832358,3.22280697 9.57637426,3.94955162 9.96011695,4.44237813 L13.6421053,9.17095515 L13.4663158,9.30783624 L10.4380507,5.41879139 C10.0645614,4.93914226 9.37672513,4.84842102 8.89212474,5.21107209 C8.39204677,5.58530211 8.31009745,6.31204676 8.69384014,6.80487327 L10.7231969,9.41107211 C11.2104094,9.08916178 11.8559454,9.08807016 12.348538,9.44631578 L17.1578948,12.9439376 C17.583002,13.2530994 17.8368421,13.75154 17.8368421,14.277193 L17.8368421,14.939922 L20.2175049,13.0861598 C20.5549261,12.8234099 20.74625,12.4150677 20.7322028,11.9876413 Z" id="path-1"></path>
    </defs>
    <g id="sign-language" stroke="none" stroke-width="1" fill="none" fill-rule="evenodd">
        <mask id="mask-2" fill="white">
            <use xlink:href="#path-1"></use>
        </mask>
        <g fill-rule="nonzero"></g>
        <g id="🎨-color" mask="url(#mask-2)" fill="#000000">
            <rect id="🎨-Color" x="0" y="0" width="24" height="24"></rect>
        </g>
    </g>
</svg>