<?xml version="1.0" encoding="UTF-8"?>
<svg width="24px" height="24px" viewBox="0 0 24 24" version="1.1" xmlns="http://www.w3.org/2000/svg" xmlns:xlink="http://www.w3.org/1999/xlink">
    <!-- Generator: Sketch 52.5 (67469) - http://www.bohemiancoding.com/sketch -->
    <title>signature</title>
    <desc>Created with Sketch.</desc>
    <defs>
        <path d="M21.375,14.5 L17.7867188,14.5 C17.4246094,14.5 17.0164063,14.0582031 16.7796875,13.3859375 C16.1847656,11.6921875 14.9003906,10.6398437 13.428125,10.6398437 C12.2234375,10.6398437 11.1441406,11.3449219 10.4550781,12.5628906 L9.60937499,6.16015622 C9.37656249,5.16718747 8.61484373,4.49999996 7.71406248,4.49999996 C6.81367185,4.49999996 6.0519531,5.16718747 5.81953122,6.16015622 L4.19374996,13.1015625 C3.98046871,14.0097656 3.47460933,14.5 3.10664058,14.5 L2.62499995,14.5 C2.27968745,14.5 1.99999995,14.7796875 1.99999995,15.125 L1.99999995,16.375 C1.99999995,16.7203125 2.27968745,17 2.62499995,17 L3.10664058,17 C4.74609371,17 6.16093747,15.6628906 6.62773435,13.671875 L7.55898435,9.69609374 L8.70156248,18.3722657 C8.77890623,18.9601563 9.24140624,19.4445313 9.83203124,19.4953125 C9.87070311,19.4988282 9.90859374,19.5003907 9.94648436,19.5003907 C10.4964844,19.5003907 10.9871094,19.1382813 11.1453125,18.6039063 L12.4355469,14.215625 C12.6652344,13.5625 13.0542969,13.140625 13.428125,13.140625 C13.8023438,13.140625 14.1917969,13.5625 14.4351563,14.2546875 C15.0300781,15.9484375 16.3144531,17.0007813 17.7867188,17.0007813 L21.375,17.0007813 C21.7203125,17.0007813 22.0000001,16.7210938 22.0000001,16.3757813 L22.0000001,15.1257813 C22.0000001,14.7796875 21.7203125,14.5 21.375,14.5 Z" id="path-1"></path>
    </defs>
    <g id="signature" stroke="none" stroke-width="1" fill="none" fill-rule="evenodd">
        <mask id="mask-2" fill="white">
            <use xlink:href="#path-1"></use>
        </mask>
        <g></g>
        <g id="🎨-color" mask="url(#mask-2)" fill="#000000">
            <rect id="🎨-Color" x="0" y="0" width="24" height="24"></rect>
        </g>
    </g>
</svg>