<?xml version="1.0" encoding="UTF-8"?>
<svg width="24px" height="24px" viewBox="0 0 24 24" version="1.1" xmlns="http://www.w3.org/2000/svg" xmlns:xlink="http://www.w3.org/1999/xlink">
    <!-- Generator: Sketch 52.5 (67469) - http://www.bohemiancoding.com/sketch -->
    <title>signal</title>
    <desc>Created with Sketch.</desc>
    <defs>
        <path d="M8.74999998,13 L7.24999998,13 C6.97374997,13 6.74999997,13.22375 6.74999997,13.5 L6.74999997,19.5 C6.74999997,19.77625 6.97374997,20 7.24999998,20 L8.74999998,20 C9.02624999,20 9.24999999,19.77625 9.24999999,19.5 L9.24999999,13.5 C9.24999999,13.22375 9.02624999,13 8.74999998,13 Z M4.74999996,16 L3.24999996,16 C2.97374995,16 2.74999995,16.22375 2.74999995,16.5 L2.74999995,19.5 C2.74999995,19.77625 2.97374995,20 3.24999996,20 L4.74999996,20 C5.02624997,20 5.24999997,19.77625 5.24999997,19.5 L5.24999997,16.5 C5.24999997,16.22375 5.02624997,16 4.74999996,16 Z M12.75,9.99999999 L11.25,9.99999999 C10.97375,9.99999999 10.75,10.22375 10.75,10.5 L10.75,19.5 C10.75,19.77625 10.97375,20 11.25,20 L12.75,20 C13.02625,20 13.25,19.77625 13.25,19.5 L13.25,10.5 C13.25,10.22375 13.02625,9.99999999 12.75,9.99999999 Z M16.75,6.99999997 L15.25,6.99999997 C14.97375,6.99999997 14.75,7.22374998 14.75,7.49999998 L14.75,19.5 C14.75,19.77625 14.97375,20 15.25,20 L16.75,20 C17.02625,20 17.25,19.77625 17.25,19.5 L17.25,7.49999998 C17.25,7.22374998 17.02625,6.99999997 16.75,6.99999997 Z M20.75,3.99999996 L19.25,3.99999996 C18.97375,3.99999996 18.75,4.22374996 18.75,4.49999996 L18.75,19.5 C18.75,19.77625 18.97375,20 19.25,20 L20.75,20 C21.02625,20 21.25,19.77625 21.25,19.5 L21.25,4.49999996 C21.25,4.22374996 21.02625,3.99999996 20.75,3.99999996 Z" id="path-1"></path>
    </defs>
    <g id="signal" stroke="none" stroke-width="1" fill="none" fill-rule="evenodd">
        <mask id="mask-2" fill="white">
            <use xlink:href="#path-1"></use>
        </mask>
        <g fill-rule="nonzero"></g>
        <g id="🎨-color" mask="url(#mask-2)" fill="#000000">
            <rect id="🎨-Color" x="0" y="0" width="24" height="24"></rect>
        </g>
    </g>
</svg>