<?xml version="1.0" encoding="UTF-8"?>
<svg width="24px" height="24px" viewBox="0 0 24 24" version="1.1" xmlns="http://www.w3.org/2000/svg" xmlns:xlink="http://www.w3.org/1999/xlink">
    <!-- Generator: Sketch 52.5 (67469) - http://www.bohemiancoding.com/sketch -->
    <title>sign-out-alt</title>
    <desc>Created with Sketch.</desc>
    <defs>
        <path d="M21.4140625,12.6640625 L14.8515625,19.2265625 C14.265625,19.8125 13.25,19.4023438 13.25,18.5625 L13.25,14.8125 L7.93749998,14.8125 C7.41796873,14.8125 6.99999997,14.3945313 6.99999997,13.875 L6.99999997,10.125 C6.99999997,9.60546874 7.41796873,9.18749999 7.93749998,9.18749999 L13.25,9.18749999 L13.25,5.43749997 C13.25,4.60156246 14.2617188,4.18749996 14.8515625,4.77343746 L21.4140625,11.3359375 C21.7773438,11.703125 21.7773438,12.296875 21.4140625,12.6640625 Z M9.49999999,19.03125 L9.49999999,17.46875 C9.49999999,17.2109375 9.28906249,17 9.03124999,17 L5.74999997,17 C5.05859372,17 4.49999996,16.4414063 4.49999996,15.75 L4.49999996,8.24999998 C4.49999996,7.55859373 5.05859372,6.99999998 5.74999997,6.99999998 L9.03124999,6.99999998 C9.28906249,6.99999998 9.49999999,6.78906247 9.49999999,6.53124997 L9.49999999,4.96874996 C9.49999999,4.71093746 9.28906249,4.49999996 9.03124999,4.49999996 L5.74999997,4.49999996 C3.67968746,4.49999996 1.99999995,6.17968747 1.99999995,8.24999998 L1.99999995,15.75 C1.99999995,17.8203125 3.67968746,19.5 5.74999997,19.5 L9.03124999,19.5 C9.28906249,19.5 9.49999999,19.2890625 9.49999999,19.03125 Z" id="path-1"></path>
    </defs>
    <g id="sign-out-alt" stroke="none" stroke-width="1" fill="none" fill-rule="evenodd">
        <mask id="mask-2" fill="white">
            <use xlink:href="#path-1"></use>
        </mask>
        <g fill-rule="nonzero"></g>
        <g id="🎨-color" mask="url(#mask-2)" fill="#000000">
            <rect id="🎨-Color" x="0" y="0" width="24" height="24"></rect>
        </g>
    </g>
</svg>