<?xml version="1.0" encoding="UTF-8"?>
<svg width="24px" height="24px" viewBox="0 0 24 24" version="1.1" xmlns="http://www.w3.org/2000/svg" xmlns:xlink="http://www.w3.org/1999/xlink">
    <!-- Generator: Sketch 52.5 (67469) - http://www.bohemiancoding.com/sketch -->
    <title>sign-in-alt</title>
    <desc>Created with Sketch.</desc>
    <defs>
        <path d="M18.25,19.5 L14.96875,19.5 C14.7109375,19.5 14.5,19.2890625 14.5,19.03125 L14.5,17.46875 C14.5,17.2109375 14.7109375,17 14.96875,17 L18.25,17 C18.9414063,17 19.5,16.4414063 19.5,15.75 L19.5,8.24999998 C19.5,7.55859373 18.9414063,6.99999997 18.25,6.99999997 L14.96875,6.99999997 C14.7109375,6.99999997 14.5,6.78906247 14.5,6.53124997 L14.5,4.96874996 C14.5,4.71093746 14.7109375,4.49999996 14.96875,4.49999996 L18.25,4.49999996 C20.3203125,4.49999996 22.0000001,6.17968747 22.0000001,8.24999998 L22.0000001,15.75 C22.0000001,17.8203125 20.3203125,19.5 18.25,19.5 Z M16.4140625,11.6484375 L9.85156249,5.08593747 C9.26562499,4.49999996 8.24999998,4.91015621 8.24999998,5.74999997 L8.24999998,9.49999999 L2.93749995,9.49999999 C2.4179687,9.49999999 1.99999995,9.91796874 1.99999995,10.4375 L1.99999995,14.1875 C1.99999995,14.7070313 2.4179687,15.125 2.93749995,15.125 L8.24999998,15.125 L8.24999998,18.875 C8.24999998,19.7148438 9.26562499,20.125 9.85156249,19.5390625 L16.4140625,12.9765625 C16.7773438,12.609375 16.7773438,12.015625 16.4140625,11.6484375 Z" id="path-1"></path>
    </defs>
    <g id="sign-in-alt" stroke="none" stroke-width="1" fill="none" fill-rule="evenodd">
        <mask id="mask-2" fill="white">
            <use xlink:href="#path-1"></use>
        </mask>
        <g fill-rule="nonzero"></g>
        <g id="🎨-color" mask="url(#mask-2)" fill="#000000">
            <rect id="🎨-Color" x="0" y="0" width="24" height="24"></rect>
        </g>
    </g>
</svg>