<?xml version="1.0" encoding="UTF-8"?>
<svg width="24px" height="24px" viewBox="0 0 24 24" version="1.1" xmlns="http://www.w3.org/2000/svg" xmlns:xlink="http://www.w3.org/1999/xlink">
    <!-- Generator: Sketch 52.5 (67469) - http://www.bohemiancoding.com/sketch -->
    <title>simplybuilt</title>
    <desc>Created with Sketch.</desc>
    <defs>
        <path d="M20.796875,4.49999996 L16.65625,4.49999996 C16.0898438,4.49999996 15.6171875,4.96093746 15.6171875,5.52734372 L15.6171875,7.07421873 L8.37890623,7.07421873 L8.37890623,5.52734372 C8.37890623,4.96093746 7.91015623,4.49999996 7.33984373,4.49999996 L3.19921871,4.49999996 C2.6289062,4.49999996 2.1679687,4.96093746 2.1679687,5.52734372 L2.1679687,18.4726563 C2.1679687,19.0390625 2.6289062,19.5 3.20703121,19.5 L20.8007813,19.5 C21.3789063,19.5 21.8398438,19.0390625 21.8398438,18.4726563 L21.8398438,5.52734372 C21.8320313,4.96093746 21.3710938,4.49999996 20.796875,4.49999996 Z M7.85156248,15.8984375 C6.42187497,15.8984375 5.25781247,14.7382813 5.25781247,13.3046875 C5.25781247,11.8632812 6.41796872,10.703125 7.85156248,10.703125 C9.29296874,10.703125 10.453125,11.8632812 10.453125,13.3046875 C10.453125,14.7382813 9.29296874,15.8984375 7.85156248,15.8984375 Z M16.1484375,15.8984375 C14.7070313,15.8984375 13.546875,14.7382813 13.546875,13.296875 C13.546875,11.8671875 14.7070313,10.703125 16.1484375,10.703125 C17.578125,10.703125 18.7421875,11.8632812 18.7421875,13.296875 C18.7421875,14.7382813 17.578125,15.8984375 16.1484375,15.8984375 Z" id="path-1"></path>
    </defs>
    <g id="simplybuilt" stroke="none" stroke-width="1" fill="none" fill-rule="evenodd">
        <mask id="mask-2" fill="white">
            <use xlink:href="#path-1"></use>
        </mask>
        <g fill-rule="nonzero"></g>
        <g id="🎨-color" mask="url(#mask-2)" fill="#000000">
            <rect id="🎨-Color" x="0" y="0" width="24" height="24"></rect>
        </g>
    </g>
</svg>