<?xml version="1.0" encoding="UTF-8"?>
<svg width="24px" height="24px" viewBox="0 0 24 24" version="1.1" xmlns="http://www.w3.org/2000/svg" xmlns:xlink="http://www.w3.org/1999/xlink">
    <!-- Generator: Sketch 52.5 (67469) - http://www.bohemiancoding.com/sketch -->
    <title>sistrix</title>
    <desc>Created with Sketch.</desc>
    <defs>
        <path d="M20.75,19.5390625 L15.015625,13.7265625 C15.796875,12.6367188 16.2617188,11.296875 16.2617188,9.85156249 C16.2617188,6.21484372 13.34375,3.25390621 9.75781249,3.25390621 C6.16796872,3.24999996 3.24999996,6.21093747 3.24999996,9.84765624 C3.24999996,13.484375 6.16796872,16.4453125 9.75390624,16.4453125 C11.3085937,16.4453125 12.734375,15.890625 13.8554688,14.9648438 L19.5585938,20.75 L20.75,19.5390625 Z M9.75390624,14.921875 C6.99609372,14.921875 4.74999996,12.6445313 4.74999996,9.84765624 C4.74999996,7.05078123 6.99609372,4.77343746 9.75390624,4.77343746 C12.5117188,4.77343746 14.7578125,7.05078123 14.7578125,9.84765624 C14.7578125,12.6445313 12.515625,14.921875 9.75390624,14.921875 Z" id="path-1"></path>
    </defs>
    <g id="sistrix" stroke="none" stroke-width="1" fill="none" fill-rule="evenodd">
        <mask id="mask-2" fill="white">
            <use xlink:href="#path-1"></use>
        </mask>
        <g fill-rule="nonzero"></g>
        <g id="🎨-color" mask="url(#mask-2)" fill="#000000">
            <rect id="🎨-Color" x="0" y="0" width="24" height="24"></rect>
        </g>
    </g>
</svg>