<?xml version="1.0" encoding="UTF-8"?>
<svg width="24px" height="24px" viewBox="0 0 24 24" version="1.1" xmlns="http://www.w3.org/2000/svg" xmlns:xlink="http://www.w3.org/1999/xlink">
    <!-- Generator: Sketch 52.5 (67469) - http://www.bohemiancoding.com/sketch -->
    <title>sith</title>
    <desc>Created with Sketch.</desc>
    <defs>
        <path d="M3.24999996,3.24999996 L5.97304684,7.88867185 L3.67382808,7.43867185 L6.4019531,10.9945312 C6.28359335,11.6592253 6.28359335,12.3396029 6.4019531,13.0042969 L3.67382808,16.5601563 L5.97304684,16.1101563 L3.24999996,20.75 L7.88867185,18.0269532 L7.43867185,20.3261719 L10.9945312,17.5980469 C11.659375,17.7167969 12.3410156,17.7167969 13.0054688,17.5980469 L16.5613281,20.3261719 L16.1113281,18.0269532 L20.75,20.75 L18.0269532,16.1101563 L20.3261719,16.5601563 L17.5980469,13.0042969 C17.7164063,12.3398438 17.7167969,11.6589844 17.5980469,10.9945312 L20.3261719,7.43867185 L18.0269532,7.88867185 L20.75,3.24999996 L16.1113281,5.97304684 L16.5613281,3.67226558 L13.0042969,6.40156247 C12.6722656,6.34218747 12.3363281,6.31210935 12,6.31210935 C11.6636719,6.31210935 11.3277344,6.3425781 10.9957031,6.40156247 L7.43867185,3.67226558 L7.88867185,5.97304684 L3.24999996,3.24999996 Z M12,7.14765623 C13.2421875,7.14765623 14.484375,7.62109373 15.4316406,8.56835936 C17.3261719,10.4628906 17.3257813,13.5375 15.4316406,15.4316406 C13.5375,17.3257813 10.4628906,17.3246094 8.56835936,15.4304688 C6.6738281,13.5359375 6.67421872,10.4613281 8.56835936,8.56718748 C9.51523436,7.61992185 10.7578125,7.14765623 12,7.14765623 Z M12,8.57968748 C11.1242187,8.57968748 10.2488281,8.91249998 9.58124999,9.58007811 C8.24609373,10.9152344 8.24570311,13.0832031 9.58124999,14.41875 C10.9167969,15.7542969 13.0832031,15.7539063 14.41875,14.41875 C15.7539063,13.0835938 15.7542969,10.915625 14.41875,9.58007811 C13.7511719,8.91249998 12.8757813,8.57968748 12,8.57968748 Z" id="path-1"></path>
    </defs>
    <g id="sith" stroke="none" stroke-width="1" fill="none" fill-rule="evenodd">
        <mask id="mask-2" fill="white">
            <use xlink:href="#path-1"></use>
        </mask>
        <g fill-rule="nonzero"></g>
        <g id="🎨-color" mask="url(#mask-2)" fill="#000000">
            <rect id="🎨-Color" x="0" y="0" width="24" height="24"></rect>
        </g>
    </g>
</svg>