<?xml version="1.0" encoding="UTF-8"?>
<svg width="24px" height="24px" viewBox="0 0 24 24" version="1.1" xmlns="http://www.w3.org/2000/svg" xmlns:xlink="http://www.w3.org/1999/xlink">
    <!-- Generator: Sketch 52.5 (67469) - http://www.bohemiancoding.com/sketch -->
    <title>skull</title>
    <desc>Created with Sketch.</desc>
    <defs>
        <path d="M12,1.99999995 C6.47656247,1.99999995 1.99999995,5.91796872 1.99999995,10.75 C1.99999995,13.4882813 3.44140621,15.9296875 5.69140622,17.5351563 C6.06640622,17.8046875 6.28515622,18.2421875 6.21874997,18.703125 L5.85156247,21.2890625 C5.79687497,21.6640625 6.08593747,22.0000001 6.46484372,22.0000001 L9.49999999,22.0000001 L9.49999999,19.8125 C9.49999999,19.640625 9.64062499,19.5 9.81249999,19.5 L10.4375,19.5 C10.609375,19.5 10.75,19.640625 10.75,19.8125 L10.75,22.0000001 L13.25,22.0000001 L13.25,19.8125 C13.25,19.640625 13.390625,19.5 13.5625,19.5 L14.1875,19.5 C14.359375,19.5 14.5,19.640625 14.5,19.8125 L14.5,22.0000001 L17.5351563,22.0000001 C17.9140625,22.0000001 18.203125,21.6640625 18.1484375,21.2890625 L17.78125,18.703125 C17.7148438,18.2460938 17.9296875,17.8046875 18.3085938,17.5351563 C20.5585938,15.9296875 22.0000001,13.4882813 22.0000001,10.75 C22.0000001,5.91796872 17.5234375,1.99999995 12,1.99999995 Z M8.24999998,14.5 C6.87109372,14.5 5.74999997,13.3789063 5.74999997,12 C5.74999997,10.6210937 6.87109372,9.49999999 8.24999998,9.49999999 C9.62890624,9.49999999 10.75,10.6210937 10.75,12 C10.75,13.3789063 9.62890624,14.5 8.24999998,14.5 Z M15.75,14.5 C14.3710938,14.5 13.25,13.3789063 13.25,12 C13.25,10.6210937 14.3710938,9.49999999 15.75,9.49999999 C17.1289063,9.49999999 18.25,10.6210937 18.25,12 C18.25,13.3789063 17.1289063,14.5 15.75,14.5 Z" id="path-1"></path>
    </defs>
    <g id="skull" stroke="none" stroke-width="1" fill="none" fill-rule="evenodd">
        <mask id="mask-2" fill="white">
            <use xlink:href="#path-1"></use>
        </mask>
        <g fill-rule="nonzero"></g>
        <g id="🎨-color" mask="url(#mask-2)" fill="#000000">
            <rect id="🎨-Color" x="0" y="0" width="24" height="24"></rect>
        </g>
    </g>
</svg>