<?xml version="1.0" encoding="UTF-8"?>
<svg width="24px" height="24px" viewBox="0 0 24 24" version="1.1" xmlns="http://www.w3.org/2000/svg" xmlns:xlink="http://www.w3.org/1999/xlink">
    <!-- Generator: Sketch 52.5 (67469) - http://www.bohemiancoding.com/sketch -->
    <title>skull-crossbones</title>
    <desc>Created with Sketch.</desc>
    <defs>
        <path d="M20.3879143,19.6631579 L14.8526316,16.9707603 L20.3883041,14.2783626 C20.6962963,14.1243665 20.8214425,13.7497076 20.6670566,13.4417154 L20.1091618,12.3255361 C19.9551657,12.0175439 19.5805069,11.8923977 19.2721248,12.0463938 L12,15.5832359 L4.72787521,12.0463938 C4.419883,11.8923977 4.04522413,12.017154 3.89083817,12.3255361 L3.33294343,13.4417154 C3.17894732,13.7497076 3.30370366,14.1243665 3.61169586,14.2783626 L9.14736841,16.9707603 L3.61208573,19.6631579 C3.30409352,19.817154 3.17894732,20.1918129 3.33333329,20.500195 L3.89122803,21.6163743 C4.04522413,21.9243665 4.419883,22.0495127 4.72826507,21.8951268 L12,18.3582846 L19.2721248,21.8951268 C19.580117,22.0491229 19.9547759,21.9243665 20.1091618,21.6163743 L20.6670566,20.500195 C20.8210527,20.1918129 20.6959065,19.817154 20.3879143,19.6631579 Z M9.11500973,11.2506823 L8.90136451,12.2592593 C8.79727094,12.7512671 9.11267055,13.2280702 9.54269005,13.2280702 L14.4580897,13.2280702 C14.8881092,13.2280702 15.2035088,12.7512671 15.0994152,12.2592593 L14.8849903,11.2506823 C16.5138402,10.376998 17.6140351,8.80428848 17.6140351,6.99025339 C17.6140351,4.23430795 15.1005848,1.99999995 12,1.99999995 C8.89941519,1.99999995 6.38596488,4.23430795 6.38596488,6.99025339 C6.38596488,8.80428848 7.48615982,10.376998 9.11500973,11.2506823 Z M14.1832359,6.36647171 C14.871345,6.36647171 15.4307992,6.9259259 15.4307992,7.61403507 C15.4307992,8.30214423 14.871345,8.86159842 14.1832359,8.86159842 C13.4951267,8.86159842 12.9356725,8.30214423 12.9356725,7.61403507 C12.9356725,6.9259259 13.4951267,6.36647171 14.1832359,6.36647171 Z M9.81676412,6.36647171 C10.5048733,6.36647171 11.0643275,6.9259259 11.0643275,7.61403507 C11.0643275,8.30214423 10.5048733,8.86159842 9.81676412,8.86159842 C9.12865496,8.86159842 8.56920076,8.30214423 8.56920076,7.61403507 C8.56920076,6.9259259 9.12865496,6.36647171 9.81676412,6.36647171 Z" id="path-1"></path>
    </defs>
    <g id="skull-crossbones" stroke="none" stroke-width="1" fill="none" fill-rule="evenodd">
        <mask id="mask-2" fill="white">
            <use xlink:href="#path-1"></use>
        </mask>
        <g fill-rule="nonzero"></g>
        <g id="🎨-color" mask="url(#mask-2)" fill="#000000">
            <rect id="🎨-Color" x="0" y="0" width="24" height="24"></rect>
        </g>
    </g>
</svg>