<?xml version="1.0" encoding="UTF-8"?>
<svg width="24px" height="24px" viewBox="0 0 24 24" version="1.1" xmlns="http://www.w3.org/2000/svg" xmlns:xlink="http://www.w3.org/1999/xlink">
    <!-- Generator: Sketch 52.5 (67469) - http://www.bohemiancoding.com/sketch -->
    <title>skyatlas</title>
    <desc>Created with Sketch.</desc>
    <defs>
        <path d="M22,14.290625 C22,16.35 20.359375,17.865625 18.328125,17.865625 C13.14375,17.865625 12.184375,10.0625 7.08749998,10.0625 C2.49687495,10.0625 2.49062495,16.69375 7.26249998,16.69375 C8.59062498,16.69375 10.103125,16.1375 11.178125,15.365625 C11.353125,15.2375 11.70625,14.85625 11.890625,14.85625 C12.075,14.85625 12.23125,15.0125 12.23125,15.196875 C12.23125,15.440625 11.821875,15.79375 11.646875,15.95 C10.36875,17.0625 8.51249998,17.8625 6.81249997,17.8625 C4.20624996,17.865625 1.99999995,16.01875 1.99999995,13.334375 C1.99999995,10.65 4.10937496,8.67499998 6.77499997,8.67499998 C12.565625,8.67499998 13.728125,16.359375 18.084375,16.359375 C21.20625,16.359375 21.046875,11.99375 18.190625,11.99375 C17.64375,11.99375 17.096875,12.35625 16.725,12.35625 C16.4625,12.35625 16.228125,12.13125 16.228125,11.86875 C16.228125,11.50625 16.39375,11.128125 16.39375,10.734375 C16.39375,8.65312498 14.803125,7.14999998 12.740625,7.14999998 C11.08125,7.14999998 10.240625,8.30312498 9.96562499,8.30312498 C9.77187499,8.30312498 9.61562499,8.14687498 9.61562499,7.95312498 C9.61562499,7.77812498 9.74374999,7.63124998 9.85937499,7.50312498 C10.65,6.60312497 11.88125,6.13749997 13.071875,6.13749997 C15.553125,6.13749997 17.41875,7.96249998 17.41875,10.44375 C17.41875,10.659375 17.409375,10.871875 17.38125,11.0875 C17.753125,10.990625 18.134375,10.940625 18.503125,10.940625 C20.4,10.940625 22.0000001,12.35625 22.0000001,14.290625 Z" id="path-1"></path>
    </defs>
    <g id="skyatlas" stroke="none" stroke-width="1" fill="none" fill-rule="evenodd">
        <mask id="mask-2" fill="white">
            <use xlink:href="#path-1"></use>
        </mask>
        <g></g>
        <g id="🎨-color" mask="url(#mask-2)" fill="#000000">
            <rect id="🎨-Color" x="0" y="0" width="24" height="24"></rect>
        </g>
    </g>
</svg>