<?xml version="1.0" encoding="UTF-8"?>
<svg width="24px" height="24px" viewBox="0 0 24 24" version="1.1" xmlns="http://www.w3.org/2000/svg" xmlns:xlink="http://www.w3.org/1999/xlink">
    <!-- Generator: Sketch 52.5 (67469) - http://www.bohemiancoding.com/sketch -->
    <title>skype</title>
    <desc>Created with Sketch.</desc>
    <defs>
        <path d="M19.8398438,13.7109375 C19.953125,13.1640625 20.0234375,12.5820313 20.0234375,12 C20.0234375,7.56640623 16.4335938,3.98046871 12.0039063,3.98046871 C11.421875,3.98046871 10.84375,4.04687496 10.2929687,4.16406246 C9.55078124,3.58984371 8.62890623,3.24999996 7.62499998,3.24999996 C5.21093747,3.24999996 3.24999996,5.21093747 3.24999996,7.62499998 C3.24999996,8.62890623 3.58984371,9.55078124 4.16015621,10.2890625 C4.04687496,10.8359375 3.97656246,11.4179687 3.97656246,12 C3.97656246,16.4335938 7.56640623,20.0195313 11.9960937,20.0195313 C12.578125,20.0195313 13.15625,19.953125 13.7070313,19.8359375 C14.4492188,20.40625 15.3710938,20.7460938 16.3710938,20.7460938 C18.7851563,20.7460938 20.7460938,18.7851563 20.7460938,16.3710938 C20.75,15.3710938 20.4101563,14.4492188 19.8398438,13.7109375 Z M12.2382813,17.2851563 C9.67578124,17.2851563 7.53124998,16.1445313 7.53124998,14.7460938 C7.53124998,14.1210938 7.88281248,13.5507813 8.68359373,13.5507813 C9.90234374,13.5507813 10.015625,15.3046875 12.125,15.3046875 C13.1289063,15.3046875 13.7773438,14.859375 13.7773438,14.2773438 C13.7773438,13.546875 13.1523438,13.4335938 12.1367188,13.1835938 C9.69531249,12.5820313 7.53515623,12.3242188 7.53515623,9.77734374 C7.53515623,7.46484373 9.82421874,6.60937497 11.796875,6.60937497 C13.9492188,6.60937497 16.125,7.46484373 16.125,8.77343748 C16.125,9.43359374 15.6796875,10.015625 14.9414063,10.015625 C13.8359375,10.015625 13.8007813,8.70703123 12.0117188,8.70703123 C11.0078125,8.70703123 10.3710937,8.98046873 10.3710937,9.58593749 C10.3710937,10.359375 11.1835937,10.4375 13.0703125,10.875 C14.6875,11.2382812 16.6132813,11.921875 16.6132813,13.90625 C16.6132813,16.2148438 14.3828125,17.2851563 12.2382813,17.2851563 Z" id="path-1"></path>
    </defs>
    <g id="skype" stroke="none" stroke-width="1" fill="none" fill-rule="evenodd">
        <mask id="mask-2" fill="white">
            <use xlink:href="#path-1"></use>
        </mask>
        <g fill-rule="nonzero"></g>
        <g id="🎨-color" mask="url(#mask-2)" fill="#000000">
            <rect id="🎨-Color" x="0" y="0" width="24" height="24"></rect>
        </g>
    </g>
</svg>