<?xml version="1.0" encoding="UTF-8"?>
<svg width="24px" height="24px" viewBox="0 0 24 24" version="1.1" xmlns="http://www.w3.org/2000/svg" xmlns:xlink="http://www.w3.org/1999/xlink">
    <!-- Generator: Sketch 52.5 (67469) - http://www.bohemiancoding.com/sketch -->
    <title>slack-hash</title>
    <desc>Created with Sketch.</desc>
    <defs>
        <path d="M20.6601563,12.5625 C20.4179688,11.8203125 19.609375,11.4257812 18.8632813,11.6679687 L17.0898438,12.2578125 L15.90625,8.74218748 L17.6796875,8.15234373 C18.4257813,7.91015623 18.8164063,7.10546873 18.578125,6.35937497 C18.3359375,5.61718747 17.5273438,5.22265622 16.78125,5.46484372 L15.0078125,6.05468747 L14.3945313,4.21874996 C14.1523438,3.47656246 13.34375,3.08203121 12.5976563,3.32421871 C11.8515625,3.56640621 11.4609375,4.37109371 11.6992187,5.11718747 L12.3125,6.95312497 L8.66406248,8.17187498 L8.05078123,6.33593747 C7.80859373,5.59374997 6.99999997,5.19921872 6.25390622,5.44140622 C5.50781247,5.68359372 5.11718747,6.48828122 5.35546872,7.23437498 L5.96874997,9.07031249 L4.19921871,9.65624999 C3.45312496,9.89843749 3.06249996,10.703125 3.30078121,11.4492187 C3.49609371,12.015625 4.04687496,12.3867188 4.61328121,12.4101563 C4.87890621,12.4492188 5.08203122,12.3476563 6.86718747,11.7539062 L8.05078123,15.2695313 L6.27734372,15.859375 C5.53515622,16.1015625 5.14062497,16.9101563 5.37890622,17.6523438 C5.57421872,18.21875 6.12499997,18.5898438 6.69140622,18.6132813 C6.95703122,18.6523438 7.16015623,18.5507813 8.94531248,17.9570313 L9.55859374,19.7929688 C9.78906249,20.453125 10.5234375,20.9257813 11.3554687,20.6875 C12.1015625,20.4453125 12.4921875,19.640625 12.2539063,18.8945313 L11.640625,17.0585938 L15.296875,15.8359375 L15.9101563,17.671875 C16.140625,18.3320313 16.875,18.8046875 17.7070313,18.5664063 C18.453125,18.3242188 18.84375,17.5195313 18.6054688,16.7734375 L17.9921875,14.9375 L19.765625,14.3476563 C20.5078125,14.1132813 20.9023438,13.3046875 20.6601563,12.5625 Z M10.734375,14.40625 L9.55078124,10.8828125 L13.203125,9.66015624 L14.3867188,13.1835938 L10.734375,14.40625 Z" id="path-1"></path>
    </defs>
    <g id="slack-hash" stroke="none" stroke-width="1" fill="none" fill-rule="evenodd">
        <mask id="mask-2" fill="white">
            <use xlink:href="#path-1"></use>
        </mask>
        <g fill-rule="nonzero"></g>
        <g id="🎨-color" mask="url(#mask-2)" fill="#000000">
            <rect id="🎨-Color" x="0" y="0" width="24" height="24"></rect>
        </g>
    </g>
</svg>