<?xml version="1.0" encoding="UTF-8"?>
<svg width="24px" height="24px" viewBox="0 0 24 24" version="1.1" xmlns="http://www.w3.org/2000/svg" xmlns:xlink="http://www.w3.org/1999/xlink">
    <!-- Generator: Sketch 52.5 (67469) - http://www.bohemiancoding.com/sketch -->
    <title>slack</title>
    <desc>Created with Sketch.</desc>
    <defs>
        <path d="M12.7890625,10.4960937 L13.5429688,12.75 L11.2070312,13.53125 L10.453125,11.2773437 L12.7890625,10.4960937 Z M14.40625,20.015625 C8.39062498,21.8203125 5.78906247,20.421875 3.98437496,14.40625 C2.17968745,8.39062498 3.57812496,5.78906247 9.59374999,3.98437496 C15.609375,2.17968745 18.2109375,3.57812496 20.015625,9.59374999 C21.8203125,15.609375 20.421875,18.2109375 14.40625,20.015625 Z M17.5546875,12.3515625 C17.4023438,11.875 16.8828125,11.625 16.40625,11.7773437 L15.2734375,12.15625 L14.5195313,9.90234374 L15.6523438,9.52343749 C16.1289063,9.37109374 16.3789063,8.85156248 16.2265625,8.37499998 C16.0742188,7.89843748 15.5546875,7.64843748 15.078125,7.80078123 L13.9453125,8.17968748 L13.5546875,7.00390623 C13.4023438,6.52734372 12.8828125,6.27734372 12.40625,6.42968747 C11.9296875,6.58203122 11.6796875,7.10156248 11.8320312,7.57812498 L12.2226563,8.75390623 L9.88671874,9.53906249 L9.49609374,8.36328123 C9.34374999,7.88671873 8.82421873,7.63671873 8.34765623,7.78906248 C7.87109373,7.94140623 7.62109373,8.46093748 7.77343748,8.93749998 L8.16406248,10.1132812 L7.03124998,10.4921875 C6.55468747,10.6445312 6.30468747,11.1640625 6.45703122,11.640625 C6.58203122,12.0039063 6.93359372,12.2421875 7.29687498,12.2578125 C7.46484373,12.28125 7.59765623,12.21875 8.73828123,11.8398437 L9.49218749,14.09375 L8.35937498,14.4726563 C7.88281248,14.625 7.63281248,15.1445313 7.78515623,15.6210938 C7.91015623,15.984375 8.26171873,16.2226563 8.62499998,16.2382813 C8.79296873,16.2617188 8.92578123,16.1992188 10.0664062,15.8203125 L10.4570312,16.9960938 C10.6015625,17.4179688 11.0742187,17.7226563 11.6054687,17.5703125 C12.0820313,17.4179688 12.3320313,16.8984375 12.1796875,16.421875 L11.7890625,15.2460938 L14.125,14.4609375 L14.515625,15.6367188 C14.6601563,16.0585938 15.1328125,16.3632813 15.6640625,16.2109375 C16.140625,16.0585938 16.390625,15.5390625 16.2382813,15.0625 L15.8476563,13.8867188 L16.9804688,13.5078125 C17.4570313,13.34375 17.7070313,12.8242188 17.5546875,12.3515625 Z" id="path-1"></path>
    </defs>
    <g id="slack" stroke="none" stroke-width="1" fill="none" fill-rule="evenodd">
        <mask id="mask-2" fill="white">
            <use xlink:href="#path-1"></use>
        </mask>
        <g fill-rule="nonzero"></g>
        <g id="🎨-color" mask="url(#mask-2)" fill="#000000">
            <rect id="🎨-Color" x="0" y="0" width="24" height="24"></rect>
        </g>
    </g>
</svg>