<?xml version="1.0" encoding="UTF-8"?>
<svg width="24px" height="24px" viewBox="0 0 24 24" version="1.1" xmlns="http://www.w3.org/2000/svg" xmlns:xlink="http://www.w3.org/1999/xlink">
    <!-- Generator: Sketch 52.5 (67469) - http://www.bohemiancoding.com/sketch -->
    <title>smile-beam</title>
    <desc>Created with Sketch.</desc>
    <defs>
        <path d="M12,2.31249995 C6.64843747,2.31249995 2.31249995,6.64843747 2.31249995,12 C2.31249995,17.3515625 6.64843747,21.6875 12,21.6875 C17.3515625,21.6875 21.6875,17.3515625 21.6875,12 C21.6875,6.64843747 17.3515625,2.31249995 12,2.31249995 Z M12,19.8125 C7.69140623,19.8125 4.18749996,16.3085938 4.18749996,12 C4.18749996,7.69140623 7.69140623,4.18749996 12,4.18749996 C16.3085938,4.18749996 19.8125,7.69140623 19.8125,12 C19.8125,16.3085938 16.3085938,19.8125 12,19.8125 Z M15.28125,14.2109375 C14.46875,15.1875 13.2695313,15.75 12,15.75 C10.7304687,15.75 9.53124999,15.1914063 8.71874998,14.2109375 C8.38671873,13.8125 7.79687498,13.7617188 7.39843748,14.0898438 C6.99999997,14.421875 6.94921872,15.0117188 7.27734373,15.4101563 C8.44921873,16.8164063 10.171875,17.6210938 12,17.6210938 C13.828125,17.6210938 15.5507813,16.8164063 16.7226563,15.4101563 C17.0546875,15.0117188 17,14.421875 16.6015625,14.0898438 C16.203125,13.7617188 15.6132813,13.8125 15.28125,14.2109375 Z M7.64453123,10.2421875 C7.94531248,9.70703124 8.39453123,9.39843749 8.87499998,9.39843749 C9.35546874,9.39843749 9.80468749,9.70703124 10.1054687,10.2421875 L10.4765625,10.90625 C10.5585937,11.0507812 10.71875,11.0898437 10.8398437,11.0507812 C10.9804687,11.0078125 11.0742187,10.875 11.0625,10.7265625 C10.9335937,9.08203124 9.80468749,7.93749998 8.87499998,7.93749998 C7.94531248,7.93749998 6.81640622,9.08203124 6.68749997,10.7265625 C6.67578122,10.8710937 6.76953122,11.0078125 6.91015622,11.0507812 C7.04296873,11.09375 7.19921873,11.03125 7.27343748,10.90625 L7.64453123,10.2421875 Z M15.125,7.93749998 C14.1953125,7.93749998 13.0664063,9.08203124 12.9375,10.7265625 C12.9257813,10.8710937 13.0195313,11.0078125 13.1601563,11.0507812 C13.296875,11.09375 13.4492188,11.03125 13.5234375,10.90625 L13.8945313,10.2421875 C14.1953125,9.70703124 14.6445313,9.39843749 15.125,9.39843749 C15.6054688,9.39843749 16.0546875,9.70703124 16.3554688,10.2421875 L16.7265625,10.90625 C16.8085938,11.0507812 16.96875,11.0898437 17.0898438,11.0507812 C17.2304688,11.0078125 17.3242188,10.875 17.3125,10.7265625 C17.1835938,9.08203124 16.0546875,7.93749998 15.125,7.93749998 Z" id="path-1"></path>
    </defs>
    <g id="smile-beam" stroke="none" stroke-width="1" fill="none" fill-rule="evenodd">
        <mask id="mask-2" fill="white">
            <use xlink:href="#path-1"></use>
        </mask>
        <g fill-rule="nonzero"></g>
        <g id="🎨-color" mask="url(#mask-2)" fill="#000000">
            <rect id="🎨-Color" x="0" y="0" width="24" height="24"></rect>
        </g>
    </g>
</svg>