<?xml version="1.0" encoding="UTF-8"?>
<svg width="24px" height="24px" viewBox="0 0 24 24" version="1.1" xmlns="http://www.w3.org/2000/svg" xmlns:xlink="http://www.w3.org/1999/xlink">
    <!-- Generator: Sketch 52.5 (67469) - http://www.bohemiancoding.com/sketch -->
    <title>smile</title>
    <desc>Created with Sketch.</desc>
    <defs>
        <path d="M12,2.31249995 C6.64843747,2.31249995 2.31249995,6.64843747 2.31249995,12 C2.31249995,17.3515625 6.64843747,21.6875 12,21.6875 C17.3515625,21.6875 21.6875,17.3515625 21.6875,12 C21.6875,6.64843747 17.3515625,2.31249995 12,2.31249995 Z M12,19.8125 C7.69140623,19.8125 4.18749996,16.3085938 4.18749996,12 C4.18749996,7.69140623 7.69140623,4.18749996 12,4.18749996 C16.3085938,4.18749996 19.8125,7.69140623 19.8125,12 C19.8125,16.3085938 16.3085938,19.8125 12,19.8125 Z M8.87499998,11.375 C9.56640624,11.375 10.125,10.8164062 10.125,10.125 C10.125,9.43359374 9.56640624,8.87499998 8.87499998,8.87499998 C8.18359373,8.87499998 7.62499998,9.43359374 7.62499998,10.125 C7.62499998,10.8164062 8.18359373,11.375 8.87499998,11.375 Z M15.125,11.375 C15.8164063,11.375 16.375,10.8164062 16.375,10.125 C16.375,9.43359374 15.8164063,8.87499998 15.125,8.87499998 C14.4335938,8.87499998 13.875,9.43359374 13.875,10.125 C13.875,10.8164062 14.4335938,11.375 15.125,11.375 Z M15.28125,14.2109375 C14.46875,15.1875 13.2695313,15.75 12,15.75 C10.7304687,15.75 9.53124999,15.1914063 8.71874998,14.2109375 C8.38671873,13.8125 7.79296873,13.7617188 7.39843748,14.0898438 C6.99999997,14.421875 6.94921872,15.0117188 7.27734373,15.4101563 C8.44921873,16.8164063 10.171875,17.6210938 12,17.6210938 C13.828125,17.6210938 15.5507813,16.8164063 16.7226563,15.4101563 C17.0546875,15.0117188 17,14.421875 16.6015625,14.0898438 C16.2070313,13.7617188 15.6132813,13.8125 15.28125,14.2109375 Z" id="path-1"></path>
    </defs>
    <g id="smile" stroke="none" stroke-width="1" fill="none" fill-rule="evenodd">
        <mask id="mask-2" fill="white">
            <use xlink:href="#path-1"></use>
        </mask>
        <g fill-rule="nonzero"></g>
        <g id="🎨-color" mask="url(#mask-2)" fill="#000000">
            <rect id="🎨-Color" x="0" y="0" width="24" height="24"></rect>
        </g>
    </g>
</svg>