<?xml version="1.0" encoding="UTF-8"?>
<svg width="24px" height="24px" viewBox="0 0 24 24" version="1.1" xmlns="http://www.w3.org/2000/svg" xmlns:xlink="http://www.w3.org/1999/xlink">
    <!-- Generator: Sketch 52.5 (67469) - http://www.bohemiancoding.com/sketch -->
    <title>smile-wink</title>
    <desc>Created with Sketch.</desc>
    <defs>
        <path d="M12,2.31249995 C6.64843747,2.31249995 2.31249995,6.64843747 2.31249995,12 C2.31249995,17.3515625 6.64843747,21.6875 12,21.6875 C17.3515625,21.6875 21.6875,17.3515625 21.6875,12 C21.6875,6.64843747 17.3515625,2.31249995 12,2.31249995 Z M12,19.8125 C7.69140623,19.8125 4.18749996,16.3085938 4.18749996,12 C4.18749996,7.69140623 7.69140623,4.18749996 12,4.18749996 C16.3085938,4.18749996 19.8125,7.69140623 19.8125,12 C19.8125,16.3085938 16.3085938,19.8125 12,19.8125 Z M16.6015625,14.09375 C16.203125,13.7617188 15.6132813,13.8164063 15.28125,14.2148438 C14.46875,15.1914063 13.2695313,15.7539063 12,15.7539063 C10.7304687,15.7539063 9.53124999,15.1953125 8.71874998,14.2148438 C8.38671873,13.8164063 7.79296873,13.765625 7.39843748,14.09375 C6.99999997,14.4257813 6.94921872,15.015625 7.27734373,15.4140625 C8.44921873,16.8203125 10.171875,17.625 12,17.625 C13.828125,17.625 15.5507813,16.8203125 16.7226563,15.4140625 C17.0546875,15.015625 17,14.4257813 16.6015625,14.09375 Z M8.87499998,11.375 C9.56640624,11.375 10.125,10.8164062 10.125,10.125 C10.125,9.43359374 9.56640624,8.87499998 8.87499998,8.87499998 C8.18359373,8.87499998 7.62499998,9.43359374 7.62499998,10.125 C7.62499998,10.8164062 8.18359373,11.375 8.87499998,11.375 Z M15.125,9.03124999 C14.1210938,9.03124999 12.9414063,9.69140624 12.7851563,10.6757812 C12.71875,11.1132812 13.234375,11.3867187 13.5585938,11.0976562 L13.9296875,10.765625 C14.5078125,10.25 15.734375,10.25 16.3125,10.765625 L16.6835938,11.0976562 C17.015625,11.3867187 17.5273438,11.109375 17.4570313,10.6757812 C17.3085938,9.69140624 16.1289063,9.03124999 15.125,9.03124999 Z" id="path-1"></path>
    </defs>
    <g id="smile-wink" stroke="none" stroke-width="1" fill="none" fill-rule="evenodd">
        <mask id="mask-2" fill="white">
            <use xlink:href="#path-1"></use>
        </mask>
        <g fill-rule="nonzero"></g>
        <g id="🎨-color" mask="url(#mask-2)" fill="#000000">
            <rect id="🎨-Color" x="0" y="0" width="24" height="24"></rect>
        </g>
    </g>
</svg>