<?xml version="1.0" encoding="UTF-8"?>
<svg width="24px" height="24px" viewBox="0 0 24 24" version="1.1" xmlns="http://www.w3.org/2000/svg" xmlns:xlink="http://www.w3.org/1999/xlink">
    <!-- Generator: Sketch 52.5 (67469) - http://www.bohemiancoding.com/sketch -->
    <title>smog</title>
    <desc>Created with Sketch.</desc>
    <defs>
        <path d="M21.5,15.5 L4.49999996,15.5 C4.22499996,15.5 3.99999996,15.725 3.99999996,16 L3.99999996,16.5 C3.99999996,16.775 4.22499996,17 4.49999996,17 L21.5,17 C21.775,17 22.0000001,16.775 22.0000001,16.5 L22.0000001,16 C22.0000001,15.725 21.775,15.5 21.5,15.5 Z M6.49999997,18.5 L2.49999995,18.5 C2.22499995,18.5 1.99999995,18.725 1.99999995,19 L1.99999995,19.5 C1.99999995,19.775 2.22499995,20 2.49999995,20 L6.49999997,20 C6.77499997,20 6.99999997,19.775 6.99999997,19.5 L6.99999997,19 C6.99999997,18.725 6.77499997,18.5 6.49999997,18.5 Z M19.5,18.5 L8.99999998,18.5 C8.72499998,18.5 8.49999998,18.725 8.49999998,19 L8.49999998,19.5 C8.49999998,19.775 8.72499998,20 8.99999998,20 L19.5,20 C19.775,20 20,19.775 20,19.5 L20,19 C20,18.725 19.775,18.5 19.5,18.5 Z M6.49999997,13 L11.378125,13 C12.08125,13.615625 12.990625,14 14,14 C15.009375,14 15.915625,13.615625 16.621875,13 L18.5,13 C20.434375,13 22.0000001,11.434375 22.0000001,9.49999999 C22.0000001,7.56562498 20.434375,5.99999997 18.5,5.99999997 C17.9375,5.99999997 17.415625,6.14374997 16.946875,6.37812497 C16.1875,4.96874996 14.7125,3.99999996 13,3.99999996 C11.71875,3.99999996 10.56875,4.54062496 9.74999999,5.39999997 C8.93124998,4.54062496 7.78124998,3.99999996 6.49999997,3.99999996 C4.01562496,3.99999996 1.99999995,6.01562497 1.99999995,8.49999998 C1.99999995,10.984375 4.01562496,13 6.49999997,13 Z" id="path-1"></path>
    </defs>
    <g id="smog" stroke="none" stroke-width="1" fill="none" fill-rule="evenodd">
        <mask id="mask-2" fill="white">
            <use xlink:href="#path-1"></use>
        </mask>
        <g fill-rule="nonzero"></g>
        <g id="🎨-color" mask="url(#mask-2)" fill="#000000">
            <rect id="🎨-Color" x="0" y="0" width="24" height="24"></rect>
        </g>
    </g>
</svg>