<?xml version="1.0" encoding="UTF-8"?>
<svg width="24px" height="24px" viewBox="0 0 24 24" version="1.1" xmlns="http://www.w3.org/2000/svg" xmlns:xlink="http://www.w3.org/1999/xlink">
    <!-- Generator: Sketch 52.5 (67469) - http://www.bohemiancoding.com/sketch -->
    <title>smoking-ban</title>
    <desc>Created with Sketch.</desc>
    <defs>
        <path d="M5.74999997,13.875 C5.74999997,14.21875 6.03124997,14.5 6.37499997,14.5 L10.9648437,14.5 L7.21484373,10.75 L6.37499997,10.75 C6.03124997,10.75 5.74999997,11.03125 5.74999997,11.375 L5.74999997,13.875 Z M12,1.99999995 C6.47656247,1.99999995 1.99999995,6.47656247 1.99999995,12 C1.99999995,17.5234375 6.47656247,22.0000001 12,22.0000001 C17.5234375,22.0000001 22.0000001,17.5234375 22.0000001,12 C22.0000001,6.47656247 17.5234375,1.99999995 12,1.99999995 Z M12,19.5 C7.86328123,19.5 4.49999996,16.1367188 4.49999996,12 C4.49999996,10.3828125 5.01953122,8.88671873 5.89453122,7.66015623 L16.3398438,18.1054688 C15.1132813,18.9804688 13.6171875,19.5 12,19.5 Z M13.765625,12 L17,12 L17,13.25 L15.015625,13.25 L13.765625,12 Z M18.1054688,16.3398438 L16.265625,14.5 L17.625,14.5 C17.96875,14.5 18.25,14.21875 18.25,13.875 L18.25,11.375 C18.25,11.03125 17.96875,10.75 17.625,10.75 L12.515625,10.75 L7.66015623,5.89453122 C8.88671873,5.01953122 10.3828125,4.49999996 12,4.49999996 C16.1367188,4.49999996 19.5,7.86328123 19.5,12 C19.5,13.6171875 18.9804688,15.1132813 18.1054688,16.3398438 Z M14.5234375,6.99999997 C13.9140625,6.99999997 13.40625,6.56249997 13.296875,5.98828122 C13.2695313,5.84765622 13.140625,5.74999997 12.9960938,5.74999997 L12.3632813,5.74999997 C12.1679688,5.74999997 12.0234375,5.92578122 12.0507813,6.11718747 C12.2304688,7.32421873 13.2695313,8.24999998 14.5234375,8.24999998 C15.1328125,8.24999998 15.640625,8.68749998 15.75,9.26171874 C15.7773438,9.40234374 15.90625,9.49999999 16.0507813,9.49999999 L16.6835938,9.49999999 C16.8789063,9.49999999 17.0234375,9.32421874 16.9960938,9.13281249 C16.8164063,7.92578123 15.7773438,6.99999997 14.5234375,6.99999997 Z" id="path-1"></path>
    </defs>
    <g id="smoking-ban" stroke="none" stroke-width="1" fill="none" fill-rule="evenodd">
        <mask id="mask-2" fill="white">
            <use xlink:href="#path-1"></use>
        </mask>
        <g fill-rule="nonzero"></g>
        <g id="🎨-color" mask="url(#mask-2)" fill="#000000">
            <rect id="🎨-Color" x="0" y="0" width="24" height="24"></rect>
        </g>
    </g>
</svg>