<?xml version="1.0" encoding="UTF-8"?>
<svg width="24px" height="24px" viewBox="0 0 24 24" version="1.1" xmlns="http://www.w3.org/2000/svg" xmlns:xlink="http://www.w3.org/1999/xlink">
    <!-- Generator: Sketch 52.5 (67469) - http://www.bohemiancoding.com/sketch -->
    <title>smoking</title>
    <desc>Created with Sketch.</desc>
    <defs>
        <path d="M21.75,15 L20.25,15 C20.1125,15 20,15.1125 20,15.25 L20,19.75 C20,19.8875 20.1125,20 20.25,20 L21.75,20 C21.8875,20 22.0000001,19.8875 22.0000001,19.75 L22.0000001,15.25 C22.0000001,15.1125 21.8875,15 21.75,15 Z M19.290625,6.72187497 C19.1125,6.60312497 19,6.40937497 19,6.19687497 L19,4.24999996 C19,4.11249996 18.8875,3.99999996 18.75,3.99999996 L17.25,3.99999996 C17.1125,3.99999996 17,4.11249996 17,4.24999996 L17,6.19687497 C17,6.88437497 17.31875,7.55312498 17.89375,7.92812498 C19.2125,8.78124998 20,10.234375 20,11.803125 L20,12.75 C20,12.8875 20.1125,13 20.25,13 L21.75,13 C21.8875,13 22.0000001,12.8875 22.0000001,12.75 L22.0000001,11.803125 C22.0000001,9.75624999 20.9875,7.85937498 19.290625,6.72187497 Z M15.5,15 L3.49999996,15 C2.67187495,15 1.99999995,15.671875 1.99999995,16.5 L1.99999995,18.5 C1.99999995,19.328125 2.67187495,20 3.49999996,20 L15.5,20 C15.775,20 16,19.775 16,19.5 L16,15.5 C16,15.225 15.775,15 15.5,15 Z M14.5,18.5 L8.99999998,18.5 L8.99999998,16.5 L14.5,16.5 L14.5,18.5 Z M17.240625,8.42499998 C16.49375,7.90624998 16,7.10312498 16,6.19687497 L16,4.24999996 C16,4.11249996 15.8875,3.99999996 15.75,3.99999996 L14.25,3.99999996 C14.1125,3.99999996 14,4.11249996 14,4.24999996 L14,6.32499997 C14,7.69062498 14.76875,8.87499998 15.884375,9.65937499 C16.584375,10.15 17,10.946875 17,11.803125 L17,12.75 C17,12.8875 17.1125,13 17.25,13 L18.75,13 C18.8875,13 19,12.8875 19,12.75 L19,11.803125 C19,10.45 18.34375,9.19687499 17.240625,8.42499998 Z M18.75,15 L17.25,15 C17.1125,15 17,15.1125 17,15.25 L17,19.75 C17,19.8875 17.1125,20 17.25,20 L18.75,20 C18.8875,20 19,19.8875 19,19.75 L19,15.25 C19,15.1125 18.8875,15 18.75,15 Z" id="path-1"></path>
    </defs>
    <g id="smoking" stroke="none" stroke-width="1" fill="none" fill-rule="evenodd">
        <mask id="mask-2" fill="white">
            <use xlink:href="#path-1"></use>
        </mask>
        <g fill-rule="nonzero"></g>
        <g id="🎨-color" mask="url(#mask-2)" fill="#000000">
            <rect id="🎨-Color" x="0" y="0" width="24" height="24"></rect>
        </g>
    </g>
</svg>