<?xml version="1.0" encoding="UTF-8"?>
<svg width="24px" height="24px" viewBox="0 0 24 24" version="1.1" xmlns="http://www.w3.org/2000/svg" xmlns:xlink="http://www.w3.org/1999/xlink">
    <!-- Generator: Sketch 52.5 (67469) - http://www.bohemiancoding.com/sketch -->
    <title>snapchat</title>
    <desc>Created with Sketch.</desc>
    <defs>
        <path d="M12,2.31249995 C6.64843747,2.31249995 2.31249995,6.64843747 2.31249995,12 C2.31249995,17.3515625 6.64843747,21.6875 12,21.6875 C17.3515625,21.6875 21.6875,17.3515625 21.6875,12 C21.6875,6.64843747 17.3515625,2.31249995 12,2.31249995 Z M18.6210938,15.5507813 C18.484375,15.8671875 17.9140625,16.0976563 16.8710938,16.2617188 C16.8164063,16.3359375 16.7734375,16.6445313 16.703125,16.8828125 C16.6601563,17.0273438 16.5585938,17.1132813 16.3867188,17.1132813 L16.3789063,17.1132813 C16.1367188,17.1132813 15.8789063,17 15.3710938,17 C14.6835938,17 14.4453125,17.15625 13.9101563,17.5351563 C13.34375,17.9375 12.8007813,18.28125 11.9882812,18.2460938 C11.1679687,18.3085938 10.4804687,17.8085938 10.09375,17.5351563 C9.55468749,17.15625 9.32031249,17 8.63281248,17 C8.14453123,17 7.83593748,17.1210938 7.62499998,17.1210938 C7.41406248,17.1210938 7.33203123,16.9921875 7.30078123,16.8867188 C7.23046873,16.6484375 7.18749998,16.3359375 7.13281248,16.2617188 C6.59374997,16.1796875 5.38281247,15.96875 5.35546872,15.4257813 C5.34765622,15.2851563 5.44531247,15.1601563 5.58593747,15.1367188 C7.39453123,14.8398438 8.20703123,12.984375 8.24218748,12.90625 C8.24218748,12.9023438 8.24609373,12.8984375 8.24999998,12.8945313 C8.34765623,12.6992188 8.36718748,12.5351563 8.31249998,12.40625 C8.17968748,12.0976563 7.61328123,11.9882812 7.37499998,11.890625 C6.75781247,11.6484375 6.67187497,11.3671875 6.71093747,11.1757812 C6.77343747,10.84375 7.27343748,10.6367187 7.56640623,10.7734375 C7.79687498,10.8828125 8.00390623,10.9375 8.17968748,10.9375 C8.30859373,10.9375 8.39453123,10.90625 8.43749998,10.8828125 C8.38281248,9.94921874 8.25390623,8.61718748 8.58593748,7.87109373 C9.46484374,5.90624997 11.3242187,5.74999997 11.8710937,5.74999997 C11.8945312,5.74999997 12.109375,5.74609372 12.1328125,5.74609372 C13.4882813,5.74609372 14.7890625,6.44140622 15.4257813,7.86718748 C15.7578125,8.61328123 15.6289063,9.94140624 15.5742188,10.8789062 C15.6171875,10.9023437 15.6875,10.9296875 15.796875,10.9335937 C15.9648438,10.9257812 16.15625,10.8710937 16.3710938,10.7695312 C16.5273438,10.6953125 16.7460938,10.7070312 16.9023438,10.7695312 C17.1484375,10.859375 17.3046875,11.0351562 17.3085938,11.234375 C17.3125,11.4882812 17.0859375,11.7070312 16.6367188,11.8828125 C16.5820313,11.90625 16.515625,11.9257812 16.4453125,11.9492187 C16.1914063,12.03125 15.8046875,12.1523438 15.703125,12.3984375 C15.6484375,12.5273438 15.671875,12.6914063 15.765625,12.8867188 C15.7695313,12.890625 15.7695313,12.8945313 15.7734375,12.8984375 C15.8085938,12.9765625 16.6210938,14.8320313 18.4296875,15.1289063 C18.5859375,15.1679688 18.7070313,15.34375 18.6210938,15.5507813 Z" id="path-1"></path>
    </defs>
    <g id="snapchat" stroke="none" stroke-width="1" fill="none" fill-rule="evenodd">
        <mask id="mask-2" fill="white">
            <use xlink:href="#path-1"></use>
        </mask>
        <g fill-rule="nonzero"></g>
        <g id="🎨-color" mask="url(#mask-2)" fill="#000000">
            <rect id="🎨-Color" x="0" y="0" width="24" height="24"></rect>
        </g>
    </g>
</svg>