<?xml version="1.0" encoding="UTF-8"?>
<svg width="24px" height="24px" viewBox="0 0 24 24" version="1.1" xmlns="http://www.w3.org/2000/svg" xmlns:xlink="http://www.w3.org/1999/xlink">
    <!-- Generator: Sketch 52.5 (67469) - http://www.bohemiancoding.com/sketch -->
    <title>snapchat-ghost</title>
    <desc>Created with Sketch.</desc>
    <defs>
        <path d="M21.9161868,17.3180156 C21.7134242,17.7910506 20.8563035,18.1385993 19.2951751,18.3809728 C19.2148638,18.4893775 19.148288,18.9524125 19.0419845,19.3131129 C18.9787549,19.5296888 18.8231907,19.6582102 18.5700779,19.6582102 L18.5585214,19.6580156 C18.1929572,19.6580156 17.811323,19.4898055 17.0467705,19.4898055 C16.0148249,19.4898055 15.659144,19.7249417 14.8578988,20.290895 C14.0084047,20.8915954 13.1936576,21.4101168 11.9774708,21.3570039 C10.7461089,21.4478211 9.7196887,20.6991051 9.14202333,20.2907004 C8.33603111,19.7209339 7.98140076,19.4898444 6.95365756,19.4898444 C6.21964978,19.4898444 5.75770425,19.673502 5.44190658,19.673502 C5.12778207,19.673502 5.00560308,19.4819845 4.95856028,19.321751 C4.85338518,18.9642024 4.78719841,18.4943969 4.70474705,18.3828405 C3.90011669,18.2579767 2.08568088,17.9414397 2.0394552,17.1318677 C2.02785274,16.9212056 2.1767097,16.7355914 2.38486377,16.7011673 C5.09237351,16.2554475 6.31186768,13.4754475 6.36256807,13.3574319 C6.36544744,13.3505837 6.36859919,13.3440467 6.37178986,13.337393 C6.51626456,13.0441245 6.54859919,12.7985214 6.46762643,12.6077043 C6.27112838,12.1448249 5.42202331,11.9787549 5.06478596,11.8374319 C4.14202331,11.4729961 4.01361864,11.0542412 4.06821008,10.7672373 C4.16303498,10.2677821 4.91354082,9.96042801 5.3523346,10.1659533 C5.6993774,10.3286381 6.00770425,10.4109728 6.26856028,10.4109728 C6.46396884,10.4109728 6.58809336,10.3641245 6.65610892,10.326498 C6.57661476,8.9282101 6.37980542,6.92999997 6.87739297,5.81408557 C8.19151749,2.86785988 10.9768482,2.63891046 11.798677,2.63891046 C11.8354086,2.63891046 12.154358,2.63544742 12.1920623,2.63544742 C14.2211673,2.63544742 16.1708171,3.67747078 17.1229183,5.81221787 C17.6200778,6.92700387 17.4244358,8.91696497 17.3445136,10.3261868 C17.4060701,10.3601167 17.5140467,10.401751 17.6791051,10.4094163 C17.9280156,10.3982879 18.2166537,10.3164591 18.537821,10.1659533 C18.7745915,10.055214 19.0983658,10.0701945 19.3347082,10.1682101 L19.3358366,10.1685992 C19.7045526,10.3003113 19.9365759,10.56607 19.9424125,10.86393 C19.949572,11.2431907 19.6108172,11.5707393 18.9354864,11.837393 C18.853074,11.8698833 18.7528405,11.9017899 18.6462257,11.935642 C18.2650195,12.0564981 17.6890273,12.2393385 17.5327627,12.6076654 C17.4518677,12.7984825 17.4838911,13.0438911 17.6284825,13.3371595 C17.6318677,13.3436965 17.6349417,13.3504669 17.6377821,13.3571985 C17.6884047,13.4750973 18.9068483,16.2544747 21.6156032,16.7009339 C21.865681,16.7421012 22.0499611,17.0074319 21.9161868,17.3180156 Z" id="path-1"></path>
    </defs>
    <g id="snapchat-ghost" stroke="none" stroke-width="1" fill="none" fill-rule="evenodd">
        <mask id="mask-2" fill="white">
            <use xlink:href="#path-1"></use>
        </mask>
        <g></g>
        <g id="🎨-color" mask="url(#mask-2)" fill="#000000">
            <rect id="🎨-Color" x="0" y="0" width="24" height="24"></rect>
        </g>
    </g>
</svg>