<?xml version="1.0" encoding="UTF-8"?>
<svg width="24px" height="24px" viewBox="0 0 24 24" version="1.1" xmlns="http://www.w3.org/2000/svg" xmlns:xlink="http://www.w3.org/1999/xlink">
    <!-- Generator: Sketch 52.5 (67469) - http://www.bohemiancoding.com/sketch -->
    <title>snowflake</title>
    <desc>Created with Sketch.</desc>
    <defs>
        <path d="M20.421875,15.875 L18.890625,14.9765625 L20.2226563,14.6132813 C20.5507813,14.5234375 20.7460938,14.1796875 20.65625,13.8476563 L20.4960938,13.2421875 C20.4101563,12.9101563 20.0703125,12.7109375 19.7421875,12.8007813 L16.6289063,13.6484375 L13.8242188,12 L16.6328125,10.3515625 L19.7460938,11.1992187 C20.0742188,11.2890625 20.4101563,11.0898437 20.5,10.7578125 L20.6601563,10.1523437 C20.7460938,9.82031249 20.5546875,9.47656249 20.2265625,9.38671874 L18.8945313,9.02343749 L20.4257813,8.12499998 C20.71875,7.95312498 20.8203125,7.57031248 20.6523438,7.26953123 L20.34375,6.72656247 C20.1757813,6.42578122 19.796875,6.32421872 19.5039063,6.49609372 L17.9726563,7.39453123 L18.328125,6.03906247 C18.4140625,5.70703122 18.2226563,5.36328122 17.8945313,5.27343747 L17.3007813,5.11328122 C16.9726563,5.02343747 16.6367188,5.22265622 16.546875,5.55468747 L15.7148438,8.71874998 L12.90625,10.3671875 L12.90625,7.06640623 L15.1835938,4.74999996 C15.421875,4.50781246 15.421875,4.10937496 15.1835938,3.86718746 L14.75,3.42578121 C14.5117188,3.18359371 14.1210938,3.18359371 13.8828125,3.42578121 L12.9101563,4.41796871 L12.9101563,2.62499995 C12.9101563,2.28124995 12.6367188,1.99999995 12.296875,1.99999995 L11.6835937,1.99999995 C11.34375,1.99999995 11.0703125,2.28124995 11.0703125,2.62499995 L11.0703125,4.42578121 L10.0976562,3.43359371 C9.85937499,3.19140621 9.46874999,3.19140621 9.23046874,3.43359371 L8.78124998,3.87499996 C8.54296873,4.11718746 8.54296873,4.51562496 8.78124998,4.75781246 L11.0585937,7.07421873 L11.0585937,10.375 L8.24999998,8.72656248 L7.41796873,5.56249997 C7.33203123,5.23046872 6.99218747,5.03124997 6.66406247,5.12109372 L6.07031247,5.28124997 C5.74218747,5.37109372 5.54687497,5.71484372 5.63671872,6.04687497 L5.99218747,7.40234373 L4.46093746,6.50390622 C4.16796871,6.33203122 3.79296871,6.43359372 3.62109371,6.73437497 L3.31249996,7.27734373 C3.14453121,7.57812498 3.24218746,7.95703123 3.53906246,8.13281248 L5.07031247,9.03124999 L3.73828121,9.38671874 C3.41015621,9.47656249 3.21484371,9.82031249 3.30468746,10.1523437 L3.46484371,10.7578125 C3.55078121,11.0898437 3.89062496,11.2890625 4.21874996,11.1992187 L7.33203123,10.3515625 L10.140625,12 L7.33203123,13.6484375 L4.21874996,12.8007813 C3.89062496,12.7109375 3.55468746,12.9101563 3.46484371,13.2421875 L3.30468746,13.8476563 C3.21874996,14.1796875 3.41015621,14.5234375 3.73828121,14.6132813 L5.07031247,14.9765625 L3.53906246,15.875 C3.24609371,16.046875 3.14453121,16.4296875 3.31249996,16.7304688 L3.62109371,17.2734375 C3.78906246,17.5742188 4.16796871,17.6757813 4.46093746,17.5039063 L5.99218747,16.6054688 L5.63671872,17.9609375 C5.55078122,18.2929688 5.74218747,18.6367188 6.07031247,18.7265625 L6.66406247,18.8867188 C6.99218747,18.9765625 7.32812498,18.7773438 7.41796873,18.4453125 L8.24999998,15.28125 L11.0585937,13.6328125 L11.0585937,16.9335938 L8.78124998,19.25 C8.54296873,19.4921875 8.54296873,19.890625 8.78124998,20.1328125 L9.21484374,20.5742188 C9.45312499,20.8164063 9.84374999,20.8164063 10.0820312,20.5742188 L11.0546875,19.5820313 L11.0546875,21.375 C11.0546875,21.71875 11.328125,22.0000001 11.6679687,22.0000001 L12.28125,22.0000001 C12.6210938,22.0000001 12.8945313,21.71875 12.8945313,21.375 L12.8945313,19.5742188 L13.8671875,20.5664063 C14.1054688,20.8085938 14.4960938,20.8085938 14.734375,20.5664063 L15.1679688,20.125 C15.40625,19.8828125 15.40625,19.484375 15.1679688,19.2421875 L12.890625,16.9257813 L12.890625,13.625 L15.6992188,15.2734375 L16.53125,18.4375 C16.6171875,18.7695313 16.9570313,18.96875 17.2851563,18.8789063 L17.8789063,18.71875 C18.2070313,18.6289063 18.4023438,18.2851563 18.3125,17.953125 L17.9570313,16.5976563 L19.4882813,17.4960938 C19.78125,17.6679688 20.15625,17.5664063 20.328125,17.265625 L20.6367188,16.7226563 C20.8164063,16.4296875 20.71875,16.046875 20.421875,15.875 Z" id="path-1"></path>
    </defs>
    <g id="snowflake" stroke="none" stroke-width="1" fill="none" fill-rule="evenodd">
        <mask id="mask-2" fill="white">
            <use xlink:href="#path-1"></use>
        </mask>
        <g></g>
        <g id="🎨-color" mask="url(#mask-2)" fill="#000000">
            <rect id="🎨-Color" x="0" y="0" width="24" height="24"></rect>
        </g>
    </g>
</svg>