<?xml version="1.0" encoding="UTF-8"?>
<svg width="24px" height="24px" viewBox="0 0 24 24" version="1.1" xmlns="http://www.w3.org/2000/svg" xmlns:xlink="http://www.w3.org/1999/xlink">
    <!-- Generator: Sketch 52.5 (67469) - http://www.bohemiancoding.com/sketch -->
    <title>socks</title>
    <desc>Created with Sketch.</desc>
    <defs>
        <path d="M10.3851562,14.1488281 L13.25,12 L13.25,5.74999997 L6.99999997,5.74999997 L6.99999997,12.625 L3.61523433,15.1488281 C2.07617183,16.3035156 1.51132807,18.4464844 2.4742187,20.1121094 C3.18710933,21.3457032 4.47148434,22.0000001 5.75312497,22.0000001 C6.53554685,22.0000001 7.3253906,21.7558594 7.99999998,21.25 L8.85390623,20.6097657 C7.6878906,18.4464844 8.32499998,15.6941406 10.3851562,14.1488281 Z M13.25,3.24999996 C13.25,2.81835933 13.3699219,2.4179687 13.5632813,2.0632812 C13.4609375,2.03593745 13.3613281,1.99999995 13.25,1.99999995 L8.24999998,1.99999995 C7.5597656,1.99999995 6.99999997,2.55976558 6.99999997,3.24999996 L6.99999997,4.49999996 L13.25,4.49999996 L13.25,3.24999996 Z M20.75,1.99999995 L15.75,1.99999995 C15.0597656,1.99999995 14.5,2.55976558 14.5,3.24999996 L14.5,4.49999996 L22.0000001,4.49999996 L22.0000001,3.24999996 C22.0000001,2.55976558 21.4402344,1.99999995 20.75,1.99999995 Z M14.5,12.625 L11.1355469,15.1488281 C9.59648436,16.3035156 9.03164061,18.4464844 9.99453124,20.1121094 C10.7074219,21.3457032 11.9714844,22.0000001 13.253125,22.0000001 C14.0355469,22.0000001 14.8253906,21.7558594 15.5,21.25 L20,17.875 C21.2590438,16.9307403 22.0000185,15.4487909 22.0000001,13.875 L22.0000001,5.74999997 L14.5,5.74999997 L14.5,12.625 Z" id="path-1"></path>
    </defs>
    <g id="socks" stroke="none" stroke-width="1" fill="none" fill-rule="evenodd">
        <mask id="mask-2" fill="white">
            <use xlink:href="#path-1"></use>
        </mask>
        <g fill-rule="nonzero"></g>
        <g id="🎨-color" mask="url(#mask-2)" fill="#000000">
            <rect id="🎨-Color" x="0" y="0" width="24" height="24"></rect>
        </g>
    </g>
</svg>