<?xml version="1.0" encoding="UTF-8"?>
<svg width="24px" height="24px" viewBox="0 0 24 24" version="1.1" xmlns="http://www.w3.org/2000/svg" xmlns:xlink="http://www.w3.org/1999/xlink">
    <!-- Generator: Sketch 52.5 (67469) - http://www.bohemiancoding.com/sketch -->
    <title>solar-panel</title>
    <desc>Created with Sketch.</desc>
    <defs>
        <path d="M15.4884735,17.98162 L13.994081,17.9831776 L13.994081,16.9844237 L10.006542,16.9844237 L10.006542,17.9878505 L8.51183799,17.9894081 C8.23707163,17.9897197 8.0143302,18.2124611 8.01401867,18.487539 L8.01246104,19.4760125 C8.01214951,19.7517134 8.23582553,19.9753894 8.51152646,19.9750779 L15.4884735,19.9669782 C15.7632399,19.9666667 15.9859813,19.7439253 15.9862929,19.4691589 L15.987539,18.4806854 C15.9878505,18.2049845 15.7641745,17.9813084 15.4884735,17.98162 Z M20.2616823,4.85794389 C20.1800623,4.37725853 19.7566979,4.02492208 19.2604362,4.02492208 L4.7392523,4.02492208 C4.24299062,4.02492208 3.81962613,4.37725853 3.73800619,4.85794389 C1.92772581,15.5252337 2.0323987,14.8685358 2.03208718,14.9906542 C2.0311526,15.5302181 2.47725852,15.987539 3.04766351,15.987539 L20.9523365,15.987539 C21.5202493,15.987539 21.9651091,15.5339564 21.9676013,14.9971963 C21.9682243,14.8700935 22.0719627,15.5252337 20.2616823,4.85794389 Z M10.1255452,6.01869156 L13.8741433,6.01869156 L14.1785047,9.00934578 L9.82118379,9.00934578 L10.1255452,6.01869156 Z M7.7838006,13.9937695 L4.24579435,13.9937695 L4.83800619,10.5046729 L8.13925232,10.5046729 L7.7838006,13.9937695 Z M8.29127724,9.00934578 L5.09158875,9.00934578 L5.59906539,6.01869156 L8.59563861,6.01869156 L8.29127724,9.00934578 Z M9.31370715,13.9937695 L9.66884734,10.5046729 L14.3308411,10.5046729 L14.6859813,13.9937695 L9.31370715,13.9937695 Z M15.4040499,6.01869156 L18.4006231,6.01869156 L18.9080997,9.00934578 L15.7084112,9.00934578 L15.4040499,6.01869156 Z M16.2158879,13.9937695 L15.8607477,10.5046729 L19.1619938,10.5046729 L19.7542056,13.9937695 L16.2158879,13.9937695 Z" id="path-1"></path>
    </defs>
    <g id="solar-panel" stroke="none" stroke-width="1" fill="none" fill-rule="evenodd">
        <mask id="mask-2" fill="white">
            <use xlink:href="#path-1"></use>
        </mask>
        <g fill-rule="nonzero"></g>
        <g id="🎨-color" mask="url(#mask-2)" fill="#000000">
            <rect id="🎨-Color" x="0" y="0" width="24" height="24"></rect>
        </g>
    </g>
</svg>