<?xml version="1.0" encoding="UTF-8"?>
<svg width="24px" height="24px" viewBox="0 0 24 24" version="1.1" xmlns="http://www.w3.org/2000/svg" xmlns:xlink="http://www.w3.org/1999/xlink">
    <!-- Generator: Sketch 52.5 (67469) - http://www.bohemiancoding.com/sketch -->
    <title>sort-numeric-down</title>
    <desc>Created with Sketch.</desc>
    <defs>
        <path d="M15.3129297,6.44480466 L14.5532422,5.63249997 C14.3766016,5.44359372 14.3862891,5.14730465 14.574961,4.97039059 L16.2719531,3.37894527 C16.3588401,3.29745461 16.4734951,3.25210378 16.5926172,3.25210933 L17.8266407,3.25210933 C18.0855078,3.25210933 18.2953907,3.46199214 18.2953907,3.72085933 L18.2953907,8.68453123 L19.2977344,8.68453123 C19.5566016,8.68453123 19.7664844,8.89441405 19.7664844,9.15328124 L19.7664844,10.2833594 C19.7664844,10.5422266 19.5566016,10.7521094 19.2977344,10.7521094 L15.0331641,10.7521094 C14.7742969,10.7521094 14.5644141,10.5422266 14.5644141,10.2833594 L14.5644141,9.15328124 C14.5644141,8.89441405 14.7742969,8.68453123 15.0331641,8.68453123 L16.0258985,8.68453123 L16.0258985,6.4213281 C15.7425391,6.67835935 15.4707813,6.61355466 15.3129297,6.44480466 Z M14.1187891,15.7639063 C14.1187891,14.4883984 15.0510156,13.1328125 16.778711,13.1328125 C18.2729688,13.1328125 19.881211,14.2601953 19.881211,16.7354688 C19.881211,18.7384375 18.6219532,20.8671875 16.288125,20.8671875 C15.5914063,20.8671875 15.0949219,20.7282422 14.7823438,20.6023047 C14.5561719,20.5111719 14.4390234,20.2606641 14.5119531,20.0279688 L14.8727735,18.8764063 C14.9522656,18.6226563 15.22625,18.4864453 15.4769531,18.575 C15.9858985,18.7547657 16.5659375,18.7810547 16.9653516,18.4133594 C15.4519922,18.6114844 14.1187891,17.4227344 14.1187891,15.7639063 Z M17.7232032,16.5192969 C17.7232032,15.6487891 17.1254688,15.0933203 16.7140235,15.0933203 C16.3764453,15.0933203 16.1998047,15.4044531 16.1998047,15.7117578 C16.1998047,15.9332031 16.2707031,16.6558203 17.1829297,16.6558203 C17.5725,16.6558203 17.7054688,16.5716797 17.7198047,16.5491406 C17.720625,16.5473438 17.7232032,16.5377735 17.7232032,16.5192969 Z M10.124375,16.375 L8.24999998,16.375 L8.24999998,3.87499996 C8.24999998,3.52980465 7.97019529,3.24999996 7.62499998,3.24999996 L6.37499997,3.24999996 C6.02980466,3.24999996 5.74999997,3.52980465 5.74999997,3.87499996 L5.74999997,16.375 L3.87574215,16.375 C3.32058589,16.375 3.04042964,17.0485938 3.43378902,17.4419532 L6.55804685,20.5670313 C6.80199216,20.8109766 7.1978906,20.8110547 7.44191404,20.5670313 L10.5662891,17.4419532 C10.9588672,17.049375 10.6806641,16.375 10.124375,16.375 Z" id="path-1"></path>
    </defs>
    <g id="sort-numeric-down" stroke="none" stroke-width="1" fill="none" fill-rule="evenodd">
        <mask id="mask-2" fill="white">
            <use xlink:href="#path-1"></use>
        </mask>
        <g fill-rule="nonzero"></g>
        <g id="🎨-color" mask="url(#mask-2)" fill="#000000">
            <rect id="🎨-Color" x="0" y="0" width="24" height="24"></rect>
        </g>
    </g>
</svg>