<?xml version="1.0" encoding="UTF-8"?>
<svg width="24px" height="24px" viewBox="0 0 24 24" version="1.1" xmlns="http://www.w3.org/2000/svg" xmlns:xlink="http://www.w3.org/1999/xlink">
    <!-- Generator: Sketch 52.5 (67469) - http://www.bohemiancoding.com/sketch -->
    <title>sort-amount-down</title>
    <desc>Created with Sketch.</desc>
    <defs>
        <path d="M9.31632811,17.4419532 L6.1919531,20.5670313 C5.94789059,20.8110547 5.55199216,20.8109766 5.3080859,20.5670313 L2.18378901,17.4419532 C1.79042964,17.0485938 2.07058589,16.375 2.62574214,16.375 L4.49999996,16.375 L4.49999996,3.87499996 C4.49999996,3.52980465 4.77980465,3.24999996 5.12499997,3.24999996 L6.37499997,3.24999996 C6.72019529,3.24999996 6.99999998,3.52980465 6.99999998,3.87499996 L6.99999998,16.375 L8.87437498,16.375 C9.43066405,16.375 9.70886718,17.049375 9.31632811,17.4419532 Z M11.375,5.74999997 L21.375,5.74999997 C21.7201954,5.74999997 22,5.47019528 22,5.12499997 L22,3.87499996 C22,3.52980465 21.7201954,3.24999996 21.375,3.24999996 L11.375,3.24999996 C11.0298047,3.24999996 10.75,3.52980465 10.75,3.87499996 L10.75,5.12499997 C10.75,5.47019528 11.0298047,5.74999997 11.375,5.74999997 Z M10.75,10.125 L10.75,8.87499998 C10.75,8.52980467 11.0298047,8.24999998 11.375,8.24999998 L18.875,8.24999998 C19.2201953,8.24999998 19.5,8.52980467 19.5,8.87499998 L19.5,10.125 C19.5,10.4701953 19.2201953,10.75 18.875,10.75 L11.375,10.75 C11.0298047,10.75 10.75,10.4701953 10.75,10.125 Z M10.75,20.125 L10.75,18.875 C10.75,18.5298047 11.0298047,18.25 11.375,18.25 L13.875,18.25 C14.2201953,18.25 14.5,18.5298047 14.5,18.875 L14.5,20.125 C14.5,20.4701954 14.2201953,20.75 13.875,20.75 L11.375,20.75 C11.0298047,20.75 10.75,20.4701954 10.75,20.125 Z M10.75,15.125 L10.75,13.875 C10.75,13.5298047 11.0298047,13.25 11.375,13.25 L16.375,13.25 C16.7201953,13.25 17,13.5298047 17,13.875 L17,15.125 C17,15.4701953 16.7201953,15.75 16.375,15.75 L11.375,15.75 C11.0298047,15.75 10.75,15.4701953 10.75,15.125 Z" id="path-1"></path>
    </defs>
    <g id="sort-amount-down" stroke="none" stroke-width="1" fill="none" fill-rule="evenodd">
        <mask id="mask-2" fill="white">
            <use xlink:href="#path-1"></use>
        </mask>
        <g fill-rule="nonzero"></g>
        <g id="🎨-color" mask="url(#mask-2)" fill="#000000">
            <rect id="🎨-Color" x="0" y="0" width="24" height="24"></rect>
        </g>
    </g>
</svg>