<?xml version="1.0" encoding="UTF-8"?>
<svg width="24px" height="24px" viewBox="0 0 24 24" version="1.1" xmlns="http://www.w3.org/2000/svg" xmlns:xlink="http://www.w3.org/1999/xlink">
    <!-- Generator: Sketch 52.5 (67469) - http://www.bohemiancoding.com/sketch -->
    <title>sort-amount-up</title>
    <desc>Created with Sketch.</desc>
    <defs>
        <path d="M2.18367183,6.55804685 L5.30804684,3.43296871 C5.55210934,3.18894527 5.94800778,3.18902339 6.19191403,3.43296871 L9.31617186,6.55804685 C9.70953124,6.95140622 9.42941405,7.62499998 8.87421873,7.62499998 L6.99999997,7.62499998 L6.99999997,20.125 C6.99999997,20.4701954 6.72019529,20.75 6.37499997,20.75 L5.12499997,20.75 C4.77980465,20.75 4.49999996,20.4701954 4.49999996,20.125 L4.49999996,7.62499998 L2.62562495,7.62499998 C2.06933589,7.62499998 1.79113276,6.95062497 2.18367183,6.55804685 Z M11.375,5.74999997 L21.375,5.74999997 C21.7201954,5.74999997 22.0000001,5.47019528 22.0000001,5.12499997 L22.0000001,3.87499996 C22.0000001,3.52980465 21.7201954,3.24999996 21.375,3.24999996 L11.375,3.24999996 C11.0298047,3.24999996 10.75,3.52980465 10.75,3.87499996 L10.75,5.12499997 C10.75,5.47019528 11.0298047,5.74999997 11.375,5.74999997 Z M10.75,10.125 L10.75,8.87499998 C10.75,8.52980467 11.0298047,8.24999998 11.375,8.24999998 L18.875,8.24999998 C19.2201953,8.24999998 19.5,8.52980467 19.5,8.87499998 L19.5,10.125 C19.5,10.4701953 19.2201953,10.75 18.875,10.75 L11.375,10.75 C11.0298047,10.75 10.75,10.4701953 10.75,10.125 Z M10.75,20.125 L10.75,18.875 C10.75,18.5298047 11.0298047,18.25 11.375,18.25 L13.875,18.25 C14.2201953,18.25 14.5,18.5298047 14.5,18.875 L14.5,20.125 C14.5,20.4701954 14.2201953,20.75 13.875,20.75 L11.375,20.75 C11.0298047,20.75 10.75,20.4701954 10.75,20.125 Z M10.75,15.125 L10.75,13.875 C10.75,13.5298047 11.0298047,13.25 11.375,13.25 L16.375,13.25 C16.7201953,13.25 17,13.5298047 17,13.875 L17,15.125 C17,15.4701953 16.7201953,15.75 16.375,15.75 L11.375,15.75 C11.0298047,15.75 10.75,15.4701953 10.75,15.125 Z" id="path-1"></path>
    </defs>
    <g id="sort-amount-up" stroke="none" stroke-width="1" fill="none" fill-rule="evenodd">
        <mask id="mask-2" fill="white">
            <use xlink:href="#path-1"></use>
        </mask>
        <g fill-rule="nonzero"></g>
        <g id="🎨-color" mask="url(#mask-2)" fill="#000000">
            <rect id="🎨-Color" x="0" y="0" width="24" height="24"></rect>
        </g>
    </g>
</svg>