<?xml version="1.0" encoding="UTF-8"?>
<svg width="24px" height="24px" viewBox="0 0 24 24" version="1.1" xmlns="http://www.w3.org/2000/svg" xmlns:xlink="http://www.w3.org/1999/xlink">
    <!-- Generator: Sketch 52.5 (67469) - http://www.bohemiancoding.com/sketch -->
    <title>sort-alpha-up</title>
    <desc>Created with Sketch.</desc>
    <defs>
        <path d="M3.43367183,6.55804685 L6.55804685,3.43296871 C6.80210935,3.18894527 7.19800779,3.18902339 7.44191404,3.43296871 L10.5661719,6.55804685 C10.9595312,6.95140622 10.6794141,7.62499998 10.1242187,7.62499998 L8.24999998,7.62499998 L8.24999998,20.125 C8.24999998,20.4701954 7.97019529,20.75 7.62499998,20.75 L6.37499997,20.75 C6.02980466,20.75 5.74999997,20.4701954 5.74999997,20.125 L5.74999997,7.62499998 L3.87562496,7.62499998 C3.31933589,7.62499998 3.04113277,6.95062497 3.43367183,6.55804685 Z M15.2176953,10.4104297 C15.1600634,10.6114588 14.9762365,10.7499943 14.7671094,10.75 L13.3719141,10.75 C13.0508203,10.75 12.8247656,10.4344531 12.9280859,10.1304297 L15.1583985,3.56792965 C15.2229933,3.37784424 15.4014656,3.24999822 15.6022266,3.24999996 L17.1477735,3.24999996 C17.3485157,3.24999996 17.5269922,3.37785152 17.5916016,3.56792965 L19.8219141,10.1304297 C19.9252344,10.4344531 19.6992188,10.75 19.378086,10.75 L17.9821875,10.75 C17.7741217,10.7500046 17.5909534,10.6128551 17.5323828,10.4132031 L17.208125,9.30777342 L15.5337891,9.30777342 L15.2176953,10.4104297 Z M16.1105469,7.3363281 L16.6326953,7.3363281 L16.3748828,6.44035153 L16.1105469,7.3363281 Z M16.6017578,18.5598828 L19.2365625,14.8216797 C19.2922718,14.742652 19.3221796,14.6483304 19.3221875,14.5516406 L19.3221875,13.71875 C19.3221875,13.4598828 19.1123047,13.25 18.8534375,13.25 L13.9735156,13.25 C13.7146484,13.25 13.5047656,13.4598828 13.5047656,13.71875 L13.5047656,14.8488281 C13.5047656,15.1076953 13.7146484,15.3175781 13.9735156,15.3175781 L16.179336,15.3175781 C16.1504688,15.3562891 16.1208594,15.3971094 16.0906641,15.439961 L13.4655469,19.1589063 C13.4097307,19.237993 13.3797654,19.3324192 13.3797656,19.4292188 L13.3797656,20.28125 C13.3797656,20.5401172 13.5896484,20.75 13.8485156,20.75 L18.9014453,20.75 C19.1603125,20.75 19.3701953,20.5401172 19.3701953,20.28125 L19.3701953,19.1511719 C19.3701953,18.8923047 19.1603125,18.6824219 18.9014453,18.6824219 L16.5129297,18.6824219 C16.541836,18.6436328 16.5715235,18.6027735 16.6017578,18.5598828 Z" id="path-1"></path>
    </defs>
    <g id="sort-alpha-up" stroke="none" stroke-width="1" fill="none" fill-rule="evenodd">
        <mask id="mask-2" fill="white">
            <use xlink:href="#path-1"></use>
        </mask>
        <g fill-rule="nonzero"></g>
        <g id="🎨-color" mask="url(#mask-2)" fill="#000000">
            <rect id="🎨-Color" x="0" y="0" width="24" height="24"></rect>
        </g>
    </g>
</svg>