<?xml version="1.0" encoding="UTF-8"?>
<svg width="24px" height="24px" viewBox="0 0 24 24" version="1.1" xmlns="http://www.w3.org/2000/svg" xmlns:xlink="http://www.w3.org/1999/xlink">
    <!-- Generator: Sketch 52.5 (67469) - http://www.bohemiancoding.com/sketch -->
    <title>soundcloud</title>
    <desc>Created with Sketch.</desc>
    <defs>
        <path d="M5.48124997,12.009375 L5.66249997,14.040625 L5.48124997,16.175 C5.47187497,16.253125 5.41249997,16.3125 5.34374997,16.3125 C5.27499997,16.3125 5.21249997,16.253125 5.21249997,16.175 L5.03749997,14.040625 L5.21249997,12.009375 C5.21249997,11.940625 5.27187497,11.878125 5.34374997,11.878125 C5.41249997,11.878125 5.47187497,11.940625 5.48124997,12.009375 Z M6.14999997,10.584375 C6.06249997,10.584375 6.00312497,10.653125 5.99374997,10.740625 L5.83749997,14.040625 L5.99374997,16.175 C6.00312497,16.2625 6.06249997,16.33125 6.14999997,16.33125 C6.22812497,16.33125 6.29687497,16.2625 6.29687497,16.175 L6.47812497,14.040625 L6.29687497,10.740625 C6.29687497,10.653125 6.22812497,10.584375 6.14999997,10.584375 Z M6.94687497,9.83124999 C6.84999997,9.83124999 6.78124997,9.89999999 6.77187497,9.99687499 L6.63437497,14.059375 L6.77187497,16.178125 C6.78124997,16.275 6.84999997,16.34375 6.94687497,16.34375 C7.03437498,16.34375 7.11249998,16.275 7.11249998,16.178125 L7.27812498,14.059375 L7.11249998,9.99687499 C7.11249998,9.89999999 7.03437498,9.83124999 6.94687497,9.83124999 Z M2.22499995,12.85 C2.18124995,12.85 2.15624995,12.884375 2.14687495,12.928125 L1.99999995,14.040625 L2.14687495,15.134375 C2.15624995,15.178125 2.18124995,15.2125 2.22499995,15.2125 C2.26874995,15.2125 2.29374995,15.178125 2.30312495,15.134375 L2.47812495,14.040625 L2.30312495,12.928125 C2.29374995,12.884375 2.26874995,12.85 2.22499995,12.85 Z M2.96249995,12.165625 C2.91874995,12.165625 2.88437495,12.2 2.88437495,12.24375 L2.68437495,14.040625 L2.88437495,15.79375 C2.88437495,15.846875 2.91874995,15.88125 2.96249995,15.88125 C3.00624996,15.88125 3.04062496,15.846875 3.04999996,15.803125 L3.27499996,14.040625 L3.04999996,12.24375 C3.04062496,12.2 3.00624996,12.165625 2.96249995,12.165625 Z M3.75312496,11.809375 C3.69999996,11.809375 3.65624996,11.853125 3.64999996,11.9125 L3.46874996,14.040625 L3.64999996,16.096875 C3.65937496,16.15 3.70312496,16.19375 3.75312496,16.19375 C3.80624996,16.19375 3.84999996,16.15 3.84999996,16.096875 L4.06562496,14.040625 L3.84999996,11.9125 C3.84999996,11.853125 3.80624996,11.809375 3.75312496,11.809375 Z M4.54374996,11.740625 C4.48437496,11.740625 4.43124996,11.784375 4.43124996,11.853125 L4.24999996,14.040625 L4.43124996,16.159375 C4.43124996,16.228125 4.48437496,16.271875 4.54374996,16.271875 C4.60312496,16.271875 4.65624996,16.228125 4.66562496,16.159375 L4.86562496,14.040625 L4.66562496,11.853125 C4.65624996,11.784375 4.60312496,11.740625 4.54374996,11.740625 Z M12.0875,8.27499998 C12.053125,8.24999998 12,8.23124998 11.95625,8.23124998 C11.8875,8.23124998 11.825,8.25624998 11.78125,8.29062498 C11.721875,8.34374998 11.684375,8.42187498 11.678125,8.49999998 L11.678125,8.52499998 L11.575,14.046875 L11.628125,15.0625 L11.68125,16.053125 C11.690625,16.2 11.8125,16.321875 11.959375,16.321875 C12.10625,16.321875 12.228125,16.2 12.228125,16.053125 L12.35,14.046875 L12.228125,8.49999998 C12.215625,8.40624998 12.165625,8.31874998 12.0875,8.27499998 Z M11.253125,8.75312498 C11.209375,8.72812498 11.165625,8.70937498 11.115625,8.70937498 C11.065625,8.70937498 11.01875,8.72812498 10.978125,8.75312498 C10.909375,8.79687498 10.865625,8.87499998 10.865625,8.96249998 L10.85625,9.01562499 L10.76875,14.040625 C10.76875,14.040625 10.76875,14.05 10.865625,16.090625 L10.865625,16.1 C10.865625,16.153125 10.884375,16.203125 10.91875,16.246875 C10.971875,16.30625 11.040625,16.34375 11.11875,16.34375 C11.1875,16.34375 11.25,16.309375 11.29375,16.265625 C11.346875,16.221875 11.371875,16.1625 11.371875,16.090625 L11.38125,15.88125 L11.478125,14.05 L11.375,8.96249998 C11.365625,8.87499998 11.321875,8.79687498 11.253125,8.75312498 Z M7.77187498,9.45624999 C7.67499998,9.45624999 7.59062498,9.54374999 7.59062498,9.64687499 L7.45312498,14.040625 L7.59062498,16.140625 C7.59999998,16.24375 7.67812498,16.321875 7.77187498,16.321875 C7.87499998,16.321875 7.95312498,16.24375 7.96249998,16.140625 L8.11874998,14.040625 L7.96249998,9.64687499 C7.95624998,9.54374999 7.87812498,9.45624999 7.77187498,9.45624999 Z M19.54375,11.41875 C19.20625,11.41875 18.884375,11.4875 18.5875,11.609375 C18.3875,9.39687499 16.53125,7.65937498 14.265625,7.65937498 C13.709375,7.65937498 13.171875,7.76249998 12.69375,7.95312498 C12.503125,8.02187498 12.45,8.09062498 12.45,8.24062498 L12.45,16.04375 C12.45,16.2 12.571875,16.3125 12.71875,16.33125 L19.540625,16.33125 C20.89375,16.33125 21.996875,15.2375 21.996875,13.884375 C22.0000001,12.521875 20.896875,11.41875 19.54375,11.41875 Z M10.271875,9.53437499 C10.140625,9.53437499 10.0375,9.63749999 10.028125,9.77812499 L9.92499999,14.05 L10.028125,16.1 C10.0375,16.23125 10.140625,16.334375 10.271875,16.334375 C10.403125,16.334375 10.50625,16.23125 10.50625,16.1 L10.628125,14.05 L10.50625,9.77812499 C10.496875,9.63749999 10.403125,9.53437499 10.271875,9.53437499 Z M8.59687498,9.29062499 C8.49374998,9.29062499 8.39687498,9.38749999 8.39687498,9.49999999 L8.27499998,14.040625 L8.39687498,16.13125 C8.40624998,16.24375 8.49374998,16.33125 8.59687498,16.33125 C8.70937498,16.33125 8.79687498,16.24375 8.80624998,16.13125 L8.94374998,14.040625 L8.80624998,9.49999999 C8.79687498,9.38749999 8.70937498,9.29062499 8.59687498,9.29062499 Z M9.43124999,9.39687499 C9.30937499,9.39687499 9.21562499,9.49374999 9.21562499,9.61249999 L9.09374999,14.040625 L9.21562499,16.115625 C9.22499999,16.2375 9.31249999,16.33125 9.43124999,16.33125 C9.54999999,16.33125 9.64687499,16.234375 9.64687499,16.115625 L9.77812499,14.040625 L9.64687499,9.61249999 C9.64687499,9.49062499 9.55312499,9.39687499 9.43124999,9.39687499 Z" id="path-1"></path>
    </defs>
    <g id="soundcloud" stroke="none" stroke-width="1" fill="none" fill-rule="evenodd">
        <mask id="mask-2" fill="white">
            <use xlink:href="#path-1"></use>
        </mask>
        <g fill-rule="nonzero"></g>
        <g id="🎨-color" mask="url(#mask-2)" fill="#000000">
            <rect id="🎨-Color" x="0" y="0" width="24" height="24"></rect>
        </g>
    </g>
</svg>