<?xml version="1.0" encoding="UTF-8"?>
<svg width="24px" height="24px" viewBox="0 0 24 24" version="1.1" xmlns="http://www.w3.org/2000/svg" xmlns:xlink="http://www.w3.org/1999/xlink">
    <!-- Generator: Sketch 52.5 (67469) - http://www.bohemiancoding.com/sketch -->
    <title>spa</title>
    <desc>Created with Sketch.</desc>
    <defs>
        <path d="M21.6967072,9.78162911 C20.6901214,9.78613517 17.0169844,9.9951473 14.2845754,12.6585789 C13.1365685,13.6856153 12.4350087,14.8526863 11.982669,15.9466205 C11.5303293,14.8526863 10.8287695,13.6856153 9.68076255,12.6585789 C6.94835353,9.9951473 3.27521659,9.78613517 2.2686308,9.78162911 C2.11577118,9.78093586 1.99861347,9.89948006 1.99999995,10.0526863 C2.00797222,11.0204506 2.24748695,14.4249567 5.07694971,16.9608319 C7.98925475,19.7968805 10.8734835,19.7642981 11.982669,19.7642981 C13.0918544,19.7642981 15.97539,19.7972271 18.8883882,16.9608319 C21.7181976,14.4246101 21.9573657,11.0204506 21.965338,10.0526863 C21.9667245,9.89948006 21.8495668,9.78093586 21.6967072,9.78162911 Z M11.9819757,13.6152513 C12.4263432,12.9618718 12.9386482,12.3750433 13.5102253,11.8641248 C14.1719238,11.2190641 14.8821491,10.7098787 15.5989602,10.2980936 C15.0291161,7.85441939 13.8062392,5.68630846 12.2461005,4.32859615 C12.1036395,4.20450603 11.8641248,4.20450603 11.7213172,4.32859615 C10.1618717,5.6852686 8.93899479,7.85129981 8.3681109,10.2928943 C9.07417676,10.6984402 9.77192373,11.1989601 10.4207972,11.8315425 C11.0114359,12.360763 11.5356616,12.9597117 11.9819757,13.6152513 Z" id="path-1"></path>
    </defs>
    <g id="spa" stroke="none" stroke-width="1" fill="none" fill-rule="evenodd">
        <mask id="mask-2" fill="white">
            <use xlink:href="#path-1"></use>
        </mask>
        <g fill-rule="nonzero"></g>
        <g id="🎨-color" mask="url(#mask-2)" fill="#000000">
            <rect id="🎨-Color" x="0" y="0" width="24" height="24"></rect>
        </g>
    </g>
</svg>