<?xml version="1.0" encoding="UTF-8"?>
<svg width="24px" height="24px" viewBox="0 0 24 24" version="1.1" xmlns="http://www.w3.org/2000/svg" xmlns:xlink="http://www.w3.org/1999/xlink">
    <!-- Generator: Sketch 52.5 (67469) - http://www.bohemiancoding.com/sketch -->
    <title>space-shuttle</title>
    <desc>Created with Sketch.</desc>
    <defs>
        <path d="M20.518875,10.507625 C19.4917188,10.026125 18.1180313,9.74999999 16.75,9.74999999 L7.82271873,9.74999999 C7.66796873,9.54515624 7.49193748,9.37568749 7.30021873,9.24999999 L13.75,9.24999999 C9.16115624,8.30459373 8.85634373,4.99999997 5.00009372,4.99999997 L4.99999996,4.99999997 L4.99999996,8.99999999 L4.49999996,8.99999999 L4.49999996,4.99999997 C3.67156246,4.99999997 2.99999995,5.89543747 2.99999995,6.99999998 L2.99999995,8.99999999 C2.2750937,8.99999999 1.99999995,9.31349999 1.99999995,9.74999999 L1.99999995,11 C1.99999995,11.4369687 2.2755937,11.75 2.99999995,11.75 L2.99999995,12.25 C2.2750937,12.25 1.99999995,12.5635 1.99999995,13 L1.99999995,14.25 C1.99999995,14.6869688 2.2755937,15 2.99999995,15 L2.99999995,17 C2.99999995,18.1045625 3.67156246,19 4.49999996,19 L4.49999996,15 L4.99999996,15 L4.99999996,19 L5.00009372,19 C8.85634373,19 9.16115624,15.6954063 13.75,14.75 L7.30018748,14.75 C7.49190623,14.6243125 7.66793748,14.4548438 7.82268748,14.25 L16.75,14.25 C18.1180313,14.25 19.4917188,13.973875 20.518875,13.492375 C21.4463125,13.0576563 22.0000001,12.49975 22.0000001,12 C22.0000001,11.50025 21.4463125,10.9423437 20.518875,10.507625 Z M17.25,13.25 C17.1119288,13.25 17,13.1380712 17,13 L17,11 C17,10.8619288 17.1119288,10.75 17.25,10.75 C18.2471563,10.75 18.2481875,13.25 17.25,13.25 Z" id="path-1"></path>
    </defs>
    <g id="space-shuttle" stroke="none" stroke-width="1" fill="none" fill-rule="evenodd">
        <mask id="mask-2" fill="white">
            <use xlink:href="#path-1"></use>
        </mask>
        <g fill-rule="nonzero"></g>
        <g id="🎨-color" mask="url(#mask-2)" fill="#000000">
            <rect id="🎨-Color" x="0" y="0" width="24" height="24"></rect>
        </g>
    </g>
</svg>