<?xml version="1.0" encoding="UTF-8"?>
<svg width="24px" height="24px" viewBox="0 0 24 24" version="1.1" xmlns="http://www.w3.org/2000/svg" xmlns:xlink="http://www.w3.org/1999/xlink">
    <!-- Generator: Sketch 52.5 (67469) - http://www.bohemiancoding.com/sketch -->
    <title>spider</title>
    <desc>Created with Sketch.</desc>
    <defs>
        <path d="M7.24895831,8.9392361 L8.14930554,9.23958332 L8.31145831,9.23958332 L8.49270832,8.33263887 C8.51770832,8.20833331 8.55520832,8.06944442 8.60416665,7.92326387 L7.89965276,6.51423608 L8.72604165,4.03541663 C8.82291665,3.7444444 8.66597221,3.42986107 8.37465276,3.33263885 L7.84791665,3.1569444 C7.55694442,3.05972218 7.24201387,3.21701384 7.14513886,3.50833329 L6.24618053,6.20555553 C6.1530816,6.48510816 6.17468486,6.79017628 6.30624997,7.05381942 L7.24895831,8.9392361 Z M21.9065973,15.2597222 L20.075,12.5125 C19.8689599,12.2034519 19.5221286,12.017789 19.1506945,12.0177083 L16.4444445,12.0177083 L18.8399306,11.171875 C19.0743575,11.0936709 19.2760599,10.9396147 19.4131945,10.7340278 L21.2743056,7.94201387 C21.4444445,7.68680553 21.3753473,7.34166664 21.1201389,7.17152775 L20.6579862,6.86319442 C20.4027778,6.69305553 20.0576389,6.76215275 19.8875,7.01736109 L18.1319445,9.65034721 L16.03125,10.3506944 L14.7777778,10.3506944 L14.4177083,8.5503472 C14.3416667,8.16944443 13.8145833,6.46180553 12,6.46180553 C10.1854167,6.46180553 9.65833332,8.16944443 9.58229165,8.5503472 L9.22222221,10.3506944 L7.96874998,10.3506944 L5.86840275,9.65034721 L4.11249996,7.01736109 C3.94236107,6.76215275 3.5975694,6.69305553 3.34201385,6.86319442 L2.87986107,7.17152775 C2.62465273,7.34166664 2.55555551,7.68645831 2.7256944,7.94201387 L4.58680552,10.7340278 C4.72394007,10.9396147 4.9256425,11.0936709 5.16006941,11.171875 L7.55555553,12.0173611 L4.84930552,12.0173611 C4.47777644,12.0174375 4.13083861,12.2030877 3.92465274,12.5121528 L2.09340273,15.2597222 C1.92326384,15.5149306 1.99201384,15.8600695 2.2475694,16.0302084 L2.70972218,16.3385417 C2.96493051,16.5086806 3.3100694,16.4395834 3.48020829,16.184375 L5.14687497,13.684375 L6.78090275,13.684375 L4.66874996,17.0638889 C4.5584094,17.2404855 4.49993512,17.4445439 4.49999996,17.6527778 L4.49999996,20.3506945 C4.49999996,20.6576389 4.74861107,20.90625 5.05555552,20.90625 L5.61111108,20.90625 C5.91805553,20.90625 6.16666664,20.6576389 6.16666664,20.3506945 L6.16666664,17.8121528 L8.73888887,13.6965278 C8.70381943,14.184375 8.66666665,14.6725695 8.66666665,15.1621528 C8.66666665,17.0048611 10.0819444,18.6840278 12,18.6840278 C13.9180556,18.6840278 15.3333333,17.0048611 15.3333333,15.1621528 C15.3333333,14.6725695 15.2958333,14.184375 15.2611111,13.6965278 L17.8333334,17.8121528 L17.8333334,20.3506945 C17.8333334,20.6576389 18.0819445,20.90625 18.3888889,20.90625 L18.9444445,20.90625 C19.2513889,20.90625 19.5,20.6576389 19.5,20.3506945 L19.5,17.6524306 C19.5,17.4440972 19.4413195,17.2399306 19.33125,17.0635417 L17.2190972,13.6840278 L18.853125,13.6840278 L20.5197917,16.1840278 C20.6899306,16.4392361 21.0350695,16.5083334 21.2902778,16.3381945 L21.7524306,16.0298611 C22.0079862,15.8597222 22.0767362,15.5149306 21.9065973,15.2597222 Z M16.1003472,6.51423608 L15.3958334,7.92326387 C15.4447917,8.06944442 15.4822917,8.20833331 15.5072917,8.33263887 L15.6885417,9.23958332 L15.8506945,9.23958332 L16.7510417,8.9392361 L17.69375,7.05381942 C17.8254837,6.79022238 17.8470918,6.48508627 17.7538195,6.20555553 L16.8548611,3.50833329 C16.7579861,3.21736107 16.4430556,3.05972218 16.1520834,3.1569444 L15.6253472,3.33263885 C15.334375,3.42986107 15.1770833,3.7444444 15.2739583,4.03541663 L16.1003472,6.51423608 Z" id="path-1"></path>
    </defs>
    <g id="spider" stroke="none" stroke-width="1" fill="none" fill-rule="evenodd">
        <mask id="mask-2" fill="white">
            <use xlink:href="#path-1"></use>
        </mask>
        <g fill-rule="nonzero"></g>
        <g id="🎨-color" mask="url(#mask-2)" fill="#000000">
            <rect id="🎨-Color" x="0" y="0" width="24" height="24"></rect>
        </g>
    </g>
</svg>