<?xml version="1.0" encoding="UTF-8"?>
<svg width="24px" height="24px" viewBox="0 0 24 24" version="1.1" xmlns="http://www.w3.org/2000/svg" xmlns:xlink="http://www.w3.org/1999/xlink">
    <!-- Generator: Sketch 52.5 (67469) - http://www.bohemiancoding.com/sketch -->
    <title>spinner</title>
    <desc>Created with Sketch.</desc>
    <defs>
        <path d="M13.875,3.87499996 C13.875,4.91054684 13.0355469,5.74999997 12,5.74999997 C10.9644531,5.74999997 10.125,4.91054684 10.125,3.87499996 C10.125,2.83945308 10.9644531,1.99999995 12,1.99999995 C13.0355469,1.99999995 13.875,2.83945308 13.875,3.87499996 Z M12,18.25 C10.9644531,18.25 10.125,19.0894532 10.125,20.125 C10.125,21.1605469 10.9644531,22.0000001 12,22.0000001 C13.0355469,22.0000001 13.875,21.1605469 13.875,20.125 C13.875,19.0894532 13.0355469,18.25 12,18.25 Z M20.125,10.125 C19.0894532,10.125 18.25,10.9644531 18.25,12 C18.25,13.0355469 19.0894532,13.875 20.125,13.875 C21.1605469,13.875 22.0000001,13.0355469 22.0000001,12 C22.0000001,10.9644531 21.1605469,10.125 20.125,10.125 Z M5.74999997,12 C5.74999997,10.9644531 4.91054684,10.125 3.87499996,10.125 C2.83945308,10.125 1.99999995,10.9644531 1.99999995,12 C1.99999995,13.0355469 2.83945308,13.875 3.87499996,13.875 C4.91054684,13.875 5.74999997,13.0355469 5.74999997,12 Z M6.2547656,15.8702344 C5.21921872,15.8702344 4.37976559,16.7096875 4.37976559,17.7452344 C4.37976559,18.7807813 5.21921872,19.6202344 6.2547656,19.6202344 C7.29031248,19.6202344 8.12976561,18.7807813 8.12976561,17.7452344 C8.12976561,16.7097266 7.29027341,15.8702344 6.2547656,15.8702344 Z M17.7452344,15.8702344 C16.7096875,15.8702344 15.8702344,16.7096875 15.8702344,17.7452344 C15.8702344,18.7807813 16.7096875,19.6202344 17.7452344,19.6202344 C18.7807813,19.6202344 19.6202344,18.7807813 19.6202344,17.7452344 C19.6202344,16.7097266 18.7807813,15.8702344 17.7452344,15.8702344 Z M6.2547656,4.37976559 C5.21921872,4.37976559 4.37976559,5.21921872 4.37976559,6.2547656 C4.37976559,7.29031248 5.21921872,8.12976561 6.2547656,8.12976561 C7.29031248,8.12976561 8.12976561,7.29031248 8.12976561,6.2547656 C8.12976561,5.21921872 7.29027341,4.37976559 6.2547656,4.37976559 Z" id="path-1"></path>
    </defs>
    <g id="spinner" stroke="none" stroke-width="1" fill="none" fill-rule="evenodd">
        <mask id="mask-2" fill="white">
            <use xlink:href="#path-1"></use>
        </mask>
        <g fill-rule="nonzero"></g>
        <g id="🎨-color" mask="url(#mask-2)" fill="#000000">
            <rect id="🎨-Color" x="0" y="0" width="24" height="24"></rect>
        </g>
    </g>
</svg>