<?xml version="1.0" encoding="UTF-8"?>
<svg width="24px" height="24px" viewBox="0 0 24 24" version="1.1" xmlns="http://www.w3.org/2000/svg" xmlns:xlink="http://www.w3.org/1999/xlink">
    <!-- Generator: Sketch 52.5 (67469) - http://www.bohemiancoding.com/sketch -->
    <title>splotch</title>
    <desc>Created with Sketch.</desc>
    <defs>
        <path d="M20.4159533,9.66108948 L17.8066148,8.76809337 C17.0564203,8.51128403 16.5015564,7.95408558 16.3225681,7.27782099 L15.7003891,4.9256809 C15.2498055,3.22256805 12.7210117,2.70272369 11.4210117,4.04552525 L9.62568092,5.90038907 C9.10972761,6.43385211 8.32062255,6.71478597 7.5167315,6.65175095 L4.71984432,6.4330739 C2.69455248,6.27470814 1.33735403,8.17937741 2.42295715,9.65603112 L3.92256805,11.6957198 C4.35369646,12.2821012 4.42140074,13.0132296 4.1031128,13.6505837 L2.99688711,15.8677043 C2.1957198,17.4727627 3.88560307,19.1700389 5.8564202,18.7396887 L8.5785992,18.1451362 C9.36108948,17.9743191 10.1914397,18.1451362 10.7992218,18.6015565 L12.9128405,20.1902724 C14.4428016,21.340467 16.844358,20.4848249 16.9770428,18.7420234 L17.1599222,16.3350195 C17.2124514,15.6428016 17.6579767,15.0175097 18.351751,14.6622568 L20.7642024,13.4272374 C22.5105059,12.5338521 22.3046693,10.3077821 20.4159533,9.66108948 Z" id="path-1"></path>
    </defs>
    <g id="splotch" stroke="none" stroke-width="1" fill="none" fill-rule="evenodd">
        <mask id="mask-2" fill="white">
            <use xlink:href="#path-1"></use>
        </mask>
        <g></g>
        <g id="🎨-color" mask="url(#mask-2)" fill="#000000">
            <rect id="🎨-Color" x="0" y="0" width="24" height="24"></rect>
        </g>
    </g>
</svg>