<?xml version="1.0" encoding="UTF-8"?>
<svg width="24px" height="24px" viewBox="0 0 24 24" version="1.1" xmlns="http://www.w3.org/2000/svg" xmlns:xlink="http://www.w3.org/1999/xlink">
    <!-- Generator: Sketch 52.5 (67469) - http://www.bohemiancoding.com/sketch -->
    <title>spotify</title>
    <desc>Created with Sketch.</desc>
    <defs>
        <path d="M12,2.31249995 C6.65234372,2.31249995 2.31249995,6.65234372 2.31249995,12 C2.31249995,17.3476563 6.65234372,21.6875 12,21.6875 C17.3476563,21.6875 21.6875,17.3476563 21.6875,12 C21.6875,6.65234372 17.3476563,2.31249995 12,2.31249995 Z M15.9335938,16.5664063 C15.7695313,16.5664063 15.6679688,16.515625 15.515625,16.4257813 C13.078125,14.9570313 10.2421875,14.8945313 7.44140623,15.46875 C7.28906248,15.5078125 7.08984373,15.5703125 6.97656247,15.5703125 C6.59765622,15.5703125 6.35937497,15.2695313 6.35937497,14.953125 C6.35937497,14.5507813 6.59765622,14.359375 6.89062497,14.296875 C10.0898437,13.5898438 13.359375,13.6523438 16.1484375,15.3203125 C16.3867188,15.4726563 16.5273438,15.609375 16.5273438,15.9648438 C16.5273438,16.3203125 16.25,16.5664063 15.9335938,16.5664063 Z M16.984375,14.0039063 C16.78125,14.0039063 16.6445313,13.9140625 16.5039063,13.8398438 C14.0625,12.3945313 10.421875,11.8125 7.18359373,12.6914063 C6.99609372,12.7421875 6.89453122,12.7929688 6.71874997,12.7929688 C6.30078122,12.7929688 5.96093747,12.453125 5.96093747,12.0351563 C5.96093747,11.6171875 6.16406247,11.3398437 6.56640622,11.2265625 C7.65234373,10.921875 8.76171873,10.6953125 10.3867187,10.6953125 C12.921875,10.6953125 15.3710938,11.3242187 17.3007813,12.4726563 C17.6171875,12.6601563 17.7421875,12.9023438 17.7421875,13.2421875 C17.7382813,13.6640625 17.4101563,14.0039063 16.984375,14.0039063 Z M18.1953125,11.0273437 C17.9921875,11.0273437 17.8671875,10.9765625 17.6914063,10.875 C14.9101563,9.21484374 9.93749999,8.81640623 6.71874997,9.71484374 C6.57812497,9.75390624 6.40234372,9.81640624 6.21484372,9.81640624 C5.69921872,9.81640624 5.30468747,9.41406249 5.30468747,8.89453123 C5.30468747,8.36328123 5.63281247,8.06249998 5.98437497,7.96093748 C7.35937498,7.55859373 8.89843748,7.36718748 10.5742187,7.36718748 C13.4257813,7.36718748 16.4140625,7.96093748 18.5976563,9.23437499 C18.9023438,9.41015624 19.1015625,9.65234374 19.1015625,10.1171875 C19.1015625,10.6484375 18.671875,11.0273437 18.1953125,11.0273437 Z" id="path-1"></path>
    </defs>
    <g id="spotify" stroke="none" stroke-width="1" fill="none" fill-rule="evenodd">
        <mask id="mask-2" fill="white">
            <use xlink:href="#path-1"></use>
        </mask>
        <g fill-rule="nonzero"></g>
        <g id="🎨-color" mask="url(#mask-2)" fill="#000000">
            <rect id="🎨-Color" x="0" y="0" width="24" height="24"></rect>
        </g>
    </g>
</svg>