<?xml version="1.0" encoding="UTF-8"?>
<svg width="24px" height="24px" viewBox="0 0 24 24" version="1.1" xmlns="http://www.w3.org/2000/svg" xmlns:xlink="http://www.w3.org/1999/xlink">
    <!-- Generator: Sketch 52.5 (67469) - http://www.bohemiancoding.com/sketch -->
    <title>spray-can</title>
    <desc>Created with Sketch.</desc>
    <defs>
        <path d="M10.75,3.24999996 C10.75,2.55976558 10.1902344,1.99999995 9.49999999,1.99999995 L6.99999997,1.99999995 C6.3097656,1.99999995 5.74999997,2.55976558 5.74999997,3.24999996 L5.74999997,6.99999997 L10.75,6.99999997 L10.75,3.24999996 Z M20.75,6.99999997 C20.0597657,6.99999997 19.5,7.5597656 19.5,8.24999998 C19.5,8.94023436 20.0597657,9.49999999 20.75,9.49999999 C21.4402344,9.49999999 22,8.94023436 22,8.24999998 C22,7.5597656 21.4402344,6.99999997 20.75,6.99999997 Z M10.75,8.24999998 L5.74999997,8.24999998 C3.67890621,8.24999998 1.99999995,9.92890624 1.99999995,12 L1.99999995,20.75 C1.99999995,21.4402344 2.55976558,22 3.24999996,22 L13.25,22 C13.9402344,22 14.5,21.4402344 14.5,20.75 L14.5,12 C14.5,9.92890624 12.8210938,8.24999998 10.75,8.24999998 Z M8.24999998,18.25 C6.52421872,18.25 5.12499997,16.8507813 5.12499997,15.125 C5.12499997,13.3992188 6.52421872,12 8.24999998,12 C9.97578124,12 11.375,13.3992188 11.375,15.125 C11.375,16.8507813 9.97578124,18.25 8.24999998,18.25 Z M20.75,5.74999997 C21.4402344,5.74999997 22,5.19023434 22,4.49999996 C22,3.80976558 21.4402344,3.24999996 20.75,3.24999996 C20.0597657,3.24999996 19.5,3.80976558 19.5,4.49999996 C19.5,5.19023434 20.0597657,5.74999997 20.75,5.74999997 Z M17,6.99999997 C16.3097656,6.99999997 15.75,7.5597656 15.75,8.24999998 C15.75,8.94023436 16.3097656,9.49999999 17,9.49999999 C17.6902344,9.49999999 18.25,8.94023436 18.25,8.24999998 C18.25,7.5597656 17.6902344,6.99999997 17,6.99999997 Z M13.25,3.24999996 C12.5597656,3.24999996 12,3.80976558 12,4.49999996 C12,5.19023434 12.5597656,5.74999997 13.25,5.74999997 C13.9402344,5.74999997 14.5,5.19023434 14.5,4.49999996 C14.5,3.80976558 13.9402344,3.24999996 13.25,3.24999996 Z M17,3.24999996 C16.3097656,3.24999996 15.75,3.80976558 15.75,4.49999996 C15.75,5.19023434 16.3097656,5.74999997 17,5.74999997 C17.6902344,5.74999997 18.25,5.19023434 18.25,4.49999996 C18.25,3.80976558 17.6902344,3.24999996 17,3.24999996 Z M20.75,10.75 C20.0597657,10.75 19.5,11.3097656 19.5,12 C19.5,12.6902344 20.0597657,13.25 20.75,13.25 C21.4402344,13.25 22,12.6902344 22,12 C22,11.3097656 21.4402344,10.75 20.75,10.75 Z" id="path-1"></path>
    </defs>
    <g id="spray-can" stroke="none" stroke-width="1" fill="none" fill-rule="evenodd">
        <mask id="mask-2" fill="white">
            <use xlink:href="#path-1"></use>
        </mask>
        <g fill-rule="nonzero"></g>
        <g id="🎨-color" mask="url(#mask-2)" fill="#000000">
            <rect id="🎨-Color" x="0" y="0" width="24" height="24"></rect>
        </g>
    </g>
</svg>