<?xml version="1.0" encoding="UTF-8"?>
<svg width="24px" height="24px" viewBox="0 0 24 24" version="1.1" xmlns="http://www.w3.org/2000/svg" xmlns:xlink="http://www.w3.org/1999/xlink">
    <!-- Generator: Sketch 52.5 (67469) - http://www.bohemiancoding.com/sketch -->
    <title>square-root-alt</title>
    <desc>Created with Sketch.</desc>
    <defs>
        <path d="M21.8371528,11.8371528 L21.0517362,11.0517361 C20.8347223,10.8347222 20.4829862,10.8347222 20.2659723,11.0517361 L18.6666667,12.6510417 L17.0673611,11.0517361 C16.8503472,10.8347222 16.4986111,10.8347222 16.2815972,11.0517361 L15.4961806,11.8371528 C15.2791667,12.0541667 15.2791667,12.4059028 15.4961806,12.6229167 L17.0954861,14.2222222 L15.4961806,15.8215278 C15.2791667,16.0385417 15.2791667,16.3902778 15.4961806,16.6072917 L16.2815972,17.3927084 C16.4986111,17.6097223 16.8503472,17.6097223 17.0673611,17.3927084 L18.6666667,15.7934028 L20.2659723,17.3927084 C20.4829862,17.6097223 20.8347223,17.6097223 21.0517362,17.3927084 L21.8371528,16.6072917 C22.0541667,16.3902778 22.0541667,16.0385417 21.8371528,15.8215278 L20.2378473,14.2222222 L21.8371528,12.6229167 C22.0541667,12.4059028 22.0541667,12.0541667 21.8371528,11.8371528 Z M21.1666667,3.11111107 L12.6822917,3.11111107 C12.1774306,3.11111107 11.7357639,3.45138885 11.6076389,3.93993052 L8.66354165,15.1482639 L6.63541664,11.4642361 C6.44006766,11.1094381 6.06717479,10.8890016 5.66215275,10.8888889 L2.83333329,10.8888889 C2.37326384,10.8888889 1.99999995,11.2618056 1.99999995,11.7222222 L1.99999995,13.3888889 C1.99999995,13.8489583 2.37326384,14.2222222 2.83333329,14.2222222 L4.34791663,14.2222222 L7.43402775,19.9072917 C7.86770831,20.59375 8.46874998,20.8888889 9.11597221,20.8888889 C9.71562499,20.8888889 10.6590278,20.5763889 11.0006944,19.4486111 L14.396875,6.44444442 L21.1666667,6.44444442 C21.6267362,6.44444442 22.0000001,6.07118053 22.0000001,5.61111108 L22.0000001,3.9444444 C22.0000001,3.48402774 21.6267362,3.11111107 21.1666667,3.11111107 Z" id="path-1"></path>
    </defs>
    <g id="square-root-alt" stroke="none" stroke-width="1" fill="none" fill-rule="evenodd">
        <mask id="mask-2" fill="white">
            <use xlink:href="#path-1"></use>
        </mask>
        <g fill-rule="nonzero"></g>
        <g id="🎨-color" mask="url(#mask-2)" fill="#000000">
            <rect id="🎨-Color" x="0" y="0" width="24" height="24"></rect>
        </g>
    </g>
</svg>