<?xml version="1.0" encoding="UTF-8"?>
<svg width="24px" height="24px" viewBox="0 0 24 24" version="1.1" xmlns="http://www.w3.org/2000/svg" xmlns:xlink="http://www.w3.org/1999/xlink">
    <!-- Generator: Sketch 52.5 (67469) - http://www.bohemiancoding.com/sketch -->
    <title>square</title>
    <desc>Created with Sketch.</desc>
    <defs>
        <path d="M18.875,3.24999996 L5.12499997,3.24999996 C4.08984371,3.24999996 3.24999996,4.08984371 3.24999996,5.12499997 L3.24999996,18.875 C3.24999996,19.9101563 4.08984371,20.75 5.12499997,20.75 L18.875,20.75 C19.9101563,20.75 20.75,19.9101563 20.75,18.875 L20.75,5.12499997 C20.75,4.08984371 19.9101563,3.24999996 18.875,3.24999996 Z M18.640625,18.875 L5.35937497,18.875 C5.23046872,18.875 5.12499997,18.7695313 5.12499997,18.640625 L5.12499997,5.35937497 C5.12499997,5.23046872 5.23046872,5.12499997 5.35937497,5.12499997 L18.640625,5.12499997 C18.7695313,5.12499997 18.875,5.23046872 18.875,5.35937497 L18.875,18.640625 C18.875,18.7695313 18.7695313,18.875 18.640625,18.875 Z" id="path-1"></path>
    </defs>
    <g id="square" stroke="none" stroke-width="1" fill="none" fill-rule="evenodd">
        <mask id="mask-2" fill="white">
            <use xlink:href="#path-1"></use>
        </mask>
        <g fill-rule="nonzero"></g>
        <g id="🎨-color" mask="url(#mask-2)" fill="#000000">
            <rect id="🎨-Color" x="0" y="0" width="24" height="24"></rect>
        </g>
    </g>
</svg>