<?xml version="1.0" encoding="UTF-8"?>
<svg width="24px" height="24px" viewBox="0 0 24 24" version="1.1" xmlns="http://www.w3.org/2000/svg" xmlns:xlink="http://www.w3.org/1999/xlink">
    <!-- Generator: Sketch 52.5 (67469) - http://www.bohemiancoding.com/sketch -->
    <title>squarespace</title>
    <desc>Created with Sketch.</desc>
    <defs>
        <path d="M9.28093384,15.3984436 C8.90544746,15.77393 8.90544746,16.3824903 9.28093384,16.7579767 C9.65642022,17.1334631 10.2649805,17.1334631 10.6404669,16.7579767 L16.7564203,10.6420233 C17.5070039,9.89143968 18.7241245,9.89143968 19.4747082,10.6420233 C20.2252919,11.392607 20.2252919,12.6097276 19.4747082,13.3603113 L13.4766537,19.3579767 C14.2264592,20.1085604 15.4428016,20.1093386 16.1933852,19.3595331 L16.1949417,19.3579767 L20.8350195,14.718288 C22.3365759,13.2167315 22.3365759,10.7828794 20.8350195,9.28171205 C19.3334631,7.78015562 16.8992218,7.78015562 15.3984436,9.28171205 L9.28093384,15.3984436 Z M18.7957199,11.3206226 C18.4202335,10.9451362 17.8116732,10.9451362 17.4365759,11.3206226 L11.3198444,17.4365759 C10.5700389,18.1871596 9.35369648,18.1879378 8.60311282,17.4385214 L8.6011673,17.4365759 C8.22607002,17.0614786 7.61789881,17.0610895 7.24241243,17.4361868 L7.24202332,17.4365759 C6.86653694,17.8116732 6.86614783,18.4202335 7.24124511,18.7957199 L7.24202332,18.7964981 C8.74319065,20.2972763 11.1774319,20.2972763 12.6785992,18.7964981 L18.7953308,12.6797665 C19.1708172,12.3042802 19.1708172,11.6957198 18.7957199,11.3206226 Z M8.6015564,14.7186771 L14.7175097,8.60272372 C15.092607,8.22723734 15.092607,7.61867702 14.7175097,7.24319064 C14.3424125,6.86809336 13.7342413,6.86809336 13.359144,7.24319064 L7.24202332,13.359144 C6.49182877,14.1097276 5.27470814,14.1101167 4.52412448,13.3595331 L4.52373537,13.359144 C3.77315171,12.6089494 3.7723735,11.392607 4.52256806,10.6416342 L4.52373537,10.6404669 L10.5225681,4.6416342 C9.77237353,3.89105054 8.55564201,3.89066144 7.80466924,4.64085599 L7.80389103,4.6416342 L3.1645914,9.28171205 C1.66342407,10.7832685 1.66342407,13.2171206 3.1645914,14.718288 C4.66653693,16.2198444 7.09961087,16.2198444 8.6015564,14.7186771 Z M5.20350191,12.6797665 C5.57859919,13.0548638 6.1867704,13.0548638 6.56186768,12.6797665 L12.6789883,6.5634241 C13.4291829,5.81284044 14.6459144,5.81245133 15.3964981,6.56264589 L15.3972763,6.5634241 C15.7727627,6.93891048 16.381323,6.93891048 16.7564203,6.5634241 C17.1319066,6.18793771 17.1319066,5.5793774 16.7564203,5.20428012 C15.2548638,3.70272369 12.8214008,3.70272369 11.3198444,5.20428012 L5.20350191,11.3206226 C4.82801553,11.6957198 4.82801553,12.3042802 5.20311281,12.6797665 L5.20350191,12.6797665 Z" id="path-1"></path>
    </defs>
    <g id="squarespace" stroke="none" stroke-width="1" fill="none" fill-rule="evenodd">
        <mask id="mask-2" fill="white">
            <use xlink:href="#path-1"></use>
        </mask>
        <g fill-rule="nonzero"></g>
        <g id="🎨-color" mask="url(#mask-2)" fill="#000000">
            <rect id="🎨-Color" x="0" y="0" width="24" height="24"></rect>
        </g>
    </g>
</svg>