<?xml version="1.0" encoding="UTF-8"?>
<svg width="24px" height="24px" viewBox="0 0 24 24" version="1.1" xmlns="http://www.w3.org/2000/svg" xmlns:xlink="http://www.w3.org/1999/xlink">
    <!-- Generator: Sketch 52.5 (67469) - http://www.bohemiancoding.com/sketch -->
    <title>stamp</title>
    <desc>Created with Sketch.</desc>
    <defs>
        <path d="M3.24999996,22 L20.75,22 L20.75,19.5 L3.24999996,19.5 L3.24999996,22 Z M18.25,12 L15.65,12 C15.0148438,12 14.5,11.4851562 14.5,10.85 L14.5,10.4804687 C14.5,9.41132811 14.846875,8.39414061 15.3382813,7.44453123 C15.6941406,6.7566406 15.8421875,5.94492184 15.6917969,5.08437497 C15.4273438,3.56953121 14.1890625,2.3226562 12.6738281,2.05898433 C10.3054687,1.64687495 8.24999998,3.45820308 8.24999998,5.74999997 C8.24999998,6.30312497 8.37187498,6.82578122 8.58945311,7.29609373 C9.11015624,8.42304686 9.49999999,9.60546874 9.49999999,10.8472656 L9.49999999,10.85 C9.49999999,11.4851562 8.98515623,12 8.34999998,12 L5.74999997,12 C3.67890621,12 1.99999995,13.6789063 1.99999995,15.75 L1.99999995,17 C1.99999995,17.6902344 2.55976558,18.25 3.24999996,18.25 L20.75,18.25 C21.4402344,18.25 22.0000001,17.6902344 22.0000001,17 L22.0000001,15.75 C22.0000001,13.6789063 20.3210938,12 18.25,12 Z" id="path-1"></path>
    </defs>
    <g id="stamp" stroke="none" stroke-width="1" fill="none" fill-rule="evenodd">
        <mask id="mask-2" fill="white">
            <use xlink:href="#path-1"></use>
        </mask>
        <g fill-rule="nonzero"></g>
        <g id="🎨-color" mask="url(#mask-2)" fill="#000000">
            <rect id="🎨-Color" x="0" y="0" width="24" height="24"></rect>
        </g>
    </g>
</svg>