<?xml version="1.0" encoding="UTF-8"?>
<svg width="24px" height="24px" viewBox="0 0 24 24" version="1.1" xmlns="http://www.w3.org/2000/svg" xmlns:xlink="http://www.w3.org/1999/xlink">
    <!-- Generator: Sketch 52.5 (67469) - http://www.bohemiancoding.com/sketch -->
    <title>star-of-life</title>
    <desc>Created with Sketch.</desc>
    <defs>
        <path d="M21.0621094,15.0636719 L15.7523438,12 L21.0621094,8.93632811 C21.3613282,8.76367186 21.4636719,8.38164061 21.2910157,8.08242186 L20.0402344,5.91718747 C19.8675782,5.61835934 19.4851563,5.51562497 19.1859375,5.68828122 L13.8761719,8.75195311 L13.8761719,2.62499995 C13.8761719,2.27968745 13.5960938,1.99999995 13.2507813,1.99999995 L10.7492187,1.99999995 C10.4039062,1.99999995 10.1238281,2.27968745 10.1238281,2.62499995 L10.1238281,8.75234373 L4.81406246,5.68867184 C4.51484371,5.51601559 4.13242184,5.61874997 3.95976558,5.91757809 L2.70898433,8.08242186 C2.53632808,8.38124998 2.63867183,8.76367186 2.93789058,8.93632811 L8.24765623,12 L2.93789058,15.0636719 C2.63867183,15.2363281 2.53632808,15.61875 2.70898433,15.9175781 L3.95976558,18.0828125 C4.13242184,18.3816407 4.51484371,18.4839844 4.81406246,18.3117188 L10.1238281,15.2480469 L10.1238281,21.375 C10.1238281,21.7203125 10.4039062,22.0000001 10.7492187,22.0000001 L13.2507813,22.0000001 C13.5960938,22.0000001 13.8761719,21.7203125 13.8761719,21.375 L13.8761719,15.2476563 L19.1859375,18.3113282 C19.4851563,18.4839844 19.8675782,18.3816407 20.0402344,18.0824219 L21.2910157,15.9171875 C21.4636719,15.6183594 21.3613282,15.2363281 21.0621094,15.0636719 Z" id="path-1"></path>
    </defs>
    <g id="star-of-life" stroke="none" stroke-width="1" fill="none" fill-rule="evenodd">
        <mask id="mask-2" fill="white">
            <use xlink:href="#path-1"></use>
        </mask>
        <g></g>
        <g id="🎨-color" mask="url(#mask-2)" fill="#000000">
            <rect id="🎨-Color" x="0" y="0" width="24" height="24"></rect>
        </g>
    </g>
</svg>