<?xml version="1.0" encoding="UTF-8"?>
<svg width="24px" height="24px" viewBox="0 0 24 24" version="1.1" xmlns="http://www.w3.org/2000/svg" xmlns:xlink="http://www.w3.org/1999/xlink">
    <!-- Generator: Sketch 52.5 (67469) - http://www.bohemiancoding.com/sketch -->
    <title>star-of-david</title>
    <desc>Created with Sketch.</desc>
    <defs>
        <path d="M18.784375,12 L20.8628907,8.50820311 C21.4257813,7.56249998 20.7296875,6.37499997 19.6125,6.37499997 L15.4359375,6.37499997 L13.2503906,2.7039062 C12.9710938,2.23476558 12.4855469,1.99999995 12,1.99999995 C11.5144531,1.99999995 11.0289062,2.23476558 10.7496094,2.7039062 L8.56406248,6.37499997 L4.38710934,6.37499997 C3.26992183,6.37499997 2.57382808,7.56249998 3.13671871,8.50820311 L5.21562497,12 L3.13671871,15.4917969 C2.57382808,16.4375 3.26992183,17.625 4.38710934,17.625 L8.56406248,17.625 L10.7496094,21.2960938 C11.0289062,21.7652344 11.5144531,22.0000001 12,22.0000001 C12.4855469,22.0000001 12.9710938,21.7652344 13.2503906,21.2960938 L15.4359375,17.625 L19.6128907,17.625 C20.7300782,17.625 21.4261719,16.4375 20.8632813,15.4917969 L18.784375,12 Z M18.2851563,8.56249998 L17.5117188,9.86171874 L16.7382813,8.56249998 L18.2851563,8.56249998 Z M16.2386719,12 L14.1921875,15.4375 L9.80781249,15.4375 L7.7613281,12 L9.80742186,8.56249998 L14.1921875,8.56249998 L16.2386719,12 Z M12,4.87968746 L12.8902344,6.37499997 L11.1101562,6.37499997 L12,4.87968746 Z M5.71484372,8.56249998 L7.26171873,8.56249998 L6.48828122,9.86171874 L5.71484372,8.56249998 Z M5.71484372,15.4375 L6.48828122,14.1382813 L7.26171873,15.4375 L5.71484372,15.4375 Z M12,19.1203125 L11.1097656,17.625 L12.8898438,17.625 L12,19.1203125 Z M16.7378906,15.4375 L17.5113282,14.1382813 L18.2851563,15.4375 L16.7378906,15.4375 Z" id="path-1"></path>
    </defs>
    <g id="star-of-david" stroke="none" stroke-width="1" fill="none" fill-rule="evenodd">
        <mask id="mask-2" fill="white">
            <use xlink:href="#path-1"></use>
        </mask>
        <g fill-rule="nonzero"></g>
        <g id="🎨-color" mask="url(#mask-2)" fill="#000000">
            <rect id="🎨-Color" x="0" y="0" width="24" height="24"></rect>
        </g>
    </g>
</svg>