<?xml version="1.0" encoding="UTF-8"?>
<svg width="24px" height="24px" viewBox="0 0 24 24" version="1.1" xmlns="http://www.w3.org/2000/svg" xmlns:xlink="http://www.w3.org/1999/xlink">
    <!-- Generator: Sketch 52.5 (67469) - http://www.bohemiancoding.com/sketch -->
    <title>star-half-alt</title>
    <desc>Created with Sketch.</desc>
    <defs>
        <path d="M20.9423792,8.85910779 L15.5011153,8.06691448 L13.0695167,3.14535312 C12.8509294,2.70557616 12.4245353,2.48327133 11.9981413,2.48327133 C11.5743494,2.48327133 11.1509294,2.70260218 10.9315985,3.14535312 L8.49925649,8.06654273 L3.05762077,8.85799255 C2.08178434,8.99925649 1.69070627,10.1996282 2.39814122,10.8873606 L6.33457246,14.7163569 L5.40297394,20.1245354 C5.27063194,20.8970261 5.88736056,21.5167287 6.57806689,21.5167287 C6.76133826,21.5167287 6.9498141,21.4732342 7.13085499,21.3773235 L11.9988848,18.8241636 L16.8665428,21.378067 C17.0472119,21.4728625 17.235316,21.5159852 17.4178439,21.5159852 C18.1092937,21.5159852 18.7271376,20.8985131 18.5947956,20.1256506 L17.6643123,14.7171004 L21.601487,10.8888476 C22.3092937,10.2011152 21.9182157,9.00037173 20.9423792,8.85910779 Z M16.4167286,13.4390335 L15.7431227,14.0940521 L15.9022305,15.0189591 L16.6278811,19.2364313 L12.8312268,17.2442379 L11.9992565,16.8078067 L12.0003717,5.01635684 L13.8973978,8.85613381 L14.3130112,9.69739776 L15.2427509,9.83271374 L19.4892194,10.4509294 L16.4167286,13.4390335 Z" id="path-1"></path>
    </defs>
    <g id="star-half-alt" stroke="none" stroke-width="1" fill="none" fill-rule="evenodd">
        <mask id="mask-2" fill="white">
            <use xlink:href="#path-1"></use>
        </mask>
        <g fill-rule="nonzero"></g>
        <g id="🎨-color" mask="url(#mask-2)" fill="#000000">
            <rect id="🎨-Color" x="0" y="0" width="24" height="24"></rect>
        </g>
    </g>
</svg>