<?xml version="1.0" encoding="UTF-8"?>
<svg width="24px" height="24px" viewBox="0 0 24 24" version="1.1" xmlns="http://www.w3.org/2000/svg" xmlns:xlink="http://www.w3.org/1999/xlink">
    <!-- Generator: Sketch 52.5 (67469) - http://www.bohemiancoding.com/sketch -->
    <title>steam-square</title>
    <desc>Created with Sketch.</desc>
    <defs>
        <path d="M10.484375,15.9257813 C10.7851562,15.203125 10.4453125,14.375 9.71874999,14.0742188 L8.56640623,13.5976563 C9.01171874,13.4296875 9.51562499,13.421875 9.98828124,13.6171875 C10.4648437,13.8164063 10.8320312,14.1875 11.03125,14.6601563 C11.2265625,15.1367188 11.2265625,15.6601563 11.0273437,16.1328125 C10.6171875,17.1132813 9.48828124,17.578125 8.50390623,17.1679688 C8.05078123,16.9804688 7.70703123,16.6367188 7.51171873,16.2226563 L8.62499998,16.6835938 C9.35156249,16.9882813 10.1835937,16.6484375 10.484375,15.9257813 Z M18.875,3.24999996 L5.12499997,3.24999996 C4.08984371,3.24999996 3.24999996,4.08984371 3.24999996,5.12499997 L3.24999996,11.4023437 L7.80468748,13.28125 C8.27343748,12.9609375 8.82812498,12.8085938 9.39453124,12.8398438 L11.5585937,9.70703124 L11.5585937,9.66406249 C11.5585937,7.78124998 13.09375,6.24609372 14.9804688,6.24609372 C16.8671875,6.24609372 18.4023438,7.78124998 18.4023438,9.66406249 C18.4023438,11.5859375 16.8046875,13.1289063 14.9023438,13.0820313 L11.8164062,15.28125 C11.8789062,16.7851563 10.6796875,17.96875 9.24999999,17.96875 C8.00781248,17.96875 6.96484372,17.0820313 6.73046872,15.9101563 L3.24999996,14.46875 L3.24999996,18.875 C3.24999996,19.9101563 4.08984371,20.75 5.12499997,20.75 L18.875,20.75 C19.9101563,20.75 20.75,19.9101563 20.75,18.875 L20.75,5.12499997 C20.75,4.08984371 19.9101563,3.24999996 18.875,3.24999996 Z M14.9804688,11.9414062 C13.7226563,11.9414062 12.6992188,10.921875 12.6992188,9.66406249 C12.6992188,8.40624998 13.7226563,7.38671873 14.9804688,7.38671873 C16.2382813,7.38671873 17.2617188,8.41015623 17.2617188,9.66406249 C17.2617188,10.9179687 16.2382813,11.9414062 14.9804688,11.9414062 Z M14.984375,11.3710937 C15.9296875,11.3710937 16.6992188,10.6054687 16.6992188,9.66015624 C16.6992188,8.71484373 15.9335938,7.94921873 14.984375,7.94921873 C14.0390625,7.94921873 13.2695313,8.71484373 13.2695313,9.66015624 C13.2695313,10.6054687 14.0390625,11.3710937 14.984375,11.3710937 Z" id="path-1"></path>
    </defs>
    <g id="steam-square" stroke="none" stroke-width="1" fill="none" fill-rule="evenodd">
        <mask id="mask-2" fill="white">
            <use xlink:href="#path-1"></use>
        </mask>
        <g fill-rule="nonzero"></g>
        <g id="🎨-color" mask="url(#mask-2)" fill="#000000">
            <rect id="🎨-Color" x="0" y="0" width="24" height="24"></rect>
        </g>
    </g>
</svg>