<?xml version="1.0" encoding="UTF-8"?>
<svg width="24px" height="24px" viewBox="0 0 24 24" version="1.1" xmlns="http://www.w3.org/2000/svg" xmlns:xlink="http://www.w3.org/1999/xlink">
    <!-- Generator: Sketch 52.5 (67469) - http://www.bohemiancoding.com/sketch -->
    <title>steam</title>
    <desc>Created with Sketch.</desc>
    <defs>
        <path d="M21.6875,12 C21.6875,17.3515625 17.34375,21.6875 11.984375,21.6875 C7.53906248,21.6875 3.79687496,18.7070313 2.64843745,14.640625 L6.36718747,16.1757813 C6.61718747,17.4296875 7.73046873,18.3789063 9.05859374,18.3789063 C10.5898437,18.3789063 11.8671875,17.1132813 11.8007812,15.5078125 L15.1015625,13.15625 C17.1367188,13.2070313 18.84375,11.5585937 18.84375,9.50390624 C18.84375,7.48828123 17.203125,5.85156247 15.1835938,5.85156247 C13.1640625,5.85156247 11.5234375,7.49218748 11.5234375,9.50390624 L11.5234375,9.55078124 L9.21093749,12.8984375 C8.60546873,12.8632813 8.01171873,13.03125 7.51171873,13.3710938 L2.31249995,11.2226562 C2.71093745,6.23437497 6.88671872,2.31249995 11.984375,2.31249995 C17.34375,2.31249995 21.6875,6.64843747 21.6875,12 Z M8.39453123,17.0117188 L7.20312498,16.5195313 C7.42205979,16.9741487 7.80008321,17.3327151 8.26562498,17.5273438 C9.31640624,17.9648438 10.5234375,17.4648438 10.9609375,16.4179688 C11.171875,15.9101563 11.1757812,15.3515625 10.9648437,14.84375 C10.7539062,14.3359375 10.359375,13.9375 9.85156249,13.7265625 C9.34765624,13.515625 8.80859373,13.5234375 8.33203123,13.703125 L9.56249999,14.2109375 C10.3359375,14.53125 10.703125,15.4179688 10.3789062,16.1914063 C10.0546875,16.96875 9.16796874,17.3320313 8.39453123,17.0117188 Z M15.1835938,11.9375 C13.8398438,11.9375 12.7460938,10.84375 12.7460938,9.50390624 C12.7460938,8.16406248 13.8398438,7.07031248 15.1835938,7.07031248 C16.5273438,7.07031248 17.6210938,8.16406248 17.6210938,9.50390624 C17.6210938,10.84375 16.53125,11.9375 15.1835938,11.9375 Z M15.1875,11.328125 C16.1992188,11.328125 17.0195313,10.5078125 17.0195313,9.49999999 C17.0195313,8.48828123 16.1992188,7.67187498 15.1875,7.67187498 C14.1757813,7.67187498 13.3554688,8.49218748 13.3554688,9.49999999 C13.359375,10.5078125 14.1796875,11.328125 15.1875,11.328125 Z" id="path-1"></path>
    </defs>
    <g id="steam" stroke="none" stroke-width="1" fill="none" fill-rule="evenodd">
        <mask id="mask-2" fill="white">
            <use xlink:href="#path-1"></use>
        </mask>
        <g fill-rule="nonzero"></g>
        <g id="🎨-color" mask="url(#mask-2)" fill="#000000">
            <rect id="🎨-Color" x="0" y="0" width="24" height="24"></rect>
        </g>
    </g>
</svg>