<?xml version="1.0" encoding="UTF-8"?>
<svg width="24px" height="24px" viewBox="0 0 24 24" version="1.1" xmlns="http://www.w3.org/2000/svg" xmlns:xlink="http://www.w3.org/1999/xlink">
    <!-- Generator: Sketch 52.5 (67469) - http://www.bohemiancoding.com/sketch -->
    <title>steam-symbol</title>
    <desc>Created with Sketch.</desc>
    <defs>
        <path d="M18.6992188,8.93359373 C18.6992188,10.2539062 17.625,11.3164062 16.3164063,11.3164062 C14.9960938,11.3164062 13.9335938,10.25 13.9335938,8.93359373 C13.9335938,7.61718748 15,6.55078122 16.3164063,6.55078122 C17.625,6.55078122 18.6992188,7.61328123 18.6992188,8.93359373 Z M20.75,8.94140623 C20.75,11.4023437 18.7578125,13.3867188 16.3085938,13.3867188 L12.0390625,16.5039063 C11.8828125,18.1835938 10.4570312,19.5039063 8.73828123,19.5039063 C7.15624998,19.5039063 5.82031247,18.3789063 5.49609372,16.8867188 L3.24999996,15.984375 L3.24999996,11.7929687 L7.04687498,13.328125 C7.63671873,12.96875 8.30468748,12.8085938 9.07812499,12.8789063 L11.8515625,8.90624998 C11.8710937,6.47265622 13.8632813,4.49999996 16.3046875,4.49999996 C18.7578125,4.49999996 20.75,6.49218747 20.75,8.94140623 Z M11.1796875,16.1796875 C11.1796875,14.8242188 10.09375,13.7382813 8.73828123,13.7382813 C8.56249998,13.7382813 8.38671873,13.7578125 8.21093748,13.796875 L9.22656249,14.2070313 C10.2226562,14.6054688 10.7109375,15.7304688 10.3085937,16.7265625 C9.91015624,17.7226563 8.77734373,18.2109375 7.78124998,17.8007813 C7.38281248,17.6445313 6.98046872,17.4765625 6.58203122,17.3242188 C6.99218747,18.09375 7.80078123,18.6210938 8.73828123,18.6210938 C10.09375,18.6210938 11.1796875,17.5351563 11.1796875,16.1796875 Z M19.2851563,8.94140623 C19.2851563,7.30078123 17.9453125,5.96484372 16.3085938,5.96484372 C14.65625,5.96484372 13.3203125,7.30078123 13.3203125,8.94140623 C13.3203125,10.5898437 14.6601563,11.9179687 16.3085938,11.9179687 C17.9453125,11.921875 19.2851563,10.59375 19.2851563,8.94140623 Z" id="path-1"></path>
    </defs>
    <g id="steam-symbol" stroke="none" stroke-width="1" fill="none" fill-rule="evenodd">
        <mask id="mask-2" fill="white">
            <use xlink:href="#path-1"></use>
        </mask>
        <g fill-rule="nonzero"></g>
        <g id="🎨-color" mask="url(#mask-2)" fill="#000000">
            <rect id="🎨-Color" x="0" y="0" width="24" height="24"></rect>
        </g>
    </g>
</svg>