<?xml version="1.0" encoding="UTF-8"?>
<svg width="24px" height="24px" viewBox="0 0 24 24" version="1.1" xmlns="http://www.w3.org/2000/svg" xmlns:xlink="http://www.w3.org/1999/xlink">
    <!-- Generator: Sketch 52.5 (67469) - http://www.bohemiancoding.com/sketch -->
    <title>stethoscope</title>
    <desc>Created with Sketch.</desc>
    <defs>
        <path d="M19.4648438,6.37499997 C18.1289063,6.39453122 17.03125,7.48437498 17.0039063,8.82031248 C16.984375,9.76953124 17.4921875,10.6015625 18.2539063,11.0390625 L18.2539063,15.4375 C18.2539063,17.6757813 16.2929688,19.5 13.8789063,19.5 C11.5351562,19.5 9.61328124,17.7773438 9.50781249,15.625 C12.3515625,15.0390625 14.5,12.515625 14.5,9.49999999 L14.5,3.42968746 C14.5,2.98437495 14.1835938,2.5976562 13.7460938,2.5117187 L11.2890625,2.0195312 C10.78125,1.9179687 10.2890625,2.2460937 10.1875,2.7539062 L10.0625,3.36718746 C9.96093749,3.87499996 10.2890625,4.36718746 10.796875,4.46874996 L11.9960937,4.70703121 L11.9960937,9.44921874 C11.9960937,11.515625 10.3476562,13.2265625 8.28124998,13.2460938 C6.19531247,13.265625 4.49609371,11.578125 4.49609371,9.49609374 L4.49609371,4.71093746 L5.69531247,4.47265621 C6.20312497,4.37109371 6.53124997,3.87890621 6.42968747,3.37109371 L6.30859372,2.75781245 C6.20703122,2.24999995 5.71484372,1.92187495 5.20703122,2.02343745 L2.7539062,2.50781245 C2.3164062,2.5976562 1.99999995,2.9804687 1.99999995,3.42968746 L1.99999995,9.49999999 C1.99999995,12.5195313 4.15234371,15.046875 7.00390623,15.625 C7.10546873,19.15625 10.1484375,22 13.875,22 C17.6640625,22 20.75,19.0546875 20.75,15.4375 L20.75,11.0390625 C21.4960938,10.6054687 22.0000001,9.80078124 22.0000001,8.87499998 C22.0000001,7.48046873 20.859375,6.35546872 19.4648438,6.37499997 Z M19.5,9.49999999 C19.15625,9.49999999 18.875,9.21874999 18.875,8.87499998 C18.875,8.53124998 19.15625,8.24999998 19.5,8.24999998 C19.84375,8.24999998 20.125,8.53124998 20.125,8.87499998 C20.125,9.21874999 19.84375,9.49999999 19.5,9.49999999 Z" id="path-1"></path>
    </defs>
    <g id="stethoscope" stroke="none" stroke-width="1" fill="none" fill-rule="evenodd">
        <mask id="mask-2" fill="white">
            <use xlink:href="#path-1"></use>
        </mask>
        <g fill-rule="nonzero"></g>
        <g id="🎨-color" mask="url(#mask-2)" fill="#000000">
            <rect id="🎨-Color" x="0" y="0" width="24" height="24"></rect>
        </g>
    </g>
</svg>