<?xml version="1.0" encoding="UTF-8"?>
<svg width="24px" height="24px" viewBox="0 0 24 24" version="1.1" xmlns="http://www.w3.org/2000/svg" xmlns:xlink="http://www.w3.org/1999/xlink">
    <!-- Generator: Sketch 52.5 (67469) - http://www.bohemiancoding.com/sketch -->
    <title>sticker-mule</title>
    <desc>Created with Sketch.</desc>
    <defs>
        <path d="M14.2391681,20.7798961 C14.0346621,20.880416 13.1265165,20.8908146 12.9740035,20.762565 C12.8318891,20.6585789 12.897747,20.3500867 12.9220104,20.2426344 C12.9982669,19.7227037 12.8353553,19.9688042 12.5823224,19.8440208 C12.47487,19.7920278 12.440208,19.6533796 12.422877,19.4974004 C12.4055459,19.4454073 12.3882149,19.4107453 12.3708839,19.3760832 C12.3119584,19.0051993 12.6065858,18.2114385 12.6551127,17.8717505 C12.8249567,17.05026 12.6308492,16.5823224 12.7071057,16.2461005 C12.8353553,15.6845754 12.8492201,16.1247834 12.8492201,15.2097054 C12.8006932,14.3119584 12.9636049,13.9306759 12.8665511,13.8613518 C12.3535529,13.8613518 10.6377816,14.2322357 8.97746966,13.9306759 C7.37954937,13.6221837 6.91854417,12.9254766 6.7105719,12.8596187 C6.35355283,12.7036395 5.90641245,12.8769497 5.76429806,13.102253 C5.76083186,13.1057192 4.55112648,15.5493934 4.39168107,16.1455806 C4.17677639,16.8561525 4.37435005,17.7885616 4.53379546,18.4610052 C4.53379546,18.4644714 4.68977466,18.9670711 4.89081452,19.1369151 C4.96360482,19.1889082 5.06759095,19.2235702 5.14038125,19.2928943 C5.23743497,19.3864818 5.46620447,19.8197574 5.48006929,19.847487 C5.57019061,20.0034662 5.60485265,20.1247834 5.42807622,20.2114385 C5.30329286,20.2807626 5.1057192,20.2980936 4.92894277,20.2980936 C4.83882145,20.3154247 4.8769497,20.4194108 4.82149043,20.4714039 C4.7209705,20.5684576 4.1039861,20.6828423 3.78509528,20.558059 C3.69497396,20.5233969 3.58752162,20.4540728 3.5701906,20.3847487 C3.51819753,20.2461006 3.64298089,20.0727903 3.53552855,19.9514732 C3.37954935,19.8509532 3.08145576,19.8821491 2.94627378,19.5355286 C2.87001729,19.3483536 2.85615247,19.2720971 2.85615247,17.8232236 C2.85615247,17.4870018 2.6516464,16.4818024 2.5719237,16.1975737 C2.51993063,16.0069324 2.51993063,15.7989602 2.5719237,15.642981 C2.58232231,15.6117851 2.71403808,15.4835355 2.71403808,15.1923744 C2.67937604,15.1403813 2.55459267,15.1750433 2.53726165,15.1403813 C2.17677638,12.3466205 2.33275558,12.4020797 2.2703639,11.7331023 C2.21837083,11.1785095 1.89254761,10.2114385 2.0381282,9.50433274 C2.05545922,9.42114383 2.15597915,8.77642979 2.87694969,8.15597918 C3.9514731,7.23050258 4.55459268,6.82842285 8.38821489,7.75736566 C8.42634314,7.77123048 10.6863085,8.48873482 12.2253033,7.44540726 C12.762565,7.05372615 13.2235702,7.05372615 13.4558059,6.89081453 C13.4592721,6.88734833 15.5944541,5.08492198 16.4714038,4.62738298 C18.1074524,3.60831885 18.8942808,4.04852682 19.0745234,4.00346616 C19.237435,3.96880412 19.5389948,3.1091854 19.6637782,3.1091854 C19.8544195,3.1091854 19.7192375,3.80935871 19.7885616,4.00693237 C19.8058926,4.07625646 19.9133449,4.1802426 20.0034662,4.1802426 C20.0831889,4.1802426 20.0623917,4.15251296 20.3604853,4.00693237 C20.6516465,3.81975732 20.8769498,3.39688037 21.0745234,3.4176776 C21.4800694,3.47313687 20.4159446,4.85961868 20.4159446,5.04332752 C20.4159446,5.11265161 20.422877,5.07105716 20.57539,5.37261695 C20.6655113,5.5632582 20.7348354,5.84055456 20.7902947,6.06585786 C21.0779896,7.0953206 20.9878683,6.57192372 21.2547661,7.34488733 C21.9549394,9.08145579 21.9688042,8.91161177 21.9688042,9.17850952 C21.9688042,9.43847486 21.8266898,9.55979202 21.7192375,9.75043326 C21.6672444,9.8544194 21.5597921,10.0103986 21.4696708,10.0277296 C21.3760832,10.0519931 21.7123051,9.97573656 21.0051994,10.1143847 C20.7556326,10.1490468 20.5407279,9.95840554 20.4887349,9.78509531 C20.4332756,9.6221837 20.5857886,9.43500865 20.0797227,8.99133447 C19.7227037,8.64471402 19.3483536,8.59965336 18.9740035,8.4020797 C18.6343155,8.20450605 18.5615252,8.43674175 18.3500867,8.67937607 C17.7261699,9.4731369 17.1715771,10.305026 16.5476603,11.0987868 C16.1386482,11.6187175 15.7088388,12.152513 15.3864818,12.7417678 C15.2512998,12.9774697 15.0571924,13.7157712 15.0294628,13.7781629 C14.8145581,14.3916811 14.8388215,14.6724437 14.457539,16.1455806 C14.3500867,16.4922011 14.2599653,16.8873484 14.1559792,17.2686309 C14.0797227,17.5043328 13.8994801,18.9774697 14.1386482,19.3275564 C14.2114385,19.4488735 14.440208,19.4835356 14.5303293,19.6048527 C14.5337955,19.6083189 14.8630849,20.2357019 14.8526863,20.2980936 C14.8526863,20.5095321 14.5268631,20.4922011 14.4610052,20.5233969 C14.2946274,20.6239169 14.3292894,20.727903 14.2391681,20.7798961" id="path-1"></path>
    </defs>
    <g id="sticker-mule" stroke="none" stroke-width="1" fill="none" fill-rule="evenodd">
        <mask id="mask-2" fill="white">
            <use xlink:href="#path-1"></use>
        </mask>
        <g></g>
        <g id="🎨-color" mask="url(#mask-2)" fill="#000000">
            <rect id="🎨-Color" x="0" y="0" width="24" height="24"></rect>
        </g>
    </g>
</svg>