<?xml version="1.0" encoding="UTF-8"?>
<svg width="24px" height="24px" viewBox="0 0 24 24" version="1.1" xmlns="http://www.w3.org/2000/svg" xmlns:xlink="http://www.w3.org/1999/xlink">
    <!-- Generator: Sketch 52.5 (67469) - http://www.bohemiancoding.com/sketch -->
    <title>stopwatch</title>
    <desc>Created with Sketch.</desc>
    <defs>
        <path d="M20.125,13.875 C20.125,18.3632813 16.4882813,22.0000001 12,22.0000001 C7.51171873,22.0000001 3.87499996,18.3632813 3.87499996,13.875 C3.87499996,9.81249999 6.85546872,6.44531247 10.75,5.84765622 L10.75,4.49999996 L9.65624999,4.49999996 C9.39843749,4.49999996 9.18749999,4.28906246 9.18749999,4.03124996 L9.18749999,2.46874995 C9.18749999,2.21093745 9.39843749,1.99999995 9.65624999,1.99999995 L14.34375,1.99999995 C14.6015625,1.99999995 14.8125,2.21093745 14.8125,2.46874995 L14.8125,4.03124996 C14.8125,4.28906246 14.6015625,4.49999996 14.34375,4.49999996 L13.25,4.49999996 L13.25,5.84765622 C14.7148438,6.07421872 16.0507813,6.69140622 17.1445313,7.58984373 L18.21875,6.51562497 C18.4023438,6.33203122 18.6992188,6.33203122 18.8828125,6.51562497 L19.9882813,7.62109373 C20.171875,7.80468748 20.171875,8.10156248 19.9882813,8.28515623 L18.8398438,9.43359374 L18.8164063,9.45703124 C19.6445313,10.7226562 20.125,12.2421875 20.125,13.875 Z M13.25,15.28125 L13.25,9.36328124 C13.25,9.10546874 13.0390625,8.89453123 12.78125,8.89453123 L11.21875,8.89453123 C10.9609375,8.89453123 10.75,9.10546874 10.75,9.36328124 L10.75,15.28125 C10.75,15.5390625 10.9609375,15.75 11.21875,15.75 L12.78125,15.75 C13.0390625,15.75 13.25,15.5390625 13.25,15.28125 Z" id="path-1"></path>
    </defs>
    <g id="stopwatch" stroke="none" stroke-width="1" fill="none" fill-rule="evenodd">
        <mask id="mask-2" fill="white">
            <use xlink:href="#path-1"></use>
        </mask>
        <g fill-rule="nonzero"></g>
        <g id="🎨-color" mask="url(#mask-2)" fill="#000000">
            <rect id="🎨-Color" x="0" y="0" width="24" height="24"></rect>
        </g>
    </g>
</svg>