<?xml version="1.0" encoding="UTF-8"?>
<svg width="24px" height="24px" viewBox="0 0 24 24" version="1.1" xmlns="http://www.w3.org/2000/svg" xmlns:xlink="http://www.w3.org/1999/xlink">
    <!-- Generator: Sketch 52.5 (67469) - http://www.bohemiancoding.com/sketch -->
    <title>store</title>
    <desc>Created with Sketch.</desc>
    <defs>
        <path d="M21.5454546,7.53896102 L19.4383117,4.17532464 C19.25,3.87337658 18.9155845,3.68831165 18.5584416,3.68831165 L5.44155841,3.68831165 C5.08441555,3.68831165 4.74999996,3.87337658 4.56168827,4.17532464 L2.45454541,7.53896102 C1.36688306,9.27597401 2.33116878,11.6915584 4.36363633,11.9675325 C4.50974022,11.987013 4.65909087,11.9967532 4.80844152,11.9967532 C5.76948049,11.9967532 6.62012984,11.5746753 7.20454543,10.9220779 C7.78896102,11.5746753 8.64285713,11.9967532 9.60064934,11.9967532 C10.5616883,11.9967532 11.4123377,11.5746753 11.9967532,10.9220779 C12.5811688,11.5746753 13.4350649,11.9967532 14.3928572,11.9967532 C15.3538961,11.9967532 16.2045455,11.5746753 16.7889611,10.9220779 C17.3766234,11.5746753 18.2272728,11.9967532 19.185065,11.9967532 C19.3376624,11.9967532 19.4837663,11.987013 19.6298702,11.9675325 C21.6688312,11.6948052 22.6363637,9.27922077 21.5454546,7.53896102 Z M19.1915585,13.038961 C18.8668832,13.038961 18.5454546,12.9902597 18.2337663,12.9155844 L18.2337663,16.1558442 L5.76623374,16.1558442 L5.76623374,12.9155844 C5.45454542,12.987013 5.13311685,13.038961 4.80844152,13.038961 C4.61363633,13.038961 4.41558438,13.025974 4.22402594,13 C4.04220775,12.974026 3.86363632,12.9318182 3.6915584,12.8831169 L3.6915584,19.2727273 C3.6915584,19.8474026 4.15584412,20.3116884 4.73051944,20.3116884 L19.2759741,20.3116884 C19.8506494,20.3116884 20.3149351,19.8474026 20.3149351,19.2727273 L20.3149351,12.8831169 C20.1396104,12.9350649 19.9642858,12.9772727 19.7824676,13 C19.5844156,13.025974 19.3896104,13.038961 19.1915585,13.038961 Z" id="path-1"></path>
    </defs>
    <g id="store" stroke="none" stroke-width="1" fill="none" fill-rule="evenodd">
        <mask id="mask-2" fill="white">
            <use xlink:href="#path-1"></use>
        </mask>
        <g fill-rule="nonzero"></g>
        <g id="🎨-color" mask="url(#mask-2)" fill="#000000">
            <rect id="🎨-Color" x="0" y="0" width="24" height="24"></rect>
        </g>
    </g>
</svg>