<?xml version="1.0" encoding="UTF-8"?>
<svg width="24px" height="24px" viewBox="0 0 24 24" version="1.1" xmlns="http://www.w3.org/2000/svg" xmlns:xlink="http://www.w3.org/1999/xlink">
    <!-- Generator: Sketch 52.5 (67469) - http://www.bohemiancoding.com/sketch -->
    <title>stream</title>
    <desc>Created with Sketch.</desc>
    <defs>
        <path d="M2.62499995,6.99999997 L18.875,6.99999997 C19.2203125,6.99999997 19.5,6.72031247 19.5,6.37499997 L19.5,3.87499996 C19.5,3.52968746 19.2203125,3.24999996 18.875,3.24999996 L2.62499995,3.24999996 C2.27968745,3.24999996 1.99999995,3.52968746 1.99999995,3.87499996 L1.99999995,6.37499997 C1.99999995,6.72031247 2.27968745,6.99999997 2.62499995,6.99999997 Z M21.375,10.125 L5.12499997,10.125 C4.77968746,10.125 4.49999996,10.4046875 4.49999996,10.75 L4.49999996,13.25 C4.49999996,13.5953125 4.77968746,13.875 5.12499997,13.875 L21.375,13.875 C21.7203125,13.875 22,13.5953125 22,13.25 L22,10.75 C22,10.4046875 21.7203125,10.125 21.375,10.125 Z M18.875,17 L2.62499995,17 C2.27968745,17 1.99999995,17.2796875 1.99999995,17.625 L1.99999995,20.125 C1.99999995,20.4703125 2.27968745,20.75 2.62499995,20.75 L18.875,20.75 C19.2203125,20.75 19.5,20.4703125 19.5,20.125 L19.5,17.625 C19.5,17.2796875 19.2203125,17 18.875,17 Z" id="path-1"></path>
    </defs>
    <g id="stream" stroke="none" stroke-width="1" fill="none" fill-rule="evenodd">
        <mask id="mask-2" fill="white">
            <use xlink:href="#path-1"></use>
        </mask>
        <g fill-rule="nonzero"></g>
        <g id="🎨-color" mask="url(#mask-2)" fill="#000000">
            <rect id="🎨-Color" x="0" y="0" width="24" height="24"></rect>
        </g>
    </g>
</svg>