<?xml version="1.0" encoding="UTF-8"?>
<svg width="24px" height="24px" viewBox="0 0 24 24" version="1.1" xmlns="http://www.w3.org/2000/svg" xmlns:xlink="http://www.w3.org/1999/xlink">
    <!-- Generator: Sketch 52.5 (67469) - http://www.bohemiancoding.com/sketch -->
    <title>street-view</title>
    <desc>Created with Sketch.</desc>
    <defs>
        <path d="M16.3710938,14.88125 C16.190625,15.0882813 15.9890625,15.2757813 15.75,15.4144531 L15.75,16.3105469 C18.3484375,16.6753906 20.125,17.40625 20.125,18.25 C20.125,19.4582032 16.4875,20.4375 12,20.4375 C7.51249998,20.4375 3.87499996,19.4582032 3.87499996,18.25 C3.87499996,17.40625 5.65156247,16.6757813 8.24999998,16.3105469 L8.24999998,15.4144531 C8.01093748,15.2757813 7.80937498,15.0882813 7.62890623,14.88125 C4.29960934,15.4898438 1.99999995,16.7675781 1.99999995,18.25 C1.99999995,20.3210938 6.47734372,22.0000001 12,22.0000001 C17.5226563,22.0000001 22.0000001,20.3210938 22.0000001,18.25 C22.0000001,16.7675781 19.7003907,15.4898438 16.3710938,14.88125 Z M12,6.99999997 C13.3808594,6.99999997 14.5,5.88085934 14.5,4.49999996 C14.5,3.11914058 13.3808594,1.99999995 12,1.99999995 C10.6191406,1.99999995 9.49999999,3.11914058 9.49999999,4.49999996 C9.49999999,5.88085934 10.6191406,6.99999997 12,6.99999997 Z M9.49999999,14.5 L9.49999999,18.25 C9.49999999,18.9402344 10.0597656,19.5 10.75,19.5 L13.25,19.5 C13.9402344,19.5 14.5,18.9402344 14.5,18.25 L14.5,14.5 C15.1902344,14.5 15.75,13.9402344 15.75,13.25 L15.75,9.49999999 C15.75,8.46445311 14.9105469,7.62499998 13.875,7.62499998 L13.4140625,7.62499998 C12.9816406,7.82148435 12.5054688,7.93749998 12,7.93749998 C11.4945312,7.93749998 11.0183594,7.82148435 10.5859375,7.62499998 L10.125,7.62499998 C9.08945311,7.62499998 8.24999998,8.46445311 8.24999998,9.49999999 L8.24999998,13.25 C8.24999998,13.9402344 8.80976561,14.5 9.49999999,14.5 Z" id="path-1"></path>
    </defs>
    <g id="street-view" stroke="none" stroke-width="1" fill="none" fill-rule="evenodd">
        <mask id="mask-2" fill="white">
            <use xlink:href="#path-1"></use>
        </mask>
        <g fill-rule="nonzero"></g>
        <g id="🎨-color" mask="url(#mask-2)" fill="#000000">
            <rect id="🎨-Color" x="0" y="0" width="24" height="24"></rect>
        </g>
    </g>
</svg>