<?xml version="1.0" encoding="UTF-8"?>
<svg width="24px" height="24px" viewBox="0 0 24 24" version="1.1" xmlns="http://www.w3.org/2000/svg" xmlns:xlink="http://www.w3.org/1999/xlink">
    <!-- Generator: Sketch 52.5 (67469) - http://www.bohemiancoding.com/sketch -->
    <title>stripe</title>
    <desc>Created with Sketch.</desc>
    <defs>
        <path d="M22,12.175 C22,10.753125 21.3125,9.63124999 19.99375,9.63124999 C18.675,9.63124999 17.871875,10.753125 17.871875,12.165625 C17.871875,13.8375 18.81875,14.609375 20.16875,14.609375 C20.83125,14.609375 21.328125,14.459375 21.70625,14.25 L21.70625,13.20625 C21.328125,13.396875 20.89375,13.5125 20.34375,13.5125 C19.803125,13.5125 19.328125,13.321875 19.265625,12.671875 L21.98125,12.671875 C21.9875,12.6 22,12.309375 22,12.175 Z M19.253125,11.65 C19.253125,11.025 19.6375,10.7625 19.984375,10.7625 C20.325,10.7625 20.6875,11.025 20.6875,11.65 L19.253125,11.65 Z M15.725,9.63124999 C15.18125,9.63124999 14.83125,9.88749999 14.6375,10.065625 L14.565625,9.72187499 L13.34375,9.72187499 L13.34375,16.121875 L14.73125,15.828125 L14.734375,14.259375 C14.934375,14.40625 15.23125,14.609375 15.715625,14.609375 C16.709375,14.609375 17.615625,13.884375 17.615625,12.121875 C17.61875,10.509375 16.7,9.63124999 15.725,9.63124999 Z M15.39375,13.459375 C15.06875,13.459375 14.875,13.340625 14.740625,13.196875 L14.73125,11.134375 C14.875,10.975 15.075,10.859375 15.39375,10.859375 C15.9,10.859375 16.25,11.428125 16.25,12.153125 C16.253125,12.9 15.909375,13.459375 15.39375,13.459375 Z M12.825,7.87499998 L12.825,9.00624999 L11.43125,9.30312499 L11.43125,8.17187498 L12.825,7.87499998 Z M11.434375,9.72499999 L12.828125,9.72499999 L12.828125,14.5125 L11.434375,14.5125 L11.434375,9.72499999 Z M9.94062499,10.134375 C10.265625,9.53749999 10.9125,9.65937499 11.1,9.72499999 L11.1,11 C10.921875,10.94375 10.36875,10.859375 10.040625,11.290625 L10.040625,14.5125 L8.65624998,14.5125 L8.65624998,9.72499999 L9.85624999,9.72499999 L9.94062499,10.134375 Z M7.15937498,9.72499999 L8.21249998,9.72499999 L8.21249998,10.90625 L7.15937498,10.90625 L7.15937498,12.88125 C7.15937498,13.7 8.03437498,13.44375 8.21249998,13.371875 L8.21249998,14.428125 C8.02812498,14.528125 7.69374998,14.6125 7.23749998,14.6125 C6.41562497,14.6125 5.79687497,14.08125 5.79687497,13.259375 L5.80312497,8.80937498 L7.15624998,8.52187498 L7.15937498,9.72499999 Z M3.40312496,11.134375 C3.40312496,11.759375 5.52499997,11.4625 5.52499997,13.115625 C5.52499997,14.115625 4.73124996,14.609375 3.57812496,14.609375 C3.09999996,14.609375 2.57812495,14.515625 2.06249995,14.29375 L2.06249995,13.04375 C2.52812495,13.296875 3.12187496,13.4875 3.58124996,13.4875 C3.89062496,13.4875 4.11249996,13.403125 4.11249996,13.146875 C4.11249996,12.484375 2.00312495,12.734375 2.00312495,11.196875 C2.00312495,10.215625 2.75312495,9.62812499 3.87812496,9.62812499 C4.33749996,9.62812499 4.79687496,9.69999999 5.25624997,9.88124999 L5.25624997,11.1875 C4.83437496,10.959375 4.29687496,10.83125 3.87499996,10.83125 C3.58437496,10.834375 3.40312496,10.91875 3.40312496,11.134375 Z" id="path-1"></path>
    </defs>
    <g id="stripe" stroke="none" stroke-width="1" fill="none" fill-rule="evenodd">
        <mask id="mask-2" fill="white">
            <use xlink:href="#path-1"></use>
        </mask>
        <g fill-rule="nonzero"></g>
        <g id="🎨-color" mask="url(#mask-2)" fill="#000000">
            <rect id="🎨-Color" x="0" y="0" width="24" height="24"></rect>
        </g>
    </g>
</svg>