<?xml version="1.0" encoding="UTF-8"?>
<svg width="24px" height="24px" viewBox="0 0 24 24" version="1.1" xmlns="http://www.w3.org/2000/svg" xmlns:xlink="http://www.w3.org/1999/xlink">
    <!-- Generator: Sketch 52.5 (67469) - http://www.bohemiancoding.com/sketch -->
    <title>stripe-s</title>
    <desc>Created with Sketch.</desc>
    <defs>
        <path d="M10.5497076,8.02729043 C10.5497076,7.15789471 11.2748538,6.82261206 12.4366472,6.82261206 C14.128655,6.82261206 16.2768031,7.34113058 17.9688109,8.25341129 L17.9688109,3.01754381 C16.1247564,2.28070171 14.2846004,1.99999995 12.4405458,1.99999995 C7.92982454,1.99999995 4.92397657,4.35477579 4.92397657,8.29239764 C4.92397657,14.4483431 13.3762183,13.4502924 13.3762183,16.1052632 C13.3762183,17.1345029 12.4834308,17.465887 11.2436647,17.465887 C9.40350876,17.465887 7.02534111,16.705653 5.1578947,15.6920078 L5.1578947,20.7017544 C7.22417152,21.5906433 9.32163741,21.9649123 11.2397661,21.9649123 C15.8635478,21.9649123 19.048733,19.9766082 19.048733,15.9766082 C19.048733,9.34113059 10.5497076,10.5302144 10.5497076,8.02729043" id="path-1"></path>
    </defs>
    <g id="stripe-s" stroke="none" stroke-width="1" fill="none" fill-rule="evenodd">
        <mask id="mask-2" fill="white">
            <use xlink:href="#path-1"></use>
        </mask>
        <g></g>
        <g id="🎨-color" mask="url(#mask-2)" fill="#000000">
            <rect id="🎨-Color" x="0" y="0" width="24" height="24"></rect>
        </g>
    </g>
</svg>