<?xml version="1.0" encoding="UTF-8"?>
<svg width="24px" height="24px" viewBox="0 0 24 24" version="1.1" xmlns="http://www.w3.org/2000/svg" xmlns:xlink="http://www.w3.org/1999/xlink">
    <!-- Generator: Sketch 52.5 (67469) - http://www.bohemiancoding.com/sketch -->
    <title>strikethrough</title>
    <desc>Created with Sketch.</desc>
    <defs>
        <path d="M21.375,13.25 L2.62499995,13.25 C2.27980464,13.25 1.99999995,12.9701953 1.99999995,12.625 L1.99999995,11.375 C1.99999995,11.0298047 2.27980464,10.75 2.62499995,10.75 L21.375,10.75 C21.7201954,10.75 22.0000001,11.0298047 22.0000001,11.375 L22.0000001,12.625 C22.0000001,12.9701953 21.7201954,13.25 21.375,13.25 Z M12.9896094,13.875 C14.054375,14.3803516 14.8069531,14.9954297 14.8069531,16.0719922 C14.8069531,17.3652735 13.6750391,18.168711 11.8530078,18.168711 C10.5903125,18.168711 8.85011717,17.696836 8.85011717,16.439375 L8.85011717,16.375 C8.85011717,16.0298047 8.57027342,15.75 8.22511717,15.75 L6.44335935,15.75 C6.0982031,15.75 5.81835934,16.0298047 5.81835934,16.375 L5.81835934,17.1251563 C5.81835934,19.7362891 8.85417967,21.1025 11.8530078,21.1025 C15.313086,21.1025 18.1816407,19.3275782 18.1816407,15.8515625 C18.1816407,15.0775391 18.0403125,14.4290234 17.7854297,13.875 L12.9896094,13.875 Z M11.7805469,10.125 C10.5140625,9.59746093 9.56039061,8.99429686 9.56039061,7.79363279 C9.56039061,6.46863278 10.7674609,5.94183591 12.0979688,5.94183591 C13.7638672,5.94183591 14.6355469,6.58999997 14.6355469,7.23031248 L14.6355469,7.31249998 C14.6355469,7.65769529 14.9153906,7.93749998 15.2605469,7.93749998 L17.0423047,7.93749998 C17.387461,7.93749998 17.6673047,7.65769529 17.6673047,7.31249998 L17.6673047,6.1282031 C17.6673047,4.07984371 14.8655469,3.00808589 12.0979688,3.00808589 C8.76972655,3.00808589 6.21023435,4.60855465 6.21023435,7.91613279 C6.21023435,8.80324217 6.39246091,9.5245703 6.70933591,10.125 L11.7805469,10.125 Z" id="path-1"></path>
    </defs>
    <g id="strikethrough" stroke="none" stroke-width="1" fill="none" fill-rule="evenodd">
        <mask id="mask-2" fill="white">
            <use xlink:href="#path-1"></use>
        </mask>
        <g fill-rule="nonzero"></g>
        <g id="🎨-color" mask="url(#mask-2)" fill="#000000">
            <rect id="🎨-Color" x="0" y="0" width="24" height="24"></rect>
        </g>
    </g>
</svg>