<?xml version="1.0" encoding="UTF-8"?>
<svg width="24px" height="24px" viewBox="0 0 24 24" version="1.1" xmlns="http://www.w3.org/2000/svg" xmlns:xlink="http://www.w3.org/1999/xlink">
    <!-- Generator: Sketch 52.5 (67469) - http://www.bohemiancoding.com/sketch -->
    <title>stroopwafel</title>
    <desc>Created with Sketch.</desc>
    <defs>
        <path d="M9.34843749,10.2320312 L7.58046873,12 L9.34804686,13.7675781 L11.1160156,12 L9.34843749,10.2320312 Z M13.7675781,9.34843749 L12,7.58046873 L10.2324219,9.34804686 L12,11.1160156 L13.7675781,9.34843749 Z M10.2324219,14.6515625 L12,16.4195313 L13.7679688,14.6515625 L12,12.8839844 L10.2324219,14.6515625 Z M12,1.99999995 C6.47734372,1.99999995 1.99999995,6.47734372 1.99999995,12 C1.99999995,17.5226563 6.47734372,22.0000001 12,22.0000001 C17.5226563,22.0000001 22.0000001,17.5226563 22.0000001,12 C22.0000001,6.47734372 17.5226563,1.99999995 12,1.99999995 Z M19.2921875,13.546875 L18.8503907,13.9886719 C18.7285157,14.1105469 18.5304688,14.1105469 18.4085938,13.9886719 L17.3035157,12.8835938 L15.5359375,14.6511719 L16.8617188,15.9769531 L17.5246094,15.3140625 C17.6464844,15.1921875 17.8445313,15.1921875 17.9664063,15.3140625 L18.4082032,15.7558594 C18.5300782,15.8777344 18.5300782,16.0757813 18.4082032,16.1976563 L17.7453125,16.8605469 L18.4082032,17.5234375 C18.5300782,17.6453125 18.5300782,17.8433594 18.4082032,17.9652344 L17.9664063,18.4070313 C17.8445313,18.5289063 17.6464844,18.5289063 17.5246094,18.4070313 L16.8617188,17.7441407 L16.1988281,18.4070313 C16.0769531,18.5289063 15.8789063,18.5289063 15.7570313,18.4070313 L15.3152344,17.9652344 C15.1933594,17.8433594 15.1933594,17.6453125 15.3152344,17.5234375 L15.978125,16.8605469 L14.6523438,15.5347656 L12.884375,17.3027344 L13.9894531,18.4078125 C14.1113281,18.5296875 14.1113281,18.7277344 13.9894531,18.8496094 L13.5476563,19.2914063 C13.4257813,19.4132813 13.2277344,19.4132813 13.1058594,19.2914063 L12,18.1871094 L10.8949219,19.2921875 C10.7730469,19.4140625 10.575,19.4140625 10.453125,19.2921875 L10.0113281,18.8503907 C9.88945311,18.7285157 9.88945311,18.5304688 10.0113281,18.4085938 L11.1164062,17.3035157 L9.34882811,15.5355469 L8.02304686,16.8613281 L8.68593748,17.5242188 C8.80781248,17.6460938 8.80781248,17.8441407 8.68593748,17.9660157 L8.24414061,18.4078125 C8.12226561,18.5296875 7.92421873,18.5296875 7.80234373,18.4078125 L7.1394531,17.7449219 L6.47656247,18.4078125 C6.35468747,18.5296875 6.1566406,18.5296875 6.0347656,18.4078125 L5.59296872,17.9660157 C5.47109372,17.8441407 5.47109372,17.6460938 5.59296872,17.5242188 L6.25585935,16.8613281 L5.59296872,16.1984375 C5.47109372,16.0765625 5.47109372,15.8785156 5.59296872,15.7566406 L6.0347656,15.3148438 C6.1566406,15.1929688 6.35468747,15.1929688 6.47656247,15.3148438 L7.1394531,15.9777344 L8.46523436,14.6519531 L6.69765622,12.884375 L5.59257809,13.9894531 C5.47070309,14.1113281 5.27265622,14.1113281 5.15078122,13.9894531 L4.70781246,13.546875 C4.58593746,13.425 4.58593746,13.2269531 4.70781246,13.1050781 L5.81289059,12 L4.70781246,10.8949219 C4.58593746,10.7730469 4.58593746,10.575 4.70781246,10.453125 L5.14960934,10.0113281 C5.27148434,9.88945311 5.46953122,9.88945311 5.59140622,10.0113281 L6.69648435,11.1164062 L8.46406248,9.34843749 L7.13828123,8.02265623 L6.4753906,8.68554686 C6.3535156,8.80742186 6.15546872,8.80742186 6.03359372,8.68554686 L5.59179684,8.24374998 C5.46992184,8.12187498 5.46992184,7.9238281 5.59179684,7.8019531 L6.25468747,7.13906248 L5.59179684,6.47617185 C5.46992184,6.35429685 5.46992184,6.15624997 5.59179684,6.03437497 L6.03359372,5.59257809 C6.15546872,5.47070309 6.3535156,5.47070309 6.4753906,5.59257809 L7.13828123,6.25546872 L7.80117185,5.59257809 C7.92304685,5.47070309 8.12109373,5.47070309 8.24296873,5.59257809 L8.68476561,6.03437497 C8.80664061,6.15624997 8.80664061,6.35429685 8.68476561,6.47617185 L8.02187498,7.13906248 L9.34765624,8.46484373 L11.115625,6.6972656 L10.0105469,5.59218747 C9.88867186,5.47031247 9.88867186,5.27226559 10.0105469,5.15039059 L10.4523437,4.70859371 C10.5742187,4.58671871 10.7722656,4.58671871 10.8941406,4.70859371 L12,5.81289059 L13.1050781,4.70781246 C13.2269531,4.58593746 13.425,4.58593746 13.546875,4.70781246 L13.9886719,5.14960934 C14.1105469,5.27148434 14.1105469,5.46953122 13.9886719,5.59140622 L12.8835938,6.69648435 L14.6515625,8.46406248 L15.9773438,7.13828123 L15.3144531,6.4753906 C15.1925781,6.3535156 15.1925781,6.15546872 15.3144531,6.03359372 L15.75625,5.59179684 C15.878125,5.46992184 16.0761719,5.46992184 16.1980469,5.59179684 L16.8609375,6.25468747 L17.5238282,5.59179684 C17.6457032,5.46992184 17.84375,5.46992184 17.965625,5.59179684 L18.4074219,6.03359372 C18.5292969,6.15546872 18.5292969,6.3535156 18.4074219,6.4753906 L17.7445313,7.13828123 L18.4074219,7.80117185 C18.5292969,7.92304685 18.5292969,8.12109373 18.4074219,8.24296873 L17.965625,8.68476561 C17.84375,8.80664061 17.6457032,8.80664061 17.5238282,8.68476561 L16.8609375,8.02187498 L15.5351563,9.34765624 L17.3027344,11.115625 L18.4078125,10.0105469 C18.5296875,9.88867186 18.7277344,9.88867186 18.8496094,10.0105469 L19.2914063,10.4523437 C19.4132813,10.5742187 19.4132813,10.7722656 19.2914063,10.8941406 L18.1871094,12 L19.2921875,13.1046875 C19.4140671,13.2268882 19.4140671,13.4246743 19.2921875,13.546875 Z M12.8839844,12 L14.6519531,13.7675781 L16.4195313,12 L14.6519531,10.2320312 L12.8839844,12 Z" id="path-1"></path>
    </defs>
    <g id="stroopwafel" stroke="none" stroke-width="1" fill="none" fill-rule="evenodd">
        <mask id="mask-2" fill="white">
            <use xlink:href="#path-1"></use>
        </mask>
        <g fill-rule="nonzero"></g>
        <g id="🎨-color" mask="url(#mask-2)" fill="#000000">
            <rect id="🎨-Color" x="0" y="0" width="24" height="24"></rect>
        </g>
    </g>
</svg>