<?xml version="1.0" encoding="UTF-8"?>
<svg width="24px" height="24px" viewBox="0 0 24 24" version="1.1" xmlns="http://www.w3.org/2000/svg" xmlns:xlink="http://www.w3.org/1999/xlink">
    <!-- Generator: Sketch 52.5 (67469) - http://www.bohemiancoding.com/sketch -->
    <title>studiovinari</title>
    <desc>Created with Sketch.</desc>
    <defs>
        <path d="M20.7617188,9.33203124 L20.9257813,10.4257812 L20.9257813,11.5195312 L19.9453125,13.2421875 L18.390625,16.3046875 L16.1992188,18.9414063 L13.109375,20.4179688 L12.4179688,21.375 L12.1171875,21.84375 L11.7421875,22.0000001 C11.7421875,22.0000001 12.4179688,19.515625 12.5,19.515625 C12.5820313,19.515625 13.2929688,19.5429688 13.2929688,19.5429688 L15.8984375,18.0351563 L12.2851563,19.0546875 L10.1015625,20.4921875 L9.21093749,21.5859375 L8.95312498,21.640625 L9.76562499,18.765625 L10.0351562,18.5507813 L10.84375,19.0546875 L14.2929688,17.2890625 L16.5117188,15.2773438 L17.0898438,12.6054688 L12.1914063,13.515625 L12.7851563,12.8046875 L6.01171872,10.7226562 L9.21093749,10.3125 L2.72656245,5.51171872 L7.21484373,6.21874997 L3.25781246,1.99999995 L13.1367188,6.94531247 L11.90625,5.46093747 L16.765625,8.36718748 L11.1679687,4.49999996 L11.8984375,5.99999997 L9.96093749,5.29296872 L8.18359373,1.99999995 L15.7851563,6.76562497 L14.109375,4.58593746 L18.328125,8.35156248 L18.796875,8.00390623 L17.9765625,7.36328123 L18.140625,5.88671872 L19.6171875,5.48046872 L20.7578125,6.44531247 L21.2070313,6.60937497 L20.9335938,6.85156247 L21.265625,7.32031248 L20.7539063,7.60937498 L20.3515625,8.39843748 L20.7617188,9.33203124 Z" id="path-1"></path>
    </defs>
    <g id="studiovinari" stroke="none" stroke-width="1" fill="none" fill-rule="evenodd">
        <mask id="mask-2" fill="white">
            <use xlink:href="#path-1"></use>
        </mask>
        <g></g>
        <g id="🎨-color" mask="url(#mask-2)" fill="#000000">
            <rect id="🎨-Color" x="0" y="0" width="24" height="24"></rect>
        </g>
    </g>
</svg>