<?xml version="1.0" encoding="UTF-8"?>
<svg width="24px" height="24px" viewBox="0 0 24 24" version="1.1" xmlns="http://www.w3.org/2000/svg" xmlns:xlink="http://www.w3.org/1999/xlink">
    <!-- Generator: Sketch 52.5 (67469) - http://www.bohemiancoding.com/sketch -->
    <title>stumbleupon</title>
    <desc>Created with Sketch.</desc>
    <defs>
        <path d="M21.6445313,12.390625 L21.6445313,15.1132813 C21.6445313,17.5390625 19.6796875,19.5039063 17.2539063,19.5039063 C14.8398438,19.5039063 12.8632813,17.5585938 12.8632813,15.15625 L12.8632813,12.4140625 L14.203125,13.0390625 L16.1992188,12.4453125 L16.1992188,15.203125 C16.1992188,15.7773438 16.6679688,16.2382813 17.2421875,16.2382813 C17.8164063,16.2382813 18.2890625,15.7773438 18.2890625,15.203125 L18.2890625,12.390625 L21.6445313,12.390625 Z M12.8671875,10.1171875 L14.2070313,10.7421875 L16.203125,10.1484375 L16.203125,8.75781248 C16.203125,6.39453122 14.2070313,4.49999996 11.8242187,4.49999996 C9.44921874,4.49999996 7.44531248,6.38281247 7.44531248,8.72656248 L7.44531248,15.0703125 C7.44531248,15.6523438 6.97656247,16.1132813 6.40234372,16.1132813 C5.82812497,16.1132813 5.35937497,15.6523438 5.35937497,15.0703125 L5.35937497,12.390625 L1.99999995,12.390625 L1.99999995,15.1132813 C1.99999995,17.5351563 3.96484371,19.5 6.39062497,19.5 C8.79687498,19.5 10.78125,17.5664063 10.78125,15.171875 L10.78125,8.91015623 C10.78125,8.33593748 11.25,7.86718748 11.8242187,7.86718748 C12.3984375,7.86718748 12.8671875,8.33593748 12.8671875,8.91015623 L12.8671875,10.1171875 Z" id="path-1"></path>
    </defs>
    <g id="stumbleupon" stroke="none" stroke-width="1" fill="none" fill-rule="evenodd">
        <mask id="mask-2" fill="white">
            <use xlink:href="#path-1"></use>
        </mask>
        <g fill-rule="nonzero"></g>
        <g id="🎨-color" mask="url(#mask-2)" fill="#000000">
            <rect id="🎨-Color" x="0" y="0" width="24" height="24"></rect>
        </g>
    </g>
</svg>