<?xml version="1.0" encoding="UTF-8"?>
<svg width="24px" height="24px" viewBox="0 0 24 24" version="1.1" xmlns="http://www.w3.org/2000/svg" xmlns:xlink="http://www.w3.org/1999/xlink">
    <!-- Generator: Sketch 52.5 (67469) - http://www.bohemiancoding.com/sketch -->
    <title>stumbleupon-circle</title>
    <desc>Created with Sketch.</desc>
    <defs>
        <path d="M12.15625,2.31249995 C6.80468747,2.31249995 2.46874995,6.64843747 2.46874995,12 C2.46874995,17.3515625 6.80468747,21.6875 12.15625,21.6875 C17.5078125,21.6875 21.84375,17.3515625 21.84375,12 C21.84375,6.64843747 17.5078125,2.31249995 12.15625,2.31249995 Z M12.15625,9.24609374 C11.7734375,9.24609374 11.4609375,9.55859374 11.4609375,9.94140624 L11.4609375,14.1171875 C11.4609375,15.7148438 10.1367187,17.0039063 8.53515623,17.0039063 C6.91796872,17.0039063 5.60937497,15.6953125 5.60937497,14.078125 L5.60937497,12.2617188 L7.84765623,12.2617188 L7.84765623,14.0507813 C7.84765623,14.4414063 8.16015623,14.7460938 8.54296873,14.7460938 C8.92578123,14.7460938 9.23828124,14.4375 9.23828124,14.0507813 L9.23828124,9.81640624 C9.23828124,8.25390623 10.5742187,6.99999997 12.15625,6.99999997 C13.7460938,6.99999997 15.0742188,8.26171873 15.0742188,9.83593749 L15.0742188,10.7617187 L13.7421875,11.15625 L12.8476563,10.7382812 L12.8476563,9.93359374 C12.8515625,9.55859374 12.5390625,9.24609374 12.15625,9.24609374 Z M18.703125,14.0742188 C18.703125,15.6914063 17.3945313,17 15.7773438,17 C14.1679688,17 12.8515625,15.703125 12.8515625,14.1015625 L12.8515625,12.2734375 L13.7460938,12.6914063 L15.078125,12.296875 L15.078125,14.1367188 C15.078125,14.5195313 15.390625,14.8242188 15.7734375,14.8242188 C16.15625,14.8242188 16.46875,14.515625 16.46875,14.1367188 L16.46875,12.2617188 L18.7070313,12.2617188 C18.703125,14.0546875 18.703125,14.0742188 18.703125,14.0742188 Z" id="path-1"></path>
    </defs>
    <g id="stumbleupon-circle" stroke="none" stroke-width="1" fill="none" fill-rule="evenodd">
        <mask id="mask-2" fill="white">
            <use xlink:href="#path-1"></use>
        </mask>
        <g fill-rule="nonzero"></g>
        <g id="🎨-color" mask="url(#mask-2)" fill="#000000">
            <rect id="🎨-Color" x="0" y="0" width="24" height="24"></rect>
        </g>
    </g>
</svg>