<?xml version="1.0" encoding="UTF-8"?>
<svg width="24px" height="24px" viewBox="0 0 24 24" version="1.1" xmlns="http://www.w3.org/2000/svg" xmlns:xlink="http://www.w3.org/1999/xlink">
    <!-- Generator: Sketch 52.5 (67469) - http://www.bohemiancoding.com/sketch -->
    <title>subscript</title>
    <desc>Created with Sketch.</desc>
    <defs>
        <path d="M17.4374219,18.25 C17.5726172,17.8388282 18.1716407,17.41875 18.8540235,16.9833985 C19.5034375,16.5691406 20.2394532,16.0995703 20.8204688,15.4653516 C21.5024219,14.7210547 21.8339063,13.8960156 21.8339063,12.9432031 C21.8339063,10.5775 19.8533594,9.49999999 18.0132032,9.49999999 C16.3533985,9.49999999 15.0296875,10.36 14.3244531,11.4705859 C14.1426563,11.756875 14.2232031,12.1360547 14.5050391,12.3246875 L15.6897266,13.1175 C15.9644141,13.3013281 16.3326953,13.2379688 16.5346485,12.9763281 C16.8480078,12.5703125 17.2697266,12.2644141 17.7716407,12.2644141 C18.5289453,12.2644141 18.7976563,12.7683594 18.7976563,13.1998828 C18.7976563,14.6123438 14.1321484,15.4273438 14.1321484,19.4508203 C14.1321484,19.7107422 14.1540625,19.9591797 14.1874219,20.2059375 C14.2294531,20.5170313 14.4934375,20.75 14.8073438,20.75 L21.375,20.75 C21.7201954,20.75 22.0000001,20.4701954 22.0000001,20.125 L22.0000001,18.875 C22.0000001,18.5298047 21.7201954,18.25 21.375,18.25 L17.4374219,18.25 Z M12.625,12 C12.9701953,12 13.25,12.2798047 13.25,12.625 L13.25,13.875 C13.25,14.2201953 12.9701953,14.5 12.625,14.5 L10.1875391,14.5 C9.97274275,14.4999917 9.77299962,14.3896838 9.65859374,14.2078906 L7.87339842,11.3713672 C7.78367185,11.2404297 7.70066404,11.0991406 7.63140623,10.9725781 C7.5669531,11.0992969 7.48894529,11.2435547 7.4019531,11.3859375 L5.65539059,14.2041797 C5.54143885,14.3880787 5.34048257,14.4999641 5.12414059,14.4999609 L2.62499995,14.4999609 C2.27980464,14.4999609 1.99999995,14.2201563 1.99999995,13.8749609 L1.99999995,12.6249609 C1.99999995,12.2797656 2.27980464,11.9999609 2.62499995,11.9999609 L3.65332027,11.9999609 L5.86238278,8.76914061 L3.8012109,5.74999997 L2.62499995,5.74999997 C2.27980464,5.74999997 1.99999995,5.47019528 1.99999995,5.12499997 L1.99999995,3.87499996 C1.99999995,3.52980465 2.27980464,3.24999996 2.62499995,3.24999996 L5.31273434,3.24999996 C5.53025907,3.24999559 5.73213987,3.36309026 5.84574216,3.54859371 L7.40363279,6.0925781 C7.48457029,6.23019528 7.5619531,6.37269528 7.62734373,6.49765622 C7.69675779,6.37093747 7.78046873,6.2260156 7.87097654,6.08605466 L9.4464453,3.54562496 C9.56041285,3.36182119 9.76130878,3.25000385 9.97757811,3.24999996 L12.625,3.24999996 C12.9701953,3.24999996 13.25,3.52980465 13.25,3.87499996 L13.25,5.12499997 C13.25,5.47019528 12.9701953,5.74999997 12.625,5.74999997 L11.5320703,5.74999997 L9.47386717,8.70589842 L11.7646094,12 L12.625,12 Z" id="path-1"></path>
    </defs>
    <g id="subscript" stroke="none" stroke-width="1" fill="none" fill-rule="evenodd">
        <mask id="mask-2" fill="white">
            <use xlink:href="#path-1"></use>
        </mask>
        <g fill-rule="nonzero"></g>
        <g id="🎨-color" mask="url(#mask-2)" fill="#000000">
            <rect id="🎨-Color" x="0" y="0" width="24" height="24"></rect>
        </g>
    </g>
</svg>