<?xml version="1.0" encoding="UTF-8"?>
<svg width="24px" height="24px" viewBox="0 0 24 24" version="1.1" xmlns="http://www.w3.org/2000/svg" xmlns:xlink="http://www.w3.org/1999/xlink">
    <!-- Generator: Sketch 52.5 (67469) - http://www.bohemiancoding.com/sketch -->
    <title>subway</title>
    <desc>Created with Sketch.</desc>
    <defs>
        <path d="M20.75,5.74999997 L20.75,15.75 C20.75,17.7740235 18.3428125,19.5 15.6710156,19.5 L18.1311719,21.4422266 C18.3634766,21.6256641 18.2328907,22.0000001 17.9375,22.0000001 L6.06249997,22.0000001 C5.76648434,22.0000001 5.63703122,21.6252344 5.86886716,21.4422266 L8.32898436,19.5 C5.66484372,19.5 3.24999996,17.7794532 3.24999996,15.75 L3.24999996,5.74999997 C3.24999996,3.67894527 5.74999997,1.99999995 8.24999998,1.99999995 L15.75,1.99999995 C18.2890625,1.99999995 20.75,3.67894527 20.75,5.74999997 Z M11.0625,11.0625 L11.0625,6.68749997 C11.0625,6.16972653 10.6427734,5.74999997 10.125,5.74999997 L6.06249997,5.74999997 C5.54472653,5.74999997 5.12499997,6.16972653 5.12499997,6.68749997 L5.12499997,11.0625 C5.12499997,11.5802734 5.54472653,12 6.06249997,12 L10.125,12 C10.6427734,12 11.0625,11.5802734 11.0625,11.0625 Z M18.875,11.0625 L18.875,6.68749997 C18.875,6.16972653 18.4552735,5.74999997 17.9375,5.74999997 L13.875,5.74999997 C13.3572266,5.74999997 12.9375,6.16972653 12.9375,6.68749997 L12.9375,11.0625 C12.9375,11.5802734 13.3572266,12 13.875,12 L17.9375,12 C18.4552735,12 18.875,11.5802734 18.875,11.0625 Z M17,13.25 C15.9644531,13.25 15.125,14.0894531 15.125,15.125 C15.125,16.1605469 15.9644531,17 17,17 C18.0355469,17 18.875,16.1605469 18.875,15.125 C18.875,14.0894531 18.0355469,13.25 17,13.25 Z M6.99999997,13.25 C5.96445309,13.25 5.12499997,14.0894531 5.12499997,15.125 C5.12499997,16.1605469 5.96445309,17 6.99999997,17 C8.03554686,17 8.87499998,16.1605469 8.87499998,15.125 C8.87499998,14.0894531 8.03554686,13.25 6.99999997,13.25 Z" id="path-1"></path>
    </defs>
    <g id="subway" stroke="none" stroke-width="1" fill="none" fill-rule="evenodd">
        <mask id="mask-2" fill="white">
            <use xlink:href="#path-1"></use>
        </mask>
        <g fill-rule="nonzero"></g>
        <g id="🎨-color" mask="url(#mask-2)" fill="#000000">
            <rect id="🎨-Color" x="0" y="0" width="24" height="24"></rect>
        </g>
    </g>
</svg>