<?xml version="1.0" encoding="UTF-8"?>
<svg width="24px" height="24px" viewBox="0 0 24 24" version="1.1" xmlns="http://www.w3.org/2000/svg" xmlns:xlink="http://www.w3.org/1999/xlink">
    <!-- Generator: Sketch 52.5 (67469) - http://www.bohemiancoding.com/sketch -->
    <title>suitcase</title>
    <desc>Created with Sketch.</desc>
    <defs>
        <path d="M6.99999997,20.75 L17,20.75 L17,5.12499997 C17,4.08984371 16.1601563,3.24999996 15.125,3.24999996 L8.87499998,3.24999996 C7.83984373,3.24999996 6.99999997,4.08984371 6.99999997,5.12499997 L6.99999997,20.75 Z M9.49999999,5.74999997 L14.5,5.74999997 L14.5,6.99999997 L9.49999999,6.99999997 L9.49999999,5.74999997 Z M22.0000001,8.87499998 L22.0000001,18.875 C22.0000001,19.9101563 21.1601563,20.75 20.125,20.75 L18.25,20.75 L18.25,6.99999997 L20.125,6.99999997 C21.1601563,6.99999997 22.0000001,7.83984373 22.0000001,8.87499998 Z M5.74999997,20.75 L3.87499996,20.75 C2.8398437,20.75 1.99999995,19.9101563 1.99999995,18.875 L1.99999995,8.87499998 C1.99999995,7.83984373 2.8398437,6.99999997 3.87499996,6.99999997 L5.74999997,6.99999997 L5.74999997,20.75 Z" id="path-1"></path>
    </defs>
    <g id="suitcase" stroke="none" stroke-width="1" fill="none" fill-rule="evenodd">
        <mask id="mask-2" fill="white">
            <use xlink:href="#path-1"></use>
        </mask>
        <g fill-rule="nonzero"></g>
        <g id="🎨-color" mask="url(#mask-2)" fill="#000000">
            <rect id="🎨-Color" x="0" y="0" width="24" height="24"></rect>
        </g>
    </g>
</svg>