<?xml version="1.0" encoding="UTF-8"?>
<svg width="24px" height="24px" viewBox="0 0 24 24" version="1.1" xmlns="http://www.w3.org/2000/svg" xmlns:xlink="http://www.w3.org/1999/xlink">
    <!-- Generator: Sketch 52.5 (67469) - http://www.bohemiancoding.com/sketch -->
    <title>suitcase-rolling</title>
    <desc>Created with Sketch.</desc>
    <defs>
        <path d="M17.625,8.24999998 L6.37499997,8.24999998 C5.33945309,8.24999998 4.49999996,9.08945311 4.49999996,10.125 L4.49999996,18.875 C4.49999996,19.9105469 5.33945309,20.75 6.37499997,20.75 L6.99999997,20.75 L6.99999997,21.375 C6.99999997,21.7203125 7.27968748,22 7.62499998,22 L8.87499998,22 C9.22031249,22 9.49999999,21.7203125 9.49999999,21.375 L9.49999999,20.75 L14.5,20.75 L14.5,21.375 C14.5,21.7203125 14.7796875,22 15.125,22 L16.375,22 C16.7203125,22 17,21.7203125 17,21.375 L17,20.75 L17.625,20.75 C18.6605469,20.75 19.5,19.9105469 19.5,18.875 L19.5,10.125 C19.5,9.08945311 18.6605469,8.24999998 17.625,8.24999998 Z M17,16.6875 C17,16.8601563 16.8601563,17 16.6875,17 L7.31249998,17 C7.13984373,17 6.99999997,16.8601563 6.99999997,16.6875 L6.99999997,16.0625 C6.99999997,15.8898438 7.13984373,15.75 7.31249998,15.75 L16.6875,15.75 C16.8601563,15.75 17,15.8898438 17,16.0625 L17,16.6875 Z M17,12.9375 C17,13.1101563 16.8601563,13.25 16.6875,13.25 L7.31249998,13.25 C7.13984373,13.25 6.99999997,13.1101563 6.99999997,12.9375 L6.99999997,12.3125 C6.99999997,12.1398438 7.13984373,12 7.31249998,12 L16.6875,12 C16.8601563,12 17,12.1398438 17,12.3125 L17,12.9375 Z M10.125,3.87499996 L13.875,3.87499996 L13.875,6.99999997 L15.75,6.99999997 L15.75,3.87499996 C15.75,2.83945308 14.9105469,1.99999995 13.875,1.99999995 L10.125,1.99999995 C9.08945311,1.99999995 8.24999998,2.83945308 8.24999998,3.87499996 L8.24999998,6.99999997 L10.125,6.99999997 L10.125,3.87499996 Z" id="path-1"></path>
    </defs>
    <g id="suitcase-rolling" stroke="none" stroke-width="1" fill="none" fill-rule="evenodd">
        <mask id="mask-2" fill="white">
            <use xlink:href="#path-1"></use>
        </mask>
        <g fill-rule="nonzero"></g>
        <g id="🎨-color" mask="url(#mask-2)" fill="#000000">
            <rect id="🎨-Color" x="0" y="0" width="24" height="24"></rect>
        </g>
    </g>
</svg>