<?xml version="1.0" encoding="UTF-8"?>
<svg width="24px" height="24px" viewBox="0 0 24 24" version="1.1" xmlns="http://www.w3.org/2000/svg" xmlns:xlink="http://www.w3.org/1999/xlink">
    <!-- Generator: Sketch 52.5 (67469) - http://www.bohemiancoding.com/sketch -->
    <title>sun</title>
    <desc>Created with Sketch.</desc>
    <defs>
        <path d="M21.2670566,10.6900585 L18.9356725,9.1111111 L19.4697856,6.34307989 C19.5711501,5.82846001 19.4074074,5.29824558 19.0370371,4.92397657 C18.6627681,4.5536062 18.1325536,4.38986351 17.625731,4.49122803 L14.8615985,5.0253411 L13.2865497,2.69005843 C12.6978558,1.82066272 11.2631579,1.82066272 10.6744639,2.69005843 L9.09941519,5.0253411 L6.33918126,4.49122803 C5.82066274,4.39376215 5.29434695,4.5536062 4.92397657,4.92787521 C4.5536062,5.30214422 4.38986351,5.82846001 4.49122803,6.34307989 L5.0253411,9.1111111 L2.69395707,10.6900585 C2.25730989,10.9863548 1.99999995,11.4736842 1.99999995,12 C1.99999995,12.5263158 2.26120853,13.0136452 2.69395707,13.3060429 L5.0253411,14.8849903 L4.49122803,17.6530215 C4.38986351,18.1676414 4.5536062,18.6978558 4.92397657,19.0682262 C5.29434695,19.4385965 5.8167641,19.6023392 6.33918126,19.5009747 L9.09941519,18.9668616 L10.6744639,21.3021443 C10.9668616,21.7387915 11.4580897,22.0000001 11.9805068,22.0000001 C12.502924,22.0000001 12.9941521,21.7387915 13.2865497,21.3060429 L14.8615985,18.9707603 L17.625731,19.5048733 C18.1481482,19.6101365 18.6705653,19.4424952 19.0409357,19.0721248 C19.4113061,18.7017544 19.5711501,18.17154 19.4736842,17.6569201 L18.9395712,14.8888889 L21.2709552,13.3099415 C21.7037038,13.0175439 21.9649123,12.5263158 21.9649123,12.0038986 C21.9610137,11.4736842 21.7037038,10.9863548 21.2670566,10.6900585 Z M16.8654971,14.0272905 L17.5516569,17.582846 L14.0038986,16.8966862 L11.9805068,19.8947369 L9.957115,16.8927875 L6.41325533,17.5789474 L7.09941518,14.0233918 L4.10526312,11.9961014 L7.09941518,9.96881091 L6.41325533,6.41325533 L9.96101364,7.09941518 L11.9805068,4.10526312 L14.0038986,7.10331382 L17.5516569,6.41715397 L16.8654971,9.96881091 L19.8596492,11.9961014 L16.8654971,14.0272905 Z M11.9805068,7.96491226 C9.74658868,7.96491226 7.92592591,9.78557504 7.92592591,12.0194932 C7.92592591,14.2534113 9.74658868,16.0740741 11.9805068,16.0740741 C14.214425,16.0740741 16.0350877,14.2534113 16.0350877,12.0194932 C16.0350877,9.78557504 14.214425,7.96491226 11.9805068,7.96491226 Z M11.9805068,14.2027291 C10.7758285,14.2027291 9.79727094,13.2241715 9.79727094,12.0194932 C9.79727094,10.8148148 10.7758285,9.8362573 11.9805068,9.8362573 C13.1851852,9.8362573 14.1637427,10.8148148 14.1637427,12.0194932 C14.1637427,13.2241715 13.1851852,14.2027291 11.9805068,14.2027291 Z" id="path-1"></path>
    </defs>
    <g id="sun" stroke="none" stroke-width="1" fill="none" fill-rule="evenodd">
        <mask id="mask-2" fill="white">
            <use xlink:href="#path-1"></use>
        </mask>
        <g fill-rule="nonzero"></g>
        <g id="🎨-color" mask="url(#mask-2)" fill="#000000">
            <rect id="🎨-Color" x="0" y="0" width="24" height="24"></rect>
        </g>
    </g>
</svg>