<?xml version="1.0" encoding="UTF-8"?>
<svg width="24px" height="24px" viewBox="0 0 24 24" version="1.1" xmlns="http://www.w3.org/2000/svg" xmlns:xlink="http://www.w3.org/1999/xlink">
    <!-- Generator: Sketch 52.5 (67469) - http://www.bohemiancoding.com/sketch -->
    <title>superscript</title>
    <desc>Created with Sketch.</desc>
    <defs>
        <path d="M17.4374219,12 C17.5726172,11.5888281 18.1716407,11.16875 18.8540235,10.7333984 C19.5034375,10.3191406 20.2394532,9.8495703 20.8204688,9.21535155 C21.5024219,8.47105467 21.8339063,7.6460156 21.8339063,6.6932031 C21.8339063,4.32749996 19.8533594,3.24999996 18.0132032,3.24999996 C16.3533985,3.24999996 15.0296875,4.10999996 14.3244531,5.2205859 C14.1426563,5.50687497 14.2232031,5.88605466 14.5050391,6.07468747 L15.6897266,6.86749997 C15.9644141,7.0513281 16.3326953,6.98796872 16.5346485,6.7263281 C16.8480078,6.32031247 17.2697266,6.01441403 17.7716407,6.01441403 C18.5289453,6.01441403 18.7976563,6.51835935 18.7976563,6.94988279 C18.7976563,8.36234373 14.1321484,9.17734374 14.1321484,13.2008203 C14.1321484,13.4607422 14.1540625,13.7091797 14.1874219,13.9559375 C14.2294531,14.2670313 14.4934375,14.5 14.8073438,14.5 L21.375,14.5 C21.7201954,14.5 22.0000001,14.2201953 22.0000001,13.875 L22.0000001,12.625 C22.0000001,12.2798047 21.7201954,12 21.375,12 L17.4374219,12 Z M12.625,18.25 C12.9701953,18.25 13.25,18.5298047 13.25,18.875 L13.25,20.125 C13.25,20.4701954 12.9701953,20.75 12.625,20.75 L10.1875391,20.75 C9.97274275,20.7499917 9.77299962,20.6396838 9.65859374,20.4578907 L7.87339842,17.6213672 C7.78367185,17.4904297 7.70066404,17.3491407 7.63140623,17.2225782 C7.5669531,17.3492969 7.48894529,17.4935547 7.4019531,17.6359375 L5.65539059,20.4541797 C5.54143885,20.6380788 5.34048257,20.7499641 5.12414059,20.749961 L2.62499995,20.749961 C2.27980464,20.749961 1.99999995,20.4701563 1.99999995,20.124961 L1.99999995,18.874961 C1.99999995,18.5297657 2.27980464,18.249961 2.62499995,18.249961 L3.65332027,18.249961 L5.86238278,15.0191406 L3.8012109,12 L2.62499995,12 C2.27980464,12 1.99999995,11.7201953 1.99999995,11.375 L1.99999995,10.125 C1.99999995,9.77980468 2.27980464,9.49999999 2.62499995,9.49999999 L5.31273434,9.49999999 C5.53025907,9.49999562 5.73213987,9.61309029 5.84574216,9.79859374 L7.40363279,12.3425781 C7.48457029,12.4801953 7.5619531,12.6226953 7.62734373,12.7476563 C7.69675779,12.6209375 7.78046873,12.4760156 7.87097654,12.3360547 L9.4464453,9.79562499 C9.56043498,9.61182999 9.76134363,9.50002857 9.97761718,9.50003905 L12.625,9.50003905 C12.9701953,9.50003905 13.25,9.77984374 13.25,10.1250391 L13.25,11.3750391 C13.25,11.7202344 12.9701953,12.0000391 12.625,12.0000391 L11.5320703,12.0000391 L9.47386717,14.9559375 L11.7646094,18.25 L12.625,18.25 Z" id="path-1"></path>
    </defs>
    <g id="superscript" stroke="none" stroke-width="1" fill="none" fill-rule="evenodd">
        <mask id="mask-2" fill="white">
            <use xlink:href="#path-1"></use>
        </mask>
        <g fill-rule="nonzero"></g>
        <g id="🎨-color" mask="url(#mask-2)" fill="#000000">
            <rect id="🎨-Color" x="0" y="0" width="24" height="24"></rect>
        </g>
    </g>
</svg>