<?xml version="1.0" encoding="UTF-8"?>
<svg width="24px" height="24px" viewBox="0 0 24 24" version="1.1" xmlns="http://www.w3.org/2000/svg" xmlns:xlink="http://www.w3.org/1999/xlink">
    <!-- Generator: Sketch 52.5 (67469) - http://www.bohemiancoding.com/sketch -->
    <title>superpowers</title>
    <desc>Created with Sketch.</desc>
    <defs>
        <path d="M20.75,3.24999996 C17.4960938,3.67968746 14.234375,4.10937496 10.984375,4.53906246 C7.39062498,5.02734372 4.60546871,7.92578123 4.38281246,11.5703125 C4.25390621,13.7382813 5.08593747,15.8476563 6.64062497,17.359375 L3.24999996,20.75 C6.50390622,20.3203125 9.75390624,19.890625 13.0078125,19.4609375 C16.59375,18.9726563 19.3867188,16.0703125 19.5976563,12.4375 C19.734375,10.2695312 18.8945313,8.16015623 17.34375,6.64843747 L20.75,3.24999996 Z M17.6367188,12.3242188 C17.4726563,15.4296875 14.7460938,17.7617188 11.6679687,17.578125 C8.56249998,17.3945313 6.17187497,14.8046875 6.34374997,11.6796875 C6.51953122,8.58593748 9.24609374,6.23828122 12.3203125,6.42578122 C15.4179688,6.60937497 17.8085938,9.19921874 17.6367188,12.3242188 Z" id="path-1"></path>
    </defs>
    <g id="superpowers" stroke="none" stroke-width="1" fill="none" fill-rule="evenodd">
        <mask id="mask-2" fill="white">
            <use xlink:href="#path-1"></use>
        </mask>
        <g fill-rule="nonzero"></g>
        <g id="🎨-color" mask="url(#mask-2)" fill="#000000">
            <rect id="🎨-Color" x="0" y="0" width="24" height="24"></rect>
        </g>
    </g>
</svg>