<?xml version="1.0" encoding="UTF-8"?>
<svg width="24px" height="24px" viewBox="0 0 24 24" version="1.1" xmlns="http://www.w3.org/2000/svg" xmlns:xlink="http://www.w3.org/1999/xlink">
    <!-- Generator: Sketch 52.5 (67469) - http://www.bohemiancoding.com/sketch -->
    <title>supple</title>
    <desc>Created with Sketch.</desc>
    <defs>
        <path d="M22.0000001,12.203125 C22.0000001,14.20625 18.59375,15.83125 14.390625,15.83125 C13.615625,15.83125 12.871875,15.775 12.16875,15.675 C12.409375,15.6875 12.653125,15.69375 12.9,15.69375 C17.103125,15.69375 20.509375,13.915625 20.509375,11.721875 C20.509375,10.803125 19.9125,9.95937499 18.909375,9.28437499 C20.784375,9.94374999 22,11.00625 22,12.203125 Z M3.49062496,11.121875 C3.48749996,8.92812498 6.89062497,7.14374998 11.09375,7.13437498 C11.340625,7.13437498 11.58125,7.14062498 11.821875,7.14999998 C11.11875,7.04999998 10.375,6.99687497 9.60312499,6.99687497 C5.39999997,7.00937498 1.99687495,8.64062498 1.99999995,10.64375 C2.00312495,11.840625 3.22187496,12.903125 5.10312497,13.559375 C4.09374996,12.8875 3.49374996,12.040625 3.49062496,11.121875 Z M5.37187497,12.36875 C5.37187497,12.36875 5.69999997,12.78125 6.28749997,12.78125 C6.84687497,12.78125 7.17499998,12.421875 7.17499998,11.996875 C7.17499998,11.121875 5.91874997,11.2125 5.91874997,10.75625 C5.91874997,10.5875 6.08437497,10.471875 6.30937497,10.471875 C6.48749997,10.471875 6.66249997,10.553125 6.66249997,10.678125 L6.66249997,10.8 L7.10624998,10.8 L7.10624998,10.553125 C7.10624998,10.175 6.62499997,10.028125 6.31249997,10.028125 C5.79687497,10.028125 5.42187497,10.346875 5.42187497,10.78125 C5.42187497,11.6125 6.67812497,11.575 6.67812497,12.028125 C6.67812497,12.234375 6.49687497,12.34375 6.29374997,12.34375 C5.92187497,12.34375 5.64687497,12.028125 5.64687497,12.028125 L5.37187497,12.36875 Z M9.14687499,10.06875 L9.14687499,11.76875 C9.14687499,12.121875 8.92499998,12.325 8.59062498,12.325 C8.25624998,12.325 8.03437498,12.121875 8.03437498,11.771875 L8.03437498,10.06875 L7.54062498,10.06875 L7.54062498,11.7875 C7.54062498,12.378125 7.95937498,12.784375 8.59374998,12.784375 C9.22187499,12.784375 9.63749999,12.378125 9.63749999,11.7875 L9.63749999,10.06875 L9.14687499,10.06875 Z M10.221875,12.7375 L10.715625,12.7375 L10.715625,11.815625 L11.2,11.815625 C11.7,11.815625 12.05,11.45625 12.05,10.9375 C12.05,10.41875 11.7,10.06875 11.2,10.06875 L9.97812499,10.06875 L9.97812499,10.4875 L10.221875,10.4875 L10.221875,12.7375 Z M10.715625,11.39375 L10.715625,10.484375 L11.11875,10.484375 C11.390625,10.484375 11.546875,10.6625 11.546875,10.934375 C11.546875,11.2125 11.3875,11.39375 11.109375,11.39375 L10.715625,11.39375 Z M12.496875,12.7375 L12.990625,12.7375 L12.990625,11.815625 L13.475,11.815625 C13.975,11.815625 14.325,11.45625 14.325,10.9375 C14.325,10.41875 13.975,10.06875 13.475,10.06875 L12.253125,10.06875 L12.253125,10.4875 L12.496875,10.4875 L12.496875,12.7375 Z M12.9875,11.39375 L12.9875,10.484375 L13.390625,10.484375 C13.6625,10.484375 13.81875,10.6625 13.81875,10.934375 C13.81875,11.2125 13.6625,11.39375 13.38125,11.39375 L12.9875,11.39375 Z M14.771875,12.48125 C14.771875,12.6625 14.846875,12.7375 15.028125,12.7375 L16.203125,12.7375 C16.384375,12.7375 16.459375,12.6625 16.459375,12.48125 L16.459375,12.075 L16.0125,12.075 L16.0125,12.2375 C16.0125,12.290625 15.98125,12.31875 15.93125,12.31875 L15.35,12.31875 C15.296875,12.31875 15.26875,12.2875 15.26875,12.2375 L15.26875,10.325 C15.26875,10.146875 15.19375,10.06875 15.0125,10.06875 L14.53125,10.06875 L14.53125,10.4875 L14.69375,10.4875 C14.746875,10.4875 14.775,10.51875 14.775,10.56875 L14.775,12.48125 L14.771875,12.48125 Z M16.753125,12.48125 C16.753125,12.6625 16.828125,12.7375 17.009375,12.7375 L18.21875,12.7375 C18.396875,12.7375 18.475,12.6625 18.475,12.48125 L18.475,12.075 L18.028125,12.075 L18.028125,12.2375 C18.028125,12.290625 17.996875,12.31875 17.946875,12.31875 L17.33125,12.31875 C17.278125,12.31875 17.25,12.2875 17.25,12.2375 L17.25,11.603125 L18.115625,11.603125 L18.115625,11.184375 L17.25,11.184375 L17.25,10.484375 L17.85,10.484375 C17.903125,10.484375 17.93125,10.515625 17.93125,10.565625 L17.93125,10.728125 L18.375,10.728125 L18.375,10.321875 C18.375,10.14375 18.296875,10.065625 18.11875,10.065625 L16.50625,10.065625 L16.50625,10.484375 L16.75,10.484375 L16.75,12.48125 L16.753125,12.48125 Z M18.59375,10.10625 L18.59375,10.290625 L18.64375,10.290625 L18.64375,10.10625 L18.728125,10.10625 L18.728125,10.06875 L18.509375,10.06875 L18.509375,10.10625 L18.59375,10.10625 Z M18.771875,10.06875 L18.771875,10.290625 L18.81875,10.290625 L18.81875,10.1125 L18.890625,10.290625 L18.93125,10.290625 L19.003125,10.1125 L19.003125,10.290625 L19.05,10.290625 L19.05,10.06875 L18.978125,10.06875 L18.9125,10.228125 L18.846875,10.06875 L18.771875,10.06875 Z" id="path-1"></path>
    </defs>
    <g id="supple" stroke="none" stroke-width="1" fill="none" fill-rule="evenodd">
        <mask id="mask-2" fill="white">
            <use xlink:href="#path-1"></use>
        </mask>
        <g fill-rule="nonzero"></g>
        <g id="🎨-color" mask="url(#mask-2)" fill="#000000">
            <rect id="🎨-Color" x="0" y="0" width="24" height="24"></rect>
        </g>
    </g>
</svg>