<?xml version="1.0" encoding="UTF-8"?>
<svg width="24px" height="24px" viewBox="0 0 24 24" version="1.1" xmlns="http://www.w3.org/2000/svg" xmlns:xlink="http://www.w3.org/1999/xlink">
    <!-- Generator: Sketch 52.5 (67469) - http://www.bohemiancoding.com/sketch -->
    <title>swatchbook</title>
    <desc>Created with Sketch.</desc>
    <defs>
        <path d="M20.7328125,14.5 L16.5621094,14.5 L9.29101561,21.7855469 C9.21054686,21.8664063 9.11562499,21.9253907 9.03046874,22.0000001 L20.7328125,22.0000001 C21.421875,22.0000001 21.9804688,21.4402344 21.9804688,20.75 L21.9804688,15.75 C21.9804688,15.0597656 21.421875,14.5 20.7328125,14.5 Z M18.9945313,8.52734373 L15.4660156,4.99179684 C14.9789063,4.50351559 14.1890625,4.50351559 13.7015625,4.99179684 L10.7523437,7.94687498 L10.7523437,18.25 C10.7523437,18.365625 10.7261719,18.4738282 10.7183594,18.5875 L18.9945313,10.2953125 C19.4816407,9.80703124 19.4816407,9.01523436 18.9945313,8.52734373 Z M9.50468749,3.24999996 C9.50468749,2.55976558 8.94609373,1.99999995 8.25703123,1.99999995 L3.26718746,1.99999995 C2.57812495,1.99999995 2.0195312,2.55976558 2.0195312,3.24999996 L2.0195312,18.25 C2.0195312,20.3210938 3.69531246,22.0000001 5.76210934,22.0000001 C7.82890623,22.0000001 9.50468749,20.3210938 9.50468749,18.25 L9.50468749,3.24999996 Z M5.76210934,19.1875 C5.24531247,19.1875 4.82656246,18.7675782 4.82656246,18.25 C4.82656246,17.7320313 5.24570309,17.3125 5.76210934,17.3125 C6.2785156,17.3125 6.69765622,17.7320313 6.69765622,18.25 C6.69804685,18.7675782 6.27890622,19.1875 5.76210934,19.1875 Z M7.0097656,12 L4.51484371,12 L4.51484371,9.49999999 L7.01015623,9.49999999 L7.01015623,12 L7.0097656,12 Z M7.0097656,6.99999997 L4.51484371,6.99999997 L4.51484371,4.49999996 L7.01015623,4.49999996 L7.01015623,6.99999997 L7.0097656,6.99999997 Z" id="path-1"></path>
    </defs>
    <g id="swatchbook" stroke="none" stroke-width="1" fill="none" fill-rule="evenodd">
        <mask id="mask-2" fill="white">
            <use xlink:href="#path-1"></use>
        </mask>
        <g fill-rule="nonzero"></g>
        <g id="🎨-color" mask="url(#mask-2)" fill="#000000">
            <rect id="🎨-Color" x="0" y="0" width="24" height="24"></rect>
        </g>
    </g>
</svg>