<?xml version="1.0" encoding="UTF-8"?>
<svg width="24px" height="24px" viewBox="0 0 24 24" version="1.1" xmlns="http://www.w3.org/2000/svg" xmlns:xlink="http://www.w3.org/1999/xlink">
    <!-- Generator: Sketch 52.5 (67469) - http://www.bohemiancoding.com/sketch -->
    <title>swimming-pool</title>
    <desc>Created with Sketch.</desc>
    <defs>
        <path d="M21.5,17 L21,17 C20.18625,17 19.56875,16.736875 19.2471875,16.440625 C18.9690625,16.1840625 18.6328125,16 18.254375,16 L17.745,16 C17.3665625,16 17.0303125,16.1840625 16.7521875,16.440625 C16.43125,16.736875 15.81375,17 15,17 C14.18625,17 13.56875,16.736875 13.2471875,16.440625 C12.9690625,16.1840625 12.6328125,16 12.254375,16 L11.745,16 C11.3665625,16 11.0303125,16.1840625 10.7521875,16.440625 C10.43125,16.736875 9.81374999,17 8.99999998,17 C8.18624998,17 7.56874998,16.736875 7.24718748,16.440625 C6.96906247,16.1840625 6.63281247,16 6.25437497,16 L5.74499997,16 C5.36656247,16 5.03031247,16.1840625 4.75218746,16.440625 C4.43124996,16.736875 3.81374996,17 2.99999995,17 L2.49999995,17 C2.22374995,17 1.99999995,17.22375 1.99999995,17.5 L1.99999995,18.5 C1.99999995,18.77625 2.22374995,19 2.49999995,19 L2.99999995,19 C4.20687496,19 5.27249997,18.6190625 5.99999997,18.005 C6.72749997,18.619375 7.79312498,19 8.99999998,19 C10.206875,19 11.2725,18.6190625 12,18.005 C12.7275,18.619375 13.793125,19 15,19 C16.206875,19 17.2725,18.6190625 18,18.005 C18.7275,18.619375 19.793125,19 21,19 L21.5,19 C21.77625,19 22.0000001,18.77625 22.0000001,18.5 L22.0000001,17.5 C22.0000001,17.22375 21.77625,17 21.5,17 Z M8.99999999,16 L8.99999999,13 L15,13 L15,16 C15.5975,16 15.964375,15.8075 16.0746875,15.705625 C16.36125,15.44125 16.6746875,15.2575 17,15.1409375 L17,7.99999998 C17,7.44874998 17.44875,6.99999998 18,6.99999998 C18.55125,6.99999998 19,7.44874998 19,7.99999998 L19,8.49999998 C19,8.77624998 19.22375,8.99999999 19.5,8.99999999 L20.5,8.99999999 C20.77625,8.99999999 21,8.77624998 21,8.49999998 L21,7.99999998 C21,6.34562497 19.654375,4.99999997 18,4.99999997 C16.345625,4.99999997 15,6.34562497 15,7.99999998 L15,11 L8.99999999,11 L8.99999999,7.99999998 C8.99999999,7.44874998 9.44874999,6.99999998 9.99999999,6.99999998 C10.55125,6.99999998 11,7.44874998 11,7.99999998 L11,8.49999998 C11,8.77624998 11.22375,8.99999999 11.5,8.99999999 L12.5,8.99999999 C12.77625,8.99999999 13,8.77624998 13,8.49999998 L13,7.99999998 C13,6.34562497 11.654375,4.99999997 9.99999999,4.99999997 C8.34562498,4.99999997 6.99999997,6.34562497 6.99999997,7.99999998 L6.99999997,15.140625 C7.32531248,15.2571875 7.63874998,15.44125 7.92531248,15.7053125 C8.03562498,15.8075 8.40249998,16 8.99999999,16 Z" id="path-1"></path>
    </defs>
    <g id="swimming-pool" stroke="none" stroke-width="1" fill="none" fill-rule="evenodd">
        <mask id="mask-2" fill="white">
            <use xlink:href="#path-1"></use>
        </mask>
        <g fill-rule="nonzero"></g>
        <g id="🎨-color" mask="url(#mask-2)" fill="#000000">
            <rect id="🎨-Color" x="0" y="0" width="24" height="24"></rect>
        </g>
    </g>
</svg>