<?xml version="1.0" encoding="UTF-8"?>
<svg width="24px" height="24px" viewBox="0 0 24 24" version="1.1" xmlns="http://www.w3.org/2000/svg" xmlns:xlink="http://www.w3.org/1999/xlink">
    <!-- Generator: Sketch 52.5 (67469) - http://www.bohemiancoding.com/sketch -->
    <title>swimmer</title>
    <desc>Created with Sketch.</desc>
    <defs>
        <path d="M7.92531248,13.705625 C8.03593748,13.8075 8.40249998,14 8.99999998,14 C9.59749999,14 9.96437499,13.8075 10.0746875,13.705625 C10.5753125,13.2440625 11.1528125,13 11.7453125,13 L12.2546875,13 C12.8471875,13 13.425,13.2440625 13.9253125,13.705625 C14.0359375,13.8075 14.4025,14 15,14 C15.5975,14 15.964375,13.8075 16.0746875,13.705625 C16.5390625,13.2771875 17.0709375,13.045625 17.618125,13.013125 L14.091875,10.494375 L14.654375,10.0925 C14.768125,10.011875 14.913125,9.98249999 15.04875,10.0109375 L18.1846875,10.68375 C18.994375,10.8565625 19.7921875,10.3409375 19.9659375,9.53124999 C20.139375,8.72124998 19.62375,7.92374998 18.8134375,7.74999998 L15.6775,7.07718748 C14.7171875,6.87156247 13.708125,7.08093748 12.91,7.65156248 L10.409375,9.43812499 C10.085,9.66906249 9.80437499,9.95187499 9.57437499,10.28 L7.42968748,13.34375 C7.60062498,13.4446875 7.76781248,13.5603125 7.92531248,13.705625 Z M21.5,15 L21,15 C20.18625,15 19.56875,14.736875 19.2471875,14.440625 C18.9690625,14.1840625 18.6328125,14 18.254375,14 L17.745,14 C17.3665625,14 17.0303125,14.1840625 16.7521875,14.440625 C16.43125,14.736875 15.81375,15 15,15 C14.18625,15 13.56875,14.736875 13.2471875,14.440625 C12.9690625,14.1840625 12.6328125,14 12.254375,14 L11.745,14 C11.3665625,14 11.0303125,14.1840625 10.7521875,14.440625 C10.43125,14.736875 9.81374999,15 8.99999998,15 C8.18624998,15 7.56874998,14.736875 7.24718748,14.440625 C6.96906247,14.1840625 6.63281247,14 6.25437497,14 L5.74499997,14 C5.36656247,14 5.03031247,14.1840625 4.75218746,14.440625 C4.43124996,14.736875 3.81374996,15 2.99999995,15 L2.49999995,15 C2.22374995,15 1.99999995,15.22375 1.99999995,15.5 L1.99999995,16.5 C1.99999995,16.77625 2.22374995,17 2.49999995,17 L2.99999995,17 C4.20687496,17 5.27249997,16.6190625 5.99999997,16.005 C6.72749997,16.619375 7.79312498,17 8.99999998,17 C10.206875,17 11.2725,16.6190625 12,16.005 C12.7275,16.619375 13.793125,17 15,17 C16.206875,17 17.2725,16.6190625 18,16.005 C18.7275,16.619375 19.793125,17 21,17 L21.5,17 C21.77625,17 22.0000001,16.77625 22.0000001,16.5 L22.0000001,15.5 C22.0000001,15.22375 21.77625,15 21.5,15 Z M5.49999997,12 C6.88062497,12 7.99999998,10.880625 7.99999998,9.49999999 C7.99999998,8.11937498 6.88062497,6.99999997 5.49999997,6.99999997 C4.11937496,6.99999997 2.99999995,8.11937498 2.99999995,9.49999999 C2.99999995,10.880625 4.11937496,12 5.49999997,12 Z" id="path-1"></path>
    </defs>
    <g id="swimmer" stroke="none" stroke-width="1" fill="none" fill-rule="evenodd">
        <mask id="mask-2" fill="white">
            <use xlink:href="#path-1"></use>
        </mask>
        <g fill-rule="nonzero"></g>
        <g id="🎨-color" mask="url(#mask-2)" fill="#000000">
            <rect id="🎨-Color" x="0" y="0" width="24" height="24"></rect>
        </g>
    </g>
</svg>