<?xml version="1.0" encoding="UTF-8"?>
<svg width="24px" height="24px" viewBox="0 0 24 24" version="1.1" xmlns="http://www.w3.org/2000/svg" xmlns:xlink="http://www.w3.org/1999/xlink">
    <!-- Generator: Sketch 52.5 (67469) - http://www.bohemiancoding.com/sketch -->
    <title>synagogue</title>
    <desc>Created with Sketch.</desc>
    <defs>
        <path d="M4.18749996,10.1409375 L2.20843745,12.3840625 C2.07407444,12.5362548 1.99994792,12.7322955 1.99999995,12.9353125 L1.99999992,20 L5.99999997,20 L5.99999997,11.486875 L4.81249996,10.1409375 C4.64656246,9.95312499 4.35343746,9.95312499 4.18749996,10.1409375 Z M21.7915625,12.3840625 L19.8125,10.1409375 C19.6465625,9.95281249 19.3534375,9.95281249 19.1875,10.1409375 L18,11.486875 L18,20 L22.0000001,20 L22.0000001,12.9353125 C22.0000001,12.7321875 21.9259375,12.53625 21.7915625,12.3840625 Z M12.6246875,4.21906246 C12.259375,3.92687496 11.740625,3.92687496 11.3753125,4.21906246 L7.37531248,7.41906248 C7.13809392,7.60886278 7.00000375,7.8961961 6.99999997,8.19999998 L6.99999997,20 L9.99999999,20 L9.99999999,17.1071875 C9.99999999,16.1109375 10.680625,15.1875 11.6640625,15.0275 C12.916875,14.8234375 14,15.7853125 14,17 L14,20 L17,20 L17,8.19999998 C17,7.89624998 16.861875,7.60874998 16.6246875,7.41906248 L12.6246875,4.21906246 Z M14.251875,10.955 C14.31375,11.0534375 14.2428125,11.18125 14.126875,11.18125 L12.91,11.18125 L12.125,12.4309375 C12.0671875,12.523125 11.9328125,12.523125 11.875,12.4309375 L11.09,11.1815625 L9.87312499,11.1815625 C9.75687499,11.1815625 9.68624999,11.05375 9.74812499,10.9553125 L10.348125,10.0003125 L9.74812499,9.04531249 C9.68624999,8.94687498 9.75718749,8.81906248 9.87312499,8.81906248 L11.09,8.81906248 L11.875,7.56906248 C11.9328125,7.47687498 12.0671875,7.47687498 12.125,7.56906248 L12.91,8.81843748 L14.1271875,8.81843748 C14.243125,8.81843748 14.3140625,8.94624998 14.2521875,9.04468749 L13.6521875,9.99999999 L14.251875,10.955 Z" id="path-1"></path>
    </defs>
    <g id="synagogue" stroke="none" stroke-width="1" fill="none" fill-rule="evenodd">
        <mask id="mask-2" fill="white">
            <use xlink:href="#path-1"></use>
        </mask>
        <g fill-rule="nonzero"></g>
        <g id="🎨-color" mask="url(#mask-2)" fill="#000000">
            <rect id="🎨-Color" x="0" y="0" width="24" height="24"></rect>
        </g>
    </g>
</svg>