<?xml version="1.0" encoding="UTF-8"?>
<svg width="24px" height="24px" viewBox="0 0 24 24" version="1.1" xmlns="http://www.w3.org/2000/svg" xmlns:xlink="http://www.w3.org/1999/xlink">
    <!-- Generator: Sketch 52.5 (67469) - http://www.bohemiancoding.com/sketch -->
    <title>sync</title>
    <desc>Created with Sketch.</desc>
    <defs>
        <path d="M19.1904484,2.50970755 L19.3450683,5.73645221 C17.5717739,3.65317735 14.9307602,2.33138397 11.9805068,2.33138397 C7.25586742,2.33138397 3.32292393,5.72023389 2.47937617,10.1997661 C2.42526311,10.4870565 2.64732939,10.7524366 2.93968806,10.7524366 L4.85329431,10.7524366 C5.07044831,10.7524366 5.25785572,10.6026511 5.30849899,10.391462 C6.03146196,7.37653019 8.7419493,5.13840153 11.9805068,5.13840153 C14.3545029,5.13840153 16.4449123,6.34136449 17.6765692,8.17157893 L13.7182846,7.98191031 C13.451423,7.96912279 13.2280702,8.18202727 13.2280702,8.44920076 L13.2280702,10.2975828 C13.2280702,10.5559454 13.4375439,10.7654191 13.6959064,10.7654191 L21.5061599,10.7654191 C21.7645225,10.7654191 21.9739962,10.5559454 21.9739962,10.2975828 L21.9739962,2.48732939 C21.9739962,2.22896681 21.7645225,2.01949313 21.5061599,2.01949313 L19.6577778,2.01949313 C19.3906043,2.01949313 19.1776609,2.24284596 19.1904484,2.50970755 Z M11.9805068,18.8615985 C9.60643274,18.8615985 7.51590641,17.6585575 6.28424948,15.8282651 L10.2557115,16.0181677 C10.5225731,16.0309162 10.7458869,15.8180117 10.7458869,15.5508772 L10.7458869,13.7024561 C10.7458869,13.4440936 10.5364132,13.2346199 10.2780507,13.2346199 L2.46783621,13.2346199 C2.20947364,13.2346199 1.99999995,13.4440936 1.99999995,13.7024561 L1.99999995,21.5126706 C1.99999995,21.7710332 2.20947364,21.9805069 2.46783621,21.9805069 L4.31520464,21.9805069 C4.58276799,21.9805069 4.79582842,21.7565303 4.7824561,21.4893178 L4.62148144,18.2700195 C6.39473681,20.3495517 9.03333332,21.668616 11.9805068,21.668616 C16.7051462,21.668616 20.6380897,18.2797661 21.4816375,13.8002339 C21.5357505,13.5129435 21.3136843,13.2475634 21.0213256,13.2475634 L19.1077193,13.2475634 C18.8905653,13.2475634 18.7031579,13.3973489 18.6525147,13.608538 C17.9295517,16.6234698 15.2190643,18.8615985 11.9805068,18.8615985 Z" id="path-1"></path>
    </defs>
    <g id="sync" stroke="none" stroke-width="1" fill="none" fill-rule="evenodd">
        <mask id="mask-2" fill="white">
            <use xlink:href="#path-1"></use>
        </mask>
        <g fill-rule="nonzero"></g>
        <g id="🎨-color" mask="url(#mask-2)" fill="#000000">
            <rect id="🎨-Color" x="0" y="0" width="24" height="24"></rect>
        </g>
    </g>
</svg>