<?xml version="1.0" encoding="UTF-8"?>
<svg width="24px" height="24px" viewBox="0 0 24 24" version="1.1" xmlns="http://www.w3.org/2000/svg" xmlns:xlink="http://www.w3.org/1999/xlink">
    <!-- Generator: Sketch 52.5 (67469) - http://www.bohemiancoding.com/sketch -->
    <title>sync-alt</title>
    <desc>Created with Sketch.</desc>
    <defs>
        <path d="M16.48125,7.20624998 C15.2600781,6.06281247 13.6753125,5.43601559 11.9940625,5.43749997 C8.96835936,5.44015622 6.35624997,7.5147656 5.63503903,10.3925781 C5.58253903,10.6020703 5.3958984,10.75 5.17992184,10.75 L2.94152339,10.75 C2.64863277,10.75 2.42613276,10.4841016 2.48031245,10.19625 C3.32550777,5.70796872 7.26613279,2.31249995 12,2.31249995 C14.595625,2.31249995 16.9527735,3.33343746 18.6919922,4.99550778 L20.0871094,3.60039058 C20.6776954,3.00980464 21.6875,3.42808589 21.6875,4.26332027 L21.6875,9.49999999 C21.6875,10.0177734 21.2677735,10.4375 20.75,10.4375 L15.5133203,10.4375 C14.678086,10.4375 14.2598047,9.4276953 14.8503906,8.8370703 L16.48125,7.20624998 Z M3.24999996,13.5625 L8.48667967,13.5625 C9.32191405,13.5625 9.7401953,14.5723047 9.14960936,15.1629297 L7.51874998,16.7937891 C8.73992186,17.9372657 10.3248047,18.5640625 12.0060938,18.5625391 C15.0302344,18.5598047 17.6433985,16.4866016 18.364961,13.6075 C18.417461,13.3980078 18.6041016,13.2500781 18.8200782,13.2500781 L21.0585157,13.2500781 C21.3514063,13.2500781 21.5739063,13.5159766 21.5197266,13.8038281 C20.6744922,18.2920313 16.7338672,21.6875 12,21.6875 C9.40437499,21.6875 7.04722654,20.6665625 5.30800778,19.0044922 L3.91289058,20.3996094 C3.32230464,20.9901954 2.31249995,20.5719141 2.31249995,19.7366797 L2.31249995,14.5 C2.31249995,13.9822266 2.73222652,13.5625 3.24999996,13.5625 Z" id="path-1"></path>
    </defs>
    <g id="sync-alt" stroke="none" stroke-width="1" fill="none" fill-rule="evenodd">
        <mask id="mask-2" fill="white">
            <use xlink:href="#path-1"></use>
        </mask>
        <g fill-rule="nonzero"></g>
        <g id="🎨-color" mask="url(#mask-2)" fill="#000000">
            <rect id="🎨-Color" x="0" y="0" width="24" height="24"></rect>
        </g>
    </g>
</svg>