<?xml version="1.0" encoding="UTF-8"?>
<svg width="24px" height="24px" viewBox="0 0 24 24" version="1.1" xmlns="http://www.w3.org/2000/svg" xmlns:xlink="http://www.w3.org/1999/xlink">
    <!-- Generator: Sketch 52.5 (67469) - http://www.bohemiancoding.com/sketch -->
    <title>syringe</title>
    <desc>Created with Sketch.</desc>
    <defs>
        <path d="M9.87937742,8.85992216 L12.0466926,11.0311284 C12.1673152,11.151751 12.1673152,11.3501945 12.0466926,11.4708171 L11.6070039,11.9105058 C11.4863813,12.0311284 11.2879377,12.0311284 11.1673152,11.9105058 L8.99999998,9.7392996 L7.23735406,11.5019455 L9.4085603,13.6731518 C9.52918287,13.7937743 9.52918287,13.9922179 9.4085603,14.1128405 L8.96887158,14.5525292 C8.84824901,14.6731518 8.64980543,14.6731518 8.52918286,14.5525292 L6.35797663,12.3774319 L5.33073927,13.4046693 C4.65758751,14.077821 4.33463031,15.0038911 4.43579763,15.9494164 L4.71206222,18.4241245 L2.12840462,21.0077821 C2.00778205,21.1284047 2.00778205,21.3268483 2.12840462,21.4474709 L2.56809334,21.8871596 C2.68871591,22.0077822 2.88715949,22.0077822 3.00778206,21.8871596 L5.58754861,19.307393 L8.06225679,19.5836576 C8.99221788,19.6848249 9.92607003,19.3735409 10.6070039,18.688716 L17.6848249,11.6108949 L12.4046693,6.33073927 L9.87937742,8.85992216 Z M21.8715954,5.22957195 L18.7898833,2.14785987 C18.6692607,2.0272373 18.4708172,2.0272373 18.3501946,2.14785987 L17.9105059,2.58754859 C17.7898833,2.70817116 17.7898833,2.90661474 17.9105059,3.02723731 L19.0116732,4.12840463 L17.2490273,5.89105055 L15.0466926,3.68871591 L14.385214,3.02723731 C14.2645915,2.90661474 14.0661479,2.90661474 13.9455253,3.02723731 L12.6264591,4.34630346 C12.5058366,4.46692603 12.5058366,4.66536961 12.6264591,4.78599218 L13.2879377,5.44747078 L18.5680934,10.7354086 L19.229572,11.3968872 C19.3501946,11.5175097 19.5486382,11.5175097 19.6692607,11.3968872 L20.9883269,10.07393 C21.1089495,9.95330738 21.1089495,9.7548638 20.9883269,9.63424123 L18.1284047,6.77431904 L19.8910506,5.01167312 L20.9922179,6.11284044 C21.1128405,6.23346301 21.3112841,6.23346301 21.4319067,6.11284044 L21.8715954,5.67315172 C21.9922179,5.5486381 21.9922179,5.35408557 21.8715954,5.22957195 Z" id="path-1"></path>
    </defs>
    <g id="syringe" stroke="none" stroke-width="1" fill="none" fill-rule="evenodd">
        <mask id="mask-2" fill="white">
            <use xlink:href="#path-1"></use>
        </mask>
        <g fill-rule="nonzero"></g>
        <g id="🎨-color" mask="url(#mask-2)" fill="#000000">
            <rect id="🎨-Color" x="0" y="0" width="24" height="24"></rect>
        </g>
    </g>
</svg>