<?xml version="1.0" encoding="UTF-8"?>
<svg width="24px" height="24px" viewBox="0 0 24 24" version="1.1" xmlns="http://www.w3.org/2000/svg" xmlns:xlink="http://www.w3.org/1999/xlink">
    <!-- Generator: Sketch 52.5 (67469) - http://www.bohemiancoding.com/sketch -->
    <title>tablets</title>
    <desc>Created with Sketch.</desc>
    <defs>
        <path d="M6.99999997,10.015625 C4.46562496,10.015625 2.39062495,11.84375 2.00312495,14.225 C1.97812495,14.375 2.10624995,14.515625 2.26249995,14.515625 L11.740625,14.515625 C11.896875,14.515625 12.025,14.375 12,14.225 C11.609375,11.84375 9.53437499,10.015625 6.99999997,10.015625 Z M11.7375,15.515625 L2.26249995,15.515625 C2.10624995,15.515625 1.97812495,15.65625 2.00312495,15.80625 C2.39062495,18.1875 4.46562496,20.015625 6.99999997,20.015625 C9.53437499,20.015625 11.609375,18.1875 11.996875,15.80625 C12.021875,15.65625 11.89375,15.515625 11.7375,15.515625 Z M20.54375,5.47187497 C18.778125,3.70624996 16.0375,3.55312496 14.078125,4.97187496 C13.953125,5.06249997 13.94375,5.24999997 14.053125,5.35624997 L20.65625,11.9625 C20.765625,12.071875 20.953125,12.0625 21.040625,11.9375 C22.4625001,9.97812499 22.3093751,7.23749998 20.54375,5.47187497 Z M13.34375,6.06874997 C13.234375,5.95937497 13.046875,5.96874997 12.959375,6.09374997 C11.540625,8.05312498 11.69375,10.79375 13.45625,12.559375 C15.221875,14.325 17.9625,14.478125 19.921875,13.05625 C20.046875,12.965625 20.05625,12.778125 19.946875,12.671875 L13.34375,6.06874997 Z" id="path-1"></path>
    </defs>
    <g id="tablets" stroke="none" stroke-width="1" fill="none" fill-rule="evenodd">
        <mask id="mask-2" fill="white">
            <use xlink:href="#path-1"></use>
        </mask>
        <g fill-rule="nonzero"></g>
        <g id="🎨-color" mask="url(#mask-2)" fill="#000000">
            <rect id="🎨-Color" x="0" y="0" width="24" height="24"></rect>
        </g>
    </g>
</svg>