<?xml version="1.0" encoding="UTF-8"?>
<svg width="24px" height="24px" viewBox="0 0 24 24" version="1.1" xmlns="http://www.w3.org/2000/svg" xmlns:xlink="http://www.w3.org/1999/xlink">
    <!-- Generator: Sketch 52.5 (67469) - http://www.bohemiancoding.com/sketch -->
    <title>table-tennis</title>
    <desc>Created with Sketch.</desc>
    <defs>
        <path d="M21.3840156,13.5594542 C22.6120858,10.5263158 22.0000001,6.92007795 19.5438597,4.46003895 C16.2729045,1.1812865 10.9668616,1.1812865 7.69590641,4.46003895 L5.51267053,6.64717346 L13.7582846,14.8927875 C15.5555556,12.4717349 18.8849903,11.8752437 21.3840156,13.5594542 Z M12.8888889,16.6666667 L4.29629626,8.07797269 C3.23196877,9.84405457 3.45029235,12.17154 4.9707602,13.6959064 L6.31578945,15.0448343 L2.30019488,18.5302145 C1.96491223,18.8226121 1.94541905,19.337232 2.26120853,19.6530215 L4.34307988,21.7387915 C4.65497072,22.0545809 5.16959061,22.0350878 5.46198827,21.6998051 L8.94346977,17.6725146 L10.3352826,19.0643275 C11.1033138,19.8323587 12.0740741,20.2534113 13.0760234,20.3625731 C12.7992203,19.6998051 12.6471735,18.9746589 12.6471735,18.214425 C12.6432749,17.6764133 12.7446394,17.1617934 12.8888889,16.6666667 Z M18.25731,14.4756335 C16.1910332,14.4756335 14.5146199,16.1520468 14.5146199,18.2183236 C14.5146199,20.2846004 16.1910332,21.9610137 18.25731,21.9610137 C20.3235868,21.9610137 22,20.2846004 22,18.2183236 C22,16.1520468 20.3235868,14.4756335 18.25731,14.4756335 Z" id="path-1"></path>
    </defs>
    <g id="table-tennis" stroke="none" stroke-width="1" fill="none" fill-rule="evenodd">
        <mask id="mask-2" fill="white">
            <use xlink:href="#path-1"></use>
        </mask>
        <g fill-rule="nonzero"></g>
        <g id="🎨-color" mask="url(#mask-2)" fill="#000000">
            <rect id="🎨-Color" x="0" y="0" width="24" height="24"></rect>
        </g>
    </g>
</svg>