<?xml version="1.0" encoding="UTF-8"?>
<svg width="24px" height="24px" viewBox="0 0 24 24" version="1.1" xmlns="http://www.w3.org/2000/svg" xmlns:xlink="http://www.w3.org/1999/xlink">
    <!-- Generator: Sketch 52.5 (67469) - http://www.bohemiancoding.com/sketch -->
    <title>tablet</title>
    <desc>Created with Sketch.</desc>
    <defs>
        <path d="M18.875,1.99999995 L5.12499997,1.99999995 C4.08984371,1.99999995 3.24999996,2.8398437 3.24999996,3.87499996 L3.24999996,20.125 C3.24999996,21.1601563 4.08984371,22.0000001 5.12499997,22.0000001 L18.875,22.0000001 C19.9101563,22.0000001 20.75,21.1601563 20.75,20.125 L20.75,3.87499996 C20.75,2.8398437 19.9101563,1.99999995 18.875,1.99999995 Z M12,20.75 C11.3085937,20.75 10.75,20.1914063 10.75,19.5 C10.75,18.8085938 11.3085937,18.25 12,18.25 C12.6914063,18.25 13.25,18.8085938 13.25,19.5 C13.25,20.1914063 12.6914063,20.75 12,20.75 Z" id="path-1"></path>
    </defs>
    <g id="tablet" stroke="none" stroke-width="1" fill="none" fill-rule="evenodd">
        <mask id="mask-2" fill="white">
            <use xlink:href="#path-1"></use>
        </mask>
        <g fill-rule="nonzero"></g>
        <g id="🎨-color" mask="url(#mask-2)" fill="#000000">
            <rect id="🎨-Color" x="0" y="0" width="24" height="24"></rect>
        </g>
    </g>
</svg>