<?xml version="1.0" encoding="UTF-8"?>
<svg width="24px" height="24px" viewBox="0 0 24 24" version="1.1" xmlns="http://www.w3.org/2000/svg" xmlns:xlink="http://www.w3.org/1999/xlink">
    <!-- Generator: Sketch 52.5 (67469) - http://www.bohemiancoding.com/sketch -->
    <title>tachometer-alt</title>
    <desc>Created with Sketch.</desc>
    <defs>
        <path d="M12,4.22222218 C6.47708331,4.22222218 1.99999995,8.69930554 1.99999995,14.2222222 C1.99999995,16.0555556 2.49479162,17.7729167 3.35624996,19.25 C3.55104162,19.5840278 3.92222218,19.7777778 4.30902774,19.7777778 L19.6909723,19.7777778 C20.0777778,19.7777778 20.4489584,19.5840278 20.64375,19.25 C21.5052084,17.7729167 22.0000001,16.0555556 22.0000001,14.2222222 C22.0000001,8.69930554 17.5229167,4.22222218 12,4.22222218 Z M12,6.44444442 C12.5107639,6.44444442 12.9229167,6.79618053 13.0527778,7.26562498 C13.0142361,7.3440972 12.9611111,7.41249998 12.9329861,7.4972222 L12.6128472,8.45798609 C12.4347222,8.57916665 12.2319444,8.66666665 12.0003472,8.66666665 C11.3868056,8.66666665 10.8892361,8.1690972 10.8892361,7.55555553 C10.8892361,6.94201386 11.3864583,6.44444442 12,6.44444442 Z M5.3333333,16.4444445 C4.71979163,16.4444445 4.22222218,15.946875 4.22222218,15.3333334 C4.22222218,14.7197917 4.71979163,14.2222222 5.3333333,14.2222222 C5.94687497,14.2222222 6.44444442,14.7197917 6.44444442,15.3333334 C6.44444442,15.946875 5.94687497,16.4444445 5.3333333,16.4444445 Z M6.99999997,10.8888889 C6.38645831,10.8888889 5.88888886,10.3913194 5.88888886,9.77777777 C5.88888886,9.1642361 6.38645831,8.66666665 6.99999997,8.66666665 C7.61354164,8.66666665 8.11111109,9.1642361 8.11111109,9.77777777 C8.11111109,10.3913194 7.61354164,10.8888889 6.99999997,10.8888889 Z M15.5684028,8.37465276 L13.4388889,14.7635417 C13.9142361,15.1711806 14.2222222,15.76875 14.2222222,16.4444445 C14.2222222,16.8513889 14.1048611,17.2274306 13.9138889,17.5555556 L10.0861111,17.5555556 C9.89513888,17.2274306 9.77777777,16.8513889 9.77777777,16.4444445 C9.77777777,15.2659722 10.6979167,14.3114583 11.8576389,14.2364583 L13.9875,7.8472222 C14.1322917,7.41111109 14.603125,7.17187498 15.0416667,7.32048609 C15.478125,7.4659722 15.7135417,7.93819442 15.5684028,8.37465276 Z M16.0774306,10.3607639 L16.6163195,8.74444443 C16.7368056,8.69965276 16.8638889,8.66701387 17,8.66701387 C17.6135417,8.66701387 18.1111111,9.16458332 18.1111111,9.77812499 C18.1111111,10.3916667 17.6135417,10.8892361 17,10.8892361 C16.6048611,10.8888889 16.2746528,10.6711805 16.0774306,10.3607639 Z M18.6666667,16.4444445 C18.053125,16.4444445 17.5555556,15.946875 17.5555556,15.3333334 C17.5555556,14.7197917 18.053125,14.2222222 18.6666667,14.2222222 C19.2802084,14.2222222 19.7777778,14.7197917 19.7777778,15.3333334 C19.7777778,15.946875 19.2802084,16.4444445 18.6666667,16.4444445 Z" id="path-1"></path>
    </defs>
    <g id="tachometer-alt" stroke="none" stroke-width="1" fill="none" fill-rule="evenodd">
        <mask id="mask-2" fill="white">
            <use xlink:href="#path-1"></use>
        </mask>
        <g fill-rule="nonzero"></g>
        <g id="🎨-color" mask="url(#mask-2)" fill="#000000">
            <rect id="🎨-Color" x="0" y="0" width="24" height="24"></rect>
        </g>
    </g>
</svg>