<?xml version="1.0" encoding="UTF-8"?>
<svg width="24px" height="24px" viewBox="0 0 24 24" version="1.1" xmlns="http://www.w3.org/2000/svg" xmlns:xlink="http://www.w3.org/1999/xlink">
    <!-- Generator: Sketch 52.5 (67469) - http://www.bohemiancoding.com/sketch -->
    <title>tag</title>
    <desc>Created with Sketch.</desc>
    <defs>
        <path d="M1.99999995,11.8483594 L1.99999995,3.87499996 C1.99999995,2.83945308 2.83945308,1.99999995 3.87499996,1.99999995 L11.8483594,1.99999995 C12.3456393,2.00000255 12.822551,2.19754833 13.1741797,2.54917964 L21.4508204,10.8258203 C22.1830469,11.5580469 22.1830469,12.7452344 21.4508204,13.4774609 L13.4774609,21.4508204 C12.7452344,22.1830469 11.5580469,22.1830469 10.8258203,21.4508204 L2.54917964,13.1741797 C2.19754833,12.822551 2.00000255,12.3456393 1.99999995,11.8483594 Z M6.37499997,4.49999996 C5.33945309,4.49999996 4.49999996,5.33945309 4.49999996,6.37499997 C4.49999996,7.41054685 5.33945309,8.24999998 6.37499997,8.24999998 C7.41054685,8.24999998 8.24999998,7.41054685 8.24999998,6.37499997 C8.24999998,5.33945309 7.41054685,4.49999996 6.37499997,4.49999996 Z" id="path-1"></path>
    </defs>
    <g id="tag" stroke="none" stroke-width="1" fill="none" fill-rule="evenodd">
        <mask id="mask-2" fill="white">
            <use xlink:href="#path-1"></use>
        </mask>
        <g fill-rule="nonzero"></g>
        <g id="🎨-color" mask="url(#mask-2)" fill="#000000">
            <rect id="🎨-Color" x="0" y="0" width="24" height="24"></rect>
        </g>
    </g>
</svg>