<?xml version="1.0" encoding="UTF-8"?>
<svg width="24px" height="24px" viewBox="0 0 24 24" version="1.1" xmlns="http://www.w3.org/2000/svg" xmlns:xlink="http://www.w3.org/1999/xlink">
    <!-- Generator: Sketch 52.5 (67469) - http://www.bohemiancoding.com/sketch -->
    <title>tags</title>
    <desc>Created with Sketch.</desc>
    <defs>
        <path d="M17.5606563,11.0606562 L10.9393437,4.43934371 C10.6580408,4.15803867 10.2765114,4.00000204 9.87868749,3.99999996 L3.49999996,3.99999996 C2.67156245,3.99999996 1.99999995,4.67156246 1.99999995,5.49999997 L1.99999995,11.8786875 C2.00000203,12.2765114 2.15803866,12.6580408 2.4393437,12.9393438 L9.06065624,19.5606563 C9.64640624,20.1464375 10.5961562,20.1464688 11.1819687,19.5606563 L17.5606563,13.1819688 C18.1464375,12.5961875 18.1464375,11.6464375 17.5606563,11.0606562 Z M5.49999997,8.99999998 C4.67156246,8.99999998 3.99999996,8.32843748 3.99999996,7.49999998 C3.99999996,6.67156247 4.67156246,5.99999997 5.49999997,5.99999997 C6.32843747,5.99999997 6.99999997,6.67156247 6.99999997,7.49999998 C6.99999997,8.32843748 6.32843747,8.99999998 5.49999997,8.99999998 Z M21.5606563,13.1819688 L15.1819688,19.5606563 C14.5961875,20.1464375 13.6464375,20.1464375 13.0606563,19.5606563 L13.0494063,19.5494063 L18.48875,14.1100625 C19.0199688,13.5788438 19.3125,12.8725625 19.3125,12.1213125 C19.3125,11.3700625 19.0199375,10.6637812 18.48875,10.1325625 L12.3561563,3.99999996 L13.8786875,3.99999996 C14.2765115,4.00000204 14.6580408,4.15803867 14.9393438,4.43934371 L21.5606563,11.0606562 C22.1464376,11.6464375 22.1464376,12.5961875 21.5606563,13.1819688 Z" id="path-1"></path>
    </defs>
    <g id="tags" stroke="none" stroke-width="1" fill="none" fill-rule="evenodd">
        <mask id="mask-2" fill="white">
            <use xlink:href="#path-1"></use>
        </mask>
        <g fill-rule="nonzero"></g>
        <g id="🎨-color" mask="url(#mask-2)" fill="#000000">
            <rect id="🎨-Color" x="0" y="0" width="24" height="24"></rect>
        </g>
    </g>
</svg>