<?xml version="1.0" encoding="UTF-8"?>
<svg width="24px" height="24px" viewBox="0 0 24 24" version="1.1" xmlns="http://www.w3.org/2000/svg" xmlns:xlink="http://www.w3.org/1999/xlink">
    <!-- Generator: Sketch 52.5 (67469) - http://www.bohemiancoding.com/sketch -->
    <title>tape</title>
    <desc>Created with Sketch.</desc>
    <defs>
        <path d="M8.99999998,9.99999999 C7.89687498,9.99999999 6.99999997,10.896875 6.99999997,12 C6.99999997,13.103125 7.89687498,14 8.99999998,14 C10.103125,14 11,13.103125 11,12 C11,10.896875 10.103125,9.99999999 8.99999998,9.99999999 Z M21.5,17 L13.89375,17 C15.190625,15.728125 16,13.959375 16,12 C16,8.13437498 12.865625,4.99999997 8.99999998,4.99999997 C5.13437497,4.99999997 1.99999995,8.13437498 1.99999995,12 C1.99999995,15.865625 5.13437497,19 8.99999998,19 L21.5,19 C21.775,19 22.0000001,18.775 22.0000001,18.5 L22.0000001,17.5 C22.0000001,17.225 21.775,17 21.5,17 Z M8.99999998,15 C7.34374998,15 5.99999997,13.65625 5.99999997,12 C5.99999997,10.34375 7.34374998,8.99999999 8.99999998,8.99999999 C10.65625,8.99999999 12,10.34375 12,12 C12,13.65625 10.65625,15 8.99999998,15 Z" id="path-1"></path>
    </defs>
    <g id="tape" stroke="none" stroke-width="1" fill="none" fill-rule="evenodd">
        <mask id="mask-2" fill="white">
            <use xlink:href="#path-1"></use>
        </mask>
        <g fill-rule="nonzero"></g>
        <g id="🎨-color" mask="url(#mask-2)" fill="#000000">
            <rect id="🎨-Color" x="0" y="0" width="24" height="24"></rect>
        </g>
    </g>
</svg>