<?xml version="1.0" encoding="UTF-8"?>
<svg width="24px" height="24px" viewBox="0 0 24 24" version="1.1" xmlns="http://www.w3.org/2000/svg" xmlns:xlink="http://www.w3.org/1999/xlink">
    <!-- Generator: Sketch 52.5 (67469) - http://www.bohemiancoding.com/sketch -->
    <title>tasks</title>
    <desc>Created with Sketch.</desc>
    <defs>
        <path d="M10.1481481,7.16569198 L21.3762184,7.16569198 C21.7192983,7.16569198 22,6.88499023 22,6.5419103 L22,4.98245611 C22,4.63937618 21.7192983,4.35867443 21.3762184,4.35867443 L10.1481481,4.35867443 C9.80506822,4.35867443 9.52436646,4.63937618 9.52436646,4.98245611 L9.52436646,6.5419103 C9.52436646,6.88499023 9.80506822,7.16569198 10.1481481,7.16569198 Z M10.1481481,13.4035088 L21.3762184,13.4035088 C21.7192983,13.4035088 22,13.122807 22,12.7797271 L22,11.2202729 C22,10.877193 21.7192983,10.5964912 21.3762184,10.5964912 L10.1481481,10.5964912 C9.80506822,10.5964912 9.52436646,10.877193 9.52436646,11.2202729 L9.52436646,12.7797271 C9.52436646,13.122807 9.80506822,13.4035088 10.1481481,13.4035088 Z M10.1481481,19.6413256 L21.3762184,19.6413256 C21.7192983,19.6413256 22,19.3606238 22,19.0175439 L22,17.4580897 C22,17.1150098 21.7192983,16.834308 21.3762184,16.834308 L10.1481481,16.834308 C9.80506822,16.834308 9.52436646,17.1150098 9.52436646,17.4580897 L9.52436646,19.0175439 C9.52436646,19.3606238 9.80506822,19.6413256 10.1481481,19.6413256 Z M4.53411302,16.3664718 C3.50097462,16.3664718 2.63937617,17.2046784 2.63937617,18.2378168 C2.63937617,19.2709552 3.50097462,20.1091618 4.53411302,20.1091618 C5.56725143,20.1091618 6.40545806,19.2709552 6.40545806,18.2378168 C6.40545806,17.2046784 5.56725143,16.3664718 4.53411302,16.3664718 Z M8.14035086,4.70955162 L5.32553603,7.52436645 L4.71734889,8.13255359 C4.53411302,8.31578946 4.21442491,8.31578946 4.03118904,8.13255359 L2.17543855,6.28460036 C1.99220268,6.10136449 1.99220268,5.8050682 2.17543855,5.62183233 L2.78752432,5.00974655 C2.97076019,4.82651069 3.26705649,4.82651069 3.45029235,5.00974655 L4.33528261,5.871345 L6.81871342,3.40350873 C7.00194929,3.22027286 7.29824559,3.22027286 7.48148146,3.40350873 L8.14424949,4.04678359 C8.32358673,4.23001945 8.32358673,4.52631575 8.14035086,4.70955162 Z M8.14035086,10.9317739 L5.32553603,13.7465887 L4.71345026,14.3586745 C4.53021439,14.5419103 4.21052628,14.5419103 4.02729041,14.3586745 L2.17543855,12.5068226 C1.99220268,12.3235867 1.99220268,12.0272904 2.17543855,11.8440546 L2.78752432,11.2319688 C2.97076019,11.0487329 3.26705649,11.0487329 3.45029235,11.2319688 L4.33528261,12.0935673 L6.81871342,9.61013644 C7.00194929,9.42690057 7.29824559,9.42690057 7.48148146,9.61013644 L8.14424949,10.2729045 C8.32358673,10.4522417 8.32358673,10.748538 8.14035086,10.9317739 Z" id="path-1"></path>
    </defs>
    <g id="tasks" stroke="none" stroke-width="1" fill="none" fill-rule="evenodd">
        <mask id="mask-2" fill="white">
            <use xlink:href="#path-1"></use>
        </mask>
        <g fill-rule="nonzero"></g>
        <g id="🎨-color" mask="url(#mask-2)" fill="#000000">
            <rect id="🎨-Color" x="0" y="0" width="24" height="24"></rect>
        </g>
    </g>
</svg>