<?xml version="1.0" encoding="UTF-8"?>
<svg width="24px" height="24px" viewBox="0 0 24 24" version="1.1" xmlns="http://www.w3.org/2000/svg" xmlns:xlink="http://www.w3.org/1999/xlink">
    <!-- Generator: Sketch 52.5 (67469) - http://www.bohemiancoding.com/sketch -->
    <title>taxi</title>
    <desc>Created with Sketch.</desc>
    <defs>
        <path d="M20.046875,11.4390625 L19.1875,8.12499998 C18.8125,6.74999997 17.5625,5.74999997 16.1875,5.74999997 L15.75,5.74999997 L15.75,4.49999996 C15.75,3.80976558 15.1902344,3.24999996 14.5,3.24999996 L9.49999999,3.24999996 C8.80976561,3.24999996 8.24999998,3.80976558 8.24999998,4.49999996 L8.24999998,5.74999997 L7.81249998,5.74999997 C6.43749997,5.74999997 5.18749997,6.74999997 4.81249996,8.12499998 L3.95312496,11.4390625 C2.83632808,11.6890625 1.99999995,12.6824219 1.99999995,13.875 L1.99999995,15.75 C1.99999995,16.6730469 2.50585933,17.4703125 3.24999996,17.903125 L3.24999996,19.5 C3.24999996,20.1902344 3.80976558,20.75 4.49999996,20.75 L5.74999997,20.75 C6.44023435,20.75 6.99999997,20.1902344 6.99999997,19.5 L6.99999997,18.25 L17,18.25 L17,19.5 C17,20.1902344 17.5597657,20.75 18.25,20.75 L19.5,20.75 C20.1902344,20.75 20.75,20.1902344 20.75,19.5 L20.75,17.903125 C21.4941407,17.4699219 22.0000001,16.6726563 22.0000001,15.75 L22.0000001,13.875 C22.0000001,12.6824219 21.1636719,11.6890625 20.046875,11.4390625 Z M5.74999997,15.75 C5.05976559,15.75 4.49999996,15.1902344 4.49999996,14.5 C4.49999996,13.8097656 5.05976559,13.25 5.74999997,13.25 C6.44023435,13.25 6.99999997,13.8097656 6.99999997,14.5 C6.99999997,15.1902344 6.44023435,15.75 5.74999997,15.75 Z M6.55273435,11.375 L7.22460935,8.78281248 C7.31171873,8.46406248 7.59921873,8.24999998 7.8128906,8.24999998 L16.1878906,8.24999998 C16.4015625,8.24999998 16.6890625,8.46406248 16.7679688,8.75234373 L17.4472657,11.375 L6.55273435,11.375 Z M18.25,15.75 C17.5597657,15.75 17,15.1902344 17,14.5 C17,13.8097656 17.5597657,13.25 18.25,13.25 C18.9402344,13.25 19.5,13.8097656 19.5,14.5 C19.5,15.1902344 18.9402344,15.75 18.25,15.75 Z" id="path-1"></path>
    </defs>
    <g id="taxi" stroke="none" stroke-width="1" fill="none" fill-rule="evenodd">
        <mask id="mask-2" fill="white">
            <use xlink:href="#path-1"></use>
        </mask>
        <g fill-rule="nonzero"></g>
        <g id="🎨-color" mask="url(#mask-2)" fill="#000000">
            <rect id="🎨-Color" x="0" y="0" width="24" height="24"></rect>
        </g>
    </g>
</svg>