<?xml version="1.0" encoding="UTF-8"?>
<svg width="24px" height="24px" viewBox="0 0 24 24" version="1.1" xmlns="http://www.w3.org/2000/svg" xmlns:xlink="http://www.w3.org/1999/xlink">
    <!-- Generator: Sketch 52.5 (67469) - http://www.bohemiancoding.com/sketch -->
    <title>teeth-open</title>
    <desc>Created with Sketch.</desc>
    <defs>
        <path d="M19,3.99999996 L4.99999996,3.99999996 C3.34312496,3.99999996 1.99999995,5.34312497 1.99999995,6.99999997 L1.99999995,8.99999998 C1.99999995,10.1046875 2.89562495,11 3.99999996,11 L20,11 C21.104375,11 22.0000001,10.1046875 22.0000001,8.99999998 L22.0000001,6.99999997 C22.0000001,5.34312497 20.656875,3.99999996 19,3.99999996 Z M6.99999997,9.49999999 C6.99999997,9.77624999 6.77624997,9.99999999 6.49999997,9.99999999 L4.49999996,9.99999999 C4.22374996,9.99999999 3.99999996,9.77624999 3.99999996,9.49999999 L3.99999996,8.49999998 C3.99999996,7.67156248 4.67156246,6.99999997 5.49999997,6.99999997 C6.32843747,6.99999997 6.99999997,7.67156248 6.99999997,8.49999998 L6.99999997,9.49999999 Z M11.5,9.49999999 C11.5,9.77624999 11.27625,9.99999999 11,9.99999999 L8.49999998,9.99999999 C8.22374998,9.99999999 7.99999998,9.77624999 7.99999998,9.49999999 L7.99999998,7.74999998 C7.99999998,6.78343747 8.78343748,5.99999997 9.74999999,5.99999997 C10.7165625,5.99999997 11.5,6.78343747 11.5,7.74999998 L11.5,9.49999999 Z M16,9.49999999 C16,9.77624999 15.77625,9.99999999 15.5,9.99999999 L13,9.99999999 C12.72375,9.99999999 12.5,9.77624999 12.5,9.49999999 L12.5,7.74999998 C12.5,6.78343747 13.2834375,5.99999997 14.25,5.99999997 C15.2165625,5.99999997 16,6.78343747 16,7.74999998 L16,9.49999999 Z M20,9.49999999 C20,9.77624999 19.77625,9.99999999 19.5,9.99999999 L17.5,9.99999999 C17.22375,9.99999999 17,9.77624999 17,9.49999999 L17,8.49999998 C17,7.67156248 17.6715625,6.99999997 18.5,6.99999997 C19.3284375,6.99999997 20,7.67156248 20,8.49999998 L20,9.49999999 Z M20,14 L3.99999996,14 C2.89562495,14 1.99999995,14.8953125 1.99999995,16 L1.99999995,17 C1.99999995,18.656875 3.34312496,20 4.99999996,20 L19,20 C20.656875,20 22.0000001,18.656875 22.0000001,17 L22.0000001,16 C22.0000001,14.8953125 21.104375,14 20,14 Z M6.99999997,16.5 C6.99999997,17.3284375 6.32843747,18 5.49999997,18 C4.67156246,18 3.99999996,17.3284375 3.99999996,16.5 L3.99999996,15.5 C3.99999996,15.22375 4.22374996,15 4.49999996,15 L6.49999997,15 C6.77624997,15 6.99999997,15.22375 6.99999997,15.5 L6.99999997,16.5 Z M11.5,16.25 C11.5,17.2165625 10.7165625,18 9.74999999,18 C8.78343748,18 7.99999998,17.2165625 7.99999998,16.25 L7.99999998,15.5 C7.99999998,15.22375 8.22374998,15 8.49999998,15 L11,15 C11.27625,15 11.5,15.22375 11.5,15.5 L11.5,16.25 Z M16,16.25 C16,17.2165625 15.2165625,18 14.25,18 C13.2834375,18 12.5,17.2165625 12.5,16.25 L12.5,15.5 C12.5,15.22375 12.72375,15 13,15 L15.5,15 C15.77625,15 16,15.22375 16,15.5 L16,16.25 Z M20,16.5 C20,17.3284375 19.3284375,18 18.5,18 C17.6715625,18 17,17.3284375 17,16.5 L17,15.5 C17,15.22375 17.22375,15 17.5,15 L19.5,15 C19.77625,15 20,15.22375 20,15.5 L20,16.5 Z" id="path-1"></path>
    </defs>
    <g id="teeth-open" stroke="none" stroke-width="1" fill="none" fill-rule="evenodd">
        <mask id="mask-2" fill="white">
            <use xlink:href="#path-1"></use>
        </mask>
        <g fill-rule="nonzero"></g>
        <g id="🎨-color" mask="url(#mask-2)" fill="#000000">
            <rect id="🎨-Color" x="0" y="0" width="24" height="24"></rect>
        </g>
    </g>
</svg>