<?xml version="1.0" encoding="UTF-8"?>
<svg width="24px" height="24px" viewBox="0 0 24 24" version="1.1" xmlns="http://www.w3.org/2000/svg" xmlns:xlink="http://www.w3.org/1999/xlink">
    <!-- Generator: Sketch 52.5 (67469) - http://www.bohemiancoding.com/sketch -->
    <title>teeth</title>
    <desc>Created with Sketch.</desc>
    <defs>
        <path d="M19,3.99999996 L4.99999996,3.99999996 C3.34312496,3.99999996 1.99999995,5.34312497 1.99999995,6.99999997 L1.99999995,17 C1.99999995,18.656875 3.34312496,20 4.99999996,20 L19,20 C20.656875,20 22.0000001,18.656875 22.0000001,17 L22.0000001,6.99999997 C22.0000001,5.34312497 20.656875,3.99999996 19,3.99999996 Z M6.99999997,15.5 C6.99999997,16.3284375 6.32843747,17 5.49999997,17 C4.67156246,17 3.99999996,16.3284375 3.99999996,15.5 L3.99999996,13.5 C3.99999996,13.22375 4.22374996,13 4.49999996,13 L6.49999997,13 C6.77624997,13 6.99999997,13.22375 6.99999997,13.5 L6.99999997,15.5 Z M6.99999997,11.5 C6.99999997,11.77625 6.77624997,12 6.49999997,12 L4.49999996,12 C4.22374996,12 3.99999996,11.77625 3.99999996,11.5 L3.99999996,9.49999999 C3.99999996,8.67156248 4.67156246,7.99999998 5.49999997,7.99999998 C6.32843747,7.99999998 6.99999997,8.67156248 6.99999997,9.49999999 L6.99999997,11.5 Z M11.5,15.25 C11.5,16.2165625 10.7165625,17 9.74999999,17 C8.78343748,17 7.99999998,16.2165625 7.99999998,15.25 L7.99999998,13.5 C7.99999998,13.22375 8.22374998,13 8.49999998,13 L11,13 C11.27625,13 11.5,13.22375 11.5,13.5 L11.5,15.25 Z M11.5,11.5 C11.5,11.77625 11.27625,12 11,12 L8.49999998,12 C8.22374998,12 7.99999998,11.77625 7.99999998,11.5 L7.99999998,8.74999998 C7.99999998,7.78343748 8.78343748,6.99999997 9.74999999,6.99999997 C10.7165625,6.99999997 11.5,7.78343748 11.5,8.74999998 L11.5,11.5 Z M16,15.25 C16,16.2165625 15.2165625,17 14.25,17 C13.2834375,17 12.5,16.2165625 12.5,15.25 L12.5,13.5 C12.5,13.22375 12.72375,13 13,13 L15.5,13 C15.77625,13 16,13.22375 16,13.5 L16,15.25 Z M16,11.5 C16,11.77625 15.77625,12 15.5,12 L13,12 C12.72375,12 12.5,11.77625 12.5,11.5 L12.5,8.74999998 C12.5,7.78343748 13.2834375,6.99999997 14.25,6.99999997 C15.2165625,6.99999997 16,7.78343748 16,8.74999998 L16,11.5 Z M20,15.5 C20,16.3284375 19.3284375,17 18.5,17 C17.6715625,17 17,16.3284375 17,15.5 L17,13.5 C17,13.22375 17.22375,13 17.5,13 L19.5,13 C19.77625,13 20,13.22375 20,13.5 L20,15.5 Z M20,11.5 C20,11.77625 19.77625,12 19.5,12 L17.5,12 C17.22375,12 17,11.77625 17,11.5 L17,9.49999999 C17,8.67156248 17.6715625,7.99999998 18.5,7.99999998 C19.3284375,7.99999998 20,8.67156248 20,9.49999999 L20,11.5 Z" id="path-1"></path>
    </defs>
    <g id="teeth" stroke="none" stroke-width="1" fill="none" fill-rule="evenodd">
        <mask id="mask-2" fill="white">
            <use xlink:href="#path-1"></use>
        </mask>
        <g fill-rule="nonzero"></g>
        <g id="🎨-color" mask="url(#mask-2)" fill="#000000">
            <rect id="🎨-Color" x="0" y="0" width="24" height="24"></rect>
        </g>
    </g>
</svg>