<?xml version="1.0" encoding="UTF-8"?>
<svg width="24px" height="24px" viewBox="0 0 24 24" version="1.1" xmlns="http://www.w3.org/2000/svg" xmlns:xlink="http://www.w3.org/1999/xlink">
    <!-- Generator: Sketch 52.5 (67469) - http://www.bohemiancoding.com/sketch -->
    <title>telegram</title>
    <desc>Created with Sketch.</desc>
    <defs>
        <path d="M12,2.31249995 C6.64843747,2.31249995 2.31249995,6.64843747 2.31249995,12 C2.31249995,17.3515625 6.64843747,21.6875 12,21.6875 C17.3515625,21.6875 21.6875,17.3515625 21.6875,12 C21.6875,6.64843747 17.3515625,2.31249995 12,2.31249995 Z M16.7578125,8.94921873 L15.1679688,16.4414063 C15.0507813,16.9726563 14.734375,17.1015625 14.2929688,16.8515625 L11.8710937,15.0664063 L10.703125,16.1914063 C10.5742187,16.3203125 10.4648437,16.4296875 10.2148437,16.4296875 L10.3867187,13.9648438 L14.875,9.91015624 C15.0703125,9.73828124 14.8320313,9.64062499 14.5742188,9.81249999 L9.02734374,13.3046875 L6.63671872,12.5585938 C6.11718747,12.3945313 6.10546872,12.0390625 6.74609372,11.7890625 L16.0859375,8.18749998 C16.5195313,8.03124998 16.8984375,8.29296873 16.7578125,8.94921873 Z" id="path-1"></path>
    </defs>
    <g id="telegram" stroke="none" stroke-width="1" fill="none" fill-rule="evenodd">
        <mask id="mask-2" fill="white">
            <use xlink:href="#path-1"></use>
        </mask>
        <g fill-rule="nonzero"></g>
        <g id="🎨-color" mask="url(#mask-2)" fill="#000000">
            <rect id="🎨-Color" x="0" y="0" width="24" height="24"></rect>
        </g>
    </g>
</svg>