<?xml version="1.0" encoding="UTF-8"?>
<svg width="24px" height="24px" viewBox="0 0 24 24" version="1.1" xmlns="http://www.w3.org/2000/svg" xmlns:xlink="http://www.w3.org/1999/xlink">
    <!-- Generator: Sketch 52.5 (67469) - http://www.bohemiancoding.com/sketch -->
    <title>temperature-low</title>
    <desc>Created with Sketch.</desc>
    <defs>
        <path d="M18.25,1.99999995 C16.1835938,1.99999995 14.5,3.68359371 14.5,5.74999997 C14.5,7.81640623 16.1835938,9.49999999 18.25,9.49999999 C20.3164063,9.49999999 22.0000001,7.81640623 22.0000001,5.74999997 C22.0000001,3.68359371 20.3164063,1.99999995 18.25,1.99999995 Z M18.25,6.99999997 C17.5585938,6.99999997 17,6.44140622 17,5.74999997 C17,5.05859372 17.5585938,4.49999996 18.25,4.49999996 C18.9414063,4.49999996 19.5,5.05859372 19.5,5.74999997 C19.5,6.44140622 18.9414063,6.99999997 18.25,6.99999997 Z M12,6.37499997 C12,3.95703121 10.0429687,1.99999995 7.62499998,1.99999995 C5.20703122,1.99999995 3.24999996,3.95703121 3.24999996,6.37499997 L3.24999996,12.8789063 C2.4804687,13.84375 1.99999995,15.046875 1.99999995,16.375 C1.99999995,19.4804688 4.51953121,22.0000001 7.62499998,22.0000001 C10.7304687,22.0000001 13.25,19.4804688 13.25,16.375 C13.25,15.046875 12.7695313,13.8398438 12,12.8789063 L12,6.37499997 Z M7.62499998,19.5 C5.90234372,19.5 4.49999996,18.0976563 4.49999996,16.375 C4.49999996,15.3789063 4.97656246,14.4648438 5.74999997,13.8828125 L5.74999997,6.37499997 C5.74999997,5.33984372 6.58984372,4.49999996 7.62499998,4.49999996 C8.66015623,4.49999996 9.49999999,5.33984372 9.49999999,6.37499997 L9.49999999,13.8828125 C10.2734375,14.4609375 10.75,15.3789063 10.75,16.375 C10.75,18.0976563 9.34765624,19.5 7.62499998,19.5 Z M8.24999998,14.6132813 L8.24999998,13.875 C8.24999998,13.53125 7.96874998,13.25 7.62499998,13.25 C7.28124998,13.25 6.99999997,13.53125 6.99999997,13.875 L6.99999997,14.6132813 C6.27343747,14.8710938 5.74999997,15.5585938 5.74999997,16.375 C5.74999997,17.4101563 6.58984372,18.25 7.62499998,18.25 C8.66015623,18.25 9.49999999,17.4101563 9.49999999,16.375 C9.49999999,15.5585938 8.97656248,14.8710938 8.24999998,14.6132813 Z" id="path-1"></path>
    </defs>
    <g id="temperature-low" stroke="none" stroke-width="1" fill="none" fill-rule="evenodd">
        <mask id="mask-2" fill="white">
            <use xlink:href="#path-1"></use>
        </mask>
        <g fill-rule="nonzero"></g>
        <g id="🎨-color" mask="url(#mask-2)" fill="#000000">
            <rect id="🎨-Color" x="0" y="0" width="24" height="24"></rect>
        </g>
    </g>
</svg>