<?xml version="1.0" encoding="UTF-8"?>
<svg width="24px" height="24px" viewBox="0 0 24 24" version="1.1" xmlns="http://www.w3.org/2000/svg" xmlns:xlink="http://www.w3.org/1999/xlink">
    <!-- Generator: Sketch 52.5 (67469) - http://www.bohemiancoding.com/sketch -->
    <title>tencent-weibo</title>
    <desc>Created with Sketch.</desc>
    <defs>
        <path d="M7.33333331,21.3294347 C7.38791421,22.1052632 6.25730991,22.1949318 6.17543857,21.4424952 C5.72319685,16.3781677 7.38791421,12.1052632 10.128655,9.2319688 C9.52046782,7.90643273 10.4873294,6.22612083 12.1013645,6.22612083 C13.2826511,6.22612083 14.2495127,7.18518516 14.2495127,8.37426899 C14.2495127,10.0896686 12.3196881,11.1345029 10.8615984,10.1325536 C8.30019491,12.9122807 6.90838204,16.7524367 7.33333331,21.3294347 Z M12,2.00389859 C7.09161791,2.00389859 4.03508768,7.23586742 6.21832356,11.4502924 C6.55750485,12.128655 7.59454189,11.625731 7.24366469,10.9278752 C5.43859646,7.31773877 8.06237815,3.16179333 12,3.16179333 C14.9395712,3.16179333 17.337232,5.55555552 17.337232,8.49902532 C17.337232,12.0389864 13.9493177,14.4990254 10.7992203,13.6881092 C10.0545809,13.5282651 9.80116958,14.6393762 10.5419103,14.8226121 C14.8576998,15.7270955 18.4951267,12.4834308 18.4951267,8.49512669 C18.4951267,4.91228067 15.5867447,2.00389859 12,2.00389859 Z" id="path-1"></path>
    </defs>
    <g id="tencent-weibo" stroke="none" stroke-width="1" fill="none" fill-rule="evenodd">
        <mask id="mask-2" fill="white">
            <use xlink:href="#path-1"></use>
        </mask>
        <g fill-rule="nonzero"></g>
        <g id="🎨-color" mask="url(#mask-2)" fill="#000000">
            <rect id="🎨-Color" x="0" y="0" width="24" height="24"></rect>
        </g>
    </g>
</svg>