<?xml version="1.0" encoding="UTF-8"?>
<svg width="24px" height="24px" viewBox="0 0 24 24" version="1.1" xmlns="http://www.w3.org/2000/svg" xmlns:xlink="http://www.w3.org/1999/xlink">
    <!-- Generator: Sketch 52.5 (67469) - http://www.bohemiancoding.com/sketch -->
    <title>terminal</title>
    <desc>Created with Sketch.</desc>
    <defs>
        <path d="M10.0805304,12.5295164 L4.01678623,18.5932606 C3.72433693,18.8857099 3.25020276,18.8857099 2.95778467,18.5932606 L2.25051477,17.8860219 C1.95856469,17.5940718 1.95800307,17.1209049 2.24926672,16.8282684 L7.05494537,12 L2.24929792,7.17176285 C1.95803427,6.87912634 1.95859589,6.40595941 2.25054597,6.11400933 L2.95778467,5.40677064 C3.25023397,5.11432134 3.72436813,5.11432134 4.01678623,5.40677064 L10.0805304,11.4705148 C10.3729797,11.7629329 10.3729797,12.2370671 10.0805304,12.5295164 Z M22.0000001,18.2402496 L22.0000001,17.2418097 C22.0000001,16.8282372 21.6647426,16.4929797 21.2511701,16.4929797 L11.7659906,16.4929797 C11.3524181,16.4929797 11.0171607,16.8282372 11.0171607,17.2418097 L11.0171607,18.2402496 C11.0171607,18.6538222 11.3524181,18.9890796 11.7659906,18.9890796 L21.2511701,18.9890796 C21.6647426,18.9890796 22.0000001,18.6538222 22.0000001,18.2402496 Z" id="path-1"></path>
    </defs>
    <g id="terminal" stroke="none" stroke-width="1" fill="none" fill-rule="evenodd">
        <mask id="mask-2" fill="white">
            <use xlink:href="#path-1"></use>
        </mask>
        <g fill-rule="nonzero"></g>
        <g id="🎨-color" mask="url(#mask-2)" fill="#000000">
            <rect id="🎨-Color" x="0" y="0" width="24" height="24"></rect>
        </g>
    </g>
</svg>