<?xml version="1.0" encoding="UTF-8"?>
<svg width="24px" height="24px" viewBox="0 0 24 24" version="1.1" xmlns="http://www.w3.org/2000/svg" xmlns:xlink="http://www.w3.org/1999/xlink">
    <!-- Generator: Sketch 52.5 (67469) - http://www.bohemiancoding.com/sketch -->
    <title>text-height</title>
    <desc>Created with Sketch.</desc>
    <defs>
        <path d="M2.55555551,4.22222218 L12.5555556,4.22222218 C12.8623958,4.22222218 13.1111111,4.47093746 13.1111111,4.77777774 L13.1111111,8.11111109 C13.1111111,8.41795137 12.8623958,8.66666665 12.5555556,8.66666665 L11.3230556,8.66666665 C11.0162153,8.66666665 10.7675,8.41795137 10.7675,8.11111109 L10.7675,6.44444442 L8.86607637,6.44444442 L8.86607637,17.5555556 L10.0555555,17.5555556 C10.3623958,17.5555556 10.6111111,17.8042709 10.6111111,18.1111111 L10.6111111,19.2222223 C10.6111111,19.5290625 10.3623958,19.7777778 10.0555555,19.7777778 L5.05555552,19.7777778 C4.74871524,19.7777778 4.49999996,19.5290625 4.49999996,19.2222223 L4.49999996,18.1111111 C4.49999996,17.8042709 4.74871524,17.5555556 5.05555552,17.5555556 L6.24503469,17.5555556 L6.24503469,6.44444442 L4.34361107,6.44444442 L4.34361107,8.11111109 C4.34361107,8.41795137 4.09489579,8.66666665 3.78805551,8.66666665 L2.55555551,8.66666665 C2.24871523,8.66666665 1.99999995,8.41795137 1.99999995,8.11111109 L1.99999995,4.77777774 C1.99999995,4.47093746 2.24871523,4.22222218 2.55555551,4.22222218 Z M19.0593056,4.3848958 L21.8369098,7.16270831 C22.1843403,7.51017359 21.9408681,8.11111109 21.4440973,8.11111109 L19.7777778,8.11111109 L19.7777778,15.8888889 L21.4444445,15.8888889 C21.9874653,15.8888889 22.1609376,16.5135764 21.837257,16.8372917 L19.0596528,19.6151042 C18.8427431,19.8320139 18.4908681,19.8319445 18.2740278,19.6151042 L15.4964236,16.8372917 C15.1489931,16.4898264 15.3924653,15.8888889 15.8892361,15.8888889 L17.5555556,15.8888889 L17.5555556,8.11111109 L15.8888889,8.11111109 C15.3458681,8.11111109 15.1723958,7.48642359 15.4960764,7.16270831 L18.2736806,4.3848958 C18.4905903,4.16795135 18.8424653,4.16805552 19.0593056,4.3848958 Z" id="path-1"></path>
    </defs>
    <g id="text-height" stroke="none" stroke-width="1" fill="none" fill-rule="evenodd">
        <mask id="mask-2" fill="white">
            <use xlink:href="#path-1"></use>
        </mask>
        <g fill-rule="nonzero"></g>
        <g id="🎨-color" mask="url(#mask-2)" fill="#000000">
            <rect id="🎨-Color" x="0" y="0" width="24" height="24"></rect>
        </g>
    </g>
</svg>