<?xml version="1.0" encoding="UTF-8"?>
<svg width="24px" height="24px" viewBox="0 0 24 24" version="1.1" xmlns="http://www.w3.org/2000/svg" xmlns:xlink="http://www.w3.org/1999/xlink">
    <!-- Generator: Sketch 52.5 (67469) - http://www.bohemiancoding.com/sketch -->
    <title>text-width</title>
    <desc>Created with Sketch.</desc>
    <defs>
        <path d="M3.87499996,3.24999996 L20.125,3.24999996 C20.4701954,3.24999996 20.75,3.52980465 20.75,3.87499996 L20.75,7.62499998 C20.75,7.97019529 20.4701954,8.24999998 20.125,8.24999998 L18.7384375,8.24999998 C18.3932422,8.24999998 18.1134375,7.97019529 18.1134375,7.62499998 L18.1134375,5.74999997 L13.4743359,5.74999997 L13.4743359,10.75 L14.8125,10.75 C15.1576953,10.75 15.4375,11.0298047 15.4375,11.375 L15.4375,12.625 C15.4375,12.9701953 15.1576953,13.25 14.8125,13.25 L9.18749999,13.25 C8.84230467,13.25 8.56249998,12.9701953 8.56249998,12.625 L8.56249998,11.375 C8.56249998,11.0298047 8.84230467,10.75 9.18749999,10.75 L10.5256641,10.75 L10.5256641,5.74999997 L5.88656247,5.74999997 L5.88656247,7.62499998 C5.88656247,7.97019529 5.60675778,8.24999998 5.26156247,8.24999998 L3.87499996,8.24999998 C3.52980465,8.24999998 3.24999996,7.97019529 3.24999996,7.62499998 L3.24999996,3.87499996 C3.24999996,3.52980465 3.52980465,3.24999996 3.87499996,3.24999996 Z M20.5669922,16.5578906 L17.4419532,13.4330859 C17.0777735,13.0689453 16.375,13.2641406 16.375,13.875 L16.375,15.75 L7.62499998,15.75 L7.62499998,13.8753906 C7.62499998,13.3165234 6.94894529,13.0426172 6.55804685,13.4334766 L3.43300777,16.5582813 C3.18906246,16.8022266 3.18898433,17.198086 3.43300777,17.4421094 L6.55804685,20.5669141 C6.92222654,20.9310547 7.62499998,20.7358594 7.62499998,20.125 L7.62499998,18.25 L16.375,18.25 L16.375,20.1246094 C16.375,20.6834766 17.0510547,20.9573829 17.4419532,20.5665235 L20.5669922,17.4417188 C20.8109375,17.1977735 20.8110547,16.8019141 20.5669922,16.5578906 Z" id="path-1"></path>
    </defs>
    <g id="text-width" stroke="none" stroke-width="1" fill="none" fill-rule="evenodd">
        <mask id="mask-2" fill="white">
            <use xlink:href="#path-1"></use>
        </mask>
        <g fill-rule="nonzero"></g>
        <g id="🎨-color" mask="url(#mask-2)" fill="#000000">
            <rect id="🎨-Color" x="0" y="0" width="24" height="24"></rect>
        </g>
    </g>
</svg>