<?xml version="1.0" encoding="UTF-8"?>
<svg width="24px" height="24px" viewBox="0 0 24 24" version="1.1" xmlns="http://www.w3.org/2000/svg" xmlns:xlink="http://www.w3.org/1999/xlink">
    <!-- Generator: Sketch 52.5 (67469) - http://www.bohemiancoding.com/sketch -->
    <title>th-large</title>
    <desc>Created with Sketch.</desc>
    <defs>
        <path d="M13.5625,3.24999996 L21.0625,3.24999996 C21.5802735,3.24999996 22.0000001,3.66972652 22.0000001,4.18749996 L22.0000001,10.4375 C22.0000001,10.9552734 21.5802735,11.375 21.0625,11.375 L13.5625,11.375 C13.0447266,11.375 12.625,10.9552734 12.625,10.4375 L12.625,4.18749996 C12.625,3.66972652 13.0447266,3.24999996 13.5625,3.24999996 Z M10.4375,3.24999996 L2.93749995,3.24999996 C2.41972651,3.24999996 1.99999995,3.66972652 1.99999995,4.18749996 L1.99999995,10.4375 C1.99999995,10.9552734 2.41972651,11.375 2.93749995,11.375 L10.4375,11.375 C10.9552734,11.375 11.375,10.9552734 11.375,10.4375 L11.375,4.18749996 C11.375,3.66972652 10.9552734,3.24999996 10.4375,3.24999996 Z M1.99999995,13.5625 L1.99999995,19.8125 C1.99999995,20.3302735 2.41972651,20.75 2.93749995,20.75 L10.4375,20.75 C10.9552734,20.75 11.375,20.3302735 11.375,19.8125 L11.375,13.5625 C11.375,13.0447266 10.9552734,12.625 10.4375,12.625 L2.93749995,12.625 C2.41972651,12.625 1.99999995,13.0447266 1.99999995,13.5625 Z M13.5625,20.75 L21.0625,20.75 C21.5802735,20.75 22.0000001,20.3302735 22.0000001,19.8125 L22.0000001,13.5625 C22.0000001,13.0447266 21.5802735,12.625 21.0625,12.625 L13.5625,12.625 C13.0447266,12.625 12.625,13.0447266 12.625,13.5625 L12.625,19.8125 C12.625,20.3302735 13.0447266,20.75 13.5625,20.75 Z" id="path-1"></path>
    </defs>
    <g id="th-large" stroke="none" stroke-width="1" fill="none" fill-rule="evenodd">
        <mask id="mask-2" fill="white">
            <use xlink:href="#path-1"></use>
        </mask>
        <g fill-rule="nonzero"></g>
        <g id="🎨-color" mask="url(#mask-2)" fill="#000000">
            <rect id="🎨-Color" x="0" y="0" width="24" height="24"></rect>
        </g>
    </g>
</svg>