<?xml version="1.0" encoding="UTF-8"?>
<svg width="24px" height="24px" viewBox="0 0 24 24" version="1.1" xmlns="http://www.w3.org/2000/svg" xmlns:xlink="http://www.w3.org/1999/xlink">
    <!-- Generator: Sketch 52.5 (67469) - http://www.bohemiancoding.com/sketch -->
    <title>th</title>
    <desc>Created with Sketch.</desc>
    <defs>
        <path d="M7.83332029,4.18749996 L7.83332029,7.31249998 C7.83332029,7.83027342 7.41359373,8.24999998 6.89582029,8.24999998 L2.93749995,8.24999998 C2.41972651,8.24999998 1.99999995,7.83027342 1.99999995,7.31249998 L1.99999995,4.18749996 C1.99999995,3.66972652 2.41972651,3.24999996 2.93749995,3.24999996 L6.89582029,3.24999996 C7.41359373,3.24999996 7.83332029,3.66972652 7.83332029,4.18749996 Z M14.9166797,13.5625 L14.9166797,10.4375 C14.9166797,9.91972655 14.4969531,9.49999999 13.9791797,9.49999999 L10.0208203,9.49999999 C9.50304686,9.49999999 9.0833203,9.91972655 9.0833203,10.4375 L9.0833203,13.5625 C9.0833203,14.0802734 9.50304686,14.5 10.0208203,14.5 L13.9791406,14.5 C14.4969531,14.5 14.9166797,14.0802734 14.9166797,13.5625 Z M16.1666797,4.18749996 L16.1666797,7.31249998 C16.1666797,7.83027342 16.5864063,8.24999998 17.1041797,8.24999998 L21.0625,8.24999998 C21.5802735,8.24999998 22.0000001,7.83027342 22.0000001,7.31249998 L22.0000001,4.18749996 C22.0000001,3.66972652 21.5802735,3.24999996 21.0625,3.24999996 L17.1041797,3.24999996 C16.5864063,3.24999996 16.1666797,3.66972652 16.1666797,4.18749996 Z M14.9166797,7.31249998 L14.9166797,4.18749996 C14.9166797,3.66972652 14.4969531,3.24999996 13.9791797,3.24999996 L10.0208203,3.24999996 C9.50304686,3.24999996 9.0833203,3.66972652 9.0833203,4.18749996 L9.0833203,7.31249998 C9.0833203,7.83027342 9.50304686,8.24999998 10.0208203,8.24999998 L13.9791406,8.24999998 C14.4969531,8.24999998 14.9166797,7.83027342 14.9166797,7.31249998 Z M6.89582029,9.49999999 L2.93749995,9.49999999 C2.41972651,9.49999999 1.99999995,9.91972655 1.99999995,10.4375 L1.99999995,13.5625 C1.99999995,14.0802734 2.41972651,14.5 2.93749995,14.5 L6.89582029,14.5 C7.41359373,14.5 7.83332029,14.0802734 7.83332029,13.5625 L7.83332029,10.4375 C7.83332029,9.91972655 7.41359373,9.49999999 6.89582029,9.49999999 Z M1.99999995,16.6875 L1.99999995,19.8125 C1.99999995,20.3302735 2.41972651,20.75 2.93749995,20.75 L6.89582029,20.75 C7.41359373,20.75 7.83332029,20.3302735 7.83332029,19.8125 L7.83332029,16.6875 C7.83332029,16.1697266 7.41359373,15.75 6.89582029,15.75 L2.93749995,15.75 C2.41972651,15.75 1.99999995,16.1697266 1.99999995,16.6875 Z M17.1041797,14.5 L21.0625,14.5 C21.5802735,14.5 22.0000001,14.0802734 22.0000001,13.5625 L22.0000001,10.4375 C22.0000001,9.91972655 21.5802735,9.49999999 21.0625,9.49999999 L17.1041797,9.49999999 C16.5864063,9.49999999 16.1666797,9.91972655 16.1666797,10.4375 L16.1666797,13.5625 C16.1666797,14.0802734 16.5864063,14.5 17.1041797,14.5 Z M17.1041797,20.75 L21.0625,20.75 C21.5802735,20.75 22.0000001,20.3302735 22.0000001,19.8125 L22.0000001,16.6875 C22.0000001,16.1697266 21.5802735,15.75 21.0625,15.75 L17.1041797,15.75 C16.5864063,15.75 16.1666797,16.1697266 16.1666797,16.6875 L16.1666797,19.8125 C16.1666797,20.3302735 16.5864063,20.75 17.1041797,20.75 Z M9.0833203,16.6875 L9.0833203,19.8125 C9.0833203,20.3302735 9.50304686,20.75 10.0208203,20.75 L13.9791406,20.75 C14.4969141,20.75 14.9166406,20.3302735 14.9166406,19.8125 L14.9166406,16.6875 C14.9166406,16.1697266 14.4969141,15.75 13.9791406,15.75 L10.0208203,15.75 C9.50304686,15.75 9.0833203,16.1697266 9.0833203,16.6875 Z" id="path-1"></path>
    </defs>
    <g id="th" stroke="none" stroke-width="1" fill="none" fill-rule="evenodd">
        <mask id="mask-2" fill="white">
            <use xlink:href="#path-1"></use>
        </mask>
        <g fill-rule="nonzero"></g>
        <g id="🎨-color" mask="url(#mask-2)" fill="#000000">
            <rect id="🎨-Color" x="0" y="0" width="24" height="24"></rect>
        </g>
    </g>
</svg>