<?xml version="1.0" encoding="UTF-8"?>
<svg width="24px" height="24px" viewBox="0 0 24 24" version="1.1" xmlns="http://www.w3.org/2000/svg" xmlns:xlink="http://www.w3.org/1999/xlink">
    <!-- Generator: Sketch 52.5 (67469) - http://www.bohemiancoding.com/sketch -->
    <title>the-red-yeti</title>
    <desc>Created with Sketch.</desc>
    <defs>
        <path d="M21.0589844,11.4429687 L21.8660157,11.7214844 C21.4925782,10.7875 20.93125,10.2777344 20.6269532,9.97304686 L20.9054688,9.26210936 C20.9152344,9.26210936 21.3851563,8.17656248 20.809375,8.06132811 C20.7847657,7.61796873 20.5519532,7.00468748 20.0890625,7.00468748 C19.7914063,6.59179685 19.3972657,6.52421872 18.8882813,6.77421872 C18.5425782,6.93749997 18.1964844,7.16796873 17.8988282,7.41796873 C17.6917969,7.16640623 17.7835938,7.43281248 17.7835938,6.25546872 C16.3351563,5.30703122 16.0101563,5.79726559 14.8632813,6.3707031 L14.8824219,6.38984372 C14.05625,6.09218747 13.1628906,5.91914059 12.2121094,5.87109372 C11.9953125,5.53085934 11.4855469,5.12499997 11.2324219,4.89140621 L12.2027344,5.16992184 C11.9882812,4.95546871 11.1566406,4.66562496 10.8675781,4.57421871 C11.5785156,4.41367184 12.0308594,3.76289058 12.5292969,3.28710933 C11.1652344,2.89335933 9.87812499,3.05664058 8.70585936,3.74804683 L9.16679686,2.01874995 L9.09921874,1.99999995 C7.86484373,2.94374995 7.81054685,3.63671871 7.7832031,3.77695308 C7.74765623,3.68359371 7.5363281,3.01093746 7.18749998,2.72031245 C7.05312498,3.06601558 7.05312498,3.39257808 7.16835935,3.70976558 C7.28359373,4.03632809 7.3988281,4.28632809 7.49492185,4.44960934 C6.86835935,4.32070309 6.38749997,4.25820309 5.57382809,4.44960934 L5.42968747,4.44960934 L6.71679685,5.00664059 C5.90976559,5.76562497 5.31445309,6.63984372 4.89179684,7.63867185 L4.82460934,7.96523435 L4.89179684,8.03242186 L5.18945309,7.84999998 C5.05937497,8.30468748 4.98359371,8.60742186 4.93007809,8.85859373 C4.48828121,9.35820311 4.13281246,9.87695311 3.84453121,10.4339844 C3.25976558,10.4730469 2.60156245,10.8550781 2.26914058,10.9910156 L2.38437495,11.1253906 L3.50820308,11.1636719 C3.48906246,11.2019531 3.47929683,11.25 3.46015621,11.2886719 C3.17539058,11.5378906 1.90624995,12.759375 2.17304683,14.4394531 L2.96093745,13.5652344 C2.98007808,13.6324219 2.9898437,13.6996094 3.00898433,13.7667969 C3.00898433,14.7640625 3.02343746,17.2683594 5.54492184,19.6457032 C7.2550781,21.2121094 9.30117186,22.0000001 11.7027344,22.0000001 C16.4578125,22.0000001 20.415625,18.5902344 20.415625,13.7386719 C20.68125,13.3589844 20.3671875,13.8570313 21.06875,12.7589844 L21.5777344,13.3160156 L21.6738282,13.296875 C21.6066407,12.8550781 21.4914063,12.4226563 21.328125,11.9617187 C21.2414063,11.7117187 21.1453125,11.5582031 21.0589844,11.4429687 Z M20.4539063,9.82890624 L19.896875,9.36796874 L20.6078125,9.31992186 L20.4539063,9.82890624 Z M17.5335938,6.34179685 L17.5144532,7.19687498 C17.7300782,7.9050781 18.1738282,7.8691406 18.3886719,7.8691406 L18.2542969,7.68671873 L19.1285157,7.4753906 C18.7347657,7.49453123 18.3886719,7.49453123 18.071875,7.4753906 C18.5722657,7.39218748 19.3734375,6.34140622 19.753125,7.03359373 C19.8875,7.33124998 20.0027344,7.70585935 20.1179688,8.11914061 L20.1851563,7.88867185 C20.1371094,7.7253906 20.1179688,7.5238281 20.1179688,7.29296873 C20.3292969,7.31210935 20.4636719,7.42734373 20.4828125,7.68671873 C20.5019532,7.9363281 20.55,8.26328123 20.6171875,8.67617186 L20.7996094,8.23437498 C20.9789063,8.23437498 20.9742188,8.09335936 20.7035157,9.04140624 C19.8875,8.70156248 19.3328125,8.71484373 18.8878907,8.71484373 L19.5988282,8.09062498 C18.6113282,8.40898436 18.3085938,8.51249998 17.4566407,8.90703123 C17.4144532,8.69570311 17.2621094,8.37968748 16.8324219,8.12890623 C16.7082031,8.27812498 16.7246094,8.16406248 16.8035156,8.70546873 L16.7074219,8.70546873 C16.659375,8.37890623 16.5441406,8.08124998 16.3808594,7.80234373 L16.5441406,7.66796873 C16.8707031,7.3894531 17.0050782,7.11093748 16.9570313,6.8128906 C16.9378906,6.56328122 16.7457031,6.28437497 16.4285156,6.00585935 C16.6496094,5.88085934 17.0242188,5.99609372 17.5335938,6.34179685 Z M15.9871094,5.94804684 C16.0921875,6.02304685 16.4324219,6.1582031 16.7269531,6.62031247 C16.8910156,6.94843747 16.8824219,7.0035156 16.8613281,7.05273435 C16.8425781,7.14687498 16.8433594,7.22187498 16.7460938,7.33124998 C16.6789063,7.42734373 16.5347656,7.51367185 16.2851563,7.62890623 C15.9875,7.11992185 15.6414063,6.7066406 15.1996094,6.40898435 L15.9871094,5.94804684 Z M5.54492184,7.59062498 L5.59296872,7.52343748 C5.64101559,7.4082031 5.75624997,7.22578123 5.95781247,6.92773435 L6.05390622,6.79335935 L5.54492184,7.2738281 L5.75624997,7.09140623 L5.36249997,7.45624998 L5.19921872,7.50429685 C5.67968747,6.5628906 6.10234372,5.89062497 6.46718747,5.54453122 C6.83203122,5.17968747 7.09140623,4.92031246 7.2550781,4.78554684 L7.00546873,4.83359371 C6.56367185,4.67031246 6.24648435,4.55507809 6.03515622,4.50703121 C6.13124997,4.48789059 6.17929685,4.48789059 6.16015622,4.48789059 C6.56367185,4.48789059 6.84218747,4.50703121 6.97656247,4.53593746 C7.1878906,4.60312496 7.3894531,4.63203121 7.60078123,4.63203121 L7.61992185,4.56484371 L7.29335935,3.16249996 L7.82187498,4.29609371 C7.88906248,4.19999996 7.98515623,4.01757809 8.05234373,3.73906246 C8.11953123,3.48945308 8.26367186,3.23007808 8.44609373,2.98007808 C8.62851561,2.7304687 8.74374998,2.56718745 8.81093748,2.5382812 C8.69570311,2.88398433 8.62851561,3.21054683 8.56132811,3.52773433 L8.49414061,3.80624996 L8.47499998,3.98867183 L8.57109373,4.08476559 C9.42617186,3.55624996 10.3480469,3.32578121 11.3570312,3.34492183 L12.1832031,3.36406246 C11.7222656,3.89257808 11.0976562,4.21914059 10.290625,4.33437496 C9.95429686,4.39218746 9.65664061,4.43046871 9.37812499,4.44960934 L9.36835936,4.43046871 L9.27226561,4.38242184 C9.07070311,4.34414059 8.88789061,4.37265621 8.72460936,4.45937496 C8.62851561,4.44960934 8.53242186,4.44023434 8.44609373,4.43046871 L8.34999998,4.49765621 L8.36914061,4.54570309 C8.44609373,4.55546871 8.52265623,4.56484371 8.60937498,4.57460934 L8.53242186,4.70898434 L8.66679686,4.68984371 L8.25390623,5.13164059 C8.09062498,5.24687497 8.04257811,5.38124997 8.09062498,5.49648434 L8.30195311,5.36210934 L8.34999998,5.36210934 C8.59960936,5.03554684 8.94570311,4.83359371 9.33945311,4.76640621 L9.33945311,4.65117184 C9.58906249,4.67031246 9.84843749,4.68945309 10.0984375,4.69921871 C10.3480469,4.69921871 10.425,4.71835934 10.3097656,4.74726559 C10.6074219,4.91054684 10.8667969,5.09296872 11.1167969,5.27578122 C11.6453125,5.66953122 12.0390625,6.13085935 12.2886719,6.65898435 C12.634375,7.36992185 12.8171875,8.10937498 12.8171875,8.86835936 C12.8171875,9.26210936 12.7691406,9.62734374 12.7019531,9.97304686 C12.6101563,10.3945312 12.3972656,11.1300781 12.0777344,11.7695312 L12.1738281,11.7886719 C12.8859375,11.0203125 13.8105469,11.1644531 14.0949219,11.1644531 L13.8453125,11.3949219 L14.7195313,12.0867188 L14.6523438,13.2875 C14.4410156,12.8070313 14.0085938,12.4613281 13.3652344,12.2019531 C14.0089844,12.7785156 14.2875,13.028125 14.2203125,12.9898438 C14.0324219,12.8800781 14.0824219,12.9167969 13.7976563,12.8457031 C13.9585938,13.0066406 14.4792969,13.5796875 14.5085938,13.6527344 L14.5183594,13.6625 L14.5085938,13.6722656 C14.5085938,13.7410156 14.5695313,13.6261719 13.9609375,14.565625 C11.0253906,13.9675781 9.81015624,12.8960938 8.44687498,12.096875 L8.90781248,12.1449219 C8.44882811,11.4210937 8.29726561,11.4527344 7.40937498,11.1265625 L7.8222656,10.8 C7.47656248,10.6847656 7.1113281,10.6847656 6.7175781,10.8191406 L7.01523435,10.40625 L6.96718747,10.3390625 C6.38554685,10.5085937 6.19179685,10.6972656 6.08359372,10.7808594 C6.03906247,10.5675781 5.97539059,10.2949219 5.60312497,9.65703124 L5.55507809,10.7136719 L5.02656247,10.5023437 C5.08398434,9.52148436 5.23749997,8.53203123 5.54492184,7.59062498 Z M16.3421875,20.4824219 C14.3921875,21.4574219 14.1496094,21.3578125 14.0367188,21.4140625 C12.8742188,20.953125 12.0484375,20.175 11.5582031,19.1183594 L12.7300781,19.7621094 C12.3484375,19.3984375 12.0136719,19.1160157 11.2316406,18.0328125 L11.6925781,18.9359375 L11.0007812,18.6382813 C11.5554687,19.4617188 11.9175781,20.659375 13.6039063,21.5105469 C8.88632811,22.4539063 5.82929684,18.69375 5.75585934,18.609375 C6.19765622,18.9742188 6.65898435,19.3011719 7.13906248,19.5796875 C7.27343748,19.646875 7.4175781,19.6757813 7.53281248,19.6277344 L6.90859372,18.8207032 C7.2691406,18.984375 7.27929685,18.9964844 9.60781249,19.9542969 C7.94609373,19.1472657 6.72578122,18.3597657 5.96718747,17.6007813 C5.94804684,17.8503907 5.91914059,17.9945313 5.91914059,17.9945313 C6.26484372,18.2921875 6.54335935,18.6382813 6.72617185,19.0320313 C5.20078122,18.2957032 4.47656246,17.1722657 3.94023433,15.8042969 C5.88906247,17.9566407 8.58281248,17.26875 8.64726561,17.2546875 C10.00625,17.8964844 11.3765625,18.1769532 13.0949219,17.6675782 C13.2246094,17.6675782 13.8878906,18.3308594 14.084375,19.1949219 L14.2476563,19.0796875 L14.1515625,18.1574219 C14.5011719,18.5070313 15.1242188,19.0386719 15.4964844,18.6664063 C14.8878906,18.4585938 14.5777344,18.2957032 14.34375,17.4273438 C14.5226563,17.5914063 14.6394531,17.7808594 15.4292969,18.0132813 L15.4773438,17.9652344 L15.0644531,17.4082032 C15.5195313,17.21875 14.9261719,17.4476563 16.3132813,16.9855469 C16.4828125,18.3226563 16.6667969,18.9054688 16.3421875,20.4824219 Z M20.8476563,12.1058594 L20.7515625,12.125 L20.8667969,12.4898438 C20.728125,12.7191406 19.9398438,14.21875 18.0714844,15.6023438 C16.5269531,16.7648438 15.0800781,17.1308594 14.9109375,17.1777344 L14.6132813,16.8992188 L14.5652344,17.0144532 L15.1222656,17.6386719 L14.84375,17.45625 L14.978125,17.6195313 L14.9300781,17.6195313 L14.075,17.0910157 L14.4398438,18.1285157 L13.7,17.0429688 L13.6519531,17.1390625 L13.9496094,18.2726563 C13.7109375,17.9507813 13.128125,16.9988281 11.7304687,16.7261719 L12.9984375,17.5523438 C11.7496094,17.7347657 10.5296875,17.6484375 9.35781249,17.3027344 C9.19453124,17.2546875 9.01210936,17.2066407 8.82929686,17.1394532 L8.87734373,17.0242188 L7.12890623,16.15 L8.14726561,17.0242188 C5.89492184,17.3789063 3.73476558,16.0316406 3.20976558,13.7675781 L3.11367183,13.1238281 L2.24062495,13.9980469 C3.00117183,11.7515625 3.24101558,11.7367187 4.24843746,11.2601562 C3.89335933,11.0519531 4.18789059,11.1328125 2.74999995,10.8953125 C3.36640621,10.6691406 4.04101559,10.2921875 5.60312497,11.096875 C5.71835934,11.0390625 5.68671872,11.0539062 5.74726559,11.0296875 C5.77226559,10.9054687 5.76328122,10.9976562 5.78554684,10.56875 C5.93749997,10.9597656 5.92734372,10.9074219 5.90078122,10.9335937 L5.96796872,10.9527344 C6.46367185,10.6992187 6.31640622,10.7761719 6.63085935,10.6070312 L6.41953122,11.1355469 L7.29374998,10.9050781 L6.96718747,11.2316406 L7.06328123,11.3277344 C7.23906248,11.2574219 8.24882811,11.4613281 8.65781248,11.9519531 L7.73554685,11.8558594 C9.27421874,12.7535156 9.74570311,13.9640625 9.91601561,14.5742188 L9.98320311,14.5261719 C9.87226561,13.6558594 9.49999999,13.2027344 9.35898436,12.9605469 C9.52382811,13.1554688 10.8902344,14.3105469 13.6722656,14.7570313 C13.2304688,14.7378906 12.7691406,14.9683594 12.3082031,15.496875 L14.1332031,14.7089844 L13.7683594,15.5640625 C14.0660156,15.1703125 14.3449219,14.6417969 14.5945313,14.0175781 L14.5945313,13.9984375 L14.6425781,13.8832031 L14.5945313,14.5074219 C15.1230469,12.8742188 15.5839844,11.4429687 15.9777344,10.2230469 L16.50625,9.13749999 L16.50625,9.06054686 L16.2949219,8.89726561 L16.6886719,8.89726561 L16.9191406,9.06054686 L17.0152344,9.01249999 L16.8808594,8.38828123 L17.3613282,9.12812499 L18.9945313,8.34023436 L18.4179688,8.84921873 L18.4371094,8.96445311 L19.1289063,8.94531248 C19.5707032,8.96445311 19.9839844,9.01249999 20.4160157,9.10859374 L19.49375,9.20468749 L19.4457032,9.31992186 L20.4832032,10.2230469 C20.8769532,10.6167969 21.2230469,11.0300781 21.5398438,11.471875 C21.1007813,11.3433594 21.1382813,11.3375 20.7136719,11.3375 L21.1941407,12.6054688 L20.8476563,12.1058594 Z M9.99257811,8.62812498 C8.63124998,9.19140624 8.63593748,9.17421874 8.58046873,9.18515624 C7.76679685,9.36992186 7.8394531,8.23046873 7.84062498,8.21484373 L8.07109373,8.16679686 L8.05195311,8.07070311 C7.26406248,7.96718748 6.83984372,8.23359373 6.78398435,8.26289061 C6.80312497,8.28203123 6.89921872,8.39726561 7.0144531,8.62773436 C7.17773435,8.37812498 7.36015623,8.23398436 7.61015623,8.21484373 C7.54296873,8.65664061 7.56210935,9.08906249 7.67734373,9.53085936 C7.6800781,9.55078124 7.77773435,10.2121094 8.75312498,10.4722656 C9.19492186,10.5875 9.80976561,10.5203125 10.6648437,10.2609375 L10.3,10.2800781 C10.1367187,9.70351561 10.0503906,9.30976561 10.0695312,9.12734374 C10.5113281,8.78164061 10.9246094,8.68554686 11.2703125,8.82968748 L11.3664062,8.82968748 L10.9054687,8.53203123 L10.6269531,8.55117186 C10.3964844,8.59921873 10.1464844,8.71445311 9.86796874,8.87773436 L9.99257811,8.62812498 Z M10.425,5.23710934 L10.3289062,5.25624997 L10.3480469,5.37148434 C10.6746094,5.35234372 11.0203125,5.41953122 11.3664062,5.60195309 C11.26875,5.38554684 10.9769531,5.04492184 10.2617187,5.04492184 L10.2808594,5.14101559 L10.425,5.23710934 Z M7.80234373,7.42734373 C7.64453123,7.17929685 7.6816406,7.2300781 7.61992185,7.16796873 C8.46718748,7.82265623 8.26367186,8.00429686 9.43554686,8.09023436 L9.32031249,7.90781248 C9.66601561,7.61015623 9.84882811,7.23554685 9.89687499,6.80312497 C9.96406249,6.17890622 9.84882811,5.65039059 9.55117186,5.18945309 L10.0601562,4.89179684 C10.0601562,4.87265621 10.0601562,4.84374996 10.0410156,4.82460934 C9.85859374,4.75742184 9.67617186,4.77656246 9.51249999,4.89179684 C9.01718749,5.15234372 8.41914061,5.70976559 8.37890623,5.76601559 C8.31171873,5.83320309 8.24453123,5.99648434 8.16757811,6.29453122 C8.10039061,6.57304685 8.05234373,6.87109372 8.05234373,7.21679685 C7.86953123,6.90585935 7.64140623,6.96679685 7.27421873,6.9863281 L7.55273435,7.28398435 C6.90937497,7.28398435 6.64179685,7.88671873 6.63046872,7.9082031 C6.89648435,7.90781248 6.81015622,7.6113281 7.80234373,7.42734373 Z M8.34999998,6.4378906 C8.39804686,6.14023435 8.48437498,5.92890622 8.59960936,5.76562497 C8.81093748,5.51601559 9.01249999,5.37187497 9.22382811,5.30468747 C9.38710936,5.23749997 9.50234374,5.35273434 9.61757811,5.66953122 C9.71367186,5.96718747 9.75195311,6.31328122 9.73281249,6.65898435 C9.71367186,7.0238281 9.59843749,7.33124998 9.40624999,7.56210935 C9.29101561,7.69648435 9.19492186,7.7925781 9.15664061,7.8597656 C8.97421873,7.87890623 8.83007811,7.8597656 8.71484373,7.84062498 L8.43632811,7.70624998 L8.22499998,7.4566406 C8.26367186,7.06249998 8.28281248,6.71679685 8.34999998,6.4378906 Z M10.7996094,5.60234372 C10.55,5.46796872 10.3867187,5.71757809 10.3191406,6.34218747 C10.2515625,6.96679685 10.4152344,7.49492185 10.7800781,7.88867185 C11.1449219,8.28242186 11.4910156,8.30156248 11.7984375,8.00390623 C12.1058594,7.70624998 11.9328125,7.0816406 11.3566406,6.14023435 C11.2320312,5.92890622 11.0492187,5.74648434 10.7996094,5.60234372 Z M10.6171875,7.4082031 C10.8265625,7.49531248 11.0277344,7.48281248 11.0976562,6.99531247 L11.0976562,6.8128906 L11.0496094,6.83203122 C10.8824219,6.7128906 10.95,6.6566406 10.9824219,6.59179685 L11.0015625,6.57265622 C10.9671875,6.52460935 10.8054687,6.25585935 10.5117187,6.7550781 C10.4925781,6.22656247 10.5308594,5.89999997 10.6269531,5.78476559 C10.675,5.68867184 10.809375,5.73671872 11.06875,5.94804684 C11.3183594,6.15937497 11.5105469,6.5722656 11.6644531,7.2160156 C11.921875,8.31210936 10.8949219,8.24179686 10.6171875,7.4082031 Z M8.85898436,7.19687498 C8.92031248,7.20898435 9.22382811,7.15429685 9.22382811,6.62031247 L9.20468749,6.62031247 C8.99218748,6.57773435 9.11718749,6.4066406 9.17578124,6.38984372 C9.10859374,6.27460935 9.04140624,6.22656247 8.96445311,6.20742185 C8.64609373,6.20742185 8.50937498,6.7019531 8.64726561,7.03359373 C8.69570311,7.12968748 8.77265623,7.17773435 8.85898436,7.19687498 Z M10.6554687,9.59843749 C10.7226562,10.0113281 10.8378906,10.2902344 11.0011719,10.4535156 C10.6394531,10.7117187 9.92539061,10.9945312 9.18554686,11.0777344 L9.20468749,11.1257812 C9.53124999,11.1738281 9.84843749,11.1449219 10.175,11.0296875 L9.89648436,11.5386719 C10.0597656,11.4714844 10.2902344,11.2601562 10.5882812,10.9621094 C11.0542969,10.746875 11.0851562,10.7640625 11.3761719,10.3378906 C10.8789062,10.0808594 10.7605469,9.79765624 10.6554687,9.59843749 Z" id="path-1"></path>
    </defs>
    <g id="the-red-yeti" stroke="none" stroke-width="1" fill="none" fill-rule="evenodd">
        <mask id="mask-2" fill="white">
            <use xlink:href="#path-1"></use>
        </mask>
        <g fill-rule="nonzero"></g>
        <g id="🎨-color" mask="url(#mask-2)" fill="#000000">
            <rect id="🎨-Color" x="0" y="0" width="24" height="24"></rect>
        </g>
    </g>
</svg>