<?xml version="1.0" encoding="UTF-8"?>
<svg width="24px" height="24px" viewBox="0 0 24 24" version="1.1" xmlns="http://www.w3.org/2000/svg" xmlns:xlink="http://www.w3.org/1999/xlink">
    <!-- Generator: Sketch 52.5 (67469) - http://www.bohemiancoding.com/sketch -->
    <title>theater-masks</title>
    <desc>Created with Sketch.</desc>
    <defs>
        <path d="M8.47538939,11.6464174 C7.35763238,11.9719626 6.60778814,12.9299065 6.68317754,13.9548287 C7.03831773,13.558567 7.58068534,13.2165109 8.23769469,12.9915888 L8.47538939,11.6464174 Z M5.01588782,13.199377 L4.02741429,7.60716509 C4.01838002,7.5566978 4.03613703,7.52554515 4.03489093,7.52461057 C5.83426788,6.52585667 7.87040496,5.99781928 9.92305295,5.99781928 C9.97320871,5.99781928 10.023676,6.00311523 10.0741433,6.00373829 C10.5087227,5.58411212 11.0626168,5.29252333 11.6813084,5.19376944 C12.2697819,5.09968844 12.8666667,5.05202489 13.4626168,5.02803735 C13.1514019,4.59345791 12.7,4.27320868 12.1613707,4.18691585 C11.4165109,4.06822426 10.6679128,4.00934575 9.92274142,4.00934575 C7.53457942,4.00934575 5.17819311,4.61433018 3.06542052,5.78691586 C2.31246101,6.20498439 1.90903422,7.07725854 2.06386288,7.95264795 L3.0523364,13.5448598 C3.49563859,16.053271 7.29937692,17.9710281 9.42149531,17.9710281 C9.53333332,17.9710281 9.63177569,17.9566978 9.73333332,17.9461059 C9.31214952,17.4140187 8.83177569,16.6850468 8.50280372,15.84081 C7.01962614,15.4364486 5.19875386,14.2327103 5.01588782,13.199377 Z M8.05482864,8.91713394 C8.03208721,8.78878503 7.98535824,8.6719626 7.92803736,8.56199375 C7.67102802,8.83956385 7.28411213,9.05264796 6.82772583,9.13271027 C6.37133954,9.2130841 5.93457941,9.14517133 5.59781928,8.97165108 C5.58161991,9.09439251 5.57788159,9.22024921 5.60062302,9.34859812 C5.72024919,10.0246106 6.36635511,10.4760125 7.04423674,10.3570093 C7.72180683,10.2380062 8.17445481,9.59314641 8.05482864,8.91713394 Z M20.9345795,7.77570091 C18.1626169,6.23738315 14.9710281,5.6757009 11.8386293,6.17601243 C10.9878505,6.31183798 10.3096573,6.99408097 10.1551402,7.86947038 L9.16666665,13.4616823 C8.6872274,16.1735203 12.134891,19.5760125 14.0984424,19.9211838 C16.0619938,20.2666667 20.4682243,18.2454829 20.9476636,15.5336449 L21.9361371,9.94143301 C22.0909658,9.06573207 21.687539,8.19345792 20.9345795,7.77570091 Z M12.4224299,10.7912773 C12.5420561,10.1152648 13.188162,9.66386292 13.8660436,9.78317756 C14.5439252,9.9024922 14.9962617,10.5470405 14.8769471,11.223053 C14.8542056,11.3514019 14.8074766,11.4682243 14.7501558,11.5781931 C14.4931464,11.300623 14.1062305,11.0875389 13.6498442,11.0074766 C13.1934579,10.9271028 12.7566978,10.9950156 12.4199377,11.1685358 C12.4034268,11.0454829 12.3996885,10.9196262 12.4224299,10.7912773 Z M14.617757,16.9831776 C12.8831776,16.6781932 11.7043614,15.1367601 11.8439252,13.4660436 C12.4856698,14.2616823 13.5950156,14.9043614 14.9433022,15.141433 C16.2915888,15.3785047 17.5545172,15.1529595 18.4302181,14.6242991 C17.9884736,16.2423676 16.3520249,17.288162 14.617757,16.9831776 Z M18.6769471,12.2685358 C18.4199377,11.9909657 18.0327103,11.7778816 17.576324,11.6978193 C17.1199377,11.6174455 16.6831776,11.6853583 16.3464175,11.8588785 C16.3302181,11.7361371 16.3264798,11.6102804 16.3492212,11.4819315 C16.4688474,10.805919 17.1149533,10.3545171 17.7928349,10.4735202 C18.470405,10.5928349 18.923053,11.2373832 18.8037384,11.9133956 C18.7809969,12.0420561 18.7342679,12.1588785 18.6769471,12.2685358 Z" id="path-1"></path>
    </defs>
    <g id="theater-masks" stroke="none" stroke-width="1" fill="none" fill-rule="evenodd">
        <mask id="mask-2" fill="white">
            <use xlink:href="#path-1"></use>
        </mask>
        <g fill-rule="nonzero"></g>
        <g id="🎨-color" mask="url(#mask-2)" fill="#000000">
            <rect id="🎨-Color" x="0" y="0" width="24" height="24"></rect>
        </g>
    </g>
</svg>