<?xml version="1.0" encoding="UTF-8"?>
<svg width="24px" height="24px" viewBox="0 0 24 24" version="1.1" xmlns="http://www.w3.org/2000/svg" xmlns:xlink="http://www.w3.org/1999/xlink">
    <!-- Generator: Sketch 52.5 (67469) - http://www.bohemiancoding.com/sketch -->
    <title>themeco</title>
    <desc>Created with Sketch.</desc>
    <defs>
        <path d="M11.1695312,2.48007808 C11.55,2.25976558 12.1691406,2.25624995 12.5519531,2.47187495 L19.9007813,6.61054685 C20.2839844,6.82617185 20.5945313,7.3582031 20.5945313,7.7972656 L20.5945313,16.1515625 C20.5945313,16.5914063 20.2847657,17.1238282 19.9027344,17.3414063 L12.5503906,21.5265625 C12.1683594,21.7441407 11.5511719,21.740625 11.171875,21.5183594 L4.05390621,17.3496094 C3.67460933,17.1273438 3.36718746,16.590625 3.36718746,16.1511719 L3.36718746,7.7972656 C3.36718746,7.35742185 3.67578121,6.8222656 4.05585934,6.60234372 L11.1695312,2.48007808 Z M8.19296873,10.1640625 C7.5800781,10.1640625 6.96679685,10.1695312 6.35390622,10.1695312 L6.35390622,14.0707031 L7.0894531,14.0707031 L7.0894531,12.9226563 L8.19296873,12.9226563 C10.1046875,12.9226563 10.0988281,10.1640625 8.19296873,10.1640625 Z M13.5820313,14.0207031 L12.4003906,12.6886719 C13.8222656,12.4 13.7386719,10.1804687 11.9824219,10.1695312 C11.3636719,10.1695312 10.7453125,10.1640625 10.1265625,10.1640625 L10.1265625,14.0707031 L10.8621094,14.0707031 L10.8621094,12.7667969 L11.5703125,12.7667969 L12.7070313,14.0707031 L13.5820313,14.0707031 L13.5820313,14.0207031 Z M11.9828125,10.8550781 C12.8804688,10.8550781 12.8773438,12.1035156 11.9828125,12.1035156 L10.8625,12.1035156 L10.8625,10.8550781 L11.9828125,10.8550781 Z M8.30820311,10.79375 C9.12265624,10.79375 9.11992186,12.2875 8.30820311,12.2875 L7.06562498,12.2875 L7.06562498,10.7941406 L8.30820311,10.79375 Z M15.7164063,10.0917969 C13.0835938,10.0917969 12.9875,14.1601563 15.7164063,14.1601563 C18.3878907,14.1597656 18.3855469,10.0917969 15.7164063,10.0917969 Z M15.7164063,10.7605469 C17.4128907,10.7605469 17.4390625,13.4855469 15.7164063,13.4855469 C13.9929688,13.4855469 14.0078125,10.7605469 15.7164063,10.7605469 Z" id="path-1"></path>
    </defs>
    <g id="themeco" stroke="none" stroke-width="1" fill="none" fill-rule="evenodd">
        <mask id="mask-2" fill="white">
            <use xlink:href="#path-1"></use>
        </mask>
        <g fill-rule="nonzero"></g>
        <g id="🎨-color" mask="url(#mask-2)" fill="#000000">
            <rect id="🎨-Color" x="0" y="0" width="24" height="24"></rect>
        </g>
    </g>
</svg>