<?xml version="1.0" encoding="UTF-8"?>
<svg width="24px" height="24px" viewBox="0 0 24 24" version="1.1" xmlns="http://www.w3.org/2000/svg" xmlns:xlink="http://www.w3.org/1999/xlink">
    <!-- Generator: Sketch 52.5 (67469) - http://www.bohemiancoding.com/sketch -->
    <title>themeisle</title>
    <desc>Created with Sketch.</desc>
    <defs>
        <path d="M10.125,5.44867184 C10.125,5.05804684 10.3705469,4.60046871 10.8169922,4.60046871 C11.2522266,4.60046871 11.5089453,5.05804684 11.5089453,5.44867184 C11.5089453,5.85042966 11.2522266,6.29687497 10.8169922,6.29687497 C10.3705469,6.29687497 10.125,5.85042966 10.125,5.44867184 Z M22.0000001,11.6986719 C22.0000001,13.1049609 21.5535547,15.6942188 20.5825782,16.765625 C19.6896875,17.7366407 17.1674219,19.1540235 15.8616016,19.5223438 L15.8169531,19.5335157 L15.8169531,20.8058204 C15.8169531,21.4419922 15.3258594,22.0000001 14.6785547,22.0000001 C14.2879297,22.0000001 13.9196094,21.7767969 13.7187109,21.4419532 C13.5067188,21.7767969 13.1383984,22.0000001 12.7477734,22.0000001 C12.3571484,22.0000001 11.9888281,21.7767969 11.7767578,21.4419532 C11.5758984,21.7767969 11.2075781,22.0000001 10.8169922,22.0000001 C10.4151953,22.0000001 10.0580469,21.7767969 9.84597655,21.4419532 C9.64507811,21.7767969 9.27679686,22.0000001 8.88617186,22.0000001 C8.14957029,22.0000001 7.73660154,21.3861719 7.73660154,20.7165235 C7.10042966,21.1964063 6.34148435,21.4754297 5.52679684,21.4754297 C4.66742184,21.4754297 3.83035152,21.1517969 3.17187496,20.5825782 C3.57363277,20.5714063 3.97542965,20.4932813 4.35488277,20.359375 C3.54015621,20.1361719 2.81472652,19.6227735 2.32363276,18.9419532 C3.15839839,19.1233985 4.12867184,19.0073047 4.94640621,18.5066797 C4.08703121,17.6473047 2.73660152,16.2075781 2.26781245,15.0915235 C2.04464839,14.5669531 1.99999995,13.8638281 1.99999995,13.3058203 C1.99999995,11.3638672 2.79242183,7.05582029 5.37054684,7.05582029 C5.78347653,7.05582029 6.10714841,7.24558591 6.27457028,7.63617185 C6.41829701,7.42585163 6.57484349,7.22458505 6.74332029,7.0335156 C6.82144529,6.93304685 6.96652341,6.82144529 7.02234373,6.70984372 C7.33480466,6.21878903 7.47992185,5.88398434 7.87054685,5.38171872 C9.13167967,3.77453121 11.0625,2.66964839 13.1383984,2.66964839 C13.3727734,2.66964839 13.6071484,2.6807812 13.8303516,2.71429683 C14.2544531,2.25667964 14.8459766,1.99999995 15.4598438,1.99999995 C16.0290235,1.99999995 16.6205469,2.23437495 17.0223438,2.63617183 C17.0558203,2.66968745 17.078125,2.7254687 17.078125,2.77007808 C17.078125,2.9151562 16.6763672,3.29464839 16.5758985,3.40624996 C16.7433203,3.46207027 17.1897266,3.67414058 17.1897266,3.87499996 C17.1897266,3.98660152 17.078125,4.0758984 17.0111719,4.1540234 C18.2388672,5.23660153 18.9419922,6.77679685 19.2098438,8.37277342 C19.3772657,8.17187498 19.6116016,8.03792967 19.8794922,8.03792967 C20.2924219,8.03792967 20.6942188,8.31699217 20.9955469,8.58484373 C21.8102735,9.31027342 22.0000001,10.6607031 22.0000001,11.6986719 Z M9.34374999,5.49328122 C9.34374999,6.2075781 9.83480468,6.94417966 10.6049219,6.94417966 C11.375,6.94417966 11.8660547,6.2075781 11.8660547,5.49328122 C11.8660547,4.79015621 11.375,4.05355465 10.6049219,4.05355465 C9.83480468,4.05355465 9.34374999,4.79019528 9.34374999,5.49328122 Z M11.2857031,9.57812499 C11.2857031,8.80804686 11.4307812,8.04910154 11.6205078,7.3013281 C9.58773436,10.408125 11.0919531,14.5111328 14.3102734,14.5111328 C15.1473047,14.5111328 15.9732031,14.2098047 16.6540235,13.7298828 C16.7321485,13.4396875 16.7991016,13.1495313 16.7991016,12.8481641 C16.7991016,12.2901172 16.5535547,12.0111328 15.9955078,12.0111328 C15.8169531,12.0111328 15.6383594,12.0446094 15.4709375,12.0780859 C12.9966016,12.5729297 11.2857031,12.2214063 11.2857031,9.57812499 Z M9.67859374,19.5335157 C9.67859374,19.0982422 9.33257811,18.7187891 8.88617186,18.7187891 C8.43972654,18.7187891 8.10492186,19.0982813 8.10492186,19.5335157 L8.10492186,20.8058204 C8.10492186,21.2410938 8.43972654,21.6316797 8.88617186,21.6316797 C9.33257811,21.6316797 9.67859374,21.2521875 9.67859374,20.8058204 L9.67859374,19.5335157 Z M11.5982422,19.5335157 C11.5982422,19.0982422 11.2633984,18.7187891 10.8169922,18.7187891 C10.3705469,18.7187891 10.0245703,19.0982813 10.0245703,19.5335157 L10.0245703,20.8058204 C10.0245703,21.2410938 10.3705469,21.6316797 10.8169922,21.6316797 C11.2633984,21.6316797 11.5982422,21.2410547 11.5982422,20.8058204 L11.5982422,19.5335157 Z M13.5401563,19.5335157 C13.5401563,19.0982422 13.1941797,18.7187891 12.7477734,18.7187891 C12.3013281,18.7187891 11.9553516,19.0982813 11.9553516,19.5335157 L11.9553516,20.8058204 C11.9553516,21.2410938 12.3013281,21.6316797 12.7477734,21.6316797 C13.1941797,21.6316797 13.5401563,21.2521875 13.5401563,20.8058204 L13.5401563,19.5335157 Z M15.4821485,19.5335157 C15.4821485,19.0982422 15.1361719,18.7187891 14.6897266,18.7187891 C14.2433203,18.7187891 13.8973047,19.0982813 13.8973047,19.5335157 L13.8973047,20.8058204 C13.8973047,21.2410938 14.2433203,21.6316797 14.6897266,21.6316797 C15.1361719,21.6316797 15.4821485,21.2410547 15.4821485,20.8058204 L15.4821485,19.5335157 Z M18.4732032,13.171875 C17.2678516,15.4821094 14.9464453,17.1785938 12.2790234,17.1785938 C8.50671873,17.1785938 6.00671872,13.875 6.00671872,10.28125 C6.00671872,9.62277343 6.08484372,8.97542967 6.24109372,8.33929686 C5.45984372,9.65628905 5.08039059,11.1741406 5.08039059,12.6919922 C5.08039059,15.0469141 6.05136716,17.4464844 7.87058592,18.9754688 C8.07148436,18.5960157 8.45093748,18.3392969 8.88621092,18.3392969 C9.27683592,18.3392969 9.64511718,18.5625 9.84601561,18.8973438 C10.0580859,18.5625391 10.4151953,18.3392969 10.8170312,18.3392969 C11.2076562,18.3392969 11.5759375,18.5625 11.7768359,18.8973438 C11.9889062,18.5625391 12.3571875,18.3392969 12.7478516,18.3392969 C13.1384766,18.3392969 13.5067578,18.5625 13.7188281,18.8973438 C13.9197266,18.5625391 14.2880078,18.3392969 14.6786719,18.3392969 C15.1027735,18.3392969 15.4933985,18.5960157 15.683125,18.9642969 C17.3794922,17.546875 18.3616016,15.3705469 18.4732032,13.171875 Z M18.8861719,9.27679686 C18.8861719,7.17859373 17.5357422,5.14734372 15.2700781,5.14734372 C14.0870703,5.14734372 12.9821484,5.73886716 12.1897266,6.58707029 C11.4086719,9.18015624 11.1175781,11.921875 13.8080469,11.921875 C14.9332422,11.921875 17.6110547,10.8071094 17.1004688,13.3616016 C18.2276953,12.3459766 18.8861719,10.7946484 18.8861719,9.27679686 Z" id="path-1"></path>
    </defs>
    <g id="themeisle" stroke="none" stroke-width="1" fill="none" fill-rule="evenodd">
        <mask id="mask-2" fill="white">
            <use xlink:href="#path-1"></use>
        </mask>
        <g fill-rule="nonzero"></g>
        <g id="🎨-color" mask="url(#mask-2)" fill="#000000">
            <rect id="🎨-Color" x="0" y="0" width="24" height="24"></rect>
        </g>
    </g>
</svg>