<?xml version="1.0" encoding="UTF-8"?>
<svg width="24px" height="24px" viewBox="0 0 24 24" version="1.1" xmlns="http://www.w3.org/2000/svg" xmlns:xlink="http://www.w3.org/1999/xlink">
    <!-- Generator: Sketch 52.5 (67469) - http://www.bohemiancoding.com/sketch -->
    <title>thermometer-full</title>
    <desc>Created with Sketch.</desc>
    <defs>
        <path d="M15.75,5.74999997 C15.75,3.67894527 14.0710547,1.99999995 12,1.99999995 C9.9289453,1.99999995 8.24999998,3.67894527 8.24999998,5.74999997 L8.24999998,13.6932422 C7.47753904,14.5685938 7.00648435,15.71625 7.0000781,16.9739453 C6.98605466,19.7201563 9.2183203,21.9808204 11.9644922,21.9998829 C11.9761719,21.999961 11.9883203,22.0000001 12,22.0000001 C14.7616406,22.0000001 17,19.7615625 17,17 C17,15.7320703 16.5278125,14.5746094 15.75,13.6932422 L15.75,5.74999997 Z M12,20.125 L11.9775,20.1249219 C10.2642187,20.1130469 8.86628905,18.6974219 8.87503905,16.9835156 C8.88179686,15.6561719 9.62761718,14.9658594 10.125,14.4022656 L10.125,5.74999997 C10.125,4.71613278 10.9661328,3.87499996 12,3.87499996 C13.0338672,3.87499996 13.875,4.71613278 13.875,5.74999997 L13.875,14.4022656 C14.3683594,14.9613281 15.125,15.6586719 15.125,17 C15.125,18.723125 13.723125,20.125 12,20.125 Z M14.5,17 C14.5,18.3807032 13.3807031,19.5 12,19.5 C10.6192969,19.5 9.49999999,18.3807032 9.49999999,17 C9.49999999,16.0748047 10.0029687,15.2676172 10.75,14.8352735 L10.75,5.74999997 C10.75,5.0596484 11.3096484,4.49999996 12,4.49999996 C12.6903516,4.49999996 13.25,5.0596484 13.25,5.74999997 L13.25,14.8352735 C13.9970313,15.2676172 14.5,16.0748047 14.5,17 Z" id="path-1"></path>
    </defs>
    <g id="thermometer-full" stroke="none" stroke-width="1" fill="none" fill-rule="evenodd">
        <mask id="mask-2" fill="white">
            <use xlink:href="#path-1"></use>
        </mask>
        <g fill-rule="nonzero"></g>
        <g id="🎨-color" mask="url(#mask-2)" fill="#000000">
            <rect id="🎨-Color" x="0" y="0" width="24" height="24"></rect>
        </g>
    </g>
</svg>