<?xml version="1.0" encoding="UTF-8"?>
<svg width="24px" height="24px" viewBox="0 0 24 24" version="1.1" xmlns="http://www.w3.org/2000/svg" xmlns:xlink="http://www.w3.org/1999/xlink">
    <!-- Generator: Sketch 52.5 (67469) - http://www.bohemiancoding.com/sketch -->
    <title>thermometer-empty</title>
    <desc>Created with Sketch.</desc>
    <defs>
        <path d="M14.5,17 C14.5,18.3807032 13.3807031,19.5 12,19.5 C10.6192969,19.5 9.49999999,18.3807032 9.49999999,17 C9.49999999,15.6192969 10.6192969,14.5 12,14.5 C13.3807031,14.5 14.5,15.6192969 14.5,17 Z M15.75,13.6932422 C16.5278125,14.5746094 17,15.7320703 17,17 C17,19.7615625 14.7616016,22.0000001 12,22.0000001 C11.9883203,22.0000001 11.9762109,21.999961 11.9644922,21.9998829 C9.2183203,21.9808204 6.98605466,19.7201563 7.0000781,16.9739453 C7.00648435,15.716211 7.47753904,14.5685547 8.24999998,13.6932422 L8.24999998,5.74999997 C8.24999998,3.67894527 9.9289453,1.99999995 12,1.99999995 C14.0710547,1.99999995 15.75,3.67894527 15.75,5.74999997 L15.75,13.6932422 Z M15.125,17 C15.125,15.6586328 14.3683594,14.9613281 13.875,14.4022656 L13.875,5.74999997 C13.875,4.71613278 13.0338672,3.87499996 12,3.87499996 C10.9661328,3.87499996 10.125,4.71613278 10.125,5.74999997 L10.125,14.4022656 C9.62765624,14.9658594 8.88183592,15.6561719 8.87503905,16.9835156 C8.86628905,18.6974219 10.2642187,20.1130469 11.9775,20.1249219 L12,20.125 C13.723125,20.125 15.125,18.723125 15.125,17 Z" id="path-1"></path>
    </defs>
    <g id="thermometer-empty" stroke="none" stroke-width="1" fill="none" fill-rule="evenodd">
        <mask id="mask-2" fill="white">
            <use xlink:href="#path-1"></use>
        </mask>
        <g fill-rule="nonzero"></g>
        <g id="🎨-color" mask="url(#mask-2)" fill="#000000">
            <rect id="🎨-Color" x="0" y="0" width="24" height="24"></rect>
        </g>
    </g>
</svg>