<?xml version="1.0" encoding="UTF-8"?>
<svg width="24px" height="24px" viewBox="0 0 24 24" version="1.1" xmlns="http://www.w3.org/2000/svg" xmlns:xlink="http://www.w3.org/1999/xlink">
    <!-- Generator: Sketch 52.5 (67469) - http://www.bohemiancoding.com/sketch -->
    <title>thermometer</title>
    <desc>Created with Sketch.</desc>
    <defs>
        <path d="M20.5914397,2.83268478 C19.1322958,1.63813224 16.8754864,1.80933847 15.459144,3.22957194 L13.6809339,5.01945522 L15.6459144,6.98443577 C15.766537,7.10505834 15.766537,7.30350192 15.6459144,7.42412449 L15.2062257,7.86381321 C15.0856031,7.98443578 14.8871595,7.98443578 14.766537,7.86381321 L12.8054475,5.89883265 L11.0505837,7.66536963 L13.0077821,9.62645913 C13.1284047,9.7470817 13.1284047,9.94552528 13.0077821,10.0661479 L12.5680934,10.5058366 C12.4474708,10.6264591 12.2490272,10.6264591 12.1284047,10.5058366 L10.1712062,8.55252917 L8.41634239,10.3190661 L10.3657587,12.2723735 C10.4863813,12.3929961 10.4863813,12.5914397 10.3657587,12.7120623 L9.92607003,13.151751 C9.80544746,13.2723735 9.60700388,13.2723735 9.48638131,13.151751 L7.53696496,11.1984436 L5.77431904,12.9766537 L5.77431904,16.9027238 L2.311284,20.3657588 C1.94552524,20.7315176 1.94552524,21.3229572 2.311284,21.684825 C2.67704275,22.0505837 3.26848245,22.0505837 3.63035015,21.684825 L7.09338519,18.2217899 L10.9805447,18.2217899 L20.8715954,8.36575874 C22.229572,7.00778208 22.5136187,4.41634237 20.5914397,2.83268478 Z" id="path-1"></path>
    </defs>
    <g id="thermometer" stroke="none" stroke-width="1" fill="none" fill-rule="evenodd">
        <mask id="mask-2" fill="white">
            <use xlink:href="#path-1"></use>
        </mask>
        <g></g>
        <g id="🎨-color" mask="url(#mask-2)" fill="#000000">
            <rect id="🎨-Color" x="0" y="0" width="24" height="24"></rect>
        </g>
    </g>
</svg>