<?xml version="1.0" encoding="UTF-8"?>
<svg width="24px" height="24px" viewBox="0 0 24 24" version="1.1" xmlns="http://www.w3.org/2000/svg" xmlns:xlink="http://www.w3.org/1999/xlink">
    <!-- Generator: Sketch 52.5 (67469) - http://www.bohemiancoding.com/sketch -->
    <title>thumbs-down</title>
    <desc>Created with Sketch.</desc>
    <defs>
        <path d="M20.2136719,10.8011719 C20.39625,9.91652343 20.2474219,9.06140624 19.8625,8.34062498 C19.9780469,7.40828123 19.7054297,6.44355466 19.1851563,5.72382809 C19.1478907,3.5399609 17.7858203,1.99999995 14.7734375,1.99999995 C14.5,1.99999995 14.1875,2.00039058 13.9054688,2.00039058 C9.85917968,2.00039058 8.6014453,3.56249996 6.99999997,3.56249996 L6.57636716,3.56249996 C6.35605466,3.36816402 6.06691403,3.24999996 5.74999997,3.24999996 L3.24999996,3.24999996 C2.55964839,3.24999996 1.99999995,3.8096484 1.99999995,4.49999996 L1.99999995,13.875 C1.99999995,14.5653516 2.55964839,15.125 3.24999996,15.125 L5.74999997,15.125 C6.2125781,15.125 6.61621091,14.8735156 6.83234372,14.5 L7.10781248,14.5 C7.8557031,15.1622266 8.9051953,16.8692578 9.79374999,17.7578125 C10.3276172,18.2916797 10.1903516,22.0000001 12.596875,22.0000001 C14.8460938,22.0000001 16.3183594,20.7525 16.3183594,17.9089844 C16.3183594,17.1898438 16.1648438,16.5914063 15.9726563,16.0910156 L17.3976563,16.0910156 C19.2961719,16.0910156 20.75,14.4673828 20.75,12.7480469 C20.75,12 20.55625,11.38125 20.2136719,10.8011719 Z M4.49999996,13.5625 C3.98222652,13.5625 3.56249996,13.1427734 3.56249996,12.625 C3.56249996,12.1072266 3.98222652,11.6875 4.49999996,11.6875 C5.0177734,11.6875 5.43749997,12.1072266 5.43749997,12.625 C5.43749997,13.1427734 5.0177734,13.5625 4.49999996,13.5625 Z M17.3976563,14.2160156 L13.3355469,14.2160156 C13.3355469,15.6933594 14.4433594,16.3789063 14.4433594,17.9089844 C14.4433594,18.8367188 14.4433594,20.125 12.596875,20.125 C11.8582031,19.3863282 12.2273438,17.5398438 11.1195312,16.4320313 C10.0820312,15.3941406 8.53437498,12.625 7.42656248,12.625 L6.99999997,12.625 L6.99999997,5.35273434 C9.09417967,5.35273434 10.9062891,3.87539058 13.7046875,3.87539058 L15.1820313,3.87539058 C16.5692188,3.87539058 17.5578125,4.54414059 17.2570313,6.44960935 C17.8507813,6.76835935 18.2921875,7.87304685 17.8015625,8.69843748 C18.6445703,9.49468749 18.5319922,10.6931641 18.0050782,11.2617187 C18.3742188,11.2617187 18.8785157,12.0003906 18.875,12.7386719 C18.8714844,13.4773438 18.2222657,14.2160156 17.3976563,14.2160156 Z" id="path-1"></path>
    </defs>
    <g id="thumbs-down" stroke="none" stroke-width="1" fill="none" fill-rule="evenodd">
        <mask id="mask-2" fill="white">
            <use xlink:href="#path-1"></use>
        </mask>
        <g fill-rule="nonzero"></g>
        <g id="🎨-color" mask="url(#mask-2)" fill="#000000">
            <rect id="🎨-Color" x="0" y="0" width="24" height="24"></rect>
        </g>
    </g>
</svg>