<?xml version="1.0" encoding="UTF-8"?>
<svg width="24px" height="24px" viewBox="0 0 24 24" version="1.1" xmlns="http://www.w3.org/2000/svg" xmlns:xlink="http://www.w3.org/1999/xlink">
    <!-- Generator: Sketch 52.5 (67469) - http://www.bohemiancoding.com/sketch -->
    <title>thumbs-up</title>
    <desc>Created with Sketch.</desc>
    <defs>
        <path d="M20.2136719,13.1988281 C20.55625,12.61875 20.75,12 20.75,11.2519531 C20.75,9.53261718 19.2961719,7.90898435 17.3976563,7.90898435 L15.9726563,7.90898435 C16.1648438,7.40859373 16.3183594,6.81015622 16.3183594,6.0910156 C16.3183594,3.24749996 14.8460938,1.99999995 12.596875,1.99999995 C10.1903516,1.99999995 10.3276172,5.70832028 9.79374999,6.24218747 C8.9051953,7.13074216 7.85566404,8.83777342 7.10781248,9.49999999 L3.24999996,9.49999999 C2.55964839,9.49999999 1.99999995,10.0596484 1.99999995,10.75 L1.99999995,20.125 C1.99999995,20.8153516 2.55964839,21.375 3.24999996,21.375 L5.74999997,21.375 C6.33175778,21.375 6.82062497,20.9775782 6.9600781,20.4394532 C8.69871092,20.4785547 9.89210936,21.9996094 13.9054688,21.9996094 C14.1875,21.9996094 14.5,22.0000001 14.7734375,22.0000001 C17.7858203,22.0000001 19.1478907,20.4600391 19.1851563,18.2761719 C19.7054297,17.5564453 19.978086,16.5917188 19.8625,15.659375 C20.2474219,14.9385938 20.39625,14.0834766 20.2136719,13.1988281 Z M17.8015625,15.3015625 C18.2921875,16.1269531 17.8507813,17.2316407 17.2570313,17.5503907 C17.5578125,19.4558594 16.5692188,20.1246094 15.1820313,20.1246094 L13.7046875,20.1246094 C10.9062891,20.1246094 9.09417967,18.6472657 6.99999997,18.6472657 L6.99999997,11.375 L7.42656248,11.375 C8.53437498,11.375 10.0820312,8.60585936 11.1195312,7.56796873 C12.2273438,6.46015622 11.8582031,4.61367184 12.596875,3.87499996 C14.4433594,3.87499996 14.4433594,5.16328122 14.4433594,6.0910156 C14.4433594,7.62109373 13.3355469,8.30664061 13.3355469,9.78398436 L17.3976563,9.78398436 C18.2222657,9.78398436 18.8714844,10.5226562 18.875,11.2613281 C18.8785157,11.9996094 18.3742188,12.7382813 18.0050782,12.7382813 C18.5319922,13.3068359 18.6445703,14.5053125 17.8015625,15.3015625 Z M5.43749997,18.875 C5.43749997,19.3927735 5.0177734,19.8125 4.49999996,19.8125 C3.98222652,19.8125 3.56249996,19.3927735 3.56249996,18.875 C3.56249996,18.3572266 3.98222652,17.9375 4.49999996,17.9375 C5.0177734,17.9375 5.43749997,18.3572266 5.43749997,18.875 Z" id="path-1"></path>
    </defs>
    <g id="thumbs-up" stroke="none" stroke-width="1" fill="none" fill-rule="evenodd">
        <mask id="mask-2" fill="white">
            <use xlink:href="#path-1"></use>
        </mask>
        <g fill-rule="nonzero"></g>
        <g id="🎨-color" mask="url(#mask-2)" fill="#000000">
            <rect id="🎨-Color" x="0" y="0" width="24" height="24"></rect>
        </g>
    </g>
</svg>