<?xml version="1.0" encoding="UTF-8"?>
<svg width="24px" height="24px" viewBox="0 0 24 24" version="1.1" xmlns="http://www.w3.org/2000/svg" xmlns:xlink="http://www.w3.org/1999/xlink">
    <!-- Generator: Sketch 52.5 (67469) - http://www.bohemiancoding.com/sketch -->
    <title>thumbtack</title>
    <desc>Created with Sketch.</desc>
    <defs>
        <path d="M16.1141521,10.3534893 L15.637154,5.74269003 L17.2826511,5.74269003 C17.7994152,5.74269003 18.2183236,5.32378164 18.2183236,4.80701751 L18.2183236,2.93567247 C18.2183236,2.41890833 17.7994152,1.99999995 17.2826511,1.99999995 L6.67836255,1.99999995 C6.16159841,1.99999995 5.74269003,2.41890833 5.74269003,2.93567247 L5.74269003,4.80701751 C5.74269003,5.32378164 6.16159841,5.74269003 6.67836255,5.74269003 L8.32385963,5.74269003 L7.84686158,10.3534893 C5.95575046,11.2327485 4.49512667,12.8093957 4.49512667,14.7875244 C4.49512667,15.3042885 4.91403505,15.7231969 5.43079919,15.7231969 L10.7329435,15.7231969 L10.7329435,19.7780507 C10.7329435,19.8264718 10.7442105,19.8742301 10.7658869,19.9175439 L11.7015595,21.7888889 C11.8162183,22.0182067 12.1446004,22.0186355 12.2594932,21.7888889 L13.1951657,19.9175439 C13.2168161,19.8742302 13.2280945,19.826474 13.2281092,19.7780507 L13.2281092,15.7231969 L18.5302534,15.7231969 C19.0470176,15.7231969 19.465926,15.3042885 19.465926,14.7875244 C19.465887,12.7920858 17.9851072,11.2233918 16.1141521,10.3534893 Z" id="path-1"></path>
    </defs>
    <g id="thumbtack" stroke="none" stroke-width="1" fill="none" fill-rule="evenodd">
        <mask id="mask-2" fill="white">
            <use xlink:href="#path-1"></use>
        </mask>
        <g></g>
        <g id="🎨-color" mask="url(#mask-2)" fill="#000000">
            <rect id="🎨-Color" x="0" y="0" width="24" height="24"></rect>
        </g>
    </g>
</svg>