<?xml version="1.0" encoding="UTF-8"?>
<svg width="24px" height="24px" viewBox="0 0 24 24" version="1.1" xmlns="http://www.w3.org/2000/svg" xmlns:xlink="http://www.w3.org/1999/xlink">
    <!-- Generator: Sketch 52.5 (67469) - http://www.bohemiancoding.com/sketch -->
    <title>ticket-alt</title>
    <desc>Created with Sketch.</desc>
    <defs>
        <path d="M6.44444442,8.66666665 L17.5555556,8.66666665 L17.5555556,15.3333334 L6.44444442,15.3333334 L6.44444442,8.66666665 Z M20.3333334,12 C20.3333334,12.9204861 21.0795139,13.6666667 22.0000001,13.6666667 L22.0000001,17 C22.0000001,17.9204861 21.2538195,18.6666667 20.3333334,18.6666667 L3.66666662,18.6666667 C2.74618051,18.6666667 1.99999995,17.9204861 1.99999995,17 L1.99999995,13.6666667 C2.92048607,13.6666667 3.66666662,12.9204861 3.66666662,12 C3.66666662,11.0795139 2.92048607,10.3333333 1.99999995,10.3333333 L1.99999995,6.99999997 C1.99999995,6.07951386 2.74618051,5.3333333 3.66666662,5.3333333 L20.3333334,5.3333333 C21.2538195,5.3333333 22.0000001,6.07951386 22.0000001,6.99999997 L22.0000001,10.3333333 C21.0795139,10.3333333 20.3333334,11.0795139 20.3333334,12 Z M18.6666667,8.38888887 C18.6666667,7.92864581 18.2935764,7.55555553 17.8333334,7.55555553 L6.16666664,7.55555553 C5.70642358,7.55555553 5.3333333,7.92864581 5.3333333,8.38888887 L5.3333333,15.6111111 C5.3333333,16.0713542 5.70642358,16.4444445 6.16666664,16.4444445 L17.8333334,16.4444445 C18.2935764,16.4444445 18.6666667,16.0713542 18.6666667,15.6111111 L18.6666667,8.38888887 Z" id="path-1"></path>
    </defs>
    <g id="ticket-alt" stroke="none" stroke-width="1" fill="none" fill-rule="evenodd">
        <mask id="mask-2" fill="white">
            <use xlink:href="#path-1"></use>
        </mask>
        <g fill-rule="nonzero"></g>
        <g id="🎨-color" mask="url(#mask-2)" fill="#000000">
            <rect id="🎨-Color" x="0" y="0" width="24" height="24"></rect>
        </g>
    </g>
</svg>