<?xml version="1.0" encoding="UTF-8"?>
<svg width="24px" height="24px" viewBox="0 0 24 24" version="1.1" xmlns="http://www.w3.org/2000/svg" xmlns:xlink="http://www.w3.org/1999/xlink">
    <!-- Generator: Sketch 52.5 (67469) - http://www.bohemiancoding.com/sketch -->
    <title>times-circle</title>
    <desc>Created with Sketch.</desc>
    <defs>
        <path d="M12,2.31249995 C6.64843747,2.31249995 2.31249995,6.64843747 2.31249995,12 C2.31249995,17.3515625 6.64843747,21.6875 12,21.6875 C17.3515625,21.6875 21.6875,17.3515625 21.6875,12 C21.6875,6.64843747 17.3515625,2.31249995 12,2.31249995 Z M12,19.8125 C7.68359373,19.8125 4.18749996,16.3164063 4.18749996,12 C4.18749996,7.68359373 7.68359373,4.18749996 12,4.18749996 C16.3164063,4.18749996 19.8125,7.68359373 19.8125,12 C19.8125,16.3164063 16.3164063,19.8125 12,19.8125 Z M15.9765625,9.57031249 L13.546875,12 L15.9765625,14.4296875 C16.1601563,14.6132813 16.1601563,14.9101563 15.9765625,15.09375 L15.09375,15.9765625 C14.9101563,16.1601563 14.6132813,16.1601563 14.4296875,15.9765625 L12,13.546875 L9.57031249,15.9765625 C9.38671874,16.1601563 9.08984374,16.1601563 8.90624998,15.9765625 L8.02343748,15.09375 C7.83984373,14.9101563 7.83984373,14.6132813 8.02343748,14.4296875 L10.453125,12 L8.02343748,9.57031249 C7.83984373,9.38671874 7.83984373,9.08984374 8.02343748,8.90624998 L8.90624998,8.02343748 C9.08984374,7.83984373 9.38671874,7.83984373 9.57031249,8.02343748 L12,10.453125 L14.4296875,8.02343748 C14.6132813,7.83984373 14.9101563,7.83984373 15.09375,8.02343748 L15.9765625,8.90624998 C16.1601563,9.08984374 16.1601563,9.38671874 15.9765625,9.57031249 Z" id="path-1"></path>
    </defs>
    <g id="times-circle" stroke="none" stroke-width="1" fill="none" fill-rule="evenodd">
        <mask id="mask-2" fill="white">
            <use xlink:href="#path-1"></use>
        </mask>
        <g fill-rule="nonzero"></g>
        <g id="🎨-color" mask="url(#mask-2)" fill="#000000">
            <rect id="🎨-Color" x="0" y="0" width="24" height="24"></rect>
        </g>
    </g>
</svg>