<?xml version="1.0" encoding="UTF-8"?>
<svg width="24px" height="24px" viewBox="0 0 24 24" version="1.1" xmlns="http://www.w3.org/2000/svg" xmlns:xlink="http://www.w3.org/1999/xlink">
    <!-- Generator: Sketch 52.5 (67469) - http://www.bohemiancoding.com/sketch -->
    <title>times</title>
    <desc>Created with Sketch.</desc>
    <defs>
        <path d="M14.60625,12 L18.5152344,8.09101561 C18.9949219,7.6113281 18.9949219,6.83359372 18.5152344,6.3535156 L17.6464844,5.48476559 C17.1667969,5.00507809 16.3890625,5.00507809 15.9089844,5.48476559 L12,9.39374999 L8.09101561,5.48476559 C7.6113281,5.00507809 6.83359372,5.00507809 6.3535156,5.48476559 L5.48476559,6.3535156 C5.00507809,6.8332031 5.00507809,7.61093748 5.48476559,8.09101561 L9.39374999,12 L5.48476559,15.9089844 C5.00507809,16.3886719 5.00507809,17.1664063 5.48476559,17.6464844 L6.3535156,18.5152344 C6.8332031,18.9949219 7.6113281,18.9949219 8.09101561,18.5152344 L12,14.60625 L15.9089844,18.5152344 C16.3886719,18.9949219 17.1667969,18.9949219 17.6464844,18.5152344 L18.5152344,17.6464844 C18.9949219,17.1667969 18.9949219,16.3890625 18.5152344,15.9089844 L14.60625,12 Z" id="path-1"></path>
    </defs>
    <g id="times" stroke="none" stroke-width="1" fill="none" fill-rule="evenodd">
        <mask id="mask-2" fill="white">
            <use xlink:href="#path-1"></use>
        </mask>
        <g></g>
        <g id="🎨-color" mask="url(#mask-2)" fill="#000000">
            <rect id="🎨-Color" x="0" y="0" width="24" height="24"></rect>
        </g>
    </g>
</svg>