<?xml version="1.0" encoding="UTF-8"?>
<svg width="24px" height="24px" viewBox="0 0 24 24" version="1.1" xmlns="http://www.w3.org/2000/svg" xmlns:xlink="http://www.w3.org/1999/xlink">
    <!-- Generator: Sketch 52.5 (67469) - http://www.bohemiancoding.com/sketch -->
    <title>tint-slash</title>
    <desc>Created with Sketch.</desc>
    <defs>
        <path d="M21.7759751,18.2901716 L17.4436818,14.9416537 C17.4599064,14.7678627 17.4758191,14.5934478 17.4758191,14.4152886 C17.4758191,10.9282371 14.3622465,9.63088922 12.8960998,4.68611541 C12.6483619,3.78814348 11.3535101,3.74633381 11.0726989,4.68611541 C10.5884555,6.31918874 9.92230888,7.55538219 9.2477379,8.60748828 L3.41872071,4.10202804 C3.20093599,3.93291728 2.88705144,3.97191884 2.71794067,4.18970355 L2.10514816,4.97815909 C1.93603739,5.19563179 1.97503895,5.50920434 2.19282366,5.67862711 L20.5503901,19.8667707 C20.7681748,20.0361935 21.0817473,19.9968799 21.2511701,19.7790952 L21.8639626,18.9906397 C22.0327614,18.773167 21.9937598,18.4595944 21.7759751,18.2901716 Z M6.49297969,14.4152886 C6.49297969,17.4867395 8.94914195,19.9719189 11.9843994,19.9719189 C13.3794072,19.9719189 14.6480499,19.4427457 15.6162247,18.5772231 L7.07706706,11.9775351 C6.72106082,12.7107644 6.49297969,13.4861155 6.49297969,14.4152886 Z" id="path-1"></path>
    </defs>
    <g id="tint-slash" stroke="none" stroke-width="1" fill="none" fill-rule="evenodd">
        <mask id="mask-2" fill="white">
            <use xlink:href="#path-1"></use>
        </mask>
        <g fill-rule="nonzero"></g>
        <g id="🎨-color" mask="url(#mask-2)" fill="#000000">
            <rect id="🎨-Color" x="0" y="0" width="24" height="24"></rect>
        </g>
    </g>
</svg>