<?xml version="1.0" encoding="UTF-8"?>
<svg width="24px" height="24px" viewBox="0 0 24 24" version="1.1" xmlns="http://www.w3.org/2000/svg" xmlns:xlink="http://www.w3.org/1999/xlink">
    <!-- Generator: Sketch 52.5 (67469) - http://www.bohemiancoding.com/sketch -->
    <title>tired</title>
    <desc>Created with Sketch.</desc>
    <defs>
        <path d="M12,2.31249995 C6.64843747,2.31249995 2.31249995,6.64843747 2.31249995,12 C2.31249995,17.3515625 6.64843747,21.6875 12,21.6875 C17.3515625,21.6875 21.6875,17.3515625 21.6875,12 C21.6875,6.64843747 17.3515625,2.31249995 12,2.31249995 Z M12,19.8125 C7.69140623,19.8125 4.18749996,16.3085938 4.18749996,12 C4.18749996,7.69140623 7.69140623,4.18749996 12,4.18749996 C16.3085938,4.18749996 19.8125,7.69140623 19.8125,12 C19.8125,16.3085938 16.3085938,19.8125 12,19.8125 Z M17.0429688,7.94531248 C16.8945313,7.77343748 16.640625,7.73437498 16.4453125,7.84765623 L13.3203125,9.72265624 C13.1796875,9.80859374 13.09375,9.96093749 13.09375,10.125 C13.09375,10.2890625 13.1796875,10.4414062 13.3203125,10.5273437 L16.4453125,12.4023438 C16.65625,12.5273438 16.90625,12.4648438 17.0429688,12.3046875 C17.1914063,12.1289063 17.1953125,11.875 17.046875,11.6992187 L15.734375,10.125 L17.046875,8.55078123 C17.1953125,8.37499998 17.1914063,8.11718748 17.0429688,7.94531248 Z M10.90625,10.125 C10.90625,9.96093749 10.8203125,9.80859374 10.6796875,9.72265624 L7.55468748,7.84765623 C7.35937498,7.73046873 7.10546873,7.77343748 6.95703122,7.94531248 C6.80859372,8.12109373 6.80468747,8.37499998 6.95312497,8.55078123 L8.26562498,10.125 L6.95312497,11.6992187 C6.80468747,11.875 6.80859372,12.1289063 6.95703122,12.3046875 C7.09374998,12.4648438 7.34374998,12.5273438 7.55468748,12.4023438 L10.6796875,10.5273437 C10.8203125,10.4414062 10.90625,10.2890625 10.90625,10.125 Z M12,12.625 C10.2265625,12.625 8.05859373,14.1210938 7.78906248,16.2695313 C7.73046873,16.7304688 8.05859373,17.1132813 8.39453123,16.96875 C9.28124999,16.5898438 10.59375,16.375 12,16.375 C13.40625,16.375 14.71875,16.5898438 15.6054688,16.96875 C15.9375,17.1132813 16.2695313,16.734375 16.2109375,16.2695313 C15.9414063,14.1210938 13.7734375,12.625 12,12.625 Z" id="path-1"></path>
    </defs>
    <g id="tired" stroke="none" stroke-width="1" fill="none" fill-rule="evenodd">
        <mask id="mask-2" fill="white">
            <use xlink:href="#path-1"></use>
        </mask>
        <g fill-rule="nonzero"></g>
        <g id="🎨-color" mask="url(#mask-2)" fill="#000000">
            <rect id="🎨-Color" x="0" y="0" width="24" height="24"></rect>
        </g>
    </g>
</svg>