<?xml version="1.0" encoding="UTF-8"?>
<svg width="24px" height="24px" viewBox="0 0 24 24" version="1.1" xmlns="http://www.w3.org/2000/svg" xmlns:xlink="http://www.w3.org/1999/xlink">
    <!-- Generator: Sketch 52.5 (67469) - http://www.bohemiancoding.com/sketch -->
    <title>toggle-off</title>
    <desc>Created with Sketch.</desc>
    <defs>
        <path d="M15.3333334,5.3333333 L8.66666665,5.3333333 C4.98475691,5.3333333 1.99999995,8.31809026 1.99999995,12 C1.99999995,15.6819097 4.98475691,18.6666667 8.66666665,18.6666667 L15.3333334,18.6666667 C19.0152431,18.6666667 22.0000001,15.6819097 22.0000001,12 C22.0000001,8.31809026 19.0152431,5.3333333 15.3333334,5.3333333 Z M4.22222218,12 C4.22222218,9.54371527 6.21003469,7.55555553 8.66666665,7.55555553 C11.1229514,7.55555553 13.1111111,9.54336804 13.1111111,12 C13.1111111,14.4562847 11.1232986,16.4444445 8.66666665,16.4444445 C6.21038192,16.4444445 4.22222218,14.456632 4.22222218,12 Z M15.3333333,16.4444445 L13.6352431,16.4444445 C15.8997222,13.9146528 15.900382,10.0861111 13.6352431,7.55555553 L15.3333333,7.55555553 C17.7896181,7.55555553 19.7777778,9.54336804 19.7777778,12 C19.7777778,14.45625 17.7899653,16.4444445 15.3333333,16.4444445 Z" id="path-1"></path>
    </defs>
    <g id="toggle-off" stroke="none" stroke-width="1" fill="none" fill-rule="evenodd">
        <mask id="mask-2" fill="white">
            <use xlink:href="#path-1"></use>
        </mask>
        <g fill-rule="nonzero"></g>
        <g id="🎨-color" mask="url(#mask-2)" fill="#000000">
            <rect id="🎨-Color" x="0" y="0" width="24" height="24"></rect>
        </g>
    </g>
</svg>