<?xml version="1.0" encoding="UTF-8"?>
<svg width="24px" height="24px" viewBox="0 0 24 24" version="1.1" xmlns="http://www.w3.org/2000/svg" xmlns:xlink="http://www.w3.org/1999/xlink">
    <!-- Generator: Sketch 52.5 (67469) - http://www.bohemiancoding.com/sketch -->
    <title>toilet-paper</title>
    <desc>Created with Sketch.</desc>
    <defs>
        <path d="M6.46366779,3.14186847 C4.62906571,3.14186847 3.14186847,6.11626295 3.14186847,9.78546712 L3.14186847,15.7394464 C3.14186847,17.1622838 2.80276812,17.9114187 2.06332175,20.1294118 C1.94394459,20.4878893 2.21072659,20.8581315 2.58858127,20.8581315 L12.3089965,20.8581315 C12.7854671,20.8581315 13.2086505,20.5532872 13.3595156,20.1010381 C13.8034602,18.7695502 14.2145329,17.5958478 14.2145329,15.7394464 L14.2145329,9.78546712 C14.2145329,6.89273354 15.033564,4.47335636 16.3058824,3.14186847 L6.46366779,3.14186847 Z M5.35640135,10.8927336 C5.050519,10.8927336 4.80276813,10.6449827 4.80276813,10.3391003 C4.80276813,10.033218 5.050519,9.78546712 5.35640135,9.78546712 C5.66228371,9.78546712 5.91003457,10.033218 5.91003457,10.3391003 C5.91003457,10.6449827 5.66228371,10.8927336 5.35640135,10.8927336 Z M7.57093423,10.8927336 C7.26505188,10.8927336 7.01730101,10.6449827 7.01730101,10.3391003 C7.01730101,10.033218 7.26505188,9.78546712 7.57093423,9.78546712 C7.87681659,9.78546712 8.12456745,10.033218 8.12456745,10.3391003 C8.12456745,10.6449827 7.87681659,10.8927336 7.57093423,10.8927336 Z M9.78546712,10.8927336 C9.47958476,10.8927336 9.2318339,10.6449827 9.2318339,10.3391003 C9.2318339,10.033218 9.47958476,9.78546712 9.78546712,9.78546712 C10.0913495,9.78546712 10.3391003,10.033218 10.3391003,10.3391003 C10.3391003,10.6449827 10.0913495,10.8927336 9.78546712,10.8927336 Z M12,10.8927336 C11.6941176,10.8927336 11.4463668,10.6449827 11.4463668,10.3391003 C11.4463668,10.033218 11.6941176,9.78546712 12,9.78546712 C12.3058824,9.78546712 12.5536332,10.033218 12.5536332,10.3391003 C12.5536332,10.6449827 12.3058824,10.8927336 12,10.8927336 Z M18.6435986,3.14186847 C16.8089966,3.14186847 15.3217993,6.11626295 15.3217993,9.78546712 C15.3217993,13.4546713 16.8089966,16.4290658 18.6435986,16.4290658 C20.4782007,16.4290658 21.965398,13.4546713 21.965398,9.78546712 C21.965398,6.11626295 20.4782007,3.14186847 18.6435986,3.14186847 Z M18.6435986,12 C18.03218,12 17.5363322,11.0086505 17.5363322,9.78546712 C17.5363322,8.56228372 18.03218,7.57093423 18.6435986,7.57093423 C19.2550173,7.57093423 19.7508651,8.56228372 19.7508651,9.78546712 C19.7508651,11.0086505 19.2550173,12 18.6435986,12 Z" id="path-1"></path>
    </defs>
    <g id="toilet-paper" stroke="none" stroke-width="1" fill="none" fill-rule="evenodd">
        <mask id="mask-2" fill="white">
            <use xlink:href="#path-1"></use>
        </mask>
        <g fill-rule="nonzero"></g>
        <g id="🎨-color" mask="url(#mask-2)" fill="#000000">
            <rect id="🎨-Color" x="0" y="0" width="24" height="24"></rect>
        </g>
    </g>
</svg>