<?xml version="1.0" encoding="UTF-8"?>
<svg width="24px" height="24px" viewBox="0 0 24 24" version="1.1" xmlns="http://www.w3.org/2000/svg" xmlns:xlink="http://www.w3.org/1999/xlink">
    <!-- Generator: Sketch 52.5 (67469) - http://www.bohemiancoding.com/sketch -->
    <title>toolbox</title>
    <desc>Created with Sketch.</desc>
    <defs>
        <path d="M21.6339844,10.3839844 L19.8664063,8.61640623 C19.6320313,8.38203123 19.3140625,8.25039061 18.9824219,8.25039061 L17,8.25039061 L17,5.12499997 C17,4.08945309 16.1605469,3.24999996 15.125,3.24999996 L8.87499998,3.24999996 C7.8394531,3.24999996 6.99999997,4.08945309 6.99999997,5.12499997 L6.99999997,8.24999998 L5.01757809,8.24999998 C4.68593746,8.24999998 4.36835934,8.38164061 4.13359371,8.61601561 L2.36601558,10.3839844 C2.13164058,10.6183594 1.99999995,10.9363281 1.99999995,11.2679687 L1.99999995,14.5 L6.99999997,14.5 L6.99999997,13.875 C6.99999997,13.5296875 7.27968748,13.25 7.62499998,13.25 L8.87499998,13.25 C9.22031249,13.25 9.49999999,13.5296875 9.49999999,13.875 L9.49999999,14.5 L14.5,14.5 L14.5,13.875 C14.5,13.5296875 14.7796875,13.25 15.125,13.25 L16.375,13.25 C16.7203125,13.25 17,13.5296875 17,13.875 L17,14.5 L22.0000001,14.5 L22.0000001,11.2675781 C22.0000001,10.9363281 21.8683594,10.6183594 21.6339844,10.3839844 Z M14.5,8.24999998 L9.49999999,8.24999998 L9.49999999,5.74999997 L14.5,5.74999997 L14.5,8.24999998 Z M17,16.375 C17,16.7203125 16.7203125,17 16.375,17 L15.125,17 C14.7796875,17 14.5,16.7203125 14.5,16.375 L14.5,15.75 L9.49999999,15.75 L9.49999999,16.375 C9.49999999,16.7203125 9.22031249,17 8.87499998,17 L7.62499998,17 C7.27968748,17 6.99999997,16.7203125 6.99999997,16.375 L6.99999997,15.75 L1.99999995,15.75 L1.99999995,19.5 C1.99999995,20.1902344 2.55976558,20.75 3.24999996,20.75 L20.75,20.75 C21.4402344,20.75 22.0000001,20.1902344 22.0000001,19.5 L22.0000001,15.75 L17,15.75 L17,16.375 Z" id="path-1"></path>
    </defs>
    <g id="toolbox" stroke="none" stroke-width="1" fill="none" fill-rule="evenodd">
        <mask id="mask-2" fill="white">
            <use xlink:href="#path-1"></use>
        </mask>
        <g fill-rule="nonzero"></g>
        <g id="🎨-color" mask="url(#mask-2)" fill="#000000">
            <rect id="🎨-Color" x="0" y="0" width="24" height="24"></rect>
        </g>
    </g>
</svg>