<?xml version="1.0" encoding="UTF-8"?>
<svg width="24px" height="24px" viewBox="0 0 24 24" version="1.1" xmlns="http://www.w3.org/2000/svg" xmlns:xlink="http://www.w3.org/1999/xlink">
    <!-- Generator: Sketch 52.5 (67469) - http://www.bohemiancoding.com/sketch -->
    <title>tooth</title>
    <desc>Created with Sketch.</desc>
    <defs>
        <path d="M20.6125,5.75976559 C20.1824219,3.99335933 18.7722657,2.55429683 17.0183594,2.09882808 C15.7609375,1.77226557 14.5574219,2.29804683 13.5363281,3.04921871 C13.409375,3.14257808 13.2644531,3.19492183 13.1261719,3.26328121 L14.2324219,3.97460933 C14.5222656,4.16093746 14.6066406,4.54765621 14.4199219,4.83828121 C14.2457031,5.10976559 13.8625,5.22343747 13.55625,5.02578122 L9.63007811,2.50156245 C8.82148436,2.07773433 7.93554685,1.86093745 7.02031248,2.09882808 C5.26640622,2.55468745 3.85624996,3.99335933 3.42617183,5.75976559 C3.03046871,7.38554685 3.40976558,8.91640623 4.26601559,10.0734375 C5.17851559,11.3066406 5.54257809,12.7554688 5.68359372,14.2667969 C5.85546872,16.1089844 6.08710935,17.9449219 6.50156247,19.7480469 L6.80624997,21.0742188 C6.93085935,21.6160157 7.4113281,22 7.96523435,22 C8.51093748,22 8.98671873,21.6269532 9.11914061,21.0953125 L10.465625,15.6882813 C10.64375,14.9726563 11.284375,14.4710938 12.01875,14.4710938 C12.753125,14.4710938 13.39375,14.9730469 13.571875,15.6882813 L14.9183594,21.0953125 C15.0507813,21.6269532 15.5265625,22 16.0722656,22 C16.6261719,22 17.1066407,21.6160157 17.23125,21.0742188 L17.5359375,19.7480469 C17.9503907,17.9453125 18.1816407,16.1089844 18.3539063,14.2667969 C18.4949219,12.7550781 18.8589844,11.3066406 19.7714844,10.0734375 C20.6289063,8.91679686 21.0082032,7.38593748 20.6125,5.75976559 Z" id="path-1"></path>
    </defs>
    <g id="tooth" stroke="none" stroke-width="1" fill="none" fill-rule="evenodd">
        <mask id="mask-2" fill="white">
            <use xlink:href="#path-1"></use>
        </mask>
        <g></g>
        <g id="🎨-color" mask="url(#mask-2)" fill="#000000">
            <rect id="🎨-Color" x="0" y="0" width="24" height="24"></rect>
        </g>
    </g>
</svg>