<?xml version="1.0" encoding="UTF-8"?>
<svg width="24px" height="24px" viewBox="0 0 24 24" version="1.1" xmlns="http://www.w3.org/2000/svg" xmlns:xlink="http://www.w3.org/1999/xlink">
    <!-- Generator: Sketch 52.5 (67469) - http://www.bohemiancoding.com/sketch -->
    <title>torah</title>
    <desc>Created with Sketch.</desc>
    <defs>
        <path d="M20.75,16 L20.75,2.99999995 C20.75,2.37499995 20.375,1.99999995 19.75,1.99999995 L6.99999997,1.99999995 C4.87499996,1.99999995 3.24999996,3.62499996 3.24999996,5.74999997 L3.24999996,18.25 C3.24999996,20.375 4.87499996,22.0000001 6.99999997,22.0000001 L19.75,22.0000001 C20.25,22.0000001 20.75,21.625 20.75,21 L20.75,20.375 C20.75,20.125 20.625,19.875 20.375,19.625 C20.25,19 20.25,17.25 20.375,16.75 C20.625,16.625 20.75,16.375 20.75,16 Z M8.68398436,7.5160156 C8.57578123,7.34374998 8.69960936,7.11992185 8.90273436,7.11992185 L10.9761719,7.11992185 C11.0113281,7.11992185 11.04375,7.1019531 11.0625,7.0722656 L12.40625,4.93320309 C12.5078125,4.77187496 12.7425781,4.77187496 12.8441406,4.93320309 L14.1878906,7.0722656 C14.20656,7.10193608 14.2391633,7.11993431 14.2742188,7.11992185 L16.3476563,7.11992185 C16.5507813,7.11992185 16.6746094,7.34374998 16.5664063,7.5160156 L15.5160156,9.18749999 L16.5660156,10.8589844 C16.6742188,11.0308594 16.5503906,11.2546875 16.3472656,11.2546875 L14.2738281,11.2546875 C14.2386719,11.2546875 14.20625,11.2726562 14.1875,11.3023437 L12.84375,13.4414063 C12.7421875,13.6027344 12.5074219,13.6027344 12.4058594,13.4414063 L11.0625,11.3027344 C11.0438306,11.2730639 11.0112273,11.2550657 10.9761719,11.2550781 L8.90273436,11.2550781 C8.69960936,11.2550781 8.57578123,11.03125 8.68398436,10.859375 L9.73398436,9.18749999 L8.68398436,7.5160156 Z M18.125,19.5 L6.99999997,19.5 C6.24999997,19.5 5.74999997,19 5.74999997,18.25 C5.74999997,17.5 6.37499997,17 6.99999997,17 L18.125,17 L18.125,19.5 Z" id="path-1"></path>
    </defs>
    <g id="torah" stroke="none" stroke-width="1" fill="none" fill-rule="evenodd">
        <mask id="mask-2" fill="white">
            <use xlink:href="#path-1"></use>
        </mask>
        <g fill-rule="nonzero"></g>
        <g id="🎨-color" mask="url(#mask-2)" fill="#000000">
            <rect id="🎨-Color" x="0" y="0" width="24" height="24"></rect>
        </g>
    </g>
</svg>