<?xml version="1.0" encoding="UTF-8"?>
<svg width="24px" height="24px" viewBox="0 0 24 24" version="1.1" xmlns="http://www.w3.org/2000/svg" xmlns:xlink="http://www.w3.org/1999/xlink">
    <!-- Generator: Sketch 52.5 (67469) - http://www.bohemiancoding.com/sketch -->
    <title>torii-gate</title>
    <desc>Created with Sketch.</desc>
    <defs>
        <path d="M16.7050781,3.24999996 L7.29492185,3.24999996 C5.45685891,3.24988641 3.64405288,2.82192777 1.99999995,1.99999995 L1.99999995,5.74999997 C1.99999995,6.44023435 2.55976558,6.99999997 3.24999996,6.99999997 L4.49999996,6.99999997 L4.49999996,9.49999999 L2.62499995,9.49999999 C2.27968745,9.49999999 1.99999995,9.77968749 1.99999995,10.125 L1.99999995,11.375 C1.99999995,11.7203125 2.27968745,12 2.62499995,12 L4.49999996,12 L4.49999996,21.375 C4.49999996,21.7203125 4.77968746,22 5.12499997,22 L6.37499997,22 C6.72031247,22 6.99999997,21.7203125 6.99999997,21.375 L6.99999997,12 L17,12 L17,21.375 C17,21.7203125 17.2796875,22 17.625,22 L18.875,22 C19.2203125,22 19.5,21.7203125 19.5,21.375 L19.5,12 L21.375,12 C21.7203125,12 22,11.7203125 22,11.375 L22,10.125 C22,9.77968749 21.7203125,9.49999999 21.375,9.49999999 L19.5,9.49999999 L19.5,6.99999997 L20.75,6.99999997 C21.4402344,6.99999997 22,6.44023435 22,5.74999997 L22,1.99999995 C20.3559471,2.82192777 18.5431411,3.24988641 16.7050781,3.24999996 Z M6.99999997,6.99999997 L10.75,6.99999997 L10.75,9.49999999 L6.99999997,9.49999999 L6.99999997,6.99999997 Z M17,9.49999999 L13.25,9.49999999 L13.25,6.99999997 L17,6.99999997 L17,9.49999999 Z" id="path-1"></path>
    </defs>
    <g id="torii-gate" stroke="none" stroke-width="1" fill="none" fill-rule="evenodd">
        <mask id="mask-2" fill="white">
            <use xlink:href="#path-1"></use>
        </mask>
        <g fill-rule="nonzero"></g>
        <g id="🎨-color" mask="url(#mask-2)" fill="#000000">
            <rect id="🎨-Color" x="0" y="0" width="24" height="24"></rect>
        </g>
    </g>
</svg>