<?xml version="1.0" encoding="UTF-8"?>
<svg width="24px" height="24px" viewBox="0 0 24 24" version="1.1" xmlns="http://www.w3.org/2000/svg" xmlns:xlink="http://www.w3.org/1999/xlink">
    <!-- Generator: Sketch 52.5 (67469) - http://www.bohemiancoding.com/sketch -->
    <title>tractor</title>
    <desc>Created with Sketch.</desc>
    <defs>
        <path d="M18.5,14.5 C16.98125,14.5 15.75,15.73125 15.75,17.25 C15.75,18.76875 16.98125,20 18.5,20 C20.01875,20 21.25,18.76875 21.25,17.25 C21.25,15.73125 20.01875,14.5 18.5,14.5 Z M18.5,18 C18.0865625,18 17.75,17.6634375 17.75,17.25 C17.75,16.8365625 18.0865625,16.5 18.5,16.5 C18.9134375,16.5 19.25,16.8365625 19.25,17.25 C19.25,17.6634375 18.9134375,18 18.5,18 Z M21,8.99999998 L19,8.99999998 L19,7.74374998 C19,7.30249998 19.146875,6.87624997 19.4109375,6.52999997 C19.5490625,6.34874997 19.521875,6.09062497 19.3696875,5.92093747 L18.69375,5.16562497 C18.485625,4.93281246 18.12125,4.94937496 17.921875,5.18999997 C17.330625,5.90312497 17,6.80656247 17,7.74374998 L17,8.99999998 L13.8021875,8.99999998 L12.049375,4.91062496 C11.8139883,4.35791879 11.2710542,3.99940759 10.6703125,3.99999996 L6.49999997,3.99999996 C5.67281247,3.99999996 4.99999996,4.67281246 4.99999996,5.49999997 L4.99999996,10.07875 C4.73031246,9.86843749 4.34499996,9.87687499 4.09718746,10.1246875 L3.12499996,11.096875 C2.85656245,11.3653125 2.85656245,11.800625 3.12499996,12.0690625 L3.28312496,12.2271875 C3.12718746,12.5165625 3.00312496,12.8153125 2.91093745,13.1246875 L2.68749995,13.1246875 C2.30781245,13.1246875 1.99999995,13.4325 1.99999995,13.8121875 L1.99999995,15.1871875 C1.99999995,15.566875 2.30781245,15.8746875 2.68749995,15.8746875 L2.91062495,15.8746875 C3.00312496,16.184375 3.12687496,16.4828125 3.28281246,16.7725 L3.12468746,16.930625 C2.85624995,17.1990625 2.85624995,17.634375 3.12468746,17.9028125 L4.09687496,18.875 C4.36531246,19.1434375 4.80062496,19.1434375 5.06906247,18.875 L5.22718747,18.716875 C5.51656247,18.8728125 5.81531247,18.996875 6.12468747,19.0890625 L6.12468747,19.3125 C6.12468747,19.6921875 6.43249997,20 6.81218747,20 L8.18718748,20 C8.56687498,20 8.87468748,19.6921875 8.87468748,19.3125 L8.87468748,19.089375 C9.18406249,18.9971875 9.48281249,18.873125 9.77218749,18.7171875 L9.93031249,18.8753125 C10.19875,19.14375 10.6340625,19.14375 10.9025,18.8753125 L11.8746875,17.903125 C12.143125,17.6346875 12.143125,17.199375 11.8746875,16.9309375 L11.7165625,16.7728125 C11.8725,16.4834375 11.9965625,16.1846875 12.08875,15.8753125 L12.3125,15.8753125 C12.6921875,15.8753125 13,15.5675 13,15.1878125 L13,15.0003125 L15.516875,15.0003125 C16.2015625,14.094375 17.276875,13.5003125 18.5,13.5003125 C19.0825,13.5003125 19.6271875,13.644375 20.11875,13.8815625 L21.706875,12.2934375 C21.894375,12.1059375 21.9996875,11.8515625 21.9996875,11.58625 L21.9996875,9.99999999 C22.0000001,9.44781249 21.5521875,8.99999998 21,8.99999998 Z M7.49999998,17 C6.11937497,17 4.99999996,15.880625 4.99999996,14.5 C4.99999996,13.119375 6.11937497,12 7.49999998,12 C8.88062498,12 9.99999999,13.119375 9.99999999,14.5 C9.99999999,15.880625 8.88062498,17 7.49999998,17 Z M8.18749998,8.99999998 L6.99999997,8.99999998 L6.99999997,5.99999997 L10.3403125,5.99999997 L11.62625,8.99999998 L8.18749998,8.99999998 Z" id="path-1"></path>
    </defs>
    <g id="tractor" stroke="none" stroke-width="1" fill="none" fill-rule="evenodd">
        <mask id="mask-2" fill="white">
            <use xlink:href="#path-1"></use>
        </mask>
        <g fill-rule="nonzero"></g>
        <g id="🎨-color" mask="url(#mask-2)" fill="#000000">
            <rect id="🎨-Color" x="0" y="0" width="24" height="24"></rect>
        </g>
    </g>
</svg>