<?xml version="1.0" encoding="UTF-8"?>
<svg width="24px" height="24px" viewBox="0 0 24 24" version="1.1" xmlns="http://www.w3.org/2000/svg" xmlns:xlink="http://www.w3.org/1999/xlink">
    <!-- Generator: Sketch 52.5 (67469) - http://www.bohemiancoding.com/sketch -->
    <title>trademark</title>
    <desc>Created with Sketch.</desc>
    <defs>
        <path d="M5.03496872,9.09790624 L2.37499995,9.09790624 C2.1679062,9.09790624 1.99999995,8.92999998 1.99999995,8.72290623 L1.99999995,7.37499998 C1.99999995,7.16790623 2.1679062,6.99999998 2.37499995,6.99999998 L10.1424687,6.99999998 C10.3495625,6.99999998 10.5174687,7.16790623 10.5174687,7.37499998 L10.5174687,8.72290623 C10.5174687,8.92999998 10.3495625,9.09790624 10.1424687,9.09790624 L7.48249998,9.09790624 L7.48249998,16.625 C7.48249998,16.8320938 7.31459373,17 7.10749998,17 L5.40993747,17 C5.20284372,17 5.03493747,16.8320938 5.03493747,16.625 L5.03493747,9.09790624 L5.03496872,9.09790624 Z M12.3070313,6.99999998 L14.3515625,6.99999998 C14.5116097,7.00000211 14.6540163,7.10157945 14.706125,7.25290623 L16.0735938,11.2237812 C16.297375,11.8671562 16.5770625,12.8741563 16.5770625,12.8741563 L16.6050625,12.8741563 C16.6050625,12.8741563 16.88475,11.8671562 17.1085313,11.2237812 L18.4759688,7.25290623 C18.5280775,7.10157945 18.6704841,7.00000211 18.8305313,6.99999997 L20.8745938,6.99999997 C21.06995,6.99999561 21.2325838,7.14997056 21.248375,7.34468748 L21.99875,16.5946875 C22.0164688,16.8130313 21.8440313,17 21.6249688,17 L19.9343125,17 C19.7371282,16.9999986 19.5736289,16.8472882 19.5601875,16.6505625 L19.276375,12.4965 C19.2204375,11.74125 19.276375,10.8181875 19.276375,10.8181875 L19.248375,10.8181875 C19.248375,10.8181875 18.9127188,11.867125 18.6889375,12.4965 L17.7295625,15.1443438 C17.67579,15.292747 17.5348449,15.391591 17.377,15.3915938 L15.8050625,15.3915938 C15.6472176,15.391591 15.5062725,15.292747 15.4525,15.1443438 L14.493125,12.4965 C14.2693438,11.867125 13.9336563,10.8181875 13.9336563,10.8181875 L13.9056875,10.8181875 C13.9056875,10.8181875 13.961625,11.74125 13.9056875,12.4965 L13.621875,16.6505625 C13.6085,16.8472813 13.445,17 13.2478125,17 L11.54375,17 C11.3244687,17 11.152,16.8126875 11.1700312,16.5941563 L11.9333125,7.34415623 C11.9493487,7.14966625 12.1118813,6.99999054 12.3070313,6.99999998 Z" id="path-1"></path>
    </defs>
    <g id="trademark" stroke="none" stroke-width="1" fill="none" fill-rule="evenodd">
        <mask id="mask-2" fill="white">
            <use xlink:href="#path-1"></use>
        </mask>
        <g fill-rule="nonzero"></g>
        <g id="🎨-color" mask="url(#mask-2)" fill="#000000">
            <rect id="🎨-Color" x="0" y="0" width="24" height="24"></rect>
        </g>
    </g>
</svg>