<?xml version="1.0" encoding="UTF-8"?>
<svg width="24px" height="24px" viewBox="0 0 24 24" version="1.1" xmlns="http://www.w3.org/2000/svg" xmlns:xlink="http://www.w3.org/1999/xlink">
    <!-- Generator: Sketch 52.5 (67469) - http://www.bohemiancoding.com/sketch -->
    <title>traffic-light</title>
    <desc>Created with Sketch.</desc>
    <defs>
        <path d="M19.5,9.49999999 L17,9.49999999 L17,8.02031248 C18.453125,7.50390623 19.5,6.13046872 19.5,4.49999996 L17,4.49999996 L17,3.24999996 C17,2.55976558 16.4402344,1.99999995 15.75,1.99999995 L8.24999998,1.99999995 C7.5597656,1.99999995 6.99999997,2.55976558 6.99999997,3.24999996 L6.99999997,4.49999996 L4.49999996,4.49999996 C4.49999996,6.13046872 5.54687497,7.50390623 6.99999997,8.02031248 L6.99999997,9.49999999 L4.49999996,9.49999999 C4.49999996,11.1304687 5.54687497,12.5039063 6.99999997,13.0203125 L6.99999997,14.5 L4.49999996,14.5 C4.49999996,16.1734375 5.60351559,17.5738282 7.11679685,18.0566407 C7.60234373,20.309375 9.60156249,22.0000001 12,22.0000001 C14.3984375,22.0000001 16.3976563,20.309375 16.8832031,18.0566407 C18.3964844,17.5738282 19.5,16.1734375 19.5,14.5 L17,14.5 L17,13.0203125 C18.453125,12.5039063 19.5,11.1304687 19.5,9.49999999 Z M12,18.25 C10.9644531,18.25 10.125,17.4105469 10.125,16.375 C10.125,15.3394531 10.9644531,14.5 12,14.5 C13.0355469,14.5 13.875,15.3394531 13.875,16.375 C13.875,17.4105469 13.0355469,18.25 12,18.25 Z M12,13.25 C10.9644531,13.25 10.125,12.4105469 10.125,11.375 C10.125,10.3394531 10.9644531,9.49999999 12,9.49999999 C13.0355469,9.49999999 13.875,10.3394531 13.875,11.375 C13.875,12.4105469 13.0355469,13.25 12,13.25 Z M12,8.24999998 C10.9644531,8.24999998 10.125,7.41054685 10.125,6.37499997 C10.125,5.33945309 10.9644531,4.49999996 12,4.49999996 C13.0355469,4.49999996 13.875,5.33945309 13.875,6.37499997 C13.875,7.41054685 13.0355469,8.24999998 12,8.24999998 Z" id="path-1"></path>
    </defs>
    <g id="traffic-light" stroke="none" stroke-width="1" fill="none" fill-rule="evenodd">
        <mask id="mask-2" fill="white">
            <use xlink:href="#path-1"></use>
        </mask>
        <g fill-rule="nonzero"></g>
        <g id="🎨-color" mask="url(#mask-2)" fill="#000000">
            <rect id="🎨-Color" x="0" y="0" width="24" height="24"></rect>
        </g>
    </g>
</svg>