<?xml version="1.0" encoding="UTF-8"?>
<svg width="24px" height="24px" viewBox="0 0 24 24" version="1.1" xmlns="http://www.w3.org/2000/svg" xmlns:xlink="http://www.w3.org/1999/xlink">
    <!-- Generator: Sketch 52.5 (67469) - http://www.bohemiancoding.com/sketch -->
    <title>trash</title>
    <desc>Created with Sketch.</desc>
    <defs>
        <path d="M3.24999996,5.28124997 L3.24999996,4.18749996 C3.24999996,3.66796871 3.66796871,3.24999996 4.18749996,3.24999996 L8.56249998,3.24999996 L8.92968748,2.5195312 C9.08593749,2.1992187 9.41015624,1.99999995 9.76562499,1.99999995 L14.2304688,1.99999995 C14.5859375,1.99999995 14.9101563,2.1992187 15.0703125,2.5195312 L15.4375,3.24999996 L19.8125,3.24999996 C20.3320313,3.24999996 20.75,3.66796871 20.75,4.18749996 L20.75,5.28124997 C20.75,5.53906247 20.5390625,5.74999997 20.28125,5.74999997 L3.71874996,5.74999997 C3.46093746,5.74999997 3.24999996,5.53906247 3.24999996,5.28124997 Z M19.46875,7.49609373 L18.671875,20.2421875 C18.609375,21.2304688 17.7890625,22.0000001 16.8007813,22.0000001 L7.19921873,22.0000001 C6.21093747,22.0000001 5.39062497,21.2304688 5.32812497,20.2421875 L4.53124996,7.49609373 C4.51562496,7.22656248 4.73046871,6.99999997 4.99999996,6.99999997 L19.0039063,6.99999997 C19.2695313,6.99999997 19.484375,7.22656248 19.46875,7.49609373 Z" id="path-1"></path>
    </defs>
    <g id="trash" stroke="none" stroke-width="1" fill="none" fill-rule="evenodd">
        <mask id="mask-2" fill="white">
            <use xlink:href="#path-1"></use>
        </mask>
        <g fill-rule="nonzero"></g>
        <g id="🎨-color" mask="url(#mask-2)" fill="#000000">
            <rect id="🎨-Color" x="0" y="0" width="24" height="24"></rect>
        </g>
    </g>
</svg>