<?xml version="1.0" encoding="UTF-8"?>
<svg width="24px" height="24px" viewBox="0 0 24 24" version="1.1" xmlns="http://www.w3.org/2000/svg" xmlns:xlink="http://www.w3.org/1999/xlink">
    <!-- Generator: Sketch 52.5 (67469) - http://www.bohemiancoding.com/sketch -->
    <title>trash-alt</title>
    <desc>Created with Sketch.</desc>
    <defs>
        <path d="M10.75,9.34374999 L10.75,17.78125 C10.75,18.0401172 10.5401172,18.25 10.28125,18.25 L9.34374999,18.25 C9.0848828,18.25 8.87499998,18.0401172 8.87499998,17.78125 L8.87499998,9.34374999 C8.87499998,9.0848828 9.0848828,8.87499998 9.34374999,8.87499998 L10.28125,8.87499998 C10.5401172,8.87499998 10.75,9.0848828 10.75,9.34374999 Z M14.65625,8.87499998 L13.71875,8.87499998 C13.4598828,8.87499998 13.25,9.0848828 13.25,9.34374999 L13.25,17.78125 C13.25,18.0401172 13.4598828,18.25 13.71875,18.25 L14.65625,18.25 C14.9151172,18.25 15.125,18.0401172 15.125,17.78125 L15.125,9.34374999 C15.125,9.0848828 14.9151172,8.87499998 14.65625,8.87499998 Z M19.8125,5.12499997 C20.3302735,5.12499997 20.75,5.54472653 20.75,6.06249997 L20.75,6.53124997 C20.75,6.79011716 20.5401172,6.99999997 20.28125,6.99999997 L19.5,6.99999997 L19.5,20.125 C19.5,21.1605469 18.6605469,22.0000001 17.625,22.0000001 L6.37499997,22.0000001 C5.33945309,22.0000001 4.49999996,21.1605469 4.49999996,20.125 L4.49999996,6.99999997 L3.71874996,6.99999997 C3.45988277,6.99999997 3.24999996,6.79011716 3.24999996,6.53124997 L3.24999996,6.06249997 C3.24999996,5.54472653 3.66972652,5.12499997 4.18749996,5.12499997 L7.09417966,5.12499997 L8.42300779,2.91031245 C8.76186829,2.34555131 9.37219933,1.99999361 10.0308203,1.99999995 L13.9692188,1.99999995 C14.6278397,1.99999361 15.2381708,2.34555131 15.5770313,2.91031245 L16.9058203,5.12499997 L19.8125,5.12499997 Z M9.2808203,5.12499997 L14.7192188,5.12499997 L14.0375,3.98878902 C13.9951424,3.91819388 13.9188511,3.87499917 13.8365234,3.87499996 L10.1635547,3.87499996 C10.0812271,3.87499917 10.0049357,3.91819388 9.96257811,3.98878902 L9.2808203,5.12499997 Z M17.625,6.99999997 L6.37499997,6.99999997 L6.37499997,19.890625 C6.37499997,20.0200668 6.47993323,20.125 6.60937497,20.125 L17.390625,20.125 C17.5200668,20.125 17.625,20.0200668 17.625,19.890625 L17.625,6.99999997 Z" id="path-1"></path>
    </defs>
    <g id="trash-alt" stroke="none" stroke-width="1" fill="none" fill-rule="evenodd">
        <mask id="mask-2" fill="white">
            <use xlink:href="#path-1"></use>
        </mask>
        <g fill-rule="nonzero"></g>
        <g id="🎨-color" mask="url(#mask-2)" fill="#000000">
            <rect id="🎨-Color" x="0" y="0" width="24" height="24"></rect>
        </g>
    </g>
</svg>