<?xml version="1.0" encoding="UTF-8"?>
<svg width="24px" height="24px" viewBox="0 0 24 24" version="1.1" xmlns="http://www.w3.org/2000/svg" xmlns:xlink="http://www.w3.org/1999/xlink">
    <!-- Generator: Sketch 52.5 (67469) - http://www.bohemiancoding.com/sketch -->
    <title>tree</title>
    <desc>Created with Sketch.</desc>
    <defs>
        <path d="M19.2494164,16.7661479 L16.1408561,13.2451362 L17.3326849,13.2451362 C17.6832685,13.2451362 17.9933852,13.0505837 18.1412452,12.736965 C18.2891051,12.4241245 18.240467,12.0653697 18.0136187,11.8011673 L14.9735409,8.26459142 L16.0976654,8.26459142 C16.451751,8.26459142 16.7708171,8.05642021 16.9093385,7.73501943 C17.0463035,7.41867702 16.9817121,7.05058363 16.744358,6.79805445 L12.4536965,2.2268482 C12.2190661,1.97587544 11.781323,1.97587544 11.5463035,2.2268482 L7.25525289,6.79805445 C7.01789881,7.05058363 6.95369647,7.41867702 7.09027235,7.73501943 C7.22879375,8.05642021 7.548249,8.26459142 7.90233461,8.26459142 L9.02645913,8.26459142 L5.98599219,11.8019455 C5.75992215,12.0657588 5.71128402,12.4241245 5.85875483,12.7373541 C6.00661476,13.0505837 6.31634238,13.2451362 6.66731515,13.2451362 L7.85914395,13.2451362 L4.75058362,16.7661479 C4.51712059,17.0303502 4.4642023,17.3922179 4.61206222,17.7101168 C4.75797662,18.0233463 5.07898829,18.225681 5.42957195,18.225681 L10.7548638,18.225681 L10.7548638,19.1770428 L9.57626458,21.0603113 C9.36926069,21.4743191 9.670428,21.9614786 10.1330739,21.9614786 L13.8669261,21.9614786 C14.329572,21.9614786 14.6307393,21.4743191 14.4237354,21.0603113 L13.2451362,19.1770428 L13.2451362,18.225681 L18.570428,18.225681 C18.9210117,18.225681 19.2420234,18.0233463 19.3879378,17.7101168 C19.5357977,17.3922179 19.4828794,17.0303502 19.2494164,16.7661479 Z" id="path-1"></path>
    </defs>
    <g id="tree" stroke="none" stroke-width="1" fill="none" fill-rule="evenodd">
        <mask id="mask-2" fill="white">
            <use xlink:href="#path-1"></use>
        </mask>
        <g></g>
        <g id="🎨-color" mask="url(#mask-2)" fill="#000000">
            <rect id="🎨-Color" x="0" y="0" width="24" height="24"></rect>
        </g>
    </g>
</svg>