<?xml version="1.0" encoding="UTF-8"?>
<svg width="24px" height="24px" viewBox="0 0 24 24" version="1.1" xmlns="http://www.w3.org/2000/svg" xmlns:xlink="http://www.w3.org/1999/xlink">
    <!-- Generator: Sketch 52.5 (67469) - http://www.bohemiancoding.com/sketch -->
    <title>trello</title>
    <desc>Created with Sketch.</desc>
    <defs>
        <path d="M18.5625,3.24999996 L5.43749997,3.24999996 C4.23046871,3.24999996 3.24999996,4.23046871 3.24999996,5.43749997 L3.24999996,18.5625 C3.24999996,19.7695313 4.23046871,20.75 5.43749997,20.75 L18.5625,20.75 C19.7695313,20.75 20.75,19.7695313 20.75,18.5625 L20.75,5.43749997 C20.75,4.23046871 19.7695313,3.24999996 18.5625,3.24999996 Z M10.8632812,16.5078125 C10.8632812,17.0859375 10.3945312,17.5585938 9.81249999,17.5585938 L6.57421872,17.5585938 C5.99609372,17.5585938 5.52343747,17.0898438 5.52343747,16.5078125 L5.52343747,6.57421872 C5.52343747,5.99609372 5.99218747,5.52343747 6.57421872,5.52343747 L9.81249999,5.52343747 C10.390625,5.52343747 10.8632812,5.99218747 10.8632812,6.57421872 L10.8632812,16.5078125 Z M18.4765625,12.1328125 C18.4765625,12.7109375 18.0078125,13.1835938 17.4257813,13.1835938 L14.1875,13.1835938 C13.609375,13.1835938 13.1367188,12.7148438 13.1367188,12.1328125 L13.1367188,6.57421872 C13.1367188,5.99609372 13.6054688,5.52343747 14.1875,5.52343747 L17.4257813,5.52343747 C18.0039063,5.52343747 18.4765625,5.99218747 18.4765625,6.57421872 L18.4765625,12.1328125 Z" id="path-1"></path>
    </defs>
    <g id="trello" stroke="none" stroke-width="1" fill="none" fill-rule="evenodd">
        <mask id="mask-2" fill="white">
            <use xlink:href="#path-1"></use>
        </mask>
        <g fill-rule="nonzero"></g>
        <g id="🎨-color" mask="url(#mask-2)" fill="#000000">
            <rect id="🎨-Color" x="0" y="0" width="24" height="24"></rect>
        </g>
    </g>
</svg>