<?xml version="1.0" encoding="UTF-8"?>
<svg width="24px" height="24px" viewBox="0 0 24 24" version="1.1" xmlns="http://www.w3.org/2000/svg" xmlns:xlink="http://www.w3.org/1999/xlink">
    <!-- Generator: Sketch 52.5 (67469) - http://www.bohemiancoding.com/sketch -->
    <title>tripadvisor</title>
    <desc>Created with Sketch.</desc>
    <defs>
        <path d="M7.77777776,12.8514236 C7.77777776,13.311007 7.40520831,13.6835764 6.94562497,13.6835764 C6.48604164,13.6835764 6.11347219,13.311007 6.11347219,12.8514236 C6.11347219,12.3918403 6.48604164,12.0192708 6.94562497,12.0192708 C7.40520831,12.0192708 7.77777776,12.3918056 7.77777776,12.8514236 Z M16.9778472,12.0196181 C16.5184722,12.0196181 16.1460417,12.3920139 16.1460417,12.8514236 C16.1460417,13.3107986 16.5184375,13.6832292 16.9778472,13.6832292 C17.4372222,13.6832292 17.8096528,13.3108333 17.8096528,12.8514236 C17.8096181,12.3920139 17.4372222,12.0196181 16.9778472,12.0196181 Z M20.0815973,16.8630209 C17.9056598,18.5680209 14.7595139,18.18625 13.0545486,16.0102778 L11.9788889,17.6187848 L10.9135069,16.0236806 C9.23722221,18.1205556 6.20440969,18.5198959 4.04249996,16.9283681 C1.81826384,15.2909375 1.34253467,12.1604514 2.97996523,9.93621527 C2.76941896,9.22352703 2.43793785,8.55233151 1.99999995,7.95194442 L5.13493052,7.95020831 C7.18547417,6.67428437 9.56291837,6.02245219 11.9774653,6.07416664 C14.3342653,6.03215039 16.6525189,6.67569221 18.6504167,7.92656248 L21.9913195,7.92913192 C21.5493788,8.53411022 21.2162472,9.21147692 21.006875,9.93083332 C22.631632,12.1095486 22.2209028,15.1867361 20.0815973,16.8630209 Z M11.0057639,12.8944792 C11.0055208,10.6876389 9.21635415,8.89881943 7.00951386,8.89906248 C4.80267358,8.89930554 3.01388884,10.6884722 3.01409718,12.8953125 C3.01434023,15.1021528 4.80350691,16.8909722 7.0103472,16.8907292 C9.21565971,16.888125 11.0028472,15.1011806 11.0057639,12.8958681 L11.0057639,12.8944792 Z M11.9985069,12.5314583 C12.1871528,9.98145832 14.2731597,7.98687498 16.8290625,7.91263887 C15.2984668,7.25086223 13.644774,6.92170249 11.9774306,6.94694442 C10.30793,6.93075483 8.65242479,7.2526455 7.11062498,7.89322915 C9.69201388,7.9481597 11.8085069,9.95656249 11.9985069,12.5314583 Z M20.7382987,11.5326042 C19.9746875,9.46197915 17.6771181,8.40246526 15.6065278,9.16604165 C13.5359028,9.92965277 12.4763889,12.2272222 13.2399653,14.2978125 L13.2399653,14.2989236 C14.0051736,16.3686111 16.3023959,17.4270834 18.3728473,16.6639584 C20.4428125,15.8999306 21.5017709,13.6027778 20.7382987,11.5326042 Z M9.41749999,12.8511806 L9.41749999,12.8551736 C9.41552082,14.2207292 8.30687498,15.3261111 6.94131942,15.324132 C5.57576386,15.3221528 4.47038191,14.213507 4.47236107,12.8479514 C4.47434024,11.4823958 5.58298608,10.3770139 6.94854164,10.378993 C8.31170137,10.3830208 9.41527776,11.4880208 9.41749999,12.8511806 Z M8.56638887,12.8511806 L8.56638887,12.8482639 C8.56461804,11.9529861 7.83743053,11.2286458 6.94215275,11.2304167 C6.04687497,11.2321875 5.32253469,11.959375 5.32430552,12.8546181 C5.32607636,13.7498958 6.05326386,14.4742361 6.94850692,14.4724653 C7.84177081,14.4685417 8.56437498,13.7444097 8.56638887,12.8511806 Z M19.449132,12.8511806 L19.449132,12.8528472 C19.4484375,14.2184028 18.3408681,15.3248611 16.9752778,15.324132 C15.6096875,15.3234028 14.5032639,14.2158681 14.5039931,12.8502778 C14.5046875,11.4847222 15.612257,10.3782639 16.9778472,10.378993 C18.3420834,10.3812847 19.4473264,11.4869444 19.449132,12.8511806 Z M18.5982986,12.8509028 C18.5979861,11.955625 17.8719792,11.2301042 16.9767014,11.2304167 C16.0814236,11.2307292 15.3559028,11.9567361 15.3562153,12.8520139 C15.3565278,13.7472917 16.0825347,14.4727778 16.9778125,14.4725 C17.8724306,14.4709028 18.5971181,13.7458333 18.5982986,12.8512153 L18.5982986,12.8509028 Z" id="path-1"></path>
    </defs>
    <g id="tripadvisor" stroke="none" stroke-width="1" fill="none" fill-rule="evenodd">
        <mask id="mask-2" fill="white">
            <use xlink:href="#path-1"></use>
        </mask>
        <g fill-rule="nonzero"></g>
        <g id="🎨-color" mask="url(#mask-2)" fill="#000000">
            <rect id="🎨-Color" x="0" y="0" width="24" height="24"></rect>
        </g>
    </g>
</svg>