<?xml version="1.0" encoding="UTF-8"?>
<svg width="24px" height="24px" viewBox="0 0 24 24" version="1.1" xmlns="http://www.w3.org/2000/svg" xmlns:xlink="http://www.w3.org/1999/xlink">
    <!-- Generator: Sketch 52.5 (67469) - http://www.bohemiancoding.com/sketch -->
    <title>truck</title>
    <desc>Created with Sketch.</desc>
    <defs>
        <path d="M21.5,15 L21,15 L21,11.621875 C21,11.225 20.840625,10.84375 20.559375,10.5625 L17.4375,7.44062498 C17.15625,7.15937498 16.775,6.99999997 16.378125,6.99999997 L15,6.99999997 L15,5.49999997 C15,4.67187496 14.328125,3.99999996 13.5,3.99999996 L3.49999996,3.99999996 C2.67187495,3.99999996 1.99999995,4.67187496 1.99999995,5.49999997 L1.99999995,15.5 C1.99999995,16.328125 2.67187495,17 3.49999996,17 L3.99999996,17 C3.99999996,18.65625 5.34374997,20 6.99999997,20 C8.65624998,20 9.99999999,18.65625 9.99999999,17 L14,17 C14,18.65625 15.34375,20 17,20 C18.65625,20 20,18.65625 20,17 L21.5,17 C21.775,17 22.0000001,16.775 22.0000001,16.5 L22.0000001,15.5 C22.0000001,15.225 21.775,15 21.5,15 Z M6.99999997,18.5 C6.17187497,18.5 5.49999997,17.828125 5.49999997,17 C5.49999997,16.171875 6.17187497,15.5 6.99999997,15.5 C7.82812498,15.5 8.49999998,16.171875 8.49999998,17 C8.49999998,17.828125 7.82812498,18.5 6.99999997,18.5 Z M17,18.5 C16.171875,18.5 15.5,17.828125 15.5,17 C15.5,16.171875 16.171875,15.5 17,15.5 C17.828125,15.5 18.5,16.171875 18.5,17 C18.5,17.828125 17.828125,18.5 17,18.5 Z M19.5,12 L15,12 L15,8.49999998 L16.378125,8.49999998 L19.5,11.621875 L19.5,12 Z" id="path-1"></path>
    </defs>
    <g id="truck" stroke="none" stroke-width="1" fill="none" fill-rule="evenodd">
        <mask id="mask-2" fill="white">
            <use xlink:href="#path-1"></use>
        </mask>
        <g fill-rule="nonzero"></g>
        <g id="🎨-color" mask="url(#mask-2)" fill="#000000">
            <rect id="🎨-Color" x="0" y="0" width="24" height="24"></rect>
        </g>
    </g>
</svg>