<?xml version="1.0" encoding="UTF-8"?>
<svg width="24px" height="24px" viewBox="0 0 24 24" version="1.1" xmlns="http://www.w3.org/2000/svg" xmlns:xlink="http://www.w3.org/1999/xlink">
    <!-- Generator: Sketch 52.5 (67469) - http://www.bohemiancoding.com/sketch -->
    <title>truck-moving</title>
    <desc>Created with Sketch.</desc>
    <defs>
        <path d="M21.415625,11.415625 L19.5875,9.58749999 C19.2125,9.21249999 18.703125,9.00312499 18.171875,9.00312499 L17,9.00312499 L17,5.99999997 C17,5.44687497 16.553125,4.99999997 16,4.99999997 L2.99999995,4.99999997 C2.44687495,4.99999997 1.99999995,5.44687497 1.99999995,5.99999997 L1.99999995,16.5 C1.99999995,17.88125 3.11874996,19 4.49999996,19 C5.32187497,19 6.04374997,18.596875 6.49999997,17.9875 C6.95624997,18.6 7.67812498,19 8.49999998,19 C9.88124999,19 11,17.88125 11,16.5 C11,16.328125 10.98125,16.1625 10.95,16 L16.05,16 C16.015625,16.1625 16,16.328125 16,16.5 C16,17.88125 17.11875,19 18.5,19 C19.88125,19 21,17.88125 21,16.5 C21,16.328125 20.98125,16.1625 20.95,16 L21.5,16 C21.775,16 22.0000001,15.775 22.0000001,15.5 L22.0000001,12.828125 C22.0000001,12.296875 21.790625,11.790625 21.415625,11.415625 Z M4.49999996,17.5 C3.94999996,17.5 3.49999996,17.05 3.49999996,16.5 C3.49999996,15.95 3.94999996,15.5 4.49999996,15.5 C5.04999997,15.5 5.49999997,15.95 5.49999997,16.5 C5.49999997,17.05 5.04999997,17.5 4.49999996,17.5 Z M8.49999998,17.5 C7.94999998,17.5 7.49999998,17.05 7.49999998,16.5 C7.49999998,15.95 7.94999998,15.5 8.49999998,15.5 C9.04999999,15.5 9.49999999,15.95 9.49999999,16.5 C9.49999999,17.05 9.04999999,17.5 8.49999998,17.5 Z M17,10.5 L18.171875,10.5 C18.30625,10.5 18.43125,10.553125 18.525,10.646875 L19.878125,12 L17,12 L17,10.5 Z M18.5,17.5 C17.95,17.5 17.5,17.05 17.5,16.5 C17.5,15.95 17.95,15.5 18.5,15.5 C19.05,15.5 19.5,15.95 19.5,16.5 C19.5,17.05 19.05,17.5 18.5,17.5 Z" id="path-1"></path>
    </defs>
    <g id="truck-moving" stroke="none" stroke-width="1" fill="none" fill-rule="evenodd">
        <mask id="mask-2" fill="white">
            <use xlink:href="#path-1"></use>
        </mask>
        <g fill-rule="nonzero"></g>
        <g id="🎨-color" mask="url(#mask-2)" fill="#000000">
            <rect id="🎨-Color" x="0" y="0" width="24" height="24"></rect>
        </g>
    </g>
</svg>