<?xml version="1.0" encoding="UTF-8"?>
<svg width="24px" height="24px" viewBox="0 0 24 24" version="1.1" xmlns="http://www.w3.org/2000/svg" xmlns:xlink="http://www.w3.org/1999/xlink">
    <!-- Generator: Sketch 52.5 (67469) - http://www.bohemiancoding.com/sketch -->
    <title>truck-monster</title>
    <desc>Created with Sketch.</desc>
    <defs>
        <path d="M21.5,11 L21,11 L21,8.99999999 C21,8.44781248 20.5521875,7.99999998 20,7.99999998 L17.7,7.99999998 L15.100625,4.75062496 C14.7209807,4.27624275 14.1463422,4.00007593 13.53875,3.99999996 L9.99999999,3.99999996 C9.44781249,3.99999996 8.99999998,4.44781246 8.99999998,4.99999997 L8.99999998,7.99999998 L3.49999996,7.99999998 C3.22374996,7.99999998 2.99999995,8.22374998 2.99999995,8.49999998 L2.99999995,11 L2.49999995,11 C2.22374995,11 1.99999995,11.22375 1.99999995,11.5 L1.99999995,12.5 C1.99999995,12.77625 2.22374995,13 2.49999995,13 L3.02249996,13 C3.93531246,11.7921875 5.36937497,11 6.99999997,11 C8.63062498,11 10.0646875,11.7921875 10.9775,13 L13.0228125,13 C13.935625,11.7921875 15.3696875,11 17.0003125,11 C18.6309375,11 20.065,11.7921875 20.9778125,13 L21.5,13 C21.77625,13 22.0000001,12.77625 22.0000001,12.5 L22.0000001,11.5 C22.0000001,11.22375 21.77625,11 21.5,11 Z M11,7.99999998 L11,5.99999997 L13.53875,5.99999997 L15.13875,7.99999998 L11,7.99999998 Z M20.5,15 L20.3375,15 C20.26875,14.7709375 20.1790625,14.55375 20.0671875,14.3471875 L20.181875,14.2325 C20.3771875,14.0371875 20.3771875,13.720625 20.181875,13.5253125 L19.4746875,12.818125 C19.279375,12.6228125 18.9628125,12.6228125 18.7675,12.818125 L18.6528125,12.9328125 C18.4449904,12.8206935 18.2262487,12.7301183 18,12.6625 L18,12.5 C18,12.22375 17.77625,12 17.5,12 L16.5,12 C16.22375,12 16,12.22375 16,12.5 L16,12.6625 C15.7709375,12.73125 15.55375,12.8209375 15.3471875,12.9328125 L15.2325,12.818125 C15.0371875,12.6228125 14.720625,12.6228125 14.5253125,12.818125 L13.818125,13.5253125 C13.6228125,13.720625 13.6228125,14.0371875 13.818125,14.2325 L13.9328125,14.3471875 C13.8206935,14.5550096 13.7301183,14.7737513 13.6625,15 L13.5,15 C13.22375,15 13,15.22375 13,15.5 L13,16.5 C13,16.77625 13.22375,17 13.5,17 L13.6625,17 C13.73125,17.2290625 13.8209375,17.44625 13.9328125,17.6528125 L13.818125,17.7675 C13.6228125,17.9628125 13.6228125,18.279375 13.818125,18.4746875 L14.5253125,19.181875 C14.720625,19.3771875 15.0371875,19.3771875 15.2325,19.181875 L15.3471875,19.0671875 C15.55375,19.17875 15.77125,19.26875 16.0003125,19.3375 L16.0003125,19.5 C16.0003125,19.77625 16.2240625,20 16.5003125,20 L17.5003125,20 C17.7765625,20 18.0003125,19.77625 18.0003125,19.5 L18.0003125,19.3375 C18.229375,19.26875 18.4465625,19.1790625 18.6534375,19.0671875 L18.768125,19.181875 C18.9634375,19.3771875 19.28,19.3771875 19.4753125,19.181875 L20.1825,18.4746875 C20.3778125,18.279375 20.3778125,17.9628125 20.1825,17.7675 L20.0678125,17.6528125 C20.1799315,17.4449904 20.2705067,17.2262487 20.338125,17 L20.500625,17 C20.776875,17 21.000625,16.77625 21.000625,16.5 L21.000625,15.5 C21,15.22375 20.77625,15 20.5,15 Z M17,17.5 C16.1715625,17.5 15.5,16.8284375 15.5,16 C15.5,15.1715625 16.1715625,14.5 17,14.5 C17.8284375,14.5 18.5,15.1715625 18.5,16 C18.5,16.8284375 17.8284375,17.5 17,17.5 Z M10.5,15 L10.3375,15 C10.26875,14.7709375 10.1790625,14.55375 10.0671875,14.3471875 L10.181875,14.2325 C10.3771875,14.0371875 10.3771875,13.720625 10.181875,13.5253125 L9.47468749,12.818125 C9.27937499,12.6228125 8.96281248,12.6228125 8.76749998,12.818125 L8.65281248,12.9328125 C8.44499038,12.8206935 8.22624865,12.7301183 7.99999998,12.6625 L7.99999998,12.5 C7.99999998,12.22375 7.77624998,12 7.49999998,12 L6.49999997,12 C6.22374997,12 5.99999997,12.22375 5.99999997,12.5 L5.99999997,12.6625 C5.77093747,12.73125 5.55374997,12.8209375 5.34718747,12.9328125 L5.23249997,12.818125 C5.03718747,12.6228125 4.72062496,12.6228125 4.52531246,12.818125 L3.81812496,13.525 C3.62281246,13.7203125 3.62281246,14.036875 3.81812496,14.2321875 L3.93281246,14.346875 C3.82069346,14.5546971 3.73011826,14.7734388 3.66249996,14.9996875 L3.49999996,14.9996875 C3.22374996,14.9996875 2.99999995,15.2234375 2.99999995,15.4996875 L2.99999995,16.4996875 C2.99999995,16.7759375 3.22374996,16.9996875 3.49999996,16.9996875 L3.66249996,16.9996875 C3.73124996,17.22875 3.82093746,17.4459375 3.93281246,17.6525 L3.81812496,17.7671875 C3.62281246,17.9625 3.62281246,18.2790625 3.81812496,18.474375 L4.52531246,19.1815625 C4.72062496,19.376875 5.03718747,19.376875 5.23249997,19.1815625 L5.34718747,19.066875 C5.55374997,19.1784375 5.77124997,19.2684375 6.00031247,19.3371875 L6.00031247,19.4996875 C6.00031247,19.7759375 6.22406247,19.9996875 6.50031247,19.9996875 L7.50031248,19.9996875 C7.77656248,19.9996875 8.00031248,19.7759375 8.00031248,19.4996875 L8.00031248,19.3371875 C8.22937498,19.2684375 8.44656248,19.17875 8.65343748,19.066875 L8.76812498,19.1815625 C8.96343748,19.376875 9.27999999,19.376875 9.47531249,19.1815625 L10.1825,18.474375 C10.3778125,18.2790625 10.3778125,17.9625 10.1825,17.7671875 L10.0678125,17.6525 C10.1799315,17.4446779 10.2705067,17.2259362 10.338125,16.9996875 L10.500625,16.9996875 C10.776875,16.9996875 11.000625,16.7759375 11.000625,16.4996875 L11.000625,15.4996875 C11,15.22375 10.77625,15 10.5,15 Z M6.99999997,17.5 C6.17156247,17.5 5.49999997,16.8284375 5.49999997,16 C5.49999997,15.1715625 6.17156247,14.5 6.99999997,14.5 C7.82843748,14.5 8.49999998,15.1715625 8.49999998,16 C8.49999998,16.8284375 7.82843748,17.5 6.99999997,17.5 Z" id="path-1"></path>
    </defs>
    <g id="truck-monster" stroke="none" stroke-width="1" fill="none" fill-rule="evenodd">
        <mask id="mask-2" fill="white">
            <use xlink:href="#path-1"></use>
        </mask>
        <g fill-rule="nonzero"></g>
        <g id="🎨-color" mask="url(#mask-2)" fill="#000000">
            <rect id="🎨-Color" x="0" y="0" width="24" height="24"></rect>
        </g>
    </g>
</svg>