<?xml version="1.0" encoding="UTF-8"?>
<svg width="24px" height="24px" viewBox="0 0 24 24" version="1.1" xmlns="http://www.w3.org/2000/svg" xmlns:xlink="http://www.w3.org/1999/xlink">
    <!-- Generator: Sketch 52.5 (67469) - http://www.bohemiancoding.com/sketch -->
    <title>truck-pickup</title>
    <desc>Created with Sketch.</desc>
    <defs>
        <path d="M21.5,13 L21,13 L21,11 C21,10.4478125 20.5521875,9.99999999 20,9.99999999 L18.5,9.99999999 L15.100625,5.75062497 C14.7209807,5.27624276 14.1463422,5.00007593 13.53875,4.99999997 L9.99999999,4.99999997 C9.44781249,4.99999997 8.99999998,5.44781247 8.99999998,5.99999997 L8.99999998,9.99999999 L3.99999996,9.99999999 C3.44781246,9.99999999 2.99999995,10.4478125 2.99999995,11 L2.99999995,13 L2.49999995,13 C2.22374995,13 1.99999995,13.22375 1.99999995,13.5 L1.99999995,14.5 C1.99999995,14.77625 2.22374995,15 2.49999995,15 L4.05031246,15 C4.02656246,15.1646875 3.99999996,15.32875 3.99999996,15.5 C3.99999996,17.433125 5.56687497,19 7.49999998,19 C9.43312499,19 11,17.433125 11,15.5 C11,15.32875 10.9734375,15.1646875 10.9496875,15 L13.050625,15 C13.026875,15.1646875 13.0003125,15.32875 13.0003125,15.5 C13.0003125,17.433125 14.5671875,19 16.5003125,19 C18.4334375,19 20.0003125,17.433125 20.0003125,15.5 C20.0003125,15.32875 19.97375,15.1646875 19.95,15 L21.5,15 C21.77625,15 22.0000001,14.77625 22.0000001,14.5 L22.0000001,13.5 C22.0000001,13.22375 21.77625,13 21.5,13 Z M11,6.99999997 L13.53875,6.99999997 L15.93875,9.99999999 L11,9.99999999 L11,6.99999997 Z M7.49999998,17 C6.67281247,17 5.99999997,16.3271875 5.99999997,15.5 C5.99999997,14.6728125 6.67281247,14 7.49999998,14 C8.32718748,14 8.99999998,14.6728125 8.99999998,15.5 C8.99999998,16.3271875 8.32718748,17 7.49999998,17 Z M16.5,17 C15.6728125,17 15,16.3271875 15,15.5 C15,14.6728125 15.6728125,14 16.5,14 C17.3271875,14 18,14.6728125 18,15.5 C18,16.3271875 17.3271875,17 16.5,17 Z" id="path-1"></path>
    </defs>
    <g id="truck-pickup" stroke="none" stroke-width="1" fill="none" fill-rule="evenodd">
        <mask id="mask-2" fill="white">
            <use xlink:href="#path-1"></use>
        </mask>
        <g fill-rule="nonzero"></g>
        <g id="🎨-color" mask="url(#mask-2)" fill="#000000">
            <rect id="🎨-Color" x="0" y="0" width="24" height="24"></rect>
        </g>
    </g>
</svg>