<?xml version="1.0" encoding="UTF-8"?>
<svg width="24px" height="24px" viewBox="0 0 24 24" version="1.1" xmlns="http://www.w3.org/2000/svg" xmlns:xlink="http://www.w3.org/1999/xlink">
    <!-- Generator: Sketch 52.5 (67469) - http://www.bohemiancoding.com/sketch -->
    <title>truck-loading</title>
    <desc>Created with Sketch.</desc>
    <defs>
        <path d="M3.59750386,15.7160687 C3.66926673,15.9812793 3.94383771,16.1404056 4.20904832,16.0686428 L10.9609984,14.2589704 C11.226209,14.1872075 11.3853354,13.9126365 11.3135725,13.6474259 L9.7628705,7.85959436 C9.69110763,7.59438375 9.41653665,7.43525739 9.15132604,7.50702026 L6.74258968,8.15600622 L7.51638063,11.0483619 L5.58814349,11.5631825 L4.81435254,8.67082682 L2.40249605,9.31669265 C2.13728544,9.38845553 1.97815908,9.66302651 2.04992195,9.92823712 L3.59750386,15.7160687 Z M14.0124805,3.99687984 C13.4602184,3.99687984 13.0140406,4.44305768 13.0140406,4.99531978 L13.0140406,15.0920437 L2.21528856,18.0374415 C2.0811232,18.074883 2.00312007,18.2121685 2.04056157,18.3432138 L2.4336973,19.7878316 C2.4711388,19.9219969 2.60842429,20 2.73946953,19.9625585 L15.023401,16.6115445 C15.0982839,18.4773791 16.6209049,19.9719189 18.5054603,19.9719189 C20.4368175,19.9719189 22.0000001,18.4087364 22.0000001,16.4773791 L22.0000001,3.99687984 L14.0124805,3.99687984 Z M18.5054603,17.975039 C17.6786272,17.975039 17.0078003,17.3042122 17.0078003,16.4773791 C17.0078003,15.650546 17.6786272,14.9797192 18.5054603,14.9797192 C19.3322933,14.9797192 20.0031202,15.650546 20.0031202,16.4773791 C20.0031202,17.3042122 19.3322933,17.975039 18.5054603,17.975039 Z" id="path-1"></path>
    </defs>
    <g id="truck-loading" stroke="none" stroke-width="1" fill="none" fill-rule="evenodd">
        <mask id="mask-2" fill="white">
            <use xlink:href="#path-1"></use>
        </mask>
        <g fill-rule="nonzero"></g>
        <g id="🎨-color" mask="url(#mask-2)" fill="#000000">
            <rect id="🎨-Color" x="0" y="0" width="24" height="24"></rect>
        </g>
    </g>
</svg>