<?xml version="1.0" encoding="UTF-8"?>
<svg width="24px" height="24px" viewBox="0 0 24 24" version="1.1" xmlns="http://www.w3.org/2000/svg" xmlns:xlink="http://www.w3.org/1999/xlink">
    <!-- Generator: Sketch 52.5 (67469) - http://www.bohemiancoding.com/sketch -->
    <title>tshirt</title>
    <desc>Created with Sketch.</desc>
    <defs>
        <path d="M21.6947041,7.03115262 L15.6292835,4.02492208 C15.0031153,4.8909657 13.6168224,5.49532707 12,5.49532707 C10.3831776,5.49532707 8.99688472,4.8909657 8.37071649,4.02492208 L2.3052959,7.03115262 C2.05918998,7.15576322 1.95950151,7.45482864 2.08099684,7.70093456 L3.86292831,11.2679128 C3.9875389,11.5140187 4.28660432,11.6137072 4.53271024,11.4922118 L6.29595013,10.6292835 C6.6261682,10.4672897 7.01246103,10.7071651 7.01246103,11.0778816 L7.01246103,18.9781932 C7.01246103,19.5295951 7.4579439,19.9750779 8.00934577,19.9750779 L15.9844237,19.9750779 C16.5358256,19.9750779 16.9813084,19.5295951 16.9813084,18.9781932 L16.9813084,11.0747664 C16.9813084,10.7071651 17.3676013,10.4641744 17.6978193,10.6261682 L19.4610592,11.4890966 C19.7071651,11.6137072 20.0062306,11.5140187 20.1308412,11.2647975 L21.9158879,7.70093456 C22.0404985,7.45482864 21.94081,7.15264795 21.6947041,7.03115262 Z" id="path-1"></path>
    </defs>
    <g id="tshirt" stroke="none" stroke-width="1" fill="none" fill-rule="evenodd">
        <mask id="mask-2" fill="white">
            <use xlink:href="#path-1"></use>
        </mask>
        <g></g>
        <g id="🎨-color" mask="url(#mask-2)" fill="#000000">
            <rect id="🎨-Color" x="0" y="0" width="24" height="24"></rect>
        </g>
    </g>
</svg>