<?xml version="1.0" encoding="UTF-8"?>
<svg width="24px" height="24px" viewBox="0 0 24 24" version="1.1" xmlns="http://www.w3.org/2000/svg" xmlns:xlink="http://www.w3.org/1999/xlink">
    <!-- Generator: Sketch 52.5 (67469) - http://www.bohemiancoding.com/sketch -->
    <title>tty</title>
    <desc>Created with Sketch.</desc>
    <defs>
        <path d="M2.20976558,6.05554685 C7.62117185,0.644140568 16.3869531,0.652187443 21.7903125,6.05554685 C22.0277344,6.29296872 22.0666407,6.66085935 21.891211,6.94152341 L20.2031641,9.64222655 C20.0194844,9.93614669 19.6516744,10.0563315 19.3298828,9.92757811 L15.9540235,8.57722655 C15.6577852,8.45871648 15.4756649,8.15853806 15.5073828,7.84105467 L15.7398828,5.51562497 C13.3123438,4.63851559 10.6369141,4.65679684 8.26007811,5.51562497 L8.49261717,7.84109373 C8.52438899,8.15858933 8.34225049,8.45879767 8.04597654,8.57726561 L4.67007809,9.92757811 C4.3482854,10.0562979 3.98049724,9.9361202 3.79679683,9.64222655 L2.10886714,6.94148435 C1.93212498,6.65869951 1.97396231,6.29134734 2.20976558,6.05554685 Z M5.74999997,14.03125 L5.74999997,12.46875 C5.74999997,12.2098828 5.54011716,12 5.28124997,12 L3.71874996,12 C3.45988277,12 3.24999996,12.2098828 3.24999996,12.46875 L3.24999996,14.03125 C3.24999996,14.2901172 3.45988277,14.5 3.71874996,14.5 L5.28124997,14.5 C5.54011716,14.5 5.74999997,14.2901172 5.74999997,14.03125 Z M9.49999999,14.03125 L9.49999999,12.46875 C9.49999999,12.2098828 9.29011717,12 9.03124999,12 L7.46874998,12 C7.20988279,12 6.99999997,12.2098828 6.99999997,12.46875 L6.99999997,14.03125 C6.99999997,14.2901172 7.20988279,14.5 7.46874998,14.5 L9.03124999,14.5 C9.29011717,14.5 9.49999999,14.2901172 9.49999999,14.03125 Z M13.25,14.03125 L13.25,12.46875 C13.25,12.2098828 13.0401172,12 12.78125,12 L11.21875,12 C10.9598828,12 10.75,12.2098828 10.75,12.46875 L10.75,14.03125 C10.75,14.2901172 10.9598828,14.5 11.21875,14.5 L12.78125,14.5 C13.0401172,14.5 13.25,14.2901172 13.25,14.03125 Z M17,14.03125 L17,12.46875 C17,12.2098828 16.7901172,12 16.53125,12 L14.96875,12 C14.7098828,12 14.5,12.2098828 14.5,12.46875 L14.5,14.03125 C14.5,14.2901172 14.7098828,14.5 14.96875,14.5 L16.53125,14.5 C16.7901172,14.5 17,14.2901172 17,14.03125 Z M20.75,14.03125 L20.75,12.46875 C20.75,12.2098828 20.5401172,12 20.28125,12 L18.71875,12 C18.4598828,12 18.25,12.2098828 18.25,12.46875 L18.25,14.03125 C18.25,14.2901172 18.4598828,14.5 18.71875,14.5 L20.28125,14.5 C20.5401172,14.5 20.75,14.2901172 20.75,14.03125 Z M7.62499998,17.78125 L7.62499998,16.21875 C7.62499998,15.9598828 7.41511716,15.75 7.15624998,15.75 L5.59374997,15.75 C5.33488278,15.75 5.12499997,15.9598828 5.12499997,16.21875 L5.12499997,17.78125 C5.12499997,18.0401172 5.33488278,18.25 5.59374997,18.25 L7.15624998,18.25 C7.41511716,18.25 7.62499998,18.0401172 7.62499998,17.78125 Z M11.375,17.78125 L11.375,16.21875 C11.375,15.9598828 11.1651172,15.75 10.90625,15.75 L9.34374999,15.75 C9.0848828,15.75 8.87499998,15.9598828 8.87499998,16.21875 L8.87499998,17.78125 C8.87499998,18.0401172 9.0848828,18.25 9.34374999,18.25 L10.90625,18.25 C11.1651172,18.25 11.375,18.0401172 11.375,17.78125 Z M15.125,17.78125 L15.125,16.21875 C15.125,15.9598828 14.9151172,15.75 14.65625,15.75 L13.09375,15.75 C12.8348828,15.75 12.625,15.9598828 12.625,16.21875 L12.625,17.78125 C12.625,18.0401172 12.8348828,18.25 13.09375,18.25 L14.65625,18.25 C14.9151172,18.25 15.125,18.0401172 15.125,17.78125 Z M18.875,17.78125 L18.875,16.21875 C18.875,15.9598828 18.6651172,15.75 18.40625,15.75 L16.84375,15.75 C16.5848828,15.75 16.375,15.9598828 16.375,16.21875 L16.375,17.78125 C16.375,18.0401172 16.5848828,18.25 16.84375,18.25 L18.40625,18.25 C18.6651172,18.25 18.875,18.0401172 18.875,17.78125 Z M5.74999997,21.53125 L5.74999997,19.96875 C5.74999997,19.7098829 5.54011716,19.5 5.28124997,19.5 L3.71874996,19.5 C3.45988277,19.5 3.24999996,19.7098829 3.24999996,19.96875 L3.24999996,21.53125 C3.24999996,21.7901172 3.45988277,22.0000001 3.71874996,22.0000001 L5.28124997,22.0000001 C5.54011716,22.0000001 5.74999997,21.7901172 5.74999997,21.53125 Z M17,21.53125 L17,19.96875 C17,19.7098829 16.7901172,19.5 16.53125,19.5 L7.46874998,19.5 C7.20988279,19.5 6.99999997,19.7098829 6.99999997,19.96875 L6.99999997,21.53125 C6.99999997,21.7901172 7.20988279,22.0000001 7.46874998,22.0000001 L16.53125,22.0000001 C16.7901172,22.0000001 17,21.7901172 17,21.53125 Z M20.75,21.53125 L20.75,19.96875 C20.75,19.7098829 20.5401172,19.5 20.28125,19.5 L18.71875,19.5 C18.4598828,19.5 18.25,19.7098829 18.25,19.96875 L18.25,21.53125 C18.25,21.7901172 18.4598828,22.0000001 18.71875,22.0000001 L20.28125,22.0000001 C20.5401172,22.0000001 20.75,21.7901172 20.75,21.53125 Z" id="path-1"></path>
    </defs>
    <g id="tty" stroke="none" stroke-width="1" fill="none" fill-rule="evenodd">
        <mask id="mask-2" fill="white">
            <use xlink:href="#path-1"></use>
        </mask>
        <g fill-rule="nonzero"></g>
        <g id="🎨-color" mask="url(#mask-2)" fill="#000000">
            <rect id="🎨-Color" x="0" y="0" width="24" height="24"></rect>
        </g>
    </g>
</svg>