<?xml version="1.0" encoding="UTF-8"?>
<svg width="24px" height="24px" viewBox="0 0 24 24" version="1.1" xmlns="http://www.w3.org/2000/svg" xmlns:xlink="http://www.w3.org/1999/xlink">
    <!-- Generator: Sketch 52.5 (67469) - http://www.bohemiancoding.com/sketch -->
    <title>tumblr-square</title>
    <desc>Created with Sketch.</desc>
    <defs>
        <path d="M18.875,3.24999996 L5.12499997,3.24999996 C4.08984371,3.24999996 3.24999996,4.08984371 3.24999996,5.12499997 L3.24999996,18.875 C3.24999996,19.9101563 4.08984371,20.75 5.12499997,20.75 L18.875,20.75 C19.9101563,20.75 20.75,19.9101563 20.75,18.875 L20.75,5.12499997 C20.75,4.08984371 19.9101563,3.24999996 18.875,3.24999996 Z M15.6601563,17.4765625 C15.328125,17.8320313 14.4414063,18.25 13.28125,18.25 C10.3320312,18.25 9.69140624,16.0820313 9.69140624,14.8164063 L9.69140624,11.3007812 L8.53124998,11.3007812 C8.39843748,11.3007812 8.28906248,11.1914062 8.28906248,11.0585937 L8.28906248,9.39843749 C8.28906248,9.22265624 8.39843748,9.06640624 8.56640623,9.00781249 C10.0820312,8.47265623 10.5546875,7.15234373 10.625,6.14843747 C10.6445312,5.87890622 10.7851562,5.74999997 11.015625,5.74999997 L12.7460938,5.74999997 C12.8789063,5.74999997 12.9882813,5.85937497 12.9882813,5.99218747 L12.9882813,8.80468748 L15.015625,8.80468748 C15.1484375,8.80468748 15.2578125,8.91406248 15.2578125,9.04687499 L15.2578125,11.0429687 C15.2578125,11.1757812 15.1484375,11.2851562 15.015625,11.2851562 L12.9804688,11.2851562 L12.9804688,14.5390625 C12.9804688,15.375 13.5585938,15.8476563 14.640625,15.4140625 C14.7578125,15.3671875 14.859375,15.3359375 14.953125,15.359375 C15.0390625,15.3789063 15.09375,15.4414063 15.1328125,15.5507813 L15.671875,17.1210938 C15.7109375,17.2460938 15.75,17.3828125 15.6601563,17.4765625 Z" id="path-1"></path>
    </defs>
    <g id="tumblr-square" stroke="none" stroke-width="1" fill="none" fill-rule="evenodd">
        <mask id="mask-2" fill="white">
            <use xlink:href="#path-1"></use>
        </mask>
        <g fill-rule="nonzero"></g>
        <g id="🎨-color" mask="url(#mask-2)" fill="#000000">
            <rect id="🎨-Color" x="0" y="0" width="24" height="24"></rect>
        </g>
    </g>
</svg>