<?xml version="1.0" encoding="UTF-8"?>
<svg width="24px" height="24px" viewBox="0 0 24 24" version="1.1" xmlns="http://www.w3.org/2000/svg" xmlns:xlink="http://www.w3.org/1999/xlink">
    <!-- Generator: Sketch 52.5 (67469) - http://www.bohemiancoding.com/sketch -->
    <title>tv</title>
    <desc>Created with Sketch.</desc>
    <defs>
        <path d="M20.5,3.99999996 L3.49999996,3.99999996 C2.67187495,3.99999996 1.99999995,4.67187496 1.99999995,5.49999997 L1.99999995,15.5 C1.99999995,16.328125 2.67187495,17 3.49999996,17 L11.159375,17 L11.159375,18 L6.15937497,18 C5.60624997,18 5.15937497,18.446875 5.15937497,19 C5.15937497,19.553125 5.60624997,20 6.15937497,20 L18.159375,20 C18.7125,20 19.159375,19.553125 19.159375,19 C19.159375,18.446875 18.7125,18 18.159375,18 L13.159375,18 L13.159375,17 L20.5,17 C21.328125,17 22.0000001,16.328125 22.0000001,15.5 L22.0000001,5.49999997 C22.0000001,4.67187496 21.328125,3.99999996 20.5,3.99999996 Z M20,15 L3.99999996,15 L3.99999996,5.99999997 L20,5.99999997 L20,15 Z" id="path-1"></path>
    </defs>
    <g id="tv" stroke="none" stroke-width="1" fill="none" fill-rule="evenodd">
        <mask id="mask-2" fill="white">
            <use xlink:href="#path-1"></use>
        </mask>
        <g fill-rule="nonzero"></g>
        <g id="🎨-color" mask="url(#mask-2)" fill="#000000">
            <rect id="🎨-Color" x="0" y="0" width="24" height="24"></rect>
        </g>
    </g>
</svg>