<?xml version="1.0" encoding="UTF-8"?>
<svg width="24px" height="24px" viewBox="0 0 24 24" version="1.1" xmlns="http://www.w3.org/2000/svg" xmlns:xlink="http://www.w3.org/1999/xlink">
    <!-- Generator: Sketch 52.5 (67469) - http://www.bohemiancoding.com/sketch -->
    <title>twitch</title>
    <desc>Created with Sketch.</desc>
    <defs>
        <path d="M4.81640621,3.24999996 L3.64062496,6.25390622 L3.64062496,18.53125 L7.82031248,18.53125 L7.82031248,20.75 L10.171875,20.75 L12.390625,18.53125 L15.7890625,18.53125 L20.359375,13.9609375 L20.359375,3.24999996 L4.81640621,3.24999996 Z M18.7929688,13.1757813 L16.1796875,15.7890625 L12,15.7890625 L9.78124999,18.0078125 L9.78124999,15.7890625 L6.25390622,15.7890625 L6.25390622,4.81640621 L18.7929688,4.81640621 L18.7929688,13.1757813 Z M16.1796875,7.82031248 L16.1796875,12.3867188 L14.6132813,12.3867188 L14.6132813,7.82031248 L16.1796875,7.82031248 Z M12,7.82031248 L12,12.3867188 L10.4335937,12.3867188 L10.4335937,7.82031248 L12,7.82031248 Z" id="path-1"></path>
    </defs>
    <g id="twitch" stroke="none" stroke-width="1" fill="none" fill-rule="evenodd">
        <mask id="mask-2" fill="white">
            <use xlink:href="#path-1"></use>
        </mask>
        <g fill-rule="nonzero"></g>
        <g id="🎨-color" mask="url(#mask-2)" fill="#000000">
            <rect id="🎨-Color" x="0" y="0" width="24" height="24"></rect>
        </g>
    </g>
</svg>