<?xml version="1.0" encoding="UTF-8"?>
<svg width="24px" height="24px" viewBox="0 0 24 24" version="1.1" xmlns="http://www.w3.org/2000/svg" xmlns:xlink="http://www.w3.org/1999/xlink">
    <!-- Generator: Sketch 52.5 (67469) - http://www.bohemiancoding.com/sketch -->
    <title>twitter-square</title>
    <desc>Created with Sketch.</desc>
    <defs>
        <path d="M18.875,3.24999996 L5.12499997,3.24999996 C4.08984371,3.24999996 3.24999996,4.08984371 3.24999996,5.12499997 L3.24999996,18.875 C3.24999996,19.9101563 4.08984371,20.75 5.12499997,20.75 L18.875,20.75 C19.9101563,20.75 20.75,19.9101563 20.75,18.875 L20.75,5.12499997 C20.75,4.08984371 19.9101563,3.24999996 18.875,3.24999996 Z M16.9648438,9.45312499 C16.9726563,9.56249999 16.9726563,9.67578124 16.9726563,9.78515624 C16.9726563,13.171875 14.3945313,17.0742188 9.68359374,17.0742188 C8.23046873,17.0742188 6.88281247,16.6523438 5.74999997,15.9257813 C5.95703122,15.9492188 6.15624997,15.9570313 6.36718747,15.9570313 C7.56640623,15.9570313 8.66796873,15.5507813 9.54687499,14.8632813 C8.42187498,14.8398438 7.47656248,14.1015625 7.15234373,13.0859375 C7.54687498,13.1445313 7.90234373,13.1445313 8.30859373,13.0390625 C7.13671873,12.8007813 6.25781247,11.7695312 6.25781247,10.5234375 L6.25781247,10.4921875 C6.59765622,10.6835937 6.99609372,10.8007812 7.41406248,10.8164062 C6.70033129,10.341655 6.27203411,9.54079792 6.27343747,8.68359373 C6.27343747,8.20703123 6.39843747,7.76953123 6.62109372,7.39062498 C7.88281248,8.94531248 9.77734374,9.96093749 11.9023437,10.0703125 C11.5390625,8.33203123 12.8398438,6.92187497 14.4023438,6.92187497 C15.140625,6.92187497 15.8046875,7.23046873 16.2734375,7.73046873 C16.8515625,7.62109373 17.40625,7.40624998 17.8984375,7.11328123 C17.7070313,7.70703123 17.3046875,8.20703123 16.7734375,8.52343748 C17.2890625,8.46874998 17.7890625,8.32421873 18.25,8.12499998 C17.9023438,8.63671873 17.4648438,9.08984374 16.9648438,9.45312499 Z" id="path-1"></path>
    </defs>
    <g id="twitter-square" stroke="none" stroke-width="1" fill="none" fill-rule="evenodd">
        <mask id="mask-2" fill="white">
            <use xlink:href="#path-1"></use>
        </mask>
        <g fill-rule="nonzero"></g>
        <g id="🎨-color" mask="url(#mask-2)" fill="#000000">
            <rect id="🎨-Color" x="0" y="0" width="24" height="24"></rect>
        </g>
    </g>
</svg>