<?xml version="1.0" encoding="UTF-8"?>
<svg width="24px" height="24px" viewBox="0 0 24 24" version="1.1" xmlns="http://www.w3.org/2000/svg" xmlns:xlink="http://www.w3.org/1999/xlink">
    <!-- Generator: Sketch 52.5 (67469) - http://www.bohemiancoding.com/sketch -->
    <title>twitter</title>
    <desc>Created with Sketch.</desc>
    <defs>
        <path d="M19.9441407,7.92640623 C19.956836,8.10406248 19.956836,8.28175779 19.956836,8.45941404 C19.956836,13.8781641 15.8325,20.121836 8.29441404,20.121836 C5.97207028,20.121836 3.81472652,19.4492188 1.99999995,18.2817578 C2.32996089,18.3198047 2.64718745,18.3325 2.9898437,18.3325 C4.90605465,18.3325 6.67003904,17.6853125 8.07867186,16.58125 C6.2766406,16.5431641 4.76648434,15.3629688 4.24617184,13.7385938 C4.49999996,13.7766406 4.75378903,13.8020313 5.02031247,13.8020313 C5.38832028,13.8020313 5.75636716,13.75125 6.09898435,13.6624609 C4.22082027,13.2817188 2.81214839,11.6319922 2.81214839,9.63960936 L2.81214839,9.58886718 C3.35781246,9.89343749 3.99238277,10.0837891 4.66492184,10.1091406 C3.56085933,9.37308592 2.83753902,8.11675779 2.83753902,6.69542966 C2.83753902,5.93402341 3.04054683,5.23605465 3.39589839,4.62691403 C5.41367184,7.11421873 8.44667967,8.73855467 11.8476562,8.91624998 C11.7842187,8.61167967 11.7461328,8.29445311 11.7461328,7.97718748 C11.7461328,5.71828122 13.5735547,3.87820308 15.8451172,3.87820308 C17.0253125,3.87820308 18.0912891,4.37312496 18.8400391,5.17261715 C19.7664063,4.9949609 20.6547266,4.65230465 21.4415625,4.1827734 C21.1369532,5.13457028 20.4897657,5.93406247 19.6395313,6.4416406 C20.4644141,6.35285153 21.2639063,6.12437497 21.9999219,5.80714841 C21.4416407,6.61929685 20.7436329,7.34261716 19.9441407,7.92640623 Z" id="path-1"></path>
    </defs>
    <g id="twitter" stroke="none" stroke-width="1" fill="none" fill-rule="evenodd">
        <mask id="mask-2" fill="white">
            <use xlink:href="#path-1"></use>
        </mask>
        <g></g>
        <g id="🎨-color" mask="url(#mask-2)" fill="#000000">
            <rect id="🎨-Color" x="0" y="0" width="24" height="24"></rect>
        </g>
    </g>
</svg>