<?xml version="1.0" encoding="UTF-8"?>
<svg width="24px" height="24px" viewBox="0 0 24 24" version="1.1" xmlns="http://www.w3.org/2000/svg" xmlns:xlink="http://www.w3.org/1999/xlink">
    <!-- Generator: Sketch 52.5 (67469) - http://www.bohemiancoding.com/sketch -->
    <title>typo3</title>
    <desc>Created with Sketch.</desc>
    <defs>
        <path d="M16.4453125,15.3203125 C16.171875,15.4101563 15.9921875,15.4101563 15.7226563,15.4101563 C13.4882813,15.4101563 10.2304687,7.65624998 10.2304687,5.06249997 C10.2304687,4.09765621 10.4414062,3.79687496 10.7734375,3.52343746 C8.05859373,3.85546871 4.94140621,4.85156246 3.88671871,6.11718747 C3.67578121,6.41796872 3.52343746,6.92968747 3.52343746,7.56640623 C3.52343746,11.609375 7.69531248,20.75 10.7148437,20.75 C12.1328125,20.75 14.515625,18.4257813 16.4453125,15.3203125 M15.0273438,3.24999996 C17.8320313,3.24999996 20.4492188,3.70312496 20.4492188,5.30078122 C20.4492188,8.52734373 18.3984375,12.421875 17.3710938,12.421875 C15.5,12.421875 13.3984375,7.26171873 13.3984375,4.66796871 C13.3984375,3.46093746 13.8515625,3.24999996 15.0273438,3.24999996" id="path-1"></path>
    </defs>
    <g id="typo3" stroke="none" stroke-width="1" fill="none" fill-rule="evenodd">
        <mask id="mask-2" fill="white">
            <use xlink:href="#path-1"></use>
        </mask>
        <g fill-rule="nonzero"></g>
        <g id="🎨-color" mask="url(#mask-2)" fill="#000000">
            <rect id="🎨-Color" x="0" y="0" width="24" height="24"></rect>
        </g>
    </g>
</svg>