<?xml version="1.0" encoding="UTF-8"?>
<svg width="24px" height="24px" viewBox="0 0 24 24" version="1.1" xmlns="http://www.w3.org/2000/svg" xmlns:xlink="http://www.w3.org/1999/xlink">
    <!-- Generator: Sketch 52.5 (67469) - http://www.bohemiancoding.com/sketch -->
    <title>uber</title>
    <desc>Created with Sketch.</desc>
    <defs>
        <path d="M19.4257813,3.24999996 L4.57421871,3.24999996 C3.84374996,3.24999996 3.24999996,3.84374996 3.24999996,4.57421871 L3.24999996,19.421875 C3.24999996,20.15625 3.84374996,20.75 4.57421871,20.75 L19.421875,20.75 C20.1523438,20.75 20.7460938,20.15625 20.7460938,19.4257813 L20.7460938,4.57421871 C20.75,3.84374996 20.15625,3.24999996 19.4257813,3.24999996 Z M12.53125,17.2773438 C9.61718749,17.5703125 7.01562498,15.4453125 6.72265622,12.53125 L10.4101562,12.53125 L10.4101562,13.328125 C10.4101562,13.4726563 10.5273437,13.59375 10.6757812,13.59375 L13.328125,13.59375 C13.4726563,13.59375 13.59375,13.4765625 13.59375,13.328125 L13.59375,10.6757812 C13.59375,10.53125 13.4765625,10.4101562 13.328125,10.4101562 L10.6757812,10.4101562 C10.53125,10.4101562 10.4101562,10.5273437 10.4101562,10.6757812 L10.4101562,11.4726562 L6.72265622,11.4726562 C6.99609372,8.76171873 9.27734374,6.69921872 12,6.69921872 C14.7226563,6.69921872 17.0039063,8.76171873 17.2773438,11.4726562 C17.5703125,14.3828125 15.4453125,16.984375 12.53125,17.2773438 Z" id="path-1"></path>
    </defs>
    <g id="uber" stroke="none" stroke-width="1" fill="none" fill-rule="evenodd">
        <mask id="mask-2" fill="white">
            <use xlink:href="#path-1"></use>
        </mask>
        <g fill-rule="nonzero"></g>
        <g id="🎨-color" mask="url(#mask-2)" fill="#000000">
            <rect id="🎨-Color" x="0" y="0" width="24" height="24"></rect>
        </g>
    </g>
</svg>