<?xml version="1.0" encoding="UTF-8"?>
<svg width="24px" height="24px" viewBox="0 0 24 24" version="1.1" xmlns="http://www.w3.org/2000/svg" xmlns:xlink="http://www.w3.org/1999/xlink">
    <!-- Generator: Sketch 52.5 (67469) - http://www.bohemiancoding.com/sketch -->
    <title>umbrella-beach</title>
    <desc>Created with Sketch.</desc>
    <defs>
        <path d="M5.59999997,8.29953196 L8.78595942,9.45959437 C9.88393135,6.91544459 11.475819,4.95756627 13.1229329,4.03993756 C10.1313572,3.88736345 7.23276129,5.19313569 5.36848671,7.52823711 C5.15975036,7.79032759 5.28549139,8.18502338 5.59999997,8.29953196 Z M9.72636504,9.80218408 L17.1672387,12.5113885 C18.2829954,8.72418095 17.7507021,5.2833073 15.8371295,4.58689544 C15.6062403,4.50265207 15.3650546,4.46209045 15.1166927,4.46209045 C13.3063963,4.46240246 11.1145086,6.62028078 9.72636504,9.80218408 Z M18.2708269,5.9157566 C18.4648986,6.42433695 18.6087364,6.99531979 18.6826833,7.63775349 C18.8617785,9.19438376 18.6383776,11.0146646 18.0914197,12.8477379 L21.2932918,14.0134165 C21.6081124,14.1279251 21.9581904,13.9063963 21.9663027,13.5712949 C22.0386896,10.5856474 20.6586584,7.7229329 18.2708269,5.9157566 Z M19.4726989,18.0056163 L12.0174727,18.0056163 L14.0436818,12.4368175 L12.1672387,11.7535101 L9.8926677,18.0053042 L2.49921992,18.0053042 C2.22340089,18.0053042 1.99999995,18.2287052 1.99999995,18.5048362 L1.99999995,19.5035882 C1.99999995,19.7794072 2.22340089,20.0031202 2.49921992,20.0031202 L19.4726989,20.0031202 C19.748518,20.0031202 19.9719189,19.7794072 19.9719189,19.5035882 L19.9719189,18.5048362 C19.9719189,18.2290172 19.748518,18.0056163 19.4726989,18.0056163 Z" id="path-1"></path>
    </defs>
    <g id="umbrella-beach" stroke="none" stroke-width="1" fill="none" fill-rule="evenodd">
        <mask id="mask-2" fill="white">
            <use xlink:href="#path-1"></use>
        </mask>
        <g fill-rule="nonzero"></g>
        <g id="🎨-color" mask="url(#mask-2)" fill="#000000">
            <rect id="🎨-Color" x="0" y="0" width="24" height="24"></rect>
        </g>
    </g>
</svg>