<?xml version="1.0" encoding="UTF-8"?>
<svg width="24px" height="24px" viewBox="0 0 24 24" version="1.1" xmlns="http://www.w3.org/2000/svg" xmlns:xlink="http://www.w3.org/1999/xlink">
    <!-- Generator: Sketch 52.5 (67469) - http://www.bohemiancoding.com/sketch -->
    <title>umbrella</title>
    <desc>Created with Sketch.</desc>
    <defs>
        <path d="M21.9895834,12.8611111 C20.9965278,8.1284722 17.1840278,5.28472219 13.1111111,4.84374996 L13.1111111,4.22222218 C13.1111111,3.60763885 12.6145833,3.11111107 12,3.11111107 C11.3854167,3.11111107 10.8888889,3.60763885 10.8888889,4.22222218 L10.8888889,4.84374996 C6.80208331,5.28472219 3.02430551,8.1284722 2.01041662,12.8611111 C1.93402773,13.2118056 2.30555551,13.6006945 2.65972218,13.2569445 C4.46527774,11.3472222 6.39930553,11.4375 8.16666665,14.5416667 C8.35069443,14.8715278 8.68402776,14.8402778 8.85069443,14.5416667 C9.55208332,13.3125 10.4097222,12 12,12 C14.03125,12 15.0625,14.3888889 15.1493056,14.5416667 C15.3159722,14.8402778 15.6493056,14.8715278 15.8333334,14.5416667 C17.6041667,11.4340278 19.5520834,11.3680556 21.3402778,13.2569445 C21.6979167,13.6041667 22.0659723,13.2118056 21.9895834,12.8611111 Z M10.8888889,13.5868056 L10.8888889,18.1111111 C10.8888889,18.4166667 10.6388889,18.6666667 10.3333333,18.6666667 C10.0625,18.6666667 9.87499999,18.4826389 9.80902777,18.2951389 C9.60416665,17.7152778 8.97222221,17.4131945 8.39236109,17.6180556 C7.81249998,17.8229167 7.51041664,18.4583334 7.71527776,19.0347223 C8.10416665,20.1423612 9.15972221,20.8854167 10.3333333,20.8854167 C11.8645833,20.8854167 13.1111111,19.6388889 13.1111111,18.1076389 L13.1111111,13.5833333 C12.7951389,13.3090278 12.4236111,13.1111111 12,13.1111111 C11.5729167,13.1145833 11.2222222,13.2777778 10.8888889,13.5868056 Z" id="path-1"></path>
    </defs>
    <g id="umbrella" stroke="none" stroke-width="1" fill="none" fill-rule="evenodd">
        <mask id="mask-2" fill="white">
            <use xlink:href="#path-1"></use>
        </mask>
        <g fill-rule="nonzero"></g>
        <g id="🎨-color" mask="url(#mask-2)" fill="#000000">
            <rect id="🎨-Color" x="0" y="0" width="24" height="24"></rect>
        </g>
    </g>
</svg>