<?xml version="1.0" encoding="UTF-8"?>
<svg width="24px" height="24px" viewBox="0 0 24 24" version="1.1" xmlns="http://www.w3.org/2000/svg" xmlns:xlink="http://www.w3.org/1999/xlink">
    <!-- Generator: Sketch 52.5 (67469) - http://www.bohemiancoding.com/sketch -->
    <title>undo-alt</title>
    <desc>Created with Sketch.</desc>
    <defs>
        <path d="M11.9822266,2.31249995 C9.39359374,2.31714839 7.04324216,3.33722652 5.30800778,4.99550778 L3.91292965,3.60042965 C3.32230464,3.00980464 2.31249995,3.42808589 2.31249995,4.26332027 L2.31249995,9.49999999 C2.31249995,10.0177734 2.73222652,10.4375 3.24999996,10.4375 L8.48667967,10.4375 C9.32191405,10.4375 9.7401953,9.4276953 9.14960936,8.8370703 L7.51874998,7.20621091 C8.72437498,6.07734372 10.2844141,5.45203122 11.9417969,5.43773434 C15.5510938,5.40656247 18.5934766,8.32746092 18.5622657,12.0565625 C18.5326563,15.5941016 15.6646875,18.5625 12,18.5625 C10.3934766,18.5625 8.87511717,17.9891407 7.6785156,16.9392188 C7.49324216,16.7766797 7.21343748,16.7865625 7.0391406,16.9608203 L5.48984372,18.5101172 C5.29953122,18.7004297 5.30894528,19.0107032 5.50867184,19.1910938 C7.22648435,20.7426954 9.50289061,21.6875 12,21.6875 C17.3502344,21.6875 21.687461,17.3502735 21.6875,12.0000781 C21.6875391,6.65597654 17.3263282,2.30292964 11.9822266,2.31249995 Z" id="path-1"></path>
    </defs>
    <g id="undo-alt" stroke="none" stroke-width="1" fill="none" fill-rule="evenodd">
        <mask id="mask-2" fill="white">
            <use xlink:href="#path-1"></use>
        </mask>
        <g></g>
        <g id="🎨-color" mask="url(#mask-2)" fill="#000000">
            <rect id="🎨-Color" x="0" y="0" width="24" height="24"></rect>
        </g>
    </g>
</svg>