<?xml version="1.0" encoding="UTF-8"?>
<svg width="24px" height="24px" viewBox="0 0 24 24" version="1.1" xmlns="http://www.w3.org/2000/svg" xmlns:xlink="http://www.w3.org/1999/xlink">
    <!-- Generator: Sketch 52.5 (67469) - http://www.bohemiancoding.com/sketch -->
    <title>undo</title>
    <desc>Created with Sketch.</desc>
    <defs>
        <path d="M10.2942578,10.7630078 L2.46874995,10.7630078 C2.20988276,10.7630078 1.99999995,10.553125 1.99999995,10.2942578 L1.99999995,2.46874995 C1.99999995,2.20988276 2.20988276,1.99999995 2.46874995,1.99999995 L4.34374996,1.99999995 C4.60261715,1.99999995 4.81249996,2.20988276 4.81249996,2.46874995 L4.81249996,5.51999997 C6.60050779,3.5343359 9.19765624,2.29179683 12.0849609,2.31277339 C17.4328516,2.35160151 21.711836,6.67304685 21.7004688,12.0210547 C21.6891016,17.3616407 17.35625,21.6875 12.0130078,21.6875 C9.50953124,21.6875 7.22800779,20.7377735 5.50871091,19.1791016 C5.30953122,18.9985547 5.30035153,18.688711 5.49046872,18.4986328 L6.81730466,17.1717969 C6.99207029,16.9970313 7.27285154,16.9875391 7.45796873,17.1512891 C8.67031248,18.2240625 10.2648437,18.875 12.0130078,18.875 C15.8125391,18.875 18.8880078,15.8001563 18.8880078,12 C18.8880078,8.20050779 15.8131641,5.12499997 12.0130078,5.12499997 C9.7280078,5.12499997 7.70519529,6.23734372 6.45542966,7.95050779 L10.2942578,7.95050779 C10.553125,7.95050779 10.7630078,8.16039061 10.7630078,8.41925779 L10.7630078,10.2942578 C10.7630078,10.553125 10.553125,10.7630078 10.2942578,10.7630078 Z" id="path-1"></path>
    </defs>
    <g id="undo" stroke="none" stroke-width="1" fill="none" fill-rule="evenodd">
        <mask id="mask-2" fill="white">
            <use xlink:href="#path-1"></use>
        </mask>
        <g></g>
        <g id="🎨-color" mask="url(#mask-2)" fill="#000000">
            <rect id="🎨-Color" x="0" y="0" width="24" height="24"></rect>
        </g>
    </g>
</svg>