<?xml version="1.0" encoding="UTF-8"?>
<svg width="24px" height="24px" viewBox="0 0 24 24" version="1.1" xmlns="http://www.w3.org/2000/svg" xmlns:xlink="http://www.w3.org/1999/xlink">
    <!-- Generator: Sketch 52.5 (67469) - http://www.bohemiancoding.com/sketch -->
    <title>uniregistry</title>
    <desc>Created with Sketch.</desc>
    <defs>
        <path d="M15.4804688,10.5976562 L19.5,10.5976562 L19.5,10.0195312 L15.4804688,10.0195312 L15.4804688,10.5976562 Z M15.4804688,9.14843749 L19.5,9.14843749 L19.5,8.66406248 L15.4804688,8.66406248 L15.4804688,9.14843749 Z M15.4804688,12.046875 L19.5,12.046875 L19.5,11.3710937 L15.4804688,11.3710937 L15.4804688,12.046875 Z M9.32031249,15.4335938 L4.83203121,15.4335938 C4.93359371,15.765625 5.05859372,16.0898438 5.20703122,16.4023438 L10.609375,16.4023438 C10.1054687,16.1796875 9.66796874,15.8476563 9.32031249,15.4335938 Z M15.0117188,14.9492188 L19.296875,14.9492188 C19.3671875,14.6640625 19.4179688,14.375 19.4492188,14.078125 L15.3710938,14.078125 C15.2890625,14.3867188 15.1679688,14.6796875 15.0117188,14.9492188 Z M13.390625,16.3984375 L18.8359375,16.3984375 C18.9804688,16.0859375 19.0625,15.765625 19.1679688,15.4296875 L14.6757813,15.4296875 C14.3320313,15.8476563 13.890625,16.1796875 13.390625,16.3984375 Z M19.5,3.24999996 L15.4804688,3.24999996 L15.4804688,3.34999996 L19.5,3.34999996 L19.5,3.24999996 Z M12,20.75 C13.5429688,20.75 14.9765625,20.2890625 16.171875,19.4921875 L7.83203123,19.4921875 C9.02343749,20.2890625 10.4570312,20.75 12,20.75 Z M15.4804688,7.69531248 L19.5,7.69531248 L19.5,7.31249998 L15.4804688,7.31249998 L15.4804688,7.69531248 Z M15.4804688,6.24609372 L19.5,6.24609372 L19.5,5.95703122 L15.4804688,5.95703122 L15.4804688,6.24609372 Z M15.4804688,4.79687496 L19.5,4.79687496 L19.5,4.60546871 L15.4804688,4.60546871 L15.4804688,4.79687496 Z M8.51953123,8.66406248 L4.49999996,8.66406248 L4.49999996,9.14843749 L8.51953123,9.14843749 L8.51953123,8.66406248 Z M6.01562497,17.8476563 L17.9414063,17.8476563 C18.203125,17.515625 18.4335938,17.1601563 18.6367188,16.7851563 L5.39843747,16.7851563 C5.60156247,17.1601563 5.75781247,17.515625 6.01562497,17.8476563 Z M8.51953123,13.2070313 L8.51953123,12.7226563 L4.49999996,12.7226563 L4.49999996,13.2070313 C4.49999996,13.3046875 4.49999996,13.4023438 4.50390621,13.4960938 L8.53124998,13.4960938 C8.52343748,13.4023438 8.51953123,13.3046875 8.51953123,13.2070313 Z M15.4804688,13.2070313 C15.4804688,13.3046875 15.4765625,13.4023438 15.4648438,13.4960938 L19.4921875,13.4960938 C19.4960938,13.3984375 19.5,13.3046875 19.5,13.2070313 L19.5,12.7226563 L15.4804688,12.7226563 L15.4804688,13.2070313 Z M7.55078123,19.3007813 L16.4453125,19.3007813 C16.90625,18.9609375 17.3320313,18.5742188 17.703125,18.140625 L6.25390622,18.140625 C6.62890622,18.5703125 7.08984373,18.9609375 7.55078123,19.3007813 Z M8.51953123,4.60546871 L4.49999996,4.60546871 L4.49999996,4.79687496 L8.51953123,4.79687496 L8.51953123,4.60546871 Z M8.51953123,3.24999996 L4.49999996,3.24999996 L4.49999996,3.34999996 L8.51953123,3.34999996 L8.51953123,3.24999996 Z M8.51953123,10.0195312 L4.49999996,10.0195312 L4.49999996,10.5976562 L8.51953123,10.5976562 L8.51953123,10.0195312 Z M8.51953123,11.3710937 L4.49999996,11.3710937 L4.49999996,12.046875 L8.51953123,12.046875 L8.51953123,11.3710937 Z M8.51953123,7.31249998 L4.49999996,7.31249998 L4.49999996,7.69921873 L8.51953123,7.69921873 L8.51953123,7.31249998 Z M8.51953123,5.95703122 L4.49999996,5.95703122 L4.49999996,6.24609372 L8.51953123,6.24609372 L8.51953123,5.95703122 Z M8.62890623,14.078125 L4.55078121,14.078125 C4.58593746,14.375 4.63671871,14.6640625 4.70312496,14.9492188 L8.98828123,14.9492188 C8.83203123,14.6796875 8.70703123,14.3867188 8.62890623,14.078125 Z" id="path-1"></path>
    </defs>
    <g id="uniregistry" stroke="none" stroke-width="1" fill="none" fill-rule="evenodd">
        <mask id="mask-2" fill="white">
            <use xlink:href="#path-1"></use>
        </mask>
        <g fill-rule="nonzero"></g>
        <g id="🎨-color" mask="url(#mask-2)" fill="#000000">
            <rect id="🎨-Color" x="0" y="0" width="24" height="24"></rect>
        </g>
    </g>
</svg>