<?xml version="1.0" encoding="UTF-8"?>
<svg width="24px" height="24px" viewBox="0 0 24 24" version="1.1" xmlns="http://www.w3.org/2000/svg" xmlns:xlink="http://www.w3.org/1999/xlink">
    <!-- Generator: Sketch 52.5 (67469) - http://www.bohemiancoding.com/sketch -->
    <title>universal-access</title>
    <desc>Created with Sketch.</desc>
    <defs>
        <path d="M12,3.87499996 C16.4903516,3.87499996 20.125,7.50894529 20.125,12 C20.125,16.4903516 16.4910547,20.125 12,20.125 C7.50964842,20.125 3.87499996,16.4910547 3.87499996,12 C3.87499996,7.50964842 7.50894529,3.87499996 12,3.87499996 Z M12,2.31249995 C6.64972654,2.31249995 2.31249995,6.64972654 2.31249995,12 C2.31249995,17.3502735 6.64972654,21.6875 12,21.6875 C17.3502735,21.6875 21.6875,17.3502735 21.6875,12 C21.6875,6.64972654 17.3502735,2.31249995 12,2.31249995 Z M12,4.49999996 C7.85785154,4.49999996 4.49999996,7.85785154 4.49999996,12 C4.49999996,16.1421485 7.85785154,19.5 12,19.5 C16.1421485,19.5 19.5,16.1421485 19.5,12 C19.5,7.85785154 16.1421485,4.49999996 12,4.49999996 Z M12,6.21874997 C12.7766406,6.21874997 13.40625,6.84835935 13.40625,7.62499998 C13.40625,8.40164061 12.7766406,9.03124999 12,9.03124999 C11.2233594,9.03124999 10.59375,8.40164061 10.59375,7.62499998 C10.59375,6.84835935 11.2233594,6.21874997 12,6.21874997 Z M16.5992578,10.0477734 C15.4776953,10.3125781 14.4308594,10.5457422 13.3906641,10.6652344 C13.4239063,14.6114453 13.8713672,15.4719531 14.3686719,16.7441797 C14.509961,17.1058985 14.3312891,17.5136328 13.9695703,17.6549219 C13.6078125,17.796211 13.2000781,17.6175391 13.0587891,17.2558203 C12.71875,16.3844141 12.3913672,15.6684766 12.1892188,14.1875 L11.8108594,14.1875 C11.6090234,15.6660547 11.2821875,16.383125 10.94125,17.2558203 C10.8000391,17.6173438 10.3924219,17.7962891 10.0305078,17.6549219 C9.66878905,17.5136328 9.49011717,17.1058594 9.63140624,16.7441797 C10.1280078,15.4730469 10.5761328,14.6136719 10.6094141,10.6652344 C9.56921874,10.5457812 8.5223828,10.3126172 7.40078123,10.0477734 C7.06484373,9.96843749 6.85679685,9.63183593 6.93613279,9.29585936 C7.01546873,8.9598828 7.35203123,8.75187498 7.68804685,8.83121092 C11.4648437,9.72296874 12.5428516,9.72117186 16.3120703,8.83121092 C16.6479688,8.75191405 16.9846485,8.9598828 17.0639844,9.29585936 C17.1432422,9.63183593 16.9351953,9.96847655 16.5992578,10.0477734 Z" id="path-1"></path>
    </defs>
    <g id="universal-access" stroke="none" stroke-width="1" fill="none" fill-rule="evenodd">
        <mask id="mask-2" fill="white">
            <use xlink:href="#path-1"></use>
        </mask>
        <g fill-rule="nonzero"></g>
        <g id="🎨-color" mask="url(#mask-2)" fill="#000000">
            <rect id="🎨-Color" x="0" y="0" width="24" height="24"></rect>
        </g>
    </g>
</svg>