<?xml version="1.0" encoding="UTF-8"?>
<svg width="24px" height="24px" viewBox="0 0 24 24" version="1.1" xmlns="http://www.w3.org/2000/svg" xmlns:xlink="http://www.w3.org/1999/xlink">
    <!-- Generator: Sketch 52.5 (67469) - http://www.bohemiancoding.com/sketch -->
    <title>university</title>
    <desc>Created with Sketch.</desc>
    <defs>
        <path d="M21.375,6.99999998 L21.375,7.62499998 C21.375,7.79758896 21.235089,7.93749998 21.0625,7.93749998 L20.125,7.93749998 L20.125,8.40624998 C20.125,8.66511717 19.9151172,8.87499998 19.65625,8.87499998 L4.34374996,8.87499998 C4.08488277,8.87499998 3.87499996,8.66511717 3.87499996,8.40624998 L3.87499996,7.93749998 L2.93749995,7.93749998 C2.76491097,7.93749998 2.62499995,7.79758896 2.62499995,7.62499998 L2.62499995,6.99999998 C2.62500087,6.87356837 2.70118405,6.75959426 2.81800777,6.71124997 L11.8805078,3.27374996 C11.9570195,3.24206916 12.0429805,3.24206916 12.1194922,3.27374996 L21.1819922,6.71124997 C21.2988159,6.75959426 21.3749991,6.87356837 21.375,6.99999998 Z M20.4375,18.875 L3.56249996,18.875 C3.04472652,18.875 2.62499995,19.2947266 2.62499995,19.8125 L2.62499995,20.4375 C2.62499995,20.610089 2.76491097,20.75 2.93749995,20.75 L21.0625,20.75 C21.235089,20.75 21.375,20.610089 21.375,20.4375 L21.375,19.8125 C21.375,19.2947266 20.9552735,18.875 20.4375,18.875 Z M5.74999997,9.49999999 L5.74999997,17 L4.34374996,17 C4.08488277,17 3.87499996,17.2098828 3.87499996,17.46875 L3.87499996,18.25 L20.125,18.25 L20.125,17.46875 C20.125,17.2098828 19.9151172,17 19.65625,17 L18.25,17 L18.25,9.49999999 L15.75,9.49999999 L15.75,17 L13.25,17 L13.25,9.49999999 L10.75,9.49999999 L10.75,17 L8.24999998,17 L8.24999998,9.49999999 L5.74999997,9.49999999 Z" id="path-1"></path>
    </defs>
    <g id="university" stroke="none" stroke-width="1" fill="none" fill-rule="evenodd">
        <mask id="mask-2" fill="white">
            <use xlink:href="#path-1"></use>
        </mask>
        <g fill-rule="nonzero"></g>
        <g id="🎨-color" mask="url(#mask-2)" fill="#000000">
            <rect id="🎨-Color" x="0" y="0" width="24" height="24"></rect>
        </g>
    </g>
</svg>