<?xml version="1.0" encoding="UTF-8"?>
<svg width="24px" height="24px" viewBox="0 0 24 24" version="1.1" xmlns="http://www.w3.org/2000/svg" xmlns:xlink="http://www.w3.org/1999/xlink">
    <!-- Generator: Sketch 52.5 (67469) - http://www.bohemiancoding.com/sketch -->
    <title>unlock-alt</title>
    <desc>Created with Sketch.</desc>
    <defs>
        <path d="M18.8615985,12.0194932 L9.19298244,12.0194932 L9.19298244,7.99999998 C9.19298244,6.45614032 10.4288499,5.17348924 11.9727096,5.1578947 C13.5321638,5.14230016 14.8070176,6.4093567 14.8070176,7.96491226 L14.8070176,8.58869394 C14.8070176,9.10721246 15.2241716,9.52436646 15.7426901,9.52436646 L16.9902534,9.52436646 C17.508772,9.52436646 17.925926,9.10721246 17.925926,8.58869394 L17.925926,7.96491226 C17.925926,4.69005844 15.2553606,2.0272904 11.9805068,2.0389863 C8.705653,2.05068221 6.07407404,4.74853798 6.07407404,8.02339179 L6.07407404,12.0194932 L5.13840153,12.0194932 C4.10526312,12.0194932 3.26705649,12.8576998 3.26705649,13.8908382 L3.26705649,20.128655 C3.26705649,21.1617934 4.10526312,22.0000001 5.13840153,22.0000001 L18.8615985,22.0000001 C19.8947369,22.0000001 20.7329435,21.1617934 20.7329435,20.128655 L20.7329435,13.8908382 C20.7329435,12.8576998 19.8947369,12.0194932 18.8615985,12.0194932 Z M13.5594542,17.9454191 C13.5594542,18.8070176 12.8615984,19.5048733 12,19.5048733 C11.1384016,19.5048733 10.4405458,18.8070176 10.4405458,17.9454191 L10.4405458,16.0740741 C10.4405458,15.2124756 11.1384016,14.5146199 12,14.5146199 C12.8615984,14.5146199 13.5594542,15.2124756 13.5594542,16.0740741 L13.5594542,17.9454191 Z" id="path-1"></path>
    </defs>
    <g id="unlock-alt" stroke="none" stroke-width="1" fill="none" fill-rule="evenodd">
        <mask id="mask-2" fill="white">
            <use xlink:href="#path-1"></use>
        </mask>
        <g fill-rule="nonzero"></g>
        <g id="🎨-color" mask="url(#mask-2)" fill="#000000">
            <rect id="🎨-Color" x="0" y="0" width="24" height="24"></rect>
        </g>
    </g>
</svg>