<?xml version="1.0" encoding="UTF-8"?>
<svg width="24px" height="24px" viewBox="0 0 24 24" version="1.1" xmlns="http://www.w3.org/2000/svg" xmlns:xlink="http://www.w3.org/1999/xlink">
    <!-- Generator: Sketch 52.5 (67469) - http://www.bohemiancoding.com/sketch -->
    <title>untappd</title>
    <desc>Created with Sketch.</desc>
    <defs>
        <path d="M14.540625,5.55937497 C12.046875,10.5625 11.896875,10.325 11.79375,10.971875 L11.63125,11.996875 C11.571875,12.371875 11.425,12.73125 11.203125,13.040625 L6.54999997,19.534375 C6.31249997,19.865625 5.91249997,20.040625 5.50624997,19.990625 C4.24687496,19.834375 3.07499996,18.984375 2.52812495,17.85 C2.34999995,17.48125 2.38749995,17.04375 2.62499995,16.7125 L7.27812498,10.215625 C7.49999998,9.90624999 7.79062498,9.65312499 8.12812498,9.47499999 L9.04374999,8.99062498 C9.62187499,8.68437498 9.34687499,8.61874998 13.28125,4.64999996 C13.3125,4.49999996 13.3125,4.42187496 13.39375,4.39999996 C13.4875,4.37812496 13.6,4.36874996 13.590625,4.25624996 L13.578125,4.11249996 C13.571875,4.05312496 13.61875,3.99999996 13.678125,3.99999996 C13.81875,3.99687496 14.090625,4.03749996 14.478125,4.31249996 C14.8625,4.59062496 14.990625,4.83749996 15.03125,4.97187496 C15.05,5.02812497 15.0125,5.08749997 14.95625,5.10312497 L14.815625,5.13749997 C14.709375,5.16562497 14.7375,5.27499997 14.74375,5.36874997 C14.746875,5.45624997 14.671875,5.48124997 14.540625,5.55937497 Z M9.19062499,5.13749997 C9.29687499,5.16562497 9.26874999,5.27499997 9.26249999,5.36874997 C9.25624999,5.45312497 9.32812499,5.47812497 9.46249999,5.55624997 C9.70937499,6.05312497 9.94062499,6.50937497 10.15625,6.93124997 C10.178125,6.97187497 10.228125,6.97812497 10.259375,6.94687497 C10.609375,6.57187497 11.028125,6.12812497 11.525,5.61562497 C11.565625,5.57187497 11.56875,5.50624997 11.528125,5.46249997 C11.278125,5.20624997 11.0125,4.93437496 10.728125,4.64687496 C10.696875,4.49999996 10.696875,4.41874996 10.615625,4.39687496 C10.521875,4.37187496 10.409375,4.36562496 10.41875,4.25312496 C10.428125,4.14999996 10.4625,3.99999996 10.33125,3.99687496 C10.190625,3.99374996 9.91874999,4.03124996 9.53124999,4.30937496 C9.14687499,4.58749996 9.01874999,4.83437496 8.97812498,4.96874996 C8.93437498,5.09999997 9.09062499,5.11249997 9.19062499,5.13749997 Z M21.375,16.709375 L16.725,10.2125 C16.3125,9.63437499 15.89375,9.48124999 14.9625,8.99062498 C14.6125,8.80624998 14.51875,8.64999998 14.009375,8.08749998 C13.978125,8.05312498 13.91875,8.05937498 13.896875,8.10312498 C12.45,10.878125 12.425,10.690625 12.365625,11.065625 C12.3125,11.4 12.325,11.690625 12.375,11.996875 C12.434375,12.371875 12.58125,12.73125 12.803125,13.040625 L17.45625,19.5375 C17.69375,19.86875 18.0875,20.04375 18.490625,19.996875 C19.75,19.84375 20.928125,18.996875 21.48125,17.853125 C21.65,17.48125 21.615625,17.04375 21.375,16.709375 Z" id="path-1"></path>
    </defs>
    <g id="untappd" stroke="none" stroke-width="1" fill="none" fill-rule="evenodd">
        <mask id="mask-2" fill="white">
            <use xlink:href="#path-1"></use>
        </mask>
        <g fill-rule="nonzero"></g>
        <g id="🎨-color" mask="url(#mask-2)" fill="#000000">
            <rect id="🎨-Color" x="0" y="0" width="24" height="24"></rect>
        </g>
    </g>
</svg>