<?xml version="1.0" encoding="UTF-8"?>
<svg width="24px" height="24px" viewBox="0 0 24 24" version="1.1" xmlns="http://www.w3.org/2000/svg" xmlns:xlink="http://www.w3.org/1999/xlink">
    <!-- Generator: Sketch 52.5 (67469) - http://www.bohemiancoding.com/sketch -->
    <title>upload</title>
    <desc>Created with Sketch.</desc>
    <defs>
        <path d="M13.5625,17 L10.4375,17 C9.91796874,17 9.49999999,16.5820313 9.49999999,16.0625 L9.49999999,9.49999999 L6.07421872,9.49999999 C5.37890622,9.49999999 5.03124997,8.66015623 5.52343747,8.16796873 L11.4648437,2.2226562 C11.7578125,1.92968745 12.2382813,1.92968745 12.53125,2.2226562 L18.4765625,8.16796873 C18.96875,8.66015623 18.6210938,9.49999999 17.9257813,9.49999999 L14.5,9.49999999 L14.5,16.0625 C14.5,16.5820313 14.0820313,17 13.5625,17 Z M22.0000001,16.6875 L22.0000001,21.0625 C22.0000001,21.5820313 21.5820313,22 21.0625,22 L2.93749995,22 C2.4179687,22 1.99999995,21.5820313 1.99999995,21.0625 L1.99999995,16.6875 C1.99999995,16.1679688 2.4179687,15.75 2.93749995,15.75 L8.24999998,15.75 L8.24999998,16.0625 C8.24999998,17.2695313 9.23046874,18.25 10.4375,18.25 L13.5625,18.25 C14.7695313,18.25 15.75,17.2695313 15.75,16.0625 L15.75,15.75 L21.0625,15.75 C21.5820313,15.75 22.0000001,16.1679688 22.0000001,16.6875 Z M17.15625,20.125 C17.15625,19.6953125 16.8046875,19.34375 16.375,19.34375 C15.9453125,19.34375 15.59375,19.6953125 15.59375,20.125 C15.59375,20.5546875 15.9453125,20.90625 16.375,20.90625 C16.8046875,20.90625 17.15625,20.5546875 17.15625,20.125 Z M19.65625,20.125 C19.65625,19.6953125 19.3046875,19.34375 18.875,19.34375 C18.4453125,19.34375 18.09375,19.6953125 18.09375,20.125 C18.09375,20.5546875 18.4453125,20.90625 18.875,20.90625 C19.3046875,20.90625 19.65625,20.5546875 19.65625,20.125 Z" id="path-1"></path>
    </defs>
    <g id="upload" stroke="none" stroke-width="1" fill="none" fill-rule="evenodd">
        <mask id="mask-2" fill="white">
            <use xlink:href="#path-1"></use>
        </mask>
        <g fill-rule="nonzero"></g>
        <g id="🎨-color" mask="url(#mask-2)" fill="#000000">
            <rect id="🎨-Color" x="0" y="0" width="24" height="24"></rect>
        </g>
    </g>
</svg>