<?xml version="1.0" encoding="UTF-8"?>
<svg width="24px" height="24px" viewBox="0 0 24 24" version="1.1" xmlns="http://www.w3.org/2000/svg" xmlns:xlink="http://www.w3.org/1999/xlink">
    <!-- Generator: Sketch 52.5 (67469) - http://www.bohemiancoding.com/sketch -->
    <title>usb</title>
    <desc>Created with Sketch.</desc>
    <defs>
        <path d="M21.9844237,12 C21.9844237,12.0965732 21.9314642,12.1900312 21.8442368,12.2336449 L19.0685359,13.9003115 C19.0249222,13.9252337 18.9813084,13.9439252 18.9283489,13.9439252 C18.8847352,13.9439252 18.8317757,13.9345794 18.788162,13.9096573 C18.7009346,13.8566978 18.6479751,13.7694704 18.6479751,13.6666667 L18.6479751,12.5576324 L11.211838,12.5576324 C12,13.7912773 12.4735203,15.8878505 13.3800623,15.8878505 L14.211838,15.8878505 L14.211838,15.0529595 C14.211838,14.8971963 14.3333333,14.7757009 14.4890966,14.7757009 L17.2647975,14.7757009 C17.4205608,14.7757009 17.5420561,14.8971963 17.5420561,15.0529595 L17.5420561,17.8286605 C17.5420561,17.9844237 17.4205608,18.105919 17.2647975,18.105919 L14.4890966,18.105919 C14.3333333,18.105919 14.211838,17.9844237 14.211838,17.8286605 L14.211838,16.9968848 L13.3800623,16.9968848 C11.0311526,16.9968848 10.8535825,12.5576324 9.49532709,12.5576324 L6.37071648,12.5576324 C6.11838003,13.5109034 5.25233641,14.2242991 4.22118376,14.2242991 C2.99688469,14.2211838 1.99999995,13.2242991 1.99999995,12 C1.99999995,10.7757009 2.99688469,9.77881619 4.22118376,9.77881619 C5.25233641,9.77881619 6.1214953,10.4890966 6.37071648,11.4454829 C7.58878502,11.4454829 7.73831774,11.741433 8.69470403,9.56386292 C9.94392522,6.78816197 10.5046729,7.0062305 12.0872274,7.0062305 C12.3208723,6.35514016 12.9283489,5.89719623 13.6573209,5.89719623 C14.576324,5.89719623 15.3239876,6.64174452 15.3239876,7.56386291 C15.3239876,8.48598129 14.5794393,9.23052958 13.6573209,9.23052958 C12.9283489,9.23052958 12.3208723,8.76947039 12.0872274,8.12149531 L11.1588785,8.12149531 C10.2523364,8.12149531 9.77881619,10.2211838 8.99065419,11.4517134 L18.6510904,11.4517134 L18.6510904,10.3426791 C18.6510904,10.2398754 18.7040499,10.152648 18.7912773,10.0996885 C18.8785047,10.046729 18.9906542,10.0560748 19.0685359,10.1090343 L21.8442368,11.7757009 C21.9314642,11.8099688 21.9844237,11.9034268 21.9844237,12 Z" id="path-1"></path>
    </defs>
    <g id="usb" stroke="none" stroke-width="1" fill="none" fill-rule="evenodd">
        <mask id="mask-2" fill="white">
            <use xlink:href="#path-1"></use>
        </mask>
        <g></g>
        <g id="🎨-color" mask="url(#mask-2)" fill="#000000">
            <rect id="🎨-Color" x="0" y="0" width="24" height="24"></rect>
        </g>
    </g>
</svg>