<?xml version="1.0" encoding="UTF-8"?>
<svg width="24px" height="24px" viewBox="0 0 24 24" version="1.1" xmlns="http://www.w3.org/2000/svg" xmlns:xlink="http://www.w3.org/1999/xlink">
    <!-- Generator: Sketch 52.5 (67469) - http://www.bohemiancoding.com/sketch -->
    <title>user-times</title>
    <desc>Created with Sketch.</desc>
    <defs>
        <path d="M20.425,11.5 L21.85,10.075 C22.0468751,9.87812499 22.0468751,9.55937499 21.85,9.36249999 L21.1375,8.64999998 C20.940625,8.45312498 20.621875,8.45312498 20.425,8.64999998 L19,10.075 L17.575,8.64999998 C17.378125,8.45312498 17.059375,8.45312498 16.8625,8.64999998 L16.15,9.36249999 C15.953125,9.55937499 15.953125,9.87812499 16.15,10.075 L17.575,11.5 L16.15,12.925 C15.953125,13.121875 15.953125,13.440625 16.15,13.6375 L16.8625,14.35 C17.059375,14.546875 17.378125,14.546875 17.575,14.35 L19,12.925 L20.425,14.35 C20.621875,14.546875 20.940625,14.546875 21.1375,14.35 L21.85,13.6375 C22.0468751,13.440625 22.0468751,13.121875 21.85,12.925 L20.425,11.5 Z M8.99999998,12 C11.209375,12 13,10.209375 13,7.99999998 C13,5.79062497 11.209375,3.99999996 8.99999998,3.99999996 C6.79062497,3.99999996 4.99999996,5.79062497 4.99999996,7.99999998 C4.99999996,10.209375 6.79062497,12 8.99999998,12 Z M11.8,13 L11.278125,13 C10.584375,13.31875 9.81249999,13.5 8.99999999,13.5 C8.18749998,13.5 7.41874998,13.31875 6.72187497,13 L6.19999997,13 C3.88124996,13 1.99999995,14.88125 1.99999995,17.2 L1.99999995,18.5 C1.99999995,19.328125 2.67187495,20 3.49999996,20 L14.5,20 C15.328125,20 16,19.328125 16,18.5 L16,17.2 C16,14.88125 14.11875,13 11.8,13 Z" id="path-1"></path>
    </defs>
    <g id="user-times" stroke="none" stroke-width="1" fill="none" fill-rule="evenodd">
        <mask id="mask-2" fill="white">
            <use xlink:href="#path-1"></use>
        </mask>
        <g fill-rule="nonzero"></g>
        <g id="🎨-color" mask="url(#mask-2)" fill="#000000">
            <rect id="🎨-Color" x="0" y="0" width="24" height="24"></rect>
        </g>
    </g>
</svg>