<?xml version="1.0" encoding="UTF-8"?>
<svg width="24px" height="24px" viewBox="0 0 24 24" version="1.1" xmlns="http://www.w3.org/2000/svg" xmlns:xlink="http://www.w3.org/1999/xlink">
    <!-- Generator: Sketch 52.5 (67469) - http://www.bohemiancoding.com/sketch -->
    <title>user-circle</title>
    <desc>Created with Sketch.</desc>
    <defs>
        <path d="M12,6.06249997 C9.92968749,6.06249997 8.24999998,7.74218748 8.24999998,9.81249999 C8.24999998,11.8828125 9.92968749,13.5625 12,13.5625 C14.0703125,13.5625 15.75,11.8828125 15.75,9.81249999 C15.75,7.74218748 14.0703125,6.06249997 12,6.06249997 Z M12,11.6875 C10.9648437,11.6875 10.125,10.8476562 10.125,9.81249999 C10.125,8.77734373 10.9648437,7.93749998 12,7.93749998 C13.0351563,7.93749998 13.875,8.77734373 13.875,9.81249999 C13.875,10.8476562 13.0351563,11.6875 12,11.6875 Z M12,2.31249995 C6.64843747,2.31249995 2.31249995,6.64843747 2.31249995,12 C2.31249995,17.3515625 6.64843747,21.6875 12,21.6875 C17.3515625,21.6875 21.6875,17.3515625 21.6875,12 C21.6875,6.64843747 17.3515625,2.31249995 12,2.31249995 Z M12,19.8125 C10.0585937,19.8125 8.28515623,19.0976563 6.91796872,17.921875 C7.49999998,17.0234375 8.49609373,16.4140625 9.63671874,16.3789063 C10.4492187,16.6289063 11.2226562,16.7539063 12,16.7539063 C12.7773438,16.7539063 13.5507813,16.6328125 14.3632813,16.3789063 C15.5039063,16.4179688 16.5,17.0234375 17.0820313,17.921875 C15.7148438,19.0976563 13.9414063,19.8125 12,19.8125 Z M18.3554688,16.5273438 C17.4023438,15.3007813 15.9296875,14.5 14.25,14.5 C13.8515625,14.5 13.234375,14.875 12,14.875 C10.7695312,14.875 10.1484375,14.5 9.74999999,14.5 C8.07421873,14.5 6.60156247,15.3007813 5.64453122,16.5273438 C4.73046871,15.25 4.18749996,13.6875 4.18749996,12 C4.18749996,7.69140623 7.69140623,4.18749996 12,4.18749996 C16.3085938,4.18749996 19.8125,7.69140623 19.8125,12 C19.8125,13.6875 19.2695313,15.25 18.3554688,16.5273438 Z" id="path-1"></path>
    </defs>
    <g id="user-circle" stroke="none" stroke-width="1" fill="none" fill-rule="evenodd">
        <mask id="mask-2" fill="white">
            <use xlink:href="#path-1"></use>
        </mask>
        <g fill-rule="nonzero"></g>
        <g id="🎨-color" mask="url(#mask-2)" fill="#000000">
            <rect id="🎨-Color" x="0" y="0" width="24" height="24"></rect>
        </g>
    </g>
</svg>