<?xml version="1.0" encoding="UTF-8"?>
<svg width="24px" height="24px" viewBox="0 0 24 24" version="1.1" xmlns="http://www.w3.org/2000/svg" xmlns:xlink="http://www.w3.org/1999/xlink">
    <!-- Generator: Sketch 52.5 (67469) - http://www.bohemiancoding.com/sketch -->
    <title>user-clock</title>
    <desc>Created with Sketch.</desc>
    <defs>
        <path d="M17.5,11 C15.0125,11 13,13.0125 13,15.5 C13,17.9875 15.0125,20 17.5,20 C19.9875,20 22.0000001,17.9875 22.0000001,15.5 C22.0000001,13.0125 19.9875,11 17.5,11 Z M19.5,15.696875 C19.5,15.8625 19.3625,16 19.196875,16 L17.303125,16 C17.1375,16 17,15.8625 17,15.696875 L17,13.303125 C17,13.1375 17.1375,13 17.303125,13 L17.696875,13 C17.8625,13 18,13.1375 18,13.303125 L18,15 L19.196875,15 C19.3625,15 19.5,15.1375 19.5,15.303125 L19.5,15.696875 Z M12,15.5 C12,14.63125 12.209375,13.809375 12.56875,13.078125 C12.31875,13.03125 12.0625,13 11.8,13 L11.278125,13 C10.584375,13.31875 9.81249999,13.5 8.99999998,13.5 C8.18749998,13.5 7.41874998,13.31875 6.72187497,13 L6.19999997,13 C3.88124996,13 1.99999995,14.88125 1.99999995,17.2 L1.99999995,18.5 C1.99999995,19.328125 2.67187495,20 3.49999996,20 L14.346875,20 C12.93125,19.003125 12,17.359375 12,15.5 Z M8.99999998,12 C11.209375,12 13,10.209375 13,7.99999998 C13,5.79062497 11.209375,3.99999996 8.99999998,3.99999996 C6.79062497,3.99999996 4.99999996,5.79062497 4.99999996,7.99999998 C4.99999996,10.209375 6.79062497,12 8.99999998,12 Z" id="path-1"></path>
    </defs>
    <g id="user-clock" stroke="none" stroke-width="1" fill="none" fill-rule="evenodd">
        <mask id="mask-2" fill="white">
            <use xlink:href="#path-1"></use>
        </mask>
        <g fill-rule="nonzero"></g>
        <g id="🎨-color" mask="url(#mask-2)" fill="#000000">
            <rect id="🎨-Color" x="0" y="0" width="24" height="24"></rect>
        </g>
    </g>
</svg>