<?xml version="1.0" encoding="UTF-8"?>
<svg width="24px" height="24px" viewBox="0 0 24 24" version="1.1" xmlns="http://www.w3.org/2000/svg" xmlns:xlink="http://www.w3.org/1999/xlink">
    <!-- Generator: Sketch 52.5 (67469) - http://www.bohemiancoding.com/sketch -->
    <title>user</title>
    <desc>Created with Sketch.</desc>
    <defs>
        <path d="M15.5,13.875 C14.3789063,13.875 13.8398438,14.5 12,14.5 C10.1601562,14.5 9.62499999,13.875 8.49999998,13.875 C5.60156247,13.875 3.24999996,16.2265625 3.24999996,19.125 L3.24999996,20.125 C3.24999996,21.1601563 4.08984371,22.0000001 5.12499997,22.0000001 L18.875,22.0000001 C19.9101563,22.0000001 20.75,21.1601563 20.75,20.125 L20.75,19.125 C20.75,16.2265625 18.3984375,13.875 15.5,13.875 Z M18.875,20.125 L5.12499997,20.125 L5.12499997,19.125 C5.12499997,17.265625 6.64062497,15.75 8.49999998,15.75 C9.07031249,15.75 9.99609374,16.375 12,16.375 C14.0195313,16.375 14.9257813,15.75 15.5,15.75 C17.359375,15.75 18.875,17.265625 18.875,19.125 L18.875,20.125 Z M12,13.25 C15.1054688,13.25 17.625,10.7304687 17.625,7.62499998 C17.625,4.51953121 15.1054688,1.99999995 12,1.99999995 C8.89453123,1.99999995 6.37499997,4.51953121 6.37499997,7.62499998 C6.37499997,10.7304687 8.89453123,13.25 12,13.25 Z M12,3.87499996 C14.0664063,3.87499996 15.75,5.55859372 15.75,7.62499998 C15.75,9.69140624 14.0664063,11.375 12,11.375 C9.93359374,11.375 8.24999998,9.69140624 8.24999998,7.62499998 C8.24999998,5.55859372 9.93359374,3.87499996 12,3.87499996 Z" id="path-1"></path>
    </defs>
    <g id="user" stroke="none" stroke-width="1" fill="none" fill-rule="evenodd">
        <mask id="mask-2" fill="white">
            <use xlink:href="#path-1"></use>
        </mask>
        <g fill-rule="nonzero"></g>
        <g id="🎨-color" mask="url(#mask-2)" fill="#000000">
            <rect id="🎨-Color" x="0" y="0" width="24" height="24"></rect>
        </g>
    </g>
</svg>