<?xml version="1.0" encoding="UTF-8"?>
<svg width="24px" height="24px" viewBox="0 0 24 24" version="1.1" xmlns="http://www.w3.org/2000/svg" xmlns:xlink="http://www.w3.org/1999/xlink">
    <!-- Generator: Sketch 52.5 (67469) - http://www.bohemiancoding.com/sketch -->
    <title>user-alt-slash</title>
    <desc>Created with Sketch.</desc>
    <defs>
        <path d="M21.7753511,18.3057723 L14.1560063,12.4149766 C15.5351014,11.6474259 16.4773791,10.1934477 16.4773791,8.5054602 C16.4773791,6.02496097 14.4648986,4.01248046 11.9843994,4.01248046 C9.89079562,4.01248046 8.14664585,5.450858 7.64742588,7.38845552 L3.41965674,4.1185647 C3.20124801,3.95007796 2.88923552,3.98751946 2.71762866,4.2059282 L2.10608419,4.99219965 C1.93759745,5.21060839 1.97503895,5.52262087 2.19344769,5.69110761 L20.5522621,19.8783152 C20.7706709,20.0468019 21.0826834,20.0093604 21.2542902,19.7909517 L21.8658347,19.0015601 C22.0343214,18.7893916 21.9937598,18.474259 21.7753511,18.3057723 Z M8.19032759,13.9968799 C5.87519498,13.9968799 3.99687984,15.875195 3.99687984,18.1903276 L3.99687984,18.4898596 C3.99687984,19.3166927 4.66770667,19.9875195 5.49453975,19.9875195 L17.4196568,19.9875195 L9.66926676,13.9968799 L8.19032759,13.9968799 Z" id="path-1"></path>
    </defs>
    <g id="user-alt-slash" stroke="none" stroke-width="1" fill="none" fill-rule="evenodd">
        <mask id="mask-2" fill="white">
            <use xlink:href="#path-1"></use>
        </mask>
        <g fill-rule="nonzero"></g>
        <g id="🎨-color" mask="url(#mask-2)" fill="#000000">
            <rect id="🎨-Color" x="0" y="0" width="24" height="24"></rect>
        </g>
    </g>
</svg>