<?xml version="1.0" encoding="UTF-8"?>
<svg width="24px" height="24px" viewBox="0 0 24 24" version="1.1" xmlns="http://www.w3.org/2000/svg" xmlns:xlink="http://www.w3.org/1999/xlink">
    <!-- Generator: Sketch 52.5 (67469) - http://www.bohemiancoding.com/sketch -->
    <title>user-alt</title>
    <desc>Created with Sketch.</desc>
    <defs>
        <path d="M12,13.25 C15.1054688,13.25 17.625,10.7304687 17.625,7.62499998 C17.625,4.51953121 15.1054688,1.99999995 12,1.99999995 C8.89453123,1.99999995 6.37499997,4.51953121 6.37499997,7.62499998 C6.37499997,10.7304687 8.89453123,13.25 12,13.25 Z M17,14.5 L14.8476563,14.5 C13.9804688,14.8984375 13.015625,15.125 12,15.125 C10.984375,15.125 10.0234375,14.8984375 9.15234374,14.5 L6.99999997,14.5 C4.23828121,14.5 1.99999995,16.7382813 1.99999995,19.5 L1.99999995,20.125 C1.99999995,21.1601563 2.8398437,22.0000001 3.87499996,22.0000001 L20.125,22.0000001 C21.1601563,22.0000001 22.0000001,21.1601563 22.0000001,20.125 L22.0000001,19.5 C22.0000001,16.7382813 19.7617188,14.5 17,14.5 Z" id="path-1"></path>
    </defs>
    <g id="user-alt" stroke="none" stroke-width="1" fill="none" fill-rule="evenodd">
        <mask id="mask-2" fill="white">
            <use xlink:href="#path-1"></use>
        </mask>
        <g fill-rule="nonzero"></g>
        <g id="🎨-color" mask="url(#mask-2)" fill="#000000">
            <rect id="🎨-Color" x="0" y="0" width="24" height="24"></rect>
        </g>
    </g>
</svg>