<?xml version="1.0" encoding="UTF-8"?>
<svg width="24px" height="24px" viewBox="0 0 24 24" version="1.1" xmlns="http://www.w3.org/2000/svg" xmlns:xlink="http://www.w3.org/1999/xlink">
    <!-- Generator: Sketch 52.5 (67469) - http://www.bohemiancoding.com/sketch -->
    <title>user-friends</title>
    <desc>Created with Sketch.</desc>
    <defs>
        <path d="M7.99999998,12 C9.93437499,12 11.5,10.434375 11.5,8.49999998 C11.5,6.56562497 9.93437499,4.99999997 7.99999998,4.99999997 C6.06562497,4.99999997 4.49999996,6.56562497 4.49999996,8.49999998 C4.49999996,10.434375 6.06562497,12 7.99999998,12 Z M10.4,13 L10.140625,13 C9.49062499,13.3125 8.76874998,13.5 7.99999998,13.5 C7.23124998,13.5 6.51249997,13.3125 5.85937497,13 L5.59999997,13 C3.61249996,13 1.99999995,14.6125 1.99999995,16.6 L1.99999995,17.5 C1.99999995,18.328125 2.67187495,19 3.49999996,19 L12.5,19 C13.328125,19 14,18.328125 14,17.5 L14,16.6 C14,14.6125 12.3875,13 10.4,13 Z M17,12 C18.65625,12 20,10.65625 20,8.99999999 C20,7.34374998 18.65625,5.99999997 17,5.99999997 C15.34375,5.99999997 14,7.34374998 14,8.99999999 C14,10.65625 15.34375,12 17,12 Z M18.5,13 L18.38125,13 C17.946875,13.15 17.4875,13.25 17,13.25 C16.5125,13.25 16.053125,13.15 15.61875,13 L15.5,13 C14.8625,13 14.275,13.184375 13.759375,13.48125 C14.521875,14.303125 15,15.39375 15,16.6 L15,17.8 C15,17.86875 14.984375,17.934375 14.98125,18 L20.5,18 C21.328125,18 22.0000001,17.328125 22.0000001,16.5 C22.0000001,14.565625 20.434375,13 18.5,13 Z" id="path-1"></path>
    </defs>
    <g id="user-friends" stroke="none" stroke-width="1" fill="none" fill-rule="evenodd">
        <mask id="mask-2" fill="white">
            <use xlink:href="#path-1"></use>
        </mask>
        <g fill-rule="nonzero"></g>
        <g id="🎨-color" mask="url(#mask-2)" fill="#000000">
            <rect id="🎨-Color" x="0" y="0" width="24" height="24"></rect>
        </g>
    </g>
</svg>