<?xml version="1.0" encoding="UTF-8"?>
<svg width="24px" height="24px" viewBox="0 0 24 24" version="1.1" xmlns="http://www.w3.org/2000/svg" xmlns:xlink="http://www.w3.org/1999/xlink">
    <!-- Generator: Sketch 52.5 (67469) - http://www.bohemiancoding.com/sketch -->
    <title>users-cog</title>
    <desc>Created with Sketch.</desc>
    <defs>
        <path d="M21.078125,14.665625 C21.159375,14.225 21.159375,13.775 21.078125,13.334375 L21.884375,12.86875 C21.978125,12.815625 22.0187501,12.70625 21.9875,12.603125 C21.778125,11.928125 21.41875,11.315625 20.95,10.809375 C20.878125,10.73125 20.7625,10.7125 20.66875,10.765625 L19.8625,11.23125 C19.521875,10.940625 19.13125,10.715625 18.709375,10.565625 L18.709375,9.63437499 C18.709375,9.52812499 18.634375,9.43437499 18.53125,9.41249999 C17.834375,9.25624999 17.125,9.26249999 16.4625,9.41249999 C16.359375,9.43437499 16.284375,9.52812499 16.284375,9.63437499 L16.284375,10.565625 C15.8625,10.715625 15.471875,10.940625 15.13125,11.23125 L14.325,10.765625 C14.234375,10.7125 14.115625,10.73125 14.04375,10.809375 C13.575,11.315625 13.215625,11.928125 13.00625,12.603125 C12.975,12.70625 13.01875,12.815625 13.109375,12.86875 L13.915625,13.334375 C13.834375,13.775 13.834375,14.225 13.915625,14.665625 L13.109375,15.13125 C13.015625,15.184375 12.975,15.29375 13.00625,15.396875 C13.215625,16.071875 13.575,16.68125 14.04375,17.190625 C14.115625,17.26875 14.23125,17.2875 14.325,17.234375 L15.13125,16.76875 C15.471875,17.059375 15.8625,17.284375 16.284375,17.434375 L16.284375,18.365625 C16.284375,18.471875 16.359375,18.565625 16.4625,18.5875 C17.159375,18.74375 17.86875,18.7375 18.53125,18.5875 C18.634375,18.565625 18.709375,18.471875 18.709375,18.365625 L18.709375,17.434375 C19.13125,17.284375 19.521875,17.059375 19.8625,16.76875 L20.66875,17.234375 C20.759375,17.2875 20.878125,17.26875 20.95,17.190625 C21.41875,16.684375 21.778125,16.071875 21.9875,15.396875 C22.0187501,15.29375 21.975,15.184375 21.884375,15.13125 L21.078125,14.665625 Z M17.5,15.515625 C16.6625,15.515625 15.984375,14.834375 15.984375,14 C15.984375,13.165625 16.665625,12.484375 17.5,12.484375 C18.334375,12.484375 19.015625,13.165625 19.015625,14 C19.015625,14.834375 18.3375,15.515625 17.5,15.515625 Z M4.99999996,11 C6.10312497,11 6.99999997,10.103125 6.99999997,8.99999999 C6.99999997,7.89687498 6.10312497,6.99999998 4.99999996,6.99999998 C3.89687496,6.99999998 2.99999995,7.89687498 2.99999995,8.99999999 C2.99999995,10.103125 3.89687496,11 4.99999996,11 Z M12,12 C12.059375,12 12.115625,11.984375 12.175,11.98125 C12.434375,11.303125 12.815625,10.665625 13.309375,10.13125 C13.540625,9.88124999 13.86875,9.73749999 14.2125,9.73749999 C14.428125,9.73749999 14.640625,9.79374999 14.825,9.90312499 L15.071875,10.046875 C15.096875,10.03125 15.121875,10.01875 15.146875,10.003125 C15.365625,9.54687499 15.496875,9.04062499 15.496875,8.50312498 C15.496875,6.56874997 13.93125,5.00312497 11.996875,5.00312497 C10.0625,5.00312497 8.49999998,6.56562497 8.49999998,8.49999998 C8.49999998,10.434375 10.065625,12 12,12 Z M15.2875,18.078125 C15.215625,18.040625 15.14375,17.996875 15.075,17.95625 C14.81875,18.10625 14.596875,18.2625 14.215625,18.2625 C13.875,18.2625 13.546875,18.11875 13.3125,17.86875 C12.740625,17.25 12.303125,16.496875 12.05625,15.69375 C11.721875,14.615625 12.834375,14.140625 12.8625,14.121875 C12.859375,14.040625 12.859375,13.959375 12.8625,13.878125 L12.615625,13.734375 C12.496875,13.665625 12.396875,13.578125 12.309375,13.48125 C12.20625,13.4875 12.10625,13.5 12.003125,13.5 C11.234375,13.5 10.515625,13.3125 9.86249999,13 L9.60312499,13 C7.61249998,13 5.99999997,14.6125 5.99999997,16.6 L5.99999997,17.5 C5.99999997,18.328125 6.67187497,19 7.49999998,19 L15.48125,19 C15.365625,18.8125 15.2875,18.6 15.2875,18.365625 L15.2875,18.078125 Z M7.40937498,12.58125 C7.04687498,12.221875 6.54999997,12 5.99999997,12 L3.99999996,12 C2.89687495,12 1.99999995,12.896875 1.99999995,14 L1.99999995,15 C1.99999995,15.553125 2.44687495,16 2.99999995,16 L5.05937497,16 C5.25624997,14.51875 6.14999997,13.271875 7.40937498,12.58125 Z" id="path-1"></path>
    </defs>
    <g id="users-cog" stroke="none" stroke-width="1" fill="none" fill-rule="evenodd">
        <mask id="mask-2" fill="white">
            <use xlink:href="#path-1"></use>
        </mask>
        <g fill-rule="nonzero"></g>
        <g id="🎨-color" mask="url(#mask-2)" fill="#000000">
            <rect id="🎨-Color" x="0" y="0" width="24" height="24"></rect>
        </g>
    </g>
</svg>