<?xml version="1.0" encoding="UTF-8"?>
<svg width="24px" height="24px" viewBox="0 0 24 24" version="1.1" xmlns="http://www.w3.org/2000/svg" xmlns:xlink="http://www.w3.org/1999/xlink">
    <!-- Generator: Sketch 52.5 (67469) - http://www.bohemiancoding.com/sketch -->
    <title>user-check</title>
    <desc>Created with Sketch.</desc>
    <defs>
        <path d="M8.99999998,12 C11.209375,12 13,10.209375 13,7.99999998 C13,5.79062497 11.209375,3.99999996 8.99999998,3.99999996 C6.79062497,3.99999996 4.99999996,5.79062497 4.99999996,7.99999998 C4.99999996,10.209375 6.79062497,12 8.99999998,12 Z M11.8,13 L11.278125,13 C10.584375,13.31875 9.81249999,13.5 8.99999999,13.5 C8.18749998,13.5 7.41874998,13.31875 6.72187497,13 L6.19999997,13 C3.88124996,13 1.99999995,14.88125 1.99999995,17.2 L1.99999995,18.5 C1.99999995,19.328125 2.67187495,20 3.49999996,20 L14.5,20 C15.328125,20 16,19.328125 16,18.5 L16,17.2 C16,14.88125 14.11875,13 11.8,13 Z M21.89375,8.98749998 L21.025,8.10937498 C20.88125,7.96249998 20.646875,7.96249998 20.5,8.10624998 L17.225,11.35625 L15.803125,9.92499999 C15.659375,9.77812499 15.425,9.77812499 15.278125,9.92187499 L14.4,10.79375 C14.253125,10.9375 14.253125,11.171875 14.396875,11.31875 L16.95,13.890625 C17.09375,14.0375 17.328125,14.0375 17.475,13.89375 L21.890625,9.51249999 C22.0343751,9.36562499 22.0375001,9.13124999 21.89375,8.98749998 Z" id="path-1"></path>
    </defs>
    <g id="user-check" stroke="none" stroke-width="1" fill="none" fill-rule="evenodd">
        <mask id="mask-2" fill="white">
            <use xlink:href="#path-1"></use>
        </mask>
        <g fill-rule="nonzero"></g>
        <g id="🎨-color" mask="url(#mask-2)" fill="#000000">
            <rect id="🎨-Color" x="0" y="0" width="24" height="24"></rect>
        </g>
    </g>
</svg>