<?xml version="1.0" encoding="UTF-8"?>
<svg width="24px" height="24px" viewBox="0 0 24 24" version="1.1" xmlns="http://www.w3.org/2000/svg" xmlns:xlink="http://www.w3.org/1999/xlink">
    <!-- Generator: Sketch 52.5 (67469) - http://www.bohemiancoding.com/sketch -->
    <title>user-edit</title>
    <desc>Created with Sketch.</desc>
    <defs>
        <path d="M8.99999998,11.984375 C11.209375,11.984375 13,10.19375 13,7.98437498 C13,5.77499997 11.209375,3.98437496 8.99999998,3.98437496 C6.79062497,3.98437496 4.99999996,5.77499997 4.99999996,7.98437498 C4.99999996,10.19375 6.79062497,11.984375 8.99999998,11.984375 Z M11.8,12.984375 L11.278125,12.984375 C10.584375,13.303125 9.81249999,13.484375 8.99999998,13.484375 C8.18749998,13.484375 7.41874998,13.303125 6.72187497,12.984375 L6.19999997,12.984375 C3.88124996,12.984375 1.99999995,14.865625 1.99999995,17.184375 L1.99999995,18.484375 C1.99999995,19.3125 2.67187495,19.984375 3.49999996,19.984375 L12.090625,19.984375 C12.015625,19.771875 11.984375,19.546875 12.009375,19.31875 L12.221875,17.415625 L12.259375,17.06875 L12.50625,16.821875 L14.921875,14.40625 C14.15625,13.540625 13.046875,12.984375 11.8,12.984375 Z M13.215625,17.525 L13.003125,19.43125 C12.96875,19.75 13.2375,20.01875 13.553125,19.98125 L15.45625,19.76875 L19.765625,15.459375 L17.525,13.21875 L13.215625,17.525 Z M21.78125,12.3875 L20.596875,11.203125 C20.30625,10.9125 19.83125,10.9125 19.540625,11.203125 L18.359375,12.384375 L18.23125,12.5125 L20.475,14.753125 L21.78125,13.446875 C22.0718751,13.153125 22.0718751,12.68125 21.78125,12.3875 Z" id="path-1"></path>
    </defs>
    <g id="user-edit" stroke="none" stroke-width="1" fill="none" fill-rule="evenodd">
        <mask id="mask-2" fill="white">
            <use xlink:href="#path-1"></use>
        </mask>
        <g fill-rule="nonzero"></g>
        <g id="🎨-color" mask="url(#mask-2)" fill="#000000">
            <rect id="🎨-Color" x="0" y="0" width="24" height="24"></rect>
        </g>
    </g>
</svg>