<?xml version="1.0" encoding="UTF-8"?>
<svg width="24px" height="24px" viewBox="0 0 24 24" version="1.1" xmlns="http://www.w3.org/2000/svg" xmlns:xlink="http://www.w3.org/1999/xlink">
    <!-- Generator: Sketch 52.5 (67469) - http://www.bohemiancoding.com/sketch -->
    <title>user-ninja</title>
    <desc>Created with Sketch.</desc>
    <defs>
        <path d="M15.9609375,13.296875 L12,17.2578125 L8.03906248,13.296875 C5.35937497,13.5351563 3.24999996,15.7578125 3.24999996,18.5 L3.24999996,20.125 C3.24999996,21.1601563 4.08984371,22 5.12499997,22 L18.875,22 C19.9101563,22 20.75,21.1601563 20.75,20.125 L20.75,18.5 C20.75,15.7578125 18.640625,13.5351563 15.9609375,13.296875 Z M4.49999996,9.49999999 C5.56640622,9.49999999 6.52343747,9.05078124 7.20312498,8.33984373 C7.79296873,10.4453125 9.70312499,12 12,12 C14.7617188,12 17,9.76171874 17,6.99999997 C17,4.23828121 14.7617188,1.99999995 12,1.99999995 C10.03125,1.99999995 8.34374998,3.14843746 7.52734373,4.80468746 C6.84765622,3.86718746 5.74999997,3.24999996 4.49999996,3.24999996 C4.49999996,4.55468746 5.16796872,5.70312497 6.18359372,6.37499997 C5.16796872,7.04687498 4.49999996,8.19531248 4.49999996,9.49999999 Z M10.125,5.74999997 L13.875,5.74999997 C14.5664063,5.74999997 15.125,6.30859372 15.125,6.99999997 L8.87499998,6.99999997 C8.87499998,6.30859372 9.43359374,5.74999997 10.125,5.74999997 Z" id="path-1"></path>
    </defs>
    <g id="user-ninja" stroke="none" stroke-width="1" fill="none" fill-rule="evenodd">
        <mask id="mask-2" fill="white">
            <use xlink:href="#path-1"></use>
        </mask>
        <g fill-rule="nonzero"></g>
        <g id="🎨-color" mask="url(#mask-2)" fill="#000000">
            <rect id="🎨-Color" x="0" y="0" width="24" height="24"></rect>
        </g>
    </g>
</svg>