<?xml version="1.0" encoding="UTF-8"?>
<svg width="24px" height="24px" viewBox="0 0 24 24" version="1.1" xmlns="http://www.w3.org/2000/svg" xmlns:xlink="http://www.w3.org/1999/xlink">
    <!-- Generator: Sketch 52.5 (67469) - http://www.bohemiancoding.com/sketch -->
    <title>user-cog</title>
    <desc>Created with Sketch.</desc>
    <defs>
        <path d="M21.078125,15.665625 C21.159375,15.225 21.159375,14.775 21.078125,14.334375 L21.884375,13.86875 C21.978125,13.815625 22.0187501,13.70625 21.9875,13.603125 C21.778125,12.928125 21.41875,12.315625 20.95,11.809375 C20.878125,11.73125 20.7625,11.7125 20.66875,11.765625 L19.8625,12.23125 C19.521875,11.940625 19.13125,11.715625 18.709375,11.565625 L18.709375,10.634375 C18.709375,10.528125 18.634375,10.434375 18.53125,10.4125 C17.834375,10.25625 17.125,10.2625 16.4625,10.4125 C16.359375,10.434375 16.284375,10.528125 16.284375,10.634375 L16.284375,11.565625 C15.8625,11.715625 15.471875,11.940625 15.13125,12.23125 L14.325,11.765625 C14.234375,11.7125 14.115625,11.73125 14.04375,11.809375 C13.575,12.315625 13.215625,12.928125 13.00625,13.603125 C12.975,13.70625 13.01875,13.815625 13.109375,13.86875 L13.915625,14.334375 C13.834375,14.775 13.834375,15.225 13.915625,15.665625 L13.109375,16.13125 C13.015625,16.184375 12.975,16.29375 13.00625,16.396875 C13.215625,17.071875 13.575,17.68125 14.04375,18.190625 C14.115625,18.26875 14.23125,18.2875 14.325,18.234375 L15.13125,17.76875 C15.471875,18.059375 15.8625,18.284375 16.284375,18.434375 L16.284375,19.365625 C16.284375,19.471875 16.359375,19.565625 16.4625,19.5875 C17.159375,19.74375 17.86875,19.7375 18.53125,19.5875 C18.634375,19.565625 18.709375,19.471875 18.709375,19.365625 L18.709375,18.434375 C19.13125,18.284375 19.521875,18.059375 19.8625,17.76875 L20.66875,18.234375 C20.759375,18.2875 20.878125,18.26875 20.95,18.190625 C21.41875,17.684375 21.778125,17.071875 21.9875,16.396875 C22.0187501,16.29375 21.975,16.184375 21.884375,16.13125 L21.078125,15.665625 Z M17.5,16.515625 C16.6625,16.515625 15.984375,15.834375 15.984375,15 C15.984375,14.165625 16.665625,13.484375 17.5,13.484375 C18.334375,13.484375 19.015625,14.165625 19.015625,15 C19.015625,15.834375 18.3375,16.515625 17.5,16.515625 Z M8.99999998,12 C11.209375,12 13,10.209375 13,7.99999998 C13,5.79062497 11.209375,3.99999996 8.99999998,3.99999996 C6.79062497,3.99999996 4.99999996,5.79062497 4.99999996,7.99999998 C4.99999996,10.209375 6.79062497,12 8.99999998,12 Z M15.2875,19.078125 C15.215625,19.040625 15.14375,18.996875 15.075,18.95625 L14.828125,19.1 C14.640625,19.20625 14.428125,19.265625 14.215625,19.265625 C13.875,19.265625 13.546875,19.121875 13.3125,18.871875 C12.740625,18.253125 12.303125,17.5 12.05625,16.696875 C11.884375,16.14375 12.115625,15.559375 12.615625,15.26875 L12.8625,15.125 C12.859375,15.04375 12.859375,14.9625 12.8625,14.88125 L12.615625,14.7375 C12.115625,14.45 11.884375,13.8625 12.05625,13.309375 C12.084375,13.21875 12.125,13.128125 12.15625,13.0375 C12.0375,13.028125 11.921875,13 11.8,13 L11.278125,13 C10.584375,13.31875 9.81249999,13.5 8.99999999,13.5 C8.18749998,13.5 7.41874998,13.31875 6.72187497,13 L6.19999997,13 C3.88124996,13 1.99999995,14.88125 1.99999995,17.2 L1.99999995,18.5 C1.99999995,19.328125 2.67187495,20 3.49999996,20 L14.5,20 C14.815625,20 15.109375,19.9 15.35,19.734375 C15.3125,19.615625 15.2875,19.49375 15.2875,19.365625 L15.2875,19.078125 Z" id="path-1"></path>
    </defs>
    <g id="user-cog" stroke="none" stroke-width="1" fill="none" fill-rule="evenodd">
        <mask id="mask-2" fill="white">
            <use xlink:href="#path-1"></use>
        </mask>
        <g fill-rule="nonzero"></g>
        <g id="🎨-color" mask="url(#mask-2)" fill="#000000">
            <rect id="🎨-Color" x="0" y="0" width="24" height="24"></rect>
        </g>
    </g>
</svg>