<?xml version="1.0" encoding="UTF-8"?>
<svg width="24px" height="24px" viewBox="0 0 24 24" version="1.1" xmlns="http://www.w3.org/2000/svg" xmlns:xlink="http://www.w3.org/1999/xlink">
    <!-- Generator: Sketch 52.5 (67469) - http://www.bohemiancoding.com/sketch -->
    <title>user-lock</title>
    <desc>Created with Sketch.</desc>
    <defs>
        <path d="M12,14 C12,13.653125 12.096875,13.33125 12.253125,13.046875 C12.103125,13.03125 11.95625,13 11.8,13 L11.278125,13 C10.584375,13.31875 9.81249999,13.5 8.99999998,13.5 C8.18749998,13.5 7.41874998,13.31875 6.72187497,13 L6.19999997,13 C3.88124996,13 1.99999995,14.88125 1.99999995,17.2 L1.99999995,18.5 C1.99999995,19.328125 2.67187495,20 3.49999996,20 L12.278125,20 C12.10625,19.703125 12,19.365625 12,19 L12,14 Z M8.99999998,12 C11.209375,12 13,10.209375 13,7.99999998 C13,5.79062497 11.209375,3.99999996 8.99999998,3.99999996 C6.79062497,3.99999996 4.99999996,5.79062497 4.99999996,7.99999998 C4.99999996,10.209375 6.79062497,12 8.99999998,12 Z M21,13 L20,13 L20,11.5 C20,10.11875 18.88125,8.99999998 17.5,8.99999998 C16.11875,8.99999998 15,10.11875 15,11.5 L15,13 L14,13 C13.446875,13 13,13.446875 13,14 L13,19 C13,19.553125 13.446875,20 14,20 L21,20 C21.553125,20 22.0000001,19.553125 22.0000001,19 L22.0000001,14 C22.0000001,13.446875 21.553125,13 21,13 Z M18.5,13 L16.5,13 L16.5,11.5 C16.5,10.95 16.95,10.5 17.5,10.5 C18.05,10.5 18.5,10.95 18.5,11.5 L18.5,13 Z" id="path-1"></path>
    </defs>
    <g id="user-lock" stroke="none" stroke-width="1" fill="none" fill-rule="evenodd">
        <mask id="mask-2" fill="white">
            <use xlink:href="#path-1"></use>
        </mask>
        <g fill-rule="nonzero"></g>
        <g id="🎨-color" mask="url(#mask-2)" fill="#000000">
            <rect id="🎨-Color" x="0" y="0" width="24" height="24"></rect>
        </g>
    </g>
</svg>