<?xml version="1.0" encoding="UTF-8"?>
<svg width="24px" height="24px" viewBox="0 0 24 24" version="1.1" xmlns="http://www.w3.org/2000/svg" xmlns:xlink="http://www.w3.org/1999/xlink">
    <!-- Generator: Sketch 52.5 (67469) - http://www.bohemiancoding.com/sketch -->
    <title>user-shield</title>
    <desc>Created with Sketch.</desc>
    <defs>
        <path d="M21.446875,12.471875 L17.846875,11.065625 C17.71875,11.015625 17.453125,10.95 17.153125,11.065625 L13.553125,12.471875 C13.21875,12.603125 13,12.909375 13,13.25 C13,16.7375 15.146875,19.15 17.153125,19.934375 C17.453125,20.05 17.715625,19.984375 17.846875,19.934375 C19.45,19.309375 22.0000001,17.140625 22.0000001,13.25 C22.0000001,12.909375 21.78125,12.603125 21.446875,12.471875 Z M17.5,18.45 L17.5,12.540625 L20.484375,13.70625 C20.309375,16.428125 18.58125,17.9375 17.5,18.45 Z M8.99999998,12 C11.209375,12 13,10.209375 13,7.99999998 C13,5.79062497 11.209375,3.99999996 8.99999998,3.99999996 C6.79062497,3.99999996 4.99999996,5.79062497 4.99999996,7.99999998 C4.99999996,10.209375 6.79062497,12 8.99999998,12 Z M12,13.25 C12,13.171875 12.025,13.1 12.034375,13.025 C11.95625,13.021875 11.88125,13 11.8,13 L11.278125,13 C10.584375,13.31875 9.81249999,13.5 8.99999999,13.5 C8.18749998,13.5 7.41874998,13.31875 6.72187497,13 L6.19999997,13 C3.88124996,13 1.99999995,14.88125 1.99999995,17.2 L1.99999995,18.5 C1.99999995,19.328125 2.67187495,20 3.49999996,20 L14.5,20 C14.7125,20 14.915625,19.953125 15.1,19.875 C13.4125,18.534375 12,16.228125 12,13.25 Z" id="path-1"></path>
    </defs>
    <g id="user-shield" stroke="none" stroke-width="1" fill="none" fill-rule="evenodd">
        <mask id="mask-2" fill="white">
            <use xlink:href="#path-1"></use>
        </mask>
        <g fill-rule="nonzero"></g>
        <g id="🎨-color" mask="url(#mask-2)" fill="#000000">
            <rect id="🎨-Color" x="0" y="0" width="24" height="24"></rect>
        </g>
    </g>
</svg>