<?xml version="1.0" encoding="UTF-8"?>
<svg width="24px" height="24px" viewBox="0 0 24 24" version="1.1" xmlns="http://www.w3.org/2000/svg" xmlns:xlink="http://www.w3.org/1999/xlink">
    <!-- Generator: Sketch 52.5 (67469) - http://www.bohemiancoding.com/sketch -->
    <title>vaadin</title>
    <desc>Created with Sketch.</desc>
    <defs>
        <path d="M12.0195313,7.49609373 C12.078125,6.80859372 12.2109375,5.43749997 13.9648438,5.43749997 L17.8164063,5.43749997 C18.625,5.43749997 19.0703125,5.13281247 19.0703125,4.59374996 L19.0703125,4.11328121 C19.0703125,3.63671871 19.4335938,3.24999996 19.9101563,3.24999996 C20.3867188,3.24999996 20.75,3.63671871 20.75,4.11328121 L20.75,5.53906247 C20.75,7.21484373 19.9101563,7.96093748 18.140625,7.96093748 L14.2148438,7.96093748 C13.0390625,7.96093748 12.9257813,8.53515623 12.9257813,9.01953124 C12.9257813,9.07031249 12.921875,9.11718749 12.9179688,9.16406249 C12.890625,9.64453124 12.4921875,10.03125 12.0039063,10.03125 C11.515625,10.03125 11.1171875,9.64843749 11.0898437,9.16406249 C11.0859375,9.11718749 11.0820312,9.07031249 11.0820312,9.01953124 C11.0820312,8.53906248 10.9648437,7.96093748 9.79296874,7.96093748 L5.85937497,7.96093748 C4.08984371,7.96093748 3.24999996,7.21484373 3.24999996,5.53906247 L3.24999996,4.11328121 C3.24999996,3.63671871 3.61718746,3.24999996 4.09374996,3.24999996 C4.57031246,3.24999996 4.93359371,3.63671871 4.93359371,4.11328121 L4.93359371,4.59374996 C4.93359371,5.13281247 5.37890622,5.43749997 6.18749997,5.43749997 L10.0390625,5.43749997 C11.7890625,5.43749997 11.9257812,6.80859372 11.984375,7.49609373 L12.0195313,7.49609373 Z M12,19.8125 C12.4492188,19.8125 12.8359375,19.5390625 13.0039063,19.1757813 C13.046875,19.1054688 16.796875,12.5507813 16.8398438,12.4804688 C17.3046875,11.7148437 16.7148438,10.75 15.7773438,10.75 C15.234375,10.75 14.8671875,11 14.6132813,11.5429687 L12,16.140625 L9.38671874,11.5429687 C9.13671874,11 8.76562498,10.75 8.22265623,10.75 C7.28515623,10.75 6.69531247,11.7109375 7.16015623,12.4804688 C7.20312498,12.5546875 10.953125,19.1054688 10.9960937,19.1757813 C11.1640625,19.5390625 11.5507812,19.8125 12,19.8125 Z" id="path-1"></path>
    </defs>
    <g id="vaadin" stroke="none" stroke-width="1" fill="none" fill-rule="evenodd">
        <mask id="mask-2" fill="white">
            <use xlink:href="#path-1"></use>
        </mask>
        <g fill-rule="nonzero"></g>
        <g id="🎨-color" mask="url(#mask-2)" fill="#000000">
            <rect id="🎨-Color" x="0" y="0" width="24" height="24"></rect>
        </g>
    </g>
</svg>