<?xml version="1.0" encoding="UTF-8"?>
<svg width="24px" height="24px" viewBox="0 0 24 24" version="1.1" xmlns="http://www.w3.org/2000/svg" xmlns:xlink="http://www.w3.org/1999/xlink">
    <!-- Generator: Sketch 52.5 (67469) - http://www.bohemiancoding.com/sketch -->
    <title>vector-square</title>
    <desc>Created with Sketch.</desc>
    <defs>
        <path d="M22.0000001,6.99999997 L22.0000001,3.24999996 C22.0000001,2.55976558 21.4402344,1.99999995 20.75,1.99999995 L17,1.99999995 C16.3097656,1.99999995 15.75,2.55976558 15.75,3.24999996 L8.24999998,3.24999996 C8.24999998,2.55976558 7.69023435,1.99999995 6.99999997,1.99999995 L3.24999996,1.99999995 C2.55976558,1.99999995 1.99999995,2.55976558 1.99999995,3.24999996 L1.99999995,6.99999997 C1.99999995,7.69023435 2.55976558,8.24999998 3.24999996,8.24999998 L3.24999996,15.75 C2.55976558,15.75 1.99999995,16.3097656 1.99999995,17 L1.99999995,20.75 C1.99999995,21.4402344 2.55976558,22.0000001 3.24999996,22.0000001 L6.99999997,22.0000001 C7.69023435,22.0000001 8.24999998,21.4402344 8.24999998,20.75 L15.75,20.75 C15.75,21.4402344 16.3097656,22.0000001 17,22.0000001 L20.75,22.0000001 C21.4402344,22.0000001 22.0000001,21.4402344 22.0000001,20.75 L22.0000001,17 C22.0000001,16.3097656 21.4402344,15.75 20.75,15.75 L20.75,8.24999998 C21.4402344,8.24999998 22.0000001,7.69023435 22.0000001,6.99999997 Z M18.25,4.49999996 L19.5,4.49999996 L19.5,5.74999997 L18.25,5.74999997 L18.25,4.49999996 Z M4.49999996,4.49999996 L5.74999997,4.49999996 L5.74999997,5.74999997 L4.49999996,5.74999997 L4.49999996,4.49999996 Z M5.74999997,19.5 L4.49999996,19.5 L4.49999996,18.25 L5.74999997,18.25 L5.74999997,19.5 Z M19.5,19.5 L18.25,19.5 L18.25,18.25 L19.5,18.25 L19.5,19.5 Z M18.25,15.75 L17,15.75 C16.3097656,15.75 15.75,16.3097656 15.75,17 L15.75,18.25 L8.24999998,18.25 L8.24999998,17 C8.24999998,16.3097656 7.69023435,15.75 6.99999997,15.75 L5.74999997,15.75 L5.74999997,8.24999998 L6.99999997,8.24999998 C7.69023435,8.24999998 8.24999998,7.69023435 8.24999998,6.99999997 L8.24999998,5.74999997 L15.75,5.74999997 L15.75,6.99999997 C15.75,7.69023435 16.3097656,8.24999998 17,8.24999998 L18.25,8.24999998 L18.25,15.75 Z" id="path-1"></path>
    </defs>
    <g id="vector-square" stroke="none" stroke-width="1" fill="none" fill-rule="evenodd">
        <mask id="mask-2" fill="white">
            <use xlink:href="#path-1"></use>
        </mask>
        <g fill-rule="nonzero"></g>
        <g id="🎨-color" mask="url(#mask-2)" fill="#000000">
            <rect id="🎨-Color" x="0" y="0" width="24" height="24"></rect>
        </g>
    </g>
</svg>