<?xml version="1.0" encoding="UTF-8"?>
<svg width="24px" height="24px" viewBox="0 0 24 24" version="1.1" xmlns="http://www.w3.org/2000/svg" xmlns:xlink="http://www.w3.org/1999/xlink">
    <!-- Generator: Sketch 52.5 (67469) - http://www.bohemiancoding.com/sketch -->
    <title>venus-double</title>
    <desc>Created with Sketch.</desc>
    <defs>
        <path d="M13.25,8.87499998 C13.25,5.76953122 10.7304687,3.24999996 7.62499998,3.24999996 C4.51953121,3.24999996 1.99999995,5.76953122 1.99999995,8.87499998 C1.99999995,11.5507812 3.87109371,13.7929688 6.37499997,14.359375 L6.37499997,16.375 L4.96874996,16.375 C4.71093746,16.375 4.49999996,16.5859375 4.49999996,16.84375 L4.49999996,18.40625 C4.49999996,18.6640625 4.71093746,18.875 4.96874996,18.875 L6.37499997,18.875 L6.37499997,20.28125 C6.37499997,20.5390625 6.58593747,20.75 6.84374997,20.75 L8.40624998,20.75 C8.66406248,20.75 8.87499998,20.5390625 8.87499998,20.28125 L8.87499998,18.875 L10.28125,18.875 C10.5390625,18.875 10.75,18.6640625 10.75,18.40625 L10.75,16.84375 C10.75,16.5859375 10.5390625,16.375 10.28125,16.375 L8.87499998,16.375 L8.87499998,14.359375 C11.3789062,13.7929688 13.25,11.5507812 13.25,8.87499998 Z M4.49999996,8.87499998 C4.49999996,7.15234373 5.90234372,5.74999997 7.62499998,5.74999997 C9.34765624,5.74999997 10.75,7.15234373 10.75,8.87499998 C10.75,10.5976562 9.34765624,12 7.62499998,12 C5.90234372,12 4.49999996,10.5976562 4.49999996,8.87499998 Z M17.625,14.359375 L17.625,16.375 L19.03125,16.375 C19.2890625,16.375 19.5,16.5859375 19.5,16.84375 L19.5,18.40625 C19.5,18.6640625 19.2890625,18.875 19.03125,18.875 L17.625,18.875 L17.625,20.28125 C17.625,20.5390625 17.4140625,20.75 17.15625,20.75 L15.59375,20.75 C15.3359375,20.75 15.125,20.5390625 15.125,20.28125 L15.125,18.875 L13.71875,18.875 C13.4609375,18.875 13.25,18.6640625 13.25,18.40625 L13.25,16.84375 C13.25,16.5859375 13.4609375,16.375 13.71875,16.375 L15.125,16.375 L15.125,14.359375 C14.296875,14.171875 13.5390625,13.8007813 12.890625,13.2929688 C13.4375,12.640625 13.8671875,11.8867187 14.1445313,11.0625 C14.7109375,11.640625 15.5,12 16.375,12 C18.0976563,12 19.5,10.5976562 19.5,8.87499998 C19.5,7.15234373 18.0976563,5.74999997 16.375,5.74999997 C15.5039063,5.74999997 14.7109375,6.10937497 14.1445313,6.68749997 C13.8671875,5.86328122 13.4414063,5.10937497 12.890625,4.45703121 C13.8515625,3.70312496 15.0585938,3.24999996 16.375,3.24999996 C19.4804688,3.24999996 22.0000001,5.76953122 22.0000001,8.87499998 C22.0000001,11.5507812 20.1289063,13.7929688 17.625,14.359375 Z" id="path-1"></path>
    </defs>
    <g id="venus-double" stroke="none" stroke-width="1" fill="none" fill-rule="evenodd">
        <mask id="mask-2" fill="white">
            <use xlink:href="#path-1"></use>
        </mask>
        <g fill-rule="nonzero"></g>
        <g id="🎨-color" mask="url(#mask-2)" fill="#000000">
            <rect id="🎨-Color" x="0" y="0" width="24" height="24"></rect>
        </g>
    </g>
</svg>