<?xml version="1.0" encoding="UTF-8"?>
<svg width="24px" height="24px" viewBox="0 0 24 24" version="1.1" xmlns="http://www.w3.org/2000/svg" xmlns:xlink="http://www.w3.org/1999/xlink">
    <!-- Generator: Sketch 52.5 (67469) - http://www.bohemiancoding.com/sketch -->
    <title>viadeo-square</title>
    <desc>Created with Sketch.</desc>
    <defs>
        <path d="M18.875,3.24999996 L5.12499997,3.24999996 C4.08984371,3.24999996 3.24999996,4.08984371 3.24999996,5.12499997 L3.24999996,18.875 C3.24999996,19.9101563 4.08984371,20.75 5.12499997,20.75 L18.875,20.75 C19.9101563,20.75 20.75,19.9101563 20.75,18.875 L20.75,5.12499997 C20.75,4.08984371 19.9101563,3.24999996 18.875,3.24999996 Z M14.2148438,16.890625 C12.5585938,18.6953125 9.52734374,18.7109375 7.87109373,16.890625 C5.21484372,14.015625 7.09765623,9.23046874 11.0429687,9.23046874 C11.5625,9.23046874 12.0820313,9.31249999 12.5703125,9.49218749 C12.4023438,9.82031249 12.2851563,10.1796875 12.2421875,10.5507812 C11.8632812,10.390625 11.453125,10.3164062 11.0429687,10.3164062 C9.13671874,10.3164062 7.73828123,11.9453125 7.73828123,13.7890625 C7.73828123,15.46875 8.85156248,16.8632813 10.453125,17.1445313 C12.8554688,16.2070313 13.3007813,12.5507813 13.3007813,10.3085937 C13.3007813,10.0234375 13.3007813,9.73046874 13.2773438,9.44531249 C12.8398438,8.16015623 12.2382813,6.92187497 11.5507812,5.75390622 C12.609375,6.46874997 13.1875,8.19531248 13.2773438,9.42968749 L13.2773438,9.44531249 C13.578125,10.3242187 13.7382813,11.25 13.7382813,12.1796875 C13.7382813,14.2929688 12.8828125,16.046875 11.0703125,17.1875 L10.9765625,17.1953125 C12.9296875,17.234375 14.34375,15.6875 14.34375,13.7890625 C14.34375,13.3125 14.2617188,12.8398438 14.0742188,12.3945313 C14.4453125,12.3203125 14.796875,12.1757813 15.1054688,11.984375 C15.703125,13.4140625 15.5976563,15.3945313 14.2148438,16.890625 Z M15.3203125,11.1289062 C14.8007813,11.1289062 14.3398438,10.8515625 13.9765625,10.5 C14.8320313,10.03125 15.9140625,9.30078124 16.4101563,8.42968748 C16.46875,8.31249998 16.5703125,8.09374998 16.5859375,7.96093748 C16.0976563,9.05078124 14.859375,9.90624999 13.6992188,10.1757812 C13.515625,9.89062499 13.40625,9.57031249 13.40625,9.22656249 C13.40625,8.82421873 13.609375,8.28515623 13.9101563,7.99218748 C14.7539063,7.19140623 15.9804688,7.66015623 16.7382813,6.03906247 C18.0078125,7.84374998 17.25,11.1289062 15.3203125,11.1289062 Z" id="path-1"></path>
    </defs>
    <g id="viadeo-square" stroke="none" stroke-width="1" fill="none" fill-rule="evenodd">
        <mask id="mask-2" fill="white">
            <use xlink:href="#path-1"></use>
        </mask>
        <g fill-rule="nonzero"></g>
        <g id="🎨-color" mask="url(#mask-2)" fill="#000000">
            <rect id="🎨-Color" x="0" y="0" width="24" height="24"></rect>
        </g>
    </g>
</svg>