<?xml version="1.0" encoding="UTF-8"?>
<svg width="24px" height="24px" viewBox="0 0 24 24" version="1.1" xmlns="http://www.w3.org/2000/svg" xmlns:xlink="http://www.w3.org/1999/xlink">
    <!-- Generator: Sketch 52.5 (67469) - http://www.bohemiancoding.com/sketch -->
    <title>viadeo</title>
    <desc>Created with Sketch.</desc>
    <defs>
        <path d="M14.0390625,7.87890623 L14.0390625,7.90624998 C13.3398438,5.85156247 12.375,3.86718746 11.2734375,1.99999995 C12.9648438,3.14062496 13.890625,5.90624997 14.0390625,7.87890623 Z M15.3164063,12.6328125 C15.6132813,13.34375 15.7460938,14.0976563 15.7460938,14.859375 C15.7460938,17.8945313 13.4882813,20.3671875 10.3632812,20.3046875 L10.5117187,20.2929688 C13.4101563,18.46875 14.78125,15.6601563 14.78125,12.28125 C14.78125,10.7929687 14.5273438,9.31640624 14.0429688,7.90624998 C14.0820313,8.36328123 14.0820313,8.83203123 14.0820313,9.28906249 C14.0820313,12.875 13.375,18.7265625 9.52734374,20.2265625 C6.96093747,19.78125 5.17968747,17.546875 5.17968747,14.859375 C5.17968747,11.90625 7.42187498,9.30078124 10.46875,9.30078124 C11.125,9.30078124 11.7851562,9.42187499 12.3867188,9.67578124 C12.453125,9.08593749 12.640625,8.50781248 12.9101563,7.98437498 C12.1328125,7.70312498 11.3007812,7.56640623 10.46875,7.56640623 C4.16015621,7.56640623 1.1445312,15.21875 5.39453122,19.8203125 C8.04687498,22.7343751 12.8945313,22.7070313 15.5429688,19.8203125 C17.7539063,17.4257813 17.921875,14.2578125 16.9648438,11.96875 C16.46875,12.28125 15.90625,12.5117188 15.3164063,12.6328125 Z M19.5820313,2.4570312 C18.3710938,5.05468747 16.40625,4.30078121 15.0585938,5.58593747 C14.5742188,6.05468747 14.2539063,6.91406247 14.2539063,7.55859373 C14.2539063,8.10937498 14.4296875,8.61718748 14.7226563,9.07421874 C16.5742188,8.64453123 18.5625,7.27734373 19.3398438,5.53124997 C19.3125,5.74609372 19.1523438,6.09374997 19.0585938,6.28124997 C18.265625,7.67578123 16.5351563,8.84374998 15.1640625,9.59765624 C15.7421875,10.1601562 16.4804688,10.6054687 17.3125,10.6054687 C20.3984375,10.6054687 21.6132813,5.34765622 19.5820313,2.4570312 Z" id="path-1"></path>
    </defs>
    <g id="viadeo" stroke="none" stroke-width="1" fill="none" fill-rule="evenodd">
        <mask id="mask-2" fill="white">
            <use xlink:href="#path-1"></use>
        </mask>
        <g fill-rule="nonzero"></g>
        <g id="🎨-color" mask="url(#mask-2)" fill="#000000">
            <rect id="🎨-Color" x="0" y="0" width="24" height="24"></rect>
        </g>
    </g>
</svg>