<?xml version="1.0" encoding="UTF-8"?>
<svg width="24px" height="24px" viewBox="0 0 24 24" version="1.1" xmlns="http://www.w3.org/2000/svg" xmlns:xlink="http://www.w3.org/1999/xlink">
    <!-- Generator: Sketch 52.5 (67469) - http://www.bohemiancoding.com/sketch -->
    <title>vial</title>
    <desc>Created with Sketch.</desc>
    <defs>
        <path d="M21.265625,9.26953124 L14.6953125,2.7148437 C14.5742188,2.59374995 14.375,2.59374995 14.2539063,2.7148437 L12.9257813,4.03906246 C12.8046875,4.16015621 12.8046875,4.35937496 12.9257813,4.48046871 L13.3632813,4.91406246 L3.89453121,14.3632813 C2.3789062,15.875 2.13281245,18.3476563 3.52734371,19.96875 C4.33203121,20.90625 5.46093747,21.375 6.58984372,21.3710938 C7.62109373,21.3710938 8.65234373,20.9804688 9.43749999,20.1953125 L19.0585938,10.5976562 L19.4960938,11.03125 C19.6171875,11.1523437 19.8164063,11.1523437 19.9375,11.03125 L21.265625,9.70703124 C21.3867188,9.58984374 21.3867188,9.39062499 21.265625,9.26953124 Z M15.0273438,12 L8.89453123,12 L14.6757813,6.23046872 L17.7421875,9.28906249 L15.0273438,12 Z" id="path-1"></path>
    </defs>
    <g id="vial" stroke="none" stroke-width="1" fill="none" fill-rule="evenodd">
        <mask id="mask-2" fill="white">
            <use xlink:href="#path-1"></use>
        </mask>
        <g fill-rule="nonzero"></g>
        <g id="🎨-color" mask="url(#mask-2)" fill="#000000">
            <rect id="🎨-Color" x="0" y="0" width="24" height="24"></rect>
        </g>
    </g>
</svg>