<?xml version="1.0" encoding="UTF-8"?>
<svg width="24px" height="24px" viewBox="0 0 24 24" version="1.1" xmlns="http://www.w3.org/2000/svg" xmlns:xlink="http://www.w3.org/1999/xlink">
    <!-- Generator: Sketch 52.5 (67469) - http://www.bohemiancoding.com/sketch -->
    <title>vials</title>
    <desc>Created with Sketch.</desc>
    <defs>
        <path d="M4.24999996,5.99999997 L4.99999996,5.99999997 L4.99999996,13.5 C4.99999996,14.878125 6.12187497,16 7.49999998,16 C8.87812498,16 9.99999999,14.878125 9.99999999,13.5 L9.99999999,5.99999997 L10.75,5.99999997 C10.8875,5.99999997 11,5.88749997 11,5.74999997 L11,4.24999996 C11,4.11249996 10.8875,3.99999996 10.75,3.99999996 L4.24999996,3.99999996 C4.11249996,3.99999996 3.99999996,4.11249996 3.99999996,4.24999996 L3.99999996,5.74999997 C3.99999996,5.88749997 4.11249996,5.99999997 4.24999996,5.99999997 Z M6.49999997,5.99999997 L8.49999998,5.99999997 L8.49999998,8.99999999 L6.49999997,8.99999999 L6.49999997,5.99999997 Z M21.5,18 L2.49999995,18 C2.22499995,18 1.99999995,18.225 1.99999995,18.5 L1.99999995,19.5 C1.99999995,19.775 2.22499995,20 2.49999995,20 L21.5,20 C21.775,20 22.0000001,19.775 22.0000001,19.5 L22.0000001,18.5 C22.0000001,18.225 21.775,18 21.5,18 Z M13.25,5.99999997 L14,5.99999997 L14,13.5 C14,14.878125 15.121875,16 16.5,16 C17.878125,16 19,14.878125 19,13.5 L19,5.99999997 L19.75,5.99999997 C19.8875,5.99999997 20,5.88749997 20,5.74999997 L20,4.24999996 C20,4.11249996 19.8875,3.99999996 19.75,3.99999996 L13.25,3.99999996 C13.1125,3.99999996 13,4.11249996 13,4.24999996 L13,5.74999997 C13,5.88749997 13.1125,5.99999997 13.25,5.99999997 Z M15.5,5.99999997 L17.5,5.99999997 L17.5,8.99999999 L15.5,8.99999999 L15.5,5.99999997 Z" id="path-1"></path>
    </defs>
    <g id="vials" stroke="none" stroke-width="1" fill="none" fill-rule="evenodd">
        <mask id="mask-2" fill="white">
            <use xlink:href="#path-1"></use>
        </mask>
        <g fill-rule="nonzero"></g>
        <g id="🎨-color" mask="url(#mask-2)" fill="#000000">
            <rect id="🎨-Color" x="0" y="0" width="24" height="24"></rect>
        </g>
    </g>
</svg>