<?xml version="1.0" encoding="UTF-8"?>
<svg width="24px" height="24px" viewBox="0 0 24 24" version="1.1" xmlns="http://www.w3.org/2000/svg" xmlns:xlink="http://www.w3.org/1999/xlink">
    <!-- Generator: Sketch 52.5 (67469) - http://www.bohemiancoding.com/sketch -->
    <title>viber</title>
    <desc>Created with Sketch.</desc>
    <defs>
        <path d="M19.3294347,3.94541906 C18.834308,3.48927871 16.8304094,2.03508767 12.3625731,2.01559449 C12.3625731,2.01559449 7.09551654,1.69980502 4.53021439,4.05458086 C3.1033138,5.48148145 2.60038982,7.57504871 2.54580892,10.1676413 C2.49122802,12.7602339 2.42495122,17.6179338 7.10721245,18.9356725 L7.11111109,18.9356725 L7.10721245,20.9473685 C7.10721245,20.9473685 7.07602337,21.7621833 7.61403507,21.925926 C8.26120856,22.128655 8.64327484,21.508772 9.26315788,20.8421053 C9.60233917,20.4756336 10.0701754,19.9376219 10.4249513,19.5282651 C13.6296296,19.797271 16.0896686,19.1812866 16.3703704,19.091618 C17.0175439,18.8810917 20.6783626,18.4132554 21.2709552,13.5555556 C21.8869396,8.54191031 20.9746589,5.37621829 19.3294347,3.94541906 Z M19.8713451,13.1890838 C19.3684211,17.2436647 16.4015595,17.5009747 15.8557505,17.6764133 C15.6218324,17.7504874 13.4580897,18.2884991 10.7407407,18.1130605 C10.7407407,18.1130605 8.71345028,20.5575049 8.08187133,21.1929825 C7.87524364,21.3996102 7.64912279,21.380117 7.65302142,20.9707603 C7.65302142,20.7017544 7.66861596,17.6296297 7.66861596,17.6296297 C7.66471733,17.6296297 7.66471733,17.6296297 7.66861596,17.6296297 C3.69980503,16.5302144 3.93372316,12.3937622 3.97660815,10.2300195 C4.01949314,8.06627678 4.42884986,6.29239763 5.63742687,5.09941517 C7.80896684,3.13060424 12.2807018,3.42300191 12.2807018,3.42300191 C16.0584796,3.43859645 17.8674464,4.57699801 18.2884991,4.95906429 C19.6803119,6.15204675 20.3898636,9.00584794 19.8713451,13.1890838 Z M14.4522417,10.0389863 C14.4678363,10.374269 13.9649123,10.3976608 13.9493177,10.0623782 C13.9064328,9.20467835 13.5048733,8.78752435 12.6783626,8.74074072 C12.3430799,8.72124755 12.374269,8.21832357 12.705653,8.23781675 C13.7933723,8.29629628 14.3976608,8.92007796 14.4522417,10.0389863 Z M15.2436647,10.4795322 C15.2826511,8.82651071 14.2495127,7.53216372 12.288499,7.38791421 C11.957115,7.36452239 11.9922027,6.86159841 12.3235867,6.88499023 C14.5847953,7.04873292 15.7894737,8.60428848 15.7465887,10.4912281 C15.7426901,10.8265107 15.2358675,10.8109162 15.2436647,10.4795322 Z M17.0760234,11.0019493 C17.0799221,11.337232 16.5730994,11.3411306 16.5730994,11.0058479 C16.5497076,7.82846002 14.4327486,6.09746586 11.8635478,6.07797268 C11.5321637,6.07407404 11.5321637,5.5750487 11.8635478,5.5750487 C14.7368421,5.59454188 17.048733,7.57894735 17.0760234,11.0019493 Z M16.6354776,14.8265107 L16.6354776,14.834308 C16.214425,15.5750488 15.4269006,16.3937622 14.6159844,16.1325536 L14.6081871,16.1208577 C13.7855751,15.8908382 11.8479532,14.8927875 10.6237817,13.9181287 C9.99220272,13.4191033 9.41520467,12.8304094 8.97076022,12.2651072 C8.56920076,11.7621832 8.16374267,11.165692 7.76998049,10.4483431 C6.93957112,8.94736841 6.75633526,8.2768031 6.75633526,8.2768031 C6.49512668,7.46588692 7.3099415,6.67836255 8.05458088,6.25730991 L8.06237815,6.25730991 C8.42105261,6.07017541 8.76413254,6.13255358 8.99415203,6.4093567 C8.99415203,6.4093567 9.47758283,6.98635475 9.68421051,7.27095514 C9.87914229,7.53606236 10.1403509,7.96101363 10.2768031,8.19883039 C10.5146199,8.62378166 10.3664717,9.0565302 10.1325536,9.23586743 L9.66471734,9.61013644 C9.42690057,9.80116958 9.45808966,10.1559454 9.45808966,10.1559454 C9.45808966,10.1559454 10.1520468,12.7797271 12.7446394,13.4424951 C12.7446394,13.4424951 13.0994152,13.4736842 13.2904483,13.2358675 L13.6647174,12.7680312 C13.8440546,12.5341131 14.2768031,12.3859649 14.7017544,12.6237817 C15.2748538,12.9473684 16.0038987,13.4502924 16.4873295,13.9064328 C16.7602339,14.128655 16.8226121,14.4678363 16.6354776,14.8265107 Z" id="path-1"></path>
    </defs>
    <g id="viber" stroke="none" stroke-width="1" fill="none" fill-rule="evenodd">
        <mask id="mask-2" fill="white">
            <use xlink:href="#path-1"></use>
        </mask>
        <g fill-rule="nonzero"></g>
        <g id="🎨-color" mask="url(#mask-2)" fill="#000000">
            <rect id="🎨-Color" x="0" y="0" width="24" height="24"></rect>
        </g>
    </g>
</svg>