<?xml version="1.0" encoding="UTF-8"?>
<svg width="24px" height="24px" viewBox="0 0 24 24" version="1.1" xmlns="http://www.w3.org/2000/svg" xmlns:xlink="http://www.w3.org/1999/xlink">
    <!-- Generator: Sketch 52.5 (67469) - http://www.bohemiancoding.com/sketch -->
    <title>video-slash</title>
    <desc>Created with Sketch.</desc>
    <defs>
        <path d="M21.7753511,18.3057723 L20.0592824,16.9797192 C20.5397816,16.9360375 20.9703589,16.5522621 20.9703589,16.0093604 L20.9703589,7.99063961 C20.9703589,7.19500778 20.0624025,6.73010918 19.3978159,7.1856474 L15.9781591,9.54446177 L15.9781591,13.825273 L14.9797192,13.0546022 L14.9797192,7.50078001 C14.9797192,6.67706706 14.3120125,6.00936034 13.4882995,6.00936034 L5.8658346,6.00936034 L3.41965674,4.1185647 C3.20124801,3.95007796 2.88923552,3.98751946 2.71762866,4.2059282 L2.10608419,4.99219965 C1.93759745,5.21060839 1.97503895,5.52262087 2.19344769,5.69110761 L3.33229325,6.57098281 L14.9797192,15.575663 L20.549142,19.8814353 C20.7675507,20.049922 21.0795632,20.0124805 21.2511701,19.7940718 L21.8627146,19.0046802 C22.0343214,18.7893916 21.9937598,18.474259 21.7753511,18.3057723 Z M2.99843989,16.49922 C2.99843989,17.3229329 3.6661466,17.9906397 4.48985956,17.9906397 L13.4882995,17.9906397 C13.8377535,17.9906397 14.1560063,17.8658347 14.4118565,17.6630265 L2.99843989,8.83931356 L2.99843989,16.49922 Z" id="path-1"></path>
    </defs>
    <g id="video-slash" stroke="none" stroke-width="1" fill="none" fill-rule="evenodd">
        <mask id="mask-2" fill="white">
            <use xlink:href="#path-1"></use>
        </mask>
        <g fill-rule="nonzero"></g>
        <g id="🎨-color" mask="url(#mask-2)" fill="#000000">
            <rect id="🎨-Color" x="0" y="0" width="24" height="24"></rect>
        </g>
    </g>
</svg>