<?xml version="1.0" encoding="UTF-8"?>
<svg width="24px" height="24px" viewBox="0 0 24 24" version="1.1" xmlns="http://www.w3.org/2000/svg" xmlns:xlink="http://www.w3.org/1999/xlink">
    <!-- Generator: Sketch 52.5 (67469) - http://www.bohemiancoding.com/sketch -->
    <title>vihara</title>
    <desc>Created with Sketch.</desc>
    <defs>
        <path d="M21.7778472,16.5151326 L19.0046802,14.9953198 L19.0046802,12.9984399 L20.7257411,12.4464899 C21.0936038,12.2624025 21.0936038,11.7375975 20.7257411,11.5535101 L17.0078003,10.0031201 L17.0078003,8.00624023 L17.8599064,7.49765988 C18.1007801,7.25678625 18.0349454,6.850546 17.7301092,6.6982839 L12.0156006,4.01248046 L6.30109202,6.69797189 C5.99625582,6.85023398 5.93042119,7.25647424 6.17129482,7.49734787 L7.02340091,8.00624023 L7.02340091,10.0031201 L3.30546017,11.5535101 C2.93759746,11.7375975 2.93759746,12.2624025 3.30546017,12.4464899 L5.02652103,12.9984399 L5.02652103,14.9953198 L2.25335409,16.5151326 C2.08424332,16.6280811 2.01310447,16.8156006 2.03494535,16.9921997 C2.05429012,17.148518 2.1463338,17.2964119 2.30702023,17.3769111 L4.02808108,17.9906397 L4.02808108,19.4882996 C4.02808108,19.7641186 4.25148202,19.9875195 4.52730105,19.9875195 L5.525741,19.9875195 C5.80156003,19.9875195 6.02496097,19.7641186 6.02496097,19.4882996 L6.02496097,17.9906397 L11.0171607,17.9906397 L11.0171607,19.4882996 C11.0171607,19.7641186 11.2405616,19.9875195 11.5163807,19.9875195 L12.5148206,19.9875195 C12.7906396,19.9875195 13.0140406,19.7641186 13.0140406,19.4882996 L13.0140406,17.9906397 L18.0062403,17.9906397 L18.0062403,19.4882996 C18.0062403,19.7641186 18.2296412,19.9875195 18.5054603,19.9875195 L19.5039002,19.9875195 C19.7797192,19.9875195 20.0031202,19.7641186 20.0031202,19.4882996 L20.0031202,17.9906397 L21.723869,17.3769111 C21.8848674,17.2964119 21.9765991,17.148518 21.9959439,16.9921997 C22.0180968,16.8152886 21.9469579,16.6277691 21.7778472,16.5151326 Z M9.0202808,8.00624023 L15.0109205,8.00624023 L15.0109205,10.0031201 L9.0202808,10.0031201 L9.0202808,8.00624023 Z M7.02340091,14.9953198 L7.02340091,12.9984399 L17.0078003,12.9984399 L17.0078003,14.9953198 L7.02340091,14.9953198 Z" id="path-1"></path>
    </defs>
    <g id="vihara" stroke="none" stroke-width="1" fill="none" fill-rule="evenodd">
        <mask id="mask-2" fill="white">
            <use xlink:href="#path-1"></use>
        </mask>
        <g fill-rule="nonzero"></g>
        <g id="🎨-color" mask="url(#mask-2)" fill="#000000">
            <rect id="🎨-Color" x="0" y="0" width="24" height="24"></rect>
        </g>
    </g>
</svg>