<?xml version="1.0" encoding="UTF-8"?>
<svg width="24px" height="24px" viewBox="0 0 24 24" version="1.1" xmlns="http://www.w3.org/2000/svg" xmlns:xlink="http://www.w3.org/1999/xlink">
    <!-- Generator: Sketch 52.5 (67469) - http://www.bohemiancoding.com/sketch -->
    <title>vimeo-v</title>
    <desc>Created with Sketch.</desc>
    <defs>
        <path d="M20.7226563,7.99999998 C20.6445313,9.70312499 19.4570313,12.0351563 17.1523438,14.9960938 C14.7734375,18.0898438 12.7617188,19.6367188 11.1132812,19.6367188 C10.09375,19.6367188 9.23046874,18.6953125 8.52343748,16.8125 C7.14843748,11.765625 6.56249997,8.80859373 5.42578122,8.80859373 C5.29296872,8.80859373 4.83593746,9.08593749 4.05078121,9.63281249 L3.23046871,8.57031248 C5.24609372,6.80078122 7.17187498,4.83203121 8.37890623,4.72265621 C9.74218749,4.58984371 10.578125,5.52343747 10.8945312,7.51562498 C12.015625,14.6054688 12.5117188,15.6757813 14.5507813,12.4648438 C15.28125,11.3085937 15.6757813,10.4296875 15.7304688,9.82421874 C15.9179688,8.03124998 14.3320313,8.15234373 13.2578125,8.61328123 C14.1171875,5.79687497 15.7617188,4.42968746 18.1875,4.50781246 C19.9765625,4.55468746 20.8242188,5.72265622 20.7226563,7.99999998 Z" id="path-1"></path>
    </defs>
    <g id="vimeo-v" stroke="none" stroke-width="1" fill="none" fill-rule="evenodd">
        <mask id="mask-2" fill="white">
            <use xlink:href="#path-1"></use>
        </mask>
        <g></g>
        <g id="🎨-color" mask="url(#mask-2)" fill="#000000">
            <rect id="🎨-Color" x="0" y="0" width="24" height="24"></rect>
        </g>
    </g>
</svg>