<?xml version="1.0" encoding="UTF-8"?>
<svg width="24px" height="24px" viewBox="0 0 24 24" version="1.1" xmlns="http://www.w3.org/2000/svg" xmlns:xlink="http://www.w3.org/1999/xlink">
    <!-- Generator: Sketch 52.5 (67469) - http://www.bohemiancoding.com/sketch -->
    <title>vimeo-square</title>
    <desc>Created with Sketch.</desc>
    <defs>
        <path d="M18.875,3.24999996 L5.12499997,3.24999996 C4.08984371,3.24999996 3.24999996,4.08984371 3.24999996,5.12499997 L3.24999996,18.875 C3.24999996,19.9101563 4.08984371,20.75 5.12499997,20.75 L18.875,20.75 C19.9101563,20.75 20.75,19.9101563 20.75,18.875 L20.75,5.12499997 C20.75,4.08984371 19.9101563,3.24999996 18.875,3.24999996 Z M18.2421875,9.09374999 C18.1875,10.3085937 17.3359375,11.9765625 15.6914063,14.0898438 C13.9921875,16.296875 12.5546875,17.4023438 11.3789062,17.4023438 C10.6484375,17.4023438 10.0351562,16.7304688 9.53124999,15.3867188 C8.54687498,11.78125 8.12890623,9.66796874 7.31640623,9.66796874 C7.22265623,9.66796874 6.89453122,9.86328124 6.33593747,10.2578125 L5.74999997,9.49999999 C7.19140623,8.23437498 8.56640623,6.82812497 9.42578124,6.74999997 C10.3984375,6.65624997 10.9960937,7.32031248 11.2226562,8.74609373 C12.0234375,13.8085938 12.3789063,14.5742188 13.8320313,12.28125 C14.3554688,11.453125 14.6367188,10.828125 14.671875,10.3945312 C14.8046875,9.11328124 13.671875,9.19921874 12.90625,9.52734374 C13.5195313,7.51562498 14.6953125,6.53906247 16.4257813,6.59374997 C17.7109375,6.63281247 18.3164063,7.46874998 18.2421875,9.09374999 Z" id="path-1"></path>
    </defs>
    <g id="vimeo-square" stroke="none" stroke-width="1" fill="none" fill-rule="evenodd">
        <mask id="mask-2" fill="white">
            <use xlink:href="#path-1"></use>
        </mask>
        <g fill-rule="nonzero"></g>
        <g id="🎨-color" mask="url(#mask-2)" fill="#000000">
            <rect id="🎨-Color" x="0" y="0" width="24" height="24"></rect>
        </g>
    </g>
</svg>