<?xml version="1.0" encoding="UTF-8"?>
<svg width="24px" height="24px" viewBox="0 0 24 24" version="1.1" xmlns="http://www.w3.org/2000/svg" xmlns:xlink="http://www.w3.org/1999/xlink">
    <!-- Generator: Sketch 52.5 (67469) - http://www.bohemiancoding.com/sketch -->
    <title>vimeo</title>
    <desc>Created with Sketch.</desc>
    <defs>
        <path d="M19,3.24999996 L4.99999996,3.24999996 C4.03515621,3.24999996 3.24999996,4.03515621 3.24999996,4.99999996 L3.24999996,19 C3.24999996,19.9648438 4.03515621,20.75 4.99999996,20.75 L19,20.75 C19.9648438,20.75 20.75,19.9648438 20.75,19 L20.75,4.99999996 C20.75,4.03515621 19.9648438,3.24999996 19,3.24999996 Z M17.9765625,9.06249999 C17.921875,10.2929687 17.0625,11.9804687 15.3984375,14.1171875 C13.6796875,16.3515625 12.2226563,17.46875 11.0351562,17.46875 C10.296875,17.46875 9.67578124,16.7890625 9.16406249,15.4257813 C8.16796873,11.78125 7.74218748,9.64453124 6.92187497,9.64453124 C6.82812497,9.64453124 6.49609372,9.84374999 5.92968747,10.2382812 L5.33593747,9.47265624 C6.79296872,8.19140623 8.18359373,6.76953122 9.05468749,6.69140622 C10.0390625,6.59765622 10.6445312,7.26953123 10.8710937,8.71093748 C11.6796875,13.8359375 12.0390625,14.609375 13.5117188,12.2890625 C14.0390625,11.453125 14.3242188,10.8164062 14.3632813,10.3789062 C14.5,9.08203124 13.3515625,9.17187499 12.5742188,9.50390624 C13.1953125,7.46874998 14.3828125,6.48046872 16.1367188,6.53515622 C17.4375,6.57031247 18.0507813,7.41406248 17.9765625,9.06249999 Z" id="path-1"></path>
    </defs>
    <g id="vimeo" stroke="none" stroke-width="1" fill="none" fill-rule="evenodd">
        <mask id="mask-2" fill="white">
            <use xlink:href="#path-1"></use>
        </mask>
        <g fill-rule="nonzero"></g>
        <g id="🎨-color" mask="url(#mask-2)" fill="#000000">
            <rect id="🎨-Color" x="0" y="0" width="24" height="24"></rect>
        </g>
    </g>
</svg>