<?xml version="1.0" encoding="UTF-8"?>
<svg width="24px" height="24px" viewBox="0 0 24 24" version="1.1" xmlns="http://www.w3.org/2000/svg" xmlns:xlink="http://www.w3.org/1999/xlink">
    <!-- Generator: Sketch 52.5 (67469) - http://www.bohemiancoding.com/sketch -->
    <title>vine</title>
    <desc>Created with Sketch.</desc>
    <defs>
        <path d="M19.5,11.9492187 L19.5,13.984375 C18.78125,14.1484375 18.0585938,14.2226563 17.4648438,14.2226563 C16.0234375,17.2460938 13.4414063,19.8398438 12.578125,20.3242188 C12.03125,20.6328125 11.5195312,20.6523438 10.9101562,20.2929688 C9.85156249,19.65625 5.83593747,16.3632813 4.49999996,6.01171872 L7.41015623,6.01171872 C8.14062498,12.2265625 9.92968749,15.4140625 11.8945312,17.8007813 C12.984375,16.7109375 14.0351563,15.2578125 14.8476563,13.625 C12.9023438,12.6367188 11.71875,10.4648437 11.71875,7.93749998 C11.71875,5.37499997 13.1914063,3.44140621 15.7109375,3.44140621 C20.1992188,3.44140621 19.859375,8.43749998 18.8984375,10.53125 C18.8984375,10.53125 17.0859375,10.890625 16.4179688,9.73046874 C16.5507813,9.28906249 16.7382813,8.52734373 16.7382813,7.83593748 C16.7382813,6.61328122 16.296875,6.01562497 15.6289063,6.01562497 C14.9179688,6.01562497 14.4257813,6.68359372 14.4257813,7.96874998 C14.4296875,11.0625 16.7460938,12.6054688 19.5,11.9492187 Z" id="path-1"></path>
    </defs>
    <g id="vine" stroke="none" stroke-width="1" fill="none" fill-rule="evenodd">
        <mask id="mask-2" fill="white">
            <use xlink:href="#path-1"></use>
        </mask>
        <g></g>
        <g id="🎨-color" mask="url(#mask-2)" fill="#000000">
            <rect id="🎨-Color" x="0" y="0" width="24" height="24"></rect>
        </g>
    </g>
</svg>