<?xml version="1.0" encoding="UTF-8"?>
<svg width="24px" height="24px" viewBox="0 0 24 24" version="1.1" xmlns="http://www.w3.org/2000/svg" xmlns:xlink="http://www.w3.org/1999/xlink">
    <!-- Generator: Sketch 52.5 (67469) - http://www.bohemiancoding.com/sketch -->
    <title>vk</title>
    <desc>Created with Sketch.</desc>
    <defs>
        <path d="M20.9236112,7.19791664 C21.0520834,6.76388886 20.9236112,6.44444442 20.3055556,6.44444442 L18.2604167,6.44444442 C17.7395834,6.44444442 17.5,6.71874997 17.3715278,7.02430553 C17.3715278,7.02430553 16.3298611,9.56249999 14.8576389,11.2083333 C14.3819445,11.6840278 14.1631945,11.8368056 13.9027778,11.8368056 C13.7743056,11.8368056 13.5763889,11.6840278 13.5763889,11.25 L13.5763889,7.19791664 C13.5763889,6.67708331 13.4305556,6.44444442 13,6.44444442 L9.78472221,6.44444442 C9.45833332,6.44444442 9.26388888,6.68749997 9.26388888,6.91319442 C9.26388888,7.40624998 9.99999999,7.52083331 10.0763889,8.90972221 L10.0763889,11.9236111 C10.0763889,12.5833333 9.95833332,12.7048611 9.69791666,12.7048611 C9.00347221,12.7048611 7.3159722,10.15625 6.31597219,7.23958331 C6.1145833,6.67361108 5.91666664,6.44444442 5.39236108,6.44444442 L3.34722218,6.44444442 C2.76388884,6.44444442 2.64583329,6.71874997 2.64583329,7.02430553 C2.64583329,7.5659722 3.34027773,10.2569444 5.87847219,13.8125 C7.56944442,16.2395834 9.95138888,17.5555556 12.1180556,17.5555556 C13.4201389,17.5555556 13.5798611,17.2638889 13.5798611,16.7604167 C13.5798611,14.4409722 13.4618056,14.2222222 14.1145833,14.2222222 C14.4166667,14.2222222 14.9375,14.375 16.1527778,15.5451389 C17.5416667,16.9340278 17.7708334,17.5555556 18.5486111,17.5555556 L20.59375,17.5555556 C21.1770834,17.5555556 21.4722223,17.2638889 21.3020834,16.6875 C20.9131945,15.4756945 18.2847223,12.9826389 18.1666667,12.8159722 C17.8645834,12.4270833 17.9513889,12.2534722 18.1666667,11.90625 C18.1701389,11.9027778 20.6666667,8.38888887 20.9236112,7.19791664 Z" id="path-1"></path>
    </defs>
    <g id="vk" stroke="none" stroke-width="1" fill="none" fill-rule="evenodd">
        <mask id="mask-2" fill="white">
            <use xlink:href="#path-1"></use>
        </mask>
        <g></g>
        <g id="🎨-color" mask="url(#mask-2)" fill="#000000">
            <rect id="🎨-Color" x="0" y="0" width="24" height="24"></rect>
        </g>
    </g>
</svg>