<?xml version="1.0" encoding="UTF-8"?>
<svg width="24px" height="24px" viewBox="0 0 24 24" version="1.1" xmlns="http://www.w3.org/2000/svg" xmlns:xlink="http://www.w3.org/1999/xlink">
    <!-- Generator: Sketch 52.5 (67469) - http://www.bohemiancoding.com/sketch -->
    <title>vnv</title>
    <desc>Created with Sketch.</desc>
    <defs>
        <path d="M5.27812497,15 C4.21249996,15 3.82812496,14.05 3.82812496,14.05 L2.08124995,10.565625 C2.08124995,10.565625 1.75624995,9.99999999 2.40624995,9.99999999 L3.43124996,9.99999999 C3.75624996,9.99999999 3.84374996,10.271875 4.01874996,10.565625 L5.16562497,12.89375 C5.16562497,12.89375 5.32812497,13.303125 5.82499997,13.303125 C6.32187497,13.303125 6.48437497,12.89375 6.48437497,12.89375 L7.63124998,10.565625 C7.80624998,10.26875 7.89374998,9.99999999 8.21874998,9.99999999 L9.24374999,9.99999999 C9.89374999,9.99999999 9.56874999,10.565625 9.56874999,10.565625 L7.82499998,14.05 C7.82499998,14.05 7.44374998,15 6.37499997,15 L5.27812497,15 Z M17.621875,15 C16.55625,15 16.171875,14.05 16.171875,14.05 L14.425,10.565625 C14.425,10.565625 14.1,9.99999999 14.75,9.99999999 L15.775,9.99999999 C16.1,9.99999999 16.1875,10.271875 16.3625,10.565625 L17.509375,12.89375 C17.509375,12.89375 17.671875,13.303125 18.16875,13.303125 C18.665625,13.303125 18.828125,12.89375 18.828125,12.89375 L19.978125,10.565625 C20.153125,10.26875 20.240625,9.99999999 20.565625,9.99999999 L21.59375,9.99999999 C22.2437501,9.99999999 21.91875,10.565625 21.91875,10.565625 L20.171875,14.05 C20.171875,14.05 19.790625,15 18.721875,15 L17.621875,15 Z M12.55,9.99999999 C13.615625,9.99999999 14,10.95 14,10.95 L15.746875,14.434375 C15.746875,14.434375 16.071875,15 15.421875,15 L14.396875,15 C14.071875,15 13.984375,14.728125 13.809375,14.434375 L12.6625,12.10625 C12.6625,12.10625 12.5,11.696875 12.003125,11.696875 C11.50625,11.696875 11.34375,12.10625 11.34375,12.10625 L10.196875,14.434375 C10.021875,14.728125 9.93437499,15 9.60937499,15 L8.58124998,15 C7.93124998,15 8.25624998,14.434375 8.25624998,14.434375 L10.003125,10.95 C10.003125,10.95 10.384375,9.99999999 11.453125,9.99999999 L12.55,9.99999999 Z" id="path-1"></path>
    </defs>
    <g id="vnv" stroke="none" stroke-width="1" fill="none" fill-rule="evenodd">
        <mask id="mask-2" fill="white">
            <use xlink:href="#path-1"></use>
        </mask>
        <g fill-rule="nonzero"></g>
        <g id="🎨-color" mask="url(#mask-2)" fill="#000000">
            <rect id="🎨-Color" x="0" y="0" width="24" height="24"></rect>
        </g>
    </g>
</svg>