<?xml version="1.0" encoding="UTF-8"?>
<svg width="24px" height="24px" viewBox="0 0 24 24" version="1.1" xmlns="http://www.w3.org/2000/svg" xmlns:xlink="http://www.w3.org/1999/xlink">
    <!-- Generator: Sketch 52.5 (67469) - http://www.bohemiancoding.com/sketch -->
    <title>volleyball-ball</title>
    <desc>Created with Sketch.</desc>
    <defs>
        <path d="M11.0546875,11.5078125 C11.0195312,10.0625 10.71875,8.66406248 10.1679687,7.37890623 C6.62109372,9.03515624 4.01562496,12.1601563 3.12499996,15.8476563 C3.64843746,17.0507813 4.41015621,18.125 5.34765622,19.015625 C6.23437497,15.921875 8.24609373,13.2421875 11.0546875,11.5078125 Z M9.61328124,6.25781247 C9.02734374,5.22656247 8.26562498,4.30078121 7.37109373,3.49609371 C3.81640621,5.44140622 1.7148437,9.46874999 2.4882812,13.7382813 C3.79296871,10.4921875 6.33203122,7.80078123 9.61328124,6.25781247 Z M16.9414063,12.7070313 C17.2773438,8.80859373 15.875,4.99218746 13.1328125,2.3789062 C12.5585938,2.31249995 11.1171875,2.16406245 9.26953124,2.71093745 C11.5078125,5.02734372 12.8242188,8.10937498 12.921875,11.4101562 C14.1914063,12.1015625 15.5507813,12.5429688 16.9414063,12.7070313 Z M12.0703125,13.078125 C10.8359375,13.8320313 9.77734374,14.7929688 8.93749998,15.9140625 C12.140625,18.1523438 16.1445313,18.8476563 19.7773438,17.78125 C20.546875,16.75 21.1132813,15.5625 21.4257813,14.2695313 C20.3867188,14.5273438 19.328125,14.6757813 18.265625,14.6757813 C16.1328125,14.671875 14.0117188,14.125 12.0703125,13.078125 Z M8.23046873,16.9726563 C7.63671873,17.9882813 7.22656248,19.0976563 6.97656247,20.2617188 C8.44531248,21.1601563 10.1679687,21.6875 12.0195313,21.6875 C14.4023438,21.6875 16.578125,20.8242188 18.265625,19.3984375 C13.8554688,20.0273438 10.3242187,18.4296875 8.23046873,16.9726563 Z M15.2734375,2.8867187 C17.4335938,5.63671872 18.4960938,9.18359374 18.1875,12.7929688 C19.3710938,12.8007813 20.5507813,12.6054688 21.6914063,12.2382813 C21.6914063,12.1601563 21.703125,12.0820313 21.703125,12.0039063 C21.703125,7.79296873 19.0195313,4.22656246 15.2734375,2.8867187 Z" id="path-1"></path>
    </defs>
    <g id="volleyball-ball" stroke="none" stroke-width="1" fill="none" fill-rule="evenodd">
        <mask id="mask-2" fill="white">
            <use xlink:href="#path-1"></use>
        </mask>
        <g fill-rule="nonzero"></g>
        <g id="🎨-color" mask="url(#mask-2)" fill="#000000">
            <rect id="🎨-Color" x="0" y="0" width="24" height="24"></rect>
        </g>
    </g>
</svg>