<?xml version="1.0" encoding="UTF-8"?>
<svg width="24px" height="24px" viewBox="0 0 24 24" version="1.1" xmlns="http://www.w3.org/2000/svg" xmlns:xlink="http://www.w3.org/1999/xlink">
    <!-- Generator: Sketch 52.5 (67469) - http://www.bohemiancoding.com/sketch -->
    <title>volume-mute</title>
    <desc>Created with Sketch.</desc>
    <defs>
        <path d="M10.3832359,4.78947365 L6.91461986,8.25730992 L2.93567247,8.25730992 C2.4187134,8.25730992 1.99999995,8.67602338 1.99999995,9.19298244 L1.99999995,14.8070176 C1.99999995,15.3235868 2.4187134,15.7426901 2.93567247,15.7426901 L6.91461986,15.7426901 L10.3832359,19.2105264 C10.9692008,19.7964913 11.9805068,19.3847954 11.9805068,18.5489279 L11.9805068,5.45107209 C11.9805068,4.61442491 10.968421,4.20428846 10.3832359,4.78947365 Z M19.9976609,12 L21.7769981,10.2206628 C22.0226121,9.97504872 22.0226121,9.57660818 21.7769981,9.33099414 L20.8873295,8.44132552 C20.6417154,8.19571148 20.2432749,8.19571148 19.9976609,8.44132552 L18.2183236,10.2206628 L16.4389864,8.44132552 C16.1933723,8.19571148 15.7949318,8.19571148 15.5493178,8.44132552 L14.6596491,9.33099414 C14.4140351,9.57660818 14.4140351,9.97504872 14.6596491,10.2206628 L16.4389864,12 L14.660039,13.7789474 C14.414425,14.0245614 14.414425,14.423002 14.660039,14.668616 L15.5497076,15.5582846 C15.7953217,15.8038987 16.1937622,15.8038987 16.4393762,15.5582846 L18.2183236,13.7793372 L19.9976609,15.5586745 C20.2432749,15.8042885 20.6417154,15.8042885 20.8873295,15.5586745 L21.7769981,14.6690059 C22.0226121,14.4233918 22.0226121,14.0249513 21.7769981,13.7793372 L19.9976609,12 Z" id="path-1"></path>
    </defs>
    <g id="volume-mute" stroke="none" stroke-width="1" fill="none" fill-rule="evenodd">
        <mask id="mask-2" fill="white">
            <use xlink:href="#path-1"></use>
        </mask>
        <g fill-rule="nonzero"></g>
        <g id="🎨-color" mask="url(#mask-2)" fill="#000000">
            <rect id="🎨-Color" x="0" y="0" width="24" height="24"></rect>
        </g>
    </g>
</svg>