<?xml version="1.0" encoding="UTF-8"?>
<svg width="24px" height="24px" viewBox="0 0 24 24" version="1.1" xmlns="http://www.w3.org/2000/svg" xmlns:xlink="http://www.w3.org/1999/xlink">
    <!-- Generator: Sketch 52.5 (67469) - http://www.bohemiancoding.com/sketch -->
    <title>volume-up</title>
    <desc>Created with Sketch.</desc>
    <defs>
        <path d="M9.46631943,5.57812497 L6.37708331,8.66666665 L2.83333329,8.66666665 C2.37291662,8.66666665 1.99999995,9.03958332 1.99999995,9.49999999 L1.99999995,14.5 C1.99999995,14.9600695 2.37291662,15.3333333 2.83333329,15.3333333 L6.37708331,15.3333333 L9.46631943,18.421875 C9.98819443,18.94375 10.8888889,18.5770834 10.8888889,17.8326389 L10.8888889,6.16736108 C10.8888889,5.42222219 9.98749999,5.05694441 9.46631943,5.57812497 Z M17.5677084,3.80451385 C17.1798611,3.54999996 16.6586806,3.65729162 16.4041667,4.04583329 C16.1493056,4.43368052 16.2576389,4.95486108 16.6454861,5.20937497 C18.9465278,6.71944442 20.3197917,9.2579861 20.3197917,12.0003472 C20.3197917,14.7427083 18.9465278,17.28125 16.6454861,18.7913195 C16.2576389,19.0454861 16.1493056,19.5670139 16.4041667,19.9545139 C16.6486111,20.3263889 17.165625,20.4600695 17.5677084,20.1958334 C20.3427084,18.3743056 22.0000001,15.3100695 22.0000001,12 C22.0000001,8.68993054 20.3427084,5.62604163 17.5677084,3.80451385 Z M18.6666667,12 C18.6666667,9.79409721 17.5534722,7.7659722 15.6885417,6.57499997 C15.3,6.3270833 14.7847222,6.44236108 14.5385417,6.83402775 C14.2923611,7.22569442 14.4072917,7.7440972 14.7958333,7.99236109 C16.1760417,8.87395832 17,10.371875 17,12 C17,13.628125 16.1760417,15.1260417 14.7958333,16.0076389 C14.4072917,16.2555556 14.2923611,16.7739584 14.5385417,17.1659722 C14.7645833,17.5256945 15.271875,17.6916667 15.6885417,17.425 C17.5534722,16.2340278 18.6666667,14.20625 18.6666667,12 Z M13.7440972,9.33090276 C13.3420139,9.1111111 12.8347222,9.25590276 12.6118056,9.65902777 C12.3899306,10.0621528 12.5368056,10.56875 12.9399306,10.7913194 C13.3881945,11.0375 13.6666667,11.5010417 13.6666667,12 C13.6666667,12.4993056 13.3881945,12.9625 12.9402778,13.2086806 C12.5371528,13.43125 12.3902778,13.9378472 12.6121528,14.3409722 C12.8354167,14.7458333 13.3430556,14.8895833 13.7444445,14.6690972 C14.7246528,14.1291667 15.3336806,13.1065972 15.3336806,11.9996528 C15.3336806,10.8927083 14.7246528,9.8704861 13.7440972,9.33090276 Z" id="path-1"></path>
    </defs>
    <g id="volume-up" stroke="none" stroke-width="1" fill="none" fill-rule="evenodd">
        <mask id="mask-2" fill="white">
            <use xlink:href="#path-1"></use>
        </mask>
        <g fill-rule="nonzero"></g>
        <g id="🎨-color" mask="url(#mask-2)" fill="#000000">
            <rect id="🎨-Color" x="0" y="0" width="24" height="24"></rect>
        </g>
    </g>
</svg>