<?xml version="1.0" encoding="UTF-8"?>
<svg width="24px" height="24px" viewBox="0 0 24 24" version="1.1" xmlns="http://www.w3.org/2000/svg" xmlns:xlink="http://www.w3.org/1999/xlink">
    <!-- Generator: Sketch 52.5 (67469) - http://www.bohemiancoding.com/sketch -->
    <title>volume-down</title>
    <desc>Created with Sketch.</desc>
    <defs>
        <path d="M12.8800781,4.81406246 L9.40468749,8.28906248 L5.41796872,8.28906248 C4.89999996,8.28906248 4.48046871,8.70859373 4.48046871,9.22656249 L4.48046871,14.8515625 C4.48046871,15.3691406 4.89999996,15.7890625 5.41796872,15.7890625 L9.40468749,15.7890625 L12.8800781,19.2636719 C13.4671875,19.8507813 14.4804688,19.4382813 14.4804688,18.6007813 L14.4804688,5.47734372 C14.4804688,4.63867184 13.4664063,4.22812496 12.8800781,4.81406246 Z M17.6925782,9.03593749 C17.2402344,8.78867186 16.6695313,8.95156248 16.41875,9.40507811 C16.1691406,9.85859374 16.334375,10.4285156 16.7878906,10.6789062 C17.2921875,10.95625 17.6054688,11.4773437 17.6054688,12.0390625 C17.6054688,12.6007813 17.2921875,13.121875 16.7882813,13.3988281 C16.3347656,13.6492188 16.1695313,14.2191406 16.4191406,14.6726563 C16.6703125,15.128125 17.2414063,15.2898438 17.6929688,15.0417969 C18.7957032,14.434375 19.4808594,13.2839844 19.4808594,12.0386719 C19.4808594,10.7933594 18.7957032,9.64335936 17.6925782,9.03593749 Z" id="path-1"></path>
    </defs>
    <g id="volume-down" stroke="none" stroke-width="1" fill="none" fill-rule="evenodd">
        <mask id="mask-2" fill="white">
            <use xlink:href="#path-1"></use>
        </mask>
        <g fill-rule="nonzero"></g>
        <g id="🎨-color" mask="url(#mask-2)" fill="#000000">
            <rect id="🎨-Color" x="0" y="0" width="24" height="24"></rect>
        </g>
    </g>
</svg>