<?xml version="1.0" encoding="UTF-8"?>
<svg width="24px" height="24px" viewBox="0 0 24 24" version="1.1" xmlns="http://www.w3.org/2000/svg" xmlns:xlink="http://www.w3.org/1999/xlink">
    <!-- Generator: Sketch 52.5 (67469) - http://www.bohemiancoding.com/sketch -->
    <title>vote-yea</title>
    <desc>Created with Sketch.</desc>
    <defs>
        <path d="M21,14 L19,14 L19,16 L19.7,16 C19.865625,16 20,16.1125 20,16.25 L20,16.75 C20,16.8875 19.865625,17 19.7,17 L4.29999996,17 C4.13437496,17 3.99999996,16.8875 3.99999996,16.75 L3.99999996,16.25 C3.99999996,16.1125 4.13437496,16 4.29999996,16 L4.99999996,16 L4.99999996,14 L2.99999995,14 C2.44687495,14 1.99999995,14.446875 1.99999995,15 L1.99999995,18 C1.99999995,18.553125 2.44687495,19 2.99999995,19 L21,19 C21.553125,19 22.0000001,18.553125 22.0000001,18 L22.0000001,15 C22.0000001,14.446875 21.553125,14 21,14 Z M18,16 L18,6.00937497 C18,5.44999997 17.546875,4.99999997 16.990625,4.99999997 L7.01249998,4.99999997 C6.45312497,4.99999997 5.99999997,5.45312497 5.99999997,6.00937497 L5.99999997,16 L18,16 Z M8.59999998,10.3125 L9.39687499,9.52187499 C9.52812499,9.39062499 9.74062499,9.39062499 9.87187499,9.52499999 L11.1625,10.825 L14.1375,7.87499998 C14.26875,7.74374998 14.48125,7.74374998 14.6125,7.87812498 L15.403125,8.67499998 C15.534375,8.80624998 15.534375,9.01874999 15.4,9.14999999 L11.390625,13.125 C11.259375,13.25625 11.046875,13.25625 10.915625,13.121875 L8.59999998,10.7875 C8.46562498,10.65625 8.46874998,10.44375 8.59999998,10.3125 Z" id="path-1"></path>
    </defs>
    <g id="vote-yea" stroke="none" stroke-width="1" fill="none" fill-rule="evenodd">
        <mask id="mask-2" fill="white">
            <use xlink:href="#path-1"></use>
        </mask>
        <g fill-rule="nonzero"></g>
        <g id="🎨-color" mask="url(#mask-2)" fill="#000000">
            <rect id="🎨-Color" x="0" y="0" width="24" height="24"></rect>
        </g>
    </g>
</svg>