<?xml version="1.0" encoding="UTF-8"?>
<svg width="24px" height="24px" viewBox="0 0 24 24" version="1.1" xmlns="http://www.w3.org/2000/svg" xmlns:xlink="http://www.w3.org/1999/xlink">
    <!-- Generator: Sketch 52.5 (67469) - http://www.bohemiancoding.com/sketch -->
    <title>vr-cardboard</title>
    <desc>Created with Sketch.</desc>
    <defs>
        <path d="M21,5.99999997 L2.99999995,5.99999997 C2.44781245,5.99999997 1.99999995,6.44781247 1.99999995,6.99999998 L1.99999995,17 C1.99999995,17.5521875 2.44781245,18 2.99999995,18 L8.00687498,18 C8.79406248,18 9.50781249,17.5384375 9.83062499,16.820625 L10.6975,14.894375 C10.9440625,14.34625 11.4484375,14 12,14 C12.5515625,14 13.0559375,14.34625 13.3025,14.894375 L14.169375,16.820625 C14.4921875,17.5384375 15.20625,18 15.993125,18 L21,18 C21.5521875,18 22.0000001,17.5521875 22.0000001,17 L22.0000001,6.99999998 C22.0000001,6.44781247 21.5521875,5.99999997 21,5.99999997 Z M6.99999997,13.5 C5.89531247,13.5 4.99999996,12.6046875 4.99999996,11.5 C4.99999996,10.3953125 5.89531247,9.49999999 6.99999997,9.49999999 C8.10468748,9.49999999 8.99999998,10.3953125 8.99999998,11.5 C8.99999998,12.6046875 8.10468748,13.5 6.99999997,13.5 Z M17,13.5 C15.8953125,13.5 15,12.6046875 15,11.5 C15,10.3953125 15.8953125,9.49999999 17,9.49999999 C18.1046875,9.49999999 19,10.3953125 19,11.5 C19,12.6046875 18.1046875,13.5 17,13.5 Z" id="path-1"></path>
    </defs>
    <g id="vr-cardboard" stroke="none" stroke-width="1" fill="none" fill-rule="evenodd">
        <mask id="mask-2" fill="white">
            <use xlink:href="#path-1"></use>
        </mask>
        <g fill-rule="nonzero"></g>
        <g id="🎨-color" mask="url(#mask-2)" fill="#000000">
            <rect id="🎨-Color" x="0" y="0" width="24" height="24"></rect>
        </g>
    </g>
</svg>