<?xml version="1.0" encoding="UTF-8"?>
<svg width="24px" height="24px" viewBox="0 0 24 24" version="1.1" xmlns="http://www.w3.org/2000/svg" xmlns:xlink="http://www.w3.org/1999/xlink">
    <!-- Generator: Sketch 52.5 (67469) - http://www.bohemiancoding.com/sketch -->
    <title>walking</title>
    <desc>Created with Sketch.</desc>
    <defs>
        <path d="M13.8518519,5.74269003 C14.8849903,5.74269003 15.7231969,4.9044834 15.7231969,3.87134499 C15.7231969,2.83820658 14.8849903,1.99999995 13.8518519,1.99999995 C12.8187135,1.99999995 11.9805068,2.83820658 11.9805068,3.87134499 C11.9805068,4.9044834 12.8187135,5.74269003 13.8518519,5.74269003 Z M17.5360624,11.5555556 L16.6276803,11.0955166 L16.2495127,9.94931773 C15.6764133,8.2105263 14.0779727,6.99415202 12.2651072,6.99025339 C10.8615984,6.98635475 10.08577,7.38401557 8.6276803,7.97270953 C7.78557503,8.31189082 7.09551654,8.95516568 6.69005845,9.77387913 L6.42884987,10.3040936 C6.12475631,10.920078 6.37037034,11.668616 6.98245612,11.9766082 C7.59064325,12.2846004 8.331384,12.0350877 8.6393762,11.4191033 L8.90058478,10.8888889 C9.03703702,10.6159844 9.26315788,10.4015594 9.54385964,10.288499 L10.588694,9.86744638 L9.99610135,12.2339181 C9.79337231,13.0448343 10.0116959,13.9064328 10.576998,14.5263158 L12.9122807,17.0760234 C13.1929825,17.3840156 13.3918129,17.754386 13.4931774,18.1559454 L14.2066277,21.0136453 C14.374269,21.6803119 15.0526316,22.0896687 15.7192983,21.9220273 C16.3859649,21.754386 16.7953217,21.0760234 16.6276803,20.4093568 L15.7621833,16.9395712 C15.6608187,16.5380117 15.4619883,16.1637427 15.1812866,15.8596491 L13.4074074,13.9220273 L14.0779727,11.2436647 L14.2923977,11.8869396 C14.4990254,12.5146199 14.9434698,13.0331384 15.5282651,13.3294347 L16.4366472,13.7894737 C17.0448343,14.0974659 17.7855751,13.8479532 18.0935673,13.2319688 C18.3937622,12.619883 18.1481482,11.8635478 17.5360624,11.5555556 Z M8.61208575,17.0409357 C8.48732942,17.3567252 8.30019491,17.6413256 8.05847951,17.8791423 L6.10916176,19.8323587 C5.62183233,20.3196882 5.62183233,21.1111112 6.10916176,21.5984406 C6.5964912,22.08577 7.38401557,22.08577 7.87134501,21.5984406 L10.1871345,19.2826511 C10.4249513,19.0448343 10.6120858,18.760234 10.7407407,18.4444445 L11.2670565,17.1267057 C9.1111111,14.7758285 9.75828459,15.497076 9.4191033,15.0331384 L8.61208575,17.0409357 Z" id="path-1"></path>
    </defs>
    <g id="walking" stroke="none" stroke-width="1" fill="none" fill-rule="evenodd">
        <mask id="mask-2" fill="white">
            <use xlink:href="#path-1"></use>
        </mask>
        <g fill-rule="nonzero"></g>
        <g id="🎨-color" mask="url(#mask-2)" fill="#000000">
            <rect id="🎨-Color" x="0" y="0" width="24" height="24"></rect>
        </g>
    </g>
</svg>