<?xml version="1.0" encoding="UTF-8"?>
<svg width="24px" height="24px" viewBox="0 0 24 24" version="1.1" xmlns="http://www.w3.org/2000/svg" xmlns:xlink="http://www.w3.org/1999/xlink">
    <!-- Generator: Sketch 52.5 (67469) - http://www.bohemiancoding.com/sketch -->
    <title>wallet</title>
    <desc>Created with Sketch.</desc>
    <defs>
        <path d="M20.015625,6.99999997 L5.12499997,6.99999997 C4.77968746,6.99999997 4.49999996,6.72031247 4.49999996,6.37499997 C4.49999996,6.02968747 4.77968746,5.74999997 5.12499997,5.74999997 L20.125,5.74999997 C20.4703125,5.74999997 20.75,5.47031247 20.75,5.12499997 C20.75,4.08945309 19.9105469,3.24999996 18.875,3.24999996 L4.49999996,3.24999996 C3.11914058,3.24999996 1.99999995,4.36914059 1.99999995,5.74999997 L1.99999995,18.25 C1.99999995,19.6308594 3.11914058,20.75 4.49999996,20.75 L20.015625,20.75 C21.1101563,20.75 22.0000001,19.9089844 22.0000001,18.875 L22.0000001,8.87499998 C22.0000001,7.8410156 21.1101563,6.99999997 20.015625,6.99999997 Z M18.25,15.125 C17.5597657,15.125 17,14.5652344 17,13.875 C17,13.1847656 17.5597657,12.625 18.25,12.625 C18.9402344,12.625 19.5,13.1847656 19.5,13.875 C19.5,14.5652344 18.9402344,15.125 18.25,15.125 Z" id="path-1"></path>
    </defs>
    <g id="wallet" stroke="none" stroke-width="1" fill="none" fill-rule="evenodd">
        <mask id="mask-2" fill="white">
            <use xlink:href="#path-1"></use>
        </mask>
        <g fill-rule="nonzero"></g>
        <g id="🎨-color" mask="url(#mask-2)" fill="#000000">
            <rect id="🎨-Color" x="0" y="0" width="24" height="24"></rect>
        </g>
    </g>
</svg>