<?xml version="1.0" encoding="UTF-8"?>
<svg width="24px" height="24px" viewBox="0 0 24 24" version="1.1" xmlns="http://www.w3.org/2000/svg" xmlns:xlink="http://www.w3.org/1999/xlink">
    <!-- Generator: Sketch 52.5 (67469) - http://www.bohemiancoding.com/sketch -->
    <title>warehouse</title>
    <desc>Created with Sketch.</desc>
    <defs>
        <path d="M17.75,15 L6.26249997,15 C6.12499997,15 6.01249997,15.1125 6.01249997,15.25 L6.00937497,16.75 C6.00937497,16.8875 6.12187497,17 6.25937497,17 L17.75,17 C17.8875,17 18,16.8875 18,16.75 L18,15.25 C18,15.1125 17.8875,15 17.75,15 Z M17.75,18 L6.25312497,18 C6.11562497,18 6.00312497,18.1125 6.00312497,18.25 L5.99999997,19.75 C5.99999997,19.8875 6.11249997,20 6.24999997,20 L17.75,20 C17.8875,20 18,19.8875 18,19.75 L18,18.25 C18,18.1125 17.8875,18 17.75,18 Z M17.75,12 L6.26874997,12 C6.13124997,12 6.01874997,12.1125 6.01874997,12.25 L6.01562497,13.75 C6.01562497,13.8875 6.12812497,14 6.26562497,14 L17.75,14 C17.8875,14 18,13.8875 18,13.75 L18,12.25 C18,12.1125 17.8875,12 17.75,12 Z M21.078125,7.65624998 L12.575,4.11562496 C12.2058758,3.96249732 11.7909992,3.96249732 11.421875,4.11562496 L2.92187495,7.65624998 C2.36562495,7.89062498 1.99999995,8.43437498 1.99999995,9.04062499 L1.99999995,19.75 C1.99999995,19.8875 2.11249995,20 2.24999995,20 L4.74999996,20 C4.88749996,20 4.99999996,19.8875 4.99999996,19.75 L4.99999996,12 C4.99999996,11.45 5.45624997,11 6.01874997,11 L17.98125,11 C18.54375,11 19,11.45 19,12 L19,19.75 C19,19.8875 19.1125,20 19.25,20 L21.75,20 C21.8875,20 22.0000001,19.8875 22.0000001,19.75 L22.0000001,9.04062499 C22.0000001,8.43437498 21.634375,7.89062498 21.078125,7.65624998 Z" id="path-1"></path>
    </defs>
    <g id="warehouse" stroke="none" stroke-width="1" fill="none" fill-rule="evenodd">
        <mask id="mask-2" fill="white">
            <use xlink:href="#path-1"></use>
        </mask>
        <g fill-rule="nonzero"></g>
        <g id="🎨-color" mask="url(#mask-2)" fill="#000000">
            <rect id="🎨-Color" x="0" y="0" width="24" height="24"></rect>
        </g>
    </g>
</svg>