<?xml version="1.0" encoding="UTF-8"?>
<svg width="24px" height="24px" viewBox="0 0 24 24" version="1.1" xmlns="http://www.w3.org/2000/svg" xmlns:xlink="http://www.w3.org/1999/xlink">
    <!-- Generator: Sketch 52.5 (67469) - http://www.bohemiancoding.com/sketch -->
    <title>water</title>
    <desc>Created with Sketch.</desc>
    <defs>
        <path d="M21.5173612,16.4409722 C20.7708334,16.3576389 20.0555556,16.0763889 19.5069445,15.6458334 C19.0173611,15.2604167 18.3194445,15.2534722 17.8333334,15.6458334 C16.5173611,16.7013889 14.1111111,16.7013889 12.7743056,15.59375 C12.3055556,15.2048611 11.6284722,15.2777778 11.1527778,15.65625 C9.83333332,16.7013889 7.4409722,16.6979167 6.11111108,15.5972222 C5.64236108,15.2083333 4.95486108,15.2881945 4.47569441,15.6666667 C3.93749996,16.0902778 3.2256944,16.3645834 2.47222217,16.4444445 C2.19791662,16.4722222 1.99999995,16.7152778 1.99999995,16.9895834 L1.99999995,18.1076389 C1.99999995,18.4236111 2.26388884,18.6909723 2.57986106,18.6631945 C3.57986107,18.5763889 4.52777774,18.2673611 5.33680552,17.7638889 C7.29861109,18.9652778 10.09375,18.9479167 12.0034722,17.7638889 C13.9652778,18.9652778 16.7604167,18.9479167 18.6701389,17.7638889 C19.4791667,18.2569445 20.4375,18.5729167 21.4166667,18.6597223 C21.7326389,18.6875 21.9965278,18.4201389 21.9965278,18.1041667 L21.9965278,17.0069445 C22.0000001,16.7291667 21.7986112,16.4722222 21.5173612,16.4409722 Z M21.5173612,11.4409722 C20.7708334,11.3576389 20.0555556,11.0763889 19.5069445,10.6458333 C19.0173611,10.2604167 18.3194445,10.2534722 17.8333334,10.6458333 C16.5173611,11.7013889 14.1111111,11.7013889 12.7743056,10.59375 C12.3055556,10.2048611 11.6284722,10.2777778 11.1527778,10.65625 C9.83333332,11.7013889 7.4409722,11.6979167 6.11111108,10.5972222 C5.64236108,10.2083333 4.95486108,10.2881944 4.47569441,10.6666667 C3.93749996,11.0902778 3.2256944,11.3645833 2.47222217,11.4444444 C2.19791662,11.4722222 1.99999995,11.7152778 1.99999995,11.9895833 L1.99999995,13.1076389 C1.99999995,13.4236111 2.26388884,13.6909722 2.57986106,13.6631945 C3.57986107,13.5763889 4.52777774,13.2673611 5.33680552,12.7638889 C7.29861109,13.9652778 10.09375,13.9479167 12.0034722,12.7638889 C13.9652778,13.9652778 16.7604167,13.9479167 18.6701389,12.7638889 C19.4791667,13.2569445 20.4375,13.5729167 21.4166667,13.6597222 C21.7326389,13.6875 21.9965278,13.4201389 21.9965278,13.1041667 L21.9965278,12.0069444 C22.0000001,11.7291667 21.7986112,11.4722222 21.5173612,11.4409722 Z M21.5173612,6.44097219 C20.7708334,6.35416664 20.0555556,6.07638886 19.5069445,5.6458333 C19.0173611,5.26041663 18.3194445,5.25347219 17.8333334,5.6458333 C16.5173611,6.70138886 14.1111111,6.70138886 12.7743056,5.59374997 C12.3055556,5.20486108 11.6284722,5.27777774 11.1527778,5.65624997 C9.83333332,6.70138886 7.4409722,6.69791664 6.11111108,5.59722219 C5.64236108,5.2083333 4.95486108,5.28819441 4.47569441,5.66666663 C3.93749996,6.09027775 3.2256944,6.36458331 2.47222217,6.44444442 C2.19791662,6.47222219 1.99999995,6.71527775 1.99999995,6.98958331 L1.99999995,8.10763887 C1.99999995,8.42361109 2.26388884,8.69097221 2.57986106,8.66319443 C3.57986107,8.57638887 4.52777774,8.26736109 5.33680552,7.76388887 C7.29861109,8.96527776 10.09375,8.94791665 12.0034722,7.76388887 C13.9652778,8.96527776 16.7604167,8.94791665 18.6701389,7.76388887 C19.4791667,8.25694443 20.4375,8.57291665 21.4166667,8.65972221 C21.7326389,8.68749998 21.9965278,8.42013887 21.9965278,8.10416665 L21.9965278,7.00694442 C22.0000001,6.72916664 21.7986112,6.47222219 21.5173612,6.44097219 Z" id="path-1"></path>
    </defs>
    <g id="water" stroke="none" stroke-width="1" fill="none" fill-rule="evenodd">
        <mask id="mask-2" fill="white">
            <use xlink:href="#path-1"></use>
        </mask>
        <g fill-rule="nonzero"></g>
        <g id="🎨-color" mask="url(#mask-2)" fill="#000000">
            <rect id="🎨-Color" x="0" y="0" width="24" height="24"></rect>
        </g>
    </g>
</svg>