<?xml version="1.0" encoding="UTF-8"?>
<svg width="24px" height="24px" viewBox="0 0 24 24" version="1.1" xmlns="http://www.w3.org/2000/svg" xmlns:xlink="http://www.w3.org/1999/xlink">
    <!-- Generator: Sketch 52.5 (67469) - http://www.bohemiancoding.com/sketch -->
    <title>weebly</title>
    <desc>Created with Sketch.</desc>
    <defs>
        <path d="M18.5727096,4.58596488 C17.0179337,4.58596488 15.7157895,5.58908379 15.3111111,7.09395709 C14.6031189,4.83040932 12.7575049,4.58596488 11.9992203,4.58596488 C11.2280702,4.58596488 9.39493176,4.83079918 8.67446392,7.09395709 C8.26978556,5.58908379 6.9805068,4.58596488 5.41286546,4.58596488 C3.50448339,4.58596488 1.99999995,5.90721245 1.99999995,7.59571148 C1.99999995,8.72475632 2.16296291,8.89278751 5.00857696,16.6982456 C5.88070172,19.0596492 7.65068224,19.4019494 8.62417152,19.4019494 C10.1536062,19.4019494 11.3547758,18.6432749 11.974269,17.2974659 C12.5937622,18.6553607 13.7945419,19.4140351 15.3243665,19.4140351 C16.2978558,19.4140351 18.0674464,19.0592593 18.939961,16.6978558 C21.9243665,8.56335281 21.9614036,8.68304092 21.9614036,7.84015592 C21.985965,5.95633525 20.5575049,4.58596488 18.5727096,4.58596488 Z M19.5996102,9.06198829 L17.0432749,15.9407408 C16.7345029,16.7785575 16.2159844,17.3918129 15.2405458,17.3918129 C14.3267057,17.3918129 13.7832359,16.9079922 13.5239766,16.0701755 L11.9925926,11.4923977 L11.9555556,11.4923977 L10.4241715,16.0701755 C10.1528265,16.9083821 9.60935671,17.380117 8.70799219,17.380117 C7.73255358,17.380117 7.2136452,16.7664718 6.90526313,15.9290449 L4.37348924,9.09746587 C4.16374265,8.51929823 4.06471731,8.16530213 4.06471731,7.75243663 C4.06471731,7.11539959 4.68226117,6.60779724 5.5590643,6.60779724 C6.28771927,6.60779724 6.80623779,7.06783623 6.96686157,7.74035086 L8.68343078,13.191423 L8.72046782,13.191423 L10.4615984,7.85847951 C10.6962963,7.09161791 11.1037037,6.60779724 11.9805068,6.60779724 C12.8573099,6.60779724 13.2647174,7.079922 13.4994152,7.85847951 L15.2405458,13.191423 L15.2775829,13.191423 L16.9941521,7.74035086 C17.1547759,7.06783623 17.6732944,6.60779724 18.4019493,6.60779724 C19.2662768,6.60779724 19.8962963,7.12709549 19.8962963,7.99999998 C19.8838207,8.30682259 19.7356726,8.62534111 19.5996102,9.06198829 Z" id="path-1"></path>
    </defs>
    <g id="weebly" stroke="none" stroke-width="1" fill="none" fill-rule="evenodd">
        <mask id="mask-2" fill="white">
            <use xlink:href="#path-1"></use>
        </mask>
        <g fill-rule="nonzero"></g>
        <g id="🎨-color" mask="url(#mask-2)" fill="#000000">
            <rect id="🎨-Color" x="0" y="0" width="24" height="24"></rect>
        </g>
    </g>
</svg>