<?xml version="1.0" encoding="UTF-8"?>
<svg width="24px" height="24px" viewBox="0 0 24 24" version="1.1" xmlns="http://www.w3.org/2000/svg" xmlns:xlink="http://www.w3.org/1999/xlink">
    <!-- Generator: Sketch 52.5 (67469) - http://www.bohemiancoding.com/sketch -->
    <title>weibo</title>
    <desc>Created with Sketch.</desc>
    <defs>
        <path d="M17.8984375,8.93749998 C18.1953125,7.99999998 17.375,7.10937498 16.4375,7.30859373 C15.578125,7.49609373 15.3125,6.21093747 16.1601563,6.02734372 C18.1171875,5.60156247 19.765625,7.47656248 19.1484375,9.33984374 C18.8828125,10.1679687 17.6328125,9.76171874 17.8984375,8.93749998 Z M10.390625,19.4492188 C6.23828122,19.4492188 1.99999995,17.4414063 1.99999995,14.125 C1.99999995,12.3945313 3.09374996,10.3984375 4.98046871,8.51171873 C8.87499998,4.61718746 12.9179688,4.57031246 11.7617187,8.28906248 C11.6054687,8.80078123 12.2421875,8.51171873 12.2421875,8.52343748 C15.3476563,7.21093748 17.7304688,7.86718748 16.6953125,10.53125 C16.5507813,10.8984375 16.7382813,10.9570312 17.0195313,11.0429687 C22.3203126,12.6953125 18.3789063,19.4492188 10.390625,19.4492188 Z M16.0039063,13.734375 C15.7929688,11.5585937 12.9375,10.0625 9.62109374,10.3867187 C6.30859372,10.7226562 3.80859371,12.7421875 4.01953121,14.9179688 C4.23046871,17.09375 7.08593748,18.5898438 10.4023437,18.265625 C13.7148438,17.9296875 16.2148438,15.9101563 16.0039063,13.734375 Z M15.5898438,3.37109371 C14.578125,3.58984371 14.9335938,5.07812497 15.9140625,4.86718746 C18.7382813,4.27343746 21.1796875,6.92968747 20.2773438,9.71093749 C19.9882813,10.65625 21.4140625,11.15625 21.7382813,10.1796875 C22.9843751,6.28124997 19.5859375,2.5273437 15.5898438,3.37109371 Z M12.5234375,15.5195313 C11.8554687,17.0351563 9.91406249,17.8632813 8.26171873,17.328125 C6.66796872,16.8164063 5.99609372,15.2421875 6.68749997,13.8242188 C7.37890623,12.4414063 9.15234374,11.6601562 10.7265625,12.0625 C12.3671875,12.484375 13.1914063,14.0234375 12.5234375,15.5195313 Z M9.15234374,14.3476563 C8.64843748,14.1367188 7.98046873,14.359375 7.66796873,14.8515625 C7.34374998,15.3554688 7.49999998,15.9453125 8.00390623,16.1796875 C8.51562498,16.4140625 9.20703124,16.1914063 9.53124999,15.6757813 C9.84374999,15.1640625 9.67578124,14.5703125 9.15234374,14.3476563 Z M10.4257812,13.8242188 C10.2265625,13.7578125 9.98046874,13.8476563 9.86718749,14.0351563 C9.75390624,14.234375 9.81249999,14.4492188 10.0117187,14.5390625 C10.2109375,14.6171875 10.46875,14.5273438 10.5820312,14.328125 C10.6914062,14.125 10.625,13.9023438 10.4257812,13.8242188 Z" id="path-1"></path>
    </defs>
    <g id="weibo" stroke="none" stroke-width="1" fill="none" fill-rule="evenodd">
        <mask id="mask-2" fill="white">
            <use xlink:href="#path-1"></use>
        </mask>
        <g fill-rule="nonzero"></g>
        <g id="🎨-color" mask="url(#mask-2)" fill="#000000">
            <rect id="🎨-Color" x="0" y="0" width="24" height="24"></rect>
        </g>
    </g>
</svg>