<?xml version="1.0" encoding="UTF-8"?>
<svg width="24px" height="24px" viewBox="0 0 24 24" version="1.1" xmlns="http://www.w3.org/2000/svg" xmlns:xlink="http://www.w3.org/1999/xlink">
    <!-- Generator: Sketch 52.5 (67469) - http://www.bohemiancoding.com/sketch -->
    <title>weight</title>
    <desc>Created with Sketch.</desc>
    <defs>
        <path d="M19.5,4.49999996 L18.4851563,4.49999996 C19.1265625,5.60468747 19.5,6.8832031 19.5,8.24999998 C19.5,12.3855469 16.1355469,15.75 12,15.75 C7.8644531,15.75 4.49999996,12.3855469 4.49999996,8.24999998 C4.49999996,6.8832031 4.87343746,5.60468747 5.51484372,4.49999996 L4.49999996,4.49999996 C3.12148433,4.49999996 1.99999995,5.62148434 1.99999995,6.99999997 L1.99999995,19.5 C1.99999995,20.8785157 3.12148433,22 4.49999996,22 L19.5,22 C20.8785157,22 22.0000001,20.8785157 22.0000001,19.5 L22.0000001,6.99999997 C22.0000001,5.62148434 20.8785157,4.49999996 19.5,4.49999996 Z M12,14.5 C15.4519531,14.5 18.25,11.7019531 18.25,8.24999998 C18.25,4.79804684 15.4519531,1.99999995 12,1.99999995 C8.54804686,1.99999995 5.74999997,4.79804684 5.74999997,8.24999998 C5.74999997,11.7019531 8.54804686,14.5 12,14.5 Z M11.9882812,8.56484373 L13.3,5.50390622 C13.4367188,5.18476559 13.8054688,5.03828122 14.1214844,5.17539059 C14.4386719,5.31132809 14.5855469,5.67890622 14.45,5.99570309 L13.1347656,9.06406249 C13.3957031,9.34374999 13.5625,9.71289061 13.5625,10.125 C13.5625,10.9878906 12.8628906,11.6875 12,11.6875 C11.1371094,11.6875 10.4375,10.9878906 10.4375,10.125 C10.4375,9.26640624 11.13125,8.57148436 11.9882812,8.56484373 Z" id="path-1"></path>
    </defs>
    <g id="weight" stroke="none" stroke-width="1" fill="none" fill-rule="evenodd">
        <mask id="mask-2" fill="white">
            <use xlink:href="#path-1"></use>
        </mask>
        <g fill-rule="nonzero"></g>
        <g id="🎨-color" mask="url(#mask-2)" fill="#000000">
            <rect id="🎨-Color" x="0" y="0" width="24" height="24"></rect>
        </g>
    </g>
</svg>