<?xml version="1.0" encoding="UTF-8"?>
<svg width="24px" height="24px" viewBox="0 0 24 24" version="1.1" xmlns="http://www.w3.org/2000/svg" xmlns:xlink="http://www.w3.org/1999/xlink">
    <!-- Generator: Sketch 52.5 (67469) - http://www.bohemiancoding.com/sketch -->
    <title>weight-hanging</title>
    <desc>Created with Sketch.</desc>
    <defs>
        <path d="M21.9328125,19.4164063 L19.0800782,8.00507811 C18.9316407,7.41171873 18.4378907,7.0003906 17.8742188,7.0003906 L15.5207031,7.0003906 C15.6601563,6.60781247 15.7503906,6.1910156 15.7503906,5.75039059 C15.7503906,3.67929683 14.0714844,2.00039058 12.0003906,2.00039058 C9.92929686,2.00039058 8.25039061,3.67929683 8.25039061,5.75039059 C8.25039061,6.1910156 8.34023436,6.60781247 8.48007811,7.0003906 L6.12656247,7.0003906 C5.56289059,7.0003906 5.06874997,7.41210935 4.92070309,8.00507811 L2.06718745,19.4164063 C1.74179682,20.7175782 2.6398437,22.0000001 3.87617183,22.0000001 L20.1242188,22.0000001 C21.3601563,22.0000001 22.2582032,20.7175782 21.9328125,19.4164063 Z M12,6.99999997 C11.3109375,6.99999997 10.75,6.43906247 10.75,5.74999997 C10.75,5.06093747 11.3109375,4.49999996 12,4.49999996 C12.6890625,4.49999996 13.25,5.06093747 13.25,5.74999997 C13.25,6.43906247 12.6890625,6.99999997 12,6.99999997 Z" id="path-1"></path>
    </defs>
    <g id="weight-hanging" stroke="none" stroke-width="1" fill="none" fill-rule="evenodd">
        <mask id="mask-2" fill="white">
            <use xlink:href="#path-1"></use>
        </mask>
        <g fill-rule="nonzero"></g>
        <g id="🎨-color" mask="url(#mask-2)" fill="#000000">
            <rect id="🎨-Color" x="0" y="0" width="24" height="24"></rect>
        </g>
    </g>
</svg>