<?xml version="1.0" encoding="UTF-8"?>
<svg width="24px" height="24px" viewBox="0 0 24 24" version="1.1" xmlns="http://www.w3.org/2000/svg" xmlns:xlink="http://www.w3.org/1999/xlink">
    <!-- Generator: Sketch 52.5 (67469) - http://www.bohemiancoding.com/sketch -->
    <title>weixin</title>
    <desc>Created with Sketch.</desc>
    <defs>
        <path d="M15.375,8.93055554 C15.5972222,8.93055554 15.8125,8.94097221 16.0277778,8.96874998 C15.4513889,6.24652775 12.53125,4.22222218 9.21180554,4.22222218 C5.4895833,4.22222218 2.45138884,6.74999997 2.45138884,9.96527777 C2.45138884,11.8194444 3.46874996,13.3506945 5.15624997,14.5347222 L4.48611107,16.5694445 L6.8472222,15.3854167 C7.69444442,15.5520834 8.36805554,15.7222222 9.21527776,15.7222222 C9.43055554,15.7222222 9.63541665,15.7118056 9.85069443,15.6944445 C9.71180554,15.2465278 9.63541665,14.7708333 9.63541665,14.2777778 C9.63194443,11.3298611 12.1666667,8.93055554 15.375,8.93055554 Z M11.7465278,7.09374998 C12.25,7.09374998 12.5868056,7.43055553 12.5868056,7.9409722 C12.5868056,8.44444443 12.25,8.78124998 11.7465278,8.78124998 C11.2326389,8.78124998 10.7291667,8.44444443 10.7291667,7.9409722 C10.7326389,7.43055553 11.2361111,7.09374998 11.7465278,7.09374998 Z M7.01041664,8.78124998 C6.50694442,8.78124998 5.99305553,8.44444443 5.99305553,7.9409722 C5.99305553,7.42708331 6.50694442,7.09374998 7.01041664,7.09374998 C7.52430553,7.09374998 7.85763887,7.43055553 7.85763887,7.9409722 C7.85763887,8.44791665 7.52430553,8.78124998 7.01041664,8.78124998 Z M21.5486112,14.2013889 C21.5486112,11.4965278 18.84375,9.29513888 15.8055556,9.29513888 C12.5868056,9.29513888 10.0625,11.4965278 10.0625,14.2013889 C10.0625,16.90625 12.5902778,19.1076389 15.8055556,19.1076389 C16.4756945,19.1076389 17.15625,18.9305556 17.8402778,18.7638889 L19.6944445,19.78125 L19.1805556,18.09375 C20.5416667,17.0729167 21.5486112,15.7222222 21.5486112,14.2013889 Z M13.9409722,13.3506945 C13.6041667,13.3506945 13.2708333,13.0138889 13.2708333,12.6701389 C13.2708333,12.3333333 13.6076389,12 13.9409722,12 C14.4548611,12 14.7881945,12.3368056 14.7881945,12.6701389 C14.7881945,13.0173611 14.4513889,13.3506945 13.9409722,13.3506945 Z M17.6597223,13.3506945 C17.3229167,13.3506945 16.9895834,13.0138889 16.9895834,12.6701389 C16.9895834,12.3333333 17.3263889,12 17.6597223,12 C18.1631945,12 18.5069445,12.3368056 18.5069445,12.6701389 C18.5104167,13.0173611 18.1631945,13.3506945 17.6597223,13.3506945 Z" id="path-1"></path>
    </defs>
    <g id="weixin" stroke="none" stroke-width="1" fill="none" fill-rule="evenodd">
        <mask id="mask-2" fill="white">
            <use xlink:href="#path-1"></use>
        </mask>
        <g fill-rule="nonzero"></g>
        <g id="🎨-color" mask="url(#mask-2)" fill="#000000">
            <rect id="🎨-Color" x="0" y="0" width="24" height="24"></rect>
        </g>
    </g>
</svg>