<?xml version="1.0" encoding="UTF-8"?>
<svg width="24px" height="24px" viewBox="0 0 24 24" version="1.1" xmlns="http://www.w3.org/2000/svg" xmlns:xlink="http://www.w3.org/1999/xlink">
    <!-- Generator: Sketch 52.5 (67469) - http://www.bohemiancoding.com/sketch -->
    <title>whatsapp</title>
    <desc>Created with Sketch.</desc>
    <defs>
        <path d="M18.1289063,5.79296872 C16.4921875,4.15234371 14.3125,3.24999996 11.9960937,3.24999996 C7.21484373,3.24999996 3.32421871,7.14062498 3.32421871,11.921875 C3.32421871,13.4492188 3.72265621,14.9414063 4.48046871,16.2578125 L3.24999996,20.75 L7.84765623,19.5429688 C9.11328124,20.234375 10.5390625,20.5976563 11.9921875,20.5976563 L11.9960937,20.5976563 C16.7734375,20.5976563 20.75,16.7070313 20.75,11.9257812 C20.75,9.60937499 19.765625,7.43359373 18.1289063,5.79296872 Z M11.9960937,19.1367188 C10.6992187,19.1367188 9.42968749,18.7890625 8.32421873,18.1328125 L8.06249998,17.9765625 L5.33593747,18.6914063 L6.06249997,16.03125 L5.89062497,15.7578125 C5.16796872,14.609375 4.78906246,13.2851563 4.78906246,11.921875 C4.78906246,7.94921873 8.02343748,4.71484371 12,4.71484371 C13.9257813,4.71484371 15.734375,5.46484372 17.09375,6.82812497 C18.453125,8.19140623 19.2890625,9.99999999 19.2851563,11.9257812 C19.2851563,15.9023438 15.96875,19.1367188 11.9960937,19.1367188 Z M15.9492188,13.7382813 C15.734375,13.6289063 14.6679688,13.1054688 14.46875,13.0351563 C14.2695313,12.9609375 14.125,12.9257813 13.9804688,13.1445313 C13.8359375,13.3632813 13.421875,13.8476563 13.2929688,13.9960938 C13.1679688,14.140625 13.0390625,14.1601563 12.8242188,14.0507813 C11.5507812,13.4140625 10.7148437,12.9140625 9.87499999,11.4726562 C9.65234374,11.0898437 10.0976562,11.1171875 10.5117187,10.2890625 C10.5820312,10.1445312 10.546875,10.0195312 10.4921875,9.91015624 C10.4375,9.80078124 10.0039062,8.73437498 9.82421874,8.30078123 C9.64843749,7.87890623 9.46874999,7.93749998 9.33593749,7.92968748 C9.21093749,7.92187498 9.06640624,7.92187498 8.92187498,7.92187498 C8.77734373,7.92187498 8.54296873,7.97656248 8.34374998,8.19140623 C8.14453123,8.41015623 7.58593748,8.93359373 7.58593748,9.99999999 C7.58593748,11.0664062 8.36328123,12.0976563 8.46874998,12.2421875 C8.57812498,12.3867188 9.99609374,14.5742188 12.171875,15.515625 C13.546875,16.109375 14.0859375,16.1601563 14.7734375,16.0585938 C15.1914063,15.9960938 16.0546875,15.5351563 16.234375,15.0273438 C16.4140625,14.5195313 16.4140625,14.0859375 16.359375,13.9960938 C16.3085938,13.8984375 16.1640625,13.84375 15.9492188,13.7382813 Z" id="path-1"></path>
    </defs>
    <g id="whatsapp" stroke="none" stroke-width="1" fill="none" fill-rule="evenodd">
        <mask id="mask-2" fill="white">
            <use xlink:href="#path-1"></use>
        </mask>
        <g fill-rule="nonzero"></g>
        <g id="🎨-color" mask="url(#mask-2)" fill="#000000">
            <rect id="🎨-Color" x="0" y="0" width="24" height="24"></rect>
        </g>
    </g>
</svg>