<?xml version="1.0" encoding="UTF-8"?>
<svg width="24px" height="24px" viewBox="0 0 24 24" version="1.1" xmlns="http://www.w3.org/2000/svg" xmlns:xlink="http://www.w3.org/1999/xlink">
    <!-- Generator: Sketch 52.5 (67469) - http://www.bohemiancoding.com/sketch -->
    <title>whatsapp-square</title>
    <desc>Created with Sketch.</desc>
    <defs>
        <path d="M12,6.79687497 C9.16015624,6.79687497 6.85156247,9.10546874 6.84765622,11.9453125 C6.84765622,12.9179688 7.12109373,13.8671875 7.63671873,14.6835938 L7.75781248,14.8789063 L7.23828123,16.7773438 L9.18749999,16.265625 L9.37499999,16.3789063 C10.1640625,16.8476563 11.0703125,17.0976563 11.9960937,17.0976563 L12,17.0976563 C14.8359375,17.0976563 17.2070313,14.7890625 17.2070313,11.9492187 C17.2070313,10.5742187 16.6132813,9.28124999 15.640625,8.30859373 C14.6640625,7.33203123 13.375,6.79687497 12,6.79687497 Z M15.0273438,14.15625 C14.8984375,14.5195313 14.28125,14.8476563 13.984375,14.890625 C13.4921875,14.9648438 13.109375,14.9257813 12.1289063,14.5039063 C10.578125,13.8320313 9.56249999,12.2695313 9.48437499,12.1679688 C9.40624999,12.0664063 8.85156248,11.328125 8.85156248,10.5664062 C8.85156248,9.80468749 9.24999999,9.42968749 9.39453124,9.27343749 C9.53515624,9.11718749 9.70312499,9.07812499 9.80859374,9.07812499 C9.91015624,9.07812499 10.015625,9.07812499 10.1054687,9.08203124 C10.1992187,9.08593749 10.328125,9.04687499 10.453125,9.34765624 C10.5820312,9.65624999 10.890625,10.4179687 10.9296875,10.4960937 C10.96875,10.5742187 10.9960937,10.6640625 10.9414062,10.765625 C10.6445312,11.359375 10.328125,11.3359375 10.4882812,11.609375 C11.0859375,12.6367188 11.6835937,12.9921875 12.59375,13.4492188 C12.75,13.5273438 12.8398438,13.515625 12.9296875,13.4101563 C13.0195313,13.3085938 13.3164063,12.9570313 13.4179688,12.8046875 C13.5195313,12.6484375 13.625,12.6757813 13.765625,12.7265625 C13.90625,12.7773438 14.6679688,13.1523438 14.8242188,13.2304688 C14.9804688,13.3085938 15.0820313,13.3476563 15.1210938,13.4101563 C15.15625,13.484375 15.15625,13.796875 15.0273438,14.15625 Z M18.875,3.24999996 L5.12499997,3.24999996 C4.08984371,3.24999996 3.24999996,4.08984371 3.24999996,5.12499997 L3.24999996,18.875 C3.24999996,19.9101563 4.08984371,20.75 5.12499997,20.75 L18.875,20.75 C19.9101563,20.75 20.75,19.9101563 20.75,18.875 L20.75,5.12499997 C20.75,4.08984371 19.9101563,3.24999996 18.875,3.24999996 Z M11.9960937,18.140625 C10.9570312,18.140625 9.93749999,17.8789063 9.03515624,17.3867188 L5.74999997,18.25 L6.62890622,15.0390625 C6.08593747,14.1015625 5.80078122,13.0351563 5.80078122,11.9414062 C5.80468747,8.52734373 8.58203123,5.74999997 11.9960937,5.74999997 C13.6523438,5.74999997 15.2070313,6.39453122 16.3789063,7.56640623 C17.546875,8.73828123 18.25,10.2929687 18.25,11.9492187 C18.25,15.3632813 15.4101563,18.140625 11.9960937,18.140625 Z" id="path-1"></path>
    </defs>
    <g id="whatsapp-square" stroke="none" stroke-width="1" fill="none" fill-rule="evenodd">
        <mask id="mask-2" fill="white">
            <use xlink:href="#path-1"></use>
        </mask>
        <g fill-rule="nonzero"></g>
        <g id="🎨-color" mask="url(#mask-2)" fill="#000000">
            <rect id="🎨-Color" x="0" y="0" width="24" height="24"></rect>
        </g>
    </g>
</svg>