<?xml version="1.0" encoding="UTF-8"?>
<svg width="24px" height="24px" viewBox="0 0 24 24" version="1.1" xmlns="http://www.w3.org/2000/svg" xmlns:xlink="http://www.w3.org/1999/xlink">
    <!-- Generator: Sketch 52.5 (67469) - http://www.bohemiancoding.com/sketch -->
    <title>wheelchair</title>
    <desc>Created with Sketch.</desc>
    <defs>
        <path d="M21.3789454,17.0651953 L21.9346875,18.1848438 C22.0881641,18.4940235 21.9619141,18.8690625 21.6527344,19.0225391 L19.0955078,20.3071485 C18.4685938,20.6183594 17.7066016,20.3537891 17.4084375,19.7190625 L14.956211,14.5 L9.49999999,14.5 C8.87792967,14.5 8.35054686,14.0425781 8.26253904,13.4267578 C6.93878904,4.16046871 7.01484373,4.73609371 6.99999997,4.49999996 C6.99999997,3.07976558 8.18429686,1.93613276 9.61921874,2.00277339 C10.9188672,2.06312495 11.9648437,3.13187496 11.9991016,4.43249996 C12.0330078,5.71894528 11.0947266,6.79277341 9.86597655,6.97308591 L10.0483984,8.25003904 L15.125,8.25003904 C15.4701953,8.25003904 15.75,8.52984373 15.75,8.87503905 L15.75,10.1250391 C15.75,10.4702344 15.4701953,10.7500391 15.125,10.7500391 L10.4055469,10.7500391 L10.5841406,12.0000391 L15.75,12.0000391 C16.2344697,12.0000456 16.6753074,12.2799948 16.8813281,12.7184766 L19.1280078,17.5 L20.541211,16.7832422 C20.8503907,16.6297656 21.2254688,16.7560156 21.3789454,17.0651953 Z M14.1624219,15.75 L13.2051563,15.75 C12.9009375,17.8673438 11.0751562,19.5 8.87499998,19.5 C6.46261716,19.5 4.49999996,17.5373828 4.49999996,15.125 C4.49999996,13.5037109 5.38648434,12.0855859 6.70015622,11.3298437 C6.55515622,10.3155859 6.43281247,9.46031249 6.32953122,8.73871092 C3.79515621,9.75249999 1.99999995,12.2329297 1.99999995,15.125 C1.99999995,18.9158985 5.08410153,22.0000001 8.87499998,22.0000001 C11.6824219,22.0000001 14.1017969,20.3082813 15.1683594,17.8909375 L14.1624219,15.75 Z" id="path-1"></path>
    </defs>
    <g id="wheelchair" stroke="none" stroke-width="1" fill="none" fill-rule="evenodd">
        <mask id="mask-2" fill="white">
            <use xlink:href="#path-1"></use>
        </mask>
        <g fill-rule="nonzero"></g>
        <g id="🎨-color" mask="url(#mask-2)" fill="#000000">
            <rect id="🎨-Color" x="0" y="0" width="24" height="24"></rect>
        </g>
    </g>
</svg>