<?xml version="1.0" encoding="UTF-8"?>
<svg width="24px" height="24px" viewBox="0 0 24 24" version="1.1" xmlns="http://www.w3.org/2000/svg" xmlns:xlink="http://www.w3.org/1999/xlink">
    <!-- Generator: Sketch 52.5 (67469) - http://www.bohemiancoding.com/sketch -->
    <title>whmcs</title>
    <desc>Created with Sketch.</desc>
    <defs>
        <path d="M20.75,8.28906248 L20.75,7.45703123 L19.6367188,7.11328123 L19.5507813,6.70703122 L20.3359375,5.89843747 L19.9296875,5.14062497 L18.796875,5.43359372 L18.515625,5.14062497 L18.8085938,4.03906246 L18.0625,3.58593746 L17.2304688,4.40624996 L16.8125,4.28124996 L16.5390625,3.24999996 L15.65625,3.24999996 L15.4140625,4.28124996 L14.9414063,4.40624996 L14.171875,3.58593746 L13.4140625,4.01562496 L13.7304688,5.09765622 L13.4140625,5.42578122 L12.3007813,5.13281247 L11.8710937,5.87890622 L12.6796875,6.69921872 L12.5664063,7.10546873 L11.453125,7.41015623 L11.4414062,8.25781248 L12.5664063,8.55078123 L12.6601563,9.02343749 L11.875,9.80078124 L12.28125,10.5234375 L13.4375,10.2304687 L13.71875,10.5664062 L13.4023438,11.6171875 L14.1796875,12.0703125 L14.9375,11.2734375 L15.390625,11.3867187 L15.6523438,12.5 L16.5351563,12.5117188 L16.796875,11.3867187 L17.25,11.25 L18.0585938,12.09375 L18.8554688,11.6210937 L18.5117188,10.5273437 L18.8164063,10.2109375 L19.9414063,10.5546875 L20.34375,9.76953124 L19.5273438,9.03515624 L19.6132813,8.56249998 L20.75,8.28906248 Z M16.09375,10.0546875 C14.8710938,10.0546875 13.875,9.06249999 13.875,7.83593748 C13.875,6.60937497 14.8671875,5.61718747 16.09375,5.61718747 C17.3203125,5.61718747 18.3125,6.60937497 18.3125,7.83593748 C18.3125,9.06640624 17.3203125,10.0546875 16.09375,10.0546875 Z M18.9179688,10.6953125 L20.75,11.2617187 L20.75,12.8203125 L18.5976563,13.34375 L18.4375,14.2304688 L19.9570313,15.609375 L19.2070313,17.0898438 L17.0976563,16.4375 L16.5273438,17.03125 L17.1796875,19.0820313 L15.6835938,19.96875 L14.1640625,18.3867188 L13.3164063,18.6445313 L12.8242188,20.7539063 L11.1679687,20.734375 L10.6757812,18.640625 L9.82812499,18.421875 L8.40624998,19.921875 L6.94531247,19.0742188 L7.53906248,17.1015625 L7.00390623,16.4726563 L4.83593746,17.0234375 L4.06640621,15.6640625 L5.54687497,14.203125 L5.35937497,13.3125 L3.24999996,12.7617188 L3.26953121,11.1640625 L5.35937497,10.5898437 L5.58203122,9.82031249 L4.06249996,8.28124998 L4.87109371,6.88281247 L6.96484372,7.43359373 L7.55859373,6.82031247 L6.96484372,4.78906246 L8.38671873,3.98046871 L9.82421874,5.51953122 L10.7109375,5.28124997 L11.1640625,3.24999996 L12.8203125,3.24999996 L13.2734375,5.04296872 L12.390625,4.81249996 L12.1445313,4.74609371 L12.015625,4.96874996 L11.5859375,5.71484372 L11.4570312,5.93359372 L11.6367187,6.11328122 L12.3085938,6.79296872 L12.296875,6.83203122 L11.3671875,7.08593748 L11.125,7.15234373 L11.1210937,7.40234373 L11.1132812,7.90624998 C9.25781249,8.31249998 7.85937498,9.96874999 7.85937498,11.9492187 C7.85937498,14.2265625 9.70703124,16.078125 11.9882812,16.078125 C13.9609375,16.078125 15.609375,14.6953125 16.0195313,12.84375 L16.5351563,12.8515625 L16.8046875,12.8554688 L16.8671875,12.59375 L17.0859375,11.65625 L17.1601563,11.6328125 L17.828125,12.328125 L18.0117188,12.5195313 L18.2382813,12.3867188 L19.0351563,11.9140625 L19.2617188,11.7773437 L19.1835938,11.5234375 L18.9179688,10.6953125 Z" id="path-1"></path>
    </defs>
    <g id="whmcs" stroke="none" stroke-width="1" fill="none" fill-rule="evenodd">
        <mask id="mask-2" fill="white">
            <use xlink:href="#path-1"></use>
        </mask>
        <g fill-rule="nonzero"></g>
        <g id="🎨-color" mask="url(#mask-2)" fill="#000000">
            <rect id="🎨-Color" x="0" y="0" width="24" height="24"></rect>
        </g>
    </g>
</svg>