<?xml version="1.0" encoding="UTF-8"?>
<svg width="24px" height="24px" viewBox="0 0 24 24" version="1.1" xmlns="http://www.w3.org/2000/svg" xmlns:xlink="http://www.w3.org/1999/xlink">
    <!-- Generator: Sketch 52.5 (67469) - http://www.bohemiancoding.com/sketch -->
    <title>wifi</title>
    <desc>Created with Sketch.</desc>
    <defs>
        <path d="M21.8409375,8.83999998 C16.304375,3.71906246 7.69343748,3.72093746 2.15906245,8.83999998 C1.95093745,9.03249999 1.94687495,9.35843749 2.14812495,9.55812499 L3.21812496,10.6196875 C3.40999996,10.8103125 3.71874996,10.814375 3.91812496,10.6315625 C8.47812498,6.45406247 15.52125,6.45312497 20.0821875,10.6315625 C20.2815625,10.814375 20.5903125,10.81 20.7821875,10.6196875 L21.8521875,9.55812499 C22.0531251,9.35843749 22.0490626,9.03249999 21.8409375,8.83999998 Z M12,15 C10.8953125,15 9.99999999,15.8953125 9.99999999,17 C9.99999999,18.1046875 10.8953125,19 12,19 C13.1046875,19 14,18.1046875 14,17 C14,15.8953125 13.1046875,15 12,15 Z M18.3334375,12.3878125 C14.7315625,9.20249999 9.26437499,9.20593749 5.66656247,12.3878125 C5.45093747,12.5784375 5.44406247,12.909375 5.64874997,13.11125 L6.72499997,14.1734375 C6.91249997,14.3584375 7.21437498,14.3709375 7.41406248,14.1984375 C10.0375,11.930625 13.9684375,11.935625 16.585625,14.1984375 C16.7853125,14.3709375 17.0871875,14.35875 17.2746875,14.1734375 L18.3509375,13.11125 C18.5559375,12.909375 18.54875,12.578125 18.3334375,12.3878125 Z" id="path-1"></path>
    </defs>
    <g id="wifi" stroke="none" stroke-width="1" fill="none" fill-rule="evenodd">
        <mask id="mask-2" fill="white">
            <use xlink:href="#path-1"></use>
        </mask>
        <g fill-rule="nonzero"></g>
        <g id="🎨-color" mask="url(#mask-2)" fill="#000000">
            <rect id="🎨-Color" x="0" y="0" width="24" height="24"></rect>
        </g>
    </g>
</svg>