<?xml version="1.0" encoding="UTF-8"?>
<svg width="24px" height="24px" viewBox="0 0 24 24" version="1.1" xmlns="http://www.w3.org/2000/svg" xmlns:xlink="http://www.w3.org/1999/xlink">
    <!-- Generator: Sketch 52.5 (67469) - http://www.bohemiancoding.com/sketch -->
    <title>wikipedia-w</title>
    <desc>Created with Sketch.</desc>
    <defs>
        <path d="M22.0000001,5.60998437 L21.9906397,5.9906396 C21.1138846,6.01560059 20.5865835,6.48361932 20.24961,7.2480499 C19.4695788,9.05148204 17.0265211,14.7363495 15.4040562,18.4368175 L14.9797192,18.4368175 L12.424337,12.4118565 C11.4102964,14.3962559 10.2932917,16.4680187 9.32917315,18.4368175 C9.31981278,18.4461779 8.86115443,18.4368175 8.86115443,18.4274571 C7.39781589,15.0046802 5.86271448,11.6068643 4.39625581,8.17472697 C4.04056158,7.34165364 2.85491415,5.9906396 2.03744145,5.99999997 C2.03744145,5.9032761 2.02808107,5.68798749 2.02808107,5.55694225 L7.07956316,5.55694225 L7.07956316,5.9906396 C6.48049919,6.02496097 5.43213725,6.4056162 5.72854911,7.05772228 C6.41185645,8.60842432 8.96099842,14.5553822 9.64742589,16.0624025 C10.1154446,15.1357254 11.450858,12.6552262 11.9968799,11.6068643 C11.5631825,10.7238689 10.1684867,7.42901714 9.72542901,6.61466456 C9.4227769,6.05928234 8.59906395,6.00936034 7.98439936,5.99999997 L7.98439936,5.56630262 L12.4305772,5.57566299 L12.4305772,5.98439935 C11.825273,6.00312009 11.2418097,6.22776908 11.5132605,6.79875192 C12.1029641,8.04680185 12.4680187,8.92355693 13.0140406,10.0655226 C13.1887676,9.72854913 14.0967239,7.90015599 14.5148206,6.92043679 C14.7925117,6.27769108 14.3931357,6.02808109 13.3104524,6.00312009 C13.3198128,5.8907956 13.3104524,5.68174724 13.3198128,5.57878312 C14.7051482,5.56942274 16.7862715,5.56942274 17.1606865,5.56006237 L17.1606865,5.98439935 C16.4586584,6.00936034 15.7316693,6.38377532 15.3478939,6.97347891 L13.50078,10.8049922 C13.700468,11.3073323 15.4758191,15.2605304 15.6599064,15.6942278 L19.4789392,6.87675504 C19.2106085,6.15600621 18.3432138,5.99999997 18.0062403,5.99375972 L18.0062403,5.56006237 L21.9937598,5.59438374 L22.0000001,5.60998437 Z" id="path-1"></path>
    </defs>
    <g id="wikipedia-w" stroke="none" stroke-width="1" fill="none" fill-rule="evenodd">
        <mask id="mask-2" fill="white">
            <use xlink:href="#path-1"></use>
        </mask>
        <g></g>
        <g id="🎨-color" mask="url(#mask-2)" fill="#000000">
            <rect id="🎨-Color" x="0" y="0" width="24" height="24"></rect>
        </g>
    </g>
</svg>