<?xml version="1.0" encoding="UTF-8"?>
<svg width="24px" height="24px" viewBox="0 0 24 24" version="1.1" xmlns="http://www.w3.org/2000/svg" xmlns:xlink="http://www.w3.org/1999/xlink">
    <!-- Generator: Sketch 52.5 (67469) - http://www.bohemiancoding.com/sketch -->
    <title>window-restore</title>
    <desc>Created with Sketch.</desc>
    <defs>
        <path d="M20.125,1.99999995 L7.62499998,1.99999995 C6.58984372,1.99999995 5.74999997,2.8398437 5.74999997,3.87499996 L5.74999997,5.74999997 L3.87499996,5.74999997 C2.8398437,5.74999997 1.99999995,6.58984372 1.99999995,7.62499998 L1.99999995,20.125 C1.99999995,21.1601563 2.8398437,22.0000001 3.87499996,22.0000001 L16.375,22.0000001 C17.4101563,22.0000001 18.25,21.1601563 18.25,20.125 L18.25,18.25 L20.125,18.25 C21.1601563,18.25 22.0000001,17.4101563 22.0000001,16.375 L22.0000001,3.87499996 C22.0000001,2.8398437 21.1601563,1.99999995 20.125,1.99999995 Z M16.375,20.125 L3.87499996,20.125 L3.87499996,12 L16.375,12 L16.375,20.125 Z M20.125,16.375 L18.25,16.375 L18.25,7.62499998 C18.25,6.58984372 17.4101563,5.74999997 16.375,5.74999997 L7.62499998,5.74999997 L7.62499998,3.87499996 L20.125,3.87499996 L20.125,16.375 Z" id="path-1"></path>
    </defs>
    <g id="window-restore" stroke="none" stroke-width="1" fill="none" fill-rule="evenodd">
        <mask id="mask-2" fill="white">
            <use xlink:href="#path-1"></use>
        </mask>
        <g fill-rule="nonzero"></g>
        <g id="🎨-color" mask="url(#mask-2)" fill="#000000">
            <rect id="🎨-Color" x="0" y="0" width="24" height="24"></rect>
        </g>
    </g>
</svg>