<?xml version="1.0" encoding="UTF-8"?>
<svg width="24px" height="24px" viewBox="0 0 24 24" version="1.1" xmlns="http://www.w3.org/2000/svg" xmlns:xlink="http://www.w3.org/1999/xlink">
    <!-- Generator: Sketch 52.5 (67469) - http://www.bohemiancoding.com/sketch -->
    <title>wind</title>
    <desc>Created with Sketch.</desc>
    <defs>
        <path d="M8.10916177,12 L2.62378163,12 C2.28070171,12 1.99999995,12.2807018 1.99999995,12.6237817 L1.99999995,13.871345 C1.99999995,14.214425 2.28070171,14.4951267 2.62378163,14.4951267 L8.16764131,14.4951267 C8.78752435,14.4951267 9.36842104,14.920078 9.46978556,15.5321638 C9.59844053,16.3118909 8.99805067,16.9902534 8.23781675,16.9902534 C7.68810914,16.9902534 7.22027288,16.631579 7.05263155,16.1364523 C6.97076021,15.8908382 6.7173489,15.7426901 6.46003896,15.7426901 L5.18128652,15.7426901 C4.79922024,15.7426901 4.49122803,16.08577 4.56140347,16.460039 C4.89668612,18.1793373 6.41715397,19.4853802 8.23391811,19.4853802 C10.460039,19.4853802 12.2378168,17.5321638 11.9454191,15.251462 C11.7076023,13.3645224 10.0077973,12 8.10916177,12 Z M2.62378163,10.7524366 L15.7231969,10.7524366 C18.0506823,10.7524366 19.8869396,8.61598439 19.380117,6.20272902 C19.0838207,4.79142297 17.9415205,3.64912277 16.5302144,3.35282647 C14.3703704,2.90058475 12.4327485,4.32358671 12.0506823,6.29629627 C11.9766082,6.67056528 12.288499,7.00974656 12.6666667,7.00974656 L13.9454191,7.00974656 C14.2066277,7.00974656 14.4561404,6.86159841 14.5380117,6.61598438 C14.705653,6.12085767 15.1734893,5.7621832 15.7231969,5.7621832 C16.4795322,5.7621832 17.0838207,6.44054578 16.9551657,7.22027288 C16.8538012,7.83235865 16.2768031,8.25730992 15.6530215,8.25730992 L2.62378163,8.25730992 C2.28070171,8.25730992 1.99999995,8.53801168 1.99999995,8.8810916 L1.99999995,10.128655 C1.99999995,10.4717349 2.28070171,10.7524366 2.62378163,10.7524366 Z M17.5945419,12 L11.5009747,12 C12.2534113,12.6471735 12.7953216,13.5126706 13.0526316,14.4951267 L17.5945419,14.4951267 C18.6276803,14.4951267 19.465887,15.3333333 19.465887,16.3664718 C19.465887,17.3996102 18.6276803,18.2378168 17.5945419,18.2378168 C16.8966862,18.2378168 16.2962963,17.8518519 15.9727096,17.2865497 C15.8596491,17.091618 15.6335283,16.9902534 15.4074074,16.9902534 L14.0896686,16.9902534 C13.6647174,16.9902534 13.3489279,17.4113061 13.4931774,17.8128655 C14.1871345,19.7855751 16.2417154,21.1189084 18.5380117,20.631579 C20.1442496,20.2923977 21.465887,19.0097466 21.840156,17.4074074 C22.5068227,14.5536063 20.34308,12 17.5945419,12 Z" id="path-1"></path>
    </defs>
    <g id="wind" stroke="none" stroke-width="1" fill="none" fill-rule="evenodd">
        <mask id="mask-2" fill="white">
            <use xlink:href="#path-1"></use>
        </mask>
        <g fill-rule="nonzero"></g>
        <g id="🎨-color" mask="url(#mask-2)" fill="#000000">
            <rect id="🎨-Color" x="0" y="0" width="24" height="24"></rect>
        </g>
    </g>
</svg>