<?xml version="1.0" encoding="UTF-8"?>
<svg width="24px" height="24px" viewBox="0 0 24 24" version="1.1" xmlns="http://www.w3.org/2000/svg" xmlns:xlink="http://www.w3.org/1999/xlink">
    <!-- Generator: Sketch 52.5 (67469) - http://www.bohemiancoding.com/sketch -->
    <title>window-close</title>
    <desc>Created with Sketch.</desc>
    <defs>
        <path d="M20.125,3.24999996 L3.87499996,3.24999996 C2.8398437,3.24999996 1.99999995,4.08984371 1.99999995,5.12499997 L1.99999995,18.875 C1.99999995,19.9101563 2.8398437,20.75 3.87499996,20.75 L20.125,20.75 C21.1601563,20.75 22.0000001,19.9101563 22.0000001,18.875 L22.0000001,5.12499997 C22.0000001,4.08984371 21.1601563,3.24999996 20.125,3.24999996 Z M20.125,18.640625 C20.125,18.7695313 20.0195313,18.875 19.890625,18.875 L4.10937496,18.875 C3.98046871,18.875 3.87499996,18.7695313 3.87499996,18.640625 L3.87499996,5.35937497 C3.87499996,5.23046872 3.98046871,5.12499997 4.10937496,5.12499997 L19.890625,5.12499997 C20.0195313,5.12499997 20.125,5.23046872 20.125,5.35937497 L20.125,18.640625 Z M15.9257813,9.60156249 L13.5273438,12 L15.9257813,14.3984375 C16.1054688,14.578125 16.1054688,14.8710938 15.9257813,15.0546875 L15.0546875,15.9257813 C14.875,16.1054688 14.5820313,16.1054688 14.3984375,15.9257813 L12,13.5273438 L9.60156249,15.9257813 C9.42187499,16.1054688 9.12890624,16.1054688 8.94531248,15.9257813 L8.07421873,15.0546875 C7.89453123,14.875 7.89453123,14.5820313 8.07421873,14.3984375 L10.4726562,12 L8.07421873,9.60156249 C7.89453123,9.42187499 7.89453123,9.12890624 8.07421873,8.94531248 L8.94531248,8.07421873 C9.12499999,7.89453123 9.41796874,7.89453123 9.60156249,8.07421873 L12,10.4726562 L14.3984375,8.07421873 C14.578125,7.89453123 14.8710938,7.89453123 15.0546875,8.07421873 L15.9257813,8.94531248 C16.109375,9.12499999 16.109375,9.41796874 15.9257813,9.60156249 Z" id="path-1"></path>
    </defs>
    <g id="window-close" stroke="none" stroke-width="1" fill="none" fill-rule="evenodd">
        <mask id="mask-2" fill="white">
            <use xlink:href="#path-1"></use>
        </mask>
        <g fill-rule="nonzero"></g>
        <g id="🎨-color" mask="url(#mask-2)" fill="#000000">
            <rect id="🎨-Color" x="0" y="0" width="24" height="24"></rect>
        </g>
    </g>
</svg>