<?xml version="1.0" encoding="UTF-8"?>
<svg width="24px" height="24px" viewBox="0 0 24 24" version="1.1" xmlns="http://www.w3.org/2000/svg" xmlns:xlink="http://www.w3.org/1999/xlink">
    <!-- Generator: Sketch 52.5 (67469) - http://www.bohemiancoding.com/sketch -->
    <title>wine-glass</title>
    <desc>Created with Sketch.</desc>
    <defs>
        <path d="M14.8125,20.125 L13.25,20.125 L13.25,15.5472656 C15.9246094,14.9265625 17.8613282,12.4257813 17.6015625,9.52539061 L16.9785156,2.56835933 C16.9496094,2.24648433 16.6835938,1.99999995 16.3648438,1.99999995 L7.63515623,1.99999995 C7.31679685,1.99999995 7.0503906,2.24648433 7.02187498,2.56835933 L6.39843747,9.52578124 C6.13867185,12.4261719 8.07539061,14.9269531 10.75,15.5476563 L10.75,20.125 L9.18749999,20.125 C8.32460936,20.125 7.62499998,20.8246094 7.62499998,21.6875 C7.62499998,21.8601563 7.76484373,22.0000001 7.93749998,22.0000001 L16.0625,22.0000001 C16.2351563,22.0000001 16.375,21.8601563 16.375,21.6875 C16.375,20.8246094 15.6753906,20.125 14.8125,20.125 Z" id="path-1"></path>
    </defs>
    <g id="wine-glass" stroke="none" stroke-width="1" fill="none" fill-rule="evenodd">
        <mask id="mask-2" fill="white">
            <use xlink:href="#path-1"></use>
        </mask>
        <g></g>
        <g id="🎨-color" mask="url(#mask-2)" fill="#000000">
            <rect id="🎨-Color" x="0" y="0" width="24" height="24"></rect>
        </g>
    </g>
</svg>