<?xml version="1.0" encoding="UTF-8"?>
<svg width="24px" height="24px" viewBox="0 0 24 24" version="1.1" xmlns="http://www.w3.org/2000/svg" xmlns:xlink="http://www.w3.org/1999/xlink">
    <!-- Generator: Sketch 52.5 (67469) - http://www.bohemiancoding.com/sketch -->
    <title>wine-bottle</title>
    <desc>Created with Sketch.</desc>
    <defs>
        <path d="M21.8167969,4.83476559 L19.1652344,2.18320308 C18.9210938,1.93906245 18.5253907,1.93906245 18.28125,2.18320308 L17.3972657,3.06718746 C17.153125,3.31132808 17.153125,3.70703121 17.3972657,3.95117183 L14.4023438,6.94609372 C12.5828125,6.17656247 10.4023437,6.5269531 8.91914061,8.00976561 L2.73242183,14.1964844 C1.75624995,15.1726563 1.75624995,16.7558594 2.73242183,17.7320313 L6.26796872,21.2675782 C7.2441406,22.2437501 8.82734373,22.2437501 9.80351561,21.2675782 L15.990625,15.0804688 C17.4734375,13.5976563 17.8238282,11.4167969 17.0542969,9.59726561 L20.0492188,6.60234372 C20.2933594,6.84648435 20.6890625,6.84648435 20.9332032,6.60234372 L21.8171875,5.71835934 C22.0609376,5.47460934 22.0609376,5.07890622 21.8167969,4.83476559 Z M9.00078124,18.5347657 L5.46523434,14.9992188 L10.2324219,10.2320312 L13.7679688,13.7675781 L9.00078124,18.5347657 Z" id="path-1"></path>
    </defs>
    <g id="wine-bottle" stroke="none" stroke-width="1" fill="none" fill-rule="evenodd">
        <mask id="mask-2" fill="white">
            <use xlink:href="#path-1"></use>
        </mask>
        <g fill-rule="nonzero"></g>
        <g id="🎨-color" mask="url(#mask-2)" fill="#000000">
            <rect id="🎨-Color" x="0" y="0" width="24" height="24"></rect>
        </g>
    </g>
</svg>