<?xml version="1.0" encoding="UTF-8"?>
<svg width="24px" height="24px" viewBox="0 0 24 24" version="1.1" xmlns="http://www.w3.org/2000/svg" xmlns:xlink="http://www.w3.org/1999/xlink">
    <!-- Generator: Sketch 52.5 (67469) - http://www.bohemiancoding.com/sketch -->
    <title>wix</title>
    <desc>Created with Sketch.</desc>
    <defs>
        <path d="M14.293125,8.11531248 C14.293125,8.52249998 14.358125,9.13687499 13.396875,9.48499999 C13.099375,9.59281249 12.8984375,9.78687499 12.8984375,9.78687499 C12.8984375,8.81812498 13.0459375,8.46749998 13.4421875,8.25999998 C13.746875,8.10031248 14.293125,8.11531248 14.293125,8.11531248 Z M10.674375,9.22593749 L9.60437499,13.3715625 L8.71437498,9.97874999 C8.47406248,8.97906248 8.06406248,8.46218748 7.20093748,8.46218748 C6.34562497,8.46218748 5.93031247,8.96781248 5.68749997,9.97874999 L4.79749996,13.3715625 L3.72749996,9.22593749 C3.55406246,8.39093748 2.74562495,8.02999998 1.99999995,8.12374998 L4.04906246,15.8715625 C4.04906246,15.8715625 4.72499996,15.9203125 5.06343747,15.7478125 C5.50781247,15.52125 5.71906247,15.3465625 5.98812497,14.2925 C6.22781247,13.3528125 6.89781247,10.5921875 6.96062497,10.395625 C7.10937498,9.92874999 7.30718748,9.96406249 7.44187498,10.395625 C7.50343748,10.5925 8.17468748,13.3528125 8.41437498,14.2925 C8.68312498,15.3465625 8.89468748,15.52125 9.33906249,15.7478125 C9.67718749,15.9203125 10.3534375,15.8715625 10.3534375,15.8715625 L12.4025,8.12374998 C11.639375,8.02781248 10.845625,8.40281248 10.674375,9.22593749 Z M14.2925,9.38874999 C14.2925,9.38874999 14.164375,9.58687499 13.871875,9.75031249 C13.6840625,9.85531249 13.50375,9.92656249 13.3103125,10.019375 C12.8371875,10.24625 12.8984375,10.4553125 12.8984375,11.119375 L12.8984375,15.8715625 C12.8984375,15.8715625 13.415625,15.936875 13.75375,15.764375 C14.1890625,15.5425 14.2890625,15.3284375 14.293125,14.365 L14.293125,9.66906249 L14.2925,9.66937499 L14.2925,9.38874999 Z M19.4,12.01625 L22.0000001,8.14937498 C22.0000001,8.14937498 20.9028125,7.96249998 20.359375,8.45718748 C19.94375,8.83531248 19.5965625,9.38062499 18.66625,10.721875 C18.6515625,10.7446875 18.4709375,11.05125 18.2578125,10.721875 C17.3425,9.40218749 16.9828125,8.83781248 16.5646875,8.45718748 C16.02125,7.96249998 14.9240625,8.14937498 14.9240625,8.14937498 L17.5240625,12.01625 L14.93125,15.87125 C14.93125,15.87125 16.0740625,16.015625 16.6171875,15.5209375 C16.97625,15.1940625 17.1665625,14.884375 18.258125,13.3109375 C18.4709375,12.9821875 18.6509375,13.286875 18.6665625,13.3109375 C19.5853125,14.6353125 19.8925,15.1253125 20.3271875,15.5209375 C20.870625,16.015625 21.9934375,15.87125 21.9934375,15.87125 L19.4,12.01625 Z" id="path-1"></path>
    </defs>
    <g id="wix" stroke="none" stroke-width="1" fill="none" fill-rule="evenodd">
        <mask id="mask-2" fill="white">
            <use xlink:href="#path-1"></use>
        </mask>
        <g fill-rule="nonzero"></g>
        <g id="🎨-color" mask="url(#mask-2)" fill="#000000">
            <rect id="🎨-Color" x="0" y="0" width="24" height="24"></rect>
        </g>
    </g>
</svg>