<?xml version="1.0" encoding="UTF-8"?>
<svg width="24px" height="24px" viewBox="0 0 24 24" version="1.1" xmlns="http://www.w3.org/2000/svg" xmlns:xlink="http://www.w3.org/1999/xlink">
    <!-- Generator: Sketch 52.5 (67469) - http://www.bohemiancoding.com/sketch -->
    <title>wizards-of-the-coast</title>
    <desc>Created with Sketch.</desc>
    <defs>
        <path d="M8.87020279,14.79844 C8.81092042,14.8414977 8.52480497,15.0617785 8.86209047,15.5338534 C9.00686426,15.7341654 9.30234008,15.9329173 9.54009359,15.7382215 C9.7429017,15.5859595 9.76942277,15.3351014 9.54820592,15.0193448 C9.37753509,14.7772231 9.10265209,14.6174727 8.87020279,14.79844 Z M19.3772231,17.1678627 C19.3666147,17.2209049 19.3600624,17.2199688 19.4018721,17.1678627 C19.4670827,17.0371295 19.5326053,16.849298 19.5572543,16.5469579 C19.6552262,15.3460219 18.298908,14.3163807 16.3953198,14.1123245 C14.6876755,13.924493 12.5145086,14.3984399 10.5045242,15.999688 L10.4964118,16.048674 C10.5781591,16.2040562 10.6517941,16.3837754 10.6024961,16.7104524 L10.6271451,16.7185648 C12.6205928,14.8964119 14.7204368,14.3082683 16.3790952,14.4143526 C18.2012481,14.5288612 19.500156,15.4764431 19.500156,16.5385336 C19.499844,16.849298 19.4180968,17.0290172 19.3772231,17.1678627 Z M14.2708268,11.5138846 C14.2954758,11.7344774 14.4015601,11.8324493 14.5569423,11.8405616 C14.7285492,11.8486739 14.8511701,11.7588144 14.8836194,11.6361934 C14.9082683,11.5301092 14.94883,10.7048362 14.94883,10.7048362 C14.94883,10.7048362 14.5975039,10.9092044 14.4829953,11.0315133 C14.3687988,11.1463338 14.2542902,11.2932917 14.2708268,11.5138846 Z M12.7101404,6.79937595 C6.32917314,6.79937595 2.43993755,11.0889236 2.05585018,11.5382215 C2.02308887,11.5544462 2.01497655,11.5628705 2.08049917,11.5790952 C3.96786267,12.0939158 6.94196565,14.1120125 8.19999998,17.8867395 L8.23276129,17.8948518 C9.95663025,15.7132605 12.6283931,13.899532 15.6271451,13.899532 C18.1519501,13.899532 19.6879876,15.2149766 19.6879876,16.4078003 C19.6879876,16.9797192 19.4836194,17.4536662 18.9934478,17.8539782 C18.9934478,17.8839314 18.9872075,17.8786272 19.0180968,17.8786272 C19.4755071,17.5435258 19.8761311,16.9800312 19.8761311,16.375351 C19.8761311,15.6645866 19.500156,15.1825273 19.500156,15.1825273 C19.7207489,15.4031201 19.8352574,15.6892356 19.8352574,15.6892356 C20.0149766,14.4146646 20.6767551,13.7447738 20.6767551,13.7447738 C20.6031202,13.4424337 20.4642746,13.1890796 20.4642746,13.1890796 C20.7010921,13.4424337 20.9135726,14.0471139 20.9135726,14.4798752 C20.9135726,14.8065523 20.8074883,15.1906396 20.5213729,15.4767551 L20.5294852,15.4929797 C20.7828394,15.3375975 21.0443058,14.9700468 21.0443058,14.3082683 C21.0443058,13.8180967 20.8973479,13.499532 20.8973479,13.499532 C21.0770671,13.3360374 21.248674,13.2134165 21.3956319,13.1319813 C21.4202809,13.2380655 21.4608425,13.4343214 21.4692668,13.5978159 C21.4692668,13.6305772 21.4939158,13.6549142 21.5020281,13.5978159 C21.5266771,13.4180967 21.4939158,13.0911076 21.4939158,13.0829953 C21.6817473,12.9850234 21.7962559,12.9441498 21.7962559,12.9441498 C21.3054603,9.50390014 17.3020281,6.79937595 12.7101404,6.79937595 Z M9.61372854,15.8358815 C9.26864273,16.1163807 8.85865833,15.9631825 8.65772229,15.7051482 C8.42527299,15.4062403 8.44680185,14.9535102 8.78845552,14.6920437 C9.25179406,14.3379095 9.63338532,14.6767551 9.76068642,14.8636506 C9.76942277,14.875819 10.1391576,15.3806552 9.61372854,15.8358815 Z M9.67893915,11.5790952 L9.97316692,11.0234009 L10.3407176,13.2374415 L9.94851793,13.425273 L9.1803432,12.5266771 L9.62152885,11.6932917 L9.73603743,11.8321373 L9.67893915,11.5790952 Z M10.2589704,15.2477379 L10.250858,15.2396256 C10.3148206,15.1117005 10.1728549,15.0333854 9.70358813,14.250858 C9.6627145,14.1772231 9.60561621,14.1609985 9.56474258,14.1691108 L9.55663025,14.1528861 C9.80187206,13.9731669 10.0386895,13.8343214 10.349142,13.6627145 L10.3653666,13.6708268 C10.4062402,13.7279251 10.4305772,13.7606864 10.4714509,13.8177847 L10.4633385,13.8340094 C10.4305772,13.825897 10.3897036,13.8093604 10.299844,13.8421217 C10.2346334,13.8667707 10.0546022,13.9566303 9.91575662,14.0789392 L9.91575662,14.1198128 C9.96474258,14.1934477 10.0383775,14.324181 10.0954758,14.4221529 L10.1035881,14.4221529 C10.4171607,14.2262091 10.3394696,14.2801872 10.4630265,14.1769111 L10.4711388,14.1769111 C10.4873635,14.2340094 10.4873635,14.2340094 10.5282371,14.348518 L10.5201248,14.3566303 C10.424649,14.375663 10.375039,14.3672387 10.1606864,14.5282371 L10.1606864,14.5363495 C10.4558502,15.0673947 10.5042122,15.0589704 10.5528861,15.0346334 L10.5609984,15.0427457 C10.4879875,15.0923557 10.3653666,15.174103 10.2589704,15.2477379 Z M11.9831513,14.2346334 C11.8851794,14.2836194 11.7953198,14.324493 11.6726989,14.3900156 L11.6645866,14.3819033 C11.7048362,14.3010921 11.70078,14.2973479 11.2970359,13.3687988 L11.2889236,13.3606864 C11.2842434,13.3606864 11.0112324,13.474571 10.9784711,13.5893916 L10.9622465,13.5893916 L10.9294852,13.4096724 L10.9375975,13.3934477 C11.1650546,13.2511701 11.7341654,13.0302652 11.8037441,13.0012481 L11.8199688,13.0093604 L11.9179407,13.1647426 L11.9098284,13.1809672 C11.799688,13.126053 11.6804992,13.2046802 11.525741,13.2627145 L11.525741,13.2708268 C11.9098284,14.2695788 11.9210608,14.2268331 11.9831513,14.2268331 L11.9831513,14.2346334 Z M13.3800312,13.7198128 C13.249298,13.7525741 13.2165367,13.7606864 13.0776911,13.8096724 L13.0695788,13.8015601 L13.0858034,13.6627145 C13.0530421,13.5566303 12.9878315,13.3032761 12.9712949,13.2377535 L12.9631825,13.2296412 C12.8570983,13.2542902 12.6854914,13.3113885 12.5628705,13.3522621 L12.5547582,13.3603744 C12.5794072,13.4421217 12.6527301,13.6708268 12.6854914,13.7934477 C12.7101404,13.8670827 12.7425897,13.8833073 12.775351,13.8914197 L12.775351,13.9076443 C12.6608424,13.9404056 12.5547582,13.9893916 12.4567863,14.0302652 L12.4486739,14.0221529 C12.4814353,13.9812793 12.4814353,13.9322933 12.4567863,13.8667707 C12.424025,13.7687988 12.2034321,13.1232449 12.1706708,13.0171607 C12.1544462,12.9600624 12.1216849,12.9191888 12.0889236,12.9191888 L12.0889236,12.9029641 C12.1868955,12.8702028 12.2767551,12.8377535 12.424025,12.7968799 L12.4321373,12.8049922 L12.424025,12.9519501 C12.4648986,13.074571 12.4976599,13.1887676 12.5219969,13.2542902 L12.5301092,13.2542902 C12.6527301,13.2134165 12.824337,13.1644306 12.9304212,13.1316693 L12.9385335,13.1235569 L12.8567863,12.8293292 C12.8405616,12.7722309 12.824025,12.7232449 12.775039,12.7067083 L12.775039,12.6985959 C12.9138846,12.6658346 13.0037442,12.6414977 13.1101404,12.624961 L13.1182527,12.6330733 C13.0854914,12.673947 13.0854914,12.7229329 13.1020281,12.7719189 C13.151014,12.9678627 13.248986,13.4093604 13.2979719,13.5971919 C13.3148206,13.6789392 13.3556942,13.7035882 13.3800312,13.7198128 Z M14.3850234,13.5073323 L14.3769111,13.5154446 C14.2299532,13.5316693 13.9357254,13.5890796 13.674259,13.6461779 L13.6661467,13.6380655 L13.6907956,13.5073323 C13.6418097,13.2620905 13.5847114,12.9273011 13.5354134,12.6901716 C13.5273011,12.6330733 13.5107644,12.600312 13.4536662,12.575663 L13.4783151,12.5594384 C13.7644306,12.5104524 14.1073323,12.4858034 14.2546022,12.4776911 L14.2627145,12.4858034 C14.2789392,12.5594384 14.2873635,12.5837754 14.3117005,12.6574103 L14.3035882,12.6655226 C14.2680187,12.6299532 14.199376,12.5656786 13.7968799,12.6408736 L13.7887676,12.648986 C13.7968799,12.6979719 13.8215289,12.8533541 13.8377535,12.9594384 L13.8458658,12.9675507 C14.1429017,12.9151326 13.9943838,12.9656786 14.1809672,12.8939158 L14.1890796,12.8939158 C14.1890796,12.9429017 14.1809672,12.951014 14.1809672,13.0574103 L14.1728549,13.0574103 C14.0227769,13.025273 14.1057722,13.0293292 13.8542902,13.0574103 L13.8461779,13.0655226 C13.8542902,13.1307332 13.8951638,13.3597504 13.9113885,13.4577223 L13.9195008,13.4658346 C13.9553822,13.4776911 14.3628705,13.4455538 14.4262091,13.3188768 L14.4343214,13.3188768 C14.4177847,13.3931357 14.4015601,13.450234 14.3850234,13.5073323 Z M14.7201248,12.1185647 C14.5812793,12.1921997 14.4667707,12.2084243 14.3769111,12.2084243 C14.3691108,12.2090484 14.0209048,12.2424337 13.8296412,11.8979719 C13.6193448,11.5613105 13.799064,11.1117005 14.0012481,10.9092044 C14.275819,10.6558502 14.7297972,10.5940718 14.8917317,10.3781591 C15.1422777,10.0558502 14.4848674,9.68205927 13.9684867,10.1984399 L13.8867395,10.1085803 L14.050234,9.60187206 C14.848674,9.5528861 15.4605304,9.50702027 15.6109205,10.1085803 C15.6355694,10.2065523 15.6109205,10.4028081 15.6028081,10.4845554 C15.6028081,10.5663026 15.5457098,11.0726989 15.5375975,11.2034321 C15.5213729,11.3341654 15.5129485,11.775351 15.5129485,11.848986 C15.5210609,11.9226209 15.5291732,11.9797192 15.5619345,12.0205928 C15.6109205,12.0776911 15.7416537,12.0776911 15.7416537,12.0776911 L15.7170047,12.224649 C15.3482059,12.1912637 15.3962559,12.2062403 15.0795632,12.1918877 C14.9790952,12.0312012 15.0099844,12.0895476 14.94883,11.9466459 C14.94883,11.9469579 14.8180967,12.0695788 14.7201248,12.1185647 Z M15.8801872,12.7803432 C15.6820593,12.450234 15.2617785,12.5569423 15.2021841,12.9519501 C15.1201248,13.4848674 15.648362,13.5694228 15.8477379,13.2705148 L15.8558503,13.2786272 C15.8396256,13.3357254 15.798752,13.4664587 15.798752,13.474571 L15.7825273,13.4907956 C15.4611545,13.7051482 14.8932917,13.4127925 14.9819033,12.9107644 C15.0424337,12.5716069 15.4324493,12.3201248 15.8804992,12.600312 L15.8886116,12.6165367 C15.8886116,12.64961 15.8801872,12.7229329 15.8801872,12.7803432 Z M16.0602184,10.0430577 L16.0602184,9.83868954 C16.0817473,9.83868954 16.673323,9.94102963 16.9263651,10.0673947 L16.8773791,10.6146646 C16.8773791,10.6146646 17.1959439,10.3204368 17.3594384,10.2795632 C17.5229329,10.2305772 17.825273,10.5082683 17.825273,10.5082683 L17.473947,10.8595944 C17.0973479,10.6614665 16.8627145,10.8570983 16.8283932,10.8842434 C16.6633386,12.0923557 16.5600624,12.2 16.9672387,12.3223089 L16.9510141,12.4692668 C16.4034322,12.3354134 16.3728549,12.3288612 15.799064,12.2405616 L15.823713,12.0936037 C16.049922,12.0936037 16.0570983,11.9276131 16.0605304,11.8811232 C16.0605304,11.8811232 16.2159127,10.2224649 16.2159127,10.1572543 C16.2152886,10.0677067 16.0602184,10.0430577 16.0602184,10.0430577 Z M16.4031201,13.6137286 C16.149766,13.5485179 15.9619345,13.2705148 16.0680187,12.9681747 C16.1659907,12.673947 16.4521061,12.5840874 16.6561623,12.64961 C16.9422777,12.7313573 17.0564743,13.0171607 16.9912637,13.2542902 C16.9098284,13.5319813 16.6973479,13.6870515 16.4031201,13.6137286 Z M17.7185648,13.9160687 C17.6449298,13.899844 17.4979719,13.8424337 17.448986,13.8262091 L17.448986,13.8180967 L17.4979719,13.7609984 C17.5163807,13.5039002 17.5163807,13.5341654 17.5060843,13.524181 C17.3556943,13.4677067 17.298284,13.450546 17.2854914,13.450546 C17.2446178,13.5076443 17.1956319,13.5893916 17.1709829,13.6221529 L17.1463339,13.7282371 L17.1463339,13.7363495 C17.1054602,13.7282371 17.023713,13.6954758 16.9585024,13.6873635 L16.9585024,13.6792512 L17.0402496,13.6221529 C17.1463339,13.475195 17.3507021,13.1809672 17.473323,12.9931357 L17.473323,12.9279251 L17.4895476,12.9198128 C17.5547582,12.9444618 17.6611545,12.9850234 17.7263651,13.0096724 C17.7413417,13.024649 17.7319813,12.9513261 17.6936038,13.7940718 C17.6861155,13.850546 17.6942278,13.875195 17.7185648,13.9160687 Z M17.5716069,11.1135725 C17.9226209,10.5435257 18.5313573,10.6084243 18.6336974,11.0074883 L18.8705149,10.1903276 C18.9435258,9.9953198 18.7825273,9.88143525 18.7316693,9.83900155 L18.7887676,9.72449297 C19.1700468,10.0480499 19.299844,10.1603744 19.4914197,10.3619345 C18.6829954,12.6418097 18.5316693,12.8833073 18.723245,12.9928237 L18.6661467,13.1316693 C18.4673947,13.0271451 18.3884556,12.9937598 18.1104524,12.8620905 L18.1756631,12.64961 C18.1675507,12.6414977 18.0530422,12.7722309 17.873323,12.7641186 C17.2786272,12.7235569 17.1591264,11.7734789 17.5716069,11.1135725 Z M18.4867395,13.5890796 C18.4867395,13.4109204 18.2889236,13.3429017 18.2414977,13.425585 C18.2006241,13.4907956 18.274259,13.5809672 18.3313573,13.6870515 C18.3803432,13.7687988 18.4131046,13.8829953 18.3641186,13.9812793 C18.2817473,14.1790952 17.9772231,14.1469579 17.8820593,13.9566303 C17.8820593,13.9347894 17.873635,13.9594384 17.9391576,13.8096724 L17.9638066,13.8015601 C17.9460219,13.9781591 18.1528861,14.1014041 18.225273,13.9569423 C18.2580344,13.8917317 18.2090484,13.7853354 18.1600624,13.6954758 C18.1110765,13.6137286 18.0455539,13.499532 18.1029641,13.3931357 C18.1878315,13.2352574 18.4539782,13.2536662 18.5603744,13.4667707 L18.5603744,13.4829953 L18.4867395,13.5890796 Z M19.148518,14.0059282 C19.0873635,13.9039002 19.1201248,13.9391576 19.0096724,13.8589704 L19.0015601,13.8589704 C18.9279252,13.9897036 18.8218409,14.1856474 18.7319813,14.3656786 C18.6911077,14.4393136 18.69922,14.4717629 18.7073323,14.4882995 L18.69922,14.4964119 L18.5195008,14.3575663 L18.5276131,14.349454 L18.5928237,14.3085804 C18.6907957,14.1288612 18.7971919,13.9326053 18.8789392,13.7775351 L18.8789392,13.7694228 C18.7965679,13.7076443 18.8408737,13.7223089 18.6911077,13.7123245 L18.6911077,13.7042122 L18.7890796,13.5981279 L18.7971919,13.5981279 C18.9117005,13.6717629 19.1076443,13.8106084 19.1812793,13.875819 L19.1893916,13.8839314 L19.148518,14.0059282 Z M19.998128,12.624961 L19.9082684,12.5351014 C19.9329174,12.4614665 19.9653667,12.3797192 19.973479,12.2982839 C19.9968799,11.9943838 19.6140406,11.9288612 19.6140406,12.1429017 C19.6140406,12.2982839 19.8592824,12.7475819 19.8592824,13.0090484 C19.8592824,13.3276131 19.6795632,13.49922 19.4262091,13.523869 C19.1647426,13.5485179 18.7971919,13.1971919 18.7971919,13.1971919 L18.9525741,12.7478939 L19.0424337,12.8131045 C18.949766,13.3684867 19.5940718,13.448674 19.4589704,12.9765991 C19.4258971,12.8511701 18.873947,11.9095164 19.524181,11.7837753 C19.949142,11.7101404 20.2430578,12.2985959 20.2430578,12.2985959 L19.998128,12.624961 Z M21.1095164,12.3063963 C20.7663027,11.3585023 19.2221529,8.32730107 15.1204368,8.26209046 C13.4536662,8.22932915 12.1790952,8.74414975 10.9781591,9.44680186 L13.649922,9.16068641 L10.7984399,9.80624024 L11.5828393,10.4190328 L11.4602184,9.90421216 C11.6942278,9.85085802 12.6817473,9.64056161 13.5435257,9.62652105 L12.848986,12.1347894 C13.273635,12.1129485 13.4408736,11.8546022 13.4617785,11.424025 L13.6171607,11.3912636 L13.625273,12.224649 C12.924493,12.324805 12.4614665,12.4333853 12.0811232,12.5351014 L12.4895476,11.1868955 L10.5694228,10.0430577 L10.6430577,10.2964118 L10.9616225,10.4517941 C11.1575663,11.0318253 11.5663026,12.2165367 11.599064,12.2820593 C11.6599064,12.4156006 11.6976599,12.4624025 11.975039,12.4209048 L12.0078003,12.5762871 C11.5060842,12.7279251 11.2695788,12.8137286 10.7903276,13.025585 L10.7166927,12.8786271 C10.8539782,12.7868955 10.9890796,12.7556942 10.8882995,12.4783151 C10.1488299,10.5282371 10.2180967,10.6642746 10.1775351,10.6237129 L10.25117,10.4848674 L11.2970359,12.5847114 C11.1772231,12.2143526 11.349454,12.6374415 10.2677067,10.125429 L8.9603744,12.8870515 L9.10733228,12.4539782 L7.98783149,11.1385335 L8.85397814,14.0552262 L8.48642744,14.3166927 C4.99531978,11.1444618 5.18408733,11.2471139 4.94009357,11.2361934 C4.7684867,11.2280811 4.51513257,11.4078003 4.51513257,11.4078003 L4.35975035,11.2199688 C5.3132605,10.4858034 5.34633382,10.4608424 6.18190325,9.88829952 L6.31263648,10.1088923 C6.31263648,10.1088923 6.13291729,10.2396256 6.06739467,10.3294852 C5.8833073,10.6190328 6.11950075,10.7438377 7.99563181,12.6907956 L7.40748828,10.8524181 L8.64929796,10.5338533 L9.44992198,11.4898596 L9.58876754,11.1057722 L9.43338532,10.3375975 L9.84180966,10.2315133 L9.85803431,10.3294852 L9.97254289,10.0028081 L7.03120122,10.9179407 L7.38252728,10.7625585 L6.95756628,9.43900155 L7.49672385,9.1528861 L8.43619343,10.2804992 L9.32667705,9.87207487 C9.28268329,9.63900155 9.24960997,9.41965677 9.17971917,9.25928236 L9.71887674,9.69235568 L9.86583462,9.62714507 L8.01934475,8.2954758 L8.73946956,8.65429015 C9.33166925,8.46489858 9.52667705,8.42121683 9.74446177,8.35195006 L9.82620904,8.69516379 C9.43463337,9.08673946 9.87082682,9.21996878 10.0305772,9.29984398 L9.60561621,7.39625583 L9.98159125,8.27862713 C10.1123245,8.23775349 10.2102964,8.21341652 10.2102964,8.21341652 L10.2920437,8.4829953 C10.2920437,8.4829953 10.1940718,8.51575661 10.0960998,8.54820591 L10.3737909,9.20187206 L11.4277691,7.15101402 L10.7822153,9.05460217 C12.1057722,8.3029641 13.3232449,7.91076441 14.900156,7.93510138 C16.9918877,7.96786269 20.1210609,9.20967237 21.1341654,12.2979719 C21.1585024,12.3634945 21.1338534,12.3800312 21.1095164,12.3063963 Z M8.38003118,8.76848672 C8.38003118,8.76848672 8.43712947,8.75226207 8.51076441,8.72761309 L8.80499218,8.96443056 C8.79251168,8.96443056 8.69765989,8.95663025 8.45366613,9.03806551 L8.38003118,8.76848672 Z M12.8655226,9.96973478 C12.8165367,9.95101403 12.0399376,9.81965678 11.8277691,10.6152886 L12.5057722,11.1463338 L12.8655226,9.96973478 Z M11.9666147,6.10514818 C10.1444618,6.10514818 8.65772229,6.48112322 8.37971917,6.55444615 L8.37971917,6.57909514 C8.64118563,6.64430575 8.82901714,6.70982837 9.04149765,6.94664584 L9.0904836,6.95475817 C9.29485178,6.89765988 10.6184087,6.52168484 12.5301092,6.52168484 C18.1513261,6.52168484 21.9425898,10.1656786 21.9425898,13.4911077 L21.9425898,13.8015601 C21.9425898,13.8424337 21.9672387,13.8833073 21.9753511,13.8177847 C21.9915757,13.7525741 22.0000001,13.5482059 22.0000001,13.2049922 C22.0081124,10.5906396 18.9850234,6.10514818 11.9666147,6.10514818 Z M18.5519501,11.399376 C18.5928237,11.2196568 18.5519501,11.0152886 18.323245,10.9909516 C18.023089,10.9556942 17.8196568,11.7332293 17.7921997,12.0368175 C17.7675507,12.2084243 17.7513261,12.5026521 17.9800312,12.5026521 C18.1260531,12.5023401 18.2833074,12.474259 18.5519501,11.399376 Z M16.6321373,12.7394696 C16.55039,12.7148206 16.3379095,12.7148206 16.2399376,13.0661467 C16.1828393,13.2786272 16.2561623,13.4826833 16.4277691,13.5235569 C16.5422777,13.5563183 16.7054602,13.5397816 16.7953198,13.1884555 C16.8770671,12.8783151 16.7382216,12.7638066 16.6321373,12.7394696 Z M17.3510141,13.3931357 C17.4081124,13.4093604 17.448986,13.425897 17.5307333,13.450234 C17.5307333,13.3931357 17.5469579,13.1887676 17.5553822,13.074259 C17.5226209,13.1151326 17.3837754,13.3276131 17.3510141,13.3847114 L17.3510141,13.3931357 Z" id="path-1"></path>
    </defs>
    <g id="wizards-of-the-coast" stroke="none" stroke-width="1" fill="none" fill-rule="evenodd">
        <mask id="mask-2" fill="white">
            <use xlink:href="#path-1"></use>
        </mask>
        <g fill-rule="nonzero"></g>
        <g id="🎨-color" mask="url(#mask-2)" fill="#000000">
            <rect id="🎨-Color" x="0" y="0" width="24" height="24"></rect>
        </g>
    </g>
</svg>