<?xml version="1.0" encoding="UTF-8"?>
<svg width="24px" height="24px" viewBox="0 0 24 24" version="1.1" xmlns="http://www.w3.org/2000/svg" xmlns:xlink="http://www.w3.org/1999/xlink">
    <!-- Generator: Sketch 52.5 (67469) - http://www.bohemiancoding.com/sketch -->
    <title>wolf-pack-battalion</title>
    <desc>Created with Sketch.</desc>
    <defs>
        <path d="M12.4386719,20.4191407 L12.8511719,21.0378907 L13.0574219,20.5566407 L13.2636719,20.8316407 L13.2636719,22.0000001 C14.0863281,21.690625 14.0882813,19.3882813 14.2601563,18.2027344 C14.440625,16.9570313 14.2257813,14.5773438 17.4386719,12.378125 C17.0917969,11.4558594 16.9699219,10.4472656 17.3355469,9.25117186 C18.4242188,9.38164061 19.4425782,9.66445311 19.8097657,11.3644531 L18.6242188,11.6910156 C19.0597657,12.5910156 19.2886719,13.5175781 19.1398438,14.5089844 L18.0742188,14.2335938 L17.8335938,15.5394531 L17.1121094,15.2644531 L16.7683594,16.5703125 L16.0125,16.2953125 L17.0433594,17.1199219 L17.3871094,16.0203125 L18.3492188,16.2265625 L18.6242188,14.8347656 L19.6550782,15.4019531 C19.6648438,14.6199219 19.9273438,13.1339844 19.3113282,12.103125 L20.3421875,12.309375 C20.4980469,11.4472656 20.2492188,10.7777344 20.0328125,10.0929687 L20.9089844,10.4710937 C20.8917969,9.49179686 19.7394532,8.25273436 18.5035157,8.18593748 C17.7136719,8.14335936 16.2871094,7.20273435 16.3902344,6.15859372 C16.4667969,5.38242184 17.071875,4.49374996 18.0742188,4.21718746 C16.3558594,5.64335934 17.6960938,6.84609372 18.2804688,7.08671873 C18.4523438,6.63984372 18.965625,4.38828121 18.2804688,2.0007812 C16.6996094,2.89414058 14.7753906,4.54374996 14.6378906,7.7738281 L12.3699219,9.28593749 L12.2324219,12.9285156 L16.425,10.5917969 L16.7,10.8667969 L16.0128906,11.0042969 L14.2945313,12.5164063 L13.6757813,12.3101563 L12.5761719,14.234375 L12.4386719,18.9078125 L13.2632813,19.5265625 L11.9917969,20.1453125 L10.7203125,19.5265625 L11.5449219,18.9078125 L11.4074219,14.234375 L10.3078125,12.3101563 L9.68906249,12.5164063 L7.9707031,11.0042969 L7.28359373,10.8667969 L7.55859373,10.5917969 L11.7511719,12.9285156 L11.6136719,9.28593749 L9.34570311,7.7738281 C9.20820311,4.54296871 7.28398435,2.89335933 5.70312497,1.99999995 C5.01796872,4.38749996 5.53124997,6.63906247 5.70312497,7.08593748 C6.28749997,6.84531247 7.62734373,5.64257809 5.90937497,4.21640621 C6.91171872,4.49296871 7.51679685,5.38164059 7.59335935,6.15781247 C7.69609373,7.20234373 6.26992185,8.14257811 5.48007809,8.18515623 C4.24374996,8.25234373 3.09140621,9.49140624 3.07421871,10.4707031 L3.95039058,10.0925781 C3.73398433,10.7773437 3.48515621,11.446875 3.64101558,12.3089844 L4.67187496,12.1027344 C4.05624996,13.1335938 4.31835934,14.6195313 4.32812496,15.4015625 L5.35898434,14.834375 L5.63398434,16.2261719 L6.59609372,16.0199219 L6.93984372,17.1195313 L7.9707031,16.2949219 L7.21523435,16.5703125 L6.87148435,15.2644531 L6.14999997,15.5394531 L5.90937497,14.2335938 L4.84414059,14.5085938 C4.69492184,13.5171875 4.92421871,12.590625 5.35976559,11.690625 L4.17421871,11.3640625 C4.54140621,9.66406249 5.55976559,9.38085936 6.64843747,9.25078124 C7.01406248,10.446875 6.89218747,11.4558594 6.54531247,12.3777344 C9.75820311,14.5769531 9.54335936,16.9570313 9.72382811,18.2023438 C9.89570311,19.3878907 9.89765624,21.6902344 10.7203125,21.9996094 L10.7203125,20.83125 L10.9265625,20.55625 L11.1328125,21.0375 L11.5453125,20.41875 L11.9921875,21.2433594 L12.4386719,20.4191407 Z M15.53125,16.7078125 L14.9125,16.2953125 C15.2042969,16.125 15.45,15.9664063 15.6683594,15.8140625 C15.6449219,16.0976563 15.6578125,16.35625 15.53125,16.7078125 Z M16.6308594,14.7835938 C16.6152344,15.2109375 16.5957031,15.6296875 16.5621094,16.0207031 C16.2554688,15.9480469 15.9539063,15.8722656 15.7375,15.7457031 C16.059375,15.4371094 16.3449219,15.1101563 16.6308594,14.7835938 Z M17.5929688,14.9898438 C17.5921875,14.4652344 17.5128907,14.0441406 17.3867188,13.6839844 C17.1765625,14.0390625 16.9480469,14.3941406 16.6652344,14.7492188 L17.5929688,14.9898438 Z M17.7304688,11.828125 C18.4898438,12.3285156 18.8164063,13.1429688 18.8988282,14.0273438 C18.4175782,13.8503906 17.9367188,13.6636719 17.4554688,13.6148438 C17.653125,13.1464844 17.7152344,12.515625 17.7304688,11.828125 Z M17.6617188,10.0414062 C17.6933594,10.6 17.7335938,11.1671875 17.7304688,11.6910156 C18.48125,11.3742187 18.89375,11.3113281 19.4488282,11.1410156 C19.0347657,10.4007812 18.3855469,10.1441406 17.6617188,10.0414062 Z M8.45234373,16.7078125 L9.07109374,16.2953125 C8.77929686,16.125 8.53359373,15.9664063 8.31523436,15.8140625 C8.33867186,16.0976563 8.32578123,16.35625 8.45234373,16.7078125 Z M7.35273435,14.7835938 C7.36835935,15.2109375 7.3878906,15.6296875 7.42148435,16.0207031 C7.72812498,15.9480469 8.02968748,15.8722656 8.24609373,15.7457031 C7.92421873,15.4371094 7.63867185,15.1101563 7.35273435,14.7835938 Z M6.39023435,14.9898438 C6.3910156,14.4652344 6.47031247,14.0441406 6.59648435,13.6839844 C6.8066406,14.0390625 7.03515623,14.3941406 7.31796873,14.7492188 L6.39023435,14.9898438 Z M6.25273435,11.828125 C5.49335934,12.3285156 5.16679684,13.1429688 5.08437497,14.0273438 C5.56562497,13.8503906 6.04648435,13.6636719 6.52773435,13.6148438 C6.33046872,13.1464844 6.26796872,12.515625 6.25273435,11.828125 Z M6.32148435,10.0414062 C6.28984372,10.6 6.24960935,11.1671875 6.25273435,11.6910156 C5.50195309,11.3742187 5.08945309,11.3113281 4.53437496,11.1410156 C4.94882809,10.4007812 5.59765622,10.1441406 6.32148435,10.0414062 Z" id="path-1"></path>
    </defs>
    <g id="wolf-pack-battalion" stroke="none" stroke-width="1" fill="none" fill-rule="evenodd">
        <mask id="mask-2" fill="white">
            <use xlink:href="#path-1"></use>
        </mask>
        <g fill-rule="nonzero"></g>
        <g id="🎨-color" mask="url(#mask-2)" fill="#000000">
            <rect id="🎨-Color" x="0" y="0" width="24" height="24"></rect>
        </g>
    </g>
</svg>