<?xml version="1.0" encoding="UTF-8"?>
<svg width="24px" height="24px" viewBox="0 0 24 24" version="1.1" xmlns="http://www.w3.org/2000/svg" xmlns:xlink="http://www.w3.org/1999/xlink">
    <!-- Generator: Sketch 52.5 (67469) - http://www.bohemiancoding.com/sketch -->
    <title>won-sign</title>
    <desc>Created with Sketch.</desc>
    <defs>
        <path d="M21.5833334,9.77777777 C21.8134375,9.77777777 22.0000001,9.59121527 22.0000001,9.3611111 L22.0000001,7.9722222 C22.0000001,7.74211803 21.8134375,7.55555553 21.5833334,7.55555553 L19.9156945,7.55555553 L20.5605556,4.75659719 C20.6206945,4.49555552 20.4224306,4.24638885 20.1545487,4.24638885 L18.5536111,4.24638885 C18.3569456,4.2463737 18.1870572,4.38389418 18.1461111,4.57624996 L17.6503473,7.55555553 L13.8346875,7.55555553 L13.1497917,4.5698958 C13.1063663,4.38058804 12.9379051,4.24639238 12.7436806,4.24638885 L11.2163194,4.24638885 C11.0226247,4.24638837 10.8544734,4.37986489 10.8105208,4.56850691 L10.1144444,7.55555553 L6.33940969,7.55555553 L5.73263886,4.57982635 C5.6930671,4.3857967 5.52239877,4.24642289 5.32437497,4.24642357 L3.86208329,4.24642357 C3.59520829,4.24642357 3.39715273,4.49378468 3.45552079,4.75420135 L4.08333329,7.55555553 L2.41666662,7.55555553 C2.18656245,7.55555553 1.99999995,7.74211803 1.99999995,7.9722222 L1.99999995,9.3611111 C1.99999995,9.59121527 2.18656245,9.77777777 2.41666662,9.77777777 L4.58131941,9.77777777 L4.83031246,10.8888889 L2.41666662,10.8888889 C2.18656245,10.8888889 1.99999995,11.0754514 1.99999995,11.3055556 L1.99999995,12.6944444 C1.99999995,12.9245486 2.18656245,13.1111111 2.41666662,13.1111111 L5.3283333,13.1111111 L6.7494097,19.4522223 C6.79205097,19.6425089 6.96096639,19.7777681 7.1559722,19.7777778 L9.1270486,19.7777778 C9.32090276,19.7777778 9.48913193,19.6440973 9.53291665,19.4552778 L11.0046875,13.1111111 L12.9173958,13.1111111 L14.389132,19.4552778 C14.4329385,19.6440969 14.6011659,19.7777693 14.795,19.7777778 L16.768125,19.7777778 C16.9622099,19.7777828 17.1305946,19.6437835 17.1741667,19.4546528 L18.6356945,13.1111111 L21.5833334,13.1111111 C21.8134375,13.1111111 22.0000001,12.9245486 22.0000001,12.6944444 L22.0000001,11.3055556 C22.0000001,11.0754514 21.8134375,10.8888889 21.5833334,10.8888889 L19.1477084,10.8888889 L19.4037153,9.77777777 L21.5833334,9.77777777 Z M6.79249997,9.77777777 L9.59656249,9.77777777 L9.33763888,10.8888889 L7.01902775,10.8888889 L6.79249997,9.77777777 Z M8.38263887,14.9871181 C8.16756943,15.8840278 8.14798609,16.6277431 8.12843748,16.6277431 L8.08934026,16.6277431 C8.08934026,16.6277431 8.03069442,15.8621181 7.85468748,14.9871181 L7.47218748,13.1111111 L8.81982637,13.1111111 L8.38263887,14.9871181 Z M11.5202083,10.8888889 L11.5895139,10.5902083 C11.6539583,10.31375 11.7095486,10.0357639 11.7562847,9.77777777 L12.1657986,9.77777777 C12.2125694,10.0357639 12.268125,10.31375 12.3325694,10.5902083 L12.401875,10.8888889 L11.5202083,10.8888889 Z M16.0673959,14.9871181 C15.8914236,15.8621181 15.8327431,16.6277431 15.8327431,16.6277431 L15.7936459,16.6277431 C15.7740972,16.6277431 15.7545486,15.8839931 15.5394445,14.9871181 L15.1090972,13.1111111 L16.4669792,13.1111111 L16.0673959,14.9871181 Z M16.9403125,10.8888889 L14.5993403,10.8888889 L14.3444792,9.77777777 L17.1770139,9.77777777 L16.9403125,10.8888889 Z" id="path-1"></path>
    </defs>
    <g id="won-sign" stroke="none" stroke-width="1" fill="none" fill-rule="evenodd">
        <mask id="mask-2" fill="white">
            <use xlink:href="#path-1"></use>
        </mask>
        <g fill-rule="nonzero"></g>
        <g id="🎨-color" mask="url(#mask-2)" fill="#000000">
            <rect id="🎨-Color" x="0" y="0" width="24" height="24"></rect>
        </g>
    </g>
</svg>