<?xml version="1.0" encoding="UTF-8"?>
<svg width="24px" height="24px" viewBox="0 0 24 24" version="1.1" xmlns="http://www.w3.org/2000/svg" xmlns:xlink="http://www.w3.org/1999/xlink">
    <!-- Generator: Sketch 52.5 (67469) - http://www.bohemiancoding.com/sketch -->
    <title>wordpress</title>
    <desc>Created with Sketch.</desc>
    <defs>
        <path d="M4.41015621,8.61718748 L8.37499998,19.4765625 C5.60156247,18.1328125 3.69140621,15.2890625 3.69140621,12 C3.69140621,10.7929687 3.94921871,9.65234374 4.41015621,8.61718748 Z M17.609375,11.5820312 C17.609375,10.5546875 17.2421875,9.84374999 16.9257813,9.28906249 C16.5039063,8.60546873 16.109375,8.02343748 16.109375,7.33984373 C16.109375,6.57421872 16.6875,5.86328122 17.5039063,5.86328122 C17.5390625,5.86328122 17.5742188,5.86718747 17.6132813,5.87109372 C16.1328125,4.51562496 14.1640625,3.68749996 12,3.68749996 C9.09765624,3.68749996 6.54296872,5.17578122 5.05468747,7.43359373 C5.24999997,7.44140623 5.43359372,7.44531248 5.58984372,7.44531248 C6.45703122,7.44531248 7.80468748,7.33984373 7.80468748,7.33984373 C8.25390623,7.31249998 8.30468748,7.97265623 7.85937498,8.02343748 C7.85937498,8.02343748 7.41015623,8.07421873 6.91015622,8.10156248 L9.93749999,17.1015625 L11.7578125,11.6484375 L10.4648437,8.10156248 C10.015625,8.07421873 9.59374999,8.02343748 9.59374999,8.02343748 C9.14453124,7.99609373 9.19921874,7.31249998 9.64453124,7.33984373 C9.64453124,7.33984373 11.015625,7.44531248 11.8320312,7.44531248 C12.6992188,7.44531248 14.046875,7.33984373 14.046875,7.33984373 C14.4960938,7.31249998 14.546875,7.97265623 14.1015625,8.02343748 C14.1015625,8.02343748 13.6523438,8.07421873 13.1523438,8.10156248 L16.15625,17.0351563 L16.984375,14.265625 C17.3359375,13.1171875 17.609375,12.2929688 17.609375,11.5820312 Z M12.1445313,12.7265625 L9.65234374,19.9726563 C10.3984375,20.1914063 11.1835937,20.3125 12,20.3125 C12.96875,20.3125 13.8945313,20.1445313 14.7578125,19.8398438 C14.734375,19.8046875 14.7148438,19.765625 14.6992188,19.7265625 L12.1445313,12.7265625 Z M19.2929688,8.01171873 C19.328125,8.27734373 19.3476563,8.55859373 19.3476563,8.86718748 C19.3476563,9.71093749 19.1914063,10.65625 18.7148438,11.84375 L16.1757813,19.1835938 C18.6484375,17.7421875 20.3085938,15.0664063 20.3085938,12 C20.3085938,10.5546875 19.9414063,9.19531249 19.2929688,8.01171873 Z M21.6875,12 C21.6875,17.34375 17.3398438,21.6875 12,21.6875 C6.65624997,21.6875 2.31249995,17.3398438 2.31249995,12 C2.31249995,6.65624997 6.65624997,2.31249995 12,2.31249995 C17.3398438,2.31249995 21.6875,6.65624997 21.6875,12 Z M21.2421875,12 C21.2421875,6.90234372 17.09375,2.75781245 12,2.75781245 C6.90234372,2.75781245 2.75781245,6.90234372 2.75781245,12 C2.75781245,17.0976563 6.90624997,21.2421875 12,21.2421875 C17.0976563,21.2421875 21.2421875,17.0976563 21.2421875,12 Z" id="path-1"></path>
    </defs>
    <g id="wordpress" stroke="none" stroke-width="1" fill="none" fill-rule="evenodd">
        <mask id="mask-2" fill="white">
            <use xlink:href="#path-1"></use>
        </mask>
        <g fill-rule="nonzero"></g>
        <g id="🎨-color" mask="url(#mask-2)" fill="#000000">
            <rect id="🎨-Color" x="0" y="0" width="24" height="24"></rect>
        </g>
    </g>
</svg>