<?xml version="1.0" encoding="UTF-8"?>
<svg width="24px" height="24px" viewBox="0 0 24 24" version="1.1" xmlns="http://www.w3.org/2000/svg" xmlns:xlink="http://www.w3.org/1999/xlink">
    <!-- Generator: Sketch 52.5 (67469) - http://www.bohemiancoding.com/sketch -->
    <title>wpbeginner</title>
    <desc>Created with Sketch.</desc>
    <defs>
        <path d="M20.078086,14.5927344 C22.2738282,17.1047657 20.2406641,20.75 16.49,20.75 C14.9430469,20.75 13.4109375,20.0591016 12.5782031,18.7953125 C12.3091797,18.8092188 11.6914062,18.8092188 11.4223437,18.7953125 C10.5878125,20.0617579 9.05421874,20.75 7.51050779,20.75 C3.78042965,20.75 1.71566401,17.1173438 3.92242183,14.5927344 C0.831054632,9.44230467 5.1437109,3.24999996 12.0002344,3.24999996 C18.8608594,3.24999996 23.1670313,9.44632811 20.078086,14.5927344 Z M6.81062497,11.3516406 L8.43285154,11.3516406 L8.43285154,9.08308592 L6.81062497,9.08308592 L6.81062497,11.3516406 Z M15.2942188,14.7138281 L15.2942188,13.7826172 C12.9307031,14.5996094 10.1241016,14.1419141 7.96652342,12.455625 L7.97613279,13.4281641 C9.97226561,15.239375 13.1224609,15.6889063 15.2942188,14.7138281 Z M9.40542967,11.3516406 L15.8920703,11.3516406 L15.8920703,9.08308592 L9.40542967,9.08308592 L9.40542967,11.3516406 Z" id="path-1"></path>
    </defs>
    <g id="wpbeginner" stroke="none" stroke-width="1" fill="none" fill-rule="evenodd">
        <mask id="mask-2" fill="white">
            <use xlink:href="#path-1"></use>
        </mask>
        <g fill-rule="nonzero"></g>
        <g id="🎨-color" mask="url(#mask-2)" fill="#000000">
            <rect id="🎨-Color" x="0" y="0" width="24" height="24"></rect>
        </g>
    </g>
</svg>