<?xml version="1.0" encoding="UTF-8"?>
<svg width="24px" height="24px" viewBox="0 0 24 24" version="1.1" xmlns="http://www.w3.org/2000/svg" xmlns:xlink="http://www.w3.org/1999/xlink">
    <!-- Generator: Sketch 52.5 (67469) - http://www.bohemiancoding.com/sketch -->
    <title>wpexplorer</title>
    <desc>Created with Sketch.</desc>
    <defs>
        <path d="M22.0000001,12 C22.0000001,17.515625 17.5195313,22.0000001 12,22.0000001 C6.48437497,22.0000001 1.99999995,17.5195313 1.99999995,12 C1.99999995,6.48046872 6.48046872,1.99999995 12,1.99999995 C17.5195313,1.99999995 22.0000001,6.48046872 22.0000001,12 Z M20.75,12 C20.75,7.18749998 16.8320313,3.24999996 12,3.24999996 C7.17578123,3.24999996 3.24999996,7.17578123 3.24999996,12 C3.24999996,16.8242188 7.17578123,20.75 12,20.75 C16.8242188,20.75 20.75,16.8242188 20.75,12 Z M8.28515623,6.86718747 L11.6796875,8.31640623 L10.2304687,11.7109375 L6.83593747,10.2617187 L8.28515623,6.86718747 Z M12.5820313,13.4726563 L14.4023438,17.1445313 L13.8320313,17.1445313 L11.8789062,13.2382813 L9.96874999,17.1445313 L9.42187499,17.1445313 L11.4179687,12.96875 L10.546875,12.6015625 L10.78125,12.0546875 L13.4609375,13.1914063 L13.2265625,13.75 L12.5820313,13.4726563 Z M12.1210938,8.92968748 L14.8007813,10.078125 L13.6523438,12.7460938 L10.984375,11.609375 L12.1210938,8.92968748 Z M15.2578125,10.6054687 L17.390625,11.5078125 L16.4765625,13.6289063 L14.3554688,12.7265625 L15.2578125,10.6054687 Z" id="path-1"></path>
    </defs>
    <g id="wpexplorer" stroke="none" stroke-width="1" fill="none" fill-rule="evenodd">
        <mask id="mask-2" fill="white">
            <use xlink:href="#path-1"></use>
        </mask>
        <g fill-rule="nonzero"></g>
        <g id="🎨-color" mask="url(#mask-2)" fill="#000000">
            <rect id="🎨-Color" x="0" y="0" width="24" height="24"></rect>
        </g>
    </g>
</svg>