<?xml version="1.0" encoding="UTF-8"?>
<svg width="24px" height="24px" viewBox="0 0 24 24" version="1.1" xmlns="http://www.w3.org/2000/svg" xmlns:xlink="http://www.w3.org/1999/xlink">
    <!-- Generator: Sketch 52.5 (67469) - http://www.bohemiancoding.com/sketch -->
    <title>wpforms</title>
    <desc>Created with Sketch.</desc>
    <defs>
        <path d="M20.75,4.93749996 L20.75,19.0664063 C20.75,20.015625 20.0078125,20.7539063 19.0625,20.7539063 L4.93749996,20.7539063 C4.00390621,20.75 3.24999996,20.0234375 3.24999996,19.0625 L3.24999996,4.93749996 C3.24999996,3.99609371 3.98437496,3.24999996 4.93749996,3.24999996 L19.0664063,3.24999996 C20.0039063,3.24999996 20.75,3.98437496 20.75,4.93749996 Z M19.2929688,19.0625 L19.2929688,4.93749996 C19.2929688,4.82031246 19.1914063,4.71093746 19.0664063,4.71093746 L18.703125,4.71093746 L14.3945313,7.62499998 L12,5.67578122 L9.60937499,7.62499998 L5.30078122,4.70703121 L4.93749996,4.70703121 C4.81249996,4.70703121 4.71093746,4.81640621 4.71093746,4.93359371 L4.71093746,19.0625 C4.71093746,19.1796875 4.81249996,19.2890625 4.93749996,19.2890625 L19.0664063,19.2890625 C19.1914063,19.2929688 19.2929688,19.1835938 19.2929688,19.0625 Z M9.11718749,9.26562499 L9.11718749,10.7109375 L6.24609372,10.7109375 L6.24609372,9.26562499 L9.11718749,9.26562499 Z M9.11718749,12.171875 L9.11718749,13.6289063 L6.24609372,13.6289063 L6.24609372,12.171875 L9.11718749,12.171875 Z M9.55078124,6.41796872 L11.6601562,4.71093746 L7.03124998,4.71093746 L9.55078124,6.41796872 Z M17.7539063,9.26562499 L17.7539063,10.7109375 L10.0976562,10.7109375 L10.0976562,9.26562499 L17.7539063,9.26562499 Z M17.7539063,12.171875 L17.7539063,13.6289063 L10.0976562,13.6289063 L10.0976562,12.171875 L17.7539063,12.171875 Z M14.4492188,6.41796872 L16.96875,4.71093746 L12.34375,4.71093746 L14.4492188,6.41796872 Z M17.7539063,15.0859375 L17.7539063,16.5429688 L13.8710938,16.5429688 L13.8710938,15.0859375 L17.7539063,15.0859375 Z" id="path-1"></path>
    </defs>
    <g id="wpforms" stroke="none" stroke-width="1" fill="none" fill-rule="evenodd">
        <mask id="mask-2" fill="white">
            <use xlink:href="#path-1"></use>
        </mask>
        <g fill-rule="nonzero"></g>
        <g id="🎨-color" mask="url(#mask-2)" fill="#000000">
            <rect id="🎨-Color" x="0" y="0" width="24" height="24"></rect>
        </g>
    </g>
</svg>