<?xml version="1.0" encoding="UTF-8"?>
<svg width="24px" height="24px" viewBox="0 0 24 24" version="1.1" xmlns="http://www.w3.org/2000/svg" xmlns:xlink="http://www.w3.org/1999/xlink">
    <!-- Generator: Sketch 52.5 (67469) - http://www.bohemiancoding.com/sketch -->
    <title>wpressr</title>
    <desc>Created with Sketch.</desc>
    <defs>
        <path d="M12,2.31249995 C6.64960935,2.31249995 2.31249995,6.64960935 2.31249995,12 C2.31249995,17.3503907 6.64960935,21.6875 12,21.6875 C17.3503907,21.6875 21.6875,17.3503907 21.6875,12 C21.6875,6.64960935 17.3503907,2.31249995 12,2.31249995 Z M18.6925782,8.50781248 C18.0996094,9.85585936 17.50625,11.2039062 16.9101563,12.5507813 C16.8148438,12.7660156 16.6410156,12.8726563 16.4035156,12.8726563 C15.5042969,12.8722656 14.6054688,12.875 13.70625,12.8707031 C13.50625,12.8695313 13.3839844,12.9445313 13.3023438,13.1332031 C12.9042969,14.0535156 12.4964844,14.9691406 12.0933594,15.8871094 C12.0332031,16.0242188 11.9347656,16.09375 11.7839844,16.09375 C9.98945311,16.0933594 8.19531248,16.0929688 6.40078122,16.09375 C6.2785156,16.09375 6.18085935,16.0488281 6.09921872,15.9589844 C5.66132809,15.4773438 5.22187497,14.996875 4.78359371,14.5160156 C4.67851559,14.4007813 4.67460934,14.2746094 4.73632809,14.1359375 C5.07460934,13.3726563 5.41093747,12.6085938 5.74765622,11.8445312 C6.25273435,10.6980469 6.75898435,9.55195311 7.2613281,8.40390623 C7.32773435,8.25234373 7.4285156,8.18203123 7.59492185,8.18320311 C8.15117186,8.18710936 8.70742186,8.18398436 9.26367186,8.18515623 C9.50742186,8.18554686 9.62304686,8.37421873 9.52382811,8.59882811 C8.99257811,9.80078124 8.46249998,11.003125 7.93242185,12.2054688 C7.70898435,12.7128906 7.4863281,13.2207031 7.26484373,13.7289063 C7.11210935,14.0785156 7.54140623,14.1964844 7.6925781,13.9476563 C7.70156248,13.9332031 7.63710935,14.1109375 8.86484373,11.3035156 C8.91796873,11.1824219 8.99804686,11.1316406 9.12929686,11.1320312 C9.72343749,11.1351562 10.3179687,11.1328125 10.9121094,11.1335937 C11.1292969,11.1339844 11.2210937,11.2757812 11.1332031,11.4753906 C10.8078125,12.2160156 10.4804687,12.9558594 10.1574219,13.6976563 C9.96289061,14.1441406 10.4730469,14.1855469 10.5980469,13.9058594 C10.5996094,13.9027344 11.6875,11.4320312 11.8554687,11.0480469 C11.934375,10.8679687 12.0679688,10.79375 12.2597656,10.7941406 C13.2921875,10.7960937 14.3246094,10.7941406 15.3570313,10.7960937 C15.8429688,10.796875 15.9011719,10.2628906 15.509375,10.2632812 C14.5226563,10.2644531 13.5359375,10.2640625 12.5492188,10.2640625 C12.3042969,10.2640625 12.2429688,10.1675781 12.3433594,9.94101561 C12.5691406,9.43085936 12.7960938,8.92109373 13.0191406,8.40937498 C13.0867188,8.25468748 13.1957031,8.18320311 13.3644531,8.18359373 C14.2664063,8.18593748 14.3792969,8.18437498 18.4730469,8.18476561 C18.7105469,8.18437498 18.7867188,8.29374998 18.6925782,8.50781248 Z" id="path-1"></path>
    </defs>
    <g id="wpressr" stroke="none" stroke-width="1" fill="none" fill-rule="evenodd">
        <mask id="mask-2" fill="white">
            <use xlink:href="#path-1"></use>
        </mask>
        <g fill-rule="nonzero"></g>
        <g id="🎨-color" mask="url(#mask-2)" fill="#000000">
            <rect id="🎨-Color" x="0" y="0" width="24" height="24"></rect>
        </g>
    </g>
</svg>