<?xml version="1.0" encoding="UTF-8"?>
<svg width="24px" height="24px" viewBox="0 0 24 24" version="1.1" xmlns="http://www.w3.org/2000/svg" xmlns:xlink="http://www.w3.org/1999/xlink">
    <!-- Generator: Sketch 52.5 (67469) - http://www.bohemiancoding.com/sketch -->
    <title>wrench</title>
    <desc>Created with Sketch.</desc>
    <defs>
        <path d="M21.7949417,6.26459141 C21.7077821,5.91322954 21.2680934,5.79416339 21.0120623,6.05019452 L18.1186771,8.94357975 L15.4774319,8.50350193 L15.0373541,5.86225678 L17.9307393,2.96887155 C18.1883269,2.711284 18.0642024,2.27237349 17.7105059,2.18443575 C15.8669261,1.72762641 13.836965,2.21984431 12.396109,3.66031124 C10.8536965,5.2027237 10.4291829,7.43852138 11.0712062,9.38793773 L2.76809334,17.6910506 C1.79571979,18.6634242 1.79571979,20.2400779 2.76809334,21.2124514 C3.74046688,22.184825 5.31712059,22.184825 6.28949413,21.2124514 L14.5856031,12.9163424 C16.5357977,13.566537 18.7673152,13.1373541 20.3198444,11.5848249 C21.7622569,10.1424124 22.2536965,8.1093385 21.7949417,6.26459141 Z M4.52918284,20.385214 C4.01361864,20.385214 3.5953307,19.9669261 3.5953307,19.4513619 C3.5953307,18.9354086 4.01361864,18.5175098 4.52918284,18.5175098 C5.04474705,18.5175098 5.46303499,18.9354086 5.46303499,19.4513619 C5.46303499,19.9669261 5.04474705,20.385214 4.52918284,20.385214 Z" id="path-1"></path>
    </defs>
    <g id="wrench" stroke="none" stroke-width="1" fill="none" fill-rule="evenodd">
        <mask id="mask-2" fill="white">
            <use xlink:href="#path-1"></use>
        </mask>
        <g fill-rule="nonzero"></g>
        <g id="🎨-color" mask="url(#mask-2)" fill="#000000">
            <rect id="🎨-Color" x="0" y="0" width="24" height="24"></rect>
        </g>
    </g>
</svg>