<?xml version="1.0" encoding="UTF-8"?>
<svg width="24px" height="24px" viewBox="0 0 24 24" version="1.1" xmlns="http://www.w3.org/2000/svg" xmlns:xlink="http://www.w3.org/1999/xlink">
    <!-- Generator: Sketch 52.5 (67469) - http://www.bohemiancoding.com/sketch -->
    <title>x-ray</title>
    <desc>Created with Sketch.</desc>
    <defs>
        <path d="M9.49999999,16 C9.22499999,16 8.99999998,16.225 8.99999998,16.5 C8.99999998,16.775 9.22499999,17 9.49999999,17 C9.77499999,17 9.99999999,16.775 9.99999999,16.5 C9.99999999,16.225 9.77499999,16 9.49999999,16 Z M14.5,17 C14.775,17 15,16.775 15,16.5 C15,16.225 14.775,16 14.5,16 C14.225,16 14,16.225 14,16.5 C14,16.775 14.225,17 14.5,17 Z M21.5,3.99999996 L2.49999995,3.99999996 C2.22499995,3.99999996 1.99999995,4.22499996 1.99999995,4.49999996 L1.99999995,5.49999997 C1.99999995,5.77499997 2.22499995,5.99999997 2.49999995,5.99999997 L21.5,5.99999997 C21.775,5.99999997 22.0000001,5.77499997 22.0000001,5.49999997 L22.0000001,4.49999996 C22.0000001,4.22499996 21.775,3.99999996 21.5,3.99999996 Z M21.5,18 L20,18 L20,6.99999997 L3.99999996,6.99999997 L3.99999996,18 L2.49999995,18 C2.22499995,18 1.99999995,18.225 1.99999995,18.5 L1.99999995,19.5 C1.99999995,19.775 2.22499995,20 2.49999995,20 L21.5,20 C21.775,20 22.0000001,19.775 22.0000001,19.5 L22.0000001,18.5 C22.0000001,18.225 21.775,18 21.5,18 Z M17,11.75 C17,11.8875 16.8875,12 16.75,12 L12.5,12 L12.5,13 L15.75,13 C15.8875,13 16,13.1125 16,13.25 L16,13.75 C16,13.8875 15.8875,14 15.75,14 L12.5,14 L12.5,15 L14.5,15 C15.328125,15 16,15.671875 16,16.5 C16,17.328125 15.328125,18 14.5,18 C13.671875,18 13,17.328125 13,16.5 L13,16 L11,16 L11,16.5 C11,17.328125 10.328125,18 9.49999999,18 C8.67187498,18 7.99999998,17.328125 7.99999998,16.5 C7.99999998,15.671875 8.67187498,15 9.49999999,15 L11.5,15 L11.5,14 L8.24999998,14 C8.11249998,14 7.99999998,13.8875 7.99999998,13.75 L7.99999998,13.25 C7.99999998,13.1125 8.11249998,13 8.24999998,13 L11.5,13 L11.5,12 L7.24999998,12 C7.11249998,12 6.99999997,11.8875 6.99999997,11.75 L6.99999997,11.25 C6.99999997,11.1125 7.11249998,11 7.24999998,11 L11.5,11 L11.5,9.99999999 L8.24999998,9.99999999 C8.11249998,9.99999999 7.99999998,9.88749999 7.99999998,9.74999999 L7.99999998,9.24999999 C7.99999998,9.11249999 8.11249998,8.99999999 8.24999998,8.99999999 L11.5,8.99999999 L11.5,8.24999998 C11.5,8.11249998 11.6125,7.99999998 11.75,7.99999998 L12.25,7.99999998 C12.3875,7.99999998 12.5,8.11249998 12.5,8.24999998 L12.5,8.99999999 L15.75,8.99999999 C15.8875,8.99999999 16,9.11249999 16,9.24999999 L16,9.74999999 C16,9.88749999 15.8875,9.99999999 15.75,9.99999999 L12.5,9.99999999 L12.5,11 L16.75,11 C16.8875,11 17,11.1125 17,11.25 L17,11.75 Z" id="path-1"></path>
    </defs>
    <g id="x-ray" stroke="none" stroke-width="1" fill="none" fill-rule="evenodd">
        <mask id="mask-2" fill="white">
            <use xlink:href="#path-1"></use>
        </mask>
        <g fill-rule="nonzero"></g>
        <g id="🎨-color" mask="url(#mask-2)" fill="#000000">
            <rect id="🎨-Color" x="0" y="0" width="24" height="24"></rect>
        </g>
    </g>
</svg>