<?xml version="1.0" encoding="UTF-8"?>
<svg width="24px" height="24px" viewBox="0 0 24 24" version="1.1" xmlns="http://www.w3.org/2000/svg" xmlns:xlink="http://www.w3.org/1999/xlink">
    <!-- Generator: Sketch 52.5 (67469) - http://www.bohemiancoding.com/sketch -->
    <title>xbox</title>
    <desc>Created with Sketch.</desc>
    <defs>
        <path d="M16.4492188,14.4296875 C18.1796875,16.5507813 18.9765625,18.2890625 18.5742188,19.0664063 C18.265625,19.65625 16.359375,20.8085938 14.9570313,21.25 C13.8007813,21.6132813 12.2851563,21.7695313 11.0351562,21.6484375 C9.54296874,21.5039063 8.03124998,20.96875 6.73437497,20.125 C5.64453122,19.4140625 5.39843747,19.1210938 5.39843747,18.5390625 C5.39843747,17.3710938 6.68359372,15.3242188 8.88281248,12.9882813 C10.1328125,11.6640625 11.8710937,10.109375 12.0625,10.1523437 C12.4296875,10.234375 15.3554688,13.0859375 16.4492188,14.4296875 Z M9.36718749,7.61718748 C8.20703123,6.56640622 7.09765623,5.51171872 5.99218747,5.14062497 C5.39843747,4.94140621 5.35546872,4.95312496 4.87109371,5.45703122 C3.73046871,6.64453122 2.78124995,8.57031248 2.51562495,10.2382812 C2.30468745,11.5742187 2.2773437,11.9492187 2.35156245,12.6015625 C2.57031245,14.5742188 3.02734371,15.9375 3.93359371,17.3242188 C4.30468746,17.8945313 4.40624996,18 4.29687496,17.7109375 C4.13281246,17.28125 4.28515621,16.2460938 4.66796871,15.2109375 C5.22656247,13.6875 6.77343747,10.8007812 9.36718749,7.61718748 Z M21.5390625,10.0976562 C20.8789063,6.97265622 18.9023438,5.00781247 18.625,5.00781247 C18.3398438,5.00781247 17.6796875,5.26171872 17.21875,5.55078122 C16.3085938,6.11718747 15.6171875,6.77734372 14.7070313,7.61328123 C16.3632813,9.69531249 18.6992188,13.0585938 19.5078125,15.515625 C19.7734375,16.3242188 19.8867188,17.1210938 19.796875,17.5585938 C19.7304688,17.890625 19.7304688,17.890625 19.8515625,17.7382813 C20.0898438,17.4375 20.6289063,16.515625 20.84375,16.0390625 C21.1328125,15.40625 21.4296875,14.46875 21.5703125,13.7460938 C21.7382813,12.8671875 21.7226563,10.9804687 21.5390625,10.0976562 Z M7.51953123,3.67968746 C9.38281249,3.58203121 11.8046875,5.02734372 11.984375,5.06249997 C12.0117188,5.06640622 12.390625,4.89843746 12.828125,4.68359371 C15.3242188,3.46874996 16.5,3.67578121 17.0234375,3.69921871 C14.5273438,2.16406245 11.0585937,1.7460937 7.88671873,3.24218746 C6.97265622,3.67578121 6.94921872,3.70703121 7.51953123,3.67968746 Z" id="path-1"></path>
    </defs>
    <g id="xbox" stroke="none" stroke-width="1" fill="none" fill-rule="evenodd">
        <mask id="mask-2" fill="white">
            <use xlink:href="#path-1"></use>
        </mask>
        <g fill-rule="nonzero"></g>
        <g id="🎨-color" mask="url(#mask-2)" fill="#000000">
            <rect id="🎨-Color" x="0" y="0" width="24" height="24"></rect>
        </g>
    </g>
</svg>