<?xml version="1.0" encoding="UTF-8"?>
<svg width="24px" height="24px" viewBox="0 0 24 24" version="1.1" xmlns="http://www.w3.org/2000/svg" xmlns:xlink="http://www.w3.org/1999/xlink">
    <!-- Generator: Sketch 52.5 (67469) - http://www.bohemiancoding.com/sketch -->
    <title>xing</title>
    <desc>Created with Sketch.</desc>
    <defs>
        <path d="M10.8554687,10.203125 C10.7851562,10.3320312 9.87109374,11.9375 8.11718748,15.0273438 C7.92578123,15.3515625 7.69531248,15.515625 7.42578123,15.515625 L4.88281246,15.515625 C4.58203121,15.515625 4.41015621,15.2226563 4.55078121,14.953125 L7.24609373,10.2148437 C7.25390623,10.2148437 7.25390623,10.2109375 7.24609373,10.203125 L5.53124997,7.24999998 C5.36328122,6.94531247 5.54296872,6.69921872 5.86328122,6.69921872 L8.40624998,6.69921872 C8.69140623,6.69921872 8.92578123,6.85937497 9.10937499,7.17578123 L10.8554687,10.203125 Z M19.4453125,3.80078121 L13.8203125,13.6835938 L13.8203125,13.6953125 L17.3984375,20.203125 C17.5507813,20.4804688 17.40625,20.7539063 17.0664063,20.7539063 L14.5195313,20.7539063 C14.2226563,20.7539063 13.9882813,20.5976563 13.8164063,20.2773438 L10.2070312,13.6953125 C10.3359375,13.46875 12.21875,10.1484375 15.8632813,3.72656246 C16.0429688,3.41015621 16.2695313,3.24999996 16.546875,3.24999996 L19.1132813,3.24999996 C19.4257813,3.24999996 19.59375,3.51171871 19.4453125,3.80078121 Z" id="path-1"></path>
    </defs>
    <g id="xing" stroke="none" stroke-width="1" fill="none" fill-rule="evenodd">
        <mask id="mask-2" fill="white">
            <use xlink:href="#path-1"></use>
        </mask>
        <g fill-rule="nonzero"></g>
        <g id="🎨-color" mask="url(#mask-2)" fill="#000000">
            <rect id="🎨-Color" x="0" y="0" width="24" height="24"></rect>
        </g>
    </g>
</svg>