<?xml version="1.0" encoding="UTF-8"?>
<svg width="24px" height="24px" viewBox="0 0 24 24" version="1.1" xmlns="http://www.w3.org/2000/svg" xmlns:xlink="http://www.w3.org/1999/xlink">
    <!-- Generator: Sketch 52.5 (67469) - http://www.bohemiancoding.com/sketch -->
    <title>xing-square</title>
    <desc>Created with Sketch.</desc>
    <defs>
        <path d="M18.875,3.24999996 L5.12499997,3.24999996 C4.08984371,3.24999996 3.24999996,4.08984371 3.24999996,5.12499997 L3.24999996,18.875 C3.24999996,19.9101563 4.08984371,20.75 5.12499997,20.75 L18.875,20.75 C19.9101563,20.75 20.75,19.9101563 20.75,18.875 L20.75,5.12499997 C20.75,4.08984371 19.9101563,3.24999996 18.875,3.24999996 Z M8.73437498,14.5078125 L6.91406247,14.5078125 C6.69921872,14.5078125 6.57421872,14.3007813 6.67968747,14.1054688 L8.60546873,10.71875 C8.60937498,10.71875 8.60937498,10.7148437 8.60546873,10.7109375 L7.37890623,8.60156248 C7.26171873,8.38281248 7.38671873,8.20703123 7.61328123,8.20703123 L9.43359374,8.20703123 C9.63671874,8.20703123 9.80468749,8.32031248 9.93749999,8.54687498 L11.1835937,10.7070312 C11.1328125,10.796875 10.4804687,11.9453125 9.22656249,14.1523438 C9.08984374,14.3945313 8.92578123,14.5078125 8.73437498,14.5078125 Z M17.3164063,6.14453122 L13.3007813,13.203125 L13.3007813,13.2109375 L15.859375,17.859375 C15.96875,18.0585938 15.8632813,18.2539063 15.625,18.2539063 L13.8046875,18.2539063 C13.5898438,18.2539063 13.4257813,18.140625 13.3007813,17.9140625 L10.7226562,13.2148438 C10.8125,13.0546875 12.1601563,10.6796875 14.7617188,6.09374997 C14.890625,5.86718747 15.0507813,5.75390622 15.25,5.75390622 L17.0820313,5.75390622 C17.3046875,5.74999997 17.4257813,5.93749997 17.3164063,6.14453122 Z" id="path-1"></path>
    </defs>
    <g id="xing-square" stroke="none" stroke-width="1" fill="none" fill-rule="evenodd">
        <mask id="mask-2" fill="white">
            <use xlink:href="#path-1"></use>
        </mask>
        <g fill-rule="nonzero"></g>
        <g id="🎨-color" mask="url(#mask-2)" fill="#000000">
            <rect id="🎨-Color" x="0" y="0" width="24" height="24"></rect>
        </g>
    </g>
</svg>