<?xml version="1.0" encoding="UTF-8"?>
<svg width="24px" height="24px" viewBox="0 0 24 24" version="1.1" xmlns="http://www.w3.org/2000/svg" xmlns:xlink="http://www.w3.org/1999/xlink">
    <!-- Generator: Sketch 52.5 (67469) - http://www.bohemiancoding.com/sketch -->
    <title>yahoo</title>
    <desc>Created with Sketch.</desc>
    <defs>
        <path d="M13.09375,13.40625 L13.25,22.0000001 C12.7539063,21.9140625 12.3320313,21.8476563 11.9882812,21.8476563 C11.6601562,21.8476563 11.2382812,21.9140625 10.7265625,22.0000001 L10.8828125,13.40625 C8.73437498,9.70312499 6.57031247,5.71874997 4.08593746,1.99999995 C4.55078121,2.1210937 4.98437496,2.1523437 5.38281247,2.1523437 C5.73437497,2.1523437 6.17968747,2.1210937 6.71484372,1.99999995 C8.31249998,4.82031246 9.92187499,7.41796873 11.9882812,10.8085937 C13.4453125,8.40234373 15.546875,5.17968747 17.2578125,1.99999995 C17.6914063,2.1132812 18.1171875,2.1523437 18.5429688,2.1523437 C18.9921875,2.1523437 19.4492188,2.1132812 19.9101563,1.99999995 C18.5664063,3.87109371 14.7695313,10.4726562 13.09375,13.40625 Z" id="path-1"></path>
    </defs>
    <g id="yahoo" stroke="none" stroke-width="1" fill="none" fill-rule="evenodd">
        <mask id="mask-2" fill="white">
            <use xlink:href="#path-1"></use>
        </mask>
        <g></g>
        <g id="🎨-color" mask="url(#mask-2)" fill="#000000">
            <rect id="🎨-Color" x="0" y="0" width="24" height="24"></rect>
        </g>
    </g>
</svg>