<?xml version="1.0" encoding="UTF-8"?>
<svg width="24px" height="24px" viewBox="0 0 24 24" version="1.1" xmlns="http://www.w3.org/2000/svg" xmlns:xlink="http://www.w3.org/1999/xlink">
    <!-- Generator: Sketch 52.5 (67469) - http://www.bohemiancoding.com/sketch -->
    <title>yelp</title>
    <desc>Created with Sketch.</desc>
    <defs>
        <path d="M9.85185184,14.7875244 C9.81286549,14.7992203 5.59454188,16.1793373 5.33723194,16.1793373 C4.74463934,16.1442495 4.61598437,15.5477583 4.56140347,14.962963 C4.50292394,14.4093567 4.50682257,13.8011696 4.57309938,13.1384016 C4.64717345,12.4054581 4.78752433,11.380117 5.51656917,11.4230019 C5.70370367,11.4230019 8.13255359,12.4327485 9.91033137,13.1539961 C10.576998,13.4191033 10.6354776,14.5497076 9.85185184,14.7875244 Z M12.1091618,10.3469785 C12.1793372,11.8362573 11.1150097,12.2378168 10.2690058,10.9044834 L6.12475631,4.35477579 C6.06627677,4.09746585 6.13645221,3.87134499 6.33138399,3.67641321 C6.93957112,3.03313836 10.2066277,2.12475629 11.0682261,2.34697851 C11.3606238,2.42105258 11.539961,2.58479527 11.6062378,2.83820658 C11.6569201,3.16179333 12.0545809,9.3645224 12.1091618,10.3469785 Z M12.0545809,16.7719298 C12.0545809,16.9512671 12.0623782,21.3099416 11.9883041,21.508772 C11.8986355,21.7426901 11.7153996,21.8869396 11.4307992,21.9454192 C11.037037,22.011696 10.374269,21.8713451 9.44249511,21.5282652 C8.5847953,21.2124757 7.23196879,20.6900585 7.52046781,19.8713451 C7.62962961,19.6023392 9.52436646,17.423002 10.5341131,16.2222222 C11.0019493,15.6296296 12.08577,16.0077973 12.0545809,16.7719298 Z M19.0799221,12.1793372 C18.8615985,12.3235867 14.7602339,13.2787524 14.4756335,13.3723197 L14.4873294,13.3489279 C13.7816764,13.5321638 13.1072125,12.6276803 13.5789474,12 C13.7231969,11.8557505 16.1481482,8.3976608 16.417154,8.21832357 C16.6198831,8.07797269 16.8576998,8.07017542 17.1306043,8.19493175 C17.8479532,8.53801168 19.2787525,10.6549708 19.3684211,11.4931774 C19.3645225,11.6062378 19.4152047,11.9493177 19.0799221,12.1793372 Z M19.4736842,17.2748538 C19.3684211,18.0779727 17.7387915,20.1364523 16.9863548,20.4327486 C16.717349,20.5341131 16.4834308,20.5107213 16.2962963,20.3547759 C16.1013645,20.2183236 13.8869396,16.5692008 13.7660819,16.3664718 C13.3411306,15.7348928 14.0311891,14.8148148 14.7641326,15.0721248 C14.7641326,15.0721248 19.0721248,16.4639376 19.2358675,16.6081872 C19.4385965,16.7680312 19.5165692,16.9902534 19.4736842,17.2748538 Z" id="path-1"></path>
    </defs>
    <g id="yelp" stroke="none" stroke-width="1" fill="none" fill-rule="evenodd">
        <mask id="mask-2" fill="white">
            <use xlink:href="#path-1"></use>
        </mask>
        <g fill-rule="nonzero"></g>
        <g id="🎨-color" mask="url(#mask-2)" fill="#000000">
            <rect id="🎨-Color" x="0" y="0" width="24" height="24"></rect>
        </g>
    </g>
</svg>