<?xml version="1.0" encoding="UTF-8"?>
<svg width="24px" height="24px" viewBox="0 0 24 24" version="1.1" xmlns="http://www.w3.org/2000/svg" xmlns:xlink="http://www.w3.org/1999/xlink">
    <!-- Generator: Sketch 52.5 (67469) - http://www.bohemiancoding.com/sketch -->
    <title>yen-sign</title>
    <desc>Created with Sketch.</desc>
    <defs>
        <path d="M18.2190625,3.24999996 L15.6691797,3.24999996 C15.4902067,3.24999895 15.3268526,3.35190961 15.2481641,3.51265621 L13.0844922,7.93308592 C12.5175781,9.28871092 12.0246094,10.7429297 12.0246094,10.7429297 L11.9753125,10.7429297 C11.9753125,10.7429297 11.4823437,9.28871092 10.9154297,7.93308592 L8.7517578,3.51265621 C8.67309708,3.35190281 8.50974816,3.24998594 8.33078123,3.24999996 L5.78093747,3.24999996 C5.4271484,3.24999996 5.20085934,3.62695308 5.36726559,3.93917965 L8.49695311,9.81249999 L6.21874997,9.81249999 C5.95988278,9.81249999 5.74999997,10.0223828 5.74999997,10.28125 L5.74999997,11.53125 C5.74999997,11.7901172 5.95988278,12 6.21874997,12 L9.66257811,12 L10.4375,13.4542188 L10.4375,14.5 L6.21874997,14.5 C5.95988278,14.5 5.74999997,14.7098828 5.74999997,14.96875 L5.74999997,16.21875 C5.74999997,16.4776172 5.95988278,16.6875 6.21874997,16.6875 L10.4375,16.6875 L10.4375,20.28125 C10.4375,20.5401172 10.6473828,20.75 10.90625,20.75 L13.09375,20.75 C13.3526172,20.75 13.5625,20.5401172 13.5625,20.28125 L13.5625,16.6875 L17.78125,16.6875 C18.0401172,16.6875 18.25,16.4776172 18.25,16.21875 L18.25,14.96875 C18.25,14.7098828 18.0401172,14.5 17.78125,14.5 L13.5625,14.5 L13.5625,13.4542188 L14.3374219,12 L17.78125,12 C18.0401172,12 18.25,11.7901172 18.25,11.53125 L18.25,10.28125 C18.25,10.0223828 18.0401172,9.81249999 17.78125,9.81249999 L15.5030469,9.81249999 L18.6327344,3.93917965 C18.7991407,3.62695308 18.5728907,3.24999996 18.2190625,3.24999996 Z" id="path-1"></path>
    </defs>
    <g id="yen-sign" stroke="none" stroke-width="1" fill="none" fill-rule="evenodd">
        <mask id="mask-2" fill="white">
            <use xlink:href="#path-1"></use>
        </mask>
        <g></g>
        <g id="🎨-color" mask="url(#mask-2)" fill="#000000">
            <rect id="🎨-Color" x="0" y="0" width="24" height="24"></rect>
        </g>
    </g>
</svg>