<?xml version="1.0" encoding="UTF-8"?>
<svg width="24px" height="24px" viewBox="0 0 24 24" version="1.1" xmlns="http://www.w3.org/2000/svg" xmlns:xlink="http://www.w3.org/1999/xlink">
    <!-- Generator: Sketch 52.5 (67469) - http://www.bohemiancoding.com/sketch -->
    <title>yin-yang</title>
    <desc>Created with Sketch.</desc>
    <defs>
        <path d="M12,2.31249995 C6.64960935,2.31249995 2.31249995,6.64960935 2.31249995,12 C2.31249995,17.3503907 6.64960935,21.6875 12,21.6875 C17.3503907,21.6875 21.6875,17.3503907 21.6875,12 C21.6875,6.64960935 17.3503907,2.31249995 12,2.31249995 Z M12,17 C11.3097656,17 10.75,16.4402344 10.75,15.75 C10.75,15.0597656 11.3097656,14.5 12,14.5 C12.6902344,14.5 13.25,15.0597656 13.25,15.75 C13.25,16.4402344 12.6902344,17 12,17 Z M12,12 C9.92890624,12 8.24999998,13.6789063 8.24999998,15.75 C8.24999998,17.8210938 9.92890624,19.5 12,19.5 C7.85781248,19.5 4.49999996,16.1421875 4.49999996,12 C4.49999996,7.85781248 7.85781248,4.49999996 12,4.49999996 C14.0710938,4.49999996 15.75,6.17890622 15.75,8.24999998 C15.75,10.3210937 14.0710938,12 12,12 Z M12,6.99999997 C11.3097656,6.99999997 10.75,7.5597656 10.75,8.24999998 C10.75,8.94023436 11.3097656,9.49999999 12,9.49999999 C12.6902344,9.49999999 13.25,8.94023436 13.25,8.24999998 C13.25,7.5597656 12.6902344,6.99999997 12,6.99999997 Z" id="path-1"></path>
    </defs>
    <g id="yin-yang" stroke="none" stroke-width="1" fill="none" fill-rule="evenodd">
        <mask id="mask-2" fill="white">
            <use xlink:href="#path-1"></use>
        </mask>
        <g fill-rule="nonzero"></g>
        <g id="🎨-color" mask="url(#mask-2)" fill="#000000">
            <rect id="🎨-Color" x="0" y="0" width="24" height="24"></rect>
        </g>
    </g>
</svg>