<?xml version="1.0" encoding="UTF-8"?>
<svg width="24px" height="24px" viewBox="0 0 24 24" version="1.1" xmlns="http://www.w3.org/2000/svg" xmlns:xlink="http://www.w3.org/1999/xlink">
    <!-- Generator: Sketch 52.5 (67469) - http://www.bohemiancoding.com/sketch -->
    <title>yoast</title>
    <desc>Created with Sketch.</desc>
    <defs>
        <path d="M6.81640622,4.96874996 L14.0820313,4.96874996 L13.8085938,5.70703122 L6.81640622,5.70703122 C5.26562497,5.70703122 4.00781246,6.94140622 4.00781246,8.45312498 L4.00781246,16.4765625 C4.00781246,17.859375 4.98046871,19.2226563 7.28906248,19.2226563 L7.28906248,19.96875 L6.81640622,19.96875 C4.85937496,19.96875 3.24999996,18.3984375 3.24999996,16.4726563 L3.24999996,8.45312498 C3.24999996,6.52734372 4.83984371,4.96874996 6.81640622,4.96874996 Z M15.765625,2.78124995 L18.3632813,2.78124995 C12.7460938,17.5507813 12.671875,18.3632813 11.1484375,19.9414063 C10.3359375,20.7851563 9.22265624,21.1796875 8.08984373,21.21875 L8.08984373,19.2226563 C10.0117187,18.921875 10.6132812,17.2734375 10.6132812,16.28125 C10.6132812,15.4960938 10.6367187,15.7890625 7.40624998,7.56249998 L9.80468749,7.56249998 L11.7734375,13.6796875 L15.765625,2.78124995 Z M20.75,8.30859373 L20.75,19.96875 L12.390625,19.96875 C12.6484375,19.59375 12.8085938,19.3320313 12.8632813,19.2109375 L19.9921875,19.2109375 L19.9921875,8.30859373 C19.9921875,7.03906248 19.3242188,6.28124997 18.109375,5.85156247 L18.3710938,5.16406247 C20,5.69531247 20.75,6.84765622 20.75,8.30859373 Z" id="path-1"></path>
    </defs>
    <g id="yoast" stroke="none" stroke-width="1" fill="none" fill-rule="evenodd">
        <mask id="mask-2" fill="white">
            <use xlink:href="#path-1"></use>
        </mask>
        <g fill-rule="nonzero"></g>
        <g id="🎨-color" mask="url(#mask-2)" fill="#000000">
            <rect id="🎨-Color" x="0" y="0" width="24" height="24"></rect>
        </g>
    </g>
</svg>