<?xml version="1.0" encoding="UTF-8"?>
<svg width="24px" height="24px" viewBox="0 0 24 24" version="1.1" xmlns="http://www.w3.org/2000/svg" xmlns:xlink="http://www.w3.org/1999/xlink">
    <!-- Generator: Sketch 52.5 (67469) - http://www.bohemiancoding.com/sketch -->
    <title>youtube-square</title>
    <desc>Created with Sketch.</desc>
    <defs>
        <path d="M10.546875,9.89453124 L14.265625,12.0078125 L10.546875,14.1210938 L10.546875,9.89453124 Z M20.75,5.12499997 L20.75,18.875 C20.75,19.9101563 19.9101563,20.75 18.875,20.75 L5.12499997,20.75 C4.08984371,20.75 3.24999996,19.9101563 3.24999996,18.875 L3.24999996,5.12499997 C3.24999996,4.08984371 4.08984371,3.24999996 5.12499997,3.24999996 L18.875,3.24999996 C19.9101563,3.24999996 20.75,4.08984371 20.75,5.12499997 Z M19.109375,12.0117188 C19.109375,12.0117188 19.109375,9.68359374 18.8125,8.56640623 C18.6484375,7.94921873 18.1679688,7.46484373 17.5546875,7.30078123 C16.4492188,6.99999997 12,6.99999997 12,6.99999997 C12,6.99999997 7.55078123,6.99999997 6.44531247,7.30078123 C5.83203122,7.46484373 5.35156247,7.94921873 5.18749997,8.56640623 C4.89062496,9.67968749 4.89062496,12.0117188 4.89062496,12.0117188 C4.89062496,12.0117188 4.89062496,14.3398438 5.18749997,15.4570313 C5.35156247,16.0742188 5.83203122,16.5390625 6.44531247,16.703125 C7.55078123,17 12,17 12,17 C12,17 16.4492188,17 17.5546875,16.6992188 C18.1679688,16.5351563 18.6484375,16.0703125 18.8125,15.453125 C19.109375,14.3398438 19.109375,12.0117188 19.109375,12.0117188 Z" id="path-1"></path>
    </defs>
    <g id="youtube-square" stroke="none" stroke-width="1" fill="none" fill-rule="evenodd">
        <mask id="mask-2" fill="white">
            <use xlink:href="#path-1"></use>
        </mask>
        <g fill-rule="nonzero"></g>
        <g id="🎨-color" mask="url(#mask-2)" fill="#000000">
            <rect id="🎨-Color" x="0" y="0" width="24" height="24"></rect>
        </g>
    </g>
</svg>