<?xml version="1.0" encoding="UTF-8"?>
<svg width="24px" height="24px" viewBox="0 0 24 24" version="1.1" xmlns="http://www.w3.org/2000/svg" xmlns:xlink="http://www.w3.org/1999/xlink">
    <!-- Generator: Sketch 52.5 (67469) - http://www.bohemiancoding.com/sketch -->
    <title>youtube</title>
    <desc>Created with Sketch.</desc>
    <defs>
        <path d="M21.0852431,7.41954859 C20.8671528,6.59836803 20.2245834,5.95163191 19.4087153,5.73215275 C17.9298959,5.3333333 12,5.3333333 12,5.3333333 C12,5.3333333 6.07013886,5.3333333 4.59128469,5.73215275 C3.77541663,5.95166664 3.13284718,6.59836803 2.9147569,7.41954859 C2.5185069,8.9079861 2.5185069,12.0134722 2.5185069,12.0134722 C2.5185069,12.0134722 2.5185069,15.1189583 2.9147569,16.6073959 C3.13284718,17.4285764 3.77541663,18.0483681 4.59128469,18.2678473 C6.07013886,18.6666667 12,18.6666667 12,18.6666667 C12,18.6666667 17.9298611,18.6666667 19.4087153,18.2678473 C20.2245834,18.0483681 20.8671528,17.4285764 21.0852431,16.6073959 C21.4814931,15.1189583 21.4814931,12.0134722 21.4814931,12.0134722 C21.4814931,12.0134722 21.4814931,8.9079861 21.0852431,7.41954859 Z M10.0605903,14.8330208 L10.0605903,9.1939236 L15.0168056,12.0135417 L10.0605903,14.8330208 Z" id="path-1"></path>
    </defs>
    <g id="youtube" stroke="none" stroke-width="1" fill="none" fill-rule="evenodd">
        <mask id="mask-2" fill="white">
            <use xlink:href="#path-1"></use>
        </mask>
        <g fill-rule="nonzero"></g>
        <g id="🎨-color" mask="url(#mask-2)" fill="#000000">
            <rect id="🎨-Color" x="0" y="0" width="24" height="24"></rect>
        </g>
    </g>
</svg>