<?xml version="1.0" encoding="UTF-8"?>
<svg width="24px" height="24px" viewBox="0 0 24 24" version="1.1" xmlns="http://www.w3.org/2000/svg" xmlns:xlink="http://www.w3.org/1999/xlink">
    <!-- Generator: Sketch 52.5 (67469) - http://www.bohemiancoding.com/sketch -->
    <title>zhihu</title>
    <desc>Created with Sketch.</desc>
    <defs>
        <path d="M7.32937498,8.62906248 L7.32937498,15.4271875 L8.06156248,15.4275 L8.30249998,16.2515625 L9.61531249,15.4275 L11.163125,15.4275 L11.163125,8.62906248 L7.32937498,8.62906248 Z M10.3840625,14.689375 L9.51093749,14.689375 L8.63906248,15.2365625 L8.48031248,14.690625 L8.10843748,14.689375 L8.10843748,9.36718749 L10.3840625,9.36718749 L10.3840625,14.689375 Z M6.68218747,11.7396875 L5.04687497,11.7396875 C5.10124997,10.8928125 5.11562497,10.1275 5.11562497,9.44406249 L6.71437497,9.44406249 C6.71437497,9.44406249 6.77593747,8.73906248 6.44624997,8.74687498 L3.68062496,8.74687498 C3.78968746,8.33687498 3.92656246,7.91374998 4.09062496,7.47593748 C4.09062496,7.47593748 3.33843746,7.47593748 3.08218746,8.14999998 C2.97624995,8.42812498 2.66937495,9.49812499 2.12281245,10.59125 C2.30687495,10.57125 2.91562495,10.554375 3.27406246,9.89718749 C3.33999996,9.71312499 3.35249996,9.68906249 3.43468746,9.44312499 L4.33687496,9.44312499 C4.33687496,9.77124999 4.29937496,11.533125 4.28437496,11.738125 L2.65093745,11.738125 C2.28406245,11.738125 2.16468745,12.47625 2.16468745,12.47625 L4.21406246,12.47625 C4.07656246,14.034375 3.33843746,15.3475 1.99999995,16.385625 C2.64031245,16.5684375 3.27843746,16.3565625 3.59374996,16.07625 C3.59374996,16.07625 4.31187496,15.423125 4.70593746,13.9121875 L6.39218747,15.9415625 C6.39218747,15.9415625 6.63937497,15.10125 6.35343747,14.691875 C6.11656247,14.413125 5.47656247,13.65875 5.20374997,13.3853125 L4.74687496,13.7484375 C4.88312496,13.3115625 4.96531246,12.8875 4.99281246,12.4775 L6.91937497,12.4775 C6.91937497,12.4775 6.91656247,11.739375 6.68218747,11.739375 L6.68218747,11.7396875 Z M19.5578125,11.6896875 C20.20875,10.8884375 20.9634375,9.85937499 20.9634375,9.85937499 C20.9634375,9.85937499 20.380625,9.39687499 20.1078125,9.73249999 C19.9203125,9.98718749 18.956875,11.23875 18.956875,11.23875 L19.5578125,11.6896875 Z M14.8675,9.84312499 C14.5859375,9.58531249 14.0578125,9.90968749 14.0578125,9.90968749 C14.0578125,9.90968749 15.2928125,11.6296875 15.3428125,11.705 L15.9509375,11.2759375 C15.9509375,11.2759375 15.14875,10.100625 14.8678125,9.84281249 L14.8675,9.84281249 L14.8675,9.84312499 Z M22.0000001,12.0734375 C21.381875,12.0734375 17.9090625,12.1025 17.904375,12.1025 L17.904375,8.94624998 C18.0546875,8.94624998 18.2925,8.93374998 18.6184375,8.90874998 C19.8959375,8.83343748 20.81,8.78374998 21.36125,8.75843748 C21.36125,8.75843748 21.743125,7.90874998 21.3428125,7.71343748 C21.246875,7.67656248 20.61875,7.85656248 20.61875,7.85656248 C20.61875,7.85656248 15.455625,8.37187498 13.3575,8.42062498 C13.4075,8.69624998 13.595625,8.95437498 13.850625,9.03156249 C14.2665625,9.14031249 14.5596875,9.08468749 15.3865625,9.05937499 C16.1625,9.00937499 16.7515625,8.98343748 17.1525,8.98343748 L17.1525,12.1025 L12.9815625,12.1025 C12.9815625,12.1025 13.0696875,12.7996875 13.77875,12.8165625 L17.151875,12.8165625 L17.151875,15.0328125 C17.151875,15.469375 16.8021875,15.72 16.386875,15.6928125 C15.946875,15.69625 15.571875,15.656875 15.0840625,15.63625 C15.14625,15.7603125 15.281875,16.0859375 15.6875,16.31875 C15.99625,16.4690625 16.1928125,16.5240625 16.500625,16.5240625 C17.424375,16.5240625 17.9278125,15.9840625 17.9034375,15.108125 L17.9034375,12.816875 L21.7271875,12.816875 C22.0296876,12.816875 21.9990625,12.07375 21.9990625,12.07375 L22.0000001,12.0734375 Z" id="path-1"></path>
    </defs>
    <g id="zhihu" stroke="none" stroke-width="1" fill="none" fill-rule="evenodd">
        <mask id="mask-2" fill="white">
            <use xlink:href="#path-1"></use>
        </mask>
        <g fill-rule="nonzero"></g>
        <g id="🎨-color" mask="url(#mask-2)" fill="#000000">
            <rect id="🎨-Color" x="0" y="0" width="24" height="24"></rect>
        </g>
    </g>
</svg>